<svg height="24" width="24" xmlns="http://www.w3.org/2000/svg"><path d="M24 12s.15-5.97-1.44-7.47C20.96 3.02 13.42 3 13.42 3h-2.84s-7.55.01-9.14 1.53C-.15 6.03 0 12 0 12s-.15 5.97 1.44 7.47c1.6 1.51 9.14 1.53 9.14 1.53h2.84s7.55-.01 9.14-1.53C24.15 17.97 24 12 24 12zM7.6 14.87c-.16.3-.37.54-.62.73-.26.18-.56.33-.9.42a4.4 4.4 0 01-2.39-.05 2.34 2.34 0 01-1.48-1.41A3.4 3.4 0 012 13.44h1.44c.01.22.04.43.1.61.06.2.15.35.27.5.1.13.26.24.45.3.18.07.4.12.66.12.42 0 .74-.1.98-.33.24-.21.34-.51.34-.9 0-.36-.1-.65-.34-.86-.23-.2-.57-.3-1.04-.3H4.4v-1.14h.43c.36 0 .65-.09.87-.25a.86.86 0 00.35-.75c0-.3-.1-.54-.29-.72a1.1 1.1 0 00-.78-.27c-.43 0-.75.13-.96.37a1.5 1.5 0 00-.34.98H2.24c.01-.38.09-.72.2-1.02a2.17 2.17 0 011.39-1.29 3.4 3.4 0 011.15-.18 3.26 3.26 0 011.89.55c.23.17.4.4.51.63a2 2 0 01.18.86c0 .42-.12.76-.36 1.02-.24.24-.54.43-.91.55v.03c.48.12.85.33 1.12.63.27.32.4.74.4 1.26 0 .4-.07.74-.22 1.02zm6.89-.27c-.15.31-.35.6-.6.84-.26.22-.56.4-.89.54-.34.12-.72.19-1.1.19a2.84 2.84 0 01-2.35-1.14 3.5 3.5 0 01-.58-1.21 6.76 6.76 0 010-3.27c.15-.53.4-1 .72-1.37.24-.28.54-.5.89-.64.34-.15.78-.23 1.28-.23a3 3 0 011.79.56 2.1 2.1 0 01.8 1.39h-1.43a1.15 1.15 0 00-.35-.58 1.16 1.16 0 00-.76-.23c-.54 0-.94.2-1.21.59-.27.37-.4.91-.4 1.57.22-.24.44-.42.71-.57a2.4 2.4 0 011.07-.21 2.64 2.64 0 012.41 1.59 2.93 2.93 0 010 2.17zm7.29-.74c-.14.5-.35.9-.62 1.25-.27.34-.6.6-.99.79a3.1 3.1 0 01-1.32.27c-.48 0-.91-.09-1.3-.27-.4-.2-.72-.45-1-.8a3.74 3.74 0 01-.62-1.24 5.42 5.42 0 01-.23-1.62c0-.6.08-1.15.23-1.63.15-.5.36-.9.64-1.25a2.87 2.87 0 012.3-1.06 2.87 2.87 0 012.3 1.06 5.18 5.18 0 01.83 2.88c0 .6-.07 1.14-.22 1.62zm-2.2-4.1c-.2-.11-.44-.19-.71-.19a1.37 1.37 0 00-1.22.74c-.13.23-.22.5-.3.83a6.1 6.1 0 000 2.18c.08.33.17.61.3.85.12.23.29.41.5.55.2.11.43.17.72.17.27 0 .5-.06.7-.18.2-.12.36-.3.5-.54.12-.22.22-.5.28-.83.06-.33.08-.7.08-1.1 0-.4-.02-.77-.08-1.1-.06-.33-.16-.6-.28-.84-.14-.22-.3-.4-.5-.54zm-7.16 2.39c-.18-.07-.36-.1-.57-.1-.46 0-.82.13-1.08.4-.25.28-.37.65-.37 1.08 0 .43.13.78.4 1.05s.62.4 1.04.4a1.38 1.38 0 001.31-.87 1.43 1.43 0 000-1.15 1.5 1.5 0 00-.28-.48 1.58 1.58 0 00-.45-.33z"/></svg>