<svg xmlns="http://www.w3.org/2000/svg" width="24" height="24"><path d="M0 12a12 12 0 1 1 24 0 12 12 0 0 1-24 0m8.7-8.37q-.42.16-.81.37L12 6.37v-.89l-.02.04zM12 8.37v-.89l-.02.04-5.07-2.93q-.33.22-.64.48zm-6.5-2.6-.49.57L12 10.37v-.89l-.02.04zm6.5 6.6v-.89l-.02.04-7.56-4.37q-.2.3-.37.63zM3.63 8.7q-.14.35-.25.7L12 14.38v-.89l-.02.04zM12 16.37v-.89l-.02.04-8.84-5.1q-.07.38-.1.78zm-9-4.03q.02.45.08.88L12 18.37v-.89l-.02.04zm9 8.03v-.89l-.02.04-8.61-4.98q.16.55.39 1.08zm-7.23-3.02a9 9 0 0 0 6.22 3.6zm5.24-14.13L12 4.37V3q-1.02 0-2 .22"/></svg>