<svg xmlns="http://www.w3.org/2000/svg" width="24" height="24"><path d="M9.32 2.33h-1a1.33 1.33 0 1 0 0 2.66h1v1a1.33 1.33 0 1 0 2.66 0V5h1a1.33 1.33 0 1 0 0-2.66h-1v-1a1.33 1.33 0 1 0-2.66 0zm9.66 0h-1a1.33 1.33 0 1 0 0 2.66h1v1a1.33 1.33 0 1 0 2.66 0V5h1a1.33 1.33 0 1 0 0-2.66h-1v-1a1.33 1.33 0 0 0-2.66 0zm1.33 7.33c-.74 0-1.33.6-1.33 1.33v1h-1a1.33 1.33 0 1 0 0 2.66h1v1a1.33 1.33 0 1 0 2.66 0v-1h1a1.33 1.33 0 0 0 0-2.66h-1v-1c0-.74-.6-1.33-1.33-1.33m-3.48-2.49a2.33 2.33 0 0 0-3.3 0L.68 20.02a2.33 2.33 0 1 0 3.3 3.3l12.85-12.85c.9-.91.9-2.39 0-3.3"/></svg>