<svg width="24" height="24" viewBox="0 0 24 24" fill="none" xmlns="http://www.w3.org/2000/svg">
<path fill-rule="evenodd" clip-rule="evenodd" d="M12 24C18.6274 24 24 18.6274 24 12C24 5.37258 18.6274 0 12 0C5.37258 0 0 5.37258 0 12C0 18.6274 5.37258 24 12 24ZM16.789 5.09188C17.0848 6.11096 17.8886 6.91479 18.9083 7.21054C19.0308 7.24613 19.0308 7.42054 18.9083 7.45612C17.8886 7.75187 17.0848 8.55571 16.789 9.57479C16.754 9.69729 16.5796 9.69729 16.544 9.57479C16.2483 8.55571 15.445 7.75187 14.4248 7.45612C14.3023 7.42054 14.3023 7.24613 14.4248 7.21054C15.445 6.91479 16.2483 6.11096 16.544 5.09188C16.5796 4.96938 16.754 4.96938 16.789 5.09188ZM11.4469 18.7594C12.2233 16.083 14.3326 13.9731 17.0095 13.1973C17.3304 13.104 17.3304 12.646 17.0095 12.5527C14.3326 11.7769 12.2233 9.66696 11.4469 6.99062C11.3541 6.66979 10.8962 6.66979 10.8029 6.99062C10.0264 9.66696 7.9171 11.7769 5.24019 12.5527C4.91994 12.646 4.91994 13.104 5.24019 13.1973C7.9171 13.9731 10.0264 16.083 10.8029 18.7594C10.8962 19.0802 11.3541 19.0802 11.4469 18.7594Z" fill="black"/>
</svg>
