<svg xmlns="http://www.w3.org/2000/svg" width="24" height="24"><path d="M12 7.28q.96 0 1.63-.23a5 5 0 0 0 1.14-.57q.5-.34.88-.67.39-.35.78-.58.39-.24.9-.23t.9.23.77.58q.39.33.89.67a5 5 0 0 0 3.03.8H23q.41 0 .7-.29.3-.3.3-.72 0-.4-.3-.7a1 1 0 0 0-.7-.3h-.08q-.78 0-1.35-.28-.57-.3-1.23-.78-.55-.4-1.3-.8a3.4 3.4 0 0 0-1.7-.41 3.5 3.5 0 0 0-1.76.42q-.75.42-1.3.83-.57.45-1.08.74-.5.28-1.2.28T10.8 5t-1.08-.74q-.55-.4-1.3-.83A3.5 3.5 0 0 0 6.69 3q-.99 0-1.72.41-.74.4-1.29.8-.67.48-1.24.78-.57.28-1.35.28H1q-.42 0-.72.3t-.29.7Q0 6.7.29 7q.3.3.72.3h.07q1.07 0 1.8-.24.74-.24 1.23-.57.5-.34.88-.67.39-.35.78-.58.39-.24.9-.23.53 0 .9.23.4.23.8.58.38.33.86.67.48.33 1.15.57t1.62.23m0 6.69q.96 0 1.63-.23t1.14-.57q.5-.34.88-.68.39-.34.78-.57.39-.24.9-.24t.9.24q.4.22.77.57.39.34.89.68a5 5 0 0 0 3.03.8H23q.41 0 .7-.29.3-.3.3-.71 0-.42-.3-.7a1 1 0 0 0-.7-.3h-.08q-.78 0-1.35-.3-.57-.29-1.23-.77-.55-.4-1.3-.8a3.4 3.4 0 0 0-1.7-.41q-1.02 0-1.76.43-.75.42-1.3.82-.57.45-1.08.73-.5.3-1.2.3t-1.2-.3-1.08-.73q-.55-.4-1.3-.82a3.4 3.4 0 0 0-1.74-.43q-.99 0-1.72.4-.74.42-1.29.8-.67.5-1.24.78-.57.3-1.35.3H1q-.42 0-.72.3-.3.27-.29.7a1 1 0 0 0 1 1h.08q1.07 0 1.8-.23.74-.24 1.23-.57.5-.34.88-.68.39-.35.78-.57.39-.24.9-.24.53 0 .9.24.4.22.8.57.38.34.86.68.48.33 1.15.57t1.62.23m0 6.69q.96 0 1.63-.24.66-.21 1.14-.56.5-.35.88-.68.39-.35.78-.56.39-.24.9-.24t.9.24q.4.21.77.56.39.33.89.68.51.35 1.23.56.72.24 1.8.24H23q.41 0 .7-.3.3-.3.3-.7 0-.41-.3-.7a1 1 0 0 0-.7-.3h-.08q-.78 0-1.35-.29-.57-.3-1.23-.77-.55-.4-1.3-.81a3.4 3.4 0 0 0-1.7-.41q-1.02 0-1.76.43-.75.42-1.3.82-.57.45-1.08.74-.5.3-1.2.29-.7 0-1.2-.29-.51-.3-1.08-.74-.55-.4-1.3-.82a3.4 3.4 0 0 0-1.74-.43q-.99 0-1.72.4-.74.42-1.29.82-.67.47-1.24.77t-1.35.29H1q-.42 0-.72.3-.3.29-.29.7 0 .4.29.7.3.3.72.3h.07q1.07 0 1.8-.24.74-.21 1.23-.56.5-.35.88-.68.39-.35.78-.56.39-.24.9-.24.53 0 .9.24.4.21.8.56.38.33.86.68t1.15.56q.66.24 1.62.24"/></svg>