<svg width="354" height="180" viewBox="0 0 354 180" fill="none" xmlns="http://www.w3.org/2000/svg">
<g clip-path="url(#clip0_1208_65253)">
<rect width="354" height="180" fill="#E9E4FF"/>
<path d="M70.5 37C70.5 61.665 51.775 81.6471 28.5 82.4734L28.5 -8.47341C51.775 -7.64712 70.5 12.3349 70.5 37Z" fill="#111111" stroke="#111111" stroke-width="3"/>
<path d="M278.5 36C278.5 60.665 259.775 80.6471 236.5 81.4734L236.5 -9.47341C259.775 -8.64712 278.5 11.3349 278.5 36Z" fill="white" stroke="#111111" stroke-width="3"/>
<path d="M174.5 143C174.5 167.665 155.775 187.647 132.5 188.473L132.5 97.5266C155.775 98.3529 174.5 118.335 174.5 143Z" fill="#111111" stroke="#111111" stroke-width="3"/>
<path d="M75.5 37C75.5 12.335 94.225 -7.64712 117.5 -8.47341L117.5 82.4734C94.225 81.6471 75.5 61.6651 75.5 37Z" fill="#E9E4FF" stroke="#111111" stroke-width="3"/>
<path d="M283.5 36C283.5 11.335 302.225 -8.64712 325.5 -9.47341L325.5 81.4734C302.225 80.6471 283.5 60.6651 283.5 36Z" fill="#E9E4FF" stroke="#111111" stroke-width="3"/>
<path d="M179.5 143C179.5 118.335 198.225 98.3529 221.5 97.5266L221.5 188.473C198.225 187.647 179.5 167.665 179.5 143Z" fill="#E9E4FF" stroke="#111111" stroke-width="3"/>
<path d="M73 140.5C48.9053 140.5 29.3343 121.803 28.526 98.5L117.474 98.5C116.666 121.803 97.0947 140.5 73 140.5Z" fill="#E9E4FF" stroke="#111111" stroke-width="3"/>
<path d="M281 138.5C256.887 138.5 237.354 120.221 236.527 97.5L325.473 97.5C324.646 120.221 305.113 138.5 281 138.5Z" fill="#E9E4FF" stroke="#111111" stroke-width="3"/>
<path d="M177 33.5C152.905 33.5 133.334 14.8027 132.526 -8.5L221.474 -8.50001C220.666 14.8027 201.095 33.5 177 33.5Z" fill="#E9E4FF" stroke="#111111" stroke-width="3"/>
<path d="M73 146.5C97.1134 146.5 116.646 164.779 117.473 187.5L28.5272 187.5C29.3539 164.779 48.8866 146.5 73 146.5Z" fill="white" stroke="#111111" stroke-width="3"/>
<path d="M281 144.5C305.095 144.5 324.666 163.197 325.474 186.5L236.526 186.5C237.334 163.197 256.905 144.5 281 144.5Z" fill="#111111" stroke="#111111" stroke-width="3"/>
<path d="M177 40.5C201.095 40.5 220.666 59.1973 221.474 82.5L132.526 82.5C133.334 59.1973 152.905 40.5 177 40.5Z" fill="#E9E4FF" stroke="#111111" stroke-width="3"/>
</g>
<rect x="1.5" y="1.5" width="351" height="177" stroke="black" stroke-width="3"/>
<defs>
<clipPath id="clip0_1208_65253">
<rect width="354" height="180" fill="white"/>
</clipPath>
</defs>
</svg>
