<svg width="354" height="180" viewBox="0 0 354 180" fill="none" xmlns="http://www.w3.org/2000/svg">
<g clip-path="url(#clip0_1208_65267)">
<rect width="354" height="180" fill="#C3F9C2"/>
<path d="M44.4323 38.5L29.9629 48.9145L29.9513 48.9229L29.9397 48.9315L15 60.1256L0.0602593 48.9315L0.0487465 48.9229L0.0370736 48.9145L-14.4323 38.5L0.0370745 28.0855L0.0487474 28.0771L0.0602602 28.0685L15 16.8744L29.9397 28.0685L29.9513 28.0771L29.9629 28.0855L44.4323 38.5Z" fill="#C3F9C2" stroke="black" stroke-width="3"/>
<path d="M44.4323 89.5L29.9629 99.9145L29.9513 99.9229L29.9397 99.9315L15 111.126L0.0602593 99.9315L0.0487465 99.9229L0.0370736 99.9145L-14.4323 89.5L0.0370745 79.0855L0.0487474 79.0771L0.0602602 79.0685L15 67.8744L29.9397 79.0685L29.9513 79.0771L29.9629 79.0855L44.4323 89.5Z" fill="white" stroke="black" stroke-width="3"/>
<path d="M44.4323 140.5L29.9629 150.914L29.9513 150.923L29.9397 150.931L15 162.126L0.0602593 150.931L0.0487465 150.923L0.0370736 150.914L-14.4323 140.5L0.0370745 130.086L0.0487474 130.077L0.0602602 130.069L15 118.874L29.9397 130.069L29.9513 130.077L29.9629 130.086L44.4323 140.5Z" fill="#C3F9C2" stroke="black" stroke-width="3"/>
<path d="M108.432 38.5L93.9629 48.9145L93.9513 48.9229L93.9397 48.9315L79 60.1256L64.0603 48.9315L64.0487 48.9229L64.0371 48.9145L49.5677 38.5L64.0371 28.0855L64.0487 28.0771L64.0603 28.0685L79 16.8744L93.9397 28.0685L93.9513 28.0771L93.9629 28.0855L108.432 38.5Z" fill="#C3F9C2" stroke="black" stroke-width="3"/>
<path d="M172.432 38.5L157.963 48.9145L157.951 48.9229L157.94 48.9315L143 60.1256L128.06 48.9315L128.049 48.9229L128.037 48.9145L113.568 38.5L128.037 28.0855L128.049 28.0771L128.06 28.0685L143 16.8744L157.94 28.0685L157.951 28.0771L157.963 28.0855L172.432 38.5Z" fill="#C3F9C2" stroke="black" stroke-width="3"/>
<path d="M108.432 89.5L93.9629 99.9145L93.9513 99.9229L93.9397 99.9315L79 111.126L64.0603 99.9315L64.0487 99.9229L64.0371 99.9145L49.5677 89.5L64.0371 79.0855L64.0487 79.0771L64.0603 79.0685L79 67.8744L93.9397 79.0685L93.9513 79.0771L93.9629 79.0855L108.432 89.5Z" fill="#111111" stroke="black" stroke-width="3"/>
<path d="M108.432 140.5L93.9629 150.914L93.9513 150.923L93.9397 150.931L79 162.126L64.0603 150.931L64.0487 150.923L64.0371 150.914L49.5677 140.5L64.0371 130.086L64.0487 130.077L64.0603 130.069L79 118.874L93.9397 130.069L93.9513 130.077L93.9629 130.086L108.432 140.5Z" fill="#C3F9C2" stroke="black" stroke-width="3"/>
<path d="M172.432 89.5L157.963 99.9145L157.951 99.9229L157.94 99.9315L143 111.126L128.06 99.9315L128.049 99.9229L128.037 99.9145L113.568 89.5L128.037 79.0855L128.049 79.0771L128.06 79.0685L143 67.8744L157.94 79.0685L157.951 79.0771L157.963 79.0855L172.432 89.5Z" fill="#C3F9C2" stroke="black" stroke-width="3"/>
<path d="M236.432 89.5L221.963 99.9145L221.951 99.9229L221.94 99.9315L207 111.126L192.06 99.9315L192.049 99.9229L192.037 99.9145L177.568 89.5L192.037 79.0855L192.049 79.0771L192.06 79.0685L207 67.8744L221.94 79.0685L221.951 79.0771L221.963 79.0855L236.432 89.5Z" fill="#C3F9C2" stroke="black" stroke-width="3"/>
<path d="M172.432 140.5L157.963 150.914L157.951 150.923L157.94 150.931L143 162.126L128.06 150.931L128.049 150.923L128.037 150.914L113.568 140.5L128.037 130.086L128.049 130.077L128.06 130.069L143 118.874L157.94 130.069L157.951 130.077L157.963 130.086L172.432 140.5Z" fill="#C3F9C2" stroke="black" stroke-width="3"/>
<path d="M364.432 38.5L349.963 48.9145L349.951 48.9229L349.94 48.9315L335 60.1256L320.06 48.9315L320.049 48.9229L320.037 48.9145L305.568 38.5L320.037 28.0855L320.049 28.0771L320.06 28.0685L335 16.8744L349.94 28.0685L349.951 28.0771L349.963 28.0855L364.432 38.5Z" fill="#C3F9C2" stroke="black" stroke-width="3"/>
<path d="M236.432 38.5L221.963 48.9145L221.951 48.9229L221.94 48.9315L207 60.1256L192.06 48.9315L192.049 48.9229L192.037 48.9145L177.568 38.5L192.037 28.0855L192.049 28.0771L192.06 28.0685L207 16.8744L221.94 28.0685L221.951 28.0771L221.963 28.0855L236.432 38.5Z" fill="#111111" stroke="black" stroke-width="3"/>
<path d="M300.432 38.5L285.963 48.9145L285.951 48.9229L285.94 48.9315L271 60.1256L256.06 48.9315L256.049 48.9229L256.037 48.9145L241.568 38.5L256.037 28.0855L256.049 28.0771L256.06 28.0685L271 16.8744L285.94 28.0685L285.951 28.0771L285.963 28.0855L300.432 38.5Z" fill="white" stroke="black" stroke-width="3"/>
</g>
<rect x="1.5" y="1.5" width="351" height="177" stroke="black" stroke-width="3"/>
<defs>
<clipPath id="clip0_1208_65267">
<rect width="354" height="180" fill="white"/>
</clipPath>
</defs>
</svg>
