<svg preserveAspectRatio="xMinYMin meet" viewBox="0 0 736 286" fill="none" xmlns="http://www.w3.org/2000/svg">
<g clip-path="url(#clip0_422_195)">
<g clip-path="url(#clip1_422_195)">
<path d="M96.7123 173.199C95.1127 173.199 93.9643 172.215 93.8705 170.768H94.9077C95.0014 171.67 95.728 172.273 96.7241 172.273C97.8315 172.273 98.5639 171.477 98.5639 170.293C98.5639 169.15 97.8315 168.383 96.7651 168.383C95.9623 168.383 95.3295 168.752 94.9955 169.379H94.0053L94.4916 164.545H99.185V165.488H95.3178L95.0541 168.242H95.1479C95.558 167.732 96.185 167.475 97.0287 167.475C98.4467 167.475 99.6186 168.588 99.6186 170.264C99.6186 172.004 98.4409 173.199 96.7123 173.199Z" fill="var(--color-text-subtle)"/>
<path d="M104.171 173.199C102.267 173.199 101.171 171.582 101.171 168.77C101.171 165.98 102.279 164.346 104.171 164.346C106.052 164.346 107.16 165.986 107.16 168.787C107.16 171.594 106.07 173.199 104.171 173.199ZM104.171 172.279C105.419 172.279 106.099 171.037 106.099 168.77C106.099 166.525 105.408 165.271 104.171 165.271C102.935 165.271 102.232 166.537 102.232 168.77C102.232 171.031 102.923 172.279 104.171 172.279Z" fill="var(--color-text-subtle)"/>
<path d="M110.054 169.443L112.796 166.684H114.033L111.314 169.391L114.214 173H112.931L110.564 170.041L109.96 170.604V173H108.953V164.176H109.96V169.443H110.054Z" fill="var(--color-text-subtle)"/>
<path d="M93.9995 201.93C93.9995 200.424 95.1596 199.346 96.7768 199.346C98.2534 199.346 99.3842 200.348 99.3842 201.719C99.3842 202.691 98.9623 203.395 97.4389 204.971L95.517 206.957V207.051H99.5248V208H94.0522V207.273L96.9116 204.18C97.9897 203.014 98.3061 202.574 98.3061 201.83C98.3061 200.934 97.7026 200.266 96.7065 200.266C95.6928 200.266 95.019 200.928 95.019 201.93H93.9995Z" fill="var(--color-text-subtle)"/>
<path d="M104.119 208.199C102.519 208.199 101.371 207.215 101.277 205.768H102.314C102.408 206.67 103.134 207.273 104.13 207.273C105.238 207.273 105.97 206.477 105.97 205.293C105.97 204.15 105.238 203.383 104.171 203.383C103.369 203.383 102.736 203.752 102.402 204.379H101.412L101.898 199.545H106.591V200.488H102.724L102.46 203.242H102.554C102.964 202.732 103.591 202.475 104.435 202.475C105.853 202.475 107.025 203.588 107.025 205.264C107.025 207.004 105.847 208.199 104.119 208.199Z" fill="var(--color-text-subtle)"/>
<path d="M109.902 204.443L112.644 201.684H113.88L111.162 204.391L114.062 208H112.779L110.412 205.041L109.808 205.604V208H108.8V199.176H109.808V204.443H109.902Z" fill="var(--color-text-subtle)"/>
<path d="M123.104 175H432.416V176H123.104V175Z" fill="var(--color-background-secondary-base)"/>
<path d="M123.104 210H432.416V211H123.104V210Z" fill="var(--color-background-secondary-base)"/>
</g>
<g clip-path="url(#clip2_422_195)">
<path d="M95.1771 138L98.974 130.57V130.488H94.4505V129.545H100.046V130.523L96.2845 138H95.1771Z" fill="var(--color-text-subtle)"/>
<path d="M104.365 138.199C102.765 138.199 101.617 137.215 101.523 135.768H102.56C102.654 136.67 103.38 137.273 104.376 137.273C105.484 137.273 106.216 136.477 106.216 135.293C106.216 134.15 105.484 133.383 104.417 133.383C103.615 133.383 102.982 133.752 102.648 134.379H101.658L102.144 129.545H106.837V130.488H102.97L102.706 133.242H102.8C103.21 132.732 103.837 132.475 104.681 132.475C106.099 132.475 107.271 133.588 107.271 135.264C107.271 137.004 106.093 138.199 104.365 138.199Z" fill="var(--color-text-subtle)"/>
<path d="M110.148 134.443L112.89 131.684H114.126L111.408 134.391L114.308 138H113.025L110.658 135.041L110.054 135.604V138H109.046V129.176H110.054V134.443H110.148Z" fill="var(--color-text-subtle)"/>
<path d="M123.104 140H432.416V141H123.104V140Z" fill="var(--color-background-secondary-base)"/>
</g>
<g clip-path="url(#clip3_422_195)">
<path d="M92.0342 104V96.7168H91.9405L89.7901 98.2754V97.1621L92.0401 95.5449H93.0889V104H92.0342Z" fill="var(--color-text-subtle)"/>
<path d="M98.4561 104.199C96.5518 104.199 95.4561 102.582 95.4561 99.7695C95.4561 96.9805 96.5635 95.3457 98.4561 95.3457C100.337 95.3457 101.444 96.9863 101.444 99.7871C101.444 102.594 100.355 104.199 98.4561 104.199ZM98.4561 103.279C99.7042 103.279 100.384 102.037 100.384 99.7695C100.384 97.5254 99.6924 96.2715 98.4561 96.2715C97.2198 96.2715 96.5167 97.5371 96.5167 99.7695C96.5167 102.031 97.2081 103.279 98.4561 103.279Z" fill="var(--color-text-subtle)"/>
<path d="M106.015 104.199C104.11 104.199 103.015 102.582 103.015 99.7695C103.015 96.9805 104.122 95.3457 106.015 95.3457C107.896 95.3457 109.003 96.9863 109.003 99.7871C109.003 102.594 107.913 104.199 106.015 104.199ZM106.015 103.279C107.263 103.279 107.942 102.037 107.942 99.7695C107.942 97.5254 107.251 96.2715 106.015 96.2715C104.778 96.2715 104.075 97.5371 104.075 99.7695C104.075 102.031 104.767 103.279 106.015 103.279Z" fill="var(--color-text-subtle)"/>
<path d="M111.898 100.443L114.64 97.6836H115.876L113.157 100.391L116.058 104H114.774L112.407 101.041L111.804 101.604V104H110.796V95.1758H111.804V100.443H111.898Z" fill="var(--color-text-subtle)"/>
<path d="M123.104 107H432.416V108H123.104V107Z" fill="var(--color-background-secondary-base)"/>
</g>
<g clip-path="url(#clip4_422_195)">
<path d="M123.104 73H432.416V74H123.104V73Z" fill="var(--color-background-secondary-base)"/>
<path d="M92.7617 71V63.7168H92.668L90.5176 65.2754V64.1621L92.7676 62.5449H93.8164V71H92.7617Z" fill="var(--color-text-subtle)"/>
<path d="M96.2891 64.9297C96.2891 63.4238 97.4492 62.3457 99.0664 62.3457C100.543 62.3457 101.674 63.3477 101.674 64.7188C101.674 65.6914 101.252 66.3945 99.7285 67.9707L97.8066 69.957V70.0508H101.814V71H96.3418V70.2734L99.2012 67.1797C100.279 66.0137 100.596 65.5742 100.596 64.8301C100.596 63.9336 99.9922 63.2656 98.9961 63.2656C97.9824 63.2656 97.3086 63.9277 97.3086 64.9297H96.2891Z" fill="var(--color-text-subtle)"/>
<path d="M106.408 71.1992C104.809 71.1992 103.66 70.2148 103.566 68.7676H104.604C104.697 69.6699 105.424 70.2734 106.42 70.2734C107.527 70.2734 108.26 69.4766 108.26 68.293C108.26 67.1504 107.527 66.3828 106.461 66.3828C105.658 66.3828 105.025 66.752 104.691 67.3789H103.701L104.188 62.5449H108.881V63.4883H105.014L104.75 66.2422H104.844C105.254 65.7324 105.881 65.4746 106.725 65.4746C108.143 65.4746 109.314 66.5879 109.314 68.2637C109.314 70.0039 108.137 71.1992 106.408 71.1992Z" fill="var(--color-text-subtle)"/>
<path d="M112.191 67.4434L114.934 64.6836H116.17L113.451 67.3906L116.352 71H115.068L112.701 68.041L112.098 68.6035V71H111.09V62.1758H112.098V67.4434H112.191Z" fill="var(--color-text-subtle)"/>
</g>
<path opacity="0.3" fill-rule="evenodd" clip-rule="evenodd" d="M407.2 103.721C407.906 104.154 408.128 105.078 407.695 105.784L406.639 107.506C406.206 108.212 405.283 108.434 404.577 108.001C403.87 107.568 403.649 106.645 404.082 105.938L405.137 104.216C405.57 103.51 406.494 103.288 407.2 103.721ZM401.922 112.332C402.628 112.765 402.85 113.689 402.417 114.395L400.306 117.839C399.873 118.546 398.95 118.767 398.243 118.334C397.537 117.902 397.315 116.978 397.748 116.272L399.859 112.827C400.292 112.121 401.216 111.899 401.922 112.332ZM395.589 122.666C396.295 123.098 396.517 124.022 396.084 124.728L393.973 128.173C393.54 128.879 392.616 129.101 391.91 128.668C391.204 128.235 390.982 127.311 391.415 126.605L393.526 123.161C393.959 122.454 394.882 122.233 395.589 122.666ZM389.255 132.999C389.962 133.432 390.183 134.355 389.75 135.062L388.695 136.784C388.262 137.49 387.338 137.712 386.632 137.279C385.926 136.846 385.704 135.922 386.137 135.216L387.193 133.494C387.626 132.788 388.549 132.566 389.255 132.999Z" fill="var(--color-data-visualization-05)"/>
<path d="M130.154 225.025H131.203C131.227 225.734 131.766 226.227 132.562 226.227C133.465 226.227 133.975 225.676 133.975 224.639V218.545H135.029V224.645C135.029 226.256 134.098 227.199 132.568 227.199C131.15 227.199 130.154 226.32 130.154 225.025Z" fill="#111111"/>
<path d="M142.166 220.684V227H141.205V226.01H141.111C140.795 226.713 140.121 227.111 139.154 227.111C137.736 227.111 136.998 226.268 136.998 224.773V220.684H138.006V224.527C138.006 225.664 138.428 226.191 139.436 226.191C140.549 226.191 141.158 225.529 141.158 224.422V220.684H142.166Z" fill="#111111"/>
<path d="M144.123 227V218.176H145.131V227H144.123Z" fill="#111111"/>
<path d="M150.82 227L154.617 219.57V219.488H150.094V218.545H155.689V219.523L151.928 227H150.82Z" fill="#111111"/>
<path d="M184.227 225.025H185.276C185.299 225.734 185.839 226.227 186.635 226.227C187.538 226.227 188.048 225.676 188.048 224.639V218.545H189.102V224.645C189.102 226.256 188.171 227.199 186.641 227.199C185.223 227.199 184.227 226.32 184.227 225.025Z" fill="#111111"/>
<path d="M196.239 220.684V227H195.278V226.01H195.184C194.868 226.713 194.194 227.111 193.227 227.111C191.809 227.111 191.071 226.268 191.071 224.773V220.684H192.079V224.527C192.079 225.664 192.501 226.191 193.508 226.191C194.622 226.191 195.231 225.529 195.231 224.422V220.684H196.239Z" fill="#111111"/>
<path d="M198.196 227V218.176H199.204V227H198.196Z" fill="#111111"/>
<path d="M206.563 227V219.717H206.469L204.319 221.275V220.162L206.569 218.545H207.618V227H206.563Z" fill="#111111"/>
<path d="M212.956 227.199C211.356 227.199 210.208 226.215 210.114 224.768H211.151C211.245 225.67 211.971 226.273 212.967 226.273C214.075 226.273 214.807 225.477 214.807 224.293C214.807 223.15 214.075 222.383 213.008 222.383C212.206 222.383 211.573 222.752 211.239 223.379H210.249L210.735 218.545H215.428V219.488H211.561L211.298 222.242H211.391C211.801 221.732 212.428 221.475 213.272 221.475C214.69 221.475 215.862 222.588 215.862 224.264C215.862 226.004 214.684 227.199 212.956 227.199Z" fill="#111111"/>
<path d="M256.344 225.025H257.393C257.416 225.734 257.955 226.227 258.752 226.227C259.654 226.227 260.164 225.676 260.164 224.639V218.545H261.219V224.645C261.219 226.256 260.287 227.199 258.758 227.199C257.34 227.199 256.344 226.32 256.344 225.025Z" fill="#111111"/>
<path d="M268.355 220.684V227H267.395V226.01H267.301C266.984 226.713 266.311 227.111 265.344 227.111C263.926 227.111 263.188 226.268 263.188 224.773V220.684H264.195V224.527C264.195 225.664 264.617 226.191 265.625 226.191C266.738 226.191 267.348 225.529 267.348 224.422V220.684H268.355Z" fill="#111111"/>
<path d="M270.312 227V218.176H271.32V227H270.312Z" fill="#111111"/>
<path d="M276.605 220.93C276.605 219.424 277.766 218.346 279.383 218.346C280.859 218.346 281.99 219.348 281.99 220.719C281.99 221.691 281.568 222.395 280.045 223.971L278.123 225.957V226.051H282.131V227H276.658V226.273L279.518 223.18C280.596 222.014 280.912 221.574 280.912 220.83C280.912 219.934 280.309 219.266 279.312 219.266C278.299 219.266 277.625 219.928 277.625 220.93H276.605Z" fill="#111111"/>
<path d="M285.688 223.104V222.201H286.689C287.662 222.201 288.354 221.58 288.354 220.701C288.354 219.91 287.75 219.266 286.73 219.266C285.711 219.266 285.049 219.787 284.961 220.736H283.936C284.041 219.359 285.09 218.346 286.801 218.346C288.471 218.346 289.432 219.4 289.426 220.584C289.42 221.604 288.787 222.277 287.92 222.529V222.623C289.016 222.799 289.742 223.543 289.742 224.721C289.742 226.139 288.447 227.199 286.766 227.199C285.049 227.199 283.865 226.256 283.789 224.82H284.809C284.902 225.711 285.664 226.279 286.754 226.279C287.867 226.279 288.658 225.641 288.658 224.691C288.658 223.713 287.926 223.104 286.736 223.104H285.688Z" fill="#111111"/>
<path d="M330.16 225.025H331.208C331.232 225.734 331.771 226.227 332.568 226.227C333.47 226.227 333.98 225.676 333.98 224.639V218.545H335.035V224.645C335.035 226.256 334.103 227.199 332.574 227.199C331.156 227.199 330.16 226.32 330.16 225.025Z" fill="#111111"/>
<path d="M342.171 220.684V227H341.21V226.01H341.117C340.8 226.713 340.126 227.111 339.16 227.111C337.742 227.111 337.003 226.268 337.003 224.773V220.684H338.011V224.527C338.011 225.664 338.433 226.191 339.441 226.191C340.554 226.191 341.163 225.529 341.163 224.422V220.684H342.171Z" fill="#111111"/>
<path d="M344.128 227V218.176H345.136V227H344.128Z" fill="#111111"/>
<path d="M352.249 223.104V222.201H353.251C354.224 222.201 354.915 221.58 354.915 220.701C354.915 219.91 354.312 219.266 353.292 219.266C352.273 219.266 351.611 219.787 351.523 220.736H350.497C350.603 219.359 351.652 218.346 353.363 218.346C355.033 218.346 355.994 219.4 355.988 220.584C355.982 221.604 355.349 222.277 354.482 222.529V222.623C355.578 222.799 356.304 223.543 356.304 224.721C356.304 226.139 355.009 227.199 353.328 227.199C351.611 227.199 350.427 226.256 350.351 224.82H351.37C351.464 225.711 352.226 226.279 353.316 226.279C354.429 226.279 355.22 225.641 355.22 224.691C355.22 223.713 354.488 223.104 353.298 223.104H352.249Z" fill="#111111"/>
<path d="M360.019 227V219.717H359.925L357.775 221.275V220.162L360.025 218.545H361.074V227H360.019Z" fill="#111111"/>
<path d="M396.85 227L396 224.58H392.637L391.787 227H390.68L393.797 218.545H394.84L397.957 227H396.85ZM394.271 219.91L392.947 223.684H395.689L394.365 219.91H394.271Z" fill="#111111"/>
<path d="M404.127 220.684V227H403.166V226.01H403.072C402.756 226.713 402.082 227.111 401.115 227.111C399.697 227.111 398.959 226.268 398.959 224.773V220.684H399.967V224.527C399.967 225.664 400.389 226.191 401.396 226.191C402.51 226.191 403.119 225.529 403.119 224.422V220.684H404.127Z" fill="#111111"/>
<path d="M408.627 229.426C407.104 229.426 406.131 228.74 405.979 227.697H407.045C407.156 228.213 407.719 228.547 408.627 228.547C409.758 228.547 410.432 227.99 410.432 227.059V225.816H410.338C409.939 226.514 409.225 226.906 408.357 226.906C406.723 226.906 405.709 225.641 405.709 223.748C405.709 221.855 406.734 220.572 408.357 220.572C409.242 220.572 410.021 221.006 410.385 221.686H410.479V220.684H411.439V227.111C411.439 228.523 410.35 229.426 408.627 229.426ZM408.58 226.016C409.752 226.016 410.455 225.125 410.455 223.748C410.455 222.371 409.746 221.48 408.58 221.48C407.408 221.48 406.752 222.371 406.752 223.748C406.752 225.125 407.408 226.016 408.58 226.016Z" fill="#111111"/>
<path d="M417.07 227L420.867 219.57V219.488H416.344V218.545H421.939V219.523L418.178 227H417.07Z" fill="#111111"/>
</g>
<path fill-rule="evenodd" clip-rule="evenodd" d="M284.193 117.501C284.875 117.522 285.456 118.001 285.608 118.665L302.296 191.595L309.903 165.018C310.09 164.362 310.696 163.916 311.378 163.931C312.06 163.946 312.645 164.419 312.804 165.082L320.728 198.266L329.337 169.908C329.495 169.387 329.923 168.993 330.455 168.878C330.987 168.763 331.54 168.945 331.899 169.354L348.306 188.026L355.972 164.958C356.176 164.343 356.751 163.929 357.399 163.931C358.046 163.932 358.619 164.348 358.821 164.964L367.827 192.452L374.499 189.88L383.984 140.336C384.14 139.523 384.926 138.989 385.74 139.145C386.553 139.301 387.087 140.087 386.931 140.901L377.289 191.262C377.192 191.771 376.839 192.193 376.355 192.379L367.433 195.819C367.049 195.967 366.622 195.95 366.25 195.774C365.879 195.598 365.596 195.277 365.468 194.886L357.385 170.217L350.328 191.453C350.159 191.963 349.729 192.343 349.203 192.45C348.676 192.557 348.133 192.374 347.778 191.97L331.425 173.359L321.99 204.436C321.793 205.084 321.187 205.52 320.51 205.499C319.832 205.479 319.253 205.007 319.096 204.348L311.214 171.34L303.577 198.025C303.388 198.683 302.778 199.131 302.094 199.112C301.41 199.094 300.825 198.615 300.672 197.947L283.959 124.909L267.02 182.071C266.895 182.492 266.592 182.837 266.19 183.016C265.788 183.194 265.329 183.187 264.932 182.997L256.393 178.897L248.421 182.98C247.816 183.289 247.08 183.154 246.624 182.651L237.858 172.955L230.217 187.738C229.925 188.303 229.309 188.622 228.679 188.535C228.049 188.448 227.543 187.973 227.415 187.35L218.604 144.275L210.712 155.246L202 194.742C201.89 195.241 201.534 195.649 201.055 195.826C200.576 196.003 200.04 195.924 199.632 195.617L190.247 188.549H182.402C181.751 188.549 181.175 188.129 180.975 187.51L172.465 161.137L164.135 171.295C163.85 171.643 163.424 171.844 162.975 171.844H155.436L146.814 184.927C146.44 185.495 145.729 185.74 145.083 185.523L128.438 179.922C127.652 179.657 127.23 178.807 127.494 178.022C127.759 177.236 128.609 176.814 129.394 177.078L144.945 182.311L153.376 169.519C153.653 169.097 154.124 168.844 154.628 168.844H162.265L171.888 157.11C172.237 156.685 172.789 156.485 173.328 156.587C173.867 156.689 174.307 157.078 174.476 157.6L183.495 185.549H190.749C191.075 185.549 191.391 185.655 191.651 185.851L199.573 191.817L207.849 154.298C207.892 154.099 207.977 153.911 208.096 153.745L218.169 139.743C218.517 139.259 219.118 139.027 219.701 139.152C220.284 139.276 220.737 139.734 220.856 140.318L229.503 182.586L236.187 169.655C236.413 169.218 236.839 168.92 237.326 168.856C237.814 168.793 238.302 168.973 238.632 169.338L248.078 179.785L255.688 175.887C256.105 175.674 256.598 175.667 257.021 175.87L264.644 179.53L282.708 118.574C282.901 117.92 283.512 117.479 284.193 117.501Z" fill="var(--color-data-visualization-05)"/>
<path d="M411.416 105C411.416 107.761 409.177 110 406.416 110C403.655 110 401.416 107.761 401.416 105C401.416 102.239 403.655 100 406.416 100C409.177 100 411.416 102.239 411.416 105Z" fill="var(--color-data-visualization-05)"/>
<path d="M512.881 117.918H514.07C514.07 116.749 514.856 115.977 516.039 115.977C517.201 115.977 517.905 116.756 517.905 117.802C517.905 118.67 517.536 119.183 516.278 120.543L512.942 124.152V125H519.327V123.893H514.651V123.783L516.894 121.466C518.671 119.627 519.163 118.807 519.163 117.672C519.163 116.072 517.844 114.903 516.121 114.903C514.234 114.903 512.881 116.161 512.881 117.918Z" fill="black"/>
<path d="M524.557 125.226C526.97 125.226 528.351 123.284 528.351 119.894C528.351 116.537 526.765 114.903 524.639 114.903C522.615 114.903 521.18 116.318 521.18 118.301C521.18 120.215 522.54 121.603 524.42 121.603C525.596 121.603 526.56 121.042 527.045 120.085H527.154C527.086 122.71 526.177 124.132 524.57 124.132C523.6 124.132 522.848 123.592 522.588 122.703H521.323C521.631 124.255 522.882 125.226 524.557 125.226ZM524.639 120.536C523.333 120.536 522.424 119.606 522.424 118.26C522.424 116.968 523.388 115.983 524.652 115.983C525.917 115.983 526.881 116.981 526.881 118.301C526.881 119.606 525.944 120.536 524.639 120.536Z" fill="black"/>
<path d="M530.764 125.068C531.256 125.068 531.652 124.665 531.652 124.18C531.652 123.688 531.256 123.291 530.764 123.291C530.278 123.291 529.875 123.688 529.875 124.18C529.875 124.665 530.278 125.068 530.764 125.068Z" fill="black"/>
<path d="M534.353 125H535.645L540.033 116.277V115.136H533.505V116.236H538.782V116.332L534.353 125Z" fill="black"/>
<path d="M543.41 119.6C544.743 119.6 545.55 118.731 545.55 117.275C545.55 115.84 544.736 114.958 543.41 114.958C542.084 114.958 541.264 115.84 541.264 117.275C541.264 118.725 542.07 119.6 543.41 119.6ZM543.854 125L550.67 115.136H549.556L542.74 125H543.854ZM543.41 118.704C542.72 118.704 542.323 118.185 542.323 117.282C542.323 116.387 542.72 115.86 543.41 115.86C544.094 115.86 544.49 116.387 544.49 117.282C544.49 118.178 544.101 118.704 543.41 118.704ZM550.007 125.096C551.34 125.096 552.146 124.228 552.146 122.771C552.146 121.336 551.333 120.454 550.007 120.454C548.681 120.454 547.86 121.336 547.86 122.771C547.86 124.221 548.674 125.096 550.007 125.096ZM550.007 124.2C549.316 124.2 548.927 123.681 548.927 122.778C548.927 121.883 549.316 121.356 550.007 121.356C550.697 121.356 551.087 121.883 551.087 122.778C551.087 123.674 550.697 124.2 550.007 124.2Z" fill="black"/>
<path d="M562.584 107C562.584 104.791 564.375 103 566.584 103H658.584C660.793 103 662.584 104.791 662.584 107V135C662.584 137.209 660.793 139 658.584 139H566.584C564.375 139 562.584 137.209 562.584 135V107Z" fill="var(--color-background-secondary-base)"/>
<path d="M562.584 107C562.584 104.791 564.375 103 566.584 103H592.584V139H566.584C564.375 139 562.584 137.209 562.584 135V107Z" fill="var(--color-data-visualization-05)"/>
<path d="M515.731 169.232C517.748 169.232 519.122 167.838 519.122 165.808C519.122 163.853 517.755 162.554 516.101 162.554C515.116 162.554 514.385 162.854 513.906 163.449H513.797L514.104 160.236H518.616V159.136H513.141L512.573 164.775H513.729C514.118 164.044 514.856 163.613 515.793 163.613C517.037 163.613 517.892 164.509 517.892 165.842C517.892 167.223 517.037 168.152 515.745 168.152C514.583 168.152 513.735 167.448 513.626 166.396H512.416C512.525 168.084 513.865 169.232 515.731 169.232Z" fill="black"/>
<path d="M524.488 169.232C526.58 169.232 528.043 168.05 528.043 166.361C528.043 165.076 527.229 164.078 525.992 163.846V163.736C527.011 163.456 527.64 162.615 527.64 161.535C527.64 159.997 526.334 158.903 524.488 158.903C522.643 158.903 521.337 159.997 521.337 161.535C521.337 162.608 521.979 163.463 522.984 163.736V163.846C521.747 164.078 520.934 165.076 520.934 166.361C520.934 168.05 522.396 169.232 524.488 169.232ZM524.488 163.326C523.326 163.326 522.547 162.656 522.547 161.651C522.547 160.633 523.319 159.956 524.488 159.956C525.657 159.956 526.43 160.633 526.43 161.651C526.43 162.656 525.65 163.326 524.488 163.326ZM524.488 168.18C523.121 168.18 522.178 167.4 522.178 166.272C522.178 165.145 523.121 164.365 524.488 164.365C525.855 164.365 526.799 165.145 526.799 166.272C526.799 167.4 525.855 168.18 524.488 168.18Z" fill="black"/>
<path d="M530.559 169.068C531.051 169.068 531.447 168.665 531.447 168.18C531.447 167.688 531.051 167.291 530.559 167.291C530.073 167.291 529.67 167.688 529.67 168.18C529.67 168.665 530.073 169.068 530.559 169.068Z" fill="black"/>
<path d="M533.402 161.918H534.592C534.592 160.749 535.378 159.977 536.561 159.977C537.723 159.977 538.427 160.756 538.427 161.802C538.427 162.67 538.058 163.183 536.8 164.543L533.464 168.152V169H539.849V167.893H535.173V167.783L537.415 165.466C539.192 163.627 539.685 162.807 539.685 161.672C539.685 160.072 538.365 158.903 536.643 158.903C534.756 158.903 533.402 160.161 533.402 161.918Z" fill="black"/>
<path d="M543.41 163.6C544.743 163.6 545.55 162.731 545.55 161.275C545.55 159.84 544.736 158.958 543.41 158.958C542.084 158.958 541.264 159.84 541.264 161.275C541.264 162.725 542.07 163.6 543.41 163.6ZM543.854 169L550.67 159.136H549.556L542.74 169H543.854ZM543.41 162.704C542.72 162.704 542.323 162.185 542.323 161.282C542.323 160.387 542.72 159.86 543.41 159.86C544.094 159.86 544.49 160.387 544.49 161.282C544.49 162.178 544.101 162.704 543.41 162.704ZM550.007 169.096C551.34 169.096 552.146 168.228 552.146 166.771C552.146 165.336 551.333 164.454 550.007 164.454C548.681 164.454 547.86 165.336 547.86 166.771C547.86 168.221 548.674 169.096 550.007 169.096ZM550.007 168.2C549.316 168.2 548.927 167.681 548.927 166.778C548.927 165.883 549.316 165.356 550.007 165.356C550.697 165.356 551.087 165.883 551.087 166.778C551.087 167.674 550.697 168.2 550.007 168.2Z" fill="black"/>
<path d="M562.584 151C562.584 148.791 564.375 147 566.584 147H658.584C660.793 147 662.584 148.791 662.584 151V179C662.584 181.209 660.793 183 658.584 183H566.584C564.375 183 562.584 181.209 562.584 179V151Z" fill="var(--color-background-secondary-base)"/>
<path d="M562.584 149C562.584 147.895 563.479 147 564.584 147H620.584V183H564.584C563.479 183 562.584 182.105 562.584 181V149Z" fill="var(--color-data-visualization-05)"/>
<rect x="0.5" y="0.5" width="735" height="285" rx="7.5" stroke="var(--color-border-container)"/>
<defs>
<clipPath id="clip0_422_195">
<rect width="343" height="174" fill="white" transform="translate(89.416 56)"/>
</clipPath>
<clipPath id="clip1_422_195">
<rect width="343" height="53" fill="white" transform="translate(89.416 158)"/>
</clipPath>
<clipPath id="clip2_422_195">
<rect width="343" height="17" fill="white" transform="translate(89.416 124)"/>
</clipPath>
<clipPath id="clip3_422_195">
<rect width="343" height="18" fill="white" transform="translate(89.416 90)"/>
</clipPath>
<clipPath id="clip4_422_195">
<rect width="343" height="18" fill="white" transform="translate(89.416 56)"/>
</clipPath>
</defs>
</svg>
