<svg viewBox="0 0 736 262" fill="none" xmlns="http://www.w3.org/2000/svg">
<path d="M177.757 72.6016H181.483C183.349 72.6016 184.641 73.9141 184.641 75.7939C184.641 77.6396 183.322 78.9453 181.469 78.9453H178.988V82.4658H177.757V72.6016ZM178.988 73.6953V77.8516H181.162C182.563 77.8516 183.377 77.0996 183.377 75.7939C183.377 74.4404 182.59 73.6953 181.162 73.6953H178.988Z" fill="var(--color-text-default)"/>
<path d="M187.123 73.6748C186.672 73.6748 186.302 73.3057 186.302 72.8545C186.302 72.4033 186.672 72.0342 187.123 72.0342C187.574 72.0342 187.943 72.4033 187.943 72.8545C187.943 73.3057 187.574 73.6748 187.123 73.6748ZM186.535 82.4658V75.0967H187.711V82.4658H186.535Z" fill="var(--color-text-default)"/>
<path d="M189.953 82.4658V75.0967H191.074V76.2588H191.183C191.552 75.4453 192.27 74.9668 193.398 74.9668C195.052 74.9668 195.975 75.9443 195.975 77.6943V82.4658H194.799V77.9814C194.799 76.6553 194.239 76.0264 193.063 76.0264C191.887 76.0264 191.129 76.8125 191.129 78.1045V82.4658H189.953Z" fill="var(--color-text-default)"/>
<path d="M208.177 77.3525H206.988C206.797 76.6211 206.147 76.0264 205.088 76.0264C203.761 76.0264 202.927 77.0859 202.927 78.7539C202.927 80.4561 203.775 81.5361 205.088 81.5361C206.079 81.5361 206.769 81.0781 206.988 80.2441H208.177C207.965 81.5977 206.865 82.5957 205.094 82.5957C203.03 82.5957 201.711 81.0986 201.711 78.7539C201.711 76.457 203.023 74.9668 205.088 74.9668C206.879 74.9668 207.972 76.04 208.177 77.3525Z" fill="var(--color-text-default)"/>
<path d="M209.982 82.4658V72.1709H211.158V82.4658H209.982Z" fill="var(--color-text-default)"/>
<path d="M214.056 73.6748C213.605 73.6748 213.236 73.3057 213.236 72.8545C213.236 72.4033 213.605 72.0342 214.056 72.0342C214.507 72.0342 214.877 72.4033 214.877 72.8545C214.877 73.3057 214.507 73.6748 214.056 73.6748ZM213.468 82.4658V75.0967H214.644V82.4658H213.468Z" fill="var(--color-text-default)"/>
<path d="M222.984 77.3525H221.795C221.603 76.6211 220.954 76.0264 219.894 76.0264C218.568 76.0264 217.734 77.0859 217.734 78.7539C217.734 80.4561 218.582 81.5361 219.894 81.5361C220.885 81.5361 221.576 81.0781 221.795 80.2441H222.984C222.772 81.5977 221.672 82.5957 219.901 82.5957C217.837 82.5957 216.517 81.0986 216.517 78.7539C216.517 76.457 217.83 74.9668 219.894 74.9668C221.685 74.9668 222.779 76.04 222.984 77.3525Z" fill="var(--color-text-default)"/>
<path d="M226.074 78.3164L229.273 75.0967H230.715L227.544 78.2549L230.927 82.4658H229.43L226.669 79.0137L225.965 79.6699V82.4658H224.789V72.1709H225.965V78.3164H226.074Z" fill="var(--color-text-default)"/>
<path d="M231.878 77.1133C231.878 75.8896 233.06 74.9668 234.626 74.9668C236.171 74.9668 237.244 75.7324 237.401 76.9424H236.239C236.082 76.3545 235.507 75.9648 234.619 75.9648C233.744 75.9648 233.06 76.4092 233.06 77.0654C233.06 77.5713 233.47 77.8857 234.339 78.0977L235.473 78.3711C236.861 78.7061 237.531 79.3076 237.531 80.3672C237.531 81.6865 236.253 82.5957 234.578 82.5957C232.937 82.5957 231.809 81.8096 231.679 80.5859H232.889C233.088 81.208 233.675 81.6045 234.619 81.6045C235.61 81.6045 236.321 81.1328 236.321 80.4561C236.321 79.9502 235.938 79.6084 235.152 79.417L233.887 79.1094C232.507 78.7744 231.878 78.1797 231.878 77.1133Z" fill="var(--color-text-default)"/>
<path d="M181.099 113.466V101.776H181.041L177.398 104.276V101.962L181.08 99.374H183.57V113.466H181.099Z" fill="var(--color-text-default)"/>
<path d="M192.164 113.749C188.931 113.749 186.675 112.06 186.675 109.657C186.675 107.831 187.974 106.435 189.859 106.054V105.995C188.248 105.565 187.183 104.364 187.183 102.851C187.183 100.683 189.254 99.0908 192.164 99.0908C195.074 99.0908 197.134 100.673 197.134 102.86C197.134 104.354 196.08 105.546 194.468 105.995V106.054C196.353 106.444 197.662 107.841 197.662 109.657C197.662 112.069 195.386 113.749 192.164 113.749ZM192.164 105.194C193.619 105.194 194.654 104.335 194.654 103.104C194.654 101.854 193.619 100.995 192.164 100.995C190.699 100.995 189.673 101.864 189.673 103.104C189.673 104.335 190.699 105.194 192.164 105.194ZM192.164 111.825C193.853 111.825 195.045 110.839 195.045 109.472C195.045 108.095 193.853 107.118 192.164 107.118C190.474 107.118 189.283 108.104 189.283 109.472C189.283 110.839 190.474 111.825 192.164 111.825Z" fill="var(--color-text-default)"/>
<path d="M200.992 113.573C200.201 113.573 199.586 112.958 199.586 112.167C199.586 111.386 200.201 110.761 200.992 110.761C201.773 110.761 202.388 111.386 202.388 112.167C202.388 112.958 201.773 113.573 200.992 113.573Z" fill="var(--color-text-default)"/>
<path d="M204.595 103.583C204.595 100.956 206.705 99.0908 209.634 99.0908C212.506 99.0908 214.42 100.858 214.42 103.124C214.42 104.794 213.629 105.888 211.168 108.31L208.062 111.356V111.405H214.634V113.466H204.732V111.747L209.713 106.845C211.548 105.038 211.959 104.335 211.959 103.28C211.959 102.05 211.031 101.112 209.634 101.112C208.111 101.112 206.959 102.147 206.959 103.583H204.595Z" fill="var(--color-text-default)"/>
<path d="M220.084 113.466V101.776H220.025L216.382 104.276V101.962L220.064 99.374H222.554V113.466H220.084Z" fill="var(--color-text-default)"/>
<path d="M228.345 107.431L232.242 103.114H235.045L230.904 107.567L235.22 113.466H232.408L229.136 109.042L228.316 109.872V113.466H225.884V99.374H228.316V107.431H228.345Z" fill="var(--color-text-default)"/>
<path fill-rule="evenodd" clip-rule="evenodd" d="M254.557 104.076C254.036 104.596 254.036 105.441 254.557 105.961C255.078 106.482 255.922 106.482 256.442 105.961L258.166 104.237V112.466C258.166 113.202 258.764 113.799 259.5 113.799C260.236 113.799 260.833 113.202 260.833 112.466V104.237L262.557 105.961C263.078 106.482 263.922 106.482 264.442 105.961C264.703 105.701 264.833 105.36 264.833 105.018C264.833 104.677 264.703 104.336 264.442 104.076L259.5 99.1324L254.557 104.076Z" fill="var(--color-data-visualization-success-text)"/>
<path d="M276.319 111.436V109.542H271.5V108.1C272.778 105.878 274.179 103.608 275.519 101.571H278.007V108.086H279.34V109.542H278.007V111.436H276.319ZM273.133 108.024V108.127H276.346V102.979H276.251C275.239 104.524 274.097 106.35 273.133 108.024Z" fill="var(--color-data-visualization-success-text)"/>
<path d="M282.799 106.124C281.378 106.124 280.53 105.242 280.53 103.752C280.53 102.289 281.398 101.387 282.799 101.387C284.208 101.387 285.069 102.282 285.069 103.752C285.069 105.242 284.228 106.124 282.799 106.124ZM283.613 111.436H282.198L288.849 101.571H290.257L283.613 111.436ZM282.799 105.037C283.374 105.037 283.695 104.565 283.695 103.759C283.695 102.959 283.36 102.474 282.799 102.474C282.239 102.474 281.904 102.959 281.904 103.759C281.904 104.572 282.239 105.037 282.799 105.037ZM289.656 111.545C288.234 111.545 287.386 110.656 287.386 109.166C287.386 107.703 288.255 106.808 289.656 106.808C291.064 106.808 291.925 107.703 291.925 109.166C291.925 110.663 291.085 111.545 289.656 111.545ZM289.656 110.458C290.223 110.458 290.551 109.986 290.551 109.173C290.551 108.373 290.223 107.895 289.656 107.895C289.095 107.895 288.767 108.373 288.767 109.173C288.767 109.993 289.089 110.458 289.656 110.458Z" fill="var(--color-data-visualization-success-text)"/>
<path fill-rule="evenodd" clip-rule="evenodd" d="M269.489 130.998C270.074 131.122 270.53 131.583 270.648 132.17L279.527 176.269L286.416 162.726C286.641 162.284 287.069 161.982 287.561 161.919C288.053 161.855 288.544 162.039 288.873 162.409L298.564 173.299L306.372 169.236C306.794 169.016 307.295 169.01 307.722 169.218L317.157 173.821C317.902 174.184 318.211 175.082 317.848 175.827C317.485 176.571 316.587 176.88 315.842 176.517L307.087 172.246L298.912 176.5C298.303 176.817 297.556 176.679 297.099 176.166L288.093 166.046L280.245 181.475C279.955 182.044 279.337 182.367 278.704 182.281C278.072 182.194 277.563 181.717 277.437 181.091L268.393 136.17L260.259 147.658L251.332 188.784C251.223 189.286 250.865 189.697 250.383 189.874C249.901 190.051 249.362 189.969 248.954 189.657L239.333 182.295H231.291C230.637 182.295 230.059 181.871 229.861 181.249L221.124 153.734L212.557 164.349C212.272 164.701 211.843 164.906 211.389 164.906H203.654L194.81 178.542C194.436 179.119 193.717 179.368 193.066 179.145L176.014 173.315C175.231 173.047 174.812 172.195 175.08 171.411C175.348 170.627 176.201 170.209 176.985 170.477L192.93 175.928L201.58 162.59C201.857 162.164 202.331 161.906 202.839 161.906H210.672L220.541 149.679C220.888 149.249 221.443 149.045 221.986 149.147C222.528 149.249 222.971 149.641 223.138 150.167L232.388 179.295H239.841C240.171 179.295 240.491 179.403 240.753 179.603L248.901 185.839L257.393 146.723C257.435 146.526 257.518 146.339 257.634 146.174L267.954 131.599C268.3 131.11 268.903 130.874 269.489 130.998Z" fill="var(--color-data-visualization-success-graph)"/>
<path d="M420.286 79.7212H421.531C421.681 80.7534 422.665 81.4097 424.067 81.4097C425.393 81.4097 426.37 80.6919 426.37 79.7144C426.37 78.8735 425.755 78.3403 424.395 77.9985L423.13 77.6704C421.346 77.2192 420.574 76.4126 420.574 75.0112C420.574 73.3364 421.975 72.2017 424.06 72.2017C425.967 72.2017 427.389 73.3364 427.492 74.9292H426.254C426.083 73.9175 425.249 73.3159 424.019 73.3159C422.706 73.3159 421.838 73.9722 421.838 74.9702C421.838 75.7427 422.378 76.187 423.739 76.5356L424.771 76.8091C426.815 77.3218 427.635 78.1147 427.635 79.564C427.635 81.3755 426.206 82.5308 423.951 82.5308C421.859 82.5308 420.416 81.4233 420.286 79.7212Z" fill="var(--color-text-default)"/>
<path d="M431.586 82.4282C430.158 82.4282 429.098 81.5806 429.098 80.2339C429.098 78.9146 430.069 78.1558 431.785 78.0532L433.91 77.9233V77.2534C433.91 76.3442 433.343 75.8452 432.243 75.8452C431.361 75.8452 430.745 76.1802 430.581 76.7612H429.392C429.549 75.5786 430.711 74.7993 432.284 74.7993C434.081 74.7993 435.086 75.7222 435.086 77.2534V82.2983H433.965V81.2114H433.856C433.377 81.9976 432.571 82.4282 431.586 82.4282ZM431.805 81.396C433.015 81.396 433.91 80.603 433.91 79.5503V78.8735L431.928 79.0034C430.807 79.0786 430.315 79.4683 430.315 80.2065C430.315 80.9585 430.951 81.396 431.805 81.396Z" fill="var(--color-text-default)"/>
<path d="M443.002 74.9292L440.275 82.2983H439.072L436.344 74.9292H437.602L439.618 80.9995H439.728L441.744 74.9292H443.002Z" fill="var(--color-text-default)"/>
<path d="M449.182 80.3911H450.358C450.016 81.6489 448.868 82.4282 447.254 82.4282C445.21 82.4282 443.932 80.9517 443.932 78.6206C443.932 76.3032 445.231 74.7993 447.254 74.7993C449.243 74.7993 450.453 76.2144 450.453 78.5044V78.9556H445.156V79.0103C445.217 80.4663 446.031 81.3892 447.282 81.3892C448.232 81.3892 448.874 81.0405 449.182 80.3911ZM447.241 75.8384C446.065 75.8384 445.244 76.6997 445.156 78.0054H449.216C449.189 76.6997 448.41 75.8384 447.241 75.8384Z" fill="var(--color-text-default)"/>
<path d="M452.128 76.9458C452.128 75.7222 453.311 74.7993 454.876 74.7993C456.421 74.7993 457.494 75.5649 457.652 76.7749H456.49C456.332 76.187 455.758 75.7974 454.869 75.7974C453.994 75.7974 453.311 76.2417 453.311 76.8979C453.311 77.4038 453.721 77.7183 454.589 77.9302L455.724 78.2036C457.112 78.5386 457.782 79.1401 457.782 80.1997C457.782 81.519 456.503 82.4282 454.828 82.4282C453.188 82.4282 452.06 81.6421 451.93 80.4185H453.14C453.338 81.0405 453.926 81.437 454.869 81.437C455.861 81.437 456.572 80.9653 456.572 80.2886C456.572 79.7827 456.189 79.4409 455.403 79.2495L454.138 78.9419C452.757 78.6069 452.128 78.0122 452.128 76.9458Z" fill="var(--color-text-default)"/>
<path d="M426.024 113.582C422.928 113.582 420.33 111.414 420.33 106.414C420.33 101.716 422.479 98.9136 426.063 98.9136C428.68 98.9136 430.692 100.437 431.102 102.703H428.602C428.241 101.599 427.323 100.964 426.053 100.964C423.895 100.964 422.762 102.986 422.743 106.316H422.791C423.348 105.017 424.754 104.041 426.668 104.041C429.373 104.041 431.287 105.994 431.287 108.66C431.287 111.521 429.071 113.582 426.024 113.582ZM425.985 111.531C427.557 111.531 428.807 110.3 428.807 108.757C428.817 107.136 427.635 105.984 426.014 105.984C424.393 105.984 423.172 107.136 423.172 108.708C423.172 110.291 424.412 111.531 425.985 111.531Z" fill="var(--color-text-default)"/>
<path d="M436.297 106.98V105.105H437.909C439.461 105.105 440.496 104.216 440.496 102.966C440.496 101.726 439.676 100.925 438.123 100.925C436.639 100.925 435.575 101.716 435.487 103.044H433.143C433.309 100.525 435.291 98.9233 438.123 98.9233C441.043 98.9233 442.918 100.447 442.918 102.625C442.918 104.402 441.659 105.574 439.959 105.925V105.974C442.039 106.169 443.416 107.419 443.416 109.382C443.416 111.882 441.229 113.582 438.143 113.582C435.057 113.582 432.967 111.892 432.84 109.402H435.252C435.35 110.681 436.473 111.521 438.143 111.521C439.754 111.521 440.858 110.613 440.858 109.324C440.868 107.82 439.774 106.98 437.967 106.98H436.297Z" fill="var(--color-text-default)"/>
<path d="M450.711 113.582C447.235 113.582 445.164 110.759 445.164 106.238C445.164 101.736 447.254 98.9233 450.711 98.9233C454.159 98.9233 456.239 101.716 456.239 106.228C456.239 110.74 454.178 113.582 450.711 113.582ZM450.711 111.521C452.616 111.521 453.7 109.578 453.7 106.238C453.7 102.937 452.596 100.984 450.711 100.984C448.817 100.984 447.703 102.947 447.703 106.228C447.703 109.568 448.797 111.521 450.711 111.521Z" fill="var(--color-text-default)"/>
<path fill-rule="evenodd" clip-rule="evenodd" d="M476.558 108.188C476.037 107.668 476.037 106.823 476.558 106.303C477.078 105.782 477.922 105.782 478.443 106.303L480.167 108.027V99.7983C480.167 99.0616 480.764 98.4649 481.5 98.4649C482.237 98.4649 482.834 99.0616 482.834 99.7983V108.027L484.558 106.303C485.078 105.782 485.922 105.782 486.443 106.303C486.704 106.563 486.834 106.904 486.834 107.246C486.834 107.587 486.704 107.928 486.443 108.188L481.5 113.132L476.558 108.188Z" fill="var(--color-data-visualization-error-text)"/>
<path d="M494.437 104.165C494.437 102.299 495.886 101 497.944 101C499.906 101 501.239 102.196 501.239 103.837C501.239 104.985 500.74 105.785 499.044 107.446L496.925 109.531V109.647H501.382V111.11H494.533V109.921L497.951 106.482C499.195 105.225 499.495 104.753 499.495 104.001C499.495 103.105 498.88 102.415 497.848 102.415C496.775 102.415 496.091 103.126 496.091 104.165H494.437Z" fill="var(--color-data-visualization-error-text)"/>
<path d="M504.985 105.799C503.563 105.799 502.715 104.917 502.715 103.427C502.715 101.964 503.583 101.062 504.985 101.062C506.393 101.062 507.254 101.957 507.254 103.427C507.254 104.917 506.413 105.799 504.985 105.799ZM505.798 111.11H504.383L511.035 101.246H512.443L505.798 111.11ZM504.985 104.712C505.559 104.712 505.88 104.24 505.88 103.434C505.88 102.634 505.545 102.148 504.985 102.148C504.424 102.148 504.089 102.634 504.089 103.434C504.089 104.247 504.424 104.712 504.985 104.712ZM511.841 111.22C510.419 111.22 509.572 110.331 509.572 108.841C509.572 107.378 510.44 106.482 511.841 106.482C513.249 106.482 514.111 107.378 514.111 108.841C514.111 110.338 513.27 111.22 511.841 111.22ZM511.841 110.133C512.409 110.133 512.737 109.661 512.737 108.848C512.737 108.048 512.409 107.569 511.841 107.569C511.281 107.569 510.952 108.048 510.952 108.848C510.952 109.668 511.274 110.133 511.841 110.133Z" fill="var(--color-data-visualization-error-text)"/>
<path fill-rule="evenodd" clip-rule="evenodd" d="M466.511 130.831C465.926 130.955 465.47 131.415 465.352 132.002L456.473 176.102L449.584 162.559C449.359 162.117 448.931 161.815 448.439 161.751C447.947 161.688 447.456 161.871 447.127 162.242L437.436 173.132L429.628 169.068C429.206 168.849 428.705 168.842 428.278 169.051L418.843 173.653C418.098 174.017 417.789 174.915 418.152 175.659C418.515 176.404 419.413 176.713 420.158 176.35L428.913 172.078L437.088 176.332C437.697 176.649 438.444 176.512 438.901 175.999L447.907 165.878L455.755 181.307C456.045 181.876 456.663 182.2 457.296 182.113C457.928 182.027 458.437 181.549 458.563 180.923L467.607 136.002L475.741 147.491L484.668 188.617C484.777 189.118 485.135 189.529 485.617 189.706C486.099 189.883 486.638 189.802 487.046 189.49L496.667 182.127H504.709C505.363 182.127 505.941 181.704 506.139 181.081L514.876 153.567L523.443 164.181C523.728 164.534 524.157 164.739 524.611 164.739H532.346L541.19 178.375C541.564 178.952 542.283 179.2 542.934 178.978L559.986 173.148C560.769 172.88 561.188 172.027 560.92 171.243C560.652 170.459 559.799 170.041 559.015 170.309L543.07 175.761L534.42 162.423C534.143 161.996 533.669 161.739 533.161 161.739H525.328L515.459 149.511C515.112 149.082 514.557 148.877 514.014 148.979C513.472 149.081 513.029 149.473 512.862 150L503.612 179.127H496.159C495.829 179.127 495.509 179.236 495.247 179.436L487.099 185.671L478.607 146.555C478.565 146.358 478.482 146.172 478.366 146.007L468.046 131.432C467.7 130.943 467.097 130.707 466.511 130.831Z" fill="var(--color-data-visualization-error-graph)"/>
<rect x="0.5" y="0.5" width="735" height="261" rx="7.5" stroke="var(--color-border-container)"/>
</svg>
