<svg viewBox="0 0 736 509" fill="none" xmlns="http://www.w3.org/2000/svg">
<path fill-rule="evenodd" clip-rule="evenodd" d="M304.5 251.667L304.5 40L305.105 40L305.105 251.667L304.5 251.667Z" fill="var(--color-background-secondary-base)"/>
<path fill-rule="evenodd" clip-rule="evenodd" d="M431.5 251.667L431.5 40L432.105 40L432.105 251.667L431.5 251.667Z" fill="var(--color-background-secondary-base)"/>
<path fill-rule="evenodd" clip-rule="evenodd" d="M177.5 251.667L177.5 40L178.105 40L178.105 251.667L177.5 251.667Z" fill="var(--color-background-secondary-base)"/>
<path d="M314.548 54.389C313.067 54.389 312.149 53.3614 312.149 51.6994C312.149 50.0375 313.063 49.0135 314.548 49.0135C315.76 49.0135 316.688 49.8072 316.766 50.9057H315.725C315.622 50.3139 315.158 49.9241 314.548 49.9241C313.744 49.9241 313.244 50.6045 313.244 51.6994C313.244 52.7944 313.744 53.4748 314.552 53.4748C315.165 53.4748 315.625 53.1133 315.728 52.5499H316.77C316.681 53.6413 315.781 54.389 314.548 54.389Z" fill="var(--color-text-default)"/>
<path d="M317.688 54.2579V48.8646H318.701V50.9943H318.765C318.946 50.5513 319.371 50.282 319.945 50.282C320.785 50.282 321.284 50.81 321.284 51.7455V54.2579H320.253V51.9794C320.253 51.4266 320.002 51.1431 319.534 51.1431C319.017 51.1431 318.719 51.4939 318.719 52.0113V54.2579H317.688Z" fill="var(--color-text-default)"/>
<path d="M324.814 53.1558H325.774C325.622 53.8823 324.945 54.3394 323.988 54.3394C322.797 54.3394 322.096 53.5881 322.096 52.3266C322.096 51.0581 322.812 50.2714 323.974 50.2714C325.126 50.2714 325.806 51.0085 325.806 52.2416V52.5499H323.124V52.603C323.138 53.1984 323.478 53.5704 324.016 53.5704C324.424 53.5704 324.704 53.4216 324.814 53.1558ZM323.977 51.0403C323.499 51.0403 323.162 51.3841 323.127 51.9085H324.793C324.771 51.3734 324.459 51.0403 323.977 51.0403Z" fill="var(--color-text-default)"/>
<path d="M330.111 51.7172H329.147C329.077 51.3415 328.811 51.0935 328.371 51.0935C327.815 51.0935 327.503 51.5223 327.503 52.2983C327.503 53.085 327.819 53.5208 328.371 53.5208C328.793 53.5208 329.07 53.3118 329.147 52.922H330.111C330.026 53.7795 329.388 54.3394 328.371 54.3394C327.152 54.3394 326.462 53.5988 326.462 52.2983C326.462 51.012 327.149 50.2714 328.371 50.2714C329.406 50.2714 330.026 50.8455 330.111 51.7172Z" fill="var(--color-text-default)"/>
<path d="M332.05 51.8979L333.357 50.3564H334.53L333.042 52.029L334.633 54.2579H333.41L332.269 52.6527L331.986 52.9468V54.2579H330.955V48.8646H331.986V51.8979H332.05Z" fill="var(--color-text-default)"/>
<path d="M336.784 54.3394C335.583 54.3394 334.86 53.5775 334.86 52.3054C334.86 51.0439 335.593 50.2714 336.784 50.2714C337.974 50.2714 338.708 51.0403 338.708 52.3054C338.708 53.5811 337.985 54.3394 336.784 54.3394ZM336.784 53.5244C337.333 53.5244 337.648 53.0779 337.648 52.3054C337.648 51.54 337.33 51.09 336.784 51.09C336.235 51.09 335.919 51.54 335.919 52.3054C335.919 53.0779 336.231 53.5244 336.784 53.5244Z" fill="var(--color-text-default)"/>
<path d="M343.088 50.3564V54.2579H342.088V53.6307H342.025C341.84 54.0842 341.475 54.3394 340.884 54.3394C340.04 54.3394 339.516 53.8043 339.516 52.8972V50.3564H340.547V52.642C340.547 53.1948 340.792 53.4748 341.266 53.4748C341.78 53.4748 342.057 53.1452 342.057 52.6101V50.3564H343.088Z" fill="var(--color-text-default)"/>
<path d="M344.417 49.4245H345.448V50.3919H346.259V51.175H345.448V52.968C345.448 53.3188 345.604 53.4818 345.954 53.4818C346.089 53.4818 346.16 53.4748 346.259 53.4641V54.226C346.132 54.2508 345.94 54.272 345.742 54.272C344.792 54.272 344.417 53.9638 344.417 53.2054V51.175H343.807V50.3919H344.417V49.4245Z" fill="var(--color-text-default)"/>
<path d="M346.996 51.4939C346.996 50.764 347.648 50.2714 348.623 50.2714C349.615 50.2714 350.2 50.686 350.256 51.4231H349.303C349.25 51.1644 349.013 51.0049 348.63 51.0049C348.261 51.0049 347.988 51.1785 347.988 51.4337C347.988 51.6321 348.155 51.7561 348.516 51.8376L349.25 51.9971C350.008 52.1636 350.348 52.4826 350.348 53.0637C350.348 53.8362 349.65 54.3394 348.626 54.3394C347.595 54.3394 346.971 53.9177 346.901 53.1806H347.907C347.985 53.4499 348.236 53.6094 348.648 53.6094C349.048 53.6094 349.324 53.4322 349.324 53.1736C349.324 52.9751 349.176 52.8546 348.832 52.7767L348.123 52.6172C347.365 52.4507 346.996 52.0928 346.996 51.4939Z" fill="var(--color-text-default)"/>
<path fill-rule="evenodd" clip-rule="evenodd" d="M680.662 40.6048H55.3381C53.0001 40.6048 51.1048 42.5001 51.1048 44.8381V246.829C51.1048 249.167 53.0001 251.062 55.3381 251.062H680.662C683 251.062 684.895 249.167 684.895 246.829V44.8381C684.895 42.5001 683 40.6048 680.662 40.6048ZM55.3381 40C52.6661 40 50.5 42.1661 50.5 44.8381V246.829C50.5 249.501 52.6661 251.667 55.3381 251.667H680.662C683.334 251.667 685.5 249.501 685.5 246.829V44.8381C685.5 42.1661 683.334 40 680.662 40H55.3381Z" fill="var(--color-background-secondary-base)"/>
<path d="M305.105 72.0519C305.105 70.7159 306.189 69.6328 307.525 69.6328H322.039C323.375 69.6328 324.458 70.7159 324.458 72.0519V87.1709C324.458 88.5069 323.375 89.59 322.039 89.59H307.525C306.189 89.59 305.105 88.5069 305.105 87.1709V72.0519Z" fill="var(--color-data-visualization-01)"/>
<path d="M305.105 133.134C305.105 131.798 306.189 130.715 307.525 130.715H322.039C323.375 130.715 324.458 131.798 324.458 133.134V191.796C324.458 193.132 323.375 194.215 322.039 194.215H307.525C306.189 194.215 305.105 193.132 305.105 191.796V133.134Z" fill="var(--color-data-visualization-02)"/>
<path d="M305.105 234.734C305.105 233.397 306.189 232.314 307.525 232.314H322.039C323.375 232.314 324.458 233.397 324.458 234.734V239.572C324.458 240.908 323.375 241.991 322.039 241.991H307.525C306.189 241.991 305.105 240.908 305.105 239.572V234.734Z" fill="var(--color-data-visualization-03)"/>
<path fill-rule="evenodd" clip-rule="evenodd" d="M558.5 251.667L558.5 40L559.105 40L559.105 251.667L558.5 251.667Z" fill="var(--color-background-secondary-base)"/>
<path d="M567.448 52.3869V54.2578H566.378V49.1445H568.525C569.649 49.1445 570.34 49.7646 570.34 50.7746C570.34 51.4301 569.999 51.9971 569.411 52.2274L570.488 54.2578H569.277L568.323 52.3869H567.448ZM567.448 49.9808V51.5896H568.387C568.926 51.5896 569.241 51.2955 569.241 50.7887C569.241 50.2926 568.908 49.9808 568.376 49.9808H567.448Z" fill="var(--color-text-default)"/>
<path d="M573.713 53.1558H574.673C574.521 53.8822 573.844 54.3393 572.887 54.3393C571.697 54.3393 570.995 53.5881 570.995 52.3266C570.995 51.058 571.711 50.2714 572.873 50.2714C574.025 50.2714 574.705 51.0084 574.705 52.2416V52.5499H572.023V52.603C572.037 53.1983 572.377 53.5704 572.916 53.5704C573.323 53.5704 573.603 53.4216 573.713 53.1558ZM572.877 51.0403C572.398 51.0403 572.062 51.384 572.026 51.9085H573.692C573.671 51.3734 573.359 51.0403 572.877 51.0403Z" fill="var(--color-text-default)"/>
<path d="M578.979 50.3564L577.629 54.2578H576.466L575.109 50.3564H576.218L577.026 53.2905H577.09L577.891 50.3564H578.979Z" fill="var(--color-text-default)"/>
<path d="M582.04 53.1558H583.001C582.848 53.8822 582.171 54.3393 581.215 54.3393C580.024 54.3393 579.322 53.5881 579.322 52.3266C579.322 51.058 580.038 50.2714 581.201 50.2714C582.352 50.2714 583.033 51.0084 583.033 52.2416V52.5499H580.35V52.603C580.364 53.1983 580.704 53.5704 581.243 53.5704C581.651 53.5704 581.93 53.4216 582.04 53.1558ZM581.204 51.0403C580.726 51.0403 580.389 51.384 580.354 51.9085H582.019C581.998 51.3734 581.686 51.0403 581.204 51.0403Z" fill="var(--color-text-default)"/>
<path d="M583.879 54.2578V50.3564H584.879V50.9836H584.942C585.123 50.5442 585.52 50.2714 586.098 50.2714C586.966 50.2714 587.434 50.8029 587.434 51.7348V54.2578H586.402V51.9687C586.402 51.4195 586.172 51.1324 585.683 51.1324C585.205 51.1324 584.911 51.4726 584.911 52.0006V54.2578H583.879Z" fill="var(--color-text-default)"/>
<path d="M591.973 50.3564V54.2578H590.974V53.6306H590.91C590.726 54.0842 590.361 54.3393 589.769 54.3393C588.925 54.3393 588.401 53.8043 588.401 52.8971V50.3564H589.432V52.642C589.432 53.1948 589.677 53.4747 590.151 53.4747C590.665 53.4747 590.942 53.1452 590.942 52.6101V50.3564H591.973Z" fill="var(--color-text-default)"/>
<path d="M595.534 53.1558H596.494C596.342 53.8822 595.665 54.3393 594.708 54.3393C593.518 54.3393 592.816 53.5881 592.816 52.3266C592.816 51.058 593.532 50.2714 594.694 50.2714C595.846 50.2714 596.526 51.0084 596.526 52.2416V52.5499H593.844V52.603C593.858 53.1983 594.198 53.5704 594.737 53.5704C595.144 53.5704 595.424 53.4216 595.534 53.1558ZM594.698 51.0403C594.219 51.0403 593.883 51.384 593.847 51.9085H595.513C595.492 51.3734 595.18 51.0403 594.698 51.0403Z" fill="var(--color-text-default)"/>
<path d="M442.663 54.2579L442.277 53.0176H440.48L440.087 54.2579H439.013L440.788 49.1446H442.046L443.822 54.2579H442.663ZM441.352 50.1828L440.71 52.2168H442.05L441.415 50.1828H441.352Z" fill="var(--color-text-default)"/>
<path d="M447.663 50.3564L446.313 54.2579H445.15L443.793 50.3564H444.902L445.71 53.2905H445.774L446.575 50.3564H447.663Z" fill="var(--color-text-default)"/>
<path d="M450.724 53.1558H451.685C451.532 53.8823 450.855 54.3394 449.899 54.3394C448.708 54.3394 448.006 53.5881 448.006 52.3266C448.006 51.0581 448.722 50.2714 449.884 50.2714C451.036 50.2714 451.716 51.0085 451.716 52.2416V52.5499H449.034V52.603C449.048 53.1984 449.388 53.5704 449.927 53.5704C450.335 53.5704 450.614 53.4216 450.724 53.1558ZM449.888 51.0403C449.41 51.0403 449.073 51.3841 449.038 51.9085H450.703C450.682 51.3734 450.37 51.0403 449.888 51.0403Z" fill="var(--color-text-default)"/>
<path d="M452.563 54.2579V50.3564H453.563V50.9766H453.626C453.729 50.5868 454.133 50.2927 454.629 50.2927C454.771 50.2927 454.945 50.3104 455.033 50.3387V51.2459C454.952 51.2175 454.711 51.1892 454.544 51.1892C453.981 51.1892 453.595 51.5258 453.595 52.0751V54.2579H452.563Z" fill="var(--color-text-default)"/>
<path d="M456.723 54.3181C455.972 54.3181 455.444 53.8575 455.444 53.1452C455.444 52.44 455.986 52.029 456.957 51.9723L457.903 51.9156V51.5931C457.903 51.2565 457.67 51.0616 457.244 51.0616C456.872 51.0616 456.624 51.1927 456.539 51.4372H455.59C455.657 50.7214 456.32 50.2714 457.301 50.2714C458.336 50.2714 458.92 50.7604 458.92 51.5931V54.2579H457.921V53.7405H457.857C457.655 54.102 457.23 54.3181 456.723 54.3181ZM457.064 53.5633C457.542 53.5633 457.903 53.248 457.903 52.8369V52.5463L457.113 52.5995C456.67 52.6278 456.454 52.7944 456.454 53.0814C456.454 53.3826 456.706 53.5633 457.064 53.5633Z" fill="var(--color-text-default)"/>
<path d="M461.656 55.7355C460.618 55.7355 459.93 55.2855 459.867 54.6016H460.887C460.94 54.8496 461.231 55.0056 461.677 55.0056C462.23 55.0056 462.553 54.7433 462.553 54.2933V53.5669H462.489C462.273 53.9779 461.862 54.2012 461.312 54.2012C460.338 54.2012 459.732 53.4429 459.732 52.2735C459.732 51.0652 460.341 50.2927 461.334 50.2927C461.862 50.2927 462.312 50.5549 462.521 50.9801H462.584V50.3564H463.584V54.2508C463.584 55.1615 462.836 55.7355 461.656 55.7355ZM461.67 53.411C462.23 53.411 462.563 52.9716 462.563 52.27C462.563 51.5683 462.227 51.1289 461.67 51.1289C461.114 51.1289 460.791 51.5683 460.791 52.27C460.791 52.9716 461.11 53.411 461.67 53.411Z" fill="var(--color-text-default)"/>
<path d="M467.145 53.1558H468.105C467.953 53.8823 467.276 54.3394 466.319 54.3394C465.129 54.3394 464.427 53.5881 464.427 52.3266C464.427 51.0581 465.143 50.2714 466.305 50.2714C467.457 50.2714 468.137 51.0085 468.137 52.2416V52.5499H465.455V52.603C465.469 53.1984 465.809 53.5704 466.348 53.5704C466.755 53.5704 467.035 53.4216 467.145 53.1558ZM466.309 51.0403C465.83 51.0403 465.494 51.3841 465.458 51.9085H467.124C467.102 51.3734 466.791 51.0403 466.309 51.0403Z" fill="var(--color-text-default)"/>
<path d="M472.588 54.3394C471.387 54.3394 470.664 53.5775 470.664 52.3054C470.664 51.0439 471.397 50.2714 472.588 50.2714C473.778 50.2714 474.512 51.0403 474.512 52.3054C474.512 53.5811 473.789 54.3394 472.588 54.3394ZM472.588 53.5244C473.137 53.5244 473.452 53.0779 473.452 52.3054C473.452 51.54 473.134 51.09 472.588 51.09C472.039 51.09 471.723 51.54 471.723 52.3054C471.723 53.0779 472.035 53.5244 472.588 53.5244Z" fill="var(--color-text-default)"/>
<path d="M475.355 54.2579V50.3564H476.355V50.9766H476.418C476.521 50.5868 476.925 50.2927 477.421 50.2927C477.563 50.2927 477.737 50.3104 477.825 50.3387V51.2459C477.744 51.2175 477.503 51.1892 477.336 51.1892C476.773 51.1892 476.387 51.5258 476.387 52.0751V54.2579H475.355Z" fill="var(--color-text-default)"/>
<path d="M479.824 54.3181C478.839 54.3181 478.233 53.5456 478.233 52.3018C478.233 51.0616 478.842 50.2927 479.824 50.2927C480.352 50.2927 480.788 50.5478 480.99 50.9801H481.05V48.8646H482.081V54.2579H481.082V53.6448H481.018C480.809 54.0665 480.366 54.3181 479.824 54.3181ZM480.175 51.1289C479.625 51.1289 479.292 51.5719 479.292 52.3054C479.292 53.0424 479.622 53.4854 480.175 53.4854C480.727 53.4854 481.06 53.0389 481.06 52.3089C481.06 51.579 480.724 51.1289 480.175 51.1289Z" fill="var(--color-text-default)"/>
<path d="M485.678 53.1558H486.638C486.486 53.8823 485.809 54.3394 484.852 54.3394C483.661 54.3394 482.96 53.5881 482.96 52.3266C482.96 51.0581 483.676 50.2714 484.838 50.2714C485.989 50.2714 486.67 51.0085 486.67 52.2416V52.5499H483.987V52.603C484.002 53.1984 484.342 53.5704 484.88 53.5704C485.288 53.5704 485.568 53.4216 485.678 53.1558ZM484.841 51.0403C484.363 51.0403 484.026 51.3841 483.991 51.9085H485.656C485.635 51.3734 485.323 51.0403 484.841 51.0403Z" fill="var(--color-text-default)"/>
<path d="M487.517 54.2579V50.3564H488.516V50.9766H488.58C488.683 50.5868 489.087 50.2927 489.583 50.2927C489.724 50.2927 489.898 50.3104 489.987 50.3387V51.2459C489.905 51.2175 489.664 51.1892 489.498 51.1892C488.934 51.1892 488.548 51.5258 488.548 52.0751V54.2579H487.517Z" fill="var(--color-text-default)"/>
<path d="M496.081 50.3564L494.731 54.2579H493.569L492.212 50.3564H493.321L494.129 53.2905H494.193L494.994 50.3564H496.081Z" fill="var(--color-text-default)"/>
<path d="M497.722 54.3181C496.971 54.3181 496.443 53.8575 496.443 53.1452C496.443 52.44 496.985 52.029 497.956 51.9723L498.902 51.9156V51.5931C498.902 51.2565 498.668 51.0616 498.243 51.0616C497.871 51.0616 497.623 51.1927 497.538 51.4372H496.588C496.655 50.7214 497.318 50.2714 498.3 50.2714C499.334 50.2714 499.919 50.7604 499.919 51.5931V54.2579H498.92V53.7405H498.856C498.654 54.102 498.229 54.3181 497.722 54.3181ZM498.062 53.5633C498.541 53.5633 498.902 53.248 498.902 52.8369V52.5463L498.112 52.5995C497.669 52.6278 497.453 52.7944 497.453 53.0814C497.453 53.3826 497.704 53.5633 498.062 53.5633Z" fill="var(--color-text-default)"/>
<path d="M500.968 54.2579V48.8646H501.999V54.2579H500.968Z" fill="var(--color-text-default)"/>
<path d="M506.609 50.3564V54.2579H505.61V53.6307H505.546C505.362 54.0842 504.997 54.3394 504.405 54.3394C503.562 54.3394 503.037 53.8043 503.037 52.8972V50.3564H504.069V52.642C504.069 53.1948 504.313 53.4748 504.788 53.4748C505.302 53.4748 505.578 53.1452 505.578 52.6101V50.3564H506.609Z" fill="var(--color-text-default)"/>
<path d="M510.171 53.1558H511.131C510.978 53.8823 510.302 54.3394 509.345 54.3394C508.154 54.3394 507.453 53.5881 507.453 52.3266C507.453 51.0581 508.168 50.2714 509.331 50.2714C510.482 50.2714 511.163 51.0085 511.163 52.2416V52.5499H508.48V52.603C508.494 53.1984 508.835 53.5704 509.373 53.5704C509.781 53.5704 510.061 53.4216 510.171 53.1558ZM509.334 51.0403C508.856 51.0403 508.519 51.3841 508.484 51.9085H510.149C510.128 51.3734 509.816 51.0403 509.334 51.0403Z" fill="var(--color-text-default)"/>
<path d="M566.361 66.9805C566.361 64.7713 568.152 62.9805 570.361 62.9805H586.552C588.761 62.9805 590.552 64.7713 590.552 66.9805V96.8471H566.361V66.9805Z" fill="var(--color-data-visualization-01)"/>
<path d="M566.361 99.2656H590.552V227.475H566.361V99.2656Z" fill="var(--color-data-visualization-02)"/>
<path d="M566.361 244.408H590.552V229.894H566.361V244.408Z" fill="var(--color-data-visualization-03)"/>
<path d="M188.663 54.2559L188.277 53.0157H186.48L186.087 54.2559H185.013L186.788 49.1426H188.046L189.822 54.2559H188.663ZM187.352 50.1809L186.71 52.2148H188.05L187.415 50.1809H187.352Z" fill="var(--color-text-default)"/>
<path d="M191.778 54.3162C190.792 54.3162 190.186 53.5437 190.186 52.2999C190.186 51.0597 190.796 50.2907 191.778 50.2907C192.306 50.2907 192.741 50.5458 192.943 50.9782H193.004V48.8627H194.035V54.2559H193.035V53.6429H192.972C192.763 54.0646 192.32 54.3162 191.778 54.3162ZM192.128 51.127C191.579 51.127 191.246 51.5699 191.246 52.3034C191.246 53.0405 191.576 53.4834 192.128 53.4834C192.681 53.4834 193.014 53.0369 193.014 52.307C193.014 51.577 192.678 51.127 192.128 51.127Z" fill="var(--color-text-default)"/>
<path d="M196.505 54.3162C195.519 54.3162 194.914 53.5437 194.914 52.2999C194.914 51.0597 195.523 50.2907 196.505 50.2907C197.033 50.2907 197.468 50.5458 197.67 50.9782H197.731V48.8627H198.762V54.2559H197.763V53.6429H197.699C197.49 54.0646 197.047 54.3162 196.505 54.3162ZM196.855 51.127C196.306 51.127 195.973 51.5699 195.973 52.3034C195.973 53.0405 196.303 53.4834 196.855 53.4834C197.408 53.4834 197.741 53.0369 197.741 52.307C197.741 51.577 197.405 51.127 196.855 51.127Z" fill="var(--color-text-default)"/>
<path d="M201.997 49.4225H203.028V50.3899H203.84V51.1731H203.028V52.9661C203.028 53.3169 203.184 53.4799 203.535 53.4799C203.67 53.4799 203.74 53.4728 203.84 53.4622V54.224C203.712 54.2488 203.521 54.2701 203.322 54.2701C202.373 54.2701 201.997 53.9618 201.997 53.2035V51.1731H201.388V50.3899H201.997V49.4225Z" fill="var(--color-text-default)"/>
<path d="M206.405 54.3374C205.204 54.3374 204.481 53.5756 204.481 52.3034C204.481 51.0419 205.215 50.2695 206.405 50.2695C207.596 50.2695 208.329 51.0384 208.329 52.3034C208.329 53.5791 207.606 54.3374 206.405 54.3374ZM206.405 53.5224C206.954 53.5224 207.27 53.0759 207.27 52.3034C207.27 51.538 206.951 51.088 206.405 51.088C205.856 51.088 205.541 51.538 205.541 52.3034C205.541 53.0759 205.852 53.5224 206.405 53.5224Z" fill="var(--color-text-default)"/>
<path d="M214.502 51.7152H213.538C213.467 51.3396 213.202 51.0915 212.762 51.0915C212.206 51.0915 211.894 51.5203 211.894 52.2963C211.894 53.083 212.21 53.5189 212.762 53.5189C213.184 53.5189 213.46 53.3098 213.538 52.92H214.502C214.417 53.7775 213.779 54.3374 212.762 54.3374C211.543 54.3374 210.852 53.5968 210.852 52.2963C210.852 51.01 211.54 50.2695 212.762 50.2695C213.797 50.2695 214.417 50.8435 214.502 51.7152Z" fill="var(--color-text-default)"/>
<path d="M216.38 54.3162C215.629 54.3162 215.101 53.8555 215.101 53.1433C215.101 52.4381 215.643 52.027 216.614 51.9703L217.56 51.9136V51.5912C217.56 51.2546 217.326 51.0597 216.901 51.0597C216.529 51.0597 216.281 51.1908 216.196 51.4353H215.246C215.314 50.7195 215.976 50.2695 216.958 50.2695C217.993 50.2695 218.577 50.7585 218.577 51.5912V54.2559H217.578V53.7386H217.514C217.312 54.1 216.887 54.3162 216.38 54.3162ZM216.72 53.5614C217.199 53.5614 217.56 53.246 217.56 52.835V52.5444L216.77 52.5975C216.327 52.6259 216.111 52.7924 216.111 53.0795C216.111 53.3807 216.363 53.5614 216.72 53.5614Z" fill="var(--color-text-default)"/>
<path d="M219.591 54.2559V50.3545H220.59V50.9746H220.654C220.756 50.5848 221.16 50.2907 221.657 50.2907C221.798 50.2907 221.972 50.3084 222.061 50.3368V51.2439C221.979 51.2156 221.738 51.1872 221.572 51.1872C221.008 51.1872 220.622 51.5239 220.622 52.0731V54.2559H219.591Z" fill="var(--color-text-default)"/>
<path d="M223.209 49.4225H224.24V50.3899H225.051V51.1731H224.24V52.9661C224.24 53.3169 224.396 53.4799 224.747 53.4799C224.881 53.4799 224.952 53.4728 225.051 53.4622V54.224C224.924 54.2488 224.732 54.2701 224.534 54.2701C223.584 54.2701 223.209 53.9618 223.209 53.2035V51.1731H222.599V50.3899H223.209V49.4225Z" fill="var(--color-text-default)"/>
<path fill-rule="evenodd" clip-rule="evenodd" d="M234.222 49.2479C233.987 49.0118 233.603 49.0118 233.367 49.2479C233.131 49.4841 233.131 49.8669 233.367 50.1031L234.149 50.885H230.417C230.083 50.885 229.812 51.1559 229.812 51.4898C229.812 51.8239 230.083 52.0945 230.417 52.0945H234.149L233.367 52.8765C233.131 53.1127 233.131 53.4955 233.367 53.7316C233.485 53.8499 233.64 53.9088 233.795 53.9088C233.95 53.9088 234.104 53.8499 234.222 53.7316L236.465 51.4898L234.222 49.2479Z" fill="var(--color-text-default)"/>
<path d="M58.376 49.1425H60.5092C61.5616 49.1425 62.2809 49.8441 62.2809 50.9001C62.2809 51.9419 61.5333 52.6435 60.456 52.6435H59.4461V54.2558H58.376V49.1425ZM59.4461 49.9929V51.8037H60.2222C60.8352 51.8037 61.1931 51.4848 61.1931 50.9036C61.1931 50.3083 60.8423 49.9929 60.2257 49.9929H59.4461Z" fill="var(--color-text-default)"/>
<path d="M64.0917 54.316C63.3405 54.316 62.8125 53.8554 62.8125 53.1431C62.8125 52.438 63.3546 52.0269 64.3256 51.9702L65.2717 51.9135V51.5911C65.2717 51.2544 65.0378 51.0595 64.6126 51.0595C64.2405 51.0595 63.9925 51.1907 63.9074 51.4352H62.9578C63.0251 50.7194 63.6877 50.2693 64.6693 50.2693C65.704 50.2693 66.2887 50.7583 66.2887 51.5911V54.2558H65.2894V53.7385H65.2256C65.0236 54.0999 64.5984 54.316 64.0917 54.316ZM64.4319 53.5613C64.9102 53.5613 65.2717 53.2459 65.2717 52.8349V52.5443L64.4815 52.5974C64.0385 52.6258 63.8224 52.7923 63.8224 53.0794C63.8224 53.3806 64.074 53.5613 64.4319 53.5613Z" fill="var(--color-text-default)"/>
<path d="M69.0243 55.7335C67.986 55.7335 67.2986 55.2834 67.2348 54.5995H68.2553C68.3085 54.8476 68.5991 55.0035 69.0455 55.0035C69.5983 55.0035 69.9208 54.7413 69.9208 54.2912V53.5648H69.857C69.6408 53.9759 69.2298 54.1991 68.6806 54.1991C67.7061 54.1991 67.1001 53.4408 67.1001 52.2714C67.1001 51.0631 67.7096 50.2906 68.7018 50.2906C69.2298 50.2906 69.6798 50.5528 69.8889 50.978H69.9527V50.3544H70.952V54.2487C70.952 55.1594 70.2043 55.7335 69.0243 55.7335ZM69.0384 53.4089C69.5983 53.4089 69.9314 52.9695 69.9314 52.2679C69.9314 51.5663 69.5948 51.1269 69.0384 51.1269C68.4821 51.1269 68.1597 51.5663 68.1597 52.2679C68.1597 52.9695 68.4786 53.4089 69.0384 53.4089Z" fill="var(--color-text-default)"/>
<path d="M74.5132 53.1538H75.4735C75.3211 53.8802 74.6443 54.3373 73.6876 54.3373C72.4969 54.3373 71.7953 53.5861 71.7953 52.3246C71.7953 51.056 72.5111 50.2693 73.6734 50.2693C74.825 50.2693 75.5054 51.0064 75.5054 52.2395V52.5478H72.8229V52.601C72.8371 53.1963 73.1773 53.5684 73.7159 53.5684C74.1234 53.5684 74.4033 53.4195 74.5132 53.1538ZM73.6769 51.0383C73.1986 51.0383 72.8619 51.382 72.8265 51.9064H74.4919C74.4707 51.3714 74.1588 51.0383 73.6769 51.0383Z" fill="var(--color-text-default)"/>
<path d="M81.7562 50.3544L80.4061 54.2558H79.2438L77.8866 50.3544H78.9958L79.8037 53.2884H79.8675L80.6683 50.3544H81.7562Z" fill="var(--color-text-default)"/>
<path d="M82.9787 49.7555C82.6598 49.7555 82.394 49.5004 82.394 49.1815C82.394 48.859 82.6598 48.6039 82.9787 48.6039C83.2976 48.6039 83.5598 48.859 83.5598 49.1815C83.5598 49.5004 83.2976 49.7555 82.9787 49.7555ZM82.4613 54.2558V50.3544H83.4925V54.2558H82.4613Z" fill="var(--color-text-default)"/>
<path d="M84.4492 51.4919C84.4492 50.7619 85.1013 50.2693 86.0757 50.2693C87.0679 50.2693 87.6526 50.6839 87.7093 51.421H86.7561C86.7029 51.1623 86.4655 51.0028 86.0828 51.0028C85.7143 51.0028 85.4414 51.1765 85.4414 51.4316C85.4414 51.6301 85.608 51.7541 85.9694 51.8356L86.7029 51.995C87.4612 52.1616 87.8014 52.4805 87.8014 53.0616C87.8014 53.8341 87.1033 54.3373 86.0793 54.3373C85.0481 54.3373 84.4244 53.9156 84.3536 53.1786H85.3599C85.4379 53.4479 85.6895 53.6073 86.1005 53.6073C86.5009 53.6073 86.7773 53.4302 86.7773 53.1715C86.7773 52.9731 86.6285 52.8526 86.2848 52.7746L85.5761 52.6152C84.8178 52.4486 84.4492 52.0907 84.4492 51.4919Z" fill="var(--color-text-default)"/>
<path d="M89.1728 49.7555C88.8539 49.7555 88.5881 49.5004 88.5881 49.1815C88.5881 48.859 88.8539 48.6039 89.1728 48.6039C89.4917 48.6039 89.7539 48.859 89.7539 49.1815C89.7539 49.5004 89.4917 49.7555 89.1728 49.7555ZM88.6554 54.2558V50.3544H89.6866V54.2558H88.6554Z" fill="var(--color-text-default)"/>
<path d="M91.026 49.4224H92.0572V50.3898H92.8687V51.1729H92.0572V52.966C92.0572 53.3168 92.2131 53.4798 92.5639 53.4798C92.6986 53.4798 92.7694 53.4727 92.8687 53.4621V54.2239C92.7411 54.2487 92.5497 54.27 92.3513 54.27C91.4016 54.27 91.026 53.9617 91.026 53.2034V51.1729H90.4165V50.3898H91.026V49.4224Z" fill="var(--color-text-default)"/>
<path d="M93.6057 51.4919C93.6057 50.7619 94.2577 50.2693 95.2322 50.2693C96.2244 50.2693 96.8091 50.6839 96.8658 51.421H95.9126C95.8594 51.1623 95.622 51.0028 95.2393 51.0028C94.8708 51.0028 94.5979 51.1765 94.5979 51.4316C94.5979 51.6301 94.7645 51.7541 95.1259 51.8356L95.8594 51.995C96.6177 52.1616 96.9579 52.4805 96.9579 53.0616C96.9579 53.8341 96.2598 54.3373 95.2357 54.3373C94.2046 54.3373 93.5809 53.9156 93.51 53.1786H94.5164C94.5944 53.4479 94.846 53.6073 95.257 53.6073C95.6574 53.6073 95.9338 53.4302 95.9338 53.1715C95.9338 52.9731 95.785 52.8526 95.4413 52.7746L94.7326 52.6152C93.9742 52.4486 93.6057 52.0907 93.6057 51.4919Z" fill="var(--color-text-default)"/>
<path fill-rule="evenodd" clip-rule="evenodd" d="M107.22 49.2479C106.985 49.0118 106.601 49.0118 106.365 49.2479C106.129 49.4841 106.129 49.8669 106.365 50.1031L107.147 50.885H103.415C103.081 50.885 102.81 51.1559 102.81 51.4898C102.81 51.8239 103.081 52.0945 103.415 52.0945H107.147L106.365 52.8765C106.129 53.1127 106.129 53.4955 106.365 53.7316C106.483 53.8499 106.638 53.9088 106.793 53.9088C106.948 53.9088 107.102 53.8499 107.22 53.7316L109.463 51.4898L107.22 49.2479Z" fill="var(--color-text-default)"/>
<path d="M51.1035 99.8702C51.1035 98.5342 52.1866 97.4512 53.5226 97.4512H60.7797V227.475H53.5226C52.1866 227.475 51.1035 226.392 51.1035 225.056V99.8702Z" fill="var(--color-data-visualization-02)"/>
<g opacity="0.4">
<path d="M60.7793 97.4512L175.451 115.276C176.629 115.459 177.498 116.474 177.498 117.666V207.854C177.498 209.051 176.623 210.068 175.439 210.246L60.7793 227.475V97.4512Z" fill="var(--color-data-visualization-02)"/>
</g>
<path d="M178.104 118.013C178.104 116.677 179.187 115.594 180.523 115.594H187.78V209.937H180.523C179.187 209.937 178.104 208.854 178.104 207.518V118.013Z" fill="var(--color-data-visualization-02)"/>
<g opacity="0.4">
<path d="M187.779 115.594L302.39 130.44C303.596 130.596 304.498 131.623 304.498 132.839V192.098C304.498 193.309 303.603 194.333 302.402 194.495L187.779 209.937V115.594Z" fill="var(--color-data-visualization-02)"/>
</g>
<path d="M51.1035 232.316C51.1035 230.98 52.1866 229.896 53.5226 229.896H60.7797V244.411H53.5226C52.1866 244.411 51.1035 243.328 51.1035 241.992V232.316Z" fill="var(--color-data-visualization-03)"/>
<g opacity="0.4">
<path d="M60.7793 229.896L175.104 231.081C176.431 231.095 177.498 232.174 177.498 233.5V240.807C177.498 242.133 176.431 243.212 175.104 243.226L60.7793 244.411V229.896Z" fill="var(--color-data-visualization-03)"/>
</g>
<path d="M178.104 233.523C178.104 232.187 179.187 231.104 180.523 231.104H187.78V243.199H180.523C179.187 243.199 178.104 242.116 178.104 240.78V233.523Z" fill="var(--color-data-visualization-03)"/>
<g opacity="0.4">
<path d="M187.779 231.104L302.104 232.288C303.431 232.302 304.498 233.381 304.498 234.707V239.595C304.498 240.921 303.431 242 302.104 242.014L187.779 243.199V231.104Z" fill="var(--color-data-visualization-03)"/>
</g>
<rect x="101.906" y="156.113" width="24.7952" height="12.7" rx="2.41905" fill="var(--color-background-default)"/>
<path d="M107.633 165.446V164.21H104.727V163.532C105.533 162.18 106.447 160.725 107.282 159.481H108.361V163.544H109.209V164.21H108.361V165.446H107.633ZM105.488 163.499V163.548H107.638V160.171H107.588C106.918 161.171 106.137 162.403 105.488 163.499Z" fill="var(--color-text-default)"/>
<path d="M110.66 165.487C110.366 165.487 110.122 165.243 110.122 164.95C110.122 164.652 110.366 164.413 110.66 164.413C110.957 164.413 111.197 164.652 111.197 164.95C111.197 165.243 110.957 165.487 110.66 165.487Z" fill="var(--color-text-default)"/>
<path d="M114.331 165.587C113.066 165.587 112.181 164.871 112.181 163.85C112.181 163.073 112.673 162.469 113.421 162.329V162.263C112.814 162.097 112.425 161.581 112.425 160.932C112.425 160.001 113.215 159.34 114.331 159.34C115.447 159.34 116.237 160.001 116.237 160.932C116.237 161.585 115.856 162.093 115.24 162.263V162.329C115.989 162.469 116.48 163.073 116.48 163.85C116.48 164.871 115.596 165.587 114.331 165.587ZM114.331 162.015C115.034 162.015 115.505 161.61 115.505 161.002C115.505 160.386 115.038 159.977 114.331 159.977C113.624 159.977 113.157 160.386 113.157 161.002C113.157 161.61 113.628 162.015 114.331 162.015ZM114.331 164.95C115.158 164.95 115.728 164.479 115.728 163.797C115.728 163.114 115.158 162.643 114.331 162.643C113.504 162.643 112.933 163.114 112.933 163.797C112.933 164.479 113.504 164.95 114.331 164.95Z" fill="var(--color-text-default)"/>
<path d="M118.597 162.18C117.787 162.18 117.299 161.651 117.299 160.775C117.299 159.906 117.795 159.373 118.597 159.373C119.399 159.373 119.891 159.906 119.891 160.775C119.891 161.655 119.403 162.18 118.597 162.18ZM118.866 165.446H118.192L122.314 159.481H122.988L118.866 165.446ZM118.597 161.639C119.015 161.639 119.25 161.32 119.25 160.779C119.25 160.237 119.011 159.919 118.597 159.919C118.18 159.919 117.94 160.237 117.94 160.779C117.94 161.324 118.18 161.639 118.597 161.639ZM122.587 165.504C121.78 165.504 121.288 164.975 121.288 164.098C121.288 163.23 121.785 162.697 122.587 162.697C123.389 162.697 123.881 163.23 123.881 164.098C123.881 164.979 123.393 165.504 122.587 165.504ZM122.587 164.962C123.004 164.962 123.24 164.644 123.24 164.102C123.24 163.561 123.004 163.243 122.587 163.243C122.169 163.243 121.933 163.561 121.933 164.102C121.933 164.648 122.169 164.962 122.587 164.962Z" fill="var(--color-text-default)"/>
<rect x="101.906" y="230.5" width="24.7952" height="12.7" rx="2.41905" fill="var(--color-background-default)"/>
<path d="M107.662 239.833V238.597H104.756V237.919C105.562 236.567 106.476 235.111 107.311 233.867H108.39V237.931H109.238V238.597H108.39V239.833H107.662ZM105.517 237.885V237.935H107.667V234.558H107.617C106.947 235.558 106.166 236.79 105.517 237.885Z" fill="var(--color-text-default)"/>
<path d="M110.689 239.874C110.395 239.874 110.151 239.63 110.151 239.337C110.151 239.039 110.395 238.799 110.689 238.799C110.986 238.799 111.226 239.039 111.226 239.337C111.226 239.63 110.986 239.874 110.689 239.874Z" fill="var(--color-text-default)"/>
<path d="M113.616 237.083V236.447H114.322C115.009 236.447 115.497 236.009 115.497 235.388C115.497 234.83 115.071 234.376 114.351 234.376C113.632 234.376 113.165 234.744 113.103 235.413H112.379C112.454 234.442 113.194 233.727 114.401 233.727C115.579 233.727 116.257 234.471 116.253 235.306C116.249 236.025 115.802 236.501 115.191 236.678V236.744C115.964 236.868 116.476 237.394 116.476 238.224C116.476 239.225 115.563 239.973 114.376 239.973C113.165 239.973 112.33 239.308 112.276 238.295H112.995C113.062 238.923 113.599 239.324 114.368 239.324C115.153 239.324 115.712 238.874 115.712 238.204C115.712 237.513 115.195 237.083 114.356 237.083H113.616Z" fill="var(--color-text-default)"/>
<path d="M118.568 236.567C117.758 236.567 117.27 236.038 117.27 235.161C117.27 234.293 117.766 233.76 118.568 233.76C119.37 233.76 119.862 234.293 119.862 235.161C119.862 236.042 119.374 236.567 118.568 236.567ZM118.837 239.833H118.163L122.285 233.867H122.959L118.837 239.833ZM118.568 236.025C118.986 236.025 119.221 235.707 119.221 235.165C119.221 234.624 118.982 234.305 118.568 234.305C118.151 234.305 117.911 234.624 117.911 235.165C117.911 235.711 118.151 236.025 118.568 236.025ZM122.558 239.891C121.751 239.891 121.26 239.361 121.26 238.485C121.26 237.617 121.756 237.083 122.558 237.083C123.36 237.083 123.852 237.617 123.852 238.485C123.852 239.365 123.364 239.891 122.558 239.891ZM122.558 239.349C122.975 239.349 123.211 239.031 123.211 238.489C123.211 237.947 122.975 237.629 122.558 237.629C122.14 237.629 121.904 237.947 121.904 238.489C121.904 239.035 122.14 239.349 122.558 239.349Z" fill="var(--color-text-default)"/>
<g opacity="0.4">
<path d="M60.7793 62.9824L175.129 65.3524C176.446 65.3797 177.498 66.4544 177.498 67.7709V90.8388C177.498 92.1601 176.438 93.237 175.117 93.2575L60.7793 95.0348V62.9824Z" fill="var(--color-data-visualization-01)"/>
</g>
<path d="M51.1035 65.4015C51.1035 64.0655 52.1866 62.9824 53.5226 62.9824H60.7797V95.0348H53.5226C52.1866 95.0348 51.1035 93.9518 51.1035 92.6158V65.4015Z" fill="var(--color-data-visualization-01)"/>
<g opacity="0.4">
<path d="M187.779 65.4004L302.167 69.5492C303.468 69.5964 304.498 70.6647 304.498 71.9666V87.2459C304.498 88.5526 303.461 89.6231 302.154 89.6637L187.779 93.2194V65.4004Z" fill="var(--color-data-visualization-01)"/>
</g>
<path d="M178.104 67.8194C178.104 66.4834 179.187 65.4004 180.523 65.4004H187.78V93.2194H180.523C179.187 93.2194 178.104 92.1364 178.104 90.8004V67.8194Z" fill="var(--color-data-visualization-01)"/>
<rect x="101.906" y="72.6582" width="24.7952" height="12.7" rx="2.41905" fill="var(--color-background-default)"/>
<path d="M106.991 82.1149C105.862 82.1149 105.052 81.4204 104.986 80.3993H105.717C105.783 81.0359 106.296 81.4618 106.999 81.4618C107.78 81.4618 108.297 80.8995 108.297 80.0644C108.297 79.2583 107.78 78.7167 107.028 78.7167C106.461 78.7167 106.015 78.9771 105.779 79.4195H105.081L105.424 76.0089H108.735V76.6744H106.007L105.821 78.6175H105.887C106.176 78.2578 106.619 78.0759 107.214 78.0759C108.214 78.0759 109.041 78.8614 109.041 80.0438C109.041 81.2716 108.21 82.1149 106.991 82.1149Z" fill="var(--color-text-default)"/>
<path d="M110.55 82.0157C110.257 82.0157 110.013 81.7718 110.013 81.4783C110.013 81.1806 110.257 80.9409 110.55 80.9409C110.848 80.9409 111.088 81.1806 111.088 81.4783C111.088 81.7718 110.848 82.0157 110.55 82.0157Z" fill="var(--color-text-default)"/>
<path d="M114.184 82.1149C113.055 82.1149 112.245 81.4204 112.179 80.3993H112.911C112.977 81.0359 113.489 81.4618 114.192 81.4618C114.974 81.4618 115.49 80.8995 115.49 80.0644C115.49 79.2583 114.974 78.7167 114.221 78.7167C113.655 78.7167 113.208 78.9771 112.973 79.4195H112.274L112.617 76.0089H115.929V76.6744H113.2L113.014 78.6175H113.08C113.37 78.2578 113.812 78.0759 114.407 78.0759C115.408 78.0759 116.234 78.8614 116.234 80.0438C116.234 81.2716 115.404 82.1149 114.184 82.1149Z" fill="var(--color-text-default)"/>
<path d="M118.339 78.7084C117.528 78.7084 117.041 78.1793 117.041 77.3028C117.041 76.4347 117.537 75.9014 118.339 75.9014C119.141 75.9014 119.633 76.4347 119.633 77.3028C119.633 78.1834 119.145 78.7084 118.339 78.7084ZM118.607 81.9744H117.934L122.055 76.0089H122.729L118.607 81.9744ZM118.339 78.1669C118.756 78.1669 118.992 77.8485 118.992 77.307C118.992 76.7654 118.752 76.4471 118.339 76.4471C117.921 76.4471 117.681 76.7654 117.681 77.307C117.681 77.8527 117.921 78.1669 118.339 78.1669ZM122.328 82.0323C121.522 82.0323 121.03 81.5031 121.03 80.6267C121.03 79.7585 121.526 79.2252 122.328 79.2252C123.13 79.2252 123.622 79.7585 123.622 80.6267C123.622 81.5072 123.134 82.0323 122.328 82.0323ZM122.328 81.4907C122.746 81.4907 122.981 81.1724 122.981 80.6308C122.981 80.0892 122.746 79.7709 122.328 79.7709C121.911 79.7709 121.675 80.0892 121.675 80.6308C121.675 81.1765 121.911 81.4907 122.328 81.4907Z" fill="var(--color-text-default)"/>
<rect x="227.092" y="72.6582" width="29.0286" height="12.7" rx="2.41905" fill="var(--color-background-default)"/>
<path d="M231.757 81.9931V76.8543H231.69L230.173 77.954V77.1685L231.761 76.0275H232.501V81.9931H231.757Z" fill="var(--color-text-default)"/>
<path d="M234.245 77.7101C234.245 76.6476 235.064 75.887 236.205 75.887C237.247 75.887 238.045 76.5939 238.045 77.5613C238.045 78.2475 237.747 78.7436 236.672 79.8557L235.316 81.2572V81.3233H238.144V81.9931H234.282V81.4804L236.3 79.2976C237.061 78.4749 237.284 78.1649 237.284 77.6398C237.284 77.0073 236.858 76.536 236.155 76.536C235.44 76.536 234.965 77.0032 234.965 77.7101H234.245Z" fill="var(--color-text-default)"/>
<path d="M239.868 82.0344C239.574 82.0344 239.33 81.7905 239.33 81.497C239.33 81.1993 239.574 80.9595 239.868 80.9595C240.165 80.9595 240.405 81.1993 240.405 81.497C240.405 81.7905 240.165 82.0344 239.868 82.0344Z" fill="var(--color-text-default)"/>
<path d="M243.568 82.1295C242.27 82.1295 241.323 81.1208 241.323 79.1116C241.323 77.0611 242.208 75.887 243.617 75.887C244.705 75.887 245.42 76.4864 245.573 77.4125H244.808C244.684 76.8585 244.246 76.5484 243.642 76.5484C242.65 76.5484 242.071 77.3752 242.046 78.9958H242.113C242.406 78.417 242.989 78.078 243.7 78.078C244.837 78.078 245.66 78.9173 245.66 80.0748C245.66 81.2737 244.791 82.1295 243.568 82.1295ZM243.559 81.4763C244.324 81.4763 244.907 80.881 244.907 80.0996C244.907 79.2852 244.357 78.723 243.568 78.723C242.778 78.723 242.212 79.2852 242.212 80.0748C242.212 80.8727 242.795 81.4763 243.559 81.4763Z" fill="var(--color-text-default)"/>
<path d="M247.756 78.7271C246.945 78.7271 246.457 78.1979 246.457 77.3215C246.457 76.4533 246.954 75.92 247.756 75.92C248.558 75.92 249.05 76.4533 249.05 77.3215C249.05 78.2021 248.562 78.7271 247.756 78.7271ZM248.024 81.9931H247.35L251.472 76.0275H252.146L248.024 81.9931ZM247.756 78.1855C248.173 78.1855 248.409 77.8672 248.409 77.3256C248.409 76.7841 248.169 76.4657 247.756 76.4657C247.338 76.4657 247.098 76.7841 247.098 77.3256C247.098 77.8713 247.338 78.1855 247.756 78.1855ZM251.745 82.0509C250.939 82.0509 250.447 81.5218 250.447 80.6453C250.447 79.7772 250.943 79.2439 251.745 79.2439C252.547 79.2439 253.039 79.7772 253.039 80.6453C253.039 81.5259 252.551 82.0509 251.745 82.0509ZM251.745 81.5094C252.163 81.5094 252.398 81.191 252.398 80.6495C252.398 80.1079 252.163 79.7896 251.745 79.7896C251.327 79.7896 251.092 80.1079 251.092 80.6495C251.092 81.1952 251.327 81.5094 251.745 81.5094Z" fill="var(--color-text-default)"/>
<rect x="227.092" y="156.113" width="27.819" height="12.7" rx="2.41905" fill="var(--color-background-default)"/>
<path d="M231.776 165.448V160.309H231.71L230.193 161.409V160.624L231.78 159.483H232.52V165.448H231.776Z" fill="var(--color-text-default)"/>
<path d="M235.728 165.448V160.309H235.662L234.145 161.409V160.624L235.732 159.483H236.472V165.448H235.728Z" fill="var(--color-text-default)"/>
<path d="M238.639 165.489C238.345 165.489 238.101 165.246 238.101 164.952C238.101 164.654 238.345 164.415 238.639 164.415C238.936 164.415 239.176 164.654 239.176 164.952C239.176 165.246 238.936 165.489 238.639 165.489Z" fill="var(--color-text-default)"/>
<path d="M242.339 165.585C241.041 165.585 240.094 164.576 240.094 162.567C240.094 160.516 240.979 159.342 242.388 159.342C243.476 159.342 244.191 159.941 244.344 160.868H243.579C243.455 160.314 243.017 160.003 242.413 160.003C241.421 160.003 240.842 160.83 240.817 162.451H240.883C241.177 161.872 241.76 161.533 242.471 161.533C243.608 161.533 244.431 162.372 244.431 163.53C244.431 164.729 243.562 165.585 242.339 165.585ZM242.33 164.931C243.095 164.931 243.678 164.336 243.678 163.555C243.678 162.74 243.128 162.178 242.339 162.178C241.549 162.178 240.983 162.74 240.983 163.53C240.983 164.328 241.566 164.931 242.33 164.931Z" fill="var(--color-text-default)"/>
<path d="M246.527 162.182C245.716 162.182 245.228 161.653 245.228 160.777C245.228 159.908 245.725 159.375 246.527 159.375C247.329 159.375 247.821 159.908 247.821 160.777C247.821 161.657 247.333 162.182 246.527 162.182ZM246.795 165.448H246.121L250.243 159.483H250.917L246.795 165.448ZM246.527 161.641C246.944 161.641 247.18 161.322 247.18 160.781C247.18 160.239 246.94 159.921 246.527 159.921C246.109 159.921 245.869 160.239 245.869 160.781C245.869 161.326 246.109 161.641 246.527 161.641ZM250.516 165.506C249.71 165.506 249.218 164.977 249.218 164.1C249.218 163.232 249.714 162.699 250.516 162.699C251.318 162.699 251.81 163.232 251.81 164.1C251.81 164.981 251.322 165.506 250.516 165.506ZM250.516 164.964C250.934 164.964 251.169 164.646 251.169 164.105C251.169 163.563 250.934 163.245 250.516 163.245C250.098 163.245 249.863 163.563 249.863 164.105C249.863 164.65 250.098 164.964 250.516 164.964Z" fill="var(--color-text-default)"/>
<rect x="227.092" y="230.5" width="29.0286" height="12.7" rx="2.41905" fill="var(--color-background-default)"/>
<path d="M231.748 239.833V234.694H231.682L230.165 235.794V235.008L231.752 233.867H232.492V239.833H231.748Z" fill="var(--color-text-default)"/>
<path d="M235.527 237.083V236.447H236.234C236.92 236.447 237.408 236.009 237.408 235.388C237.408 234.83 236.982 234.376 236.263 234.376C235.543 234.376 235.076 234.744 235.014 235.413H234.291C234.365 234.442 235.105 233.727 236.312 233.727C237.491 233.727 238.169 234.471 238.164 235.306C238.16 236.025 237.714 236.501 237.102 236.678V236.744C237.875 236.868 238.388 237.394 238.388 238.224C238.388 239.225 237.474 239.973 236.288 239.973C235.076 239.973 234.241 239.308 234.187 238.295H234.907C234.973 238.923 235.51 239.324 236.279 239.324C237.065 239.324 237.623 238.874 237.623 238.204C237.623 237.513 237.106 237.083 236.267 237.083H235.527Z" fill="var(--color-text-default)"/>
<path d="M239.884 239.874C239.591 239.874 239.347 239.63 239.347 239.337C239.347 239.039 239.591 238.799 239.884 238.799C240.182 238.799 240.422 239.039 240.422 239.337C240.422 239.63 240.182 239.874 239.884 239.874Z" fill="var(--color-text-default)"/>
<path d="M242.811 237.083V236.447H243.518C244.204 236.447 244.692 236.009 244.692 235.388C244.692 234.83 244.266 234.376 243.547 234.376C242.828 234.376 242.361 234.744 242.299 235.413H241.575C241.649 234.442 242.389 233.727 243.597 233.727C244.775 233.727 245.453 234.471 245.449 235.306C245.445 236.025 244.998 236.501 244.386 236.678V236.744C245.159 236.868 245.672 237.394 245.672 238.224C245.672 239.225 244.758 239.973 243.572 239.973C242.361 239.973 241.525 239.308 241.472 238.295H242.191C242.257 238.923 242.795 239.324 243.564 239.324C244.349 239.324 244.907 238.874 244.907 238.204C244.907 237.513 244.39 237.083 243.551 237.083H242.811Z" fill="var(--color-text-default)"/>
<path d="M247.764 236.567C246.954 236.567 246.466 236.038 246.466 235.161C246.466 234.293 246.962 233.76 247.764 233.76C248.566 233.76 249.058 234.293 249.058 235.161C249.058 236.042 248.57 236.567 247.764 236.567ZM248.033 239.833H247.359L251.48 233.867H252.154L248.033 239.833ZM247.764 236.025C248.181 236.025 248.417 235.707 248.417 235.165C248.417 234.624 248.177 234.305 247.764 234.305C247.346 234.305 247.107 234.624 247.107 235.165C247.107 235.711 247.346 236.025 247.764 236.025ZM251.753 239.891C250.947 239.891 250.455 239.361 250.455 238.485C250.455 237.617 250.951 237.083 251.753 237.083C252.555 237.083 253.047 237.617 253.047 238.485C253.047 239.365 252.559 239.891 251.753 239.891ZM251.753 239.349C252.171 239.349 252.406 239.031 252.406 238.489C252.406 237.947 252.171 237.629 251.753 237.629C251.336 237.629 251.1 237.947 251.1 238.489C251.1 239.035 251.336 239.349 251.753 239.349Z" fill="var(--color-text-default)"/>
<path d="M334.761 78.1878H335.481C335.481 77.4809 335.956 77.0137 336.671 77.0137C337.374 77.0137 337.8 77.485 337.8 78.1175C337.8 78.6425 337.577 78.9526 336.816 79.7753L334.798 81.9581V82.4707H338.66V81.801H335.832V81.7349L337.188 80.3334C338.263 79.2213 338.56 78.7252 338.56 78.039C338.56 77.0716 337.763 76.3646 336.721 76.3646C335.58 76.3646 334.761 77.1253 334.761 78.1878Z" fill="var(--color-text-default)"/>
<path d="M342.025 82.6072C343.249 82.6072 344.117 81.7514 344.117 80.5525C344.117 79.3949 343.294 78.5557 342.157 78.5557C341.446 78.5557 340.863 78.8947 340.57 79.4735H340.503C340.528 77.8529 341.107 77.0261 342.099 77.0261C342.703 77.0261 343.141 77.3362 343.265 77.8901H344.03C343.877 76.9641 343.162 76.3646 342.074 76.3646C340.665 76.3646 339.78 77.5387 339.78 79.5893C339.78 81.5984 340.727 82.6072 342.025 82.6072ZM342.017 81.954C341.252 81.954 340.669 81.3504 340.669 80.5525C340.669 79.7629 341.235 79.2006 342.025 79.2006C342.814 79.2006 343.364 79.7629 343.364 80.5773C343.364 81.3587 342.781 81.954 342.017 81.954Z" fill="var(--color-text-default)"/>
<path d="M346.568 79.7215H347.308C348.147 79.7215 348.664 80.1515 348.664 80.8419C348.664 81.5116 348.106 81.9622 347.321 81.9622C346.552 81.9622 346.014 81.5612 345.948 80.9328H345.229C345.283 81.9457 346.118 82.6113 347.329 82.6113C348.515 82.6113 349.429 81.863 349.429 80.8626C349.429 80.0316 348.916 79.5066 348.143 79.3825V79.3164C348.755 79.1386 349.202 78.6632 349.206 77.9439C349.21 77.1088 348.532 76.3646 347.354 76.3646C346.147 76.3646 345.407 77.0798 345.332 78.0514H346.056C346.118 77.3816 346.585 77.0137 347.304 77.0137C348.023 77.0137 348.449 77.4684 348.449 78.0266C348.449 78.6467 347.961 79.0849 347.275 79.0849H346.568V79.7215Z" fill="var(--color-text-default)"/>
<path d="M350.926 82.5121C351.223 82.5121 351.463 82.2682 351.463 81.9746C351.463 81.677 351.223 81.4372 350.926 81.4372C350.632 81.4372 350.388 81.677 350.388 81.9746C350.388 82.2682 350.632 82.5121 350.926 82.5121Z" fill="var(--color-text-default)"/>
<path d="M353.096 82.4707H353.877L356.531 77.1956V76.5052H352.583V77.1708H355.775V77.2287L353.096 82.4707Z" fill="var(--color-text-default)"/>
<path d="M359.578 82.6113C360.798 82.6113 361.629 81.7679 361.629 80.5401C361.629 79.3577 360.802 78.5723 359.802 78.5723C359.206 78.5723 358.764 78.7542 358.474 79.1138H358.408L358.594 77.1708H361.323V76.5052H358.011L357.668 79.9158H358.367C358.603 79.4735 359.049 79.213 359.615 79.213C360.368 79.213 360.885 79.7546 360.885 80.5608C360.885 81.3959 360.368 81.9581 359.587 81.9581C358.884 81.9581 358.371 81.5323 358.305 80.8956H357.573C357.639 81.9168 358.45 82.6113 359.578 82.6113Z" fill="var(--color-text-default)"/>
<path d="M363.659 79.9613H363.593V76.2448H362.881V82.4707H363.593V80.7799L364.018 80.383L365.689 82.4707H366.594L364.547 79.9241L366.466 78.0142H365.593L363.659 79.9613Z" fill="var(--color-text-default)"/>
<path d="M446.013 79.3083C446.013 81.3123 444.388 82.9368 442.384 82.9368C440.38 82.9368 438.756 81.3123 438.756 79.3083C438.756 77.3043 440.38 75.6797 442.384 75.6797C444.388 75.6797 446.013 77.3043 446.013 79.3083Z" fill="var(--color-data-visualization-01)"/>
<path d="M453.357 83.0701H453.853V82.3549C454.829 82.2804 455.639 81.7389 455.639 80.7426C455.639 79.8744 455.044 79.4362 453.981 79.1799L453.853 79.1509V77.2699C454.411 77.3402 454.808 77.6668 454.862 78.2249H455.581C455.552 77.3112 454.808 76.7077 453.853 76.6208V75.9056H453.357V76.625C452.377 76.7118 451.678 77.2988 451.678 78.1877C451.678 79.0021 452.232 79.461 453.262 79.709L453.357 79.7338V81.7058C452.642 81.6273 452.323 81.2345 452.249 80.7177H451.53C451.558 81.681 452.373 82.2639 453.357 82.3507V83.0701ZM452.398 78.1381C452.398 77.7371 452.728 77.3567 453.357 77.274V79.031C452.646 78.8574 452.398 78.5432 452.398 78.1381ZM453.878 79.8579C454.696 80.0563 454.92 80.3457 454.92 80.8004C454.92 81.2759 454.622 81.6521 453.853 81.7099V79.8537L453.878 79.8579Z" fill="var(--color-text-default)"/>
<path d="M456.97 78.1877H457.689C457.689 77.4807 458.165 77.0136 458.88 77.0136C459.583 77.0136 460.009 77.4849 460.009 78.1174C460.009 78.6424 459.785 78.9525 459.025 79.7752L457.007 81.958V82.4706H460.869V81.8009H458.041V81.7347L459.397 80.3333C460.472 79.2212 460.769 78.7251 460.769 78.0388C460.769 77.0715 459.971 76.3645 458.93 76.3645C457.789 76.3645 456.97 77.1252 456.97 78.1877Z" fill="var(--color-text-default)"/>
<path d="M464.234 82.607C465.457 82.607 466.326 81.7513 466.326 80.5524C466.326 79.3948 465.503 78.5556 464.366 78.5556C463.655 78.5556 463.072 78.8946 462.778 79.4734H462.712C462.737 77.8528 463.316 77.026 464.308 77.026C464.912 77.026 465.35 77.336 465.474 77.89H466.239C466.086 76.964 465.371 76.3645 464.283 76.3645C462.874 76.3645 461.989 77.5386 461.989 79.5891C461.989 81.5983 462.936 82.607 464.234 82.607ZM464.225 81.9538C463.461 81.9538 462.878 81.3503 462.878 80.5524C462.878 79.7628 463.444 79.2005 464.234 79.2005C465.023 79.2005 465.573 79.7628 465.573 80.5772C465.573 81.3585 464.99 81.9538 464.225 81.9538Z" fill="var(--color-text-default)"/>
<path d="M468.951 82.4706H469.695V76.5051H468.955L467.367 77.6461V78.4316L468.885 77.3319H468.951V82.4706Z" fill="var(--color-text-default)"/>
<path d="M471.861 82.512C472.159 82.512 472.399 82.268 472.399 81.9745C472.399 81.6769 472.159 81.4371 471.861 81.4371C471.568 81.4371 471.324 81.6769 471.324 81.9745C471.324 82.268 471.568 82.512 471.861 82.512Z" fill="var(--color-text-default)"/>
<path d="M474.788 79.7214H475.528C476.367 79.7214 476.884 80.1514 476.884 80.8418C476.884 81.5115 476.326 81.9621 475.54 81.9621C474.772 81.9621 474.234 81.5611 474.168 80.9327H473.449C473.502 81.9456 474.337 82.6112 475.549 82.6112C476.735 82.6112 477.649 81.8629 477.649 80.8624C477.649 80.0315 477.136 79.5065 476.363 79.3824V79.3163C476.975 79.1385 477.422 78.6631 477.426 77.9438C477.43 77.1087 476.752 76.3645 475.574 76.3645C474.366 76.3645 473.626 77.0797 473.552 78.0512H474.275C474.337 77.3815 474.805 77.0136 475.524 77.0136C476.243 77.0136 476.669 77.4683 476.669 78.0264C476.669 78.6466 476.181 79.0848 475.495 79.0848H474.788V79.7214Z" fill="var(--color-text-default)"/>
<path d="M480.27 82.4706H481.014V76.5051H480.274L478.687 77.6461V78.4316L480.204 77.3319H480.27V82.4706Z" fill="var(--color-text-default)"/>
<path d="M438.756 234.129C438.756 233.461 439.297 232.92 439.965 232.92H444.803C445.471 232.92 446.013 233.461 446.013 234.129V238.968C446.013 239.636 445.471 240.177 444.803 240.177H439.965C439.297 240.177 438.756 239.636 438.756 238.968V234.129Z" fill="var(--color-data-visualization-03)"/>
<path d="M453.357 240.31H453.853V239.595C454.829 239.521 455.639 238.979 455.639 237.983C455.639 237.115 455.044 236.677 453.981 236.42L453.853 236.391V234.51C454.411 234.581 454.808 234.907 454.862 235.465H455.581C455.552 234.552 454.808 233.948 453.853 233.861V233.146H453.357V233.865C452.377 233.952 451.678 234.539 451.678 235.428C451.678 236.242 452.232 236.701 453.262 236.949L453.357 236.974V238.946C452.642 238.868 452.323 238.475 452.249 237.958H451.53C451.558 238.921 452.373 239.504 453.357 239.591V240.31ZM452.398 235.378C452.398 234.977 452.728 234.597 453.357 234.514V236.271C452.646 236.098 452.398 235.784 452.398 235.378ZM453.878 237.098C454.696 237.297 454.92 237.586 454.92 238.041C454.92 238.516 454.622 238.892 453.853 238.95V237.094L453.878 237.098Z" fill="var(--color-text-default)"/>
<path d="M456.97 235.428H457.689C457.689 234.721 458.165 234.254 458.88 234.254C459.583 234.254 460.009 234.725 460.009 235.358C460.009 235.883 459.785 236.193 459.025 237.016L457.007 239.198V239.711H460.869V239.041H458.041V238.975L459.397 237.574C460.472 236.462 460.769 235.965 460.769 235.279C460.769 234.312 459.971 233.605 458.93 233.605C457.789 233.605 456.97 234.366 456.97 235.428Z" fill="var(--color-text-default)"/>
<path d="M464.234 239.847C465.457 239.847 466.326 238.992 466.326 237.793C466.326 236.635 465.503 235.796 464.366 235.796C463.655 235.796 463.072 236.135 462.778 236.714H462.712C462.737 235.093 463.316 234.266 464.308 234.266C464.912 234.266 465.35 234.576 465.474 235.13H466.239C466.086 234.204 465.371 233.605 464.283 233.605C462.874 233.605 461.989 234.779 461.989 236.829C461.989 238.839 462.936 239.847 464.234 239.847ZM464.225 239.194C463.461 239.194 462.878 238.591 462.878 237.793C462.878 237.003 463.444 236.441 464.234 236.441C465.023 236.441 465.573 237.003 465.573 237.818C465.573 238.599 464.99 239.194 464.225 239.194Z" fill="var(--color-text-default)"/>
<path d="M468.777 236.962H469.517C470.356 236.962 470.873 237.392 470.873 238.082C470.873 238.752 470.315 239.202 469.529 239.202C468.761 239.202 468.223 238.801 468.157 238.173H467.438C467.491 239.186 468.326 239.852 469.538 239.852C470.724 239.852 471.638 239.103 471.638 238.103C471.638 237.272 471.125 236.747 470.352 236.623V236.557C470.964 236.379 471.411 235.903 471.415 235.184C471.419 234.349 470.741 233.605 469.563 233.605C468.355 233.605 467.615 234.32 467.541 235.292H468.264C468.326 234.622 468.794 234.254 469.513 234.254C470.232 234.254 470.658 234.709 470.658 235.267C470.658 235.887 470.17 236.325 469.484 236.325H468.777V236.962Z" fill="var(--color-text-default)"/>
<path d="M473.134 239.752C473.432 239.752 473.672 239.508 473.672 239.215C473.672 238.917 473.432 238.677 473.134 238.677C472.841 238.677 472.597 238.917 472.597 239.215C472.597 239.508 472.841 239.752 473.134 239.752Z" fill="var(--color-text-default)"/>
<path d="M476.768 239.852C477.988 239.852 478.819 239.008 478.819 237.78C478.819 236.598 477.992 235.812 476.992 235.812C476.396 235.812 475.954 235.994 475.665 236.354H475.598L475.784 234.411H478.513V233.745H475.201L474.858 237.156H475.557C475.793 236.714 476.239 236.453 476.806 236.453C477.558 236.453 478.075 236.995 478.075 237.801C478.075 238.636 477.558 239.198 476.777 239.198C476.074 239.198 475.561 238.773 475.495 238.136H474.763C474.829 239.157 475.64 239.852 476.768 239.852Z" fill="var(--color-text-default)"/>
<path d="M479.989 235.428H480.708C480.708 234.721 481.184 234.254 481.899 234.254C482.602 234.254 483.027 234.725 483.027 235.358C483.027 235.883 482.804 236.193 482.043 237.016L480.026 239.198V239.711H483.887V239.041H481.06V238.975L482.416 237.574C483.49 236.462 483.788 235.965 483.788 235.279C483.788 234.312 482.99 233.605 481.948 233.605C480.807 233.605 479.989 234.366 479.989 235.428Z" fill="var(--color-text-default)"/>
<path d="M597.896 83.6757H598.392V82.9604C599.368 82.886 600.178 82.3445 600.178 81.3481C600.178 80.48 599.583 80.0418 598.52 79.7854L598.392 79.7565V77.8755C598.95 77.9458 599.347 78.2724 599.401 78.8305H600.12C600.091 77.9168 599.347 77.3132 598.392 77.2264V76.5112H597.896V77.2306C596.916 77.3174 596.217 77.9044 596.217 78.7933C596.217 79.6077 596.771 80.0666 597.801 80.3146L597.896 80.3394V82.3114C597.181 82.2328 596.862 81.8401 596.788 81.3233H596.069C596.098 82.2866 596.912 82.8695 597.896 82.9563V83.6757ZM596.937 78.7437C596.937 78.3426 597.267 77.9623 597.896 77.8796V79.6366C597.185 79.463 596.937 79.1488 596.937 78.7437ZM598.417 80.4634C599.235 80.6619 599.459 80.9513 599.459 81.406C599.459 81.8814 599.161 82.2576 598.392 82.3155V80.4593L598.417 80.4634Z" fill="var(--color-text-default)"/>
<path d="M603.655 83.2126C604.878 83.2126 605.747 82.3569 605.747 81.158C605.747 80.0004 604.924 79.1612 603.787 79.1612C603.076 79.1612 602.493 79.5002 602.199 80.079H602.133C602.158 78.4584 602.737 77.6316 603.729 77.6316C604.333 77.6316 604.771 77.9416 604.895 78.4956H605.66C605.507 77.5696 604.792 76.9701 603.704 76.9701C602.295 76.9701 601.41 78.1442 601.41 80.1947C601.41 82.2039 602.357 83.2126 603.655 83.2126ZM603.646 82.5594C602.882 82.5594 602.299 81.9559 602.299 81.158C602.299 80.3684 602.865 79.8061 603.655 79.8061C604.444 79.8061 604.994 80.3684 604.994 81.1828C604.994 81.9641 604.411 82.5594 603.646 82.5594Z" fill="var(--color-text-default)"/>
<path d="M608.984 83.2168C610.249 83.2168 611.133 82.5016 611.133 81.4804C611.133 80.7032 610.641 80.0996 609.893 79.9591V79.8929C610.509 79.7234 610.889 79.2149 610.889 78.5618C610.889 77.6316 610.1 76.9701 608.984 76.9701C607.867 76.9701 607.078 77.6316 607.078 78.5618C607.078 79.2108 607.466 79.7276 608.074 79.8929V79.9591C607.326 80.0996 606.834 80.7032 606.834 81.4804C606.834 82.5016 607.719 83.2168 608.984 83.2168ZM608.984 79.6449C608.281 79.6449 607.809 79.2397 607.809 78.632C607.809 78.016 608.277 77.6068 608.984 77.6068C609.691 77.6068 610.158 78.016 610.158 78.632C610.158 79.2397 609.686 79.6449 608.984 79.6449ZM608.984 82.5801C608.157 82.5801 607.586 82.1088 607.586 81.4267C607.586 80.7446 608.157 80.2733 608.984 80.2733C609.81 80.2733 610.381 80.7446 610.381 81.4267C610.381 82.1088 609.81 82.5801 608.984 82.5801Z" fill="var(--color-text-default)"/>
<path d="M612.655 83.1175C612.952 83.1175 613.192 82.8736 613.192 82.5801C613.192 82.2825 612.952 82.0427 612.655 82.0427C612.361 82.0427 612.117 82.2825 612.117 82.5801C612.117 82.8736 612.361 83.1175 612.655 83.1175Z" fill="var(--color-text-default)"/>
<path d="M616.152 83.2126C617.611 83.2126 618.447 82.0385 618.447 79.988C618.447 77.9582 617.487 76.9701 616.202 76.9701C614.978 76.9701 614.11 77.8259 614.11 79.0248C614.11 80.1823 614.933 81.0215 616.069 81.0215C616.781 81.0215 617.363 80.6826 617.657 80.1038H617.723C617.682 81.6913 617.132 82.5512 616.16 82.5512C615.573 82.5512 615.119 82.2246 614.962 81.6871H614.197C614.383 82.6256 615.139 83.2126 616.152 83.2126ZM616.202 80.3766C615.412 80.3766 614.862 79.8144 614.862 79C614.862 78.2186 615.445 77.6233 616.21 77.6233C616.975 77.6233 617.558 78.2269 617.558 79.0248C617.558 79.8144 616.991 80.3766 616.202 80.3766Z" fill="var(--color-text-default)"/>
<path d="M619.608 78.7933H620.328C620.328 78.0863 620.803 77.6192 621.518 77.6192C622.221 77.6192 622.647 78.0905 622.647 78.723C622.647 79.248 622.424 79.5581 621.663 80.3808L619.645 82.5636V83.0762H623.507V82.4065H620.679V82.3403L622.035 80.9389C623.11 79.8268 623.408 79.3307 623.408 78.6444C623.408 77.6771 622.61 76.9701 621.568 76.9701C620.427 76.9701 619.608 77.7308 619.608 78.7933Z" fill="var(--color-text-default)"/>
<path d="M624.768 83.0762H625.479V80.3146C625.479 79.6862 625.929 79.1819 626.512 79.1819C627.074 79.1819 627.442 79.5209 627.442 80.05V83.0762H628.153V80.2113C628.153 79.6449 628.567 79.1819 629.187 79.1819C629.815 79.1819 630.125 79.5043 630.125 80.1617V83.0762H630.837V79.9963C630.837 79.062 630.328 78.5411 629.419 78.5411C628.803 78.5411 628.294 78.8511 628.054 79.3224H627.988C627.781 78.8594 627.36 78.5411 626.756 78.5411C626.161 78.5411 625.714 78.8263 625.512 79.3224H625.446V78.6196H624.768V83.0762Z" fill="var(--color-text-default)"/>
<path d="M597.896 167.133H598.392V166.417C599.368 166.343 600.178 165.801 600.178 164.805C600.178 163.937 599.583 163.499 598.52 163.242L598.392 163.214V161.333C598.95 161.403 599.347 161.729 599.401 162.288H600.12C600.091 161.374 599.347 160.77 598.392 160.683V159.968H597.896V160.688C596.916 160.774 596.217 161.361 596.217 162.25C596.217 163.065 596.771 163.524 597.801 163.772L597.896 163.796V165.768C597.181 165.69 596.862 165.297 596.788 164.78H596.069C596.098 165.744 596.912 166.327 597.896 166.413V167.133ZM596.937 162.201C596.937 161.8 597.267 161.419 597.896 161.337V163.094C597.185 162.92 596.937 162.606 596.937 162.201ZM598.417 163.92C599.235 164.119 599.459 164.408 599.459 164.863C599.459 165.338 599.161 165.715 598.392 165.773V163.916L598.417 163.92Z" fill="var(--color-text-default)"/>
<path d="M601.509 162.25H602.228C602.228 161.543 602.704 161.076 603.419 161.076C604.122 161.076 604.548 161.547 604.548 162.18C604.548 162.705 604.324 163.015 603.564 163.838L601.546 166.021V166.533H605.408V165.864H602.58V165.797L603.936 164.396C605.011 163.284 605.308 162.788 605.308 162.101C605.308 161.134 604.51 160.427 603.469 160.427C602.328 160.427 601.509 161.188 601.509 162.25Z" fill="var(--color-text-default)"/>
<path d="M609.265 166.533H609.992V165.297H610.84V164.632H609.992V160.568H608.913C608.078 161.812 607.165 163.267 606.358 164.619V165.297H609.265V166.533ZM607.119 164.586C607.768 163.491 608.549 162.259 609.219 161.258H609.269V164.636H607.119V164.586Z" fill="var(--color-text-default)"/>
<path d="M613.333 166.533H614.077V160.568H613.337L611.749 161.709V162.494L613.267 161.395H613.333V166.533Z" fill="var(--color-text-default)"/>
<path d="M616.243 166.575C616.541 166.575 616.781 166.331 616.781 166.037C616.781 165.739 616.541 165.5 616.243 165.5C615.95 165.5 615.706 165.739 615.706 166.037C615.706 166.331 615.95 166.575 616.243 166.575Z" fill="var(--color-text-default)"/>
<path d="M619.17 163.784H619.91C620.749 163.784 621.266 164.214 621.266 164.904C621.266 165.574 620.708 166.025 619.922 166.025C619.154 166.025 618.616 165.624 618.55 164.995H617.831C617.884 166.008 618.719 166.674 619.931 166.674C621.117 166.674 622.031 165.926 622.031 164.925C622.031 164.094 621.518 163.569 620.745 163.445V163.379C621.357 163.201 621.803 162.726 621.808 162.006C621.812 161.171 621.134 160.427 619.956 160.427C618.748 160.427 618.008 161.142 617.934 162.114H618.657C618.719 161.444 619.187 161.076 619.906 161.076C620.625 161.076 621.051 161.531 621.051 162.089C621.051 162.709 620.563 163.147 619.877 163.147H619.17V163.784Z" fill="var(--color-text-default)"/>
<path d="M625.21 166.674C626.43 166.674 627.26 165.83 627.26 164.603C627.26 163.42 626.434 162.635 625.433 162.635C624.838 162.635 624.396 162.817 624.106 163.176H624.04L624.226 161.233H626.955V160.568H623.643L623.3 163.978H623.999C624.234 163.536 624.681 163.276 625.247 163.276C626 163.276 626.516 163.817 626.516 164.623C626.516 165.458 626 166.021 625.218 166.021C624.515 166.021 624.003 165.595 623.937 164.958H623.205C623.271 165.979 624.081 166.674 625.21 166.674Z" fill="var(--color-text-default)"/>
<path d="M628.472 166.533H629.183V163.772C629.183 163.143 629.633 162.639 630.216 162.639C630.779 162.639 631.147 162.978 631.147 163.507V166.533H631.858V163.668C631.858 163.102 632.271 162.639 632.891 162.639C633.52 162.639 633.83 162.961 633.83 163.619V166.533H634.541V163.453C634.541 162.519 634.032 161.998 633.123 161.998C632.507 161.998 631.998 162.308 631.758 162.779H631.692C631.486 162.316 631.064 161.998 630.46 161.998C629.865 161.998 629.419 162.283 629.216 162.779H629.15V162.077H628.472V166.533Z" fill="var(--color-text-default)"/>
<path d="M597.896 240.914H598.392V240.199C599.368 240.124 600.178 239.583 600.178 238.586C600.178 237.718 599.583 237.28 598.52 237.024L598.392 236.995V235.114C598.95 235.184 599.347 235.511 599.401 236.069H600.12C600.091 235.155 599.347 234.552 598.392 234.465V233.75H597.896V234.469C596.916 234.556 596.217 235.143 596.217 236.032C596.217 236.846 596.771 237.305 597.801 237.553L597.896 237.578V239.55C597.181 239.471 596.862 239.078 596.788 238.562H596.069C596.098 239.525 596.912 240.108 597.896 240.195V240.914ZM596.937 235.982C596.937 235.581 597.267 235.201 597.896 235.118V236.875C597.185 236.701 596.937 236.387 596.937 235.982ZM598.417 237.702C599.235 237.9 599.459 238.19 599.459 238.644C599.459 239.12 599.161 239.496 598.392 239.554V237.698L598.417 237.702Z" fill="var(--color-text-default)"/>
<path d="M602.973 240.314H603.717V234.349H602.977L601.389 235.49V236.275L602.906 235.176H602.973V240.314Z" fill="var(--color-text-default)"/>
<path d="M607.607 240.451C608.831 240.451 609.699 239.595 609.699 238.396C609.699 237.239 608.876 236.399 607.739 236.399C607.028 236.399 606.445 236.738 606.152 237.317H606.086C606.11 235.697 606.689 234.87 607.681 234.87C608.285 234.87 608.723 235.18 608.847 235.734H609.612C609.459 234.808 608.744 234.208 607.657 234.208C606.247 234.208 605.362 235.382 605.362 237.433C605.362 239.442 606.309 240.451 607.607 240.451ZM607.599 239.798C606.834 239.798 606.251 239.194 606.251 238.396C606.251 237.607 606.817 237.044 607.607 237.044C608.397 237.044 608.946 237.607 608.946 238.421C608.946 239.202 608.363 239.798 607.599 239.798Z" fill="var(--color-text-default)"/>
<path d="M611.199 240.356C611.497 240.356 611.737 240.112 611.737 239.818C611.737 239.521 611.497 239.281 611.199 239.281C610.906 239.281 610.662 239.521 610.662 239.818C610.662 240.112 610.906 240.356 611.199 240.356Z" fill="var(--color-text-default)"/>
<path d="M614.259 240.314H615.003V234.349H614.263L612.675 235.49V236.275L614.193 235.176H614.259V240.314Z" fill="var(--color-text-default)"/>
<path d="M618.211 240.314H618.955V234.349H618.215L616.628 235.49V236.275L618.145 235.176H618.211V240.314Z" fill="var(--color-text-default)"/>
<path d="M620.741 240.314H621.452V237.553C621.452 236.925 621.903 236.42 622.486 236.42C623.048 236.42 623.416 236.759 623.416 237.288V240.314H624.127V237.45C624.127 236.883 624.54 236.42 625.16 236.42C625.789 236.42 626.099 236.743 626.099 237.4V240.314H626.81V237.235C626.81 236.3 626.301 235.779 625.392 235.779C624.776 235.779 624.267 236.089 624.028 236.561H623.961C623.755 236.098 623.333 235.779 622.73 235.779C622.134 235.779 621.688 236.065 621.485 236.561H621.419V235.858H620.741V240.314Z" fill="var(--color-text-default)"/>
<path d="M336.837 165.463C338.102 165.463 338.986 164.748 338.986 163.727C338.986 162.949 338.494 162.346 337.746 162.205V162.139C338.362 161.97 338.742 161.461 338.742 160.808C338.742 159.878 337.953 159.216 336.837 159.216C335.72 159.216 334.931 159.878 334.931 160.808C334.931 161.457 335.319 161.974 335.927 162.139V162.205C335.179 162.346 334.687 162.949 334.687 163.727C334.687 164.748 335.571 165.463 336.837 165.463ZM336.837 161.891C336.134 161.891 335.662 161.486 335.662 160.878C335.662 160.262 336.13 159.853 336.837 159.853C337.543 159.853 338.011 160.262 338.011 160.878C338.011 161.486 337.539 161.891 336.837 161.891ZM336.837 164.826C336.01 164.826 335.439 164.355 335.439 163.673C335.439 162.991 336.01 162.519 336.837 162.519C337.663 162.519 338.234 162.991 338.234 163.673C338.234 164.355 337.663 164.826 336.837 164.826Z" fill="var(--color-text-default)"/>
<path d="M341.458 162.573H342.198C343.038 162.573 343.554 163.003 343.554 163.693C343.554 164.363 342.996 164.814 342.211 164.814C341.442 164.814 340.905 164.413 340.838 163.784H340.119C340.173 164.797 341.008 165.463 342.219 165.463C343.406 165.463 344.319 164.715 344.319 163.714C344.319 162.883 343.807 162.358 343.034 162.234V162.168C343.645 161.99 344.092 161.515 344.096 160.795C344.1 159.96 343.422 159.216 342.244 159.216C341.037 159.216 340.297 159.931 340.222 160.903H340.946C341.008 160.233 341.475 159.865 342.194 159.865C342.914 159.865 343.34 160.32 343.34 160.878C343.34 161.498 342.852 161.936 342.165 161.936H341.458V162.573Z" fill="var(--color-text-default)"/>
<path d="M347.519 165.463C348.859 165.463 349.627 164.33 349.627 162.35C349.627 160.374 348.846 159.216 347.519 159.216C346.184 159.216 345.402 160.37 345.402 162.337C345.402 164.322 346.176 165.463 347.519 165.463ZM347.519 164.814C346.639 164.814 346.151 163.933 346.151 162.337C346.151 160.762 346.647 159.869 347.519 159.869C348.391 159.869 348.879 160.754 348.879 162.337C348.879 163.937 348.4 164.814 347.519 164.814Z" fill="var(--color-text-default)"/>
<path d="M351.108 165.364C351.405 165.364 351.645 165.12 351.645 164.826C351.645 164.529 351.405 164.289 351.108 164.289C350.814 164.289 350.57 164.529 350.57 164.826C350.57 165.12 350.814 165.364 351.108 165.364Z" fill="var(--color-text-default)"/>
<path d="M354.704 165.463C356.044 165.463 356.813 164.33 356.813 162.35C356.813 160.374 356.031 159.216 354.704 159.216C353.369 159.216 352.588 160.37 352.588 162.337C352.588 164.322 353.361 165.463 354.704 165.463ZM354.704 164.814C353.824 164.814 353.336 163.933 353.336 162.337C353.336 160.762 353.832 159.869 354.704 159.869C355.576 159.869 356.064 160.754 356.064 162.337C356.064 163.937 355.585 164.814 354.704 164.814Z" fill="var(--color-text-default)"/>
<path d="M357.995 161.039H358.714C358.714 160.332 359.19 159.865 359.905 159.865C360.608 159.865 361.034 160.337 361.034 160.969C361.034 161.494 360.81 161.804 360.05 162.627L358.032 164.81V165.322H361.893V164.653H359.066V164.586L360.422 163.185C361.497 162.073 361.794 161.577 361.794 160.891C361.794 159.923 360.996 159.216 359.955 159.216C358.813 159.216 357.995 159.977 357.995 161.039Z" fill="var(--color-text-default)"/>
<path d="M363.973 162.813H363.907V159.096H363.196V165.322H363.907V163.631L364.333 163.235L366.003 165.322H366.908L364.862 162.776L366.78 160.866H365.908L363.973 162.813Z" fill="var(--color-text-default)"/>
<path d="M336.907 239.845C338.131 239.845 338.999 238.99 338.999 237.791C338.999 236.633 338.176 235.794 337.039 235.794C336.328 235.794 335.745 236.133 335.452 236.712H335.385C335.41 235.091 335.989 234.264 336.981 234.264C337.585 234.264 338.023 234.574 338.147 235.128H338.912C338.759 234.202 338.044 233.603 336.956 233.603C335.547 233.603 334.662 234.777 334.662 236.827C334.662 238.837 335.609 239.845 336.907 239.845ZM336.899 239.192C336.134 239.192 335.551 238.589 335.551 237.791C335.551 237.001 336.117 236.439 336.907 236.439C337.696 236.439 338.246 237.001 338.246 237.815C338.246 238.597 337.663 239.192 336.899 239.192Z" fill="var(--color-text-default)"/>
<path d="M341.624 239.709H342.368V233.743H341.628L340.04 234.884V235.67L341.558 234.57H341.624V239.709Z" fill="var(--color-text-default)"/>
<path d="M344.534 239.75C344.832 239.75 345.072 239.506 345.072 239.213C345.072 238.915 344.832 238.675 344.534 238.675C344.241 238.675 343.997 238.915 343.997 239.213C343.997 239.506 344.241 239.75 344.534 239.75Z" fill="var(--color-text-default)"/>
<path d="M347.593 239.709H348.338V233.743H347.598L346.01 234.884V235.67L347.527 234.57H347.593V239.709Z" fill="var(--color-text-default)"/>
<path d="M351.372 236.96H352.112C352.951 236.96 353.468 237.39 353.468 238.08C353.468 238.75 352.91 239.2 352.124 239.2C351.356 239.2 350.818 238.799 350.752 238.171H350.033C350.086 239.184 350.921 239.849 352.133 239.849C353.319 239.849 354.233 239.101 354.233 238.101C354.233 237.27 353.72 236.745 352.947 236.621V236.555C353.559 236.377 354.006 235.901 354.01 235.182C354.014 234.347 353.336 233.603 352.158 233.603C350.95 233.603 350.21 234.318 350.136 235.29H350.859C350.921 234.62 351.389 234.252 352.108 234.252C352.827 234.252 353.253 234.707 353.253 235.265C353.253 235.885 352.765 236.323 352.079 236.323H351.372V236.96Z" fill="var(--color-text-default)"/>
<path d="M356.25 237.199H356.184V233.483H355.473V239.709H356.184V238.018L356.61 237.621L358.28 239.709H359.186L357.139 237.162L359.057 235.252H358.185L356.25 237.199Z" fill="var(--color-text-default)"/>
<path d="M453.357 165.926H453.853V165.21C454.829 165.136 455.639 164.594 455.639 163.598C455.639 162.73 455.044 162.292 453.981 162.035L453.853 162.007V160.125C454.411 160.196 454.808 160.522 454.862 161.08H455.581C455.552 160.167 454.808 159.563 453.853 159.476V158.761H453.357V159.481C452.377 159.567 451.678 160.154 451.678 161.043C451.678 161.858 452.232 162.317 453.262 162.565L453.357 162.589V164.561C452.642 164.483 452.323 164.09 452.249 163.573H451.53C451.558 164.537 452.373 165.119 453.357 165.206V165.926ZM452.398 160.994C452.398 160.593 452.728 160.212 453.357 160.13V161.887C452.646 161.713 452.398 161.399 452.398 160.994ZM453.878 162.713C454.696 162.912 454.92 163.201 454.92 163.656C454.92 164.131 454.622 164.508 453.853 164.566V162.709L453.878 162.713Z" fill="var(--color-text-default)"/>
<path d="M456.97 161.043H457.689C457.689 160.336 458.165 159.869 458.88 159.869C459.583 159.869 460.009 160.34 460.009 160.973C460.009 161.498 459.785 161.808 459.025 162.631L457.007 164.814V165.326H460.869V164.656H458.041V164.59L459.397 163.189C460.472 162.077 460.769 161.581 460.769 160.894C460.769 159.927 459.971 159.22 458.93 159.22C457.789 159.22 456.97 159.981 456.97 161.043Z" fill="var(--color-text-default)"/>
<path d="M464.031 165.463C465.49 165.463 466.326 164.289 466.326 162.238C466.326 160.208 465.366 159.22 464.081 159.22C462.857 159.22 461.989 160.076 461.989 161.275C461.989 162.432 462.812 163.272 463.948 163.272C464.66 163.272 465.242 162.933 465.536 162.354H465.602C465.561 163.941 465.011 164.801 464.039 164.801C463.452 164.801 462.998 164.475 462.84 163.937H462.076C462.262 164.876 463.018 165.463 464.031 165.463ZM464.081 162.627C463.291 162.627 462.741 162.064 462.741 161.25C462.741 160.469 463.324 159.873 464.089 159.873C464.854 159.873 465.437 160.477 465.437 161.275C465.437 162.064 464.87 162.627 464.081 162.627Z" fill="var(--color-text-default)"/>
<path d="M469.529 165.467C470.869 165.467 471.638 164.334 471.638 162.354C471.638 160.378 470.857 159.22 469.529 159.22C468.194 159.22 467.413 160.374 467.413 162.341C467.413 164.326 468.186 165.467 469.529 165.467ZM469.529 164.818C468.649 164.818 468.161 163.937 468.161 162.341C468.161 160.766 468.657 159.873 469.529 159.873C470.402 159.873 470.89 160.758 470.89 162.341C470.89 163.941 470.41 164.818 469.529 164.818Z" fill="var(--color-text-default)"/>
<path d="M473.118 165.368C473.416 165.368 473.655 165.124 473.655 164.83C473.655 164.532 473.416 164.293 473.118 164.293C472.824 164.293 472.58 164.532 472.58 164.83C472.58 165.124 472.824 165.368 473.118 165.368Z" fill="var(--color-text-default)"/>
<path d="M475.288 165.326H476.07L478.724 160.051V159.361H474.776V160.026H477.967V160.084L475.288 165.326Z" fill="var(--color-text-default)"/>
<path d="M480.282 165.326H481.064L483.718 160.051V159.361H479.77V160.026H482.961V160.084L480.282 165.326Z" fill="var(--color-text-default)"/>
<path d="M443.175 159.603L445.894 164.432C446.236 165.04 445.798 165.793 445.105 165.793H439.664C438.971 165.793 438.533 165.04 438.874 164.432L441.593 159.603C441.941 158.986 442.828 158.986 443.175 159.603Z" fill="var(--color-data-visualization-02)"/>
<path d="M57.7571 265.576C57.7571 267.58 56.1326 269.204 54.1286 269.204C52.1246 269.204 50.5 267.58 50.5 265.576C50.5 263.572 52.1246 261.947 54.1286 261.947C56.1326 261.947 57.7571 263.572 57.7571 265.576Z" fill="var(--color-data-visualization-01)"/>
<path d="M65.3951 263.108C63.9493 263.108 63.0493 264.139 63.0493 265.783C63.0493 267.42 63.9281 268.462 65.3951 268.462C66.855 268.462 67.7409 267.417 67.7409 265.783C67.7409 264.143 66.8479 263.108 65.3951 263.108ZM65.3951 263.696C66.4404 263.696 67.0854 264.504 67.0854 265.783C67.0854 267.052 66.444 267.874 65.3951 267.874C64.332 267.874 63.7048 267.052 63.7048 265.783C63.7048 264.504 64.3533 263.696 65.3951 263.696Z" fill="var(--color-text-default)"/>
<path d="M68.7685 268.342H69.378V265.975C69.378 265.436 69.7997 265.046 70.3808 265.046C70.5013 265.046 70.721 265.068 70.7706 265.082V264.472C70.6927 264.462 70.5651 264.454 70.4659 264.454C69.9592 264.454 69.5198 264.717 69.4064 265.089H69.3497V264.522H68.7685V268.342Z" fill="var(--color-text-default)"/>
<path d="M72.9995 269.809C74.0413 269.809 74.7004 269.263 74.7004 268.409V264.522H74.1193V265.128H74.0626C73.8429 264.717 73.3716 264.454 72.8365 264.454C71.855 264.454 71.2348 265.231 71.2348 266.375C71.2348 267.52 71.8479 268.285 72.8365 268.285C73.3609 268.285 73.7933 268.048 74.0342 267.626H74.0909V268.377C74.0909 268.941 73.6834 269.277 72.9995 269.277C72.4503 269.277 72.1101 269.075 72.0428 268.763H71.3978C71.49 269.394 72.0782 269.809 72.9995 269.809ZM72.9712 267.746C72.2625 267.746 71.8656 267.208 71.8656 266.375C71.8656 265.542 72.2625 265.004 72.9712 265.004C73.6763 265.004 74.1051 265.542 74.1051 266.375C74.1051 267.208 73.6799 267.746 72.9712 267.746Z" fill="var(--color-text-default)"/>
<path d="M76.9116 268.409C77.4218 268.409 77.84 268.186 78.088 267.778H78.1447V268.342H78.7258V265.727C78.7258 264.933 78.205 264.454 77.273 264.454C76.458 264.454 75.8556 264.858 75.7741 265.471H76.3907C76.4757 265.17 76.7946 264.997 77.2517 264.997C77.8223 264.997 78.1164 265.255 78.1164 265.727V266.074L77.0143 266.141C76.1249 266.194 75.6217 266.588 75.6217 267.272C75.6217 267.97 76.171 268.409 76.9116 268.409ZM77.025 267.874C76.582 267.874 76.2525 267.647 76.2525 267.257C76.2525 266.875 76.5076 266.673 77.0887 266.634L78.1164 266.566V266.917C78.1164 267.463 77.6522 267.874 77.025 267.874Z" fill="var(--color-text-default)"/>
<path d="M79.8527 268.342H80.4622V266.081C80.4622 265.411 80.8555 265.004 81.465 265.004C82.0745 265.004 82.3651 265.33 82.3651 266.017V268.342H82.9745V265.868C82.9745 264.961 82.4962 264.454 81.6386 264.454C81.0539 264.454 80.6819 264.703 80.4905 265.124H80.4338V264.522H79.8527V268.342Z" fill="var(--color-text-default)"/>
<path d="M84.4097 263.785C84.6435 263.785 84.8349 263.593 84.8349 263.36C84.8349 263.126 84.6435 262.934 84.4097 262.934C84.1758 262.934 83.9844 263.126 83.9844 263.36C83.9844 263.593 84.1758 263.785 84.4097 263.785ZM84.1049 268.342H84.7144V264.522H84.1049V268.342Z" fill="var(--color-text-default)"/>
<path d="M89.0375 265.691C88.9312 265.011 88.3642 264.454 87.4358 264.454C86.3657 264.454 85.6853 265.227 85.6853 266.418C85.6853 267.633 86.3692 268.409 87.4394 268.409C88.3572 268.409 88.9277 267.892 89.0375 267.19H88.4209C88.3075 267.622 87.9497 267.86 87.4358 267.86C86.7555 267.86 86.3161 267.3 86.3161 266.418C86.3161 265.553 86.7484 265.004 87.4358 265.004C87.9851 265.004 88.3217 265.312 88.4209 265.691H89.0375Z" fill="var(--color-text-default)"/>
<path d="M176.289 263.157C176.289 262.489 176.831 261.947 177.499 261.947H182.337C183.005 261.947 183.546 262.489 183.546 263.157V267.995C183.546 268.663 183.005 269.204 182.337 269.204H177.499C176.831 269.204 176.289 268.663 176.289 267.995V263.157Z" fill="var(--color-data-visualization-03)"/>
<path d="M189.037 263.228V268.342H189.675V266.517H190.961C191.921 266.517 192.605 265.84 192.605 264.883C192.605 263.909 191.935 263.228 190.968 263.228H189.037ZM189.675 263.795H190.801C191.542 263.795 191.95 264.182 191.95 264.883C191.95 265.56 191.528 265.95 190.801 265.95H189.675V263.795Z" fill="var(--color-text-default)"/>
<path d="M194.494 268.409C195.004 268.409 195.422 268.186 195.67 267.778H195.727V268.342H196.308V265.727C196.308 264.933 195.787 264.454 194.855 264.454C194.04 264.454 193.438 264.858 193.356 265.471H193.973C194.058 265.17 194.377 264.997 194.834 264.997C195.404 264.997 195.699 265.255 195.699 265.727V266.074L194.597 266.141C193.707 266.194 193.204 266.588 193.204 267.272C193.204 267.97 193.753 268.409 194.494 268.409ZM194.607 267.874C194.164 267.874 193.835 267.647 193.835 267.257C193.835 266.875 194.09 266.673 194.671 266.634L195.699 266.566V266.917C195.699 267.463 195.234 267.874 194.607 267.874Z" fill="var(--color-text-default)"/>
<path d="M197.754 263.785C197.988 263.785 198.179 263.593 198.179 263.36C198.179 263.126 197.988 262.934 197.754 262.934C197.52 262.934 197.329 263.126 197.329 263.36C197.329 263.593 197.52 263.785 197.754 263.785ZM197.449 268.342H198.059V264.522H197.449V268.342Z" fill="var(--color-text-default)"/>
<path d="M200.635 268.409C201.163 268.409 201.616 268.157 201.857 267.732H201.914V268.342H202.495V263.005H201.886V265.124H201.832C201.616 264.706 201.166 264.454 200.635 264.454C199.664 264.454 199.03 265.234 199.03 266.432C199.03 267.633 199.657 268.409 200.635 268.409ZM200.776 265.004C201.467 265.004 201.9 265.557 201.9 266.432C201.9 267.314 201.471 267.86 200.776 267.86C200.078 267.86 199.66 267.325 199.66 266.432C199.66 265.542 200.082 265.004 200.776 265.004Z" fill="var(--color-text-default)"/>
<path d="M208.817 264.522H208.207V266.783C208.207 267.452 207.839 267.853 207.165 267.853C206.556 267.853 206.301 267.534 206.301 266.846V264.522H205.691V266.995C205.691 267.899 206.138 268.409 206.995 268.409C207.58 268.409 207.988 268.168 208.179 267.743H208.236V268.342H208.817V264.522Z" fill="var(--color-text-default)"/>
<path d="M209.965 268.342H210.574V266.081C210.574 265.411 210.968 265.004 211.577 265.004C212.187 265.004 212.477 265.33 212.477 266.017V268.342H213.087V265.868C213.087 264.961 212.608 264.454 211.751 264.454C211.166 264.454 210.794 264.703 210.603 265.124H210.546V264.522H209.965V268.342Z" fill="var(--color-text-default)"/>
<path d="M215.266 268.409C215.776 268.409 216.194 268.186 216.442 267.778H216.499V268.342H217.08V265.727C217.08 264.933 216.559 264.454 215.627 264.454C214.812 264.454 214.21 264.858 214.128 265.471H214.745C214.83 265.17 215.149 264.997 215.606 264.997C216.177 264.997 216.471 265.255 216.471 265.727V266.074L215.369 266.141C214.479 266.194 213.976 266.588 213.976 267.272C213.976 267.97 214.525 268.409 215.266 268.409ZM215.379 267.874C214.936 267.874 214.607 267.647 214.607 267.257C214.607 266.875 214.862 266.673 215.443 266.634L216.471 266.566V266.917C216.471 267.463 216.007 267.874 215.379 267.874Z" fill="var(--color-text-default)"/>
<path d="M218.118 265.567C218.118 266.12 218.445 266.428 219.16 266.602L219.816 266.761C220.223 266.861 220.422 267.038 220.422 267.3C220.422 267.651 220.053 267.895 219.539 267.895C219.05 267.895 218.746 267.69 218.643 267.367H218.016C218.083 268.002 218.668 268.409 219.518 268.409C220.386 268.409 221.049 267.938 221.049 267.254C221.049 266.705 220.702 266.393 219.982 266.219L219.394 266.077C218.944 265.968 218.732 265.805 218.732 265.542C218.732 265.202 219.086 264.972 219.539 264.972C220 264.972 220.298 265.174 220.379 265.479H220.982C220.9 264.851 220.344 264.454 219.543 264.454C218.732 264.454 218.118 264.933 218.118 265.567Z" fill="var(--color-text-default)"/>
<path d="M221.846 265.567C221.846 266.12 222.172 266.428 222.888 266.602L223.544 266.761C223.951 266.861 224.15 267.038 224.15 267.3C224.15 267.651 223.781 267.895 223.267 267.895C222.778 267.895 222.473 267.69 222.371 267.367H221.744C221.811 268.002 222.396 268.409 223.246 268.409C224.114 268.409 224.777 267.938 224.777 267.254C224.777 266.705 224.43 266.393 223.71 266.219L223.122 266.077C222.672 265.968 222.459 265.805 222.459 265.542C222.459 265.202 222.814 264.972 223.267 264.972C223.728 264.972 224.026 265.174 224.107 265.479H224.709C224.628 264.851 224.072 264.454 223.271 264.454C222.459 264.454 221.846 264.933 221.846 265.567Z" fill="var(--color-text-default)"/>
<path d="M226.052 263.785C226.286 263.785 226.478 263.593 226.478 263.36C226.478 263.126 226.286 262.934 226.052 262.934C225.819 262.934 225.627 263.126 225.627 263.36C225.627 263.593 225.819 263.785 226.052 263.785ZM225.748 268.342H226.357V264.522H225.748V268.342Z" fill="var(--color-text-default)"/>
<path d="M227.431 265.567C227.431 266.12 227.757 266.428 228.473 266.602L229.128 266.761C229.536 266.861 229.734 267.038 229.734 267.3C229.734 267.651 229.366 267.895 228.852 267.895C228.363 267.895 228.058 267.69 227.955 267.367H227.328C227.395 268.002 227.98 268.409 228.831 268.409C229.699 268.409 230.361 267.938 230.361 267.254C230.361 266.705 230.014 266.393 229.295 266.219L228.707 266.077C228.257 265.968 228.044 265.805 228.044 265.542C228.044 265.202 228.398 264.972 228.852 264.972C229.313 264.972 229.61 265.174 229.692 265.479H230.294C230.213 264.851 229.656 264.454 228.855 264.454C228.044 264.454 227.431 264.933 227.431 265.567Z" fill="var(--color-text-default)"/>
<path d="M231.538 263.533V264.522H230.921V265.032H231.538V267.35C231.538 268.08 231.853 268.37 232.64 268.37C232.76 268.37 232.877 268.356 232.998 268.335V267.821C232.884 267.831 232.824 267.835 232.714 267.835C232.317 267.835 232.147 267.644 232.147 267.194V265.032H232.998V264.522H232.147V263.533H231.538Z" fill="var(--color-text-default)"/>
<path d="M236.392 267.353C236.233 267.69 235.9 267.87 235.407 267.87C234.759 267.87 234.337 267.392 234.305 266.637V266.609H237.052V266.375C237.052 265.188 236.424 264.454 235.393 264.454C234.344 264.454 233.671 265.234 233.671 266.435C233.671 267.644 234.334 268.409 235.393 268.409C236.229 268.409 236.825 268.005 237.002 267.353H236.392ZM235.386 264.993C235.992 264.993 236.396 265.44 236.41 266.116H234.305C234.351 265.44 234.777 264.993 235.386 264.993Z" fill="var(--color-text-default)"/>
<path d="M239.422 268.409C239.95 268.409 240.404 268.157 240.645 267.732H240.701V268.342H241.283V263.005H240.673V265.124H240.62C240.404 264.706 239.954 264.454 239.422 264.454C238.451 264.454 237.817 265.234 237.817 266.432C237.817 267.633 238.444 268.409 239.422 268.409ZM239.564 265.004C240.255 265.004 240.687 265.557 240.687 266.432C240.687 267.314 240.258 267.86 239.564 267.86C238.866 267.86 238.448 267.325 238.448 266.432C238.448 265.542 238.869 265.004 239.564 265.004Z" fill="var(--color-text-default)"/>
<path d="M117.07 263.228V268.342H117.708V266.517H118.994C119.954 266.517 120.638 265.84 120.638 264.883C120.638 263.909 119.969 263.228 119.001 263.228H117.07ZM117.708 263.795H118.835C119.575 263.795 119.983 264.182 119.983 264.883C119.983 265.56 119.561 265.95 118.835 265.95H117.708V263.795Z" fill="var(--color-text-default)"/>
<path d="M122.527 268.409C123.037 268.409 123.455 268.186 123.703 267.778H123.76V268.342H124.341V265.727C124.341 264.933 123.82 264.454 122.888 264.454C122.073 264.454 121.471 264.858 121.39 265.471H122.006C122.091 265.17 122.41 264.997 122.867 264.997C123.438 264.997 123.732 265.255 123.732 265.727V266.074L122.63 266.141C121.74 266.194 121.237 266.588 121.237 267.272C121.237 267.97 121.786 268.409 122.527 268.409ZM122.64 267.874C122.197 267.874 121.868 267.647 121.868 267.257C121.868 266.875 122.123 266.673 122.704 266.634L123.732 266.566V266.917C123.732 267.463 123.268 267.874 122.64 267.874Z" fill="var(--color-text-default)"/>
<path d="M125.787 263.785C126.021 263.785 126.212 263.593 126.212 263.36C126.212 263.126 126.021 262.934 125.787 262.934C125.553 262.934 125.362 263.126 125.362 263.36C125.362 263.593 125.553 263.785 125.787 263.785ZM125.482 268.342H126.092V264.522H125.482V268.342Z" fill="var(--color-text-default)"/>
<path d="M128.668 268.409C129.196 268.409 129.649 268.157 129.89 267.732H129.947V268.342H130.528V263.005H129.919V265.124H129.866C129.649 264.706 129.199 264.454 128.668 264.454C127.697 264.454 127.063 265.234 127.063 266.432C127.063 267.633 127.69 268.409 128.668 268.409ZM128.81 265.004C129.501 265.004 129.933 265.557 129.933 266.432C129.933 267.314 129.504 267.86 128.81 267.86C128.112 267.86 127.693 267.325 127.693 266.432C127.693 265.542 128.115 265.004 128.81 265.004Z" fill="var(--color-text-default)"/>
<path d="M134.823 268.409C135.333 268.409 135.751 268.186 135.999 267.778H136.056V268.342H136.637V265.727C136.637 264.933 136.116 264.454 135.184 264.454C134.369 264.454 133.767 264.858 133.686 265.471H134.302C134.387 265.17 134.706 264.997 135.163 264.997C135.734 264.997 136.028 265.255 136.028 265.727V266.074L134.926 266.141C134.036 266.194 133.533 266.588 133.533 267.272C133.533 267.97 134.082 268.409 134.823 268.409ZM134.936 267.874C134.493 267.874 134.164 267.647 134.164 267.257C134.164 266.875 134.419 266.673 135 266.634L136.028 266.566V266.917C136.028 267.463 135.564 267.874 134.936 267.874Z" fill="var(--color-text-default)"/>
<path d="M137.676 265.567C137.676 266.12 138.002 266.428 138.717 266.602L139.373 266.761C139.78 266.861 139.979 267.038 139.979 267.3C139.979 267.651 139.61 267.895 139.097 267.895C138.608 267.895 138.303 267.69 138.2 267.367H137.573C137.64 268.002 138.225 268.409 139.075 268.409C139.943 268.409 140.606 267.938 140.606 267.254C140.606 266.705 140.259 266.393 139.539 266.219L138.951 266.077C138.501 265.968 138.289 265.805 138.289 265.542C138.289 265.202 138.643 264.972 139.097 264.972C139.557 264.972 139.855 265.174 139.936 265.479H140.539C140.457 264.851 139.901 264.454 139.1 264.454C138.289 264.454 137.676 264.933 137.676 265.567Z" fill="var(--color-text-default)"/>
<path d="M141.403 265.567C141.403 266.12 141.729 266.428 142.445 266.602L143.101 266.761C143.508 266.861 143.707 267.038 143.707 267.3C143.707 267.651 143.338 267.895 142.824 267.895C142.335 267.895 142.031 267.69 141.928 267.367H141.301C141.368 268.002 141.953 268.409 142.803 268.409C143.671 268.409 144.334 267.938 144.334 267.254C144.334 266.705 143.987 266.393 143.267 266.219L142.679 266.077C142.229 265.968 142.016 265.805 142.016 265.542C142.016 265.202 142.371 264.972 142.824 264.972C143.285 264.972 143.583 265.174 143.664 265.479H144.267C144.185 264.851 143.629 264.454 142.828 264.454C142.016 264.454 141.403 264.933 141.403 265.567Z" fill="var(--color-text-default)"/>
<path d="M145.61 263.785C145.843 263.785 146.035 263.593 146.035 263.36C146.035 263.126 145.843 262.934 145.61 262.934C145.376 262.934 145.184 263.126 145.184 263.36C145.184 263.593 145.376 263.785 145.61 263.785ZM145.305 268.342H145.914V264.522H145.305V268.342Z" fill="var(--color-text-default)"/>
<path d="M146.988 265.567C146.988 266.12 147.314 266.428 148.03 266.602L148.685 266.761C149.093 266.861 149.291 267.038 149.291 267.3C149.291 267.651 148.923 267.895 148.409 267.895C147.92 267.895 147.615 267.69 147.512 267.367H146.885C146.953 268.002 147.537 268.409 148.388 268.409C149.256 268.409 149.918 267.938 149.918 267.254C149.918 266.705 149.571 266.393 148.852 266.219L148.264 266.077C147.814 265.968 147.601 265.805 147.601 265.542C147.601 265.202 147.955 264.972 148.409 264.972C148.87 264.972 149.167 265.174 149.249 265.479H149.851C149.77 264.851 149.213 264.454 148.412 264.454C147.601 264.454 146.988 264.933 146.988 265.567Z" fill="var(--color-text-default)"/>
<path d="M151.095 263.533V264.522H150.478V265.032H151.095V267.35C151.095 268.08 151.41 268.37 152.197 268.37C152.317 268.37 152.434 268.356 152.555 268.335V267.821C152.441 267.831 152.381 267.835 152.271 267.835C151.875 267.835 151.704 267.644 151.704 267.194V265.032H152.555V264.522H151.704V263.533H151.095Z" fill="var(--color-text-default)"/>
<path d="M155.95 267.353C155.79 267.69 155.457 267.87 154.964 267.87C154.316 267.87 153.894 267.392 153.862 266.637V266.609H156.609V266.375C156.609 265.188 155.981 264.454 154.95 264.454C153.901 264.454 153.228 265.234 153.228 266.435C153.228 267.644 153.891 268.409 154.95 268.409C155.787 268.409 156.382 268.005 156.559 267.353H155.95ZM154.943 264.993C155.549 264.993 155.953 265.44 155.967 266.116H153.862C153.908 265.44 154.334 264.993 154.943 264.993Z" fill="var(--color-text-default)"/>
<path d="M158.979 268.409C159.507 268.409 159.961 268.157 160.202 267.732H160.258V268.342H160.84V263.005H160.23V265.124H160.177C159.961 264.706 159.511 264.454 158.979 264.454C158.008 264.454 157.374 265.234 157.374 266.432C157.374 267.633 158.001 268.409 158.979 268.409ZM159.121 265.004C159.812 265.004 160.244 265.557 160.244 266.432C160.244 267.314 159.816 267.86 159.121 267.86C158.423 267.86 158.005 267.325 158.005 266.432C158.005 265.542 158.426 265.004 159.121 265.004Z" fill="var(--color-text-default)"/>
<path d="M108.742 262.41L111.461 267.239C111.803 267.847 111.364 268.6 110.671 268.6H105.23C104.538 268.6 104.099 267.847 104.441 267.239L107.16 262.41C107.508 261.793 108.394 261.793 108.742 262.41Z" fill="var(--color-data-visualization-02)"/>
<g clip-path="url(#clip0_428_3399)">
<path fill-rule="evenodd" clip-rule="evenodd" d="M334 402C334 404.49 334.27 406.91 334.77 409.23L303.43 415.68C302.49 411.25 302 406.68 302 402C302 375.04 318.17 351.89 341.27 341.65L353.65 371.17C342.01 376.59 334 388.38 334 402Z" fill="var(--color-data-visualization-02)"/>
<path fill-rule="evenodd" clip-rule="evenodd" d="M368 336V368C363.2 368 358.66 368.99 354.56 370.76L342.18 341.25C350.13 337.87 358.87 336 368 336Z" fill="var(--color-data-visualization-03)"/>
<path fill-rule="evenodd" clip-rule="evenodd" d="M434 402C434 438.45 404.45 468 368 468C336.57 468 310.31 446.05 303.64 416.66L335 410.21C338.66 425.02 352.06 436 368 436C386.78 436 402 420.78 402 402C402 383.22 387.32 368.54 369 368.01V336C404.99 336.53 434 365.88 434 401.99V402Z" fill="var(--color-data-visualization-01)"/>
</g>
<rect x="0.5" y="0.5" width="735" height="507.342" rx="7.5" stroke="var(--color-border-container)"/>
<defs>
<clipPath id="clip0_428_3399">
<rect width="132" height="132" fill="var(--color-background-default)" transform="translate(302 336)"/>
</clipPath>
</defs>
</svg>
