<svg viewBox="0 0 736 328" fill="none" xmlns="http://www.w3.org/2000/svg">
<path d="M62.9739 86.2686V85.6519C62.1303 85.5774 61.4321 85.0777 61.4073 84.2518H62.024C62.0878 84.6949 62.3607 85.0316 62.9739 85.0989V83.4083L62.8924 83.387C62.0098 83.1744 61.5349 82.7809 61.5349 82.0827C61.5349 81.3207 62.1339 80.8174 62.9739 80.7429V80.1262H63.3992V80.7394C64.2179 80.8138 64.8559 81.3313 64.8807 82.1146H64.264C64.2179 81.6361 63.8777 81.3561 63.3992 81.2959V82.9085L63.5091 82.9333C64.42 83.1531 64.9304 83.5288 64.9304 84.2731C64.9304 85.1273 64.2357 85.5916 63.3992 85.6554V86.2686H62.9739ZM62.1516 82.0402C62.1516 82.3875 62.3643 82.6569 62.9739 82.8058V81.2994C62.4351 81.3703 62.1516 81.6964 62.1516 82.0402ZM63.4205 83.5146L63.3992 83.5111V85.1025C64.0585 85.0529 64.3136 84.7303 64.3136 84.3227C64.3136 83.9328 64.1223 83.6847 63.4205 83.5146ZM67.3263 85.7546V81.349H67.2696L65.9689 82.2918V81.6184L67.3299 80.6402H67.9643V85.7546H67.3263ZM71.1932 85.8751C70.2256 85.8751 69.5309 85.2797 69.4742 84.4042H70.1015C70.1583 84.9501 70.5978 85.3151 71.2003 85.3151C71.8702 85.3151 72.3132 84.8331 72.3132 84.1172C72.3132 83.426 71.8702 82.9617 71.2251 82.9617C70.7395 82.9617 70.3567 83.185 70.1547 83.5642H69.5557L69.8499 80.6402H72.6889V81.2108H70.3497L70.1902 82.8766H70.2469C70.495 82.5683 70.8742 82.4123 71.3846 82.4123C72.2423 82.4123 72.9512 83.0858 72.9512 84.0994C72.9512 85.1521 72.2388 85.8751 71.1932 85.8751ZM74.6915 83.6032L76.3502 81.9338H77.0981L75.4535 83.5713L77.2079 85.7546H76.4317L74.9998 83.9647L74.6348 84.305V85.7546H74.0251V80.4169H74.6348V83.6032H74.6915Z" fill="var(--color-background-tertiary-base)"/>
<rect x="83.9375" y="82.0811" width="602" height="1" fill="var(--color-border-container)"/>
<path d="M57.3998 125.595V124.978C56.5563 124.904 55.858 124.404 55.8332 123.578H56.4499C56.5137 124.021 56.7866 124.358 57.3998 124.425V122.735L57.3183 122.713C56.4358 122.501 55.9608 122.107 55.9608 121.409C55.9608 120.647 56.5598 120.144 57.3998 120.069V119.453H57.8251V120.066C58.6439 120.14 59.2819 120.658 59.3067 121.441H58.69C58.6439 120.963 58.3036 120.683 57.8251 120.622V122.235L57.935 122.26C58.8459 122.48 59.3563 122.855 59.3563 123.6C59.3563 124.454 58.6616 124.918 57.8251 124.982V125.595H57.3998ZM56.5775 121.367C56.5775 121.714 56.7902 121.983 57.3998 122.132V120.626C56.8611 120.697 56.5775 121.023 56.5775 121.367ZM57.8464 122.841L57.8251 122.837V124.429C58.4844 124.379 58.7396 124.057 58.7396 123.649C58.7396 123.259 58.5482 123.011 57.8464 122.841ZM61.7523 125.081V120.675H61.6956L60.3948 121.618V120.945L61.7558 119.967H62.3902V125.081H61.7523ZM65.1406 125.081V120.675H65.0839L63.7832 121.618V120.945L65.1442 119.967H65.7786V125.081H65.1406ZM67.6359 125.116C67.3842 125.116 67.1751 124.907 67.1751 124.656C67.1751 124.401 67.3842 124.195 67.6359 124.195C67.8911 124.195 68.0966 124.401 68.0966 124.656C68.0966 124.907 67.8911 125.116 67.6359 125.116ZM70.808 125.198C69.6951 125.198 68.8835 124.333 68.8835 122.611C68.8835 120.853 69.642 119.846 70.8506 119.846C71.7827 119.846 72.3959 120.36 72.527 121.154H71.8713C71.765 120.679 71.3893 120.413 70.8718 120.413C70.0212 120.413 69.525 121.122 69.5037 122.511H69.5604C69.8121 122.015 70.3118 121.725 70.9215 121.725C71.8962 121.725 72.6015 122.444 72.6015 123.436C72.6015 124.464 71.8572 125.198 70.808 125.198ZM70.801 124.638C71.4567 124.638 71.9564 124.128 71.9564 123.458C71.9564 122.76 71.485 122.277 70.808 122.277C70.1311 122.277 69.6455 122.76 69.6455 123.436C69.6455 124.121 70.1453 124.638 70.801 124.638ZM74.3347 122.93L75.9934 121.26H76.7413L75.0967 122.898L76.8511 125.081H76.0749L74.643 123.291L74.2779 123.631V125.081H73.6683V119.743H74.2779V122.93H74.3347Z" fill="var(--color-background-tertiary-base)"/>
<rect x="83.9375" y="122.081" width="602" height="1" fill="var(--color-border-container)"/>
<path d="M61.0599 164.595V163.978C60.2164 163.904 59.5182 163.404 59.4933 162.578H60.1101C60.1739 163.021 60.4468 163.358 61.0599 163.425V161.735L60.9784 161.713C60.0959 161.501 59.6209 161.107 59.6209 160.409C59.6209 159.647 60.2199 159.144 61.0599 159.069V158.453H61.4853V159.066C62.304 159.14 62.942 159.658 62.9668 160.441H62.3501C62.304 159.963 61.9638 159.683 61.4853 159.622V161.235L61.5951 161.26C62.506 161.48 63.0164 161.855 63.0164 162.6C63.0164 163.454 62.3217 163.918 61.4853 163.982V164.595H61.0599ZM60.2377 160.367C60.2377 160.714 60.4503 160.983 61.0599 161.132V159.626C60.5212 159.697 60.2377 160.023 60.2377 160.367ZM61.5065 161.841L61.4853 161.837V163.429C62.1445 163.379 62.3997 163.057 62.3997 162.649C62.3997 162.259 62.2083 162.011 61.5065 161.841ZM64.4023 164.081L66.699 159.587V159.537H63.9628V158.967H67.3476V159.558L65.0721 164.081H64.4023ZM67.9501 164.116C67.6985 164.116 67.4894 163.907 67.4894 163.656C67.4894 163.401 67.6985 163.195 67.9501 163.195C68.2053 163.195 68.4109 163.401 68.4109 163.656C68.4109 163.907 68.2053 164.116 67.9501 164.116ZM71.0975 164.202C70.0129 164.202 69.2545 163.588 69.2545 162.713C69.2545 162.047 69.6762 161.529 70.3178 161.409V161.352C69.7967 161.21 69.4636 160.767 69.4636 160.211C69.4636 159.413 70.1405 158.846 71.0975 158.846C72.0545 158.846 72.7314 159.413 72.7314 160.211C72.7314 160.771 72.4054 161.207 71.8773 161.352V161.409C72.5188 161.529 72.9406 162.047 72.9406 162.713C72.9406 163.588 72.1821 164.202 71.0975 164.202ZM71.0975 161.139C71.7 161.139 72.1041 160.792 72.1041 160.271C72.1041 159.743 71.7036 159.392 71.0975 159.392C70.4914 159.392 70.0909 159.743 70.0909 160.271C70.0909 160.792 70.495 161.139 71.0975 161.139ZM71.0975 163.656C71.8064 163.656 72.2955 163.252 72.2955 162.667C72.2955 162.082 71.8064 161.678 71.0975 161.678C70.3886 161.678 69.8995 162.082 69.8995 162.667C69.8995 163.252 70.3886 163.656 71.0975 163.656ZM74.6915 161.93L76.3502 160.26H77.0981L75.4535 161.898L77.2079 164.081H76.4317L74.9998 162.291L74.6348 162.631V164.081H74.0251V158.743H74.6348V161.93H74.6915Z" fill="var(--color-background-tertiary-base)"/>
<rect x="83.9375" y="161.081" width="602" height="1" fill="var(--color-border-container)"/>
<path d="M59.6965 204.9V204.283C58.853 204.209 58.1548 203.709 58.13 202.883H58.7467C58.8105 203.326 59.0834 203.663 59.6965 203.73V202.039L59.615 202.018C58.7325 201.805 58.2575 201.412 58.2575 200.714C58.2575 199.952 58.8565 199.448 59.6965 199.374V198.757H60.1219V199.371C60.9406 199.445 61.5786 199.962 61.6034 200.746H60.9867C60.9406 200.267 60.6004 199.987 60.1219 199.927V201.54L60.2317 201.564C61.1426 201.784 61.653 202.16 61.653 202.904C61.653 203.758 60.9583 204.223 60.1219 204.287V204.9H59.6965ZM58.8743 200.671C58.8743 201.019 59.0869 201.288 59.6965 201.437V199.931C59.1578 200.001 58.8743 200.327 58.8743 200.671ZM60.1431 202.146L60.1219 202.142V203.734C60.7811 203.684 61.0363 203.361 61.0363 202.954C61.0363 202.564 60.8449 202.316 60.1431 202.146ZM63.9001 202.029V201.483H64.5062C65.0946 201.483 65.5128 201.107 65.5128 200.576C65.5128 200.097 65.1477 199.707 64.531 199.707C63.9143 199.707 63.5138 200.023 63.4606 200.597H62.8404C62.9042 199.764 63.5386 199.151 64.5736 199.151C65.5837 199.151 66.165 199.789 66.1614 200.505C66.1579 201.121 65.7751 201.529 65.2505 201.681V201.738C65.9133 201.844 66.3528 202.295 66.3528 203.007C66.3528 203.865 65.5695 204.506 64.5523 204.506C63.5138 204.506 62.7978 203.936 62.7518 203.067H63.3685C63.4252 203.606 63.886 203.95 64.5452 203.95C65.2186 203.95 65.6971 203.563 65.6971 202.989C65.6971 202.397 65.2541 202.029 64.5346 202.029H63.9001ZM67.6359 204.421C67.3842 204.421 67.1751 204.212 67.1751 203.96C67.1751 203.705 67.3842 203.5 67.6359 203.5C67.8911 203.5 68.0966 203.705 68.0966 203.96C68.0966 204.212 67.8911 204.421 67.6359 204.421ZM70.6344 204.503C69.766 204.503 69.1174 203.999 68.9579 203.195H69.6136C69.7483 203.656 70.1382 203.936 70.6415 203.936C71.4744 203.936 71.9458 203.198 71.9812 201.837H71.9245C71.6729 202.334 71.1731 202.624 70.5635 202.624C69.5888 202.624 68.8835 201.905 68.8835 200.912C68.8835 199.884 69.6278 199.151 70.6769 199.151C71.7792 199.151 72.6015 199.998 72.6015 201.738C72.6015 203.496 71.8855 204.503 70.6344 204.503ZM70.6769 202.071C71.3539 202.071 71.8394 201.589 71.8394 200.912C71.8394 200.228 71.3397 199.711 70.684 199.711C70.0283 199.711 69.5285 200.221 69.5285 200.891C69.5285 201.589 69.9999 202.071 70.6769 202.071ZM74.3347 202.234L75.9934 200.565H76.7413L75.0967 202.202L76.8511 204.386H76.0749L74.643 202.596L74.2779 202.936V204.386H73.6683V199.048H74.2779V202.234H74.3347Z" fill="var(--color-background-tertiary-base)"/>
<path d="M74.7174 245.506C73.5655 245.506 72.9027 244.528 72.9027 242.827C72.9027 241.14 73.5726 240.151 74.7174 240.151C75.8552 240.151 76.5251 241.143 76.5251 242.837C76.5251 244.535 75.8658 245.506 74.7174 245.506ZM74.7174 244.95C75.4724 244.95 75.8835 244.199 75.8835 242.827C75.8835 241.469 75.4653 240.711 74.7174 240.711C73.9696 240.711 73.5443 241.476 73.5443 242.827C73.5443 244.195 73.9625 244.95 74.7174 244.95Z" fill="var(--color-background-tertiary-base)"/>
<rect x="83.9375" y="201.081" width="602" height="1" fill="var(--color-border-container)"/>
<path d="M216.59 255.993L216.076 254.529H214.041L213.527 255.993H212.857L214.743 250.879H215.374L217.26 255.993H216.59ZM215.03 251.705L214.229 253.987H215.888L215.087 251.705H215.03ZM219.939 252.105C220.914 252.105 221.545 252.881 221.545 254.083C221.545 255.277 220.91 256.061 219.939 256.061C219.393 256.061 218.954 255.823 218.745 255.419H218.688V257.269H218.078V252.172H218.66V252.81H218.716C218.961 252.371 219.418 252.105 219.939 252.105ZM219.794 255.511C220.496 255.511 220.914 254.976 220.914 254.083C220.914 253.19 220.496 252.654 219.797 252.654C219.106 252.654 218.67 253.204 218.67 254.083C218.67 254.958 219.106 255.511 219.794 255.511ZM222.502 255.993V252.172H223.083V252.739H223.14C223.253 252.367 223.692 252.105 224.199 252.105C224.299 252.105 224.426 252.112 224.504 252.123V252.732C224.455 252.718 224.235 252.697 224.114 252.697C223.533 252.697 223.111 253.087 223.111 253.626V255.993H222.502ZM228.534 255.993V251.588H228.477L227.177 252.53V251.857L228.538 250.879H229.172V255.993H228.534ZM231.922 255.993V251.588H231.866L230.565 252.53V251.857L231.926 250.879H232.56V255.993H231.922Z" fill="var(--color-background-inverse-base)"/>
<path d="M269.362 255.993V251.588H269.306L268.005 252.53V251.857L269.366 250.879H270V255.993H269.362ZM271.496 252.321C271.496 251.41 272.198 250.758 273.176 250.758C274.069 250.758 274.753 251.364 274.753 252.194C274.753 252.782 274.498 253.207 273.577 254.161L272.414 255.362V255.419H274.838V255.993H271.528V255.554L273.258 253.682C273.91 252.977 274.101 252.711 274.101 252.261C274.101 251.719 273.736 251.315 273.134 251.315C272.52 251.315 272.113 251.715 272.113 252.321H271.496Z" fill="var(--color-background-inverse-base)"/>
<path d="M317.673 255.993V251.588H317.616L316.315 252.53V251.857L317.676 250.879H318.311V255.993H317.673ZM320.912 253.636V253.09H321.519C322.107 253.09 322.525 252.715 322.525 252.183C322.525 251.705 322.16 251.315 321.543 251.315C320.927 251.315 320.526 251.63 320.473 252.204H319.853C319.917 251.371 320.551 250.758 321.586 250.758C322.596 250.758 323.177 251.396 323.174 252.112C323.17 252.729 322.787 253.136 322.263 253.289V253.346C322.926 253.452 323.365 253.902 323.365 254.614C323.365 255.472 322.582 256.114 321.565 256.114C320.526 256.114 319.81 255.543 319.764 254.675H320.381C320.438 255.213 320.898 255.557 321.558 255.557C322.231 255.557 322.709 255.171 322.709 254.597C322.709 254.005 322.266 253.636 321.547 253.636H320.912Z" fill="var(--color-background-inverse-base)"/>
<path d="M366.005 255.993V251.588H365.948L364.647 252.53V251.857L366.008 250.879H366.643V255.993H366.005ZM370.506 255.993V254.933H368.014V254.352C368.705 253.193 369.489 251.946 370.205 250.879H371.13V254.363H371.856V254.933H371.13V255.993H370.506ZM368.666 254.324V254.366H370.51V251.471H370.467C369.893 252.328 369.223 253.385 368.666 254.324Z" fill="var(--color-background-inverse-base)"/>
<path d="M414.485 255.993V251.588H414.429L413.128 252.53V251.857L414.489 250.879H415.123V255.993H414.485ZM418.352 256.114C417.385 256.114 416.69 255.518 416.633 254.643H417.261C417.317 255.189 417.757 255.554 418.359 255.554C419.029 255.554 419.472 255.072 419.472 254.356C419.472 253.665 419.029 253.2 418.384 253.2C417.899 253.2 417.516 253.424 417.314 253.803H416.715L417.009 250.879H419.848V251.449H417.509L417.349 253.115H417.406C417.654 252.807 418.033 252.651 418.544 252.651C419.401 252.651 420.11 253.324 420.11 254.338C420.11 255.391 419.398 256.114 418.352 256.114Z" fill="var(--color-background-inverse-base)"/>
<path d="M462.81 255.993V251.588H462.753L461.453 252.53V251.857L462.814 250.879H463.448V255.993H462.81ZM466.783 256.11C465.67 256.11 464.859 255.245 464.859 253.523C464.859 251.765 465.617 250.758 466.826 250.758C467.758 250.758 468.371 251.272 468.502 252.066H467.846C467.74 251.591 467.364 251.325 466.847 251.325C465.996 251.325 465.5 252.034 465.479 253.424H465.536C465.787 252.927 466.287 252.637 466.897 252.637C467.871 252.637 468.577 253.356 468.577 254.349C468.577 255.376 467.832 256.11 466.783 256.11ZM466.776 255.55C467.432 255.55 467.932 255.04 467.932 254.37C467.932 253.672 467.46 253.19 466.783 253.19C466.106 253.19 465.621 253.672 465.621 254.349C465.621 255.033 466.12 255.55 466.776 255.55Z" fill="var(--color-background-inverse-base)"/>
<path d="M511.447 255.993V251.588H511.39L510.089 252.53V251.857L511.45 250.879H512.085V255.993H511.447ZM513.825 255.993L516.122 251.499V251.449H513.385V250.879H516.77V251.471L514.495 255.993H513.825Z" fill="var(--color-background-inverse-base)"/>
<rect x="83.9375" y="243.6" width="602" height="1" fill="var(--color-border-container)"/>
<path d="M53.9376 55.7271C52.1123 55.7271 50.7891 54.6402 50.7418 53.0925H52.3899C52.4904 53.8309 53.1224 54.3153 53.9435 54.3153C54.8828 54.3153 55.5326 53.6714 55.5326 52.744C55.5326 51.8283 54.8828 51.1845 53.9495 51.1845C53.2642 51.1845 52.7326 51.5034 52.4431 52.0174H50.8895L51.2794 47.014H56.7199V48.4317H52.6971L52.4904 50.83H52.5258C52.8802 50.257 53.5832 49.9085 54.4457 49.9085C56.0702 49.9085 57.2339 51.0781 57.2339 52.7026C57.2339 54.5043 55.8929 55.7271 53.9376 55.7271ZM61.5934 55.7271C59.4314 55.7271 58.1141 54.0199 58.1141 51.2613C58.1141 48.5085 59.4432 46.819 61.5934 46.819C63.7436 46.819 65.0669 48.5026 65.0669 51.2553C65.0669 54.0081 63.7555 55.7271 61.5934 55.7271ZM61.5934 54.2976C62.6449 54.2976 63.2533 53.2165 63.2533 51.2613C63.2533 49.3178 62.639 48.2486 61.5934 48.2486C60.5537 48.2486 59.9276 49.3237 59.9276 51.2613C59.9276 53.2165 60.5419 54.2976 61.5934 54.2976ZM69.5091 55.7271C67.4711 55.7271 66.0534 54.7052 66.0534 53.2284C66.0534 52.106 66.8804 51.279 68.0441 51.0545V51.0191C67.0399 50.7769 66.3605 50.0444 66.3605 49.1169C66.3605 47.7937 67.6601 46.8249 69.5091 46.8249C71.3581 46.8249 72.6517 47.7878 72.6517 49.1228C72.6517 50.0385 71.9783 50.771 70.98 51.0191V51.0545C72.1437 51.2849 72.9648 52.1119 72.9648 53.2343C72.9648 54.7111 71.5412 55.7271 69.5091 55.7271ZM69.5091 50.4815C70.3125 50.4815 70.8914 49.9971 70.8914 49.3001C70.8914 48.5971 70.3125 48.1127 69.5091 48.1127C68.6998 48.1127 68.1268 48.5971 68.1268 49.3001C68.1268 49.9971 68.6998 50.4815 69.5091 50.4815ZM69.5091 54.4275C70.4483 54.4275 71.0981 53.8722 71.0981 53.0984C71.0981 52.3305 70.4483 51.7811 69.5091 51.7811C68.5698 51.7811 67.9141 52.3364 67.9141 53.0984C67.9141 53.8722 68.5698 54.4275 69.5091 54.4275ZM82.1683 51.5625H80.5674C80.467 50.895 80.024 50.4224 79.3151 50.4224C78.4644 50.4224 77.9328 51.1431 77.9328 52.3659C77.9328 53.6123 78.4644 54.3212 79.321 54.3212C80.0121 54.3212 80.4611 53.9077 80.5674 53.2165H82.1742C82.0856 54.7111 80.9691 55.674 79.3033 55.674C77.3952 55.674 76.1843 54.4334 76.1843 52.3659C76.1843 50.3338 77.3952 49.0697 79.2915 49.0697C81.0046 49.0697 82.0915 50.1271 82.1683 51.5625ZM84.8856 55.6385C83.6805 55.6385 82.7649 54.8588 82.7649 53.7187C82.7649 52.5668 83.651 51.8992 85.2282 51.8047L86.8232 51.7102V51.2908C86.8232 50.7001 86.4097 50.3574 85.7599 50.3574C85.116 50.3574 84.7084 50.6764 84.6257 51.1431H83.0485C83.1134 49.9144 84.159 49.0697 85.8367 49.0697C87.4612 49.0697 88.5185 49.9085 88.5185 51.1845V55.5381H86.8527V54.5693H86.8173C86.4628 55.2427 85.6772 55.6385 84.8856 55.6385ZM85.4527 54.3921C86.2029 54.3921 86.8232 53.9018 86.8232 53.2165V52.7558L85.4881 52.8385C84.8443 52.8857 84.478 53.1752 84.478 53.6241C84.478 54.0967 84.8679 54.3921 85.4527 54.3921ZM89.635 55.5381V49.2055H91.3009V50.3515H91.3363C91.6021 49.5895 92.2815 49.0874 93.1439 49.0874C94.0595 49.0874 94.6975 49.56 94.9102 50.387H94.9456C95.2292 49.5895 95.9853 49.0874 96.9127 49.0874C98.1532 49.0874 98.9862 49.938 98.9862 51.214V55.5381H97.2612V51.6452C97.2612 50.9127 96.895 50.511 96.2275 50.511C95.5718 50.511 95.1406 50.9895 95.1406 51.6925V55.5381H93.4806V51.5921C93.4806 50.9127 93.0967 50.511 92.4587 50.511C91.803 50.511 91.3599 51.0072 91.3599 51.7161V55.5381H89.635ZM103.777 49.1051C105.384 49.1051 106.37 50.3279 106.37 52.3718C106.37 54.4098 105.39 55.6385 103.806 55.6385C102.885 55.6385 102.176 55.1896 101.839 54.4748H101.804V57.6056H100.079V49.2055H101.78V50.3102H101.816C102.158 49.5659 102.861 49.1051 103.777 49.1051ZM103.198 54.2503C104.06 54.2503 104.604 53.5237 104.604 52.3718C104.604 51.2258 104.06 50.4874 103.198 50.4874C102.353 50.4874 101.798 51.2376 101.798 52.3718C101.798 53.5178 102.353 54.2503 103.198 54.2503ZM109.141 55.6385C107.936 55.6385 107.02 54.8588 107.02 53.7187C107.02 52.5668 107.906 51.8992 109.483 51.8047L111.078 51.7102V51.2908C111.078 50.7001 110.665 50.3574 110.015 50.3574C109.371 50.3574 108.963 50.6764 108.881 51.1431H107.304C107.369 49.9144 108.414 49.0697 110.092 49.0697C111.716 49.0697 112.774 49.9085 112.774 51.1845V55.5381H111.108V54.5693H111.072C110.718 55.2427 109.932 55.6385 109.141 55.6385ZM109.708 54.3921C110.458 54.3921 111.078 53.9018 111.078 53.2165V52.7558L109.743 52.8385C109.099 52.8857 108.733 53.1752 108.733 53.6241C108.733 54.0967 109.123 54.3921 109.708 54.3921ZM114.776 48.349C114.274 48.349 113.878 47.9473 113.878 47.4629C113.878 46.9726 114.274 46.5768 114.776 46.5768C115.278 46.5768 115.674 46.9726 115.674 47.4629C115.674 47.9473 115.278 48.349 114.776 48.349ZM113.92 55.5381V49.2055H115.645V55.5381H113.92ZM119.691 57.9246C118.025 57.9246 116.897 57.1153 116.761 55.987H118.45C118.586 56.4242 119.083 56.7195 119.738 56.7195C120.63 56.7195 121.126 56.2292 121.126 55.4967V54.3862H121.091C120.796 55.0596 120.051 55.5204 119.136 55.5204C117.588 55.5204 116.566 54.3271 116.566 52.3482C116.566 50.3397 117.558 49.1051 119.165 49.1051C120.075 49.1051 120.79 49.5836 121.121 50.3102H121.15V49.2055H122.851V55.4495C122.851 56.9558 121.587 57.9246 119.691 57.9246ZM119.721 54.1912C120.583 54.1912 121.132 53.506 121.132 52.36C121.132 51.2199 120.583 50.4874 119.721 50.4874C118.87 50.4874 118.332 51.2081 118.332 52.36C118.332 53.5178 118.864 54.1912 119.721 54.1912ZM123.98 55.5381V49.2055H125.645V50.3338H125.681C126.018 49.5482 126.685 49.0874 127.66 49.0874C129.066 49.0874 129.857 49.9735 129.857 51.4562V55.5381H128.132V51.8165C128.132 50.9895 127.743 50.5169 126.969 50.5169C126.195 50.5169 125.705 51.084 125.705 51.9051V55.5381H123.98ZM130.844 51.0663C130.844 49.8612 131.884 49.0697 133.496 49.0697C135.121 49.0697 136.125 49.9026 136.16 51.1431H134.571C134.518 50.6292 134.134 50.2807 133.496 50.2807C132.9 50.2807 132.504 50.5524 132.504 50.9718C132.504 51.2967 132.74 51.5153 133.378 51.6511L134.459 51.8815C135.782 52.1592 136.326 52.679 136.326 53.6064C136.326 54.8528 135.186 55.674 133.555 55.674C131.807 55.674 130.797 54.8588 130.684 53.6123H132.368C132.474 54.1676 132.87 54.463 133.555 54.463C134.205 54.463 134.607 54.1971 134.607 53.7836C134.607 53.4469 134.388 53.2579 133.768 53.1161L132.687 52.8916C131.464 52.6317 130.844 52.0174 130.844 51.0663Z" fill="var(--color-background-inverse-base)"/>
<rect x="219.436" y="123.175" width="9.6784" height="14.5176" fill="var(--color-data-visualization-06)"/>
<rect x="219.436" y="138.297" width="9.6784" height="7.2588" fill="var(--color-data-visualization-05)"/>
<rect x="219.436" y="146.161" width="9.6784" height="39.3185" fill="var(--color-data-visualization-04)"/>
<rect x="219.436" y="186.084" width="9.6784" height="18.7519" fill="var(--color-data-visualization-03)"/>
<rect x="219.436" y="205.441" width="9.6784" height="18.7519" fill="var(--color-data-visualization-02)"/>
<rect x="219.436" y="224.798" width="9.6784" height="18.7519" fill="var(--color-data-visualization-01)"/>
<rect x="266.615" y="105.634" width="9.6784" height="14.5176" fill="var(--color-data-visualization-06)"/>
<rect x="266.615" y="120.756" width="9.6784" height="4.2343" fill="var(--color-data-visualization-05)"/>
<rect x="266.615" y="125.595" width="9.6784" height="53.8361" fill="var(--color-data-visualization-04)"/>
<rect x="266.615" y="180.037" width="9.6784" height="23.5911" fill="var(--color-data-visualization-03)"/>
<rect x="266.615" y="204.232" width="9.6784" height="13.9127" fill="var(--color-data-visualization-02)"/>
<rect x="266.615" y="218.75" width="9.6784" height="24.8009" fill="var(--color-data-visualization-01)"/>
<rect x="315.01" y="115.312" width="9.6784" height="17.5421" fill="var(--color-data-visualization-06)"/>
<rect x="315.01" y="133.458" width="9.6784" height="7.2588" fill="var(--color-data-visualization-05)"/>
<rect x="315.01" y="141.322" width="9.6784" height="55.6508" fill="var(--color-data-visualization-04)"/>
<rect x="315.01" y="197.578" width="9.6784" height="11.4931" fill="var(--color-data-visualization-03)"/>
<rect x="315.01" y="209.676" width="9.6784" height="14.5176" fill="var(--color-data-visualization-02)"/>
<rect x="315.01" y="224.798" width="9.6784" height="18.7519" fill="var(--color-data-visualization-01)"/>
<rect x="363.4" y="97.7686" width="9.6784" height="14.5176" fill="var(--color-data-visualization-06)"/>
<rect x="363.4" y="112.891" width="9.6784" height="12.098" fill="var(--color-data-visualization-05)"/>
<rect x="363.4" y="125.594" width="9.6784" height="49.6018" fill="var(--color-data-visualization-04)"/>
<rect x="363.4" y="175.801" width="9.6784" height="26.0107" fill="var(--color-data-visualization-03)"/>
<rect x="363.4" y="202.416" width="9.6784" height="18.7519" fill="var(--color-data-visualization-02)"/>
<rect x="363.4" y="221.773" width="9.6784" height="21.7764" fill="var(--color-data-visualization-01)"/>
<rect x="411.793" y="118.94" width="9.6784" height="10.2833" fill="var(--color-data-visualization-06)"/>
<rect x="411.793" y="129.829" width="9.6784" height="11.4931" fill="var(--color-data-visualization-05)"/>
<rect x="411.793" y="141.927" width="9.6784" height="45.3675" fill="var(--color-data-visualization-04)"/>
<rect x="411.793" y="187.899" width="9.6784" height="21.7764" fill="var(--color-data-visualization-03)"/>
<rect x="411.793" y="210.28" width="9.6784" height="13.9127" fill="var(--color-data-visualization-02)"/>
<rect x="411.793" y="224.798" width="9.6784" height="18.7519" fill="var(--color-data-visualization-01)"/>
<rect x="460.184" y="126.804" width="9.6784" height="14.5176" fill="var(--color-data-visualization-06)"/>
<rect x="460.184" y="141.926" width="9.6784" height="7.2588" fill="var(--color-data-visualization-05)"/>
<rect x="460.184" y="149.79" width="9.6784" height="39.3185" fill="var(--color-data-visualization-04)"/>
<rect x="460.184" y="189.713" width="9.6784" height="14.5176" fill="var(--color-data-visualization-03)"/>
<rect x="460.184" y="204.836" width="9.6784" height="10.2833" fill="var(--color-data-visualization-02)"/>
<rect x="460.184" y="215.724" width="9.6784" height="27.8254" fill="var(--color-data-visualization-01)"/>
<rect x="508.578" y="116.521" width="9.6784" height="18.147" fill="var(--color-data-visualization-06)"/>
<rect x="508.578" y="135.272" width="9.6784" height="7.2588" fill="var(--color-data-visualization-05)"/>
<rect x="508.578" y="143.136" width="9.6784" height="30.245" fill="var(--color-data-visualization-04)"/>
<rect x="508.578" y="173.986" width="9.6784" height="18.7519" fill="var(--color-data-visualization-03)"/>
<rect x="508.578" y="193.343" width="9.6784" height="13.9127" fill="var(--color-data-visualization-02)"/>
<rect x="508.578" y="207.86" width="9.6784" height="35.6891" fill="var(--color-data-visualization-01)"/>
<rect x="50.0625" y="273.799" width="9.32573" height="9.32573" rx="1.16572" fill="var(--color-data-visualization-01)"/>
<path d="M66.1901 281.462L65.6124 279.816H63.3254L62.7476 281.462H61.9946L64.1143 275.712H64.8235L66.9432 281.462H66.1901ZM64.437 276.641L63.5365 279.207H65.4012L64.5008 276.641H64.437ZM72.7086 277.167L71.5053 281.462H70.808L69.8478 278.139H69.7841L68.8278 281.462H68.1345L66.9312 277.167H67.6245L68.4692 280.601H68.533L69.4932 277.167H70.1506L71.1109 280.601H71.1746L72.0193 277.167H72.7086ZM74.7008 281.537C73.868 281.537 73.2505 281.043 73.2505 280.258C73.2505 279.489 73.8163 279.047 74.8163 278.987L76.0555 278.912V278.521C76.0555 277.991 75.7248 277.7 75.0833 277.7C74.5693 277.7 74.2107 277.896 74.1151 278.234H73.4218C73.5134 277.545 74.1908 277.091 75.1072 277.091C76.1551 277.091 76.7408 277.629 76.7408 278.521V281.462H76.0874V280.828H76.0236C75.7447 281.286 75.2745 281.537 74.7008 281.537ZM74.8283 280.936C75.5335 280.936 76.0555 280.474 76.0555 279.86V279.465L74.9 279.541C74.2466 279.585 73.9597 279.812 73.9597 280.242C73.9597 280.681 74.3302 280.936 74.8283 280.936ZM78.0078 281.462V277.167H78.6613V277.804H78.725C78.8525 277.386 79.3466 277.091 79.9163 277.091C80.0279 277.091 80.1713 277.099 80.259 277.111V277.796C80.2032 277.78 79.9562 277.756 79.8207 277.756C79.1673 277.756 78.6931 278.194 78.6931 278.8V281.462H78.0078ZM83.841 280.35H84.5263C84.3271 281.083 83.6577 281.537 82.7174 281.537C81.526 281.537 80.781 280.677 80.781 279.318C80.781 277.967 81.538 277.091 82.7174 277.091C83.8768 277.091 84.5821 277.916 84.5821 279.25V279.513H81.4942V279.545C81.53 280.394 82.0042 280.932 82.7333 280.932C83.2871 280.932 83.6617 280.729 83.841 280.35ZM82.7094 277.696C82.0241 277.696 81.546 278.198 81.4942 278.959H83.8609C83.8449 278.198 83.3907 277.696 82.7094 277.696ZM85.6578 281.462V277.167H86.3113V277.844H86.375C86.5902 277.37 87.0085 277.091 87.666 277.091C88.6302 277.091 89.1681 277.661 89.1681 278.681V281.462H88.4828V278.848C88.4828 278.075 88.156 277.708 87.4707 277.708C86.7854 277.708 86.3432 278.167 86.3432 278.92V281.462H85.6578ZM93.268 280.35H93.9533C93.7541 281.083 93.0847 281.537 92.1444 281.537C90.9531 281.537 90.208 280.677 90.208 279.318C90.208 277.967 90.965 277.091 92.1444 277.091C93.3039 277.091 94.0091 277.916 94.0091 279.25V279.513H90.9212V279.545C90.9571 280.394 91.4312 280.932 92.1604 280.932C92.7142 280.932 93.0887 280.729 93.268 280.35ZM92.1364 277.696C91.4511 277.696 90.973 278.198 90.9212 278.959H93.2879C93.272 278.198 92.8178 277.696 92.1364 277.696ZM94.9853 278.342C94.9853 277.629 95.6746 277.091 96.587 277.091C97.4875 277.091 98.113 277.537 98.2047 278.242H97.5273C97.4357 277.9 97.101 277.673 96.583 277.673C96.073 277.673 95.6746 277.932 95.6746 278.314C95.6746 278.609 95.9136 278.792 96.4197 278.916L97.0811 279.075C97.8899 279.27 98.2804 279.621 98.2804 280.238C98.2804 281.007 97.5353 281.537 96.5591 281.537C95.6029 281.537 94.9454 281.079 94.8697 280.366H95.575C95.6905 280.729 96.0332 280.96 96.583 280.96C97.1608 280.96 97.5751 280.685 97.5751 280.29C97.5751 279.995 97.352 279.796 96.8938 279.685L96.1567 279.505C95.3518 279.31 94.9853 278.963 94.9853 278.342ZM99.1769 278.342C99.1769 277.629 99.8662 277.091 100.779 277.091C101.679 277.091 102.305 277.537 102.396 278.242H101.719C101.627 277.9 101.293 277.673 100.775 277.673C100.265 277.673 99.8662 277.932 99.8662 278.314C99.8662 278.609 100.105 278.792 100.611 278.916L101.273 279.075C102.081 279.27 102.472 279.621 102.472 280.238C102.472 281.007 101.727 281.537 100.751 281.537C99.7944 281.537 99.137 281.079 99.0613 280.366H99.7665C99.8821 280.729 100.225 280.96 100.775 280.96C101.352 280.96 101.767 280.685 101.767 280.29C101.767 279.995 101.544 279.796 101.085 279.685L100.348 279.505C99.5434 279.31 99.1769 278.963 99.1769 278.342Z" fill="var(--color-background-inverse-base)"/>
<rect x="113.045" y="273.799" width="9.32573" height="9.32573" rx="1.16572" fill="var(--color-data-visualization-02)"/>
<path d="M127.751 281.597C126.189 281.597 125.213 280.442 125.213 278.589C125.213 276.732 126.185 275.577 127.747 275.577C128.958 275.577 129.902 276.338 130.074 277.445H129.344C129.153 276.704 128.54 276.238 127.747 276.238C126.643 276.238 125.95 277.147 125.95 278.589C125.95 280.031 126.643 280.936 127.751 280.936C128.551 280.936 129.161 280.525 129.344 279.86H130.074C129.882 280.916 128.974 281.597 127.751 281.597ZM132.954 281.537C131.731 281.537 130.974 280.693 130.974 279.314C130.974 277.932 131.731 277.091 132.954 277.091C134.177 277.091 134.934 277.932 134.934 279.314C134.934 280.693 134.177 281.537 132.954 281.537ZM132.954 280.92C133.767 280.92 134.225 280.33 134.225 279.314C134.225 278.294 133.767 277.708 132.954 277.708C132.141 277.708 131.683 278.294 131.683 279.314C131.683 280.33 132.141 280.92 132.954 280.92ZM136.01 281.462V277.167H136.664V277.844H136.727C136.943 277.37 137.361 277.091 138.018 277.091C138.983 277.091 139.52 277.661 139.52 278.681V281.462H138.835V278.848C138.835 278.075 138.508 277.708 137.823 277.708C137.138 277.708 136.696 278.167 136.696 278.92V281.462H136.01ZM140.676 278.342C140.676 277.629 141.365 277.091 142.278 277.091C143.178 277.091 143.804 277.537 143.895 278.242H143.218C143.126 277.9 142.792 277.673 142.274 277.673C141.764 277.673 141.365 277.932 141.365 278.314C141.365 278.609 141.604 278.792 142.11 278.916L142.772 279.075C143.581 279.27 143.971 279.621 143.971 280.238C143.971 281.007 143.226 281.537 142.25 281.537C141.294 281.537 140.636 281.079 140.56 280.366H141.266C141.381 280.729 141.724 280.96 142.274 280.96C142.851 280.96 143.266 280.685 143.266 280.29C143.266 279.995 143.043 279.796 142.584 279.685L141.847 279.505C141.043 279.31 140.676 278.963 140.676 278.342ZM145.405 276.338C145.142 276.338 144.927 276.123 144.927 275.86C144.927 275.597 145.142 275.382 145.405 275.382C145.668 275.382 145.884 275.597 145.884 275.86C145.884 276.123 145.668 276.338 145.405 276.338ZM145.063 281.462V277.167H145.748V281.462H145.063ZM148.645 281.537C147.545 281.537 146.84 280.665 146.84 279.314C146.84 277.967 147.553 277.091 148.645 277.091C149.242 277.091 149.748 277.374 149.991 277.844H150.051V275.461H150.737V281.462H150.083V280.776H150.019C149.748 281.254 149.238 281.537 148.645 281.537ZM148.804 277.708C148.023 277.708 147.549 278.314 147.549 279.314C147.549 280.318 148.019 280.92 148.804 280.92C149.585 280.92 150.067 280.306 150.067 279.314C150.067 278.33 149.581 277.708 148.804 277.708ZM154.912 280.35H155.597C155.398 281.083 154.729 281.537 153.789 281.537C152.597 281.537 151.852 280.677 151.852 279.318C151.852 277.967 152.609 277.091 153.789 277.091C154.948 277.091 155.653 277.916 155.653 279.25V279.513H152.565V279.545C152.601 280.394 153.075 280.932 153.805 280.932C154.358 280.932 154.733 280.729 154.912 280.35ZM153.781 277.696C153.095 277.696 152.617 278.198 152.565 278.959H154.932C154.916 278.198 154.462 277.696 153.781 277.696ZM156.729 281.462V277.167H157.382V277.804H157.446C157.574 277.386 158.068 277.091 158.638 277.091C158.749 277.091 158.893 277.099 158.98 277.111V277.796C158.924 277.78 158.677 277.756 158.542 277.756C157.888 277.756 157.414 278.194 157.414 278.8V281.462H156.729ZM161.032 281.537C160.199 281.537 159.582 281.043 159.582 280.258C159.582 279.489 160.148 279.047 161.148 278.987L162.387 278.912V278.521C162.387 277.991 162.056 277.7 161.415 277.7C160.901 277.7 160.542 277.896 160.446 278.234H159.753C159.845 277.545 160.522 277.091 161.439 277.091C162.486 277.091 163.072 277.629 163.072 278.521V281.462H162.419V280.828H162.355C162.076 281.286 161.606 281.537 161.032 281.537ZM161.16 280.936C161.865 280.936 162.387 280.474 162.387 279.86V279.465L161.231 279.541C160.578 279.585 160.291 279.812 160.291 280.242C160.291 280.681 160.662 280.936 161.16 280.936ZM164.626 276.055H165.311V277.167H166.268V277.74H165.311V280.171C165.311 280.677 165.503 280.892 165.949 280.892C166.072 280.892 166.14 280.888 166.268 280.876V281.454C166.132 281.478 166.001 281.494 165.865 281.494C164.981 281.494 164.626 281.167 164.626 280.346V277.74H163.933V277.167H164.626V276.055ZM167.662 276.338C167.399 276.338 167.184 276.123 167.184 275.86C167.184 275.597 167.399 275.382 167.662 275.382C167.925 275.382 168.14 275.597 168.14 275.86C168.14 276.123 167.925 276.338 167.662 276.338ZM167.32 281.462V277.167H168.005V281.462H167.32ZM171.077 281.537C169.854 281.537 169.097 280.693 169.097 279.314C169.097 277.932 169.854 277.091 171.077 277.091C172.3 277.091 173.057 277.932 173.057 279.314C173.057 280.693 172.3 281.537 171.077 281.537ZM171.077 280.92C171.89 280.92 172.348 280.33 172.348 279.314C172.348 278.294 171.89 277.708 171.077 277.708C170.264 277.708 169.806 278.294 169.806 279.314C169.806 280.33 170.264 280.92 171.077 280.92ZM174.133 281.462V277.167H174.786V277.844H174.85C175.065 277.37 175.484 277.091 176.141 277.091C177.105 277.091 177.643 277.661 177.643 278.681V281.462H176.958V278.848C176.958 278.075 176.631 277.708 175.946 277.708C175.26 277.708 174.818 278.167 174.818 278.92V281.462H174.133Z" fill="var(--color-background-inverse-base)"/>
<rect x="188.028" y="273.799" width="9.32573" height="9.32573" rx="1.16572" fill="var(--color-data-visualization-03)"/>
<path d="M202.734 281.597C201.172 281.597 200.195 280.442 200.195 278.589C200.195 276.732 201.168 275.577 202.73 275.577C203.941 275.577 204.885 276.338 205.056 277.445H204.327C204.136 276.704 203.522 276.238 202.73 276.238C201.626 276.238 200.933 277.147 200.933 278.589C200.933 280.031 201.626 280.936 202.734 280.936C203.534 280.936 204.144 280.525 204.327 279.86H205.056C204.865 280.916 203.957 281.597 202.734 281.597ZM207.367 281.537C206.535 281.537 205.917 281.043 205.917 280.258C205.917 279.489 206.483 279.047 207.483 278.987L208.722 278.912V278.521C208.722 277.991 208.391 277.7 207.75 277.7C207.236 277.7 206.877 277.896 206.782 278.234H206.088C206.18 277.545 206.857 277.091 207.774 277.091C208.822 277.091 209.407 277.629 209.407 278.521V281.462H208.754V280.828H208.69C208.411 281.286 207.941 281.537 207.367 281.537ZM207.495 280.936C208.2 280.936 208.722 280.474 208.722 279.86V279.465L207.567 279.541C206.913 279.585 206.626 279.812 206.626 280.242C206.626 280.681 206.997 280.936 207.495 280.936ZM210.961 276.055H211.647V277.167H212.603V277.74H211.647V280.171C211.647 280.677 211.838 280.892 212.284 280.892C212.408 280.892 212.475 280.888 212.603 280.876V281.454C212.467 281.478 212.336 281.494 212.2 281.494C211.316 281.494 210.961 281.167 210.961 280.346V277.74H210.268V277.167H210.961V276.055ZM214.834 281.537C214.001 281.537 213.384 281.043 213.384 280.258C213.384 279.489 213.95 279.047 214.95 278.987L216.189 278.912V278.521C216.189 277.991 215.858 277.7 215.217 277.7C214.703 277.7 214.344 277.896 214.248 278.234H213.555C213.647 277.545 214.324 277.091 215.24 277.091C216.288 277.091 216.874 277.629 216.874 278.521V281.462H216.221V280.828H216.157C215.878 281.286 215.408 281.537 214.834 281.537ZM214.962 280.936C215.667 280.936 216.189 280.474 216.189 279.86V279.465L215.033 279.541C214.38 279.585 214.093 279.812 214.093 280.242C214.093 280.681 214.464 280.936 214.962 280.936ZM218.181 281.462V275.461H218.866V281.462H218.181ZM221.962 281.537C220.739 281.537 219.982 280.693 219.982 279.314C219.982 277.932 220.739 277.091 221.962 277.091C223.185 277.091 223.942 277.932 223.942 279.314C223.942 280.693 223.185 281.537 221.962 281.537ZM221.962 280.92C222.775 280.92 223.233 280.33 223.233 279.314C223.233 278.294 222.775 277.708 221.962 277.708C221.149 277.708 220.691 278.294 220.691 279.314C220.691 280.33 221.149 280.92 221.962 280.92ZM226.787 283.111C225.751 283.111 225.09 282.645 224.986 281.936H225.711C225.787 282.286 226.17 282.514 226.787 282.514C227.556 282.514 228.014 282.135 228.014 281.502V280.657H227.951C227.68 281.131 227.194 281.398 226.604 281.398C225.492 281.398 224.803 280.537 224.803 279.25C224.803 277.963 225.5 277.091 226.604 277.091C227.206 277.091 227.736 277.386 227.983 277.848H228.046V277.167H228.7V281.537C228.7 282.498 227.959 283.111 226.787 283.111ZM226.755 280.792C227.552 280.792 228.03 280.187 228.03 279.25C228.03 278.314 227.548 277.708 226.755 277.708C225.958 277.708 225.512 278.314 225.512 279.25C225.512 280.187 225.958 280.792 226.755 280.792ZM232.194 278.342C232.194 277.629 232.883 277.091 233.796 277.091C234.696 277.091 235.322 277.537 235.413 278.242H234.736C234.644 277.9 234.31 277.673 233.792 277.673C233.282 277.673 232.883 277.932 232.883 278.314C232.883 278.609 233.122 278.792 233.628 278.916L234.29 279.075C235.099 279.27 235.489 279.621 235.489 280.238C235.489 281.007 234.744 281.537 233.768 281.537C232.812 281.537 232.154 281.079 232.078 280.366H232.784C232.899 280.729 233.242 280.96 233.792 280.96C234.37 280.96 234.784 280.685 234.784 280.29C234.784 279.995 234.561 279.796 234.103 279.685L233.365 279.505C232.561 279.31 232.194 278.963 232.194 278.342ZM237.76 281.537C236.927 281.537 236.31 281.043 236.31 280.258C236.31 279.489 236.876 279.047 237.876 278.987L239.115 278.912V278.521C239.115 277.991 238.784 277.7 238.143 277.7C237.629 277.7 237.27 277.896 237.175 278.234H236.481C236.573 277.545 237.25 277.091 238.167 277.091C239.215 277.091 239.8 277.629 239.8 278.521V281.462H239.147V280.828H239.083C238.804 281.286 238.334 281.537 237.76 281.537ZM237.888 280.936C238.593 280.936 239.115 280.474 239.115 279.86V279.465L237.959 279.541C237.306 279.585 237.019 279.812 237.019 280.242C237.019 280.681 237.39 280.936 237.888 280.936ZM241.107 281.462V275.461H241.792V281.462H241.107ZM245.968 280.35H246.653C246.454 281.083 245.785 281.537 244.844 281.537C243.653 281.537 242.908 280.677 242.908 279.318C242.908 277.967 243.665 277.091 244.844 277.091C246.004 277.091 246.709 277.916 246.709 279.25V279.513H243.621V279.545C243.657 280.394 244.131 280.932 244.86 280.932C245.414 280.932 245.789 280.729 245.968 280.35ZM244.836 277.696C244.151 277.696 243.673 278.198 243.621 278.959H245.988C245.972 278.198 245.518 277.696 244.836 277.696ZM247.685 278.342C247.685 277.629 248.375 277.091 249.287 277.091C250.188 277.091 250.813 277.537 250.905 278.242H250.227C250.136 277.9 249.801 277.673 249.283 277.673C248.773 277.673 248.375 277.932 248.375 278.314C248.375 278.609 248.614 278.792 249.12 278.916L249.781 279.075C250.59 279.27 250.98 279.621 250.98 280.238C250.98 281.007 250.235 281.537 249.259 281.537C248.303 281.537 247.645 281.079 247.57 280.366H248.275C248.391 280.729 248.733 280.96 249.283 280.96C249.861 280.96 250.275 280.685 250.275 280.29C250.275 279.995 250.052 279.796 249.594 279.685L248.857 279.505C248.052 279.31 247.685 278.963 247.685 278.342Z" fill="var(--color-background-inverse-base)"/>
<rect x="261.011" y="273.799" width="9.32573" height="9.32573" rx="1.16572" fill="var(--color-data-visualization-04)"/>
<path d="M275.716 281.597C274.155 281.597 273.178 280.442 273.178 278.589C273.178 276.732 274.151 275.577 275.712 275.577C276.924 275.577 277.868 276.338 278.039 277.445H277.31C277.119 276.704 276.505 276.238 275.712 276.238C274.609 276.238 273.915 277.147 273.915 278.589C273.915 280.031 274.609 280.936 275.716 280.936C276.517 280.936 277.127 280.525 277.31 279.86H278.039C277.848 280.916 276.94 281.597 275.716 281.597ZM280.92 281.537C279.697 281.537 278.94 280.693 278.94 279.314C278.94 277.932 279.697 277.091 280.92 277.091C282.143 277.091 282.9 277.932 282.9 279.314C282.9 280.693 282.143 281.537 280.92 281.537ZM280.92 280.92C281.733 280.92 282.191 280.33 282.191 279.314C282.191 278.294 281.733 277.708 280.92 277.708C280.107 277.708 279.649 278.294 279.649 279.314C279.649 280.33 280.107 280.92 280.92 280.92ZM283.976 281.462V277.167H284.629V277.844H284.693C284.908 277.37 285.327 277.091 285.984 277.091C286.948 277.091 287.486 277.661 287.486 278.681V281.462H286.801V278.848C286.801 278.075 286.474 277.708 285.789 277.708C285.104 277.708 284.661 278.167 284.661 278.92V281.462H283.976ZM292.088 277.167L290.498 281.462H289.797L288.207 277.167H288.941L290.116 280.705H290.18L291.355 277.167H292.088ZM295.69 280.35H296.375C296.176 281.083 295.507 281.537 294.567 281.537C293.375 281.537 292.63 280.677 292.63 279.318C292.63 277.967 293.387 277.091 294.567 277.091C295.726 277.091 296.431 277.916 296.431 279.25V279.513H293.343V279.545C293.379 280.394 293.853 280.932 294.582 280.932C295.136 280.932 295.511 280.729 295.69 280.35ZM294.559 277.696C293.873 277.696 293.395 278.198 293.343 278.959H295.71C295.694 278.198 295.24 277.696 294.559 277.696ZM297.507 281.462V277.167H298.16V277.804H298.224C298.352 277.386 298.846 277.091 299.416 277.091C299.527 277.091 299.671 277.099 299.758 277.111V277.796C299.702 277.78 299.455 277.756 299.32 277.756C298.666 277.756 298.192 278.194 298.192 278.8V281.462H297.507ZM300.436 278.342C300.436 277.629 301.125 277.091 302.037 277.091C302.938 277.091 303.563 277.537 303.655 278.242H302.978C302.886 277.9 302.551 277.673 302.033 277.673C301.523 277.673 301.125 277.932 301.125 278.314C301.125 278.609 301.364 278.792 301.87 278.916L302.531 279.075C303.34 279.27 303.731 279.621 303.731 280.238C303.731 281.007 302.986 281.537 302.009 281.537C301.053 281.537 300.396 281.079 300.32 280.366H301.025C301.141 280.729 301.483 280.96 302.033 280.96C302.611 280.96 303.025 280.685 303.025 280.29C303.025 279.995 302.802 279.796 302.344 279.685L301.607 279.505C300.802 279.31 300.436 278.963 300.436 278.342ZM305.165 276.338C304.902 276.338 304.687 276.123 304.687 275.86C304.687 275.597 304.902 275.382 305.165 275.382C305.428 275.382 305.643 275.597 305.643 275.86C305.643 276.123 305.428 276.338 305.165 276.338ZM304.822 281.462V277.167H305.508V281.462H304.822ZM308.58 281.537C307.356 281.537 306.599 280.693 306.599 279.314C306.599 277.932 307.356 277.091 308.58 277.091C309.803 277.091 310.56 277.932 310.56 279.314C310.56 280.693 309.803 281.537 308.58 281.537ZM308.58 280.92C309.392 280.92 309.851 280.33 309.851 279.314C309.851 278.294 309.392 277.708 308.58 277.708C307.767 277.708 307.309 278.294 307.309 279.314C307.309 280.33 307.767 280.92 308.58 280.92ZM311.636 281.462V277.167H312.289V277.844H312.353C312.568 277.37 312.986 277.091 313.644 277.091C314.608 277.091 315.146 277.661 315.146 278.681V281.462H314.461V278.848C314.461 278.075 314.134 277.708 313.449 277.708C312.763 277.708 312.321 278.167 312.321 278.92V281.462H311.636ZM316.301 278.342C316.301 277.629 316.991 277.091 317.903 277.091C318.804 277.091 319.429 277.537 319.521 278.242H318.843C318.752 277.9 318.417 277.673 317.899 277.673C317.389 277.673 316.991 277.932 316.991 278.314C316.991 278.609 317.23 278.792 317.736 278.916L318.397 279.075C319.206 279.27 319.596 279.621 319.596 280.238C319.596 281.007 318.851 281.537 317.875 281.537C316.919 281.537 316.261 281.079 316.186 280.366H316.891C317.007 280.729 317.349 280.96 317.899 280.96C318.477 280.96 318.891 280.685 318.891 280.29C318.891 279.995 318.668 279.796 318.21 279.685L317.473 279.505C316.668 279.31 316.301 278.963 316.301 278.342Z" fill="var(--color-background-inverse-base)"/>
<rect x="329.994" y="273.799" width="9.32573" height="9.32573" rx="1.16572" fill="var(--color-data-visualization-05)"/>
<path d="M344.755 281.462H344.046L341.926 275.712H342.679L344.369 280.533H344.432L346.122 275.712H346.875L344.755 281.462ZM348.154 276.338C347.891 276.338 347.676 276.123 347.676 275.86C347.676 275.597 347.891 275.382 348.154 275.382C348.417 275.382 348.632 275.597 348.632 275.86C348.632 276.123 348.417 276.338 348.154 276.338ZM347.811 281.462V277.167H348.496V281.462H347.811ZM351.393 281.537C350.293 281.537 349.588 280.665 349.588 279.314C349.588 277.967 350.301 277.091 351.393 277.091C351.991 277.091 352.497 277.374 352.74 277.844H352.8V275.461H353.485V281.462H352.831V280.776H352.768C352.497 281.254 351.987 281.537 351.393 281.537ZM351.552 277.708C350.772 277.708 350.297 278.314 350.297 279.314C350.297 280.318 350.768 280.92 351.552 280.92C352.333 280.92 352.816 280.306 352.816 279.314C352.816 278.33 352.329 277.708 351.552 277.708ZM357.661 280.35H358.346C358.147 281.083 357.477 281.537 356.537 281.537C355.346 281.537 354.601 280.677 354.601 279.318C354.601 277.967 355.358 277.091 356.537 277.091C357.696 277.091 358.402 277.916 358.402 279.25V279.513H355.314V279.545C355.35 280.394 355.824 280.932 356.553 280.932C357.107 280.932 357.481 280.729 357.661 280.35ZM356.529 277.696C355.844 277.696 355.366 278.198 355.314 278.959H357.68C357.664 278.198 357.21 277.696 356.529 277.696ZM361.242 281.537C360.019 281.537 359.262 280.693 359.262 279.314C359.262 277.932 360.019 277.091 361.242 277.091C362.466 277.091 363.223 277.932 363.223 279.314C363.223 280.693 362.466 281.537 361.242 281.537ZM361.242 280.92C362.055 280.92 362.513 280.33 362.513 279.314C362.513 278.294 362.055 277.708 361.242 277.708C360.43 277.708 359.971 278.294 359.971 279.314C359.971 280.33 360.43 280.92 361.242 280.92ZM370.108 277.167L368.518 281.462H367.817L366.227 277.167H366.96L368.135 280.705H368.199L369.375 277.167H370.108ZM371.383 276.338C371.12 276.338 370.905 276.123 370.905 275.86C370.905 275.597 371.12 275.382 371.383 275.382C371.646 275.382 371.861 275.597 371.861 275.86C371.861 276.123 371.646 276.338 371.383 276.338ZM371.04 281.462V277.167H371.725V281.462H371.04ZM375.877 280.35H376.562C376.363 281.083 375.694 281.537 374.754 281.537C373.562 281.537 372.817 280.677 372.817 279.318C372.817 277.967 373.574 277.091 374.754 277.091C375.913 277.091 376.618 277.916 376.618 279.25V279.513H373.53V279.545C373.566 280.394 374.04 280.932 374.769 280.932C375.323 280.932 375.698 280.729 375.877 280.35ZM374.746 277.696C374.06 277.696 373.582 278.198 373.53 278.959H375.897C375.881 278.198 375.427 277.696 374.746 277.696ZM383.097 277.167L381.894 281.462H381.196L380.236 278.139H380.172L379.216 281.462H378.523L377.319 277.167H378.013L378.857 280.601H378.921L379.881 277.167H380.539L381.499 280.601H381.563L382.408 277.167H383.097ZM383.794 278.342C383.794 277.629 384.483 277.091 385.396 277.091C386.296 277.091 386.922 277.537 387.013 278.242H386.336C386.244 277.9 385.91 277.673 385.392 277.673C384.882 277.673 384.483 277.932 384.483 278.314C384.483 278.609 384.722 278.792 385.228 278.916L385.89 279.075C386.699 279.27 387.089 279.621 387.089 280.238C387.089 281.007 386.344 281.537 385.368 281.537C384.412 281.537 383.754 281.079 383.679 280.366H384.384C384.499 280.729 384.842 280.96 385.392 280.96C385.97 280.96 386.384 280.685 386.384 280.29C386.384 279.995 386.161 279.796 385.703 279.685L384.965 279.505C384.161 279.31 383.794 278.963 383.794 278.342ZM390.787 279.071C390.787 277.637 391.153 276.473 391.918 275.461H392.5C391.934 276.186 391.492 277.724 391.492 279.071C391.492 280.426 391.93 281.96 392.5 282.685H391.918C391.153 281.673 390.787 280.509 390.787 279.071ZM395.986 281.597C394.424 281.597 393.448 280.442 393.448 278.589C393.448 276.732 394.42 275.577 395.982 275.577C397.194 275.577 398.138 276.338 398.309 277.445H397.58C397.389 276.704 396.775 276.238 395.982 276.238C394.879 276.238 394.185 277.147 394.185 278.589C394.185 280.031 394.879 280.936 395.986 280.936C396.787 280.936 397.397 280.525 397.58 279.86H398.309C398.118 280.916 397.209 281.597 395.986 281.597ZM399.512 275.712H401.684C402.772 275.712 403.525 276.477 403.525 277.573C403.525 278.649 402.756 279.41 401.676 279.41H400.23V281.462H399.512V275.712ZM400.23 276.35V278.772H401.497C402.313 278.772 402.788 278.334 402.788 277.573C402.788 276.784 402.329 276.35 401.497 276.35H400.23ZM407.071 281.462H406.362L404.242 275.712H404.995L406.684 280.533H406.748L408.437 275.712H409.191L407.071 281.462ZM411.617 279.075C411.617 280.509 411.25 281.673 410.485 282.685H409.904C410.47 281.96 410.912 280.422 410.912 279.075C410.912 277.72 410.474 276.186 409.904 275.461H410.485C411.25 276.473 411.617 277.637 411.617 279.075Z" fill="var(--color-background-inverse-base)"/>
<rect x="421.977" y="273.799" width="9.32573" height="9.32573" rx="1.16572" fill="var(--color-data-visualization-06)"/>
<path d="M437.559 276.923L436.236 281.462H435.559L433.993 275.712H434.742L435.885 280.386H435.933L437.22 275.712H437.945L439.232 280.386H439.28L440.424 275.712H441.173L439.607 281.462H438.929L437.607 276.923H437.559ZM444.623 280.35H445.308C445.109 281.083 444.44 281.537 443.499 281.537C442.308 281.537 441.563 280.677 441.563 279.318C441.563 277.967 442.32 277.091 443.499 277.091C444.659 277.091 445.364 277.916 445.364 279.25V279.513H442.276V279.545C442.312 280.394 442.786 280.932 443.515 280.932C444.069 280.932 444.444 280.729 444.623 280.35ZM443.492 277.696C442.806 277.696 442.328 278.198 442.276 278.959H444.643C444.627 278.198 444.173 277.696 443.492 277.696ZM448.576 281.537C447.978 281.537 447.468 281.254 447.197 280.776H447.133V281.462H446.48V275.461H447.165V277.844H447.229C447.464 277.382 447.986 277.091 448.576 277.091C449.667 277.091 450.377 277.963 450.377 279.314C450.377 280.657 449.663 281.537 448.576 281.537ZM448.416 277.708C447.635 277.708 447.149 278.322 447.149 279.314C447.149 280.306 447.635 280.92 448.416 280.92C449.201 280.92 449.667 280.318 449.667 279.314C449.667 278.31 449.201 277.708 448.416 277.708ZM453.656 278.342C453.656 277.629 454.345 277.091 455.257 277.091C456.158 277.091 456.783 277.537 456.875 278.242H456.198C456.106 277.9 455.771 277.673 455.253 277.673C454.743 277.673 454.345 277.932 454.345 278.314C454.345 278.609 454.584 278.792 455.09 278.916L455.751 279.075C456.56 279.27 456.951 279.621 456.951 280.238C456.951 281.007 456.206 281.537 455.23 281.537C454.273 281.537 453.616 281.079 453.54 280.366H454.245C454.361 280.729 454.704 280.96 455.253 280.96C455.831 280.96 456.246 280.685 456.246 280.29C456.246 279.995 456.022 279.796 455.564 279.685L454.827 279.505C454.022 279.31 453.656 278.963 453.656 278.342ZM460.871 280.35H461.557C461.357 281.083 460.688 281.537 459.748 281.537C458.556 281.537 457.811 280.677 457.811 279.318C457.811 277.967 458.568 277.091 459.748 277.091C460.907 277.091 461.612 277.916 461.612 279.25V279.513H458.525V279.545C458.56 280.394 459.035 280.932 459.764 280.932C460.318 280.932 460.692 280.729 460.871 280.35ZM459.74 277.696C459.055 277.696 458.576 278.198 458.525 278.959H460.891C460.875 278.198 460.421 277.696 459.74 277.696ZM462.589 278.342C462.589 277.629 463.278 277.091 464.19 277.091C465.091 277.091 465.716 277.537 465.808 278.242H465.131C465.039 277.9 464.704 277.673 464.186 277.673C463.676 277.673 463.278 277.932 463.278 278.314C463.278 278.609 463.517 278.792 464.023 278.916L464.684 279.075C465.493 279.27 465.884 279.621 465.884 280.238C465.884 281.007 465.139 281.537 464.163 281.537C463.206 281.537 462.549 281.079 462.473 280.366H463.178C463.294 280.729 463.637 280.96 464.186 280.96C464.764 280.96 465.179 280.685 465.179 280.29C465.179 279.995 464.955 279.796 464.497 279.685L463.76 279.505C462.955 279.31 462.589 278.963 462.589 278.342ZM466.78 278.342C466.78 277.629 467.47 277.091 468.382 277.091C469.282 277.091 469.908 277.537 470 278.242H469.322C469.231 277.9 468.896 277.673 468.378 277.673C467.868 277.673 467.47 277.932 467.47 278.314C467.47 278.609 467.709 278.792 468.215 278.916L468.876 279.075C469.685 279.27 470.075 279.621 470.075 280.238C470.075 281.007 469.33 281.537 468.354 281.537C467.398 281.537 466.74 281.079 466.665 280.366H467.37C467.485 280.729 467.828 280.96 468.378 280.96C468.956 280.96 469.37 280.685 469.37 280.29C469.37 279.995 469.147 279.796 468.689 279.685L467.952 279.505C467.147 279.31 466.78 278.963 466.78 278.342ZM471.51 276.338C471.247 276.338 471.032 276.123 471.032 275.86C471.032 275.597 471.247 275.382 471.51 275.382C471.773 275.382 471.988 275.597 471.988 275.86C471.988 276.123 471.773 276.338 471.51 276.338ZM471.167 281.462V277.167H471.852V281.462H471.167ZM474.924 281.537C473.701 281.537 472.944 280.693 472.944 279.314C472.944 277.932 473.701 277.091 474.924 277.091C476.148 277.091 476.905 277.932 476.905 279.314C476.905 280.693 476.148 281.537 474.924 281.537ZM474.924 280.92C475.737 280.92 476.195 280.33 476.195 279.314C476.195 278.294 475.737 277.708 474.924 277.708C474.112 277.708 473.653 278.294 473.653 279.314C473.653 280.33 474.112 280.92 474.924 280.92ZM477.98 281.462V277.167H478.634V277.844H478.698C478.913 277.37 479.331 277.091 479.988 277.091C480.953 277.091 481.491 277.661 481.491 278.681V281.462H480.805V278.848C480.805 278.075 480.479 277.708 479.793 277.708C479.108 277.708 478.666 278.167 478.666 278.92V281.462H477.98ZM482.646 278.342C482.646 277.629 483.335 277.091 484.248 277.091C485.148 277.091 485.774 277.537 485.865 278.242H485.188C485.096 277.9 484.762 277.673 484.244 277.673C483.734 277.673 483.335 277.932 483.335 278.314C483.335 278.609 483.574 278.792 484.08 278.916L484.742 279.075C485.551 279.27 485.941 279.621 485.941 280.238C485.941 281.007 485.196 281.537 484.22 281.537C483.264 281.537 482.606 281.079 482.531 280.366H483.236C483.351 280.729 483.694 280.96 484.244 280.96C484.822 280.96 485.236 280.685 485.236 280.29C485.236 279.995 485.013 279.796 484.555 279.685L483.817 279.505C483.013 279.31 482.646 278.963 482.646 278.342Z" fill="var(--color-background-inverse-base)"/>
<rect x="0.5" y="0.5" width="735" height="327" rx="7.5" stroke="var(--color-border-container)"/>
</svg>
