<svg viewBox="0 0 736 324" fill="none" xmlns="http://www.w3.org/2000/svg">
<path d="M65.9808 110.196V105.793H65.9241L64.6244 106.736V106.063L65.9843 105.085H66.6183V110.196H65.9808Z" fill="var(--color-background-tertiary-base)"/>
<path d="M68.8495 108.046L70.5069 106.378H71.2542L69.6109 108.014L71.364 110.196H70.5884L69.1576 108.407L68.7928 108.747V110.196H68.1836V104.862H68.7928V108.046H68.8495Z" fill="var(--color-background-tertiary-base)"/>
<rect x="77.149" y="107.569" width="608.476" height="0.686947" fill="var(--color-border-container)"/>
<path d="M59.4962 149.735L61.7912 145.245V145.195H59.0571V144.625H62.4393V145.216L60.1656 149.735H59.4962Z" fill="var(--color-background-tertiary-base)"/>
<path d="M65.0494 149.856C64.0825 149.856 63.3884 149.261 63.3317 148.386H63.9586C64.0152 148.931 64.4544 149.296 65.0565 149.296C65.7258 149.296 66.1685 148.814 66.1685 148.099C66.1685 147.408 65.7258 146.945 65.0813 146.945C64.5961 146.945 64.2136 147.168 64.0117 147.547H63.4132L63.7071 144.625H66.5439V145.195H64.2065L64.0471 146.86H64.1038C64.3517 146.551 64.7306 146.396 65.2406 146.396C66.0977 146.396 66.806 147.068 66.806 148.081C66.806 149.133 66.0941 149.856 65.0494 149.856Z" fill="var(--color-background-tertiary-base)"/>
<path d="M69.5578 149.856C68.4068 149.856 67.7445 148.878 67.7445 147.178C67.7445 145.492 68.4138 144.504 69.5578 144.504C70.6946 144.504 71.364 145.496 71.364 147.189C71.364 148.885 70.7052 149.856 69.5578 149.856ZM69.5578 149.3C70.3121 149.3 70.7229 148.549 70.7229 147.178C70.7229 145.822 70.305 145.064 69.5578 145.064C68.8105 145.064 68.3855 145.829 68.3855 147.178C68.3855 148.545 68.8034 149.3 69.5578 149.3Z" fill="var(--color-background-tertiary-base)"/>
<rect x="77.149" y="147.41" width="608.476" height="0.686947" fill="var(--color-border-container)"/>
<path d="M60.4808 189.314C59.5139 189.314 58.8198 188.719 58.7631 187.844H59.39C59.4466 188.39 59.8858 188.755 60.4879 188.755C61.1572 188.755 61.5999 188.273 61.5999 187.558C61.5999 186.867 61.1572 186.403 60.5127 186.403C60.0275 186.403 59.645 186.626 59.4431 187.005H58.8446L59.1385 184.083H61.9753V184.653H59.6379L59.4785 186.318H59.5352C59.7831 186.01 60.162 185.854 60.672 185.854C61.5291 185.854 62.2374 186.527 62.2374 187.54C62.2374 188.592 61.5255 189.314 60.4808 189.314Z" fill="var(--color-background-tertiary-base)"/>
<path d="M64.9892 189.314C63.8382 189.314 63.1759 188.337 63.1759 186.637C63.1759 184.951 63.8453 183.963 64.9892 183.963C66.126 183.963 66.7954 184.955 66.7954 186.647C66.7954 188.344 66.1366 189.314 64.9892 189.314ZM64.9892 188.758C65.7435 188.758 66.1543 188.007 66.1543 186.637C66.1543 185.28 65.7364 184.522 64.9892 184.522C64.2419 184.522 63.8169 185.287 63.8169 186.637C63.8169 188.004 64.2348 188.758 64.9892 188.758Z" fill="var(--color-background-tertiary-base)"/>
<path d="M69.5578 189.314C68.4068 189.314 67.7445 188.337 67.7445 186.637C67.7445 184.951 68.4139 183.963 69.5578 183.963C70.6946 183.963 71.364 184.955 71.364 186.647C71.364 188.344 70.7052 189.314 69.5578 189.314ZM69.5578 188.758C70.3121 188.758 70.7229 188.007 70.7229 186.637C70.7229 185.28 70.305 184.522 69.5578 184.522C68.8105 184.522 68.3855 185.287 68.3855 186.637C68.3855 188.004 68.8034 188.758 69.5578 188.758Z" fill="var(--color-background-tertiary-base)"/>
<rect x="77.149" y="186.567" width="608.476" height="0.686947" fill="var(--color-border-container)"/>
<path d="M58.9331 225.064C58.9331 224.154 59.6343 223.502 60.6118 223.502C61.5043 223.502 62.1878 224.108 62.1878 224.937C62.1878 225.525 61.9328 225.95 61.012 226.902L59.8504 228.103V228.16H62.2728V228.733H58.965V228.294L60.6933 226.424C61.3449 225.719 61.5362 225.454 61.5362 225.004C61.5362 224.462 61.1714 224.058 60.5693 224.058C59.9566 224.058 59.5494 224.459 59.5494 225.064H58.9331Z" fill="var(--color-background-tertiary-base)"/>
<path d="M65.0494 228.854C64.0825 228.854 63.3884 228.259 63.3317 227.384H63.9586C64.0152 227.929 64.4544 228.294 65.0565 228.294C65.7258 228.294 66.1685 227.813 66.1685 227.097C66.1685 226.407 65.7258 225.943 65.0813 225.943C64.5961 225.943 64.2136 226.166 64.0117 226.545H63.4132L63.7071 223.623H66.5439V224.193H64.2065L64.0471 225.858H64.1038C64.3517 225.549 64.7306 225.394 65.2406 225.394C66.0977 225.394 66.806 226.067 66.806 227.079C66.806 228.131 66.0941 228.854 65.0494 228.854Z" fill="var(--color-background-tertiary-base)"/>
<path d="M69.5578 228.854C68.4068 228.854 67.7445 227.876 67.7445 226.176C67.7445 224.491 68.4138 223.502 69.5578 223.502C70.6946 223.502 71.364 224.494 71.364 226.187C71.364 227.883 70.7052 228.854 69.5578 228.854ZM69.5578 228.298C70.3121 228.298 70.7229 227.547 70.7229 226.176C70.7229 224.82 70.305 224.062 69.5578 224.062C68.8105 224.062 68.3855 224.827 68.3855 226.176C68.3855 227.543 68.8034 228.298 69.5578 228.298Z" fill="var(--color-background-tertiary-base)"/>
<path d="M69.5578 271.854C68.4068 271.854 67.7445 270.876 67.7445 269.176C67.7445 267.491 68.4138 266.502 69.5578 266.502C70.6946 266.502 71.364 267.494 71.364 269.187C71.364 270.883 70.7052 271.854 69.5578 271.854ZM69.5578 271.298C70.3121 271.298 70.7229 270.547 70.7229 269.176C70.7229 267.82 70.305 267.062 69.5578 267.062C68.8105 267.062 68.3855 267.827 68.3855 269.176C68.3855 270.543 68.8034 271.298 69.5578 271.298Z" fill="var(--color-background-tertiary-base)"/>
<rect x="77.149" y="226.409" width="608.476" height="0.686947" fill="var(--color-border-container)"/>
<path d="M112.03 280.114H112.664C112.678 280.542 113.004 280.84 113.486 280.84C114.031 280.84 114.339 280.507 114.339 279.88V276.197H114.977V279.883C114.977 280.857 114.414 281.427 113.489 281.427C112.632 281.427 112.03 280.896 112.03 280.114Z" fill="var(--color-background-inverse-base)"/>
<path d="M117.264 281.374C116.524 281.374 115.975 280.935 115.975 280.237C115.975 279.554 116.478 279.161 117.367 279.108L118.469 279.04V278.693C118.469 278.222 118.175 277.964 117.604 277.964C117.148 277.964 116.829 278.137 116.744 278.438H116.128C116.209 277.826 116.811 277.422 117.626 277.422C118.557 277.422 119.078 277.9 119.078 278.693V281.307H118.497V280.744H118.44C118.192 281.151 117.774 281.374 117.264 281.374ZM117.378 280.84C118.005 280.84 118.469 280.429 118.469 279.883V279.533L117.442 279.6C116.861 279.639 116.606 279.841 116.606 280.223C116.606 280.613 116.935 280.84 117.378 280.84Z" fill="var(--color-background-inverse-base)"/>
<path d="M120.204 281.307V277.489H120.785V278.091H120.841C121.033 277.67 121.405 277.422 121.989 277.422C122.846 277.422 123.324 277.928 123.324 278.835V281.307H122.715V278.984C122.715 278.297 122.425 277.971 121.815 277.971C121.206 277.971 120.813 278.378 120.813 279.048V281.307H120.204Z" fill="var(--color-background-inverse-base)"/>
<path d="M126.451 277.638C126.451 276.728 127.152 276.076 128.13 276.076C129.022 276.076 129.706 276.682 129.706 277.51C129.706 278.098 129.451 278.523 128.53 279.476L127.369 280.677V280.733H129.791V281.307H126.483V280.868L128.211 278.998C128.863 278.293 129.054 278.028 129.054 277.578C129.054 277.036 128.69 276.632 128.087 276.632C127.475 276.632 127.068 277.032 127.068 277.638H126.451Z" fill="var(--color-background-inverse-base)"/>
<path d="M132.568 281.427C131.601 281.427 130.907 280.832 130.85 279.958H131.477C131.533 280.503 131.973 280.868 132.575 280.868C133.244 280.868 133.687 280.386 133.687 279.671C133.687 278.98 133.244 278.516 132.599 278.516C132.114 278.516 131.732 278.739 131.53 279.118H130.931L131.225 276.197H134.062V276.767H131.725L131.565 278.431H131.622C131.87 278.123 132.249 277.967 132.759 277.967C133.616 277.967 134.324 278.64 134.324 279.653C134.324 280.705 133.612 281.427 132.568 281.427Z" fill="var(--color-background-inverse-base)"/>
<path d="M216.783 281.307H216.145V276.196H219.248V276.77H216.783V278.527H219.046V279.093H216.783V281.307Z" fill="var(--color-background-inverse-base)"/>
<path d="M222.747 280.319H223.356C223.179 280.97 222.584 281.374 221.748 281.374C220.689 281.374 220.027 280.609 220.027 279.401C220.027 278.201 220.7 277.422 221.748 277.422C222.778 277.422 223.405 278.155 223.405 279.341V279.575H220.661V279.603C220.692 280.358 221.114 280.836 221.762 280.836C222.254 280.836 222.587 280.655 222.747 280.319ZM221.741 277.96C221.132 277.96 220.707 278.406 220.661 279.083H222.764C222.75 278.406 222.346 277.96 221.741 277.96Z" fill="var(--color-background-inverse-base)"/>
<path d="M226.26 281.374C225.729 281.374 225.275 281.123 225.034 280.698H224.978V281.307H224.397V275.973H225.006V278.091H225.063C225.272 277.68 225.736 277.422 226.26 277.422C227.23 277.422 227.861 278.197 227.861 279.398C227.861 280.591 227.227 281.374 226.26 281.374ZM226.118 277.971C225.424 277.971 224.992 278.516 224.992 279.398C224.992 280.28 225.424 280.825 226.118 280.825C226.816 280.825 227.23 280.29 227.23 279.398C227.23 278.505 226.816 277.971 226.118 277.971Z" fill="var(--color-background-inverse-base)"/>
<path d="M232.082 281.307V276.905H232.025L230.726 277.847V277.174L232.086 276.196H232.72V281.307H232.082Z" fill="var(--color-background-inverse-base)"/>
<path d="M318.748 281.307H318.11V276.196H321.213V276.77H318.748V278.527H321.011V279.093H318.748V281.307Z" fill="var(--color-background-inverse-base)"/>
<path d="M324.712 280.319H325.321C325.144 280.97 324.549 281.374 323.713 281.374C322.654 281.374 321.992 280.609 321.992 279.401C321.992 278.201 322.665 277.422 323.713 277.422C324.744 277.422 325.37 278.155 325.37 279.341V279.575H322.626V279.603C322.658 280.358 323.079 280.836 323.727 280.836C324.219 280.836 324.552 280.655 324.712 280.319ZM323.706 277.96C323.097 277.96 322.672 278.406 322.626 279.083H324.729C324.715 278.406 324.312 277.96 323.706 277.96Z" fill="var(--color-background-inverse-base)"/>
<path d="M328.225 281.374C327.694 281.374 327.24 281.123 327 280.698H326.943V281.307H326.362V275.973H326.971V278.091H327.028C327.237 277.68 327.701 277.422 328.225 277.422C329.195 277.422 329.826 278.197 329.826 279.398C329.826 280.591 329.192 281.374 328.225 281.374ZM328.083 277.971C327.389 277.971 326.957 278.516 326.957 279.398C326.957 280.28 327.389 280.825 328.083 280.825C328.781 280.825 329.195 280.29 329.195 279.398C329.195 278.505 328.781 277.971 328.083 277.971Z" fill="var(--color-background-inverse-base)"/>
<path d="M333.038 281.307L335.333 276.816V276.766H332.599V276.196H335.981V276.788L333.707 281.307H333.038Z" fill="var(--color-background-inverse-base)"/>
<path d="M419.19 281.307H418.553V276.196H421.655V276.77H419.19V278.527H421.453V279.093H419.19V281.307Z" fill="var(--color-background-inverse-base)"/>
<path d="M425.154 280.319H425.763C425.586 280.97 424.991 281.374 424.155 281.374C423.096 281.374 422.434 280.609 422.434 279.401C422.434 278.201 423.107 277.422 424.155 277.422C425.186 277.422 425.813 278.155 425.813 279.341V279.575H423.068V279.603C423.1 280.358 423.521 280.836 424.169 280.836C424.662 280.836 424.995 280.655 425.154 280.319ZM424.148 277.96C423.539 277.96 423.114 278.406 423.068 279.083H425.172C425.158 278.406 424.754 277.96 424.148 277.96Z" fill="var(--color-background-inverse-base)"/>
<path d="M428.667 281.374C428.136 281.374 427.683 281.123 427.442 280.698H427.385V281.307H426.804V275.973H427.414V278.091H427.47C427.679 277.68 428.143 277.422 428.667 277.422C429.638 277.422 430.268 278.197 430.268 279.398C430.268 280.591 429.634 281.374 428.667 281.374ZM428.526 277.971C427.831 277.971 427.399 278.516 427.399 279.398C427.399 280.28 427.831 280.825 428.526 280.825C429.223 280.825 429.638 280.29 429.638 279.398C429.638 278.505 429.223 277.971 428.526 277.971Z" fill="var(--color-background-inverse-base)"/>
<path d="M434.49 281.307V276.905H434.433L433.133 277.847V277.174L434.493 276.196H435.127V281.307H434.49Z" fill="var(--color-background-inverse-base)"/>
<path d="M437.727 278.952V278.406H438.332C438.92 278.406 439.338 278.031 439.338 277.5C439.338 277.021 438.973 276.632 438.357 276.632C437.741 276.632 437.34 276.947 437.287 277.521H436.668C436.731 276.689 437.365 276.076 438.399 276.076C439.409 276.076 439.99 276.713 439.986 277.429C439.982 278.045 439.6 278.452 439.076 278.605V278.661C439.738 278.767 440.177 279.217 440.177 279.929C440.177 280.786 439.395 281.427 438.378 281.427C437.34 281.427 436.625 280.857 436.579 279.989H437.195C437.252 280.528 437.712 280.871 438.371 280.871C439.044 280.871 439.522 280.485 439.522 279.911C439.522 279.32 439.079 278.952 438.36 278.952H437.727Z" fill="var(--color-background-inverse-base)"/>
<path d="M522.504 281.307H521.867V276.196H524.969V276.77H522.504V278.527H524.767V279.093H522.504V281.307Z" fill="var(--color-background-inverse-base)"/>
<path d="M528.468 280.319H529.077C528.9 280.97 528.305 281.374 527.469 281.374C526.411 281.374 525.748 280.609 525.748 279.401C525.748 278.201 526.421 277.422 527.469 277.422C528.5 277.422 529.127 278.155 529.127 279.341V279.575H526.382V279.603C526.414 280.358 526.836 280.836 527.484 280.836C527.976 280.836 528.309 280.655 528.468 280.319ZM527.462 277.96C526.853 277.96 526.428 278.406 526.382 279.083H528.486C528.472 278.406 528.068 277.96 527.462 277.96Z" fill="var(--color-background-inverse-base)"/>
<path d="M531.981 281.374C531.45 281.374 530.997 281.123 530.756 280.698H530.699V281.307H530.119V275.973H530.728V278.091H530.784C530.993 277.68 531.457 277.422 531.981 277.422C532.952 277.422 533.582 278.197 533.582 279.398C533.582 280.591 532.948 281.374 531.981 281.374ZM531.84 277.971C531.146 277.971 530.714 278.516 530.714 279.398C530.714 280.28 531.146 280.825 531.84 280.825C532.537 280.825 532.952 280.29 532.952 279.398C532.952 278.505 532.537 277.971 531.84 277.971Z" fill="var(--color-background-inverse-base)"/>
<path d="M537.804 281.307V276.905H537.747L536.447 277.847V277.174L537.807 276.196H538.441V281.307H537.804Z" fill="var(--color-background-inverse-base)"/>
<path d="M541.6 281.424C540.733 281.424 540.084 280.921 539.925 280.117H540.58C540.715 280.577 541.104 280.857 541.607 280.857C542.44 280.857 542.911 280.12 542.946 278.76H542.889C542.638 279.256 542.139 279.547 541.529 279.547C540.556 279.547 539.851 278.828 539.851 277.836C539.851 276.809 540.594 276.076 541.643 276.076C542.744 276.076 543.566 276.922 543.566 278.661C543.566 280.418 542.85 281.424 541.6 281.424ZM541.643 278.994C542.319 278.994 542.804 278.512 542.804 277.836C542.804 277.152 542.305 276.635 541.65 276.635C540.995 276.635 540.495 277.145 540.495 277.815C540.495 278.512 540.966 278.994 541.643 278.994Z" fill="var(--color-background-inverse-base)"/>
<path d="M623.401 281.307H622.763V276.196H625.866V276.77H623.401V278.527H625.664V279.093H623.401V281.307Z" fill="var(--color-background-inverse-base)"/>
<path d="M629.365 280.319H629.974C629.797 280.97 629.202 281.374 628.366 281.374C627.307 281.374 626.645 280.609 626.645 279.401C626.645 278.201 627.318 277.422 628.366 277.422C629.397 277.422 630.023 278.155 630.023 279.341V279.575H627.279V279.603C627.311 280.358 627.732 280.836 628.38 280.836C628.872 280.836 629.205 280.655 629.365 280.319ZM628.359 277.96C627.75 277.96 627.325 278.406 627.279 279.083H629.382C629.368 278.406 628.964 277.96 628.359 277.96Z" fill="var(--color-background-inverse-base)"/>
<path d="M632.878 281.374C632.347 281.374 631.893 281.123 631.653 280.698H631.596V281.307H631.015V275.973H631.624V278.091H631.681C631.89 277.68 632.354 277.422 632.878 277.422C633.848 277.422 634.479 278.197 634.479 279.398C634.479 280.591 633.845 281.374 632.878 281.374ZM632.736 277.971C632.042 277.971 631.61 278.516 631.61 279.398C631.61 280.28 632.042 280.825 632.736 280.825C633.434 280.825 633.848 280.29 633.848 279.398C633.848 278.505 633.434 277.971 632.736 277.971Z" fill="var(--color-background-inverse-base)"/>
<path d="M637.447 277.638C637.447 276.727 638.148 276.076 639.125 276.076C640.018 276.076 640.701 276.681 640.701 277.51C640.701 278.098 640.446 278.523 639.525 279.476L638.364 280.676V280.733H640.786V281.307H637.478V280.868L639.207 278.998C639.858 278.293 640.05 278.027 640.05 277.577C640.05 277.036 639.685 276.632 639.083 276.632C638.47 276.632 638.063 277.032 638.063 277.638H637.447Z" fill="var(--color-background-inverse-base)"/>
<path d="M643.563 281.427C642.596 281.427 641.902 280.832 641.845 279.957H642.472C642.529 280.503 642.968 280.868 643.57 280.868C644.239 280.868 644.682 280.386 644.682 279.671C644.682 278.98 644.239 278.516 643.595 278.516C643.109 278.516 642.727 278.739 642.525 279.118H641.927L642.221 276.196H645.057V276.766H642.72L642.561 278.431H642.617C642.865 278.123 643.244 277.967 643.754 277.967C644.611 277.967 645.319 278.64 645.319 279.653C645.319 280.705 644.608 281.427 643.563 281.427Z" fill="var(--color-background-inverse-base)"/>
<path d="M636.668 181.716L601.336 173.775L576.225 188.721L548.788 196.877L529.147 173.775L510.138 175.973L493.424 179.052L475.109 181.716L457.313 188.721L439.282 201.132L421.768 196.877L402.591 170.851L384.268 173.775L367.323 172.662L348.756 169.138L331.844 188.721L313.593 195.893L295.573 194.62L277.635 172.662L259.801 170.851L239.259 155.236L223.836 174.638L203.762 181.716L187.727 194.62L169.498 190.58L151.86 175.973L134.693 164L116.258 177.688" stroke="var(--color-data-visualization-03)" stroke-linecap="round" stroke-linejoin="round"/>
<path d="M637.574 224.214L601.336 217.31L583.78 224.214L548.788 219.703L529.146 195.209L510.137 217.31L493.423 224.214L475.108 237.319H457.313L439.282 224.214L421.768 219.703L399.733 206.915L381.298 211.055H367.323L348.756 217.31L331.844 230.789L313.592 218.66L295.573 217.31L277.635 230.789L259.8 217.31L248.108 203.629H223.836L213.873 211.055L187.726 217.31L169.497 224.214L150.71 217.31L134.391 211.055L116.862 217.31" stroke="var(--color-data-visualization-05)" stroke-linecap="round" stroke-linejoin="round"/>
<path d="M638.48 257.261L602.215 250.732H571.994L548.787 239.646H532.102L510.137 237.252L493.423 244.156L475.108 257.261H457.312L431.767 250.732L421.767 239.646L399.128 239.646L384.622 244.156H362.258L347.752 239.646L331.843 250.732H312.091H296.376H277.634H262.528H248.627L225.658 244.156H203.295L187.726 237.252L169.497 244.156H154.336L136.204 250.732H112.027" stroke="#F2681F" stroke-linecap="round" stroke-linejoin="round"/>
<path d="M638.48 244.569H589.22L565.226 250.733L555.372 244.569L531.497 244.569L510.947 244.569L497.952 247.713L481.632 250.733L463.499 253.757L447.18 250.733L424.816 247.713L406.381 244.569L385.226 238.646H371.023L356.214 247.713H329.619H316.624H298.189H280.661H267.062L250.742 250.733H232.307L213.268 247.713H193.624L177.909 250.733H150.71H134.693L116.862 257.081" stroke="var(--color-data-visualization-08)" stroke-linecap="round" stroke-linejoin="round"/>
<path d="M638.48 229.766H589.22L565.226 240.541L555.372 229.766L531.497 229.766L510.947 229.766L497.952 235.262L481.632 240.541L463.499 245.829L447.18 240.541L424.816 235.262L406.381 229.766L385.226 219.413H371.023L356.214 235.262H329.619H316.624H298.189H280.661H267.062L250.742 240.541H232.307L213.268 235.262H193.624L177.909 240.541H150.71H134.693L116.862 251.64" stroke="var(--color-data-visualization-06)" stroke-linecap="round" stroke-linejoin="round"/>
<path d="M636.062 187.307L601.335 200.988H568.971L558.092 183.036L529.146 178.887L510.137 200.988H496.138L476.494 191.804H461.384L445.064 187.307L426.025 183.036L402.589 175.787L384.267 178.887L367.322 194.734L348.755 200.988L336.268 191.804L313.592 202.339L295.572 200.988L284.892 187.307L259.8 200.988L248.107 187.307L233.818 175.787L212.059 187.307L197.25 183.036L184.86 178.887L164.309 175.787L133.79 183.036H116.257" stroke="var(--color-data-visualization-04)" stroke-linecap="round" stroke-linejoin="round"/>
<path d="M116.26 170.95L156.152 149.648L182.142 134.514L210.55 147.722L225.594 132.236L244.603 134.514L261.317 137.704L279.632 140.465L297.427 147.722L315.459 160.582L332.973 156.173L352.15 129.206L370.472 132.236L387.417 131.083L405.984 127.432L422.896 147.722L441.148 155.154L459.167 153.834L477.105 131.083L494.94 129.206L514.137 133.13H530.904L550.979 140.465L567.014 153.834L585.243 149.648L602.881 134.514L620.949 136.29H638.482" stroke="var(--color-data-visualization-01)" stroke-linecap="round" stroke-linejoin="round"/>
<path d="M116.861 163.437L152.824 159.768L188.183 189.103L205.95 171.888L225.591 147.951L244.6 150.229L261.314 153.419L279.629 156.179L297.425 163.437L315.456 176.297L332.97 171.888L352.147 144.921L370.469 147.951L387.414 146.798L405.982 143.146L422.894 163.437L441.145 170.869L459.164 169.549L477.103 146.798L494.937 144.921L514.134 148.845H530.901L550.976 156.179L567.011 169.549L585.24 165.363L602.878 150.229L620.947 152.005H638.479" stroke="var(--color-data-visualization-02)" stroke-linecap="round" stroke-linejoin="round"/>
<rect x="77.149" y="268.867" width="608.476" height="0.604424" stroke="var(--color-border-container)" stroke-width="0.64443"/>
<path fill-rule="evenodd" clip-rule="evenodd" d="M179.11 83.4617H176.507V86.1817C176.507 86.5987 176.183 86.9372 175.784 86.9372C175.385 86.9372 175.061 86.5987 175.061 86.1817V83.4617H172.457C172.058 83.4617 171.734 83.1233 171.734 82.7062C171.734 82.2892 172.058 81.9507 172.457 81.9507H175.061V79.2308C175.061 78.8137 175.385 78.4752 175.784 78.4752C176.183 78.4752 176.507 78.8137 176.507 79.2308V81.9507H179.11C179.51 81.9507 179.834 82.2892 179.834 82.7062C179.834 83.1233 179.51 83.4617 179.11 83.4617ZM175.784 75.4531C171.95 75.4531 168.842 78.7007 168.842 82.7062C168.842 86.7117 171.95 89.9593 175.784 89.9593C179.618 89.9593 182.726 86.7117 182.726 82.7062C182.726 78.7007 179.618 75.4531 175.784 75.4531Z" fill="var(--color-background-tertiary-base)"/>
<g clip-path="url(#clip0_439_498)">
<path fill-rule="evenodd" clip-rule="evenodd" d="M148.34 80.7871L145.874 83.2229L143.408 80.7871C143.142 80.5248 142.712 80.5248 142.446 80.7871C142.181 81.0491 142.181 81.4752 142.446 81.7375L145.874 85.1235L149.301 81.7375C149.434 81.6061 149.5 81.4338 149.5 81.2621C149.5 81.0902 149.434 80.9182 149.301 80.7871C149.169 80.6559 148.995 80.5903 148.82 80.5903C148.646 80.5903 148.473 80.6559 148.34 80.7871Z" fill="var(--color-background-inverse-base)"/>
<path d="M60.9145 79.15H63.488C64.7771 79.15 65.6696 80.0566 65.6696 81.3552C65.6696 82.6302 64.7582 83.5321 63.4785 83.5321H61.7644V85.9639H60.9145V79.15ZM61.7644 79.9055V82.7765H63.2661C64.2341 82.7765 64.796 82.2571 64.796 81.3552C64.796 80.4202 64.253 79.9055 63.2661 79.9055H61.7644Z" fill="var(--color-background-inverse-base)"/>
<path d="M68.1864 86.0536C67.1995 86.0536 66.4676 85.4681 66.4676 84.5379C66.4676 83.6265 67.1381 83.1024 68.3234 83.0315L69.7919 82.9418V82.479C69.7919 81.851 69.4 81.5063 68.6398 81.5063C68.0306 81.5063 67.6056 81.7377 67.4923 82.1391H66.6707C66.7793 81.3221 67.582 80.7838 68.6681 80.7838C69.91 80.7838 70.6041 81.4213 70.6041 82.479V85.9639H69.8297V85.2131H69.7542C69.4236 85.7562 68.8664 86.0536 68.1864 86.0536ZM68.3376 85.3406C69.1734 85.3406 69.7919 84.7929 69.7919 84.0657V83.5982L68.4226 83.6879C67.6481 83.7398 67.3081 84.009 67.3081 84.519C67.3081 85.0384 67.7473 85.3406 68.3376 85.3406Z" fill="var(--color-background-inverse-base)"/>
<path d="M74.2024 87.9189C72.9746 87.9189 72.1908 87.3664 72.068 86.5259H72.9274C73.0171 86.9414 73.4704 87.2106 74.2024 87.2106C75.1137 87.2106 75.6568 86.762 75.6568 86.0111V85.0101H75.5812C75.2601 85.572 74.684 85.8884 73.9851 85.8884C72.6677 85.8884 71.8508 84.8684 71.8508 83.3432C71.8508 81.818 72.6771 80.7838 73.9851 80.7838C74.6982 80.7838 75.3262 81.1333 75.619 81.681H75.6945V80.8735H76.469V86.0536C76.469 87.1917 75.5906 87.9189 74.2024 87.9189ZM74.1646 85.1706C75.109 85.1706 75.6756 84.4529 75.6756 83.3432C75.6756 82.2335 75.1043 81.5157 74.1646 81.5157C73.2202 81.5157 72.6913 82.2335 72.6913 83.3432C72.6913 84.4529 73.2202 85.1706 74.1646 85.1706Z" fill="var(--color-background-inverse-base)"/>
<path d="M81.3705 84.6465H82.1826C81.9465 85.5153 81.1532 86.0536 80.0388 86.0536C78.6269 86.0536 77.7439 85.0337 77.7439 83.4235C77.7439 81.8227 78.6411 80.7838 80.0388 80.7838C81.413 80.7838 82.2488 81.7613 82.2488 83.3432V83.6548H78.5892V83.6926C78.6317 84.6984 79.1936 85.3359 80.0577 85.3359C80.7141 85.3359 81.158 85.0951 81.3705 84.6465ZM80.0294 81.5016C79.2172 81.5016 78.6505 82.0966 78.5892 82.9985H81.3941C81.3752 82.0966 80.8369 81.5016 80.0294 81.5016Z" fill="var(--color-background-inverse-base)"/>
<path d="M90.4085 80.8735L88.5244 85.9639H87.6933L85.8092 80.8735H86.6781L88.0711 85.0667H88.1466L89.5396 80.8735H90.4085Z" fill="var(--color-background-inverse-base)"/>
<path d="M91.9195 79.8914C91.6079 79.8914 91.3529 79.6364 91.3529 79.3247C91.3529 79.013 91.6079 78.7581 91.9195 78.7581C92.2312 78.7581 92.4862 79.013 92.4862 79.3247C92.4862 79.6364 92.2312 79.8914 91.9195 79.8914ZM91.5135 85.9639V80.8735H92.3256V85.9639H91.5135Z" fill="var(--color-background-inverse-base)"/>
<path d="M93.7564 82.2666C93.7564 81.4213 94.5733 80.7838 95.6547 80.7838C96.7219 80.7838 97.4633 81.3127 97.5719 82.1485H96.7691C96.6605 81.7424 96.2638 81.4732 95.65 81.4732C95.0456 81.4732 94.5733 81.7802 94.5733 82.2335C94.5733 82.5829 94.8567 82.8001 95.4564 82.9465L96.2402 83.1354C97.1988 83.3668 97.6616 83.7823 97.6616 84.5143C97.6616 85.4256 96.7786 86.0536 95.6216 86.0536C94.4884 86.0536 93.7092 85.5106 93.6195 84.6654H94.4553C94.5922 85.0951 94.9983 85.3689 95.65 85.3689C96.3347 85.3689 96.8258 85.0431 96.8258 84.5756C96.8258 84.2262 96.5613 83.9901 96.0183 83.8579L95.1447 83.6454C94.1909 83.414 93.7564 83.0032 93.7564 82.2666Z" fill="var(--color-background-inverse-base)"/>
<path d="M99.3615 79.8914C99.0499 79.8914 98.7949 79.6364 98.7949 79.3247C98.7949 79.013 99.0499 78.7581 99.3615 78.7581C99.6732 78.7581 99.9282 79.013 99.9282 79.3247C99.9282 79.6364 99.6732 79.8914 99.3615 79.8914ZM98.9554 85.9639V80.8735H99.7676V85.9639H98.9554Z" fill="var(--color-background-inverse-base)"/>
<path d="M101.656 79.5561H102.469V80.8735H103.602V81.5535H102.469V84.434C102.469 85.0337 102.695 85.2887 103.224 85.2887C103.371 85.2887 103.451 85.284 103.602 85.2698V85.9545C103.441 85.9828 103.286 86.0017 103.125 86.0017C102.077 86.0017 101.656 85.6145 101.656 84.6417V81.5535H100.835V80.8735H101.656V79.5561Z" fill="var(--color-background-inverse-base)"/>
<path d="M104.617 82.2666C104.617 81.4213 105.434 80.7838 106.515 80.7838C107.583 80.7838 108.324 81.3127 108.433 82.1485H107.63C107.521 81.7424 107.125 81.4732 106.511 81.4732C105.906 81.4732 105.434 81.7802 105.434 82.2335C105.434 82.5829 105.717 82.8001 106.317 82.9465L107.101 83.1354C108.06 83.3668 108.522 83.7823 108.522 84.5143C108.522 85.4256 107.639 86.0536 106.482 86.0536C105.349 86.0536 104.57 85.5106 104.48 84.6654H105.316C105.453 85.0951 105.859 85.3689 106.511 85.3689C107.195 85.3689 107.687 85.0431 107.687 84.5756C107.687 84.2262 107.422 83.9901 106.879 83.8579L106.005 83.6454C105.052 83.414 104.617 83.0032 104.617 82.2666Z" fill="var(--color-background-inverse-base)"/>
<rect x="50.9792" y="68.8041" width="107.588" height="27.8035" rx="9.06637" stroke="var(--color-border-container)" stroke-width="1.20885"/>
</g>
<g clip-path="url(#clip1_439_498)">
<path fill-rule="evenodd" clip-rule="evenodd" d="M674.794 80.7871L672.328 83.2229L669.863 80.7871C669.597 80.5248 669.166 80.5248 668.901 80.7871C668.635 81.0491 668.635 81.4752 668.901 81.7375L672.328 85.1235L675.755 81.7375C675.888 81.6061 675.955 81.4338 675.955 81.2621C675.955 81.0902 675.888 80.9182 675.755 80.7871C675.623 80.6559 675.449 80.5903 675.275 80.5903C675.101 80.5903 674.927 80.6559 674.794 80.7871Z" fill="var(--color-background-inverse-base)"/>
<path d="M575.479 85.9638L574.794 84.0136H572.083L571.399 85.9638H570.506L573.018 79.1499H573.859L576.371 85.9638H575.479ZM573.401 80.2501L572.334 83.2912H574.544L573.476 80.2501H573.401Z" fill="var(--color-background-inverse-base)"/>
<path d="M579.275 87.9188C578.047 87.9188 577.263 87.3663 577.141 86.5258H578C578.09 86.9413 578.543 87.2105 579.275 87.2105C580.186 87.2105 580.729 86.7619 580.729 86.0111V85.01H580.654C580.333 85.5719 579.757 85.8883 579.058 85.8883C577.74 85.8883 576.923 84.8683 576.923 83.3431C576.923 81.8179 577.75 80.7837 579.058 80.7837C579.771 80.7837 580.399 81.1332 580.692 81.6809H580.767V80.8735H581.542V86.0536C581.542 87.1916 580.663 87.9188 579.275 87.9188ZM579.237 85.1705C580.182 85.1705 580.748 84.4528 580.748 83.3431C580.748 82.2334 580.177 81.5157 579.237 81.5157C578.293 81.5157 577.764 82.2334 577.764 83.3431C577.764 84.4528 578.293 85.1705 579.237 85.1705Z" fill="var(--color-background-inverse-base)"/>
<path d="M586.443 84.6464H587.255C587.019 85.5152 586.226 86.0536 585.112 86.0536C583.7 86.0536 582.817 85.0336 582.817 83.4234C582.817 81.8226 583.714 80.7837 585.112 80.7837C586.486 80.7837 587.321 81.7612 587.321 83.3431V83.6548H583.662V83.6925C583.704 84.6983 584.266 85.3358 585.13 85.3358C585.787 85.3358 586.231 85.095 586.443 84.6464ZM585.102 81.5015C584.29 81.5015 583.723 82.0965 583.662 82.9984H586.467C586.448 82.0965 585.91 81.5015 585.102 81.5015Z" fill="var(--color-background-inverse-base)"/>
<rect x="561.114" y="68.8041" width="123.907" height="27.8035" rx="9.06637" stroke="var(--color-border-container)" stroke-width="1.20885"/>
</g>
<path d="M530.091 84.1396H530.735C530.813 84.6743 531.323 85.0143 532.049 85.0143C532.736 85.0143 533.243 84.6425 533.243 84.136C533.243 83.7004 532.924 83.4242 532.219 83.2471L531.564 83.0771C530.64 82.8433 530.239 82.4254 530.239 81.6994C530.239 80.8317 530.965 80.2438 532.046 80.2438C533.034 80.2438 533.77 80.8317 533.823 81.6569H533.182C533.094 81.1328 532.662 80.8211 532.024 80.8211C531.344 80.8211 530.895 81.1611 530.895 81.6782C530.895 82.0784 531.174 82.3086 531.879 82.4892L532.414 82.6309C533.473 82.8965 533.898 83.3073 533.898 84.0581C533.898 84.9966 533.158 85.5951 531.989 85.5951C530.905 85.5951 530.158 85.0214 530.091 84.1396Z" fill="var(--color-background-inverse-base)"/>
<path d="M536.742 81.5896C537.716 81.5896 538.346 82.3652 538.346 83.5658C538.346 84.7593 537.712 85.542 536.742 85.542C536.196 85.542 535.757 85.3047 535.548 84.901H535.492V86.7497H534.882V81.6569H535.463V82.2944H535.52C535.764 81.8553 536.221 81.5896 536.742 81.5896ZM536.597 84.9931C537.298 84.9931 537.716 84.4583 537.716 83.5658C537.716 82.6734 537.298 82.1386 536.6 82.1386C535.909 82.1386 535.474 82.6875 535.474 83.5658C535.474 84.4406 535.909 84.9931 536.597 84.9931Z" fill="var(--color-background-inverse-base)"/>
<path d="M539.338 85.4747V80.1411H539.947V85.4747H539.338Z" fill="var(--color-background-inverse-base)"/>
<path d="M541.448 80.9203C541.215 80.9203 541.023 80.729 541.023 80.4953C541.023 80.2616 541.215 80.0703 541.448 80.0703C541.682 80.0703 541.873 80.2616 541.873 80.4953C541.873 80.729 541.682 80.9203 541.448 80.9203ZM541.144 85.4747V81.6569H541.753V85.4747H541.144Z" fill="var(--color-background-inverse-base)"/>
<path d="M543.17 80.6688H543.779V81.6569H544.629V82.1669H543.779V84.3273C543.779 84.777 543.949 84.9683 544.345 84.9683C544.455 84.9683 544.515 84.9647 544.629 84.9541V85.4676C544.508 85.4889 544.391 85.503 544.271 85.503C543.485 85.503 543.17 85.2126 543.17 84.4831V82.1669H542.553V81.6569H543.17V80.6688Z" fill="var(--color-background-inverse-base)"/>
<path d="M549.495 85.542C548.964 85.542 548.51 85.2906 548.269 84.8656H548.213V85.4747H547.632V80.1411H548.241V82.259H548.298C548.507 81.8482 548.971 81.5896 549.495 81.5896C550.465 81.5896 551.096 82.3652 551.096 83.5658C551.096 84.7593 550.462 85.542 549.495 85.542ZM549.353 82.1386C548.659 82.1386 548.227 82.684 548.227 83.5658C548.227 84.4477 548.659 84.9931 549.353 84.9931C550.051 84.9931 550.465 84.4583 550.465 83.5658C550.465 82.6734 550.051 82.1386 549.353 82.1386Z" fill="var(--color-background-inverse-base)"/>
<path d="M552.236 86.8559C552.155 86.8559 552.048 86.8488 551.963 86.8347V86.3141C552.038 86.3282 552.133 86.3318 552.218 86.3318C552.569 86.3318 552.76 86.1653 552.92 85.7049L552.99 85.4783L551.577 81.6569H552.236L553.284 84.7983H553.341L554.386 81.6569H555.034L553.543 85.7085C553.217 86.5938 552.912 86.8559 552.236 86.8559Z" fill="var(--color-background-inverse-base)"/>
<path d="M51.0831 41.6682H54.5479C56.2951 41.6682 57.4992 42.831 57.4992 44.5841C57.4992 46.3313 56.2538 47.5 54.4594 47.5H52.8657V50.1857H51.0831V41.6682ZM52.8657 43.079V46.107H54.0698C55.091 46.107 55.6871 45.5639 55.6871 44.59C55.6871 43.622 55.0969 43.079 54.0757 43.079H52.8657Z" fill="var(--color-background-inverse-base)"/>
<path d="M62.3866 48.2496H63.9685C63.7796 49.4892 62.6463 50.3214 61.0821 50.3214C59.1343 50.3214 57.9655 49.076 57.9655 47.0514C57.9655 45.0327 59.1461 43.7223 61.0172 43.7223C62.8588 43.7223 64.0216 44.9678 64.0216 46.892V47.4174H59.6596V47.5236C59.6596 48.4267 60.2321 49.0465 61.1116 49.0465C61.7432 49.0465 62.2272 48.7336 62.3866 48.2496ZM61.0349 44.9973C60.2794 44.9973 59.7363 45.5698 59.6773 46.3608H62.363C62.3275 45.5521 61.8022 44.9973 61.0349 44.9973Z" fill="var(--color-background-inverse-base)"/>
<path d="M64.9129 50.1857V43.8581H66.5774V44.9973H66.6128C66.8371 44.1945 67.3743 43.7578 68.118 43.7578C68.3187 43.7578 68.4898 43.7873 68.6079 43.8227V45.3396C68.4662 45.2806 68.2301 45.2393 67.9822 45.2393C67.1322 45.2393 66.6364 45.7587 66.6364 46.65V50.1857H64.9129Z" fill="var(--color-background-inverse-base)"/>
<path d="M69.812 50.1857V45.1567H68.9502V43.8876H69.812V43.4095C69.812 42.17 70.3964 41.5915 71.8956 41.5915C72.2144 41.5915 72.5744 41.6269 72.7751 41.6682V42.8074C72.6512 42.7838 72.48 42.772 72.3088 42.772C71.7422 42.772 71.4943 43.0199 71.4943 43.4685V43.8876H72.7515V45.1567H71.5356V50.1857H69.812Z" fill="var(--color-background-inverse-base)"/>
<path d="M76.3875 50.3214C74.4751 50.3214 73.2532 49.0937 73.2532 47.016C73.2532 44.9678 74.4928 43.7223 76.3875 43.7223C78.2822 43.7223 79.5218 44.9619 79.5218 47.016C79.5218 49.0996 78.2999 50.3214 76.3875 50.3214ZM76.3875 49.0051C77.2316 49.0051 77.7687 48.2909 77.7687 47.0219C77.7687 45.7646 77.2257 45.0386 76.3875 45.0386C75.5493 45.0386 75.0004 45.7646 75.0004 47.0219C75.0004 48.2909 75.5375 49.0051 76.3875 49.0051Z" fill="var(--color-background-inverse-base)"/>
<path d="M80.4131 50.1857V43.8581H82.0776V44.9973H82.113C82.3373 44.1945 82.8744 43.7578 83.6182 43.7578C83.8188 43.7578 83.99 43.7873 84.1081 43.8227V45.3396C83.9664 45.2806 83.7303 45.2393 83.4824 45.2393C82.6324 45.2393 82.1366 45.7587 82.1366 46.65V50.1857H80.4131Z" fill="var(--color-background-inverse-base)"/>
<path d="M84.8164 50.1857V43.8581H86.4809V45.0032H86.5163C86.7819 44.2418 87.4607 43.74 88.3225 43.74C89.2374 43.74 89.8749 44.2122 90.0874 45.0386H90.1228C90.4061 44.2418 91.1617 43.74 92.0884 43.74C93.3279 43.74 94.1602 44.59 94.1602 45.865V50.1857H92.4366V46.2959C92.4366 45.5639 92.0707 45.1626 91.4037 45.1626C90.7485 45.1626 90.3176 45.6407 90.3176 46.3431V50.1857H88.659V46.2427C88.659 45.5639 88.2753 45.1626 87.6378 45.1626C86.9826 45.1626 86.5399 45.6584 86.5399 46.3667V50.1857H84.8164Z" fill="var(--color-background-inverse-base)"/>
<path d="M97.1292 50.286C95.925 50.286 95.0101 49.5069 95.0101 48.3677C95.0101 47.2167 95.8955 46.5497 97.4715 46.4552L99.0652 46.3608V45.9417C99.0652 45.3514 98.652 45.0091 98.0028 45.0091C97.3594 45.0091 96.9521 45.3278 96.8695 45.7941H95.2935C95.3584 44.5664 96.4032 43.7223 98.0795 43.7223C99.7027 43.7223 100.759 44.5605 100.759 45.8355V50.1857H99.0947V49.2176H99.0593C98.7052 49.8905 97.9201 50.286 97.1292 50.286ZM97.6958 49.0406C98.4454 49.0406 99.0652 48.5506 99.0652 47.8659V47.4055L97.7312 47.4882C97.0879 47.5354 96.7219 47.8246 96.7219 48.2732C96.7219 48.7454 97.1115 49.0406 97.6958 49.0406Z" fill="var(--color-background-inverse-base)"/>
<path d="M101.875 50.1857V43.8581H103.539V44.9855H103.575C103.911 44.2004 104.578 43.74 105.552 43.74C106.957 43.74 107.748 44.6254 107.748 46.107V50.1857H106.024V46.467C106.024 45.6407 105.635 45.1685 104.862 45.1685C104.088 45.1685 103.598 45.7351 103.598 46.5556V50.1857H101.875Z" fill="var(--color-background-inverse-base)"/>
<path d="M114.589 46.2132H112.989C112.889 45.5462 112.446 45.074 111.738 45.074C110.888 45.074 110.357 45.7941 110.357 47.016C110.357 48.2614 110.888 48.9697 111.744 48.9697C112.435 48.9697 112.883 48.5565 112.989 47.8659H114.595C114.506 49.3593 113.391 50.3214 111.726 50.3214C109.82 50.3214 108.61 49.0819 108.61 47.016C108.61 44.9855 109.82 43.7223 111.714 43.7223C113.426 43.7223 114.512 44.7789 114.589 46.2132Z" fill="var(--color-background-inverse-base)"/>
<path d="M119.618 48.2496H121.2C121.011 49.4892 119.878 50.3214 118.314 50.3214C116.366 50.3214 115.197 49.076 115.197 47.0514C115.197 45.0327 116.377 43.7223 118.249 43.7223C120.09 43.7223 121.253 44.9678 121.253 46.892V47.4174H116.891V47.5236C116.891 48.4267 117.464 49.0465 118.343 49.0465C118.975 49.0465 119.459 48.7336 119.618 48.2496ZM118.266 44.9973C117.511 44.9973 116.968 45.5698 116.909 46.3608H119.594C119.559 45.5521 119.034 44.9973 118.266 44.9973Z" fill="var(--color-background-inverse-base)"/>
<path d="M127.445 50.3214C125.532 50.3214 124.311 49.0937 124.311 47.016C124.311 44.9678 125.55 43.7223 127.445 43.7223C129.34 43.7223 130.579 44.9619 130.579 47.016C130.579 49.0996 129.357 50.3214 127.445 50.3214ZM127.445 49.0051C128.289 49.0051 128.826 48.2909 128.826 47.0219C128.826 45.7646 128.283 45.0386 127.445 45.0386C126.607 45.0386 126.058 45.7646 126.058 47.0219C126.058 48.2909 126.595 49.0051 127.445 49.0051Z" fill="var(--color-background-inverse-base)"/>
<path d="M137.101 43.8581L134.929 50.1857H132.981L130.792 43.8581H132.639L133.955 48.6628H133.991L135.301 43.8581H137.101Z" fill="var(--color-background-inverse-base)"/>
<path d="M141.717 48.2496H143.299C143.11 49.4892 141.977 50.3214 140.413 50.3214C138.465 50.3214 137.296 49.076 137.296 47.0514C137.296 45.0327 138.477 43.7223 140.348 43.7223C142.189 43.7223 143.352 44.9678 143.352 46.892V47.4174H138.99V47.5236C138.99 48.4267 139.563 49.0465 140.442 49.0465C141.074 49.0465 141.558 48.7336 141.717 48.2496ZM140.366 44.9973C139.61 44.9973 139.067 45.5698 139.008 46.3608H141.694C141.658 45.5521 141.133 44.9973 140.366 44.9973Z" fill="var(--color-background-inverse-base)"/>
<path d="M144.244 50.1857V43.8581H145.908V44.9973H145.944C146.168 44.1945 146.705 43.7578 147.449 43.7578C147.649 43.7578 147.821 43.7873 147.939 43.8227V45.3396C147.797 45.2806 147.561 45.2393 147.313 45.2393C146.463 45.2393 145.967 45.7587 145.967 46.65V50.1857H144.244Z" fill="var(--color-background-inverse-base)"/>
<path d="M151.504 42.4002H153.227V43.8581H154.396V45.1567H153.227V48.1847C153.227 48.6687 153.463 48.8989 153.971 48.8989C154.124 48.8989 154.284 48.8871 154.39 48.8694V50.1384C154.213 50.1798 153.918 50.2093 153.57 50.2093C152.082 50.2093 151.504 49.7135 151.504 48.4798V45.1567H150.612V43.8581H151.504V42.4002Z" fill="var(--color-background-inverse-base)"/>
<path d="M156.226 43.0022C155.724 43.0022 155.329 42.6008 155.329 42.1168C155.329 41.6269 155.724 41.2314 156.226 41.2314C156.728 41.2314 157.123 41.6269 157.123 42.1168C157.123 42.6008 156.728 43.0022 156.226 43.0022ZM155.37 50.1857V43.8581H157.093V50.1857H155.37Z" fill="var(--color-background-inverse-base)"/>
<path d="M158.244 50.1857V43.8581H159.909V45.0032H159.944C160.21 44.2418 160.889 43.74 161.751 43.74C162.666 43.74 163.303 44.2122 163.516 45.0386H163.551C163.834 44.2418 164.59 43.74 165.516 43.74C166.756 43.74 167.588 44.59 167.588 45.865V50.1857H165.865V46.2959C165.865 45.5639 165.499 45.1626 164.832 45.1626C164.177 45.1626 163.746 45.6407 163.746 46.3431V50.1857H162.087V46.2427C162.087 45.5639 161.703 45.1626 161.066 45.1626C160.411 45.1626 159.968 45.6584 159.968 46.3667V50.1857H158.244Z" fill="var(--color-background-inverse-base)"/>
<path d="M172.871 48.2496H174.453C174.264 49.4892 173.131 50.3214 171.567 50.3214C169.619 50.3214 168.45 49.076 168.45 47.0514C168.45 45.0327 169.631 43.7223 171.502 43.7223C173.343 43.7223 174.506 44.9678 174.506 46.892V47.4174H170.144V47.5236C170.144 48.4267 170.717 49.0465 171.596 49.0465C172.228 49.0465 172.712 48.7336 172.871 48.2496ZM171.519 44.9973C170.764 44.9973 170.221 45.5698 170.162 46.3608H172.847C172.812 45.5521 172.287 44.9973 171.519 44.9973Z" fill="var(--color-background-inverse-base)"/>
<rect x="0.5" y="0.5" width="735" height="323" rx="7.5" stroke="var(--color-border-container)"/>
<defs>
<clipPath id="clip0_439_498">
<rect width="109" height="42.3097" fill="white" transform="translate(50.3748 68.1997)"/>
</clipPath>
<clipPath id="clip1_439_498">
<rect width="125" height="42.3097" fill="white" transform="translate(560.51 68.1997)"/>
</clipPath>
</defs>
</svg>
