<svg
  width="100"
  height="113"
  viewBox="0 0 100 113"
  fill="none"
  xmlns="http://www.w3.org/2000/svg"
>
  <path
    fillRule="evenodd"
    clipRule="evenodd"
    d="M50.3293 31.4599C41.7403 31.4599 34.7776 24.4174 34.7776 15.73C34.7776 7.04257 41.7403 3.05176e-05 50.3293 3.05176e-05C58.9184 3.05176e-05 65.8811 7.04257 65.8811 15.73C65.8811 24.4174 58.9184 31.4599 50.3293 31.4599ZM35.4492 44.957C33.4196 44.957 31.7742 46.6024 31.7742 48.632V74.1183V76.5186V105.71C31.7742 109.736 35.0382 113 39.0645 113C43.0909 113 46.3548 109.736 46.3548 105.71V80.1936H54.8602V105.71C54.8602 109.736 58.1242 113 62.1505 113C66.1769 113 69.4409 109.736 69.4409 105.71V76.5239L69.4409 76.5186L69.4409 74.1183L69.4409 48.632C69.4409 46.6024 67.7955 44.957 65.7659 44.957H35.4492Z"
    fill="#CCF6EE"
  />
  <path
    d="M48.0946 11.0249C48.0946 12.5184 46.8884 13.7102 45.395 13.7102C43.9015 13.7102 42.7097 12.5184 42.7097 11.0249C42.7097 9.53153 43.9159 8.32532 45.4093 8.32532C46.9027 8.32532 48.0946 9.53153 48.0946 11.0249ZM55.8058 8.32532C54.3123 8.32532 53.1061 9.53153 53.1061 11.0249C53.1061 12.5184 54.3123 13.7102 55.8058 13.7102C57.2992 13.7102 58.5054 12.504 58.5054 11.0249C58.5054 9.54589 57.2992 8.32532 55.8058 8.32532ZM43.241 19.3536C43.241 23.2738 46.4576 26.4617 50.4209 26.4617C54.3841 26.4617 57.6007 23.2738 57.6007 19.3536C57.6007 15.4334 43.241 15.4334 43.241 19.3536Z"
    fill="#005C62"
  />
  <path
    d="M8.08064 38.2742C35.4194 49.2097 62.7581 47.9946 91.9194 38.2742"
    stroke="#CCF6EE"
    strokeWidth="14.5806"
    strokeLinecap="round"
  />
</svg>
