<svg width="20" height="20" viewBox="0 0 20 20" fill="none" xmlns="http://www.w3.org/2000/svg">
<g clip-path="url(#clip0_1083_1791)">
<path fill-rule="evenodd" clip-rule="evenodd" d="M13.71 0.264526L12.8567 1.83878C13.7138 2.28008 14.3991 2.89468 14.9119 3.6839C15.4247 4.47374 15.6812 5.33671 15.6812 6.2742H4.56368C4.56368 5.33649 4.82019 4.47356 5.33298 3.6839C5.84578 2.89468 6.53497 2.28008 7.40032 1.83878L6.54691 0.264526C6.49067 0.160304 6.5106 0.080636 6.60687 0.0241852C6.71087 -0.0240566 6.79097 0.000281278 6.84721 0.0961138L7.71256 1.68296C8.47368 1.34635 9.27908 1.17768 10.1285 1.17768C10.9777 1.17768 11.783 1.34631 12.5444 1.68296L13.4097 0.0961138C13.4657 0.000281278 13.5458 -0.0242736 13.6501 0.0241852C13.7461 0.0803828 13.7661 0.160304 13.71 0.264526ZM7.59217 4.26711C7.7203 4.26711 7.83052 4.22107 7.92281 4.12857C8.01466 4.0365 8.06088 3.92649 8.06113 3.79814C8.06113 3.67002 8.01488 3.56023 7.92281 3.46772C7.83052 3.37565 7.7203 3.32961 7.59217 3.32961C7.46404 3.32961 7.35581 3.37565 7.26771 3.46772C7.17962 3.56001 7.13557 3.67002 7.13557 3.79814C7.13557 3.9267 7.17962 4.0365 7.26771 4.12857C7.35581 4.22107 7.46379 4.26711 7.59217 4.26711ZM12.6644 4.26711C12.7923 4.26711 12.9005 4.22107 12.9888 4.12857C13.0769 4.0365 13.1209 3.92649 13.1209 3.79814C13.1209 3.67002 13.0769 3.56023 12.9888 3.46772C12.9005 3.37565 12.7925 3.32961 12.6644 3.32961C12.5359 3.32961 12.4257 3.37565 12.3336 3.46772C12.2414 3.56001 12.1954 3.67002 12.1954 3.79814C12.1954 3.9267 12.2414 4.0365 12.3336 4.12857C12.4257 4.22107 12.5359 4.26711 12.6644 4.26711Z" fill="#111111"/>
<path d="M2.0273 6.83882C2.26764 6.59848 2.56002 6.47831 2.90462 6.47831C3.24122 6.47831 3.52981 6.59848 3.77018 6.83882C4.01056 7.07916 4.13073 7.36753 4.13073 7.70417V12.8724C4.13073 13.2174 4.01233 13.5096 3.77619 13.7499C3.53957 13.9903 3.24896 14.1105 2.90462 14.1105C2.56002 14.1105 2.26764 13.9903 2.0273 13.7499C1.78692 13.5096 1.66675 13.2174 1.66675 12.8724V7.70417C1.66675 7.36756 1.78695 7.07916 2.0273 6.83882Z" fill="#111111"/>
<path d="M4.61141 14.7114C4.61141 15.0803 4.73954 15.3926 4.99583 15.6489C5.25234 15.9052 5.56464 16.0333 5.93332 16.0333H6.8228L6.83498 18.762C6.83498 19.1065 6.95515 19.3991 7.19549 19.6395C7.43583 19.8799 7.72445 20.0001 8.06084 20.0001C8.40523 20.0001 8.69779 19.8799 8.93816 19.6395C9.17854 19.3991 9.29871 19.1066 9.29871 18.762V16.0336H10.9573V18.762C10.9573 19.1065 11.0774 19.3991 11.3178 19.6395C11.5582 19.8799 11.8505 20.0001 12.1951 20.0001C12.5395 20.0001 12.8321 19.8799 13.0725 19.6395C13.3128 19.3991 13.433 19.1066 13.433 18.762V16.0336H14.3344C14.695 16.0336 15.0032 15.9054 15.26 15.6491C15.5163 15.3928 15.6445 15.0805 15.6445 14.7116V6.70647H4.61141V14.7114Z" fill="#111111"/>
<path d="M16.4865 6.83285C16.7269 6.59671 17.0152 6.47831 17.3519 6.47831C17.6962 6.47831 17.9888 6.59671 18.2292 6.83285C18.4696 7.06943 18.5897 7.36 18.5897 7.70417V12.8724C18.5897 13.2174 18.4696 13.5096 18.2292 13.7499C17.9888 13.9903 17.6962 14.1105 17.3519 14.1105C17.0154 14.1105 16.7269 13.9903 16.4865 13.7499C16.2461 13.5096 16.126 13.2174 16.126 12.8724V7.70417C16.126 7.36004 16.2461 7.06943 16.4865 6.83285Z" fill="#111111"/>
</g>
<defs>
<clipPath id="clip0_1083_1791">
<rect width="20" height="20" fill="white"/>
</clipPath>
</defs>
</svg>
