<svg width="20" height="20" viewBox="0 0 20 20" fill="none" xmlns="http://www.w3.org/2000/svg">
<path d="M15.7038 19.1946C14.6198 20.2474 13.4237 20.0833 12.2837 19.5869C11.0717 19.0805 9.96367 19.0485 8.68363 19.5869C7.0896 20.2754 6.24358 20.0753 5.28355 19.1946C-0.136576 13.6104 0.663444 5.10388 6.82359 4.78364C8.31763 4.8637 9.36365 5.61027 10.2437 5.67232C11.5517 5.40611 12.8037 4.64353 14.2038 4.74361C15.8858 4.87971 17.1438 5.54422 17.9839 6.73913C14.5238 8.82071 15.3438 13.3842 18.5219 14.6652C17.8859 16.3364 17.0698 17.9877 15.7018 19.2086L15.7038 19.1946ZM10.1237 4.72359C9.96167 2.24171 11.9717 0.200152 14.2838 0C14.6018 2.86218 11.6837 5.00381 10.1237 4.72359Z" fill="var(--color-text-default)"/>
</svg>
