<svg
  width="227"
  height="101"
  viewBox="0 0 227 101"
  fill="none"
  xmlns="http://www.w3.org/2000/svg"
>
  <path
    d="M64.3129 77.4436C64.4427 80.6652 60.9033 82.7087 58.1783 80.9855L16.204 54.4424C15.2567 53.8433 14.6042 52.8743 14.4053 51.7712L9.72254 25.7933C9.42323 24.1329 10.1979 22.4632 11.6591 21.6196L36.1602 7.47393C37.6213 6.63033 39.4547 6.79426 40.743 7.88367L60.8991 24.928C61.755 25.6517 62.2679 26.7014 62.313 27.8213L64.3129 77.4436Z"
    fill="#D7EDFF"
  />
  <line
    x1="65.5815"
    y1="86.7246"
    x2="41.0586"
    y2="44.2496"
    stroke="#007CFF"
    strokeWidth="3.84674"
  />
  <circle
    cx="39.1469"
    cy="40.4967"
    r="6.73179"
    transform="rotate(-30 39.1469 40.4967)"
    fill="#007CFF"
  />
  <line
    x1="66.7817"
    y1="87.2406"
    x2="224.565"
    y2="87.2406"
    stroke="#004BA9"
    strokeWidth="3.21622"
    strokeLinecap="round"
    strokeDasharray="6.43 6.43"
  />
  <rect x="95" y="24.3676" width="106" height="51.3852" fill="#004BA9" />
  <path
    d="M188.37 69.984C175.058 65.2813 155.397 69.95 149.112 79.8968V24.8301C153.615 13.9492 175.075 12.2027 188.881 16.8059C190.407 17.3146 191.364 18.7837 191.364 20.3921V68.0015C191.364 69.4934 189.777 70.4809 188.37 69.984Z"
    fill="#D7EDFF"
  />
  <path
    d="M107.63 69.984C120.942 65.2813 140.603 69.95 146.888 79.8968V24.8301C142.385 13.9492 120.925 12.2027 107.119 16.8059C105.593 17.3146 104.636 18.7837 104.636 20.3921V68.0015C104.636 69.4934 106.223 70.4809 107.63 69.984Z"
    fill="#D7EDFF"
  />
</svg>
