<svg  viewBox="0 0 23 35" height="32px" fill="none" xmlns="http://www.w3.org/2000/svg">
<g>
<path d="M5.75117 34.4931C8.92453 34.4931 11.5 31.9176 11.5 28.7443V22.9954H5.75117C2.5778 22.9954 0.00231934 25.5709 0.00231934 28.7443C0.00231934 31.9176 2.5778 34.4931 5.75117 34.4931Z" fill="#0ACF83"/>
<path d="M0.00231934 17.2464C0.00231934 14.073 2.5778 11.4976 5.75117 11.4976H11.5V22.9953H5.75117C2.5778 22.9953 0.00231934 20.4198 0.00231934 17.2464Z" fill="#A259FF"/>
<path d="M0.00244141 5.74885C0.00244141 2.57548 2.57793 0 5.75129 0H11.5001V11.4977H5.75129C2.57793 11.4977 0.00244141 8.92222 0.00244141 5.74885Z" fill="#F24E1E"/>
<path d="M11.5 0H17.2489C20.4222 0 22.9977 2.57548 22.9977 5.74885C22.9977 8.92222 20.4222 11.4977 17.2489 11.4977H11.5V0Z" fill="#FF7262"/>
<path d="M22.9977 17.2464C22.9977 20.4198 20.4222 22.9953 17.2489 22.9953C14.0755 22.9953 11.5 20.4198 11.5 17.2464C11.5 14.073 14.0755 11.4976 17.2489 11.4976C20.4222 11.4976 22.9977 14.073 22.9977 17.2464Z" fill="#1ABCFE"/>
</g>
</svg>
