 <svg
  width="172"
  height="101"
  viewBox="0 0 172 101"
  fill="none"
  xmlns="http://www.w3.org/2000/svg"
>
  <mask id="mask0_268_5236" maskUnits="userSpaceOnUse" x="12" y="9" width="72" height="81">
    <path
      d="M42.9533 10.7403C43.7476 9.63987 45.2458 9.31903 46.4211 9.99761L82.4829 30.8179C83.6582 31.4965 84.1294 32.9543 83.5737 34.1925L66.232 72.8244C59.4646 87.9 41.1485 93.8203 26.8375 85.5579C12.5266 77.2955 8.49573 58.473 18.1679 45.0746L42.9533 10.7403Z"
      fill="#D7EDFF"
    />
  </mask>
  <g mask="url(#mask0_268_5236)">
    <path
      d="M42.9533 10.7403C43.7476 9.63987 45.2458 9.31903 46.4211 9.99761L82.4829 30.8179C83.6582 31.4965 84.1294 32.9543 83.5737 34.1925L66.232 72.8244C59.4646 87.9 41.1485 93.8203 26.8375 85.5579C12.5266 77.2955 8.49573 58.473 18.1679 45.0746L42.9533 10.7403Z"
      fill="#D7EDFF"
    />
    <path
      d="M20.5207 41.2147L72.4486 59.3406L66.3666 72.7716C59.5199 87.8917 41.1224 93.8052 26.748 85.5062C12.4383 77.2444 8.32078 58.4735 17.8586 44.9807L20.5207 41.2147Z"
      fill="#004BA9"
    />
  </g>
  <mask id="mask1_268_5236" maskUnits="userSpaceOnUse" x="88" y="9" width="71" height="80">
    <path
      d="M128.927 10.3362C128.133 9.23583 126.635 8.915 125.459 9.59357L89.3974 30.4139C88.2221 31.0924 87.7509 32.5503 88.3067 33.7884L105.648 72.4204C112.416 87.4959 130.732 93.4163 145.043 85.1538C159.354 76.8914 163.385 58.069 153.712 44.6705L128.927 10.3362Z"
      fill="#D7EDFF"
    />
  </mask>
  <g mask="url(#mask1_268_5236)">
    <path
      d="M128.927 10.3362C128.133 9.23583 126.635 8.915 125.459 9.59357L89.3974 30.4139C88.2221 31.0924 87.7509 32.5503 88.3067 33.7884L105.648 72.4204C112.416 87.4959 130.732 93.4163 145.043 85.1538C159.354 76.8914 163.385 58.069 153.712 44.6705L128.927 10.3362Z"
      fill="#004BA9"
    />
    <path
      d="M151.36 40.8107L99.4318 58.9366L105.514 72.3676C112.361 87.4877 130.758 93.4012 145.132 85.1021C159.442 76.8404 163.56 58.0694 154.022 44.5766L151.36 40.8107Z"
      fill="#D7EDFF"
    />
  </g>
  <path
    fillRule="evenodd"
    clipRule="evenodd"
    d="M84.143 2.18363C84.143 1.10958 85.0137 0.238892 86.0877 0.238892C87.1618 0.238892 88.0324 1.10958 88.0324 2.18364V18.7906C88.0324 19.8647 87.1618 20.7353 86.0877 20.7353C85.0137 20.7353 84.143 19.8647 84.143 18.7906V2.18363ZM94.3799 11.1526C94.8884 10.1721 96.0552 9.85915 96.9861 10.4536C97.917 11.0481 98.2595 12.325 97.751 13.3055L93.7023 21.1128C93.1938 22.0934 92.027 22.4063 91.096 21.8118C90.1651 21.2173 89.8227 19.9405 90.3312 18.96L94.3799 11.1526ZM74.5498 9.70411C73.6196 10.3001 73.2789 11.5776 73.7888 12.5576L77.8469 20.3577C78.3568 21.3377 79.5241 21.649 80.4543 21.0531C81.3844 20.4571 81.7251 19.1796 81.2153 18.1996L77.1571 10.3995C76.6473 9.4195 75.4799 9.10817 74.5498 9.70411Z"
    fill="#CCE8FF"
  />
</svg>
