<svg width="290" height="161" viewBox="0 0 290 161" fill="none" xmlns="http://www.w3.org/2000/svg">
<rect width="290" height="161" fill="#009990"/>
<path fill-rule="evenodd" clip-rule="evenodd" d="M219.626 113.214C220.395 114.509 222.269 114.509 223.038 113.214L243.939 78.012C254.345 60.486 241.715 38.2971 221.332 38.2971C200.95 38.2971 188.319 60.486 198.725 78.0119L219.626 113.214ZM221.332 68.9877C225.36 68.9877 228.625 65.7226 228.625 61.6949C228.625 57.6672 225.36 54.4021 221.332 54.4021C217.304 54.4021 214.039 57.6672 214.039 61.6949C214.039 65.7226 217.304 68.9877 221.332 68.9877Z" fill="#F6FDF5"/>
<path fill-rule="evenodd" clip-rule="evenodd" d="M96 51L128 43V93L96 101V51ZM62 48.1231C62 45.5208 64.4456 43.6114 66.9701 44.2425L94 51V101L65.0299 93.7575C63.2492 93.3123 62 91.7124 62 89.8769V48.1231ZM158.97 50.2425L130 43V93L157.03 99.7575C159.554 100.389 162 98.4792 162 95.8769V54.1231C162 52.2876 160.751 50.6877 158.97 50.2425Z" fill="#ACE5DB"/>
<path d="M223.392 118.392L75.6082 118.392L75.6082 84" stroke="#006666" stroke-width="3.21622" stroke-linecap="round" stroke-dasharray="6.43 6.43"/>
<circle cx="75.5" cy="83.5" r="5.5" fill="#003440"/>
</svg>
