<svg width="24" height="24" viewBox="0 0 24 24" xmlns="http://www.w3.org/2000/svg"><path fill="#B5B5B5" d="M22.00,10.00 L14.00,10.00 L14.00,2.00 C14.00,0.90 13.10,0.00 12.00,0.00 C10.90,0.00 10.00,0.90 10.00,2.00 L10.00,10.00 L2.00,10.00 C0.90,10.00 0.00,10.90 0.00,12.00 C0.00,13.10 0.90,14.00 2.00,14.00 L10.00,14.00 L10.00,22.00 C10.00,23.10 10.90,24.00 12.00,24.00 C13.10,24.00 14.00,23.10 14.00,22.00 L14.00,14.00 L22.00,14.00 C23.10,14.00 24.00,13.10 24.00,12.00 C24.00,10.90 23.10,10.00 22.00,10.00"/></svg>
