<svg width="24" height="24" viewBox="0 0 24 24" xmlns="http://www.w3.org/2000/svg"><path fill="#B5B5B5" d="M15.18,12.00 L22.34,4.84 C23.22,3.96 23.22,2.54 22.34,1.66 C21.46,0.78 20.04,0.78 19.16,1.66 L12.00,8.82 L4.84,1.66 C3.96,0.78 2.54,0.78 1.66,1.66 C0.78,2.54 0.78,3.96 1.66,4.84 L8.82,12.00 L1.66,19.16 C0.78,20.04 0.78,21.46 1.66,22.34 C2.10,22.78 2.67,23.00 3.25,23.00 C3.83,23.00 4.40,22.78 4.84,22.34 L12.00,15.18 L19.16,22.34 C19.60,22.78 20.17,23.00 20.75,23.00 C21.33,23.00 21.90,22.78 22.34,22.34 C23.22,21.46 23.22,20.04 22.34,19.16 L15.18,12.00 Z"/></svg>
