<svg width="24" height="24" viewBox="0 0 24 24" xmlns="http://www.w3.org/2000/svg"><path fill="#B5B5B5" d="M15.18,16.95 L12.00,13.77 L8.82,16.95 C8.33,17.44 7.54,17.44 7.05,16.95 C6.56,16.46 6.56,15.67 7.05,15.18 L10.23,12.00 L7.05,8.82 C6.56,8.33 6.56,7.54 7.05,7.05 C7.54,6.56 8.33,6.56 8.82,7.05 L12.00,10.23 L15.18,7.05 C15.67,6.56 16.46,6.56 16.95,7.05 C17.44,7.54 17.44,8.33 16.95,8.82 L13.77,12.00 L16.95,15.18 C17.44,15.67 17.44,16.46 16.95,16.95 C16.46,17.44 15.67,17.44 15.18,16.95 M24.00,12.00 C24.00,5.37 18.63,0.00 12.00,0.00 C5.37,0.00 0.00,5.37 0.00,12.00 C0.00,18.63 5.37,24.00 12.00,24.00 C18.63,24.00 24.00,18.63 24.00,12.00"/></svg>
