<svg width="24" height="24" viewBox="0 0 24 24" xmlns="http://www.w3.org/2000/svg"><path fill="#B5B5B5" d="M12.87,12.90 C13.36,12.41 13.36,11.62 12.87,11.13 C12.38,10.64 11.59,10.64 11.10,11.13 C10.61,11.62 10.61,12.41 11.10,12.90 C11.59,13.39 12.38,13.39 12.87,12.90 M15.14,14.03 C14.93,14.55 14.52,14.96 14.00,15.16 L5.62,18.38 L8.84,10.00 C9.04,9.48 9.45,9.07 9.97,8.86 L18.58,5.42 L15.14,14.03 Z M20.49,3.51 C15.80,-1.17 8.20,-1.17 3.51,3.51 C-1.17,8.20 -1.17,15.80 3.51,20.49 C8.20,25.17 15.80,25.17 20.49,20.49 C25.17,15.80 25.17,8.20 20.49,3.51 L20.49,3.51 Z"/></svg>
