<svg width="24" height="24" viewBox="0 0 24 24" xmlns="http://www.w3.org/2000/svg" ><path fill="#B5B5B5" d="M12.000,4.500 C6.540,4.500 1.880,7.618 0.000,12.000 C1.880,16.382 6.540,19.500 12.000,19.500 C17.460,19.500 22.120,16.382 24.000,12.000 C22.120,7.618 17.460,4.500 12.000,4.500 Z M12.000,17.250 C9.101,17.250 6.750,14.899 6.750,12.000 C6.750,9.101 9.101,6.750 12.000,6.750 C14.899,6.750 17.250,9.101 17.250,12.000 C17.250,14.899 14.899,17.250 12.000,17.250 Z M12.000,14.250 C12.597,14.250 13.169,14.013 13.591,13.591 C14.013,13.169 14.250,12.597 14.250,12.000 C14.250,10.757 13.243,9.750 12.000,9.750 C10.757,9.750 9.750,10.757 9.750,12.000 C9.750,13.243 10.757,14.250 12.000,14.250 Z"/></svg>
