<svg width="24" height="24" viewBox="0 0 24 24" xmlns="http://www.w3.org/2000/svg"><path fill="#B5B5B5" d="M19.50,3.00 L4.50,3.00 C2.02,3.00 -0.00,5.03 -0.00,7.50 L-0.00,16.50 C-0.00,18.98 2.02,21.00 4.50,21.00 L19.50,21.00 C21.97,21.00 24.00,18.98 24.00,16.50 L24.00,7.50 C24.00,5.03 21.97,3.00 19.50,3.00 L19.50,3.00 Z M12.09,15.88 L12.09,8.08 L13.68,8.08 L13.68,15.88 L12.09,15.88 Z M15.54,8.08 L21.12,8.08 L21.12,9.42 L17.12,9.42 L17.12,11.30 L20.51,11.30 L20.51,12.65 L17.12,12.65 L17.12,15.88 L15.54,15.88 L15.54,8.08 Z M4.14,14.91 C3.81,14.54 3.56,14.12 3.38,13.63 C3.21,13.14 3.12,12.60 3.12,12.01 C3.12,11.35 3.23,10.75 3.45,10.21 C3.67,9.66 3.98,9.20 4.40,8.82 C4.72,8.53 5.08,8.31 5.50,8.16 C5.91,8.01 6.38,7.93 6.90,7.93 C7.39,7.93 7.83,7.99 8.22,8.12 C8.61,8.25 8.94,8.43 9.22,8.66 C9.49,8.89 9.72,9.17 9.89,9.49 C10.06,9.81 10.18,10.16 10.24,10.53 L8.69,10.53 C8.61,10.16 8.42,9.85 8.13,9.60 C7.84,9.36 7.44,9.24 6.94,9.24 C6.57,9.24 6.24,9.31 5.97,9.45 C5.70,9.59 5.47,9.79 5.28,10.04 C5.10,10.29 4.96,10.58 4.87,10.92 C4.78,11.26 4.74,11.62 4.74,12.01 C4.74,12.41 4.79,12.78 4.89,13.11 C4.99,13.45 5.14,13.74 5.32,13.99 C5.51,14.23 5.74,14.42 6.01,14.56 C6.28,14.70 6.58,14.77 6.91,14.77 C7.22,14.77 7.50,14.72 7.74,14.61 C7.99,14.51 8.20,14.38 8.38,14.21 C8.55,14.04 8.69,13.85 8.78,13.64 C8.88,13.43 8.92,13.22 8.92,13.00 L8.92,12.96 L7.05,12.96 L7.05,11.74 L10.33,11.74 L10.33,15.88 L9.14,15.88 L9.09,14.83 L9.06,14.83 C8.79,15.28 8.48,15.60 8.12,15.77 C7.75,15.95 7.34,16.04 6.87,16.04 C6.28,16.04 5.76,15.94 5.31,15.74 C4.85,15.54 4.46,15.26 4.14,14.91 Z"/></svg>
