<svg width="24" height="24" viewBox="0 0 24 24" xmlns="http://www.w3.org/2000/svg" >
    <path fill="#BDBDBD" d="M3.00,15.00 L21.00,15.00 C21.55,15.00 22.00,15.45 22.00,16.00 C22.00,16.55 21.55,17.00 21.00,17.00 L3.00,17.00 C2.45,17.00 2.00,16.55 2.00,16.00 C2.00,15.45 2.45,15.00 3.00,15.00 Z M3.00,11.00 L21.00,11.00 C21.55,11.00 22.00,11.45 22.00,12.00 C22.00,12.55 21.55,13.00 21.00,13.00 L3.00,13.00 C2.45,13.00 2.00,12.55 2.00,12.00 C2.00,11.45 2.45,11.00 3.00,11.00 Z M3.00,7.00 L21.00,7.00 C21.55,7.00 22.00,7.45 22.00,8.00 C22.00,8.55 21.55,9.00 21.00,9.00 L3.00,9.00 C2.45,9.00 2.00,8.55 2.00,8.00 C2.00,7.45 2.45,7.00 3.00,7.00 Z"/>
</svg>
