<svg width="24" height="24" viewBox="0 0 24 24" xmlns="http://www.w3.org/2000/svg"><path fill="#B5B5B5" d="M11.98,22.25 L1.82,11.95 C-0.28,9.83 -0.65,6.40 1.18,4.03 C3.37,1.19 7.44,1.00 9.88,3.47 L11.98,5.61 L13.93,3.63 C16.03,1.50 19.41,1.13 21.75,2.98 C24.55,5.21 24.74,9.33 22.30,11.80 L11.98,22.25 Z M15.30,9.54 C15.70,9.14 15.70,8.48 15.30,8.08 C14.90,7.68 14.25,7.68 13.85,8.08 L12.00,9.94 L10.15,8.08 C9.75,7.68 9.10,7.68 8.70,8.08 C8.30,8.48 8.30,9.14 8.70,9.54 L10.55,11.40 L8.70,13.26 C8.30,13.66 8.30,14.31 8.70,14.71 C9.10,15.11 9.75,15.12 10.15,14.71 L12.00,12.85 L13.85,14.71 C14.25,15.12 14.90,15.12 15.30,14.71 C15.70,14.31 15.70,13.66 15.30,13.26 L13.45,11.40 L15.30,9.54 Z"/></svg>
