<svg width="24" height="24" viewBox="0 0 24 24" xmlns="http://www.w3.org/2000/svg"><path fill="#B5B5B5" d="M14.30,18.17 C14.79,17.68 15.58,17.68 16.07,18.17 C16.56,18.66 16.56,19.45 16.07,19.93 L12.00,24.00 L7.93,19.93 C7.45,19.45 7.45,18.66 7.93,18.17 C8.42,17.68 9.21,17.68 9.70,18.17 L10.75,19.21 L10.75,15.25 C10.75,14.56 11.31,14.00 12.00,14.00 C12.69,14.00 13.25,14.56 13.25,15.25 L13.25,19.21 L14.30,18.17 Z M4.79,13.25 L5.83,14.30 C6.32,14.79 6.32,15.58 5.83,16.07 C5.35,16.55 4.55,16.55 4.07,16.07 L0.00,12.00 L4.07,7.93 C4.55,7.45 5.35,7.45 5.83,7.93 C6.32,8.42 6.32,9.21 5.83,9.70 L4.79,10.75 L8.75,10.75 C9.44,10.75 10.00,11.31 10.00,12.00 C10.00,12.69 9.44,13.25 8.75,13.25 L4.79,13.25 Z M19.93,7.93 L24.00,12.00 L19.93,16.07 C19.45,16.55 18.66,16.55 18.17,16.07 C17.68,15.58 17.68,14.79 18.17,14.30 L19.21,13.25 L15.25,13.25 C14.56,13.25 14.00,12.69 14.00,12.00 C14.00,11.31 14.56,10.75 15.25,10.75 L19.21,10.75 L18.17,9.70 C17.68,9.21 17.68,8.42 18.17,7.93 C18.66,7.45 19.45,7.45 19.93,7.93 Z M9.70,5.83 C9.21,6.32 8.42,6.32 7.93,5.83 C7.45,5.34 7.45,4.55 7.93,4.07 L12.00,-0.00 L16.07,4.07 C16.56,4.55 16.56,5.34 16.07,5.83 C15.58,6.32 14.79,6.32 14.30,5.83 L13.25,4.79 L13.25,8.75 C13.25,9.44 12.69,10.00 12.00,10.00 C11.31,10.00 10.75,9.44 10.75,8.75 L10.75,4.79 L9.70,5.83 Z"/></svg>
