<svg width="280" height="320" viewBox="0 0 280 320" fill="none" xmlns="http://www.w3.org/2000/svg">
<ellipse cx="164" cy="178.75" rx="39.5" ry="5.25" fill="#111111"/>
<path d="M124.304 92.2976C122.176 96.1436 123.049 101.616 124.065 104.925C124.36 105.884 125.264 106.507 126.264 106.42C130.093 106.088 136.196 104.419 139.061 99.4726C142.82 93.0996 141.259 86.7579 139.555 83.4423C139.145 82.6455 138.263 82.226 137.386 82.4084C132.704 83.3817 127.149 87.1569 124.304 92.2976Z" fill="white" stroke="#111111" stroke-width="1.5"/>
<path d="M210.5 139H150L157.186 179.5H202.66L210.5 139Z" fill="white"/>
<rect x="142.75" y="129.25" width="74.5" height="10" rx="1.75" fill="white" stroke="#111111" stroke-width="1.5"/>
<path d="M150 139.42L156.853 178.353C157.063 179.549 158.101 180.42 159.315 180.42H201.308C202.513 180.42 203.546 179.561 203.766 178.376L211 139.42" stroke="#111111" stroke-width="1.5" stroke-linejoin="round"/>
<path d="M166.859 101.402C179.326 110.736 189.374 106.946 194.204 102.534C195.269 101.562 194.977 99.898 193.718 99.1965C182.591 92.9968 172.481 95.0841 167.048 97.8894C165.654 98.6088 165.604 100.462 166.859 101.402Z" fill="white" stroke="#111111" stroke-width="1.5" stroke-linejoin="round"/>
<path d="M176.673 99.7702C176.27 99.6746 175.866 99.9238 175.77 100.327C175.675 100.73 175.924 101.134 176.327 101.23L176.673 99.7702ZM176.327 101.23C178.184 101.67 181.293 102.191 184.633 102.336C187.957 102.48 191.596 102.256 194.463 101.145L193.921 99.7466C191.343 100.745 187.951 100.978 184.698 100.837C181.46 100.697 178.445 100.19 176.673 99.7702L176.327 101.23Z" fill="#111111"/>
<path d="M127.312 102.102C127.248 102.511 127.528 102.895 127.937 102.959C128.346 103.023 128.73 102.744 128.794 102.334L127.312 102.102ZM128.794 102.334C129.066 100.597 129.979 97.4207 131.627 93.9085C133.272 90.4004 135.628 86.6079 138.756 83.6033L137.717 82.5214C134.416 85.6921 131.965 89.6562 130.269 93.2714C128.574 96.8826 127.611 100.196 127.312 102.102L128.794 102.334Z" fill="#111111"/>
<path d="M210.5 138.92H149L150.009 143.42L210.5 140.529V138.92Z" fill="#111111"/>
<path d="M138.5 82.4379C145.021 76.4299 160.82 67.6683 173.36 69.1703C189.269 71.0759 194.677 85.4418 195.43 95.7053C196.329 107.972 188.408 121.99 182.89 129.5" stroke="#111111" stroke-width="1.5"/>
<path d="M173.36 231.98C173.36 234.282 171.979 236.591 169.217 238.798C166.462 240.998 162.429 243.013 157.378 244.719C147.285 248.128 133.294 250.25 117.805 250.25C102.316 250.25 88.3243 248.128 78.2313 244.719C73.181 243.013 69.148 240.998 66.3927 238.798C63.6301 236.591 62.25 234.282 62.25 231.98C62.25 229.678 63.6301 227.369 66.3927 225.163C69.148 222.963 73.181 220.948 78.2313 219.242C88.3243 215.832 102.316 213.711 117.805 213.711C133.294 213.711 147.285 215.832 157.378 219.242C162.429 220.948 166.462 222.963 169.217 225.163C171.979 227.369 173.36 229.678 173.36 231.98Z" fill="white" stroke="#111111" stroke-width="1.5"/>
<path d="M65.0539 226.263C63.9533 224.732 78.2187 219.311 82.7375 217.957C89.8471 226.383 107.601 237.675 133.118 231.446C114.229 243.484 72.2837 236.314 65.0539 226.263Z" fill="#111111"/>
<mask id="path-13-inside-1_1444_14875" fill="white">
<path fill-rule="evenodd" clip-rule="evenodd" d="M154.701 216.401C153.029 219.011 151.364 221.185 149.989 222.773C152.558 223.884 155.391 224.5 158.369 224.5C170.033 224.5 179.491 215.049 179.494 203.39C179.497 193.629 172.873 185.416 163.871 183C164.333 185.03 164.199 187.902 163.757 190.987C168.547 193.066 171.897 197.837 171.895 203.39C171.893 210.854 165.838 216.904 158.371 216.904C157.099 216.904 155.868 216.729 154.701 216.401Z"/>
</mask>
<path fill-rule="evenodd" clip-rule="evenodd" d="M154.701 216.401C153.029 219.011 151.364 221.185 149.989 222.773C152.558 223.884 155.391 224.5 158.369 224.5C170.033 224.5 179.491 215.049 179.494 203.39C179.497 193.629 172.873 185.416 163.871 183C164.333 185.03 164.199 187.902 163.757 190.987C168.547 193.066 171.897 197.837 171.895 203.39C171.893 210.854 165.838 216.904 158.371 216.904C157.099 216.904 155.868 216.729 154.701 216.401Z" fill="white"/>
<path d="M154.701 216.401L155.108 214.957L154.038 214.656L153.438 215.592L154.701 216.401ZM149.989 222.773L148.855 221.791L147.516 223.337L149.393 224.15L149.989 222.773ZM163.871 183L164.261 181.551L161.858 180.906L162.409 183.333L163.871 183ZM163.757 190.987L162.272 190.775L162.109 191.908L163.159 192.363L163.757 190.987ZM153.438 215.592C151.804 218.143 150.182 220.259 148.855 221.791L151.123 223.755C152.546 222.111 154.254 219.879 155.964 217.21L153.438 215.592ZM149.393 224.15C152.146 225.341 155.182 226 158.368 226L158.369 223C155.6 223 152.969 222.428 150.585 221.396L149.393 224.15ZM158.368 226C170.86 226 180.991 215.878 180.994 203.39H177.994C177.991 214.22 169.205 223 158.369 223L158.368 226ZM180.994 203.39C180.997 192.933 173.9 184.139 164.261 181.551L163.482 184.449C171.845 186.693 177.997 194.325 177.994 203.39H180.994ZM162.409 183.333C162.806 185.08 162.709 187.722 162.272 190.775L165.241 191.2C165.688 188.083 165.86 184.98 165.334 182.667L162.409 183.333ZM173.395 203.39C173.397 197.218 169.673 191.919 164.354 189.611L163.159 192.363C167.421 194.213 170.396 198.456 170.395 203.39H173.395ZM158.37 218.404C166.665 218.404 173.393 211.683 173.395 203.39H170.395C170.393 210.025 165.011 215.404 158.371 215.404L158.37 218.404ZM154.295 217.845C155.592 218.21 156.96 218.404 158.37 218.404L158.371 215.404C157.238 215.404 156.144 215.248 155.108 214.957L154.295 217.845Z" fill="#111111" mask="url(#path-13-inside-1_1444_14875)"/>
<path d="M153.828 216.8L149.5 220.832C150.885 222.737 153.48 222.949 156.037 223C160.246 222.878 166.643 214.668 165.324 215.569C162.357 217.597 156.176 217.344 153.828 216.8Z" fill="#111111"/>
<path d="M167.548 182.733C167.167 211.429 144.899 234.503 117.799 234.503C90.6988 234.503 68.133 211.184 67.7449 182.487L167.548 182.733Z" fill="white" stroke="#111111" stroke-width="1.5"/>
<path d="M167.553 181.985C167.553 184.238 166.304 186.48 163.832 188.613C161.362 190.744 157.744 192.697 153.209 194.352C144.144 197.66 131.571 199.721 117.646 199.721C103.722 199.721 91.149 197.66 82.0839 194.352C77.5483 192.697 73.9305 190.744 71.4606 188.613C68.9885 186.48 67.7399 184.238 67.7399 181.985C67.7399 179.733 68.9885 177.491 71.4606 175.358C73.9305 173.227 77.5483 171.274 82.0839 169.619C91.149 166.311 103.722 164.25 117.646 164.25C131.571 164.25 144.144 166.311 153.209 169.619C157.744 171.274 161.362 173.227 163.832 175.358C166.304 177.491 167.553 179.733 167.553 181.985Z" fill="white" stroke="#111111" stroke-width="1.5"/>
<ellipse cx="104.486" cy="179.993" rx="2.56075" ry="1.50472" fill="#111111"/>
<ellipse cx="130.935" cy="179.993" rx="2.56075" ry="1.50472" fill="#111111"/>
<path d="M102.59 190.406C107.902 187.136 121.274 182.557 132.264 190.406" stroke="#111111" stroke-width="1.5" stroke-linecap="round"/>
<path d="M139.356 171.614C154.998 172.962 164.514 180.332 167.055 183.984C169.8 176.49 158.597 170.3 152.762 168.996L139.356 171.614Z" fill="#111111"/>
<path d="M68 184.5C72.8688 175.933 93.4442 169.5 118.088 169.5C142.22 169.5 162.099 175.624 167.5 183.925" stroke="#111111" stroke-width="1.5"/>
</svg>
