<svg width="1072" height="561" viewBox="0 0 1072 561" fill="none" xmlns="http://www.w3.org/2000/svg">
<rect width="1072" height="561" rx="8" fill="#E9E9E9"/>
<path d="M34.0703 38.2715V58H37.5977V51.4785H41.5898C45.582 51.4785 48.3848 48.8125 48.3848 44.875C48.3848 40.9375 45.6641 38.2715 41.7402 38.2715H34.0703ZM37.5977 41.1562H40.8105C43.3398 41.1562 44.8027 42.5098 44.8027 44.875C44.8027 47.2676 43.3262 48.6348 40.7969 48.6348H37.5977V41.1562ZM59.6777 53.666C59.3086 54.8691 58.1055 55.6621 56.5195 55.6621C54.291 55.6621 52.8691 54.1035 52.8691 51.7793V51.5742H63V50.4668C63 46.0645 60.4297 43.207 56.3145 43.207C52.1309 43.207 49.4785 46.2285 49.4785 50.8086C49.4785 55.4297 52.1035 58.2871 56.4512 58.2871C59.8828 58.2871 62.4258 56.4004 62.8633 53.666H59.6777ZM56.3281 45.8457C58.2832 45.8457 59.5957 47.2812 59.6641 49.332H52.8965C53.0332 47.3086 54.4141 45.8457 56.3281 45.8457ZM65.2012 58H68.6055V49.5645C68.6055 47.5273 69.7676 46.2832 71.6953 46.2832C72.2695 46.2832 72.7891 46.3652 73.0762 46.4746V43.3984C72.8301 43.3438 72.4473 43.2617 72.0098 43.2617C70.3008 43.2617 69.0293 44.2734 68.5371 46.0371H68.4688V43.5078H65.2012V58ZM75.8242 58H79.2285V46.1328H82.0723V43.5488H79.1738V42.3594C79.1738 41.1836 79.7617 40.5684 81.0605 40.5684C81.457 40.5684 81.8535 40.6094 82.1406 40.6504V38.2715C81.7168 38.1895 80.9785 38.1211 80.3086 38.1211C77.1641 38.1211 75.8242 39.4473 75.8242 42.2637V43.5488H73.8418V46.1328H75.8242V58ZM90.207 58.2871C94.459 58.2871 97.2207 55.457 97.2207 50.7539C97.2207 46.0645 94.4316 43.207 90.207 43.207C85.9824 43.207 83.1934 46.0781 83.1934 50.7539C83.1934 55.457 85.9551 58.2871 90.207 58.2871ZM90.207 55.5938C88.0469 55.5938 86.6523 53.8438 86.6523 50.7539C86.6523 47.6777 88.0605 45.9141 90.207 45.9141C92.3672 45.9141 93.7617 47.6777 93.7617 50.7539C93.7617 53.8438 92.3672 55.5938 90.207 55.5938ZM99.4082 58H102.812V49.5645C102.812 47.5273 103.975 46.2832 105.902 46.2832C106.477 46.2832 106.996 46.3652 107.283 46.4746V43.3984C107.037 43.3438 106.654 43.2617 106.217 43.2617C104.508 43.2617 103.236 44.2734 102.744 46.0371H102.676V43.5078H99.4082V58ZM109.033 58H112.438V49.127C112.438 47.377 113.586 46.1055 115.227 46.1055C116.812 46.1055 117.797 47.1035 117.797 48.7168V58H121.105V49.0449C121.105 47.3086 122.227 46.1055 123.867 46.1055C125.535 46.1055 126.465 47.1172 126.465 48.8945V58H129.869V48.0605C129.869 45.1621 127.996 43.2344 125.139 43.2344C123.047 43.2344 121.324 44.3555 120.627 46.1465H120.545C120.012 44.2871 118.549 43.2344 116.498 43.2344C114.529 43.2344 112.998 44.3418 112.369 46.0234H112.301V43.5078H109.033V58ZM136.869 58.2324C138.729 58.2324 140.547 57.2617 141.381 55.6895H141.449V58H144.73V48.0195C144.73 45.1074 142.393 43.207 138.797 43.207C135.105 43.207 132.795 45.1484 132.645 47.8555H135.803C136.021 46.6523 137.047 45.873 138.66 45.873C140.342 45.873 141.367 46.748 141.367 48.2656V49.3047L137.539 49.5234C134.012 49.7422 132.029 51.2871 132.029 53.8574C132.029 56.4688 134.066 58.2324 136.869 58.2324ZM137.895 55.6621C136.418 55.6621 135.434 54.9102 135.434 53.7207C135.434 52.5723 136.377 51.834 138.018 51.7246L141.367 51.5195V52.627C141.367 54.377 139.822 55.6621 137.895 55.6621ZM147.479 58H150.883V49.6055C150.883 47.5273 152.127 46.1191 154.082 46.1191C156.023 46.1191 156.98 47.2676 156.98 49.3184V58H160.385V48.6348C160.385 45.2852 158.566 43.2344 155.367 43.2344C153.139 43.2344 151.594 44.2734 150.814 45.9961H150.746V43.5078H147.479V58ZM175.889 48.6758C175.656 45.627 173.291 43.207 169.463 43.207C165.252 43.207 162.518 46.1191 162.518 50.7539C162.518 55.457 165.252 58.2871 169.49 58.2871C173.127 58.2871 175.629 56.1543 175.902 52.9141H172.689C172.375 54.5547 171.254 55.5391 169.531 55.5391C167.371 55.5391 165.977 53.7891 165.977 50.7539C165.977 47.7734 167.357 45.9688 169.504 45.9688C171.322 45.9688 172.402 47.1309 172.676 48.6758H175.889ZM187.537 53.666C187.168 54.8691 185.965 55.6621 184.379 55.6621C182.15 55.6621 180.729 54.1035 180.729 51.7793V51.5742H190.859V50.4668C190.859 46.0645 188.289 43.207 184.174 43.207C179.99 43.207 177.338 46.2285 177.338 50.8086C177.338 55.4297 179.963 58.2871 184.311 58.2871C187.742 58.2871 190.285 56.4004 190.723 53.666H187.537ZM184.188 45.8457C186.143 45.8457 187.455 47.2812 187.523 49.332H180.756C180.893 47.3086 182.273 45.8457 184.188 45.8457Z" fill="#111111"/>
<path d="M32.8984 84.0547C33.0469 86 34.6953 87.2656 37.0859 87.2656C39.6641 87.2656 41.2969 85.9453 41.2969 83.875C41.2969 82.2188 40.3594 81.3125 38.0234 80.7266L36.8438 80.4141C35.2891 80.0156 34.6719 79.5078 34.6719 78.625C34.6719 77.4844 35.6641 76.7344 37.1641 76.7344C38.5703 76.7344 39.5234 77.4219 39.7188 78.5781H41.1328C41.0156 76.7578 39.3906 75.4609 37.2109 75.4609C34.8281 75.4609 33.2266 76.7578 33.2266 78.6719C33.2266 80.2734 34.1094 81.1953 36.1484 81.7109L37.5938 82.0859C39.1484 82.4766 39.8516 83.0859 39.8516 84.0469C39.8516 85.1641 38.7344 85.9844 37.2188 85.9844C35.6172 85.9844 34.4922 85.2344 34.3203 84.0547H32.8984ZM43.5469 87H44.8906V82.0156C44.8906 80.5938 45.7188 79.6406 47.2266 79.6406C48.5 79.6406 49.1719 80.3828 49.1719 81.875V87H50.5156V81.5469C50.5156 79.5703 49.3906 78.4297 47.6094 78.4297C46.3203 78.4297 45.4375 78.9766 45.0156 79.9062H44.8906V75.2344H43.5469V87ZM56.4297 87.1484C58.8281 87.1484 60.3125 85.4922 60.3125 82.7891C60.3125 80.0781 58.8281 78.4297 56.4297 78.4297C54.0312 78.4297 52.5469 80.0781 52.5469 82.7891C52.5469 85.4922 54.0312 87.1484 56.4297 87.1484ZM56.4297 85.9375C54.8359 85.9375 53.9375 84.7812 53.9375 82.7891C53.9375 80.7891 54.8359 79.6406 56.4297 79.6406C58.0234 79.6406 58.9219 80.7891 58.9219 82.7891C58.9219 84.7812 58.0234 85.9375 56.4297 85.9375ZM72.7031 78.5781H71.3516L69.6953 85.3125H69.5703L67.6875 78.5781H66.3984L64.5156 85.3125H64.3906L62.7344 78.5781H61.375L63.7344 87H65.0938L66.9688 80.4844H67.0938L68.9766 87H70.3438L72.7031 78.5781ZM75.2031 76.9531C75.7188 76.9531 76.1406 76.5312 76.1406 76.0156C76.1406 75.5 75.7188 75.0781 75.2031 75.0781C74.6875 75.0781 74.2656 75.5 74.2656 76.0156C74.2656 76.5312 74.6875 76.9531 75.2031 76.9531ZM74.5312 87H75.875V78.5781H74.5312V87ZM78.4375 87H79.7812V82.0156C79.7812 80.5391 80.6484 79.6406 81.9922 79.6406C83.3359 79.6406 83.9766 80.3594 83.9766 81.875V87H85.3203V81.5469C85.3203 79.5469 84.2656 78.4297 82.375 78.4297C81.0859 78.4297 80.2656 78.9766 79.8438 79.9062H79.7188V78.5781H78.4375V87ZM91.25 90.2344C93.5469 90.2344 95 89.0312 95 87.1484V78.5781H93.7188V79.9141H93.5938C93.1094 79.0078 92.0703 78.4297 90.8906 78.4297C88.7266 78.4297 87.3594 80.1406 87.3594 82.6641C87.3594 85.1875 88.7109 86.875 90.8906 86.875C92.0469 86.875 93 86.3516 93.5312 85.4219H93.6562V87.0781C93.6562 88.3203 92.7578 89.0625 91.25 89.0625C90.0391 89.0625 89.2891 88.6172 89.1406 87.9297H87.7188C87.9219 89.3203 89.2188 90.2344 91.25 90.2344ZM91.1875 85.6875C89.625 85.6875 88.75 84.5 88.75 82.6641C88.75 80.8281 89.625 79.6406 91.1875 79.6406C92.7422 79.6406 93.6875 80.8281 93.6875 82.6641C93.6875 84.5 92.75 85.6875 91.1875 85.6875ZM105.164 87.1484C106.328 87.1484 107.328 86.5938 107.859 85.6562H107.984V87H109.266V75.2344H107.922V79.9062H107.805C107.328 78.9844 106.336 78.4297 105.164 78.4297C103.023 78.4297 101.625 80.1484 101.625 82.7891C101.625 85.4375 103.008 87.1484 105.164 87.1484ZM105.477 79.6406C107 79.6406 107.953 80.8594 107.953 82.7891C107.953 84.7344 107.008 85.9375 105.477 85.9375C103.938 85.9375 103.016 84.7578 103.016 82.7891C103.016 80.8281 103.945 79.6406 105.477 79.6406ZM114.219 87.1484C115.344 87.1484 116.266 86.6562 116.812 85.7578H116.938V87H118.219V81.2344C118.219 79.4844 117.07 78.4297 115.016 78.4297C113.219 78.4297 111.891 79.3203 111.711 80.6719H113.07C113.258 80.0078 113.961 79.625 114.969 79.625C116.227 79.625 116.875 80.1953 116.875 81.2344V82L114.445 82.1484C112.484 82.2656 111.375 83.1328 111.375 84.6406C111.375 86.1797 112.586 87.1484 114.219 87.1484ZM114.469 85.9688C113.492 85.9688 112.766 85.4688 112.766 84.6094C112.766 83.7656 113.328 83.3203 114.609 83.2344L116.875 83.0859V83.8594C116.875 85.0625 115.852 85.9688 114.469 85.9688ZM121.266 76.3984V78.5781H119.906V79.7031H121.266V84.8125C121.266 86.4219 121.961 87.0625 123.695 87.0625C123.961 87.0625 124.219 87.0312 124.484 86.9844V85.8516C124.234 85.875 124.102 85.8828 123.859 85.8828C122.984 85.8828 122.609 85.4609 122.609 84.4688V79.7031H124.484V78.5781H122.609V76.3984H121.266ZM128.859 87.1484C129.984 87.1484 130.906 86.6562 131.453 85.7578H131.578V87H132.859V81.2344C132.859 79.4844 131.711 78.4297 129.656 78.4297C127.859 78.4297 126.531 79.3203 126.352 80.6719H127.711C127.898 80.0078 128.602 79.625 129.609 79.625C130.867 79.625 131.516 80.1953 131.516 81.2344V82L129.086 82.1484C127.125 82.2656 126.016 83.1328 126.016 84.6406C126.016 86.1797 127.227 87.1484 128.859 87.1484ZM129.109 85.9688C128.133 85.9688 127.406 85.4688 127.406 84.6094C127.406 83.7656 127.969 83.3203 129.25 83.2344L131.516 83.0859V83.8594C131.516 85.0625 130.492 85.9688 129.109 85.9688ZM140.422 87H141.766V79.7031H143.695V78.5781H141.766V77.6797C141.766 76.7578 142.172 76.2891 143.141 76.2891C143.383 76.2891 143.609 76.2969 143.773 76.3281V75.2344C143.492 75.1797 143.195 75.1562 142.867 75.1562C141.266 75.1562 140.422 75.9609 140.422 77.6406V78.5781H139.023V79.7031H140.422V87ZM145.656 87H147V81.7812C147 80.5938 147.93 79.7344 149.211 79.7344C149.477 79.7344 149.961 79.7812 150.07 79.8125V78.4688C149.898 78.4453 149.617 78.4297 149.398 78.4297C148.281 78.4297 147.312 79.0078 147.062 79.8281H146.938V78.5781H145.656V87ZM154.977 87.1484C157.375 87.1484 158.859 85.4922 158.859 82.7891C158.859 80.0781 157.375 78.4297 154.977 78.4297C152.578 78.4297 151.094 80.0781 151.094 82.7891C151.094 85.4922 152.578 87.1484 154.977 87.1484ZM154.977 85.9375C153.383 85.9375 152.484 84.7812 152.484 82.7891C152.484 80.7891 153.383 79.6406 154.977 79.6406C156.57 79.6406 157.469 80.7891 157.469 82.7891C157.469 84.7812 156.57 85.9375 154.977 85.9375ZM160.969 87H162.312V81.7812C162.312 80.5938 163.164 79.6406 164.266 79.6406C165.328 79.6406 166.023 80.2812 166.023 81.2812V87H167.367V81.5859C167.367 80.5156 168.148 79.6406 169.32 79.6406C170.508 79.6406 171.094 80.25 171.094 81.4922V87H172.438V81.1797C172.438 79.4141 171.477 78.4297 169.758 78.4297C168.594 78.4297 167.633 79.0156 167.18 79.9062H167.055C166.664 79.0312 165.867 78.4297 164.727 78.4297C163.602 78.4297 162.758 78.9688 162.375 79.9062H162.25V78.5781H160.969V87ZM179.969 76.3984V78.5781H178.609V79.7031H179.969V84.8125C179.969 86.4219 180.664 87.0625 182.398 87.0625C182.664 87.0625 182.922 87.0312 183.188 86.9844V85.8516C182.938 85.875 182.805 85.8828 182.562 85.8828C181.688 85.8828 181.312 85.4609 181.312 84.4688V79.7031H183.188V78.5781H181.312V76.3984H179.969ZM185.297 87H186.641V82.0156C186.641 80.5938 187.469 79.6406 188.977 79.6406C190.25 79.6406 190.922 80.3828 190.922 81.875V87H192.266V81.5469C192.266 79.5703 191.141 78.4297 189.359 78.4297C188.07 78.4297 187.188 78.9766 186.766 79.9062H186.641V75.2344H185.297V87ZM200.297 84.8203C199.945 85.5625 199.211 85.9609 198.125 85.9609C196.695 85.9609 195.766 84.9062 195.695 83.2422V83.1797H201.75V82.6641C201.75 80.0469 200.367 78.4297 198.094 78.4297C195.781 78.4297 194.297 80.1484 194.297 82.7969C194.297 85.4609 195.758 87.1484 198.094 87.1484C199.938 87.1484 201.25 86.2578 201.641 84.8203H200.297ZM198.078 79.6172C199.414 79.6172 200.305 80.6016 200.336 82.0938H195.695C195.797 80.6016 196.734 79.6172 198.078 79.6172ZM208.453 87H209.797V75.2344H208.453V87ZM214.75 87.1484C215.875 87.1484 216.797 86.6562 217.344 85.7578H217.469V87H218.75V81.2344C218.75 79.4844 217.602 78.4297 215.547 78.4297C213.75 78.4297 212.422 79.3203 212.242 80.6719H213.602C213.789 80.0078 214.492 79.625 215.5 79.625C216.758 79.625 217.406 80.1953 217.406 81.2344V82L214.977 82.1484C213.016 82.2656 211.906 83.1328 211.906 84.6406C211.906 86.1797 213.117 87.1484 214.75 87.1484ZM215 85.9688C214.023 85.9688 213.297 85.4688 213.297 84.6094C213.297 83.7656 213.859 83.3203 215.141 83.2344L217.406 83.0859V83.8594C217.406 85.0625 216.383 85.9688 215 85.9688ZM221.039 80.8828C221.039 82.1016 221.758 82.7812 223.336 83.1641L224.781 83.5156C225.68 83.7344 226.117 84.125 226.117 84.7031C226.117 85.4766 225.305 86.0156 224.172 86.0156C223.094 86.0156 222.422 85.5625 222.195 84.8516H220.812C220.961 86.25 222.25 87.1484 224.125 87.1484C226.039 87.1484 227.5 86.1094 227.5 84.6016C227.5 83.3906 226.734 82.7031 225.148 82.3203L223.852 82.0078C222.859 81.7656 222.391 81.4062 222.391 80.8281C222.391 80.0781 223.172 79.5703 224.172 79.5703C225.188 79.5703 225.844 80.0156 226.023 80.6875H227.352C227.172 79.3047 225.945 78.4297 224.18 78.4297C222.391 78.4297 221.039 79.4844 221.039 80.8828ZM230.094 76.3984V78.5781H228.734V79.7031H230.094V84.8125C230.094 86.4219 230.789 87.0625 232.523 87.0625C232.789 87.0625 233.047 87.0312 233.312 86.9844V85.8516C233.062 85.875 232.93 85.8828 232.688 85.8828C231.812 85.8828 231.438 85.4609 231.438 84.4688V79.7031H233.312V78.5781H231.438V76.3984H230.094ZM242.219 81.8047H243.617C245.203 81.8047 246.18 82.6172 246.18 83.9219C246.18 85.1875 245.125 86.0391 243.641 86.0391C242.188 86.0391 241.172 85.2812 241.047 84.0938H239.688C239.789 86.0078 241.367 87.2656 243.656 87.2656C245.898 87.2656 247.625 85.8516 247.625 83.9609C247.625 82.3906 246.656 81.3984 245.195 81.1641V81.0391C246.352 80.7031 247.195 79.8047 247.203 78.4453C247.211 76.8672 245.93 75.4609 243.703 75.4609C241.422 75.4609 240.023 76.8125 239.883 78.6484H241.25C241.367 77.3828 242.25 76.6875 243.609 76.6875C244.969 76.6875 245.773 77.5469 245.773 78.6016C245.773 79.7734 244.852 80.6016 243.555 80.6016H242.219V81.8047ZM253.672 87.2656C256.203 87.2656 257.656 85.125 257.656 81.3828C257.656 77.6484 256.18 75.4609 253.672 75.4609C251.148 75.4609 249.672 77.6406 249.672 81.3594C249.672 85.1094 251.133 87.2656 253.672 87.2656ZM253.672 86.0391C252.008 86.0391 251.086 84.375 251.086 81.3594C251.086 78.3828 252.023 76.6953 253.672 76.6953C255.32 76.6953 256.242 78.3672 256.242 81.3594C256.242 84.3828 255.336 86.0391 253.672 86.0391ZM267.602 87.1484C268.766 87.1484 269.766 86.5938 270.297 85.6562H270.422V87H271.703V75.2344H270.359V79.9062H270.242C269.766 78.9844 268.773 78.4297 267.602 78.4297C265.461 78.4297 264.062 80.1484 264.062 82.7891C264.062 85.4375 265.445 87.1484 267.602 87.1484ZM267.914 79.6406C269.438 79.6406 270.391 80.8594 270.391 82.7891C270.391 84.7344 269.445 85.9375 267.914 85.9375C266.375 85.9375 265.453 84.7578 265.453 82.7891C265.453 80.8281 266.383 79.6406 267.914 79.6406ZM276.656 87.1484C277.781 87.1484 278.703 86.6562 279.25 85.7578H279.375V87H280.656V81.2344C280.656 79.4844 279.508 78.4297 277.453 78.4297C275.656 78.4297 274.328 79.3203 274.148 80.6719H275.508C275.695 80.0078 276.398 79.625 277.406 79.625C278.664 79.625 279.312 80.1953 279.312 81.2344V82L276.883 82.1484C274.922 82.2656 273.812 83.1328 273.812 84.6406C273.812 86.1797 275.023 87.1484 276.656 87.1484ZM276.906 85.9688C275.93 85.9688 275.203 85.4688 275.203 84.6094C275.203 83.7656 275.766 83.3203 277.047 83.2344L279.312 83.0859V83.8594C279.312 85.0625 278.289 85.9688 276.906 85.9688ZM283.547 90.0469C285.039 90.0469 285.711 89.4688 286.43 87.5156L289.719 78.5781H288.289L285.984 85.5078H285.859L283.547 78.5781H282.094L285.211 87.0078L285.055 87.5078C284.703 88.5234 284.281 88.8906 283.508 88.8906C283.32 88.8906 283.109 88.8828 282.945 88.8516V90C283.133 90.0312 283.367 90.0469 283.547 90.0469ZM291.086 80.8828C291.086 82.1016 291.805 82.7812 293.383 83.1641L294.828 83.5156C295.727 83.7344 296.164 84.125 296.164 84.7031C296.164 85.4766 295.352 86.0156 294.219 86.0156C293.141 86.0156 292.469 85.5625 292.242 84.8516H290.859C291.008 86.25 292.297 87.1484 294.172 87.1484C296.086 87.1484 297.547 86.1094 297.547 84.6016C297.547 83.3906 296.781 82.7031 295.195 82.3203L293.898 82.0078C292.906 81.7656 292.438 81.4062 292.438 80.8281C292.438 80.0781 293.219 79.5703 294.219 79.5703C295.234 79.5703 295.891 80.0156 296.07 80.6875H297.398C297.219 79.3047 295.992 78.4297 294.227 78.4297C292.438 78.4297 291.086 79.4844 291.086 80.8828Z" fill="#767676"/>
<rect x="32" y="115" width="488" height="400" rx="16" fill="white"/>
<rect x="552" y="115" width="488" height="400" rx="16" fill="#111111" fill-opacity="0.9"/>
<path d="M64.6641 154H66.8281L62.8203 142.727H60.5547L56.5547 154H58.5938L59.5625 151.086H63.7109L64.6641 154ZM61.5781 144.844H61.7109L63.2422 149.531H60.0312L61.5781 144.844ZM68.5625 154H70.5V149.023C70.5 147.742 71.2266 146.938 72.3828 146.938C73.5625 146.938 74.1094 147.602 74.1094 148.93V154H76.0469V148.477C76.0469 146.445 75.0078 145.297 73.1016 145.297C71.8281 145.297 70.9688 145.875 70.5625 146.828H70.4297V145.461H68.5625V154ZM80.6953 154.141C81.8125 154.141 82.75 153.656 83.2266 152.828H83.3594V154H85.2266V148.164C85.2266 146.359 83.9922 145.297 81.7969 145.297C79.7656 145.297 78.3516 146.25 78.1953 147.742H80.0234C80.2031 147.156 80.8125 146.836 81.7031 146.836C82.75 146.836 83.3125 147.312 83.3125 148.164V148.898L81.1094 149.031C79.0312 149.148 77.8672 150.047 77.8672 151.578C77.8672 153.141 79.0469 154.141 80.6953 154.141ZM81.2656 152.648C80.4062 152.648 79.7891 152.219 79.7891 151.484C79.7891 150.773 80.2969 150.375 81.3828 150.305L83.3125 150.172V150.867C83.3125 151.883 82.4375 152.648 81.2656 152.648ZM87.6406 154H89.5781V142.156H87.6406V154ZM92.9688 157.094C94.8828 157.094 95.7969 156.398 96.5234 154.297L99.6094 145.461H97.5625L95.5703 152.164H95.4375L93.4375 145.461H91.3125L94.3672 154.031L94.2656 154.43C94.0156 155.234 93.5547 155.547 92.7344 155.547C92.6016 155.547 92.3125 155.539 92.2031 155.523V157.062C92.3281 157.086 92.8516 157.094 92.9688 157.094ZM101.898 143.367V145.516H100.547V147.023H101.898V151.734C101.898 153.383 102.68 154.039 104.641 154.039C105.016 154.039 105.375 154.008 105.656 153.953V152.469C105.422 152.492 105.273 152.508 105 152.508C104.188 152.508 103.828 152.125 103.828 151.273V147.023H105.656V145.516H103.828V143.367H101.898ZM108.578 144.031C109.219 144.031 109.742 143.523 109.742 142.883C109.742 142.25 109.219 141.734 108.578 141.734C107.945 141.734 107.422 142.25 107.422 142.883C107.422 143.523 107.945 144.031 108.578 144.031ZM107.617 154H109.547V145.461H107.617V154ZM119.336 148.312C119.133 146.547 117.805 145.297 115.609 145.297C113.039 145.297 111.531 146.945 111.531 149.711C111.531 152.508 113.047 154.172 115.617 154.172C117.781 154.172 119.125 152.969 119.336 151.203H117.492C117.289 152.102 116.617 152.578 115.609 152.578C114.289 152.578 113.492 151.523 113.492 149.711C113.492 147.93 114.281 146.883 115.609 146.883C116.672 146.883 117.312 147.484 117.492 148.312H119.336ZM120.992 147.898C120.992 149.18 121.766 149.93 123.406 150.305L124.922 150.656C125.734 150.844 126.102 151.156 126.102 151.641C126.102 152.289 125.422 152.734 124.445 152.734C123.477 152.734 122.875 152.344 122.688 151.711H120.773C120.922 153.25 122.266 154.172 124.398 154.172C126.531 154.172 128.039 153.086 128.039 151.453C128.039 150.195 127.281 149.5 125.648 149.125L124.141 148.789C123.281 148.586 122.875 148.281 122.875 147.797C122.875 147.164 123.539 146.734 124.422 146.734C125.328 146.734 125.898 147.125 126.039 147.727H127.859C127.719 146.188 126.445 145.297 124.414 145.297C122.398 145.297 120.992 146.367 120.992 147.898ZM137.953 154.172C140.508 154.172 142.062 152.5 142.062 149.727C142.062 146.969 140.5 145.297 137.953 145.297C135.414 145.297 133.844 146.977 133.844 149.727C133.844 152.5 135.391 154.172 137.953 154.172ZM137.953 152.586C136.602 152.586 135.828 151.539 135.828 149.734C135.828 147.93 136.602 146.883 137.953 146.883C139.297 146.883 140.07 147.93 140.07 149.734C140.07 151.539 139.305 152.586 137.953 152.586ZM151.125 145.461H149.078L147.117 152.102H146.984L145.008 145.461H142.93L145.969 154H148.102L151.125 145.461ZM157.992 151.664C157.711 152.305 157.047 152.664 156.086 152.664C154.812 152.664 153.992 151.758 153.945 150.312V150.211H159.914V149.594C159.914 146.914 158.453 145.297 156.016 145.297C153.539 145.297 152 147.023 152 149.766C152 152.5 153.516 154.172 156.031 154.172C158.047 154.172 159.477 153.203 159.828 151.664H157.992ZM156.008 146.805C157.172 146.805 157.938 147.625 157.977 148.922H153.953C154.039 147.641 154.852 146.805 156.008 146.805ZM161.859 154H163.797V149.039C163.797 147.836 164.672 147.055 165.93 147.055C166.258 147.055 166.773 147.109 166.922 147.164V145.398C166.742 145.352 166.398 145.32 166.117 145.32C165.016 145.32 164.094 145.945 163.859 146.789H163.727V145.461H161.859V154ZM176.047 145.461H174L172.039 152.102H171.906L169.93 145.461H167.852L170.891 154H173.023L176.047 145.461ZM178.672 144.031C179.312 144.031 179.836 143.523 179.836 142.883C179.836 142.25 179.312 141.734 178.672 141.734C178.039 141.734 177.516 142.25 177.516 142.883C177.516 143.523 178.039 144.031 178.672 144.031ZM177.711 154H179.641V145.461H177.711V154ZM187.617 151.664C187.336 152.305 186.672 152.664 185.711 152.664C184.438 152.664 183.617 151.758 183.57 150.312V150.211H189.539V149.594C189.539 146.914 188.078 145.297 185.641 145.297C183.164 145.297 181.625 147.023 181.625 149.766C181.625 152.5 183.141 154.172 185.656 154.172C187.672 154.172 189.102 153.203 189.453 151.664H187.617ZM185.633 146.805C186.797 146.805 187.562 147.625 187.602 148.922H183.578C183.664 147.641 184.477 146.805 185.633 146.805ZM202.82 145.461H200.891L199.477 151.875H199.344L197.688 145.461H195.836L194.195 151.875H194.062L192.641 145.461H190.688L193 154H195.016L196.672 147.812H196.805L198.469 154H200.508L202.82 145.461Z" fill="#111111"/>
<path fill-rule="evenodd" clip-rule="evenodd" d="M220 147C219.447 147 219 146.553 219 146C219 145.447 219.447 145 220 145C220.553 145 221 145.447 221 146C221 146.553 220.553 147 220 147ZM221 152C221 152.553 220.553 153 220 153C219.447 153 219 152.553 219 152V148.667C219 148.114 219.447 147.667 220 147.667C220.553 147.667 221 148.114 221 148.667V152ZM220 141C215.582 141 212 144.582 212 149C212 153.418 215.582 157 220 157C224.418 157 228 153.418 228 149C228 144.582 224.418 141 220 141Z" fill="#111111"/>
<path d="M319.98 149C319.245 148.998 318.651 148.399 318.653 147.663L318.658 146.215L313.939 150.943C313.419 151.464 312.576 151.464 312.056 150.943C311.537 150.422 311.537 149.578 312.056 149.057L316.771 144.333L315.326 144.333C314.591 144.333 313.996 143.736 313.996 143C313.996 142.264 314.591 141.667 315.326 141.667L321.333 141.667L321.315 147.671C321.313 148.407 320.715 149.002 319.98 149Z" fill="#111111"/>
<path d="M307.5 143.667C307.04 143.667 306.667 144.04 306.667 144.5V155.5C306.667 155.96 307.04 156.333 307.5 156.333H318.5C318.96 156.333 319.333 155.96 319.333 155.5V152.491C319.333 152.031 318.96 151.658 318.5 151.658C318.04 151.658 317.667 152.031 317.667 152.491V154.667H308.333V145.333H310.5C310.96 145.333 311.333 144.96 311.333 144.5C311.333 144.04 310.96 143.667 310.5 143.667H307.5Z" fill="#111111"/>
<rect x="739" y="435" width="114" height="48" rx="24" fill="#E9E9E9"/>
<path d="M761.367 464.781C763.969 464.781 765.875 463.242 766.141 460.961H764.156C763.883 462.227 762.797 463.031 761.367 463.031C759.445 463.031 758.25 461.43 758.25 458.859C758.25 456.297 759.445 454.695 761.359 454.695C762.781 454.695 763.867 455.578 764.148 456.938H766.133C765.898 454.602 763.922 452.945 761.359 452.945C758.164 452.945 756.188 455.203 756.188 458.867C756.188 462.516 758.172 464.781 761.367 464.781ZM768.18 464.5H770.117V459.539C770.117 458.336 770.992 457.555 772.25 457.555C772.578 457.555 773.094 457.609 773.242 457.664V455.898C773.062 455.852 772.719 455.82 772.438 455.82C771.336 455.82 770.414 456.445 770.18 457.289H770.047V455.961H768.18V464.5ZM780.188 462.164C779.906 462.805 779.242 463.164 778.281 463.164C777.008 463.164 776.188 462.258 776.141 460.812V460.711H782.109V460.094C782.109 457.414 780.648 455.797 778.211 455.797C775.734 455.797 774.195 457.523 774.195 460.266C774.195 463 775.711 464.672 778.227 464.672C780.242 464.672 781.672 463.703 782.023 462.164H780.188ZM778.203 457.305C779.367 457.305 780.133 458.125 780.172 459.422H776.148C776.234 458.141 777.047 457.305 778.203 457.305ZM786.406 464.641C787.523 464.641 788.461 464.156 788.938 463.328H789.07V464.5H790.938V458.664C790.938 456.859 789.703 455.797 787.508 455.797C785.477 455.797 784.062 456.75 783.906 458.242H785.734C785.914 457.656 786.523 457.336 787.414 457.336C788.461 457.336 789.023 457.812 789.023 458.664V459.398L786.82 459.531C784.742 459.648 783.578 460.547 783.578 462.078C783.578 463.641 784.758 464.641 786.406 464.641ZM786.977 463.148C786.117 463.148 785.5 462.719 785.5 461.984C785.5 461.273 786.008 460.875 787.094 460.805L789.023 460.672V461.367C789.023 462.383 788.148 463.148 786.977 463.148ZM793.891 453.867V456.016H792.539V457.523H793.891V462.234C793.891 463.883 794.672 464.539 796.633 464.539C797.008 464.539 797.367 464.508 797.648 464.453V462.969C797.414 462.992 797.266 463.008 796.992 463.008C796.18 463.008 795.82 462.625 795.82 461.773V457.523H797.648V456.016H795.82V453.867H793.891ZM805.078 462.164C804.797 462.805 804.133 463.164 803.172 463.164C801.898 463.164 801.078 462.258 801.031 460.812V460.711H807V460.094C807 457.414 805.539 455.797 803.102 455.797C800.625 455.797 799.086 457.523 799.086 460.266C799.086 463 800.602 464.672 803.117 464.672C805.133 464.672 806.562 463.703 806.914 462.164H805.078ZM803.094 457.305C804.258 457.305 805.023 458.125 805.062 459.422H801.039C801.125 458.141 801.938 457.305 803.094 457.305ZM813.414 453.227V464.5H815.43V460.773H817.875C820.156 460.773 821.75 459.25 821.75 457.023C821.75 454.758 820.211 453.227 817.961 453.227H813.414ZM815.43 454.875H817.43C818.883 454.875 819.703 455.625 819.703 457.023C819.703 458.383 818.859 459.148 817.422 459.148H815.43V454.875ZM824.758 454.531C825.398 454.531 825.922 454.023 825.922 453.383C825.922 452.75 825.398 452.234 824.758 452.234C824.125 452.234 823.602 452.75 823.602 453.383C823.602 454.023 824.125 454.531 824.758 454.531ZM823.797 464.5H825.727V455.961H823.797V464.5ZM828.133 464.5H830.07V459.523C830.07 458.242 830.797 457.438 831.953 457.438C833.133 457.438 833.68 458.102 833.68 459.43V464.5H835.617V458.977C835.617 456.945 834.578 455.797 832.672 455.797C831.398 455.797 830.539 456.375 830.133 457.328H830V455.961H828.133V464.5Z" fill="#111111"/>
<path d="M679.836 302V296.443L684.777 287.908H682.033L678.625 294.041H678.566L675.148 287.908H672.385L677.326 296.443V302H679.836ZM688.576 302.205C691.613 302.205 693.586 300.184 693.586 296.824C693.586 293.475 691.594 291.434 688.576 291.434C685.559 291.434 683.566 293.484 683.566 296.824C683.566 300.184 685.539 302.205 688.576 302.205ZM688.576 300.281C687.033 300.281 686.037 299.031 686.037 296.824C686.037 294.627 687.043 293.367 688.576 293.367C690.119 293.367 691.115 294.627 691.115 296.824C691.115 299.031 690.119 300.281 688.576 300.281ZM704.328 291.648H701.896V297.635C701.896 299.139 701.027 300.135 699.621 300.135C698.254 300.135 697.531 299.334 697.531 297.85V291.648H695.1V298.338C695.1 300.73 696.525 302.186 698.771 302.186C700.344 302.186 701.389 301.463 701.936 300.203H701.984V302H704.328V291.648ZM714.191 302.166C715.705 302.166 716.896 301.395 717.463 300.232H717.502V302H719.885V287.908H717.453V293.387H717.395C716.848 292.244 715.676 291.473 714.191 291.473C711.584 291.473 709.895 293.543 709.895 296.814C709.895 300.105 711.584 302.166 714.191 302.166ZM714.924 293.475C716.457 293.475 717.463 294.793 717.463 296.824C717.463 298.875 716.457 300.174 714.924 300.174C713.352 300.174 712.385 298.885 712.385 296.824C712.385 294.773 713.361 293.475 714.924 293.475ZM726.506 302.205C729.543 302.205 731.516 300.184 731.516 296.824C731.516 293.475 729.523 291.434 726.506 291.434C723.488 291.434 721.496 293.484 721.496 296.824C721.496 300.184 723.469 302.205 726.506 302.205ZM726.506 300.281C724.963 300.281 723.967 299.031 723.967 296.824C723.967 294.627 724.973 293.367 726.506 293.367C728.049 293.367 729.045 294.627 729.045 296.824C729.045 299.031 728.049 300.281 726.506 300.281ZM733.078 302H735.51V296.004C735.51 294.52 736.398 293.514 737.795 293.514C739.182 293.514 739.865 294.334 739.865 295.799V302H742.297V295.311C742.297 292.918 740.998 291.453 738.713 291.453C737.121 291.453 736.018 292.195 735.461 293.426H735.412V291.648H733.078V302ZM745.598 293.211L746.975 287.908H744.592L743.723 293.211H745.598ZM749.826 289.227V291.648H748.342V293.523H749.826V299.246C749.826 301.258 750.705 302.049 752.941 302.049C753.459 302.049 753.938 302.01 754.201 301.951V300.096C754.045 300.125 753.732 300.145 753.508 300.145C752.648 300.145 752.258 299.754 752.258 298.904V293.523H754.211V291.648H752.258V289.227H749.826ZM759.943 302H762.375V296.053C762.375 294.529 763.264 293.514 764.729 293.514C766.135 293.514 766.857 294.383 766.857 295.828V302H769.289V295.33C769.289 292.957 767.951 291.453 765.666 291.453C764.094 291.453 762.951 292.166 762.395 293.426H762.346V287.908H759.943V302ZM774.289 302.166C775.617 302.166 776.916 301.473 777.512 300.35H777.561V302H779.904V294.871C779.904 292.791 778.234 291.434 775.666 291.434C773.029 291.434 771.379 292.82 771.271 294.754H773.527C773.684 293.895 774.416 293.338 775.568 293.338C776.77 293.338 777.502 293.963 777.502 295.047V295.789L774.768 295.945C772.248 296.102 770.832 297.205 770.832 299.041C770.832 300.906 772.287 302.166 774.289 302.166ZM775.021 300.33C773.967 300.33 773.264 299.793 773.264 298.943C773.264 298.123 773.938 297.596 775.109 297.518L777.502 297.371V298.162C777.502 299.412 776.398 300.33 775.021 300.33ZM790.939 291.648H788.4L785.998 299.744H785.949L783.547 291.648H780.949L784.621 302H787.297L790.939 291.648ZM798.625 298.904C798.361 299.764 797.502 300.33 796.369 300.33C794.777 300.33 793.762 299.217 793.762 297.557V297.41H800.998V296.619C800.998 293.475 799.162 291.434 796.223 291.434C793.234 291.434 791.34 293.592 791.34 296.863C791.34 300.164 793.215 302.205 796.32 302.205C798.771 302.205 800.588 300.857 800.9 298.904H798.625ZM796.232 293.318C797.629 293.318 798.566 294.344 798.615 295.809H793.781C793.879 294.363 794.865 293.318 796.232 293.318ZM809.621 302.166C810.949 302.166 812.248 301.473 812.844 300.35H812.893V302H815.236V294.871C815.236 292.791 813.566 291.434 810.998 291.434C808.361 291.434 806.711 292.82 806.604 294.754H808.859C809.016 293.895 809.748 293.338 810.9 293.338C812.102 293.338 812.834 293.963 812.834 295.047V295.789L810.1 295.945C807.58 296.102 806.164 297.205 806.164 299.041C806.164 300.906 807.619 302.166 809.621 302.166ZM810.354 300.33C809.299 300.33 808.596 299.793 808.596 298.943C808.596 298.123 809.27 297.596 810.441 297.518L812.834 297.371V298.162C812.834 299.412 811.73 300.33 810.354 300.33ZM817.199 302H819.631V296.004C819.631 294.52 820.52 293.514 821.916 293.514C823.303 293.514 823.986 294.334 823.986 295.799V302H826.418V295.311C826.418 292.918 825.119 291.453 822.834 291.453C821.242 291.453 820.139 292.195 819.582 293.426H819.533V291.648H817.199V302ZM829.494 305.848C831.857 305.848 833 304.979 833.879 302.41L837.629 291.648H835.07L832.629 299.93H832.58L830.148 291.648H827.492L831.174 302.01C831.184 302.039 831.027 302.557 831.027 302.586C830.764 303.543 830.246 303.924 829.24 303.924C829.094 303.924 828.664 303.914 828.537 303.885V305.809C828.664 305.838 829.348 305.848 829.494 305.848ZM846.652 302.166C848.166 302.166 849.357 301.395 849.924 300.232H849.963V302H852.346V287.908H849.914V293.387H849.855C849.309 292.244 848.137 291.473 846.652 291.473C844.045 291.473 842.355 293.543 842.355 296.814C842.355 300.105 844.045 302.166 846.652 302.166ZM847.385 293.475C848.918 293.475 849.924 294.793 849.924 296.824C849.924 298.875 848.918 300.174 847.385 300.174C845.812 300.174 844.846 298.885 844.846 296.824C844.846 294.773 845.822 293.475 847.385 293.475ZM857.434 302.166C858.762 302.166 860.061 301.473 860.656 300.35H860.705V302H863.049V294.871C863.049 292.791 861.379 291.434 858.811 291.434C856.174 291.434 854.523 292.82 854.416 294.754H856.672C856.828 293.895 857.561 293.338 858.713 293.338C859.914 293.338 860.646 293.963 860.646 295.047V295.789L857.912 295.945C855.393 296.102 853.977 297.205 853.977 299.041C853.977 300.906 855.432 302.166 857.434 302.166ZM858.166 300.33C857.111 300.33 856.408 299.793 856.408 298.943C856.408 298.123 857.082 297.596 858.254 297.518L860.646 297.371V298.162C860.646 299.412 859.543 300.33 858.166 300.33ZM865.686 289.227V291.648H864.201V293.523H865.686V299.246C865.686 301.258 866.564 302.049 868.801 302.049C869.318 302.049 869.797 302.01 870.061 301.951V300.096C869.904 300.125 869.592 300.145 869.367 300.145C868.508 300.145 868.117 299.754 868.117 298.904V293.523H870.07V291.648H868.117V289.227H865.686ZM874.641 302.166C875.969 302.166 877.268 301.473 877.863 300.35H877.912V302H880.256V294.871C880.256 292.791 878.586 291.434 876.018 291.434C873.381 291.434 871.73 292.82 871.623 294.754H873.879C874.035 293.895 874.768 293.338 875.92 293.338C877.121 293.338 877.854 293.963 877.854 295.047V295.789L875.119 295.945C872.6 296.102 871.184 297.205 871.184 299.041C871.184 300.906 872.639 302.166 874.641 302.166ZM875.373 300.33C874.318 300.33 873.615 299.793 873.615 298.943C873.615 298.123 874.289 297.596 875.461 297.518L877.854 297.371V298.162C877.854 299.412 876.75 300.33 875.373 300.33ZM887.385 305.848C889.748 305.848 890.891 304.979 891.77 302.41L895.52 291.648H892.961L890.52 299.93H890.471L888.039 291.648H885.383L889.064 302.01C889.074 302.039 888.918 302.557 888.918 302.586C888.654 303.543 888.137 303.924 887.131 303.924C886.984 303.924 886.555 303.914 886.428 303.885V305.809C886.555 305.838 887.238 305.848 887.385 305.848ZM903.234 298.904C902.971 299.764 902.111 300.33 900.979 300.33C899.387 300.33 898.371 299.217 898.371 297.557V297.41H905.607V296.619C905.607 293.475 903.771 291.434 900.832 291.434C897.844 291.434 895.949 293.592 895.949 296.863C895.949 300.164 897.824 302.205 900.93 302.205C903.381 302.205 905.197 300.857 905.51 298.904H903.234ZM900.842 293.318C902.238 293.318 903.176 294.344 903.225 295.809H898.391C898.488 294.363 899.475 293.318 900.842 293.318ZM907.854 289.227V291.648H906.369V293.523H907.854V299.246C907.854 301.258 908.732 302.049 910.969 302.049C911.486 302.049 911.965 302.01 912.229 301.951V300.096C912.072 300.125 911.76 300.145 911.535 300.145C910.676 300.145 910.285 299.754 910.285 298.904V293.523H912.238V291.648H910.285V289.227H907.854ZM914.631 287.908L914.826 297.352H916.945L917.141 287.908H914.631ZM915.881 302.195C916.682 302.195 917.307 301.58 917.307 300.809C917.307 300.037 916.682 299.432 915.881 299.432C915.09 299.432 914.465 300.037 914.465 300.809C914.465 301.58 915.09 302.195 915.881 302.195Z" fill="white"/>
<path d="M666.531 326.727V338H667.938V333.977H670.773C672.891 333.977 674.398 332.484 674.398 330.375C674.398 328.227 672.922 326.727 670.789 326.727H666.531ZM667.938 327.977H670.422C672.055 327.977 672.953 328.828 672.953 330.375C672.953 331.867 672.023 332.727 670.422 332.727H667.938V327.977ZM677.234 327.953C677.75 327.953 678.172 327.531 678.172 327.016C678.172 326.5 677.75 326.078 677.234 326.078C676.719 326.078 676.297 326.5 676.297 327.016C676.297 327.531 676.719 327.953 677.234 327.953ZM676.562 338H677.906V329.578H676.562V338ZM680.469 338H681.812V333.016C681.812 331.539 682.68 330.641 684.023 330.641C685.367 330.641 686.008 331.359 686.008 332.875V338H687.352V332.547C687.352 330.547 686.297 329.43 684.406 329.43C683.117 329.43 682.297 329.977 681.875 330.906H681.75V329.578H680.469V338ZM689.617 331.883C689.617 333.102 690.336 333.781 691.914 334.164L693.359 334.516C694.258 334.734 694.695 335.125 694.695 335.703C694.695 336.477 693.883 337.016 692.75 337.016C691.672 337.016 691 336.562 690.773 335.852H689.391C689.539 337.25 690.828 338.148 692.703 338.148C694.617 338.148 696.078 337.109 696.078 335.602C696.078 334.391 695.312 333.703 693.727 333.32L692.43 333.008C691.438 332.766 690.969 332.406 690.969 331.828C690.969 331.078 691.75 330.57 692.75 330.57C693.766 330.57 694.422 331.016 694.602 331.688H695.93C695.75 330.305 694.523 329.43 692.758 329.43C690.969 329.43 689.617 330.484 689.617 331.883ZM705.047 338.148C706.172 338.148 707.094 337.656 707.641 336.758H707.766V338H709.047V332.234C709.047 330.484 707.898 329.43 705.844 329.43C704.047 329.43 702.719 330.32 702.539 331.672H703.898C704.086 331.008 704.789 330.625 705.797 330.625C707.055 330.625 707.703 331.195 707.703 332.234V333L705.273 333.148C703.312 333.266 702.203 334.133 702.203 335.641C702.203 337.18 703.414 338.148 705.047 338.148ZM705.297 336.969C704.32 336.969 703.594 336.469 703.594 335.609C703.594 334.766 704.156 334.32 705.438 334.234L707.703 334.086V334.859C707.703 336.062 706.68 336.969 705.297 336.969ZM711.531 338H712.875V332.781C712.875 331.594 713.805 330.734 715.086 330.734C715.352 330.734 715.836 330.781 715.945 330.812V329.469C715.773 329.445 715.492 329.43 715.273 329.43C714.156 329.43 713.188 330.008 712.938 330.828H712.812V329.578H711.531V338ZM722.969 335.82C722.617 336.562 721.883 336.961 720.797 336.961C719.367 336.961 718.438 335.906 718.367 334.242V334.18H724.422V333.664C724.422 331.047 723.039 329.43 720.766 329.43C718.453 329.43 716.969 331.148 716.969 333.797C716.969 336.461 718.43 338.148 720.766 338.148C722.609 338.148 723.922 337.258 724.312 335.82H722.969ZM720.75 330.617C722.086 330.617 722.977 331.602 723.008 333.094H718.367C718.469 331.602 719.406 330.617 720.75 330.617ZM731.125 338H732.469V333.016C732.469 331.594 733.297 330.641 734.805 330.641C736.078 330.641 736.75 331.383 736.75 332.875V338H738.094V332.547C738.094 330.57 736.969 329.43 735.188 329.43C733.898 329.43 733.016 329.977 732.594 330.906H732.469V326.234H731.125V338ZM744.008 338.148C746.406 338.148 747.891 336.492 747.891 333.789C747.891 331.078 746.406 329.43 744.008 329.43C741.609 329.43 740.125 331.078 740.125 333.789C740.125 336.492 741.609 338.148 744.008 338.148ZM744.008 336.938C742.414 336.938 741.516 335.781 741.516 333.789C741.516 331.789 742.414 330.641 744.008 330.641C745.602 330.641 746.5 331.789 746.5 333.789C746.5 335.781 745.602 336.938 744.008 336.938ZM760.281 329.578H758.93L757.273 336.312H757.148L755.266 329.578H753.977L752.094 336.312H751.969L750.312 329.578H748.953L751.312 338H752.672L754.547 331.484H754.672L756.555 338H757.922L760.281 329.578ZM767.312 341.047C768.805 341.047 769.477 340.469 770.195 338.516L773.484 329.578H772.055L769.75 336.508H769.625L767.312 329.578H765.859L768.977 338.008L768.82 338.508C768.469 339.523 768.047 339.891 767.273 339.891C767.086 339.891 766.875 339.883 766.711 339.852V341C766.898 341.031 767.133 341.047 767.312 341.047ZM778.43 338.148C780.828 338.148 782.312 336.492 782.312 333.789C782.312 331.078 780.828 329.43 778.43 329.43C776.031 329.43 774.547 331.078 774.547 333.789C774.547 336.492 776.031 338.148 778.43 338.148ZM778.43 336.938C776.836 336.938 775.938 335.781 775.938 333.789C775.938 331.789 776.836 330.641 778.43 330.641C780.023 330.641 780.922 331.789 780.922 333.789C780.922 335.781 780.023 336.938 778.43 336.938ZM791.234 329.578H789.891V334.562C789.891 336.039 789.078 336.922 787.594 336.922C786.25 336.922 785.688 336.219 785.688 334.703V329.578H784.344V335.031C784.344 337.023 785.328 338.148 787.219 338.148C788.508 338.148 789.406 337.617 789.828 336.68H789.953V338H791.234V329.578ZM803.859 335.82C803.508 336.562 802.773 336.961 801.688 336.961C800.258 336.961 799.328 335.906 799.258 334.242V334.18H805.312V333.664C805.312 331.047 803.93 329.43 801.656 329.43C799.344 329.43 797.859 331.148 797.859 333.797C797.859 336.461 799.32 338.148 801.656 338.148C803.5 338.148 804.812 337.258 805.203 335.82H803.859ZM801.641 330.617C802.977 330.617 803.867 331.602 803.898 333.094H799.258C799.359 331.602 800.297 330.617 801.641 330.617ZM807.422 338H808.766V333.016C808.766 331.539 809.633 330.641 810.977 330.641C812.32 330.641 812.961 331.359 812.961 332.875V338H814.305V332.547C814.305 330.547 813.25 329.43 811.359 329.43C810.07 329.43 809.25 329.977 808.828 330.906H808.703V329.578H807.422V338ZM820.234 341.234C822.531 341.234 823.984 340.031 823.984 338.148V329.578H822.703V330.914H822.578C822.094 330.008 821.055 329.43 819.875 329.43C817.711 329.43 816.344 331.141 816.344 333.664C816.344 336.188 817.695 337.875 819.875 337.875C821.031 337.875 821.984 337.352 822.516 336.422H822.641V338.078C822.641 339.32 821.742 340.062 820.234 340.062C819.023 340.062 818.273 339.617 818.125 338.93H816.703C816.906 340.32 818.203 341.234 820.234 341.234ZM820.172 336.688C818.609 336.688 817.734 335.5 817.734 333.664C817.734 331.828 818.609 330.641 820.172 330.641C821.727 330.641 822.672 331.828 822.672 333.664C822.672 335.5 821.734 336.688 820.172 336.688ZM828.859 338.148C829.984 338.148 830.906 337.656 831.453 336.758H831.578V338H832.859V332.234C832.859 330.484 831.711 329.43 829.656 329.43C827.859 329.43 826.531 330.32 826.352 331.672H827.711C827.898 331.008 828.602 330.625 829.609 330.625C830.867 330.625 831.516 331.195 831.516 332.234V333L829.086 333.148C827.125 333.266 826.016 334.133 826.016 335.641C826.016 337.18 827.227 338.148 828.859 338.148ZM829.109 336.969C828.133 336.969 827.406 336.469 827.406 335.609C827.406 334.766 827.969 334.32 829.25 334.234L831.516 334.086V334.859C831.516 336.062 830.492 336.969 829.109 336.969ZM838.812 341.234C841.109 341.234 842.562 340.031 842.562 338.148V329.578H841.281V330.914H841.156C840.672 330.008 839.633 329.43 838.453 329.43C836.289 329.43 834.922 331.141 834.922 333.664C834.922 336.188 836.273 337.875 838.453 337.875C839.609 337.875 840.562 337.352 841.094 336.422H841.219V338.078C841.219 339.32 840.32 340.062 838.812 340.062C837.602 340.062 836.852 339.617 836.703 338.93H835.281C835.484 340.32 836.781 341.234 838.812 341.234ZM838.75 336.688C837.188 336.688 836.312 335.5 836.312 333.664C836.312 331.828 837.188 330.641 838.75 330.641C840.305 330.641 841.25 331.828 841.25 333.664C841.25 335.5 840.312 336.688 838.75 336.688ZM850.672 335.82C850.32 336.562 849.586 336.961 848.5 336.961C847.07 336.961 846.141 335.906 846.07 334.242V334.18H852.125V333.664C852.125 331.047 850.742 329.43 848.469 329.43C846.156 329.43 844.672 331.148 844.672 333.797C844.672 336.461 846.133 338.148 848.469 338.148C850.312 338.148 851.625 337.258 852.016 335.82H850.672ZM848.453 330.617C849.789 330.617 850.68 331.602 850.711 333.094H846.07C846.172 331.602 847.109 330.617 848.453 330.617ZM869.344 329.578H867.992L866.336 336.312H866.211L864.328 329.578H863.039L861.156 336.312H861.031L859.375 329.578H858.016L860.375 338H861.734L863.609 331.484H863.734L865.617 338H866.984L869.344 329.578ZM871.844 327.953C872.359 327.953 872.781 327.531 872.781 327.016C872.781 326.5 872.359 326.078 871.844 326.078C871.328 326.078 870.906 326.5 870.906 327.016C870.906 327.531 871.328 327.953 871.844 327.953ZM871.172 338H872.516V329.578H871.172V338ZM875.641 327.398V329.578H874.281V330.703H875.641V335.812C875.641 337.422 876.336 338.062 878.07 338.062C878.336 338.062 878.594 338.031 878.859 337.984V336.852C878.609 336.875 878.477 336.883 878.234 336.883C877.359 336.883 876.984 336.461 876.984 335.469V330.703H878.859V329.578H876.984V327.398H875.641ZM880.969 338H882.312V333.016C882.312 331.594 883.141 330.641 884.648 330.641C885.922 330.641 886.594 331.383 886.594 332.875V338H887.938V332.547C887.938 330.57 886.812 329.43 885.031 329.43C883.742 329.43 882.859 329.977 882.438 330.906H882.312V326.234H880.969V338ZM895.625 341.047C897.117 341.047 897.789 340.469 898.508 338.516L901.797 329.578H900.367L898.062 336.508H897.938L895.625 329.578H894.172L897.289 338.008L897.133 338.508C896.781 339.523 896.359 339.891 895.586 339.891C895.398 339.891 895.188 339.883 895.023 339.852V341C895.211 341.031 895.445 341.047 895.625 341.047ZM906.742 338.148C909.141 338.148 910.625 336.492 910.625 333.789C910.625 331.078 909.141 329.43 906.742 329.43C904.344 329.43 902.859 331.078 902.859 333.789C902.859 336.492 904.344 338.148 906.742 338.148ZM906.742 336.938C905.148 336.938 904.25 335.781 904.25 333.789C904.25 331.789 905.148 330.641 906.742 330.641C908.336 330.641 909.234 331.789 909.234 333.789C909.234 335.781 908.336 336.938 906.742 336.938ZM919.547 329.578H918.203V334.562C918.203 336.039 917.391 336.922 915.906 336.922C914.562 336.922 914 336.219 914 334.703V329.578H912.656V335.031C912.656 337.023 913.641 338.148 915.531 338.148C916.82 338.148 917.719 337.617 918.141 336.68H918.266V338H919.547V329.578ZM922.078 338H923.422V332.781C923.422 331.594 924.352 330.734 925.633 330.734C925.898 330.734 926.383 330.781 926.492 330.812V329.469C926.32 329.445 926.039 329.43 925.82 329.43C924.703 329.43 923.734 330.008 923.484 330.828H923.359V329.578H922.078V338ZM660.344 357.148C661.469 357.148 662.391 356.656 662.938 355.758H663.062V357H664.344V351.234C664.344 349.484 663.195 348.43 661.141 348.43C659.344 348.43 658.016 349.32 657.836 350.672H659.195C659.383 350.008 660.086 349.625 661.094 349.625C662.352 349.625 663 350.195 663 351.234V352L660.57 352.148C658.609 352.266 657.5 353.133 657.5 354.641C657.5 356.18 658.711 357.148 660.344 357.148ZM660.594 355.969C659.617 355.969 658.891 355.469 658.891 354.609C658.891 353.766 659.453 353.32 660.734 353.234L663 353.086V353.859C663 355.062 661.977 355.969 660.594 355.969ZM673.641 348.578H672.297V353.562C672.297 355.039 671.484 355.922 670 355.922C668.656 355.922 668.094 355.219 668.094 353.703V348.578H666.75V354.031C666.75 356.023 667.734 357.148 669.625 357.148C670.914 357.148 671.812 356.617 672.234 355.68H672.359V357H673.641V348.578ZM679.289 357.148C680.453 357.148 681.453 356.594 681.984 355.656H682.109V357H683.391V345.234H682.047V349.906H681.93C681.453 348.984 680.461 348.43 679.289 348.43C677.148 348.43 675.75 350.148 675.75 352.789C675.75 355.438 677.133 357.148 679.289 357.148ZM679.602 349.641C681.125 349.641 682.078 350.859 682.078 352.789C682.078 354.734 681.133 355.938 679.602 355.938C678.062 355.938 677.141 354.758 677.141 352.789C677.141 350.828 678.07 349.641 679.602 349.641ZM686.703 346.953C687.219 346.953 687.641 346.531 687.641 346.016C687.641 345.5 687.219 345.078 686.703 345.078C686.188 345.078 685.766 345.5 685.766 346.016C685.766 346.531 686.188 346.953 686.703 346.953ZM686.031 357H687.375V348.578H686.031V357ZM695.516 354.82C695.164 355.562 694.43 355.961 693.344 355.961C691.914 355.961 690.984 354.906 690.914 353.242V353.18H696.969V352.664C696.969 350.047 695.586 348.43 693.312 348.43C691 348.43 689.516 350.148 689.516 352.797C689.516 355.461 690.977 357.148 693.312 357.148C695.156 357.148 696.469 356.258 696.859 354.82H695.516ZM693.297 349.617C694.633 349.617 695.523 350.602 695.555 352.094H690.914C691.016 350.602 691.953 349.617 693.297 349.617ZM699.078 357H700.422V352.016C700.422 350.539 701.289 349.641 702.633 349.641C703.977 349.641 704.617 350.359 704.617 351.875V357H705.961V351.547C705.961 349.547 704.906 348.43 703.016 348.43C701.727 348.43 700.906 348.977 700.484 349.906H700.359V348.578H699.078V357ZM715.391 351.156C715.156 349.656 713.906 348.43 711.859 348.43C709.5 348.43 708 350.133 708 352.758C708 355.438 709.508 357.148 711.867 357.148C713.891 357.148 715.148 356.008 715.391 354.461H714.031C713.781 355.414 712.992 355.938 711.859 355.938C710.359 355.938 709.391 354.703 709.391 352.758C709.391 350.852 710.344 349.641 711.859 349.641C713.07 349.641 713.812 350.32 714.031 351.156H715.391ZM722.953 354.82C722.602 355.562 721.867 355.961 720.781 355.961C719.352 355.961 718.422 354.906 718.352 353.242V353.18H724.406V352.664C724.406 350.047 723.023 348.43 720.75 348.43C718.438 348.43 716.953 350.148 716.953 352.797C716.953 355.461 718.414 357.148 720.75 357.148C722.594 357.148 723.906 356.258 724.297 354.82H722.953ZM720.734 349.617C722.07 349.617 722.961 350.602 722.992 352.094H718.352C718.453 350.602 719.391 349.617 720.734 349.617ZM734.492 357.148C736.891 357.148 738.375 355.492 738.375 352.789C738.375 350.078 736.891 348.43 734.492 348.43C732.094 348.43 730.609 350.078 730.609 352.789C730.609 355.492 732.094 357.148 734.492 357.148ZM734.492 355.938C732.898 355.938 732 354.781 732 352.789C732 350.789 732.898 349.641 734.492 349.641C736.086 349.641 736.984 350.789 736.984 352.789C736.984 354.781 736.086 355.938 734.492 355.938ZM740.484 357H741.828V352.016C741.828 350.539 742.695 349.641 744.039 349.641C745.383 349.641 746.023 350.359 746.023 351.875V357H747.367V351.547C747.367 349.547 746.312 348.43 744.422 348.43C743.133 348.43 742.312 348.977 741.891 349.906H741.766V348.578H740.484V357ZM754.516 345.727V357H755.922V352.977H758.758C760.875 352.977 762.383 351.484 762.383 349.375C762.383 347.227 760.906 345.727 758.773 345.727H754.516ZM755.922 346.977H758.406C760.039 346.977 760.938 347.828 760.938 349.375C760.938 350.867 760.008 351.727 758.406 351.727H755.922V346.977ZM765.219 346.953C765.734 346.953 766.156 346.531 766.156 346.016C766.156 345.5 765.734 345.078 765.219 345.078C764.703 345.078 764.281 345.5 764.281 346.016C764.281 346.531 764.703 346.953 765.219 346.953ZM764.547 357H765.891V348.578H764.547V357ZM768.453 357H769.797V352.016C769.797 350.539 770.664 349.641 772.008 349.641C773.352 349.641 773.992 350.359 773.992 351.875V357H775.336V351.547C775.336 349.547 774.281 348.43 772.391 348.43C771.102 348.43 770.281 348.977 769.859 349.906H769.734V348.578H768.453V357ZM778.359 346.398V348.578H777V349.703H778.359V354.812C778.359 356.422 779.055 357.062 780.789 357.062C781.055 357.062 781.312 357.031 781.578 356.984V355.852C781.328 355.875 781.195 355.883 780.953 355.883C780.078 355.883 779.703 355.461 779.703 354.469V349.703H781.578V348.578H779.703V346.398H778.359ZM789.062 354.82C788.711 355.562 787.977 355.961 786.891 355.961C785.461 355.961 784.531 354.906 784.461 353.242V353.18H790.516V352.664C790.516 350.047 789.133 348.43 786.859 348.43C784.547 348.43 783.062 350.148 783.062 352.797C783.062 355.461 784.523 357.148 786.859 357.148C788.703 357.148 790.016 356.258 790.406 354.82H789.062ZM786.844 349.617C788.18 349.617 789.07 350.602 789.102 352.094H784.461C784.562 350.602 785.5 349.617 786.844 349.617ZM792.625 357H793.969V351.781C793.969 350.594 794.898 349.734 796.18 349.734C796.445 349.734 796.93 349.781 797.039 349.812V348.469C796.867 348.445 796.586 348.43 796.367 348.43C795.25 348.43 794.281 349.008 794.031 349.828H793.906V348.578H792.625V357ZM804.062 354.82C803.711 355.562 802.977 355.961 801.891 355.961C800.461 355.961 799.531 354.906 799.461 353.242V353.18H805.516V352.664C805.516 350.047 804.133 348.43 801.859 348.43C799.547 348.43 798.062 350.148 798.062 352.797C798.062 355.461 799.523 357.148 801.859 357.148C803.703 357.148 805.016 356.258 805.406 354.82H804.062ZM801.844 349.617C803.18 349.617 804.07 350.602 804.102 352.094H799.461C799.562 350.602 800.5 349.617 801.844 349.617ZM807.43 350.883C807.43 352.102 808.148 352.781 809.727 353.164L811.172 353.516C812.07 353.734 812.508 354.125 812.508 354.703C812.508 355.477 811.695 356.016 810.562 356.016C809.484 356.016 808.812 355.562 808.586 354.852H807.203C807.352 356.25 808.641 357.148 810.516 357.148C812.43 357.148 813.891 356.109 813.891 354.602C813.891 353.391 813.125 352.703 811.539 352.32L810.242 352.008C809.25 351.766 808.781 351.406 808.781 350.828C808.781 350.078 809.562 349.57 810.562 349.57C811.578 349.57 812.234 350.016 812.414 350.688H813.742C813.562 349.305 812.336 348.43 810.57 348.43C808.781 348.43 807.43 349.484 807.43 350.883ZM816.484 346.398V348.578H815.125V349.703H816.484V354.812C816.484 356.422 817.18 357.062 818.914 357.062C819.18 357.062 819.438 357.031 819.703 356.984V355.852C819.453 355.875 819.32 355.883 819.078 355.883C818.203 355.883 817.828 355.461 817.828 354.469V349.703H819.703V348.578H817.828V346.398H816.484ZM822.844 357.078C823.406 357.078 823.859 356.617 823.859 356.062C823.859 355.5 823.406 355.047 822.844 355.047C822.289 355.047 821.828 355.5 821.828 356.062C821.828 356.617 822.289 357.078 822.844 357.078ZM835.906 345.461C832.719 345.461 830.734 347.734 830.734 351.359C830.734 354.969 832.672 357.266 835.906 357.266C839.125 357.266 841.078 354.961 841.078 351.359C841.078 347.742 839.109 345.461 835.906 345.461ZM835.906 346.758C838.211 346.758 839.633 348.539 839.633 351.359C839.633 354.156 838.219 355.969 835.906 355.969C833.562 355.969 832.18 354.156 832.18 351.359C832.18 348.539 833.609 346.758 835.906 346.758ZM843.344 357H844.688V352.016C844.688 350.539 845.555 349.641 846.898 349.641C848.242 349.641 848.883 350.359 848.883 351.875V357H850.227V351.547C850.227 349.547 849.172 348.43 847.281 348.43C845.992 348.43 845.172 348.977 844.75 349.906H844.625V348.578H843.344V357ZM859.656 351.156C859.422 349.656 858.172 348.43 856.125 348.43C853.766 348.43 852.266 350.133 852.266 352.758C852.266 355.438 853.773 357.148 856.133 357.148C858.156 357.148 859.414 356.008 859.656 354.461H858.297C858.047 355.414 857.258 355.938 856.125 355.938C854.625 355.938 853.656 354.703 853.656 352.758C853.656 350.852 854.609 349.641 856.125 349.641C857.336 349.641 858.078 350.32 858.297 351.156H859.656ZM867.219 354.82C866.867 355.562 866.133 355.961 865.047 355.961C863.617 355.961 862.688 354.906 862.617 353.242V353.18H868.672V352.664C868.672 350.047 867.289 348.43 865.016 348.43C862.703 348.43 861.219 350.148 861.219 352.797C861.219 355.461 862.68 357.148 865.016 357.148C866.859 357.148 868.172 356.258 868.562 354.82H867.219ZM865 349.617C866.336 349.617 867.227 350.602 867.258 352.094H862.617C862.719 350.602 863.656 349.617 865 349.617ZM876.016 360.047C877.508 360.047 878.18 359.469 878.898 357.516L882.188 348.578H880.758L878.453 355.508H878.328L876.016 348.578H874.562L877.68 357.008L877.523 357.508C877.172 358.523 876.75 358.891 875.977 358.891C875.789 358.891 875.578 358.883 875.414 358.852V360C875.602 360.031 875.836 360.047 876.016 360.047ZM887.133 357.148C889.531 357.148 891.016 355.492 891.016 352.789C891.016 350.078 889.531 348.43 887.133 348.43C884.734 348.43 883.25 350.078 883.25 352.789C883.25 355.492 884.734 357.148 887.133 357.148ZM887.133 355.938C885.539 355.938 884.641 354.781 884.641 352.789C884.641 350.789 885.539 349.641 887.133 349.641C888.727 349.641 889.625 350.789 889.625 352.789C889.625 354.781 888.727 355.938 887.133 355.938ZM899.938 348.578H898.594V353.562C898.594 355.039 897.781 355.922 896.297 355.922C894.953 355.922 894.391 355.219 894.391 353.703V348.578H893.047V354.031C893.047 356.023 894.031 357.148 895.922 357.148C897.211 357.148 898.109 356.617 898.531 355.68H898.656V357H899.938V348.578ZM902.469 357H903.812V351.781C903.812 350.594 904.742 349.734 906.023 349.734C906.289 349.734 906.773 349.781 906.883 349.812V348.469C906.711 348.445 906.43 348.43 906.211 348.43C905.094 348.43 904.125 349.008 903.875 349.828H903.75V348.578H902.469V357ZM913.25 345.727V357H914.656V352.977H917.492C919.609 352.977 921.117 351.484 921.117 349.375C921.117 347.227 919.641 345.727 917.508 345.727H913.25ZM914.656 346.977H917.141C918.773 346.977 919.672 347.828 919.672 349.375C919.672 350.867 918.742 351.727 917.141 351.727H914.656V346.977ZM923.953 346.953C924.469 346.953 924.891 346.531 924.891 346.016C924.891 345.5 924.469 345.078 923.953 345.078C923.438 345.078 923.016 345.5 923.016 346.016C923.016 346.531 923.438 346.953 923.953 346.953ZM923.281 357H924.625V348.578H923.281V357ZM927.188 357H928.531V352.016C928.531 350.539 929.398 349.641 930.742 349.641C932.086 349.641 932.727 350.359 932.727 351.875V357H934.07V351.547C934.07 349.547 933.016 348.43 931.125 348.43C929.836 348.43 929.016 348.977 928.594 349.906H928.469V348.578H927.188V357ZM661.125 376H662.469V370.781C662.469 369.594 663.398 368.734 664.68 368.734C664.945 368.734 665.43 368.781 665.539 368.812V367.469C665.367 367.445 665.086 367.43 664.867 367.43C663.75 367.43 662.781 368.008 662.531 368.828H662.406V367.578H661.125V376ZM672.562 373.82C672.211 374.562 671.477 374.961 670.391 374.961C668.961 374.961 668.031 373.906 667.961 372.242V372.18H674.016V371.664C674.016 369.047 672.633 367.43 670.359 367.43C668.047 367.43 666.562 369.148 666.562 371.797C666.562 374.461 668.023 376.148 670.359 376.148C672.203 376.148 673.516 375.258 673.906 373.82H672.562ZM670.344 368.617C671.68 368.617 672.57 369.602 672.602 371.094H667.961C668.062 369.602 669 368.617 670.344 368.617ZM683.094 370.156C682.859 368.656 681.609 367.43 679.562 367.43C677.203 367.43 675.703 369.133 675.703 371.758C675.703 374.438 677.211 376.148 679.57 376.148C681.594 376.148 682.852 375.008 683.094 373.461H681.734C681.484 374.414 680.695 374.938 679.562 374.938C678.062 374.938 677.094 373.703 677.094 371.758C677.094 369.852 678.047 368.641 679.562 368.641C680.773 368.641 681.516 369.32 681.734 370.156H683.094ZM685.781 365.953C686.297 365.953 686.719 365.531 686.719 365.016C686.719 364.5 686.297 364.078 685.781 364.078C685.266 364.078 684.844 364.5 684.844 365.016C684.844 365.531 685.266 365.953 685.781 365.953ZM685.109 376H686.453V367.578H685.109V376ZM694.594 373.82C694.242 374.562 693.508 374.961 692.422 374.961C690.992 374.961 690.062 373.906 689.992 372.242V372.18H696.047V371.664C696.047 369.047 694.664 367.43 692.391 367.43C690.078 367.43 688.594 369.148 688.594 371.797C688.594 374.461 690.055 376.148 692.391 376.148C694.234 376.148 695.547 375.258 695.938 373.82H694.594ZM692.375 368.617C693.711 368.617 694.602 369.602 694.633 371.094H689.992C690.094 369.602 691.031 368.617 692.375 368.617ZM704.875 367.578H703.438L701.133 374.516H701.008L698.703 367.578H697.266L700.383 376H701.758L704.875 367.578ZM711.938 373.82C711.586 374.562 710.852 374.961 709.766 374.961C708.336 374.961 707.406 373.906 707.336 372.242V372.18H713.391V371.664C713.391 369.047 712.008 367.43 709.734 367.43C707.422 367.43 705.938 369.148 705.938 371.797C705.938 374.461 707.398 376.148 709.734 376.148C711.578 376.148 712.891 375.258 713.281 373.82H711.938ZM709.719 368.617C711.055 368.617 711.945 369.602 711.977 371.094H707.336C707.438 369.602 708.375 368.617 709.719 368.617ZM715.305 369.883C715.305 371.102 716.023 371.781 717.602 372.164L719.047 372.516C719.945 372.734 720.383 373.125 720.383 373.703C720.383 374.477 719.57 375.016 718.438 375.016C717.359 375.016 716.688 374.562 716.461 373.852H715.078C715.227 375.25 716.516 376.148 718.391 376.148C720.305 376.148 721.766 375.109 721.766 373.602C721.766 372.391 721 371.703 719.414 371.32L718.117 371.008C717.125 370.766 716.656 370.406 716.656 369.828C716.656 369.078 717.438 368.57 718.438 368.57C719.453 368.57 720.109 369.016 720.289 369.688H721.617C721.438 368.305 720.211 367.43 718.445 367.43C716.656 367.43 715.305 368.484 715.305 369.883ZM728.953 365.398V367.578H727.594V368.703H728.953V373.812C728.953 375.422 729.648 376.062 731.383 376.062C731.648 376.062 731.906 376.031 732.172 375.984V374.852C731.922 374.875 731.789 374.883 731.547 374.883C730.672 374.883 730.297 374.461 730.297 373.469V368.703H732.172V367.578H730.297V365.398H728.953ZM734.203 376H735.547V370.781C735.547 369.594 736.477 368.734 737.758 368.734C738.023 368.734 738.508 368.781 738.617 368.812V367.469C738.445 367.445 738.164 367.43 737.945 367.43C736.828 367.43 735.859 368.008 735.609 368.828H735.484V367.578H734.203V376ZM742.641 376.148C743.766 376.148 744.688 375.656 745.234 374.758H745.359V376H746.641V370.234C746.641 368.484 745.492 367.43 743.438 367.43C741.641 367.43 740.312 368.32 740.133 369.672H741.492C741.68 369.008 742.383 368.625 743.391 368.625C744.648 368.625 745.297 369.195 745.297 370.234V371L742.867 371.148C740.906 371.266 739.797 372.133 739.797 373.641C739.797 375.18 741.008 376.148 742.641 376.148ZM742.891 374.969C741.914 374.969 741.188 374.469 741.188 373.609C741.188 372.766 741.75 372.32 743.031 372.234L745.297 372.086V372.859C745.297 374.062 744.273 374.969 742.891 374.969ZM749.688 376H751.031V368.703H752.961V367.578H751.031V366.68C751.031 365.758 751.438 365.289 752.406 365.289C752.648 365.289 752.875 365.297 753.039 365.328V364.234C752.758 364.18 752.461 364.156 752.133 364.156C750.531 364.156 749.688 364.961 749.688 366.641V367.578H748.289V368.703H749.688V376ZM755.484 376H756.828V368.703H758.758V367.578H756.828V366.68C756.828 365.758 757.234 365.289 758.203 365.289C758.445 365.289 758.672 365.297 758.836 365.328V364.234C758.555 364.18 758.258 364.156 757.93 364.156C756.328 364.156 755.484 364.961 755.484 366.641V367.578H754.086V368.703H755.484V376ZM761.422 365.953C761.938 365.953 762.359 365.531 762.359 365.016C762.359 364.5 761.938 364.078 761.422 364.078C760.906 364.078 760.484 364.5 760.484 365.016C760.484 365.531 760.906 365.953 761.422 365.953ZM760.75 376H762.094V367.578H760.75V376ZM771.625 370.156C771.391 368.656 770.141 367.43 768.094 367.43C765.734 367.43 764.234 369.133 764.234 371.758C764.234 374.438 765.742 376.148 768.102 376.148C770.125 376.148 771.383 375.008 771.625 373.461H770.266C770.016 374.414 769.227 374.938 768.094 374.938C766.594 374.938 765.625 373.703 765.625 371.758C765.625 369.852 766.578 368.641 768.094 368.641C769.305 368.641 770.047 369.32 770.266 370.156H771.625ZM774.461 378.867L775.688 374.422H774.195L773.453 378.867H774.461ZM783.594 379.047C785.086 379.047 785.758 378.469 786.477 376.516L789.766 367.578H788.336L786.031 374.508H785.906L783.594 367.578H782.141L785.258 376.008L785.102 376.508C784.75 377.523 784.328 377.891 783.555 377.891C783.367 377.891 783.156 377.883 782.992 377.852V379C783.18 379.031 783.414 379.047 783.594 379.047ZM794.711 376.148C797.109 376.148 798.594 374.492 798.594 371.789C798.594 369.078 797.109 367.43 794.711 367.43C792.312 367.43 790.828 369.078 790.828 371.789C790.828 374.492 792.312 376.148 794.711 376.148ZM794.711 374.938C793.117 374.938 792.219 373.781 792.219 371.789C792.219 369.789 793.117 368.641 794.711 368.641C796.305 368.641 797.203 369.789 797.203 371.789C797.203 373.781 796.305 374.938 794.711 374.938ZM807.516 367.578H806.172V372.562C806.172 374.039 805.359 374.922 803.875 374.922C802.531 374.922 801.969 374.219 801.969 372.703V367.578H800.625V373.031C800.625 375.023 801.609 376.148 803.5 376.148C804.789 376.148 805.688 375.617 806.109 374.68H806.234V376H807.516V367.578ZM810.883 368.938L812.297 364.727H810.773L809.906 368.938H810.883ZM814.766 376H816.109V364.234H814.766V376ZM818.797 376H820.141V364.234H818.797V376ZM831.453 376.148C833.586 376.148 834.984 374.422 834.984 371.789C834.984 369.141 833.594 367.43 831.453 367.43C830.297 367.43 829.273 368 828.812 368.906H828.688V364.234H827.344V376H828.625V374.656H828.75C829.281 375.594 830.281 376.148 831.453 376.148ZM831.141 368.641C832.68 368.641 833.594 369.82 833.594 371.789C833.594 373.758 832.68 374.938 831.141 374.938C829.609 374.938 828.656 373.734 828.656 371.789C828.656 369.844 829.609 368.641 831.141 368.641ZM842.672 373.82C842.32 374.562 841.586 374.961 840.5 374.961C839.07 374.961 838.141 373.906 838.07 372.242V372.18H844.125V371.664C844.125 369.047 842.742 367.43 840.469 367.43C838.156 367.43 836.672 369.148 836.672 371.797C836.672 374.461 838.133 376.148 840.469 376.148C842.312 376.148 843.625 375.258 844.016 373.82H842.672ZM840.453 368.617C841.789 368.617 842.68 369.602 842.711 371.094H838.07C838.172 369.602 839.109 368.617 840.453 368.617ZM853.094 376.148C854.219 376.148 855.141 375.656 855.688 374.758H855.812V376H857.094V370.234C857.094 368.484 855.945 367.43 853.891 367.43C852.094 367.43 850.766 368.32 850.586 369.672H851.945C852.133 369.008 852.836 368.625 853.844 368.625C855.102 368.625 855.75 369.195 855.75 370.234V371L853.32 371.148C851.359 371.266 850.25 372.133 850.25 373.641C850.25 375.18 851.461 376.148 853.094 376.148ZM853.344 374.969C852.367 374.969 851.641 374.469 851.641 373.609C851.641 372.766 852.203 372.32 853.484 372.234L855.75 372.086V372.859C855.75 374.062 854.727 374.969 853.344 374.969ZM863.766 376.148C865.898 376.148 867.297 374.422 867.297 371.789C867.297 369.141 865.906 367.43 863.766 367.43C862.609 367.43 861.586 368 861.125 368.906H861V364.234H859.656V376H860.938V374.656H861.062C861.594 375.594 862.594 376.148 863.766 376.148ZM863.453 368.641C864.992 368.641 865.906 369.82 865.906 371.789C865.906 373.758 864.992 374.938 863.453 374.938C861.922 374.938 860.969 373.734 860.969 371.789C860.969 369.844 861.922 368.641 863.453 368.641ZM869.484 376H870.828V364.234H869.484V376ZM879.016 373.82C878.664 374.562 877.93 374.961 876.844 374.961C875.414 374.961 874.484 373.906 874.414 372.242V372.18H880.469V371.664C880.469 369.047 879.086 367.43 876.812 367.43C874.5 367.43 873.016 369.148 873.016 371.797C873.016 374.461 874.477 376.148 876.812 376.148C878.656 376.148 879.969 375.258 880.359 373.82H879.016ZM876.797 368.617C878.133 368.617 879.023 369.602 879.055 371.094H874.414C874.516 369.602 875.453 368.617 876.797 368.617ZM887.656 365.398V367.578H886.297V368.703H887.656V373.812C887.656 375.422 888.352 376.062 890.086 376.062C890.352 376.062 890.609 376.031 890.875 375.984V374.852C890.625 374.875 890.492 374.883 890.25 374.883C889.375 374.883 889 374.461 889 373.469V368.703H890.875V367.578H889V365.398H887.656ZM896.242 376.148C898.641 376.148 900.125 374.492 900.125 371.789C900.125 369.078 898.641 367.43 896.242 367.43C893.844 367.43 892.359 369.078 892.359 371.789C892.359 374.492 893.844 376.148 896.242 376.148ZM896.242 374.938C894.648 374.938 893.75 373.781 893.75 371.789C893.75 369.789 894.648 368.641 896.242 368.641C897.836 368.641 898.734 369.789 898.734 371.789C898.734 373.781 897.836 374.938 896.242 374.938ZM906.555 369.883C906.555 371.102 907.273 371.781 908.852 372.164L910.297 372.516C911.195 372.734 911.633 373.125 911.633 373.703C911.633 374.477 910.82 375.016 909.688 375.016C908.609 375.016 907.938 374.562 907.711 373.852H906.328C906.477 375.25 907.766 376.148 909.641 376.148C911.555 376.148 913.016 375.109 913.016 373.602C913.016 372.391 912.25 371.703 910.664 371.32L909.367 371.008C908.375 370.766 907.906 370.406 907.906 369.828C907.906 369.078 908.688 368.57 909.688 368.57C910.703 368.57 911.359 369.016 911.539 369.688H912.867C912.688 368.305 911.461 367.43 909.695 367.43C907.906 367.43 906.555 368.484 906.555 369.883ZM920.703 373.82C920.352 374.562 919.617 374.961 918.531 374.961C917.102 374.961 916.172 373.906 916.102 372.242V372.18H922.156V371.664C922.156 369.047 920.773 367.43 918.5 367.43C916.188 367.43 914.703 369.148 914.703 371.797C914.703 374.461 916.164 376.148 918.5 376.148C920.344 376.148 921.656 375.258 922.047 373.82H920.703ZM918.484 368.617C919.82 368.617 920.711 369.602 920.742 371.094H916.102C916.203 369.602 917.141 368.617 918.484 368.617ZM929.844 373.82C929.492 374.562 928.758 374.961 927.672 374.961C926.242 374.961 925.312 373.906 925.242 372.242V372.18H931.297V371.664C931.297 369.047 929.914 367.43 927.641 367.43C925.328 367.43 923.844 369.148 923.844 371.797C923.844 374.461 925.305 376.148 927.641 376.148C929.484 376.148 930.797 375.258 931.188 373.82H929.844ZM927.625 368.617C928.961 368.617 929.852 369.602 929.883 371.094H925.242C925.344 369.602 926.281 368.617 927.625 368.617ZM670.461 395H671.805V390.016C671.805 388.594 672.633 387.641 674.141 387.641C675.414 387.641 676.086 388.383 676.086 389.875V395H677.43V389.547C677.43 387.57 676.305 386.43 674.523 386.43C673.234 386.43 672.352 386.977 671.93 387.906H671.805V383.234H670.461V395ZM680.586 384.953C681.102 384.953 681.523 384.531 681.523 384.016C681.523 383.5 681.102 383.078 680.586 383.078C680.07 383.078 679.648 383.5 679.648 384.016C679.648 384.531 680.07 384.953 680.586 384.953ZM679.914 395H681.258V386.578H679.914V395ZM687.289 398.234C689.586 398.234 691.039 397.031 691.039 395.148V386.578H689.758V387.914H689.633C689.148 387.008 688.109 386.43 686.93 386.43C684.766 386.43 683.398 388.141 683.398 390.664C683.398 393.188 684.75 394.875 686.93 394.875C688.086 394.875 689.039 394.352 689.57 393.422H689.695V395.078C689.695 396.32 688.797 397.062 687.289 397.062C686.078 397.062 685.328 396.617 685.18 395.93H683.758C683.961 397.32 685.258 398.234 687.289 398.234ZM687.227 393.688C685.664 393.688 684.789 392.5 684.789 390.664C684.789 388.828 685.664 387.641 687.227 387.641C688.781 387.641 689.727 388.828 689.727 390.664C689.727 392.5 688.789 393.688 687.227 393.688ZM693.648 395H694.992V390.016C694.992 388.594 695.82 387.641 697.328 387.641C698.602 387.641 699.273 388.383 699.273 389.875V395H700.617V389.547C700.617 387.57 699.492 386.43 697.711 386.43C696.422 386.43 695.539 386.977 695.117 387.906H694.992V383.234H693.648V395ZM707.664 395H709.008V383.234H707.664V395ZM717.195 392.82C716.844 393.562 716.109 393.961 715.023 393.961C713.594 393.961 712.664 392.906 712.594 391.242V391.18H718.648V390.664C718.648 388.047 717.266 386.43 714.992 386.43C712.68 386.43 711.195 388.148 711.195 390.797C711.195 393.461 712.656 395.148 714.992 395.148C716.836 395.148 718.148 394.258 718.539 392.82H717.195ZM714.977 387.617C716.312 387.617 717.203 388.602 717.234 390.094H712.594C712.695 388.602 713.633 387.617 714.977 387.617ZM727.477 386.578H726.039L723.734 393.516H723.609L721.305 386.578H719.867L722.984 395H724.359L727.477 386.578ZM734.539 392.82C734.188 393.562 733.453 393.961 732.367 393.961C730.938 393.961 730.008 392.906 729.938 391.242V391.18H735.992V390.664C735.992 388.047 734.609 386.43 732.336 386.43C730.023 386.43 728.539 388.148 728.539 390.797C728.539 393.461 730 395.148 732.336 395.148C734.18 395.148 735.492 394.258 735.883 392.82H734.539ZM732.32 387.617C733.656 387.617 734.547 388.602 734.578 390.094H729.938C730.039 388.602 730.977 387.617 732.32 387.617ZM738.18 395H739.523V383.234H738.18V395ZM750.75 386.43C749.602 386.43 748.594 387.016 748.055 387.984H747.93V386.578H746.648V397.812H747.992V393.734H748.117C748.578 394.625 749.547 395.148 750.75 395.148C752.891 395.148 754.289 393.422 754.289 390.789C754.289 388.141 752.898 386.43 750.75 386.43ZM750.43 393.938C748.914 393.938 747.953 392.719 747.953 390.789C747.953 388.852 748.914 387.641 750.438 387.641C751.977 387.641 752.898 388.82 752.898 390.789C752.898 392.758 751.977 393.938 750.43 393.938ZM761.977 392.82C761.625 393.562 760.891 393.961 759.805 393.961C758.375 393.961 757.445 392.906 757.375 391.242V391.18H763.43V390.664C763.43 388.047 762.047 386.43 759.773 386.43C757.461 386.43 755.977 388.148 755.977 390.797C755.977 393.461 757.438 395.148 759.773 395.148C761.617 395.148 762.93 394.258 763.32 392.82H761.977ZM759.758 387.617C761.094 387.617 761.984 388.602 762.016 390.094H757.375C757.477 388.602 758.414 387.617 759.758 387.617ZM765.539 395H766.883V389.781C766.883 388.594 767.812 387.734 769.094 387.734C769.359 387.734 769.844 387.781 769.953 387.812V386.469C769.781 386.445 769.5 386.43 769.281 386.43C768.164 386.43 767.195 387.008 766.945 387.828H766.82V386.578H765.539V395ZM772.664 395H774.008V387.703H775.938V386.578H774.008V385.68C774.008 384.758 774.414 384.289 775.383 384.289C775.625 384.289 775.852 384.297 776.016 384.328V383.234C775.734 383.18 775.438 383.156 775.109 383.156C773.508 383.156 772.664 383.961 772.664 385.641V386.578H771.266V387.703H772.664V395ZM781 395.148C783.398 395.148 784.883 393.492 784.883 390.789C784.883 388.078 783.398 386.43 781 386.43C778.602 386.43 777.117 388.078 777.117 390.789C777.117 393.492 778.602 395.148 781 395.148ZM781 393.938C779.406 393.938 778.508 392.781 778.508 390.789C778.508 388.789 779.406 387.641 781 387.641C782.594 387.641 783.492 388.789 783.492 390.789C783.492 392.781 782.594 393.938 781 393.938ZM786.992 395H788.336V389.781C788.336 388.594 789.266 387.734 790.547 387.734C790.812 387.734 791.297 387.781 791.406 387.812V386.469C791.234 386.445 790.953 386.43 790.734 386.43C789.617 386.43 788.648 387.008 788.398 387.828H788.273V386.578H786.992V395ZM793.242 395H794.586V389.781C794.586 388.594 795.438 387.641 796.539 387.641C797.602 387.641 798.297 388.281 798.297 389.281V395H799.641V389.586C799.641 388.516 800.422 387.641 801.594 387.641C802.781 387.641 803.367 388.25 803.367 389.492V395H804.711V389.18C804.711 387.414 803.75 386.43 802.031 386.43C800.867 386.43 799.906 387.016 799.453 387.906H799.328C798.938 387.031 798.141 386.43 797 386.43C795.875 386.43 795.031 386.969 794.648 387.906H794.523V386.578H793.242V395ZM809.508 395.148C810.633 395.148 811.555 394.656 812.102 393.758H812.227V395H813.508V389.234C813.508 387.484 812.359 386.43 810.305 386.43C808.508 386.43 807.18 387.32 807 388.672H808.359C808.547 388.008 809.25 387.625 810.258 387.625C811.516 387.625 812.164 388.195 812.164 389.234V390L809.734 390.148C807.773 390.266 806.664 391.133 806.664 392.641C806.664 394.18 807.875 395.148 809.508 395.148ZM809.758 393.969C808.781 393.969 808.055 393.469 808.055 392.609C808.055 391.766 808.617 391.32 809.898 391.234L812.164 391.086V391.859C812.164 393.062 811.141 393.969 809.758 393.969ZM815.992 395H817.336V390.016C817.336 388.539 818.203 387.641 819.547 387.641C820.891 387.641 821.531 388.359 821.531 389.875V395H822.875V389.547C822.875 387.547 821.82 386.43 819.93 386.43C818.641 386.43 817.82 386.977 817.398 387.906H817.273V386.578H815.992V395ZM832.305 389.156C832.07 387.656 830.82 386.43 828.773 386.43C826.414 386.43 824.914 388.133 824.914 390.758C824.914 393.438 826.422 395.148 828.781 395.148C830.805 395.148 832.062 394.008 832.305 392.461H830.945C830.695 393.414 829.906 393.938 828.773 393.938C827.273 393.938 826.305 392.703 826.305 390.758C826.305 388.852 827.258 387.641 828.773 387.641C829.984 387.641 830.727 388.32 830.945 389.156H832.305ZM839.867 392.82C839.516 393.562 838.781 393.961 837.695 393.961C836.266 393.961 835.336 392.906 835.266 391.242V391.18H841.32V390.664C841.32 388.047 839.938 386.43 837.664 386.43C835.352 386.43 833.867 388.148 833.867 390.797C833.867 393.461 835.328 395.148 837.664 395.148C839.508 395.148 840.82 394.258 841.211 392.82H839.867ZM837.648 387.617C838.984 387.617 839.875 388.602 839.906 390.094H835.266C835.367 388.602 836.305 387.617 837.648 387.617ZM851.062 395.148C852.227 395.148 853.227 394.594 853.758 393.656H853.883V395H855.164V383.234H853.82V387.906H853.703C853.227 386.984 852.234 386.43 851.062 386.43C848.922 386.43 847.523 388.148 847.523 390.789C847.523 393.438 848.906 395.148 851.062 395.148ZM851.375 387.641C852.898 387.641 853.852 388.859 853.852 390.789C853.852 392.734 852.906 393.938 851.375 393.938C849.836 393.938 848.914 392.758 848.914 390.789C848.914 388.828 849.844 387.641 851.375 387.641ZM860.117 395.148C861.242 395.148 862.164 394.656 862.711 393.758H862.836V395H864.117V389.234C864.117 387.484 862.969 386.43 860.914 386.43C859.117 386.43 857.789 387.32 857.609 388.672H858.969C859.156 388.008 859.859 387.625 860.867 387.625C862.125 387.625 862.773 388.195 862.773 389.234V390L860.344 390.148C858.383 390.266 857.273 391.133 857.273 392.641C857.273 394.18 858.484 395.148 860.117 395.148ZM860.367 393.969C859.391 393.969 858.664 393.469 858.664 392.609C858.664 391.766 859.227 391.32 860.508 391.234L862.773 391.086V391.859C862.773 393.062 861.75 393.969 860.367 393.969ZM867.164 384.398V386.578H865.805V387.703H867.164V392.812C867.164 394.422 867.859 395.062 869.594 395.062C869.859 395.062 870.117 395.031 870.383 394.984V393.852C870.133 393.875 870 393.883 869.758 393.883C868.883 393.883 868.508 393.461 868.508 392.469V387.703H870.383V386.578H868.508V384.398H867.164ZM874.758 395.148C875.883 395.148 876.805 394.656 877.352 393.758H877.477V395H878.758V389.234C878.758 387.484 877.609 386.43 875.555 386.43C873.758 386.43 872.43 387.32 872.25 388.672H873.609C873.797 388.008 874.5 387.625 875.508 387.625C876.766 387.625 877.414 388.195 877.414 389.234V390L874.984 390.148C873.023 390.266 871.914 391.133 871.914 392.641C871.914 394.18 873.125 395.148 874.758 395.148ZM875.008 393.969C874.031 393.969 873.305 393.469 873.305 392.609C873.305 391.766 873.867 391.32 875.148 391.234L877.414 391.086V391.859C877.414 393.062 876.391 393.969 875.008 393.969ZM885.836 395H887.18V390.016C887.18 388.594 888.008 387.641 889.516 387.641C890.789 387.641 891.461 388.383 891.461 389.875V395H892.805V389.547C892.805 387.57 891.68 386.43 889.898 386.43C888.609 386.43 887.727 386.977 887.305 387.906H887.18V383.234H885.836V395ZM900.836 392.82C900.484 393.562 899.75 393.961 898.664 393.961C897.234 393.961 896.305 392.906 896.234 391.242V391.18H902.289V390.664C902.289 388.047 900.906 386.43 898.633 386.43C896.32 386.43 894.836 388.148 894.836 390.797C894.836 393.461 896.297 395.148 898.633 395.148C900.477 395.148 901.789 394.258 902.18 392.82H900.836ZM898.617 387.617C899.953 387.617 900.844 388.602 900.875 390.094H896.234C896.336 388.602 897.273 387.617 898.617 387.617ZM904.398 395H905.742V389.781C905.742 388.594 906.672 387.734 907.953 387.734C908.219 387.734 908.703 387.781 908.812 387.812V386.469C908.641 386.445 908.359 386.43 908.141 386.43C907.023 386.43 906.055 387.008 905.805 387.828H905.68V386.578H904.398V395ZM915.836 392.82C915.484 393.562 914.75 393.961 913.664 393.961C912.234 393.961 911.305 392.906 911.234 391.242V391.18H917.289V390.664C917.289 388.047 915.906 386.43 913.633 386.43C911.32 386.43 909.836 388.148 909.836 390.797C909.836 393.461 911.297 395.148 913.633 395.148C915.477 395.148 916.789 394.258 917.18 392.82H915.836ZM913.617 387.617C914.953 387.617 915.844 388.602 915.875 390.094H911.234C911.336 388.602 912.273 387.617 913.617 387.617ZM920.508 395.078C921.07 395.078 921.523 394.617 921.523 394.062C921.523 393.5 921.07 393.047 920.508 393.047C919.953 393.047 919.492 393.5 919.492 394.062C919.492 394.617 919.953 395.078 920.508 395.078Z" fill="white"/>
<path fill-rule="evenodd" clip-rule="evenodd" d="M772.166 183.093H756.04V201.618C764.76 201.628 771.826 208.72 771.826 217.467C771.826 226.214 764.76 233.306 756.04 233.315V251.84H772.162L772.162 251.821C772.162 243.068 779.238 235.972 787.966 235.972C796.695 235.972 803.77 243.068 803.77 251.821L803.77 251.84H819.891V233.272C828.071 232.669 834.52 225.823 834.52 217.467C834.52 209.11 828.071 202.264 819.891 201.661V183.093H803.767C803.578 174.504 796.576 167.6 787.966 167.6C779.356 167.6 772.354 174.504 772.166 183.093Z" fill="#111111"/>
<mask id="path-14-inside-1_791_8273" fill="white">
<path fill-rule="evenodd" clip-rule="evenodd" d="M773.606 181.293H757.48V199.818C766.2 199.828 773.266 206.92 773.266 215.667C773.266 224.414 766.2 231.506 757.48 231.516V250.04H773.602L773.602 250.022C773.602 241.268 780.678 234.173 789.406 234.173C798.135 234.173 805.211 241.268 805.211 250.022L805.211 250.04H821.331V231.472C829.511 230.869 835.96 224.023 835.96 215.667C835.96 207.31 829.511 200.464 821.331 199.861V181.293H805.207C805.018 172.704 798.016 165.8 789.406 165.8C780.796 165.8 773.795 172.704 773.606 181.293Z"/>
</mask>
<path fill-rule="evenodd" clip-rule="evenodd" d="M773.606 181.293H757.48V199.818C766.2 199.828 773.266 206.92 773.266 215.667C773.266 224.414 766.2 231.506 757.48 231.516V250.04H773.602L773.602 250.022C773.602 241.268 780.678 234.173 789.406 234.173C798.135 234.173 805.211 241.268 805.211 250.022L805.211 250.04H821.331V231.472C829.511 230.869 835.96 224.023 835.96 215.667C835.96 207.31 829.511 200.464 821.331 199.861V181.293H805.207C805.018 172.704 798.016 165.8 789.406 165.8C780.796 165.8 773.795 172.704 773.606 181.293Z" fill="white"/>
<path d="M757.48 181.293V180.213H756.4V181.293H757.48ZM773.606 181.293V182.373H774.663L774.686 181.317L773.606 181.293ZM757.48 199.818H756.4V200.897L757.479 200.898L757.48 199.818ZM757.48 231.516L757.479 230.436L756.4 230.437V231.516H757.48ZM757.48 250.04H756.4V251.12H757.48V250.04ZM773.602 250.04V251.12H774.683L774.682 250.039L773.602 250.04ZM773.602 250.022L772.522 250.022L772.522 250.022L773.602 250.022ZM805.211 250.022L806.291 250.022V250.022H805.211ZM805.21 250.04L804.13 250.039L804.13 251.12H805.21V250.04ZM821.331 250.04V251.12H822.411V250.04H821.331ZM821.331 231.473L821.252 230.395L820.251 230.469V231.473H821.331ZM821.331 199.861H820.251V200.865L821.252 200.938L821.331 199.861ZM821.331 181.293H822.411V180.213H821.331V181.293ZM805.207 181.293L804.127 181.317L804.15 182.373H805.207V181.293ZM757.48 182.373H773.606V180.213H757.48V182.373ZM758.56 199.818V181.293H756.4V199.818H758.56ZM774.346 215.667C774.346 206.327 766.8 198.749 757.481 198.738L757.479 200.898C765.6 200.907 772.186 207.513 772.186 215.667H774.346ZM757.481 232.596C766.8 232.585 774.346 225.007 774.346 215.667H772.186C772.186 223.821 765.6 230.427 757.479 230.436L757.481 232.596ZM758.56 250.04V231.516H756.4V250.04H758.56ZM773.602 248.96H757.48V251.12H773.602V248.96ZM772.522 250.022L772.522 250.041L774.682 250.039L774.682 250.021L772.522 250.022ZM789.406 233.093C780.079 233.093 772.522 240.675 772.522 250.022H774.682C774.682 241.862 781.277 235.253 789.406 235.253V233.093ZM806.291 250.022C806.291 240.675 798.734 233.093 789.406 233.093V235.253C797.535 235.253 804.131 241.862 804.131 250.022H806.291ZM806.29 250.041L806.291 250.022L804.131 250.021L804.13 250.039L806.29 250.041ZM821.331 248.96H805.21V251.12H821.331V248.96ZM820.251 231.473V250.04H822.411V231.473H820.251ZM821.411 232.55C830.153 231.905 837.04 224.591 837.04 215.667H834.88C834.88 223.456 828.869 229.834 821.252 230.395L821.411 232.55ZM837.04 215.667C837.04 206.743 830.153 199.429 821.411 198.784L821.252 200.938C828.869 201.5 834.88 207.878 834.88 215.667H837.04ZM820.251 181.293V199.861H822.411V181.293H820.251ZM805.207 182.373H821.331V180.213H805.207V182.373ZM806.286 181.27C806.085 172.098 798.608 164.72 789.406 164.72V166.88C797.425 166.88 803.951 173.311 804.127 181.317L806.286 181.27ZM789.406 164.72C780.205 164.72 772.728 172.098 772.526 181.27L774.686 181.317C774.861 173.311 781.388 166.88 789.406 166.88V164.72Z" fill="#111111" mask="url(#path-14-inside-1_791_8273)"/>
<circle cx="786.46" cy="197.66" r="1.62" fill="#111111"/>
<circle cx="807.34" cy="197.66" r="1.62" fill="#111111"/>
<path d="M784.48 207.56C788.798 205.115 799.667 201.692 808.6 207.56" stroke="#111111" stroke-width="1.08" stroke-linecap="round"/>
<rect x="56.5" y="179.5" width="439" height="89" rx="15.5" fill="white" stroke="#CDCDCD"/>
<rect x="56.5" y="285.5" width="439" height="89" rx="15.5" fill="white" stroke="#CDCDCD"/>
<rect x="56.5" y="391.5" width="439" height="89" rx="15.5" fill="white" stroke="#CDCDCD"/>
<path d="M74.8438 210V198.727H73.4375V210H74.8438ZM77.5469 210H78.8906V204.781C78.8906 203.594 79.7422 202.641 80.8438 202.641C81.9062 202.641 82.6016 203.281 82.6016 204.281V210H83.9453V204.586C83.9453 203.516 84.7266 202.641 85.8984 202.641C87.0859 202.641 87.6719 203.25 87.6719 204.492V210H89.0156V204.18C89.0156 202.414 88.0547 201.43 86.3359 201.43C85.1719 201.43 84.2109 202.016 83.7578 202.906H83.6328C83.2422 202.031 82.4453 201.43 81.3047 201.43C80.1797 201.43 79.3359 201.969 78.9531 202.906H78.8281V201.578H77.5469V210ZM95.5703 201.43C94.4219 201.43 93.4141 202.016 92.875 202.984H92.75V201.578H91.4688V212.812H92.8125V208.734H92.9375C93.3984 209.625 94.3672 210.148 95.5703 210.148C97.7109 210.148 99.1094 208.422 99.1094 205.789C99.1094 203.141 97.7188 201.43 95.5703 201.43ZM95.25 208.938C93.7344 208.938 92.7734 207.719 92.7734 205.789C92.7734 203.852 93.7344 202.641 95.2578 202.641C96.7969 202.641 97.7188 203.82 97.7188 205.789C97.7188 207.758 96.7969 208.938 95.25 208.938ZM101.219 210H102.562V204.781C102.562 203.594 103.492 202.734 104.773 202.734C105.039 202.734 105.523 202.781 105.633 202.812V201.469C105.461 201.445 105.18 201.43 104.961 201.43C103.844 201.43 102.875 202.008 102.625 202.828H102.5V201.578H101.219V210ZM112.656 207.82C112.305 208.562 111.57 208.961 110.484 208.961C109.055 208.961 108.125 207.906 108.055 206.242V206.18H114.109V205.664C114.109 203.047 112.727 201.43 110.453 201.43C108.141 201.43 106.656 203.148 106.656 205.797C106.656 208.461 108.117 210.148 110.453 210.148C112.297 210.148 113.609 209.258 114 207.82H112.656ZM110.438 202.617C111.773 202.617 112.664 203.602 112.695 205.094H108.055C108.156 203.602 109.094 202.617 110.438 202.617ZM116.023 203.883C116.023 205.102 116.742 205.781 118.32 206.164L119.766 206.516C120.664 206.734 121.102 207.125 121.102 207.703C121.102 208.477 120.289 209.016 119.156 209.016C118.078 209.016 117.406 208.562 117.18 207.852H115.797C115.945 209.25 117.234 210.148 119.109 210.148C121.023 210.148 122.484 209.109 122.484 207.602C122.484 206.391 121.719 205.703 120.133 205.32L118.836 205.008C117.844 204.766 117.375 204.406 117.375 203.828C117.375 203.078 118.156 202.57 119.156 202.57C120.172 202.57 120.828 203.016 121.008 203.688H122.336C122.156 202.305 120.93 201.43 119.164 201.43C117.375 201.43 116.023 202.484 116.023 203.883ZM124.242 203.883C124.242 205.102 124.961 205.781 126.539 206.164L127.984 206.516C128.883 206.734 129.32 207.125 129.32 207.703C129.32 208.477 128.508 209.016 127.375 209.016C126.297 209.016 125.625 208.562 125.398 207.852H124.016C124.164 209.25 125.453 210.148 127.328 210.148C129.242 210.148 130.703 209.109 130.703 207.602C130.703 206.391 129.938 205.703 128.352 205.32L127.055 205.008C126.062 204.766 125.594 204.406 125.594 203.828C125.594 203.078 126.375 202.57 127.375 202.57C128.391 202.57 129.047 203.016 129.227 203.688H130.555C130.375 202.305 129.148 201.43 127.383 201.43C125.594 201.43 124.242 202.484 124.242 203.883ZM133.516 199.953C134.031 199.953 134.453 199.531 134.453 199.016C134.453 198.5 134.031 198.078 133.516 198.078C133 198.078 132.578 198.5 132.578 199.016C132.578 199.531 133 199.953 133.516 199.953ZM132.844 210H134.188V201.578H132.844V210ZM140.211 210.148C142.609 210.148 144.094 208.492 144.094 205.789C144.094 203.078 142.609 201.43 140.211 201.43C137.812 201.43 136.328 203.078 136.328 205.789C136.328 208.492 137.812 210.148 140.211 210.148ZM140.211 208.938C138.617 208.938 137.719 207.781 137.719 205.789C137.719 203.789 138.617 202.641 140.211 202.641C141.805 202.641 142.703 203.789 142.703 205.789C142.703 207.781 141.805 208.938 140.211 208.938ZM146.203 210H147.547V205.016C147.547 203.539 148.414 202.641 149.758 202.641C151.102 202.641 151.742 203.359 151.742 204.875V210H153.086V204.547C153.086 202.547 152.031 201.43 150.141 201.43C148.852 201.43 148.031 201.977 147.609 202.906H147.484V201.578H146.203V210ZM155.352 203.883C155.352 205.102 156.07 205.781 157.648 206.164L159.094 206.516C159.992 206.734 160.43 207.125 160.43 207.703C160.43 208.477 159.617 209.016 158.484 209.016C157.406 209.016 156.734 208.562 156.508 207.852H155.125C155.273 209.25 156.562 210.148 158.438 210.148C160.352 210.148 161.812 209.109 161.812 207.602C161.812 206.391 161.047 205.703 159.461 205.32L158.164 205.008C157.172 204.766 156.703 204.406 156.703 203.828C156.703 203.078 157.484 202.57 158.484 202.57C159.5 202.57 160.156 203.016 160.336 203.688H161.664C161.484 202.305 160.258 201.43 158.492 201.43C156.703 201.43 155.352 202.484 155.352 203.883ZM78.3359 225.102V223.828H73.2109V225.102H78.3359Z" fill="#111111"/>
<path d="M72.8984 313.055C73.0469 315 74.6953 316.266 77.0859 316.266C79.6641 316.266 81.2969 314.945 81.2969 312.875C81.2969 311.219 80.3594 310.312 78.0234 309.727L76.8438 309.414C75.2891 309.016 74.6719 308.508 74.6719 307.625C74.6719 306.484 75.6641 305.734 77.1641 305.734C78.5703 305.734 79.5234 306.422 79.7188 307.578H81.1328C81.0156 305.758 79.3906 304.461 77.2109 304.461C74.8281 304.461 73.2266 305.758 73.2266 307.672C73.2266 309.273 74.1094 310.195 76.1484 310.711L77.5938 311.086C79.1484 311.477 79.8516 312.086 79.8516 313.047C79.8516 314.164 78.7344 314.984 77.2188 314.984C75.6172 314.984 74.4922 314.234 74.3203 313.055H72.8984ZM85.8125 316.148C86.9375 316.148 87.8594 315.656 88.4062 314.758H88.5312V316H89.8125V310.234C89.8125 308.484 88.6641 307.43 86.6094 307.43C84.8125 307.43 83.4844 308.32 83.3047 309.672H84.6641C84.8516 309.008 85.5547 308.625 86.5625 308.625C87.8203 308.625 88.4688 309.195 88.4688 310.234V311L86.0391 311.148C84.0781 311.266 82.9688 312.133 82.9688 313.641C82.9688 315.18 84.1797 316.148 85.8125 316.148ZM86.0625 314.969C85.0859 314.969 84.3594 314.469 84.3594 313.609C84.3594 312.766 84.9219 312.32 86.2031 312.234L88.4688 312.086V312.859C88.4688 314.062 87.4453 314.969 86.0625 314.969ZM98.8594 307.578H97.4219L95.1172 314.516H94.9922L92.6875 307.578H91.25L94.3672 316H95.7422L98.8594 307.578ZM105.922 313.82C105.57 314.562 104.836 314.961 103.75 314.961C102.32 314.961 101.391 313.906 101.32 312.242V312.18H107.375V311.664C107.375 309.047 105.992 307.43 103.719 307.43C101.406 307.43 99.9219 309.148 99.9219 311.797C99.9219 314.461 101.383 316.148 103.719 316.148C105.562 316.148 106.875 315.258 107.266 313.82H105.922ZM103.703 308.617C105.039 308.617 105.93 309.602 105.961 311.094H101.32C101.422 309.602 102.359 308.617 103.703 308.617ZM109.289 309.883C109.289 311.102 110.008 311.781 111.586 312.164L113.031 312.516C113.93 312.734 114.367 313.125 114.367 313.703C114.367 314.477 113.555 315.016 112.422 315.016C111.344 315.016 110.672 314.562 110.445 313.852H109.062C109.211 315.25 110.5 316.148 112.375 316.148C114.289 316.148 115.75 315.109 115.75 313.602C115.75 312.391 114.984 311.703 113.398 311.32L112.102 311.008C111.109 310.766 110.641 310.406 110.641 309.828C110.641 309.078 111.422 308.57 112.422 308.57C113.438 308.57 114.094 309.016 114.273 309.688H115.602C115.422 308.305 114.195 307.43 112.43 307.43C110.641 307.43 109.289 308.484 109.289 309.883ZM78.3359 331.102V329.828H73.2109V331.102H78.3359Z" fill="#111111"/>
<path d="M78.1719 410.461C74.9844 410.461 73 412.734 73 416.359C73 419.969 74.9375 422.266 78.1719 422.266C81.3906 422.266 83.3438 419.961 83.3438 416.359C83.3438 412.742 81.375 410.461 78.1719 410.461ZM78.1719 411.758C80.4766 411.758 81.8984 413.539 81.8984 416.359C81.8984 419.156 80.4844 420.969 78.1719 420.969C75.8281 420.969 74.4453 419.156 74.4453 416.359C74.4453 413.539 75.875 411.758 78.1719 411.758ZM92.4219 413.578H91.0781V418.562C91.0781 420.039 90.2656 420.922 88.7812 420.922C87.4375 420.922 86.875 420.219 86.875 418.703V413.578H85.5312V419.031C85.5312 421.023 86.5156 422.148 88.4062 422.148C89.6953 422.148 90.5938 421.617 91.0156 420.68H91.1406V422H92.4219V413.578ZM95.5156 411.398V413.578H94.1562V414.703H95.5156V419.812C95.5156 421.422 96.2109 422.062 97.9453 422.062C98.2109 422.062 98.4688 422.031 98.7344 421.984V420.852C98.4844 420.875 98.3516 420.883 98.1094 420.883C97.2344 420.883 96.8594 420.461 96.8594 419.469V414.703H98.7344V413.578H96.8594V411.398H95.5156ZM104.953 422.148C107.086 422.148 108.484 420.422 108.484 417.789C108.484 415.141 107.094 413.43 104.953 413.43C103.797 413.43 102.773 414 102.312 414.906H102.188V410.234H100.844V422H102.125V420.656H102.25C102.781 421.594 103.781 422.148 104.953 422.148ZM104.641 414.641C106.18 414.641 107.094 415.82 107.094 417.789C107.094 419.758 106.18 420.938 104.641 420.938C103.109 420.938 102.156 419.734 102.156 417.789C102.156 415.844 103.109 414.641 104.641 414.641ZM114.055 422.148C116.453 422.148 117.938 420.492 117.938 417.789C117.938 415.078 116.453 413.43 114.055 413.43C111.656 413.43 110.172 415.078 110.172 417.789C110.172 420.492 111.656 422.148 114.055 422.148ZM114.055 420.938C112.461 420.938 111.562 419.781 111.562 417.789C111.562 415.789 112.461 414.641 114.055 414.641C115.648 414.641 116.547 415.789 116.547 417.789C116.547 419.781 115.648 420.938 114.055 420.938ZM126.859 413.578H125.516V418.562C125.516 420.039 124.703 420.922 123.219 420.922C121.875 420.922 121.312 420.219 121.312 418.703V413.578H119.969V419.031C119.969 421.023 120.953 422.148 122.844 422.148C124.133 422.148 125.031 421.617 125.453 420.68H125.578V422H126.859V413.578ZM129.391 422H130.734V417.016C130.734 415.539 131.602 414.641 132.945 414.641C134.289 414.641 134.93 415.359 134.93 416.875V422H136.273V416.547C136.273 414.547 135.219 413.43 133.328 413.43C132.039 413.43 131.219 413.977 130.797 414.906H130.672V413.578H129.391V422ZM141.852 422.148C143.016 422.148 144.016 421.594 144.547 420.656H144.672V422H145.953V410.234H144.609V414.906H144.492C144.016 413.984 143.023 413.43 141.852 413.43C139.711 413.43 138.312 415.148 138.312 417.789C138.312 420.438 139.695 422.148 141.852 422.148ZM142.164 414.641C143.688 414.641 144.641 415.859 144.641 417.789C144.641 419.734 143.695 420.938 142.164 420.938C140.625 420.938 139.703 419.758 139.703 417.789C139.703 415.828 140.633 414.641 142.164 414.641ZM160.047 416.156C159.812 414.656 158.562 413.43 156.516 413.43C154.156 413.43 152.656 415.133 152.656 417.758C152.656 420.438 154.164 422.148 156.523 422.148C158.547 422.148 159.805 421.008 160.047 419.461H158.688C158.438 420.414 157.648 420.938 156.516 420.938C155.016 420.938 154.047 419.703 154.047 417.758C154.047 415.852 155 414.641 156.516 414.641C157.727 414.641 158.469 415.32 158.688 416.156H160.047ZM162.109 422H163.453V410.234H162.109V422ZM166.766 411.953C167.281 411.953 167.703 411.531 167.703 411.016C167.703 410.5 167.281 410.078 166.766 410.078C166.25 410.078 165.828 410.5 165.828 411.016C165.828 411.531 166.25 411.953 166.766 411.953ZM166.094 422H167.438V413.578H166.094V422ZM176.969 416.156C176.734 414.656 175.484 413.43 173.438 413.43C171.078 413.43 169.578 415.133 169.578 417.758C169.578 420.438 171.086 422.148 173.445 422.148C175.469 422.148 176.727 421.008 176.969 419.461H175.609C175.359 420.414 174.57 420.938 173.438 420.938C171.938 420.938 170.969 419.703 170.969 417.758C170.969 415.852 171.922 414.641 173.438 414.641C174.648 414.641 175.391 415.32 175.609 416.156H176.969ZM180.5 417.258H180.375V410.234H179.031V422H180.375V418.805L181.18 418.055L184.336 422H186.047L182.18 417.188L185.805 413.578H184.156L180.5 417.258ZM187.133 415.883C187.133 417.102 187.852 417.781 189.43 418.164L190.875 418.516C191.773 418.734 192.211 419.125 192.211 419.703C192.211 420.477 191.398 421.016 190.266 421.016C189.188 421.016 188.516 420.562 188.289 419.852H186.906C187.055 421.25 188.344 422.148 190.219 422.148C192.133 422.148 193.594 421.109 193.594 419.602C193.594 418.391 192.828 417.703 191.242 417.32L189.945 417.008C188.953 416.766 188.484 416.406 188.484 415.828C188.484 415.078 189.266 414.57 190.266 414.57C191.281 414.57 191.938 415.016 192.117 415.688H193.445C193.266 414.305 192.039 413.43 190.273 413.43C188.484 413.43 187.133 414.484 187.133 415.883ZM78.3359 437.102V435.828H73.2109V437.102H78.3359Z" fill="#111111"/>
</svg>
