<svg width="280" height="320" viewBox="0 0 280 320" fill="none" xmlns="http://www.w3.org/2000/svg">
<path fill-rule="evenodd" clip-rule="evenodd" d="M120.307 107.143C146.07 93.3867 181.589 112.145 191.844 137.906C202.099 163.667 180.588 177.173 162.579 182.675C160.614 183.275 158.399 183.756 155.993 184.278C145.684 186.515 131.881 189.509 119.307 205.935C103.799 226.194 86.7986 214.958 84.2886 201.433C75.284 152.912 102.298 116.758 120.307 107.143ZM171 158.5C176.247 158.5 180.5 154.247 180.5 149C180.5 143.753 176.247 139.5 171 139.5C165.753 139.5 161.5 143.753 161.5 149C161.5 154.247 165.753 158.5 171 158.5Z" fill="#111111"/>
<path fill-rule="evenodd" clip-rule="evenodd" d="M123.307 107.143C149.07 93.3867 184.589 112.145 194.844 137.906C205.099 163.667 183.588 177.173 165.579 182.675C163.614 183.275 161.399 183.756 158.993 184.278C148.684 186.515 134.881 189.509 122.307 205.935C106.799 226.194 89.7986 214.958 87.2886 201.433C78.284 152.912 105.298 116.758 123.307 107.143ZM174 158.5C179.247 158.5 183.5 154.247 183.5 149C183.5 143.753 179.247 139.5 174 139.5C168.753 139.5 164.5 143.753 164.5 149C164.5 154.247 168.753 158.5 174 158.5Z" fill="white"/>
<path d="M194.844 137.906L195.541 137.628L195.541 137.628L194.844 137.906ZM123.307 107.143L123.66 107.804L123.66 107.804L123.307 107.143ZM165.579 182.675L165.798 183.392L165.798 183.392L165.579 182.675ZM158.993 184.278L159.152 185.011L159.152 185.011L158.993 184.278ZM122.307 205.935L121.711 205.479L121.711 205.479L122.307 205.935ZM87.2886 201.433L86.5512 201.57L86.5512 201.57L87.2886 201.433ZM195.541 137.628C190.332 124.543 178.734 113.282 165.206 107.025C151.676 100.766 136.099 99.4625 122.954 106.481L123.66 107.804C136.279 101.067 151.343 102.265 164.576 108.386C177.812 114.509 189.101 125.508 194.147 138.183L195.541 137.628ZM165.798 183.392C174.862 180.623 184.896 175.817 191.376 168.38C194.625 164.652 196.987 160.254 197.87 155.122C198.752 149.991 198.148 144.176 195.541 137.628L194.147 138.183C196.668 144.516 197.22 150.05 196.391 154.868C195.562 159.686 193.344 163.839 190.245 167.395C184.031 174.527 174.305 179.225 165.36 181.958L165.798 183.392ZM159.152 185.011C161.55 184.491 163.798 184.004 165.798 183.392L165.36 181.958C163.43 182.547 161.248 183.021 158.834 183.545L159.152 185.011ZM122.902 206.391C135.307 190.186 148.884 187.239 159.152 185.011L158.834 183.545C148.485 185.79 134.454 188.833 121.711 205.479L122.902 206.391ZM86.5512 201.57C87.849 208.563 92.8946 215.01 99.7062 217.071C106.597 219.156 115.022 216.685 122.902 206.391L121.711 205.479C114.083 215.444 106.254 217.485 100.141 215.635C93.9476 213.762 89.2381 207.828 88.026 201.296L86.5512 201.57ZM122.954 106.481C113.778 111.38 102.424 122.958 94.4924 139.372C86.5508 155.807 82.0169 177.137 86.5512 201.57L88.026 201.296C83.5556 177.208 88.0264 156.201 95.8429 140.025C103.67 123.827 114.827 112.521 123.66 107.804L122.954 106.481ZM182.75 149C182.75 153.832 178.832 157.75 174 157.75V159.25C179.661 159.25 184.25 154.661 184.25 149H182.75ZM174 140.25C178.832 140.25 182.75 144.168 182.75 149H184.25C184.25 143.339 179.661 138.75 174 138.75V140.25ZM165.25 149C165.25 144.168 169.168 140.25 174 140.25V138.75C168.339 138.75 163.75 143.339 163.75 149H165.25ZM174 157.75C169.168 157.75 165.25 153.832 165.25 149H163.75C163.75 154.661 168.339 159.25 174 159.25V157.75Z" fill="#111111"/>
<path d="M96.2848 185.603C93.947 179.66 99.5816 176.468 103.74 176.537C110.508 177.021 111.433 180.572 111.55 182.378C111.667 184.185 112.414 186.755 107.668 191.339C102.922 195.924 99.2069 193.031 96.2848 185.603Z" stroke="#111111" stroke-width="1.5" stroke-linejoin="round"/>
<path d="M144.86 169.624C141.949 175.308 135.827 173.193 133.129 170.028C129.015 164.632 131.068 161.59 132.345 160.308C133.622 159.025 135.056 156.764 141.633 157.292C148.211 157.82 148.498 162.519 144.86 169.624Z" stroke="#111111" stroke-width="1.5" stroke-linejoin="round"/>
<path d="M99.1277 162.787C97.1042 159.919 103.25 155.019 107.162 153.915C112.373 152.443 117.813 158.319 118.15 160.742C118.5 163.25 114.046 168.307 108.177 164.739C102.307 161.171 101.657 166.372 99.1277 162.787Z" stroke="#111111" stroke-width="1.5" stroke-linejoin="round"/>
<path d="M136.351 123.403C134.381 119.392 136.951 115.063 141.798 115.409C144.304 115.588 147.656 118.153 149.054 121.507C150.8 125.7 151.298 129.557 146.361 130.468C141.424 131.38 138.814 128.417 136.351 123.403Z" stroke="#111111" stroke-width="1.5" stroke-linejoin="round"/>
<path d="M120.5 140.5C116.9 141.5 112 141.079 111.396 138.329C108.646 131.329 120.896 129.579 127.396 132.079C133.896 134.579 134.396 148.329 127.396 148.579C120.396 148.829 125 139.25 120.5 140.5Z" stroke="#111111" stroke-width="1.5"/>
<path d="M178.913 189.515C151.305 194.305 138.269 208.062 132.584 215.701C132.339 216.031 132.589 216.49 133 216.477C164.264 215.493 183.135 188.782 178.913 189.515Z" fill="white" stroke="#111111" stroke-width="1.5" stroke-linejoin="round"/>
<rect x="-0.258035" y="1.02664" width="6.5" height="9.5" transform="matrix(0.515102 0.857129 -0.859148 0.511726 181.208 185.722)" fill="white" stroke="#111111" stroke-width="1.5"/>
<path d="M193.895 178.563C180.985 180.399 178.26 185.61 178.516 188.096C178.522 188.152 178.539 188.206 178.565 188.257L180.816 192.635C180.925 192.847 181.174 192.952 181.403 192.883C192.381 189.6 194.958 182.68 194.437 178.949C194.401 178.692 194.152 178.527 193.895 178.563Z" fill="white" stroke="#111111" stroke-width="1.5" stroke-linejoin="round"/>
<path d="M180 191C180.528 189.612 180.792 186.102 186.604 185.122C190.834 184.409 192.767 180.143 194 179" stroke="#111111" stroke-width="1.5"/>
</svg>
