<svg width="280" height="320" viewBox="0 0 280 320" fill="none" xmlns="http://www.w3.org/2000/svg">
<path d="M104 61.25H148.5C150.295 61.25 151.75 62.7051 151.75 64.5V67C151.75 69.6234 149.623 71.75 147 71.75H105.5C102.877 71.75 100.75 69.6234 100.75 67V64.5C100.75 62.7051 102.205 61.25 104 61.25Z" fill="white" stroke="#111111" stroke-width="1.5"/>
<path d="M127 71.5V86.5" stroke="#111111" stroke-width="1.5" stroke-linejoin="round"/>
<path d="M172 132.5C172 158.734 150.734 180 124.5 180C98.2665 180 77 158.734 77 132.5C77 106.266 98.2665 85 124.5 85C150.734 85 172 106.266 172 132.5Z" fill="#111111"/>
<path d="M173.25 133C173.25 158.819 152.319 179.75 126.5 179.75C100.681 179.75 79.75 158.819 79.75 133C79.75 107.181 100.681 86.25 126.5 86.25C152.319 86.25 173.25 107.181 173.25 133Z" fill="white" stroke="#111111" stroke-width="1.5"/>
<path d="M127 86L128 180.5" stroke="#111111" stroke-width="1.5" stroke-linejoin="round"/>
<path d="M137.5 88C142.736 102.811 150.162 142.082 137.597 178.5" stroke="#111111" stroke-width="1.5" stroke-linejoin="round"/>
<path d="M115 88C109.764 102.811 102.338 142.082 114.903 178.5" stroke="#111111" stroke-width="1.5" stroke-linejoin="round"/>
<path d="M152.5 94C159.04 106.874 168.714 141.714 153.018 171.5" stroke="#111111" stroke-width="1.5" stroke-linejoin="round"/>
<path d="M100 94C93.4598 106.874 83.7858 141.714 99.4823 171.5" stroke="#111111" stroke-width="1.5" stroke-linejoin="round"/>
<path d="M79.5 133H173" stroke="#111111" stroke-width="1.5" stroke-linejoin="round"/>
<path d="M81.5 120.5C92.4406 115.743 132.498 107.534 171.5 120.37" stroke="#111111" stroke-width="1.5" stroke-linejoin="round"/>
<path d="M81.5 145.5C92.4406 150.257 132.498 158.466 171.5 145.63" stroke="#111111" stroke-width="1.5" stroke-linejoin="round"/>
<path d="M88 106.3C100.573 100.318 135.684 92.1441 165 106.5" stroke="#111111" stroke-width="1.5" stroke-linejoin="round"/>
<path d="M88 159.7C100.573 165.682 135.684 173.856 165 159.5" stroke="#111111" stroke-width="1.5" stroke-linejoin="round"/>
<path d="M81.5 71.5V82.5" stroke="#111111" stroke-width="1.5" stroke-linecap="round" stroke-linejoin="round"/>
<path d="M183 115.5L177.934 125.264" stroke="#111111" stroke-width="1.5" stroke-linecap="round" stroke-linejoin="round"/>
<path d="M73.7806 97L68.7151 106.764" stroke="#111111" stroke-width="1.5" stroke-linecap="round" stroke-linejoin="round"/>
<path d="M175.487 74.5L176.033 85.4864" stroke="#111111" stroke-width="1.5" stroke-linecap="round" stroke-linejoin="round"/>
<path d="M87 76.5L76 76.5" stroke="#111111" stroke-width="1.5" stroke-linecap="round" stroke-linejoin="round"/>
<path d="M185 122.5L175.22 117.464" stroke="#111111" stroke-width="1.5" stroke-linecap="round" stroke-linejoin="round"/>
<path d="M76.2795 104.5L66.5 99.464" stroke="#111111" stroke-width="1.5" stroke-linecap="round" stroke-linejoin="round"/>
<path d="M180.987 79.5L170 80.0419" stroke="#111111" stroke-width="1.5" stroke-linecap="round" stroke-linejoin="round"/>
<circle cx="68.25" cy="128.75" r="1.5" fill="white" stroke="#111111" stroke-width="1.5"/>
<circle cx="153.75" cy="79.25" r="1.5" fill="white" stroke="#111111" stroke-width="1.5"/>
<circle cx="173.75" cy="100.75" r="1.5" fill="white" stroke="#111111" stroke-width="1.5"/>
<circle cx="96.25" cy="83.75" r="1.5" fill="white" stroke="#111111" stroke-width="1.5"/>
<ellipse cx="163.27" cy="255.162" rx="33.7703" ry="4.25676" fill="#111111"/>
<path d="M158.224 191.741C157.03 198.224 159.16 203.122 161.085 205.724C161.836 206.74 163.127 207.167 164.336 206.8C167.746 205.764 172.396 202.716 173.068 195.867C173.785 188.558 171.485 181.955 169.811 178.676C169.435 177.94 168.715 177.462 167.901 177.321C167.163 177.193 166.397 177.349 165.829 177.836C163.398 179.917 159.527 184.669 158.224 191.741Z" fill="white" stroke="#111111" stroke-width="1.5"/>
<rect x="140.284" y="208.338" width="69.8108" height="8.51351" fill="white"/>
<path d="M203.851 216.851H145.959L152.836 255.446H196.35L203.851 216.851Z" fill="white"/>
<rect x="139.448" y="207.938" width="71.1953" height="9.26803" rx="2.0053" stroke="#111111" stroke-width="1.5"/>
<path d="M145.847 216.84L152.348 253.615C152.58 254.931 153.724 255.89 155.061 255.89H194.628C195.955 255.89 197.093 254.945 197.336 253.64L204.2 216.84" stroke="#111111" stroke-width="1.5" stroke-linejoin="round"/>
<path d="M163.766 144.651C163.355 144.6 162.981 144.892 162.93 145.303C162.879 145.714 163.171 146.089 163.582 146.14L163.766 144.651ZM163.582 146.14C168.394 146.735 174.622 148.634 179.53 152.938C184.407 157.215 188.045 163.923 187.633 174.296L189.132 174.356C189.561 163.551 185.752 156.4 180.519 151.81C175.316 147.247 168.77 145.27 163.766 144.651L163.582 146.14ZM187.633 174.296C186.811 195.027 170.669 204.705 162.023 207.091L162.422 208.537C171.425 206.053 188.274 195.982 189.132 174.356L187.633 174.296Z" fill="#111111"/>
<path d="M137.032 151.743C143.274 136.328 157.887 141.541 163.968 145.604C156.859 159.937 144.765 158.131 138.141 154.784C137.03 154.222 136.565 152.897 137.032 151.743Z" fill="white"/>
<path d="M163.968 145.605C157.887 141.541 143.274 136.328 137.032 151.743C136.565 152.897 137.03 154.222 138.141 154.784C144.765 158.131 156.859 159.937 163.968 145.604" stroke="#111111" stroke-width="1.5" stroke-linejoin="round"/>
<path d="M164.889 124.896C162.096 136.256 169.191 144.912 173.313 148.046C173.431 148.135 173.55 148.209 173.68 148.278C176.784 149.936 183.097 153.515 183.987 156.405C189.44 142.041 177.47 129.704 168.951 123.503C167.443 122.406 165.335 123.086 164.889 124.896Z" fill="white" stroke="#111111" stroke-width="1.5" stroke-linejoin="round"/>
<path d="M169.371 157.41C170.72 172.725 180.214 177.269 186.408 177.661C187.558 177.734 188.375 176.662 188.121 175.538C185.356 163.264 177.03 157.463 171.567 155.59C170.379 155.182 169.261 156.16 169.371 157.41Z" fill="white" stroke="#111111" stroke-width="1.5" stroke-linejoin="round"/>
<path d="M203.444 193.431C195.54 197.309 184.272 195.206 180.581 195.816L183.549 191.667C183.654 191.52 183.745 191.365 183.824 191.203C188.357 182.008 201.811 176.828 210.288 174.891C211.969 174.507 213.56 175.734 213.47 177.456C213.17 183.198 210.549 189.944 203.444 193.431Z" fill="white" stroke="#111111" stroke-width="1.5" stroke-linejoin="round"/>
<path d="M177.265 163.706C177.066 163.343 176.61 163.211 176.247 163.411C175.884 163.61 175.751 164.066 175.951 164.429L177.265 163.706ZM175.951 164.429C176.832 166.031 178.458 168.571 180.494 171.03C182.52 173.478 185.008 175.913 187.623 177.225L188.296 175.884C185.959 174.712 183.631 172.467 181.65 170.074C179.678 167.693 178.105 165.232 177.265 163.706L175.951 164.429Z" fill="#111111"/>
<path d="M142.712 149.818C142.365 150.045 142.267 150.509 142.494 150.856C142.72 151.203 143.185 151.3 143.532 151.074L142.712 149.818ZM143.532 151.074C144.913 150.172 147.708 148.803 151.208 147.726C154.703 146.651 158.849 145.882 162.94 146.137L163.033 144.64C158.707 144.371 154.373 145.183 150.766 146.293C147.164 147.401 144.235 148.823 142.712 149.818L143.532 151.074Z" fill="#111111"/>
<path d="M172.731 133.07C172.538 132.703 172.085 132.562 171.718 132.755C171.352 132.948 171.211 133.402 171.404 133.768L172.731 133.07ZM171.404 133.768L182.755 155.336L184.083 154.637L172.731 133.07L171.404 133.768Z" fill="#111111"/>
<path d="M167.141 188.508C167.161 188.095 166.841 187.743 166.427 187.724C166.013 187.704 165.662 188.024 165.643 188.438L167.141 188.508ZM164.281 207.386C165.09 204.171 166.792 195.91 167.141 188.508L165.643 188.438C165.3 195.704 163.622 203.859 162.827 207.02L164.281 207.386Z" fill="#111111"/>
<path d="M206.787 182.575C206.978 182.207 206.835 181.755 206.467 181.564C206.099 181.373 205.647 181.517 205.456 181.884L206.787 182.575ZM183.069 193.164C186.471 192.134 191.794 190.583 196.526 188.783C198.891 187.882 201.134 186.91 202.928 185.897C204.683 184.907 206.152 183.8 206.787 182.575L205.456 181.884C205.04 182.685 203.928 183.61 202.19 184.591C200.491 185.551 198.328 186.492 195.992 187.381C191.322 189.158 186.061 190.69 182.634 191.728L183.069 193.164Z" fill="#111111"/>
<path d="M204.419 217.419H145.959L146.919 221.959L204.419 219.042V217.419Z" fill="#111111"/>
</svg>
