<svg width="280" height="320" viewBox="0 0 280 320" fill="none" xmlns="http://www.w3.org/2000/svg">
<ellipse cx="135.75" cy="217.25" rx="29.75" ry="3.75" fill="#111111"/>
<path d="M131.305 161.379C130.281 166.935 132.029 171.169 133.685 173.505C134.416 174.536 135.714 174.967 136.915 174.574C139.895 173.597 143.804 170.897 144.381 165.014C145.013 158.575 142.987 152.758 141.512 149.869C141.181 149.221 140.546 148.8 139.829 148.676C139.179 148.563 138.505 148.7 138.004 149.129C135.862 150.963 132.452 155.149 131.305 161.379Z" fill="white" stroke="#111111" stroke-width="1.5"/>
<rect x="115.5" y="176" width="61.5" height="7.5" fill="white"/>
<path d="M171.5 183.5H120.5L126.558 217.5H164.891L171.5 183.5Z" fill="white"/>
<rect x="114.853" y="175.737" width="62.5411" height="7.98612" rx="2.0053" stroke="#111111" stroke-width="1.5"/>
<path d="M120.401 183.49L126.08 215.616C126.312 216.932 127.456 217.892 128.793 217.892H163.102C164.429 217.892 165.567 216.946 165.81 215.641L171.807 183.49" stroke="#111111" stroke-width="1.5" stroke-linejoin="round"/>
<path d="M136.198 119.806C135.787 119.755 135.413 120.047 135.362 120.458C135.311 120.87 135.603 121.244 136.014 121.295L136.198 119.806ZM136.014 121.295C140.241 121.818 145.709 123.486 150.015 127.262C154.29 131.012 157.485 136.894 157.124 146.007L158.622 146.067C159.001 136.522 155.635 130.196 151.004 126.134C146.403 122.099 140.617 120.353 136.198 119.806L136.014 121.295ZM157.124 146.007C156.401 164.217 142.223 172.72 134.627 174.816L135.026 176.262C142.979 174.067 157.865 165.172 158.622 146.067L157.124 146.007Z" fill="#111111"/>
<path d="M112.732 125.908C118.283 112.616 131.038 117.176 136.365 120.735C130.181 133.201 119.716 131.808 113.836 128.933C112.717 128.385 112.252 127.057 112.732 125.908Z" fill="white"/>
<path d="M136.365 120.735C131.038 117.176 118.283 112.616 112.732 125.908C112.252 127.057 112.717 128.385 113.836 128.933C119.716 131.808 130.181 133.201 136.365 120.735" stroke="#111111" stroke-width="1.5" stroke-linejoin="round"/>
<path d="M137.079 102.906C134.893 112.69 140.992 120.135 144.577 122.87C144.694 122.959 144.814 123.034 144.944 123.103C147.686 124.569 153.219 127.711 154 130.25C158.731 117.789 148.578 107.06 141.1 101.519C139.602 100.409 137.486 101.086 137.079 102.906Z" fill="white" stroke="#111111" stroke-width="1.5" stroke-linejoin="round"/>
<path d="M141.151 131.422C142.412 144.479 150.461 148.508 155.88 148.956C157.028 149.051 157.849 147.98 157.586 146.859C155.141 136.414 148.105 131.359 143.329 129.627C142.149 129.198 141.03 130.173 141.151 131.422Z" fill="white" stroke="#111111" stroke-width="1.5" stroke-linejoin="round"/>
<path d="M171.141 162.867C164.178 166.284 154.252 164.432 151 164.968L153.596 161.34C153.701 161.193 153.791 161.038 153.871 160.876C157.813 152.926 169.327 148.389 176.801 146.62C178.479 146.223 180.074 147.452 179.95 149.172C179.592 154.145 177.246 159.872 171.141 162.867Z" fill="white" stroke="#111111" stroke-width="1.5" stroke-linejoin="round"/>
<path d="M148.157 136.638C147.957 136.276 147.501 136.143 147.138 136.343C146.776 136.543 146.643 136.999 146.843 137.362L148.157 136.638ZM146.843 137.362C147.622 138.777 149.057 141.02 150.855 143.191C152.642 145.35 154.843 147.506 157.164 148.67L157.836 147.33C155.795 146.305 153.753 144.34 152.01 142.234C150.277 140.141 148.894 137.978 148.157 136.638L146.843 137.362Z" fill="#111111"/>
<path d="M117.59 124.372C117.243 124.599 117.146 125.063 117.372 125.41C117.599 125.757 118.063 125.854 118.41 125.628L117.59 124.372ZM118.41 125.628C119.618 124.839 122.073 123.636 125.15 122.69C128.222 121.744 131.864 121.07 135.453 121.293L135.547 119.796C131.722 119.558 127.893 120.276 124.708 121.256C121.529 122.234 118.94 123.49 117.59 124.372L118.41 125.628Z" fill="#111111"/>
<path d="M144.164 109.651C143.971 109.284 143.517 109.143 143.151 109.336C142.784 109.529 142.643 109.983 142.836 110.349L144.164 109.651ZM142.836 110.349L152.836 129.349L154.164 128.651L144.164 109.651L142.836 110.349Z" fill="#111111"/>
<path d="M139.249 158.535C139.269 158.122 138.949 157.77 138.535 157.751C138.122 157.731 137.77 158.051 137.751 158.465L139.249 158.535ZM136.727 175.183C137.441 172.348 138.942 165.064 139.249 158.535L137.751 158.465C137.45 164.858 135.972 172.036 135.273 174.817L136.727 175.183Z" fill="#111111"/>
<path d="M174.166 153.345C174.356 152.978 174.213 152.525 173.845 152.334C173.478 152.144 173.025 152.287 172.834 152.655L174.166 153.345ZM153.217 162.718C156.213 161.811 160.906 160.444 165.078 158.856C167.164 158.062 169.144 157.204 170.73 156.309C172.278 155.435 173.593 154.45 174.166 153.345L172.834 152.655C172.481 153.335 171.523 154.139 169.993 155.003C168.502 155.845 166.601 156.672 164.545 157.454C160.434 159.019 155.803 160.367 152.783 161.282L153.217 162.718Z" fill="#111111"/>
<path d="M172 184H120.5L121.345 188L172 185.43V184Z" fill="#111111"/>
</svg>
