<svg width="280" height="320" viewBox="0 0 280 320" fill="none" xmlns="http://www.w3.org/2000/svg">
<path d="M111.411 138.653C109.953 141.275 110.561 145.011 111.244 147.213C111.424 147.792 111.971 148.168 112.576 148.117C115.132 147.905 119.309 146.783 121.268 143.415C123.835 139.081 122.753 134.785 121.606 132.592C121.355 132.113 120.823 131.862 120.293 131.968C117.136 132.603 113.35 135.165 111.411 138.653Z" fill="white" stroke="#111111" stroke-width="1.5"/>
<path d="M168.5 170H128.5L133.251 197H163.317L168.5 170Z" fill="white"/>
<rect x="123.75" y="163.75" width="49" height="6" rx="0.75" fill="white" stroke="#111111" stroke-width="1.5"/>
<path d="M128 170L132.571 195.762C132.699 196.478 133.321 197 134.048 197H162.2C162.922 197 163.542 196.486 163.674 195.776L168.5 170" stroke="#111111" stroke-width="1.5" stroke-linejoin="round"/>
<path d="M139.414 144.65C147.895 151.113 154.669 148.486 157.824 145.519C158.453 144.928 158.276 143.934 157.526 143.506C149.953 139.185 143.101 140.636 139.526 142.525C138.693 142.965 138.665 144.079 139.414 144.65Z" fill="white" stroke="#111111" stroke-width="1.5" stroke-linejoin="round"/>
<path d="M146.167 143.769C145.763 143.677 145.361 143.929 145.269 144.333C145.177 144.737 145.429 145.139 145.833 145.231L146.167 143.769ZM145.833 145.231C147.07 145.514 149.135 145.841 151.354 145.916C153.559 145.99 156.002 145.82 157.948 145.049L157.395 143.654C155.736 144.312 153.537 144.488 151.405 144.416C149.287 144.345 147.318 144.032 146.167 143.769L145.833 145.231Z" fill="#111111"/>
<path d="M112.843 145.223C112.764 145.629 113.029 146.023 113.436 146.102C113.842 146.182 114.236 145.916 114.315 145.51L112.843 145.223ZM114.315 145.51C114.769 143.181 117.068 137.031 121.35 132.877L120.306 131.8C115.753 136.216 113.34 142.67 112.843 145.223L114.315 145.51Z" fill="#111111"/>
<path d="M120.5 131.996C124.847 127.974 135.38 122.109 143.74 123.114C154.346 124.39 157.952 134.006 158.453 140.877C159.053 149.088 153.772 158.473 150.093 163.5" stroke="#111111" stroke-width="1.5"/>
</svg>
