<svg width="437" height="320" viewBox="0 0 437 320" fill="none" xmlns="http://www.w3.org/2000/svg">
<rect width="437" height="320" fill="white"/>
<path d="M103.781 247V242.148L107.781 235.727H106.18L103.141 240.734H103.016L99.9766 235.727H98.375L102.375 242.148V247H103.781ZM111.727 247.148C114.125 247.148 115.609 245.492 115.609 242.789C115.609 240.078 114.125 238.43 111.727 238.43C109.328 238.43 107.844 240.078 107.844 242.789C107.844 245.492 109.328 247.148 111.727 247.148ZM111.727 245.938C110.133 245.938 109.234 244.781 109.234 242.789C109.234 240.789 110.133 239.641 111.727 239.641C113.32 239.641 114.219 240.789 114.219 242.789C114.219 244.781 113.32 245.938 111.727 245.938ZM124.531 238.578H123.188V243.562C123.188 245.039 122.375 245.922 120.891 245.922C119.547 245.922 118.984 245.219 118.984 243.703V238.578H117.641V244.031C117.641 246.023 118.625 247.148 120.516 247.148C121.805 247.148 122.703 246.617 123.125 245.68H123.25V247H124.531V238.578ZM127.062 247H128.406V241.781C128.406 240.594 129.336 239.734 130.617 239.734C130.883 239.734 131.367 239.781 131.477 239.812V238.469C131.305 238.445 131.023 238.43 130.805 238.43C129.688 238.43 128.719 239.008 128.469 239.828H128.344V238.578H127.062V247ZM140.789 247.148C141.953 247.148 142.953 246.594 143.484 245.656H143.609V247H144.891V235.234H143.547V239.906H143.43C142.953 238.984 141.961 238.43 140.789 238.43C138.648 238.43 137.25 240.148 137.25 242.789C137.25 245.438 138.633 247.148 140.789 247.148ZM141.102 239.641C142.625 239.641 143.578 240.859 143.578 242.789C143.578 244.734 142.633 245.938 141.102 245.938C139.562 245.938 138.641 244.758 138.641 242.789C138.641 240.828 139.57 239.641 141.102 239.641ZM149.844 247.148C150.969 247.148 151.891 246.656 152.438 245.758H152.562V247H153.844V241.234C153.844 239.484 152.695 238.43 150.641 238.43C148.844 238.43 147.516 239.32 147.336 240.672H148.695C148.883 240.008 149.586 239.625 150.594 239.625C151.852 239.625 152.5 240.195 152.5 241.234V242L150.07 242.148C148.109 242.266 147 243.133 147 244.641C147 246.18 148.211 247.148 149.844 247.148ZM150.094 245.969C149.117 245.969 148.391 245.469 148.391 244.609C148.391 243.766 148.953 243.32 150.234 243.234L152.5 243.086V243.859C152.5 245.062 151.477 245.969 150.094 245.969ZM156.891 236.398V238.578H155.531V239.703H156.891V244.812C156.891 246.422 157.586 247.062 159.32 247.062C159.586 247.062 159.844 247.031 160.109 246.984V245.852C159.859 245.875 159.727 245.883 159.484 245.883C158.609 245.883 158.234 245.461 158.234 244.469V239.703H160.109V238.578H158.234V236.398H156.891ZM164.484 247.148C165.609 247.148 166.531 246.656 167.078 245.758H167.203V247H168.484V241.234C168.484 239.484 167.336 238.43 165.281 238.43C163.484 238.43 162.156 239.32 161.977 240.672H163.336C163.523 240.008 164.227 239.625 165.234 239.625C166.492 239.625 167.141 240.195 167.141 241.234V242L164.711 242.148C162.75 242.266 161.641 243.133 161.641 244.641C161.641 246.18 162.852 247.148 164.484 247.148ZM164.734 245.969C163.758 245.969 163.031 245.469 163.031 244.609C163.031 243.766 163.594 243.32 164.875 243.234L167.141 243.086V243.859C167.141 245.062 166.117 245.969 164.734 245.969ZM176.188 236.953C176.703 236.953 177.125 236.531 177.125 236.016C177.125 235.5 176.703 235.078 176.188 235.078C175.672 235.078 175.25 235.5 175.25 236.016C175.25 236.531 175.672 236.953 176.188 236.953ZM175.516 247H176.859V238.578H175.516V247ZM179.227 240.883C179.227 242.102 179.945 242.781 181.523 243.164L182.969 243.516C183.867 243.734 184.305 244.125 184.305 244.703C184.305 245.477 183.492 246.016 182.359 246.016C181.281 246.016 180.609 245.562 180.383 244.852H179C179.148 246.25 180.438 247.148 182.312 247.148C184.227 247.148 185.688 246.109 185.688 244.602C185.688 243.391 184.922 242.703 183.336 242.32L182.039 242.008C181.047 241.766 180.578 241.406 180.578 240.828C180.578 240.078 181.359 239.57 182.359 239.57C183.375 239.57 184.031 240.016 184.211 240.688H185.539C185.359 239.305 184.133 238.43 182.367 238.43C180.578 238.43 179.227 239.484 179.227 240.883ZM196.414 238.43C195.266 238.43 194.258 239.016 193.719 239.984H193.594V238.578H192.312V249.812H193.656V245.734H193.781C194.242 246.625 195.211 247.148 196.414 247.148C198.555 247.148 199.953 245.422 199.953 242.789C199.953 240.141 198.562 238.43 196.414 238.43ZM196.094 245.938C194.578 245.938 193.617 244.719 193.617 242.789C193.617 240.852 194.578 239.641 196.102 239.641C197.641 239.641 198.562 240.82 198.562 242.789C198.562 244.758 197.641 245.938 196.094 245.938ZM202.062 247H203.406V241.781C203.406 240.594 204.336 239.734 205.617 239.734C205.883 239.734 206.367 239.781 206.477 239.812V238.469C206.305 238.445 206.023 238.43 205.805 238.43C204.688 238.43 203.719 239.008 203.469 239.828H203.344V238.578H202.062V247ZM211.383 247.148C213.781 247.148 215.266 245.492 215.266 242.789C215.266 240.078 213.781 238.43 211.383 238.43C208.984 238.43 207.5 240.078 207.5 242.789C207.5 245.492 208.984 247.148 211.383 247.148ZM211.383 245.938C209.789 245.938 208.891 244.781 208.891 242.789C208.891 240.789 209.789 239.641 211.383 239.641C212.977 239.641 213.875 240.789 213.875 242.789C213.875 244.781 212.977 245.938 211.383 245.938ZM224.344 241.156C224.109 239.656 222.859 238.43 220.812 238.43C218.453 238.43 216.953 240.133 216.953 242.758C216.953 245.438 218.461 247.148 220.82 247.148C222.844 247.148 224.102 246.008 224.344 244.461H222.984C222.734 245.414 221.945 245.938 220.812 245.938C219.312 245.938 218.344 244.703 218.344 242.758C218.344 240.852 219.297 239.641 220.812 239.641C222.023 239.641 222.766 240.32 222.984 241.156H224.344ZM231.906 244.82C231.555 245.562 230.82 245.961 229.734 245.961C228.305 245.961 227.375 244.906 227.305 243.242V243.18H233.359V242.664C233.359 240.047 231.977 238.43 229.703 238.43C227.391 238.43 225.906 240.148 225.906 242.797C225.906 245.461 227.367 247.148 229.703 247.148C231.547 247.148 232.859 246.258 233.25 244.82H231.906ZM229.688 239.617C231.023 239.617 231.914 240.602 231.945 242.094H227.305C227.406 240.602 228.344 239.617 229.688 239.617ZM235.273 240.883C235.273 242.102 235.992 242.781 237.57 243.164L239.016 243.516C239.914 243.734 240.352 244.125 240.352 244.703C240.352 245.477 239.539 246.016 238.406 246.016C237.328 246.016 236.656 245.562 236.43 244.852H235.047C235.195 246.25 236.484 247.148 238.359 247.148C240.273 247.148 241.734 246.109 241.734 244.602C241.734 243.391 240.969 242.703 239.383 242.32L238.086 242.008C237.094 241.766 236.625 241.406 236.625 240.828C236.625 240.078 237.406 239.57 238.406 239.57C239.422 239.57 240.078 240.016 240.258 240.688H241.586C241.406 239.305 240.18 238.43 238.414 238.43C236.625 238.43 235.273 239.484 235.273 240.883ZM243.492 240.883C243.492 242.102 244.211 242.781 245.789 243.164L247.234 243.516C248.133 243.734 248.57 244.125 248.57 244.703C248.57 245.477 247.758 246.016 246.625 246.016C245.547 246.016 244.875 245.562 244.648 244.852H243.266C243.414 246.25 244.703 247.148 246.578 247.148C248.492 247.148 249.953 246.109 249.953 244.602C249.953 243.391 249.188 242.703 247.602 242.32L246.305 242.008C245.312 241.766 244.844 241.406 244.844 240.828C244.844 240.078 245.625 239.57 246.625 239.57C247.641 239.57 248.297 240.016 248.477 240.688H249.805C249.625 239.305 248.398 238.43 246.633 238.43C244.844 238.43 243.492 239.484 243.492 240.883ZM252.766 236.953C253.281 236.953 253.703 236.531 253.703 236.016C253.703 235.5 253.281 235.078 252.766 235.078C252.25 235.078 251.828 235.5 251.828 236.016C251.828 236.531 252.25 236.953 252.766 236.953ZM252.094 247H253.438V238.578H252.094V247ZM256 247H257.344V242.016C257.344 240.539 258.211 239.641 259.555 239.641C260.898 239.641 261.539 240.359 261.539 241.875V247H262.883V241.547C262.883 239.547 261.828 238.43 259.938 238.43C258.648 238.43 257.828 238.977 257.406 239.906H257.281V238.578H256V247ZM268.812 250.234C271.109 250.234 272.562 249.031 272.562 247.148V238.578H271.281V239.914H271.156C270.672 239.008 269.633 238.43 268.453 238.43C266.289 238.43 264.922 240.141 264.922 242.664C264.922 245.188 266.273 246.875 268.453 246.875C269.609 246.875 270.562 246.352 271.094 245.422H271.219V247.078C271.219 248.32 270.32 249.062 268.812 249.062C267.602 249.062 266.852 248.617 266.703 247.93H265.281C265.484 249.32 266.781 250.234 268.812 250.234ZM268.75 245.688C267.188 245.688 266.312 244.5 266.312 242.664C266.312 240.828 267.188 239.641 268.75 239.641C270.305 239.641 271.25 240.828 271.25 242.664C271.25 244.5 270.312 245.688 268.75 245.688ZM275.945 249.867L277.172 245.422H275.68L274.938 249.867H275.945ZM285.078 250.047C286.57 250.047 287.242 249.469 287.961 247.516L291.25 238.578H289.82L287.516 245.508H287.391L285.078 238.578H283.625L286.742 247.008L286.586 247.508C286.234 248.523 285.812 248.891 285.039 248.891C284.852 248.891 284.641 248.883 284.477 248.852V250C284.664 250.031 284.898 250.047 285.078 250.047ZM296.195 247.148C298.594 247.148 300.078 245.492 300.078 242.789C300.078 240.078 298.594 238.43 296.195 238.43C293.797 238.43 292.312 240.078 292.312 242.789C292.312 245.492 293.797 247.148 296.195 247.148ZM296.195 245.938C294.602 245.938 293.703 244.781 293.703 242.789C293.703 240.789 294.602 239.641 296.195 239.641C297.789 239.641 298.688 240.789 298.688 242.789C298.688 244.781 297.789 245.938 296.195 245.938ZM309 238.578H307.656V243.562C307.656 245.039 306.844 245.922 305.359 245.922C304.016 245.922 303.453 245.219 303.453 243.703V238.578H302.109V244.031C302.109 246.023 303.094 247.148 304.984 247.148C306.273 247.148 307.172 246.617 307.594 245.68H307.719V247H309V238.578ZM326.641 238.578H325.289L323.633 245.312H323.508L321.625 238.578H320.336L318.453 245.312H318.328L316.672 238.578H315.312L317.672 247H319.031L320.906 240.484H321.031L322.914 247H324.281L326.641 238.578ZM329.141 236.953C329.656 236.953 330.078 236.531 330.078 236.016C330.078 235.5 329.656 235.078 329.141 235.078C328.625 235.078 328.203 235.5 328.203 236.016C328.203 236.531 328.625 236.953 329.141 236.953ZM328.469 247H329.812V238.578H328.469V247ZM332.453 247H333.797V235.234H332.453V247ZM336.484 247H337.828V235.234H336.484V247ZM79.3516 266H80.6953V260.781C80.6953 259.594 81.625 258.734 82.9062 258.734C83.1719 258.734 83.6562 258.781 83.7656 258.812V257.469C83.5938 257.445 83.3125 257.43 83.0938 257.43C81.9766 257.43 81.0078 258.008 80.7578 258.828H80.6328V257.578H79.3516V266ZM90.7891 263.82C90.4375 264.562 89.7031 264.961 88.6172 264.961C87.1875 264.961 86.2578 263.906 86.1875 262.242V262.18H92.2422V261.664C92.2422 259.047 90.8594 257.43 88.5859 257.43C86.2734 257.43 84.7891 259.148 84.7891 261.797C84.7891 264.461 86.25 266.148 88.5859 266.148C90.4297 266.148 91.7422 265.258 92.1328 263.82H90.7891ZM88.5703 258.617C89.9062 258.617 90.7969 259.602 90.8281 261.094H86.1875C86.2891 259.602 87.2266 258.617 88.5703 258.617ZM101.32 260.156C101.086 258.656 99.8359 257.43 97.7891 257.43C95.4297 257.43 93.9297 259.133 93.9297 261.758C93.9297 264.438 95.4375 266.148 97.7969 266.148C99.8203 266.148 101.078 265.008 101.32 263.461H99.9609C99.7109 264.414 98.9219 264.938 97.7891 264.938C96.2891 264.938 95.3203 263.703 95.3203 261.758C95.3203 259.852 96.2734 258.641 97.7891 258.641C99 258.641 99.7422 259.32 99.9609 260.156H101.32ZM104.008 255.953C104.523 255.953 104.945 255.531 104.945 255.016C104.945 254.5 104.523 254.078 104.008 254.078C103.492 254.078 103.07 254.5 103.07 255.016C103.07 255.531 103.492 255.953 104.008 255.953ZM103.336 266H104.68V257.578H103.336V266ZM112.82 263.82C112.469 264.562 111.734 264.961 110.648 264.961C109.219 264.961 108.289 263.906 108.219 262.242V262.18H114.273V261.664C114.273 259.047 112.891 257.43 110.617 257.43C108.305 257.43 106.82 259.148 106.82 261.797C106.82 264.461 108.281 266.148 110.617 266.148C112.461 266.148 113.773 265.258 114.164 263.82H112.82ZM110.602 258.617C111.938 258.617 112.828 259.602 112.859 261.094H108.219C108.32 259.602 109.258 258.617 110.602 258.617ZM123.102 257.578H121.664L119.359 264.516H119.234L116.93 257.578H115.492L118.609 266H119.984L123.102 257.578ZM130.164 263.82C129.812 264.562 129.078 264.961 127.992 264.961C126.562 264.961 125.633 263.906 125.562 262.242V262.18H131.617V261.664C131.617 259.047 130.234 257.43 127.961 257.43C125.648 257.43 124.164 259.148 124.164 261.797C124.164 264.461 125.625 266.148 127.961 266.148C129.805 266.148 131.117 265.258 131.508 263.82H130.164ZM127.945 258.617C129.281 258.617 130.172 259.602 130.203 261.094H125.562C125.664 259.602 126.602 258.617 127.945 258.617ZM140.586 266.148C141.711 266.148 142.633 265.656 143.18 264.758H143.305V266H144.586V260.234C144.586 258.484 143.438 257.43 141.383 257.43C139.586 257.43 138.258 258.32 138.078 259.672H139.438C139.625 259.008 140.328 258.625 141.336 258.625C142.594 258.625 143.242 259.195 143.242 260.234V261L140.812 261.148C138.852 261.266 137.742 262.133 137.742 263.641C137.742 265.18 138.953 266.148 140.586 266.148ZM140.836 264.969C139.859 264.969 139.133 264.469 139.133 263.609C139.133 262.766 139.695 262.32 140.977 262.234L143.242 262.086V262.859C143.242 264.062 142.219 264.969 140.836 264.969ZM147.07 266H148.414V261.016C148.414 259.539 149.281 258.641 150.625 258.641C151.969 258.641 152.609 259.359 152.609 260.875V266H153.953V260.547C153.953 258.547 152.898 257.43 151.008 257.43C149.719 257.43 148.898 257.977 148.477 258.906H148.352V257.578H147.07V266ZM166.508 263.82C166.156 264.562 165.422 264.961 164.336 264.961C162.906 264.961 161.977 263.906 161.906 262.242V262.18H167.961V261.664C167.961 259.047 166.578 257.43 164.305 257.43C161.992 257.43 160.508 259.148 160.508 261.797C160.508 264.461 161.969 266.148 164.305 266.148C166.148 266.148 167.461 265.258 167.852 263.82H166.508ZM164.289 258.617C165.625 258.617 166.516 259.602 166.547 261.094H161.906C162.008 259.602 162.945 258.617 164.289 258.617ZM170.07 266H171.414V260.781C171.414 259.594 172.266 258.641 173.367 258.641C174.43 258.641 175.125 259.281 175.125 260.281V266H176.469V260.586C176.469 259.516 177.25 258.641 178.422 258.641C179.609 258.641 180.195 259.25 180.195 260.492V266H181.539V260.18C181.539 258.414 180.578 257.43 178.859 257.43C177.695 257.43 176.734 258.016 176.281 258.906H176.156C175.766 258.031 174.969 257.43 173.828 257.43C172.703 257.43 171.859 257.969 171.477 258.906H171.352V257.578H170.07V266ZM186.336 266.148C187.461 266.148 188.383 265.656 188.93 264.758H189.055V266H190.336V260.234C190.336 258.484 189.188 257.43 187.133 257.43C185.336 257.43 184.008 258.32 183.828 259.672H185.188C185.375 259.008 186.078 258.625 187.086 258.625C188.344 258.625 188.992 259.195 188.992 260.234V261L186.562 261.148C184.602 261.266 183.492 262.133 183.492 263.641C183.492 265.18 184.703 266.148 186.336 266.148ZM186.586 264.969C185.609 264.969 184.883 264.469 184.883 263.609C184.883 262.766 185.445 262.32 186.727 262.234L188.992 262.086V262.859C188.992 264.062 187.969 264.969 186.586 264.969ZM193.523 255.953C194.039 255.953 194.461 255.531 194.461 255.016C194.461 254.5 194.039 254.078 193.523 254.078C193.008 254.078 192.586 254.5 192.586 255.016C192.586 255.531 193.008 255.953 193.523 255.953ZM192.852 266H194.195V257.578H192.852V266ZM196.836 266H198.18V254.234H196.836V266ZM215.898 257.578H214.547L212.891 264.312H212.766L210.883 257.578H209.594L207.711 264.312H207.586L205.93 257.578H204.57L206.93 266H208.289L210.164 259.484H210.289L212.172 266H213.539L215.898 257.578ZM217.773 266H219.117V261.016C219.117 259.594 219.945 258.641 221.453 258.641C222.727 258.641 223.398 259.383 223.398 260.875V266H224.742V260.547C224.742 258.57 223.617 257.43 221.836 257.43C220.547 257.43 219.664 257.977 219.242 258.906H219.117V254.234H217.773V266ZM232.773 263.82C232.422 264.562 231.688 264.961 230.602 264.961C229.172 264.961 228.242 263.906 228.172 262.242V262.18H234.227V261.664C234.227 259.047 232.844 257.43 230.57 257.43C228.258 257.43 226.773 259.148 226.773 261.797C226.773 264.461 228.234 266.148 230.57 266.148C232.414 266.148 233.727 265.258 234.117 263.82H232.773ZM230.555 258.617C231.891 258.617 232.781 259.602 232.812 261.094H228.172C228.273 259.602 229.211 258.617 230.555 258.617ZM236.336 266H237.68V261.016C237.68 259.539 238.547 258.641 239.891 258.641C241.234 258.641 241.875 259.359 241.875 260.875V266H243.219V260.547C243.219 258.547 242.164 257.43 240.273 257.43C238.984 257.43 238.164 257.977 237.742 258.906H237.617V257.578H236.336V266ZM260.789 257.578H259.438L257.781 264.312H257.656L255.773 257.578H254.484L252.602 264.312H252.477L250.82 257.578H249.461L251.82 266H253.18L255.055 259.484H255.18L257.062 266H258.43L260.789 257.578ZM267.852 263.82C267.5 264.562 266.766 264.961 265.68 264.961C264.25 264.961 263.32 263.906 263.25 262.242V262.18H269.305V261.664C269.305 259.047 267.922 257.43 265.648 257.43C263.336 257.43 261.852 259.148 261.852 261.797C261.852 264.461 263.312 266.148 265.648 266.148C267.492 266.148 268.805 265.258 269.195 263.82H267.852ZM265.633 258.617C266.969 258.617 267.859 259.602 267.891 261.094H263.25C263.352 259.602 264.289 258.617 265.633 258.617ZM272.25 258.938L273.664 254.727H272.141L271.273 258.938H272.25ZM276.055 266H277.398V260.781C277.398 259.594 278.328 258.734 279.609 258.734C279.875 258.734 280.359 258.781 280.469 258.812V257.469C280.297 257.445 280.016 257.43 279.797 257.43C278.68 257.43 277.711 258.008 277.461 258.828H277.336V257.578H276.055V266ZM287.492 263.82C287.141 264.562 286.406 264.961 285.32 264.961C283.891 264.961 282.961 263.906 282.891 262.242V262.18H288.945V261.664C288.945 259.047 287.562 257.43 285.289 257.43C282.977 257.43 281.492 259.148 281.492 261.797C281.492 264.461 282.953 266.148 285.289 266.148C287.133 266.148 288.445 265.258 288.836 263.82H287.492ZM285.273 258.617C286.609 258.617 287.5 259.602 287.531 261.094H282.891C282.992 259.602 283.93 258.617 285.273 258.617ZM296.133 266H297.477V258.703H299.406V257.578H297.477V256.68C297.477 255.758 297.883 255.289 298.852 255.289C299.094 255.289 299.32 255.297 299.484 255.328V254.234C299.203 254.18 298.906 254.156 298.578 254.156C296.977 254.156 296.133 254.961 296.133 256.641V257.578H294.734V258.703H296.133V266ZM302.07 255.953C302.586 255.953 303.008 255.531 303.008 255.016C303.008 254.5 302.586 254.078 302.07 254.078C301.555 254.078 301.133 254.5 301.133 255.016C301.133 255.531 301.555 255.953 302.07 255.953ZM301.398 266H302.742V257.578H301.398V266ZM305.305 266H306.648V261.016C306.648 259.539 307.516 258.641 308.859 258.641C310.203 258.641 310.844 259.359 310.844 260.875V266H312.188V260.547C312.188 258.547 311.133 257.43 309.242 257.43C307.953 257.43 307.133 257.977 306.711 258.906H306.586V257.578H305.305V266ZM315.352 255.953C315.867 255.953 316.289 255.531 316.289 255.016C316.289 254.5 315.867 254.078 315.352 254.078C314.836 254.078 314.414 254.5 314.414 255.016C314.414 255.531 314.836 255.953 315.352 255.953ZM314.68 266H316.023V257.578H314.68V266ZM318.391 259.883C318.391 261.102 319.109 261.781 320.688 262.164L322.133 262.516C323.031 262.734 323.469 263.125 323.469 263.703C323.469 264.477 322.656 265.016 321.523 265.016C320.445 265.016 319.773 264.562 319.547 263.852H318.164C318.312 265.25 319.602 266.148 321.477 266.148C323.391 266.148 324.852 265.109 324.852 263.602C324.852 262.391 324.086 261.703 322.5 261.32L321.203 261.008C320.211 260.766 319.742 260.406 319.742 259.828C319.742 259.078 320.523 258.57 321.523 258.57C322.539 258.57 323.195 259.016 323.375 259.688H324.703C324.523 258.305 323.297 257.43 321.531 257.43C319.742 257.43 318.391 258.484 318.391 259.883ZM327.039 266H328.383V261.016C328.383 259.594 329.211 258.641 330.719 258.641C331.992 258.641 332.664 259.383 332.664 260.875V266H334.008V260.547C334.008 258.57 332.883 257.43 331.102 257.43C329.812 257.43 328.93 257.977 328.508 258.906H328.383V254.234H327.039V266ZM342.039 263.82C341.688 264.562 340.953 264.961 339.867 264.961C338.438 264.961 337.508 263.906 337.438 262.242V262.18H343.492V261.664C343.492 259.047 342.109 257.43 339.836 257.43C337.523 257.43 336.039 259.148 336.039 261.797C336.039 264.461 337.5 266.148 339.836 266.148C341.68 266.148 342.992 265.258 343.383 263.82H342.039ZM339.82 258.617C341.156 258.617 342.047 259.602 342.078 261.094H337.438C337.539 259.602 338.477 258.617 339.82 258.617ZM348.719 266.148C349.883 266.148 350.883 265.594 351.414 264.656H351.539V266H352.82V254.234H351.477V258.906H351.359C350.883 257.984 349.891 257.43 348.719 257.43C346.578 257.43 345.18 259.148 345.18 261.789C345.18 264.438 346.562 266.148 348.719 266.148ZM349.031 258.641C350.555 258.641 351.508 259.859 351.508 261.789C351.508 263.734 350.562 264.938 349.031 264.938C347.492 264.938 346.57 263.758 346.57 261.789C346.57 259.828 347.5 258.641 349.031 258.641ZM356.539 266.078C357.102 266.078 357.555 265.617 357.555 265.062C357.555 264.5 357.102 264.047 356.539 264.047C355.984 264.047 355.523 264.5 355.523 265.062C355.523 265.617 355.984 266.078 356.539 266.078Z" fill="black"/>
<path d="M129.789 209.766H129.906L133.363 222H136.211L140.746 205.09H137.605L134.676 217.898H134.582L131.184 205.09H128.512L125.113 217.898H125.02L122.09 205.09H118.949L123.484 222H126.332L129.789 209.766ZM149.312 218.285C148.996 219.316 147.965 219.996 146.605 219.996C144.695 219.996 143.477 218.66 143.477 216.668V216.492H152.16V215.543C152.16 211.77 149.957 209.32 146.43 209.32C142.844 209.32 140.57 211.91 140.57 215.836C140.57 219.797 142.82 222.246 146.547 222.246C149.488 222.246 151.668 220.629 152.043 218.285H149.312ZM146.441 211.582C148.117 211.582 149.242 212.812 149.301 214.57H143.5C143.617 212.836 144.801 211.582 146.441 211.582ZM155.758 211.453L157.41 205.09H154.551L153.508 211.453H155.758ZM159.344 222H162.262V214.77C162.262 213.023 163.258 211.957 164.91 211.957C165.402 211.957 165.848 212.027 166.094 212.121V209.484C165.883 209.438 165.555 209.367 165.18 209.367C163.715 209.367 162.625 210.234 162.203 211.746H162.145V209.578H159.344V222ZM175.352 218.285C175.035 219.316 174.004 219.996 172.645 219.996C170.734 219.996 169.516 218.66 169.516 216.668V216.492H178.199V215.543C178.199 211.77 175.996 209.32 172.469 209.32C168.883 209.32 166.609 211.91 166.609 215.836C166.609 219.797 168.859 222.246 172.586 222.246C175.527 222.246 177.707 220.629 178.082 218.285H175.352ZM172.48 211.582C174.156 211.582 175.281 212.812 175.34 214.57H169.539C169.656 212.836 170.84 211.582 172.48 211.582ZM201.742 209.578H198.859L196.762 219.117H196.691L194.266 209.578H191.465L189.039 219.117H188.98L186.883 209.578H183.953L187.316 222H190.363L192.801 212.918H192.859L195.309 222H198.379L201.742 209.578ZM208.574 222.246C212.219 222.246 214.586 219.82 214.586 215.789C214.586 211.77 212.195 209.32 208.574 209.32C204.953 209.32 202.562 211.781 202.562 215.789C202.562 219.82 204.93 222.246 208.574 222.246ZM208.574 219.938C206.723 219.938 205.527 218.438 205.527 215.789C205.527 213.152 206.734 211.641 208.574 211.641C210.426 211.641 211.621 213.152 211.621 215.789C211.621 218.438 210.426 219.938 208.574 219.938ZM216.461 222H219.379V214.77C219.379 213.023 220.375 211.957 222.027 211.957C222.52 211.957 222.965 212.027 223.211 212.121V209.484C223 209.438 222.672 209.367 222.297 209.367C220.832 209.367 219.742 210.234 219.32 211.746H219.262V209.578H216.461V222ZM227.746 214.758H227.711V205.09H224.793V222H227.711V217.688L228.695 216.691L232.621 222H235.996L230.816 214.922L235.785 209.578H232.422L227.746 214.758ZM238.68 207.703C239.57 207.703 240.273 206.988 240.273 206.121C240.273 205.242 239.57 204.539 238.68 204.539C237.789 204.539 237.074 205.242 237.074 206.121C237.074 206.988 237.789 207.703 238.68 207.703ZM237.227 222H240.145V209.578H237.227V222ZM242.594 222H245.512V214.805C245.512 213.023 246.578 211.816 248.254 211.816C249.918 211.816 250.738 212.801 250.738 214.559V222H253.656V213.973C253.656 211.102 252.098 209.344 249.355 209.344C247.445 209.344 246.121 210.234 245.453 211.711H245.395V209.578H242.594V222ZM261.473 226.688C265.094 226.688 267.473 224.766 267.473 221.801V209.578H264.613V211.711H264.566C263.852 210.281 262.422 209.367 260.652 209.367C257.477 209.367 255.484 211.816 255.484 215.742C255.484 219.609 257.523 222.012 260.594 222.012C262.375 222.012 263.84 221.121 264.484 219.785H264.555V221.883C264.555 223.465 263.465 224.531 261.566 224.531C260.184 224.531 259.117 223.887 258.801 222.938H255.906C256.199 225.117 258.402 226.688 261.473 226.688ZM261.484 219.691C259.645 219.691 258.473 218.215 258.473 215.754C258.473 213.316 259.645 211.77 261.484 211.77C263.348 211.77 264.555 213.34 264.555 215.754C264.555 218.18 263.348 219.691 261.484 219.691ZM280.152 222.246C283.797 222.246 286.164 219.82 286.164 215.789C286.164 211.77 283.773 209.32 280.152 209.32C276.531 209.32 274.141 211.781 274.141 215.789C274.141 219.82 276.508 222.246 280.152 222.246ZM280.152 219.938C278.301 219.938 277.105 218.438 277.105 215.789C277.105 213.152 278.312 211.641 280.152 211.641C282.004 211.641 283.199 213.152 283.199 215.789C283.199 218.438 282.004 219.938 280.152 219.938ZM288.039 222H290.957V214.805C290.957 213.023 292.023 211.816 293.699 211.816C295.363 211.816 296.184 212.801 296.184 214.559V222H299.102V213.973C299.102 211.102 297.543 209.344 294.801 209.344C292.891 209.344 291.566 210.234 290.898 211.711H290.84V209.578H288.039V222ZM307.773 207.703C308.664 207.703 309.367 206.988 309.367 206.121C309.367 205.242 308.664 204.539 307.773 204.539C306.883 204.539 306.168 205.242 306.168 206.121C306.168 206.988 306.883 207.703 307.773 207.703ZM306.32 222H309.238V209.578H306.32V222ZM312.496 206.672V209.578H310.715V211.828H312.496V218.695C312.496 221.109 313.551 222.059 316.234 222.059C316.855 222.059 317.43 222.012 317.746 221.941V219.715C317.559 219.75 317.184 219.773 316.914 219.773C315.883 219.773 315.414 219.305 315.414 218.285V211.828H317.758V209.578H315.414V206.672H312.496Z" fill="black"/>
<path d="M172.809 173.911C174.488 173.011 176.363 172.54 178.268 172.54H257.259C259.164 172.54 261.039 173.011 262.718 173.911C263.895 174.541 263.447 176.327 262.111 176.327H173.415C172.08 176.327 171.631 174.541 172.809 173.911Z" fill="#111111"/>
<rect x="178.003" y="64.3833" width="79.9933" height="8.52" rx="3.29181" fill="white" stroke="#111111" stroke-width="1.42"/>
<mask id="path-5-inside-1_1444_14857" fill="white">
<path fill-rule="evenodd" clip-rule="evenodd" d="M189.464 72.1933C186.543 76.354 184.867 81.2087 184.867 86.3933C184.867 99.4778 195.543 110.461 209.953 113.491V124.691C195.543 127.722 184.867 138.704 184.867 151.789C184.867 156.974 186.543 161.828 189.464 165.989H246.536C249.457 161.828 251.133 156.974 251.133 151.789C251.133 138.704 240.457 127.722 226.047 124.691V113.491C240.457 110.461 251.133 99.4778 251.133 86.3933C251.133 81.2087 249.457 76.354 246.536 72.1933H189.464Z"/>
</mask>
<path d="M189.464 72.1933V70.7733H188.725L188.301 71.3775L189.464 72.1933ZM209.953 113.491H211.373V112.338L210.246 112.101L209.953 113.491ZM209.953 124.691L210.246 126.081L211.373 125.844V124.691H209.953ZM184.867 151.789H186.287H184.867ZM189.464 165.989L188.301 166.805L188.725 167.409H189.464V165.989ZM246.536 165.989V167.409H247.275L247.699 166.805L246.536 165.989ZM226.047 124.691H224.627V125.844L225.754 126.081L226.047 124.691ZM226.047 113.491L225.754 112.101L224.627 112.338V113.491H226.047ZM246.536 72.1933L247.699 71.3775L247.275 70.7733H246.536V72.1933ZM186.287 86.3933C186.287 81.5241 187.859 76.9508 190.626 73.0092L188.301 71.3775C185.227 75.7572 183.447 80.8933 183.447 86.3933H186.287ZM210.246 112.101C196.312 109.171 186.287 98.6379 186.287 86.3933H183.447C183.447 100.318 194.773 111.75 209.661 114.88L210.246 112.101ZM211.373 124.691V113.491H208.533V124.691H211.373ZM186.287 151.789C186.287 139.544 196.312 129.011 210.246 126.081L209.661 123.302C194.773 126.432 183.447 137.865 183.447 151.789H186.287ZM190.626 165.173C187.859 161.231 186.287 156.658 186.287 151.789H183.447C183.447 157.289 185.227 162.425 188.301 166.805L190.626 165.173ZM246.536 164.569H189.464V167.409H246.536V164.569ZM249.713 151.789C249.713 156.658 248.141 161.231 245.374 165.173L247.699 166.805C250.773 162.425 252.553 157.289 252.553 151.789H249.713ZM225.754 126.081C239.688 129.011 249.713 139.544 249.713 151.789H252.553C252.553 137.865 241.227 126.432 226.339 123.302L225.754 126.081ZM224.627 113.491V124.691H227.467V113.491H224.627ZM249.713 86.3933C249.713 98.6379 239.688 109.171 225.754 112.101L226.339 114.88C241.227 111.75 252.553 100.318 252.553 86.3933H249.713ZM245.374 73.0092C248.141 76.9508 249.713 81.5241 249.713 86.3933H252.553C252.553 80.8933 250.773 75.7572 247.699 71.3775L245.374 73.0092ZM189.464 73.6133H246.536V70.7733H189.464V73.6133Z" fill="#111111" mask="url(#path-5-inside-1_1444_14857)"/>
<mask id="path-7-inside-2_1444_14857" fill="white">
<path fill-rule="evenodd" clip-rule="evenodd" d="M188.18 84.9089C188.184 83.4468 189.312 82.2635 190.766 82.1097C194.859 81.6766 200.164 81.8082 204.747 83.79C213.503 87.5767 222.733 89.2333 228.413 87.5767C232.092 86.5038 239.344 85.4309 244.576 85.1294C246.377 85.0257 247.842 86.5058 247.563 88.2873C245.639 100.602 233.136 110.107 218 110.107C201.531 110.107 188.18 98.8545 188.18 84.9733C188.18 84.9518 188.18 84.9304 188.18 84.9089Z"/>
</mask>
<path fill-rule="evenodd" clip-rule="evenodd" d="M188.18 84.9089C188.184 83.4468 189.312 82.2635 190.766 82.1097C194.859 81.6766 200.164 81.8082 204.747 83.79C213.503 87.5767 222.733 89.2333 228.413 87.5767C232.092 86.5038 239.344 85.4309 244.576 85.1294C246.377 85.0257 247.842 86.5058 247.563 88.2873C245.639 100.602 233.136 110.107 218 110.107C201.531 110.107 188.18 98.8545 188.18 84.9733C188.18 84.9518 188.18 84.9304 188.18 84.9089Z" fill="white"/>
<path d="M204.747 83.79L205.31 82.4866L204.747 83.79ZM228.413 87.5767L228.811 88.9399L228.413 87.5767ZM247.563 88.2873L248.966 88.5066L247.563 88.2873ZM205.31 82.4866C200.411 80.368 194.828 80.2519 190.616 80.6976L190.915 83.5218C194.889 83.1013 199.917 83.2485 204.183 85.0933L205.31 82.4866ZM228.016 86.2135C225.462 86.9582 221.973 86.9867 217.966 86.3236C213.982 85.6645 209.597 84.3403 205.31 82.4866L204.183 85.0933C208.653 87.0263 213.261 88.4238 217.502 89.1255C221.719 89.8233 225.684 89.8518 228.811 88.9399L228.016 86.2135ZM244.495 83.7117C239.2 84.0168 231.833 85.1002 228.016 86.2135L228.811 88.9399C232.351 87.9074 239.488 86.8449 244.658 86.547L244.495 83.7117ZM218 111.527C233.66 111.527 246.909 101.673 248.966 88.5066L246.16 88.0681C244.369 99.5315 232.612 108.687 218 108.687V111.527ZM186.76 84.9733C186.76 99.8565 200.984 111.527 218 111.527V108.687C202.078 108.687 189.6 97.8524 189.6 84.9733H186.76ZM186.76 84.9046C186.76 84.9275 186.76 84.9504 186.76 84.9733H189.6C189.6 84.9533 189.6 84.9332 189.6 84.9131L186.76 84.9046ZM244.658 86.547C245.641 86.4904 246.286 87.2637 246.16 88.0681L248.966 88.5066C249.397 85.7478 247.112 83.5609 244.495 83.7117L244.658 86.547ZM190.616 80.6976C188.483 80.9233 186.767 82.6771 186.76 84.9046L189.6 84.9131C189.602 84.2165 190.141 83.6037 190.915 83.5218L190.616 80.6976Z" fill="#111111" mask="url(#path-7-inside-2_1444_14857)"/>
<path d="M217.259 149.82C208.746 149.82 198.194 158.837 193.387 164.967L242.14 164.967C237.915 158.662 226.105 149.82 217.259 149.82Z" fill="white" stroke="#111111" stroke-width="1.42"/>
<circle cx="218" cy="117.16" r="2.13" fill="white" stroke="#111111" stroke-width="1.42"/>
<path d="M219.657 126.39C219.657 127.174 219.021 127.81 218.237 127.81C217.452 127.81 216.817 127.174 216.817 126.39C216.817 125.606 217.452 124.97 218.237 124.97C219.021 124.97 219.657 125.606 219.657 126.39Z" fill="white" stroke="#111111" stroke-width="1.42"/>
<path d="M219.657 134.91C219.657 135.694 219.021 136.33 218.237 136.33C217.452 136.33 216.817 135.694 216.817 134.91C216.817 134.126 217.452 133.49 218.237 133.49C219.021 133.49 219.657 134.126 219.657 134.91Z" fill="white" stroke="#111111" stroke-width="1.42"/>
<rect x="178.003" y="165.203" width="79.9933" height="8.52" rx="3.29181" fill="white" stroke="#111111" stroke-width="1.42"/>
</svg>
