<svg width="196" height="196" viewBox="0 0 196 196" fill="none" xmlns="http://www.w3.org/2000/svg">
<path d="M69.4114 76.6526C67.9533 79.2751 68.5611 83.0113 69.244 85.2132C69.4236 85.7923 69.9713 86.1676 70.5756 86.1174C73.1323 85.905 77.3094 84.7834 79.2683 81.415C81.8354 77.0809 80.7526 72.7847 79.6055 70.5923C79.3547 70.1129 78.8232 69.8617 78.2928 69.9683C75.1365 70.6031 71.3503 73.1654 69.4114 76.6526Z" fill="white" stroke="#111111" stroke-width="1.5"/>
<path d="M126.5 108H86.5L91.2513 135H121.317L126.5 108Z" fill="white"/>
<rect x="81.75" y="101.75" width="49" height="6" rx="0.75" fill="white" stroke="#111111" stroke-width="1.5"/>
<path d="M86 108L90.5715 133.762C90.6986 134.478 91.3211 135 92.0484 135H120.2C120.922 135 121.542 134.486 121.674 133.776L126.5 108" stroke="#111111" stroke-width="1.5" stroke-linejoin="round"/>
<path d="M97.4141 82.6498C105.895 89.1125 112.669 86.4863 115.824 83.5192C116.453 82.928 116.276 81.934 115.526 81.5063C107.953 77.1852 101.101 78.6355 97.5256 80.5252C96.6928 80.9653 96.6649 82.0789 97.4141 82.6498Z" fill="white" stroke="#111111" stroke-width="1.5" stroke-linejoin="round"/>
<path d="M104.167 81.7689C103.763 81.6766 103.361 81.9292 103.269 82.333C103.177 82.7368 103.429 83.1389 103.833 83.2312L104.167 81.7689ZM103.833 83.2312C105.07 83.5139 107.135 83.8407 109.354 83.9156C111.559 83.99 114.002 83.8195 115.948 83.0486L115.395 81.6541C113.736 82.3117 111.537 82.4884 109.405 82.4164C107.287 82.345 105.318 82.0318 104.167 81.7689L103.833 83.2312Z" fill="#111111"/>
<path d="M70.8429 83.2227C70.7637 83.6293 71.029 84.0231 71.4356 84.1023C71.8422 84.1815 72.236 83.9161 72.3152 83.5096L70.8429 83.2227ZM72.3152 83.5096C72.7689 81.1809 75.0679 75.0306 79.3501 70.8771L78.3058 69.8004C73.7533 74.216 71.3402 80.6701 70.8429 83.2227L72.3152 83.5096Z" fill="#111111"/>
<path d="M78.5 69.9956C82.8471 65.9737 93.3803 60.1086 101.74 61.114C112.346 62.3897 115.952 72.0065 116.453 78.8771C117.053 87.0884 111.772 96.4727 108.093 101.5" stroke="#111111" stroke-width="1.5"/>
</svg>
