<svg width="437" height="320" viewBox="0 0 437 320" fill="none" xmlns="http://www.w3.org/2000/svg">
<g clip-path="url(#clip0_1444_14825)">
<rect width="437" height="320" fill="white"/>
<g clip-path="url(#clip1_1444_14825)">
<rect x="105" y="19" width="225.971" height="489.303" rx="21.6932" fill="white"/>
<circle cx="311.688" cy="62.3864" r="9.64143" fill="white" fill-opacity="0.9"/>
<path fill-rule="evenodd" clip-rule="evenodd" d="M315.34 61.656H312.419V58.7343C312.419 58.3311 312.091 58.0039 311.688 58.0039C311.285 58.0039 310.958 58.3311 310.958 58.7343V61.656H308.036C307.633 61.656 307.306 61.9832 307.306 62.3864C307.306 62.7896 307.633 63.1168 308.036 63.1168H310.958V66.0384C310.958 66.4416 311.285 66.7688 311.688 66.7688C312.091 66.7688 312.419 66.4416 312.419 66.0384V63.1168H315.34C315.743 63.1168 316.071 62.7896 316.071 62.3864C316.071 61.9832 315.743 61.656 315.34 61.656Z" fill="#111111"/>
<circle cx="124.283" cy="62.3864" r="9.64143" fill="white" fill-opacity="0.9"/>
<path fill-rule="evenodd" clip-rule="evenodd" d="M125.662 66.7689C125.455 66.7689 125.247 66.6885 125.088 66.5282L120.996 62.3864L125.088 58.2446C125.405 57.9236 125.919 57.9236 126.236 58.2446C126.553 58.5656 126.553 59.0857 126.236 59.4067L123.293 62.3864L126.236 65.3661C126.553 65.6871 126.553 66.2072 126.236 66.5282C126.078 66.6885 125.87 66.7689 125.662 66.7689Z" fill="#111111"/>
<rect opacity="0.35" x="307.8" y="29.7461" width="12.6544" height="6.22676" rx="1.30561" stroke="black" stroke-width="0.60259"/>
<path opacity="0.4" d="M321.358 31.6543V34.0647C321.843 33.8605 322.159 33.3856 322.159 32.8595C322.159 32.3333 321.843 31.8584 321.358 31.6543" fill="black"/>
<rect x="308.704" y="30.65" width="10.8466" height="4.41899" rx="0.803453" fill="black"/>
<path fill-rule="evenodd" clip-rule="evenodd" d="M299.864 30.8156C301.2 30.8157 302.484 31.3287 303.452 32.2488C303.524 32.3198 303.641 32.3189 303.713 32.2467L304.409 31.5437C304.446 31.5071 304.466 31.4576 304.466 31.406C304.465 31.3544 304.444 31.3051 304.408 31.2689C301.868 28.8348 297.861 28.8348 295.321 31.2689C295.284 31.3051 295.263 31.3544 295.263 31.406C295.262 31.4575 295.283 31.5071 295.319 31.5437L296.016 32.2467C296.087 32.319 296.204 32.3199 296.277 32.2488C297.245 31.3287 298.529 30.8156 299.864 30.8156ZM299.864 33.1028C300.598 33.1028 301.305 33.3755 301.849 33.8679C301.923 33.9378 302.039 33.9363 302.11 33.8645L302.806 33.1615C302.843 33.1246 302.863 33.0746 302.863 33.0226C302.862 32.9706 302.841 32.921 302.803 32.8849C301.147 31.3445 298.583 31.3445 296.927 32.8849C296.889 32.921 296.868 32.9706 296.867 33.0226C296.867 33.0746 296.887 33.1247 296.924 33.1615L297.62 33.8645C297.691 33.9363 297.807 33.9378 297.881 33.8679C298.424 33.3758 299.131 33.1031 299.864 33.1028ZM301.258 34.6417C301.259 34.6939 301.239 34.7441 301.201 34.7806L299.998 35.9953C299.963 36.031 299.915 36.0511 299.864 36.0511C299.814 36.0511 299.766 36.031 299.731 35.9953L298.527 34.7806C298.49 34.7441 298.469 34.6938 298.47 34.6417C298.472 34.5896 298.494 34.5402 298.533 34.5053C299.301 33.8551 300.427 33.8551 301.196 34.5053C301.235 34.5402 301.257 34.5896 301.258 34.6417Z" fill="black"/>
<path fill-rule="evenodd" clip-rule="evenodd" d="M291.631 29.6456H291.028C290.695 29.6456 290.426 29.9154 290.426 30.2482V35.4707C290.426 35.8035 290.695 36.0733 291.028 36.0733H291.631C291.964 36.0733 292.233 35.8035 292.233 35.4707V30.2482C292.233 29.9154 291.964 29.6456 291.631 29.6456ZM288.216 31.0517H288.819C289.151 31.0517 289.421 31.3215 289.421 31.6543V35.4707C289.421 35.8035 289.151 36.0733 288.819 36.0733H288.216C287.883 36.0733 287.613 35.8035 287.613 35.4707V31.6543C287.613 31.3215 287.883 31.0517 288.216 31.0517ZM286.007 32.4577H285.404C285.071 32.4577 284.801 32.7275 284.801 33.0603V35.4706C284.801 35.8034 285.071 36.0732 285.404 36.0732H286.007C286.339 36.0732 286.609 35.8034 286.609 35.4706V33.0603C286.609 32.7275 286.339 32.4577 286.007 32.4577ZM283.194 33.6629H282.592C282.259 33.6629 281.989 33.9327 281.989 34.2655V35.4706C281.989 35.8034 282.259 36.0732 282.592 36.0732H283.194C283.527 36.0732 283.797 35.8034 283.797 35.4706V34.2655C283.797 33.9327 283.527 33.6629 283.194 33.6629Z" fill="black"/>
<g clip-path="url(#clip2_1444_14825)">
<path d="M126.404 35.9925C127.873 35.9925 128.88 35.2334 128.88 34.1256C128.88 33.3047 128.332 32.6603 127.503 32.5058V32.4308C128.187 32.2587 128.619 31.7158 128.619 31.0273C128.619 30.0255 127.701 29.3061 126.408 29.3061C125.115 29.3061 124.192 30.0255 124.192 31.0273C124.192 31.7114 124.634 32.2631 125.313 32.4308V32.5058C124.479 32.678 123.936 33.3223 123.936 34.13C123.936 35.2334 124.943 35.9925 126.404 35.9925ZM126.408 32.0954C125.759 32.0954 125.313 31.707 125.313 31.1332C125.313 30.5595 125.755 30.1623 126.408 30.1623C127.057 30.1623 127.498 30.5595 127.498 31.1332C127.498 31.7026 127.052 32.0954 126.408 32.0954ZM126.408 35.123C125.64 35.123 125.11 34.6773 125.11 34.0373C125.11 33.393 125.64 32.9472 126.408 32.9472C127.172 32.9472 127.701 33.393 127.701 34.0373C127.701 34.6773 127.176 35.123 126.408 35.123ZM130.941 31.7114C131.36 31.7114 131.647 31.4201 131.647 31.0273C131.647 30.6345 131.36 30.3432 130.941 30.3432C130.526 30.3432 130.234 30.6345 130.234 31.0273C130.234 31.4201 130.526 31.7114 130.941 31.7114ZM130.941 34.9509C131.36 34.9509 131.647 34.6552 131.647 34.2668C131.647 33.874 131.36 33.5827 130.941 33.5827C130.526 33.5827 130.234 33.874 130.234 34.2668C130.234 34.6552 130.526 34.9509 130.941 34.9509ZM135.389 35.9925C136.912 35.9925 137.817 34.7611 137.817 32.6515C137.817 30.5374 136.899 29.3061 135.389 29.3061C133.876 29.3061 132.958 30.5374 132.958 32.6427C132.958 34.7567 133.862 35.9925 135.389 35.9925ZM135.389 35.0701C134.582 35.0701 134.11 34.2315 134.11 32.6427C134.11 31.067 134.591 30.2329 135.389 30.2329C136.188 30.2329 136.665 31.0626 136.665 32.6427C136.665 34.2359 136.197 35.0701 135.389 35.0701ZM141.436 35.9925C142.906 35.9925 143.912 35.2334 143.912 34.1256C143.912 33.3047 143.365 32.6603 142.535 32.5058V32.4308C143.219 32.2587 143.652 31.7158 143.652 31.0273C143.652 30.0255 142.734 29.3061 141.44 29.3061C140.147 29.3061 139.225 30.0255 139.225 31.0273C139.225 31.7114 139.666 32.2631 140.346 32.4308V32.5058C139.512 32.678 138.969 33.3223 138.969 34.13C138.969 35.2334 139.975 35.9925 141.436 35.9925ZM141.44 32.0954C140.792 32.0954 140.346 31.707 140.346 31.1332C140.346 30.5595 140.787 30.1623 141.44 30.1623C142.089 30.1623 142.53 30.5595 142.53 31.1332C142.53 31.7026 142.085 32.0954 141.44 32.0954ZM141.44 35.123C140.672 35.123 140.143 34.6773 140.143 34.0373C140.143 33.393 140.672 32.9472 141.44 32.9472C142.204 32.9472 142.734 33.393 142.734 34.0373C142.734 34.6773 142.208 35.123 141.44 35.123Z" fill="black"/>
</g>
<path d="M206.023 61.7449V57.0654H206.103L209.436 61.7449H210.486V54.9517H209.319V59.6312H209.239L205.906 54.9517H204.851V61.7449H206.023ZM214.267 61.8485C215.806 61.8485 216.743 60.841 216.743 59.1698C216.743 57.508 215.801 56.5005 214.267 56.5005C212.737 56.5005 211.79 57.5127 211.79 59.1698C211.79 60.841 212.722 61.8485 214.267 61.8485ZM214.267 60.8928C213.452 60.8928 212.986 60.262 212.986 59.1745C212.986 58.087 213.452 57.4562 214.267 57.4562C215.076 57.4562 215.542 58.087 215.542 59.1745C215.542 60.262 215.081 60.8928 214.267 60.8928ZM218.292 55.3377V56.6323H217.477V57.5409H218.292V60.3797C218.292 61.373 218.762 61.7685 219.944 61.7685C220.17 61.7685 220.387 61.7496 220.556 61.7167V60.8222C220.415 60.8363 220.325 60.8458 220.161 60.8458C219.671 60.8458 219.454 60.6151 219.454 60.1019V57.5409H220.556V56.6323H219.454V55.3377H218.292ZM225.033 60.3373C224.864 60.7234 224.463 60.9399 223.884 60.9399C223.117 60.9399 222.623 60.3938 222.594 59.5229V59.4617H226.191V59.0898C226.191 57.475 225.311 56.5005 223.842 56.5005C222.35 56.5005 221.422 57.5409 221.422 59.1933C221.422 60.841 222.336 61.8485 223.851 61.8485C225.066 61.8485 225.928 61.2647 226.139 60.3373H225.033ZM223.837 57.4091C224.539 57.4091 225 57.9034 225.024 58.6849H222.599C222.651 57.9128 223.141 57.4091 223.837 57.4091ZM227.246 58.0682C227.246 58.8403 227.712 59.2922 228.7 59.5182L229.614 59.73C230.103 59.843 230.325 60.0313 230.325 60.3232C230.325 60.7139 229.915 60.9823 229.327 60.9823C228.743 60.9823 228.38 60.7469 228.267 60.3656H227.114C227.203 61.293 228.013 61.8485 229.298 61.8485C230.584 61.8485 231.492 61.1941 231.492 60.2102C231.492 59.4523 231.035 59.0333 230.052 58.8073L229.143 58.6049C228.625 58.4825 228.38 58.2989 228.38 58.007C228.38 57.6257 228.78 57.3667 229.312 57.3667C229.859 57.3667 230.202 57.6021 230.287 57.9646H231.384C231.299 57.0372 230.532 56.5005 229.308 56.5005C228.093 56.5005 227.246 57.1455 227.246 58.0682Z" fill="black"/>
<path d="M184.213 68.5095V73.6044H184.849V71.7861H186.131C187.087 71.7861 187.769 71.1117 187.769 70.1584C187.769 69.1874 187.102 68.5095 186.138 68.5095H184.213ZM184.849 69.0744H185.972C186.71 69.0744 187.116 69.4593 187.116 70.1584C187.116 70.8328 186.696 71.2211 185.972 71.2211H184.849V69.0744ZM188.733 73.6044H189.34V71.2459C189.34 70.7092 189.76 70.3208 190.339 70.3208C190.459 70.3208 190.678 70.342 190.728 70.3561V69.7488C190.65 69.7382 190.523 69.7311 190.424 69.7311C189.919 69.7311 189.481 69.9924 189.368 70.3632H189.312V69.7982H188.733V73.6044ZM191.805 69.0638C192.038 69.0638 192.228 68.8732 192.228 68.6401C192.228 68.4071 192.038 68.2164 191.805 68.2164C191.572 68.2164 191.381 68.4071 191.381 68.6401C191.381 68.8732 191.572 69.0638 191.805 69.0638ZM191.501 73.6044H192.108V69.7982H191.501V73.6044ZM196.373 69.7982H195.724L194.682 72.9336H194.626L193.584 69.7982H192.934L194.343 73.6044H194.965L196.373 69.7982ZM198.104 73.6715C198.612 73.6715 199.029 73.4491 199.276 73.043H199.332V73.6044H199.911V70.9987C199.911 70.2078 199.392 69.7311 198.464 69.7311C197.652 69.7311 197.051 70.1337 196.97 70.7445H197.585C197.669 70.4444 197.987 70.2714 198.442 70.2714C199.011 70.2714 199.304 70.5291 199.304 70.9987V71.3447L198.206 71.4118C197.32 71.4648 196.818 71.8567 196.818 72.5381C196.818 73.2337 197.366 73.6715 198.104 73.6715ZM198.217 73.1384C197.775 73.1384 197.447 72.9124 197.447 72.524C197.447 72.1427 197.701 71.9414 198.28 71.9026L199.304 71.8355V72.1851C199.304 72.7288 198.841 73.1384 198.217 73.1384ZM201.288 68.8131V69.7982H200.674V70.3067H201.288V72.6158C201.288 73.3432 201.603 73.6327 202.386 73.6327C202.506 73.6327 202.623 73.6186 202.743 73.5974V73.0854C202.63 73.096 202.57 73.0995 202.461 73.0995C202.065 73.0995 201.896 72.9089 201.896 72.4605V70.3067H202.743V69.7982H201.896V68.8131H201.288ZM206.126 72.6193C205.967 72.9548 205.635 73.1348 205.144 73.1348C204.498 73.1348 204.078 72.6582 204.046 71.9061V71.8779H206.782V71.6448C206.782 70.462 206.157 69.7311 205.13 69.7311C204.085 69.7311 203.414 70.5079 203.414 71.7049C203.414 72.9089 204.074 73.6715 205.13 73.6715C205.963 73.6715 206.556 73.269 206.733 72.6193H206.126ZM205.123 70.2678C205.727 70.2678 206.129 70.7127 206.143 71.3871H204.046C204.092 70.7127 204.515 70.2678 205.123 70.2678ZM210.031 68.8131V69.7982H209.416V70.3067H210.031V72.6158C210.031 73.3432 210.345 73.6327 211.129 73.6327C211.249 73.6327 211.365 73.6186 211.485 73.5974V73.0854C211.372 73.096 211.312 73.0995 211.203 73.0995C210.807 73.0995 210.638 72.9089 210.638 72.4605V70.3067H211.485V69.7982H210.638V68.8131H210.031ZM213.911 73.6715C214.995 73.6715 215.666 72.923 215.666 71.7013C215.666 70.4761 214.995 69.7311 213.911 69.7311C212.827 69.7311 212.156 70.4761 212.156 71.7013C212.156 72.923 212.827 73.6715 213.911 73.6715ZM213.911 73.1242C213.191 73.1242 212.785 72.6017 212.785 71.7013C212.785 70.7974 213.191 70.2784 213.911 70.2784C214.631 70.2784 215.037 70.7974 215.037 71.7013C215.037 72.6017 214.631 73.1242 213.911 73.1242ZM218.914 68.8131V69.7982H218.3V70.3067H218.914V72.6158C218.914 73.3432 219.228 73.6327 220.012 73.6327C220.132 73.6327 220.249 73.6186 220.369 73.5974V73.0854C220.256 73.096 220.196 73.0995 220.086 73.0995C219.691 73.0995 219.521 72.9089 219.521 72.4605V70.3067H220.369V69.7982H219.521V68.8131H218.914ZM221.322 73.6044H221.929V71.3518C221.929 70.7092 222.304 70.2784 222.985 70.2784C223.561 70.2784 223.864 70.6138 223.864 71.2882V73.6044H224.472V71.1399C224.472 70.2466 223.963 69.7311 223.158 69.7311C222.575 69.7311 222.177 69.9783 221.986 70.3985H221.929V68.287H221.322V73.6044ZM225.898 69.0638C226.131 69.0638 226.322 68.8732 226.322 68.6401C226.322 68.4071 226.131 68.2164 225.898 68.2164C225.665 68.2164 225.474 68.4071 225.474 68.6401C225.474 68.8732 225.665 69.0638 225.898 69.0638ZM225.594 73.6044H226.202V69.7982H225.594V73.6044ZM227.271 70.8398C227.271 71.3906 227.596 71.6978 228.31 71.8708L228.963 72.0297C229.369 72.1286 229.566 72.3051 229.566 72.5664C229.566 72.9159 229.199 73.1596 228.687 73.1596C228.2 73.1596 227.896 72.9548 227.794 72.6335H227.169C227.236 73.2655 227.819 73.6715 228.666 73.6715C229.531 73.6715 230.191 73.2019 230.191 72.5205C230.191 71.9732 229.845 71.6625 229.129 71.4895L228.543 71.3483C228.094 71.2388 227.882 71.0764 227.882 70.8151C227.882 70.4761 228.235 70.2466 228.687 70.2466C229.146 70.2466 229.443 70.4479 229.524 70.7515H230.124C230.043 70.1266 229.489 69.7311 228.691 69.7311C227.882 69.7311 227.271 70.2078 227.271 70.8398ZM235.078 73.6715C236.042 73.6715 236.674 72.8912 236.674 71.7013C236.674 70.5044 236.045 69.7311 235.078 69.7311C234.555 69.7311 234.093 69.9889 233.885 70.3985H233.828V68.287H233.221V73.6044H233.8V72.9971H233.856C234.096 73.4208 234.548 73.6715 235.078 73.6715ZM234.937 70.2784C235.632 70.2784 236.045 70.8116 236.045 71.7013C236.045 72.5911 235.632 73.1242 234.937 73.1242C234.245 73.1242 233.814 72.5805 233.814 71.7013C233.814 70.8222 234.245 70.2784 234.937 70.2784ZM239.191 73.6715C240.275 73.6715 240.946 72.923 240.946 71.7013C240.946 70.4761 240.275 69.7311 239.191 69.7311C238.107 69.7311 237.437 70.4761 237.437 71.7013C237.437 72.923 238.107 73.6715 239.191 73.6715ZM239.191 73.1242C238.471 73.1242 238.065 72.6017 238.065 71.7013C238.065 70.7974 238.471 70.2784 239.191 70.2784C239.912 70.2784 240.318 70.7974 240.318 71.7013C240.318 72.6017 239.912 73.1242 239.191 73.1242ZM242.959 73.6715C243.467 73.6715 243.884 73.4491 244.131 73.043H244.188V73.6044H244.767V70.9987C244.767 70.2078 244.248 69.7311 243.319 69.7311C242.507 69.7311 241.907 70.1337 241.825 70.7445H242.44C242.525 70.4444 242.842 70.2714 243.298 70.2714C243.866 70.2714 244.159 70.5291 244.159 70.9987V71.3447L243.061 71.4118C242.175 71.4648 241.674 71.8567 241.674 72.5381C241.674 73.2337 242.221 73.6715 242.959 73.6715ZM243.072 73.1384C242.63 73.1384 242.302 72.9124 242.302 72.524C242.302 72.1427 242.556 71.9414 243.135 71.9026L244.159 71.8355V72.1851C244.159 72.7288 243.697 73.1384 243.072 73.1384ZM245.889 73.6044H246.497V71.2459C246.497 70.7092 246.917 70.3208 247.496 70.3208C247.616 70.3208 247.835 70.342 247.884 70.3561V69.7488C247.807 69.7382 247.679 69.7311 247.581 69.7311C247.076 69.7311 246.638 69.9924 246.525 70.3632H246.468V69.7982H245.889V73.6044ZM249.946 73.6715C250.472 73.6715 250.924 73.4208 251.164 72.9971H251.221V73.6044H251.8V68.287H251.193V70.3985H251.14C250.924 69.9818 250.476 69.7311 249.946 69.7311C248.979 69.7311 248.347 70.5079 248.347 71.7013C248.347 72.8983 248.972 73.6715 249.946 73.6715ZM250.087 70.2784C250.776 70.2784 251.207 70.8292 251.207 71.7013C251.207 72.5805 250.779 73.1242 250.087 73.1242C249.392 73.1242 248.975 72.5911 248.975 71.7013C248.975 70.8151 249.395 70.2784 250.087 70.2784Z" fill="black"/>
<path fill-rule="evenodd" clip-rule="evenodd" d="M179.52 70.4209V69.8183C179.52 69.3752 179.881 69.0148 180.324 69.0148C180.767 69.0148 181.127 69.3752 181.127 69.8183V70.4209H179.52ZM181.73 70.4243V69.8183C181.73 69.0429 181.099 68.4122 180.324 68.4122C179.549 68.4122 178.918 69.0429 178.918 69.8183V70.4243C178.698 70.7177 178.566 71.0807 178.566 71.4754C178.566 72.4462 179.353 73.2329 180.324 73.2329C181.294 73.2329 182.081 72.4462 182.081 71.4754C182.081 71.0807 181.949 70.7177 181.73 70.4243Z" fill="#111111"/>
<path fill-rule="evenodd" clip-rule="evenodd" d="M179.051 152.375L163.253 154.317L165.484 172.465C174.028 171.424 181.805 177.521 182.858 186.09C183.912 194.659 177.844 202.458 169.303 203.518L171.534 221.665L187.328 219.723L187.326 219.705C186.272 211.13 192.349 203.326 200.9 202.275C209.451 201.223 217.237 207.322 218.292 215.897L218.294 215.916L234.087 213.974L231.85 195.784C239.791 194.208 245.284 186.724 244.277 178.538C243.271 170.351 236.128 164.421 228.042 164.816L225.805 146.626L210.009 148.568C208.79 140.176 201.098 134.256 192.663 135.293C184.229 136.33 178.201 143.938 179.051 152.375Z" fill="#111111"/>
<mask id="path-17-inside-1_1444_14825" fill="white">
<path fill-rule="evenodd" clip-rule="evenodd" d="M180.245 150.438L164.447 152.38L166.678 170.528C175.222 169.487 182.999 175.584 184.052 184.153C185.106 192.722 179.038 200.521 170.497 201.581L172.728 219.729L188.522 217.787L188.52 217.768C187.466 209.193 193.543 201.39 202.094 200.338C210.645 199.287 218.431 205.386 219.486 213.961L219.488 213.979L235.281 212.037L233.044 193.847C240.984 192.271 246.478 184.787 245.471 176.601C244.465 168.414 237.322 162.484 229.236 162.879L226.999 144.688L211.203 146.631C209.983 138.239 202.292 132.319 193.857 133.356C185.423 134.393 179.395 142.001 180.245 150.438Z"/>
</mask>
<path fill-rule="evenodd" clip-rule="evenodd" d="M180.245 150.438L164.447 152.38L166.678 170.528C175.222 169.487 182.999 175.584 184.052 184.153C185.106 192.722 179.038 200.521 170.497 201.581L172.728 219.729L188.522 217.787L188.52 217.768C187.466 209.193 193.543 201.39 202.094 200.338C210.645 199.287 218.431 205.386 219.486 213.961L219.488 213.979L235.281 212.037L233.044 193.847C240.984 192.271 246.478 184.787 245.471 176.601C244.465 168.414 237.322 162.484 229.236 162.879L226.999 144.688L211.203 146.631C209.983 138.239 202.292 132.319 193.857 133.356C185.423 134.393 179.395 142.001 180.245 150.438Z" fill="white"/>
<path d="M164.447 152.38L164.317 151.322L163.259 151.452L163.389 152.51L164.447 152.38ZM180.245 150.438L180.375 151.496L181.41 151.368L181.305 150.331L180.245 150.438ZM166.678 170.528L165.62 170.658L165.75 171.715L166.807 171.586L166.678 170.528ZM170.497 201.581L170.365 200.523L169.309 200.654L169.439 201.711L170.497 201.581ZM172.728 219.729L171.67 219.859L171.8 220.917L172.858 220.787L172.728 219.729ZM188.522 217.787L188.652 218.845L189.711 218.714L189.58 217.656L188.522 217.787ZM188.52 217.768L187.462 217.899L187.462 217.899L188.52 217.768ZM219.486 213.961L220.544 213.831L220.544 213.831L219.486 213.961ZM219.488 213.979L218.43 214.108L218.559 215.167L219.618 215.037L219.488 213.979ZM235.281 212.037L235.411 213.095L236.469 212.965L236.339 211.907L235.281 212.037ZM233.044 193.847L232.836 192.802L231.865 192.994L231.986 193.977L233.044 193.847ZM229.236 162.879L228.178 163.009L228.299 163.992L229.288 163.944L229.236 162.879ZM226.999 144.688L228.057 144.558L227.927 143.5L226.869 143.63L226.999 144.688ZM211.203 146.631L210.148 146.784L210.298 147.816L211.333 147.689L211.203 146.631ZM164.577 153.438L180.375 151.496L180.115 149.379L164.317 151.322L164.577 153.438ZM167.736 170.398L165.505 152.25L163.389 152.51L165.62 170.658L167.736 170.398ZM185.11 184.023C183.985 174.873 175.68 168.358 166.549 169.47L166.807 171.586C174.764 170.617 182.012 176.295 182.994 184.283L185.11 184.023ZM170.628 202.639C179.756 201.506 186.236 193.173 185.11 184.023L182.994 184.283C183.977 192.271 178.32 199.536 170.365 200.523L170.628 202.639ZM173.786 219.599L171.555 201.451L169.439 201.711L171.67 219.859L173.786 219.599ZM188.392 216.729L172.598 218.671L172.858 220.787L188.652 218.845L188.392 216.729ZM187.462 217.899L187.464 217.917L189.58 217.656L189.578 217.638L187.462 217.899ZM201.964 199.28C192.825 200.404 186.336 208.742 187.462 217.899L189.578 217.638C188.595 209.645 194.26 202.375 202.224 201.396L201.964 199.28ZM220.544 213.831C219.418 204.674 211.102 198.156 201.964 199.28L202.224 201.396C210.187 200.417 217.445 206.097 218.428 214.091L220.544 213.831ZM220.546 213.85L220.544 213.831L218.427 214.09L218.43 214.108L220.546 213.85ZM235.151 210.979L219.358 212.921L219.618 215.037L235.411 213.095L235.151 210.979ZM231.986 193.977L234.223 212.167L236.339 211.907L234.102 193.717L231.986 193.977ZM233.252 194.893C241.738 193.208 247.604 185.213 246.529 176.471L244.413 176.731C245.352 184.362 240.231 191.334 232.836 192.802L233.252 194.893ZM246.529 176.471C245.454 167.728 237.826 161.392 229.184 161.814L229.288 163.944C236.818 163.576 243.475 169.1 244.413 176.731L246.529 176.471ZM225.941 144.819L228.178 163.009L230.294 162.749L228.057 144.558L225.941 144.819ZM211.333 147.689L227.129 145.747L226.869 143.63L211.073 145.573L211.333 147.689ZM212.258 146.478C210.955 137.517 202.741 131.19 193.727 132.298L193.987 134.414C201.843 133.448 209.011 138.962 210.148 146.784L212.258 146.478ZM193.727 132.298C184.713 133.406 178.276 141.535 179.184 150.544L181.305 150.331C180.513 142.467 186.132 135.38 193.987 134.414L193.727 132.298Z" fill="#111111" mask="url(#path-17-inside-1_1444_14825)"/>
<circle cx="194.809" cy="164.923" r="1.599" transform="rotate(-7.01001 194.809 164.923)" fill="#111111"/>
<circle cx="215.264" cy="162.408" r="1.599" transform="rotate(-7.01 215.264 162.408)" fill="#111111"/>
<path d="M194.062 174.86C197.997 171.945 208.233 167.282 217.691 171.955" stroke="#111111" stroke-width="1.066" stroke-linecap="round"/>
<ellipse cx="244.38" cy="256.137" rx="30.6206" ry="5.75201" fill="#111111"/>
<path d="M274.699 255.12C274.699 255.304 274.604 255.551 274.274 255.86C273.945 256.168 273.429 256.491 272.716 256.814C271.294 257.459 269.202 258.053 266.575 258.556C261.33 259.561 254.061 260.186 246.016 260.186C237.971 260.186 230.703 259.561 225.457 258.556C222.831 258.053 220.738 257.459 219.316 256.814C218.603 256.491 218.087 256.168 217.758 255.86C217.428 255.551 217.333 255.304 217.333 255.12C217.333 254.936 217.428 254.69 217.758 254.381C218.087 254.072 218.603 253.749 219.316 253.426C220.738 252.782 222.831 252.188 225.457 251.685C230.703 250.679 237.971 250.054 246.016 250.054C254.061 250.054 261.33 250.679 266.575 251.685C269.202 252.188 271.294 252.782 272.716 253.426C273.429 253.749 273.945 254.072 274.274 254.381C274.604 254.69 274.699 254.936 274.699 255.12Z" fill="white" stroke="#111111" stroke-width="1.066"/>
<path d="M261.741 251.363C261.741 251.562 261.552 251.92 260.764 252.36C260.021 252.775 258.91 253.166 257.492 253.501C254.663 254.169 250.729 254.587 246.365 254.587C242 254.587 238.066 254.169 235.238 253.501C233.819 253.166 232.709 252.775 231.966 252.36C231.178 251.92 230.988 251.562 230.988 251.363C230.988 251.288 230.973 250.711 230.946 249.736C230.842 246.001 230.578 236.429 230.43 226.903C230.338 220.886 230.291 214.879 230.361 210.342C230.396 208.072 230.459 206.18 230.56 204.841C230.61 204.17 230.669 203.653 230.734 203.302C230.758 203.173 230.781 203.078 230.801 203.012C231.428 202.797 232.301 202.637 233.372 202.523C234.525 202.4 235.872 202.336 237.32 202.304C239.235 202.262 241.303 202.279 243.317 202.295C244.356 202.303 245.382 202.311 246.365 202.311C247.375 202.311 248.388 202.303 249.389 202.294C251.249 202.278 253.064 202.263 254.731 202.304C257.215 202.365 259.27 202.553 260.582 203.013C260.605 203.081 260.631 203.18 260.66 203.315C260.735 203.667 260.808 204.184 260.876 204.856C261.013 206.195 261.13 208.087 261.228 210.357C261.424 214.893 261.547 220.901 261.623 226.918C261.766 238.241 261.744 249.581 261.741 251.18C261.741 251.28 261.741 251.342 261.741 251.363Z" fill="white" stroke="#111111" stroke-width="1.066"/>
<path d="M274.699 201.34C274.699 201.524 274.604 201.77 274.274 202.079C273.945 202.388 273.429 202.711 272.716 203.034C271.294 203.678 269.202 204.272 266.575 204.775C261.33 205.781 254.061 206.406 246.016 206.406C237.971 206.406 230.703 205.781 225.457 204.775C222.831 204.272 220.738 203.678 219.316 203.034C218.603 202.711 218.087 202.388 217.758 202.079C217.428 201.77 217.333 201.524 217.333 201.34C217.333 201.156 217.428 200.909 217.758 200.6C218.087 200.292 218.603 199.969 219.316 199.646C220.738 199.001 222.831 198.408 225.457 197.904C230.703 196.899 237.971 196.274 246.016 196.274C254.061 196.274 261.33 196.899 266.575 197.904C269.202 198.408 271.294 199.001 272.716 199.646C273.429 199.969 273.945 200.292 274.274 200.6C274.604 200.909 274.699 201.156 274.699 201.34Z" fill="white" stroke="#111111" stroke-width="1.066"/>
<path d="M236.29 220.015C230.931 219.293 228.846 222.582 228.096 224.62C226.663 227.714 228.692 230.029 229.886 230.127C229.289 227.598 230.79 224.031 236.29 224.031C244.62 224.031 255.355 220.752 257.736 220.015C260.117 219.279 260.498 219.463 261.907 218.966C262.871 218.626 264.288 216.571 263.402 215.098C262.694 213.919 260.271 215.098 257.736 216C253.27 217.59 241.65 220.737 236.29 220.015Z" fill="white" stroke="#111111" stroke-width="1.066"/>
<path d="M240.684 239.938C235.841 242.266 232.134 241.75 230.135 241.75C228.626 241.75 227.698 245.492 229.425 246.022C231.585 246.685 239.613 245.267 242.751 243.425C245.888 241.583 255.019 240.497 256.944 240.497C258.816 240.497 261.534 241.362 262.886 241.362C264.093 241.362 263.372 237.669 262.333 237.028C262.035 236.844 259.53 237.028 257.793 237.028C256.25 237.028 246.738 237.028 240.684 239.938Z" fill="white" stroke="#111111" stroke-width="1.066"/>
<path d="M260.837 205.999C250.073 208.902 236.124 209.1 230.495 208.836L230.883 205.594C239.83 206.994 254.58 206.447 260.837 205.999Z" fill="#111111"/>
<ellipse cx="246.18" cy="200.593" rx="8.64582" ry="1.25825" fill="#111111"/>
<path d="M271.966 262.04C271.966 253.843 265.553 249.61 262.13 248.412L262.13 251.177C269.562 256.708 268.884 260.888 268.303 262.616C266.773 267.161 257.099 270.374 254.107 272.145C250.329 273.923 252.381 276.178 253.641 275.899C254.9 275.62 260.638 272.687 266.235 269.894C270.713 267.659 271.922 263.727 271.966 262.04Z" fill="white" stroke="#111111" stroke-width="1.066"/>
<path d="M159.593 313.424V305.086H159.667L165.574 313.424H167.403V301.536H165.359V309.865H165.285L159.387 301.536H157.541V313.424H159.593ZM173.161 313.597C175.724 313.597 177.388 311.891 177.388 309.057C177.388 306.232 175.707 304.51 173.161 304.51C170.616 304.51 168.935 306.24 168.935 309.057C168.935 311.891 170.599 313.597 173.161 313.597ZM173.161 311.974C171.86 311.974 171.019 310.919 171.019 309.057C171.019 307.204 171.868 306.141 173.161 306.141C174.463 306.141 175.303 307.204 175.303 309.057C175.303 310.919 174.463 311.974 173.161 311.974ZM182.084 313.424H184.135V308.365C184.135 307.113 184.885 306.264 186.063 306.264C187.233 306.264 187.809 306.956 187.809 308.192V313.424H189.861V307.78C189.861 305.762 188.765 304.526 186.837 304.526C185.494 304.526 184.564 305.152 184.094 306.19H184.053V304.691H182.084V313.424ZM195.372 313.597C197.935 313.597 199.599 311.891 199.599 309.057C199.599 306.232 197.918 304.51 195.372 304.51C192.827 304.51 191.146 306.24 191.146 309.057C191.146 311.891 192.81 313.597 195.372 313.597ZM195.372 311.974C194.071 311.974 193.23 310.919 193.23 309.057C193.23 307.204 194.079 306.141 195.372 306.141C196.674 306.141 197.514 307.204 197.514 309.057C197.514 310.919 196.674 311.974 195.372 311.974ZM201.485 302.648V304.691H200.233V306.273H201.485V311.1C201.485 312.798 202.227 313.465 204.114 313.465C204.55 313.465 204.954 313.432 205.176 313.383V311.817C205.044 311.842 204.781 311.858 204.591 311.858C203.866 311.858 203.537 311.529 203.537 310.812V306.273H205.185V304.691H203.537V302.648H201.485ZM212.204 310.812C211.981 311.537 211.256 312.015 210.301 312.015C208.958 312.015 208.101 311.076 208.101 309.675V309.552H214.206V308.884C214.206 306.232 212.657 304.51 210.177 304.51C207.656 304.51 206.058 306.33 206.058 309.09C206.058 311.875 207.64 313.597 210.259 313.597C212.327 313.597 213.86 312.46 214.123 310.812H212.204ZM210.185 306.1C211.363 306.1 212.154 306.965 212.196 308.201H208.117C208.2 306.981 209.032 306.1 210.185 306.1ZM215.376 307.195C215.376 308.489 216.216 309.313 217.888 309.683L219.338 310.005C220.253 310.211 220.566 310.507 220.566 311.035C220.566 311.685 219.948 312.097 218.951 312.097C217.913 312.097 217.328 311.669 217.172 310.82H215.153C215.318 312.509 216.669 313.597 218.951 313.597C221.093 313.597 222.609 312.485 222.609 310.837C222.609 309.568 221.909 308.868 220.096 308.464L218.646 308.143C217.732 307.937 217.369 307.591 217.369 307.088C217.369 306.446 217.971 306.017 218.877 306.017C219.824 306.017 220.409 306.52 220.492 307.311H222.403C222.354 305.655 221.003 304.51 218.877 304.51C216.768 304.51 215.376 305.597 215.376 307.195ZM231.161 313.597C233.723 313.597 235.387 311.891 235.387 309.057C235.387 306.232 233.706 304.51 231.161 304.51C228.615 304.51 226.934 306.24 226.934 309.057C226.934 311.891 228.598 313.597 231.161 313.597ZM231.161 311.974C229.859 311.974 229.019 310.919 229.019 309.057C229.019 307.204 229.867 306.141 231.161 306.141C232.462 306.141 233.303 307.204 233.303 309.057C233.303 310.919 232.462 311.974 231.161 311.974ZM236.705 313.424H238.757V308.365C238.757 307.113 239.506 306.264 240.684 306.264C241.854 306.264 242.431 306.956 242.431 308.192V313.424H244.482V307.78C244.482 305.762 243.387 304.526 241.459 304.526C240.116 304.526 239.185 305.152 238.715 306.19H238.674V304.691H236.705V313.424ZM250.076 302.648V304.691H248.824V306.273H250.076V311.1C250.076 312.798 250.818 313.465 252.704 313.465C253.141 313.465 253.545 313.432 253.767 313.383V311.817C253.635 311.842 253.372 311.858 253.182 311.858C252.457 311.858 252.128 311.529 252.128 310.812V306.273H253.775V304.691H252.128V302.648H250.076ZM255.234 313.424H257.285V308.406C257.285 307.121 258.035 306.264 259.27 306.264C260.457 306.264 261.066 306.998 261.066 308.217V313.424H263.118V307.797C263.118 305.795 261.989 304.526 260.061 304.526C258.735 304.526 257.771 305.128 257.301 306.19H257.26V301.536H255.234V313.424ZM265.837 303.373C266.463 303.373 266.957 302.87 266.957 302.261C266.957 301.643 266.463 301.148 265.837 301.148C265.21 301.148 264.708 301.643 264.708 302.261C264.708 302.87 265.21 303.373 265.837 303.373ZM264.815 313.424H266.866V304.691H264.815V313.424ZM268.432 307.195C268.432 308.489 269.272 309.313 270.944 309.683L272.394 310.005C273.309 310.211 273.622 310.507 273.622 311.035C273.622 311.685 273.004 312.097 272.007 312.097C270.969 312.097 270.384 311.669 270.228 310.82H268.209C268.374 312.509 269.725 313.597 272.007 313.597C274.149 313.597 275.665 312.485 275.665 310.837C275.665 309.568 274.965 308.868 273.152 308.464L271.702 308.143C270.788 307.937 270.425 307.591 270.425 307.088C270.425 306.446 271.027 306.017 271.933 306.017C272.881 306.017 273.465 306.52 273.548 307.311H275.459C275.41 305.655 274.059 304.51 271.933 304.51C269.824 304.51 268.432 305.597 268.432 307.195ZM182.562 333.564C184.769 333.564 186.162 331.85 186.162 329.057C186.162 326.264 184.761 324.543 182.562 324.543C181.326 324.543 180.329 325.169 179.835 326.19H179.785V321.536H177.734V333.424H179.744V331.933H179.785C180.296 332.946 181.276 333.564 182.562 333.564ZM181.927 326.232C183.237 326.232 184.061 327.327 184.061 329.057C184.061 330.796 183.245 331.883 181.927 331.883C180.658 331.883 179.777 330.771 179.777 329.057C179.777 327.36 180.658 326.232 181.927 326.232ZM191.36 333.597C193.922 333.597 195.587 331.891 195.587 329.057C195.587 326.232 193.906 324.51 191.36 324.51C188.815 324.51 187.134 326.24 187.134 329.057C187.134 331.891 188.798 333.597 191.36 333.597ZM191.36 331.974C190.059 331.974 189.218 330.919 189.218 329.057C189.218 327.204 190.067 326.141 191.36 326.141C192.662 326.141 193.502 327.204 193.502 329.057C193.502 330.919 192.662 331.974 191.36 331.974ZM199.475 333.564C200.596 333.564 201.691 332.979 202.194 332.031H202.235V333.424H204.212V327.41C204.212 325.655 202.804 324.51 200.637 324.51C198.412 324.51 197.02 325.68 196.93 327.311H198.833C198.964 326.586 199.582 326.116 200.554 326.116C201.568 326.116 202.186 326.643 202.186 327.558V328.184L199.879 328.316C197.753 328.448 196.559 329.379 196.559 330.927C196.559 332.501 197.786 333.564 199.475 333.564ZM200.093 332.015C199.203 332.015 198.61 331.562 198.61 330.845C198.61 330.153 199.179 329.708 200.167 329.642L202.186 329.519V330.186C202.186 331.241 201.255 332.015 200.093 332.015ZM205.868 333.424H207.92V328.341C207.92 327.113 208.62 326.363 209.782 326.363C210.128 326.363 210.441 326.413 210.614 326.479V324.625C210.465 324.592 210.235 324.543 209.971 324.543C208.941 324.543 208.175 325.152 207.879 326.215H207.837V324.691H205.868V333.424ZM214.601 333.564C215.878 333.564 216.883 332.913 217.361 331.933H217.394V333.424H219.404V321.536H217.353V326.157H217.303C216.842 325.193 215.853 324.543 214.601 324.543C212.401 324.543 210.976 326.289 210.976 329.049C210.976 331.825 212.401 333.564 214.601 333.564ZM215.219 326.232C216.513 326.232 217.361 327.344 217.361 329.057C217.361 330.787 216.513 331.883 215.219 331.883C213.893 331.883 213.077 330.796 213.077 329.057C213.077 327.327 213.901 326.232 215.219 326.232ZM225.188 328.752C225.188 331.628 225.946 333.951 227.593 335.969H229.439C228.244 334.561 227.297 331.471 227.297 328.744C227.297 326.017 228.236 322.936 229.439 321.536H227.593C225.946 323.546 225.188 325.861 225.188 328.752ZM231.564 336.67C233.558 336.67 234.522 335.936 235.263 333.77L238.427 324.691H236.269L234.209 331.677H234.168L232.116 324.691H229.875L232.981 333.432C232.99 333.457 232.858 333.893 232.858 333.918C232.635 334.725 232.199 335.047 231.35 335.047C231.227 335.047 230.864 335.038 230.757 335.014V336.637C230.864 336.661 231.441 336.67 231.564 336.67ZM244.935 330.812C244.713 331.537 243.988 332.015 243.032 332.015C241.689 332.015 240.833 331.076 240.833 329.675V329.552H246.937V328.884C246.937 326.232 245.389 324.51 242.909 324.51C240.388 324.51 238.789 326.33 238.789 329.09C238.789 331.875 240.371 333.597 242.991 333.597C245.059 333.597 246.591 332.46 246.855 330.812H244.935ZM242.917 326.1C244.095 326.1 244.886 326.965 244.927 328.201H240.849C240.932 326.981 241.764 326.1 242.917 326.1ZM248.832 322.648V324.691H247.58V326.273H248.832V331.1C248.832 332.798 249.574 333.465 251.46 333.465C251.897 333.465 252.301 333.432 252.523 333.383V331.817C252.391 331.842 252.128 331.858 251.938 331.858C251.213 331.858 250.884 331.529 250.884 330.812V326.273H252.531V324.691H250.884V322.648H248.832ZM257.647 328.752C257.647 325.877 256.881 323.554 255.242 321.536H253.396C254.591 322.944 255.538 326.034 255.538 328.761C255.538 331.488 254.591 334.569 253.396 335.969H255.242C256.881 333.959 257.647 331.644 257.647 328.752Z" fill="black"/>
</g>
<rect x="106.421" y="20.4213" width="223.128" height="486.46" rx="20.2719" stroke="black" stroke-width="2.84267"/>
</g>
<defs>
<clipPath id="clip0_1444_14825">
<rect width="437" height="320" fill="white"/>
</clipPath>
<clipPath id="clip1_1444_14825">
<rect x="105" y="19" width="225.971" height="489.303" rx="21.6932" fill="white"/>
</clipPath>
<clipPath id="clip2_1444_14825">
<rect width="32.5398" height="10.8466" fill="white" transform="translate(117.654 26.8336)"/>
</clipPath>
</defs>
</svg>
