<svg width="196" height="196" viewBox="0 0 196 196" fill="none" xmlns="http://www.w3.org/2000/svg">
<path d="M132.875 114.25C132.875 115.742 131.987 117.259 130.161 118.726C128.342 120.188 125.671 121.533 122.315 122.674C115.61 124.954 106.306 126.375 96 126.375C85.6942 126.375 76.3903 124.954 69.6847 122.674C66.3288 121.533 63.6578 120.188 61.8385 118.726C60.0135 117.259 59.125 115.742 59.125 114.25C59.125 112.758 60.0135 111.241 61.8385 109.774C63.6578 108.312 66.3288 106.967 69.6847 105.826C76.3903 103.546 85.6942 102.125 96 102.125C106.306 102.125 115.61 103.546 122.315 105.826C125.671 106.967 128.342 108.312 130.161 109.774C131.987 111.241 132.875 112.758 132.875 114.25Z" fill="white" stroke="#111111" stroke-width="1.25"/>
<mask id="path-2-inside-1_1107_8351" fill="white">
<path fill-rule="evenodd" clip-rule="evenodd" d="M120.607 103.133C119.502 104.863 118.402 106.303 117.493 107.356C119.191 108.092 121.064 108.5 123.032 108.5C130.742 108.5 136.994 102.237 136.996 94.5113C136.998 88.0436 132.619 82.6011 126.669 81C126.974 82.3453 126.886 84.2485 126.593 86.2927C129.76 87.6702 131.974 90.8316 131.973 94.5114C131.972 99.4573 127.969 103.467 123.033 103.467C122.192 103.467 121.379 103.35 120.607 103.133Z"/>
</mask>
<path fill-rule="evenodd" clip-rule="evenodd" d="M120.607 103.133C119.502 104.863 118.402 106.303 117.493 107.356C119.191 108.092 121.064 108.5 123.032 108.5C130.742 108.5 136.994 102.237 136.996 94.5113C136.998 88.0436 132.619 82.6011 126.669 81C126.974 82.3453 126.886 84.2485 126.593 86.2927C129.76 87.6702 131.974 90.8316 131.973 94.5114C131.972 99.4573 127.969 103.467 123.033 103.467C122.192 103.467 121.379 103.35 120.607 103.133Z" fill="white"/>
<path d="M120.607 103.133L120.947 101.93L120.054 101.678L119.554 102.46L120.607 103.133ZM117.493 107.356L116.547 106.538L115.435 107.826L116.995 108.502L117.493 107.356ZM126.669 81L126.994 79.793L124.992 79.2541L125.45 81.2766L126.669 81ZM126.593 86.2927L125.356 86.1161L125.221 87.0591L126.094 87.439L126.593 86.2927ZM119.554 102.46C118.48 104.14 117.416 105.533 116.547 106.538L118.438 108.173C119.388 107.074 120.524 105.585 121.661 103.806L119.554 102.46ZM116.995 108.502C118.847 109.306 120.889 109.75 123.031 109.75L123.032 107.25C121.238 107.25 119.534 106.878 117.99 106.209L116.995 108.502ZM123.031 109.75C131.434 109.75 138.244 102.925 138.246 94.5113H135.746C135.744 101.549 130.05 107.25 123.032 107.25L123.031 109.75ZM138.246 94.5113C138.248 87.4656 133.478 81.5375 126.994 79.793L126.344 82.2071C131.76 83.6646 135.748 88.6215 135.746 94.5113H138.246ZM125.45 81.2766C125.702 82.3867 125.644 84.0986 125.356 86.1161L127.831 86.4694C128.127 84.3983 128.246 82.304 127.888 80.7235L125.45 81.2766ZM133.223 94.5114C133.224 90.3175 130.7 86.7157 127.092 85.1465L126.094 87.439C128.82 88.6247 130.724 91.3457 130.723 94.5114H133.223ZM123.033 104.717C128.661 104.717 133.221 100.145 133.223 94.5114H130.723C130.722 98.7693 127.277 102.217 123.033 102.217L123.033 104.717ZM120.268 104.336C121.149 104.584 122.076 104.717 123.033 104.717L123.033 102.217C122.308 102.217 121.609 102.116 120.947 101.93L120.268 104.336Z" fill="#111111" mask="url(#path-2-inside-1_1107_8351)"/>
<path d="M129.37 81.4895C129.054 100.569 114.291 115.875 96.3515 115.875C78.412 115.875 63.4515 100.406 63.1303 81.3255L129.37 81.4895Z" fill="white" stroke="#111111" stroke-width="1.25"/>
<path d="M129.375 80.866C129.375 82.3247 128.57 83.7936 126.939 85.2071C125.309 86.6191 122.914 87.9191 119.9 89.0233C113.877 91.2299 105.516 92.6071 96.25 92.6071C86.9839 92.6071 78.6225 91.2299 72.6002 89.0233C69.5865 87.9191 67.1915 86.6191 65.5615 85.2071C63.9298 83.7936 63.125 82.3247 63.125 80.866C63.125 79.4074 63.9298 77.9385 65.5615 76.525C67.1915 75.113 69.5865 73.813 72.6002 72.7088C78.6225 70.5022 86.9839 69.125 96.25 69.125C105.516 69.125 113.877 70.5022 119.9 72.7088C122.914 73.813 125.309 75.113 126.939 76.525C128.57 77.9385 129.375 79.4074 129.375 80.866Z" fill="white" stroke="#111111" stroke-width="1.25"/>
<ellipse cx="87.25" cy="79.5" rx="1.75" ry="1" fill="#111111"/>
<ellipse cx="104.75" cy="79.5" rx="1.75" ry="1" fill="#111111"/>
<path d="M86 86.5C89.4909 84.2362 98.2781 81.0667 105.5 86.5" stroke="#111111" stroke-width="1.25" stroke-linecap="round"/>
<path d="M63 82.5C66.2295 76.7886 79.8775 72.5 96.2239 72.5C112.231 72.5 125.418 76.5825 129 82.1165" stroke="#111111" stroke-width="1.25"/>
</svg>
