<svg width="906" height="233" viewBox="0 0 906 233" fill="none" xmlns="http://www.w3.org/2000/svg">
<rect width="906" height="233" rx="8" fill="white"/>
<ellipse cx="356.197" cy="163.723" rx="28.9567" ry="3.65" fill="#111111"/>
<path d="M351.87 109.342C350.874 114.75 352.575 118.871 354.187 121.145C354.899 122.148 356.162 122.568 357.33 122.185C360.231 121.235 364.036 118.607 364.598 112.88C365.213 106.613 363.241 100.951 361.805 98.1392C361.483 97.5086 360.865 97.0987 360.167 96.9777C359.535 96.868 358.878 97.0013 358.391 97.4189C356.306 99.2039 352.987 103.279 351.87 109.342Z" fill="white" stroke="#111111" stroke-width="1.46"/>
<rect x="336.487" y="123.573" width="59.86" height="7.3" fill="white"/>
<path d="M390.993 130.873H341.353L347.25 163.967H384.561L390.993 130.873Z" fill="white"/>
<rect x="335.857" y="123.318" width="60.8734" height="7.77315" rx="1.95183" stroke="#111111" stroke-width="1.46"/>
<path d="M341.257 130.863L346.784 162.133C347.011 163.414 348.124 164.348 349.425 164.348H382.819C384.111 164.348 385.219 163.427 385.456 162.158L391.292 130.863" stroke="#111111" stroke-width="1.46" stroke-linejoin="round"/>
<path d="M356.633 68.8781C356.233 68.8286 355.868 69.1128 355.819 69.5129C355.769 69.9131 356.054 70.2775 356.454 70.327L356.633 68.8781ZM356.454 70.327C360.568 70.8359 365.89 72.4596 370.081 76.1352C374.243 79.785 377.352 85.5106 377 94.3805L378.459 94.4384C378.828 85.1485 375.552 78.9911 371.044 75.0375C366.565 71.1098 360.934 69.41 356.633 68.8781L356.454 70.327ZM377 94.3805C376.297 112.104 362.497 120.38 355.104 122.42L355.492 123.828C363.232 121.692 377.722 113.034 378.459 94.4384L377 94.3805Z" fill="#111111"/>
<path d="M333.793 74.8169C339.196 61.8792 351.611 66.3176 356.795 69.7819C350.776 81.9159 340.59 80.56 334.867 77.7609C333.778 77.2283 333.326 75.9355 333.793 74.8169Z" fill="white"/>
<path d="M356.795 69.7819C351.611 66.3176 339.196 61.8792 333.793 74.8169C333.326 75.9355 333.778 77.2283 334.867 77.7609C340.59 80.56 350.776 81.9159 356.795 69.7819" stroke="#111111" stroke-width="1.46" stroke-linejoin="round"/>
<path d="M357.49 52.4285C355.362 61.9518 361.299 69.1975 364.788 71.86C364.902 71.947 365.019 72.0194 365.145 72.087C367.815 73.5135 373.2 76.5722 373.96 79.0433C378.565 66.9147 368.683 56.4716 361.404 51.0786C359.946 49.9981 357.886 50.6574 357.49 52.4285Z" fill="white" stroke="#111111" stroke-width="1.46" stroke-linejoin="round"/>
<path d="M361.454 80.1843C362.681 92.8926 370.516 96.8144 375.79 97.2509C376.908 97.3434 377.706 96.3008 377.451 95.2089C375.071 85.0425 368.222 80.1232 363.574 78.4365C362.425 78.0198 361.336 78.9682 361.454 80.1843Z" fill="white" stroke="#111111" stroke-width="1.46" stroke-linejoin="round"/>
<path d="M390.644 110.791C383.867 114.116 374.205 112.314 371.04 112.836L373.567 109.304C373.669 109.162 373.757 109.01 373.835 108.853C377.671 101.115 388.879 96.6981 396.153 94.9772C397.787 94.5908 399.339 95.787 399.218 97.461C398.87 102.301 396.586 107.875 390.644 110.791Z" fill="white" stroke="#111111" stroke-width="1.46" stroke-linejoin="round"/>
<path d="M368.273 85.2614C368.079 84.9082 367.635 84.7793 367.281 84.9737C366.928 85.168 366.799 85.6119 366.994 85.9652L368.273 85.2614ZM366.994 85.9652C367.752 87.343 369.149 89.5258 370.899 91.6391C372.639 93.7404 374.781 95.8395 377.039 96.9725L377.694 95.6674C375.707 94.6706 373.72 92.7571 372.023 90.708C370.337 88.6707 368.99 86.565 368.273 85.2614L366.994 85.9652Z" fill="#111111"/>
<path d="M338.521 73.3221C338.183 73.5426 338.088 73.9949 338.309 74.3325C338.529 74.6701 338.982 74.765 339.319 74.5445L338.521 73.3221ZM339.319 74.5445C340.495 73.7765 342.884 72.6061 345.879 71.6845C348.87 70.7642 352.414 70.1079 355.908 70.3251L355.999 68.8679C352.276 68.6365 348.549 69.3354 345.45 70.2891C342.355 71.2415 339.835 72.4639 338.521 73.3221L339.319 74.5445Z" fill="#111111"/>
<path d="M364.386 58.9934C364.198 58.6366 363.757 58.4996 363.4 58.6874C363.043 58.8752 362.906 59.3166 363.094 59.6734L364.386 58.9934ZM363.094 59.6734L372.827 78.1667L374.119 77.4867L364.386 58.9934L363.094 59.6734Z" fill="#111111"/>
<path d="M359.603 106.574C359.622 106.172 359.31 105.83 358.908 105.811C358.505 105.792 358.163 106.103 358.144 106.506L359.603 106.574ZM357.148 122.778C357.842 120.018 359.303 112.929 359.603 106.574L358.144 106.506C357.851 112.728 356.413 119.715 355.732 122.422L357.148 122.778Z" fill="#111111"/>
<path d="M393.588 101.523C393.774 101.165 393.634 100.724 393.276 100.539C392.918 100.353 392.478 100.493 392.292 100.85L393.588 101.523ZM373.198 110.645C376.114 109.762 380.682 108.432 384.743 106.887C386.773 106.114 388.701 105.279 390.244 104.407C391.75 103.557 393.03 102.598 393.588 101.523L392.292 100.85C391.949 101.513 391.016 102.295 389.526 103.136C388.075 103.955 386.225 104.761 384.224 105.522C380.222 107.045 375.715 108.358 372.775 109.248L373.198 110.645Z" fill="#111111"/>
<path d="M391.48 131.36H341.353L342.176 135.253L391.48 132.752V131.36Z" fill="#111111"/>
<path d="M583.45 147.827C583.45 150.068 582.107 152.315 579.418 154.463C576.736 156.605 572.81 158.566 567.895 160.226C558.071 163.545 544.453 165.61 529.377 165.61C514.301 165.61 500.682 163.545 490.858 160.226C485.943 158.566 482.017 156.605 479.336 154.463C476.647 152.315 475.303 150.068 475.303 147.827C475.303 145.587 476.647 143.339 479.336 141.192C482.017 139.05 485.943 137.089 490.858 135.429C500.682 132.11 514.301 130.045 529.377 130.045C544.453 130.045 558.071 132.11 567.895 135.429C572.81 137.089 576.736 139.05 579.418 141.192C582.107 143.339 583.45 145.587 583.45 147.827Z" fill="white" stroke="#111111" stroke-width="1.46"/>
<path d="M478.032 142.262C476.961 140.773 490.846 135.496 495.245 134.178C502.165 142.379 519.445 153.371 544.281 147.307C525.896 159.024 485.069 152.046 478.032 142.262Z" fill="#111111"/>
<mask id="path-22-inside-1_786_6773" fill="white">
<path fill-rule="evenodd" clip-rule="evenodd" d="M565.289 132.663C563.661 135.204 562.041 137.32 560.703 138.866C563.203 139.947 565.961 140.547 568.859 140.547C580.212 140.547 589.418 131.347 589.421 119.999C589.424 110.499 582.976 102.505 574.215 100.153C574.664 102.129 574.533 104.925 574.103 107.928C578.766 109.951 582.026 114.595 582.024 120C582.022 127.264 576.129 133.154 568.861 133.154C567.623 133.154 566.425 132.983 565.289 132.663Z"/>
</mask>
<path fill-rule="evenodd" clip-rule="evenodd" d="M565.289 132.663C563.661 135.204 562.041 137.32 560.703 138.866C563.203 139.947 565.961 140.547 568.859 140.547C580.212 140.547 589.418 131.347 589.421 119.999C589.424 110.499 582.976 102.505 574.215 100.153C574.664 102.129 574.533 104.925 574.103 107.928C578.766 109.951 582.026 114.595 582.024 120C582.022 127.264 576.129 133.154 568.861 133.154C567.623 133.154 566.425 132.983 565.289 132.663Z" fill="white"/>
<path d="M565.289 132.663L565.685 131.258L564.643 130.965L564.06 131.876L565.289 132.663ZM560.703 138.866L559.599 137.91L558.295 139.415L560.123 140.206L560.703 138.866ZM568.859 140.547L568.859 139.087H568.859L568.859 140.547ZM574.215 100.153L574.594 98.7432L572.255 98.1154L572.791 100.477L574.215 100.153ZM574.103 107.928L572.658 107.721L572.5 108.824L573.522 109.267L574.103 107.928ZM564.06 131.876C562.469 134.359 560.891 136.419 559.599 137.91L561.806 139.821C563.192 138.222 564.853 136.049 566.518 133.451L564.06 131.876ZM560.123 140.206C562.802 141.365 565.757 142.007 568.858 142.007L568.859 139.087C566.164 139.087 563.603 138.53 561.283 137.526L560.123 140.206ZM568.858 142.007C581.017 142.007 590.878 132.154 590.881 119.999H587.961C587.958 130.54 579.407 139.087 568.859 139.087L568.858 142.007ZM590.881 119.999C590.884 109.822 583.976 101.262 574.594 98.7432L573.836 101.563C581.976 103.748 587.964 111.177 587.961 119.999H590.881ZM572.791 100.477C573.177 102.178 573.084 104.749 572.658 107.721L575.548 108.134C575.983 105.1 576.15 102.081 575.638 99.8295L572.791 100.477ZM583.484 120C583.486 113.992 579.861 108.835 574.684 106.588L573.522 109.267C577.67 111.067 580.566 115.197 580.564 120H583.484ZM568.86 134.614C576.934 134.614 583.482 128.071 583.484 120H580.564C580.563 126.457 575.324 131.694 568.861 131.694L568.86 134.614ZM564.893 134.069C566.156 134.424 567.487 134.614 568.86 134.614L568.861 131.694C567.758 131.694 566.693 131.542 565.685 131.258L564.893 134.069Z" fill="#111111" mask="url(#path-22-inside-1_786_6773)"/>
<path d="M564.44 133.052L560.227 136.976C561.575 138.831 564.101 139.037 566.59 139.087C570.686 138.968 576.913 130.976 575.629 131.854C572.741 133.828 566.724 133.581 564.44 133.052Z" fill="#111111"/>
<path d="M577.793 99.8938C577.422 127.824 555.748 150.282 529.371 150.282C502.993 150.282 481.029 127.586 480.652 99.6543L577.793 99.8938Z" fill="white" stroke="#111111" stroke-width="1.46"/>
<path d="M577.798 99.1657C577.798 101.358 576.583 103.54 574.176 105.616C571.772 107.69 568.251 109.591 563.836 111.202C555.013 114.422 542.775 116.428 529.222 116.428C515.67 116.428 503.432 114.422 494.608 111.202C490.194 109.591 486.672 107.69 484.268 105.616C481.862 103.54 480.647 101.358 480.647 99.1657C480.647 96.9732 481.862 94.7909 484.268 92.715C486.672 90.6409 490.194 88.7399 494.608 87.1289C503.432 83.9092 515.67 81.9033 529.222 81.9033C542.775 81.9033 555.013 83.9092 563.836 87.1289C568.251 88.7399 571.772 90.6409 574.176 92.715C576.583 94.7909 577.798 96.9732 577.798 99.1657Z" fill="white" stroke="#111111" stroke-width="1.46"/>
<ellipse cx="516.413" cy="97.2263" rx="2.49247" ry="1.4646" fill="#111111"/>
<ellipse cx="542.157" cy="97.2263" rx="2.49247" ry="1.4646" fill="#111111"/>
<path d="M514.568 107.362C519.738 104.179 532.753 99.7224 543.45 107.362" stroke="#111111" stroke-width="1.46" stroke-linecap="round"/>
<path d="M550.353 89.0707C565.578 90.383 574.841 97.5566 577.314 101.111C579.985 93.8165 569.081 87.7917 563.402 86.5223L550.353 89.0707Z" fill="#111111"/>
<path d="M480.9 101.613C485.639 93.2746 505.666 87.0133 529.652 87.0133C553.141 87.0133 572.49 92.9737 577.747 101.053" stroke="#111111" stroke-width="1.46"/>
<path d="M171.92 60.2533C171.92 58.4344 173.394 56.96 175.213 56.96H220.307C222.126 56.96 223.6 58.4344 223.6 60.2533V62.7866C223.6 65.4449 221.445 67.6 218.787 67.6H176.733C174.075 67.6 171.92 65.4449 171.92 62.7866V60.2533Z" fill="white" stroke="#111111" stroke-width="1.52"/>
<path d="M198.52 67.3467V82.5467" stroke="#111111" stroke-width="1.52" stroke-linejoin="round"/>
<path d="M244.12 129.16C244.12 155.743 222.57 177.293 195.987 177.293C169.403 177.293 147.853 155.743 147.853 129.16C147.853 102.577 169.403 81.0266 195.987 81.0266C222.57 81.0266 244.12 102.577 244.12 129.16Z" fill="#111111"/>
<path d="M245.387 129.667C245.387 155.83 224.177 177.04 198.013 177.04C171.85 177.04 150.64 155.83 150.64 129.667C150.64 103.503 171.85 82.2933 198.013 82.2933C224.177 82.2933 245.387 103.503 245.387 129.667Z" fill="white" stroke="#111111" stroke-width="1.52"/>
<path d="M198.52 82.04L199.533 177.8" stroke="#111111" stroke-width="1.52" stroke-linejoin="round"/>
<path d="M209.16 84.0667C214.465 99.0751 221.991 138.87 209.259 175.773" stroke="#111111" stroke-width="1.52" stroke-linejoin="round"/>
<path d="M186.36 84.0667C181.055 99.0751 173.529 138.87 186.261 175.773" stroke="#111111" stroke-width="1.52" stroke-linejoin="round"/>
<path d="M224.36 90.1467C230.987 103.192 240.79 138.497 224.885 168.68" stroke="#111111" stroke-width="1.52" stroke-linejoin="round"/>
<path d="M171.16 90.1467C164.533 103.192 154.73 138.497 170.635 168.68" stroke="#111111" stroke-width="1.52" stroke-linejoin="round"/>
<path d="M150.387 129.667H245.133" stroke="#111111" stroke-width="1.52" stroke-linejoin="round"/>
<path d="M152.413 117C163.5 112.18 204.092 103.861 243.613 116.868" stroke="#111111" stroke-width="1.52" stroke-linejoin="round"/>
<path d="M152.413 142.333C163.5 147.154 204.092 155.472 243.613 142.465" stroke="#111111" stroke-width="1.52" stroke-linejoin="round"/>
<path d="M159 102.61C171.741 96.5488 207.32 88.266 237.027 102.813" stroke="#111111" stroke-width="1.52" stroke-linejoin="round"/>
<path d="M159 156.723C171.741 162.785 207.32 171.067 237.027 156.52" stroke="#111111" stroke-width="1.52" stroke-linejoin="round"/>
<path d="M152.413 67.3467V78.4933" stroke="#111111" stroke-width="1.52" stroke-linecap="round" stroke-linejoin="round"/>
<path d="M255.267 111.933L250.134 121.828" stroke="#111111" stroke-width="1.52" stroke-linecap="round" stroke-linejoin="round"/>
<path d="M144.591 93.1866L139.458 103.081" stroke="#111111" stroke-width="1.52" stroke-linecap="round" stroke-linejoin="round"/>
<path d="M247.653 70.3867L248.206 81.5196" stroke="#111111" stroke-width="1.52" stroke-linecap="round" stroke-linejoin="round"/>
<path d="M157.987 72.4133L146.84 72.4133" stroke="#111111" stroke-width="1.52" stroke-linecap="round" stroke-linejoin="round"/>
<path d="M257.293 119.027L247.383 113.923" stroke="#111111" stroke-width="1.52" stroke-linecap="round" stroke-linejoin="round"/>
<path d="M147.123 100.787L137.213 95.6835" stroke="#111111" stroke-width="1.52" stroke-linecap="round" stroke-linejoin="round"/>
<path d="M253.227 75.4534L242.093 76.0025" stroke="#111111" stroke-width="1.52" stroke-linecap="round" stroke-linejoin="round"/>
<circle cx="138.987" cy="125.36" r="1.52" fill="white" stroke="#111111" stroke-width="1.52"/>
<circle cx="225.627" cy="75.2" r="1.52" fill="white" stroke="#111111" stroke-width="1.52"/>
<circle cx="245.893" cy="96.9867" r="1.52" fill="white" stroke="#111111" stroke-width="1.52"/>
<circle cx="167.36" cy="79.76" r="1.52" fill="white" stroke="#111111" stroke-width="1.52"/>
<path fill-rule="evenodd" clip-rule="evenodd" d="M691.832 68.5522C716.909 55.1631 751.48 73.4209 761.462 98.495C771.443 123.569 750.506 136.715 732.977 142.07C731.064 142.655 728.908 143.123 726.567 143.631C716.533 145.808 703.097 148.722 690.858 164.71C675.764 184.429 659.217 173.493 656.774 160.328C648.01 113.101 674.303 77.9115 691.832 68.5522ZM741.173 118.54C746.28 118.54 750.42 114.4 750.42 109.293C750.42 104.187 746.28 100.047 741.173 100.047C736.067 100.047 731.927 104.187 731.927 109.293C731.927 114.4 736.067 118.54 741.173 118.54Z" fill="#111111"/>
<path fill-rule="evenodd" clip-rule="evenodd" d="M694.752 68.5522C719.829 55.1631 754.4 73.4209 764.382 98.495C774.363 123.569 753.426 136.715 735.897 142.07C733.984 142.655 731.828 143.123 729.487 143.631C719.453 145.808 706.017 148.722 693.778 164.71C678.684 184.429 662.137 173.493 659.694 160.328C650.93 113.101 677.223 77.9115 694.752 68.5522ZM744.093 118.54C749.2 118.54 753.34 114.4 753.34 109.293C753.34 104.187 749.2 100.047 744.093 100.047C738.987 100.047 734.847 104.187 734.847 109.293C734.847 114.4 738.987 118.54 744.093 118.54Z" fill="white"/>
<path d="M764.382 98.495L763.703 98.765L764.382 98.495ZM694.752 68.5522L695.096 69.1961V69.1961L694.752 68.5522ZM735.897 142.07L736.11 142.769L735.897 142.07ZM729.487 143.631L729.332 142.917L729.487 143.631ZM693.778 164.71L694.358 165.154L693.778 164.71ZM659.694 160.328L658.976 160.461L659.694 160.328ZM765.06 98.225C759.989 85.4881 748.701 74.5281 735.534 68.4373C722.364 62.3454 707.203 61.0768 694.408 67.9082L695.096 69.1961C707.378 62.6384 722.04 63.8042 734.921 69.7624C747.804 75.7218 758.792 86.4279 763.703 98.765L765.06 98.225ZM736.11 142.769C744.932 140.073 754.699 135.395 761.006 128.157C764.168 124.528 766.467 120.247 767.326 115.252C768.186 110.258 767.597 104.598 765.06 98.225L763.703 98.765C766.157 104.929 766.694 110.315 765.888 115.005C765.081 119.695 762.921 123.737 759.905 127.198C753.857 134.139 744.39 138.712 735.684 141.372L736.11 142.769ZM729.641 144.344C731.975 143.838 734.163 143.363 736.11 142.769L735.684 141.372C733.806 141.946 731.681 142.407 729.332 142.917L729.641 144.344ZM694.358 165.154C706.432 149.381 719.647 146.512 729.641 144.344L729.332 142.917C719.258 145.103 705.602 148.064 693.199 164.266L694.358 165.154ZM658.976 160.461C660.24 167.268 665.151 173.543 671.781 175.549C678.488 177.578 686.688 175.173 694.358 165.154L693.199 164.266C685.774 173.966 678.154 175.952 672.203 174.152C666.176 172.328 661.592 166.552 660.412 160.195L658.976 160.461ZM694.408 67.9082C685.478 72.6767 674.426 83.9463 666.706 99.9222C658.976 115.919 654.563 136.68 658.976 160.461L660.412 160.195C656.061 136.749 660.412 116.302 668.02 100.557C675.639 84.792 686.498 73.787 695.096 69.1961L694.408 67.9082ZM752.61 109.293C752.61 113.997 748.797 117.81 744.093 117.81V119.27C749.603 119.27 754.07 114.803 754.07 109.293H752.61ZM744.093 100.777C748.797 100.777 752.61 104.59 752.61 109.293H754.07C754.07 103.783 749.603 99.3167 744.093 99.3167V100.777ZM735.577 109.293C735.577 104.59 739.39 100.777 744.093 100.777V99.3167C738.583 99.3167 734.117 103.783 734.117 109.293H735.577ZM744.093 117.81C739.39 117.81 735.577 113.997 735.577 109.293H734.117C734.117 114.803 738.583 119.27 744.093 119.27V117.81Z" fill="#111111"/>
<path d="M668.451 144.92C666.175 139.136 671.659 136.028 675.707 136.096C682.295 136.567 683.194 140.023 683.308 141.782C683.422 143.54 684.15 146.042 679.53 150.504C674.91 154.966 671.295 152.15 668.451 144.92Z" stroke="#111111" stroke-width="1.46" stroke-linejoin="round"/>
<path d="M715.73 129.367C712.897 134.899 706.939 132.841 704.313 129.761C700.308 124.508 702.306 121.548 703.549 120.299C704.792 119.051 706.188 116.85 712.59 117.364C718.992 117.878 719.271 122.452 715.73 129.367Z" stroke="#111111" stroke-width="1.46" stroke-linejoin="round"/>
<path d="M671.218 122.713C669.248 119.922 675.23 115.152 679.037 114.077C684.109 112.645 689.404 118.364 689.733 120.722C690.073 123.163 685.739 128.085 680.025 124.612C674.312 121.139 673.68 126.202 671.218 122.713Z" stroke="#111111" stroke-width="1.46" stroke-linejoin="round"/>
<path d="M707.448 84.3793C705.531 80.4752 708.032 76.2608 712.75 76.5978C715.19 76.7721 718.452 79.2687 719.812 82.5336C721.512 86.6148 721.997 90.3683 717.191 91.2557C712.386 92.1431 709.845 89.2593 707.448 84.3793Z" stroke="#111111" stroke-width="1.46" stroke-linejoin="round"/>
<path d="M692.02 101.02C688.516 101.993 683.747 101.583 683.159 98.9067C680.482 92.0934 692.405 90.3899 698.732 92.8233C705.059 95.2566 705.545 108.64 698.732 108.883C691.919 109.127 696.4 99.8033 692.02 101.02Z" stroke="#111111" stroke-width="1.46"/>
<path d="M748.875 148.728C722.003 153.39 709.315 166.78 703.782 174.216C703.543 174.537 703.787 174.984 704.187 174.971C734.617 174.013 752.984 148.015 748.875 148.728Z" fill="white" stroke="#111111" stroke-width="1.46" stroke-linejoin="round"/>
<rect x="-0.251154" y="0.999264" width="6.32666" height="9.24667" transform="matrix(0.515102 0.857129 -0.859148 0.511726 751.109 145.037)" fill="white" stroke="#111111" stroke-width="1.46"/>
<path d="M763.458 138.069C750.892 139.855 748.24 144.927 748.489 147.346C748.495 147.402 748.511 147.454 748.537 147.503L750.728 151.765C750.834 151.971 751.076 152.073 751.299 152.007C761.984 148.81 764.493 142.075 763.985 138.444C763.95 138.194 763.708 138.033 763.458 138.069Z" fill="white" stroke="#111111" stroke-width="1.46" stroke-linejoin="round"/>
<path d="M749.933 150.173C750.448 148.823 750.705 145.406 756.361 144.452C760.479 143.758 762.36 139.606 763.56 138.493" stroke="#111111" stroke-width="1.46"/>
</svg>
