<svg width="437" height="320" viewBox="0 0 437 320" fill="none" xmlns="http://www.w3.org/2000/svg">
<g clip-path="url(#clip0_1444_14843)">
<rect width="437" height="320" fill="white"/>
<g clip-path="url(#clip1_1444_14843)">
<rect x="105" y="24" width="225.971" height="489.303" rx="21.6932" fill="white"/>
<circle cx="124.283" cy="67.3864" r="9.64143" fill="white" fill-opacity="0.9"/>
<path fill-rule="evenodd" clip-rule="evenodd" d="M125.662 71.7689C125.455 71.7689 125.247 71.6886 125.088 71.5283L120.996 67.3865L125.088 63.2447C125.405 62.9237 125.919 62.9237 126.236 63.2447C126.553 63.5657 126.553 64.0857 126.236 64.4068L123.293 67.3865L126.236 70.3662C126.553 70.6872 126.553 71.2073 126.236 71.5283C126.078 71.6886 125.87 71.7689 125.662 71.7689Z" fill="#111111"/>
<rect opacity="0.35" x="307.8" y="34.7461" width="12.6544" height="6.22676" rx="1.30561" stroke="black" stroke-width="0.60259"/>
<path opacity="0.4" d="M321.358 36.6543V39.0647C321.843 38.8605 322.159 38.3856 322.159 37.8595C322.159 37.3333 321.843 36.8584 321.358 36.6543Z" fill="black"/>
<rect x="308.704" y="35.65" width="10.8466" height="4.41899" rx="0.803453" fill="black"/>
<path fill-rule="evenodd" clip-rule="evenodd" d="M299.864 35.8155C301.2 35.8156 302.484 36.3287 303.452 37.2487C303.524 37.3197 303.641 37.3188 303.713 37.2467L304.409 36.5437C304.446 36.5071 304.466 36.4575 304.466 36.4059C304.465 36.3544 304.444 36.305 304.408 36.2689C301.868 33.8347 297.861 33.8347 295.321 36.2689C295.284 36.305 295.263 36.3543 295.263 36.4059C295.262 36.4575 295.282 36.507 295.319 36.5437L296.016 37.2467C296.087 37.3189 296.204 37.3198 296.277 37.2487C297.245 36.3286 298.529 35.8155 299.864 35.8155ZM299.864 38.1028C300.598 38.1027 301.305 38.3754 301.849 38.8679C301.923 38.9378 302.039 38.9362 302.11 38.8644L302.806 38.1614C302.843 38.1246 302.863 38.0745 302.863 38.0225C302.862 37.9706 302.841 37.921 302.803 37.8848C301.147 36.3444 298.583 36.3444 296.927 37.8848C296.889 37.921 296.868 37.9706 296.867 38.0226C296.867 38.0746 296.887 38.1246 296.924 38.1614L297.62 38.8644C297.691 38.9362 297.807 38.9378 297.881 38.8679C298.424 38.3757 299.131 38.1031 299.864 38.1028ZM301.258 39.6417C301.259 39.6938 301.239 39.7441 301.201 39.7806L299.998 40.9952C299.963 41.0309 299.914 41.051 299.864 41.051C299.814 41.051 299.766 41.0309 299.731 40.9952L298.527 39.7806C298.49 39.744 298.469 39.6938 298.47 39.6416C298.472 39.5895 298.494 39.5401 298.533 39.5052C299.301 38.8551 300.427 38.8551 301.196 39.5052C301.235 39.5402 301.257 39.5895 301.258 39.6417Z" fill="black"/>
<path fill-rule="evenodd" clip-rule="evenodd" d="M291.631 34.6457H291.028C290.695 34.6457 290.426 34.9155 290.426 35.2483V40.4708C290.426 40.8036 290.695 41.0733 291.028 41.0733H291.631C291.964 41.0733 292.233 40.8036 292.233 40.4708V35.2483C292.233 34.9155 291.964 34.6457 291.631 34.6457ZM288.216 36.0518H288.819C289.151 36.0518 289.421 36.3215 289.421 36.6543V40.4707C289.421 40.8035 289.151 41.0733 288.819 41.0733H288.216C287.883 41.0733 287.613 40.8035 287.613 40.4707V36.6543C287.613 36.3215 287.883 36.0518 288.216 36.0518ZM286.007 37.4578H285.404C285.071 37.4578 284.801 37.7276 284.801 38.0604V40.4708C284.801 40.8036 285.071 41.0734 285.404 41.0734H286.007C286.339 41.0734 286.609 40.8036 286.609 40.4708V38.0604C286.609 37.7276 286.339 37.4578 286.007 37.4578ZM283.194 38.663H282.592C282.259 38.663 281.989 38.9328 281.989 39.2656V40.4708C281.989 40.8036 282.259 41.0734 282.592 41.0734H283.194C283.527 41.0734 283.797 40.8036 283.797 40.4708V39.2656C283.797 38.9328 283.527 38.663 283.194 38.663Z" fill="black"/>
<g clip-path="url(#clip2_1444_14843)">
<path d="M126.404 40.9925C127.873 40.9925 128.88 40.2334 128.88 39.1256C128.88 38.3047 128.332 37.6603 127.503 37.5058V37.4308C128.187 37.2587 128.619 36.7158 128.619 36.0273C128.619 35.0255 127.701 34.3061 126.408 34.3061C125.115 34.3061 124.192 35.0255 124.192 36.0273C124.192 36.7114 124.634 37.2631 125.313 37.4308V37.5058C124.479 37.678 123.936 38.3223 123.936 39.13C123.936 40.2334 124.943 40.9925 126.404 40.9925ZM126.408 37.0954C125.759 37.0954 125.313 36.707 125.313 36.1332C125.313 35.5595 125.755 35.1623 126.408 35.1623C127.057 35.1623 127.498 35.5595 127.498 36.1332C127.498 36.7026 127.052 37.0954 126.408 37.0954ZM126.408 40.123C125.64 40.123 125.11 39.6773 125.11 39.0373C125.11 38.393 125.64 37.9472 126.408 37.9472C127.172 37.9472 127.701 38.393 127.701 39.0373C127.701 39.6773 127.176 40.123 126.408 40.123ZM130.941 36.7114C131.36 36.7114 131.647 36.4201 131.647 36.0273C131.647 35.6345 131.36 35.3432 130.941 35.3432C130.526 35.3432 130.234 35.6345 130.234 36.0273C130.234 36.4201 130.526 36.7114 130.941 36.7114ZM130.941 39.9509C131.36 39.9509 131.647 39.6552 131.647 39.2668C131.647 38.874 131.36 38.5827 130.941 38.5827C130.526 38.5827 130.234 38.874 130.234 39.2668C130.234 39.6552 130.526 39.9509 130.941 39.9509ZM135.389 40.9925C136.912 40.9925 137.817 39.7611 137.817 37.6515C137.817 35.5374 136.899 34.3061 135.389 34.3061C133.876 34.3061 132.958 35.5374 132.958 37.6427C132.958 39.7567 133.862 40.9925 135.389 40.9925ZM135.389 40.0701C134.582 40.0701 134.11 39.2315 134.11 37.6427C134.11 36.067 134.591 35.2329 135.389 35.2329C136.188 35.2329 136.665 36.0626 136.665 37.6427C136.665 39.2359 136.197 40.0701 135.389 40.0701ZM141.436 40.9925C142.906 40.9925 143.912 40.2334 143.912 39.1256C143.912 38.3047 143.365 37.6603 142.535 37.5058V37.4308C143.219 37.2587 143.652 36.7158 143.652 36.0273C143.652 35.0255 142.733 34.3061 141.44 34.3061C140.147 34.3061 139.225 35.0255 139.225 36.0273C139.225 36.7114 139.666 37.2631 140.346 37.4308V37.5058C139.512 37.678 138.969 38.3223 138.969 39.13C138.969 40.2334 139.975 40.9925 141.436 40.9925ZM141.44 37.0954C140.792 37.0954 140.346 36.707 140.346 36.1332C140.346 35.5595 140.787 35.1623 141.44 35.1623C142.089 35.1623 142.53 35.5595 142.53 36.1332C142.53 36.7026 142.085 37.0954 141.44 37.0954ZM141.44 40.123C140.672 40.123 140.143 39.6773 140.143 39.0373C140.143 38.393 140.672 37.9472 141.44 37.9472C142.204 37.9472 142.733 38.393 142.733 39.0373C142.733 39.6773 142.208 40.123 141.44 40.123Z" fill="black"/>
</g>
<path d="M198.698 64.9042C198.759 66.1329 199.79 66.9144 201.348 66.9144C202.996 66.9144 204.018 66.0953 204.018 64.7771C204.018 63.7461 203.439 63.1718 202.059 62.8563L201.278 62.6775C200.435 62.4797 200.092 62.2114 200.092 61.7453C200.092 61.1569 200.609 60.7708 201.391 60.7708C202.135 60.7708 202.662 61.1521 202.747 61.7594H203.909C203.853 60.5966 202.822 59.7822 201.396 59.7822C199.875 59.7822 198.868 60.6013 198.868 61.8254C198.868 62.8328 199.447 63.4401 200.68 63.7226L201.56 63.925C202.431 64.1274 202.803 64.4287 202.803 64.923C202.803 65.5021 202.224 65.9211 201.424 65.9211C200.562 65.9211 199.96 65.5256 199.884 64.9042H198.698ZM208.617 65.3373C208.448 65.7234 208.048 65.9399 207.469 65.9399C206.701 65.9399 206.207 65.3938 206.179 64.5229V64.4617H209.775V64.0898C209.775 62.475 208.895 61.5005 207.426 61.5005C205.934 61.5005 205.006 62.5409 205.006 64.1933C205.006 65.841 205.92 66.8485 207.436 66.8485C208.65 66.8485 209.512 66.2647 209.724 65.3373H208.617ZM207.421 62.4091C208.123 62.4091 208.584 62.9034 208.608 63.6849H206.183C206.235 62.9128 206.725 62.4091 207.421 62.4091ZM211.319 60.3377V61.6323H210.505V62.5409H211.319V65.3797C211.319 66.373 211.79 66.7685 212.972 66.7685C213.198 66.7685 213.414 66.7496 213.584 66.7167V65.8222C213.443 65.8363 213.353 65.8458 213.188 65.8458C212.699 65.8458 212.482 65.6151 212.482 65.1019V62.5409H213.584V61.6323H212.482V60.3377H211.319ZM215.152 60.3377V61.6323H214.337V62.5409H215.152V65.3797C215.152 66.373 215.622 66.7685 216.804 66.7685C217.03 66.7685 217.246 66.7496 217.416 66.7167V65.8222C217.275 65.8363 217.185 65.8458 217.021 65.8458C216.531 65.8458 216.314 65.6151 216.314 65.1019V62.5409H217.416V61.6323H216.314V60.3377H215.152ZM219.177 60.7379C219.563 60.7379 219.878 60.4319 219.878 60.0458C219.878 59.6645 219.563 59.3538 219.177 59.3538C218.795 59.3538 218.48 59.6645 218.48 60.0458C218.48 60.4319 218.795 60.7379 219.177 60.7379ZM218.598 66.7449H219.76V61.5994H218.598V66.7449ZM221.21 66.7449H222.378V63.7461C222.378 62.974 222.816 62.4891 223.512 62.4891C224.223 62.4891 224.553 62.8893 224.553 63.6896V66.7449H225.72V63.4166C225.72 62.1926 225.094 61.5005 223.946 61.5005C223.178 61.5005 222.66 61.8489 222.416 62.4232H222.336V61.5994H221.21V66.7449ZM229.317 68.7034C230.819 68.7034 231.77 67.9548 231.77 66.7732V61.5994H230.645V62.4232H230.565C230.282 61.863 229.67 61.5146 228.969 61.5146C227.655 61.5146 226.841 62.5409 226.841 64.118C226.841 65.6622 227.651 66.6696 228.95 66.6696C229.665 66.6696 230.226 66.3683 230.522 65.8128H230.602V66.792C230.602 67.4464 230.136 67.8324 229.336 67.8324C228.696 67.8324 228.281 67.6017 228.206 67.2392H227.034C227.128 68.1243 227.994 68.7034 229.317 68.7034ZM229.317 65.7422C228.503 65.7422 228.041 65.1114 228.041 64.1133C228.041 63.12 228.503 62.4891 229.317 62.4891C230.127 62.4891 230.621 63.12 230.621 64.118C230.621 65.1114 230.132 65.7422 229.317 65.7422ZM233.088 63.0682C233.088 63.8403 233.554 64.2922 234.543 64.5182L235.456 64.73C235.946 64.843 236.167 65.0313 236.167 65.3232C236.167 65.7139 235.757 65.9823 235.169 65.9823C234.585 65.9823 234.223 65.7469 234.11 65.3656H232.956C233.046 66.293 233.855 66.8485 235.141 66.8485C236.426 66.8485 237.334 66.1941 237.334 65.2102C237.334 64.4523 236.878 64.0333 235.894 63.8073L234.985 63.6049C234.467 63.4825 234.223 63.2989 234.223 63.007C234.223 62.6257 234.623 62.3667 235.155 62.3667C235.701 62.3667 236.044 62.6021 236.129 62.9646H237.226C237.141 62.0372 236.374 61.5005 235.15 61.5005C233.935 61.5005 233.088 62.1455 233.088 63.0682Z" fill="black"/>
<ellipse cx="215.6" cy="212.395" rx="27.1243" ry="3.60513" fill="#111111"/>
<path d="M188.341 153.028C186.88 155.669 187.48 159.427 188.177 161.699C188.38 162.358 189.001 162.786 189.687 162.726C192.317 162.498 196.508 161.352 198.475 157.955C201.056 153.579 199.984 149.224 198.814 146.948C198.533 146.4 197.927 146.112 197.325 146.238C194.11 146.906 190.295 149.498 188.341 153.028Z" fill="#CCF6EE" stroke="#111111" stroke-width="2"/>
<path d="M247.531 185.099H205.987L210.921 212.91H242.148L247.531 185.099Z" fill="#FFE4C1"/>
<mask id="path-15-inside-1_1444_14843" fill="white">
<rect x="200.493" y="177.888" width="52.1885" height="7.89695" rx="1.71673"/>
</mask>
<rect x="200.493" y="177.888" width="52.1885" height="7.89695" rx="1.71673" fill="#FFE4C1" stroke="#111111" stroke-width="4" mask="url(#path-15-inside-1_1444_14843)"/>
<path d="M205.987 185.387L210.692 212.122C210.837 212.943 211.55 213.541 212.383 213.541H241.219C242.047 213.541 242.756 212.951 242.907 212.138L247.875 185.387" stroke="#111111" stroke-width="2" stroke-linejoin="round"/>
<path d="M217.564 159.28C226.124 165.69 233.024 163.087 236.341 160.058C237.072 159.39 236.872 158.248 236.007 157.766C228.367 153.509 221.424 154.942 217.693 156.868C216.736 157.362 216.702 158.635 217.564 159.28Z" fill="#CCF6EE" stroke="#111111" stroke-width="2" stroke-linejoin="round"/>
<path d="M224.415 157.688C223.877 157.56 223.338 157.893 223.211 158.43C223.083 158.967 223.416 159.506 223.953 159.634L224.415 157.688ZM223.953 159.634C225.256 159.943 227.421 160.305 229.747 160.406C232.053 160.506 234.632 160.355 236.694 159.556L235.971 157.691C234.295 158.341 232.045 158.504 229.834 158.408C227.643 158.313 225.604 157.97 224.415 157.688L223.953 159.634Z" fill="#111111"/>
<path d="M189.928 159.686C189.842 160.232 190.215 160.743 190.761 160.829C191.307 160.914 191.818 160.541 191.904 159.996L189.928 159.686ZM191.904 159.996C192.082 158.858 192.692 156.72 193.809 154.341C194.923 151.966 196.509 149.417 198.601 147.408L197.216 145.965C194.893 148.196 193.179 150.974 191.998 153.491C190.82 156.003 190.141 158.323 189.928 159.686L191.904 159.996Z" fill="#111111"/>
<path d="M247.531 185.044H205.3L205.993 188.134L247.531 186.148V185.044Z" fill="#111111"/>
<path d="M198.09 146.258C202.567 142.132 213.417 136.116 222.028 137.147C232.952 138.456 236.666 148.321 237.183 155.368C237.8 163.792 232.361 173.418 228.572 178.575" stroke="#111111" stroke-width="2"/>
<path d="M195.455 245.888C191.986 245.888 189.811 248.252 189.811 252.034C189.811 255.815 191.986 258.171 195.455 258.171C198.915 258.171 201.09 255.815 201.09 252.034C201.09 248.252 198.915 245.888 195.455 245.888ZM195.455 247.7C197.572 247.7 198.923 249.381 198.923 252.034C198.923 254.678 197.572 256.359 195.455 256.359C193.329 256.359 191.986 254.678 191.986 252.034C191.986 249.381 193.329 247.7 195.455 247.7ZM202.639 257.974H204.69V252.956C204.69 251.671 205.44 250.814 206.676 250.814C207.862 250.814 208.472 251.548 208.472 252.767V257.974H210.523V252.347C210.523 250.345 209.394 249.076 207.467 249.076C206.14 249.076 205.176 249.677 204.707 250.74H204.665V246.085H202.639V257.974ZM215.549 257.974H217.6V252.915C217.6 251.663 218.35 250.814 219.528 250.814C220.698 250.814 221.274 251.506 221.274 252.742V257.974H223.326V252.33C223.326 250.312 222.23 249.076 220.302 249.076C218.959 249.076 218.028 249.702 217.559 250.74H217.518V249.241H215.549V257.974ZM228.837 258.147C231.4 258.147 233.064 256.441 233.064 253.607C233.064 250.781 231.383 249.06 228.837 249.06C226.292 249.06 224.611 250.79 224.611 253.607C224.611 256.441 226.275 258.147 228.837 258.147ZM228.837 256.524C227.536 256.524 226.695 255.469 226.695 253.607C226.695 251.754 227.544 250.691 228.837 250.691C230.139 250.691 230.979 251.754 230.979 253.607C230.979 255.469 230.139 256.524 228.837 256.524ZM235.469 258.064C236.128 258.064 236.647 257.545 236.647 256.878C236.647 256.219 236.128 255.692 235.469 255.692C234.802 255.692 234.283 256.219 234.283 256.878C234.283 257.545 234.802 258.064 235.469 258.064ZM240.017 258.064C240.676 258.064 241.195 257.545 241.195 256.878C241.195 256.219 240.676 255.692 240.017 255.692C239.35 255.692 238.831 256.219 238.831 256.878C238.831 257.545 239.35 258.064 240.017 258.064ZM244.565 258.064C245.224 258.064 245.743 257.545 245.743 256.878C245.743 256.219 245.224 255.692 244.565 255.692C243.897 255.692 243.378 256.219 243.378 256.878C243.378 257.545 243.897 258.064 244.565 258.064Z" fill="black"/>
<path d="M129.531 279.568H129.588L131.151 284.931H131.951L133.801 278.137H132.916L131.565 283.659H131.509L129.988 278.137H129.131L127.611 283.659H127.554L126.203 278.137H125.318L127.168 284.931H127.968L129.531 279.568ZM137.878 283.617C137.666 284.064 137.224 284.304 136.569 284.304C135.708 284.304 135.148 283.669 135.105 282.666V282.628H138.754V282.318C138.754 280.741 137.92 279.766 136.551 279.766C135.157 279.766 134.263 280.802 134.263 282.398C134.263 284.003 135.143 285.02 136.551 285.02C137.662 285.02 138.452 284.483 138.688 283.617H137.878ZM136.541 280.482C137.346 280.482 137.883 281.075 137.902 281.974H135.105C135.166 281.075 135.731 280.482 136.541 280.482ZM149.13 279.856H148.315L147.317 283.914H147.242L146.107 279.856H145.33L144.196 283.914H144.121L143.123 279.856H142.303L143.725 284.931H144.544L145.674 281.004H145.749L146.884 284.931H147.708L149.13 279.856ZM153.385 283.617C153.174 284.064 152.731 284.304 152.077 284.304C151.215 284.304 150.655 283.669 150.613 282.666V282.628H154.261V282.318C154.261 280.741 153.428 279.766 152.058 279.766C150.664 279.766 149.77 280.802 149.77 282.398C149.77 284.003 150.65 285.02 152.058 285.02C153.169 285.02 153.96 284.483 154.195 283.617H153.385ZM152.048 280.482C152.853 280.482 153.39 281.075 153.409 281.974H150.613C150.674 281.075 151.239 280.482 152.048 280.482ZM155.532 284.931H156.342V281.786C156.342 281.07 156.902 280.552 157.674 280.552C157.834 280.552 158.126 280.581 158.192 280.599V279.79C158.088 279.776 157.919 279.766 157.787 279.766C157.114 279.766 156.53 280.115 156.379 280.609H156.304V279.856H155.532V284.931ZM162.424 283.617C162.212 284.064 161.77 284.304 161.115 284.304C160.254 284.304 159.694 283.669 159.651 282.666V282.628H163.3V282.318C163.3 280.741 162.467 279.766 161.097 279.766C159.703 279.766 158.809 280.802 158.809 282.398C158.809 284.003 159.689 285.02 161.097 285.02C162.208 285.02 162.999 284.483 163.234 283.617H162.424ZM161.087 280.482C161.892 280.482 162.429 281.075 162.448 281.974H159.651C159.713 281.075 160.277 280.482 161.087 280.482ZM164.571 284.931H165.381V281.927C165.381 281.037 165.903 280.496 166.713 280.496C167.523 280.496 167.909 280.929 167.909 281.842V284.931H168.718V281.645C168.718 280.439 168.083 279.766 166.944 279.766C166.167 279.766 165.673 280.096 165.418 280.656H165.343V279.856H164.571V284.931ZM170.705 280.675L171.557 278.137H170.639L170.117 280.675H170.705ZM173.337 278.542V279.856H172.518V280.534H173.337V283.612C173.337 284.582 173.756 284.968 174.801 284.968C174.961 284.968 175.116 284.949 175.276 284.921V284.239C175.126 284.253 175.046 284.257 174.9 284.257C174.372 284.257 174.146 284.003 174.146 283.405V280.534H175.276V279.856H174.146V278.542H173.337ZM180.634 285.02C181.312 285.02 181.867 284.723 182.197 284.182H182.272V284.931H183.044V281.456C183.044 280.402 182.352 279.766 181.114 279.766C180.031 279.766 179.231 280.303 179.123 281.117H179.942C180.055 280.717 180.478 280.486 181.086 280.486C181.844 280.486 182.234 280.83 182.234 281.456V281.918L180.77 282.007C179.589 282.078 178.92 282.6 178.92 283.509C178.92 284.436 179.65 285.02 180.634 285.02ZM180.784 284.309C180.196 284.309 179.758 284.008 179.758 283.49C179.758 282.982 180.097 282.713 180.869 282.661L182.234 282.572V283.038C182.234 283.763 181.618 284.309 180.784 284.309ZM187.064 285.02C188.35 285.02 189.192 283.98 189.192 282.393C189.192 280.797 188.354 279.766 187.064 279.766C186.368 279.766 185.751 280.11 185.473 280.656H185.398V277.841H184.588V284.931H185.36V284.121H185.436C185.756 284.686 186.358 285.02 187.064 285.02ZM186.876 280.496C187.804 280.496 188.354 281.207 188.354 282.393C188.354 283.579 187.804 284.29 186.876 284.29C185.953 284.29 185.379 283.565 185.379 282.393C185.379 281.221 185.953 280.496 186.876 280.496ZM190.511 284.931H191.32V277.841H190.511V284.931ZM196.254 283.617C196.042 284.064 195.6 284.304 194.945 284.304C194.084 284.304 193.523 283.669 193.481 282.666V282.628H197.13V282.318C197.13 280.741 196.296 279.766 194.926 279.766C193.533 279.766 192.638 280.802 192.638 282.398C192.638 284.003 193.519 285.02 194.926 285.02C196.037 285.02 196.828 284.483 197.064 283.617H196.254ZM194.917 280.482C195.722 280.482 196.259 281.075 196.277 281.974H193.481C193.542 281.075 194.107 280.482 194.917 280.482ZM201.461 278.542V279.856H200.642V280.534H201.461V283.612C201.461 284.582 201.88 284.968 202.925 284.968C203.085 284.968 203.24 284.949 203.4 284.921V284.239C203.25 284.253 203.17 284.257 203.024 284.257C202.496 284.257 202.27 284.003 202.27 283.405V280.534H203.4V279.856H202.27V278.542H201.461ZM206.635 285.02C208.08 285.02 208.974 284.022 208.974 282.393C208.974 280.76 208.08 279.766 206.635 279.766C205.189 279.766 204.295 280.76 204.295 282.393C204.295 284.022 205.189 285.02 206.635 285.02ZM206.635 284.29C205.674 284.29 205.133 283.594 205.133 282.393C205.133 281.188 205.674 280.496 206.635 280.496C207.595 280.496 208.136 281.188 208.136 282.393C208.136 283.594 207.595 284.29 206.635 284.29ZM215.438 279.766C214.746 279.766 214.139 280.119 213.814 280.703H213.738V279.856H212.966V286.625H213.776V284.168H213.851C214.129 284.705 214.713 285.02 215.438 285.02C216.728 285.02 217.571 283.98 217.571 282.393C217.571 280.797 216.733 279.766 215.438 279.766ZM215.245 284.29C214.332 284.29 213.753 283.556 213.753 282.393C213.753 281.226 214.332 280.496 215.25 280.496C216.177 280.496 216.733 281.207 216.733 282.393C216.733 283.579 216.177 284.29 215.245 284.29ZM218.842 284.931H219.651V281.786C219.651 281.07 220.212 280.552 220.984 280.552C221.144 280.552 221.436 280.581 221.502 280.599V279.79C221.398 279.776 221.228 279.766 221.097 279.766C220.423 279.766 219.84 280.115 219.689 280.609H219.614V279.856H218.842V284.931ZM224.458 285.02C225.903 285.02 226.798 284.022 226.798 282.393C226.798 280.76 225.903 279.766 224.458 279.766C223.013 279.766 222.118 280.76 222.118 282.393C222.118 284.022 223.013 285.02 224.458 285.02ZM224.458 284.29C223.498 284.29 222.956 283.594 222.956 282.393C222.956 281.188 223.498 280.496 224.458 280.496C225.418 280.496 225.96 281.188 225.96 282.393C225.96 283.594 225.418 284.29 224.458 284.29ZM232.268 281.409C232.127 280.505 231.374 279.766 230.14 279.766C228.718 279.766 227.815 280.792 227.815 282.374C227.815 283.989 228.723 285.02 230.145 285.02C231.364 285.02 232.122 284.333 232.268 283.401H231.449C231.298 283.975 230.823 284.29 230.14 284.29C229.236 284.29 228.653 283.546 228.653 282.374C228.653 281.226 229.227 280.496 230.14 280.496C230.87 280.496 231.317 280.905 231.449 281.409H232.268ZM236.825 283.617C236.613 284.064 236.171 284.304 235.516 284.304C234.655 284.304 234.095 283.669 234.052 282.666V282.628H237.701V282.318C237.701 280.741 236.868 279.766 235.498 279.766C234.104 279.766 233.21 280.802 233.21 282.398C233.21 284.003 234.09 285.02 235.498 285.02C236.609 285.02 237.4 284.483 237.635 283.617H236.825ZM235.488 280.482C236.293 280.482 236.83 281.075 236.849 281.974H234.052C234.114 281.075 234.678 280.482 235.488 280.482ZM238.854 281.244C238.854 281.979 239.287 282.388 240.238 282.619L241.109 282.831C241.651 282.963 241.914 283.198 241.914 283.546C241.914 284.013 241.425 284.337 240.742 284.337C240.092 284.337 239.687 284.064 239.551 283.636H238.718C238.807 284.479 239.584 285.02 240.714 285.02C241.867 285.02 242.748 284.394 242.748 283.485C242.748 282.756 242.286 282.341 241.33 282.111L240.549 281.922C239.951 281.776 239.669 281.56 239.669 281.211C239.669 280.76 240.139 280.454 240.742 280.454C241.354 280.454 241.749 280.722 241.858 281.127H242.658C242.55 280.293 241.811 279.766 240.747 279.766C239.669 279.766 238.854 280.402 238.854 281.244ZM243.807 281.244C243.807 281.979 244.24 282.388 245.191 282.619L246.062 282.831C246.603 282.963 246.867 283.198 246.867 283.546C246.867 284.013 246.377 284.337 245.695 284.337C245.045 284.337 244.64 284.064 244.503 283.636H243.67C243.76 284.479 244.536 285.02 245.666 285.02C246.82 285.02 247.7 284.394 247.7 283.485C247.7 282.756 247.239 282.341 246.283 282.111L245.502 281.922C244.904 281.776 244.621 281.56 244.621 281.211C244.621 280.76 245.092 280.454 245.695 280.454C246.307 280.454 246.702 280.722 246.81 281.127H247.611C247.502 280.293 246.763 279.766 245.699 279.766C244.621 279.766 243.807 280.402 243.807 281.244ZM252.125 286.767C253.024 286.767 253.429 286.418 253.862 285.241L255.844 279.856H254.983L253.594 284.031H253.519L252.125 279.856H251.25L253.128 284.935L253.034 285.237C252.822 285.849 252.568 286.07 252.102 286.07C251.989 286.07 251.862 286.065 251.763 286.046V286.738C251.876 286.757 252.017 286.767 252.125 286.767ZM258.824 285.02C260.27 285.02 261.164 284.022 261.164 282.393C261.164 280.76 260.27 279.766 258.824 279.766C257.379 279.766 256.485 280.76 256.485 282.393C256.485 284.022 257.379 285.02 258.824 285.02ZM258.824 284.29C257.864 284.29 257.323 283.594 257.323 282.393C257.323 281.188 257.864 280.496 258.824 280.496C259.785 280.496 260.326 281.188 260.326 282.393C260.326 283.594 259.785 284.29 258.824 284.29ZM266.54 279.856H265.731V282.859C265.731 283.749 265.241 284.281 264.347 284.281C263.537 284.281 263.198 283.857 263.198 282.944V279.856H262.388V283.142C262.388 284.342 262.981 285.02 264.121 285.02C264.897 285.02 265.439 284.7 265.693 284.135H265.768V284.931H266.54V279.856ZM268.066 284.931H268.875V281.786C268.875 281.07 269.436 280.552 270.208 280.552C270.368 280.552 270.66 280.581 270.726 280.599V279.79C270.622 279.776 270.453 279.766 270.321 279.766C269.647 279.766 269.064 280.115 268.913 280.609H268.838V279.856H268.066V284.931ZM274.459 284.931H275.269V281.786C275.269 281.07 275.829 280.552 276.601 280.552C276.761 280.552 277.053 280.581 277.119 280.599V279.79C277.015 279.776 276.846 279.766 276.714 279.766C276.041 279.766 275.457 280.115 275.306 280.609H275.231V279.856H274.459V284.931ZM281.351 283.617C281.139 284.064 280.697 284.304 280.042 284.304C279.181 284.304 278.62 283.669 278.578 282.666V282.628H282.227V282.318C282.227 280.741 281.393 279.766 280.023 279.766C278.63 279.766 277.735 280.802 277.735 282.398C277.735 284.003 278.616 285.02 280.023 285.02C281.134 285.02 281.925 284.483 282.161 283.617H281.351ZM280.014 280.482C280.819 280.482 281.356 281.075 281.374 281.974H278.578C278.639 281.075 279.204 280.482 280.014 280.482ZM285.367 279.766C284.081 279.766 283.243 280.802 283.243 282.393C283.243 283.994 284.072 285.02 285.367 285.02C286.082 285.02 286.628 284.723 286.953 284.168H287.028V286.625H287.848V279.856H287.066V280.703H286.991C286.689 280.133 286.059 279.766 285.367 279.766ZM285.55 284.29C284.627 284.29 284.081 283.584 284.081 282.393C284.081 281.207 284.632 280.496 285.555 280.496C286.473 280.496 287.052 281.23 287.052 282.393C287.052 283.561 286.478 284.29 285.55 284.29ZM293.478 279.856H292.668V282.859C292.668 283.749 292.179 284.281 291.284 284.281C290.474 284.281 290.136 283.857 290.136 282.944V279.856H289.326V283.142C289.326 284.342 289.919 285.02 291.058 285.02C291.835 285.02 292.376 284.7 292.631 284.135H292.706V284.931H293.478V279.856ZM298.365 283.617C298.153 284.064 297.71 284.304 297.056 284.304C296.194 284.304 295.634 283.669 295.592 282.666V282.628H299.24V282.318C299.24 280.741 298.407 279.766 297.037 279.766C295.644 279.766 294.749 280.802 294.749 282.398C294.749 284.003 295.629 285.02 297.037 285.02C298.148 285.02 298.939 284.483 299.174 283.617H298.365ZM297.028 280.482C297.833 280.482 298.369 281.075 298.388 281.974H295.592C295.653 281.075 296.218 280.482 297.028 280.482ZM300.394 281.244C300.394 281.979 300.827 282.388 301.778 282.619L302.649 282.831C303.19 282.963 303.454 283.198 303.454 283.546C303.454 284.013 302.964 284.337 302.281 284.337C301.632 284.337 301.227 284.064 301.09 283.636H300.257C300.347 284.479 301.123 285.02 302.253 285.02C303.407 285.02 304.287 284.394 304.287 283.485C304.287 282.756 303.826 282.341 302.87 282.111L302.088 281.922C301.491 281.776 301.208 281.56 301.208 281.211C301.208 280.76 301.679 280.454 302.281 280.454C302.893 280.454 303.289 280.722 303.397 281.127H304.198C304.089 280.293 303.35 279.766 302.286 279.766C301.208 279.766 300.394 280.402 300.394 281.244ZM305.85 278.542V279.856H305.031V280.534H305.85V283.612C305.85 284.582 306.269 284.968 307.314 284.968C307.474 284.968 307.629 284.949 307.79 284.921V284.239C307.639 284.253 307.559 284.257 307.413 284.257C306.886 284.257 306.66 284.003 306.66 283.405V280.534H307.79V279.856H306.66V278.542H305.85ZM309.682 284.978C310.021 284.978 310.294 284.7 310.294 284.366C310.294 284.027 310.021 283.754 309.682 283.754C309.348 283.754 309.07 284.027 309.07 284.366C309.07 284.7 309.348 284.978 309.682 284.978ZM123.331 290.137V296.931H124.179V294.506H125.888C127.163 294.506 128.072 293.607 128.072 292.336C128.072 291.041 127.182 290.137 125.897 290.137H123.331ZM124.179 290.891H125.676C126.66 290.891 127.201 291.404 127.201 292.336C127.201 293.235 126.641 293.753 125.676 293.753H124.179V290.891ZM129.404 296.931H130.214V289.841H129.404V296.931ZM135.148 295.617C134.936 296.064 134.493 296.304 133.839 296.304C132.977 296.304 132.417 295.669 132.375 294.666V294.628H136.023V294.318C136.023 292.741 135.19 291.766 133.82 291.766C132.427 291.766 131.532 292.802 131.532 294.398C131.532 296.003 132.412 297.02 133.82 297.02C134.931 297.02 135.722 296.483 135.957 295.617H135.148ZM133.811 292.482C134.616 292.482 135.152 293.075 135.171 293.974H132.375C132.436 293.075 133.001 292.482 133.811 292.482ZM138.707 297.02C139.385 297.02 139.94 296.723 140.27 296.182H140.345V296.931H141.117V293.456C141.117 292.402 140.425 291.766 139.187 291.766C138.104 291.766 137.304 292.303 137.195 293.117H138.015C138.128 292.717 138.551 292.486 139.159 292.486C139.917 292.486 140.307 292.83 140.307 293.456V293.918L138.843 294.007C137.662 294.078 136.993 294.6 136.993 295.509C136.993 296.436 137.723 297.02 138.707 297.02ZM138.857 296.309C138.269 296.309 137.831 296.008 137.831 295.49C137.831 294.982 138.17 294.713 138.942 294.661L140.307 294.572V295.038C140.307 295.763 139.691 296.309 138.857 296.309ZM142.496 293.244C142.496 293.979 142.929 294.388 143.88 294.619L144.751 294.831C145.293 294.963 145.556 295.198 145.556 295.546C145.556 296.013 145.067 296.337 144.384 296.337C143.735 296.337 143.33 296.064 143.193 295.636H142.36C142.449 296.479 143.226 297.02 144.356 297.02C145.509 297.02 146.39 296.394 146.39 295.485C146.39 294.756 145.928 294.341 144.973 294.111L144.191 293.922C143.593 293.776 143.311 293.56 143.311 293.211C143.311 292.76 143.782 292.454 144.384 292.454C144.996 292.454 145.392 292.722 145.5 293.127H146.3C146.192 292.293 145.453 291.766 144.389 291.766C143.311 291.766 142.496 292.402 142.496 293.244ZM151.022 295.617C150.81 296.064 150.368 296.304 149.713 296.304C148.852 296.304 148.292 295.669 148.249 294.666V294.628H151.898V294.318C151.898 292.741 151.064 291.766 149.694 291.766C148.301 291.766 147.407 292.802 147.407 294.398C147.407 296.003 148.287 297.02 149.694 297.02C150.806 297.02 151.596 296.483 151.832 295.617H151.022ZM149.685 292.482C150.49 292.482 151.027 293.075 151.046 293.974H148.249C148.31 293.075 148.875 292.482 149.685 292.482ZM155.89 296.931H156.7V293.786C156.7 293.07 157.26 292.552 158.032 292.552C158.192 292.552 158.484 292.581 158.55 292.599V291.79C158.446 291.776 158.277 291.766 158.145 291.766C157.472 291.766 156.888 292.115 156.737 292.609H156.662V291.856H155.89V296.931ZM162.782 295.617C162.57 296.064 162.128 296.304 161.473 296.304C160.612 296.304 160.052 295.669 160.009 294.666V294.628H163.658V294.318C163.658 292.741 162.824 291.766 161.454 291.766C160.061 291.766 159.166 292.802 159.166 294.398C159.166 296.003 160.047 297.02 161.454 297.02C162.565 297.02 163.356 296.483 163.592 295.617H162.782ZM161.445 292.482C162.25 292.482 162.787 293.075 162.806 293.974H160.009C160.07 293.075 160.635 292.482 161.445 292.482ZM165.268 290.542V291.856H164.449V292.534H165.268V295.612C165.268 296.582 165.687 296.968 166.732 296.968C166.892 296.968 167.047 296.949 167.207 296.921V296.239C167.057 296.253 166.977 296.257 166.831 296.257C166.303 296.257 166.077 296.003 166.077 295.405V292.534H167.207V291.856H166.077V290.542H165.268ZM172.536 291.856H171.727V294.859C171.727 295.749 171.237 296.281 170.343 296.281C169.533 296.281 169.194 295.857 169.194 294.944V291.856H168.384V295.142C168.384 296.342 168.977 297.02 170.117 297.02C170.893 297.02 171.435 296.7 171.689 296.135H171.764V296.931H172.536V291.856ZM174.062 296.931H174.871V293.786C174.871 293.07 175.432 292.552 176.204 292.552C176.364 292.552 176.656 292.581 176.722 292.599V291.79C176.618 291.776 176.449 291.766 176.317 291.766C175.644 291.766 175.06 292.115 174.909 292.609H174.834V291.856H174.062V296.931ZM177.828 296.931H178.638V293.927C178.638 293.037 179.16 292.496 179.97 292.496C180.78 292.496 181.166 292.929 181.166 293.842V296.931H181.975V293.645C181.975 292.439 181.34 291.766 180.201 291.766C179.424 291.766 178.93 292.096 178.675 292.656H178.6V291.856H177.828V296.931ZM186.518 290.542V291.856H185.699V292.534H186.518V295.612C186.518 296.582 186.937 296.968 187.982 296.968C188.143 296.968 188.298 296.949 188.458 296.921V296.239C188.307 296.253 188.227 296.257 188.081 296.257C187.554 296.257 187.328 296.003 187.328 295.405V292.534H188.458V291.856H187.328V290.542H186.518ZM191.692 297.02C193.137 297.02 194.032 296.022 194.032 294.393C194.032 292.76 193.137 291.766 191.692 291.766C190.247 291.766 189.352 292.76 189.352 294.393C189.352 296.022 190.247 297.02 191.692 297.02ZM191.692 296.29C190.732 296.29 190.19 295.594 190.19 294.393C190.19 293.188 190.732 292.496 191.692 292.496C192.653 292.496 193.194 293.188 193.194 294.393C193.194 295.594 192.653 296.29 191.692 296.29ZM198.457 298.767C199.356 298.767 199.761 298.418 200.194 297.241L202.176 291.856H201.315L199.926 296.031H199.851L198.457 291.856H197.582L199.46 296.935L199.366 297.237C199.154 297.849 198.9 298.07 198.434 298.07C198.321 298.07 198.194 298.065 198.095 298.046V298.738C198.208 298.757 198.349 298.767 198.457 298.767ZM205.156 297.02C206.602 297.02 207.496 296.022 207.496 294.393C207.496 292.76 206.602 291.766 205.156 291.766C203.711 291.766 202.817 292.76 202.817 294.393C202.817 296.022 203.711 297.02 205.156 297.02ZM205.156 296.29C204.196 296.29 203.655 295.594 203.655 294.393C203.655 293.188 204.196 292.496 205.156 292.496C206.117 292.496 206.658 293.188 206.658 294.393C206.658 295.594 206.117 296.29 205.156 296.29ZM212.872 291.856H212.063V294.859C212.063 295.749 211.573 296.281 210.678 296.281C209.869 296.281 209.53 295.857 209.53 294.944V291.856H208.72V295.142C208.72 296.342 209.313 297.02 210.452 297.02C211.229 297.02 211.771 296.7 212.025 296.135H212.1V296.931H212.872V291.856ZM214.398 296.931H215.207V293.786C215.207 293.07 215.767 292.552 216.54 292.552C216.7 292.552 216.992 292.581 217.057 292.599V291.79C216.954 291.776 216.784 291.766 216.653 291.766C215.979 291.766 215.396 292.115 215.245 292.609H215.17V291.856H214.398V296.931ZM220.673 293.244C220.673 293.979 221.106 294.388 222.057 294.619L222.928 294.831C223.469 294.963 223.733 295.198 223.733 295.546C223.733 296.013 223.243 296.337 222.561 296.337C221.911 296.337 221.506 296.064 221.37 295.636H220.536C220.626 296.479 221.403 297.02 222.533 297.02C223.686 297.02 224.566 296.394 224.566 295.485C224.566 294.756 224.105 294.341 223.149 294.111L222.368 293.922C221.77 293.776 221.487 293.56 221.487 293.211C221.487 292.76 221.958 292.454 222.561 292.454C223.173 292.454 223.568 292.722 223.676 293.127H224.477C224.369 292.293 223.629 291.766 222.565 291.766C221.487 291.766 220.673 292.402 220.673 293.244ZM229.199 295.617C228.987 296.064 228.544 296.304 227.89 296.304C227.028 296.304 226.468 295.669 226.426 294.666V294.628H230.074V294.318C230.074 292.741 229.241 291.766 227.871 291.766C226.478 291.766 225.583 292.802 225.583 294.398C225.583 296.003 226.463 297.02 227.871 297.02C228.982 297.02 229.773 296.483 230.008 295.617H229.199ZM227.862 292.482C228.667 292.482 229.203 293.075 229.222 293.974H226.426C226.487 293.075 227.052 292.482 227.862 292.482ZM231.684 290.542V291.856H230.865V292.534H231.684V295.612C231.684 296.582 232.103 296.968 233.148 296.968C233.309 296.968 233.464 296.949 233.624 296.921V296.239C233.473 296.253 233.393 296.257 233.247 296.257C232.72 296.257 232.494 296.003 232.494 295.405V292.534H233.624V291.856H232.494V290.542H231.684ZM235.187 290.542V291.856H234.368V292.534H235.187V295.612C235.187 296.582 235.606 296.968 236.651 296.968C236.811 296.968 236.966 296.949 237.126 296.921V296.239C236.976 296.253 236.896 296.257 236.75 296.257C236.223 296.257 235.997 296.003 235.997 295.405V292.534H237.126V291.856H235.997V290.542H235.187ZM238.774 290.876C239.085 290.876 239.339 290.622 239.339 290.312C239.339 290.001 239.085 289.747 238.774 289.747C238.463 289.747 238.209 290.001 238.209 290.312C238.209 290.622 238.463 290.876 238.774 290.876ZM238.369 296.931H239.179V291.856H238.369V296.931ZM240.723 296.931H241.533V293.927C241.533 293.037 242.055 292.496 242.865 292.496C243.675 292.496 244.061 292.929 244.061 293.842V296.931H244.871V293.645C244.871 292.439 244.235 291.766 243.096 291.766C242.319 291.766 241.825 292.096 241.571 292.656H241.495V291.856H240.723V296.931ZM248.444 298.88C249.828 298.88 250.704 298.155 250.704 297.02V291.856H249.932V292.661H249.856C249.564 292.115 248.938 291.766 248.227 291.766C246.923 291.766 246.099 292.797 246.099 294.318C246.099 295.838 246.914 296.855 248.227 296.855C248.924 296.855 249.498 296.54 249.819 295.98H249.894V296.978C249.894 297.726 249.352 298.173 248.444 298.173C247.714 298.173 247.262 297.905 247.173 297.491H246.316C246.438 298.329 247.22 298.88 248.444 298.88ZM248.406 296.14C247.465 296.14 246.937 295.424 246.937 294.318C246.937 293.211 247.465 292.496 248.406 292.496C249.343 292.496 249.913 293.211 249.913 294.318C249.913 295.424 249.348 296.14 248.406 296.14ZM252.111 293.244C252.111 293.979 252.544 294.388 253.495 294.619L254.366 294.831C254.908 294.963 255.171 295.198 255.171 295.546C255.171 296.013 254.682 296.337 253.999 296.337C253.349 296.337 252.944 296.064 252.808 295.636H251.975C252.064 296.479 252.841 297.02 253.971 297.02C255.124 297.02 256.004 296.394 256.004 295.485C256.004 294.756 255.543 294.341 254.587 294.111L253.806 293.922C253.208 293.776 252.926 293.56 252.926 293.211C252.926 292.76 253.396 292.454 253.999 292.454C254.611 292.454 255.006 292.722 255.115 293.127H255.915C255.807 292.293 255.068 291.766 254.004 291.766C252.926 291.766 252.111 292.402 252.111 293.244ZM262.468 291.766C261.776 291.766 261.169 292.119 260.844 292.703H260.769V291.856H259.997V298.625H260.806V296.168H260.882C261.159 296.705 261.743 297.02 262.468 297.02C263.758 297.02 264.601 295.98 264.601 294.393C264.601 292.797 263.763 291.766 262.468 291.766ZM262.275 296.29C261.362 296.29 260.783 295.556 260.783 294.393C260.783 293.226 261.362 292.496 262.28 292.496C263.207 292.496 263.763 293.207 263.763 294.393C263.763 295.579 263.207 296.29 262.275 296.29ZM267.284 297.02C267.962 297.02 268.518 296.723 268.847 296.182H268.922V296.931H269.695V293.456C269.695 292.402 269.003 291.766 267.764 291.766C266.682 291.766 265.881 292.303 265.773 293.117H266.592C266.705 292.717 267.129 292.486 267.736 292.486C268.494 292.486 268.885 292.83 268.885 293.456V293.918L267.421 294.007C266.239 294.078 265.571 294.6 265.571 295.509C265.571 296.436 266.3 297.02 267.284 297.02ZM267.435 296.309C266.846 296.309 266.409 296.008 266.409 295.49C266.409 294.982 266.748 294.713 267.52 294.661L268.885 294.572V295.038C268.885 295.763 268.268 296.309 267.435 296.309ZM273.282 298.88C274.666 298.88 275.542 298.155 275.542 297.02V291.856H274.769V292.661H274.694C274.402 292.115 273.776 291.766 273.065 291.766C271.761 291.766 270.937 292.797 270.937 294.318C270.937 295.838 271.752 296.855 273.065 296.855C273.762 296.855 274.336 296.54 274.656 295.98H274.732V296.978C274.732 297.726 274.19 298.173 273.282 298.173C272.552 298.173 272.1 297.905 272.011 297.491H271.154C271.276 298.329 272.058 298.88 273.282 298.88ZM273.244 296.14C272.303 296.14 271.775 295.424 271.775 294.318C271.775 293.211 272.303 292.496 273.244 292.496C274.181 292.496 274.751 293.211 274.751 294.318C274.751 295.424 274.186 296.14 273.244 296.14ZM280.428 295.617C280.216 296.064 279.774 296.304 279.119 296.304C278.258 296.304 277.698 295.669 277.655 294.666V294.628H281.304V294.318C281.304 292.741 280.471 291.766 279.101 291.766C277.707 291.766 276.813 292.802 276.813 294.398C276.813 296.003 277.693 297.02 279.101 297.02C280.212 297.02 281.003 296.483 281.238 295.617H280.428ZM279.091 292.482C279.896 292.482 280.433 293.075 280.452 293.974H277.655C277.717 293.075 278.281 292.482 279.091 292.482ZM285.635 290.542V291.856H284.816V292.534H285.635V295.612C285.635 296.582 286.054 296.968 287.099 296.968C287.259 296.968 287.414 296.949 287.575 296.921V296.239C287.424 296.253 287.344 296.257 287.198 296.257C286.671 296.257 286.445 296.003 286.445 295.405V292.534H287.575V291.856H286.445V290.542H285.635ZM290.809 297.02C292.254 297.02 293.148 296.022 293.148 294.393C293.148 292.76 292.254 291.766 290.809 291.766C289.363 291.766 288.469 292.76 288.469 294.393C288.469 296.022 289.363 297.02 290.809 297.02ZM290.809 296.29C289.848 296.29 289.307 295.594 289.307 294.393C289.307 293.188 289.848 292.496 290.809 292.496C291.769 292.496 292.31 293.188 292.31 294.393C292.31 295.594 291.769 296.29 290.809 296.29ZM298.553 297.02C299.231 297.02 299.786 296.723 300.116 296.182H300.191V296.931H300.963V293.456C300.963 292.402 300.271 291.766 299.033 291.766C297.95 291.766 297.15 292.303 297.042 293.117H297.861C297.974 292.717 298.398 292.486 299.005 292.486C299.763 292.486 300.154 292.83 300.154 293.456V293.918L298.689 294.007C297.508 294.078 296.839 294.6 296.839 295.509C296.839 296.436 297.569 297.02 298.553 297.02ZM298.704 296.309C298.115 296.309 297.677 296.008 297.677 295.49C297.677 294.982 298.016 294.713 298.788 294.661L300.154 294.572V295.038C300.154 295.763 299.537 296.309 298.704 296.309ZM304.339 297.02C305.04 297.02 305.643 296.686 305.963 296.121H306.038V296.931H306.81V289.841H306.001V292.656H305.93C305.643 292.1 305.045 291.766 304.339 291.766C303.049 291.766 302.206 292.802 302.206 294.393C302.206 295.989 303.039 297.02 304.339 297.02ZM304.527 292.496C305.445 292.496 306.019 293.23 306.019 294.393C306.019 295.565 305.45 296.29 304.527 296.29C303.6 296.29 303.044 295.579 303.044 294.393C303.044 293.211 303.604 292.496 304.527 292.496ZM310.261 297.02C310.963 297.02 311.565 296.686 311.885 296.121H311.961V296.931H312.733V289.841H311.923V292.656H311.852C311.565 292.1 310.967 291.766 310.261 291.766C308.971 291.766 308.128 292.802 308.128 294.393C308.128 295.989 308.962 297.02 310.261 297.02ZM310.449 292.496C311.367 292.496 311.942 293.23 311.942 294.393C311.942 295.565 311.372 296.29 310.449 296.29C309.522 296.29 308.966 295.579 308.966 294.393C308.966 293.211 309.527 292.496 310.449 292.496ZM182.079 309.02C182.757 309.02 183.312 308.723 183.642 308.182H183.717V308.931H184.489V305.456C184.489 304.402 183.797 303.766 182.559 303.766C181.476 303.766 180.676 304.303 180.568 305.117H181.387C181.5 304.717 181.924 304.486 182.531 304.486C183.289 304.486 183.68 304.83 183.68 305.456V305.918L182.215 306.007C181.034 306.078 180.365 306.6 180.365 307.509C180.365 308.436 181.095 309.02 182.079 309.02ZM182.23 308.309C181.641 308.309 181.203 308.008 181.203 307.49C181.203 306.982 181.542 306.713 182.314 306.661L183.68 306.572V307.038C183.68 307.763 183.063 308.309 182.23 308.309ZM191.179 303.766C190.487 303.766 189.88 304.119 189.555 304.703H189.48V303.856H188.707V310.625H189.517V308.168H189.593C189.87 308.705 190.454 309.02 191.179 309.02C192.469 309.02 193.312 307.98 193.312 306.393C193.312 304.797 192.474 303.766 191.179 303.766ZM190.986 308.29C190.073 308.29 189.494 307.556 189.494 306.393C189.494 305.226 190.073 304.496 190.991 304.496C191.918 304.496 192.474 305.207 192.474 306.393C192.474 307.579 191.918 308.29 190.986 308.29ZM194.63 308.931H195.44V305.927C195.44 305.07 195.939 304.496 196.847 304.496C197.614 304.496 198.019 304.943 198.019 305.842V308.931H198.829V305.645C198.829 304.454 198.151 303.766 197.078 303.766C196.301 303.766 195.769 304.096 195.515 304.656H195.44V301.841H194.63V308.931ZM202.393 309.02C203.838 309.02 204.733 308.022 204.733 306.393C204.733 304.76 203.838 303.766 202.393 303.766C200.948 303.766 200.053 304.76 200.053 306.393C200.053 308.022 200.948 309.02 202.393 309.02ZM202.393 308.29C201.432 308.29 200.891 307.594 200.891 306.393C200.891 305.188 201.432 304.496 202.393 304.496C203.353 304.496 203.895 305.188 203.895 306.393C203.895 307.594 203.353 308.29 202.393 308.29ZM206.004 308.931H206.813V305.927C206.813 305.037 207.336 304.496 208.146 304.496C208.955 304.496 209.341 304.929 209.341 305.842V308.931H210.151V305.645C210.151 304.439 209.516 303.766 208.376 303.766C207.6 303.766 207.105 304.096 206.851 304.656H206.776V303.856H206.004V308.931ZM214.995 307.617C214.784 308.064 214.341 308.304 213.687 308.304C212.825 308.304 212.265 307.669 212.223 306.666V306.628H215.871V306.318C215.871 304.741 215.038 303.766 213.668 303.766C212.274 303.766 211.38 304.802 211.38 306.398C211.38 308.003 212.26 309.02 213.668 309.02C214.779 309.02 215.57 308.483 215.805 307.617H214.995ZM213.658 304.482C214.463 304.482 215 305.075 215.019 305.974H212.223C212.284 305.075 212.849 304.482 213.658 304.482ZM219.863 308.931H220.673V305.927C220.673 305.037 221.196 304.496 222.005 304.496C222.815 304.496 223.201 304.929 223.201 305.842V308.931H224.011V305.645C224.011 304.439 223.375 303.766 222.236 303.766C221.459 303.766 220.965 304.096 220.711 304.656H220.635V303.856H219.863V308.931ZM229.599 303.856H228.789V306.859C228.789 307.749 228.299 308.281 227.405 308.281C226.595 308.281 226.256 307.857 226.256 306.944V303.856H225.447V307.142C225.447 308.342 226.04 309.02 227.179 309.02C227.956 309.02 228.497 308.7 228.751 308.135H228.827V308.931H229.599V303.856ZM231.124 308.931H231.934V305.786C231.934 305.07 232.447 304.496 233.111 304.496C233.751 304.496 234.17 304.882 234.17 305.485V308.931H234.98V305.668C234.98 305.023 235.451 304.496 236.157 304.496C236.872 304.496 237.225 304.863 237.225 305.612V308.931H238.035V305.423C238.035 304.359 237.456 303.766 236.42 303.766C235.719 303.766 235.14 304.119 234.867 304.656H234.791C234.556 304.129 234.076 303.766 233.389 303.766C232.711 303.766 232.202 304.091 231.972 304.656H231.896V303.856H231.124V308.931ZM242.037 309.02C243.322 309.02 244.165 307.98 244.165 306.393C244.165 304.797 243.327 303.766 242.037 303.766C241.34 303.766 240.723 304.11 240.445 304.656H240.37V301.841H239.56V308.931H240.332V308.121H240.408C240.728 308.686 241.33 309.02 242.037 309.02ZM241.848 304.496C242.776 304.496 243.327 305.207 243.327 306.393C243.327 307.579 242.776 308.29 241.848 308.29C240.926 308.29 240.351 307.565 240.351 306.393C240.351 305.221 240.926 304.496 241.848 304.496ZM248.797 307.617C248.585 308.064 248.143 308.304 247.488 308.304C246.627 308.304 246.066 307.669 246.024 306.666V306.628H249.673V306.318C249.673 304.741 248.839 303.766 247.469 303.766C246.076 303.766 245.181 304.802 245.181 306.398C245.181 308.003 246.062 309.02 247.469 309.02C248.58 309.02 249.371 308.483 249.607 307.617H248.797ZM247.46 304.482C248.265 304.482 248.802 305.075 248.82 305.974H246.024C246.085 305.075 246.65 304.482 247.46 304.482ZM250.944 308.931H251.753V305.786C251.753 305.07 252.314 304.552 253.086 304.552C253.246 304.552 253.538 304.581 253.604 304.599V303.79C253.5 303.776 253.33 303.766 253.199 303.766C252.525 303.766 251.942 304.115 251.791 304.609H251.716V303.856H250.944V308.931ZM254.672 308.978C255.011 308.978 255.284 308.7 255.284 308.366C255.284 308.027 255.011 307.754 254.672 307.754C254.338 307.754 254.06 308.027 254.06 308.366C254.06 308.7 254.338 308.978 254.672 308.978Z" fill="black"/>
</g>
<rect x="106.421" y="25.4213" width="223.128" height="486.46" rx="20.2719" stroke="black" stroke-width="2.84267"/>
</g>
<defs>
<clipPath id="clip0_1444_14843">
<rect width="437" height="320" fill="white"/>
</clipPath>
<clipPath id="clip1_1444_14843">
<rect x="105" y="24" width="225.971" height="489.303" rx="21.6932" fill="white"/>
</clipPath>
<clipPath id="clip2_1444_14843">
<rect width="32.5398" height="10.8466" fill="white" transform="translate(117.654 31.8336)"/>
</clipPath>
</defs>
</svg>
