<svg width="280" height="320" viewBox="0 0 280 320" fill="none" xmlns="http://www.w3.org/2000/svg">
<path d="M192.86 184.48C192.86 186.782 191.479 189.091 188.717 191.298C185.962 193.498 181.929 195.513 176.878 197.219C166.785 200.628 152.794 202.75 137.305 202.75C121.816 202.75 107.824 200.628 97.7313 197.219C92.681 195.513 88.648 193.498 85.8927 191.298C83.1301 189.091 81.75 186.782 81.75 184.48C81.75 182.178 83.1301 179.869 85.8927 177.663C88.648 175.463 92.681 173.448 97.7313 171.742C107.824 168.332 121.816 166.211 137.305 166.211C152.794 166.211 166.785 168.332 176.878 171.742C181.929 173.448 185.962 175.463 188.717 177.663C191.479 179.869 192.86 182.178 192.86 184.48Z" fill="white" stroke="#111111" stroke-width="1.5"/>
<path d="M84.5539 178.763C83.4533 177.232 97.7187 171.811 102.238 170.457C109.347 178.883 127.101 190.175 152.618 183.946C133.729 195.984 91.7837 188.814 84.5539 178.763Z" fill="#111111"/>
<mask id="path-3-inside-1_1444_14891" fill="white">
<path fill-rule="evenodd" clip-rule="evenodd" d="M174.201 168.901C172.529 171.511 170.864 173.685 169.489 175.273C172.058 176.384 174.891 177 177.869 177C189.533 177 198.991 167.549 198.994 155.89C198.997 146.129 192.372 137.916 183.371 135.5C183.832 137.53 183.699 140.402 183.257 143.487C188.047 145.566 191.397 150.337 191.395 155.89C191.393 163.354 185.338 169.404 177.871 169.404C176.599 169.404 175.368 169.229 174.201 168.901Z"/>
</mask>
<path fill-rule="evenodd" clip-rule="evenodd" d="M174.201 168.901C172.529 171.511 170.864 173.685 169.489 175.273C172.058 176.384 174.891 177 177.869 177C189.533 177 198.991 167.549 198.994 155.89C198.997 146.129 192.372 137.916 183.371 135.5C183.832 137.53 183.699 140.402 183.257 143.487C188.047 145.566 191.397 150.337 191.395 155.89C191.393 163.354 185.338 169.404 177.871 169.404C176.599 169.404 175.368 169.229 174.201 168.901Z" fill="white"/>
<path d="M174.201 168.901L174.607 167.457L173.538 167.156L172.938 168.092L174.201 168.901ZM169.489 175.273L168.355 174.291L167.016 175.837L168.893 176.65L169.489 175.273ZM183.371 135.5L183.761 134.051L181.357 133.406L181.909 135.833L183.371 135.5ZM183.257 143.487L181.772 143.275L181.609 144.408L182.659 144.863L183.257 143.487ZM172.938 168.092C171.304 170.643 169.682 172.759 168.355 174.291L170.623 176.255C172.046 174.611 173.754 172.379 175.464 169.71L172.938 168.092ZM168.893 176.65C171.646 177.841 174.682 178.5 177.868 178.5L177.869 175.5C175.1 175.5 172.469 174.928 170.085 173.896L168.893 176.65ZM177.868 178.5C190.36 178.5 200.491 168.378 200.494 155.89H197.494C197.491 166.72 188.705 175.5 177.869 175.5L177.868 178.5ZM200.494 155.89C200.497 145.433 193.4 136.639 183.761 134.051L182.982 136.949C191.345 139.193 197.497 146.825 197.494 155.89H200.494ZM181.909 135.833C182.305 137.58 182.209 140.222 181.772 143.275L184.741 143.7C185.188 140.583 185.359 137.48 184.834 135.167L181.909 135.833ZM192.895 155.89C192.897 149.718 189.173 144.419 183.854 142.111L182.659 144.863C186.921 146.713 189.896 150.956 189.895 155.89H192.895ZM177.87 170.904C186.165 170.904 192.893 164.183 192.895 155.89H189.895C189.893 162.525 184.51 167.904 177.871 167.904L177.87 170.904ZM173.795 170.345C175.092 170.71 176.46 170.904 177.87 170.904L177.871 167.904C176.738 167.904 175.643 167.748 174.607 167.457L173.795 170.345Z" fill="#111111" mask="url(#path-3-inside-1_1444_14891)"/>
<path d="M173.328 169.3L169 173.332C170.385 175.237 172.98 175.449 175.537 175.5C179.746 175.378 186.143 167.168 184.824 168.069C181.857 170.097 175.676 169.844 173.328 169.3Z" fill="#111111"/>
<path d="M187.048 135.233C186.667 163.929 164.399 187.003 137.299 187.003C110.199 187.003 87.633 163.684 87.2449 134.987L187.048 135.233Z" fill="white" stroke="#111111" stroke-width="1.5"/>
<path d="M187.053 134.485C187.053 136.738 185.804 138.98 183.332 141.113C180.862 143.244 177.244 145.197 172.709 146.852C163.644 150.16 151.071 152.221 137.146 152.221C123.222 152.221 110.649 150.16 101.584 146.852C97.0483 145.197 93.4305 143.244 90.9606 141.113C88.4885 138.98 87.2399 136.738 87.2399 134.485C87.2399 132.233 88.4885 129.991 90.9606 127.858C93.4305 125.727 97.0483 123.774 101.584 122.119C110.649 118.811 123.222 116.75 137.146 116.75C151.071 116.75 163.644 118.811 172.709 122.119C177.244 123.774 180.862 125.727 183.332 127.858C185.804 129.991 187.053 132.233 187.053 134.485Z" fill="white" stroke="#111111" stroke-width="1.5"/>
<ellipse cx="123.986" cy="132.493" rx="2.56075" ry="1.50472" fill="#111111"/>
<ellipse cx="150.435" cy="132.493" rx="2.56075" ry="1.50472" fill="#111111"/>
<path d="M122.09 142.906C127.402 139.636 140.774 135.057 151.764 142.906" stroke="#111111" stroke-width="1.5" stroke-linecap="round"/>
<path d="M158.856 124.114C174.498 125.462 184.014 132.832 186.555 136.484C189.3 128.99 178.097 122.8 172.262 121.496L158.856 124.114Z" fill="#111111"/>
<path d="M87.5 137C92.3688 128.433 112.944 122 137.588 122C161.72 122 181.599 128.124 187 136.425" stroke="#111111" stroke-width="1.5"/>
</svg>
