<svg width="437" height="320" viewBox="0 0 437 320" fill="none" xmlns="http://www.w3.org/2000/svg">
<g clip-path="url(#clip0_1444_14861)">
<rect width="437" height="320" fill="white"/>
<g clip-path="url(#clip1_1444_14861)">
<rect x="105" y="24" width="225.971" height="489.303" rx="21.6932" fill="white"/>
<circle cx="124.283" cy="67.3864" r="9.64143" fill="white" fill-opacity="0.9"/>
<path fill-rule="evenodd" clip-rule="evenodd" d="M125.662 71.7689C125.455 71.7689 125.247 71.6886 125.088 71.5283L120.996 67.3865L125.088 63.2447C125.405 62.9237 125.919 62.9237 126.236 63.2447C126.553 63.5657 126.553 64.0857 126.236 64.4068L123.293 67.3865L126.236 70.3662C126.553 70.6872 126.553 71.2073 126.236 71.5283C126.078 71.6886 125.87 71.7689 125.662 71.7689Z" fill="#111111"/>
<rect opacity="0.35" x="307.8" y="34.7461" width="12.6544" height="6.22676" rx="1.30561" stroke="black" stroke-width="0.60259"/>
<path opacity="0.4" d="M321.358 36.6543V39.0647C321.843 38.8605 322.159 38.3856 322.159 37.8595C322.159 37.3333 321.843 36.8584 321.358 36.6543" fill="black"/>
<rect x="308.704" y="35.65" width="10.8466" height="4.41899" rx="0.803453" fill="black"/>
<path fill-rule="evenodd" clip-rule="evenodd" d="M299.864 35.8155C301.2 35.8156 302.484 36.3287 303.452 37.2487C303.524 37.3197 303.641 37.3188 303.713 37.2467L304.409 36.5437C304.446 36.5071 304.466 36.4575 304.466 36.4059C304.465 36.3544 304.444 36.305 304.408 36.2689C301.868 33.8347 297.861 33.8347 295.321 36.2689C295.284 36.305 295.263 36.3543 295.263 36.4059C295.262 36.4575 295.283 36.507 295.319 36.5437L296.016 37.2467C296.087 37.3189 296.204 37.3198 296.277 37.2487C297.245 36.3286 298.529 35.8155 299.864 35.8155ZM299.864 38.1028C300.598 38.1027 301.305 38.3754 301.849 38.8679C301.923 38.9377 302.039 38.9362 302.11 38.8644L302.806 38.1614C302.843 38.1245 302.863 38.0745 302.863 38.0225C302.862 37.9705 302.841 37.9209 302.803 37.8848C301.147 36.3444 298.583 36.3444 296.927 37.8848C296.889 37.9209 296.868 37.9706 296.867 38.0226C296.867 38.0746 296.887 38.1246 296.924 38.1614L297.62 38.8644C297.691 38.9362 297.807 38.9377 297.881 38.8679C298.424 38.3757 299.131 38.1031 299.864 38.1028ZM301.258 39.6417C301.259 39.6938 301.239 39.744 301.201 39.7806L299.998 40.9952C299.963 41.0309 299.915 41.051 299.864 41.051C299.814 41.051 299.766 41.0309 299.731 40.9952L298.527 39.7806C298.49 39.744 298.469 39.6937 298.47 39.6416C298.472 39.5895 298.494 39.5401 298.533 39.5052C299.301 38.8551 300.427 38.8551 301.196 39.5052C301.235 39.5402 301.257 39.5895 301.258 39.6417Z" fill="black"/>
<path fill-rule="evenodd" clip-rule="evenodd" d="M291.631 34.6457H291.028C290.695 34.6457 290.426 34.9155 290.426 35.2483V40.4707C290.426 40.8035 290.695 41.0733 291.028 41.0733H291.631C291.964 41.0733 292.233 40.8035 292.233 40.4707V35.2483C292.233 34.9155 291.964 34.6457 291.631 34.6457ZM288.216 36.0517H288.819C289.151 36.0517 289.421 36.3215 289.421 36.6543V40.4707C289.421 40.8035 289.151 41.0733 288.819 41.0733H288.216C287.883 41.0733 287.613 40.8035 287.613 40.4707V36.6543C287.613 36.3215 287.883 36.0517 288.216 36.0517ZM286.007 37.4578H285.404C285.071 37.4578 284.801 37.7276 284.801 38.0604V40.4707C284.801 40.8035 285.071 41.0733 285.404 41.0733H286.007C286.339 41.0733 286.609 40.8035 286.609 40.4707V38.0604C286.609 37.7276 286.339 37.4578 286.007 37.4578ZM283.194 38.663H282.592C282.259 38.663 281.989 38.9327 281.989 39.2655V40.4707C281.989 40.8035 282.259 41.0733 282.592 41.0733H283.194C283.527 41.0733 283.797 40.8035 283.797 40.4707V39.2655C283.797 38.9327 283.527 38.663 283.194 38.663Z" fill="black"/>
<g clip-path="url(#clip2_1444_14861)">
<path d="M126.404 40.9925C127.873 40.9925 128.88 40.2334 128.88 39.1256C128.88 38.3047 128.332 37.6603 127.503 37.5058V37.4308C128.187 37.2587 128.619 36.7158 128.619 36.0273C128.619 35.0255 127.701 34.3061 126.408 34.3061C125.115 34.3061 124.192 35.0255 124.192 36.0273C124.192 36.7114 124.634 37.2631 125.313 37.4308V37.5058C124.479 37.678 123.936 38.3223 123.936 39.13C123.936 40.2334 124.943 40.9925 126.404 40.9925ZM126.408 37.0954C125.759 37.0954 125.313 36.707 125.313 36.1332C125.313 35.5595 125.755 35.1623 126.408 35.1623C127.057 35.1623 127.498 35.5595 127.498 36.1332C127.498 36.7026 127.052 37.0954 126.408 37.0954ZM126.408 40.123C125.64 40.123 125.11 39.6773 125.11 39.0373C125.11 38.393 125.64 37.9472 126.408 37.9472C127.172 37.9472 127.701 38.393 127.701 39.0373C127.701 39.6773 127.176 40.123 126.408 40.123ZM130.941 36.7114C131.36 36.7114 131.647 36.4201 131.647 36.0273C131.647 35.6345 131.36 35.3432 130.941 35.3432C130.526 35.3432 130.234 35.6345 130.234 36.0273C130.234 36.4201 130.526 36.7114 130.941 36.7114ZM130.941 39.9509C131.36 39.9509 131.647 39.6552 131.647 39.2668C131.647 38.874 131.36 38.5827 130.941 38.5827C130.526 38.5827 130.234 38.874 130.234 39.2668C130.234 39.6552 130.526 39.9509 130.941 39.9509ZM135.389 40.9925C136.912 40.9925 137.817 39.7611 137.817 37.6515C137.817 35.5374 136.899 34.3061 135.389 34.3061C133.876 34.3061 132.958 35.5374 132.958 37.6427C132.958 39.7567 133.862 40.9925 135.389 40.9925ZM135.389 40.0701C134.582 40.0701 134.11 39.2315 134.11 37.6427C134.11 36.067 134.591 35.2329 135.389 35.2329C136.188 35.2329 136.665 36.0626 136.665 37.6427C136.665 39.2359 136.197 40.0701 135.389 40.0701ZM141.436 40.9925C142.906 40.9925 143.912 40.2334 143.912 39.1256C143.912 38.3047 143.365 37.6603 142.535 37.5058V37.4308C143.219 37.2587 143.652 36.7158 143.652 36.0273C143.652 35.0255 142.734 34.3061 141.44 34.3061C140.147 34.3061 139.225 35.0255 139.225 36.0273C139.225 36.7114 139.666 37.2631 140.346 37.4308V37.5058C139.512 37.678 138.969 38.3223 138.969 39.13C138.969 40.2334 139.975 40.9925 141.436 40.9925ZM141.44 37.0954C140.792 37.0954 140.346 36.707 140.346 36.1332C140.346 35.5595 140.787 35.1623 141.44 35.1623C142.089 35.1623 142.53 35.5595 142.53 36.1332C142.53 36.7026 142.085 37.0954 141.44 37.0954ZM141.44 40.123C140.672 40.123 140.143 39.6773 140.143 39.0373C140.143 38.393 140.672 37.9472 141.44 37.9472C142.204 37.9472 142.734 38.393 142.734 39.0373C142.734 39.6773 142.208 40.123 141.44 40.123Z" fill="black"/>
</g>
<path d="M198.698 64.9042C198.759 66.1329 199.79 66.9144 201.349 66.9144C202.996 66.9144 204.018 66.0953 204.018 64.7771C204.018 63.7461 203.439 63.1718 202.059 62.8563L201.278 62.6775C200.435 62.4797 200.092 62.2114 200.092 61.7453C200.092 61.1569 200.609 60.7708 201.391 60.7708C202.135 60.7708 202.662 61.1521 202.747 61.7594H203.91C203.853 60.5966 202.822 59.7822 201.396 59.7822C199.875 59.7822 198.868 60.6013 198.868 61.8254C198.868 62.8328 199.447 63.4401 200.68 63.7226L201.56 63.925C202.431 64.1274 202.803 64.4287 202.803 64.923C202.803 65.5021 202.224 65.9211 201.424 65.9211C200.562 65.9211 199.96 65.5256 199.884 64.9042H198.698ZM208.617 65.3373C208.448 65.7234 208.048 65.9399 207.469 65.9399C206.701 65.9399 206.207 65.3938 206.179 64.5229V64.4617H209.775V64.0898C209.775 62.475 208.895 61.5005 207.426 61.5005C205.934 61.5005 205.006 62.5409 205.006 64.1933C205.006 65.841 205.92 66.8485 207.436 66.8485C208.65 66.8485 209.512 66.2647 209.724 65.3373H208.617ZM207.421 62.4091C208.123 62.4091 208.584 62.9034 208.608 63.6849H206.183C206.235 62.9128 206.725 62.4091 207.421 62.4091ZM211.319 60.3377V61.6323H210.505V62.5409H211.319V65.3797C211.319 66.373 211.79 66.7685 212.972 66.7685C213.198 66.7685 213.414 66.7496 213.584 66.7167V65.8222C213.443 65.8363 213.353 65.8458 213.188 65.8458C212.699 65.8458 212.482 65.6151 212.482 65.1019V62.5409H213.584V61.6323H212.482V60.3377H211.319ZM215.152 60.3377V61.6323H214.337V62.5409H215.152V65.3797C215.152 66.373 215.622 66.7685 216.804 66.7685C217.03 66.7685 217.247 66.7496 217.416 66.7167V65.8222C217.275 65.8363 217.185 65.8458 217.021 65.8458C216.531 65.8458 216.314 65.6151 216.314 65.1019V62.5409H217.416V61.6323H216.314V60.3377H215.152ZM219.177 60.7379C219.563 60.7379 219.878 60.4319 219.878 60.0458C219.878 59.6645 219.563 59.3538 219.177 59.3538C218.795 59.3538 218.48 59.6645 218.48 60.0458C218.48 60.4319 218.795 60.7379 219.177 60.7379ZM218.598 66.7449H219.76V61.5994H218.598V66.7449ZM221.21 66.7449H222.378V63.7461C222.378 62.974 222.816 62.4891 223.512 62.4891C224.223 62.4891 224.553 62.8893 224.553 63.6896V66.7449H225.72V63.4166C225.72 62.1926 225.094 61.5005 223.946 61.5005C223.178 61.5005 222.66 61.8489 222.416 62.4232H222.336V61.5994H221.21V66.7449ZM229.317 68.7034C230.819 68.7034 231.77 67.9548 231.77 66.7732V61.5994H230.645V62.4232H230.565C230.282 61.863 229.67 61.5146 228.969 61.5146C227.655 61.5146 226.841 62.5409 226.841 64.118C226.841 65.6622 227.651 66.6696 228.95 66.6696C229.666 66.6696 230.226 66.3683 230.522 65.8128H230.602V66.792C230.602 67.4464 230.136 67.8324 229.336 67.8324C228.696 67.8324 228.281 67.6017 228.206 67.2392H227.034C227.128 68.1243 227.994 68.7034 229.317 68.7034ZM229.317 65.7422C228.503 65.7422 228.041 65.1114 228.041 64.1133C228.041 63.12 228.503 62.4891 229.317 62.4891C230.127 62.4891 230.621 63.12 230.621 64.118C230.621 65.1114 230.132 65.7422 229.317 65.7422ZM233.088 63.0682C233.088 63.8403 233.554 64.2922 234.543 64.5182L235.456 64.73C235.946 64.843 236.167 65.0313 236.167 65.3232C236.167 65.7139 235.757 65.9823 235.169 65.9823C234.585 65.9823 234.223 65.7469 234.11 65.3656H232.956C233.046 66.293 233.855 66.8485 235.141 66.8485C236.426 66.8485 237.334 66.1941 237.334 65.2102C237.334 64.4523 236.878 64.0333 235.894 63.8073L234.985 63.6049C234.467 63.4825 234.223 63.2989 234.223 63.007C234.223 62.6257 234.623 62.3667 235.155 62.3667C235.701 62.3667 236.044 62.6021 236.129 62.9646H237.226C237.141 62.0372 236.374 61.5005 235.15 61.5005C233.935 61.5005 233.088 62.1455 233.088 63.0682Z" fill="black"/>
<path d="M254.8 177.823C254.8 179.404 253.852 180.99 251.955 182.505C250.063 184.016 247.294 185.399 243.826 186.571C236.895 188.912 227.287 190.369 216.651 190.369C206.015 190.369 196.407 188.912 189.476 186.571C186.008 185.399 183.239 184.016 181.347 182.505C179.45 180.99 178.502 179.404 178.502 177.823C178.502 176.243 179.45 174.657 181.347 173.142C183.239 171.631 186.008 170.248 189.476 169.076C196.407 166.735 206.015 165.278 216.651 165.278C227.287 165.278 236.895 166.735 243.826 169.076C247.294 170.248 250.063 171.631 251.955 173.142C253.852 174.657 254.8 176.243 254.8 177.823Z" fill="white" stroke="#111111" stroke-width="1.03004"/>
<path d="M180.427 173.897C179.672 172.847 189.468 169.123 192.571 168.194C197.453 173.98 209.644 181.734 227.166 177.456C214.196 185.723 185.392 180.8 180.427 173.897Z" fill="#111111"/>
<mask id="path-14-inside-1_1444_14861" fill="white">
<path fill-rule="evenodd" clip-rule="evenodd" d="M241.987 167.125C240.839 168.917 239.696 170.411 238.752 171.501C240.516 172.264 242.461 172.687 244.506 172.687C252.516 172.687 259.011 166.197 259.013 158.191C259.015 151.488 254.466 145.848 248.285 144.189C248.601 145.583 248.509 147.555 248.206 149.674C251.495 151.101 253.795 154.377 253.794 158.191C253.793 163.316 249.635 167.471 244.507 167.471C243.634 167.471 242.789 167.35 241.987 167.125Z"/>
</mask>
<path fill-rule="evenodd" clip-rule="evenodd" d="M241.987 167.125C240.839 168.917 239.696 170.411 238.752 171.501C240.516 172.264 242.461 172.687 244.506 172.687C252.516 172.687 259.011 166.197 259.013 158.191C259.015 151.488 254.466 145.848 248.285 144.189C248.601 145.583 248.509 147.555 248.206 149.674C251.495 151.101 253.795 154.377 253.794 158.191C253.793 163.316 249.635 167.471 244.507 167.471C243.634 167.471 242.789 167.35 241.987 167.125Z" fill="white"/>
<path d="M241.987 167.125L242.267 166.134L241.532 165.927L241.12 166.57L241.987 167.125ZM238.752 171.501L237.973 170.827L237.053 171.888L238.343 172.446L238.752 171.501ZM248.285 144.189L248.552 143.194L246.902 142.751L247.28 144.418L248.285 144.189ZM248.206 149.674L247.186 149.528L247.075 150.306L247.796 150.619L248.206 149.674ZM241.12 166.57C239.998 168.321 238.885 169.775 237.973 170.827L239.53 172.175C240.508 171.047 241.68 169.514 242.855 167.681L241.12 166.57ZM238.343 172.446C240.233 173.264 242.318 173.717 244.506 173.717L244.506 171.657C242.605 171.657 240.798 171.264 239.161 170.555L238.343 172.446ZM244.506 173.717C253.084 173.717 260.04 166.766 260.043 158.191H257.983C257.981 165.627 251.947 171.657 244.506 171.657L244.506 173.717ZM260.043 158.191C260.045 151.01 255.171 144.971 248.552 143.194L248.017 145.184C253.76 146.725 257.984 151.966 257.983 158.191H260.043ZM247.28 144.418C247.553 145.617 247.487 147.432 247.186 149.528L249.225 149.82C249.532 147.679 249.65 145.549 249.289 143.961L247.28 144.418ZM254.824 158.191C254.826 153.952 252.268 150.314 248.616 148.729L247.796 150.619C250.722 151.889 252.765 154.803 252.764 158.191H254.824ZM244.507 168.501C250.203 168.501 254.823 163.885 254.824 158.191H252.764C252.763 162.747 249.067 166.441 244.508 166.441L244.507 168.501ZM241.708 168.117C242.599 168.367 243.538 168.501 244.507 168.501L244.508 166.441C243.729 166.441 242.978 166.334 242.267 166.134L241.708 168.117Z" fill="#111111" mask="url(#path-14-inside-1_1444_14861)"/>
<path d="M241.388 167.4L238.416 170.168C239.367 171.476 241.149 171.622 242.905 171.657C245.795 171.573 250.188 165.935 249.282 166.554C247.245 167.947 243 167.773 241.388 167.4Z" fill="#111111"/>
<path d="M250.809 144.006C250.547 163.711 235.256 179.555 216.647 179.555C198.038 179.555 182.542 163.543 182.275 143.837L250.809 144.006Z" fill="white" stroke="#111111" stroke-width="1.03004"/>
<path d="M250.813 143.492C250.813 145.039 249.955 146.579 248.258 148.043C246.561 149.507 244.077 150.848 240.963 151.984C234.738 154.256 226.104 155.671 216.542 155.671C206.981 155.671 198.347 154.256 192.122 151.984C189.007 150.848 186.523 149.507 184.827 148.043C183.129 146.579 182.272 145.039 182.272 143.492C182.272 141.946 183.129 140.406 184.827 138.941C186.523 137.478 189.007 136.137 192.122 135C198.347 132.729 206.981 131.314 216.542 131.314C226.104 131.314 234.738 132.729 240.963 135C244.077 136.137 246.561 137.478 248.258 138.941C249.955 140.406 250.813 141.946 250.813 143.492Z" fill="white" stroke="#111111" stroke-width="1.03004"/>
<ellipse cx="207.505" cy="142.124" rx="1.75845" ry="1.03328" fill="#111111"/>
<ellipse cx="225.668" cy="142.124" rx="1.75845" ry="1.03328" fill="#111111"/>
<path d="M206.203 149.275C209.851 147.029 219.033 143.885 226.58 149.275" stroke="#111111" stroke-width="1.03004" stroke-linecap="round"/>
<path d="M231.45 136.37C242.191 137.296 248.726 142.357 250.471 144.865C252.356 139.719 244.663 135.468 240.656 134.572L231.45 136.37Z" fill="#111111"/>
<path d="M182.451 145.219C185.794 139.336 199.923 134.919 216.845 134.919C233.417 134.919 247.068 139.124 250.776 144.824" stroke="#111111" stroke-width="1.03004"/>
<path d="M195.455 229.888C191.986 229.888 189.811 232.252 189.811 236.034C189.811 239.815 191.986 242.171 195.455 242.171C198.915 242.171 201.09 239.815 201.09 236.034C201.09 232.252 198.915 229.888 195.455 229.888ZM195.455 231.7C197.572 231.7 198.923 233.381 198.923 236.034C198.923 238.678 197.572 240.359 195.455 240.359C193.329 240.359 191.986 238.678 191.986 236.034C191.986 233.381 193.329 231.7 195.455 231.7ZM202.639 241.974H204.69V236.956C204.69 235.671 205.44 234.814 206.676 234.814C207.862 234.814 208.472 235.548 208.472 236.767V241.974H210.523V236.347C210.523 234.345 209.394 233.076 207.467 233.076C206.14 233.076 205.176 233.677 204.707 234.74H204.666V230.085H202.639V241.974ZM215.549 241.974H217.6V236.915C217.6 235.663 218.35 234.814 219.528 234.814C220.698 234.814 221.274 235.506 221.274 236.742V241.974H223.326V236.33C223.326 234.312 222.23 233.076 220.302 233.076C218.959 233.076 218.028 233.702 217.559 234.74H217.518V233.241H215.549V241.974ZM228.837 242.147C231.4 242.147 233.064 240.441 233.064 237.607C233.064 234.781 231.383 233.06 228.837 233.06C226.292 233.06 224.611 234.79 224.611 237.607C224.611 240.441 226.275 242.147 228.837 242.147ZM228.837 240.524C227.536 240.524 226.695 239.469 226.695 237.607C226.695 235.754 227.544 234.691 228.837 234.691C230.139 234.691 230.979 235.754 230.979 237.607C230.979 239.469 230.139 240.524 228.837 240.524ZM235.469 242.064C236.128 242.064 236.647 241.545 236.647 240.878C236.647 240.219 236.128 239.692 235.469 239.692C234.802 239.692 234.283 240.219 234.283 240.878C234.283 241.545 234.802 242.064 235.469 242.064ZM240.017 242.064C240.676 242.064 241.195 241.545 241.195 240.878C241.195 240.219 240.676 239.692 240.017 239.692C239.35 239.692 238.831 240.219 238.831 240.878C238.831 241.545 239.35 242.064 240.017 242.064ZM244.565 242.064C245.224 242.064 245.743 241.545 245.743 240.878C245.743 240.219 245.224 239.692 244.565 239.692C243.897 239.692 243.378 240.219 243.378 240.878C243.378 241.545 243.897 242.064 244.565 242.064Z" fill="black"/>
<path d="M129.531 263.568H129.588L131.151 268.931H131.951L133.801 262.137H132.916L131.565 267.659H131.509L129.988 262.137H129.131L127.611 267.659H127.554L126.203 262.137H125.318L127.168 268.931H127.968L129.531 263.568ZM137.878 267.617C137.666 268.064 137.224 268.304 136.569 268.304C135.708 268.304 135.148 267.669 135.105 266.666V266.628H138.754V266.318C138.754 264.741 137.92 263.766 136.551 263.766C135.157 263.766 134.263 264.802 134.263 266.398C134.263 268.003 135.143 269.02 136.551 269.02C137.662 269.02 138.452 268.483 138.688 267.617H137.878ZM136.541 264.482C137.346 264.482 137.883 265.075 137.902 265.974H135.105C135.166 265.075 135.731 264.482 136.541 264.482ZM149.13 263.856H148.315L147.317 267.914H147.242L146.107 263.856H145.33L144.196 267.914H144.121L143.123 263.856H142.303L143.725 268.931H144.544L145.674 265.004H145.749L146.884 268.931H147.708L149.13 263.856ZM153.385 267.617C153.174 268.064 152.731 268.304 152.077 268.304C151.215 268.304 150.655 267.669 150.613 266.666V266.628H154.261V266.318C154.261 264.741 153.428 263.766 152.058 263.766C150.664 263.766 149.77 264.802 149.77 266.398C149.77 268.003 150.65 269.02 152.058 269.02C153.169 269.02 153.96 268.483 154.195 267.617H153.385ZM152.048 264.482C152.853 264.482 153.39 265.075 153.409 265.974H150.613C150.674 265.075 151.239 264.482 152.048 264.482ZM155.532 268.931H156.342V265.786C156.342 265.07 156.902 264.552 157.674 264.552C157.834 264.552 158.126 264.581 158.192 264.599V263.79C158.088 263.776 157.919 263.766 157.787 263.766C157.114 263.766 156.53 264.115 156.38 264.609H156.304V263.856H155.532V268.931ZM162.424 267.617C162.212 268.064 161.77 268.304 161.115 268.304C160.254 268.304 159.694 267.669 159.651 266.666V266.628H163.3V266.318C163.3 264.741 162.467 263.766 161.097 263.766C159.703 263.766 158.809 264.802 158.809 266.398C158.809 268.003 159.689 269.02 161.097 269.02C162.208 269.02 162.999 268.483 163.234 267.617H162.424ZM161.087 264.482C161.892 264.482 162.429 265.075 162.448 265.974H159.651C159.713 265.075 160.278 264.482 161.087 264.482ZM164.571 268.931H165.381V265.927C165.381 265.037 165.903 264.496 166.713 264.496C167.523 264.496 167.909 264.929 167.909 265.842V268.931H168.718V265.645C168.718 264.439 168.083 263.766 166.944 263.766C166.167 263.766 165.673 264.096 165.418 264.656H165.343V263.856H164.571V268.931ZM170.705 264.675L171.557 262.137H170.639L170.117 264.675H170.705ZM173.337 262.542V263.856H172.518V264.534H173.337V267.612C173.337 268.582 173.756 268.968 174.801 268.968C174.961 268.968 175.116 268.949 175.276 268.921V268.239C175.126 268.253 175.046 268.257 174.9 268.257C174.372 268.257 174.146 268.003 174.146 267.405V264.534H175.276V263.856H174.146V262.542H173.337ZM180.634 269.02C181.312 269.02 181.867 268.723 182.197 268.182H182.272V268.931H183.044V265.456C183.044 264.402 182.352 263.766 181.114 263.766C180.031 263.766 179.231 264.303 179.123 265.117H179.942C180.055 264.717 180.478 264.486 181.086 264.486C181.844 264.486 182.234 264.83 182.234 265.456V265.918L180.77 266.007C179.589 266.078 178.92 266.6 178.92 267.509C178.92 268.436 179.65 269.02 180.634 269.02ZM180.784 268.309C180.196 268.309 179.758 268.008 179.758 267.49C179.758 266.982 180.097 266.713 180.869 266.661L182.234 266.572V267.038C182.234 267.763 181.618 268.309 180.784 268.309ZM187.064 269.02C188.35 269.02 189.192 267.98 189.192 266.393C189.192 264.797 188.354 263.766 187.064 263.766C186.368 263.766 185.751 264.11 185.473 264.656H185.398V261.841H184.588V268.931H185.36V268.121H185.436C185.756 268.686 186.358 269.02 187.064 269.02ZM186.876 264.496C187.804 264.496 188.354 265.207 188.354 266.393C188.354 267.579 187.804 268.29 186.876 268.29C185.953 268.29 185.379 267.565 185.379 266.393C185.379 265.221 185.953 264.496 186.876 264.496ZM190.511 268.931H191.32V261.841H190.511V268.931ZM196.254 267.617C196.042 268.064 195.6 268.304 194.945 268.304C194.084 268.304 193.524 267.669 193.481 266.666V266.628H197.13V266.318C197.13 264.741 196.296 263.766 194.926 263.766C193.533 263.766 192.638 264.802 192.638 266.398C192.638 268.003 193.519 269.02 194.926 269.02C196.037 269.02 196.828 268.483 197.064 267.617H196.254ZM194.917 264.482C195.722 264.482 196.259 265.075 196.278 265.974H193.481C193.542 265.075 194.107 264.482 194.917 264.482ZM201.461 262.542V263.856H200.642V264.534H201.461V267.612C201.461 268.582 201.88 268.968 202.925 268.968C203.085 268.968 203.24 268.949 203.4 268.921V268.239C203.25 268.253 203.17 268.257 203.024 268.257C202.496 268.257 202.27 268.003 202.27 267.405V264.534H203.4V263.856H202.27V262.542H201.461ZM206.635 269.02C208.08 269.02 208.974 268.022 208.974 266.393C208.974 264.759 208.08 263.766 206.635 263.766C205.189 263.766 204.295 264.759 204.295 266.393C204.295 268.022 205.189 269.02 206.635 269.02ZM206.635 268.29C205.674 268.29 205.133 267.594 205.133 266.393C205.133 265.188 205.674 264.496 206.635 264.496C207.595 264.496 208.136 265.188 208.136 266.393C208.136 267.594 207.595 268.29 206.635 268.29ZM215.438 263.766C214.746 263.766 214.139 264.119 213.814 264.703H213.739V263.856H212.966V270.625H213.776V268.168H213.851C214.129 268.705 214.713 269.02 215.438 269.02C216.728 269.02 217.571 267.98 217.571 266.393C217.571 264.797 216.733 263.766 215.438 263.766ZM215.245 268.29C214.332 268.29 213.753 267.556 213.753 266.393C213.753 265.226 214.332 264.496 215.25 264.496C216.177 264.496 216.733 265.207 216.733 266.393C216.733 267.579 216.177 268.29 215.245 268.29ZM218.842 268.931H219.651V265.786C219.651 265.07 220.212 264.552 220.984 264.552C221.144 264.552 221.436 264.581 221.502 264.599V263.79C221.398 263.776 221.228 263.766 221.097 263.766C220.423 263.766 219.84 264.115 219.689 264.609H219.614V263.856H218.842V268.931ZM224.458 269.02C225.903 269.02 226.798 268.022 226.798 266.393C226.798 264.759 225.903 263.766 224.458 263.766C223.013 263.766 222.118 264.759 222.118 266.393C222.118 268.022 223.013 269.02 224.458 269.02ZM224.458 268.29C223.498 268.29 222.956 267.594 222.956 266.393C222.956 265.188 223.498 264.496 224.458 264.496C225.418 264.496 225.96 265.188 225.96 266.393C225.96 267.594 225.418 268.29 224.458 268.29ZM232.268 265.409C232.127 264.505 231.374 263.766 230.14 263.766C228.719 263.766 227.815 264.792 227.815 266.374C227.815 267.989 228.723 269.02 230.145 269.02C231.364 269.02 232.122 268.333 232.268 267.401H231.449C231.298 267.975 230.823 268.29 230.14 268.29C229.236 268.29 228.653 267.546 228.653 266.374C228.653 265.226 229.227 264.496 230.14 264.496C230.87 264.496 231.317 264.905 231.449 265.409H232.268ZM236.825 267.617C236.613 268.064 236.171 268.304 235.516 268.304C234.655 268.304 234.095 267.669 234.052 266.666V266.628H237.701V266.318C237.701 264.741 236.868 263.766 235.498 263.766C234.104 263.766 233.21 264.802 233.21 266.398C233.21 268.003 234.09 269.02 235.498 269.02C236.609 269.02 237.4 268.483 237.635 267.617H236.825ZM235.488 264.482C236.293 264.482 236.83 265.075 236.849 265.974H234.052C234.114 265.075 234.678 264.482 235.488 264.482ZM238.854 265.244C238.854 265.979 239.287 266.388 240.238 266.619L241.109 266.831C241.651 266.963 241.914 267.198 241.914 267.546C241.914 268.013 241.425 268.337 240.742 268.337C240.092 268.337 239.688 268.064 239.551 267.636H238.718C238.807 268.479 239.584 269.02 240.714 269.02C241.867 269.02 242.748 268.394 242.748 267.485C242.748 266.756 242.286 266.341 241.331 266.111L240.549 265.922C239.951 265.776 239.669 265.56 239.669 265.211C239.669 264.759 240.139 264.453 240.742 264.453C241.354 264.453 241.749 264.722 241.858 265.127H242.658C242.55 264.293 241.811 263.766 240.747 263.766C239.669 263.766 238.854 264.402 238.854 265.244ZM243.807 265.244C243.807 265.979 244.24 266.388 245.191 266.619L246.062 266.831C246.603 266.963 246.867 267.198 246.867 267.546C246.867 268.013 246.377 268.337 245.695 268.337C245.045 268.337 244.64 268.064 244.504 267.636H243.67C243.76 268.479 244.536 269.02 245.666 269.02C246.82 269.02 247.7 268.394 247.7 267.485C247.7 266.756 247.239 266.341 246.283 266.111L245.502 265.922C244.904 265.776 244.621 265.56 244.621 265.211C244.621 264.759 245.092 264.453 245.695 264.453C246.307 264.453 246.702 264.722 246.81 265.127H247.611C247.502 264.293 246.763 263.766 245.699 263.766C244.621 263.766 243.807 264.402 243.807 265.244ZM252.125 270.767C253.025 270.767 253.429 270.418 253.862 269.241L255.844 263.856H254.983L253.594 268.031H253.519L252.125 263.856H251.25L253.128 268.935L253.034 269.237C252.822 269.849 252.568 270.07 252.102 270.07C251.989 270.07 251.862 270.065 251.763 270.046V270.738C251.876 270.757 252.017 270.767 252.125 270.767ZM258.824 269.02C260.27 269.02 261.164 268.022 261.164 266.393C261.164 264.759 260.27 263.766 258.824 263.766C257.379 263.766 256.485 264.759 256.485 266.393C256.485 268.022 257.379 269.02 258.824 269.02ZM258.824 268.29C257.864 268.29 257.323 267.594 257.323 266.393C257.323 265.188 257.864 264.496 258.824 264.496C259.785 264.496 260.326 265.188 260.326 266.393C260.326 267.594 259.785 268.29 258.824 268.29ZM266.54 263.856H265.731V266.859C265.731 267.749 265.241 268.281 264.347 268.281C263.537 268.281 263.198 267.857 263.198 266.944V263.856H262.388V267.142C262.388 268.342 262.981 269.02 264.121 269.02C264.897 269.02 265.439 268.7 265.693 268.135H265.768V268.931H266.54V263.856ZM268.066 268.931H268.875V265.786C268.875 265.07 269.436 264.552 270.208 264.552C270.368 264.552 270.66 264.581 270.726 264.599V263.79C270.622 263.776 270.453 263.766 270.321 263.766C269.648 263.766 269.064 264.115 268.913 264.609H268.838V263.856H268.066V268.931ZM274.459 268.931H275.269V265.786C275.269 265.07 275.829 264.552 276.601 264.552C276.761 264.552 277.053 264.581 277.119 264.599V263.79C277.015 263.776 276.846 263.766 276.714 263.766C276.041 263.766 275.457 264.115 275.306 264.609H275.231V263.856H274.459V268.931ZM281.351 267.617C281.139 268.064 280.697 268.304 280.042 268.304C279.181 268.304 278.62 267.669 278.578 266.666V266.628H282.227V266.318C282.227 264.741 281.393 263.766 280.023 263.766C278.63 263.766 277.735 264.802 277.735 266.398C277.735 268.003 278.616 269.02 280.023 269.02C281.134 269.02 281.925 268.483 282.161 267.617H281.351ZM280.014 264.482C280.819 264.482 281.356 265.075 281.374 265.974H278.578C278.639 265.075 279.204 264.482 280.014 264.482ZM285.367 263.766C284.081 263.766 283.243 264.802 283.243 266.393C283.243 267.994 284.072 269.02 285.367 269.02C286.082 269.02 286.628 268.723 286.953 268.168H287.028V270.625H287.848V263.856H287.066V264.703H286.991C286.69 264.133 286.059 263.766 285.367 263.766ZM285.55 268.29C284.628 268.29 284.081 267.584 284.081 266.393C284.081 265.207 284.632 264.496 285.555 264.496C286.473 264.496 287.052 265.23 287.052 266.393C287.052 267.561 286.478 268.29 285.55 268.29ZM293.478 263.856H292.668V266.859C292.668 267.749 292.179 268.281 291.284 268.281C290.475 268.281 290.136 267.857 290.136 266.944V263.856H289.326V267.142C289.326 268.342 289.919 269.02 291.058 269.02C291.835 269.02 292.376 268.7 292.631 268.135H292.706V268.931H293.478V263.856ZM298.365 267.617C298.153 268.064 297.71 268.304 297.056 268.304C296.194 268.304 295.634 267.669 295.592 266.666V266.628H299.24V266.318C299.24 264.741 298.407 263.766 297.037 263.766C295.644 263.766 294.749 264.802 294.749 266.398C294.749 268.003 295.629 269.02 297.037 269.02C298.148 269.02 298.939 268.483 299.174 267.617H298.365ZM297.028 264.482C297.833 264.482 298.369 265.075 298.388 265.974H295.592C295.653 265.075 296.218 264.482 297.028 264.482ZM300.394 265.244C300.394 265.979 300.827 266.388 301.778 266.619L302.649 266.831C303.19 266.963 303.454 267.198 303.454 267.546C303.454 268.013 302.964 268.337 302.282 268.337C301.632 268.337 301.227 268.064 301.09 267.636H300.257C300.347 268.479 301.123 269.02 302.253 269.02C303.407 269.02 304.287 268.394 304.287 267.485C304.287 266.756 303.826 266.341 302.87 266.111L302.088 265.922C301.491 265.776 301.208 265.56 301.208 265.211C301.208 264.759 301.679 264.453 302.282 264.453C302.894 264.453 303.289 264.722 303.397 265.127H304.198C304.089 264.293 303.35 263.766 302.286 263.766C301.208 263.766 300.394 264.402 300.394 265.244ZM305.85 262.542V263.856H305.031V264.534H305.85V267.612C305.85 268.582 306.269 268.968 307.314 268.968C307.474 268.968 307.629 268.949 307.79 268.921V268.239C307.639 268.253 307.559 268.257 307.413 268.257C306.886 268.257 306.66 268.003 306.66 267.405V264.534H307.79V263.856H306.66V262.542H305.85ZM309.682 268.978C310.021 268.978 310.294 268.7 310.294 268.366C310.294 268.027 310.021 267.754 309.682 267.754C309.348 267.754 309.07 268.027 309.07 268.366C309.07 268.7 309.348 268.978 309.682 268.978ZM123.331 274.137V280.931H124.179V278.506H125.888C127.163 278.506 128.072 277.607 128.072 276.336C128.072 275.041 127.182 274.137 125.897 274.137H123.331ZM124.179 274.891H125.676C126.66 274.891 127.201 275.404 127.201 276.336C127.201 277.235 126.641 277.753 125.676 277.753H124.179V274.891ZM129.404 280.931H130.214V273.841H129.404V280.931ZM135.148 279.617C134.936 280.064 134.493 280.304 133.839 280.304C132.977 280.304 132.417 279.669 132.375 278.666V278.628H136.023V278.318C136.023 276.741 135.19 275.766 133.82 275.766C132.427 275.766 131.532 276.802 131.532 278.398C131.532 280.003 132.412 281.02 133.82 281.02C134.931 281.02 135.722 280.483 135.957 279.617H135.148ZM133.811 276.482C134.616 276.482 135.152 277.075 135.171 277.974H132.375C132.436 277.075 133.001 276.482 133.811 276.482ZM138.707 281.02C139.385 281.02 139.94 280.723 140.27 280.182H140.345V280.931H141.117V277.456C141.117 276.402 140.425 275.766 139.187 275.766C138.104 275.766 137.304 276.303 137.196 277.117H138.015C138.128 276.717 138.551 276.486 139.159 276.486C139.917 276.486 140.307 276.83 140.307 277.456V277.918L138.843 278.007C137.662 278.078 136.993 278.6 136.993 279.509C136.993 280.436 137.723 281.02 138.707 281.02ZM138.857 280.309C138.269 280.309 137.831 280.008 137.831 279.49C137.831 278.982 138.17 278.713 138.942 278.661L140.307 278.572V279.038C140.307 279.763 139.691 280.309 138.857 280.309ZM142.496 277.244C142.496 277.979 142.93 278.388 143.88 278.619L144.751 278.831C145.293 278.963 145.556 279.198 145.556 279.546C145.556 280.013 145.067 280.337 144.384 280.337C143.735 280.337 143.33 280.064 143.193 279.636H142.36C142.449 280.479 143.226 281.02 144.356 281.02C145.509 281.02 146.39 280.394 146.39 279.485C146.39 278.756 145.928 278.341 144.973 278.111L144.191 277.922C143.593 277.776 143.311 277.56 143.311 277.211C143.311 276.759 143.782 276.453 144.384 276.453C144.996 276.453 145.392 276.722 145.5 277.127H146.3C146.192 276.293 145.453 275.766 144.389 275.766C143.311 275.766 142.496 276.402 142.496 277.244ZM151.022 279.617C150.81 280.064 150.368 280.304 149.713 280.304C148.852 280.304 148.292 279.669 148.249 278.666V278.628H151.898V278.318C151.898 276.741 151.064 275.766 149.695 275.766C148.301 275.766 147.407 276.802 147.407 278.398C147.407 280.003 148.287 281.02 149.695 281.02C150.806 281.02 151.596 280.483 151.832 279.617H151.022ZM149.685 276.482C150.49 276.482 151.027 277.075 151.046 277.974H148.249C148.31 277.075 148.875 276.482 149.685 276.482ZM155.89 280.931H156.7V277.786C156.7 277.07 157.26 276.552 158.032 276.552C158.192 276.552 158.484 276.581 158.55 276.599V275.79C158.446 275.776 158.277 275.766 158.145 275.766C157.472 275.766 156.888 276.115 156.737 276.609H156.662V275.856H155.89V280.931ZM162.782 279.617C162.57 280.064 162.128 280.304 161.473 280.304C160.612 280.304 160.052 279.669 160.009 278.666V278.628H163.658V278.318C163.658 276.741 162.824 275.766 161.454 275.766C160.061 275.766 159.166 276.802 159.166 278.398C159.166 280.003 160.047 281.02 161.454 281.02C162.565 281.02 163.356 280.483 163.592 279.617H162.782ZM161.445 276.482C162.25 276.482 162.787 277.075 162.806 277.974H160.009C160.07 277.075 160.635 276.482 161.445 276.482ZM165.268 274.542V275.856H164.449V276.534H165.268V279.612C165.268 280.582 165.687 280.968 166.732 280.968C166.892 280.968 167.047 280.949 167.207 280.921V280.239C167.057 280.253 166.977 280.257 166.831 280.257C166.303 280.257 166.077 280.003 166.077 279.405V276.534H167.207V275.856H166.077V274.542H165.268ZM172.536 275.856H171.727V278.859C171.727 279.749 171.237 280.281 170.343 280.281C169.533 280.281 169.194 279.857 169.194 278.944V275.856H168.384V279.142C168.384 280.342 168.977 281.02 170.117 281.02C170.893 281.02 171.435 280.7 171.689 280.135H171.764V280.931H172.536V275.856ZM174.062 280.931H174.871V277.786C174.871 277.07 175.432 276.552 176.204 276.552C176.364 276.552 176.656 276.581 176.722 276.599V275.79C176.618 275.776 176.449 275.766 176.317 275.766C175.644 275.766 175.06 276.115 174.909 276.609H174.834V275.856H174.062V280.931ZM177.828 280.931H178.638V277.927C178.638 277.037 179.16 276.496 179.97 276.496C180.78 276.496 181.166 276.929 181.166 277.842V280.931H181.975V277.645C181.975 276.439 181.34 275.766 180.201 275.766C179.424 275.766 178.93 276.096 178.675 276.656H178.6V275.856H177.828V280.931ZM186.518 274.542V275.856H185.699V276.534H186.518V279.612C186.518 280.582 186.937 280.968 187.983 280.968C188.143 280.968 188.298 280.949 188.458 280.921V280.239C188.307 280.253 188.227 280.257 188.081 280.257C187.554 280.257 187.328 280.003 187.328 279.405V276.534H188.458V275.856H187.328V274.542H186.518ZM191.692 281.02C193.137 281.02 194.032 280.022 194.032 278.393C194.032 276.759 193.137 275.766 191.692 275.766C190.247 275.766 189.352 276.759 189.352 278.393C189.352 280.022 190.247 281.02 191.692 281.02ZM191.692 280.29C190.732 280.29 190.19 279.594 190.19 278.393C190.19 277.188 190.732 276.496 191.692 276.496C192.653 276.496 193.194 277.188 193.194 278.393C193.194 279.594 192.653 280.29 191.692 280.29ZM198.457 282.767C199.356 282.767 199.761 282.418 200.194 281.241L202.176 275.856H201.315L199.926 280.031H199.851L198.457 275.856H197.582L199.46 280.935L199.366 281.237C199.154 281.849 198.9 282.07 198.434 282.07C198.321 282.07 198.194 282.065 198.095 282.046V282.738C198.208 282.757 198.349 282.767 198.457 282.767ZM205.156 281.02C206.602 281.02 207.496 280.022 207.496 278.393C207.496 276.759 206.602 275.766 205.156 275.766C203.711 275.766 202.817 276.759 202.817 278.393C202.817 280.022 203.711 281.02 205.156 281.02ZM205.156 280.29C204.196 280.29 203.655 279.594 203.655 278.393C203.655 277.188 204.196 276.496 205.156 276.496C206.117 276.496 206.658 277.188 206.658 278.393C206.658 279.594 206.117 280.29 205.156 280.29ZM212.872 275.856H212.063V278.859C212.063 279.749 211.573 280.281 210.678 280.281C209.869 280.281 209.53 279.857 209.53 278.944V275.856H208.72V279.142C208.72 280.342 209.313 281.02 210.452 281.02C211.229 281.02 211.771 280.7 212.025 280.135H212.1V280.931H212.872V275.856ZM214.398 280.931H215.207V277.786C215.207 277.07 215.768 276.552 216.54 276.552C216.7 276.552 216.992 276.581 217.057 276.599V275.79C216.954 275.776 216.784 275.766 216.653 275.766C215.979 275.766 215.396 276.115 215.245 276.609H215.17V275.856H214.398V280.931ZM220.673 277.244C220.673 277.979 221.106 278.388 222.057 278.619L222.928 278.831C223.469 278.963 223.733 279.198 223.733 279.546C223.733 280.013 223.243 280.337 222.561 280.337C221.911 280.337 221.506 280.064 221.37 279.636H220.536C220.626 280.479 221.403 281.02 222.533 281.02C223.686 281.02 224.566 280.394 224.566 279.485C224.566 278.756 224.105 278.341 223.149 278.111L222.368 277.922C221.77 277.776 221.487 277.56 221.487 277.211C221.487 276.759 221.958 276.453 222.561 276.453C223.173 276.453 223.568 276.722 223.677 277.127H224.477C224.369 276.293 223.629 275.766 222.565 275.766C221.487 275.766 220.673 276.402 220.673 277.244ZM229.199 279.617C228.987 280.064 228.544 280.304 227.89 280.304C227.028 280.304 226.468 279.669 226.426 278.666V278.628H230.074V278.318C230.074 276.741 229.241 275.766 227.871 275.766C226.478 275.766 225.583 276.802 225.583 278.398C225.583 280.003 226.463 281.02 227.871 281.02C228.982 281.02 229.773 280.483 230.008 279.617H229.199ZM227.862 276.482C228.667 276.482 229.203 277.075 229.222 277.974H226.426C226.487 277.075 227.052 276.482 227.862 276.482ZM231.684 274.542V275.856H230.865V276.534H231.684V279.612C231.684 280.582 232.103 280.968 233.148 280.968C233.309 280.968 233.464 280.949 233.624 280.921V280.239C233.473 280.253 233.393 280.257 233.247 280.257C232.72 280.257 232.494 280.003 232.494 279.405V276.534H233.624V275.856H232.494V274.542H231.684ZM235.187 274.542V275.856H234.368V276.534H235.187V279.612C235.187 280.582 235.606 280.968 236.651 280.968C236.811 280.968 236.966 280.949 237.127 280.921V280.239C236.976 280.253 236.896 280.257 236.75 280.257C236.223 280.257 235.997 280.003 235.997 279.405V276.534H237.127V275.856H235.997V274.542H235.187ZM238.774 274.876C239.085 274.876 239.339 274.622 239.339 274.311C239.339 274.001 239.085 273.747 238.774 273.747C238.463 273.747 238.209 274.001 238.209 274.311C238.209 274.622 238.463 274.876 238.774 274.876ZM238.369 280.931H239.179V275.856H238.369V280.931ZM240.723 280.931H241.533V277.927C241.533 277.037 242.055 276.496 242.865 276.496C243.675 276.496 244.061 276.929 244.061 277.842V280.931H244.871V277.645C244.871 276.439 244.235 275.766 243.096 275.766C242.319 275.766 241.825 276.096 241.571 276.656H241.495V275.856H240.723V280.931ZM248.444 282.88C249.828 282.88 250.704 282.155 250.704 281.02V275.856H249.932V276.661H249.856C249.564 276.115 248.938 275.766 248.227 275.766C246.923 275.766 246.099 276.797 246.099 278.318C246.099 279.838 246.914 280.855 248.227 280.855C248.924 280.855 249.498 280.54 249.819 279.98H249.894V280.978C249.894 281.726 249.352 282.173 248.444 282.173C247.714 282.173 247.262 281.905 247.173 281.491H246.316C246.438 282.329 247.22 282.88 248.444 282.88ZM248.406 280.14C247.465 280.14 246.937 279.424 246.937 278.318C246.937 277.211 247.465 276.496 248.406 276.496C249.343 276.496 249.913 277.211 249.913 278.318C249.913 279.424 249.348 280.14 248.406 280.14ZM252.111 277.244C252.111 277.979 252.544 278.388 253.495 278.619L254.366 278.831C254.908 278.963 255.171 279.198 255.171 279.546C255.171 280.013 254.682 280.337 253.999 280.337C253.349 280.337 252.944 280.064 252.808 279.636H251.975C252.064 280.479 252.841 281.02 253.971 281.02C255.124 281.02 256.005 280.394 256.005 279.485C256.005 278.756 255.543 278.341 254.587 278.111L253.806 277.922C253.208 277.776 252.926 277.56 252.926 277.211C252.926 276.759 253.396 276.453 253.999 276.453C254.611 276.453 255.006 276.722 255.115 277.127H255.915C255.807 276.293 255.068 275.766 254.004 275.766C252.926 275.766 252.111 276.402 252.111 277.244ZM262.468 275.766C261.776 275.766 261.169 276.119 260.844 276.703H260.769V275.856H259.997V282.625H260.806V280.168H260.882C261.159 280.705 261.743 281.02 262.468 281.02C263.758 281.02 264.601 279.98 264.601 278.393C264.601 276.797 263.763 275.766 262.468 275.766ZM262.275 280.29C261.362 280.29 260.783 279.556 260.783 278.393C260.783 277.226 261.362 276.496 262.28 276.496C263.207 276.496 263.763 277.207 263.763 278.393C263.763 279.579 263.207 280.29 262.275 280.29ZM267.284 281.02C267.962 281.02 268.518 280.723 268.847 280.182H268.923V280.931H269.695V277.456C269.695 276.402 269.003 275.766 267.764 275.766C266.682 275.766 265.881 276.303 265.773 277.117H266.592C266.705 276.717 267.129 276.486 267.736 276.486C268.494 276.486 268.885 276.83 268.885 277.456V277.918L267.421 278.007C266.239 278.078 265.571 278.6 265.571 279.509C265.571 280.436 266.3 281.02 267.284 281.02ZM267.435 280.309C266.846 280.309 266.409 280.008 266.409 279.49C266.409 278.982 266.748 278.713 267.52 278.661L268.885 278.572V279.038C268.885 279.763 268.268 280.309 267.435 280.309ZM273.282 282.88C274.666 282.88 275.542 282.155 275.542 281.02V275.856H274.77V276.661H274.694C274.402 276.115 273.776 275.766 273.065 275.766C271.761 275.766 270.937 276.797 270.937 278.318C270.937 279.838 271.752 280.855 273.065 280.855C273.762 280.855 274.336 280.54 274.657 279.98H274.732V280.978C274.732 281.726 274.19 282.173 273.282 282.173C272.552 282.173 272.1 281.905 272.011 281.491H271.154C271.276 282.329 272.058 282.88 273.282 282.88ZM273.244 280.14C272.303 280.14 271.775 279.424 271.775 278.318C271.775 277.211 272.303 276.496 273.244 276.496C274.181 276.496 274.751 277.211 274.751 278.318C274.751 279.424 274.186 280.14 273.244 280.14ZM280.428 279.617C280.216 280.064 279.774 280.304 279.119 280.304C278.258 280.304 277.698 279.669 277.655 278.666V278.628H281.304V278.318C281.304 276.741 280.471 275.766 279.101 275.766C277.707 275.766 276.813 276.802 276.813 278.398C276.813 280.003 277.693 281.02 279.101 281.02C280.212 281.02 281.003 280.483 281.238 279.617H280.428ZM279.091 276.482C279.896 276.482 280.433 277.075 280.452 277.974H277.655C277.717 277.075 278.281 276.482 279.091 276.482ZM285.635 274.542V275.856H284.816V276.534H285.635V279.612C285.635 280.582 286.054 280.968 287.099 280.968C287.259 280.968 287.414 280.949 287.575 280.921V280.239C287.424 280.253 287.344 280.257 287.198 280.257C286.671 280.257 286.445 280.003 286.445 279.405V276.534H287.575V275.856H286.445V274.542H285.635ZM290.809 281.02C292.254 281.02 293.149 280.022 293.149 278.393C293.149 276.759 292.254 275.766 290.809 275.766C289.363 275.766 288.469 276.759 288.469 278.393C288.469 280.022 289.363 281.02 290.809 281.02ZM290.809 280.29C289.848 280.29 289.307 279.594 289.307 278.393C289.307 277.188 289.848 276.496 290.809 276.496C291.769 276.496 292.311 277.188 292.311 278.393C292.311 279.594 291.769 280.29 290.809 280.29ZM298.553 281.02C299.231 281.02 299.786 280.723 300.116 280.182H300.191V280.931H300.963V277.456C300.963 276.402 300.271 275.766 299.033 275.766C297.95 275.766 297.15 276.303 297.042 277.117H297.861C297.974 276.717 298.398 276.486 299.005 276.486C299.763 276.486 300.154 276.83 300.154 277.456V277.918L298.69 278.007C297.508 278.078 296.839 278.6 296.839 279.509C296.839 280.436 297.569 281.02 298.553 281.02ZM298.704 280.309C298.115 280.309 297.677 280.008 297.677 279.49C297.677 278.982 298.016 278.713 298.788 278.661L300.154 278.572V279.038C300.154 279.763 299.537 280.309 298.704 280.309ZM304.339 281.02C305.04 281.02 305.643 280.686 305.963 280.121H306.038V280.931H306.81V273.841H306.001V276.656H305.93C305.643 276.1 305.045 275.766 304.339 275.766C303.049 275.766 302.206 276.802 302.206 278.393C302.206 279.989 303.039 281.02 304.339 281.02ZM304.527 276.496C305.445 276.496 306.019 277.23 306.019 278.393C306.019 279.565 305.45 280.29 304.527 280.29C303.6 280.29 303.044 279.579 303.044 278.393C303.044 277.211 303.604 276.496 304.527 276.496ZM310.261 281.02C310.963 281.02 311.565 280.686 311.885 280.121H311.961V280.931H312.733V273.841H311.923V276.656H311.852C311.565 276.1 310.967 275.766 310.261 275.766C308.971 275.766 308.129 276.802 308.129 278.393C308.129 279.989 308.962 281.02 310.261 281.02ZM310.449 276.496C311.367 276.496 311.942 277.23 311.942 278.393C311.942 279.565 311.372 280.29 310.449 280.29C309.522 280.29 308.966 279.579 308.966 278.393C308.966 277.211 309.527 276.496 310.449 276.496ZM182.079 293.02C182.757 293.02 183.312 292.723 183.642 292.182H183.717V292.931H184.489V289.456C184.489 288.402 183.797 287.766 182.559 287.766C181.476 287.766 180.676 288.303 180.568 289.117H181.387C181.5 288.717 181.924 288.486 182.531 288.486C183.289 288.486 183.68 288.83 183.68 289.456V289.918L182.216 290.007C181.034 290.078 180.365 290.6 180.365 291.509C180.365 292.436 181.095 293.02 182.079 293.02ZM182.23 292.309C181.641 292.309 181.203 292.008 181.203 291.49C181.203 290.982 181.542 290.713 182.314 290.661L183.68 290.572V291.038C183.68 291.763 183.063 292.309 182.23 292.309ZM191.179 287.766C190.487 287.766 189.88 288.119 189.555 288.703H189.48V287.856H188.707V294.625H189.517V292.168H189.593C189.87 292.705 190.454 293.02 191.179 293.02C192.469 293.02 193.312 291.98 193.312 290.393C193.312 288.797 192.474 287.766 191.179 287.766ZM190.986 292.29C190.073 292.29 189.494 291.556 189.494 290.393C189.494 289.226 190.073 288.496 190.991 288.496C191.918 288.496 192.474 289.207 192.474 290.393C192.474 291.579 191.918 292.29 190.986 292.29ZM194.63 292.931H195.44V289.927C195.44 289.07 195.939 288.496 196.847 288.496C197.615 288.496 198.019 288.943 198.019 289.842V292.931H198.829V289.645C198.829 288.453 198.151 287.766 197.078 287.766C196.301 287.766 195.769 288.096 195.515 288.656H195.44V285.841H194.63V292.931ZM202.393 293.02C203.838 293.02 204.733 292.022 204.733 290.393C204.733 288.759 203.838 287.766 202.393 287.766C200.948 287.766 200.053 288.759 200.053 290.393C200.053 292.022 200.948 293.02 202.393 293.02ZM202.393 292.29C201.432 292.29 200.891 291.594 200.891 290.393C200.891 289.188 201.432 288.496 202.393 288.496C203.353 288.496 203.895 289.188 203.895 290.393C203.895 291.594 203.353 292.29 202.393 292.29ZM206.004 292.931H206.813V289.927C206.813 289.037 207.336 288.496 208.146 288.496C208.955 288.496 209.341 288.929 209.341 289.842V292.931H210.151V289.645C210.151 288.439 209.516 287.766 208.376 287.766C207.6 287.766 207.105 288.096 206.851 288.656H206.776V287.856H206.004V292.931ZM214.995 291.617C214.784 292.064 214.341 292.304 213.687 292.304C212.825 292.304 212.265 291.669 212.223 290.666V290.628H215.871V290.318C215.871 288.741 215.038 287.766 213.668 287.766C212.274 287.766 211.38 288.802 211.38 290.398C211.38 292.003 212.26 293.02 213.668 293.02C214.779 293.02 215.57 292.483 215.805 291.617H214.995ZM213.658 288.482C214.463 288.482 215 289.075 215.019 289.974H212.223C212.284 289.075 212.849 288.482 213.658 288.482ZM219.863 292.931H220.673V289.927C220.673 289.037 221.196 288.496 222.005 288.496C222.815 288.496 223.201 288.929 223.201 289.842V292.931H224.011V289.645C224.011 288.439 223.375 287.766 222.236 287.766C221.459 287.766 220.965 288.096 220.711 288.656H220.635V287.856H219.863V292.931ZM229.599 287.856H228.789V290.859C228.789 291.749 228.3 292.281 227.405 292.281C226.595 292.281 226.256 291.857 226.256 290.944V287.856H225.447V291.142C225.447 292.342 226.04 293.02 227.179 293.02C227.956 293.02 228.497 292.7 228.751 292.135H228.827V292.931H229.599V287.856ZM231.124 292.931H231.934V289.786C231.934 289.07 232.447 288.496 233.111 288.496C233.751 288.496 234.17 288.882 234.17 289.484V292.931H234.98V289.668C234.98 289.023 235.451 288.496 236.157 288.496C236.872 288.496 237.225 288.863 237.225 289.612V292.931H238.035V289.423C238.035 288.359 237.456 287.766 236.42 287.766C235.719 287.766 235.14 288.119 234.867 288.656H234.791C234.556 288.129 234.076 287.766 233.389 287.766C232.711 287.766 232.202 288.091 231.972 288.656H231.896V287.856H231.124V292.931ZM242.037 293.02C243.322 293.02 244.165 291.98 244.165 290.393C244.165 288.797 243.327 287.766 242.037 287.766C241.34 287.766 240.723 288.11 240.445 288.656H240.37V285.841H239.56V292.931H240.332V292.121H240.408C240.728 292.686 241.331 293.02 242.037 293.02ZM241.848 288.496C242.776 288.496 243.327 289.207 243.327 290.393C243.327 291.579 242.776 292.29 241.848 292.29C240.926 292.29 240.351 291.565 240.351 290.393C240.351 289.221 240.926 288.496 241.848 288.496ZM248.797 291.617C248.585 292.064 248.143 292.304 247.488 292.304C246.627 292.304 246.066 291.669 246.024 290.666V290.628H249.673V290.318C249.673 288.741 248.839 287.766 247.469 287.766C246.076 287.766 245.181 288.802 245.181 290.398C245.181 292.003 246.062 293.02 247.469 293.02C248.58 293.02 249.371 292.483 249.607 291.617H248.797ZM247.46 288.482C248.265 288.482 248.802 289.075 248.82 289.974H246.024C246.085 289.075 246.65 288.482 247.46 288.482ZM250.944 292.931H251.753V289.786C251.753 289.07 252.314 288.552 253.086 288.552C253.246 288.552 253.538 288.581 253.604 288.599V287.79C253.5 287.776 253.331 287.766 253.199 287.766C252.525 287.766 251.942 288.115 251.791 288.609H251.716V287.856H250.944V292.931ZM254.672 292.978C255.011 292.978 255.284 292.7 255.284 292.366C255.284 292.027 255.011 291.754 254.672 291.754C254.338 291.754 254.06 292.027 254.06 292.366C254.06 292.7 254.338 292.978 254.672 292.978Z" fill="black"/>
</g>
<rect x="106.421" y="25.4213" width="223.128" height="486.46" rx="20.2719" stroke="black" stroke-width="2.84267"/>
</g>
<defs>
<clipPath id="clip0_1444_14861">
<rect width="437" height="320" fill="white"/>
</clipPath>
<clipPath id="clip1_1444_14861">
<rect x="105" y="24" width="225.971" height="489.303" rx="21.6932" fill="white"/>
</clipPath>
<clipPath id="clip2_1444_14861">
<rect width="32.5398" height="10.8466" fill="white" transform="translate(117.654 31.8336)"/>
</clipPath>
</defs>
</svg>
