<svg width="280" height="320" viewBox="0 0 280 320" fill="none" xmlns="http://www.w3.org/2000/svg">
<ellipse cx="139.827" cy="197.389" rx="45.8267" ry="8.60843" fill="#111111"/>
<path d="M185.25 195.867C185.25 196.161 185.098 196.542 184.599 197.009C184.101 197.476 183.324 197.961 182.255 198.446C180.121 199.413 176.985 200.302 173.052 201.056C165.199 202.561 154.317 203.497 142.276 203.497C130.234 203.497 119.352 202.561 111.499 201.056C107.566 200.302 104.43 199.413 102.296 198.446C101.227 197.961 100.45 197.476 99.9518 197.009C99.453 196.542 99.3008 196.161 99.3008 195.867C99.3008 195.574 99.453 195.193 99.9518 194.726C100.45 194.259 101.227 193.773 102.296 193.289C104.43 192.322 107.566 191.432 111.499 190.679C119.352 189.174 130.234 188.238 142.276 188.238C154.317 188.238 165.199 189.174 173.052 190.679C176.985 191.432 180.121 192.322 182.255 193.289C183.324 193.773 184.101 194.259 184.599 194.726C185.098 195.193 185.25 195.574 185.25 195.867Z" fill="white" stroke="#111111" stroke-width="1.5"/>
<path d="M165.857 190.244C165.857 190.57 165.551 191.119 164.37 191.778C163.253 192.402 161.586 192.989 159.461 193.49C155.224 194.491 149.332 195.117 142.797 195.117C136.263 195.117 130.371 194.491 126.134 193.49C124.009 192.989 122.342 192.402 121.224 191.778C120.044 191.119 119.738 190.57 119.738 190.244C119.738 190.132 119.714 189.269 119.673 187.811C119.519 182.222 119.123 167.896 118.903 153.638C118.763 144.632 118.694 135.642 118.798 128.852C118.85 125.455 118.946 122.621 119.096 120.617C119.172 119.611 119.26 118.835 119.358 118.308C119.397 118.099 119.435 117.947 119.467 117.845C120.411 117.517 121.731 117.274 123.347 117.103C125.075 116.919 127.092 116.822 129.26 116.775C132.127 116.712 135.223 116.737 138.237 116.761C139.793 116.774 141.327 116.786 142.797 116.786C144.308 116.786 145.825 116.773 147.322 116.76C150.106 116.736 152.824 116.713 155.32 116.775C159.051 116.867 162.142 117.149 164.113 117.847C164.149 117.951 164.192 118.108 164.239 118.327C164.351 118.854 164.46 119.631 164.563 120.637C164.768 122.642 164.942 125.476 165.089 128.873C165.383 135.663 165.566 144.653 165.68 153.659C165.894 170.606 165.862 187.578 165.857 189.97C165.857 190.119 165.857 190.212 165.857 190.244Z" fill="white" stroke="#111111" stroke-width="1.5"/>
<path d="M185.25 115.38C185.25 115.673 185.098 116.054 184.599 116.521C184.101 116.988 183.324 117.474 182.255 117.958C180.121 118.925 176.985 119.815 173.052 120.568C165.199 122.073 154.317 123.009 142.276 123.009C130.234 123.009 119.352 122.073 111.499 120.568C107.566 119.815 104.43 118.925 102.296 117.958C101.227 117.474 100.45 116.988 99.9518 116.521C99.453 116.054 99.3008 115.673 99.3008 115.38C99.3008 115.086 99.453 114.705 99.9518 114.238C100.45 113.771 101.227 113.286 102.296 112.801C104.43 111.834 107.566 110.945 111.499 110.191C119.352 108.686 130.234 107.75 142.276 107.75C154.317 107.75 165.199 108.686 173.052 110.191C176.985 110.945 180.121 111.834 182.255 112.801C183.324 113.286 184.101 113.771 184.599 114.238C185.098 114.705 185.25 115.086 185.25 115.38Z" fill="white" stroke="#111111" stroke-width="1.5"/>
<path d="M127.72 143.33C119.699 142.249 116.579 147.17 115.456 150.221C113.313 154.852 116.349 158.316 118.135 158.463C117.242 154.677 119.489 149.339 127.72 149.339C140.186 149.339 156.253 144.432 159.816 143.33C163.379 142.227 163.948 142.502 166.058 141.758C167.5 141.25 169.622 138.175 168.296 135.97C167.235 134.206 163.61 135.97 159.816 137.32C153.132 139.7 135.741 144.41 127.72 143.33Z" fill="white" stroke="#111111" stroke-width="1.5"/>
<path d="M134.296 173.146C127.048 176.63 121.5 175.857 118.509 175.857C116.25 175.857 114.861 181.457 117.446 182.251C120.678 183.244 132.693 181.121 137.389 178.365C142.084 175.608 155.75 173.982 158.63 173.982C161.431 173.982 165.5 175.277 167.524 175.277C169.329 175.277 168.25 169.75 166.696 168.791C166.25 168.516 162.5 168.791 159.901 168.791C157.591 168.791 143.356 168.791 134.296 173.146Z" fill="white" stroke="#111111" stroke-width="1.5"/>
<path d="M164.457 122.353C148.348 126.697 127.471 126.993 119.047 126.598L119.627 121.747C133.018 123.841 155.093 123.024 164.457 122.353Z" fill="#111111"/>
<ellipse cx="142.521" cy="114.262" rx="12.9393" ry="1.88309" fill="#111111"/>
<path d="M181.113 206.223C181.113 193.956 171.514 187.621 166.392 185.827L166.392 189.966C177.515 198.244 176.5 204.5 175.629 207.086C173.34 213.887 158.863 218.697 154.384 221.346C148.73 224.008 151.802 227.382 153.687 226.964C155.572 226.546 164.158 222.157 172.536 217.977C179.237 214.633 181.046 208.748 181.113 206.223Z" fill="white" stroke="#111111" stroke-width="1.5"/>
</svg>
