<svg width="280" height="320" viewBox="0 0 280 320" fill="none" xmlns="http://www.w3.org/2000/svg">
<ellipse cx="136.5" cy="212.25" rx="39.5" ry="5.25" fill="#111111"/>
<path d="M96.8041 125.798C94.6761 129.644 95.5493 135.116 96.5652 138.425C96.8596 139.384 97.7643 140.007 98.7638 139.92C102.593 139.588 108.696 137.919 111.561 132.973C115.32 126.6 113.759 120.258 112.055 116.942C111.645 116.145 110.763 115.726 109.886 115.908C105.204 116.882 99.6485 120.657 96.8041 125.798Z" fill="white" stroke="#111111" stroke-width="1.5"/>
<path d="M183 172.5H122.5L129.686 213H175.16L183 172.5Z" fill="white"/>
<rect x="115.25" y="162.75" width="74.5" height="10" rx="1.75" fill="white" stroke="#111111" stroke-width="1.5"/>
<path d="M122.5 172.92L129.353 211.853C129.563 213.049 130.601 213.92 131.815 213.92H173.808C175.013 213.92 176.046 213.061 176.266 211.876L183.5 172.92" stroke="#111111" stroke-width="1.5" stroke-linejoin="round"/>
<path d="M139.359 134.902C151.826 144.236 161.874 140.446 166.704 136.034C167.769 135.062 167.477 133.398 166.218 132.696C155.091 126.497 144.981 128.584 139.548 131.389C138.154 132.109 138.104 133.962 139.359 134.902Z" fill="white" stroke="#111111" stroke-width="1.5" stroke-linejoin="round"/>
<path d="M149.173 133.27C148.77 133.175 148.366 133.424 148.27 133.827C148.175 134.23 148.424 134.634 148.827 134.73L149.173 133.27ZM148.827 134.73C150.684 135.17 153.793 135.691 157.133 135.836C160.457 135.98 164.096 135.756 166.963 134.645L166.421 133.247C163.843 134.245 160.451 134.478 157.198 134.337C153.96 134.197 150.945 133.69 149.173 133.27L148.827 134.73Z" fill="#111111"/>
<path d="M99.812 135.602C99.7479 136.011 100.028 136.395 100.437 136.459C100.846 136.523 101.23 136.244 101.294 135.834L99.812 135.602ZM101.294 135.834C101.566 134.097 102.479 130.921 104.127 127.408C105.772 123.9 108.128 120.108 111.256 117.103L110.217 116.021C106.916 119.192 104.465 123.156 102.769 126.771C101.074 130.383 100.111 133.696 99.812 135.602L101.294 135.834Z" fill="#111111"/>
<path d="M183 172.42H121.5L122.509 176.92L183 174.029V172.42Z" fill="#111111"/>
<path d="M111 115.938C117.521 109.93 133.32 101.168 145.86 102.67C161.769 104.576 167.177 118.942 167.93 129.205C168.829 141.472 160.908 155.49 155.39 163" stroke="#111111" stroke-width="1.5"/>
</svg>
