<svg width="280" height="320" viewBox="0 0 280 320" fill="none" xmlns="http://www.w3.org/2000/svg">
<rect width="280" height="320" fill="white"/>
<path d="M65.2626 180.448C67.0362 179.497 69.0172 179 71.0294 179H154.471C156.483 179 158.464 179.497 160.237 180.448V180.448C161.481 181.114 161.007 183 159.597 183H65.9034C64.4926 183 64.0192 181.114 65.2626 180.448V180.448Z" fill="#111111"/>
<rect x="70.75" y="64.75" width="84.5" height="9" rx="3.47726" fill="white" stroke="#111111" stroke-width="1.5"/>
<mask id="path-3-inside-1_1444_14881" fill="white">
<path fill-rule="evenodd" clip-rule="evenodd" d="M82.8559 73C79.7707 77.3951 78 82.5232 78 88C78 101.822 89.2776 113.423 104.5 116.624V128.456C89.2776 131.657 78 143.258 78 157.08C78 162.557 79.7707 167.685 82.8559 172.08L143.144 172.08C146.229 167.685 148 162.557 148 157.08C148 143.258 136.722 131.657 121.5 128.456V116.624C136.722 113.423 148 101.822 148 88C148 82.5232 146.229 77.3951 143.144 73H82.8559Z"/>
</mask>
<path d="M82.8559 73V71.5H82.0762L81.6282 72.1382L82.8559 73ZM104.5 116.624H106V115.407L104.809 115.156L104.5 116.624ZM104.5 128.456L104.809 129.924L106 129.673V128.456H104.5ZM78 157.08L76.5 157.08L76.5 157.08L78 157.08ZM82.8559 172.08L81.6282 172.942L82.0762 173.58L82.8559 173.58L82.8559 172.08ZM143.144 172.08L143.144 173.58L143.924 173.58L144.372 172.942L143.144 172.08ZM121.5 128.456H120V129.673L121.191 129.924L121.5 128.456ZM121.5 116.624L121.191 115.156L120 115.407V116.624H121.5ZM143.144 73L144.372 72.1382L143.924 71.5H143.144V73ZM79.5 88C79.5 82.8564 81.1609 78.0255 84.0836 73.8618L81.6282 72.1382C78.3805 76.7647 76.5 82.1901 76.5 88H79.5ZM104.809 115.156C90.0904 112.061 79.5 100.934 79.5 88H76.5C76.5 102.709 88.4647 114.785 104.191 118.092L104.809 115.156ZM106 128.456V116.624H103V128.456H106ZM79.5 157.08C79.5 144.145 90.0904 133.019 104.809 129.924L104.191 126.988C88.4647 130.295 76.5 142.371 76.5 157.08L79.5 157.08ZM84.0836 171.218C81.1609 167.054 79.5 162.223 79.5 157.08L76.5 157.08C76.5 162.89 78.3805 168.315 81.6282 172.942L84.0836 171.218ZM143.144 170.58L82.8559 170.58L82.8559 173.58L143.144 173.58L143.144 170.58ZM146.5 157.08C146.5 162.223 144.839 167.054 141.916 171.218L144.372 172.942C147.619 168.315 149.5 162.89 149.5 157.08H146.5ZM121.191 129.924C135.91 133.019 146.5 144.145 146.5 157.08H149.5C149.5 142.371 137.535 130.295 121.809 126.988L121.191 129.924ZM120 116.624V128.456H123V116.624H120ZM146.5 88C146.5 100.934 135.91 112.061 121.191 115.156L121.809 118.092C137.535 114.785 149.5 102.709 149.5 88H146.5ZM141.916 73.8618C144.839 78.0255 146.5 82.8564 146.5 88H149.5C149.5 82.1901 147.619 76.7647 144.372 72.1382L141.916 73.8618ZM82.8559 74.5H143.144V71.5H82.8559V74.5Z" fill="#111111" mask="url(#path-3-inside-1_1444_14881)"/>
<mask id="path-5-inside-2_1444_14881" fill="white">
<path fill-rule="evenodd" clip-rule="evenodd" d="M81.5001 86.432C81.5047 84.8876 82.6953 83.6376 84.2312 83.4751C88.5548 83.0177 94.159 83.1567 99 85.2501C108.25 89.2501 118 91.0001 124 89.2501C127.886 88.1168 135.546 86.9834 141.074 86.665C142.975 86.5554 144.523 88.1189 144.229 90.0008C142.196 103.009 128.989 113.05 113 113.05C95.603 113.05 81.5 101.163 81.5 86.5001C81.5 86.4774 81.5 86.4547 81.5001 86.432Z"/>
</mask>
<path fill-rule="evenodd" clip-rule="evenodd" d="M81.5001 86.432C81.5047 84.8876 82.6953 83.6376 84.2312 83.4751C88.5548 83.0177 94.159 83.1567 99 85.2501C108.25 89.2501 118 91.0001 124 89.2501C127.886 88.1168 135.546 86.9834 141.074 86.665C142.975 86.5554 144.523 88.1189 144.229 90.0008C142.196 103.009 128.989 113.05 113 113.05C95.603 113.05 81.5 101.163 81.5 86.5001C81.5 86.4774 81.5 86.4547 81.5001 86.432Z" fill="white"/>
<path d="M99 85.2501L99.5954 83.8733L99 85.2501ZM144.229 90.0008L142.747 89.7692L144.229 90.0008ZM99.5954 83.8733C94.42 81.6353 88.5221 81.5127 84.0733 81.9835L84.389 84.9668C88.5875 84.5226 93.898 84.6781 98.4046 86.6269L99.5954 83.8733ZM123.58 87.8101C120.883 88.5968 117.197 88.627 112.964 87.9265C108.756 87.2302 104.124 85.8314 99.5954 83.8733L98.4046 86.6269C103.126 88.6688 107.994 90.145 112.474 90.8862C116.928 91.6233 121.117 91.6535 124.42 90.6901L123.58 87.8101ZM140.987 85.1675C135.394 85.4897 127.612 86.6341 123.58 87.8101L124.42 90.6901C128.159 89.5994 135.698 88.4772 141.16 88.1625L140.987 85.1675ZM113 114.55C129.543 114.55 143.537 104.14 145.711 90.2324L142.747 89.7692C140.854 101.878 128.435 111.55 113 111.55V114.55ZM80 86.5001C80 102.222 95.0251 114.55 113 114.55V111.55C96.1809 111.55 83 100.105 83 86.5001H80ZM80.0001 86.4275C80 86.4517 80 86.4759 80 86.5001H83C83 86.4789 83 86.4577 83.0001 86.4365L80.0001 86.4275ZM141.16 88.1625C142.198 88.1027 142.879 88.9195 142.747 89.7692L145.711 90.2324C146.166 87.3183 143.752 85.0081 140.987 85.1675L141.16 88.1625ZM84.0733 81.9835C81.8196 82.2219 80.0071 84.0745 80.0001 86.4275L83.0001 86.4365C83.0023 85.7007 83.571 85.0534 84.389 84.9668L84.0733 81.9835Z" fill="#111111" mask="url(#path-5-inside-2_1444_14881)"/>
<path d="M112.218 155C103.225 155 92.0782 164.525 87 171L138.5 171C134.037 164.34 121.562 155 112.218 155Z" fill="white" stroke="#111111" stroke-width="1.5"/>
<circle cx="113" cy="120.5" r="2.25" fill="white" stroke="#111111" stroke-width="1.5"/>
<path d="M114.75 130.25C114.75 131.078 114.078 131.75 113.25 131.75C112.422 131.75 111.75 131.078 111.75 130.25C111.75 129.422 112.422 128.75 113.25 128.75C114.078 128.75 114.75 129.422 114.75 130.25Z" fill="white" stroke="#111111" stroke-width="1.5"/>
<path d="M114.75 139.25C114.75 140.078 114.078 140.75 113.25 140.75C112.422 140.75 111.75 140.078 111.75 139.25C111.75 138.422 112.422 137.75 113.25 137.75C114.078 137.75 114.75 138.422 114.75 139.25Z" fill="white" stroke="#111111" stroke-width="1.5"/>
<rect x="70.75" y="171.25" width="84.5" height="9" rx="3.47726" fill="white" stroke="#111111" stroke-width="1.5"/>
<path fill-rule="evenodd" clip-rule="evenodd" d="M152.718 161.956C174.673 150.234 204.941 166.219 213.68 188.172C222.419 210.125 204.088 221.634 188.741 226.323C187.067 226.835 185.179 227.244 183.129 227.689C174.344 229.595 162.581 232.147 151.866 246.145C138.65 263.409 124.163 253.834 122.024 242.308C114.351 200.96 137.371 170.151 152.718 161.956ZM195.917 205.722C200.389 205.722 204.013 202.097 204.013 197.626C204.013 193.155 200.389 189.531 195.917 189.531C191.446 189.531 187.822 193.155 187.822 197.626C187.822 202.097 191.446 205.722 195.917 205.722Z" fill="#111111"/>
<path fill-rule="evenodd" clip-rule="evenodd" d="M155.275 161.956C177.23 150.234 207.497 166.219 216.237 188.172C224.976 210.125 206.645 221.634 191.298 226.323C189.623 226.835 187.735 227.244 185.685 227.689C176.9 229.595 165.137 232.147 154.422 246.145C141.207 263.409 126.72 253.834 124.581 242.308C116.907 200.96 139.928 170.151 155.275 161.956ZM198.474 205.722C202.945 205.722 206.57 202.097 206.57 197.626C206.57 193.155 202.945 189.531 198.474 189.531C194.003 189.531 190.378 193.155 190.378 197.626C190.378 202.097 194.003 205.722 198.474 205.722Z" fill="white"/>
<path d="M216.237 188.172L216.934 187.895L216.237 188.172ZM155.275 161.956L155.628 162.618L155.628 162.618L155.275 161.956ZM191.298 226.323L191.079 225.606L191.079 225.606L191.298 226.323ZM185.685 227.689L185.526 226.956L185.526 226.956L185.685 227.689ZM154.422 246.145L155.018 246.601L155.018 246.601L154.422 246.145ZM124.581 242.308L125.318 242.171L124.581 242.308ZM216.934 187.895C212.482 176.713 202.576 167.098 191.026 161.755C179.474 156.411 166.162 155.293 154.922 161.295L155.628 162.618C166.342 156.897 179.141 157.91 190.397 163.117C201.654 168.324 211.252 177.678 215.54 188.449L216.934 187.895ZM191.517 227.04C199.25 224.678 207.823 220.574 213.365 214.214C216.145 211.024 218.168 207.258 218.924 202.862C219.681 198.466 219.161 193.49 216.934 187.895L215.54 188.449C217.682 193.83 218.148 198.525 217.446 202.608C216.743 206.691 214.863 210.211 212.234 213.229C206.958 219.284 198.693 223.279 191.079 225.606L191.517 227.04ZM185.844 228.422C187.886 227.979 189.807 227.563 191.517 227.04L191.079 225.606C189.44 226.107 187.584 226.51 185.526 226.956L185.844 228.422ZM155.018 246.601C165.564 232.824 177.1 230.319 185.844 228.422L185.526 226.956C176.701 228.871 164.711 231.47 153.827 245.689L155.018 246.601ZM123.843 242.445C124.956 248.439 129.28 253.97 135.131 255.74C141.06 257.534 148.284 255.397 155.018 246.601L153.827 245.689C147.345 254.156 140.717 255.864 135.565 254.305C130.333 252.722 126.345 247.703 125.318 242.171L123.843 242.445ZM154.922 161.295C147.077 165.483 137.386 175.37 130.62 189.373C123.843 203.398 119.975 221.599 123.843 242.445L125.318 242.171C121.513 221.669 125.319 203.792 131.97 190.026C138.632 176.239 148.125 166.624 155.628 162.618L154.922 161.295ZM205.82 197.626C205.82 201.683 202.531 204.972 198.474 204.972V206.472C203.359 206.472 207.32 202.512 207.32 197.626H205.82ZM198.474 190.281C202.531 190.281 205.82 193.569 205.82 197.626H207.32C207.32 192.741 203.359 188.781 198.474 188.781V190.281ZM191.128 197.626C191.128 193.569 194.417 190.281 198.474 190.281V188.781C193.589 188.781 189.628 192.741 189.628 197.626H191.128ZM198.474 204.972C194.417 204.972 191.128 201.683 191.128 197.626H189.628C189.628 202.512 193.589 206.472 198.474 206.472V204.972Z" fill="#111111"/>
<path d="M132.247 228.818C130.255 223.754 135.057 221.033 138.6 221.093C144.368 221.505 145.156 224.531 145.255 226.07C145.355 227.609 145.992 229.8 141.947 233.707C137.903 237.613 134.737 235.148 132.247 228.818Z" stroke="#111111" stroke-width="1.5" stroke-linejoin="round"/>
<path d="M173.641 215.201C171.161 220.045 165.944 218.243 163.645 215.546C160.139 210.947 161.888 208.355 162.977 207.262C164.065 206.169 165.287 204.243 170.892 204.692C176.497 205.142 176.742 209.147 173.641 215.201Z" stroke="#111111" stroke-width="1.5" stroke-linejoin="round"/>
<path d="M134.67 209.375C132.945 206.931 138.183 202.756 141.516 201.814C145.957 200.56 150.593 205.567 150.88 207.632C151.178 209.77 147.383 214.079 142.381 211.038C137.379 207.997 136.825 212.43 134.67 209.375Z" stroke="#111111" stroke-width="1.5" stroke-linejoin="round"/>
<path d="M166.39 175.813C164.712 172.395 166.902 168.705 171.032 169C173.168 169.153 176.025 171.339 177.215 174.197C178.704 177.77 179.128 181.057 174.921 181.834C170.713 182.611 168.489 180.086 166.39 175.813Z" stroke="#111111" stroke-width="1.5" stroke-linejoin="round"/>
<path d="M152.883 190.383C149.815 191.235 145.639 190.876 145.124 188.532C142.781 182.567 153.22 181.076 158.759 183.206C164.298 185.337 164.724 197.054 158.759 197.267C152.794 197.48 156.717 189.318 152.883 190.383Z" stroke="#111111" stroke-width="1.5"/>
<path d="M202.66 232.152C179.272 236.21 168.156 247.819 163.267 254.352C163.021 254.681 163.271 255.138 163.682 255.124C190.236 254.206 206.252 231.529 202.66 232.152Z" fill="white" stroke="#111111" stroke-width="1.5" stroke-linejoin="round"/>
<rect x="-0.258035" y="1.02664" width="5.31739" height="7.87392" transform="matrix(0.515102 0.857129 -0.859148 0.511726 204.728 229.027)" fill="white" stroke="#111111" stroke-width="1.5"/>
<path d="M215.361 222.829C204.438 224.398 202.114 228.811 202.321 230.93C202.327 230.986 202.344 231.04 202.37 231.091L204.255 234.757C204.364 234.969 204.612 235.074 204.841 235.005C214.082 232.219 216.302 226.402 215.899 223.215C215.866 222.958 215.617 222.792 215.361 222.829Z" fill="white" stroke="#111111" stroke-width="1.5" stroke-linejoin="round"/>
<path d="M203.587 233.417C204.037 232.235 204.262 229.244 209.215 228.409C212.82 227.801 214.467 224.165 215.517 223.191" stroke="#111111" stroke-width="1.5"/>
</svg>
