<svg width="437" height="320" viewBox="0 0 437 320" fill="none" xmlns="http://www.w3.org/2000/svg">
<rect width="437" height="320" fill="white"/>
<path d="M196.213 60.96H241.307C243.126 60.96 244.6 62.4344 244.6 64.2533V66.7866C244.6 69.445 242.445 71.6 239.787 71.6H197.733C195.075 71.6 192.92 69.4449 192.92 66.7866V64.2533C192.92 62.4344 194.394 60.96 196.213 60.96Z" fill="white" stroke="#111111" stroke-width="1.52"/>
<path d="M219.52 71.3467V86.5467" stroke="#111111" stroke-width="1.52" stroke-linejoin="round"/>
<path d="M265.12 133.16C265.12 159.743 243.57 181.293 216.987 181.293C190.403 181.293 168.853 159.743 168.853 133.16C168.853 106.577 190.403 85.0267 216.987 85.0267C243.57 85.0267 265.12 106.577 265.12 133.16Z" fill="#111111"/>
<path d="M266.387 133.667C266.387 159.83 245.177 181.04 219.013 181.04C192.85 181.04 171.64 159.83 171.64 133.667C171.64 107.503 192.85 86.2933 219.013 86.2933C245.177 86.2933 266.387 107.503 266.387 133.667Z" fill="white" stroke="#111111" stroke-width="1.52"/>
<path d="M219.52 86.04L220.533 181.8" stroke="#111111" stroke-width="1.52" stroke-linejoin="round"/>
<path d="M230.16 88.0667C235.465 103.075 242.991 142.87 230.259 179.773" stroke="#111111" stroke-width="1.52" stroke-linejoin="round"/>
<path d="M207.36 88.0667C202.055 103.075 194.529 142.87 207.261 179.773" stroke="#111111" stroke-width="1.52" stroke-linejoin="round"/>
<path d="M245.36 94.1467C251.987 107.192 261.79 142.497 245.885 172.68" stroke="#111111" stroke-width="1.52" stroke-linejoin="round"/>
<path d="M192.16 94.1467C185.533 107.192 175.73 142.497 191.635 172.68" stroke="#111111" stroke-width="1.52" stroke-linejoin="round"/>
<path d="M171.387 133.667H266.133" stroke="#111111" stroke-width="1.52" stroke-linejoin="round"/>
<path d="M173.413 121C184.5 116.18 225.092 107.861 264.613 120.868" stroke="#111111" stroke-width="1.52" stroke-linejoin="round"/>
<path d="M173.413 146.333C184.5 151.154 225.092 159.472 264.613 146.465" stroke="#111111" stroke-width="1.52" stroke-linejoin="round"/>
<path d="M180 106.61C192.741 100.549 228.32 92.266 258.027 106.813" stroke="#111111" stroke-width="1.52" stroke-linejoin="round"/>
<path d="M180 160.723C192.741 166.785 228.32 175.067 258.027 160.52" stroke="#111111" stroke-width="1.52" stroke-linejoin="round"/>
<path d="M173.413 71.3467V82.4933" stroke="#111111" stroke-width="1.52" stroke-linecap="round" stroke-linejoin="round"/>
<path d="M276.267 115.933L271.134 125.828" stroke="#111111" stroke-width="1.52" stroke-linecap="round" stroke-linejoin="round"/>
<path d="M165.591 97.1866L160.458 107.081" stroke="#111111" stroke-width="1.52" stroke-linecap="round" stroke-linejoin="round"/>
<path d="M268.653 74.3867L269.206 85.5196" stroke="#111111" stroke-width="1.52" stroke-linecap="round" stroke-linejoin="round"/>
<path d="M178.987 76.4133L167.84 76.4133" stroke="#111111" stroke-width="1.52" stroke-linecap="round" stroke-linejoin="round"/>
<path d="M278.293 123.027L268.383 117.924" stroke="#111111" stroke-width="1.52" stroke-linecap="round" stroke-linejoin="round"/>
<path d="M168.123 104.787L158.213 99.6836" stroke="#111111" stroke-width="1.52" stroke-linecap="round" stroke-linejoin="round"/>
<path d="M274.227 79.4533L263.093 80.0025" stroke="#111111" stroke-width="1.52" stroke-linecap="round" stroke-linejoin="round"/>
<circle cx="159.987" cy="129.36" r="1.52" fill="white" stroke="#111111" stroke-width="1.52"/>
<circle cx="246.627" cy="79.2" r="1.52" fill="white" stroke="#111111" stroke-width="1.52"/>
<circle cx="266.893" cy="100.987" r="1.52" fill="white" stroke="#111111" stroke-width="1.52"/>
<circle cx="188.36" cy="83.76" r="1.52" fill="white" stroke="#111111" stroke-width="1.52"/>
<path d="M130.234 253V248.148L134.234 241.727H132.633L129.594 246.734H129.469L126.43 241.727H124.828L128.828 248.148V253H130.234ZM138.18 253.148C140.578 253.148 142.062 251.492 142.062 248.789C142.062 246.078 140.578 244.43 138.18 244.43C135.781 244.43 134.297 246.078 134.297 248.789C134.297 251.492 135.781 253.148 138.18 253.148ZM138.18 251.938C136.586 251.938 135.688 250.781 135.688 248.789C135.688 246.789 136.586 245.641 138.18 245.641C139.773 245.641 140.672 246.789 140.672 248.789C140.672 250.781 139.773 251.938 138.18 251.938ZM150.984 244.578H149.641V249.562C149.641 251.039 148.828 251.922 147.344 251.922C146 251.922 145.438 251.219 145.438 249.703V244.578H144.094V250.031C144.094 252.023 145.078 253.148 146.969 253.148C148.258 253.148 149.156 252.617 149.578 251.68H149.703V253H150.984V244.578ZM153.516 253H154.859V247.781C154.859 246.594 155.789 245.734 157.07 245.734C157.336 245.734 157.82 245.781 157.93 245.812V244.469C157.758 244.445 157.477 244.43 157.258 244.43C156.141 244.43 155.172 245.008 154.922 245.828H154.797V244.578H153.516V253ZM168.227 244.43C167.078 244.43 166.07 245.016 165.531 245.984H165.406V244.578H164.125V255.812H165.469V251.734H165.594C166.055 252.625 167.023 253.148 168.227 253.148C170.367 253.148 171.766 251.422 171.766 248.789C171.766 246.141 170.375 244.43 168.227 244.43ZM167.906 251.938C166.391 251.938 165.43 250.719 165.43 248.789C165.43 246.852 166.391 245.641 167.914 245.641C169.453 245.641 170.375 246.82 170.375 248.789C170.375 250.758 169.453 251.938 167.906 251.938ZM176.219 253.148C177.344 253.148 178.266 252.656 178.812 251.758H178.938V253H180.219V247.234C180.219 245.484 179.07 244.43 177.016 244.43C175.219 244.43 173.891 245.32 173.711 246.672H175.07C175.258 246.008 175.961 245.625 176.969 245.625C178.227 245.625 178.875 246.195 178.875 247.234V248L176.445 248.148C174.484 248.266 173.375 249.133 173.375 250.641C173.375 252.18 174.586 253.148 176.219 253.148ZM176.469 251.969C175.492 251.969 174.766 251.469 174.766 250.609C174.766 249.766 175.328 249.32 176.609 249.234L178.875 249.086V249.859C178.875 251.062 177.852 251.969 176.469 251.969ZM182.508 246.883C182.508 248.102 183.227 248.781 184.805 249.164L186.25 249.516C187.148 249.734 187.586 250.125 187.586 250.703C187.586 251.477 186.773 252.016 185.641 252.016C184.562 252.016 183.891 251.562 183.664 250.852H182.281C182.43 252.25 183.719 253.148 185.594 253.148C187.508 253.148 188.969 252.109 188.969 250.602C188.969 249.391 188.203 248.703 186.617 248.32L185.32 248.008C184.328 247.766 183.859 247.406 183.859 246.828C183.859 246.078 184.641 245.57 185.641 245.57C186.656 245.57 187.312 246.016 187.492 246.688H188.82C188.641 245.305 187.414 244.43 185.648 244.43C183.859 244.43 182.508 245.484 182.508 246.883ZM190.727 246.883C190.727 248.102 191.445 248.781 193.023 249.164L194.469 249.516C195.367 249.734 195.805 250.125 195.805 250.703C195.805 251.477 194.992 252.016 193.859 252.016C192.781 252.016 192.109 251.562 191.883 250.852H190.5C190.648 252.25 191.938 253.148 193.812 253.148C195.727 253.148 197.188 252.109 197.188 250.602C197.188 249.391 196.422 248.703 194.836 248.32L193.539 248.008C192.547 247.766 192.078 247.406 192.078 246.828C192.078 246.078 192.859 245.57 193.859 245.57C194.875 245.57 195.531 246.016 195.711 246.688H197.039C196.859 245.305 195.633 244.43 193.867 244.43C192.078 244.43 190.727 245.484 190.727 246.883ZM209.656 244.578H208.305L206.648 251.312H206.523L204.641 244.578H203.352L201.469 251.312H201.344L199.688 244.578H198.328L200.688 253H202.047L203.922 246.484H204.047L205.93 253H207.297L209.656 244.578ZM214.602 253.148C217 253.148 218.484 251.492 218.484 248.789C218.484 246.078 217 244.43 214.602 244.43C212.203 244.43 210.719 246.078 210.719 248.789C210.719 251.492 212.203 253.148 214.602 253.148ZM214.602 251.938C213.008 251.938 212.109 250.781 212.109 248.789C212.109 246.789 213.008 245.641 214.602 245.641C216.195 245.641 217.094 246.789 217.094 248.789C217.094 250.781 216.195 251.938 214.602 251.938ZM220.594 253H221.938V247.781C221.938 246.594 222.867 245.734 224.148 245.734C224.414 245.734 224.898 245.781 225.008 245.812V244.469C224.836 244.445 224.555 244.43 224.336 244.43C223.219 244.43 222.25 245.008 222 245.828H221.875V244.578H220.594V253ZM229.57 253.148C230.734 253.148 231.734 252.594 232.266 251.656H232.391V253H233.672V241.234H232.328V245.906H232.211C231.734 244.984 230.742 244.43 229.57 244.43C227.43 244.43 226.031 246.148 226.031 248.789C226.031 251.438 227.414 253.148 229.57 253.148ZM229.883 245.641C231.406 245.641 232.359 246.859 232.359 248.789C232.359 250.734 231.414 251.938 229.883 251.938C228.344 251.938 227.422 250.758 227.422 248.789C227.422 246.828 228.352 245.641 229.883 245.641ZM240.875 253H242.219V248.016C242.219 246.594 243.047 245.641 244.555 245.641C245.828 245.641 246.5 246.383 246.5 247.875V253H247.844V247.547C247.844 245.57 246.719 244.43 244.938 244.43C243.648 244.43 242.766 244.977 242.344 245.906H242.219V241.234H240.875V253ZM252.641 253.148C253.766 253.148 254.688 252.656 255.234 251.758H255.359V253H256.641V247.234C256.641 245.484 255.492 244.43 253.438 244.43C251.641 244.43 250.312 245.32 250.133 246.672H251.492C251.68 246.008 252.383 245.625 253.391 245.625C254.648 245.625 255.297 246.195 255.297 247.234V248L252.867 248.148C250.906 248.266 249.797 249.133 249.797 250.641C249.797 252.18 251.008 253.148 252.641 253.148ZM252.891 251.969C251.914 251.969 251.188 251.469 251.188 250.609C251.188 249.766 251.75 249.32 253.031 249.234L255.297 249.086V249.859C255.297 251.062 254.273 251.969 252.891 251.969ZM258.93 246.883C258.93 248.102 259.648 248.781 261.227 249.164L262.672 249.516C263.57 249.734 264.008 250.125 264.008 250.703C264.008 251.477 263.195 252.016 262.062 252.016C260.984 252.016 260.312 251.562 260.086 250.852H258.703C258.852 252.25 260.141 253.148 262.016 253.148C263.93 253.148 265.391 252.109 265.391 250.602C265.391 249.391 264.625 248.703 263.039 248.32L261.742 248.008C260.75 247.766 260.281 247.406 260.281 246.828C260.281 246.078 261.062 245.57 262.062 245.57C263.078 245.57 263.734 246.016 263.914 246.688H265.242C265.062 245.305 263.836 244.43 262.07 244.43C260.281 244.43 258.93 245.484 258.93 246.883ZM276.203 253.148C278.336 253.148 279.734 251.422 279.734 248.789C279.734 246.141 278.344 244.43 276.203 244.43C275.047 244.43 274.023 245 273.562 245.906H273.438V241.234H272.094V253H273.375V251.656H273.5C274.031 252.594 275.031 253.148 276.203 253.148ZM275.891 245.641C277.43 245.641 278.344 246.82 278.344 248.789C278.344 250.758 277.43 251.938 275.891 251.938C274.359 251.938 273.406 250.734 273.406 248.789C273.406 246.844 274.359 245.641 275.891 245.641ZM287.422 250.82C287.07 251.562 286.336 251.961 285.25 251.961C283.82 251.961 282.891 250.906 282.82 249.242V249.18H288.875V248.664C288.875 246.047 287.492 244.43 285.219 244.43C282.906 244.43 281.422 246.148 281.422 248.797C281.422 251.461 282.883 253.148 285.219 253.148C287.062 253.148 288.375 252.258 288.766 250.82H287.422ZM285.203 245.617C286.539 245.617 287.43 246.602 287.461 248.094H282.82C282.922 246.602 283.859 245.617 285.203 245.617ZM296.562 250.82C296.211 251.562 295.477 251.961 294.391 251.961C292.961 251.961 292.031 250.906 291.961 249.242V249.18H298.016V248.664C298.016 246.047 296.633 244.43 294.359 244.43C292.047 244.43 290.562 246.148 290.562 248.797C290.562 251.461 292.023 253.148 294.359 253.148C296.203 253.148 297.516 252.258 297.906 250.82H296.562ZM294.344 245.617C295.68 245.617 296.57 246.602 296.602 248.094H291.961C292.062 246.602 293 245.617 294.344 245.617ZM300.125 253H301.469V248.016C301.469 246.539 302.336 245.641 303.68 245.641C305.023 245.641 305.664 246.359 305.664 247.875V253H307.008V247.547C307.008 245.547 305.953 244.43 304.062 244.43C302.773 244.43 301.953 244.977 301.531 245.906H301.406V244.578H300.125V253ZM146.203 265.883C146.203 267.102 146.922 267.781 148.5 268.164L149.945 268.516C150.844 268.734 151.281 269.125 151.281 269.703C151.281 270.477 150.469 271.016 149.336 271.016C148.258 271.016 147.586 270.562 147.359 269.852H145.977C146.125 271.25 147.414 272.148 149.289 272.148C151.203 272.148 152.664 271.109 152.664 269.602C152.664 268.391 151.898 267.703 150.312 267.32L149.016 267.008C148.023 266.766 147.555 266.406 147.555 265.828C147.555 265.078 148.336 264.57 149.336 264.57C150.352 264.57 151.008 265.016 151.188 265.688H152.516C152.336 264.305 151.109 263.43 149.344 263.43C147.555 263.43 146.203 264.484 146.203 265.883ZM161.586 263.578H160.242V268.562C160.242 270.039 159.43 270.922 157.945 270.922C156.602 270.922 156.039 270.219 156.039 268.703V263.578H154.695V269.031C154.695 271.023 155.68 272.148 157.57 272.148C158.859 272.148 159.758 271.617 160.18 270.68H160.305V272H161.586V263.578ZM171.086 266.156C170.852 264.656 169.602 263.43 167.555 263.43C165.195 263.43 163.695 265.133 163.695 267.758C163.695 270.438 165.203 272.148 167.562 272.148C169.586 272.148 170.844 271.008 171.086 269.461H169.727C169.477 270.414 168.688 270.938 167.555 270.938C166.055 270.938 165.086 269.703 165.086 267.758C165.086 265.852 166.039 264.641 167.555 264.641C168.766 264.641 169.508 265.32 169.727 266.156H171.086ZM180.039 266.156C179.805 264.656 178.555 263.43 176.508 263.43C174.148 263.43 172.648 265.133 172.648 267.758C172.648 270.438 174.156 272.148 176.516 272.148C178.539 272.148 179.797 271.008 180.039 269.461H178.68C178.43 270.414 177.641 270.938 176.508 270.938C175.008 270.938 174.039 269.703 174.039 267.758C174.039 265.852 174.992 264.641 176.508 264.641C177.719 264.641 178.461 265.32 178.68 266.156H180.039ZM187.602 269.82C187.25 270.562 186.516 270.961 185.43 270.961C184 270.961 183.07 269.906 183 268.242V268.18H189.055V267.664C189.055 265.047 187.672 263.43 185.398 263.43C183.086 263.43 181.602 265.148 181.602 267.797C181.602 270.461 183.062 272.148 185.398 272.148C187.242 272.148 188.555 271.258 188.945 269.82H187.602ZM185.383 264.617C186.719 264.617 187.609 265.602 187.641 267.094H183C183.102 265.602 184.039 264.617 185.383 264.617ZM190.969 265.883C190.969 267.102 191.688 267.781 193.266 268.164L194.711 268.516C195.609 268.734 196.047 269.125 196.047 269.703C196.047 270.477 195.234 271.016 194.102 271.016C193.023 271.016 192.352 270.562 192.125 269.852H190.742C190.891 271.25 192.18 272.148 194.055 272.148C195.969 272.148 197.43 271.109 197.43 269.602C197.43 268.391 196.664 267.703 195.078 267.32L193.781 267.008C192.789 266.766 192.32 266.406 192.32 265.828C192.32 265.078 193.102 264.57 194.102 264.57C195.117 264.57 195.773 265.016 195.953 265.688H197.281C197.102 264.305 195.875 263.43 194.109 263.43C192.32 263.43 190.969 264.484 190.969 265.883ZM199.188 265.883C199.188 267.102 199.906 267.781 201.484 268.164L202.93 268.516C203.828 268.734 204.266 269.125 204.266 269.703C204.266 270.477 203.453 271.016 202.32 271.016C201.242 271.016 200.57 270.562 200.344 269.852H198.961C199.109 271.25 200.398 272.148 202.273 272.148C204.188 272.148 205.648 271.109 205.648 269.602C205.648 268.391 204.883 267.703 203.297 267.32L202 267.008C201.008 266.766 200.539 266.406 200.539 265.828C200.539 265.078 201.32 264.57 202.32 264.57C203.336 264.57 203.992 265.016 204.172 265.688H205.5C205.32 264.305 204.094 263.43 202.328 263.43C200.539 263.43 199.188 264.484 199.188 265.883ZM208.32 272H209.664V264.703H211.594V263.578H209.664V262.68C209.664 261.758 210.07 261.289 211.039 261.289C211.281 261.289 211.508 261.297 211.672 261.328V260.234C211.391 260.18 211.094 260.156 210.766 260.156C209.164 260.156 208.32 260.961 208.32 262.641V263.578H206.922V264.703H208.32V272ZM220.367 263.578H219.023V268.562C219.023 270.039 218.211 270.922 216.727 270.922C215.383 270.922 214.82 270.219 214.82 268.703V263.578H213.477V269.031C213.477 271.023 214.461 272.148 216.352 272.148C217.641 272.148 218.539 271.617 218.961 270.68H219.086V272H220.367V263.578ZM222.977 272H224.32V260.234H222.977V272ZM227.008 272H228.352V260.234H227.008V272ZM231.68 275.047C233.172 275.047 233.844 274.469 234.562 272.516L237.852 263.578H236.422L234.117 270.508H233.992L231.68 263.578H230.227L233.344 272.008L233.188 272.508C232.836 273.523 232.414 273.891 231.641 273.891C231.453 273.891 231.242 273.883 231.078 273.852V275C231.266 275.031 231.5 275.047 231.68 275.047ZM243.969 265.883C243.969 267.102 244.688 267.781 246.266 268.164L247.711 268.516C248.609 268.734 249.047 269.125 249.047 269.703C249.047 270.477 248.234 271.016 247.102 271.016C246.023 271.016 245.352 270.562 245.125 269.852H243.742C243.891 271.25 245.18 272.148 247.055 272.148C248.969 272.148 250.43 271.109 250.43 269.602C250.43 268.391 249.664 267.703 248.078 267.32L246.781 267.008C245.789 266.766 245.32 266.406 245.32 265.828C245.32 265.078 246.102 264.57 247.102 264.57C248.117 264.57 248.773 265.016 248.953 265.688H250.281C250.102 264.305 248.875 263.43 247.109 263.43C245.32 263.43 243.969 264.484 243.969 265.883ZM254.883 272.148C256.008 272.148 256.93 271.656 257.477 270.758H257.602V272H258.883V266.234C258.883 264.484 257.734 263.43 255.68 263.43C253.883 263.43 252.555 264.32 252.375 265.672H253.734C253.922 265.008 254.625 264.625 255.633 264.625C256.891 264.625 257.539 265.195 257.539 266.234V267L255.109 267.148C253.148 267.266 252.039 268.133 252.039 269.641C252.039 271.18 253.25 272.148 254.883 272.148ZM255.133 270.969C254.156 270.969 253.43 270.469 253.43 269.609C253.43 268.766 253.992 268.32 255.273 268.234L257.539 268.086V268.859C257.539 270.062 256.516 270.969 255.133 270.969ZM267.93 263.578H266.492L264.188 270.516H264.062L261.758 263.578H260.32L263.438 272H264.812L267.93 263.578ZM274.992 269.82C274.641 270.562 273.906 270.961 272.82 270.961C271.391 270.961 270.461 269.906 270.391 268.242V268.18H276.445V267.664C276.445 265.047 275.062 263.43 272.789 263.43C270.477 263.43 268.992 265.148 268.992 267.797C268.992 270.461 270.453 272.148 272.789 272.148C274.633 272.148 275.945 271.258 276.336 269.82H274.992ZM272.773 264.617C274.109 264.617 275 265.602 275.031 267.094H270.391C270.492 265.602 271.43 264.617 272.773 264.617ZM281.672 272.148C282.836 272.148 283.836 271.594 284.367 270.656H284.492V272H285.773V260.234H284.43V264.906H284.312C283.836 263.984 282.844 263.43 281.672 263.43C279.531 263.43 278.133 265.148 278.133 267.789C278.133 270.438 279.516 272.148 281.672 272.148ZM281.984 264.641C283.508 264.641 284.461 265.859 284.461 267.789C284.461 269.734 283.516 270.938 281.984 270.938C280.445 270.938 279.523 269.758 279.523 267.789C279.523 265.828 280.453 264.641 281.984 264.641ZM289.492 272.078C290.055 272.078 290.508 271.617 290.508 271.062C290.508 270.5 290.055 270.047 289.492 270.047C288.938 270.047 288.477 270.5 288.477 271.062C288.477 271.617 288.938 272.078 289.492 272.078Z" fill="black"/>
<path d="M169.977 223.277C170.117 226.371 172.707 228.281 176.621 228.281C180.688 228.281 183.23 226.242 183.23 223.008C183.23 220.5 181.742 219.07 178.18 218.332L176.352 217.957C174.242 217.512 173.398 216.773 173.398 215.625C173.398 214.207 174.734 213.316 176.609 213.316C178.543 213.316 179.879 214.277 180.02 215.871H182.914C182.844 212.848 180.371 210.809 176.633 210.809C172.965 210.809 170.352 212.824 170.352 215.801C170.352 218.273 171.934 219.867 175.32 220.559L177.137 220.934C179.34 221.391 180.184 222.141 180.184 223.359C180.184 224.766 178.766 225.773 176.727 225.773C174.617 225.773 173.094 224.836 172.871 223.277H169.977ZM196.215 215.578H193.297V222.762C193.297 224.566 192.254 225.762 190.566 225.762C188.926 225.762 188.059 224.801 188.059 223.02V215.578H185.141V223.605C185.141 226.477 186.852 228.223 189.547 228.223C191.434 228.223 192.688 227.355 193.344 225.844H193.402V228H196.215V215.578ZM209.551 220.008C209.352 217.395 207.324 215.32 204.043 215.32C200.434 215.32 198.09 217.816 198.09 221.789C198.09 225.82 200.434 228.246 204.066 228.246C207.184 228.246 209.328 226.418 209.562 223.641H206.809C206.539 225.047 205.578 225.891 204.102 225.891C202.25 225.891 201.055 224.391 201.055 221.789C201.055 219.234 202.238 217.688 204.078 217.688C205.637 217.688 206.562 218.684 206.797 220.008H209.551ZM222.254 220.008C222.055 217.395 220.027 215.32 216.746 215.32C213.137 215.32 210.793 217.816 210.793 221.789C210.793 225.82 213.137 228.246 216.77 228.246C219.887 228.246 222.031 226.418 222.266 223.641H219.512C219.242 225.047 218.281 225.891 216.805 225.891C214.953 225.891 213.758 224.391 213.758 221.789C213.758 219.234 214.941 217.688 216.781 217.688C218.34 217.688 219.266 218.684 219.5 220.008H222.254ZM232.238 224.285C231.922 225.316 230.891 225.996 229.531 225.996C227.621 225.996 226.402 224.66 226.402 222.668V222.492H235.086V221.543C235.086 217.77 232.883 215.32 229.355 215.32C225.77 215.32 223.496 217.91 223.496 221.836C223.496 225.797 225.746 228.246 229.473 228.246C232.414 228.246 234.594 226.629 234.969 224.285H232.238ZM229.367 217.582C231.043 217.582 232.168 218.812 232.227 220.57H226.426C226.543 218.836 227.727 217.582 229.367 217.582ZM236.75 219.141C236.75 220.98 237.945 222.152 240.324 222.68L242.387 223.137C243.688 223.43 244.133 223.852 244.133 224.602C244.133 225.527 243.254 226.113 241.836 226.113C240.359 226.113 239.527 225.504 239.305 224.297H236.434C236.668 226.699 238.59 228.246 241.836 228.246C244.883 228.246 247.039 226.664 247.039 224.32C247.039 222.516 246.043 221.52 243.465 220.945L241.402 220.488C240.102 220.195 239.586 219.703 239.586 218.988C239.586 218.074 240.441 217.465 241.73 217.465C243.078 217.465 243.91 218.18 244.027 219.305H246.746C246.676 216.949 244.754 215.32 241.73 215.32C238.73 215.32 236.75 216.867 236.75 219.141ZM248.68 219.141C248.68 220.98 249.875 222.152 252.254 222.68L254.316 223.137C255.617 223.43 256.062 223.852 256.062 224.602C256.062 225.527 255.184 226.113 253.766 226.113C252.289 226.113 251.457 225.504 251.234 224.297H248.363C248.598 226.699 250.52 228.246 253.766 228.246C256.812 228.246 258.969 226.664 258.969 224.32C258.969 222.516 257.973 221.52 255.395 220.945L253.332 220.488C252.031 220.195 251.516 219.703 251.516 218.988C251.516 218.074 252.371 217.465 253.66 217.465C255.008 217.465 255.84 218.18 255.957 219.305H258.676C258.605 216.949 256.684 215.32 253.66 215.32C250.66 215.32 248.68 216.867 248.68 219.141ZM261.711 211.09L261.945 222.422H264.488L264.723 211.09H261.711ZM263.211 228.234C264.172 228.234 264.922 227.496 264.922 226.57C264.922 225.645 264.172 224.918 263.211 224.918C262.262 224.918 261.512 225.645 261.512 226.57C261.512 227.496 262.262 228.234 263.211 228.234Z" fill="black"/>
</svg>
