<svg width="280" height="320" viewBox="0 0 280 320" fill="none" xmlns="http://www.w3.org/2000/svg">
<path fill-rule="evenodd" clip-rule="evenodd" d="M106.897 124.019H84.5V149.747C96.6112 149.761 106.425 159.611 106.425 171.759C106.425 183.908 96.6112 193.758 84.5 193.771V219.5H106.892L106.892 219.474C106.892 207.317 116.719 197.462 128.842 197.462C140.965 197.462 150.792 207.317 150.792 219.474L150.792 219.5H173.182V193.712C184.543 192.874 193.5 183.366 193.5 171.759C193.5 160.153 184.543 150.645 173.182 149.807V124.019H150.787C150.525 112.09 140.8 102.5 128.842 102.5C116.884 102.5 107.159 112.09 106.897 124.019Z" fill="#111111"/>
<mask id="path-2-inside-1_1444_14887" fill="white">
<path fill-rule="evenodd" clip-rule="evenodd" d="M108.897 121.518H86.5V147.247C98.6112 147.261 108.425 157.111 108.425 169.26C108.425 181.408 98.6112 191.258 86.5 191.272V217H108.892L108.892 216.974C108.892 204.817 118.719 194.962 130.842 194.962C142.965 194.962 152.792 204.817 152.792 216.974L152.792 217H175.182V191.212C186.543 190.374 195.5 180.866 195.5 169.259C195.5 157.653 186.543 148.145 175.182 147.307V121.518H152.787C152.525 109.589 142.8 100 130.842 100C118.884 100 109.159 109.589 108.897 121.518Z"/>
</mask>
<path fill-rule="evenodd" clip-rule="evenodd" d="M108.897 121.518H86.5V147.247C98.6112 147.261 108.425 157.111 108.425 169.26C108.425 181.408 98.6112 191.258 86.5 191.272V217H108.892L108.892 216.974C108.892 204.817 118.719 194.962 130.842 194.962C142.965 194.962 152.792 204.817 152.792 216.974L152.792 217H175.182V191.212C186.543 190.374 195.5 180.866 195.5 169.259C195.5 157.653 186.543 148.145 175.182 147.307V121.518H152.787C152.525 109.589 142.8 100 130.842 100C118.884 100 109.159 109.589 108.897 121.518Z" fill="white"/>
<path d="M86.5 121.518V120.018H85V121.518H86.5ZM108.897 121.518V123.018H110.365L110.397 121.551L108.897 121.518ZM86.5 147.247H85V148.746L86.4983 148.747L86.5 147.247ZM86.5 191.272L86.4983 189.772L85 189.773V191.272H86.5ZM86.5 217H85V218.5H86.5V217ZM108.892 217V218.5H110.393L110.392 216.999L108.892 217ZM108.892 216.974L107.392 216.974L107.392 216.975L108.892 216.974ZM152.792 216.974L154.292 216.975V216.974H152.792ZM152.792 217L151.292 216.999L151.291 218.5H152.792V217ZM175.182 217V218.5H176.682V217H175.182ZM175.182 191.212L175.072 189.716L173.682 189.818V191.212H175.182ZM175.182 147.307H173.682V148.701L175.072 148.803L175.182 147.307ZM175.182 121.518H176.682V120.018H175.182V121.518ZM152.787 121.518L151.287 121.551L151.32 123.018H152.787V121.518ZM86.5 123.018H108.897V120.018H86.5V123.018ZM88 147.247V121.518H85V147.247H88ZM109.925 169.26C109.925 156.287 99.4445 145.762 86.5017 145.747L86.4983 148.747C97.7778 148.76 106.925 157.935 106.925 169.26H109.925ZM86.5017 192.772C99.4445 192.757 109.925 182.232 109.925 169.26H106.925C106.925 180.584 97.7778 189.759 86.4983 189.772L86.5017 192.772ZM88 217V191.272H85V217H88ZM108.892 215.5H86.5V218.5H108.892V215.5ZM107.392 216.975L107.392 217.001L110.392 216.999L110.392 216.973L107.392 216.975ZM130.842 193.462C117.887 193.462 107.392 203.993 107.392 216.974H110.392C110.392 205.642 119.552 196.462 130.842 196.462V193.462ZM154.292 216.974C154.292 203.993 143.797 193.462 130.842 193.462V196.462C142.132 196.462 151.292 205.642 151.292 216.974H154.292ZM154.292 217.001L154.292 216.975L151.292 216.973L151.292 216.999L154.292 217.001ZM175.182 215.5H152.792V218.5H175.182V215.5ZM173.682 191.212V217H176.682V191.212H173.682ZM175.293 192.708C187.434 191.812 197 181.654 197 169.259H194C194 180.078 185.651 188.936 175.072 189.716L175.293 192.708ZM197 169.259C197 156.865 187.434 146.706 175.293 145.811L175.072 148.803C185.651 149.583 194 158.441 194 169.259H197ZM173.682 121.518V147.307H176.682V121.518H173.682ZM152.787 123.018H175.182V120.018H152.787V123.018ZM154.287 121.485C154.007 108.747 143.622 98.5 130.842 98.5V101.5C141.979 101.5 151.043 110.432 151.287 121.551L154.287 121.485ZM130.842 98.5C118.063 98.5 107.677 108.747 107.398 121.485L110.397 121.551C110.641 110.432 119.705 101.5 130.842 101.5V98.5Z" fill="#111111" mask="url(#path-2-inside-1_1444_14887)"/>
<circle cx="126.75" cy="144.25" r="2.25" fill="#111111"/>
<circle cx="155.75" cy="144.25" r="2.25" fill="#111111"/>
<path d="M124 158C129.997 154.604 145.093 149.85 157.5 158" stroke="#111111" stroke-width="1.5" stroke-linecap="round"/>
</svg>
