<svg width="280" height="320" viewBox="0 0 280 320" fill="none" xmlns="http://www.w3.org/2000/svg">
<path d="M92.2626 216.948C94.0362 215.997 96.0172 215.5 98.0294 215.5H181.471C183.483 215.5 185.464 215.997 187.237 216.948V216.948C188.481 217.614 188.007 219.5 186.597 219.5H92.9034C91.4926 219.5 91.0192 217.614 92.2626 216.948V216.948Z" fill="#111111"/>
<rect x="97.75" y="101.25" width="84.5" height="9" rx="3.47726" fill="white" stroke="#111111" stroke-width="1.5"/>
<mask id="path-3-inside-1_1444_14889" fill="white">
<path fill-rule="evenodd" clip-rule="evenodd" d="M109.856 109.5C106.771 113.895 105 119.023 105 124.5C105 138.322 116.278 149.923 131.5 153.124V164.956C116.278 168.157 105 179.758 105 193.58C105 199.057 106.771 204.185 109.856 208.58L170.144 208.58C173.229 204.185 175 199.057 175 193.58C175 179.758 163.722 168.157 148.5 164.956V153.124C163.722 149.923 175 138.322 175 124.5C175 119.023 173.229 113.895 170.144 109.5H109.856Z"/>
</mask>
<path d="M109.856 109.5V108H109.076L108.628 108.638L109.856 109.5ZM131.5 153.124H133V151.907L131.809 151.656L131.5 153.124ZM131.5 164.956L131.809 166.424L133 166.173V164.956H131.5ZM105 193.58L103.5 193.58L103.5 193.58L105 193.58ZM109.856 208.58L108.628 209.442L109.076 210.08L109.856 210.08L109.856 208.58ZM170.144 208.58L170.144 210.08L170.924 210.08L171.372 209.442L170.144 208.58ZM148.5 164.956H147V166.173L148.191 166.424L148.5 164.956ZM148.5 153.124L148.191 151.656L147 151.907V153.124H148.5ZM170.144 109.5L171.372 108.638L170.924 108H170.144V109.5ZM106.5 124.5C106.5 119.356 108.161 114.525 111.084 110.362L108.628 108.638C105.381 113.265 103.5 118.69 103.5 124.5H106.5ZM131.809 151.656C117.09 148.561 106.5 137.434 106.5 124.5H103.5C103.5 139.209 115.465 151.285 131.191 154.592L131.809 151.656ZM133 164.956V153.124H130V164.956H133ZM106.5 193.58C106.5 180.645 117.09 169.519 131.809 166.424L131.191 163.488C115.465 166.795 103.5 178.871 103.5 193.58L106.5 193.58ZM111.084 207.718C108.161 203.554 106.5 198.723 106.5 193.58L103.5 193.58C103.5 199.39 105.381 204.815 108.628 209.442L111.084 207.718ZM170.144 207.08L109.856 207.08L109.856 210.08L170.144 210.08L170.144 207.08ZM173.5 193.58C173.5 198.723 171.839 203.554 168.916 207.718L171.372 209.442C174.619 204.815 176.5 199.39 176.5 193.58H173.5ZM148.191 166.424C162.91 169.519 173.5 180.645 173.5 193.58H176.5C176.5 178.871 164.535 166.795 148.809 163.488L148.191 166.424ZM147 153.124V164.956H150V153.124H147ZM173.5 124.5C173.5 137.434 162.91 148.561 148.191 151.656L148.809 154.592C164.535 151.285 176.5 139.209 176.5 124.5H173.5ZM168.916 110.362C171.839 114.525 173.5 119.356 173.5 124.5H176.5C176.5 118.69 174.619 113.265 171.372 108.638L168.916 110.362ZM109.856 111H170.144V108H109.856V111Z" fill="#111111" mask="url(#path-3-inside-1_1444_14889)"/>
<mask id="path-5-inside-2_1444_14889" fill="white">
<path fill-rule="evenodd" clip-rule="evenodd" d="M108.5 122.932C108.505 121.388 109.695 120.138 111.231 119.975C115.555 119.518 121.159 119.657 126 121.75C135.25 125.75 145 127.5 151 125.75C154.886 124.617 162.546 123.483 168.074 123.165C169.975 123.055 171.523 124.619 171.229 126.501C169.196 139.509 155.989 149.55 140 149.55C122.603 149.55 108.5 137.663 108.5 123C108.5 122.977 108.5 122.955 108.5 122.932Z"/>
</mask>
<path fill-rule="evenodd" clip-rule="evenodd" d="M108.5 122.932C108.505 121.388 109.695 120.138 111.231 119.975C115.555 119.518 121.159 119.657 126 121.75C135.25 125.75 145 127.5 151 125.75C154.886 124.617 162.546 123.483 168.074 123.165C169.975 123.055 171.523 124.619 171.229 126.501C169.196 139.509 155.989 149.55 140 149.55C122.603 149.55 108.5 137.663 108.5 123C108.5 122.977 108.5 122.955 108.5 122.932Z" fill="white"/>
<path d="M126 121.75L126.595 120.373L126 121.75ZM171.229 126.501L169.747 126.269L171.229 126.501ZM126.595 120.373C121.42 118.135 115.522 118.013 111.073 118.483L111.389 121.467C115.587 121.023 120.898 121.178 125.405 123.127L126.595 120.373ZM150.58 124.31C147.883 125.097 144.197 125.127 139.964 124.426C135.756 123.73 131.124 122.331 126.595 120.373L125.405 123.127C130.126 125.169 134.994 126.645 139.474 127.386C143.928 128.123 148.117 128.153 151.42 127.19L150.58 124.31ZM167.987 121.667C162.394 121.99 154.612 123.134 150.58 124.31L151.42 127.19C155.159 126.099 162.698 124.977 168.16 124.662L167.987 121.667ZM140 151.05C156.543 151.05 170.537 140.64 172.711 126.732L169.747 126.269C167.854 138.378 155.435 148.05 140 148.05V151.05ZM107 123C107 138.722 122.025 151.05 140 151.05V148.05C123.181 148.05 110 136.605 110 123H107ZM107 122.928C107 122.952 107 122.976 107 123H110C110 122.979 110 122.958 110 122.936L107 122.928ZM168.16 124.662C169.198 124.603 169.879 125.42 169.747 126.269L172.711 126.732C173.166 123.818 170.752 121.508 167.987 121.667L168.16 124.662ZM111.073 118.483C108.82 118.722 107.007 120.575 107 122.928L110 122.936C110.002 122.201 110.571 121.553 111.389 121.467L111.073 118.483Z" fill="#111111" mask="url(#path-5-inside-2_1444_14889)"/>
<path d="M139.218 191.5C130.225 191.5 119.078 201.025 114 207.5L165.5 207.5C161.037 200.84 148.562 191.5 139.218 191.5Z" fill="white" stroke="#111111" stroke-width="1.5"/>
<circle cx="140" cy="157" r="2.25" fill="white" stroke="#111111" stroke-width="1.5"/>
<path d="M141.75 166.75C141.75 167.578 141.078 168.25 140.25 168.25C139.422 168.25 138.75 167.578 138.75 166.75C138.75 165.922 139.422 165.25 140.25 165.25C141.078 165.25 141.75 165.922 141.75 166.75Z" fill="white" stroke="#111111" stroke-width="1.5"/>
<path d="M141.75 175.75C141.75 176.578 141.078 177.25 140.25 177.25C139.422 177.25 138.75 176.578 138.75 175.75C138.75 174.922 139.422 174.25 140.25 174.25C141.078 174.25 141.75 174.922 141.75 175.75Z" fill="white" stroke="#111111" stroke-width="1.5"/>
<rect x="97.75" y="207.75" width="84.5" height="9" rx="3.47726" fill="white" stroke="#111111" stroke-width="1.5"/>
</svg>
