<svg width="437" height="320" viewBox="0 0 437 320" fill="none" xmlns="http://www.w3.org/2000/svg">
<rect width="437" height="320" fill="white"/>
<path d="M103.781 213V208.148L107.781 201.727H106.18L103.141 206.734H103.016L99.9766 201.727H98.375L102.375 208.148V213H103.781ZM111.727 213.148C114.125 213.148 115.609 211.492 115.609 208.789C115.609 206.078 114.125 204.43 111.727 204.43C109.328 204.43 107.844 206.078 107.844 208.789C107.844 211.492 109.328 213.148 111.727 213.148ZM111.727 211.938C110.133 211.938 109.234 210.781 109.234 208.789C109.234 206.789 110.133 205.641 111.727 205.641C113.32 205.641 114.219 206.789 114.219 208.789C114.219 210.781 113.32 211.938 111.727 211.938ZM124.531 204.578H123.188V209.562C123.188 211.039 122.375 211.922 120.891 211.922C119.547 211.922 118.984 211.219 118.984 209.703V204.578H117.641V210.031C117.641 212.023 118.625 213.148 120.516 213.148C121.805 213.148 122.703 212.617 123.125 211.68H123.25V213H124.531V204.578ZM127.062 213H128.406V207.781C128.406 206.594 129.336 205.734 130.617 205.734C130.883 205.734 131.367 205.781 131.477 205.812V204.469C131.305 204.445 131.023 204.43 130.805 204.43C129.688 204.43 128.719 205.008 128.469 205.828H128.344V204.578H127.062V213ZM140.789 213.148C141.953 213.148 142.953 212.594 143.484 211.656H143.609V213H144.891V201.234H143.547V205.906H143.43C142.953 204.984 141.961 204.43 140.789 204.43C138.648 204.43 137.25 206.148 137.25 208.789C137.25 211.438 138.633 213.148 140.789 213.148ZM141.102 205.641C142.625 205.641 143.578 206.859 143.578 208.789C143.578 210.734 142.633 211.938 141.102 211.938C139.562 211.938 138.641 210.758 138.641 208.789C138.641 206.828 139.57 205.641 141.102 205.641ZM149.844 213.148C150.969 213.148 151.891 212.656 152.438 211.758H152.562V213H153.844V207.234C153.844 205.484 152.695 204.43 150.641 204.43C148.844 204.43 147.516 205.32 147.336 206.672H148.695C148.883 206.008 149.586 205.625 150.594 205.625C151.852 205.625 152.5 206.195 152.5 207.234V208L150.07 208.148C148.109 208.266 147 209.133 147 210.641C147 212.18 148.211 213.148 149.844 213.148ZM150.094 211.969C149.117 211.969 148.391 211.469 148.391 210.609C148.391 209.766 148.953 209.32 150.234 209.234L152.5 209.086V209.859C152.5 211.062 151.477 211.969 150.094 211.969ZM156.891 202.398V204.578H155.531V205.703H156.891V210.812C156.891 212.422 157.586 213.062 159.32 213.062C159.586 213.062 159.844 213.031 160.109 212.984V211.852C159.859 211.875 159.727 211.883 159.484 211.883C158.609 211.883 158.234 211.461 158.234 210.469V205.703H160.109V204.578H158.234V202.398H156.891ZM164.484 213.148C165.609 213.148 166.531 212.656 167.078 211.758H167.203V213H168.484V207.234C168.484 205.484 167.336 204.43 165.281 204.43C163.484 204.43 162.156 205.32 161.977 206.672H163.336C163.523 206.008 164.227 205.625 165.234 205.625C166.492 205.625 167.141 206.195 167.141 207.234V208L164.711 208.148C162.75 208.266 161.641 209.133 161.641 210.641C161.641 212.18 162.852 213.148 164.484 213.148ZM164.734 211.969C163.758 211.969 163.031 211.469 163.031 210.609C163.031 209.766 163.594 209.32 164.875 209.234L167.141 209.086V209.859C167.141 211.062 166.117 211.969 164.734 211.969ZM176.188 202.953C176.703 202.953 177.125 202.531 177.125 202.016C177.125 201.5 176.703 201.078 176.188 201.078C175.672 201.078 175.25 201.5 175.25 202.016C175.25 202.531 175.672 202.953 176.188 202.953ZM175.516 213H176.859V204.578H175.516V213ZM179.227 206.883C179.227 208.102 179.945 208.781 181.523 209.164L182.969 209.516C183.867 209.734 184.305 210.125 184.305 210.703C184.305 211.477 183.492 212.016 182.359 212.016C181.281 212.016 180.609 211.562 180.383 210.852H179C179.148 212.25 180.438 213.148 182.312 213.148C184.227 213.148 185.688 212.109 185.688 210.602C185.688 209.391 184.922 208.703 183.336 208.32L182.039 208.008C181.047 207.766 180.578 207.406 180.578 206.828C180.578 206.078 181.359 205.57 182.359 205.57C183.375 205.57 184.031 206.016 184.211 206.688H185.539C185.359 205.305 184.133 204.43 182.367 204.43C180.578 204.43 179.227 205.484 179.227 206.883ZM196.414 204.43C195.266 204.43 194.258 205.016 193.719 205.984H193.594V204.578H192.312V215.812H193.656V211.734H193.781C194.242 212.625 195.211 213.148 196.414 213.148C198.555 213.148 199.953 211.422 199.953 208.789C199.953 206.141 198.562 204.43 196.414 204.43ZM196.094 211.938C194.578 211.938 193.617 210.719 193.617 208.789C193.617 206.852 194.578 205.641 196.102 205.641C197.641 205.641 198.562 206.82 198.562 208.789C198.562 210.758 197.641 211.938 196.094 211.938ZM202.062 213H203.406V207.781C203.406 206.594 204.336 205.734 205.617 205.734C205.883 205.734 206.367 205.781 206.477 205.812V204.469C206.305 204.445 206.023 204.43 205.805 204.43C204.688 204.43 203.719 205.008 203.469 205.828H203.344V204.578H202.062V213ZM211.383 213.148C213.781 213.148 215.266 211.492 215.266 208.789C215.266 206.078 213.781 204.43 211.383 204.43C208.984 204.43 207.5 206.078 207.5 208.789C207.5 211.492 208.984 213.148 211.383 213.148ZM211.383 211.938C209.789 211.938 208.891 210.781 208.891 208.789C208.891 206.789 209.789 205.641 211.383 205.641C212.977 205.641 213.875 206.789 213.875 208.789C213.875 210.781 212.977 211.938 211.383 211.938ZM224.344 207.156C224.109 205.656 222.859 204.43 220.812 204.43C218.453 204.43 216.953 206.133 216.953 208.758C216.953 211.438 218.461 213.148 220.82 213.148C222.844 213.148 224.102 212.008 224.344 210.461H222.984C222.734 211.414 221.945 211.938 220.812 211.938C219.312 211.938 218.344 210.703 218.344 208.758C218.344 206.852 219.297 205.641 220.812 205.641C222.023 205.641 222.766 206.32 222.984 207.156H224.344ZM231.906 210.82C231.555 211.562 230.82 211.961 229.734 211.961C228.305 211.961 227.375 210.906 227.305 209.242V209.18H233.359V208.664C233.359 206.047 231.977 204.43 229.703 204.43C227.391 204.43 225.906 206.148 225.906 208.797C225.906 211.461 227.367 213.148 229.703 213.148C231.547 213.148 232.859 212.258 233.25 210.82H231.906ZM229.688 205.617C231.023 205.617 231.914 206.602 231.945 208.094H227.305C227.406 206.602 228.344 205.617 229.688 205.617ZM235.273 206.883C235.273 208.102 235.992 208.781 237.57 209.164L239.016 209.516C239.914 209.734 240.352 210.125 240.352 210.703C240.352 211.477 239.539 212.016 238.406 212.016C237.328 212.016 236.656 211.562 236.43 210.852H235.047C235.195 212.25 236.484 213.148 238.359 213.148C240.273 213.148 241.734 212.109 241.734 210.602C241.734 209.391 240.969 208.703 239.383 208.32L238.086 208.008C237.094 207.766 236.625 207.406 236.625 206.828C236.625 206.078 237.406 205.57 238.406 205.57C239.422 205.57 240.078 206.016 240.258 206.688H241.586C241.406 205.305 240.18 204.43 238.414 204.43C236.625 204.43 235.273 205.484 235.273 206.883ZM243.492 206.883C243.492 208.102 244.211 208.781 245.789 209.164L247.234 209.516C248.133 209.734 248.57 210.125 248.57 210.703C248.57 211.477 247.758 212.016 246.625 212.016C245.547 212.016 244.875 211.562 244.648 210.852H243.266C243.414 212.25 244.703 213.148 246.578 213.148C248.492 213.148 249.953 212.109 249.953 210.602C249.953 209.391 249.188 208.703 247.602 208.32L246.305 208.008C245.312 207.766 244.844 207.406 244.844 206.828C244.844 206.078 245.625 205.57 246.625 205.57C247.641 205.57 248.297 206.016 248.477 206.688H249.805C249.625 205.305 248.398 204.43 246.633 204.43C244.844 204.43 243.492 205.484 243.492 206.883ZM252.766 202.953C253.281 202.953 253.703 202.531 253.703 202.016C253.703 201.5 253.281 201.078 252.766 201.078C252.25 201.078 251.828 201.5 251.828 202.016C251.828 202.531 252.25 202.953 252.766 202.953ZM252.094 213H253.438V204.578H252.094V213ZM256 213H257.344V208.016C257.344 206.539 258.211 205.641 259.555 205.641C260.898 205.641 261.539 206.359 261.539 207.875V213H262.883V207.547C262.883 205.547 261.828 204.43 259.938 204.43C258.648 204.43 257.828 204.977 257.406 205.906H257.281V204.578H256V213ZM268.812 216.234C271.109 216.234 272.562 215.031 272.562 213.148V204.578H271.281V205.914H271.156C270.672 205.008 269.633 204.43 268.453 204.43C266.289 204.43 264.922 206.141 264.922 208.664C264.922 211.188 266.273 212.875 268.453 212.875C269.609 212.875 270.562 212.352 271.094 211.422H271.219V213.078C271.219 214.32 270.32 215.062 268.812 215.062C267.602 215.062 266.852 214.617 266.703 213.93H265.281C265.484 215.32 266.781 216.234 268.812 216.234ZM268.75 211.688C267.188 211.688 266.312 210.5 266.312 208.664C266.312 206.828 267.188 205.641 268.75 205.641C270.305 205.641 271.25 206.828 271.25 208.664C271.25 210.5 270.312 211.688 268.75 211.688ZM275.945 215.867L277.172 211.422H275.68L274.938 215.867H275.945ZM285.078 216.047C286.57 216.047 287.242 215.469 287.961 213.516L291.25 204.578H289.82L287.516 211.508H287.391L285.078 204.578H283.625L286.742 213.008L286.586 213.508C286.234 214.523 285.812 214.891 285.039 214.891C284.852 214.891 284.641 214.883 284.477 214.852V216C284.664 216.031 284.898 216.047 285.078 216.047ZM296.195 213.148C298.594 213.148 300.078 211.492 300.078 208.789C300.078 206.078 298.594 204.43 296.195 204.43C293.797 204.43 292.312 206.078 292.312 208.789C292.312 211.492 293.797 213.148 296.195 213.148ZM296.195 211.938C294.602 211.938 293.703 210.781 293.703 208.789C293.703 206.789 294.602 205.641 296.195 205.641C297.789 205.641 298.688 206.789 298.688 208.789C298.688 210.781 297.789 211.938 296.195 211.938ZM309 204.578H307.656V209.562C307.656 211.039 306.844 211.922 305.359 211.922C304.016 211.922 303.453 211.219 303.453 209.703V204.578H302.109V210.031C302.109 212.023 303.094 213.148 304.984 213.148C306.273 213.148 307.172 212.617 307.594 211.68H307.719V213H309V204.578ZM326.641 204.578H325.289L323.633 211.312H323.508L321.625 204.578H320.336L318.453 211.312H318.328L316.672 204.578H315.312L317.672 213H319.031L320.906 206.484H321.031L322.914 213H324.281L326.641 204.578ZM329.141 202.953C329.656 202.953 330.078 202.531 330.078 202.016C330.078 201.5 329.656 201.078 329.141 201.078C328.625 201.078 328.203 201.5 328.203 202.016C328.203 202.531 328.625 202.953 329.141 202.953ZM328.469 213H329.812V204.578H328.469V213ZM332.453 213H333.797V201.234H332.453V213ZM336.484 213H337.828V201.234H336.484V213ZM79.3516 232H80.6953V226.781C80.6953 225.594 81.625 224.734 82.9062 224.734C83.1719 224.734 83.6562 224.781 83.7656 224.812V223.469C83.5938 223.445 83.3125 223.43 83.0938 223.43C81.9766 223.43 81.0078 224.008 80.7578 224.828H80.6328V223.578H79.3516V232ZM90.7891 229.82C90.4375 230.562 89.7031 230.961 88.6172 230.961C87.1875 230.961 86.2578 229.906 86.1875 228.242V228.18H92.2422V227.664C92.2422 225.047 90.8594 223.43 88.5859 223.43C86.2734 223.43 84.7891 225.148 84.7891 227.797C84.7891 230.461 86.25 232.148 88.5859 232.148C90.4297 232.148 91.7422 231.258 92.1328 229.82H90.7891ZM88.5703 224.617C89.9062 224.617 90.7969 225.602 90.8281 227.094H86.1875C86.2891 225.602 87.2266 224.617 88.5703 224.617ZM101.32 226.156C101.086 224.656 99.8359 223.43 97.7891 223.43C95.4297 223.43 93.9297 225.133 93.9297 227.758C93.9297 230.438 95.4375 232.148 97.7969 232.148C99.8203 232.148 101.078 231.008 101.32 229.461H99.9609C99.7109 230.414 98.9219 230.938 97.7891 230.938C96.2891 230.938 95.3203 229.703 95.3203 227.758C95.3203 225.852 96.2734 224.641 97.7891 224.641C99 224.641 99.7422 225.32 99.9609 226.156H101.32ZM104.008 221.953C104.523 221.953 104.945 221.531 104.945 221.016C104.945 220.5 104.523 220.078 104.008 220.078C103.492 220.078 103.07 220.5 103.07 221.016C103.07 221.531 103.492 221.953 104.008 221.953ZM103.336 232H104.68V223.578H103.336V232ZM112.82 229.82C112.469 230.562 111.734 230.961 110.648 230.961C109.219 230.961 108.289 229.906 108.219 228.242V228.18H114.273V227.664C114.273 225.047 112.891 223.43 110.617 223.43C108.305 223.43 106.82 225.148 106.82 227.797C106.82 230.461 108.281 232.148 110.617 232.148C112.461 232.148 113.773 231.258 114.164 229.82H112.82ZM110.602 224.617C111.938 224.617 112.828 225.602 112.859 227.094H108.219C108.32 225.602 109.258 224.617 110.602 224.617ZM123.102 223.578H121.664L119.359 230.516H119.234L116.93 223.578H115.492L118.609 232H119.984L123.102 223.578ZM130.164 229.82C129.812 230.562 129.078 230.961 127.992 230.961C126.562 230.961 125.633 229.906 125.562 228.242V228.18H131.617V227.664C131.617 225.047 130.234 223.43 127.961 223.43C125.648 223.43 124.164 225.148 124.164 227.797C124.164 230.461 125.625 232.148 127.961 232.148C129.805 232.148 131.117 231.258 131.508 229.82H130.164ZM127.945 224.617C129.281 224.617 130.172 225.602 130.203 227.094H125.562C125.664 225.602 126.602 224.617 127.945 224.617ZM140.586 232.148C141.711 232.148 142.633 231.656 143.18 230.758H143.305V232H144.586V226.234C144.586 224.484 143.438 223.43 141.383 223.43C139.586 223.43 138.258 224.32 138.078 225.672H139.438C139.625 225.008 140.328 224.625 141.336 224.625C142.594 224.625 143.242 225.195 143.242 226.234V227L140.812 227.148C138.852 227.266 137.742 228.133 137.742 229.641C137.742 231.18 138.953 232.148 140.586 232.148ZM140.836 230.969C139.859 230.969 139.133 230.469 139.133 229.609C139.133 228.766 139.695 228.32 140.977 228.234L143.242 228.086V228.859C143.242 230.062 142.219 230.969 140.836 230.969ZM147.07 232H148.414V227.016C148.414 225.539 149.281 224.641 150.625 224.641C151.969 224.641 152.609 225.359 152.609 226.875V232H153.953V226.547C153.953 224.547 152.898 223.43 151.008 223.43C149.719 223.43 148.898 223.977 148.477 224.906H148.352V223.578H147.07V232ZM166.508 229.82C166.156 230.562 165.422 230.961 164.336 230.961C162.906 230.961 161.977 229.906 161.906 228.242V228.18H167.961V227.664C167.961 225.047 166.578 223.43 164.305 223.43C161.992 223.43 160.508 225.148 160.508 227.797C160.508 230.461 161.969 232.148 164.305 232.148C166.148 232.148 167.461 231.258 167.852 229.82H166.508ZM164.289 224.617C165.625 224.617 166.516 225.602 166.547 227.094H161.906C162.008 225.602 162.945 224.617 164.289 224.617ZM170.07 232H171.414V226.781C171.414 225.594 172.266 224.641 173.367 224.641C174.43 224.641 175.125 225.281 175.125 226.281V232H176.469V226.586C176.469 225.516 177.25 224.641 178.422 224.641C179.609 224.641 180.195 225.25 180.195 226.492V232H181.539V226.18C181.539 224.414 180.578 223.43 178.859 223.43C177.695 223.43 176.734 224.016 176.281 224.906H176.156C175.766 224.031 174.969 223.43 173.828 223.43C172.703 223.43 171.859 223.969 171.477 224.906H171.352V223.578H170.07V232ZM186.336 232.148C187.461 232.148 188.383 231.656 188.93 230.758H189.055V232H190.336V226.234C190.336 224.484 189.188 223.43 187.133 223.43C185.336 223.43 184.008 224.32 183.828 225.672H185.188C185.375 225.008 186.078 224.625 187.086 224.625C188.344 224.625 188.992 225.195 188.992 226.234V227L186.562 227.148C184.602 227.266 183.492 228.133 183.492 229.641C183.492 231.18 184.703 232.148 186.336 232.148ZM186.586 230.969C185.609 230.969 184.883 230.469 184.883 229.609C184.883 228.766 185.445 228.32 186.727 228.234L188.992 228.086V228.859C188.992 230.062 187.969 230.969 186.586 230.969ZM193.523 221.953C194.039 221.953 194.461 221.531 194.461 221.016C194.461 220.5 194.039 220.078 193.523 220.078C193.008 220.078 192.586 220.5 192.586 221.016C192.586 221.531 193.008 221.953 193.523 221.953ZM192.852 232H194.195V223.578H192.852V232ZM196.836 232H198.18V220.234H196.836V232ZM215.898 223.578H214.547L212.891 230.312H212.766L210.883 223.578H209.594L207.711 230.312H207.586L205.93 223.578H204.57L206.93 232H208.289L210.164 225.484H210.289L212.172 232H213.539L215.898 223.578ZM217.773 232H219.117V227.016C219.117 225.594 219.945 224.641 221.453 224.641C222.727 224.641 223.398 225.383 223.398 226.875V232H224.742V226.547C224.742 224.57 223.617 223.43 221.836 223.43C220.547 223.43 219.664 223.977 219.242 224.906H219.117V220.234H217.773V232ZM232.773 229.82C232.422 230.562 231.688 230.961 230.602 230.961C229.172 230.961 228.242 229.906 228.172 228.242V228.18H234.227V227.664C234.227 225.047 232.844 223.43 230.57 223.43C228.258 223.43 226.773 225.148 226.773 227.797C226.773 230.461 228.234 232.148 230.57 232.148C232.414 232.148 233.727 231.258 234.117 229.82H232.773ZM230.555 224.617C231.891 224.617 232.781 225.602 232.812 227.094H228.172C228.273 225.602 229.211 224.617 230.555 224.617ZM236.336 232H237.68V227.016C237.68 225.539 238.547 224.641 239.891 224.641C241.234 224.641 241.875 225.359 241.875 226.875V232H243.219V226.547C243.219 224.547 242.164 223.43 240.273 223.43C238.984 223.43 238.164 223.977 237.742 224.906H237.617V223.578H236.336V232ZM260.789 223.578H259.438L257.781 230.312H257.656L255.773 223.578H254.484L252.602 230.312H252.477L250.82 223.578H249.461L251.82 232H253.18L255.055 225.484H255.18L257.062 232H258.43L260.789 223.578ZM267.852 229.82C267.5 230.562 266.766 230.961 265.68 230.961C264.25 230.961 263.32 229.906 263.25 228.242V228.18H269.305V227.664C269.305 225.047 267.922 223.43 265.648 223.43C263.336 223.43 261.852 225.148 261.852 227.797C261.852 230.461 263.312 232.148 265.648 232.148C267.492 232.148 268.805 231.258 269.195 229.82H267.852ZM265.633 224.617C266.969 224.617 267.859 225.602 267.891 227.094H263.25C263.352 225.602 264.289 224.617 265.633 224.617ZM272.25 224.938L273.664 220.727H272.141L271.273 224.938H272.25ZM276.055 232H277.398V226.781C277.398 225.594 278.328 224.734 279.609 224.734C279.875 224.734 280.359 224.781 280.469 224.812V223.469C280.297 223.445 280.016 223.43 279.797 223.43C278.68 223.43 277.711 224.008 277.461 224.828H277.336V223.578H276.055V232ZM287.492 229.82C287.141 230.562 286.406 230.961 285.32 230.961C283.891 230.961 282.961 229.906 282.891 228.242V228.18H288.945V227.664C288.945 225.047 287.562 223.43 285.289 223.43C282.977 223.43 281.492 225.148 281.492 227.797C281.492 230.461 282.953 232.148 285.289 232.148C287.133 232.148 288.445 231.258 288.836 229.82H287.492ZM285.273 224.617C286.609 224.617 287.5 225.602 287.531 227.094H282.891C282.992 225.602 283.93 224.617 285.273 224.617ZM296.133 232H297.477V224.703H299.406V223.578H297.477V222.68C297.477 221.758 297.883 221.289 298.852 221.289C299.094 221.289 299.32 221.297 299.484 221.328V220.234C299.203 220.18 298.906 220.156 298.578 220.156C296.977 220.156 296.133 220.961 296.133 222.641V223.578H294.734V224.703H296.133V232ZM302.07 221.953C302.586 221.953 303.008 221.531 303.008 221.016C303.008 220.5 302.586 220.078 302.07 220.078C301.555 220.078 301.133 220.5 301.133 221.016C301.133 221.531 301.555 221.953 302.07 221.953ZM301.398 232H302.742V223.578H301.398V232ZM305.305 232H306.648V227.016C306.648 225.539 307.516 224.641 308.859 224.641C310.203 224.641 310.844 225.359 310.844 226.875V232H312.188V226.547C312.188 224.547 311.133 223.43 309.242 223.43C307.953 223.43 307.133 223.977 306.711 224.906H306.586V223.578H305.305V232ZM315.352 221.953C315.867 221.953 316.289 221.531 316.289 221.016C316.289 220.5 315.867 220.078 315.352 220.078C314.836 220.078 314.414 220.5 314.414 221.016C314.414 221.531 314.836 221.953 315.352 221.953ZM314.68 232H316.023V223.578H314.68V232ZM318.391 225.883C318.391 227.102 319.109 227.781 320.688 228.164L322.133 228.516C323.031 228.734 323.469 229.125 323.469 229.703C323.469 230.477 322.656 231.016 321.523 231.016C320.445 231.016 319.773 230.562 319.547 229.852H318.164C318.312 231.25 319.602 232.148 321.477 232.148C323.391 232.148 324.852 231.109 324.852 229.602C324.852 228.391 324.086 227.703 322.5 227.32L321.203 227.008C320.211 226.766 319.742 226.406 319.742 225.828C319.742 225.078 320.523 224.57 321.523 224.57C322.539 224.57 323.195 225.016 323.375 225.688H324.703C324.523 224.305 323.297 223.43 321.531 223.43C319.742 223.43 318.391 224.484 318.391 225.883ZM327.039 232H328.383V227.016C328.383 225.594 329.211 224.641 330.719 224.641C331.992 224.641 332.664 225.383 332.664 226.875V232H334.008V226.547C334.008 224.57 332.883 223.43 331.102 223.43C329.812 223.43 328.93 223.977 328.508 224.906H328.383V220.234H327.039V232ZM342.039 229.82C341.688 230.562 340.953 230.961 339.867 230.961C338.438 230.961 337.508 229.906 337.438 228.242V228.18H343.492V227.664C343.492 225.047 342.109 223.43 339.836 223.43C337.523 223.43 336.039 225.148 336.039 227.797C336.039 230.461 337.5 232.148 339.836 232.148C341.68 232.148 342.992 231.258 343.383 229.82H342.039ZM339.82 224.617C341.156 224.617 342.047 225.602 342.078 227.094H337.438C337.539 225.602 338.477 224.617 339.82 224.617ZM348.719 232.148C349.883 232.148 350.883 231.594 351.414 230.656H351.539V232H352.82V220.234H351.477V224.906H351.359C350.883 223.984 349.891 223.43 348.719 223.43C346.578 223.43 345.18 225.148 345.18 227.789C345.18 230.438 346.562 232.148 348.719 232.148ZM349.031 224.641C350.555 224.641 351.508 225.859 351.508 227.789C351.508 229.734 350.562 230.938 349.031 230.938C347.492 230.938 346.57 229.758 346.57 227.789C346.57 225.828 347.5 224.641 349.031 224.641ZM356.539 232.078C357.102 232.078 357.555 231.617 357.555 231.062C357.555 230.5 357.102 230.047 356.539 230.047C355.984 230.047 355.523 230.5 355.523 231.062C355.523 231.617 355.984 232.078 356.539 232.078Z" fill="black"/>
<path d="M129.789 175.766H129.906L133.363 188H136.211L140.746 171.09H137.605L134.676 183.898H134.582L131.184 171.09H128.512L125.113 183.898H125.02L122.09 171.09H118.949L123.484 188H126.332L129.789 175.766ZM149.312 184.285C148.996 185.316 147.965 185.996 146.605 185.996C144.695 185.996 143.477 184.66 143.477 182.668V182.492H152.16V181.543C152.16 177.77 149.957 175.32 146.43 175.32C142.844 175.32 140.57 177.91 140.57 181.836C140.57 185.797 142.82 188.246 146.547 188.246C149.488 188.246 151.668 186.629 152.043 184.285H149.312ZM146.441 177.582C148.117 177.582 149.242 178.812 149.301 180.57H143.5C143.617 178.836 144.801 177.582 146.441 177.582ZM155.758 177.453L157.41 171.09H154.551L153.508 177.453H155.758ZM159.344 188H162.262V180.77C162.262 179.023 163.258 177.957 164.91 177.957C165.402 177.957 165.848 178.027 166.094 178.121V175.484C165.883 175.438 165.555 175.367 165.18 175.367C163.715 175.367 162.625 176.234 162.203 177.746H162.145V175.578H159.344V188ZM175.352 184.285C175.035 185.316 174.004 185.996 172.645 185.996C170.734 185.996 169.516 184.66 169.516 182.668V182.492H178.199V181.543C178.199 177.77 175.996 175.32 172.469 175.32C168.883 175.32 166.609 177.91 166.609 181.836C166.609 185.797 168.859 188.246 172.586 188.246C175.527 188.246 177.707 186.629 178.082 184.285H175.352ZM172.48 177.582C174.156 177.582 175.281 178.812 175.34 180.57H169.539C169.656 178.836 170.84 177.582 172.48 177.582ZM201.742 175.578H198.859L196.762 185.117H196.691L194.266 175.578H191.465L189.039 185.117H188.98L186.883 175.578H183.953L187.316 188H190.363L192.801 178.918H192.859L195.309 188H198.379L201.742 175.578ZM208.574 188.246C212.219 188.246 214.586 185.82 214.586 181.789C214.586 177.77 212.195 175.32 208.574 175.32C204.953 175.32 202.562 177.781 202.562 181.789C202.562 185.82 204.93 188.246 208.574 188.246ZM208.574 185.938C206.723 185.938 205.527 184.438 205.527 181.789C205.527 179.152 206.734 177.641 208.574 177.641C210.426 177.641 211.621 179.152 211.621 181.789C211.621 184.438 210.426 185.938 208.574 185.938ZM216.461 188H219.379V180.77C219.379 179.023 220.375 177.957 222.027 177.957C222.52 177.957 222.965 178.027 223.211 178.121V175.484C223 175.438 222.672 175.367 222.297 175.367C220.832 175.367 219.742 176.234 219.32 177.746H219.262V175.578H216.461V188ZM227.746 180.758H227.711V171.09H224.793V188H227.711V183.688L228.695 182.691L232.621 188H235.996L230.816 180.922L235.785 175.578H232.422L227.746 180.758ZM238.68 173.703C239.57 173.703 240.273 172.988 240.273 172.121C240.273 171.242 239.57 170.539 238.68 170.539C237.789 170.539 237.074 171.242 237.074 172.121C237.074 172.988 237.789 173.703 238.68 173.703ZM237.227 188H240.145V175.578H237.227V188ZM242.594 188H245.512V180.805C245.512 179.023 246.578 177.816 248.254 177.816C249.918 177.816 250.738 178.801 250.738 180.559V188H253.656V179.973C253.656 177.102 252.098 175.344 249.355 175.344C247.445 175.344 246.121 176.234 245.453 177.711H245.395V175.578H242.594V188ZM261.473 192.688C265.094 192.688 267.473 190.766 267.473 187.801V175.578H264.613V177.711H264.566C263.852 176.281 262.422 175.367 260.652 175.367C257.477 175.367 255.484 177.816 255.484 181.742C255.484 185.609 257.523 188.012 260.594 188.012C262.375 188.012 263.84 187.121 264.484 185.785H264.555V187.883C264.555 189.465 263.465 190.531 261.566 190.531C260.184 190.531 259.117 189.887 258.801 188.938H255.906C256.199 191.117 258.402 192.688 261.473 192.688ZM261.484 185.691C259.645 185.691 258.473 184.215 258.473 181.754C258.473 179.316 259.645 177.77 261.484 177.77C263.348 177.77 264.555 179.34 264.555 181.754C264.555 184.18 263.348 185.691 261.484 185.691ZM280.152 188.246C283.797 188.246 286.164 185.82 286.164 181.789C286.164 177.77 283.773 175.32 280.152 175.32C276.531 175.32 274.141 177.781 274.141 181.789C274.141 185.82 276.508 188.246 280.152 188.246ZM280.152 185.938C278.301 185.938 277.105 184.438 277.105 181.789C277.105 179.152 278.312 177.641 280.152 177.641C282.004 177.641 283.199 179.152 283.199 181.789C283.199 184.438 282.004 185.938 280.152 185.938ZM288.039 188H290.957V180.805C290.957 179.023 292.023 177.816 293.699 177.816C295.363 177.816 296.184 178.801 296.184 180.559V188H299.102V179.973C299.102 177.102 297.543 175.344 294.801 175.344C292.891 175.344 291.566 176.234 290.898 177.711H290.84V175.578H288.039V188ZM307.773 173.703C308.664 173.703 309.367 172.988 309.367 172.121C309.367 171.242 308.664 170.539 307.773 170.539C306.883 170.539 306.168 171.242 306.168 172.121C306.168 172.988 306.883 173.703 307.773 173.703ZM306.32 188H309.238V175.578H306.32V188ZM312.496 172.672V175.578H310.715V177.828H312.496V184.695C312.496 187.109 313.551 188.059 316.234 188.059C316.855 188.059 317.43 188.012 317.746 187.941V185.715C317.559 185.75 317.184 185.773 316.914 185.773C315.883 185.773 315.414 185.305 315.414 184.285V177.828H317.758V175.578H315.414V172.672H312.496Z" fill="black"/>
<path fill-rule="evenodd" clip-rule="evenodd" d="M212.567 103.733C220.983 99.2397 232.586 105.367 235.936 113.783C239.286 122.198 232.259 126.61 226.376 128.407C225.734 128.603 225.01 128.76 224.224 128.931C220.857 129.661 216.348 130.64 212.24 136.005C207.174 142.623 201.621 138.953 200.801 134.535C197.859 118.685 206.684 106.874 212.567 103.733ZM229.127 120.51C230.841 120.51 232.23 119.121 232.23 117.407C232.23 115.693 230.841 114.303 229.127 114.303C227.413 114.303 226.023 115.693 226.023 117.407C226.023 119.121 227.413 120.51 229.127 120.51Z" fill="#111111"/>
<path fill-rule="evenodd" clip-rule="evenodd" d="M213.547 103.733C221.963 99.2397 233.566 105.367 236.916 113.783C240.266 122.198 233.239 126.61 227.356 128.407C226.714 128.603 225.99 128.76 225.204 128.931C221.837 129.661 217.328 130.64 213.22 136.005C208.154 142.623 202.601 138.953 201.781 134.535C198.839 118.685 207.664 106.874 213.547 103.733ZM230.107 120.51C231.821 120.51 233.21 119.121 233.21 117.407C233.21 115.693 231.821 114.303 230.107 114.303C228.393 114.303 227.003 115.693 227.003 117.407C227.003 119.121 228.393 120.51 230.107 120.51Z" fill="white"/>
<path d="M236.916 113.783L237.38 113.598L237.38 113.598L236.916 113.783ZM213.547 103.733L213.782 104.174L213.782 104.174L213.547 103.733ZM227.356 128.407L227.21 127.929L227.21 127.929L227.356 128.407ZM225.204 128.931L225.31 129.419L225.31 129.419L225.204 128.931ZM213.22 136.005L212.823 135.702L212.823 135.702L213.22 136.005ZM201.781 134.535L202.273 134.444L202.273 134.444L201.781 134.535ZM237.38 113.598C235.651 109.253 231.81 105.53 227.341 103.463C222.871 101.395 217.695 100.952 213.311 103.292L213.782 104.174C217.815 102.021 222.649 102.395 226.921 104.371C231.195 106.348 234.831 109.897 236.451 113.968L237.38 113.598ZM227.502 128.885C230.483 127.975 233.813 126.386 235.975 123.905C237.062 122.658 237.858 121.179 238.155 119.45C238.453 117.72 238.246 115.773 237.38 113.598L236.451 113.968C237.26 116 237.431 117.76 237.17 119.28C236.908 120.801 236.208 122.116 235.221 123.248C233.236 125.526 230.112 127.042 227.21 127.929L227.502 128.885ZM225.31 129.419C226.091 129.25 226.836 129.089 227.502 128.885L227.21 127.929C226.592 128.118 225.89 128.271 225.098 128.442L225.31 129.419ZM213.617 136.309C217.612 131.091 221.97 130.144 225.31 129.419L225.098 128.442C221.704 129.179 217.043 130.189 212.823 135.702L213.617 136.309ZM201.289 134.626C201.728 136.989 203.433 139.182 205.763 139.887C208.147 140.608 211 139.728 213.617 136.309L212.823 135.702C210.374 138.901 207.918 139.494 206.053 138.93C204.135 138.35 202.654 136.499 202.273 134.444L201.289 134.626ZM213.311 103.292C210.256 104.924 206.513 108.752 203.905 114.151C201.289 119.563 199.797 126.586 201.289 134.626L202.273 134.444C200.823 126.633 202.273 119.826 204.805 114.586C207.344 109.331 210.955 105.684 213.782 104.174L213.311 103.292ZM232.71 117.407C232.71 118.844 231.544 120.01 230.107 120.01V121.01C232.097 121.01 233.71 119.397 233.71 117.407H232.71ZM230.107 114.803C231.544 114.803 232.71 115.969 232.71 117.407H233.71C233.71 115.417 232.097 113.803 230.107 113.803V114.803ZM227.503 117.407C227.503 115.969 228.669 114.803 230.107 114.803V113.803C228.117 113.803 226.503 115.417 226.503 117.407H227.503ZM230.107 120.01C228.669 120.01 227.503 118.844 227.503 117.407H226.503C226.503 119.397 228.117 121.01 230.107 121.01V120.01Z" fill="#111111"/>
<path d="M204.72 129.364C203.956 127.422 205.797 126.379 207.155 126.402C209.366 126.56 209.668 127.72 209.706 128.31C209.744 128.9 209.989 129.74 208.438 131.238C206.888 132.735 205.674 131.79 204.72 129.364Z" stroke="#111111" stroke-linejoin="round"/>
<path d="M220.588 124.144C219.637 126.001 217.637 125.31 216.756 124.276C215.412 122.513 216.082 121.519 216.499 121.1C216.917 120.682 217.385 119.943 219.534 120.115C221.682 120.288 221.776 121.823 220.588 124.144Z" stroke="#111111" stroke-linejoin="round"/>
<path d="M205.648 121.911C204.987 120.974 206.995 119.373 208.273 119.012C209.975 118.531 211.752 120.451 211.863 121.242C211.977 122.062 210.522 123.714 208.604 122.548C206.687 121.382 206.475 123.082 205.648 121.911Z" stroke="#111111" stroke-linejoin="round"/>
<path d="M217.808 109.045C217.164 107.735 218.004 106.32 219.587 106.434C220.406 106.492 221.501 107.33 221.958 108.426C222.528 109.795 222.691 111.055 221.078 111.353C219.465 111.651 218.612 110.683 217.808 109.045Z" stroke="#111111" stroke-linejoin="round"/>
<path d="M212.63 114.63C211.454 114.957 209.853 114.819 209.656 113.921C208.758 111.634 212.759 111.062 214.883 111.879C217.006 112.696 217.169 117.187 214.883 117.269C212.596 117.351 214.1 114.222 212.63 114.63Z" stroke="#111111"/>
<path d="M231.711 130.641C222.693 132.206 218.435 136.7 216.578 139.196C216.497 139.303 216.579 139.454 216.713 139.449C226.926 139.128 233.091 130.402 231.711 130.641Z" fill="white" stroke="#111111" stroke-linejoin="round"/>
<rect x="-0.172023" y="0.684427" width="1.61333" height="2.59333" transform="matrix(0.515102 0.857129 -0.859149 0.511726 232.718 129.648)" fill="white" stroke="#111111"/>
<path d="M236.606 127.064C232.388 127.664 231.498 129.366 231.582 130.178C231.584 130.196 231.589 130.214 231.598 130.23L232.333 131.661C232.369 131.73 232.45 131.764 232.525 131.742C236.111 130.669 236.953 128.409 236.783 127.19C236.771 127.106 236.69 127.052 236.606 127.064Z" fill="white" stroke="#111111" stroke-linejoin="round"/>
<path d="M232.067 131.127C232.239 130.673 232.326 129.527 234.224 129.207C235.606 128.974 236.237 127.58 236.64 127.207" stroke="#111111"/>
</svg>
