<svg width="280" height="320" viewBox="0 0 280 320" fill="none" xmlns="http://www.w3.org/2000/svg">
<path fill-rule="evenodd" clip-rule="evenodd" d="M84.6611 90.1524L62.4313 92.8858L65.5713 118.422C77.5936 116.957 88.5362 125.536 90.0188 137.594C91.5014 149.652 82.9631 160.626 70.9441 162.117L74.0841 187.653L96.3085 184.921L96.3053 184.895C94.8216 172.829 103.373 161.848 115.405 160.368C127.437 158.889 138.394 167.471 139.878 179.537L139.881 179.563L162.104 176.83L158.956 151.235C170.129 149.017 177.859 138.487 176.443 126.967C175.026 115.448 164.976 107.104 153.598 107.659L150.451 82.0628L128.223 84.796C126.507 72.988 115.685 64.657 103.816 66.1164C91.9468 67.5759 83.465 78.2806 84.6611 90.1524Z" fill="#111111"/>
<mask id="path-2-inside-1_1444_14879" fill="white">
<path fill-rule="evenodd" clip-rule="evenodd" d="M86.341 87.4268L64.1112 90.1603L67.2512 115.697C79.2736 114.232 90.2161 122.811 91.6988 134.869C93.1814 146.927 84.6431 157.901 72.6241 159.392L75.764 184.928L97.9884 182.195L97.9853 182.17C96.5016 170.104 105.053 159.123 117.085 157.643C129.117 156.164 140.074 164.746 141.558 176.812L141.561 176.838L163.783 174.105L160.636 148.51C171.809 146.292 179.539 135.761 178.123 124.242C176.706 112.722 166.656 104.378 155.278 104.933L152.131 79.3372L129.903 82.0704C128.187 70.2626 117.364 61.9317 105.496 63.3911C93.6268 64.8505 85.145 75.5551 86.341 87.4268Z"/>
</mask>
<path fill-rule="evenodd" clip-rule="evenodd" d="M86.341 87.4268L64.1112 90.1603L67.2512 115.697C79.2736 114.232 90.2161 122.811 91.6988 134.869C93.1814 146.927 84.6431 157.901 72.6241 159.392L75.764 184.928L97.9884 182.195L97.9853 182.17C96.5016 170.104 105.053 159.123 117.085 157.643C129.117 156.164 140.074 164.746 141.558 176.812L141.561 176.838L163.783 174.105L160.636 148.51C171.809 146.292 179.539 135.761 178.123 124.242C176.706 112.722 166.656 104.378 155.278 104.933L152.131 79.3372L129.903 82.0704C128.187 70.2626 117.364 61.9317 105.496 63.3911C93.6268 64.8505 85.145 75.5551 86.341 87.4268Z" fill="white"/>
<path d="M64.1112 90.1603L63.9281 88.6715L62.4394 88.8545L62.6224 90.3433L64.1112 90.1603ZM86.341 87.4268L86.524 88.9156L87.9805 88.7365L87.8334 87.2765L86.341 87.4268ZM67.2512 115.697L65.7625 115.88L65.9453 117.367L67.4326 117.186L67.2512 115.697ZM72.6241 159.392L72.4393 157.904L70.9525 158.088L71.1353 159.575L72.6241 159.392ZM75.764 184.928L74.2753 185.111L74.4583 186.6L75.9471 186.417L75.764 184.928ZM97.9884 182.195L98.1715 183.684L99.6612 183.501L99.4771 182.011L97.9884 182.195ZM97.9853 182.17L96.4965 182.353L96.4966 182.354L97.9853 182.17ZM141.558 176.812L143.047 176.63L143.046 176.629L141.558 176.812ZM141.561 176.838L140.072 177.02L140.254 178.51L141.744 178.326L141.561 176.838ZM163.783 174.105L163.966 175.594L165.455 175.411L165.272 173.922L163.783 174.105ZM160.636 148.51L160.344 147.038L158.977 147.31L159.147 148.693L160.636 148.51ZM155.278 104.933L153.789 105.116L153.959 106.499L155.351 106.432L155.278 104.933ZM152.131 79.3372L153.619 79.1542L153.436 77.6654L151.948 77.8484L152.131 79.3372ZM129.903 82.0704L128.418 82.2861L128.629 83.7383L130.086 83.5592L129.903 82.0704ZM64.2943 91.649L86.524 88.9156L86.1579 85.9381L63.9281 88.6715L64.2943 91.649ZM68.74 115.514L65.6 89.9772L62.6224 90.3433L65.7625 115.88L68.74 115.514ZM93.1875 134.686C91.6043 121.81 79.9177 112.643 67.0699 114.208L67.4326 117.186C78.6294 115.822 88.8279 123.812 90.21 135.052L93.1875 134.686ZM72.8088 160.881C85.6531 159.287 94.7707 147.561 93.1875 134.686L90.21 135.052C91.5921 146.292 83.633 156.514 72.4393 157.904L72.8088 160.881ZM77.2528 184.745L74.1129 159.209L71.1353 159.575L74.2753 185.111L77.2528 184.745ZM97.8054 180.707L75.581 183.439L75.9471 186.417L98.1715 183.684L97.8054 180.707ZM96.4966 182.354L96.4998 182.379L99.4771 182.011L99.474 181.986L96.4966 182.354ZM116.902 156.155C104.044 157.736 94.9122 169.469 96.4965 182.353L99.4741 181.987C98.091 170.739 106.062 160.51 117.268 159.132L116.902 156.155ZM143.046 176.629C141.462 163.745 129.76 154.573 116.902 156.155L117.268 159.132C128.474 157.754 138.686 165.747 140.069 176.995L143.046 176.629ZM143.05 176.655L143.047 176.63L140.069 176.994L140.072 177.02L143.05 176.655ZM163.6 172.616L141.378 175.349L141.744 178.326L163.966 175.594L163.6 172.616ZM159.147 148.693L162.295 174.288L165.272 173.922L162.125 148.327L159.147 148.693ZM160.928 149.981C172.87 147.611 181.124 136.36 179.612 124.059L176.634 124.425C177.954 135.162 170.749 144.973 160.344 147.038L160.928 149.981ZM179.612 124.059C178.099 111.757 167.365 102.842 155.205 103.435L155.351 106.432C165.946 105.915 175.314 113.687 176.634 124.425L179.612 124.059ZM150.642 79.5203L153.789 105.116L156.767 104.75L153.619 79.1542L150.642 79.5203ZM130.086 83.5592L152.314 80.826L151.948 77.8484L129.72 80.5816L130.086 83.5592ZM131.387 81.8547C129.555 69.2454 117.997 60.3427 105.313 61.9023L105.679 64.8799C116.732 63.5207 126.819 71.2798 128.418 82.2861L131.387 81.8547ZM105.313 61.9023C92.6286 63.462 83.5714 74.8996 84.8485 87.5772L87.8334 87.2765C86.7187 76.2106 94.625 66.2391 105.679 64.8799L105.313 61.9023Z" fill="#111111" mask="url(#path-2-inside-1_1444_14879)"/>
<circle cx="106.835" cy="107.81" r="2.25" transform="rotate(-7.01001 106.835 107.81)" fill="#111111"/>
<circle cx="135.618" cy="104.27" r="2.25" transform="rotate(-7.01001 135.618 104.27)" fill="#111111"/>
<path d="M105.783 121.793C111.321 117.69 125.724 111.129 139.033 117.704" stroke="#111111" stroke-width="1.5" stroke-linecap="round"/>
<ellipse cx="176.587" cy="236.159" rx="43.087" ry="8.09379" fill="#111111"/>
<path d="M219.25 234.729C219.25 234.988 219.116 235.334 218.652 235.769C218.189 236.203 217.463 236.658 216.46 237.112C214.458 238.019 211.514 238.855 207.818 239.563C200.438 240.977 190.209 241.857 178.89 241.857C167.57 241.857 157.341 240.977 149.961 239.563C146.265 238.855 143.321 238.019 141.319 237.112C140.316 236.658 139.59 236.203 139.127 235.769C138.663 235.334 138.529 234.988 138.529 234.729C138.529 234.47 138.663 234.123 139.127 233.688C139.59 233.254 140.316 232.8 141.319 232.345C143.321 231.438 146.265 230.602 149.961 229.894C157.341 228.48 167.57 227.6 178.89 227.6C190.209 227.6 200.438 228.48 207.818 229.894C211.514 230.602 214.458 231.438 216.46 232.345C217.463 232.8 218.189 233.254 218.652 233.688C219.116 234.123 219.25 234.47 219.25 234.729Z" fill="white" stroke="#111111" stroke-width="1.5"/>
<path d="M201.016 229.441C201.016 229.721 200.75 230.225 199.642 230.845C198.596 231.428 197.033 231.979 195.037 232.45C191.058 233.39 185.522 233.979 179.38 233.979C173.239 233.979 167.703 233.39 163.723 232.45C161.727 231.979 160.164 231.428 159.119 230.845C158.01 230.225 157.744 229.721 157.744 229.441C157.744 229.336 157.721 228.524 157.683 227.152C157.538 221.897 157.166 208.427 156.959 195.023C156.828 186.556 156.763 178.103 156.861 171.72C156.91 168.526 156.999 165.863 157.141 163.98C157.212 163.034 157.294 162.307 157.386 161.814C157.42 161.632 157.453 161.498 157.481 161.405C158.362 161.103 159.591 160.877 161.097 160.717C162.72 160.545 164.615 160.454 166.653 160.409C169.348 160.35 172.257 160.374 175.091 160.396C176.554 160.408 177.997 160.42 179.38 160.42C180.802 160.42 182.228 160.407 183.636 160.395C186.253 160.373 188.807 160.351 191.153 160.409C194.648 160.496 197.54 160.76 199.386 161.408C199.418 161.503 199.455 161.642 199.496 161.833C199.601 162.327 199.703 163.055 199.8 164C199.993 165.884 200.156 168.547 200.294 171.741C200.57 178.124 200.743 186.577 200.85 195.044C201.051 210.977 201.021 226.934 201.017 229.183C201.017 229.324 201.016 229.411 201.016 229.441Z" fill="white" stroke="#111111" stroke-width="1.5"/>
<path d="M219.25 159.052C219.25 159.311 219.116 159.658 218.652 160.093C218.189 160.527 217.463 160.982 216.46 161.436C214.458 162.343 211.514 163.179 207.818 163.887C200.438 165.301 190.209 166.181 178.89 166.181C167.57 166.181 157.341 165.301 149.961 163.887C146.265 163.179 143.321 162.343 141.319 161.436C140.316 160.982 139.59 160.527 139.127 160.093C138.663 159.658 138.529 159.311 138.529 159.052C138.529 158.794 138.663 158.447 139.127 158.012C139.59 157.578 140.316 157.123 141.319 156.669C143.321 155.762 146.265 154.926 149.961 154.218C157.341 152.804 167.57 151.924 178.89 151.924C190.209 151.924 200.438 152.804 207.818 154.218C211.514 154.926 214.458 155.762 216.46 156.669C217.463 157.123 218.189 157.578 218.652 158.012C219.116 158.447 219.25 158.794 219.25 159.052Z" fill="white" stroke="#111111" stroke-width="1.5"/>
<path d="M165.204 185.331C157.662 184.316 154.729 188.943 153.673 191.811C151.658 196.165 154.513 199.422 156.192 199.56C155.353 196.001 157.465 190.981 165.204 190.981C176.925 190.981 192.031 186.368 195.381 185.331C198.732 184.295 199.267 184.554 201.251 183.854C202.606 183.376 204.601 180.485 203.354 178.412C202.357 176.753 198.948 178.412 195.381 179.682C189.097 181.919 172.746 186.347 165.204 185.331Z" fill="white" stroke="#111111" stroke-width="1.5"/>
<path d="M171.387 213.366C164.573 216.642 159.356 215.914 156.543 215.914C154.42 215.914 153.113 221.18 155.544 221.926C158.583 222.859 169.88 220.864 174.295 218.272C178.71 215.68 191.558 214.151 194.266 214.151C196.9 214.151 200.726 215.37 202.628 215.37C204.325 215.37 203.311 210.173 201.85 209.271C201.431 209.012 197.905 209.271 195.461 209.271C193.289 209.271 179.905 209.271 171.387 213.366Z" fill="white" stroke="#111111" stroke-width="1.5"/>
<path d="M199.744 165.609C184.599 169.693 164.97 169.972 157.05 169.6L157.595 165.039C170.185 167.008 190.941 166.24 199.744 165.609Z" fill="#111111"/>
<ellipse cx="179.121" cy="158.002" rx="12.1658" ry="1.77052" fill="#111111"/>
<path d="M215.405 244.465C215.405 232.932 206.38 226.975 201.564 225.289L201.564 229.18C212.022 236.963 211.068 242.845 210.249 245.277C208.097 251.671 194.485 256.193 190.274 258.684C184.958 261.187 187.846 264.36 189.619 263.967C191.391 263.574 199.464 259.447 207.341 255.517C213.642 252.373 215.342 246.839 215.405 244.465Z" fill="white" stroke="#111111" stroke-width="1.5"/>
</svg>
