<svg width="437" height="320" viewBox="0 0 437 320" fill="none" xmlns="http://www.w3.org/2000/svg">
<rect width="437" height="320" fill="white"/>
<g clip-path="url(#clip0_1444_14899)">
<path d="M119.773 82V71.9922H123.406V70.7266H114.734V71.9922H118.367V82H119.773ZM125.484 82H126.828V77.0156C126.828 75.5938 127.656 74.6406 129.164 74.6406C130.438 74.6406 131.109 75.3828 131.109 76.875V82H132.453V76.5469C132.453 74.5703 131.328 73.4297 129.547 73.4297C128.258 73.4297 127.375 73.9766 126.953 74.9062H126.828V70.2344H125.484V82ZM135.609 71.9531C136.125 71.9531 136.547 71.5312 136.547 71.0156C136.547 70.5 136.125 70.0781 135.609 70.0781C135.094 70.0781 134.672 70.5 134.672 71.0156C134.672 71.5312 135.094 71.9531 135.609 71.9531ZM134.938 82H136.281V73.5781H134.938V82ZM138.648 75.8828C138.648 77.1016 139.367 77.7812 140.945 78.1641L142.391 78.5156C143.289 78.7344 143.727 79.125 143.727 79.7031C143.727 80.4766 142.914 81.0156 141.781 81.0156C140.703 81.0156 140.031 80.5625 139.805 79.8516H138.422C138.57 81.25 139.859 82.1484 141.734 82.1484C143.648 82.1484 145.109 81.1094 145.109 79.6016C145.109 78.3906 144.344 77.7031 142.758 77.3203L141.461 77.0078C140.469 76.7656 140 76.4062 140 75.8281C140 75.0781 140.781 74.5703 141.781 74.5703C142.797 74.5703 143.453 75.0156 143.633 75.6875H144.961C144.781 74.3047 143.555 73.4297 141.789 73.4297C140 73.4297 138.648 74.4844 138.648 75.8828ZM152.297 82H153.641V74.7031H155.57V73.5781H153.641V72.6797C153.641 71.7578 154.047 71.2891 155.016 71.2891C155.258 71.2891 155.484 71.2969 155.648 71.3281V70.2344C155.367 70.1797 155.07 70.1562 154.742 70.1562C153.141 70.1562 152.297 70.9609 152.297 72.6406V73.5781H150.898V74.7031H152.297V82ZM162.75 79.8203C162.398 80.5625 161.664 80.9609 160.578 80.9609C159.148 80.9609 158.219 79.9062 158.148 78.2422V78.1797H164.203V77.6641C164.203 75.0469 162.82 73.4297 160.547 73.4297C158.234 73.4297 156.75 75.1484 156.75 77.7969C156.75 80.4609 158.211 82.1484 160.547 82.1484C162.391 82.1484 163.703 81.2578 164.094 79.8203H162.75ZM160.531 74.6172C161.867 74.6172 162.758 75.6016 162.789 77.0938H158.148C158.25 75.6016 159.188 74.6172 160.531 74.6172ZM168.656 82.1484C169.781 82.1484 170.703 81.6562 171.25 80.7578H171.375V82H172.656V76.2344C172.656 74.4844 171.508 73.4297 169.453 73.4297C167.656 73.4297 166.328 74.3203 166.148 75.6719H167.508C167.695 75.0078 168.398 74.625 169.406 74.625C170.664 74.625 171.312 75.1953 171.312 76.2344V77L168.883 77.1484C166.922 77.2656 165.812 78.1328 165.812 79.6406C165.812 81.1797 167.023 82.1484 168.656 82.1484ZM168.906 80.9688C167.93 80.9688 167.203 80.4688 167.203 79.6094C167.203 78.7656 167.766 78.3203 169.047 78.2344L171.312 78.0859V78.8594C171.312 80.0625 170.289 80.9688 168.906 80.9688ZM175.703 71.3984V73.5781H174.344V74.7031H175.703V79.8125C175.703 81.4219 176.398 82.0625 178.133 82.0625C178.398 82.0625 178.656 82.0312 178.922 81.9844V80.8516C178.672 80.875 178.539 80.8828 178.297 80.8828C177.422 80.8828 177.047 80.4609 177.047 79.4688V74.7031H178.922V73.5781H177.047V71.3984H175.703ZM187.766 73.5781H186.422V78.5625C186.422 80.0391 185.609 80.9219 184.125 80.9219C182.781 80.9219 182.219 80.2188 182.219 78.7031V73.5781H180.875V79.0312C180.875 81.0234 181.859 82.1484 183.75 82.1484C185.039 82.1484 185.938 81.6172 186.359 80.6797H186.484V82H187.766V73.5781ZM190.297 82H191.641V76.7812C191.641 75.5938 192.57 74.7344 193.852 74.7344C194.117 74.7344 194.602 74.7812 194.711 74.8125V73.4688C194.539 73.4453 194.258 73.4297 194.039 73.4297C192.922 73.4297 191.953 74.0078 191.703 74.8281H191.578V73.5781H190.297V82ZM201.734 79.8203C201.383 80.5625 200.648 80.9609 199.562 80.9609C198.133 80.9609 197.203 79.9062 197.133 78.2422V78.1797H203.188V77.6641C203.188 75.0469 201.805 73.4297 199.531 73.4297C197.219 73.4297 195.734 75.1484 195.734 77.7969C195.734 80.4609 197.195 82.1484 199.531 82.1484C201.375 82.1484 202.688 81.2578 203.078 79.8203H201.734ZM199.516 74.6172C200.852 74.6172 201.742 75.6016 201.773 77.0938H197.133C197.234 75.6016 198.172 74.6172 199.516 74.6172ZM210.516 71.9531C211.031 71.9531 211.453 71.5312 211.453 71.0156C211.453 70.5 211.031 70.0781 210.516 70.0781C210 70.0781 209.578 70.5 209.578 71.0156C209.578 71.5312 210 71.9531 210.516 71.9531ZM209.844 82H211.188V73.5781H209.844V82ZM213.555 75.8828C213.555 77.1016 214.273 77.7812 215.852 78.1641L217.297 78.5156C218.195 78.7344 218.633 79.125 218.633 79.7031C218.633 80.4766 217.82 81.0156 216.688 81.0156C215.609 81.0156 214.938 80.5625 214.711 79.8516H213.328C213.477 81.25 214.766 82.1484 216.641 82.1484C218.555 82.1484 220.016 81.1094 220.016 79.6016C220.016 78.3906 219.25 77.7031 217.664 77.3203L216.367 77.0078C215.375 76.7656 214.906 76.4062 214.906 75.8281C214.906 75.0781 215.688 74.5703 216.688 74.5703C217.703 74.5703 218.359 75.0156 218.539 75.6875H219.867C219.688 74.3047 218.461 73.4297 216.695 73.4297C214.906 73.4297 213.555 74.4844 213.555 75.8828ZM230.828 82.1484C232.961 82.1484 234.359 80.4219 234.359 77.7891C234.359 75.1406 232.969 73.4297 230.828 73.4297C229.672 73.4297 228.648 74 228.188 74.9062H228.062V70.2344H226.719V82H228V80.6562H228.125C228.656 81.5938 229.656 82.1484 230.828 82.1484ZM230.516 74.6406C232.055 74.6406 232.969 75.8203 232.969 77.7891C232.969 79.7578 232.055 80.9375 230.516 80.9375C228.984 80.9375 228.031 79.7344 228.031 77.7891C228.031 75.8438 228.984 74.6406 230.516 74.6406ZM242.047 79.8203C241.695 80.5625 240.961 80.9609 239.875 80.9609C238.445 80.9609 237.516 79.9062 237.445 78.2422V78.1797H243.5V77.6641C243.5 75.0469 242.117 73.4297 239.844 73.4297C237.531 73.4297 236.047 75.1484 236.047 77.7969C236.047 80.4609 237.508 82.1484 239.844 82.1484C241.688 82.1484 243 81.2578 243.391 79.8203H242.047ZM239.828 74.6172C241.164 74.6172 242.055 75.6016 242.086 77.0938H237.445C237.547 75.6016 238.484 74.6172 239.828 74.6172ZM246.312 71.9531C246.828 71.9531 247.25 71.5312 247.25 71.0156C247.25 70.5 246.828 70.0781 246.312 70.0781C245.797 70.0781 245.375 70.5 245.375 71.0156C245.375 71.5312 245.797 71.9531 246.312 71.9531ZM245.641 82H246.984V73.5781H245.641V82ZM249.547 82H250.891V77.0156C250.891 75.5391 251.758 74.6406 253.102 74.6406C254.445 74.6406 255.086 75.3594 255.086 76.875V82H256.43V76.5469C256.43 74.5469 255.375 73.4297 253.484 73.4297C252.195 73.4297 251.375 73.9766 250.953 74.9062H250.828V73.5781H249.547V82ZM262.359 85.2344C264.656 85.2344 266.109 84.0312 266.109 82.1484V73.5781H264.828V74.9141H264.703C264.219 74.0078 263.18 73.4297 262 73.4297C259.836 73.4297 258.469 75.1406 258.469 77.6641C258.469 80.1875 259.82 81.875 262 81.875C263.156 81.875 264.109 81.3516 264.641 80.4219H264.766V82.0781C264.766 83.3203 263.867 84.0625 262.359 84.0625C261.148 84.0625 260.398 83.6172 260.25 82.9297H258.828C259.031 84.3203 260.328 85.2344 262.359 85.2344ZM262.297 80.6875C260.734 80.6875 259.859 79.5 259.859 77.6641C259.859 75.8281 260.734 74.6406 262.297 74.6406C263.852 74.6406 264.797 75.8281 264.797 77.6641C264.797 79.5 263.859 80.6875 262.297 80.6875ZM272.961 75.8828C272.961 77.1016 273.68 77.7812 275.258 78.1641L276.703 78.5156C277.602 78.7344 278.039 79.125 278.039 79.7031C278.039 80.4766 277.227 81.0156 276.094 81.0156C275.016 81.0156 274.344 80.5625 274.117 79.8516H272.734C272.883 81.25 274.172 82.1484 276.047 82.1484C277.961 82.1484 279.422 81.1094 279.422 79.6016C279.422 78.3906 278.656 77.7031 277.07 77.3203L275.773 77.0078C274.781 76.7656 274.312 76.4062 274.312 75.8281C274.312 75.0781 275.094 74.5703 276.094 74.5703C277.109 74.5703 277.766 75.0156 277.945 75.6875H279.273C279.094 74.3047 277.867 73.4297 276.102 73.4297C274.312 73.4297 272.961 74.4844 272.961 75.8828ZM288.344 73.5781H287V78.5625C287 80.0391 286.188 80.9219 284.703 80.9219C283.359 80.9219 282.797 80.2188 282.797 78.7031V73.5781H281.453V79.0312C281.453 81.0234 282.438 82.1484 284.328 82.1484C285.617 82.1484 286.516 81.6172 286.938 80.6797H287.062V82H288.344V73.5781ZM290.875 82H292.219V77.0156C292.219 75.5391 293.086 74.6406 294.43 74.6406C295.773 74.6406 296.414 75.3594 296.414 76.875V82H297.758V76.5469C297.758 74.5469 296.703 73.4297 294.812 73.4297C293.523 73.4297 292.703 73.9766 292.281 74.9062H292.156V73.5781H290.875V82ZM300.023 75.8828C300.023 77.1016 300.742 77.7812 302.32 78.1641L303.766 78.5156C304.664 78.7344 305.102 79.125 305.102 79.7031C305.102 80.4766 304.289 81.0156 303.156 81.0156C302.078 81.0156 301.406 80.5625 301.18 79.8516H299.797C299.945 81.25 301.234 82.1484 303.109 82.1484C305.023 82.1484 306.484 81.1094 306.484 79.6016C306.484 78.3906 305.719 77.7031 304.133 77.3203L302.836 77.0078C301.844 76.7656 301.375 76.4062 301.375 75.8281C301.375 75.0781 302.156 74.5703 303.156 74.5703C304.172 74.5703 304.828 75.0156 305.008 75.6875H306.336C306.156 74.3047 304.93 73.4297 303.164 73.4297C301.375 73.4297 300.023 74.4844 300.023 75.8828ZM314.172 79.8203C313.82 80.5625 313.086 80.9609 312 80.9609C310.57 80.9609 309.641 79.9062 309.57 78.2422V78.1797H315.625V77.6641C315.625 75.0469 314.242 73.4297 311.969 73.4297C309.656 73.4297 308.172 75.1484 308.172 77.7969C308.172 80.4609 309.633 82.1484 311.969 82.1484C313.812 82.1484 315.125 81.2578 315.516 79.8203H314.172ZM311.953 74.6172C313.289 74.6172 314.18 75.6016 314.211 77.0938H309.57C309.672 75.6016 310.609 74.6172 311.953 74.6172ZM318.297 71.3984V73.5781H316.938V74.7031H318.297V79.8125C318.297 81.4219 318.992 82.0625 320.727 82.0625C320.992 82.0625 321.25 82.0312 321.516 81.9844V80.8516C321.266 80.875 321.133 80.8828 320.891 80.8828C320.016 80.8828 319.641 80.4609 319.641 79.4688V74.7031H321.516V73.5781H319.641V71.3984H318.297ZM330.406 82.1484C331.531 82.1484 332.453 81.6562 333 80.7578H333.125V82H334.406V76.2344C334.406 74.4844 333.258 73.4297 331.203 73.4297C329.406 73.4297 328.078 74.3203 327.898 75.6719H329.258C329.445 75.0078 330.148 74.625 331.156 74.625C332.414 74.625 333.062 75.1953 333.062 76.2344V77L330.633 77.1484C328.672 77.2656 327.562 78.1328 327.562 79.6406C327.562 81.1797 328.773 82.1484 330.406 82.1484ZM330.656 80.9688C329.68 80.9688 328.953 80.4688 328.953 79.6094C328.953 78.7656 329.516 78.3203 330.797 78.2344L333.062 78.0859V78.8594C333.062 80.0625 332.039 80.9688 330.656 80.9688ZM336.891 82H338.234V77.0156C338.234 75.5391 339.102 74.6406 340.445 74.6406C341.789 74.6406 342.43 75.3594 342.43 76.875V82H343.773V76.5469C343.773 74.5469 342.719 73.4297 340.828 73.4297C339.539 73.4297 338.719 73.9766 338.297 74.9062H338.172V73.5781H336.891V82ZM349.352 82.1484C350.516 82.1484 351.516 81.5938 352.047 80.6562H352.172V82H353.453V70.2344H352.109V74.9062H351.992C351.516 73.9844 350.523 73.4297 349.352 73.4297C347.211 73.4297 345.812 75.1484 345.812 77.7891C345.812 80.4375 347.195 82.1484 349.352 82.1484ZM349.664 74.6406C351.188 74.6406 352.141 75.8594 352.141 77.7891C352.141 79.7344 351.195 80.9375 349.664 80.9375C348.125 80.9375 347.203 79.7578 347.203 77.7891C347.203 75.8281 348.133 74.6406 349.664 74.6406ZM371.172 73.5781H369.82L368.164 80.3125H368.039L366.156 73.5781H364.867L362.984 80.3125H362.859L361.203 73.5781H359.844L362.203 82H363.562L365.438 75.4844H365.562L367.445 82H368.812L371.172 73.5781ZM373.672 71.9531C374.188 71.9531 374.609 71.5312 374.609 71.0156C374.609 70.5 374.188 70.0781 373.672 70.0781C373.156 70.0781 372.734 70.5 372.734 71.0156C372.734 71.5312 373.156 71.9531 373.672 71.9531ZM373 82H374.344V73.5781H373V82ZM376.984 82H378.328V70.2344H376.984V82ZM385.453 82H386.797V77.0156C386.797 75.5391 387.664 74.6406 389.008 74.6406C390.352 74.6406 390.992 75.3594 390.992 76.875V82H392.336V76.5469C392.336 74.5469 391.281 73.4297 389.391 73.4297C388.102 73.4297 387.281 73.9766 386.859 74.9062H386.734V73.5781H385.453V82ZM398.258 82.1484C400.656 82.1484 402.141 80.4922 402.141 77.7891C402.141 75.0781 400.656 73.4297 398.258 73.4297C395.859 73.4297 394.375 75.0781 394.375 77.7891C394.375 80.4922 395.859 82.1484 398.258 82.1484ZM398.258 80.9375C396.664 80.9375 395.766 79.7812 395.766 77.7891C395.766 75.7891 396.664 74.6406 398.258 74.6406C399.852 74.6406 400.75 75.7891 400.75 77.7891C400.75 79.7812 399.852 80.9375 398.258 80.9375ZM404.812 71.3984V73.5781H403.453V74.7031H404.812V79.8125C404.812 81.4219 405.508 82.0625 407.242 82.0625C407.508 82.0625 407.766 82.0312 408.031 81.9844V80.8516C407.781 80.875 407.648 80.8828 407.406 80.8828C406.531 80.8828 406.156 80.4609 406.156 79.4688V74.7031H408.031V73.5781H406.156V71.3984H404.812ZM119.453 101.148C121.586 101.148 122.984 99.4219 122.984 96.7891C122.984 94.1406 121.594 92.4297 119.453 92.4297C118.297 92.4297 117.273 93 116.812 93.9062H116.688V89.2344H115.344V101H116.625V99.6562H116.75C117.281 100.594 118.281 101.148 119.453 101.148ZM119.141 93.6406C120.68 93.6406 121.594 94.8203 121.594 96.7891C121.594 98.7578 120.68 99.9375 119.141 99.9375C117.609 99.9375 116.656 98.7344 116.656 96.7891C116.656 94.8438 117.609 93.6406 119.141 93.6406ZM130.672 98.8203C130.32 99.5625 129.586 99.9609 128.5 99.9609C127.07 99.9609 126.141 98.9062 126.07 97.2422V97.1797H132.125V96.6641C132.125 94.0469 130.742 92.4297 128.469 92.4297C126.156 92.4297 124.672 94.1484 124.672 96.7969C124.672 99.4609 126.133 101.148 128.469 101.148C130.312 101.148 131.625 100.258 132.016 98.8203H130.672ZM128.453 93.6172C129.789 93.6172 130.68 94.6016 130.711 96.0938H126.07C126.172 94.6016 127.109 93.6172 128.453 93.6172ZM141.094 101.148C142.219 101.148 143.141 100.656 143.688 99.7578H143.812V101H145.094V95.2344C145.094 93.4844 143.945 92.4297 141.891 92.4297C140.094 92.4297 138.766 93.3203 138.586 94.6719H139.945C140.133 94.0078 140.836 93.625 141.844 93.625C143.102 93.625 143.75 94.1953 143.75 95.2344V96L141.32 96.1484C139.359 96.2656 138.25 97.1328 138.25 98.6406C138.25 100.18 139.461 101.148 141.094 101.148ZM141.344 99.9688C140.367 99.9688 139.641 99.4688 139.641 98.6094C139.641 97.7656 140.203 97.3203 141.484 97.2344L143.75 97.0859V97.8594C143.75 99.0625 142.727 99.9688 141.344 99.9688ZM154.141 92.5781H152.703L150.398 99.5156H150.273L147.969 92.5781H146.531L149.648 101H151.023L154.141 92.5781ZM157.969 101.148C159.094 101.148 160.016 100.656 160.562 99.7578H160.688V101H161.969V95.2344C161.969 93.4844 160.82 92.4297 158.766 92.4297C156.969 92.4297 155.641 93.3203 155.461 94.6719H156.82C157.008 94.0078 157.711 93.625 158.719 93.625C159.977 93.625 160.625 94.1953 160.625 95.2344V96L158.195 96.1484C156.234 96.2656 155.125 97.1328 155.125 98.6406C155.125 100.18 156.336 101.148 157.969 101.148ZM158.219 99.9688C157.242 99.9688 156.516 99.4688 156.516 98.6094C156.516 97.7656 157.078 97.3203 158.359 97.2344L160.625 97.0859V97.8594C160.625 99.0625 159.602 99.9688 158.219 99.9688ZM165.156 90.9531C165.672 90.9531 166.094 90.5312 166.094 90.0156C166.094 89.5 165.672 89.0781 165.156 89.0781C164.641 89.0781 164.219 89.5 164.219 90.0156C164.219 90.5312 164.641 90.9531 165.156 90.9531ZM164.484 101H165.828V92.5781H164.484V101ZM168.469 101H169.812V89.2344H168.469V101ZM174.766 101.148C175.891 101.148 176.812 100.656 177.359 99.7578H177.484V101H178.766V95.2344C178.766 93.4844 177.617 92.4297 175.562 92.4297C173.766 92.4297 172.438 93.3203 172.258 94.6719H173.617C173.805 94.0078 174.508 93.625 175.516 93.625C176.773 93.625 177.422 94.1953 177.422 95.2344V96L174.992 96.1484C173.031 96.2656 171.922 97.1328 171.922 98.6406C171.922 100.18 173.133 101.148 174.766 101.148ZM175.016 99.9688C174.039 99.9688 173.312 99.4688 173.312 98.6094C173.312 97.7656 173.875 97.3203 175.156 97.2344L177.422 97.0859V97.8594C177.422 99.0625 176.398 99.9688 175.016 99.9688ZM185.438 101.148C187.57 101.148 188.969 99.4219 188.969 96.7891C188.969 94.1406 187.578 92.4297 185.438 92.4297C184.281 92.4297 183.258 93 182.797 93.9062H182.672V89.2344H181.328V101H182.609V99.6562H182.734C183.266 100.594 184.266 101.148 185.438 101.148ZM185.125 93.6406C186.664 93.6406 187.578 94.8203 187.578 96.7891C187.578 98.7578 186.664 99.9375 185.125 99.9375C183.594 99.9375 182.641 98.7344 182.641 96.7891C182.641 94.8438 183.594 93.6406 185.125 93.6406ZM191.156 101H192.5V89.2344H191.156V101ZM200.688 98.8203C200.336 99.5625 199.602 99.9609 198.516 99.9609C197.086 99.9609 196.156 98.9062 196.086 97.2422V97.1797H202.141V96.6641C202.141 94.0469 200.758 92.4297 198.484 92.4297C196.172 92.4297 194.688 94.1484 194.688 96.7969C194.688 99.4609 196.148 101.148 198.484 101.148C200.328 101.148 201.641 100.258 202.031 98.8203H200.688ZM198.469 93.6172C199.805 93.6172 200.695 94.6016 200.727 96.0938H196.086C196.188 94.6016 197.125 93.6172 198.469 93.6172ZM211.109 101.148C212.234 101.148 213.156 100.656 213.703 99.7578H213.828V101H215.109V95.2344C215.109 93.4844 213.961 92.4297 211.906 92.4297C210.109 92.4297 208.781 93.3203 208.602 94.6719H209.961C210.148 94.0078 210.852 93.625 211.859 93.625C213.117 93.625 213.766 94.1953 213.766 95.2344V96L211.336 96.1484C209.375 96.2656 208.266 97.1328 208.266 98.6406C208.266 100.18 209.477 101.148 211.109 101.148ZM211.359 99.9688C210.383 99.9688 209.656 99.4688 209.656 98.6094C209.656 97.7656 210.219 97.3203 211.5 97.2344L213.766 97.0859V97.8594C213.766 99.0625 212.742 99.9688 211.359 99.9688ZM218.156 101H219.5V93.7031H221.43V92.5781H219.5V91.6797C219.5 90.7578 219.906 90.2891 220.875 90.2891C221.117 90.2891 221.344 90.2969 221.508 90.3281V89.2344C221.227 89.1797 220.93 89.1562 220.602 89.1562C219 89.1562 218.156 89.9609 218.156 91.6406V92.5781H216.758V93.7031H218.156V101ZM223.953 90.3984V92.5781H222.594V93.7031H223.953V98.8125C223.953 100.422 224.648 101.062 226.383 101.062C226.648 101.062 226.906 101.031 227.172 100.984V99.8516C226.922 99.875 226.789 99.8828 226.547 99.8828C225.672 99.8828 225.297 99.4609 225.297 98.4688V93.7031H227.172V92.5781H225.297V90.3984H223.953ZM234.656 98.8203C234.305 99.5625 233.57 99.9609 232.484 99.9609C231.055 99.9609 230.125 98.9062 230.055 97.2422V97.1797H236.109V96.6641C236.109 94.0469 234.727 92.4297 232.453 92.4297C230.141 92.4297 228.656 94.1484 228.656 96.7969C228.656 99.4609 230.117 101.148 232.453 101.148C234.297 101.148 235.609 100.258 236 98.8203H234.656ZM232.438 93.6172C233.773 93.6172 234.664 94.6016 234.695 96.0938H230.055C230.156 94.6016 231.094 93.6172 232.438 93.6172ZM238.219 101H239.562V95.7812C239.562 94.5938 240.492 93.7344 241.773 93.7344C242.039 93.7344 242.523 93.7812 242.633 93.8125V92.4688C242.461 92.4453 242.18 92.4297 241.961 92.4297C240.844 92.4297 239.875 93.0078 239.625 93.8281H239.5V92.5781H238.219V101ZM260.109 101V89.7266H258.477L254.617 99.1328H254.492L250.633 89.7266H249V101H250.312V92.3906H250.406L253.961 101H255.148L258.703 92.3906H258.797V101H260.109ZM265.156 101.148C266.281 101.148 267.203 100.656 267.75 99.7578H267.875V101H269.156V95.2344C269.156 93.4844 268.008 92.4297 265.953 92.4297C264.156 92.4297 262.828 93.3203 262.648 94.6719H264.008C264.195 94.0078 264.898 93.625 265.906 93.625C267.164 93.625 267.812 94.1953 267.812 95.2344V96L265.383 96.1484C263.422 96.2656 262.312 97.1328 262.312 98.6406C262.312 100.18 263.523 101.148 265.156 101.148ZM265.406 99.9688C264.43 99.9688 263.703 99.4688 263.703 98.6094C263.703 97.7656 264.266 97.3203 265.547 97.2344L267.812 97.0859V97.8594C267.812 99.0625 266.789 99.9688 265.406 99.9688ZM272.047 104.047C273.539 104.047 274.211 103.469 274.93 101.516L278.219 92.5781H276.789L274.484 99.5078H274.359L272.047 92.5781H270.594L273.711 101.008L273.555 101.508C273.203 102.523 272.781 102.891 272.008 102.891C271.82 102.891 271.609 102.883 271.445 102.852V104C271.633 104.031 271.867 104.047 272.047 104.047ZM287.219 101H288.625V89.7266H287.227L284.227 91.8828V93.3672L287.094 91.2891H287.219V101ZM292.461 103.867L293.688 99.4219H292.195L291.453 103.867H292.461ZM300.797 92.9062H302.156C302.156 91.5703 303.055 90.6875 304.406 90.6875C305.734 90.6875 306.539 91.5781 306.539 92.7734C306.539 93.7656 306.117 94.3516 304.68 95.9062L300.867 100.031V101H308.164V99.7344H302.82V99.6094L305.383 96.9609C307.414 94.8594 307.977 93.9219 307.977 92.625C307.977 90.7969 306.469 89.4609 304.5 89.4609C302.344 89.4609 300.797 90.8984 300.797 92.9062ZM314.328 101.266C316.859 101.266 318.312 99.125 318.312 95.3828C318.312 91.6484 316.836 89.4609 314.328 89.4609C311.805 89.4609 310.328 91.6406 310.328 95.3594C310.328 99.1094 311.789 101.266 314.328 101.266ZM314.328 100.039C312.664 100.039 311.742 98.375 311.742 95.3594C311.742 92.3828 312.68 90.6953 314.328 90.6953C315.977 90.6953 316.898 92.3672 316.898 95.3594C316.898 98.3828 315.992 100.039 314.328 100.039ZM320.547 92.9062H321.906C321.906 91.5703 322.805 90.6875 324.156 90.6875C325.484 90.6875 326.289 91.5781 326.289 92.7734C326.289 93.7656 325.867 94.3516 324.43 95.9062L320.617 100.031V101H327.914V99.7344H322.57V99.6094L325.133 96.9609C327.164 94.8594 327.727 93.9219 327.727 92.625C327.727 90.7969 326.219 89.4609 324.25 89.4609C322.094 89.4609 320.547 90.8984 320.547 92.9062ZM335.203 101H336.578V98.6641H338.18V97.4062H336.578V89.7266H334.539C332.961 92.0781 331.234 94.8281 329.711 97.3828V98.6641H335.203V101ZM331.148 97.3203C332.375 95.25 333.852 92.9219 335.117 91.0312H335.211V97.4141H331.148V97.3203ZM340.922 101.078C341.484 101.078 341.938 100.617 341.938 100.062C341.938 99.5 341.484 99.0469 340.922 99.0469C340.367 99.0469 339.906 99.5 339.906 100.062C339.906 100.617 340.367 101.078 340.922 101.078Z" fill="#111111"/>
</g>
<g clip-path="url(#clip1_1444_14899)">
<g clip-path="url(#clip2_1444_14899)">
<rect x="53" y="24" width="24" height="24" rx="8" fill="#111111"/>
<path fill-rule="evenodd" clip-rule="evenodd" d="M63.5 41L59.366 36.874C58.878 36.387 58.878 35.597 59.366 35.1095C59.854 34.6225 60.646 34.6225 61.134 35.1095L63.5 37.471L68.866 32.1155C69.354 31.628 70.146 31.628 70.634 32.1155C71.122 32.6025 71.122 33.3925 70.634 33.8795L63.5 41Z" fill="white"/>
</g>
<path d="M85.8984 39.0547C86.0469 41 87.6953 42.2656 90.0859 42.2656C92.6641 42.2656 94.2969 40.9453 94.2969 38.875C94.2969 37.2188 93.3594 36.3125 91.0234 35.7266L89.8438 35.4141C88.2891 35.0156 87.6719 34.5078 87.6719 33.625C87.6719 32.4844 88.6641 31.7344 90.1641 31.7344C91.5703 31.7344 92.5234 32.4219 92.7188 33.5781H94.1328C94.0156 31.7578 92.3906 30.4609 90.2109 30.4609C87.8281 30.4609 86.2266 31.7578 86.2266 33.6719C86.2266 35.2734 87.1094 36.1953 89.1484 36.7109L90.5938 37.0859C92.1484 37.4766 92.8516 38.0859 92.8516 39.0469C92.8516 40.1641 91.7344 40.9844 90.2188 40.9844C88.6172 40.9844 87.4922 40.2344 87.3203 39.0547H85.8984ZM96.5469 42H97.8906V37.0156C97.8906 35.5938 98.7188 34.6406 100.227 34.6406C101.5 34.6406 102.172 35.3828 102.172 36.875V42H103.516V36.5469C103.516 34.5703 102.391 33.4297 100.609 33.4297C99.3203 33.4297 98.4375 33.9766 98.0156 34.9062H97.8906V30.2344H96.5469V42ZM108.312 42.1484C109.438 42.1484 110.359 41.6562 110.906 40.7578H111.031V42H112.312V36.2344C112.312 34.4844 111.164 33.4297 109.109 33.4297C107.312 33.4297 105.984 34.3203 105.805 35.6719H107.164C107.352 35.0078 108.055 34.625 109.062 34.625C110.32 34.625 110.969 35.1953 110.969 36.2344V37L108.539 37.1484C106.578 37.2656 105.469 38.1328 105.469 39.6406C105.469 41.1797 106.68 42.1484 108.312 42.1484ZM108.562 40.9688C107.586 40.9688 106.859 40.4688 106.859 39.6094C106.859 38.7656 107.422 38.3203 108.703 38.2344L110.969 38.0859V38.8594C110.969 40.0625 109.945 40.9688 108.562 40.9688ZM114.797 42H116.141V36.7812C116.141 35.5938 117.07 34.7344 118.352 34.7344C118.617 34.7344 119.102 34.7812 119.211 34.8125V33.4688C119.039 33.4453 118.758 33.4297 118.539 33.4297C117.422 33.4297 116.453 34.0078 116.203 34.8281H116.078V33.5781H114.797V42ZM126.234 39.8203C125.883 40.5625 125.148 40.9609 124.062 40.9609C122.633 40.9609 121.703 39.9062 121.633 38.2422V38.1797H127.688V37.6641C127.688 35.0469 126.305 33.4297 124.031 33.4297C121.719 33.4297 120.234 35.1484 120.234 37.7969C120.234 40.4609 121.695 42.1484 124.031 42.1484C125.875 42.1484 127.188 41.2578 127.578 39.8203H126.234ZM124.016 34.6172C125.352 34.6172 126.242 35.6016 126.273 37.0938H121.633C121.734 35.6016 122.672 34.6172 124.016 34.6172ZM136.656 42.1484C137.781 42.1484 138.703 41.6562 139.25 40.7578H139.375V42H140.656V36.2344C140.656 34.4844 139.508 33.4297 137.453 33.4297C135.656 33.4297 134.328 34.3203 134.148 35.6719H135.508C135.695 35.0078 136.398 34.625 137.406 34.625C138.664 34.625 139.312 35.1953 139.312 36.2344V37L136.883 37.1484C134.922 37.2656 133.812 38.1328 133.812 39.6406C133.812 41.1797 135.023 42.1484 136.656 42.1484ZM136.906 40.9688C135.93 40.9688 135.203 40.4688 135.203 39.6094C135.203 38.7656 135.766 38.3203 137.047 38.2344L139.312 38.0859V38.8594C139.312 40.0625 138.289 40.9688 136.906 40.9688ZM150.109 36.1562C149.875 34.6562 148.625 33.4297 146.578 33.4297C144.219 33.4297 142.719 35.1328 142.719 37.7578C142.719 40.4375 144.227 42.1484 146.586 42.1484C148.609 42.1484 149.867 41.0078 150.109 39.4609H148.75C148.5 40.4141 147.711 40.9375 146.578 40.9375C145.078 40.9375 144.109 39.7031 144.109 37.7578C144.109 35.8516 145.062 34.6406 146.578 34.6406C147.789 34.6406 148.531 35.3203 148.75 36.1562H150.109ZM152.812 31.3984V33.5781H151.453V34.7031H152.812V39.8125C152.812 41.4219 153.508 42.0625 155.242 42.0625C155.508 42.0625 155.766 42.0312 156.031 41.9844V40.8516C155.781 40.875 155.648 40.8828 155.406 40.8828C154.531 40.8828 154.156 40.4609 154.156 39.4688V34.7031H156.031V33.5781H154.156V31.3984H152.812ZM158.766 31.9531C159.281 31.9531 159.703 31.5312 159.703 31.0156C159.703 30.5 159.281 30.0781 158.766 30.0781C158.25 30.0781 157.828 30.5 157.828 31.0156C157.828 31.5312 158.25 31.9531 158.766 31.9531ZM158.094 42H159.438V33.5781H158.094V42ZM168.875 33.5781H167.438L165.133 40.5156H165.008L162.703 33.5781H161.266L164.383 42H165.758L168.875 33.5781ZM171.375 31.9531C171.891 31.9531 172.312 31.5312 172.312 31.0156C172.312 30.5 171.891 30.0781 171.375 30.0781C170.859 30.0781 170.438 30.5 170.438 31.0156C170.438 31.5312 170.859 31.9531 171.375 31.9531ZM170.703 42H172.047V33.5781H170.703V42ZM175.172 31.3984V33.5781H173.812V34.7031H175.172V39.8125C175.172 41.4219 175.867 42.0625 177.602 42.0625C177.867 42.0625 178.125 42.0312 178.391 41.9844V40.8516C178.141 40.875 178.008 40.8828 177.766 40.8828C176.891 40.8828 176.516 40.4609 176.516 39.4688V34.7031H178.391V33.5781H176.516V31.3984H175.172ZM181.141 45.0469C182.633 45.0469 183.305 44.4688 184.023 42.5156L187.312 33.5781H185.883L183.578 40.5078H183.453L181.141 33.5781H179.688L182.805 42.0078L182.648 42.5078C182.297 43.5234 181.875 43.8906 181.102 43.8906C180.914 43.8906 180.703 43.8828 180.539 43.8516V45C180.727 45.0312 180.961 45.0469 181.141 45.0469ZM194.188 42H195.531V34.7031H197.461V33.5781H195.531V32.6797C195.531 31.7578 195.938 31.2891 196.906 31.2891C197.148 31.2891 197.375 31.2969 197.539 31.3281V30.2344C197.258 30.1797 196.961 30.1562 196.633 30.1562C195.031 30.1562 194.188 30.9609 194.188 32.6406V33.5781H192.789V34.7031H194.188V42ZM202.523 42.1484C204.922 42.1484 206.406 40.4922 206.406 37.7891C206.406 35.0781 204.922 33.4297 202.523 33.4297C200.125 33.4297 198.641 35.0781 198.641 37.7891C198.641 40.4922 200.125 42.1484 202.523 42.1484ZM202.523 40.9375C200.93 40.9375 200.031 39.7812 200.031 37.7891C200.031 35.7891 200.93 34.6406 202.523 34.6406C204.117 34.6406 205.016 35.7891 205.016 37.7891C205.016 39.7812 204.117 40.9375 202.523 40.9375ZM208.516 42H209.859V36.7812C209.859 35.5938 210.789 34.7344 212.07 34.7344C212.336 34.7344 212.82 34.7812 212.93 34.8125V33.4688C212.758 33.4453 212.477 33.4297 212.258 33.4297C211.141 33.4297 210.172 34.0078 209.922 34.8281H209.797V33.5781H208.516V42ZM221.469 42.1484C222.594 42.1484 223.516 41.6562 224.062 40.7578H224.188V42H225.469V36.2344C225.469 34.4844 224.32 33.4297 222.266 33.4297C220.469 33.4297 219.141 34.3203 218.961 35.6719H220.32C220.508 35.0078 221.211 34.625 222.219 34.625C223.477 34.625 224.125 35.1953 224.125 36.2344V37L221.695 37.1484C219.734 37.2656 218.625 38.1328 218.625 39.6406C218.625 41.1797 219.836 42.1484 221.469 42.1484ZM221.719 40.9688C220.742 40.9688 220.016 40.4688 220.016 39.6094C220.016 38.7656 220.578 38.3203 221.859 38.2344L224.125 38.0859V38.8594C224.125 40.0625 223.102 40.9688 221.719 40.9688ZM231.07 42.1484C232.234 42.1484 233.234 41.5938 233.766 40.6562H233.891V42H235.172V30.2344H233.828V34.9062H233.711C233.234 33.9844 232.242 33.4297 231.07 33.4297C228.93 33.4297 227.531 35.1484 227.531 37.7891C227.531 40.4375 228.914 42.1484 231.07 42.1484ZM231.383 34.6406C232.906 34.6406 233.859 35.8594 233.859 37.7891C233.859 39.7344 232.914 40.9375 231.383 40.9375C229.844 40.9375 228.922 39.7578 228.922 37.7891C228.922 35.8281 229.852 34.6406 231.383 34.6406ZM237.586 35.8828C237.586 37.1016 238.305 37.7812 239.883 38.1641L241.328 38.5156C242.227 38.7344 242.664 39.125 242.664 39.7031C242.664 40.4766 241.852 41.0156 240.719 41.0156C239.641 41.0156 238.969 40.5625 238.742 39.8516H237.359C237.508 41.25 238.797 42.1484 240.672 42.1484C242.586 42.1484 244.047 41.1094 244.047 39.6016C244.047 38.3906 243.281 37.7031 241.695 37.3203L240.398 37.0078C239.406 36.7656 238.938 36.4062 238.938 35.8281C238.938 35.0781 239.719 34.5703 240.719 34.5703C241.734 34.5703 242.391 35.0156 242.57 35.6875H243.898C243.719 34.3047 242.492 33.4297 240.727 33.4297C238.938 33.4297 237.586 34.4844 237.586 35.8828ZM254.773 33.4297C253.625 33.4297 252.617 34.0156 252.078 34.9844H251.953V33.5781H250.672V44.8125H252.016V40.7344H252.141C252.602 41.625 253.57 42.1484 254.773 42.1484C256.914 42.1484 258.312 40.4219 258.312 37.7891C258.312 35.1406 256.922 33.4297 254.773 33.4297ZM254.453 40.9375C252.938 40.9375 251.977 39.7188 251.977 37.7891C251.977 35.8516 252.938 34.6406 254.461 34.6406C256 34.6406 256.922 35.8203 256.922 37.7891C256.922 39.7578 256 40.9375 254.453 40.9375ZM266 39.8203C265.648 40.5625 264.914 40.9609 263.828 40.9609C262.398 40.9609 261.469 39.9062 261.398 38.2422V38.1797H267.453V37.6641C267.453 35.0469 266.07 33.4297 263.797 33.4297C261.484 33.4297 260 35.1484 260 37.7969C260 40.4609 261.461 42.1484 263.797 42.1484C265.641 42.1484 266.953 41.2578 267.344 39.8203H266ZM263.781 34.6172C265.117 34.6172 266.008 35.6016 266.039 37.0938H261.398C261.5 35.6016 262.438 34.6172 263.781 34.6172ZM269.562 42H270.906V36.7812C270.906 35.5938 271.836 34.7344 273.117 34.7344C273.383 34.7344 273.867 34.7812 273.977 34.8125V33.4688C273.805 33.4453 273.523 33.4297 273.305 33.4297C272.188 33.4297 271.219 34.0078 270.969 34.8281H270.844V33.5781H269.562V42ZM276.688 42H278.031V34.7031H279.961V33.5781H278.031V32.6797C278.031 31.7578 278.438 31.2891 279.406 31.2891C279.648 31.2891 279.875 31.2969 280.039 31.3281V30.2344C279.758 30.1797 279.461 30.1562 279.133 30.1562C277.531 30.1562 276.688 30.9609 276.688 32.6406V33.5781H275.289V34.7031H276.688V42ZM285.023 42.1484C287.422 42.1484 288.906 40.4922 288.906 37.7891C288.906 35.0781 287.422 33.4297 285.023 33.4297C282.625 33.4297 281.141 35.0781 281.141 37.7891C281.141 40.4922 282.625 42.1484 285.023 42.1484ZM285.023 40.9375C283.43 40.9375 282.531 39.7812 282.531 37.7891C282.531 35.7891 283.43 34.6406 285.023 34.6406C286.617 34.6406 287.516 35.7891 287.516 37.7891C287.516 39.7812 286.617 40.9375 285.023 40.9375ZM291.016 42H292.359V36.7812C292.359 35.5938 293.289 34.7344 294.57 34.7344C294.836 34.7344 295.32 34.7812 295.43 34.8125V33.4688C295.258 33.4453 294.977 33.4297 294.758 33.4297C293.641 33.4297 292.672 34.0078 292.422 34.8281H292.297V33.5781H291.016V42ZM297.266 42H298.609V36.7812C298.609 35.5938 299.461 34.6406 300.562 34.6406C301.625 34.6406 302.32 35.2812 302.32 36.2812V42H303.664V36.5859C303.664 35.5156 304.445 34.6406 305.617 34.6406C306.805 34.6406 307.391 35.25 307.391 36.4922V42H308.734V36.1797C308.734 34.4141 307.773 33.4297 306.055 33.4297C304.891 33.4297 303.93 34.0156 303.477 34.9062H303.352C302.961 34.0312 302.164 33.4297 301.023 33.4297C299.898 33.4297 299.055 33.9688 298.672 34.9062H298.547V33.5781H297.266V42ZM313.531 42.1484C314.656 42.1484 315.578 41.6562 316.125 40.7578H316.25V42H317.531V36.2344C317.531 34.4844 316.383 33.4297 314.328 33.4297C312.531 33.4297 311.203 34.3203 311.023 35.6719H312.383C312.57 35.0078 313.273 34.625 314.281 34.625C315.539 34.625 316.188 35.1953 316.188 36.2344V37L313.758 37.1484C311.797 37.2656 310.688 38.1328 310.688 39.6406C310.688 41.1797 311.898 42.1484 313.531 42.1484ZM313.781 40.9688C312.805 40.9688 312.078 40.4688 312.078 39.6094C312.078 38.7656 312.641 38.3203 313.922 38.2344L316.188 38.0859V38.8594C316.188 40.0625 315.164 40.9688 313.781 40.9688ZM320.016 42H321.359V37.0156C321.359 35.5391 322.227 34.6406 323.57 34.6406C324.914 34.6406 325.555 35.3594 325.555 36.875V42H326.898V36.5469C326.898 34.5469 325.844 33.4297 323.953 33.4297C322.664 33.4297 321.844 33.9766 321.422 34.9062H321.297V33.5781H320.016V42ZM336.328 36.1562C336.094 34.6562 334.844 33.4297 332.797 33.4297C330.438 33.4297 328.938 35.1328 328.938 37.7578C328.938 40.4375 330.445 42.1484 332.805 42.1484C334.828 42.1484 336.086 41.0078 336.328 39.4609H334.969C334.719 40.4141 333.93 40.9375 332.797 40.9375C331.297 40.9375 330.328 39.7031 330.328 37.7578C330.328 35.8516 331.281 34.6406 332.797 34.6406C334.008 34.6406 334.75 35.3203 334.969 36.1562H336.328ZM343.891 39.8203C343.539 40.5625 342.805 40.9609 341.719 40.9609C340.289 40.9609 339.359 39.9062 339.289 38.2422V38.1797H345.344V37.6641C345.344 35.0469 343.961 33.4297 341.688 33.4297C339.375 33.4297 337.891 35.1484 337.891 37.7969C337.891 40.4609 339.352 42.1484 341.688 42.1484C343.531 42.1484 344.844 41.2578 345.234 39.8203H343.891ZM341.672 34.6172C343.008 34.6172 343.898 35.6016 343.93 37.0938H339.289C339.391 35.6016 340.328 34.6172 341.672 34.6172ZM351.969 42H353.312V36.7812C353.312 35.5938 354.242 34.7344 355.523 34.7344C355.789 34.7344 356.273 34.7812 356.383 34.8125V33.4688C356.211 33.4453 355.93 33.4297 355.711 33.4297C354.594 33.4297 353.625 34.0078 353.375 34.8281H353.25V33.5781H351.969V42ZM363.406 39.8203C363.055 40.5625 362.32 40.9609 361.234 40.9609C359.805 40.9609 358.875 39.9062 358.805 38.2422V38.1797H364.859V37.6641C364.859 35.0469 363.477 33.4297 361.203 33.4297C358.891 33.4297 357.406 35.1484 357.406 37.7969C357.406 40.4609 358.867 42.1484 361.203 42.1484C363.047 42.1484 364.359 41.2578 364.75 39.8203H363.406ZM361.188 34.6172C362.523 34.6172 363.414 35.6016 363.445 37.0938H358.805C358.906 35.6016 359.844 34.6172 361.188 34.6172ZM371.07 33.4297C369.922 33.4297 368.914 34.0156 368.375 34.9844H368.25V33.5781H366.969V44.8125H368.312V40.7344H368.438C368.898 41.625 369.867 42.1484 371.07 42.1484C373.211 42.1484 374.609 40.4219 374.609 37.7891C374.609 35.1406 373.219 33.4297 371.07 33.4297ZM370.75 40.9375C369.234 40.9375 368.273 39.7188 368.273 37.7891C368.273 35.8516 369.234 34.6406 370.758 34.6406C372.297 34.6406 373.219 35.8203 373.219 37.7891C373.219 39.7578 372.297 40.9375 370.75 40.9375ZM380.18 42.1484C382.578 42.1484 384.062 40.4922 384.062 37.7891C384.062 35.0781 382.578 33.4297 380.18 33.4297C377.781 33.4297 376.297 35.0781 376.297 37.7891C376.297 40.4922 377.781 42.1484 380.18 42.1484ZM380.18 40.9375C378.586 40.9375 377.688 39.7812 377.688 37.7891C377.688 35.7891 378.586 34.6406 380.18 34.6406C381.773 34.6406 382.672 35.7891 382.672 37.7891C382.672 39.7812 381.773 40.9375 380.18 40.9375ZM386.172 42H387.516V36.7812C387.516 35.5938 388.445 34.7344 389.727 34.7344C389.992 34.7344 390.477 34.7812 390.586 34.8125V33.4688C390.414 33.4453 390.133 33.4297 389.914 33.4297C388.797 33.4297 387.828 34.0078 387.578 34.8281H387.453V33.5781H386.172V42ZM393.297 31.3984V33.5781H391.938V34.7031H393.297V39.8125C393.297 41.4219 393.992 42.0625 395.727 42.0625C395.992 42.0625 396.25 42.0312 396.516 41.9844V40.8516C396.266 40.875 396.133 40.8828 395.891 40.8828C395.016 40.8828 394.641 40.4609 394.641 39.4688V34.7031H396.516V33.5781H394.641V31.3984H393.297ZM399.25 31.9531C399.766 31.9531 400.188 31.5312 400.188 31.0156C400.188 30.5 399.766 30.0781 399.25 30.0781C398.734 30.0781 398.312 30.5 398.312 31.0156C398.312 31.5312 398.734 31.9531 399.25 31.9531ZM398.578 42H399.922V33.5781H398.578V42ZM402.484 42H403.828V37.0156C403.828 35.5391 404.695 34.6406 406.039 34.6406C407.383 34.6406 408.023 35.3594 408.023 36.875V42H409.367V36.5469C409.367 34.5469 408.312 33.4297 406.422 33.4297C405.133 33.4297 404.312 33.9766 403.891 34.9062H403.766V33.5781H402.484V42ZM415.297 45.2344C417.594 45.2344 419.047 44.0312 419.047 42.1484V33.5781H417.766V34.9141H417.641C417.156 34.0078 416.117 33.4297 414.938 33.4297C412.773 33.4297 411.406 35.1406 411.406 37.6641C411.406 40.1875 412.758 41.875 414.938 41.875C416.094 41.875 417.047 41.3516 417.578 40.4219H417.703V42.0781C417.703 43.3203 416.805 44.0625 415.297 44.0625C414.086 44.0625 413.336 43.6172 413.188 42.9297H411.766C411.969 44.3203 413.266 45.2344 415.297 45.2344ZM415.234 40.6875C413.672 40.6875 412.797 39.5 412.797 37.6641C412.797 35.8281 413.672 34.6406 415.234 34.6406C416.789 34.6406 417.734 35.8281 417.734 37.6641C417.734 39.5 416.797 40.6875 415.234 40.6875Z" fill="#111111"/>
</g>
<g clip-path="url(#clip3_1444_14899)">
<g clip-path="url(#clip4_1444_14899)">
<rect x="53" y="169" width="24" height="24" rx="8" fill="#111111"/>
<path fill-rule="evenodd" clip-rule="evenodd" d="M63.5 186L59.366 181.874C58.878 181.387 58.878 180.597 59.366 180.11C59.854 179.623 60.646 179.623 61.134 180.11L63.5 182.471L68.866 177.116C69.354 176.628 70.146 176.628 70.634 177.116C71.122 177.603 71.122 178.393 70.634 178.88L63.5 186Z" fill="white"/>
</g>
<path d="M85.8984 184.055C86.0469 186 87.6953 187.266 90.0859 187.266C92.6641 187.266 94.2969 185.945 94.2969 183.875C94.2969 182.219 93.3594 181.312 91.0234 180.727L89.8438 180.414C88.2891 180.016 87.6719 179.508 87.6719 178.625C87.6719 177.484 88.6641 176.734 90.1641 176.734C91.5703 176.734 92.5234 177.422 92.7188 178.578H94.1328C94.0156 176.758 92.3906 175.461 90.2109 175.461C87.8281 175.461 86.2266 176.758 86.2266 178.672C86.2266 180.273 87.1094 181.195 89.1484 181.711L90.5938 182.086C92.1484 182.477 92.8516 183.086 92.8516 184.047C92.8516 185.164 91.7344 185.984 90.2188 185.984C88.6172 185.984 87.4922 185.234 87.3203 184.055H85.8984ZM96.5469 187H97.8906V182.016C97.8906 180.594 98.7188 179.641 100.227 179.641C101.5 179.641 102.172 180.383 102.172 181.875V187H103.516V181.547C103.516 179.57 102.391 178.43 100.609 178.43C99.3203 178.43 98.4375 178.977 98.0156 179.906H97.8906V175.234H96.5469V187ZM108.312 187.148C109.438 187.148 110.359 186.656 110.906 185.758H111.031V187H112.312V181.234C112.312 179.484 111.164 178.43 109.109 178.43C107.312 178.43 105.984 179.32 105.805 180.672H107.164C107.352 180.008 108.055 179.625 109.062 179.625C110.32 179.625 110.969 180.195 110.969 181.234V182L108.539 182.148C106.578 182.266 105.469 183.133 105.469 184.641C105.469 186.18 106.68 187.148 108.312 187.148ZM108.562 185.969C107.586 185.969 106.859 185.469 106.859 184.609C106.859 183.766 107.422 183.32 108.703 183.234L110.969 183.086V183.859C110.969 185.062 109.945 185.969 108.562 185.969ZM114.797 187H116.141V181.781C116.141 180.594 117.07 179.734 118.352 179.734C118.617 179.734 119.102 179.781 119.211 179.812V178.469C119.039 178.445 118.758 178.43 118.539 178.43C117.422 178.43 116.453 179.008 116.203 179.828H116.078V178.578H114.797V187ZM126.234 184.82C125.883 185.562 125.148 185.961 124.062 185.961C122.633 185.961 121.703 184.906 121.633 183.242V183.18H127.688V182.664C127.688 180.047 126.305 178.43 124.031 178.43C121.719 178.43 120.234 180.148 120.234 182.797C120.234 185.461 121.695 187.148 124.031 187.148C125.875 187.148 127.188 186.258 127.578 184.82H126.234ZM124.016 179.617C125.352 179.617 126.242 180.602 126.273 182.094H121.633C121.734 180.602 122.672 179.617 124.016 179.617ZM136.656 187.148C137.781 187.148 138.703 186.656 139.25 185.758H139.375V187H140.656V181.234C140.656 179.484 139.508 178.43 137.453 178.43C135.656 178.43 134.328 179.32 134.148 180.672H135.508C135.695 180.008 136.398 179.625 137.406 179.625C138.664 179.625 139.312 180.195 139.312 181.234V182L136.883 182.148C134.922 182.266 133.812 183.133 133.812 184.641C133.812 186.18 135.023 187.148 136.656 187.148ZM136.906 185.969C135.93 185.969 135.203 185.469 135.203 184.609C135.203 183.766 135.766 183.32 137.047 183.234L139.312 183.086V183.859C139.312 185.062 138.289 185.969 136.906 185.969ZM150.109 181.156C149.875 179.656 148.625 178.43 146.578 178.43C144.219 178.43 142.719 180.133 142.719 182.758C142.719 185.438 144.227 187.148 146.586 187.148C148.609 187.148 149.867 186.008 150.109 184.461H148.75C148.5 185.414 147.711 185.938 146.578 185.938C145.078 185.938 144.109 184.703 144.109 182.758C144.109 180.852 145.062 179.641 146.578 179.641C147.789 179.641 148.531 180.32 148.75 181.156H150.109ZM152.812 176.398V178.578H151.453V179.703H152.812V184.812C152.812 186.422 153.508 187.062 155.242 187.062C155.508 187.062 155.766 187.031 156.031 186.984V185.852C155.781 185.875 155.648 185.883 155.406 185.883C154.531 185.883 154.156 185.461 154.156 184.469V179.703H156.031V178.578H154.156V176.398H152.812ZM158.766 176.953C159.281 176.953 159.703 176.531 159.703 176.016C159.703 175.5 159.281 175.078 158.766 175.078C158.25 175.078 157.828 175.5 157.828 176.016C157.828 176.531 158.25 176.953 158.766 176.953ZM158.094 187H159.438V178.578H158.094V187ZM168.875 178.578H167.438L165.133 185.516H165.008L162.703 178.578H161.266L164.383 187H165.758L168.875 178.578ZM171.375 176.953C171.891 176.953 172.312 176.531 172.312 176.016C172.312 175.5 171.891 175.078 171.375 175.078C170.859 175.078 170.438 175.5 170.438 176.016C170.438 176.531 170.859 176.953 171.375 176.953ZM170.703 187H172.047V178.578H170.703V187ZM175.172 176.398V178.578H173.812V179.703H175.172V184.812C175.172 186.422 175.867 187.062 177.602 187.062C177.867 187.062 178.125 187.031 178.391 186.984V185.852C178.141 185.875 178.008 185.883 177.766 185.883C176.891 185.883 176.516 185.461 176.516 184.469V179.703H178.391V178.578H176.516V176.398H175.172ZM181.141 190.047C182.633 190.047 183.305 189.469 184.023 187.516L187.312 178.578H185.883L183.578 185.508H183.453L181.141 178.578H179.688L182.805 187.008L182.648 187.508C182.297 188.523 181.875 188.891 181.102 188.891C180.914 188.891 180.703 188.883 180.539 188.852V190C180.727 190.031 180.961 190.047 181.141 190.047ZM194.188 187H195.531V179.703H197.461V178.578H195.531V177.68C195.531 176.758 195.938 176.289 196.906 176.289C197.148 176.289 197.375 176.297 197.539 176.328V175.234C197.258 175.18 196.961 175.156 196.633 175.156C195.031 175.156 194.188 175.961 194.188 177.641V178.578H192.789V179.703H194.188V187ZM202.523 187.148C204.922 187.148 206.406 185.492 206.406 182.789C206.406 180.078 204.922 178.43 202.523 178.43C200.125 178.43 198.641 180.078 198.641 182.789C198.641 185.492 200.125 187.148 202.523 187.148ZM202.523 185.938C200.93 185.938 200.031 184.781 200.031 182.789C200.031 180.789 200.93 179.641 202.523 179.641C204.117 179.641 205.016 180.789 205.016 182.789C205.016 184.781 204.117 185.938 202.523 185.938ZM208.516 187H209.859V181.781C209.859 180.594 210.789 179.734 212.07 179.734C212.336 179.734 212.82 179.781 212.93 179.812V178.469C212.758 178.445 212.477 178.43 212.258 178.43C211.141 178.43 210.172 179.008 209.922 179.828H209.797V178.578H208.516V187ZM221.469 187.148C222.594 187.148 223.516 186.656 224.062 185.758H224.188V187H225.469V181.234C225.469 179.484 224.32 178.43 222.266 178.43C220.469 178.43 219.141 179.32 218.961 180.672H220.32C220.508 180.008 221.211 179.625 222.219 179.625C223.477 179.625 224.125 180.195 224.125 181.234V182L221.695 182.148C219.734 182.266 218.625 183.133 218.625 184.641C218.625 186.18 219.836 187.148 221.469 187.148ZM221.719 185.969C220.742 185.969 220.016 185.469 220.016 184.609C220.016 183.766 220.578 183.32 221.859 183.234L224.125 183.086V183.859C224.125 185.062 223.102 185.969 221.719 185.969ZM231.07 187.148C232.234 187.148 233.234 186.594 233.766 185.656H233.891V187H235.172V175.234H233.828V179.906H233.711C233.234 178.984 232.242 178.43 231.07 178.43C228.93 178.43 227.531 180.148 227.531 182.789C227.531 185.438 228.914 187.148 231.07 187.148ZM231.383 179.641C232.906 179.641 233.859 180.859 233.859 182.789C233.859 184.734 232.914 185.938 231.383 185.938C229.844 185.938 228.922 184.758 228.922 182.789C228.922 180.828 229.852 179.641 231.383 179.641ZM237.586 180.883C237.586 182.102 238.305 182.781 239.883 183.164L241.328 183.516C242.227 183.734 242.664 184.125 242.664 184.703C242.664 185.477 241.852 186.016 240.719 186.016C239.641 186.016 238.969 185.562 238.742 184.852H237.359C237.508 186.25 238.797 187.148 240.672 187.148C242.586 187.148 244.047 186.109 244.047 184.602C244.047 183.391 243.281 182.703 241.695 182.32L240.398 182.008C239.406 181.766 238.938 181.406 238.938 180.828C238.938 180.078 239.719 179.57 240.719 179.57C241.734 179.57 242.391 180.016 242.57 180.688H243.898C243.719 179.305 242.492 178.43 240.727 178.43C238.938 178.43 237.586 179.484 237.586 180.883ZM254.773 178.43C253.625 178.43 252.617 179.016 252.078 179.984H251.953V178.578H250.672V189.812H252.016V185.734H252.141C252.602 186.625 253.57 187.148 254.773 187.148C256.914 187.148 258.312 185.422 258.312 182.789C258.312 180.141 256.922 178.43 254.773 178.43ZM254.453 185.938C252.938 185.938 251.977 184.719 251.977 182.789C251.977 180.852 252.938 179.641 254.461 179.641C256 179.641 256.922 180.82 256.922 182.789C256.922 184.758 256 185.938 254.453 185.938ZM266 184.82C265.648 185.562 264.914 185.961 263.828 185.961C262.398 185.961 261.469 184.906 261.398 183.242V183.18H267.453V182.664C267.453 180.047 266.07 178.43 263.797 178.43C261.484 178.43 260 180.148 260 182.797C260 185.461 261.461 187.148 263.797 187.148C265.641 187.148 266.953 186.258 267.344 184.82H266ZM263.781 179.617C265.117 179.617 266.008 180.602 266.039 182.094H261.398C261.5 180.602 262.438 179.617 263.781 179.617ZM269.562 187H270.906V181.781C270.906 180.594 271.836 179.734 273.117 179.734C273.383 179.734 273.867 179.781 273.977 179.812V178.469C273.805 178.445 273.523 178.43 273.305 178.43C272.188 178.43 271.219 179.008 270.969 179.828H270.844V178.578H269.562V187ZM276.688 187H278.031V179.703H279.961V178.578H278.031V177.68C278.031 176.758 278.438 176.289 279.406 176.289C279.648 176.289 279.875 176.297 280.039 176.328V175.234C279.758 175.18 279.461 175.156 279.133 175.156C277.531 175.156 276.688 175.961 276.688 177.641V178.578H275.289V179.703H276.688V187ZM285.023 187.148C287.422 187.148 288.906 185.492 288.906 182.789C288.906 180.078 287.422 178.43 285.023 178.43C282.625 178.43 281.141 180.078 281.141 182.789C281.141 185.492 282.625 187.148 285.023 187.148ZM285.023 185.938C283.43 185.938 282.531 184.781 282.531 182.789C282.531 180.789 283.43 179.641 285.023 179.641C286.617 179.641 287.516 180.789 287.516 182.789C287.516 184.781 286.617 185.938 285.023 185.938ZM291.016 187H292.359V181.781C292.359 180.594 293.289 179.734 294.57 179.734C294.836 179.734 295.32 179.781 295.43 179.812V178.469C295.258 178.445 294.977 178.43 294.758 178.43C293.641 178.43 292.672 179.008 292.422 179.828H292.297V178.578H291.016V187ZM297.266 187H298.609V181.781C298.609 180.594 299.461 179.641 300.562 179.641C301.625 179.641 302.32 180.281 302.32 181.281V187H303.664V181.586C303.664 180.516 304.445 179.641 305.617 179.641C306.805 179.641 307.391 180.25 307.391 181.492V187H308.734V181.18C308.734 179.414 307.773 178.43 306.055 178.43C304.891 178.43 303.93 179.016 303.477 179.906H303.352C302.961 179.031 302.164 178.43 301.023 178.43C299.898 178.43 299.055 178.969 298.672 179.906H298.547V178.578H297.266V187ZM313.531 187.148C314.656 187.148 315.578 186.656 316.125 185.758H316.25V187H317.531V181.234C317.531 179.484 316.383 178.43 314.328 178.43C312.531 178.43 311.203 179.32 311.023 180.672H312.383C312.57 180.008 313.273 179.625 314.281 179.625C315.539 179.625 316.188 180.195 316.188 181.234V182L313.758 182.148C311.797 182.266 310.688 183.133 310.688 184.641C310.688 186.18 311.898 187.148 313.531 187.148ZM313.781 185.969C312.805 185.969 312.078 185.469 312.078 184.609C312.078 183.766 312.641 183.32 313.922 183.234L316.188 183.086V183.859C316.188 185.062 315.164 185.969 313.781 185.969ZM320.016 187H321.359V182.016C321.359 180.539 322.227 179.641 323.57 179.641C324.914 179.641 325.555 180.359 325.555 181.875V187H326.898V181.547C326.898 179.547 325.844 178.43 323.953 178.43C322.664 178.43 321.844 178.977 321.422 179.906H321.297V178.578H320.016V187ZM336.328 181.156C336.094 179.656 334.844 178.43 332.797 178.43C330.438 178.43 328.938 180.133 328.938 182.758C328.938 185.438 330.445 187.148 332.805 187.148C334.828 187.148 336.086 186.008 336.328 184.461H334.969C334.719 185.414 333.93 185.938 332.797 185.938C331.297 185.938 330.328 184.703 330.328 182.758C330.328 180.852 331.281 179.641 332.797 179.641C334.008 179.641 334.75 180.32 334.969 181.156H336.328ZM343.891 184.82C343.539 185.562 342.805 185.961 341.719 185.961C340.289 185.961 339.359 184.906 339.289 183.242V183.18H345.344V182.664C345.344 180.047 343.961 178.43 341.688 178.43C339.375 178.43 337.891 180.148 337.891 182.797C337.891 185.461 339.352 187.148 341.688 187.148C343.531 187.148 344.844 186.258 345.234 184.82H343.891ZM341.672 179.617C343.008 179.617 343.898 180.602 343.93 182.094H339.289C339.391 180.602 340.328 179.617 341.672 179.617ZM351.969 187H353.312V181.781C353.312 180.594 354.242 179.734 355.523 179.734C355.789 179.734 356.273 179.781 356.383 179.812V178.469C356.211 178.445 355.93 178.43 355.711 178.43C354.594 178.43 353.625 179.008 353.375 179.828H353.25V178.578H351.969V187ZM363.406 184.82C363.055 185.562 362.32 185.961 361.234 185.961C359.805 185.961 358.875 184.906 358.805 183.242V183.18H364.859V182.664C364.859 180.047 363.477 178.43 361.203 178.43C358.891 178.43 357.406 180.148 357.406 182.797C357.406 185.461 358.867 187.148 361.203 187.148C363.047 187.148 364.359 186.258 364.75 184.82H363.406ZM361.188 179.617C362.523 179.617 363.414 180.602 363.445 182.094H358.805C358.906 180.602 359.844 179.617 361.188 179.617ZM371.07 178.43C369.922 178.43 368.914 179.016 368.375 179.984H368.25V178.578H366.969V189.812H368.312V185.734H368.438C368.898 186.625 369.867 187.148 371.07 187.148C373.211 187.148 374.609 185.422 374.609 182.789C374.609 180.141 373.219 178.43 371.07 178.43ZM370.75 185.938C369.234 185.938 368.273 184.719 368.273 182.789C368.273 180.852 369.234 179.641 370.758 179.641C372.297 179.641 373.219 180.82 373.219 182.789C373.219 184.758 372.297 185.938 370.75 185.938ZM380.18 187.148C382.578 187.148 384.062 185.492 384.062 182.789C384.062 180.078 382.578 178.43 380.18 178.43C377.781 178.43 376.297 180.078 376.297 182.789C376.297 185.492 377.781 187.148 380.18 187.148ZM380.18 185.938C378.586 185.938 377.688 184.781 377.688 182.789C377.688 180.789 378.586 179.641 380.18 179.641C381.773 179.641 382.672 180.789 382.672 182.789C382.672 184.781 381.773 185.938 380.18 185.938ZM386.172 187H387.516V181.781C387.516 180.594 388.445 179.734 389.727 179.734C389.992 179.734 390.477 179.781 390.586 179.812V178.469C390.414 178.445 390.133 178.43 389.914 178.43C388.797 178.43 387.828 179.008 387.578 179.828H387.453V178.578H386.172V187ZM393.297 176.398V178.578H391.938V179.703H393.297V184.812C393.297 186.422 393.992 187.062 395.727 187.062C395.992 187.062 396.25 187.031 396.516 186.984V185.852C396.266 185.875 396.133 185.883 395.891 185.883C395.016 185.883 394.641 185.461 394.641 184.469V179.703H396.516V178.578H394.641V176.398H393.297ZM399.25 176.953C399.766 176.953 400.188 176.531 400.188 176.016C400.188 175.5 399.766 175.078 399.25 175.078C398.734 175.078 398.312 175.5 398.312 176.016C398.312 176.531 398.734 176.953 399.25 176.953ZM398.578 187H399.922V178.578H398.578V187ZM402.484 187H403.828V182.016C403.828 180.539 404.695 179.641 406.039 179.641C407.383 179.641 408.023 180.359 408.023 181.875V187H409.367V181.547C409.367 179.547 408.312 178.43 406.422 178.43C405.133 178.43 404.312 178.977 403.891 179.906H403.766V178.578H402.484V187ZM415.297 190.234C417.594 190.234 419.047 189.031 419.047 187.148V178.578H417.766V179.914H417.641C417.156 179.008 416.117 178.43 414.938 178.43C412.773 178.43 411.406 180.141 411.406 182.664C411.406 185.188 412.758 186.875 414.938 186.875C416.094 186.875 417.047 186.352 417.578 185.422H417.703V187.078C417.703 188.32 416.805 189.062 415.297 189.062C414.086 189.062 413.336 188.617 413.188 187.93H411.766C411.969 189.32 413.266 190.234 415.297 190.234ZM415.234 185.688C413.672 185.688 412.797 184.5 412.797 182.664C412.797 180.828 413.672 179.641 415.234 179.641C416.789 179.641 417.734 180.828 417.734 182.664C417.734 184.5 416.797 185.688 415.234 185.688Z" fill="#111111"/>
</g>
<rect y="144" width="437" height="1" fill="#D9D9D9"/>
<path fill-rule="evenodd" clip-rule="evenodd" d="M18 288C11.3726 288 6 293.373 6 300C6 306.627 11.3726 312 18 312C24.6274 312 30 306.627 30 300C30 293.373 24.6274 288 18 288ZM12.366 301.374L16.5 305.5L23.634 298.38C24.122 297.893 24.122 297.103 23.634 296.616C23.146 296.128 22.354 296.128 21.866 296.616L16.5 301.971L14.134 299.61C13.646 299.123 12.854 299.123 12.366 299.61C11.878 300.097 11.878 300.887 12.366 301.374Z" fill="#005F3E"/>
<path fill-rule="evenodd" clip-rule="evenodd" d="M21.182 128.95L18 125.768L14.819 128.95C14.33 129.438 13.538 129.438 13.05 128.95C12.563 128.462 12.563 127.671 13.05 127.182L16.233 124L13.05 120.818C12.563 120.33 12.563 119.539 13.05 119.051C13.538 118.562 14.33 118.562 14.819 119.051L18 122.233L21.182 119.051C21.67 118.562 22.462 118.562 22.951 119.051C23.438 119.539 23.438 120.33 22.951 120.818L19.768 124L22.951 127.182C23.438 127.671 23.438 128.462 22.951 128.95C22.462 129.438 21.67 129.438 21.182 128.95ZM30 124C30 117.373 24.627 112 18 112C11.372 112 6 117.373 6 124C6 130.628 11.373 136 18 136C24.628 136 30 130.628 30 124Z" fill="#CC0000"/>
<path d="M57.372 67.7466C56.3709 69.5471 56.7882 72.1123 57.2571 73.624C57.3804 74.0216 57.7564 74.2793 58.1713 74.2448C59.9267 74.099 62.7945 73.329 64.1394 71.0163C65.9019 68.0407 65.1585 65.091 64.371 63.5858C64.1987 63.2567 63.8339 63.0842 63.4697 63.1574C61.3027 63.5932 58.7032 65.3524 57.372 67.7466Z" fill="white" stroke="black"/>
<path d="M96.5671 89.2687H69.1045L72.3665 107.806H93.0085L96.5671 89.2687Z" fill="white"/>
<rect x="65.8284" y="84.9627" width="33.6716" height="4.14925" rx="0.529851" fill="white" stroke="black"/>
<path d="M68.7612 89.2687L71.8998 106.956C71.9871 107.448 72.4145 107.806 72.9138 107.806H92.2418C92.7375 107.806 93.1629 107.453 93.2541 106.966L96.5672 89.2687" stroke="black" stroke-linejoin="round"/>
<path d="M76.5977 71.864C82.4208 76.3011 87.071 74.498 89.2374 72.4609C89.669 72.0551 89.5475 71.3726 89.0329 71.079C83.8335 68.1122 79.1289 69.108 76.6743 70.4053C76.1025 70.7075 76.0833 71.4721 76.5977 71.864Z" fill="white" stroke="black" stroke-linejoin="round"/>
<path d="M81.2308 71.2737C80.9616 71.2122 80.6935 71.3806 80.632 71.6498C80.5705 71.919 80.7389 72.1871 81.0081 72.2486L81.2308 71.2737ZM81.0081 72.2486C81.8568 72.4425 83.273 72.6667 84.796 72.7181C86.3091 72.7692 87.9841 72.6521 89.317 72.124L88.9486 71.1943C87.8063 71.6469 86.2945 71.7681 84.8297 71.7187C83.3748 71.6696 82.0219 71.4545 81.2308 71.2737L81.0081 72.2486Z" fill="black"/>
<path d="M58.3695 72.2602C58.3167 72.5313 58.4936 72.7938 58.7646 72.8466C59.0357 72.8994 59.2982 72.7225 59.351 72.4514L58.3695 72.2602ZM59.351 72.4514C59.6629 70.8504 61.2425 66.6248 64.1852 63.7706L63.489 63.0527C60.3661 66.0817 58.7105 70.5099 58.3695 72.2602L59.351 72.4514Z" fill="black"/>
<path d="M63.6119 63.1761C66.5965 60.4148 73.8283 56.388 79.5678 57.0783C86.8495 57.9541 89.3249 64.5567 89.6693 69.2739C90.0809 74.9114 86.4552 81.3544 83.9298 84.806" stroke="black"/>
<rect x="54" y="202" width="360" height="81" rx="16" fill="#FFE4C1"/>
<path d="M85.2683 222.228L77.7719 214.732C76.7963 213.756 75.2037 213.756 74.2281 214.732L66.7317 222.228C65.7561 223.204 65.7561 224.796 66.7317 225.772L74.2281 233.268C75.2037 234.244 76.7963 234.244 77.7719 233.268L85.2683 225.772C86.2439 224.796 86.2439 223.212 85.2683 222.228ZM75.9958 229.841C75.2787 229.841 74.695 229.257 74.695 228.54C74.695 227.823 75.2787 227.24 75.9958 227.24C76.7129 227.24 77.2966 227.823 77.2966 228.54C77.2966 229.257 76.7129 229.841 75.9958 229.841ZM77.2966 224.655C77.2966 225.372 76.7129 225.955 75.9958 225.955C75.2787 225.955 74.695 225.372 74.695 224.655V219.46C74.695 218.743 75.2787 218.159 75.9958 218.159C76.7129 218.159 77.2966 218.743 77.2966 219.46V224.655Z" fill="#BD5B00"/>
<path d="M103.773 229V218.992H107.406V217.727H98.7344V218.992H102.367V229H103.773ZM109.484 229H110.828V224.016C110.828 222.594 111.656 221.641 113.164 221.641C114.438 221.641 115.109 222.383 115.109 223.875V229H116.453V223.547C116.453 221.57 115.328 220.43 113.547 220.43C112.258 220.43 111.375 220.977 110.953 221.906H110.828V217.234H109.484V229ZM119.609 218.953C120.125 218.953 120.547 218.531 120.547 218.016C120.547 217.5 120.125 217.078 119.609 217.078C119.094 217.078 118.672 217.5 118.672 218.016C118.672 218.531 119.094 218.953 119.609 218.953ZM118.938 229H120.281V220.578H118.938V229ZM122.648 222.883C122.648 224.102 123.367 224.781 124.945 225.164L126.391 225.516C127.289 225.734 127.727 226.125 127.727 226.703C127.727 227.477 126.914 228.016 125.781 228.016C124.703 228.016 124.031 227.562 123.805 226.852H122.422C122.57 228.25 123.859 229.148 125.734 229.148C127.648 229.148 129.109 228.109 129.109 226.602C129.109 225.391 128.344 224.703 126.758 224.32L125.461 224.008C124.469 223.766 124 223.406 124 222.828C124 222.078 124.781 221.57 125.781 221.57C126.797 221.57 127.453 222.016 127.633 222.688H128.961C128.781 221.305 127.555 220.43 125.789 220.43C124 220.43 122.648 221.484 122.648 222.883ZM136.297 229H137.641V221.703H139.57V220.578H137.641V219.68C137.641 218.758 138.047 218.289 139.016 218.289C139.258 218.289 139.484 218.297 139.648 218.328V217.234C139.367 217.18 139.07 217.156 138.742 217.156C137.141 217.156 136.297 217.961 136.297 219.641V220.578H134.898V221.703H136.297V229ZM146.75 226.82C146.398 227.562 145.664 227.961 144.578 227.961C143.148 227.961 142.219 226.906 142.148 225.242V225.18H148.203V224.664C148.203 222.047 146.82 220.43 144.547 220.43C142.234 220.43 140.75 222.148 140.75 224.797C140.75 227.461 142.211 229.148 144.547 229.148C146.391 229.148 147.703 228.258 148.094 226.82H146.75ZM144.531 221.617C145.867 221.617 146.758 222.602 146.789 224.094H142.148C142.25 222.602 143.188 221.617 144.531 221.617ZM152.656 229.148C153.781 229.148 154.703 228.656 155.25 227.758H155.375V229H156.656V223.234C156.656 221.484 155.508 220.43 153.453 220.43C151.656 220.43 150.328 221.32 150.148 222.672H151.508C151.695 222.008 152.398 221.625 153.406 221.625C154.664 221.625 155.312 222.195 155.312 223.234V224L152.883 224.148C150.922 224.266 149.812 225.133 149.812 226.641C149.812 228.18 151.023 229.148 152.656 229.148ZM152.906 227.969C151.93 227.969 151.203 227.469 151.203 226.609C151.203 225.766 151.766 225.32 153.047 225.234L155.312 225.086V225.859C155.312 227.062 154.289 227.969 152.906 227.969ZM159.703 218.398V220.578H158.344V221.703H159.703V226.812C159.703 228.422 160.398 229.062 162.133 229.062C162.398 229.062 162.656 229.031 162.922 228.984V227.852C162.672 227.875 162.539 227.883 162.297 227.883C161.422 227.883 161.047 227.461 161.047 226.469V221.703H162.922V220.578H161.047V218.398H159.703ZM171.766 220.578H170.422V225.562C170.422 227.039 169.609 227.922 168.125 227.922C166.781 227.922 166.219 227.219 166.219 225.703V220.578H164.875V226.031C164.875 228.023 165.859 229.148 167.75 229.148C169.039 229.148 169.938 228.617 170.359 227.68H170.484V229H171.766V220.578ZM174.297 229H175.641V223.781C175.641 222.594 176.57 221.734 177.852 221.734C178.117 221.734 178.602 221.781 178.711 221.812V220.469C178.539 220.445 178.258 220.43 178.039 220.43C176.922 220.43 175.953 221.008 175.703 221.828H175.578V220.578H174.297V229ZM185.734 226.82C185.383 227.562 184.648 227.961 183.562 227.961C182.133 227.961 181.203 226.906 181.133 225.242V225.18H187.188V224.664C187.188 222.047 185.805 220.43 183.531 220.43C181.219 220.43 179.734 222.148 179.734 224.797C179.734 227.461 181.195 229.148 183.531 229.148C185.375 229.148 186.688 228.258 187.078 226.82H185.734ZM183.516 221.617C184.852 221.617 185.742 222.602 185.773 224.094H181.133C181.234 222.602 182.172 221.617 183.516 221.617ZM194.516 218.953C195.031 218.953 195.453 218.531 195.453 218.016C195.453 217.5 195.031 217.078 194.516 217.078C194 217.078 193.578 217.5 193.578 218.016C193.578 218.531 194 218.953 194.516 218.953ZM193.844 229H195.188V220.578H193.844V229ZM197.555 222.883C197.555 224.102 198.273 224.781 199.852 225.164L201.297 225.516C202.195 225.734 202.633 226.125 202.633 226.703C202.633 227.477 201.82 228.016 200.688 228.016C199.609 228.016 198.938 227.562 198.711 226.852H197.328C197.477 228.25 198.766 229.148 200.641 229.148C202.555 229.148 204.016 228.109 204.016 226.602C204.016 225.391 203.25 224.703 201.664 224.32L200.367 224.008C199.375 223.766 198.906 223.406 198.906 222.828C198.906 222.078 199.688 221.57 200.688 221.57C201.703 221.57 202.359 222.016 202.539 222.688H203.867C203.688 221.305 202.461 220.43 200.695 220.43C198.906 220.43 197.555 221.484 197.555 222.883ZM214.828 229.148C216.961 229.148 218.359 227.422 218.359 224.789C218.359 222.141 216.969 220.43 214.828 220.43C213.672 220.43 212.648 221 212.188 221.906H212.062V217.234H210.719V229H212V227.656H212.125C212.656 228.594 213.656 229.148 214.828 229.148ZM214.516 221.641C216.055 221.641 216.969 222.82 216.969 224.789C216.969 226.758 216.055 227.938 214.516 227.938C212.984 227.938 212.031 226.734 212.031 224.789C212.031 222.844 212.984 221.641 214.516 221.641ZM226.047 226.82C225.695 227.562 224.961 227.961 223.875 227.961C222.445 227.961 221.516 226.906 221.445 225.242V225.18H227.5V224.664C227.5 222.047 226.117 220.43 223.844 220.43C221.531 220.43 220.047 222.148 220.047 224.797C220.047 227.461 221.508 229.148 223.844 229.148C225.688 229.148 227 228.258 227.391 226.82H226.047ZM223.828 221.617C225.164 221.617 226.055 222.602 226.086 224.094H221.445C221.547 222.602 222.484 221.617 223.828 221.617ZM230.312 218.953C230.828 218.953 231.25 218.531 231.25 218.016C231.25 217.5 230.828 217.078 230.312 217.078C229.797 217.078 229.375 217.5 229.375 218.016C229.375 218.531 229.797 218.953 230.312 218.953ZM229.641 229H230.984V220.578H229.641V229ZM233.547 229H234.891V224.016C234.891 222.539 235.758 221.641 237.102 221.641C238.445 221.641 239.086 222.359 239.086 223.875V229H240.43V223.547C240.43 221.547 239.375 220.43 237.484 220.43C236.195 220.43 235.375 220.977 234.953 221.906H234.828V220.578H233.547V229ZM246.359 232.234C248.656 232.234 250.109 231.031 250.109 229.148V220.578H248.828V221.914H248.703C248.219 221.008 247.18 220.43 246 220.43C243.836 220.43 242.469 222.141 242.469 224.664C242.469 227.188 243.82 228.875 246 228.875C247.156 228.875 248.109 228.352 248.641 227.422H248.766V229.078C248.766 230.32 247.867 231.062 246.359 231.062C245.148 231.062 244.398 230.617 244.25 229.93H242.828C243.031 231.32 244.328 232.234 246.359 232.234ZM246.297 227.688C244.734 227.688 243.859 226.5 243.859 224.664C243.859 222.828 244.734 221.641 246.297 221.641C247.852 221.641 248.797 222.828 248.797 224.664C248.797 226.5 247.859 227.688 246.297 227.688ZM256.961 222.883C256.961 224.102 257.68 224.781 259.258 225.164L260.703 225.516C261.602 225.734 262.039 226.125 262.039 226.703C262.039 227.477 261.227 228.016 260.094 228.016C259.016 228.016 258.344 227.562 258.117 226.852H256.734C256.883 228.25 258.172 229.148 260.047 229.148C261.961 229.148 263.422 228.109 263.422 226.602C263.422 225.391 262.656 224.703 261.07 224.32L259.773 224.008C258.781 223.766 258.312 223.406 258.312 222.828C258.312 222.078 259.094 221.57 260.094 221.57C261.109 221.57 261.766 222.016 261.945 222.688H263.273C263.094 221.305 261.867 220.43 260.102 220.43C258.312 220.43 256.961 221.484 256.961 222.883ZM272.344 220.578H271V225.562C271 227.039 270.188 227.922 268.703 227.922C267.359 227.922 266.797 227.219 266.797 225.703V220.578H265.453V226.031C265.453 228.023 266.438 229.148 268.328 229.148C269.617 229.148 270.516 228.617 270.938 227.68H271.062V229H272.344V220.578ZM274.875 229H276.219V224.016C276.219 222.539 277.086 221.641 278.43 221.641C279.773 221.641 280.414 222.359 280.414 223.875V229H281.758V223.547C281.758 221.547 280.703 220.43 278.812 220.43C277.523 220.43 276.703 220.977 276.281 221.906H276.156V220.578H274.875V229ZM284.023 222.883C284.023 224.102 284.742 224.781 286.32 225.164L287.766 225.516C288.664 225.734 289.102 226.125 289.102 226.703C289.102 227.477 288.289 228.016 287.156 228.016C286.078 228.016 285.406 227.562 285.18 226.852H283.797C283.945 228.25 285.234 229.148 287.109 229.148C289.023 229.148 290.484 228.109 290.484 226.602C290.484 225.391 289.719 224.703 288.133 224.32L286.836 224.008C285.844 223.766 285.375 223.406 285.375 222.828C285.375 222.078 286.156 221.57 287.156 221.57C288.172 221.57 288.828 222.016 289.008 222.688H290.336C290.156 221.305 288.93 220.43 287.164 220.43C285.375 220.43 284.023 221.484 284.023 222.883ZM298.172 226.82C297.82 227.562 297.086 227.961 296 227.961C294.57 227.961 293.641 226.906 293.57 225.242V225.18H299.625V224.664C299.625 222.047 298.242 220.43 295.969 220.43C293.656 220.43 292.172 222.148 292.172 224.797C292.172 227.461 293.633 229.148 295.969 229.148C297.812 229.148 299.125 228.258 299.516 226.82H298.172ZM295.953 221.617C297.289 221.617 298.18 222.602 298.211 224.094H293.57C293.672 222.602 294.609 221.617 295.953 221.617ZM302.297 218.398V220.578H300.938V221.703H302.297V226.812C302.297 228.422 302.992 229.062 304.727 229.062C304.992 229.062 305.25 229.031 305.516 228.984V227.852C305.266 227.875 305.133 227.883 304.891 227.883C304.016 227.883 303.641 227.461 303.641 226.469V221.703H305.516V220.578H303.641V218.398H302.297ZM314.406 229.148C315.531 229.148 316.453 228.656 317 227.758H317.125V229H318.406V223.234C318.406 221.484 317.258 220.43 315.203 220.43C313.406 220.43 312.078 221.32 311.898 222.672H313.258C313.445 222.008 314.148 221.625 315.156 221.625C316.414 221.625 317.062 222.195 317.062 223.234V224L314.633 224.148C312.672 224.266 311.562 225.133 311.562 226.641C311.562 228.18 312.773 229.148 314.406 229.148ZM314.656 227.969C313.68 227.969 312.953 227.469 312.953 226.609C312.953 225.766 313.516 225.32 314.797 225.234L317.062 225.086V225.859C317.062 227.062 316.039 227.969 314.656 227.969ZM320.891 229H322.234V224.016C322.234 222.539 323.102 221.641 324.445 221.641C325.789 221.641 326.43 222.359 326.43 223.875V229H327.773V223.547C327.773 221.547 326.719 220.43 324.828 220.43C323.539 220.43 322.719 220.977 322.297 221.906H322.172V220.578H320.891V229ZM333.352 229.148C334.516 229.148 335.516 228.594 336.047 227.656H336.172V229H337.453V217.234H336.109V221.906H335.992C335.516 220.984 334.523 220.43 333.352 220.43C331.211 220.43 329.812 222.148 329.812 224.789C329.812 227.438 331.195 229.148 333.352 229.148ZM333.664 221.641C335.188 221.641 336.141 222.859 336.141 224.789C336.141 226.734 335.195 227.938 333.664 227.938C332.125 227.938 331.203 226.758 331.203 224.789C331.203 222.828 332.133 221.641 333.664 221.641ZM109.859 239.578H108.508L106.852 246.312H106.727L104.844 239.578H103.555L101.672 246.312H101.547L99.8906 239.578H98.5312L100.891 248H102.25L104.125 241.484H104.25L106.133 248H107.5L109.859 239.578ZM112.359 237.953C112.875 237.953 113.297 237.531 113.297 237.016C113.297 236.5 112.875 236.078 112.359 236.078C111.844 236.078 111.422 236.5 111.422 237.016C111.422 237.531 111.844 237.953 112.359 237.953ZM111.688 248H113.031V239.578H111.688V248ZM115.672 248H117.016V236.234H115.672V248ZM119.703 248H121.047V236.234H119.703V248ZM128.172 248H129.516V243.016C129.516 241.539 130.383 240.641 131.727 240.641C133.07 240.641 133.711 241.359 133.711 242.875V248H135.055V242.547C135.055 240.547 134 239.43 132.109 239.43C130.82 239.43 130 239.977 129.578 240.906H129.453V239.578H128.172V248ZM140.977 248.148C143.375 248.148 144.859 246.492 144.859 243.789C144.859 241.078 143.375 239.43 140.977 239.43C138.578 239.43 137.094 241.078 137.094 243.789C137.094 246.492 138.578 248.148 140.977 248.148ZM140.977 246.938C139.383 246.938 138.484 245.781 138.484 243.789C138.484 241.789 139.383 240.641 140.977 240.641C142.57 240.641 143.469 241.789 143.469 243.789C143.469 245.781 142.57 246.938 140.977 246.938ZM147.531 237.398V239.578H146.172V240.703H147.531V245.812C147.531 247.422 148.227 248.062 149.961 248.062C150.227 248.062 150.484 248.031 150.75 247.984V246.852C150.5 246.875 150.367 246.883 150.125 246.883C149.25 246.883 148.875 246.461 148.875 245.469V240.703H150.75V239.578H148.875V237.398H147.531ZM161.484 248.148C163.617 248.148 165.016 246.422 165.016 243.789C165.016 241.141 163.625 239.43 161.484 239.43C160.328 239.43 159.305 240 158.844 240.906H158.719V236.234H157.375V248H158.656V246.656H158.781C159.312 247.594 160.312 248.148 161.484 248.148ZM161.172 240.641C162.711 240.641 163.625 241.82 163.625 243.789C163.625 245.758 162.711 246.938 161.172 246.938C159.641 246.938 158.688 245.734 158.688 243.789C158.688 241.844 159.641 240.641 161.172 240.641ZM172.703 245.82C172.352 246.562 171.617 246.961 170.531 246.961C169.102 246.961 168.172 245.906 168.102 244.242V244.18H174.156V243.664C174.156 241.047 172.773 239.43 170.5 239.43C168.188 239.43 166.703 241.148 166.703 243.797C166.703 246.461 168.164 248.148 170.5 248.148C172.344 248.148 173.656 247.258 174.047 245.82H172.703ZM170.484 240.617C171.82 240.617 172.711 241.602 172.742 243.094H168.102C168.203 241.602 169.141 240.617 170.484 240.617ZM183.125 248.148C184.25 248.148 185.172 247.656 185.719 246.758H185.844V248H187.125V242.234C187.125 240.484 185.977 239.43 183.922 239.43C182.125 239.43 180.797 240.32 180.617 241.672H181.977C182.164 241.008 182.867 240.625 183.875 240.625C185.133 240.625 185.781 241.195 185.781 242.234V243L183.352 243.148C181.391 243.266 180.281 244.133 180.281 245.641C180.281 247.18 181.492 248.148 183.125 248.148ZM183.375 246.969C182.398 246.969 181.672 246.469 181.672 245.609C181.672 244.766 182.234 244.32 183.516 244.234L185.781 244.086V244.859C185.781 246.062 184.758 246.969 183.375 246.969ZM196.172 239.578H194.734L192.43 246.516H192.305L190 239.578H188.562L191.68 248H193.055L196.172 239.578ZM200 248.148C201.125 248.148 202.047 247.656 202.594 246.758H202.719V248H204V242.234C204 240.484 202.852 239.43 200.797 239.43C199 239.43 197.672 240.32 197.492 241.672H198.852C199.039 241.008 199.742 240.625 200.75 240.625C202.008 240.625 202.656 241.195 202.656 242.234V243L200.227 243.148C198.266 243.266 197.156 244.133 197.156 245.641C197.156 247.18 198.367 248.148 200 248.148ZM200.25 246.969C199.273 246.969 198.547 246.469 198.547 245.609C198.547 244.766 199.109 244.32 200.391 244.234L202.656 244.086V244.859C202.656 246.062 201.633 246.969 200.25 246.969ZM207.188 237.953C207.703 237.953 208.125 237.531 208.125 237.016C208.125 236.5 207.703 236.078 207.188 236.078C206.672 236.078 206.25 236.5 206.25 237.016C206.25 237.531 206.672 237.953 207.188 237.953ZM206.516 248H207.859V239.578H206.516V248ZM210.5 248H211.844V236.234H210.5V248ZM216.797 248.148C217.922 248.148 218.844 247.656 219.391 246.758H219.516V248H220.797V242.234C220.797 240.484 219.648 239.43 217.594 239.43C215.797 239.43 214.469 240.32 214.289 241.672H215.648C215.836 241.008 216.539 240.625 217.547 240.625C218.805 240.625 219.453 241.195 219.453 242.234V243L217.023 243.148C215.062 243.266 213.953 244.133 213.953 245.641C213.953 247.18 215.164 248.148 216.797 248.148ZM217.047 246.969C216.07 246.969 215.344 246.469 215.344 245.609C215.344 244.766 215.906 244.32 217.188 244.234L219.453 244.086V244.859C219.453 246.062 218.43 246.969 217.047 246.969ZM227.469 248.148C229.602 248.148 231 246.422 231 243.789C231 241.141 229.609 239.43 227.469 239.43C226.312 239.43 225.289 240 224.828 240.906H224.703V236.234H223.359V248H224.641V246.656H224.766C225.297 247.594 226.297 248.148 227.469 248.148ZM227.156 240.641C228.695 240.641 229.609 241.82 229.609 243.789C229.609 245.758 228.695 246.938 227.156 246.938C225.625 246.938 224.672 245.734 224.672 243.789C224.672 241.844 225.625 240.641 227.156 240.641ZM233.188 248H234.531V236.234H233.188V248ZM242.719 245.82C242.367 246.562 241.633 246.961 240.547 246.961C239.117 246.961 238.188 245.906 238.117 244.242V244.18H244.172V243.664C244.172 241.047 242.789 239.43 240.516 239.43C238.203 239.43 236.719 241.148 236.719 243.797C236.719 246.461 238.18 248.148 240.516 248.148C242.359 248.148 243.672 247.258 244.062 245.82H242.719ZM240.5 240.617C241.836 240.617 242.727 241.602 242.758 243.094H238.117C238.219 241.602 239.156 240.617 240.5 240.617ZM253.141 248.148C254.266 248.148 255.188 247.656 255.734 246.758H255.859V248H257.141V242.234C257.141 240.484 255.992 239.43 253.938 239.43C252.141 239.43 250.812 240.32 250.633 241.672H251.992C252.18 241.008 252.883 240.625 253.891 240.625C255.148 240.625 255.797 241.195 255.797 242.234V243L253.367 243.148C251.406 243.266 250.297 244.133 250.297 245.641C250.297 247.18 251.508 248.148 253.141 248.148ZM253.391 246.969C252.414 246.969 251.688 246.469 251.688 245.609C251.688 244.766 252.25 244.32 253.531 244.234L255.797 244.086V244.859C255.797 246.062 254.773 246.969 253.391 246.969ZM260.188 248H261.531V240.703H263.461V239.578H261.531V238.68C261.531 237.758 261.938 237.289 262.906 237.289C263.148 237.289 263.375 237.297 263.539 237.328V236.234C263.258 236.18 262.961 236.156 262.633 236.156C261.031 236.156 260.188 236.961 260.188 238.641V239.578H258.789V240.703H260.188V248ZM265.984 237.398V239.578H264.625V240.703H265.984V245.812C265.984 247.422 266.68 248.062 268.414 248.062C268.68 248.062 268.938 248.031 269.203 247.984V246.852C268.953 246.875 268.82 246.883 268.578 246.883C267.703 246.883 267.328 246.461 267.328 245.469V240.703H269.203V239.578H267.328V237.398H265.984ZM276.688 245.82C276.336 246.562 275.602 246.961 274.516 246.961C273.086 246.961 272.156 245.906 272.086 244.242V244.18H278.141V243.664C278.141 241.047 276.758 239.43 274.484 239.43C272.172 239.43 270.688 241.148 270.688 243.797C270.688 246.461 272.148 248.148 274.484 248.148C276.328 248.148 277.641 247.258 278.031 245.82H276.688ZM274.469 240.617C275.805 240.617 276.695 241.602 276.727 243.094H272.086C272.188 241.602 273.125 240.617 274.469 240.617ZM280.25 248H281.594V242.781C281.594 241.594 282.523 240.734 283.805 240.734C284.07 240.734 284.555 240.781 284.664 240.812V239.469C284.492 239.445 284.211 239.43 283.992 239.43C282.875 239.43 281.906 240.008 281.656 240.828H281.531V239.578H280.25V248ZM302.141 248V236.727H300.508L296.648 246.133H296.523L292.664 236.727H291.031V248H292.344V239.391H292.438L295.992 248H297.18L300.734 239.391H300.828V248H302.141ZM307.188 248.148C308.312 248.148 309.234 247.656 309.781 246.758H309.906V248H311.188V242.234C311.188 240.484 310.039 239.43 307.984 239.43C306.188 239.43 304.859 240.32 304.68 241.672H306.039C306.227 241.008 306.93 240.625 307.938 240.625C309.195 240.625 309.844 241.195 309.844 242.234V243L307.414 243.148C305.453 243.266 304.344 244.133 304.344 245.641C304.344 247.18 305.555 248.148 307.188 248.148ZM307.438 246.969C306.461 246.969 305.734 246.469 305.734 245.609C305.734 244.766 306.297 244.32 307.578 244.234L309.844 244.086V244.859C309.844 246.062 308.82 246.969 307.438 246.969ZM314.078 251.047C315.57 251.047 316.242 250.469 316.961 248.516L320.25 239.578H318.82L316.516 246.508H316.391L314.078 239.578H312.625L315.742 248.008L315.586 248.508C315.234 249.523 314.812 249.891 314.039 249.891C313.852 249.891 313.641 249.883 313.477 249.852V251C313.664 251.031 313.898 251.047 314.078 251.047ZM329.25 248H330.656V236.727H329.258L326.258 238.883V240.367L329.125 238.289H329.25V248ZM334.492 250.867L335.719 246.422H334.227L333.484 250.867H334.492ZM99.1875 258.906H100.547C100.547 257.57 101.445 256.688 102.797 256.688C104.125 256.688 104.93 257.578 104.93 258.773C104.93 259.766 104.508 260.352 103.07 261.906L99.2578 266.031V267H106.555V265.734H101.211V265.609L103.773 262.961C105.805 260.859 106.367 259.922 106.367 258.625C106.367 256.797 104.859 255.461 102.891 255.461C100.734 255.461 99.1875 256.898 99.1875 258.906ZM112.719 267.266C115.25 267.266 116.703 265.125 116.703 261.383C116.703 257.648 115.227 255.461 112.719 255.461C110.195 255.461 108.719 257.641 108.719 261.359C108.719 265.109 110.18 267.266 112.719 267.266ZM112.719 266.039C111.055 266.039 110.133 264.375 110.133 261.359C110.133 258.383 111.07 256.695 112.719 256.695C114.367 256.695 115.289 258.367 115.289 261.359C115.289 264.383 114.383 266.039 112.719 266.039ZM118.938 258.906H120.297C120.297 257.57 121.195 256.688 122.547 256.688C123.875 256.688 124.68 257.578 124.68 258.773C124.68 259.766 124.258 260.352 122.82 261.906L119.008 266.031V267H126.305V265.734H120.961V265.609L123.523 262.961C125.555 260.859 126.117 259.922 126.117 258.625C126.117 256.797 124.609 255.461 122.641 255.461C120.484 255.461 118.938 256.898 118.938 258.906ZM133.594 267H134.969V264.664H136.57V263.406H134.969V255.727H132.93C131.352 258.078 129.625 260.828 128.102 263.383V264.664H133.594V267ZM129.539 263.32C130.766 261.25 132.242 258.922 133.508 257.031H133.602V263.414H129.539V263.32ZM139.312 267.078C139.875 267.078 140.328 266.617 140.328 266.062C140.328 265.5 139.875 265.047 139.312 265.047C138.758 265.047 138.297 265.5 138.297 266.062C138.297 266.617 138.758 267.078 139.312 267.078Z" fill="#111111"/>
<path fill-rule="evenodd" clip-rule="evenodd" d="M391.591 226L395.17 222.421C395.61 221.981 395.61 221.269 395.17 220.83C394.731 220.39 394.018 220.39 393.58 220.83L390 224.409L386.42 220.83C385.981 220.39 385.268 220.39 384.83 220.83C384.39 221.269 384.39 221.981 384.83 222.421L388.409 226L384.83 229.58C384.39 230.019 384.39 230.731 384.83 231.171C385.049 231.39 385.337 231.5 385.625 231.5C385.913 231.5 386.201 231.39 386.42 231.171L390 227.591L393.58 231.171C393.799 231.39 394.087 231.5 394.375 231.5C394.663 231.5 394.951 231.39 395.17 231.171C395.61 230.731 395.61 230.019 395.17 229.58L391.591 226Z" fill="#111111"/>
<defs>
<clipPath id="clip0_1444_14899">
<rect width="306" height="38" fill="white" transform="translate(114 67)"/>
</clipPath>
<clipPath id="clip1_1444_14899">
<rect width="368" height="24" fill="white" transform="translate(53 24)"/>
</clipPath>
<clipPath id="clip2_1444_14899">
<rect width="24" height="24" fill="white" transform="translate(53 24)"/>
</clipPath>
<clipPath id="clip3_1444_14899">
<rect width="368" height="24" fill="white" transform="translate(53 169)"/>
</clipPath>
<clipPath id="clip4_1444_14899">
<rect width="24" height="24" fill="white" transform="translate(53 169)"/>
</clipPath>
</defs>
</svg>
