<svg width="226" height="343" viewBox="0 0 226 343" fill="none" xmlns="http://www.w3.org/2000/svg">
<g clip-path="url(#clip0_490_1467)">
<g clip-path="url(#clip1_490_1467)">
<rect width="225.971" height="489.303" rx="21.6932" fill="white"/>
<circle cx="206.688" cy="43.3866" r="9.64143" fill="white" fill-opacity="0.9"/>
<path fill-rule="evenodd" clip-rule="evenodd" d="M210.34 42.6562H207.419V39.7346C207.419 39.3314 207.091 39.0042 206.688 39.0042C206.285 39.0042 205.958 39.3314 205.958 39.7346V42.6562H203.036C202.633 42.6562 202.306 42.9834 202.306 43.3866C202.306 43.7898 202.633 44.117 203.036 44.117H205.958V47.0387C205.958 47.4419 206.285 47.7691 206.688 47.7691C207.091 47.7691 207.419 47.4419 207.419 47.0387V44.117H210.34C210.743 44.117 211.071 43.7898 211.071 43.3866C211.071 42.9834 210.743 42.6562 210.34 42.6562Z" fill="#111111"/>
<circle cx="19.283" cy="43.3866" r="9.64143" fill="white" fill-opacity="0.9"/>
<path fill-rule="evenodd" clip-rule="evenodd" d="M20.6622 47.7692C20.4548 47.7692 20.2469 47.6888 20.0882 47.5285L15.9961 43.3867L20.0882 39.2449C20.405 38.9239 20.9195 38.9239 21.2363 39.2449C21.5535 39.5659 21.5535 40.086 21.2363 40.407L18.2927 43.3867L21.2363 46.3664C21.5535 46.6874 21.5535 47.2075 21.2363 47.5285C21.0779 47.6888 20.8701 47.7692 20.6622 47.7692Z" fill="#111111"/>
<rect opacity="0.35" x="202.8" y="10.7461" width="12.6544" height="6.22676" rx="1.30561" stroke="black" stroke-width="0.60259"/>
<path opacity="0.4" d="M216.358 12.6543V15.0647C216.843 14.8605 217.159 14.3856 217.159 13.8595C217.159 13.3333 216.843 12.8584 216.358 12.6543" fill="black"/>
<rect x="203.704" y="11.6499" width="10.8466" height="4.41899" rx="0.803453" fill="black"/>
<path fill-rule="evenodd" clip-rule="evenodd" d="M194.864 11.8157C196.2 11.8157 197.484 12.3288 198.452 13.2488C198.525 13.3198 198.641 13.3189 198.713 13.2468L199.409 12.5438C199.446 12.5072 199.466 12.4576 199.466 12.4061C199.465 12.3545 199.445 12.3052 199.408 12.269C196.868 9.83481 192.861 9.83481 190.321 12.269C190.284 12.3051 190.263 12.3544 190.263 12.406C190.262 12.4576 190.283 12.5072 190.319 12.5438L191.016 13.2468C191.087 13.3191 191.204 13.32 191.277 13.2488C192.245 12.3287 193.529 11.8156 194.864 11.8157ZM194.864 14.1028C195.598 14.1028 196.305 14.3755 196.849 14.8679C196.923 14.9378 197.039 14.9363 197.11 14.8645L197.806 14.1615C197.843 14.1246 197.863 14.0746 197.863 14.0226C197.862 13.9706 197.841 13.921 197.803 13.8849C196.147 12.3444 193.583 12.3444 191.927 13.8849C191.889 13.921 191.868 13.9706 191.867 14.0226C191.867 14.0746 191.887 14.1247 191.924 14.1615L192.62 14.8645C192.691 14.9363 192.807 14.9378 192.881 14.8679C193.424 14.3758 194.131 14.1031 194.864 14.1028ZM196.258 15.6417C196.259 15.6939 196.239 15.7441 196.202 15.7806L194.998 16.9953C194.963 17.0309 194.915 17.051 194.864 17.051C194.814 17.051 194.766 17.0309 194.731 16.9953L193.527 15.7806C193.49 15.7441 193.469 15.6938 193.47 15.6417C193.472 15.5896 193.494 15.5402 193.533 15.5052C194.301 14.8551 195.427 14.8551 196.196 15.5052C196.235 15.5402 196.257 15.5896 196.258 15.6417Z" fill="black"/>
<path fill-rule="evenodd" clip-rule="evenodd" d="M186.631 10.6458H186.028C185.695 10.6458 185.426 10.9155 185.426 11.2483V16.4708C185.426 16.8036 185.695 17.0734 186.028 17.0734H186.631C186.963 17.0734 187.233 16.8036 187.233 16.4708V11.2483C187.233 10.9155 186.963 10.6458 186.631 10.6458ZM183.216 12.0517H183.818C184.151 12.0517 184.421 12.3215 184.421 12.6543V16.4707C184.421 16.8035 184.151 17.0733 183.818 17.0733H183.216C182.883 17.0733 182.613 16.8035 182.613 16.4707V12.6543C182.613 12.3215 182.883 12.0517 183.216 12.0517ZM181.007 13.4579H180.404C180.071 13.4579 179.802 13.7277 179.802 14.0605V16.4708C179.802 16.8036 180.071 17.0734 180.404 17.0734H181.007C181.34 17.0734 181.609 16.8036 181.609 16.4708V14.0605C181.609 13.7277 181.34 13.4579 181.007 13.4579ZM178.194 14.6631H177.592C177.259 14.6631 176.989 14.9329 176.989 15.2657V16.4708C176.989 16.8036 177.259 17.0734 177.592 17.0734H178.194C178.527 17.0734 178.797 16.8036 178.797 16.4708V15.2657C178.797 14.9329 178.527 14.6631 178.194 14.6631Z" fill="black"/>
<path d="M21.4037 16.9926C22.8734 16.9926 23.8796 16.2335 23.8796 15.1257C23.8796 14.3048 23.3324 13.6604 22.5026 13.5059V13.4309C23.1867 13.2588 23.6192 12.7159 23.6192 12.0274C23.6192 11.0256 22.7012 10.3062 21.4081 10.3062C20.1149 10.3062 19.1925 11.0256 19.1925 12.0274C19.1925 12.7115 19.6339 13.2632 20.3135 13.4309V13.5059C19.4794 13.6781 18.9365 14.3224 18.9365 15.1301C18.9365 16.2335 19.9428 16.9926 21.4037 16.9926ZM21.4081 13.0955C20.7593 13.0955 20.3135 12.7071 20.3135 12.1333C20.3135 11.5596 20.7549 11.1624 21.4081 11.1624C22.0569 11.1624 22.4982 11.5596 22.4982 12.1333C22.4982 12.7027 22.0525 13.0955 21.4081 13.0955ZM21.4081 16.1231C20.6401 16.1231 20.1105 15.6774 20.1105 15.0374C20.1105 14.3931 20.6401 13.9473 21.4081 13.9473C22.1716 13.9473 22.7012 14.3931 22.7012 15.0374C22.7012 15.6774 22.176 16.1231 21.4081 16.1231Z" fill="black"/>
<path d="M25.9407 12.7115C26.36 12.7115 26.6469 12.4202 26.6469 12.0274C26.6469 11.6346 26.36 11.3433 25.9407 11.3433C25.5259 11.3433 25.2346 11.6346 25.2346 12.0274C25.2346 12.4202 25.5259 12.7115 25.9407 12.7115ZM25.9407 15.951C26.36 15.951 26.6469 15.6553 26.6469 15.2669C26.6469 14.8741 26.36 14.5828 25.9407 14.5828C25.5259 14.5828 25.2346 14.8741 25.2346 15.2669C25.2346 15.6553 25.5259 15.951 25.9407 15.951Z" fill="black"/>
<path d="M30.3895 16.9926C31.9122 16.9926 32.817 15.7612 32.817 13.6516C32.817 11.5375 31.899 10.3062 30.3895 10.3062C28.8757 10.3062 27.9577 11.5375 27.9577 13.6428C27.9577 15.7568 28.8625 16.9926 30.3895 16.9926ZM30.3895 16.0702C29.5819 16.0702 29.1096 15.2316 29.1096 13.6428C29.1096 12.0671 29.5907 11.233 30.3895 11.233C31.1884 11.233 31.6651 12.0627 31.6651 13.6428C31.6651 15.236 31.1972 16.0702 30.3895 16.0702Z" fill="black"/>
<path d="M36.436 16.9926C37.9057 16.9926 38.912 16.2335 38.912 15.1257C38.912 14.3048 38.3647 13.6604 37.535 13.5059V13.4309C38.2191 13.2588 38.6516 12.7159 38.6516 12.0274C38.6516 11.0256 37.7336 10.3062 36.4405 10.3062C35.1473 10.3062 34.2249 11.0256 34.2249 12.0274C34.2249 12.7115 34.6662 13.2632 35.3459 13.4309V13.5059C34.5118 13.6781 33.9689 14.3224 33.9689 15.1301C33.9689 16.2335 34.9752 16.9926 36.436 16.9926ZM36.4405 13.0955C35.7917 13.0955 35.3459 12.7071 35.3459 12.1333C35.3459 11.5596 35.7873 11.1624 36.4405 11.1624C37.0892 11.1624 37.5306 11.5596 37.5306 12.1333C37.5306 12.7027 37.0848 13.0955 36.4405 13.0955ZM36.4405 16.1231C35.6725 16.1231 35.1429 15.6774 35.1429 15.0374C35.1429 14.3931 35.6725 13.9473 36.4405 13.9473C37.204 13.9473 37.7336 14.3931 37.7336 15.0374C37.7336 15.6774 37.2084 16.1231 36.4405 16.1231Z" fill="black"/>
<path d="M101.024 42.7449V38.0654H101.104L104.437 42.7449H105.487V35.9517H104.319V40.6311H104.239L100.906 35.9517H99.8516V42.7449H101.024Z" fill="black"/>
<path d="M109.267 42.8485C110.806 42.8485 111.743 41.841 111.743 40.1698C111.743 38.508 110.802 37.5005 109.267 37.5005C107.737 37.5005 106.791 38.5127 106.791 40.1698C106.791 41.841 107.723 42.8485 109.267 42.8485ZM109.267 41.8928C108.453 41.8928 107.987 41.262 107.987 40.1745C107.987 39.087 108.453 38.4562 109.267 38.4562C110.077 38.4562 110.543 39.087 110.543 40.1745C110.543 41.262 110.081 41.8928 109.267 41.8928Z" fill="black"/>
<path d="M113.292 36.3377V37.6323H112.478V38.5409H113.292V41.3797C113.292 42.373 113.763 42.7685 114.945 42.7685C115.171 42.7685 115.387 42.7496 115.557 42.7167V41.8222C115.415 41.8363 115.326 41.8457 115.161 41.8457C114.671 41.8457 114.455 41.6151 114.455 41.1019V38.5409H115.557V37.6323H114.455V36.3377H113.292Z" fill="black"/>
<path d="M120.034 41.3373C119.864 41.7233 119.464 41.9399 118.885 41.9399C118.118 41.9399 117.623 41.3938 117.595 40.5229V40.4617H121.192V40.0898C121.192 38.475 120.311 37.5005 118.843 37.5005C117.35 37.5005 116.423 38.5409 116.423 40.1933C116.423 41.841 117.336 42.8485 118.852 42.8485C120.067 42.8485 120.928 42.2647 121.14 41.3373H120.034ZM118.838 38.4091C119.539 38.4091 120.001 38.9034 120.024 39.6849H117.6C117.651 38.9128 118.141 38.4091 118.838 38.4091Z" fill="black"/>
<path d="M122.246 39.0682C122.246 39.8402 122.712 40.2922 123.701 40.5182L124.614 40.73C125.104 40.843 125.325 41.0313 125.325 41.3232C125.325 41.7139 124.916 41.9823 124.327 41.9823C123.743 41.9823 123.381 41.7469 123.268 41.3656H122.114C122.204 42.293 123.014 42.8485 124.299 42.8485C125.584 42.8485 126.493 42.1941 126.493 41.2102C126.493 40.4523 126.036 40.0333 125.052 39.8073L124.143 39.6049C123.626 39.4825 123.381 39.2989 123.381 39.007C123.381 38.6257 123.781 38.3667 124.313 38.3667C124.859 38.3667 125.203 38.6021 125.287 38.9646H126.384C126.3 38.0372 125.532 37.5005 124.308 37.5005C123.094 37.5005 122.246 38.1455 122.246 39.0682Z" fill="black"/>
<path d="M79.2139 49.5096V54.6046H79.8494V52.7862H81.1311C82.0879 52.7862 82.7694 52.1118 82.7694 51.1585C82.7694 50.1875 82.1021 49.5096 81.1382 49.5096H79.2139ZM79.8494 50.0745H80.9722C81.7101 50.0745 82.1162 50.4594 82.1162 51.1585C82.1162 51.8329 81.696 52.2213 80.9722 52.2213H79.8494V50.0745Z" fill="black"/>
<path d="M83.7333 54.6046H84.3406V52.246C84.3406 51.7093 84.7608 51.3209 85.3398 51.3209C85.4599 51.3209 85.6788 51.3421 85.7282 51.3562V50.7489C85.6505 50.7383 85.5234 50.7313 85.4245 50.7313C84.9196 50.7313 84.4818 50.9925 84.3688 51.3633H84.3123V50.7984H83.7333V54.6046Z" fill="black"/>
<path d="M86.8051 50.0639C87.0381 50.0639 87.2288 49.8733 87.2288 49.6402C87.2288 49.4072 87.0381 49.2166 86.8051 49.2166C86.5721 49.2166 86.3814 49.4072 86.3814 49.6402C86.3814 49.8733 86.5721 50.0639 86.8051 50.0639ZM86.5014 54.6046H87.1087V50.7984H86.5014V54.6046Z" fill="black"/>
<path d="M91.3739 50.7984H90.7243L89.6827 53.9337H89.6262L88.5846 50.7984H87.9349L89.3437 54.6046H89.9651L91.3739 50.7984Z" fill="black"/>
<path d="M93.104 54.6716C93.6125 54.6716 94.0291 54.4492 94.2763 54.0432H94.3327V54.6046H94.9118V51.9988C94.9118 51.2079 94.3928 50.7313 93.4642 50.7313C92.6521 50.7313 92.0519 51.1338 91.9706 51.7446H92.585C92.6697 51.4445 92.9875 51.2715 93.443 51.2715C94.0114 51.2715 94.3045 51.5292 94.3045 51.9988V52.3448L93.2064 52.4119C92.3202 52.4649 91.8188 52.8568 91.8188 53.5382C91.8188 54.2338 92.3661 54.6716 93.104 54.6716ZM93.217 54.1385C92.7757 54.1385 92.4473 53.9125 92.4473 53.5241C92.4473 53.1428 92.7015 52.9415 93.2806 52.9027L94.3045 52.8356V53.1852C94.3045 53.7289 93.842 54.1385 93.217 54.1385Z" fill="black"/>
<path d="M96.2888 49.8133V50.7984H95.6744V51.3068H96.2888V53.6159C96.2888 54.3433 96.603 54.6328 97.3869 54.6328C97.5069 54.6328 97.6235 54.6187 97.7435 54.5975V54.0855C97.6305 54.0961 97.5705 54.0996 97.461 54.0996C97.0656 54.0996 96.8961 53.909 96.8961 53.4606V51.3068H97.7435V50.7984H96.8961V49.8133H96.2888Z" fill="black"/>
<path d="M101.126 53.6195C100.967 53.9549 100.635 54.135 100.144 54.135C99.4983 54.135 99.0781 53.6583 99.0464 52.9062V52.878H101.783V52.645C101.783 51.4621 101.158 50.7313 100.13 50.7313C99.0852 50.7313 98.4143 51.508 98.4143 52.705C98.4143 53.909 99.0746 54.6716 100.13 54.6716C100.964 54.6716 101.557 54.2691 101.733 53.6195H101.126ZM100.123 51.2679C100.727 51.2679 101.13 51.7128 101.144 52.3872H99.0464C99.0923 51.7128 99.516 51.2679 100.123 51.2679Z" fill="black"/>
<path d="M105.031 49.8133V50.7984H104.417V51.3068H105.031V53.6159C105.031 54.3433 105.345 54.6328 106.129 54.6328C106.249 54.6328 106.366 54.6187 106.486 54.5975V54.0855C106.373 54.0961 106.313 54.0996 106.203 54.0996C105.808 54.0996 105.638 53.909 105.638 53.4606V51.3068H106.486V50.7984H105.638V49.8133H105.031Z" fill="black"/>
<path d="M108.911 54.6716C109.995 54.6716 110.666 53.9231 110.666 52.7015C110.666 51.4763 109.995 50.7313 108.911 50.7313C107.827 50.7313 107.157 51.4763 107.157 52.7015C107.157 53.9231 107.827 54.6716 108.911 54.6716ZM108.911 54.1244C108.191 54.1244 107.785 53.6018 107.785 52.7015C107.785 51.7976 108.191 51.2785 108.911 51.2785C109.632 51.2785 110.038 51.7976 110.038 52.7015C110.038 53.6018 109.632 54.1244 108.911 54.1244Z" fill="black"/>
<path d="M113.915 49.8133V50.7984H113.3V51.3068H113.915V53.6159C113.915 54.3433 114.229 54.6328 115.013 54.6328C115.133 54.6328 115.249 54.6187 115.369 54.5975V54.0855C115.256 54.0961 115.196 54.0996 115.087 54.0996C114.691 54.0996 114.522 53.909 114.522 53.4606V51.3068H115.369V50.7984H114.522V49.8133H113.915Z" fill="black"/>
<path d="M116.323 54.6046H116.93V52.3519C116.93 51.7093 117.304 51.2785 117.986 51.2785C118.561 51.2785 118.865 51.614 118.865 52.2883V54.6046H119.472V52.1401C119.472 51.2468 118.964 50.7313 118.159 50.7313C117.576 50.7313 117.177 50.9784 116.986 51.3986H116.93V49.2872H116.323V54.6046Z" fill="black"/>
<path d="M120.898 50.0639C121.132 50.0639 121.322 49.8733 121.322 49.6402C121.322 49.4072 121.132 49.2166 120.898 49.2166C120.665 49.2166 120.475 49.4072 120.475 49.6402C120.475 49.8733 120.665 50.0639 120.898 50.0639ZM120.595 54.6046H121.202V50.7984H120.595V54.6046Z" fill="black"/>
<path d="M122.272 51.8399C122.272 52.3907 122.597 52.6979 123.31 52.8709L123.963 53.0298C124.369 53.1287 124.567 53.3052 124.567 53.5665C124.567 53.916 124.2 54.1597 123.688 54.1597C123.201 54.1597 122.897 53.9549 122.795 53.6336H122.17C122.237 54.2656 122.819 54.6716 123.667 54.6716C124.532 54.6716 125.192 54.202 125.192 53.5206C125.192 52.9733 124.846 52.6626 124.129 52.4896L123.543 52.3484C123.095 52.2389 122.883 52.0765 122.883 51.8152C122.883 51.4763 123.236 51.2468 123.688 51.2468C124.147 51.2468 124.443 51.448 124.525 51.7517H125.125C125.044 51.1267 124.489 50.7313 123.691 50.7313C122.883 50.7313 122.272 51.2079 122.272 51.8399Z" fill="black"/>
<path d="M130.079 54.6716C131.042 54.6716 131.674 53.8913 131.674 52.7015C131.674 51.5045 131.046 50.7313 130.079 50.7313C129.556 50.7313 129.093 50.989 128.885 51.3986H128.829V49.2872H128.221V54.6046H128.8V53.9973H128.857C129.097 54.4209 129.549 54.6716 130.079 54.6716ZM129.937 51.2785C130.633 51.2785 131.046 51.8117 131.046 52.7015C131.046 53.5912 130.633 54.1244 129.937 54.1244C129.245 54.1244 128.815 53.5806 128.815 52.7015C128.815 51.8223 129.245 51.2785 129.937 51.2785Z" fill="black"/>
<path d="M134.192 54.6716C135.276 54.6716 135.947 53.9231 135.947 52.7015C135.947 51.4763 135.276 50.7313 134.192 50.7313C133.108 50.7313 132.437 51.4763 132.437 52.7015C132.437 53.9231 133.108 54.6716 134.192 54.6716ZM134.192 54.1244C133.472 54.1244 133.066 53.6018 133.066 52.7015C133.066 51.7976 133.472 51.2785 134.192 51.2785C134.912 51.2785 135.318 51.7976 135.318 52.7015C135.318 53.6018 134.912 54.1244 134.192 54.1244Z" fill="black"/>
<path d="M137.959 54.6716C138.468 54.6716 138.884 54.4492 139.132 54.0432H139.188V54.6046H139.767V51.9988C139.767 51.2079 139.248 50.7313 138.319 50.7313C137.507 50.7313 136.907 51.1338 136.826 51.7446H137.44C137.525 51.4445 137.843 51.2715 138.298 51.2715C138.867 51.2715 139.16 51.5292 139.16 51.9988V52.3448L138.062 52.4119C137.175 52.4649 136.674 52.8568 136.674 53.5382C136.674 54.2338 137.221 54.6716 137.959 54.6716ZM138.072 54.1385C137.631 54.1385 137.303 53.9125 137.303 53.5241C137.303 53.1428 137.557 52.9415 138.136 52.9027L139.16 52.8356V53.1852C139.16 53.7289 138.697 54.1385 138.072 54.1385Z" fill="black"/>
<path d="M140.89 54.6046H141.497V52.246C141.497 51.7093 141.917 51.3209 142.496 51.3209C142.616 51.3209 142.835 51.3421 142.885 51.3562V50.7489C142.807 50.7383 142.68 50.7313 142.581 50.7313C142.076 50.7313 141.638 50.9925 141.525 51.3633H141.469V50.7984H140.89V54.6046Z" fill="black"/>
<path d="M144.947 54.6716C145.473 54.6716 145.925 54.4209 146.165 53.9973H146.221V54.6046H146.8V49.2872H146.193V51.3986H146.14C145.925 50.982 145.476 50.7313 144.947 50.7313C143.979 50.7313 143.347 51.508 143.347 52.7015C143.347 53.8984 143.972 54.6716 144.947 54.6716ZM145.088 51.2785C145.776 51.2785 146.207 51.8293 146.207 52.7015C146.207 53.5806 145.78 54.1244 145.088 54.1244C144.392 54.1244 143.976 53.5912 143.976 52.7015C143.976 51.8152 144.396 51.2785 145.088 51.2785Z" fill="black"/>
<path fill-rule="evenodd" clip-rule="evenodd" d="M74.5205 51.421V50.8184C74.5205 50.3753 74.8809 50.0149 75.324 50.0149C75.7671 50.0149 76.1274 50.3753 76.1274 50.8184V51.421H74.5205ZM76.73 51.4244V50.8184C76.73 50.0431 76.0991 49.4124 75.324 49.4124C74.5488 49.4124 73.9179 50.0431 73.9179 50.8184V51.4244C73.6982 51.7179 73.5664 52.0808 73.5664 52.4755C73.5664 53.4463 74.3534 54.2331 75.324 54.2331C76.2945 54.2331 77.0815 53.4463 77.0815 52.4755C77.0815 52.0808 76.9497 51.7179 76.73 51.4244Z" fill="#111111"/>
<path fill-rule="evenodd" clip-rule="evenodd" d="M73.6737 133.374L57.8761 135.317L60.1076 153.464C68.6513 152.424 76.4277 158.52 77.4813 167.089C78.535 175.658 72.4672 183.457 63.9259 184.517L66.1574 202.665L81.9515 200.723L81.9492 200.705C80.8948 192.13 86.972 184.326 95.5229 183.274C104.074 182.223 111.86 188.322 112.915 196.897L112.917 196.915L128.71 194.973L126.473 176.783C134.413 175.207 139.907 167.724 138.9 159.537C137.893 151.351 130.751 145.421 122.665 145.815L120.429 127.625L104.632 129.568C103.412 121.176 95.7212 115.255 87.2863 116.293C78.8515 117.33 72.8237 124.937 73.6737 133.374Z" fill="black"/>
<mask id="path-17-inside-1_490_1467" fill="white">
<path fill-rule="evenodd" clip-rule="evenodd" d="M74.8663 131.437L59.0675 133.38L61.299 151.528C69.843 150.487 77.6196 156.584 78.6733 165.153C79.727 173.722 73.6589 181.521 65.1173 182.581L67.3488 200.728L83.1428 198.786L83.1406 198.768C82.0862 190.193 88.1633 182.389 96.7142 181.338C105.265 180.286 113.052 186.385 114.106 194.96L114.108 194.979L129.901 193.037L127.665 174.847C135.606 173.271 141.099 165.787 140.093 157.601C139.086 149.414 131.943 143.484 123.857 143.879L121.62 125.688L105.824 127.63C104.605 119.239 96.9136 113.319 88.4789 114.356C80.0442 115.393 74.0166 123 74.8663 131.437Z"/>
</mask>
<path fill-rule="evenodd" clip-rule="evenodd" d="M74.8663 131.437L59.0675 133.38L61.299 151.528C69.843 150.487 77.6196 156.584 78.6733 165.153C79.727 173.722 73.6589 181.521 65.1173 182.581L67.3488 200.728L83.1428 198.786L83.1406 198.768C82.0862 190.193 88.1633 182.389 96.7142 181.338C105.265 180.286 113.052 186.385 114.106 194.96L114.108 194.979L129.901 193.037L127.665 174.847C135.606 173.271 141.099 165.787 140.093 157.601C139.086 149.414 131.943 143.484 123.857 143.879L121.62 125.688L105.824 127.63C104.605 119.239 96.9136 113.319 88.4789 114.356C80.0442 115.393 74.0166 123 74.8663 131.437Z" fill="white"/>
<path d="M59.0675 133.38L58.9374 132.322L57.8793 132.452L58.0094 133.51L59.0675 133.38ZM74.8663 131.437L74.9964 132.495L76.0314 132.368L75.9269 131.33L74.8663 131.437ZM61.299 151.528L60.241 151.658L60.3709 152.715L61.4279 152.586L61.299 151.528ZM65.1173 182.581L64.986 181.523L63.9293 181.654L64.0593 182.711L65.1173 182.581ZM67.3488 200.728L66.2907 200.858L66.4208 201.916L67.4789 201.786L67.3488 200.728ZM83.1428 198.786L83.2729 199.844L84.3315 199.714L84.2008 198.656L83.1428 198.786ZM83.1406 198.768L82.0826 198.898L82.0826 198.899L83.1406 198.768ZM114.106 194.96L115.164 194.831L115.164 194.83L114.106 194.96ZM114.108 194.979L113.05 195.108L113.18 196.167L114.238 196.037L114.108 194.979ZM129.901 193.037L130.031 194.095L131.09 193.965L130.959 192.907L129.901 193.037ZM127.665 174.847L127.457 173.801L126.486 173.994L126.607 174.977L127.665 174.847ZM123.857 143.879L122.799 144.009L122.92 144.992L123.909 144.943L123.857 143.879ZM121.62 125.688L122.678 125.558L122.548 124.5L121.49 124.63L121.62 125.688ZM105.824 127.63L104.769 127.784L104.919 128.816L105.954 128.688L105.824 127.63ZM59.1976 134.438L74.9964 132.495L74.7362 130.379L58.9374 132.322L59.1976 134.438ZM62.357 151.398L60.1255 133.25L58.0094 133.51L60.241 151.658L62.357 151.398ZM79.7313 165.023C78.6062 155.872 70.3007 149.357 61.1701 150.47L61.4279 152.586C69.3852 151.617 76.633 157.295 77.6153 165.283L79.7313 165.023ZM65.2486 183.639C74.3768 182.506 80.8565 174.173 79.7313 165.023L77.6153 165.283C78.5975 173.271 72.9411 180.536 64.986 181.523L65.2486 183.639ZM68.4068 200.598L66.1754 182.451L64.0593 182.711L66.2907 200.858L68.4068 200.598ZM83.0127 197.728L67.2187 199.67L67.4789 201.786L83.2729 199.844L83.0127 197.728ZM82.0826 198.899L82.0849 198.917L84.2008 198.656L84.1986 198.637L82.0826 198.899ZM96.5841 180.28C87.4461 181.403 80.9567 189.742 82.0826 198.898L84.1986 198.638C83.2157 190.644 88.8806 183.375 96.8443 182.396L96.5841 180.28ZM115.164 194.83C114.038 185.674 105.722 179.156 96.5841 180.28L96.8443 182.396C104.808 181.417 112.065 187.097 113.048 195.091L115.164 194.83ZM115.166 194.849L115.164 194.831L113.048 195.09L113.05 195.108L115.166 194.849ZM129.771 191.979L113.978 193.921L114.238 196.037L130.031 194.095L129.771 191.979ZM126.607 174.977L128.843 193.167L130.959 192.907L128.723 174.717L126.607 174.977ZM127.872 175.893C136.359 174.208 142.226 166.213 141.151 157.471L139.035 157.731C139.973 165.362 134.852 172.334 127.457 173.801L127.872 175.893ZM141.151 157.471C140.076 148.728 132.447 142.392 123.805 142.814L123.909 144.943C131.439 144.576 138.096 150.1 139.035 157.731L141.151 157.471ZM120.562 125.818L122.799 144.009L124.915 143.749L122.678 125.558L120.562 125.818ZM105.954 128.688L121.75 126.746L121.49 124.63L105.694 126.572L105.954 128.688ZM106.879 127.477C105.577 118.516 97.3628 112.19 88.3489 113.298L88.609 115.414C96.4645 114.448 103.633 119.962 104.769 127.784L106.879 127.477ZM88.3489 113.298C79.3349 114.406 72.8982 122.534 73.8057 131.544L75.9269 131.33C75.1349 123.466 80.7536 116.38 88.609 115.414L88.3489 113.298Z" fill="black" mask="url(#path-17-inside-1_490_1467)"/>
<circle cx="89.4306" cy="145.923" r="1.599" transform="rotate(-7.01001 89.4306 145.923)" fill="black"/>
<circle cx="109.887" cy="143.408" r="1.599" transform="rotate(-7.01001 109.887 143.408)" fill="black"/>
<path d="M88.6842 155.86C92.6198 152.944 102.856 148.282 112.314 152.954" stroke="black" stroke-width="1.066" stroke-linecap="round"/>
<ellipse cx="139.001" cy="237.137" rx="30.6206" ry="5.75201" fill="black"/>
<path d="M169.321 236.12C169.321 236.304 169.226 236.551 168.896 236.86C168.567 237.168 168.051 237.491 167.338 237.814C165.916 238.459 163.824 239.053 161.197 239.556C155.952 240.561 148.683 241.186 140.638 241.186C132.593 241.186 125.324 240.561 120.079 239.556C117.452 239.053 115.36 238.459 113.938 237.814C113.225 237.491 112.709 237.168 112.38 236.86C112.05 236.551 111.955 236.304 111.955 236.12C111.955 235.936 112.05 235.69 112.38 235.381C112.709 235.072 113.225 234.749 113.938 234.426C115.36 233.782 117.452 233.188 120.079 232.685C125.324 231.679 132.593 231.054 140.638 231.054C148.683 231.054 155.952 231.679 161.197 232.685C163.824 233.188 165.916 233.782 167.338 234.426C168.051 234.749 168.567 235.072 168.896 235.381C169.226 235.69 169.321 235.936 169.321 236.12Z" fill="white" stroke="black" stroke-width="1.066"/>
<path d="M156.363 232.363C156.363 232.562 156.174 232.92 155.386 233.36C154.642 233.775 153.532 234.166 152.113 234.501C149.285 235.169 145.351 235.587 140.986 235.587C136.622 235.587 132.688 235.169 129.859 234.501C128.441 234.166 127.33 233.775 126.587 233.36C125.799 232.92 125.61 232.562 125.61 232.363C125.61 232.288 125.594 231.711 125.567 230.736C125.464 227.002 125.199 217.429 125.052 207.903C124.959 201.886 124.913 195.879 124.983 191.342C125.017 189.073 125.081 187.18 125.182 185.841C125.232 185.17 125.291 184.653 125.356 184.303C125.38 184.173 125.403 184.078 125.423 184.012C126.049 183.797 126.923 183.637 127.994 183.523C129.147 183.401 130.494 183.336 131.942 183.304C133.857 183.262 135.925 183.279 137.938 183.295C138.978 183.303 140.004 183.311 140.986 183.311C141.997 183.311 143.01 183.303 144.011 183.294C145.87 183.278 147.686 183.263 149.353 183.304C151.837 183.365 153.892 183.553 155.204 184.014C155.226 184.081 155.253 184.18 155.282 184.316C155.357 184.667 155.429 185.184 155.498 185.856C155.635 187.195 155.751 189.087 155.85 191.357C156.046 195.894 156.168 201.901 156.244 207.918C156.388 219.241 156.366 230.581 156.363 232.18C156.363 232.28 156.363 232.342 156.363 232.363Z" fill="white" stroke="black" stroke-width="1.066"/>
<path d="M169.321 182.34C169.321 182.524 169.226 182.77 168.896 183.079C168.567 183.388 168.051 183.711 167.338 184.034C165.916 184.678 163.824 185.272 161.197 185.776C155.952 186.781 148.683 187.406 140.638 187.406C132.593 187.406 125.324 186.781 120.079 185.776C117.452 185.272 115.36 184.678 113.938 184.034C113.225 183.711 112.709 183.388 112.38 183.079C112.05 182.77 111.955 182.524 111.955 182.34C111.955 182.156 112.05 181.909 112.38 181.6C112.709 181.292 113.225 180.969 113.938 180.646C115.36 180.001 117.452 179.408 120.079 178.904C125.324 177.899 132.593 177.274 140.638 177.274C148.683 177.274 155.952 177.899 161.197 178.904C163.824 179.408 165.916 180.001 167.338 180.646C168.051 180.969 168.567 181.292 168.896 181.6C169.226 181.909 169.321 182.156 169.321 182.34Z" fill="white" stroke="black" stroke-width="1.066"/>
<path d="M130.912 201.015C125.552 200.293 123.468 203.582 122.717 205.62C121.285 208.714 123.314 211.029 124.507 211.127C123.911 208.598 125.412 205.031 130.912 205.031C139.242 205.031 149.977 201.752 152.358 201.015C154.739 200.279 155.119 200.463 156.529 199.966C157.492 199.626 158.91 197.571 158.024 196.098C157.315 194.919 154.893 196.098 152.358 197C147.891 198.59 136.271 201.737 130.912 201.015Z" fill="white" stroke="black" stroke-width="1.066"/>
<path d="M135.306 220.938C130.463 223.266 126.756 222.75 124.757 222.75C123.248 222.75 122.319 226.492 124.047 227.022C126.206 227.685 134.235 226.267 137.372 224.425C140.51 222.583 149.641 221.497 151.565 221.497C153.437 221.497 156.156 222.362 157.508 222.362C158.714 222.362 157.993 218.669 156.955 218.028C156.657 217.844 154.151 218.028 152.415 218.028C150.871 218.028 141.36 218.028 135.306 220.938Z" fill="white" stroke="black" stroke-width="1.066"/>
<path d="M155.459 186.999C144.696 189.902 130.746 190.1 125.117 189.836L125.505 186.594C134.452 187.994 149.203 187.448 155.459 186.999Z" fill="black"/>
<ellipse cx="140.802" cy="181.593" rx="8.64582" ry="1.25825" fill="black"/>
<path d="M166.588 243.04C166.588 234.843 160.174 230.61 156.752 229.412L156.752 232.177C164.184 237.708 163.506 241.889 162.924 243.616C161.395 248.161 151.721 251.374 148.729 253.145C144.95 254.923 147.003 257.178 148.263 256.899C149.522 256.62 155.26 253.687 160.857 250.894C165.335 248.66 166.544 244.727 166.588 243.04Z" fill="white" stroke="black" stroke-width="1.066"/>
<path d="M55.6149 290.699V282.362H55.689L61.596 290.699H63.425V278.811H61.3818V287.14H61.3077L55.4089 278.811H53.5635V290.699H55.6149Z" fill="black"/>
<path d="M69.1837 290.872C71.7459 290.872 73.4101 289.167 73.4101 286.333C73.4101 283.507 71.7294 281.785 69.1837 281.785C66.638 281.785 64.9574 283.515 64.9574 286.333C64.9574 289.167 66.6215 290.872 69.1837 290.872ZM69.1837 289.249C67.882 289.249 67.0417 288.194 67.0417 286.333C67.0417 284.479 67.8903 283.416 69.1837 283.416C70.4854 283.416 71.3257 284.479 71.3257 286.333C71.3257 288.194 70.4854 289.249 69.1837 289.249Z" fill="black"/>
<path d="M78.1061 290.699H80.1574V285.641C80.1574 284.388 80.9072 283.54 82.0853 283.54C83.2551 283.54 83.8318 284.232 83.8318 285.468V290.699H85.8832V285.056C85.8832 283.037 84.7875 281.801 82.8597 281.801C81.5168 281.801 80.5859 282.428 80.1163 283.466H80.0751V281.966H78.1061V290.699Z" fill="black"/>
<path d="M91.3948 290.872C93.957 290.872 95.6212 289.167 95.6212 286.333C95.6212 283.507 93.9405 281.785 91.3948 281.785C88.8491 281.785 87.1684 283.515 87.1684 286.333C87.1684 289.167 88.8326 290.872 91.3948 290.872ZM91.3948 289.249C90.0931 289.249 89.2528 288.194 89.2528 286.333C89.2528 284.479 90.1014 283.416 91.3948 283.416C92.6965 283.416 93.5368 284.479 93.5368 286.333C93.5368 288.194 92.6965 289.249 91.3948 289.249Z" fill="black"/>
<path d="M97.5078 279.923V281.966H96.2555V283.548H97.5078V288.376C97.5078 290.073 98.2493 290.74 100.136 290.74C100.573 290.74 100.976 290.707 101.199 290.658V289.092C101.067 289.117 100.803 289.134 100.614 289.134C99.8887 289.134 99.5592 288.804 99.5592 288.087V283.548H101.207V281.966H99.5592V279.923H97.5078Z" fill="black"/>
<path d="M108.226 288.087C108.004 288.812 107.279 289.29 106.323 289.29C104.98 289.29 104.123 288.351 104.123 286.95V286.827H110.228V286.16C110.228 283.507 108.679 281.785 106.199 281.785C103.678 281.785 102.08 283.606 102.08 286.366C102.08 289.15 103.662 290.872 106.282 290.872C108.35 290.872 109.882 289.735 110.146 288.087H108.226ZM106.208 283.375C107.386 283.375 108.177 284.24 108.218 285.476H104.14C104.222 284.256 105.054 283.375 106.208 283.375Z" fill="black"/>
<path d="M111.398 284.471C111.398 285.764 112.238 286.588 113.911 286.959L115.361 287.28C116.275 287.486 116.588 287.783 116.588 288.31C116.588 288.961 115.97 289.373 114.973 289.373C113.935 289.373 113.35 288.944 113.194 288.096H111.176C111.34 289.785 112.691 290.872 114.973 290.872C117.115 290.872 118.631 289.76 118.631 288.112C118.631 286.843 117.931 286.143 116.119 285.739L114.669 285.418C113.754 285.212 113.392 284.866 113.392 284.364C113.392 283.721 113.993 283.293 114.899 283.293C115.847 283.293 116.432 283.795 116.514 284.586H118.425C118.376 282.93 117.025 281.785 114.899 281.785C112.79 281.785 111.398 282.872 111.398 284.471Z" fill="black"/>
<path d="M127.183 290.872C129.745 290.872 131.409 289.167 131.409 286.333C131.409 283.507 129.729 281.785 127.183 281.785C124.637 281.785 122.957 283.515 122.957 286.333C122.957 289.167 124.621 290.872 127.183 290.872ZM127.183 289.249C125.881 289.249 125.041 288.194 125.041 286.333C125.041 284.479 125.89 283.416 127.183 283.416C128.485 283.416 129.325 284.479 129.325 286.333C129.325 288.194 128.485 289.249 127.183 289.249Z" fill="black"/>
<path d="M132.728 290.699H134.779V285.641C134.779 284.388 135.529 283.54 136.707 283.54C137.877 283.54 138.453 284.232 138.453 285.468V290.699H140.505V285.056C140.505 283.037 139.409 281.801 137.481 281.801C136.138 281.801 135.207 282.428 134.738 283.466H134.697V281.966H132.728V290.699Z" fill="black"/>
<path d="M146.099 279.923V281.966H144.846V283.548H146.099V288.376C146.099 290.073 146.84 290.74 148.727 290.74C149.163 290.74 149.567 290.707 149.789 290.658V289.092C149.658 289.117 149.394 289.134 149.205 289.134C148.48 289.134 148.15 288.804 148.15 288.087V283.548H149.798V281.966H148.15V279.923H146.099Z" fill="black"/>
<path d="M151.256 290.699H153.307V285.682C153.307 284.397 154.057 283.54 155.293 283.54C156.479 283.54 157.089 284.273 157.089 285.492V290.699H159.14V285.072C159.14 283.07 158.012 281.801 156.084 281.801C154.757 281.801 153.793 282.403 153.324 283.466H153.283V278.811H151.256V290.699Z" fill="black"/>
<path d="M161.859 280.648C162.485 280.648 162.979 280.145 162.979 279.536C162.979 278.918 162.485 278.424 161.859 278.424C161.233 278.424 160.73 278.918 160.73 279.536C160.73 280.145 161.233 280.648 161.859 280.648ZM160.837 290.699H162.889V281.966H160.837V290.699Z" fill="black"/>
<path d="M164.454 284.471C164.454 285.764 165.294 286.588 166.967 286.959L168.417 287.28C169.331 287.486 169.644 287.783 169.644 288.31C169.644 288.961 169.026 289.373 168.03 289.373C166.992 289.373 166.407 288.944 166.25 288.096H164.232C164.396 289.785 165.748 290.872 168.03 290.872C170.172 290.872 171.688 289.76 171.688 288.112C171.688 286.843 170.987 286.143 169.175 285.739L167.725 285.418C166.81 285.212 166.448 284.866 166.448 284.364C166.448 283.721 167.049 283.293 167.955 283.293C168.903 283.293 169.488 283.795 169.57 284.586H171.482C171.432 282.93 170.081 281.785 167.955 281.785C165.846 281.785 164.454 282.872 164.454 284.471Z" fill="black"/>
<path d="M78.5839 310.839C80.7918 310.839 82.1841 309.125 82.1841 306.333C82.1841 303.54 80.7836 301.818 78.5839 301.818C77.3481 301.818 76.3512 302.444 75.8569 303.466H75.8075V298.811H73.7561V310.699H75.7663V309.208H75.8075C76.3183 310.221 77.2987 310.839 78.5839 310.839ZM77.9495 303.507C79.2594 303.507 80.0833 304.602 80.0833 306.333C80.0833 308.071 79.2677 309.158 77.9495 309.158C76.6808 309.158 75.7993 308.046 75.7993 306.333C75.7993 304.635 76.6808 303.507 77.9495 303.507Z" fill="black"/>
<path d="M87.3826 310.872C89.9448 310.872 91.609 309.167 91.609 306.333C91.609 303.507 89.9283 301.785 87.3826 301.785C84.8369 301.785 83.1563 303.515 83.1563 306.333C83.1563 309.167 84.8205 310.872 87.3826 310.872ZM87.3826 309.249C86.081 309.249 85.2406 308.194 85.2406 306.333C85.2406 304.479 86.0892 303.416 87.3826 303.416C88.6843 303.416 89.5247 304.479 89.5247 306.333C89.5247 308.194 88.6843 309.249 87.3826 309.249Z" fill="black"/>
<path d="M95.4976 310.839C96.618 310.839 97.7138 310.254 98.2163 309.307H98.2575V310.699H100.235V304.685C100.235 302.93 98.826 301.785 96.6592 301.785C94.4348 301.785 93.0425 302.955 92.9519 304.586H94.855C94.9868 303.861 95.6047 303.391 96.5768 303.391C97.5902 303.391 98.2081 303.919 98.2081 304.833V305.459L95.9013 305.591C93.7757 305.723 92.5812 306.654 92.5812 308.203C92.5812 309.776 93.8087 310.839 95.4976 310.839ZM96.1155 309.29C95.2257 309.29 94.6325 308.837 94.6325 308.12C94.6325 307.428 95.201 306.983 96.1896 306.918L98.2081 306.794V307.461C98.2081 308.516 97.2771 309.29 96.1155 309.29Z" fill="black"/>
<path d="M101.891 310.699H103.942V305.616C103.942 304.388 104.642 303.639 105.804 303.639C106.15 303.639 106.463 303.688 106.636 303.754V301.9C106.488 301.867 106.257 301.818 105.993 301.818C104.964 301.818 104.197 302.428 103.901 303.49H103.86V301.966H101.891V310.699Z" fill="black"/>
<path d="M110.624 310.839C111.9 310.839 112.906 310.188 113.383 309.208H113.416V310.699H115.427V298.811H113.375V303.433H113.326C112.864 302.469 111.876 301.818 110.624 301.818C108.424 301.818 106.999 303.564 106.999 306.324C106.999 309.101 108.424 310.839 110.624 310.839ZM111.241 303.507C112.535 303.507 113.383 304.619 113.383 306.333C113.383 308.063 112.535 309.158 111.241 309.158C109.915 309.158 109.099 308.071 109.099 306.333C109.099 304.602 109.923 303.507 111.241 303.507Z" fill="black"/>
<path d="M121.21 306.028C121.21 308.903 121.968 311.226 123.616 313.245H125.461C124.267 311.836 123.319 308.746 123.319 306.02C123.319 303.293 124.258 300.211 125.461 298.811H123.616C121.968 300.821 121.21 303.136 121.21 306.028Z" fill="black"/>
<path d="M127.587 313.945C129.58 313.945 130.544 313.212 131.286 311.045L134.449 301.966H132.291L130.231 308.952H130.19L128.139 301.966H125.898L129.004 310.707C129.012 310.732 128.88 311.169 128.88 311.193C128.658 312.001 128.221 312.322 127.372 312.322C127.249 312.322 126.886 312.314 126.779 312.289V313.912C126.886 313.937 127.463 313.945 127.587 313.945Z" fill="black"/>
<path d="M140.958 308.087C140.735 308.812 140.01 309.29 139.055 309.29C137.712 309.29 136.855 308.351 136.855 306.95V306.827H142.96V306.16C142.96 303.507 141.411 301.785 138.931 301.785C136.41 301.785 134.812 303.606 134.812 306.366C134.812 309.15 136.394 310.872 139.013 310.872C141.081 310.872 142.614 309.735 142.877 308.087H140.958ZM138.939 303.375C140.117 303.375 140.908 304.24 140.95 305.476H136.871C136.954 304.256 137.786 303.375 138.939 303.375Z" fill="black"/>
<path d="M144.855 299.923V301.966H143.602V303.548H144.855V308.376C144.855 310.073 145.596 310.74 147.483 310.74C147.919 310.74 148.323 310.707 148.545 310.658V309.092C148.414 309.117 148.15 309.134 147.961 309.134C147.236 309.134 146.906 308.804 146.906 308.087V303.548H148.554V301.966H146.906V299.923H144.855Z" fill="black"/>
<path d="M153.67 306.028C153.67 303.152 152.904 300.829 151.264 298.811H149.419C150.613 300.22 151.561 303.309 151.561 306.036C151.561 308.763 150.613 311.844 149.419 313.245H151.264C152.904 311.234 153.67 308.919 153.67 306.028Z" fill="black"/>
</g>
<rect x="1.42134" y="1.42134" width="223.128" height="486.46" rx="20.2719" stroke="black" stroke-width="2.84267"/>
</g>
<defs>
<clipPath id="clip0_490_1467">
<rect width="226" height="343" fill="white"/>
</clipPath>
<clipPath id="clip1_490_1467">
<rect width="225.971" height="489.303" rx="21.6932" fill="white"/>
</clipPath>
</defs>
</svg>
