<svg width="152" height="152" viewBox="0 0 152 152" fill="none" xmlns="http://www.w3.org/2000/svg">
<path d="M54.2135 15.96H99.3068C101.126 15.96 102.6 17.4344 102.6 19.2533V21.7866C102.6 24.445 100.445 26.6 97.7868 26.6H55.7335C53.0752 26.6 50.9202 24.4449 50.9202 21.7866V19.2533C50.9202 17.4344 52.3946 15.96 54.2135 15.96Z" fill="white" stroke="black" stroke-width="1.52"/>
<path d="M77.52 26.3467V41.5467" stroke="black" stroke-width="1.52" stroke-linejoin="round"/>
<path d="M123.12 88.1599C123.12 114.743 101.57 136.293 74.9868 136.293C48.4035 136.293 26.8535 114.743 26.8535 88.1599C26.8535 61.5766 48.4035 40.0266 74.9868 40.0266C101.57 40.0266 123.12 61.5766 123.12 88.1599Z" fill="black"/>
<path d="M124.387 88.6668C124.387 114.83 103.177 136.04 77.0132 136.04C50.8496 136.04 29.6399 114.83 29.6399 88.6668C29.6399 62.5032 50.8496 41.2934 77.0132 41.2934C103.177 41.2934 124.387 62.5032 124.387 88.6668Z" fill="white" stroke="black" stroke-width="1.52"/>
<path d="M77.52 41.04L78.5334 136.8" stroke="black" stroke-width="1.52" stroke-linejoin="round"/>
<path d="M88.1601 43.0667C93.4654 58.0751 100.991 97.8699 88.2586 134.773" stroke="black" stroke-width="1.52" stroke-linejoin="round"/>
<path d="M65.3599 43.0667C60.0546 58.0751 52.5286 97.8699 65.2614 134.773" stroke="black" stroke-width="1.52" stroke-linejoin="round"/>
<path d="M103.36 49.1467C109.987 62.1922 119.79 97.4974 103.885 127.68" stroke="black" stroke-width="1.52" stroke-linejoin="round"/>
<path d="M50.16 49.1467C43.5326 62.1922 33.7297 97.4974 49.6354 127.68" stroke="black" stroke-width="1.52" stroke-linejoin="round"/>
<path d="M29.3867 88.6667H124.133" stroke="black" stroke-width="1.52" stroke-linejoin="round"/>
<path d="M31.4136 76.0001C42.5 71.1797 83.0918 62.861 122.614 75.8679" stroke="black" stroke-width="1.52" stroke-linejoin="round"/>
<path d="M31.4136 101.333C42.5 106.154 83.0918 114.473 122.614 101.466" stroke="black" stroke-width="1.52" stroke-linejoin="round"/>
<path d="M38 61.61C50.7408 55.5486 86.32 47.2659 116.027 61.8132" stroke="black" stroke-width="1.52" stroke-linejoin="round"/>
<path d="M38 115.723C50.7408 121.785 86.32 130.067 116.027 115.52" stroke="black" stroke-width="1.52" stroke-linejoin="round"/>
<path d="M31.4136 26.3467V37.4933" stroke="black" stroke-width="1.52" stroke-linecap="round" stroke-linejoin="round"/>
<path d="M134.267 70.9333L129.134 80.8278" stroke="black" stroke-width="1.52" stroke-linecap="round" stroke-linejoin="round"/>
<path d="M23.5913 52.1868L18.4582 62.0812" stroke="black" stroke-width="1.52" stroke-linecap="round" stroke-linejoin="round"/>
<path d="M126.653 29.3867L127.207 40.5196" stroke="black" stroke-width="1.52" stroke-linecap="round" stroke-linejoin="round"/>
<path d="M36.9868 31.4133L25.8401 31.4133" stroke="black" stroke-width="1.52" stroke-linecap="round" stroke-linejoin="round"/>
<path d="M136.293 78.0266L126.384 72.9235" stroke="black" stroke-width="1.52" stroke-linecap="round" stroke-linejoin="round"/>
<path d="M26.123 59.7866L16.2131 54.6835" stroke="black" stroke-width="1.52" stroke-linecap="round" stroke-linejoin="round"/>
<path d="M132.227 34.4534L121.093 35.0025" stroke="black" stroke-width="1.52" stroke-linecap="round" stroke-linejoin="round"/>
<circle cx="17.9865" cy="84.3601" r="1.52" fill="white" stroke="black" stroke-width="1.52"/>
<circle cx="104.627" cy="34.1999" r="1.52" fill="white" stroke="black" stroke-width="1.52"/>
<circle cx="124.893" cy="55.9865" r="1.52" fill="white" stroke="black" stroke-width="1.52"/>
<circle cx="46.3601" cy="38.76" r="1.52" fill="white" stroke="black" stroke-width="1.52"/>
</svg>
