<svg width="49" height="49" viewBox="0 0 49 49" fill="none" xmlns="http://www.w3.org/2000/svg">
<path fill-rule="evenodd" clip-rule="evenodd" d="M18.5667 7.73339C26.9827 3.23979 38.5853 9.36743 41.9354 17.7827C45.2854 26.198 38.2585 30.6099 32.3754 32.4073C31.7336 32.6035 31.0099 32.7605 30.2241 32.9309C26.8565 33.6616 22.3473 34.6399 18.2398 40.0056C13.1739 46.6234 7.62051 42.9531 6.80058 38.535C3.85908 22.6848 12.6836 10.8746 18.5667 7.73339ZM35.1263 24.5101C36.8402 24.5101 38.2296 23.1207 38.2296 21.4068C38.2296 19.6929 36.8402 18.3035 35.1263 18.3035C33.4124 18.3035 32.023 19.6929 32.023 21.4068C32.023 23.1207 33.4124 24.5101 35.1263 24.5101Z" fill="black"/>
<path fill-rule="evenodd" clip-rule="evenodd" d="M19.5466 7.73339C27.9626 3.23979 39.5653 9.36743 42.9154 17.7827C46.2654 26.198 39.2385 30.6099 33.3554 32.4073C32.7135 32.6035 31.9899 32.7605 31.204 32.9309C27.8364 33.6616 23.3273 34.6399 19.2198 40.0056C14.1538 46.6234 8.60049 42.9531 7.78056 38.535C4.83906 22.6848 13.6636 10.8746 19.5466 7.73339ZM36.1063 24.5101C37.8202 24.5101 39.2096 23.1207 39.2096 21.4068C39.2096 19.6929 37.8202 18.3035 36.1063 18.3035C34.3924 18.3035 33.003 19.6929 33.003 21.4068C33.003 23.1207 34.3924 24.5101 36.1063 24.5101Z" fill="white"/>
<path d="M42.9154 17.7827L43.3799 17.5978L43.3799 17.5978L42.9154 17.7827ZM19.5466 7.73339L19.7821 8.17446L19.7821 8.17446L19.5466 7.73339ZM33.3554 32.4073L33.2093 31.9292L33.2093 31.9292L33.3554 32.4073ZM31.204 32.9309L31.3101 33.4196L31.3101 33.4196L31.204 32.9309ZM19.2198 40.0056L19.6168 40.3095L19.6168 40.3095L19.2198 40.0056ZM7.78056 38.535L8.27216 38.4437L8.27216 38.4437L7.78056 38.535ZM43.3799 17.5978C41.6504 13.2532 37.8094 9.53054 33.3406 7.46342C28.8703 5.39552 23.6947 4.9518 19.3111 7.29232L19.7821 8.17446C23.8146 6.02138 28.6483 6.39468 32.9208 8.37102C37.195 10.3481 40.8303 13.8969 42.4508 17.9676L43.3799 17.5978ZM33.5015 32.8855C36.4825 31.9747 39.8129 30.3863 41.9748 27.9052C43.0616 26.6579 43.8575 25.1794 44.155 23.45C44.4526 21.7204 44.2459 19.7732 43.3799 17.5978L42.4508 17.9676C43.2598 19.9999 43.4311 21.7599 43.1695 23.2805C42.9078 24.8013 42.2074 26.116 41.2208 27.2482C39.236 29.5262 36.1114 31.0425 33.2093 31.9292L33.5015 32.8855ZM31.3101 33.4196C32.0906 33.2502 32.8359 33.0889 33.5015 32.8855L33.2093 31.9292C32.5911 32.118 31.8891 32.2707 31.098 32.4423L31.3101 33.4196ZM19.6168 40.3095C23.6116 35.091 27.9695 34.1443 31.3101 33.4196L31.098 32.4423C27.7034 33.1788 23.043 34.1887 18.8228 39.7017L19.6168 40.3095ZM7.28895 38.6262C7.72749 40.9892 9.43282 43.1823 11.7631 43.8874C14.1463 44.6084 16.9999 43.7281 19.6168 40.3095L18.8228 39.7017C16.3737 42.901 13.9177 43.4944 12.0527 42.9302C10.1349 42.35 8.65356 40.4989 8.27216 38.4437L7.28895 38.6262ZM19.3111 7.29232C16.2557 8.92373 12.5129 12.7522 9.90419 18.1508C7.28869 23.5635 5.7969 30.5863 7.28895 38.6262L8.27216 38.4437C6.82271 30.6334 8.27243 23.8261 10.8046 18.5858C13.3436 13.3315 16.9545 9.68422 19.7821 8.17446L19.3111 7.29232ZM38.7096 21.4068C38.7096 22.8446 37.5441 24.0101 36.1063 24.0101V25.0101C38.0964 25.0101 39.7096 23.3969 39.7096 21.4068H38.7096ZM36.1063 18.8035C37.5441 18.8035 38.7096 19.969 38.7096 21.4068H39.7096C39.7096 19.4167 38.0964 17.8035 36.1063 17.8035V18.8035ZM33.503 21.4068C33.503 19.969 34.6685 18.8035 36.1063 18.8035V17.8035C34.1162 17.8035 32.503 19.4167 32.503 21.4068H33.503ZM36.1063 24.0101C34.6685 24.0101 33.503 22.8446 33.503 21.4068H32.503C32.503 23.3969 34.1162 25.0101 36.1063 25.0101V24.0101Z" fill="black"/>
<path d="M10.7195 33.3637C9.95587 31.4225 11.7965 30.3795 13.1549 30.4023C15.3659 30.5603 15.6678 31.7203 15.706 32.3104C15.7442 32.9004 15.9885 33.7401 14.438 35.2377C12.8876 36.7353 11.6741 35.7902 10.7195 33.3637Z" stroke="black" stroke-linejoin="round"/>
<path d="M26.5872 28.1439C25.6363 30.0006 23.6367 29.3099 22.7553 28.276C21.4114 26.5132 22.0818 25.5195 22.4991 25.1006C22.9164 24.6816 23.3846 23.943 25.5333 24.1154C27.682 24.2878 27.7758 25.823 26.5872 28.1439Z" stroke="black" stroke-linejoin="round"/>
<path d="M11.6479 25.9107C10.9869 24.9739 12.9945 23.3732 14.2723 23.0124C15.9746 22.5317 17.7517 24.4511 17.862 25.2427C17.9762 26.0619 16.5214 27.7138 14.604 26.5482C12.6865 25.3826 12.4742 27.0817 11.6479 25.9107Z" stroke="black" stroke-linejoin="round"/>
<path d="M23.8076 13.0452C23.164 11.7349 24.0036 10.3205 25.5868 10.4336C26.4057 10.4921 27.5006 11.33 27.9571 12.4257C28.5277 13.7954 28.6902 15.0552 27.0774 15.353C25.4647 15.6508 24.612 14.683 23.8076 13.0452Z" stroke="black" stroke-linejoin="round"/>
<path d="M18.6297 18.6302C17.4537 18.9569 15.853 18.8193 15.6557 17.9209C14.7573 15.6343 18.759 15.0626 20.8823 15.8792C23.0057 16.6959 23.169 21.1876 20.8823 21.2692C18.5957 21.3509 20.0997 18.2219 18.6297 18.6302Z" stroke="black"/>
<path d="M37.711 34.6416C28.6925 36.2064 24.4342 40.7002 22.5771 43.1958C22.497 43.3034 22.5788 43.4536 22.7129 43.4493C32.9257 43.1278 39.0902 34.4022 37.711 34.6416Z" fill="white" stroke="black" stroke-linejoin="round"/>
<rect x="-0.172023" y="0.684427" width="1.61333" height="2.59333" transform="matrix(0.515102 0.857129 -0.859149 0.511726 38.718 33.6484)" fill="white" stroke="black"/>
<path d="M42.6053 31.0642C38.3878 31.6637 37.4978 33.3661 37.5814 34.178C37.5833 34.1966 37.589 34.214 37.5975 34.2306L38.3328 35.6609C38.3684 35.7302 38.4497 35.7644 38.5244 35.742C42.1105 34.6694 42.9526 32.4089 42.7823 31.1902C42.7706 31.1063 42.6892 31.0523 42.6053 31.0642Z" fill="white" stroke="black" stroke-linejoin="round"/>
<path d="M38.0664 35.1268C38.239 34.6735 38.3253 33.5268 40.2236 33.2068C41.6057 32.9738 42.2371 31.5801 42.6397 31.2068" stroke="black"/>
</svg>
