<svg xmlns="http://www.w3.org/2000/svg" width="312" height="180" fill="none"><path fill="#4A4A4A" fill-rule="evenodd" d="M43 40a1 1 0 0 1 1-1h4.167a1 1 0 0 1 0 2H45v3.167a1 1 0 1 1-2 0V40Zm12.5 0a1 1 0 0 1 1-1h8.333a1 1 0 1 1 0 2H56.5a1 1 0 0 1-1-1Zm16.667 0a1 1 0 0 1 1-1H81.5a1 1 0 1 1 0 2h-8.333a1 1 0 0 1-1-1Zm16.666 0a1 1 0 0 1 1-1h8.334a1 1 0 1 1 0 2h-8.334a1 1 0 0 1-1-1Zm16.667 0a1 1 0 0 1 1-1h8.333a1 1 0 1 1 0 2H106.5a1 1 0 0 1-1-1Zm16.667 0a1 1 0 0 1 1-1h8.333a1 1 0 0 1 0 2h-8.333a1 1 0 0 1-1-1Zm16.666 0a1 1 0 0 1 1-1H144a1 1 0 0 1 1 1v4.167a1 1 0 0 1-2 0V41h-3.167a1 1 0 0 1-1-1ZM44 51.5a1 1 0 0 1 1 1v8.333a1 1 0 1 1-2 0V52.5a1 1 0 0 1 1-1Zm100 0a1 1 0 0 1 1 1v8.333a1 1 0 0 1-2 0V52.5a1 1 0 0 1 1-1ZM44 68.167a1 1 0 0 1 1 1V77.5a1 1 0 1 1-2 0v-8.333a1 1 0 0 1 1-1Zm100 0a1 1 0 0 1 1 1V77.5a1 1 0 0 1-2 0v-8.333a1 1 0 0 1 1-1ZM44 84.833a1 1 0 0 1 1 1v8.334a1 1 0 0 1-2 0v-8.334a1 1 0 0 1 1-1Zm100 0a1 1 0 0 1 1 1v8.334a1 1 0 0 1-2 0v-8.334a1 1 0 0 1 1-1ZM44 101.5a1 1 0 0 1 1 1v8.333a1 1 0 1 1-2 0V102.5a1 1 0 0 1 1-1Zm100 0a1 1 0 0 1 1 1v8.333a1 1 0 1 1-2 0V102.5a1 1 0 0 1 1-1ZM44 118.167a1 1 0 0 1 1 1v8.333a1 1 0 0 1-2 0v-8.333a1 1 0 0 1 1-1Zm100 0a1 1 0 0 1 1 1v8.333a1 1 0 0 1-2 0v-8.333a1 1 0 0 1 1-1ZM44 134.833a1 1 0 0 1 1 1V139h3.167a1 1 0 0 1 0 2H44a1 1 0 0 1-1-1v-4.167a1 1 0 0 1 1-1Zm100 0a1 1 0 0 1 1 1V140a1 1 0 0 1-1 1h-4.167a1 1 0 0 1 0-2H143v-3.167a1 1 0 0 1 1-1ZM55.5 140a1 1 0 0 1 1-1h8.333a1 1 0 0 1 0 2H56.5a1 1 0 0 1-1-1Zm16.667 0a1 1 0 0 1 1-1H81.5a1 1 0 0 1 0 2h-8.333a1 1 0 0 1-1-1Zm16.666 0a1 1 0 0 1 1-1h8.334a1 1 0 0 1 0 2h-8.334a1 1 0 0 1-1-1Zm16.667 0a1 1 0 0 1 1-1h8.333a1 1 0 1 1 0 2H106.5a1 1 0 0 1-1-1Zm16.667 0a1 1 0 0 1 1-1h8.333a1 1 0 0 1 0 2h-8.333a1 1 0 0 1-1-1ZM184 41a15.09 15.09 0 0 0-2.929.285 1 1 0 0 1-.388-1.961A17.084 17.084 0 0 1 184 39h4.25a1 1 0 0 1 0 2H184Zm11.75-1a1 1 0 0 1 1-1h8.5a1 1 0 0 1 0 2h-8.5a1 1 0 0 1-1-1Zm17 0a1 1 0 0 1 1-1h8.5a1 1 0 0 1 0 2h-8.5a1 1 0 0 1-1-1Zm17 0a1 1 0 0 1 1-1h8.5a1 1 0 0 1 0 2h-8.5a1 1 0 0 1-1-1Zm17 0a1 1 0 0 1 1-1H252c1.134 0 2.243.111 3.317.324a1 1 0 0 1-.388 1.962A15.09 15.09 0 0 0 252 41h-4.25a1 1 0 0 1-1-1Zm-70.809 2.139a1 1 0 0 1-.275 1.387 15.083 15.083 0 0 0-4.14 4.14 1 1 0 1 1-1.662-1.112 17.083 17.083 0 0 1 4.69-4.69 1 1 0 0 1 1.387.275Zm84.118 0a1 1 0 0 1 1.387-.275 17.083 17.083 0 0 1 4.69 4.69 1 1 0 0 1-1.662 1.112 15.083 15.083 0 0 0-4.14-4.14 1 1 0 0 1-.275-1.387Zm7.442 9.757a1 1 0 0 1 1.175.787A17.03 17.03 0 0 1 269 56v4.25a1 1 0 0 1-2 0V56a15.01 15.01 0 0 0-.286-2.928 1 1 0 0 1 .787-1.176Zm-99.002 0a1 1 0 0 1 .787 1.175A15.017 15.017 0 0 0 169 56v4.25a1 1 0 0 1-2 0V56c0-1.134.111-2.243.324-3.317a1 1 0 0 1 1.175-.787ZM268 67.75a1 1 0 0 1 1 1v8.5a1 1 0 0 1-2 0v-8.5a1 1 0 0 1 1-1Zm-100 0a1 1 0 0 1 1 1v8.5a1 1 0 0 1-2 0v-8.5a1 1 0 0 1 1-1Zm0 17a1 1 0 0 1 1 1v8.5a1 1 0 0 1-2 0v-8.5a1 1 0 0 1 1-1Zm100 0a1 1 0 0 1 1 1v8.5a1 1 0 0 1-2 0v-8.5a1 1 0 0 1 1-1Zm0 17a1 1 0 0 1 1 1v8.5a1 1 0 0 1-2 0v-8.5a1 1 0 0 1 1-1Zm-100 0a1 1 0 0 1 1 1v8.5a1 1 0 0 1-2 0v-8.5a1 1 0 0 1 1-1Zm0 17a1 1 0 0 1 1 1V124c0 1.003.098 1.982.286 2.929a1 1 0 0 1-1.962.388A17.037 17.037 0 0 1 167 124v-4.25a1 1 0 0 1 1-1Zm100 0a1 1 0 0 1 1 1V124c0 1.134-.111 2.243-.324 3.317a1 1 0 0 1-1.962-.388c.188-.947.286-1.926.286-2.929v-4.25a1 1 0 0 1 1-1Zm-97.861 13.309a1 1 0 0 1 1.387.275 15.078 15.078 0 0 0 4.14 4.14 1 1 0 1 1-1.112 1.662 17.078 17.078 0 0 1-4.69-4.69 1 1 0 0 1 .275-1.387Zm95.722 0a1 1 0 0 1 .275 1.387 17.078 17.078 0 0 1-4.69 4.69 1 1 0 1 1-1.112-1.662 15.078 15.078 0 0 0 4.14-4.14 1 1 0 0 1 1.387-.275Zm-85.965 7.442a1.002 1.002 0 0 1 1.175-.787c.947.188 1.926.286 2.929.286h4.25a1 1 0 0 1 0 2H184c-1.134 0-2.243-.111-3.317-.324a1 1 0 0 1-.787-1.175Zm76.208 0a1 1 0 0 1-.787 1.175A17.037 17.037 0 0 1 252 141h-4.25a1 1 0 0 1 0-2H252c1.003 0 1.982-.098 2.929-.286a1.002 1.002 0 0 1 1.175.787ZM195.75 140a1 1 0 0 1 1-1h8.5a1 1 0 0 1 0 2h-8.5a1 1 0 0 1-1-1Zm17 0a1 1 0 0 1 1-1h8.5a1 1 0 0 1 0 2h-8.5a1 1 0 0 1-1-1Zm17 0a1 1 0 0 1 1-1h8.5a1 1 0 0 1 0 2h-8.5a1 1 0 0 1-1-1Z" clip-rule="evenodd"/></svg>