<svg width="325" height="180" viewBox="0 0 325 180" fill="none" xmlns="http://www.w3.org/2000/svg">
<rect width="325" height="180" fill="#F4F4F4"/>
<path fill-rule="evenodd" clip-rule="evenodd" d="M82 -4.37114e-08C82.5523 -1.95703e-08 83 0.447715 83 1L83 5.04545C83 5.59774 82.5523 6.04545 82 6.04545C81.4477 6.04545 81 5.59774 81 5.04545L81 1C81 0.447715 81.4477 -6.78525e-08 82 -4.37114e-08ZM82 12.1364C82.5523 12.1364 83 12.5841 83 13.1364L83 21.2273C83 21.7796 82.5523 22.2273 82 22.2273C81.4477 22.2273 81 21.7796 81 21.2273L81 13.1364C81 12.5841 81.4477 12.1364 82 12.1364ZM82 28.3182C82.5523 28.3182 83 28.7659 83 29.3182L83 37.4091C83 37.9614 82.5523 38.4091 82 38.4091C81.4477 38.4091 81 37.9614 81 37.4091L81 29.3182C81 28.7659 81.4477 28.3182 82 28.3182ZM82 44.5C82.5523 44.5 83 44.9477 83 45.5L83 53.5909C83 54.1432 82.5523 54.5909 82 54.5909C81.4477 54.5909 81 54.1432 81 53.5909L81 45.5C81 44.9477 81.4477 44.5 82 44.5ZM82 60.6818C82.5523 60.6818 83 61.1295 83 61.6818L83 69.7727C83 70.325 82.5523 70.7727 82 70.7727C81.4477 70.7727 81 70.325 81 69.7727L81 61.6818C81 61.1295 81.4477 60.6818 82 60.6818ZM82 76.8636C82.5523 76.8636 83 77.3113 83 77.8636L83 85.9545C83 86.5068 82.5523 86.9545 82 86.9545C81.4477 86.9545 81 86.5068 81 85.9545L81 77.8636C81 77.3113 81.4477 76.8636 82 76.8636ZM82 93.0454C82.5523 93.0454 83 93.4932 83 94.0454L83 102.136C83 102.689 82.5523 103.136 82 103.136C81.4477 103.136 81 102.689 81 102.136L81 94.0454C81 93.4932 81.4477 93.0454 82 93.0454ZM82 109.227C82.5523 109.227 83 109.675 83 110.227L83 118.318C83 118.87 82.5523 119.318 82 119.318C81.4477 119.318 81 118.87 81 118.318L81 110.227C81 109.675 81.4477 109.227 82 109.227ZM82 125.409C82.5523 125.409 83 125.857 83 126.409L83 134.5C83 135.052 82.5523 135.5 82 135.5C81.4477 135.5 81 135.052 81 134.5L81 126.409C81 125.857 81.4477 125.409 82 125.409ZM82 141.591C82.5523 141.591 83 142.039 83 142.591L83 150.682C83 151.234 82.5523 151.682 82 151.682C81.4477 151.682 81 151.234 81 150.682L81 142.591C81 142.039 81.4477 141.591 82 141.591ZM82 157.773C82.5523 157.773 83 158.22 83 158.773L83 166.864C83 167.416 82.5523 167.864 82 167.864C81.4477 167.864 81 167.416 81 166.864L81 158.773C81 158.22 81.4477 157.773 82 157.773ZM82 173.955C82.5523 173.955 83 174.402 83 174.955L83 179C83 179.552 82.5523 180 82 180C81.4477 180 81 179.552 81 179L81 174.955C81 174.402 81.4477 173.955 82 173.955Z" fill="#4D4D4D"/>
<path fill-rule="evenodd" clip-rule="evenodd" d="M163 -4.37114e-08C163.552 -1.95703e-08 164 0.447715 164 1L164 5.04545C164 5.59774 163.552 6.04545 163 6.04545C162.448 6.04545 162 5.59774 162 5.04545L162 1C162 0.447715 162.448 -6.78525e-08 163 -4.37114e-08ZM163 12.1364C163.552 12.1364 164 12.5841 164 13.1364L164 21.2273C164 21.7796 163.552 22.2273 163 22.2273C162.448 22.2273 162 21.7796 162 21.2273L162 13.1364C162 12.5841 162.448 12.1364 163 12.1364ZM163 28.3182C163.552 28.3182 164 28.7659 164 29.3182L164 37.4091C164 37.9614 163.552 38.4091 163 38.4091C162.448 38.4091 162 37.9614 162 37.4091L162 29.3182C162 28.7659 162.448 28.3182 163 28.3182ZM163 44.5C163.552 44.5 164 44.9477 164 45.5L164 53.5909C164 54.1432 163.552 54.5909 163 54.5909C162.448 54.5909 162 54.1432 162 53.5909L162 45.5C162 44.9477 162.448 44.5 163 44.5ZM163 60.6818C163.552 60.6818 164 61.1295 164 61.6818L164 69.7727C164 70.325 163.552 70.7727 163 70.7727C162.448 70.7727 162 70.325 162 69.7727L162 61.6818C162 61.1295 162.448 60.6818 163 60.6818ZM163 76.8636C163.552 76.8636 164 77.3113 164 77.8636L164 85.9545C164 86.5068 163.552 86.9545 163 86.9545C162.448 86.9545 162 86.5068 162 85.9545L162 77.8636C162 77.3113 162.448 76.8636 163 76.8636ZM163 93.0454C163.552 93.0454 164 93.4932 164 94.0454L164 102.136C164 102.689 163.552 103.136 163 103.136C162.448 103.136 162 102.689 162 102.136L162 94.0454C162 93.4932 162.448 93.0454 163 93.0454ZM163 109.227C163.552 109.227 164 109.675 164 110.227L164 118.318C164 118.87 163.552 119.318 163 119.318C162.448 119.318 162 118.87 162 118.318L162 110.227C162 109.675 162.448 109.227 163 109.227ZM163 125.409C163.552 125.409 164 125.857 164 126.409L164 134.5C164 135.052 163.552 135.5 163 135.5C162.448 135.5 162 135.052 162 134.5L162 126.409C162 125.857 162.448 125.409 163 125.409ZM163 141.591C163.552 141.591 164 142.039 164 142.591L164 150.682C164 151.234 163.552 151.682 163 151.682C162.448 151.682 162 151.234 162 150.682L162 142.591C162 142.039 162.448 141.591 163 141.591ZM163 157.773C163.552 157.773 164 158.22 164 158.773L164 166.864C164 167.416 163.552 167.864 163 167.864C162.448 167.864 162 167.416 162 166.864L162 158.773C162 158.22 162.448 157.773 163 157.773ZM163 173.955C163.552 173.955 164 174.402 164 174.955L164 179C164 179.552 163.552 180 163 180C162.448 180 162 179.552 162 179L162 174.955C162 174.402 162.448 173.955 163 173.955Z" fill="#4D4D4D"/>
<path fill-rule="evenodd" clip-rule="evenodd" d="M244 -4.37114e-08C244.552 -1.95703e-08 245 0.447715 245 1L245 5.04545C245 5.59774 244.552 6.04545 244 6.04545C243.448 6.04545 243 5.59774 243 5.04545L243 1C243 0.447715 243.448 -6.78525e-08 244 -4.37114e-08ZM244 12.1364C244.552 12.1364 245 12.5841 245 13.1364L245 21.2273C245 21.7796 244.552 22.2273 244 22.2273C243.448 22.2273 243 21.7796 243 21.2273L243 13.1364C243 12.5841 243.448 12.1364 244 12.1364ZM244 28.3182C244.552 28.3182 245 28.7659 245 29.3182L245 37.4091C245 37.9614 244.552 38.4091 244 38.4091C243.448 38.4091 243 37.9614 243 37.4091L243 29.3182C243 28.7659 243.448 28.3182 244 28.3182ZM244 44.5C244.552 44.5 245 44.9477 245 45.5L245 53.5909C245 54.1432 244.552 54.5909 244 54.5909C243.448 54.5909 243 54.1432 243 53.5909L243 45.5C243 44.9477 243.448 44.5 244 44.5ZM244 60.6818C244.552 60.6818 245 61.1295 245 61.6818L245 69.7727C245 70.325 244.552 70.7727 244 70.7727C243.448 70.7727 243 70.325 243 69.7727L243 61.6818C243 61.1295 243.448 60.6818 244 60.6818ZM244 76.8636C244.552 76.8636 245 77.3113 245 77.8636L245 85.9545C245 86.5068 244.552 86.9545 244 86.9545C243.448 86.9545 243 86.5068 243 85.9545L243 77.8636C243 77.3113 243.448 76.8636 244 76.8636ZM244 93.0454C244.552 93.0454 245 93.4932 245 94.0454L245 102.136C245 102.689 244.552 103.136 244 103.136C243.448 103.136 243 102.689 243 102.136L243 94.0454C243 93.4932 243.448 93.0454 244 93.0454ZM244 109.227C244.552 109.227 245 109.675 245 110.227L245 118.318C245 118.87 244.552 119.318 244 119.318C243.448 119.318 243 118.87 243 118.318L243 110.227C243 109.675 243.448 109.227 244 109.227ZM244 125.409C244.552 125.409 245 125.857 245 126.409L245 134.5C245 135.052 244.552 135.5 244 135.5C243.448 135.5 243 135.052 243 134.5L243 126.409C243 125.857 243.448 125.409 244 125.409ZM244 141.591C244.552 141.591 245 142.039 245 142.591L245 150.682C245 151.234 244.552 151.682 244 151.682C243.448 151.682 243 151.234 243 150.682L243 142.591C243 142.039 243.448 141.591 244 141.591ZM244 157.773C244.552 157.773 245 158.22 245 158.773L245 166.864C245 167.416 244.552 167.864 244 167.864C243.448 167.864 243 167.416 243 166.864L243 158.773C243 158.22 243.448 157.773 244 157.773ZM244 173.955C244.552 173.955 245 174.402 245 174.955L245 179C245 179.552 244.552 180 244 180C243.448 180 243 179.552 243 179L243 174.955C243 174.402 243.448 173.955 244 173.955Z" fill="#4D4D4D"/>
<path d="M0 0V-2H-2V0H0ZM325 0H327V-2H325V0ZM325 180V182H327V180H325ZM0 180H-2V182H0V180ZM0 2H325V-2H0V2ZM323 0V180H327V0H323ZM325 178H0V182H325V178ZM2 180V0H-2V180H2Z" fill="#767676"/>
</svg>
