<svg xmlns="http://www.w3.org/2000/svg" width="312" height="180" fill="none"><path fill="#4A4A4A" fill-rule="evenodd" d="M79 0a1 1 0 0 1 1 1v4.045a1 1 0 1 1-2 0V1a1 1 0 0 1 1-1Zm0 12.136a1 1 0 0 1 1 1v8.091a1 1 0 1 1-2 0v-8.09a1 1 0 0 1 1-1Zm0 16.182a1 1 0 0 1 1 1v8.091a1 1 0 1 1-2 0v-8.09a1 1 0 0 1 1-1ZM79 44.5a1 1 0 0 1 1 1v8.09a1 1 0 1 1-2 0V45.5a1 1 0 0 1 1-1Zm0 16.182a1 1 0 0 1 1 1v8.09a1 1 0 1 1-2 0v-8.09a1 1 0 0 1 1-1Zm0 16.182a1 1 0 0 1 1 1v8.09a1 1 0 1 1-2 0v-8.09a1 1 0 0 1 1-1Zm0 16.181a1 1 0 0 1 1 1v8.091a1 1 0 1 1-2 0v-8.09a1 1 0 0 1 1-1Zm0 16.182a1 1 0 0 1 1 1v8.091a1 1 0 0 1-2 0v-8.091a1 1 0 0 1 1-1Zm0 16.182a1 1 0 0 1 1 1v8.091a1 1 0 0 1-2 0v-8.091a1 1 0 0 1 1-1Zm0 16.182a1 1 0 0 1 1 1v8.091a1 1 0 0 1-2 0v-8.091a1 1 0 0 1 1-1Zm0 16.182a1 1 0 0 1 1 1v8.091a1 1 0 0 1-2 0v-8.091a1 1 0 0 1 1-1Zm0 16.182a1 1 0 0 1 1 1V179a1 1 0 0 1-2 0v-4.045a1 1 0 0 1 1-1ZM157 0a1 1 0 0 1 1 1v4.045a1 1 0 0 1-2 0V1a1 1 0 0 1 1-1Zm0 12.136a1 1 0 0 1 1 1v8.091a1 1 0 0 1-2 0v-8.09a1 1 0 0 1 1-1Zm0 16.182a1 1 0 0 1 1 1v8.091a1 1 0 0 1-2 0v-8.09a1 1 0 0 1 1-1Zm0 16.182a1 1 0 0 1 1 1v8.09a1 1 0 0 1-2 0V45.5a1 1 0 0 1 1-1Zm0 16.182a1 1 0 0 1 1 1v8.09a1 1 0 0 1-2 0v-8.09a1 1 0 0 1 1-1Zm0 16.182a1 1 0 0 1 1 1v8.09a1 1 0 0 1-2 0v-8.09a1 1 0 0 1 1-1Zm0 16.181a1 1 0 0 1 1 1v8.091a1 1 0 1 1-2 0v-8.09a1 1 0 0 1 1-1Zm0 16.182a1 1 0 0 1 1 1v8.091a1 1 0 0 1-2 0v-8.091a1 1 0 0 1 1-1Zm0 16.182a1 1 0 0 1 1 1v8.091a1 1 0 0 1-2 0v-8.091a1 1 0 0 1 1-1Zm0 16.182a1 1 0 0 1 1 1v8.091a1 1 0 0 1-2 0v-8.091a1 1 0 0 1 1-1Zm0 16.182a1 1 0 0 1 1 1v8.091a1 1 0 0 1-2 0v-8.091a1 1 0 0 1 1-1Zm0 16.182a1 1 0 0 1 1 1V179a1 1 0 0 1-2 0v-4.045a1 1 0 0 1 1-1ZM235 0a1 1 0 0 1 1 1v4.045a1 1 0 0 1-2 0V1a1 1 0 0 1 1-1Zm0 12.136a1 1 0 0 1 1 1v8.091a1 1 0 0 1-2 0v-8.09a1 1 0 0 1 1-1Zm0 16.182a1 1 0 0 1 1 1v8.091a1 1 0 0 1-2 0v-8.09a1 1 0 0 1 1-1Zm0 16.182a1 1 0 0 1 1 1v8.09a1 1 0 0 1-2 0V45.5a1 1 0 0 1 1-1Zm0 16.182a1 1 0 0 1 1 1v8.09a1 1 0 0 1-2 0v-8.09a1 1 0 0 1 1-1Zm0 16.182a1 1 0 0 1 1 1v8.09a1 1 0 0 1-2 0v-8.09a1 1 0 0 1 1-1Zm0 16.181a1 1 0 0 1 1 1v8.091a1 1 0 1 1-2 0v-8.09a1 1 0 0 1 1-1Zm0 16.182a1 1 0 0 1 1 1v8.091a1 1 0 0 1-2 0v-8.091a1 1 0 0 1 1-1Zm0 16.182a1 1 0 0 1 1 1v8.091a1 1 0 0 1-2 0v-8.091a1 1 0 0 1 1-1Zm0 16.182a1 1 0 0 1 1 1v8.091a1 1 0 0 1-2 0v-8.091a1 1 0 0 1 1-1Zm0 16.182a1 1 0 0 1 1 1v8.091a1 1 0 0 1-2 0v-8.091a1 1 0 0 1 1-1Zm0 16.182a1 1 0 0 1 1 1V179a1 1 0 0 1-2 0v-4.045a1 1 0 0 1 1-1Z" clip-rule="evenodd"/></svg>