<svg width="325" height="180" viewBox="0 0 325 180" fill="none" xmlns="http://www.w3.org/2000/svg">
<rect width="325" height="180" fill="#F4F4F4"/>
<path fill-rule="evenodd" clip-rule="evenodd" d="M51 74C51 73.4477 51.4477 73 52 73H55.9285C56.4808 73 56.9285 73.4477 56.9285 74C56.9285 74.5523 56.4808 75 55.9285 75H53V78C53 78.5523 52.5523 79 52 79C51.4477 79 51 78.5523 51 78V74ZM62.7857 74C62.7857 73.4477 63.2334 73 63.7857 73H71.6428C72.1951 73 72.6428 73.4477 72.6428 74C72.6428 74.5523 72.1951 75 71.6428 75H63.7857C63.2334 75 62.7857 74.5523 62.7857 74ZM78.5 74C78.5 73.4477 78.9477 73 79.5 73H87.3571C87.9094 73 88.3571 73.4477 88.3571 74C88.3571 74.5523 87.9094 75 87.3571 75H79.5C78.9477 75 78.5 74.5523 78.5 74ZM94.2143 74C94.2143 73.4477 94.662 73 95.2143 73H103.071C103.624 73 104.071 73.4477 104.071 74C104.071 74.5523 103.624 75 103.071 75H95.2143C94.662 75 94.2143 74.5523 94.2143 74ZM109.929 74C109.929 73.4477 110.376 73 110.929 73H118.786C119.338 73 119.786 73.4477 119.786 74C119.786 74.5523 119.338 75 118.786 75H110.929C110.376 75 109.929 74.5523 109.929 74ZM125.643 74C125.643 73.4477 126.091 73 126.643 73H134.5C135.052 73 135.5 73.4477 135.5 74C135.5 74.5523 135.052 75 134.5 75H126.643C126.091 75 125.643 74.5523 125.643 74ZM141.357 74C141.357 73.4477 141.805 73 142.357 73H150.214C150.767 73 151.214 73.4477 151.214 74C151.214 74.5523 150.767 75 150.214 75H142.357C141.805 75 141.357 74.5523 141.357 74ZM157.071 74C157.071 73.4477 157.519 73 158.071 73H165.929C166.481 73 166.929 73.4477 166.929 74C166.929 74.5523 166.481 75 165.929 75H158.071C157.519 75 157.071 74.5523 157.071 74ZM172.786 74C172.786 73.4477 173.233 73 173.786 73H181.643C182.195 73 182.643 73.4477 182.643 74C182.643 74.5523 182.195 75 181.643 75H173.786C173.233 75 172.786 74.5523 172.786 74ZM188.5 74C188.5 73.4477 188.948 73 189.5 73H197.357C197.909 73 198.357 73.4477 198.357 74C198.357 74.5523 197.909 75 197.357 75H189.5C188.948 75 188.5 74.5523 188.5 74ZM204.214 74C204.214 73.4477 204.662 73 205.214 73H213.071C213.624 73 214.071 73.4477 214.071 74C214.071 74.5523 213.624 75 213.071 75H205.214C204.662 75 204.214 74.5523 204.214 74ZM219.929 74C219.929 73.4477 220.376 73 220.929 73H228.786C229.338 73 229.786 73.4477 229.786 74C229.786 74.5523 229.338 75 228.786 75H220.929C220.376 75 219.929 74.5523 219.929 74ZM235.643 74C235.643 73.4477 236.091 73 236.643 73H244.5C245.052 73 245.5 73.4477 245.5 74C245.5 74.5523 245.052 75 244.5 75H236.643C236.091 75 235.643 74.5523 235.643 74ZM251.357 74C251.357 73.4477 251.805 73 252.357 73H260.214C260.767 73 261.214 73.4477 261.214 74C261.214 74.5523 260.767 75 260.214 75H252.357C251.805 75 251.357 74.5523 251.357 74ZM267.071 74C267.071 73.4477 267.519 73 268.071 73H272C272.552 73 273 73.4477 273 74V78C273 78.5523 272.552 79 272 79C271.448 79 271 78.5523 271 78V75H268.071C267.519 75 267.071 74.5523 267.071 74ZM52 85C52.5523 85 53 85.4477 53 86V94C53 94.5523 52.5523 95 52 95C51.4477 95 51 94.5523 51 94V86C51 85.4477 51.4477 85 52 85ZM272 85C272.552 85 273 85.4477 273 86V94C273 94.5523 272.552 95 272 95C271.448 95 271 94.5523 271 94V86C271 85.4477 271.448 85 272 85ZM52 101C52.5523 101 53 101.448 53 102V105H55.9286C56.4809 105 56.9286 105.448 56.9286 106C56.9286 106.552 56.4809 107 55.9286 107H52C51.4477 107 51 106.552 51 106V102C51 101.448 51.4477 101 52 101ZM272 101C272.552 101 273 101.448 273 102V106C273 106.552 272.552 107 272 107H268.071C267.519 107 267.071 106.552 267.071 106C267.071 105.448 267.519 105 268.071 105H271V102C271 101.448 271.448 101 272 101ZM62.7857 106C62.7857 105.448 63.2334 105 63.7857 105H71.6429C72.1951 105 72.6429 105.448 72.6429 106C72.6429 106.552 72.1951 107 71.6429 107H63.7857C63.2334 107 62.7857 106.552 62.7857 106ZM78.5 106C78.5 105.448 78.9477 105 79.5 105H87.3571C87.9094 105 88.3571 105.448 88.3571 106C88.3571 106.552 87.9094 107 87.3571 107H79.5C78.9477 107 78.5 106.552 78.5 106ZM94.2143 106C94.2143 105.448 94.662 105 95.2143 105H103.071C103.624 105 104.071 105.448 104.071 106C104.071 106.552 103.624 107 103.071 107H95.2143C94.662 107 94.2143 106.552 94.2143 106ZM109.929 106C109.929 105.448 110.376 105 110.929 105H118.786C119.338 105 119.786 105.448 119.786 106C119.786 106.552 119.338 107 118.786 107H110.929C110.376 107 109.929 106.552 109.929 106ZM125.643 106C125.643 105.448 126.091 105 126.643 105H134.5C135.052 105 135.5 105.448 135.5 106C135.5 106.552 135.052 107 134.5 107H126.643C126.091 107 125.643 106.552 125.643 106ZM141.357 106C141.357 105.448 141.805 105 142.357 105H150.214C150.767 105 151.214 105.448 151.214 106C151.214 106.552 150.767 107 150.214 107H142.357C141.805 107 141.357 106.552 141.357 106ZM157.071 106C157.071 105.448 157.519 105 158.071 105H165.929C166.481 105 166.929 105.448 166.929 106C166.929 106.552 166.481 107 165.929 107H158.071C157.519 107 157.071 106.552 157.071 106ZM172.786 106C172.786 105.448 173.233 105 173.786 105H181.643C182.195 105 182.643 105.448 182.643 106C182.643 106.552 182.195 107 181.643 107H173.786C173.233 107 172.786 106.552 172.786 106ZM188.5 106C188.5 105.448 188.948 105 189.5 105H197.357C197.909 105 198.357 105.448 198.357 106C198.357 106.552 197.909 107 197.357 107H189.5C188.948 107 188.5 106.552 188.5 106ZM204.214 106C204.214 105.448 204.662 105 205.214 105H213.071C213.624 105 214.071 105.448 214.071 106C214.071 106.552 213.624 107 213.071 107H205.214C204.662 107 204.214 106.552 204.214 106ZM219.929 106C219.929 105.448 220.376 105 220.929 105H228.786C229.338 105 229.786 105.448 229.786 106C229.786 106.552 229.338 107 228.786 107H220.929C220.376 107 219.929 106.552 219.929 106ZM235.643 106C235.643 105.448 236.091 105 236.643 105H244.5C245.052 105 245.5 105.448 245.5 106C245.5 106.552 245.052 107 244.5 107H236.643C236.091 107 235.643 106.552 235.643 106ZM251.357 106C251.357 105.448 251.805 105 252.357 105H260.214C260.767 105 261.214 105.448 261.214 106C261.214 106.552 260.767 107 260.214 107H252.357C251.805 107 251.357 106.552 251.357 106Z" fill="#4D4D4D"/>
<g opacity="0.8">
<rect x="64" y="86" width="100" height="8" rx="4" fill="#767676" fill-opacity="0.5"/>
</g>
<path d="M0 0V-2H-2V0H0ZM325 0H327V-2H325V0ZM325 180V182H327V180H325ZM0 180H-2V182H0V180ZM0 2H325V-2H0V2ZM323 0V180H327V0H323ZM325 178H0V182H325V178ZM2 180V0H-2V180H2Z" fill="#767676"/>
</svg>
