<svg xmlns="http://www.w3.org/2000/svg" width="312" height="180" fill="none"><path fill="#4A4A4A" fill-rule="evenodd" d="M55 20a1 1 0 0 1 1-1h3.75a1 1 0 1 1 0 2H57v2.95a1 1 0 1 1-2 0V20Zm11.25 0a1 1 0 0 1 1-1h7.5a1 1 0 1 1 0 2h-7.5a1 1 0 0 1-1-1Zm15 0a1 1 0 0 1 1-1h7.5a1 1 0 1 1 0 2h-7.5a1 1 0 0 1-1-1Zm15 0a1 1 0 0 1 1-1h7.5a1 1 0 0 1 0 2h-7.5a1 1 0 0 1-1-1Zm15 0a1 1 0 0 1 1-1H116a1 1 0 0 1 1 1v3.95a1 1 0 0 1-2 0V21h-2.75a1 1 0 0 1-1-1ZM116 30.85a1 1 0 0 1 1 1v7.9a1 1 0 0 1-2 0v-7.9a1 1 0 0 1 1-1Zm-60 0a1 1 0 0 1 1 1v7.9a1 1 0 1 1-2 0v-7.9a1 1 0 0 1 1-1Zm60 15.8a1 1 0 0 1 1 1v7.9a1 1 0 0 1-2 0v-7.9a1 1 0 0 1 1-1Zm-60 0a1 1 0 0 1 1 1v7.9a1 1 0 1 1-2 0v-7.9a1 1 0 0 1 1-1Zm0 15.8a1 1 0 0 1 1 1v7.9a1 1 0 1 1-2 0v-7.9a1 1 0 0 1 1-1Zm60 0a1 1 0 0 1 1 1v7.9a1 1 0 0 1-2 0v-7.9a1 1 0 0 1 1-1Zm0 15.8a1 1 0 0 1 1 1v7.9a1 1 0 0 1-2 0v-7.9a1 1 0 0 1 1-1Zm-60 0a1 1 0 0 1 1 1v7.9a1 1 0 1 1-2 0v-7.9a1 1 0 0 1 1-1Zm0 15.8a1 1 0 0 1 1 1V98h2.75a1 1 0 1 1 0 2H56a1 1 0 0 1-1-1v-3.95a1 1 0 0 1 1-1Zm60 0a1 1 0 0 1 1 1V99a1 1 0 0 1-1 1h-3.75a1 1 0 0 1 0-2H115v-2.95a1 1 0 0 1 1-1ZM66.25 99a1 1 0 0 1 1-1h7.5a1 1 0 1 1 0 2h-7.5a1 1 0 0 1-1-1Zm15 0a1 1 0 0 1 1-1h7.5a1 1 0 1 1 0 2h-7.5a1 1 0 0 1-1-1Zm15 0a1 1 0 0 1 1-1h7.5a1 1 0 0 1 0 2h-7.5a1 1 0 0 1-1-1ZM195 20a1 1 0 0 1 1-1h3.75a1 1 0 0 1 0 2H197v2.95a1 1 0 0 1-2 0V20Zm11.25 0a1 1 0 0 1 1-1h7.5a1 1 0 0 1 0 2h-7.5a1 1 0 0 1-1-1Zm15 0a1 1 0 0 1 1-1h7.5a1 1 0 0 1 0 2h-7.5a1 1 0 0 1-1-1Zm15 0a1 1 0 0 1 1-1h7.5a1 1 0 0 1 0 2h-7.5a1 1 0 0 1-1-1Zm15 0a1 1 0 0 1 1-1H256a1 1 0 0 1 1 1v3.95a1 1 0 0 1-2 0V21h-2.75a1 1 0 0 1-1-1ZM256 30.85a1 1 0 0 1 1 1v7.9a1 1 0 0 1-2 0v-7.9a1 1 0 0 1 1-1Zm-60 0a1 1 0 0 1 1 1v7.9a1 1 0 0 1-2 0v-7.9a1 1 0 0 1 1-1Zm60 15.8a1 1 0 0 1 1 1v7.9a1 1 0 0 1-2 0v-7.9a1 1 0 0 1 1-1Zm-60 0a1 1 0 0 1 1 1v7.9a1 1 0 0 1-2 0v-7.9a1 1 0 0 1 1-1Zm0 15.8a1 1 0 0 1 1 1v7.9a1 1 0 0 1-2 0v-7.9a1 1 0 0 1 1-1Zm60 0a1 1 0 0 1 1 1v7.9a1 1 0 0 1-2 0v-7.9a1 1 0 0 1 1-1Zm0 15.8a1 1 0 0 1 1 1v7.9a1 1 0 0 1-2 0v-7.9a1 1 0 0 1 1-1Zm-60 0a1 1 0 0 1 1 1v7.9a1 1 0 0 1-2 0v-7.9a1 1 0 0 1 1-1Zm0 15.8a1 1 0 0 1 1 1V98h2.75a1 1 0 0 1 0 2H196a1 1 0 0 1-1-1v-3.95a1 1 0 0 1 1-1Zm60 0a1 1 0 0 1 1 1V99a1 1 0 0 1-1 1h-3.75a1 1 0 0 1 0-2H255v-2.95a1 1 0 0 1 1-1ZM206.25 99a1 1 0 0 1 1-1h7.5a1 1 0 0 1 0 2h-7.5a1 1 0 0 1-1-1Zm15 0a1 1 0 0 1 1-1h7.5a1 1 0 0 1 0 2h-7.5a1 1 0 0 1-1-1Zm15 0a1 1 0 0 1 1-1h7.5a1 1 0 0 1 0 2h-7.5a1 1 0 0 1-1-1ZM125 81a1 1 0 0 1 1-1h3.75a1 1 0 0 1 0 2H127v2.95a1 1 0 0 1-2 0V81Zm11.25 0a1 1 0 0 1 1-1h7.5a1 1 0 0 1 0 2h-7.5a1 1 0 0 1-1-1Zm15 0a1 1 0 0 1 1-1h7.5a1 1 0 0 1 0 2h-7.5a1 1 0 0 1-1-1Zm15 0a1 1 0 0 1 1-1h7.5a1 1 0 0 1 0 2h-7.5a1 1 0 0 1-1-1Zm15 0a1 1 0 0 1 1-1H186a1 1 0 0 1 1 1v3.95a1 1 0 0 1-2 0V82h-2.75a1 1 0 0 1-1-1ZM186 91.85a1 1 0 0 1 1 1v7.9a1 1 0 0 1-2 0v-7.9a1 1 0 0 1 1-1Zm-60 0a1 1 0 0 1 1 1v7.9a1 1 0 0 1-2 0v-7.9a1 1 0 0 1 1-1Zm60 15.8a1 1 0 0 1 1 1v7.9a1 1 0 0 1-2 0v-7.9a1 1 0 0 1 1-1Zm-60 0a1 1 0 0 1 1 1v7.9a1 1 0 0 1-2 0v-7.9a1 1 0 0 1 1-1Zm0 15.8a1 1 0 0 1 1 1v7.9a1 1 0 0 1-2 0v-7.9a1 1 0 0 1 1-1Zm60 0a1 1 0 0 1 1 1v7.9a1 1 0 0 1-2 0v-7.9a1 1 0 0 1 1-1Zm0 15.8a1 1 0 0 1 1 1v7.9a1 1 0 0 1-2 0v-7.9a1 1 0 0 1 1-1Zm-60 0a1 1 0 0 1 1 1v7.9a1 1 0 0 1-2 0v-7.9a1 1 0 0 1 1-1Zm0 15.8a1 1 0 0 1 1 1V159h2.75a1 1 0 0 1 0 2H126a1 1 0 0 1-1-1v-3.95a1 1 0 0 1 1-1Zm60 0a1 1 0 0 1 1 1V160a1 1 0 0 1-1 1h-3.75a1 1 0 0 1 0-2H185v-2.95a1 1 0 0 1 1-1ZM136.25 160a1 1 0 0 1 1-1h7.5a1 1 0 0 1 0 2h-7.5a1 1 0 0 1-1-1Zm15 0a1 1 0 0 1 1-1h7.5a1 1 0 0 1 0 2h-7.5a1 1 0 0 1-1-1Zm15 0a1 1 0 0 1 1-1h7.5a1 1 0 0 1 0 2h-7.5a1 1 0 0 1-1-1ZM55 109a1 1 0 0 1 1-1h3.75a1 1 0 0 1 0 2H57v3.25a1 1 0 0 1-2 0V109Zm11.25 0a1 1 0 0 1 1-1h7.5a1 1 0 0 1 0 2h-7.5a1 1 0 0 1-1-1Zm15 0a1 1 0 0 1 1-1h7.5a1 1 0 0 1 0 2h-7.5a1 1 0 0 1-1-1Zm15 0a1 1 0 0 1 1-1h7.5a1 1 0 0 1 0 2h-7.5a1 1 0 0 1-1-1Zm15 0a1 1 0 0 1 1-1H116a1 1 0 0 1 1 1v4.25a1 1 0 0 1-2 0V110h-2.75a1 1 0 0 1-1-1ZM56 120.75a1 1 0 0 1 1 1v8.5a1 1 0 0 1-2 0v-8.5a1 1 0 0 1 1-1Zm60 0a1 1 0 0 1 1 1v8.5a1 1 0 0 1-2 0v-8.5a1 1 0 0 1 1-1Zm-60 17a1 1 0 0 1 1 1v8.5a1 1 0 0 1-2 0v-8.5a1 1 0 0 1 1-1Zm60 0a1 1 0 0 1 1 1v8.5a1 1 0 0 1-2 0v-8.5a1 1 0 0 1 1-1Zm-60 17a1 1 0 0 1 1 1V159h2.75a1 1 0 0 1 0 2H56a1 1 0 0 1-1-1v-4.25a1 1 0 0 1 1-1Zm60 0a1 1 0 0 1 1 1V160a1 1 0 0 1-1 1h-3.75a1 1 0 0 1 0-2H115v-3.25a1 1 0 0 1 1-1ZM66.25 160a1 1 0 0 1 1-1h7.5a1 1 0 0 1 0 2h-7.5a1 1 0 0 1-1-1Zm15 0a1 1 0 0 1 1-1h7.5a1 1 0 0 1 0 2h-7.5a1 1 0 0 1-1-1Zm15 0a1 1 0 0 1 1-1h7.5a1 1 0 0 1 0 2h-7.5a1 1 0 0 1-1-1ZM195 109a1 1 0 0 1 1-1h3.75a1 1 0 0 1 0 2H197v3.25a1 1 0 0 1-2 0V109Zm11.25 0a1 1 0 0 1 1-1h7.5a1 1 0 0 1 0 2h-7.5a1 1 0 0 1-1-1Zm15 0a1 1 0 0 1 1-1h7.5a1 1 0 0 1 0 2h-7.5a1 1 0 0 1-1-1Zm15 0a1 1 0 0 1 1-1h7.5a1 1 0 0 1 0 2h-7.5a1 1 0 0 1-1-1Zm15 0a1 1 0 0 1 1-1H256a1 1 0 0 1 1 1v4.25a1 1 0 0 1-2 0V110h-2.75a1 1 0 0 1-1-1ZM196 120.75a1 1 0 0 1 1 1v8.5a1 1 0 0 1-2 0v-8.5a1 1 0 0 1 1-1Zm60 0a1 1 0 0 1 1 1v8.5a1 1 0 0 1-2 0v-8.5a1 1 0 0 1 1-1Zm-60 17a1 1 0 0 1 1 1v8.5a1 1 0 0 1-2 0v-8.5a1 1 0 0 1 1-1Zm60 0a1 1 0 0 1 1 1v8.5a1 1 0 0 1-2 0v-8.5a1 1 0 0 1 1-1Zm-60 17a1 1 0 0 1 1 1V159h2.75a1 1 0 0 1 0 2H196a1 1 0 0 1-1-1v-4.25a1 1 0 0 1 1-1Zm60 0a1 1 0 0 1 1 1V160a1 1 0 0 1-1 1h-3.75a1 1 0 0 1 0-2H255v-3.25a1 1 0 0 1 1-1ZM206.25 160a1 1 0 0 1 1-1h7.5a1 1 0 0 1 0 2h-7.5a1 1 0 0 1-1-1Zm15 0a1 1 0 0 1 1-1h7.5a1 1 0 0 1 0 2h-7.5a1 1 0 0 1-1-1Zm15 0a1 1 0 0 1 1-1h7.5a1 1 0 0 1 0 2h-7.5a1 1 0 0 1-1-1ZM125 20a1 1 0 0 1 1-1h3.75a1 1 0 0 1 0 2H127v3.25a1 1 0 0 1-2 0V20Zm11.25 0a1 1 0 0 1 1-1h7.5a1 1 0 0 1 0 2h-7.5a1 1 0 0 1-1-1Zm15 0a1 1 0 0 1 1-1h7.5a1 1 0 0 1 0 2h-7.5a1 1 0 0 1-1-1Zm15 0a1 1 0 0 1 1-1h7.5a1 1 0 0 1 0 2h-7.5a1 1 0 0 1-1-1Zm15 0a1 1 0 0 1 1-1H186a1 1 0 0 1 1 1v4.25a1 1 0 0 1-2 0V21h-2.75a1 1 0 0 1-1-1ZM126 31.75a1 1 0 0 1 1 1v8.5a1 1 0 0 1-2 0v-8.5a1 1 0 0 1 1-1Zm60 0a1 1 0 0 1 1 1v8.5a1 1 0 0 1-2 0v-8.5a1 1 0 0 1 1-1Zm-60 17a1 1 0 0 1 1 1v8.5a1 1 0 0 1-2 0v-8.5a1 1 0 0 1 1-1Zm60 0a1 1 0 0 1 1 1v8.5a1 1 0 0 1-2 0v-8.5a1 1 0 0 1 1-1Zm-60 17a1 1 0 0 1 1 1V70h2.75a1 1 0 0 1 0 2H126a1 1 0 0 1-1-1v-4.25a1 1 0 0 1 1-1Zm60 0a1 1 0 0 1 1 1V71a1 1 0 0 1-1 1h-3.75a1 1 0 0 1 0-2H185v-3.25a1 1 0 0 1 1-1ZM136.25 71a1 1 0 0 1 1-1h7.5a1 1 0 0 1 0 2h-7.5a1 1 0 0 1-1-1Zm15 0a1 1 0 0 1 1-1h7.5a1 1 0 0 1 0 2h-7.5a1 1 0 0 1-1-1Zm15 0a1 1 0 0 1 1-1h7.5a1 1 0 0 1 0 2h-7.5a1 1 0 0 1-1-1Z" clip-rule="evenodd"/></svg>