<svg width="325" height="180" viewBox="0 0 325 180" fill="none" xmlns="http://www.w3.org/2000/svg">
<rect width="325" height="180" fill="#F4F4F4"/>
<path fill-rule="evenodd" clip-rule="evenodd" d="M61 20C61 19.4477 61.4477 19 62 19H65.75C66.3023 19 66.75 19.4477 66.75 20C66.75 20.5523 66.3023 21 65.75 21H63V23.95C63 24.5023 62.5523 24.95 62 24.95C61.4477 24.95 61 24.5023 61 23.95V20ZM72.25 20C72.25 19.4477 72.6977 19 73.25 19H80.75C81.3023 19 81.75 19.4477 81.75 20C81.75 20.5523 81.3023 21 80.75 21H73.25C72.6977 21 72.25 20.5523 72.25 20ZM87.25 20C87.25 19.4477 87.6977 19 88.25 19H95.75C96.3023 19 96.75 19.4477 96.75 20C96.75 20.5523 96.3023 21 95.75 21H88.25C87.6977 21 87.25 20.5523 87.25 20ZM102.25 20C102.25 19.4477 102.698 19 103.25 19H110.75C111.302 19 111.75 19.4477 111.75 20C111.75 20.5523 111.302 21 110.75 21H103.25C102.698 21 102.25 20.5523 102.25 20ZM117.25 20C117.25 19.4477 117.698 19 118.25 19H122C122.552 19 123 19.4477 123 20V23.95C123 24.5023 122.552 24.95 122 24.95C121.448 24.95 121 24.5023 121 23.95V21H118.25C117.698 21 117.25 20.5523 117.25 20ZM122 30.85C122.552 30.85 123 31.2977 123 31.85V39.75C123 40.3023 122.552 40.75 122 40.75C121.448 40.75 121 40.3023 121 39.75V31.85C121 31.2977 121.448 30.85 122 30.85ZM62 30.85C62.5523 30.85 63 31.2977 63 31.85V39.75C63 40.3023 62.5523 40.75 62 40.75C61.4477 40.75 61 40.3023 61 39.75V31.85C61 31.2977 61.4477 30.85 62 30.85ZM122 46.65C122.552 46.65 123 47.0977 123 47.65V55.55C123 56.1023 122.552 56.55 122 56.55C121.448 56.55 121 56.1023 121 55.55V47.65C121 47.0977 121.448 46.65 122 46.65ZM62 46.65C62.5523 46.65 63 47.0977 63 47.65V55.55C63 56.1023 62.5523 56.55 62 56.55C61.4477 56.55 61 56.1023 61 55.55V47.65C61 47.0977 61.4477 46.65 62 46.65ZM62 62.45C62.5523 62.45 63 62.8977 63 63.45V71.35C63 71.9023 62.5523 72.35 62 72.35C61.4477 72.35 61 71.9023 61 71.35V63.45C61 62.8977 61.4477 62.45 62 62.45ZM122 62.45C122.552 62.45 123 62.8977 123 63.45V71.35C123 71.9023 122.552 72.35 122 72.35C121.448 72.35 121 71.9023 121 71.35V63.45C121 62.8977 121.448 62.45 122 62.45ZM122 78.25C122.552 78.25 123 78.6977 123 79.25V87.15C123 87.7023 122.552 88.15 122 88.15C121.448 88.15 121 87.7023 121 87.15V79.25C121 78.6977 121.448 78.25 122 78.25ZM62 78.25C62.5523 78.25 63 78.6977 63 79.25V87.15C63 87.7023 62.5523 88.15 62 88.15C61.4477 88.15 61 87.7023 61 87.15V79.25C61 78.6977 61.4477 78.25 62 78.25ZM62 94.05C62.5523 94.05 63 94.4977 63 95.05V98H65.75C66.3023 98 66.75 98.4477 66.75 99C66.75 99.5523 66.3023 100 65.75 100H62C61.4477 100 61 99.5523 61 99V95.05C61 94.4977 61.4477 94.05 62 94.05ZM122 94.05C122.552 94.05 123 94.4977 123 95.05V99C123 99.5523 122.552 100 122 100H118.25C117.698 100 117.25 99.5523 117.25 99C117.25 98.4477 117.698 98 118.25 98H121V95.05C121 94.4977 121.448 94.05 122 94.05ZM72.25 99C72.25 98.4477 72.6977 98 73.25 98H80.75C81.3023 98 81.75 98.4477 81.75 99C81.75 99.5523 81.3023 100 80.75 100H73.25C72.6977 100 72.25 99.5523 72.25 99ZM87.25 99C87.25 98.4477 87.6977 98 88.25 98H95.75C96.3023 98 96.75 98.4477 96.75 99C96.75 99.5523 96.3023 100 95.75 100H88.25C87.6977 100 87.25 99.5523 87.25 99ZM102.25 99C102.25 98.4477 102.698 98 103.25 98H110.75C111.302 98 111.75 98.4477 111.75 99C111.75 99.5523 111.302 100 110.75 100H103.25C102.698 100 102.25 99.5523 102.25 99Z" fill="#4D4D4D"/>
<path fill-rule="evenodd" clip-rule="evenodd" d="M201 20C201 19.4477 201.448 19 202 19H205.75C206.302 19 206.75 19.4477 206.75 20C206.75 20.5523 206.302 21 205.75 21H203V23.95C203 24.5023 202.552 24.95 202 24.95C201.448 24.95 201 24.5023 201 23.95V20ZM212.25 20C212.25 19.4477 212.698 19 213.25 19H220.75C221.302 19 221.75 19.4477 221.75 20C221.75 20.5523 221.302 21 220.75 21H213.25C212.698 21 212.25 20.5523 212.25 20ZM227.25 20C227.25 19.4477 227.698 19 228.25 19H235.75C236.302 19 236.75 19.4477 236.75 20C236.75 20.5523 236.302 21 235.75 21H228.25C227.698 21 227.25 20.5523 227.25 20ZM242.25 20C242.25 19.4477 242.698 19 243.25 19H250.75C251.302 19 251.75 19.4477 251.75 20C251.75 20.5523 251.302 21 250.75 21H243.25C242.698 21 242.25 20.5523 242.25 20ZM257.25 20C257.25 19.4477 257.698 19 258.25 19H262C262.552 19 263 19.4477 263 20V23.95C263 24.5023 262.552 24.95 262 24.95C261.448 24.95 261 24.5023 261 23.95V21H258.25C257.698 21 257.25 20.5523 257.25 20ZM262 30.85C262.552 30.85 263 31.2977 263 31.85V39.75C263 40.3023 262.552 40.75 262 40.75C261.448 40.75 261 40.3023 261 39.75V31.85C261 31.2977 261.448 30.85 262 30.85ZM202 30.85C202.552 30.85 203 31.2977 203 31.85V39.75C203 40.3023 202.552 40.75 202 40.75C201.448 40.75 201 40.3023 201 39.75V31.85C201 31.2977 201.448 30.85 202 30.85ZM262 46.65C262.552 46.65 263 47.0977 263 47.65V55.55C263 56.1023 262.552 56.55 262 56.55C261.448 56.55 261 56.1023 261 55.55V47.65C261 47.0977 261.448 46.65 262 46.65ZM202 46.65C202.552 46.65 203 47.0977 203 47.65V55.55C203 56.1023 202.552 56.55 202 56.55C201.448 56.55 201 56.1023 201 55.55V47.65C201 47.0977 201.448 46.65 202 46.65ZM202 62.45C202.552 62.45 203 62.8977 203 63.45V71.35C203 71.9023 202.552 72.35 202 72.35C201.448 72.35 201 71.9023 201 71.35V63.45C201 62.8977 201.448 62.45 202 62.45ZM262 62.45C262.552 62.45 263 62.8977 263 63.45V71.35C263 71.9023 262.552 72.35 262 72.35C261.448 72.35 261 71.9023 261 71.35V63.45C261 62.8977 261.448 62.45 262 62.45ZM262 78.25C262.552 78.25 263 78.6977 263 79.25V87.15C263 87.7023 262.552 88.15 262 88.15C261.448 88.15 261 87.7023 261 87.15V79.25C261 78.6977 261.448 78.25 262 78.25ZM202 78.25C202.552 78.25 203 78.6977 203 79.25V87.15C203 87.7023 202.552 88.15 202 88.15C201.448 88.15 201 87.7023 201 87.15V79.25C201 78.6977 201.448 78.25 202 78.25ZM202 94.05C202.552 94.05 203 94.4977 203 95.05V98H205.75C206.302 98 206.75 98.4477 206.75 99C206.75 99.5523 206.302 100 205.75 100H202C201.448 100 201 99.5523 201 99V95.05C201 94.4977 201.448 94.05 202 94.05ZM262 94.05C262.552 94.05 263 94.4977 263 95.05V99C263 99.5523 262.552 100 262 100H258.25C257.698 100 257.25 99.5523 257.25 99C257.25 98.4477 257.698 98 258.25 98H261V95.05C261 94.4977 261.448 94.05 262 94.05ZM212.25 99C212.25 98.4477 212.698 98 213.25 98H220.75C221.302 98 221.75 98.4477 221.75 99C221.75 99.5523 221.302 100 220.75 100H213.25C212.698 100 212.25 99.5523 212.25 99ZM227.25 99C227.25 98.4477 227.698 98 228.25 98H235.75C236.302 98 236.75 98.4477 236.75 99C236.75 99.5523 236.302 100 235.75 100H228.25C227.698 100 227.25 99.5523 227.25 99ZM242.25 99C242.25 98.4477 242.698 98 243.25 98H250.75C251.302 98 251.75 98.4477 251.75 99C251.75 99.5523 251.302 100 250.75 100H243.25C242.698 100 242.25 99.5523 242.25 99Z" fill="#4D4D4D"/>
<path fill-rule="evenodd" clip-rule="evenodd" d="M131 81C131 80.4477 131.448 80 132 80H135.75C136.302 80 136.75 80.4477 136.75 81C136.75 81.5523 136.302 82 135.75 82H133V84.95C133 85.5023 132.552 85.95 132 85.95C131.448 85.95 131 85.5023 131 84.95V81ZM142.25 81C142.25 80.4477 142.698 80 143.25 80H150.75C151.302 80 151.75 80.4477 151.75 81C151.75 81.5523 151.302 82 150.75 82H143.25C142.698 82 142.25 81.5523 142.25 81ZM157.25 81C157.25 80.4477 157.698 80 158.25 80H165.75C166.302 80 166.75 80.4477 166.75 81C166.75 81.5523 166.302 82 165.75 82H158.25C157.698 82 157.25 81.5523 157.25 81ZM172.25 81C172.25 80.4477 172.698 80 173.25 80H180.75C181.302 80 181.75 80.4477 181.75 81C181.75 81.5523 181.302 82 180.75 82H173.25C172.698 82 172.25 81.5523 172.25 81ZM187.25 81C187.25 80.4477 187.698 80 188.25 80H192C192.552 80 193 80.4477 193 81V84.95C193 85.5023 192.552 85.95 192 85.95C191.448 85.95 191 85.5023 191 84.95V82H188.25C187.698 82 187.25 81.5523 187.25 81ZM192 91.85C192.552 91.85 193 92.2977 193 92.85V100.75C193 101.302 192.552 101.75 192 101.75C191.448 101.75 191 101.302 191 100.75V92.85C191 92.2977 191.448 91.85 192 91.85ZM132 91.85C132.552 91.85 133 92.2977 133 92.85V100.75C133 101.302 132.552 101.75 132 101.75C131.448 101.75 131 101.302 131 100.75V92.85C131 92.2977 131.448 91.85 132 91.85ZM192 107.65C192.552 107.65 193 108.098 193 108.65V116.55C193 117.102 192.552 117.55 192 117.55C191.448 117.55 191 117.102 191 116.55V108.65C191 108.098 191.448 107.65 192 107.65ZM132 107.65C132.552 107.65 133 108.098 133 108.65V116.55C133 117.102 132.552 117.55 132 117.55C131.448 117.55 131 117.102 131 116.55V108.65C131 108.098 131.448 107.65 132 107.65ZM132 123.45C132.552 123.45 133 123.898 133 124.45V132.35C133 132.902 132.552 133.35 132 133.35C131.448 133.35 131 132.902 131 132.35V124.45C131 123.898 131.448 123.45 132 123.45ZM192 123.45C192.552 123.45 193 123.898 193 124.45V132.35C193 132.902 192.552 133.35 192 133.35C191.448 133.35 191 132.902 191 132.35V124.45C191 123.898 191.448 123.45 192 123.45ZM192 139.25C192.552 139.25 193 139.698 193 140.25V148.15C193 148.702 192.552 149.15 192 149.15C191.448 149.15 191 148.702 191 148.15V140.25C191 139.698 191.448 139.25 192 139.25ZM132 139.25C132.552 139.25 133 139.698 133 140.25V148.15C133 148.702 132.552 149.15 132 149.15C131.448 149.15 131 148.702 131 148.15V140.25C131 139.698 131.448 139.25 132 139.25ZM132 155.05C132.552 155.05 133 155.498 133 156.05V159H135.75C136.302 159 136.75 159.448 136.75 160C136.75 160.552 136.302 161 135.75 161H132C131.448 161 131 160.552 131 160V156.05C131 155.498 131.448 155.05 132 155.05ZM192 155.05C192.552 155.05 193 155.498 193 156.05V160C193 160.552 192.552 161 192 161H188.25C187.698 161 187.25 160.552 187.25 160C187.25 159.448 187.698 159 188.25 159H191V156.05C191 155.498 191.448 155.05 192 155.05ZM142.25 160C142.25 159.448 142.698 159 143.25 159H150.75C151.302 159 151.75 159.448 151.75 160C151.75 160.552 151.302 161 150.75 161H143.25C142.698 161 142.25 160.552 142.25 160ZM157.25 160C157.25 159.448 157.698 159 158.25 159H165.75C166.302 159 166.75 159.448 166.75 160C166.75 160.552 166.302 161 165.75 161H158.25C157.698 161 157.25 160.552 157.25 160ZM172.25 160C172.25 159.448 172.698 159 173.25 159H180.75C181.302 159 181.75 159.448 181.75 160C181.75 160.552 181.302 161 180.75 161H173.25C172.698 161 172.25 160.552 172.25 160Z" fill="#4D4D4D"/>
<path fill-rule="evenodd" clip-rule="evenodd" d="M61 109C61 108.448 61.4477 108 62 108H65.75C66.3023 108 66.75 108.448 66.75 109C66.75 109.552 66.3023 110 65.75 110H63V113.25C63 113.802 62.5523 114.25 62 114.25C61.4477 114.25 61 113.802 61 113.25V109ZM72.25 109C72.25 108.448 72.6977 108 73.25 108H80.75C81.3023 108 81.75 108.448 81.75 109C81.75 109.552 81.3023 110 80.75 110H73.25C72.6977 110 72.25 109.552 72.25 109ZM87.25 109C87.25 108.448 87.6977 108 88.25 108H95.75C96.3023 108 96.75 108.448 96.75 109C96.75 109.552 96.3023 110 95.75 110H88.25C87.6977 110 87.25 109.552 87.25 109ZM102.25 109C102.25 108.448 102.698 108 103.25 108H110.75C111.302 108 111.75 108.448 111.75 109C111.75 109.552 111.302 110 110.75 110H103.25C102.698 110 102.25 109.552 102.25 109ZM117.25 109C117.25 108.448 117.698 108 118.25 108H122C122.552 108 123 108.448 123 109V113.25C123 113.802 122.552 114.25 122 114.25C121.448 114.25 121 113.802 121 113.25V110H118.25C117.698 110 117.25 109.552 117.25 109ZM62 120.75C62.5523 120.75 63 121.198 63 121.75V130.25C63 130.802 62.5523 131.25 62 131.25C61.4477 131.25 61 130.802 61 130.25V121.75C61 121.198 61.4477 120.75 62 120.75ZM122 120.75C122.552 120.75 123 121.198 123 121.75V130.25C123 130.802 122.552 131.25 122 131.25C121.448 131.25 121 130.802 121 130.25V121.75C121 121.198 121.448 120.75 122 120.75ZM62 137.75C62.5523 137.75 63 138.198 63 138.75V147.25C63 147.802 62.5523 148.25 62 148.25C61.4477 148.25 61 147.802 61 147.25V138.75C61 138.198 61.4477 137.75 62 137.75ZM122 137.75C122.552 137.75 123 138.198 123 138.75V147.25C123 147.802 122.552 148.25 122 148.25C121.448 148.25 121 147.802 121 147.25V138.75C121 138.198 121.448 137.75 122 137.75ZM62 154.75C62.5523 154.75 63 155.198 63 155.75V159H65.75C66.3023 159 66.75 159.448 66.75 160C66.75 160.552 66.3023 161 65.75 161H62C61.4477 161 61 160.552 61 160V155.75C61 155.198 61.4477 154.75 62 154.75ZM122 154.75C122.552 154.75 123 155.198 123 155.75V160C123 160.552 122.552 161 122 161H118.25C117.698 161 117.25 160.552 117.25 160C117.25 159.448 117.698 159 118.25 159H121V155.75C121 155.198 121.448 154.75 122 154.75ZM72.25 160C72.25 159.448 72.6977 159 73.25 159H80.75C81.3023 159 81.75 159.448 81.75 160C81.75 160.552 81.3023 161 80.75 161H73.25C72.6977 161 72.25 160.552 72.25 160ZM87.25 160C87.25 159.448 87.6977 159 88.25 159H95.75C96.3023 159 96.75 159.448 96.75 160C96.75 160.552 96.3023 161 95.75 161H88.25C87.6977 161 87.25 160.552 87.25 160ZM102.25 160C102.25 159.448 102.698 159 103.25 159H110.75C111.302 159 111.75 159.448 111.75 160C111.75 160.552 111.302 161 110.75 161H103.25C102.698 161 102.25 160.552 102.25 160Z" fill="#4D4D4D"/>
<path fill-rule="evenodd" clip-rule="evenodd" d="M201 109C201 108.448 201.448 108 202 108H205.75C206.302 108 206.75 108.448 206.75 109C206.75 109.552 206.302 110 205.75 110H203V113.25C203 113.802 202.552 114.25 202 114.25C201.448 114.25 201 113.802 201 113.25V109ZM212.25 109C212.25 108.448 212.698 108 213.25 108H220.75C221.302 108 221.75 108.448 221.75 109C221.75 109.552 221.302 110 220.75 110H213.25C212.698 110 212.25 109.552 212.25 109ZM227.25 109C227.25 108.448 227.698 108 228.25 108H235.75C236.302 108 236.75 108.448 236.75 109C236.75 109.552 236.302 110 235.75 110H228.25C227.698 110 227.25 109.552 227.25 109ZM242.25 109C242.25 108.448 242.698 108 243.25 108H250.75C251.302 108 251.75 108.448 251.75 109C251.75 109.552 251.302 110 250.75 110H243.25C242.698 110 242.25 109.552 242.25 109ZM257.25 109C257.25 108.448 257.698 108 258.25 108H262C262.552 108 263 108.448 263 109V113.25C263 113.802 262.552 114.25 262 114.25C261.448 114.25 261 113.802 261 113.25V110H258.25C257.698 110 257.25 109.552 257.25 109ZM202 120.75C202.552 120.75 203 121.198 203 121.75V130.25C203 130.802 202.552 131.25 202 131.25C201.448 131.25 201 130.802 201 130.25V121.75C201 121.198 201.448 120.75 202 120.75ZM262 120.75C262.552 120.75 263 121.198 263 121.75V130.25C263 130.802 262.552 131.25 262 131.25C261.448 131.25 261 130.802 261 130.25V121.75C261 121.198 261.448 120.75 262 120.75ZM202 137.75C202.552 137.75 203 138.198 203 138.75V147.25C203 147.802 202.552 148.25 202 148.25C201.448 148.25 201 147.802 201 147.25V138.75C201 138.198 201.448 137.75 202 137.75ZM262 137.75C262.552 137.75 263 138.198 263 138.75V147.25C263 147.802 262.552 148.25 262 148.25C261.448 148.25 261 147.802 261 147.25V138.75C261 138.198 261.448 137.75 262 137.75ZM202 154.75C202.552 154.75 203 155.198 203 155.75V159H205.75C206.302 159 206.75 159.448 206.75 160C206.75 160.552 206.302 161 205.75 161H202C201.448 161 201 160.552 201 160V155.75C201 155.198 201.448 154.75 202 154.75ZM262 154.75C262.552 154.75 263 155.198 263 155.75V160C263 160.552 262.552 161 262 161H258.25C257.698 161 257.25 160.552 257.25 160C257.25 159.448 257.698 159 258.25 159H261V155.75C261 155.198 261.448 154.75 262 154.75ZM212.25 160C212.25 159.448 212.698 159 213.25 159H220.75C221.302 159 221.75 159.448 221.75 160C221.75 160.552 221.302 161 220.75 161H213.25C212.698 161 212.25 160.552 212.25 160ZM227.25 160C227.25 159.448 227.698 159 228.25 159H235.75C236.302 159 236.75 159.448 236.75 160C236.75 160.552 236.302 161 235.75 161H228.25C227.698 161 227.25 160.552 227.25 160ZM242.25 160C242.25 159.448 242.698 159 243.25 159H250.75C251.302 159 251.75 159.448 251.75 160C251.75 160.552 251.302 161 250.75 161H243.25C242.698 161 242.25 160.552 242.25 160Z" fill="#4D4D4D"/>
<path fill-rule="evenodd" clip-rule="evenodd" d="M131 20C131 19.4477 131.448 19 132 19H135.75C136.302 19 136.75 19.4477 136.75 20C136.75 20.5523 136.302 21 135.75 21H133V24.25C133 24.8023 132.552 25.25 132 25.25C131.448 25.25 131 24.8023 131 24.25V20ZM142.25 20C142.25 19.4477 142.698 19 143.25 19H150.75C151.302 19 151.75 19.4477 151.75 20C151.75 20.5523 151.302 21 150.75 21H143.25C142.698 21 142.25 20.5523 142.25 20ZM157.25 20C157.25 19.4477 157.698 19 158.25 19H165.75C166.302 19 166.75 19.4477 166.75 20C166.75 20.5523 166.302 21 165.75 21H158.25C157.698 21 157.25 20.5523 157.25 20ZM172.25 20C172.25 19.4477 172.698 19 173.25 19H180.75C181.302 19 181.75 19.4477 181.75 20C181.75 20.5523 181.302 21 180.75 21H173.25C172.698 21 172.25 20.5523 172.25 20ZM187.25 20C187.25 19.4477 187.698 19 188.25 19H192C192.552 19 193 19.4477 193 20V24.25C193 24.8023 192.552 25.25 192 25.25C191.448 25.25 191 24.8023 191 24.25V21H188.25C187.698 21 187.25 20.5523 187.25 20ZM132 31.75C132.552 31.75 133 32.1977 133 32.75V41.25C133 41.8023 132.552 42.25 132 42.25C131.448 42.25 131 41.8023 131 41.25V32.75C131 32.1977 131.448 31.75 132 31.75ZM192 31.75C192.552 31.75 193 32.1977 193 32.75V41.25C193 41.8023 192.552 42.25 192 42.25C191.448 42.25 191 41.8023 191 41.25V32.75C191 32.1977 191.448 31.75 192 31.75ZM132 48.75C132.552 48.75 133 49.1977 133 49.75V58.25C133 58.8023 132.552 59.25 132 59.25C131.448 59.25 131 58.8023 131 58.25V49.75C131 49.1977 131.448 48.75 132 48.75ZM192 48.75C192.552 48.75 193 49.1977 193 49.75V58.25C193 58.8023 192.552 59.25 192 59.25C191.448 59.25 191 58.8023 191 58.25V49.75C191 49.1977 191.448 48.75 192 48.75ZM132 65.75C132.552 65.75 133 66.1977 133 66.75V70H135.75C136.302 70 136.75 70.4477 136.75 71C136.75 71.5523 136.302 72 135.75 72H132C131.448 72 131 71.5523 131 71V66.75C131 66.1977 131.448 65.75 132 65.75ZM192 65.75C192.552 65.75 193 66.1977 193 66.75V71C193 71.5523 192.552 72 192 72H188.25C187.698 72 187.25 71.5523 187.25 71C187.25 70.4477 187.698 70 188.25 70H191V66.75C191 66.1977 191.448 65.75 192 65.75ZM142.25 71C142.25 70.4477 142.698 70 143.25 70H150.75C151.302 70 151.75 70.4477 151.75 71C151.75 71.5523 151.302 72 150.75 72H143.25C142.698 72 142.25 71.5523 142.25 71ZM157.25 71C157.25 70.4477 157.698 70 158.25 70H165.75C166.302 70 166.75 70.4477 166.75 71C166.75 71.5523 166.302 72 165.75 72H158.25C157.698 72 157.25 71.5523 157.25 71ZM172.25 71C172.25 70.4477 172.698 70 173.25 70H180.75C181.302 70 181.75 70.4477 181.75 71C181.75 71.5523 181.302 72 180.75 72H173.25C172.698 72 172.25 71.5523 172.25 71Z" fill="#4D4D4D"/>
<path d="M0 0V-2H-2V0H0ZM325 0H327V-2H325V0ZM325 180V182H327V180H325ZM0 180H-2V182H0V180ZM0 2H325V-2H0V2ZM323 0V180H327V0H323ZM325 178H0V182H325V178ZM2 180V0H-2V180H2Z" fill="#767676"/>
</svg>
