<svg width="325" height="180" viewBox="0 0 325 180" fill="none" xmlns="http://www.w3.org/2000/svg">
<rect width="325" height="180" fill="#4D4D4D"/>
<path d="M52 46C52 37.1634 59.1634 30 68 30H256C264.837 30 272 37.1634 272 46V134C272 142.837 264.837 150 256 150H68C59.1634 150 52 142.837 52 134V46Z" fill="white"/>
<path fill-rule="evenodd" clip-rule="evenodd" d="M256 32H68C60.268 32 54 38.268 54 46V134C54 141.732 60.268 148 68 148H256C263.732 148 270 141.732 270 134V46C270 38.268 263.732 32 256 32ZM68 30C59.1634 30 52 37.1634 52 46V134C52 142.837 59.1634 150 68 150H256C264.837 150 272 142.837 272 134V46C272 37.1634 264.837 30 256 30H68Z" fill="#767676"/>
<path d="M212.5 128C212.5 121.373 217.873 116 224.5 116H244C250.627 116 256 121.373 256 128C256 134.627 250.627 140 244 140H224.5C217.873 140 212.5 134.627 212.5 128Z" fill="#4D4D4D"/>
<path d="M223.531 130.637C224.734 130.637 225.48 130.016 225.48 129.023C225.48 128.297 224.938 127.738 224.191 127.68V127.609C224.77 127.523 225.211 127.004 225.211 126.406C225.211 125.535 224.559 125 223.465 125H221V130.637H223.531ZM222.18 125.875H223.164C223.727 125.875 224.051 126.148 224.051 126.609C224.051 127.078 223.703 127.344 223.066 127.344H222.18V125.875ZM222.18 129.758V128.121H223.203C223.898 128.121 224.277 128.402 224.277 128.93C224.277 129.469 223.91 129.758 223.23 129.758H222.18Z" fill="white"/>
<path d="M230.332 126.336H229.195V128.82C229.195 129.41 228.891 129.773 228.324 129.773C227.801 129.773 227.531 129.465 227.531 128.855V126.336H226.395V129.137C226.395 130.137 226.973 130.727 227.902 130.727C228.555 130.727 228.957 130.445 229.16 129.945H229.23V130.637H230.332V126.336Z" fill="white"/>
<path d="M231.797 125.309V126.375H231.125V127.238H231.797V129.477C231.797 130.312 232.211 130.652 233.258 130.652C233.477 130.652 233.688 130.629 233.828 130.602V129.762C233.719 129.773 233.641 129.781 233.492 129.781C233.105 129.781 232.934 129.602 232.934 129.215V127.238H233.828V126.375H232.934V125.309H231.797Z" fill="white"/>
<path d="M235.141 125.309V126.375H234.469V127.238H235.141V129.477C235.141 130.312 235.555 130.652 236.602 130.652C236.82 130.652 237.031 130.629 237.172 130.602V129.762C237.062 129.773 236.984 129.781 236.836 129.781C236.449 129.781 236.277 129.602 236.277 129.215V127.238H237.172V126.375H236.277V125.309H235.141Z" fill="white"/>
<path d="M240 130.727C241.324 130.727 242.121 129.891 242.121 128.484C242.121 127.09 241.312 126.242 240 126.242C238.688 126.242 237.879 127.094 237.879 128.484C237.879 129.887 238.676 130.727 240 130.727ZM240 129.828C239.391 129.828 239.047 129.336 239.047 128.484C239.047 127.641 239.395 127.145 240 127.145C240.602 127.145 240.953 127.641 240.953 128.484C240.953 129.336 240.605 129.828 240 129.828Z" fill="white"/>
<path d="M243.051 130.637H244.188V128.148C244.188 127.566 244.512 127.191 245.039 127.191C245.578 127.191 245.832 127.508 245.832 128.113V130.637H246.969V127.855C246.969 126.828 246.453 126.242 245.496 126.242C244.859 126.242 244.422 126.543 244.223 127.027H244.152V126.336H243.051V130.637Z" fill="white"/>
<path d="M165 128C165 121.373 170.373 116 177 116H196.5C203.127 116 208.5 121.373 208.5 128C208.5 134.627 203.127 140 196.5 140H177C170.373 140 165 134.627 165 128Z" fill="#767676"/>
<path d="M176.031 130.637C177.234 130.637 177.98 130.016 177.98 129.023C177.98 128.297 177.438 127.738 176.691 127.68V127.609C177.27 127.523 177.711 127.004 177.711 126.406C177.711 125.535 177.059 125 175.965 125H173.5V130.637H176.031ZM174.68 125.875H175.664C176.227 125.875 176.551 126.148 176.551 126.609C176.551 127.078 176.203 127.344 175.566 127.344H174.68V125.875ZM174.68 129.758V128.121H175.703C176.398 128.121 176.777 128.402 176.777 128.93C176.777 129.469 176.41 129.758 175.73 129.758H174.68Z" fill="white"/>
<path d="M182.832 126.336H181.695V128.82C181.695 129.41 181.391 129.773 180.824 129.773C180.301 129.773 180.031 129.465 180.031 128.855V126.336H178.895V129.137C178.895 130.137 179.473 130.727 180.402 130.727C181.055 130.727 181.457 130.445 181.66 129.945H181.73V130.637H182.832V126.336Z" fill="white"/>
<path d="M184.297 125.309V126.375H183.625V127.238H184.297V129.477C184.297 130.312 184.711 130.652 185.758 130.652C185.977 130.652 186.188 130.629 186.328 130.602V129.762C186.219 129.773 186.141 129.781 185.992 129.781C185.605 129.781 185.434 129.602 185.434 129.215V127.238H186.328V126.375H185.434V125.309H184.297Z" fill="white"/>
<path d="M187.641 125.309V126.375H186.969V127.238H187.641V129.477C187.641 130.312 188.055 130.652 189.102 130.652C189.32 130.652 189.531 130.629 189.672 130.602V129.762C189.562 129.773 189.484 129.781 189.336 129.781C188.949 129.781 188.777 129.602 188.777 129.215V127.238H189.672V126.375H188.777V125.309H187.641Z" fill="white"/>
<path d="M192.5 130.727C193.824 130.727 194.621 129.891 194.621 128.484C194.621 127.09 193.812 126.242 192.5 126.242C191.188 126.242 190.379 127.094 190.379 128.484C190.379 129.887 191.176 130.727 192.5 130.727ZM192.5 129.828C191.891 129.828 191.547 129.336 191.547 128.484C191.547 127.641 191.895 127.145 192.5 127.145C193.102 127.145 193.453 127.641 193.453 128.484C193.453 129.336 193.105 129.828 192.5 129.828Z" fill="white"/>
<path d="M195.551 130.637H196.688V128.148C196.688 127.566 197.012 127.191 197.539 127.191C198.078 127.191 198.332 127.508 198.332 128.113V130.637H199.469V127.855C199.469 126.828 198.953 126.242 197.996 126.242C197.359 126.242 196.922 126.543 196.723 127.027H196.652V126.336H195.551V130.637Z" fill="white"/>
<rect x="68" y="46" width="102" height="12" rx="6" fill="#767676" fill-opacity="0.5"/>
<g opacity="0.8">
<rect x="68" y="66" width="188" height="8" rx="4" fill="#767676" fill-opacity="0.5"/>
</g>
<g opacity="0.8">
<rect x="68" y="82" width="131" height="8" rx="4" fill="#767676" fill-opacity="0.5"/>
</g>
<path d="M0 0V-2H-2V0H0ZM325 0H327V-2H325V0ZM325 180V182H327V180H325ZM0 180H-2V182H0V180ZM0 2H325V-2H0V2ZM323 0V180H327V0H323ZM325 178H0V182H325V178ZM2 180V0H-2V180H2Z" fill="#767676"/>
</svg>
