<svg xmlns="http://www.w3.org/2000/svg" width="312" height="180" fill="none"><path fill="#767676" d="M101 35h110v110H101z"/><g clip-path="url(#a)"><path fill="#F1F1F1" d="M140.286 68a3.143 3.143 0 0 1 3.143-3.143h25.142A3.141 3.141 0 0 1 171.714 68a3.141 3.141 0 0 1-3.143 3.143h-2.897l1.12 14.555A16.542 16.542 0 0 1 174.602 95l.098.295c.314.953.069 2.013-.521 2.828-.51.825-1.453 1.307-2.465 1.307h-31.428a3.128 3.128 0 0 1-2.55-1.307 3.138 3.138 0 0 1-.432-2.828l.099-.295a16.502 16.502 0 0 1 7.807-9.3l1.12-14.556h-2.901A3.143 3.143 0 0 1 140.286 68Zm18.857 34.571V112a3.14 3.14 0 0 1-3.143 3.143 3.14 3.14 0 0 1-3.143-3.143v-9.429h6.286Z"/></g><defs><clipPath id="a"><path fill="#fff" d="M0 0h37.714v50.286H0z" transform="translate(137.143 64.857)"/></clipPath></defs></svg>