<svg width="325" height="180" viewBox="0 0 325 180" fill="none" xmlns="http://www.w3.org/2000/svg">
<rect width="325" height="180" fill="#F4F4F4"/>
<rect width="110" height="110" transform="translate(107 35)" fill="#767676"/>
<g clip-path="url(#clip0_103_3202)">
<path d="M146.286 67.9998C146.286 66.2643 147.693 64.8569 149.429 64.8569H174.571C176.31 64.8569 177.714 66.2643 177.714 67.9998C177.714 69.7352 176.31 71.1426 174.571 71.1426H171.674L172.794 85.698C176.398 87.6525 179.237 90.923 180.602 94.9989L180.7 95.2935C181.014 96.2462 180.769 97.3069 180.179 98.1221C179.669 98.9471 178.726 99.4284 177.714 99.4284H146.286C145.275 99.4284 144.326 98.9471 143.736 98.1221C143.145 97.3069 142.985 96.2462 143.304 95.2935L143.403 94.9989C144.76 90.923 147.604 87.6525 151.21 85.698L152.33 71.1426H149.429C147.693 71.1426 146.286 69.7352 146.286 67.9998ZM165.143 102.571V112C165.143 113.738 163.738 115.143 162 115.143C160.262 115.143 158.857 113.738 158.857 112V102.571H165.143Z" fill="#F4F4F4"/>
</g>
<path d="M0 0V-2H-2V0H0ZM325 0H327V-2H325V0ZM325 180V182H327V180H325ZM0 180H-2V182H0V180ZM0 2H325V-2H0V2ZM323 0V180H327V0H323ZM325 178H0V182H325V178ZM2 180V0H-2V180H2Z" fill="#767676"/>
<defs>
<clipPath id="clip0_103_3202">
<rect width="37.7143" height="50.2857" fill="white" transform="translate(143.143 64.8569)"/>
</clipPath>
</defs>
</svg>
