<svg width="325" height="180" viewBox="0 0 325 180" fill="none" xmlns="http://www.w3.org/2000/svg">
<rect width="325" height="180" fill="#F4F4F4"/>
<path fill-rule="evenodd" clip-rule="evenodd" d="M236 20H96V160H236V20ZM166 140C193.614 140 216 117.614 216 90C216 62.3858 193.614 40 166 40C138.386 40 116 62.3858 116 90C116 117.614 138.386 140 166 140Z" fill="#767676" fill-opacity="0.5"/>
<path fill-rule="evenodd" clip-rule="evenodd" d="M95 20C95 19.4477 95.4477 19 96 19H99.8889C100.441 19 100.889 19.4477 100.889 20C100.889 20.5523 100.441 21 99.8889 21H97V23.8889C97 24.4412 96.5523 24.8889 96 24.8889C95.4477 24.8889 95 24.4412 95 23.8889V20ZM106.667 20C106.667 19.4477 107.114 19 107.667 19H115.444C115.997 19 116.444 19.4477 116.444 20C116.444 20.5523 115.997 21 115.444 21H107.667C107.114 21 106.667 20.5523 106.667 20ZM122.222 20C122.222 19.4477 122.67 19 123.222 19H131C131.552 19 132 19.4477 132 20C132 20.5523 131.552 21 131 21H123.222C122.67 21 122.222 20.5523 122.222 20ZM137.778 20C137.778 19.4477 138.225 19 138.778 19H146.556C147.108 19 147.556 19.4477 147.556 20C147.556 20.5523 147.108 21 146.556 21H138.778C138.225 21 137.778 20.5523 137.778 20ZM153.333 20C153.333 19.4477 153.781 19 154.333 19H162.111C162.663 19 163.111 19.4477 163.111 20C163.111 20.5523 162.663 21 162.111 21H154.333C153.781 21 153.333 20.5523 153.333 20ZM168.889 20C168.889 19.4477 169.337 19 169.889 19H177.667C178.219 19 178.667 19.4477 178.667 20C178.667 20.5523 178.219 21 177.667 21H169.889C169.337 21 168.889 20.5523 168.889 20ZM184.444 20C184.444 19.4477 184.892 19 185.444 19H193.222C193.775 19 194.222 19.4477 194.222 20C194.222 20.5523 193.775 21 193.222 21H185.444C184.892 21 184.444 20.5523 184.444 20ZM200 20C200 19.4477 200.448 19 201 19H208.778C209.33 19 209.778 19.4477 209.778 20C209.778 20.5523 209.33 21 208.778 21H201C200.448 21 200 20.5523 200 20ZM215.556 20C215.556 19.4477 216.003 19 216.556 19H224.333C224.886 19 225.333 19.4477 225.333 20C225.333 20.5523 224.886 21 224.333 21H216.556C216.003 21 215.556 20.5523 215.556 20ZM231.111 20C231.111 19.4477 231.559 19 232.111 19H236C236.552 19 237 19.4477 237 20V23.8889C237 24.4412 236.552 24.8889 236 24.8889C235.448 24.8889 235 24.4412 235 23.8889V21H232.111C231.559 21 231.111 20.5523 231.111 20ZM236 30.6667C236.552 30.6667 237 31.1144 237 31.6667V39.4444C237 39.9967 236.552 40.4444 236 40.4444C235.448 40.4444 235 39.9967 235 39.4444V31.6667C235 31.1144 235.448 30.6667 236 30.6667ZM96 30.6667C96.5523 30.6667 97 31.1144 97 31.6667V39.4444C97 39.9967 96.5523 40.4444 96 40.4444C95.4477 40.4444 95 39.9967 95 39.4444V31.6667C95 31.1144 95.4477 30.6667 96 30.6667ZM161.996 39.1549C163.317 39.0523 164.653 39 166 39C167.347 39 168.683 39.0523 170.004 39.1549C170.555 39.1977 170.967 39.6788 170.924 40.2294C170.881 40.78 170.4 41.1917 169.849 41.1489C168.579 41.0503 167.296 41 166 41C164.704 41 163.421 41.0503 162.151 41.1489C161.6 41.1917 161.119 40.78 161.076 40.2294C161.033 39.6788 161.445 39.1977 161.996 39.1549ZM155.295 41.1383C155.424 41.6754 155.092 42.215 154.555 42.3435C152.037 42.946 149.594 43.743 147.244 44.7178C146.734 44.9293 146.148 44.6872 145.937 44.1771C145.725 43.6669 145.967 43.0819 146.478 42.8703C148.925 41.8555 151.468 41.0257 154.09 40.3984C154.627 40.2699 155.167 40.6011 155.295 41.1383ZM176.705 41.1383C176.833 40.6011 177.373 40.2699 177.91 40.3984C180.532 41.0257 183.075 41.8555 185.522 42.8703C186.033 43.0819 186.275 43.6669 186.063 44.1771C185.852 44.6872 185.266 44.9293 184.756 44.7178C182.406 43.743 179.963 42.946 177.445 42.3435C176.908 42.215 176.576 41.6754 176.705 41.1383ZM236 46.2222C236.552 46.2222 237 46.6699 237 47.2222V55C237 55.5523 236.552 56 236 56C235.448 56 235 55.5523 235 55V47.2222C235 46.6699 235.448 46.2222 236 46.2222ZM96 46.2222C96.5523 46.2222 97 46.6699 97 47.2222V55C97 55.5523 96.5523 56 96 56C95.4477 56 95 55.5523 95 55V47.2222C95 46.6699 95.4477 46.2222 96 46.2222ZM140.724 46.8382C141.013 47.3089 140.866 47.9247 140.395 48.2137C138.203 49.5602 136.124 51.0746 134.177 52.7389C133.757 53.0978 133.126 53.0484 132.767 52.6286C132.408 52.2088 132.458 51.5775 132.877 51.2187C134.903 49.4868 137.067 47.9108 139.349 46.5094C139.819 46.2204 140.435 46.3676 140.724 46.8382ZM191.276 46.8383C191.565 46.3676 192.181 46.2204 192.651 46.5094C194.933 47.9108 197.097 49.4868 199.123 51.2187C199.542 51.5775 199.592 52.2088 199.233 52.6286C198.874 53.0484 198.243 53.0978 197.823 52.7389C195.876 51.0746 193.797 49.5602 191.605 48.2137C191.134 47.9247 190.987 47.3089 191.276 46.8383ZM128.629 56.7671C129.048 57.126 129.098 57.7572 128.739 58.177C127.075 60.1239 125.56 62.2026 124.214 64.3953C123.925 64.8659 123.309 65.0132 122.838 64.7242C122.368 64.4352 122.22 63.8194 122.509 63.3487C123.911 61.0666 125.487 58.9033 127.219 56.8774C127.578 56.4576 128.209 56.4082 128.629 56.7671ZM203.371 56.7671C203.791 56.4083 204.422 56.4576 204.781 56.8774C206.513 58.9033 208.089 61.0666 209.491 63.3487C209.78 63.8194 209.632 64.4352 209.162 64.7242C208.691 65.0132 208.075 64.8659 207.786 64.3953C206.44 62.2026 204.925 60.1239 203.261 58.177C202.902 57.7572 202.952 57.126 203.371 56.7671ZM236 61.7778C236.552 61.7778 237 62.2255 237 62.7778V70.5555C237 71.1078 236.552 71.5555 236 71.5555C235.448 71.5555 235 71.1078 235 70.5555V62.7778C235 62.2255 235.448 61.7778 236 61.7778ZM96 61.7778C96.5523 61.7778 97 62.2255 97 62.7778V70.5556C97 71.1078 96.5523 71.5556 96 71.5556C95.4477 71.5556 95 71.1078 95 70.5556V62.7778C95 62.2255 95.4477 61.7778 96 61.7778ZM120.177 69.9369C120.687 70.1484 120.929 70.7335 120.718 71.2437C119.743 73.5942 118.946 76.037 118.343 78.5554C118.215 79.0925 117.675 79.4237 117.138 79.2952C116.601 79.1667 116.27 78.6271 116.398 78.09C117.026 75.468 117.856 72.9247 118.87 70.4776C119.082 69.9674 119.667 69.7253 120.177 69.9369ZM211.823 69.9369C212.333 69.7253 212.918 69.9674 213.13 70.4776C214.144 72.9247 214.974 75.468 215.602 78.09C215.73 78.6271 215.399 79.1667 214.862 79.2952C214.325 79.4237 213.785 79.0925 213.657 78.5554C213.054 76.037 212.257 73.5942 211.282 71.2437C211.071 70.7335 211.313 70.1484 211.823 69.9369ZM236 77.3333C236.552 77.3333 237 77.781 237 78.3333V86.1111C237 86.6634 236.552 87.1111 236 87.1111C235.448 87.1111 235 86.6634 235 86.1111V78.3333C235 77.781 235.448 77.3333 236 77.3333ZM96 77.3333C96.5523 77.3333 97 77.7811 97 78.3333V86.1111C97 86.6634 96.5523 87.1111 96 87.1111C95.4477 87.1111 95 86.6634 95 86.1111V78.3333C95 77.7811 95.4477 77.3333 96 77.3333ZM215.771 85.0762C216.321 85.0334 216.802 85.4451 216.845 85.9957C216.948 87.3172 217 88.6526 217 90C217 91.3474 216.948 92.6828 216.845 94.0043C216.802 94.5549 216.321 94.9666 215.771 94.9238C215.22 94.881 214.808 94.4 214.851 93.8494C214.95 92.5794 215 91.2957 215 90C215 88.7043 214.95 87.4206 214.851 86.1506C214.808 85.6 215.22 85.1189 215.771 85.0762ZM116.229 85.0762C116.78 85.119 117.192 85.6 117.149 86.1506C117.05 87.4206 117 88.7043 117 90C117 91.2957 117.05 92.5794 117.149 93.8494C117.192 94.4 116.78 94.8811 116.229 94.9238C115.679 94.9666 115.198 94.5549 115.155 94.0043C115.052 92.6828 115 91.3474 115 90C115 88.6526 115.052 87.3172 115.155 85.9957C115.198 85.4451 115.679 85.0334 116.229 85.0762ZM236 92.8889C236.552 92.8889 237 93.3366 237 93.8889V101.667C237 102.219 236.552 102.667 236 102.667C235.448 102.667 235 102.219 235 101.667V93.8889C235 93.3366 235.448 92.8889 236 92.8889ZM96 92.8889C96.5523 92.8889 97 93.3366 97 93.8889V101.667C97 102.219 96.5523 102.667 96 102.667C95.4477 102.667 95 102.219 95 101.667V93.8889C95 93.3366 95.4477 92.8889 96 92.8889ZM117.138 100.705C117.675 100.576 118.215 100.908 118.343 101.445C118.946 103.963 119.743 106.406 120.718 108.756C120.929 109.266 120.687 109.852 120.177 110.063C119.667 110.275 119.082 110.033 118.87 109.522C117.856 107.075 117.026 104.532 116.398 101.91C116.27 101.373 116.601 100.833 117.138 100.705ZM214.862 100.705C215.399 100.833 215.73 101.373 215.602 101.91C214.974 104.532 214.144 107.075 213.13 109.522C212.918 110.033 212.333 110.275 211.823 110.063C211.313 109.852 211.071 109.266 211.282 108.756C212.257 106.406 213.054 103.963 213.657 101.445C213.785 100.908 214.325 100.576 214.862 100.705ZM236 108.444C236.552 108.444 237 108.892 237 109.444V117.222C237 117.775 236.552 118.222 236 118.222C235.448 118.222 235 117.775 235 117.222V109.444C235 108.892 235.448 108.444 236 108.444ZM96 108.444C96.5523 108.444 97 108.892 97 109.444V117.222C97 117.775 96.5523 118.222 96 118.222C95.4477 118.222 95 117.775 95 117.222V109.444C95 108.892 95.4477 108.444 96 108.444ZM122.838 115.276C123.309 114.987 123.925 115.134 124.214 115.605C125.56 117.797 127.075 119.876 128.739 121.823C129.098 122.243 129.048 122.874 128.629 123.233C128.209 123.592 127.578 123.542 127.219 123.123C125.487 121.097 123.911 118.933 122.509 116.651C122.22 116.181 122.368 115.565 122.838 115.276ZM209.162 115.276C209.632 115.565 209.78 116.181 209.491 116.651C208.089 118.933 206.513 121.097 204.781 123.123C204.422 123.542 203.791 123.592 203.371 123.233C202.952 122.874 202.902 122.243 203.261 121.823C204.925 119.876 206.44 117.797 207.786 115.605C208.075 115.134 208.691 114.987 209.162 115.276ZM236 124C236.552 124 237 124.448 237 125V132.778C237 133.33 236.552 133.778 236 133.778C235.448 133.778 235 133.33 235 132.778V125C235 124.448 235.448 124 236 124ZM96 124C96.5523 124 97 124.448 97 125V132.778C97 133.33 96.5523 133.778 96 133.778C95.4477 133.778 95 133.33 95 132.778V125C95 124.448 95.4477 124 96 124ZM132.767 127.371C133.126 126.952 133.757 126.902 134.177 127.261C136.124 128.925 138.203 130.44 140.395 131.786C140.866 132.075 141.013 132.691 140.724 133.162C140.435 133.632 139.819 133.78 139.349 133.491C137.067 132.089 134.903 130.513 132.877 128.781C132.458 128.422 132.408 127.791 132.767 127.371ZM199.233 127.371C199.592 127.791 199.542 128.422 199.123 128.781C197.097 130.513 194.933 132.089 192.651 133.491C192.181 133.78 191.565 133.632 191.276 133.162C190.987 132.691 191.134 132.075 191.605 131.786C193.797 130.44 195.876 128.925 197.823 127.261C198.243 126.902 198.874 126.952 199.233 127.371ZM145.937 135.823C146.148 135.313 146.734 135.071 147.244 135.282C149.594 136.257 152.037 137.054 154.555 137.657C155.092 137.785 155.424 138.325 155.295 138.862C155.167 139.399 154.627 139.73 154.09 139.602C151.468 138.974 148.925 138.144 146.478 137.13C145.967 136.918 145.725 136.333 145.937 135.823ZM186.063 135.823C186.275 136.333 186.033 136.918 185.522 137.13C183.075 138.144 180.532 138.974 177.91 139.602C177.373 139.73 176.833 139.399 176.705 138.862C176.576 138.325 176.908 137.785 177.445 137.657C179.963 137.054 182.406 136.257 184.756 135.282C185.266 135.071 185.852 135.313 186.063 135.823ZM161.076 139.771C161.119 139.22 161.6 138.808 162.151 138.851C163.421 138.95 164.704 139 166 139C167.296 139 168.579 138.95 169.849 138.851C170.4 138.808 170.881 139.22 170.924 139.771C170.967 140.321 170.555 140.802 170.004 140.845C168.683 140.948 167.347 141 166 141C164.653 141 163.317 140.948 161.996 140.845C161.445 140.802 161.033 140.321 161.076 139.771ZM236 139.556C236.552 139.556 237 140.003 237 140.556V148.333C237 148.886 236.552 149.333 236 149.333C235.448 149.333 235 148.886 235 148.333V140.556C235 140.003 235.448 139.556 236 139.556ZM96 139.556C96.5523 139.556 97 140.003 97 140.556V148.333C97 148.886 96.5523 149.333 96 149.333C95.4477 149.333 95 148.886 95 148.333V140.556C95 140.003 95.4477 139.556 96 139.556ZM96 155.111C96.5523 155.111 97 155.559 97 156.111V159H99.8889C100.441 159 100.889 159.448 100.889 160C100.889 160.552 100.441 161 99.8889 161H96C95.4477 161 95 160.552 95 160V156.111C95 155.559 95.4477 155.111 96 155.111ZM236 155.111C236.552 155.111 237 155.559 237 156.111V160C237 160.552 236.552 161 236 161H232.111C231.559 161 231.111 160.552 231.111 160C231.111 159.448 231.559 159 232.111 159H235V156.111C235 155.559 235.448 155.111 236 155.111ZM106.667 160C106.667 159.448 107.114 159 107.667 159H115.444C115.997 159 116.444 159.448 116.444 160C116.444 160.552 115.997 161 115.444 161H107.667C107.114 161 106.667 160.552 106.667 160ZM122.222 160C122.222 159.448 122.67 159 123.222 159H131C131.552 159 132 159.448 132 160C132 160.552 131.552 161 131 161H123.222C122.67 161 122.222 160.552 122.222 160ZM137.778 160C137.778 159.448 138.225 159 138.778 159H146.556C147.108 159 147.556 159.448 147.556 160C147.556 160.552 147.108 161 146.556 161H138.778C138.225 161 137.778 160.552 137.778 160ZM153.333 160C153.333 159.448 153.781 159 154.333 159H162.111C162.663 159 163.111 159.448 163.111 160C163.111 160.552 162.663 161 162.111 161H154.333C153.781 161 153.333 160.552 153.333 160ZM168.889 160C168.889 159.448 169.337 159 169.889 159H177.667C178.219 159 178.667 159.448 178.667 160C178.667 160.552 178.219 161 177.667 161H169.889C169.337 161 168.889 160.552 168.889 160ZM184.444 160C184.444 159.448 184.892 159 185.444 159H193.222C193.775 159 194.222 159.448 194.222 160C194.222 160.552 193.775 161 193.222 161H185.444C184.892 161 184.444 160.552 184.444 160ZM200 160C200 159.448 200.448 159 201 159H208.778C209.33 159 209.778 159.448 209.778 160C209.778 160.552 209.33 161 208.778 161H201C200.448 161 200 160.552 200 160ZM215.556 160C215.556 159.448 216.003 159 216.556 159H224.333C224.886 159 225.333 159.448 225.333 160C225.333 160.552 224.886 161 224.333 161H216.556C216.003 161 215.556 160.552 215.556 160Z" fill="#4D4D4D"/>
<path d="M0 0V-2H-2V0H0ZM325 0H327V-2H325V0ZM325 180V182H327V180H325ZM0 180H-2V182H0V180ZM0 2H325V-2H0V2ZM323 0V180H327V0H323ZM325 178H0V182H325V178ZM2 180V0H-2V180H2Z" fill="#767676"/>
</svg>
