<svg xmlns="http://www.w3.org/2000/svg" width="312" height="180" fill="none"><path fill="#767676" fill-opacity=".5" fill-rule="evenodd" d="M226 20H86v140h140V20Zm-70 120c27.614 0 50-22.386 50-50s-22.386-50-50-50-50 22.386-50 50 22.386 50 50 50Z" clip-rule="evenodd"/><path fill="#4A4A4A" fill-rule="evenodd" d="M85 20a1 1 0 0 1 1-1h3.889a1 1 0 1 1 0 2H87v2.889a1 1 0 1 1-2 0V20Zm11.667 0a1 1 0 0 1 1-1h7.777a1 1 0 1 1 0 2h-7.777a1 1 0 0 1-1-1Zm15.555 0a1 1 0 0 1 1-1H121a1 1 0 0 1 0 2h-7.778a1 1 0 0 1-1-1Zm15.556 0a1 1 0 0 1 1-1h7.778a1 1 0 0 1 0 2h-7.778a1 1 0 0 1-1-1Zm15.555 0a1 1 0 0 1 1-1h7.778a1 1 0 0 1 0 2h-7.778a1 1 0 0 1-1-1Zm15.556 0a1 1 0 0 1 1-1h7.778a1 1 0 0 1 0 2h-7.778a1 1 0 0 1-1-1Zm15.555 0a1 1 0 0 1 1-1h7.778a1 1 0 1 1 0 2h-7.778a1 1 0 0 1-1-1ZM190 20a1 1 0 0 1 1-1h7.778a1 1 0 0 1 0 2H191a1 1 0 0 1-1-1Zm15.556 0a1 1 0 0 1 1-1h7.777a1 1 0 1 1 0 2h-7.777a1 1 0 0 1-1-1Zm15.555 0a1 1 0 0 1 1-1H226a1 1 0 0 1 1 1v3.889a1 1 0 0 1-2 0V21h-2.889a1 1 0 0 1-1-1ZM226 30.667a1 1 0 0 1 1 1v7.777a1 1 0 0 1-2 0v-7.777a1 1 0 0 1 1-1Zm-140 0a1 1 0 0 1 1 1v7.777a1 1 0 1 1-2 0v-7.777a1 1 0 0 1 1-1Zm65.996 8.488a51.715 51.715 0 0 1 8.008 0 1 1 0 1 1-.155 1.994 49.707 49.707 0 0 0-7.698 0 1 1 0 1 1-.155-1.994Zm-6.701 1.983a1 1 0 0 1-.74 1.206 48.59 48.59 0 0 0-7.311 2.374 1 1 0 1 1-.766-1.848 50.6 50.6 0 0 1 7.612-2.472 1 1 0 0 1 1.205.74Zm21.41 0a1 1 0 0 1 1.205-.74 50.6 50.6 0 0 1 7.612 2.472 1 1 0 1 1-.766 1.848 48.59 48.59 0 0 0-7.311-2.375 1 1 0 0 1-.74-1.205ZM226 46.222a1 1 0 0 1 1 1V55a1 1 0 0 1-2 0v-7.778a1 1 0 0 1 1-1Zm-140 0a1 1 0 0 1 1 1V55a1 1 0 1 1-2 0v-7.778a1 1 0 0 1 1-1Zm44.724.616a1 1 0 0 1-.329 1.376 49.221 49.221 0 0 0-6.218 4.525 1 1 0 0 1-1.3-1.52 51.183 51.183 0 0 1 6.472-4.71 1 1 0 0 1 1.375.33Zm50.552 0a1 1 0 0 1 1.375-.329 51.183 51.183 0 0 1 6.472 4.71 1 1 0 0 1-1.3 1.52 49.221 49.221 0 0 0-6.218-4.525 1 1 0 0 1-.329-1.376Zm-62.647 9.93a1 1 0 0 1 .11 1.409 49.146 49.146 0 0 0-4.525 6.218 1 1 0 0 1-1.705-1.046 51.216 51.216 0 0 1 4.71-6.472 1 1 0 0 1 1.41-.11Zm74.742 0a1 1 0 0 1 1.41.11 51.216 51.216 0 0 1 4.71 6.47 1 1 0 0 1-1.705 1.047 49.146 49.146 0 0 0-4.525-6.218 1 1 0 0 1 .11-1.41ZM226 61.777a1 1 0 0 1 1 1v7.777a1 1 0 0 1-2 0v-7.777a1 1 0 0 1 1-1Zm-140 0a1 1 0 0 1 1 1v7.778a1 1 0 0 1-2 0v-7.778a1 1 0 0 1 1-1Zm24.177 8.159a1 1 0 0 1 .541 1.307 48.638 48.638 0 0 0-2.375 7.311 1 1 0 1 1-1.945-.465 50.78 50.78 0 0 1 2.472-7.612 1 1 0 0 1 1.307-.541Zm91.646 0a1 1 0 0 1 1.307.54 50.78 50.78 0 0 1 2.472 7.613 1 1 0 0 1-1.945.465 48.638 48.638 0 0 0-2.375-7.311 1 1 0 0 1 .541-1.307ZM226 77.333a1 1 0 0 1 1 1v7.778a1 1 0 0 1-2 0v-7.778a1 1 0 0 1 1-1Zm-140 0a1 1 0 0 1 1 1v7.778a1 1 0 1 1-2 0v-7.778a1 1 0 0 1 1-1Zm119.771 7.743a1 1 0 0 1 1.074.92 51.525 51.525 0 0 1 0 8.008 1 1 0 0 1-1.994-.155 49.524 49.524 0 0 0 0-7.698 1 1 0 0 1 .92-1.075Zm-99.542 0a1 1 0 0 1 .92 1.075 49.524 49.524 0 0 0 0 7.698 1 1 0 1 1-1.994.155 51.525 51.525 0 0 1 0-8.008 1 1 0 0 1 1.074-.92ZM226 92.89a1 1 0 0 1 1 1v7.778a1 1 0 0 1-2 0v-7.778a1 1 0 0 1 1-1Zm-140 0a1 1 0 0 1 1 1v7.778a1 1 0 0 1-2 0v-7.778a1 1 0 0 1 1-1Zm21.138 7.816a1 1 0 0 1 1.205.74 48.625 48.625 0 0 0 2.375 7.311 1 1 0 0 1-1.848.766 50.772 50.772 0 0 1-2.472-7.612 1 1 0 0 1 .74-1.205Zm97.724 0a1 1 0 0 1 .74 1.205 50.772 50.772 0 0 1-2.472 7.612 1 1 0 1 1-1.848-.766 48.625 48.625 0 0 0 2.375-7.311 1 1 0 0 1 1.205-.74ZM226 108.444a1 1 0 0 1 1 1v7.778a1 1 0 1 1-2 0v-7.778a1 1 0 0 1 1-1Zm-140 0a1 1 0 0 1 1 1v7.778a1 1 0 1 1-2 0v-7.778a1 1 0 0 1 1-1Zm26.838 6.832a1 1 0 0 1 1.376.329 49.2 49.2 0 0 0 4.525 6.218 1 1 0 0 1-1.52 1.3 51.238 51.238 0 0 1-4.71-6.472 1 1 0 0 1 .329-1.375Zm86.324 0a1 1 0 0 1 .329 1.375 51.238 51.238 0 0 1-4.71 6.472 1 1 0 0 1-1.52-1.3 49.2 49.2 0 0 0 4.525-6.218 1 1 0 0 1 1.376-.329ZM226 124a1 1 0 0 1 1 1v7.778a1 1 0 0 1-2 0V125a1 1 0 0 1 1-1Zm-140 0a1 1 0 0 1 1 1v7.778a1 1 0 0 1-2 0V125a1 1 0 0 1 1-1Zm36.767 3.371a1 1 0 0 1 1.41-.11 49.2 49.2 0 0 0 6.218 4.525 1 1 0 0 1-1.046 1.705 51.238 51.238 0 0 1-6.472-4.71 1 1 0 0 1-.11-1.41Zm66.466 0a1 1 0 0 1-.11 1.41 51.238 51.238 0 0 1-6.472 4.71 1 1 0 0 1-1.046-1.705 49.2 49.2 0 0 0 6.218-4.525 1 1 0 0 1 1.41.11Zm-53.296 8.452a1 1 0 0 1 1.307-.541 48.625 48.625 0 0 0 7.311 2.375 1 1 0 1 1-.465 1.945 50.772 50.772 0 0 1-7.612-2.472 1 1 0 0 1-.541-1.307Zm40.126 0a1 1 0 0 1-.541 1.307 50.772 50.772 0 0 1-7.612 2.472 1 1 0 0 1-.465-1.945 48.625 48.625 0 0 0 7.311-2.375 1 1 0 0 1 1.307.541Zm-24.987 3.948a1 1 0 0 1 1.075-.92 49.508 49.508 0 0 0 7.698 0 1 1 0 1 1 .155 1.994 51.516 51.516 0 0 1-8.008 0 1 1 0 0 1-.92-1.074Zm74.924-.215a1 1 0 0 1 1 1v7.777a1 1 0 1 1-2 0v-7.777a1 1 0 0 1 1-1Zm-140 0a1 1 0 0 1 1 1v7.777a1 1 0 1 1-2 0v-7.777a1 1 0 0 1 1-1Zm0 15.555a1 1 0 0 1 1 1V159h2.889a1 1 0 0 1 0 2H86a1 1 0 0 1-1-1v-3.889a1 1 0 0 1 1-1Zm140 0a1 1 0 0 1 1 1V160a1 1 0 0 1-1 1h-3.889a1 1 0 0 1 0-2H225v-2.889a1 1 0 0 1 1-1ZM96.667 160a1 1 0 0 1 1-1h7.777a1 1 0 1 1 0 2h-7.777a1 1 0 0 1-1-1Zm15.555 0a1 1 0 0 1 1-1H121a1 1 0 0 1 0 2h-7.778a1 1 0 0 1-1-1Zm15.556 0a1 1 0 0 1 1-1h7.778a1 1 0 0 1 0 2h-7.778a1 1 0 0 1-1-1Zm15.555 0a1 1 0 0 1 1-1h7.778a1 1 0 0 1 0 2h-7.778a1 1 0 0 1-1-1Zm15.556 0a1 1 0 0 1 1-1h7.778a1 1 0 0 1 0 2h-7.778a1 1 0 0 1-1-1Zm15.555 0a1 1 0 0 1 1-1h7.778a1 1 0 1 1 0 2h-7.778a1 1 0 0 1-1-1ZM190 160a1 1 0 0 1 1-1h7.778a1 1 0 0 1 0 2H191a1 1 0 0 1-1-1Zm15.556 0a1 1 0 0 1 1-1h7.777a1 1 0 1 1 0 2h-7.777a1 1 0 0 1-1-1Z" clip-rule="evenodd"/></svg>