<svg width="325" height="180" viewBox="0 0 325 180" fill="none" xmlns="http://www.w3.org/2000/svg">
<rect width="325" height="180" fill="#F4F4F4"/>
<path fill-rule="evenodd" clip-rule="evenodd" d="M170.333 88.3333H163.667V81.6667C163.667 80.7467 162.92 80 162 80C161.08 80 160.333 80.7467 160.333 81.6667V88.3333H153.667C152.747 88.3333 152 89.08 152 90C152 90.92 152.747 91.6667 153.667 91.6667H160.333V98.3333C160.333 99.2533 161.08 100 162 100C162.92 100 163.667 99.2533 163.667 98.3333V91.6667H170.333C171.253 91.6667 172 90.92 172 90C172 89.08 171.253 88.3333 170.333 88.3333Z" fill="#4D4D4D"/>
<path fill-rule="evenodd" clip-rule="evenodd" d="M157.122 65.4758C158.701 65.1636 160.332 65 162 65C163.668 65 165.299 65.1636 166.878 65.4758C167.42 65.583 167.772 66.1091 167.665 66.6509C167.558 67.1927 167.032 67.545 166.49 67.4378C165.038 67.1507 163.537 67 162 67C160.463 67 158.961 67.1507 157.51 67.4378C156.968 67.545 156.442 67.1927 156.335 66.6509C156.228 66.1091 156.58 65.583 157.122 65.4758ZM174.504 69.4861C174.811 69.0272 175.432 68.9042 175.891 69.2115C178.617 71.0364 180.964 73.383 182.789 76.1089C183.096 76.5678 182.973 77.1889 182.514 77.4962C182.055 77.8034 181.434 77.6805 181.127 77.2215C179.447 74.7129 177.287 72.5529 174.778 70.8734C174.32 70.5662 174.197 69.945 174.504 69.4861ZM149.496 69.4861C149.803 69.945 149.68 70.5662 149.222 70.8734C146.713 72.5529 144.553 74.7129 142.873 77.2215C142.566 77.6805 141.945 77.8034 141.486 77.4962C141.027 77.1889 140.904 76.5678 141.211 76.1089C143.036 73.3831 145.383 71.0364 148.109 69.2115C148.568 68.9042 149.189 69.0272 149.496 69.4861ZM138.651 84.3351C139.193 84.4423 139.545 84.9684 139.438 85.5102C139.151 86.9615 139 88.4627 139 90C139 91.5373 139.151 93.0385 139.438 94.4898C139.545 95.0316 139.193 95.5577 138.651 95.6649C138.109 95.7721 137.583 95.4197 137.476 94.878C137.164 93.2995 137 91.6684 137 90C137 88.3316 137.164 86.7005 137.476 85.122C137.583 84.5803 138.109 84.2279 138.651 84.3351ZM185.349 84.3351C185.891 84.2279 186.417 84.5803 186.524 85.122C186.836 86.7005 187 88.3316 187 90C187 91.6684 186.836 93.2995 186.524 94.878C186.417 95.4197 185.891 95.7721 185.349 95.6649C184.807 95.5577 184.455 95.0316 184.562 94.4898C184.849 93.0385 185 91.5373 185 90C185 88.4627 184.849 86.9615 184.562 85.5102C184.455 84.9684 184.807 84.4423 185.349 84.3351ZM182.514 102.504C182.973 102.811 183.096 103.432 182.789 103.891C180.964 106.617 178.617 108.964 175.891 110.789C175.432 111.096 174.811 110.973 174.504 110.514C174.197 110.055 174.32 109.434 174.778 109.127C177.287 107.447 179.447 105.287 181.127 102.778C181.434 102.32 182.055 102.197 182.514 102.504ZM141.486 102.504C141.945 102.197 142.566 102.32 142.873 102.778C144.553 105.287 146.713 107.447 149.222 109.127C149.68 109.434 149.803 110.055 149.496 110.514C149.189 110.973 148.568 111.096 148.109 110.789C145.383 108.964 143.036 106.617 141.211 103.891C140.904 103.432 141.027 102.811 141.486 102.504ZM156.335 113.349C156.442 112.807 156.968 112.455 157.51 112.562C158.962 112.849 160.463 113 162 113C163.537 113 165.039 112.849 166.49 112.562C167.032 112.455 167.558 112.807 167.665 113.349C167.772 113.891 167.42 114.417 166.878 114.524C165.299 114.836 163.668 115 162 115C160.332 115 158.701 114.836 157.122 114.524C156.58 114.417 156.228 113.891 156.335 113.349Z" fill="#4D4D4D"/>
<path d="M0 0V-2H-2V0H0ZM325 0H327V-2H325V0ZM325 180V182H327V180H325ZM0 180H-2V182H0V180ZM0 2H325V-2H0V2ZM323 0V180H327V0H323ZM325 178H0V182H325V178ZM2 180V0H-2V180H2Z" fill="#767676"/>
</svg>
