<svg xmlns="http://www.w3.org/2000/svg" width="312" height="180" fill="none"><path fill="#4A4A4A" fill-rule="evenodd" d="M164.333 88.333h-6.666v-6.666a1.668 1.668 0 0 0-3.334 0v6.666h-6.666a1.668 1.668 0 0 0 0 3.334h6.666v6.666a1.668 1.668 0 0 0 3.334 0v-6.666h6.666a1.668 1.668 0 0 0 0-3.334Zm-13.211-22.857A25.13 25.13 0 0 1 156 65c1.668 0 3.299.164 4.878.476a1 1 0 0 1-.388 1.962A23.128 23.128 0 0 0 156 67c-1.537 0-3.039.15-4.49.438a1 1 0 1 1-.388-1.962Zm17.382 4.01a1 1 0 0 1 1.387-.275 25.132 25.132 0 0 1 6.898 6.898 1 1 0 0 1-1.662 1.113 23.137 23.137 0 0 0-6.349-6.349 1 1 0 0 1-.274-1.387Zm-25.008 0a1 1 0 0 1-.274 1.387 23.137 23.137 0 0 0-6.349 6.349 1 1 0 1 1-1.662-1.113 25.133 25.133 0 0 1 6.898-6.897 1 1 0 0 1 1.387.274Zm-10.845 14.85a1 1 0 0 1 .787 1.174A23.126 23.126 0 0 0 133 90c0 1.537.151 3.038.438 4.49a1 1 0 0 1-1.962.388A25.138 25.138 0 0 1 131 90c0-1.668.164-3.3.476-4.878a1 1 0 0 1 1.175-.787Zm46.698 0a1 1 0 0 1 1.175.786c.312 1.579.476 3.21.476 4.878 0 1.668-.164 3.3-.476 4.878a1 1 0 1 1-1.962-.388c.287-1.451.438-2.953.438-4.49 0-1.537-.151-3.038-.438-4.49a1 1 0 0 1 .787-1.175Zm-2.835 18.168a1 1 0 0 1 .275 1.387 25.134 25.134 0 0 1-6.898 6.898 1 1 0 0 1-1.113-1.662 23.142 23.142 0 0 0 6.349-6.349 1 1 0 0 1 1.387-.274Zm-41.028 0a1 1 0 0 1 1.387.274 23.142 23.142 0 0 0 6.349 6.349 1 1 0 0 1-1.113 1.662 25.134 25.134 0 0 1-6.898-6.898 1 1 0 0 1 .275-1.387Zm14.849 10.845a1 1 0 0 1 1.175-.787c1.452.287 2.953.438 4.49.438 1.537 0 3.039-.151 4.49-.438a1 1 0 1 1 .388 1.962c-1.579.312-3.21.476-4.878.476-1.668 0-3.299-.164-4.878-.476a1 1 0 0 1-.787-1.175Z" clip-rule="evenodd"/></svg>