<svg width="325" height="180" viewBox="0 0 325 180" fill="none" xmlns="http://www.w3.org/2000/svg">
<rect width="325" height="180" fill="#F4F4F4"/>
<path fill-rule="evenodd" clip-rule="evenodd" d="M51 20C51 19.4477 51.4477 19 52 19H55.9285C56.4808 19 56.9285 19.4477 56.9285 20C56.9285 20.5523 56.4808 21 55.9285 21H53V23.8889C53 24.4412 52.5523 24.8889 52 24.8889C51.4477 24.8889 51 24.4412 51 23.8889V20ZM62.7857 20C62.7857 19.4477 63.2334 19 63.7857 19H71.6428C72.1951 19 72.6428 19.4477 72.6428 20C72.6428 20.5523 72.1951 21 71.6428 21H63.7857C63.2334 21 62.7857 20.5523 62.7857 20ZM78.5 20C78.5 19.4477 78.9477 19 79.5 19H87.3571C87.9094 19 88.3571 19.4477 88.3571 20C88.3571 20.5523 87.9094 21 87.3571 21H79.5C78.9477 21 78.5 20.5523 78.5 20ZM94.2143 20C94.2143 19.4477 94.662 19 95.2143 19H103.071C103.624 19 104.071 19.4477 104.071 20C104.071 20.5523 103.624 21 103.071 21H95.2143C94.662 21 94.2143 20.5523 94.2143 20ZM109.929 20C109.929 19.4477 110.376 19 110.929 19H118.786C119.338 19 119.786 19.4477 119.786 20C119.786 20.5523 119.338 21 118.786 21H110.929C110.376 21 109.929 20.5523 109.929 20ZM125.643 20C125.643 19.4477 126.091 19 126.643 19H134.5C135.052 19 135.5 19.4477 135.5 20C135.5 20.5523 135.052 21 134.5 21H126.643C126.091 21 125.643 20.5523 125.643 20ZM141.357 20C141.357 19.4477 141.805 19 142.357 19H150.214C150.767 19 151.214 19.4477 151.214 20C151.214 20.5523 150.767 21 150.214 21H142.357C141.805 21 141.357 20.5523 141.357 20ZM157.071 20C157.071 19.4477 157.519 19 158.071 19H165.929C166.481 19 166.929 19.4477 166.929 20C166.929 20.5523 166.481 21 165.929 21H158.071C157.519 21 157.071 20.5523 157.071 20ZM172.786 20C172.786 19.4477 173.233 19 173.786 19H181.643C182.195 19 182.643 19.4477 182.643 20C182.643 20.5523 182.195 21 181.643 21H173.786C173.233 21 172.786 20.5523 172.786 20ZM188.5 20C188.5 19.4477 188.948 19 189.5 19H197.357C197.909 19 198.357 19.4477 198.357 20C198.357 20.5523 197.909 21 197.357 21H189.5C188.948 21 188.5 20.5523 188.5 20ZM204.214 20C204.214 19.4477 204.662 19 205.214 19H213.071C213.624 19 214.071 19.4477 214.071 20C214.071 20.5523 213.624 21 213.071 21H205.214C204.662 21 204.214 20.5523 204.214 20ZM219.929 20C219.929 19.4477 220.376 19 220.929 19H228.786C229.338 19 229.786 19.4477 229.786 20C229.786 20.5523 229.338 21 228.786 21H220.929C220.376 21 219.929 20.5523 219.929 20ZM235.643 20C235.643 19.4477 236.091 19 236.643 19H244.5C245.052 19 245.5 19.4477 245.5 20C245.5 20.5523 245.052 21 244.5 21H236.643C236.091 21 235.643 20.5523 235.643 20ZM251.357 20C251.357 19.4477 251.805 19 252.357 19H260.214C260.767 19 261.214 19.4477 261.214 20C261.214 20.5523 260.767 21 260.214 21H252.357C251.805 21 251.357 20.5523 251.357 20ZM267.071 20C267.071 19.4477 267.519 19 268.071 19H272C272.552 19 273 19.4477 273 20V23.8889C273 24.4412 272.552 24.8889 272 24.8889C271.448 24.8889 271 24.4412 271 23.8889V21H268.071C267.519 21 267.071 20.5523 267.071 20ZM272 30.6667C272.552 30.6667 273 31.1144 273 31.6667V39.4444C273 39.9967 272.552 40.4444 272 40.4444C271.448 40.4444 271 39.9967 271 39.4444V31.6667C271 31.1144 271.448 30.6667 272 30.6667ZM52 30.6667C52.5523 30.6667 53 31.1144 53 31.6667V39.4444C53 39.9967 52.5523 40.4444 52 40.4444C51.4477 40.4444 51 39.9967 51 39.4444V31.6667C51 31.1144 51.4477 30.6667 52 30.6667ZM272 46.2222C272.552 46.2222 273 46.6699 273 47.2222V55C273 55.5523 272.552 56 272 56C271.448 56 271 55.5523 271 55V47.2222C271 46.6699 271.448 46.2222 272 46.2222ZM52 46.2222C52.5523 46.2222 53 46.6699 53 47.2222V55C53 55.5523 52.5523 56 52 56C51.4477 56 51 55.5523 51 55V47.2222C51 46.6699 51.4477 46.2222 52 46.2222ZM272 61.7778C272.552 61.7778 273 62.2255 273 62.7778V70.5555C273 71.1078 272.552 71.5555 272 71.5555C271.448 71.5555 271 71.1078 271 70.5555V62.7778C271 62.2255 271.448 61.7778 272 61.7778ZM52 61.7778C52.5523 61.7778 53 62.2255 53 62.7778V70.5556C53 71.1078 52.5523 71.5556 52 71.5556C51.4477 71.5556 51 71.1078 51 70.5556V62.7778C51 62.2255 51.4477 61.7778 52 61.7778ZM272 77.3333C272.552 77.3333 273 77.781 273 78.3333V86.1111C273 86.6634 272.552 87.1111 272 87.1111C271.448 87.1111 271 86.6634 271 86.1111V78.3333C271 77.781 271.448 77.3333 272 77.3333ZM52 77.3333C52.5523 77.3333 53 77.7811 53 78.3333V86.1111C53 86.6634 52.5523 87.1111 52 87.1111C51.4477 87.1111 51 86.6634 51 86.1111V78.3333C51 77.7811 51.4477 77.3333 52 77.3333ZM272 92.8889C272.552 92.8889 273 93.3366 273 93.8889V101.667C273 102.219 272.552 102.667 272 102.667C271.448 102.667 271 102.219 271 101.667V93.8889C271 93.3366 271.448 92.8889 272 92.8889ZM52 92.8889C52.5523 92.8889 53 93.3366 53 93.8889V101.667C53 102.219 52.5523 102.667 52 102.667C51.4477 102.667 51 102.219 51 101.667V93.8889C51 93.3366 51.4477 92.8889 52 92.8889ZM272 108.444C272.552 108.444 273 108.892 273 109.444V117.222C273 117.775 272.552 118.222 272 118.222C271.448 118.222 271 117.775 271 117.222V109.444C271 108.892 271.448 108.444 272 108.444ZM52 108.444C52.5523 108.444 53 108.892 53 109.444V117.222C53 117.775 52.5523 118.222 52 118.222C51.4477 118.222 51 117.775 51 117.222V109.444C51 108.892 51.4477 108.444 52 108.444ZM272 124C272.552 124 273 124.448 273 125V132.778C273 133.33 272.552 133.778 272 133.778C271.448 133.778 271 133.33 271 132.778V125C271 124.448 271.448 124 272 124ZM52 124C52.5523 124 53 124.448 53 125V132.778C53 133.33 52.5523 133.778 52 133.778C51.4477 133.778 51 133.33 51 132.778V125C51 124.448 51.4477 124 52 124ZM272 139.556C272.552 139.556 273 140.003 273 140.556V148.333C273 148.886 272.552 149.333 272 149.333C271.448 149.333 271 148.886 271 148.333V140.556C271 140.003 271.448 139.556 272 139.556ZM52 139.556C52.5523 139.556 53 140.003 53 140.556V148.333C53 148.886 52.5523 149.333 52 149.333C51.4477 149.333 51 148.886 51 148.333V140.556C51 140.003 51.4477 139.556 52 139.556ZM52 155.111C52.5523 155.111 53 155.559 53 156.111V159H55.9286C56.4809 159 56.9286 159.448 56.9286 160C56.9286 160.552 56.4809 161 55.9286 161H52C51.4477 161 51 160.552 51 160V156.111C51 155.559 51.4477 155.111 52 155.111ZM272 155.111C272.552 155.111 273 155.559 273 156.111V160C273 160.552 272.552 161 272 161H268.071C267.519 161 267.071 160.552 267.071 160C267.071 159.448 267.519 159 268.071 159H271V156.111C271 155.559 271.448 155.111 272 155.111ZM62.7857 160C62.7857 159.448 63.2334 159 63.7857 159H71.6429C72.1951 159 72.6429 159.448 72.6429 160C72.6429 160.552 72.1951 161 71.6429 161H63.7857C63.2334 161 62.7857 160.552 62.7857 160ZM78.5 160C78.5 159.448 78.9477 159 79.5 159H87.3571C87.9094 159 88.3571 159.448 88.3571 160C88.3571 160.552 87.9094 161 87.3571 161H79.5C78.9477 161 78.5 160.552 78.5 160ZM94.2143 160C94.2143 159.448 94.662 159 95.2143 159H103.071C103.624 159 104.071 159.448 104.071 160C104.071 160.552 103.624 161 103.071 161H95.2143C94.662 161 94.2143 160.552 94.2143 160ZM109.929 160C109.929 159.448 110.376 159 110.929 159H118.786C119.338 159 119.786 159.448 119.786 160C119.786 160.552 119.338 161 118.786 161H110.929C110.376 161 109.929 160.552 109.929 160ZM125.643 160C125.643 159.448 126.091 159 126.643 159H134.5C135.052 159 135.5 159.448 135.5 160C135.5 160.552 135.052 161 134.5 161H126.643C126.091 161 125.643 160.552 125.643 160ZM141.357 160C141.357 159.448 141.805 159 142.357 159H150.214C150.767 159 151.214 159.448 151.214 160C151.214 160.552 150.767 161 150.214 161H142.357C141.805 161 141.357 160.552 141.357 160ZM157.071 160C157.071 159.448 157.519 159 158.071 159H165.929C166.481 159 166.929 159.448 166.929 160C166.929 160.552 166.481 161 165.929 161H158.071C157.519 161 157.071 160.552 157.071 160ZM172.786 160C172.786 159.448 173.233 159 173.786 159H181.643C182.195 159 182.643 159.448 182.643 160C182.643 160.552 182.195 161 181.643 161H173.786C173.233 161 172.786 160.552 172.786 160ZM188.5 160C188.5 159.448 188.948 159 189.5 159H197.357C197.909 159 198.357 159.448 198.357 160C198.357 160.552 197.909 161 197.357 161H189.5C188.948 161 188.5 160.552 188.5 160ZM204.214 160C204.214 159.448 204.662 159 205.214 159H213.071C213.624 159 214.071 159.448 214.071 160C214.071 160.552 213.624 161 213.071 161H205.214C204.662 161 204.214 160.552 204.214 160ZM219.929 160C219.929 159.448 220.376 159 220.929 159H228.786C229.338 159 229.786 159.448 229.786 160C229.786 160.552 229.338 161 228.786 161H220.929C220.376 161 219.929 160.552 219.929 160ZM235.643 160C235.643 159.448 236.091 159 236.643 159H244.5C245.052 159 245.5 159.448 245.5 160C245.5 160.552 245.052 161 244.5 161H236.643C236.091 161 235.643 160.552 235.643 160ZM251.357 160C251.357 159.448 251.805 159 252.357 159H260.214C260.767 159 261.214 159.448 261.214 160C261.214 160.552 260.767 161 260.214 161H252.357C251.805 161 251.357 160.552 251.357 160Z" fill="#4D4D4D"/>
<rect x="248" y="36" width="8" height="40" rx="4" fill="#4D4D4D"/>
<g opacity="0.8">
<rect x="68" y="36" width="100" height="8" rx="4" fill="#767676" fill-opacity="0.5"/>
</g>
<g opacity="0.8">
<rect x="68" y="100" width="100" height="8" rx="4" fill="#767676" fill-opacity="0.5"/>
</g>
<g opacity="0.8">
<rect x="68" y="52" width="159" height="8" rx="4" fill="#767676" fill-opacity="0.5"/>
</g>
<g opacity="0.8">
<rect x="68" y="116" width="159" height="8" rx="4" fill="#767676" fill-opacity="0.5"/>
</g>
<g opacity="0.8">
<rect x="68" y="68" width="159" height="8" rx="4" fill="#767676" fill-opacity="0.5"/>
</g>
<g opacity="0.8">
<rect x="68" y="132" width="159" height="8" rx="4" fill="#767676" fill-opacity="0.5"/>
</g>
<path d="M0 0V-2H-2V0H0ZM325 0H327V-2H325V0ZM325 180V182H327V180H325ZM0 180H-2V182H0V180ZM0 2H325V-2H0V2ZM323 0V180H327V0H323ZM325 178H0V182H325V178ZM2 180V0H-2V180H2Z" fill="#767676"/>
</svg>
