<svg xmlns="http://www.w3.org/2000/svg" width="312" height="180" fill="none"><path fill="#4A4A4A" fill-rule="evenodd" d="M45 20a1 1 0 0 1 1-1h3.928a1 1 0 1 1 0 2H47v2.889a1 1 0 1 1-2 0V20Zm11.786 0a1 1 0 0 1 1-1h7.857a1 1 0 1 1 0 2h-7.857a1 1 0 0 1-1-1ZM72.5 20a1 1 0 0 1 1-1h7.857a1 1 0 1 1 0 2H73.5a1 1 0 0 1-1-1Zm15.714 0a1 1 0 0 1 1-1h7.857a1 1 0 1 1 0 2h-7.857a1 1 0 0 1-1-1Zm15.715 0a1 1 0 0 1 1-1h7.857a1 1 0 0 1 0 2h-7.857a1 1 0 0 1-1-1Zm15.714 0a1 1 0 0 1 1-1h7.857a1 1 0 0 1 0 2h-7.857a1 1 0 0 1-1-1Zm15.714 0a1 1 0 0 1 1-1h7.857a1 1 0 1 1 0 2h-7.857a1 1 0 0 1-1-1Zm15.714 0a1 1 0 0 1 1-1h7.858a1 1 0 0 1 0 2h-7.858a1 1 0 0 1-1-1Zm15.715 0a1 1 0 0 1 1-1h7.857a1 1 0 0 1 0 2h-7.857a1 1 0 0 1-1-1Zm15.714 0a1 1 0 0 1 1-1h7.857a1 1 0 0 1 0 2H183.5a1 1 0 0 1-1-1Zm15.714 0a1 1 0 0 1 1-1h7.857a1 1 0 1 1 0 2h-7.857a1 1 0 0 1-1-1Zm15.715 0a1 1 0 0 1 1-1h7.857a1 1 0 0 1 0 2h-7.857a1 1 0 0 1-1-1Zm15.714 0a1 1 0 0 1 1-1h7.857a1 1 0 0 1 0 2h-7.857a1 1 0 0 1-1-1Zm15.714 0a1 1 0 0 1 1-1h7.857a1 1 0 1 1 0 2h-7.857a1 1 0 0 1-1-1Zm15.714 0a1 1 0 0 1 1-1H266a1 1 0 0 1 1 1v3.889a1 1 0 0 1-2 0V21h-2.929a1 1 0 0 1-1-1ZM266 30.667a1 1 0 0 1 1 1v7.777a1 1 0 0 1-2 0v-7.777a1 1 0 0 1 1-1Zm-220 0a1 1 0 0 1 1 1v7.777a1 1 0 1 1-2 0v-7.777a1 1 0 0 1 1-1Zm220 15.555a1 1 0 0 1 1 1V55a1 1 0 0 1-2 0v-7.778a1 1 0 0 1 1-1Zm-220 0a1 1 0 0 1 1 1V55a1 1 0 1 1-2 0v-7.778a1 1 0 0 1 1-1Zm220 15.556a1 1 0 0 1 1 1v7.777a1 1 0 0 1-2 0v-7.777a1 1 0 0 1 1-1Zm-220 0a1 1 0 0 1 1 1v7.778a1 1 0 0 1-2 0v-7.778a1 1 0 0 1 1-1Zm220 15.555a1 1 0 0 1 1 1v7.778a1 1 0 0 1-2 0v-7.778a1 1 0 0 1 1-1Zm-220 0a1 1 0 0 1 1 1v7.778a1 1 0 1 1-2 0v-7.778a1 1 0 0 1 1-1ZM266 92.89a1 1 0 0 1 1 1v7.778a1 1 0 0 1-2 0V93.89a1 1 0 0 1 1-1Zm-220 0a1 1 0 0 1 1 1v7.778a1 1 0 0 1-2 0V93.89a1 1 0 0 1 1-1Zm220 15.555a1 1 0 0 1 1 1v7.778a1 1 0 1 1-2 0v-7.778a1 1 0 0 1 1-1Zm-220 0a1 1 0 0 1 1 1v7.778a1 1 0 1 1-2 0v-7.778a1 1 0 0 1 1-1ZM266 124a1 1 0 0 1 1 1v7.778a1 1 0 0 1-2 0V125a1 1 0 0 1 1-1Zm-220 0a1 1 0 0 1 1 1v7.778a1 1 0 0 1-2 0V125a1 1 0 0 1 1-1Zm220 15.556a1 1 0 0 1 1 1v7.777a1 1 0 1 1-2 0v-7.777a1 1 0 0 1 1-1Zm-220 0a1 1 0 0 1 1 1v7.777a1 1 0 1 1-2 0v-7.777a1 1 0 0 1 1-1Zm0 15.555a1 1 0 0 1 1 1V159h2.929a1 1 0 0 1 0 2H46a1 1 0 0 1-1-1v-3.889a1 1 0 0 1 1-1Zm220 0a1 1 0 0 1 1 1V160a1 1 0 0 1-1 1h-3.929a1 1 0 0 1 0-2H265v-2.889a1 1 0 0 1 1-1ZM56.786 160a1 1 0 0 1 1-1h7.857a1 1 0 0 1 0 2h-7.857a1 1 0 0 1-1-1Zm15.714 0a1 1 0 0 1 1-1h7.857a1 1 0 0 1 0 2H73.5a1 1 0 0 1-1-1Zm15.714 0a1 1 0 0 1 1-1h7.857a1 1 0 0 1 0 2h-7.857a1 1 0 0 1-1-1Zm15.715 0a1 1 0 0 1 1-1h7.857a1 1 0 0 1 0 2h-7.857a1 1 0 0 1-1-1Zm15.714 0a1 1 0 0 1 1-1h7.857a1 1 0 0 1 0 2h-7.857a1 1 0 0 1-1-1Zm15.714 0a1 1 0 0 1 1-1h7.857a1 1 0 1 1 0 2h-7.857a1 1 0 0 1-1-1Zm15.714 0a1 1 0 0 1 1-1h7.858a1 1 0 0 1 0 2h-7.858a1 1 0 0 1-1-1Zm15.715 0a1 1 0 0 1 1-1h7.857a1 1 0 0 1 0 2h-7.857a1 1 0 0 1-1-1Zm15.714 0a1 1 0 0 1 1-1h7.857a1 1 0 0 1 0 2H183.5a1 1 0 0 1-1-1Zm15.714 0a1 1 0 0 1 1-1h7.857a1 1 0 1 1 0 2h-7.857a1 1 0 0 1-1-1Zm15.715 0a1 1 0 0 1 1-1h7.857a1 1 0 0 1 0 2h-7.857a1 1 0 0 1-1-1Zm15.714 0a1 1 0 0 1 1-1h7.857a1 1 0 0 1 0 2h-7.857a1 1 0 0 1-1-1Zm15.714 0a1 1 0 0 1 1-1h7.857a1 1 0 1 1 0 2h-7.857a1 1 0 0 1-1-1Z" clip-rule="evenodd"/><rect width="8" height="40" x="242" y="36" fill="#4A4A4A" rx="4"/><rect width="100" height="8" x="62" y="36" fill="#767676" fill-opacity=".5" opacity=".8" rx="4"/><rect width="100" height="8" x="62" y="100" fill="#767676" fill-opacity=".5" opacity=".8" rx="4"/><rect width="159" height="8" x="62" y="52" fill="#767676" fill-opacity=".5" opacity=".8" rx="4"/><rect width="159" height="8" x="62" y="116" fill="#767676" fill-opacity=".5" opacity=".8" rx="4"/><rect width="159" height="8" x="62" y="68" fill="#767676" fill-opacity=".5" opacity=".8" rx="4"/><rect width="159" height="8" x="62" y="132" fill="#767676" fill-opacity=".5" opacity=".8" rx="4"/></svg>