<svg width="325" height="180" viewBox="0 0 325 180" fill="none" xmlns="http://www.w3.org/2000/svg">
<rect width="325" height="180" fill="#F4F4F4"/>
<path fill-rule="evenodd" clip-rule="evenodd" d="M51 120C51 119.448 51.4477 119 52 119H55.9285C56.4808 119 56.9285 119.448 56.9285 120C56.9285 120.552 56.4808 121 55.9285 121H53V123.333C53 123.886 52.5523 124.333 52 124.333C51.4477 124.333 51 123.886 51 123.333V120ZM62.7857 120C62.7857 119.448 63.2334 119 63.7857 119H71.6428C72.1951 119 72.6428 119.448 72.6428 120C72.6428 120.552 72.1951 121 71.6428 121H63.7857C63.2334 121 62.7857 120.552 62.7857 120ZM78.5 120C78.5 119.448 78.9477 119 79.5 119H87.3571C87.9094 119 88.3571 119.448 88.3571 120C88.3571 120.552 87.9094 121 87.3571 121H79.5C78.9477 121 78.5 120.552 78.5 120ZM94.2143 120C94.2143 119.448 94.662 119 95.2143 119H103.071C103.624 119 104.071 119.448 104.071 120C104.071 120.552 103.624 121 103.071 121H95.2143C94.662 121 94.2143 120.552 94.2143 120ZM109.929 120C109.929 119.448 110.376 119 110.929 119H118.786C119.338 119 119.786 119.448 119.786 120C119.786 120.552 119.338 121 118.786 121H110.929C110.376 121 109.929 120.552 109.929 120ZM125.643 120C125.643 119.448 126.091 119 126.643 119H134.5C135.052 119 135.5 119.448 135.5 120C135.5 120.552 135.052 121 134.5 121H126.643C126.091 121 125.643 120.552 125.643 120ZM141.357 120C141.357 119.448 141.805 119 142.357 119H150.214C150.767 119 151.214 119.448 151.214 120C151.214 120.552 150.767 121 150.214 121H142.357C141.805 121 141.357 120.552 141.357 120ZM157.071 120C157.071 119.448 157.519 119 158.071 119H165.929C166.481 119 166.929 119.448 166.929 120C166.929 120.552 166.481 121 165.929 121H158.071C157.519 121 157.071 120.552 157.071 120ZM172.786 120C172.786 119.448 173.233 119 173.786 119H181.643C182.195 119 182.643 119.448 182.643 120C182.643 120.552 182.195 121 181.643 121H173.786C173.233 121 172.786 120.552 172.786 120ZM188.5 120C188.5 119.448 188.948 119 189.5 119H197.357C197.909 119 198.357 119.448 198.357 120C198.357 120.552 197.909 121 197.357 121H189.5C188.948 121 188.5 120.552 188.5 120ZM204.214 120C204.214 119.448 204.662 119 205.214 119H213.071C213.624 119 214.071 119.448 214.071 120C214.071 120.552 213.624 121 213.071 121H205.214C204.662 121 204.214 120.552 204.214 120ZM219.929 120C219.929 119.448 220.376 119 220.929 119H228.786C229.338 119 229.786 119.448 229.786 120C229.786 120.552 229.338 121 228.786 121H220.929C220.376 121 219.929 120.552 219.929 120ZM235.643 120C235.643 119.448 236.091 119 236.643 119H244.5C245.052 119 245.5 119.448 245.5 120C245.5 120.552 245.052 121 244.5 121H236.643C236.091 121 235.643 120.552 235.643 120ZM251.357 120C251.357 119.448 251.805 119 252.357 119H260.214C260.767 119 261.214 119.448 261.214 120C261.214 120.552 260.767 121 260.214 121H252.357C251.805 121 251.357 120.552 251.357 120ZM267.071 120C267.071 119.448 267.519 119 268.071 119H272C272.552 119 273 119.448 273 120V123.333C273 123.886 272.552 124.333 272 124.333C271.448 124.333 271 123.886 271 123.333V121H268.071C267.519 121 267.071 120.552 267.071 120ZM52 129C52.5523 129 53 129.448 53 130V136.667C53 137.219 52.5523 137.667 52 137.667C51.4477 137.667 51 137.219 51 136.667V130C51 129.448 51.4477 129 52 129ZM272 129C272.552 129 273 129.448 273 130V136.667C273 137.219 272.552 137.667 272 137.667C271.448 137.667 271 137.219 271 136.667V130C271 129.448 271.448 129 272 129ZM52 142.333C52.5523 142.333 53 142.781 53 143.333V150C53 150.552 52.5523 151 52 151C51.4477 151 51 150.552 51 150V143.333C51 142.781 51.4477 142.333 52 142.333ZM272 142.333C272.552 142.333 273 142.781 273 143.333V150C273 150.552 272.552 151 272 151C271.448 151 271 150.552 271 150V143.333C271 142.781 271.448 142.333 272 142.333ZM52 155.667C52.5523 155.667 53 156.114 53 156.667V159H55.9286C56.4809 159 56.9286 159.448 56.9286 160C56.9286 160.552 56.4809 161 55.9286 161H52C51.4477 161 51 160.552 51 160V156.667C51 156.114 51.4477 155.667 52 155.667ZM272 155.667C272.552 155.667 273 156.114 273 156.667V160C273 160.552 272.552 161 272 161H268.071C267.519 161 267.071 160.552 267.071 160C267.071 159.448 267.519 159 268.071 159H271V156.667C271 156.114 271.448 155.667 272 155.667ZM62.7857 160C62.7857 159.448 63.2334 159 63.7857 159H71.6429C72.1951 159 72.6429 159.448 72.6429 160C72.6429 160.552 72.1951 161 71.6429 161H63.7857C63.2334 161 62.7857 160.552 62.7857 160ZM78.5 160C78.5 159.448 78.9477 159 79.5 159H87.3571C87.9094 159 88.3571 159.448 88.3571 160C88.3571 160.552 87.9094 161 87.3571 161H79.5C78.9477 161 78.5 160.552 78.5 160ZM94.2143 160C94.2143 159.448 94.662 159 95.2143 159H103.071C103.624 159 104.071 159.448 104.071 160C104.071 160.552 103.624 161 103.071 161H95.2143C94.662 161 94.2143 160.552 94.2143 160ZM109.929 160C109.929 159.448 110.376 159 110.929 159H118.786C119.338 159 119.786 159.448 119.786 160C119.786 160.552 119.338 161 118.786 161H110.929C110.376 161 109.929 160.552 109.929 160ZM125.643 160C125.643 159.448 126.091 159 126.643 159H134.5C135.052 159 135.5 159.448 135.5 160C135.5 160.552 135.052 161 134.5 161H126.643C126.091 161 125.643 160.552 125.643 160ZM141.357 160C141.357 159.448 141.805 159 142.357 159H150.214C150.767 159 151.214 159.448 151.214 160C151.214 160.552 150.767 161 150.214 161H142.357C141.805 161 141.357 160.552 141.357 160ZM157.071 160C157.071 159.448 157.519 159 158.071 159H165.929C166.481 159 166.929 159.448 166.929 160C166.929 160.552 166.481 161 165.929 161H158.071C157.519 161 157.071 160.552 157.071 160ZM172.786 160C172.786 159.448 173.233 159 173.786 159H181.643C182.195 159 182.643 159.448 182.643 160C182.643 160.552 182.195 161 181.643 161H173.786C173.233 161 172.786 160.552 172.786 160ZM188.5 160C188.5 159.448 188.948 159 189.5 159H197.357C197.909 159 198.357 159.448 198.357 160C198.357 160.552 197.909 161 197.357 161H189.5C188.948 161 188.5 160.552 188.5 160ZM204.214 160C204.214 159.448 204.662 159 205.214 159H213.071C213.624 159 214.071 159.448 214.071 160C214.071 160.552 213.624 161 213.071 161H205.214C204.662 161 204.214 160.552 204.214 160ZM219.929 160C219.929 159.448 220.376 159 220.929 159H228.786C229.338 159 229.786 159.448 229.786 160C229.786 160.552 229.338 161 228.786 161H220.929C220.376 161 219.929 160.552 219.929 160ZM235.643 160C235.643 159.448 236.091 159 236.643 159H244.5C245.052 159 245.5 159.448 245.5 160C245.5 160.552 245.052 161 244.5 161H236.643C236.091 161 235.643 160.552 235.643 160ZM251.357 160C251.357 159.448 251.805 159 252.357 159H260.214C260.767 159 261.214 159.448 261.214 160C261.214 160.552 260.767 161 260.214 161H252.357C251.805 161 251.357 160.552 251.357 160Z" fill="#4D4D4D"/>
<path d="M0 0V-2H-2V0H0ZM325 0H327V-2H325V0ZM325 180V182H327V180H325ZM0 180H-2V182H0V180ZM0 2H325V-2H0V2ZM323 0V180H327V0H323ZM325 178H0V182H325V178ZM2 180V0H-2V180H2Z" fill="#767676"/>
</svg>
