<svg xmlns="http://www.w3.org/2000/svg" width="312" height="180" fill="none"><path fill="#4A4A4A" fill-rule="evenodd" d="M45 115a1 1 0 0 1 1-1h3.928a1 1 0 0 1 0 2H47v2.333a1 1 0 1 1-2 0V115Zm11.786 0a1 1 0 0 1 1-1h7.857a1 1 0 0 1 0 2h-7.857a1 1 0 0 1-1-1Zm15.714 0a1 1 0 0 1 1-1h7.857a1 1 0 0 1 0 2H73.5a1 1 0 0 1-1-1Zm15.714 0a1 1 0 0 1 1-1h7.857a1 1 0 0 1 0 2h-7.857a1 1 0 0 1-1-1Zm15.715 0a1 1 0 0 1 1-1h7.857a1 1 0 0 1 0 2h-7.857a1 1 0 0 1-1-1Zm15.714 0a1 1 0 0 1 1-1h7.857a1 1 0 0 1 0 2h-7.857a1 1 0 0 1-1-1Zm15.714 0a1 1 0 0 1 1-1h7.857a1 1 0 1 1 0 2h-7.857a1 1 0 0 1-1-1Zm15.714 0a1 1 0 0 1 1-1h7.858a1 1 0 0 1 0 2h-7.858a1 1 0 0 1-1-1Zm15.715 0a1 1 0 0 1 1-1h7.857a1 1 0 0 1 0 2h-7.857a1 1 0 0 1-1-1Zm15.714 0a1 1 0 0 1 1-1h7.857a1 1 0 0 1 0 2H183.5a1 1 0 0 1-1-1Zm15.714 0a1 1 0 0 1 1-1h7.857a1 1 0 1 1 0 2h-7.857a1 1 0 0 1-1-1Zm15.715 0a1 1 0 0 1 1-1h7.857a1 1 0 0 1 0 2h-7.857a1 1 0 0 1-1-1Zm15.714 0a1 1 0 0 1 1-1h7.857a1 1 0 0 1 0 2h-7.857a1 1 0 0 1-1-1Zm15.714 0a1 1 0 0 1 1-1h7.857a1 1 0 1 1 0 2h-7.857a1 1 0 0 1-1-1Zm15.714 0a1 1 0 0 1 1-1H266a1 1 0 0 1 1 1v3.333a1 1 0 1 1-2 0V116h-2.929a1 1 0 0 1-1-1ZM46 124a1 1 0 0 1 1 1v6.667a1 1 0 0 1-2 0V125a1 1 0 0 1 1-1Zm220 0a1 1 0 0 1 1 1v6.667a1 1 0 0 1-2 0V125a1 1 0 0 1 1-1ZM46 137.333a1 1 0 0 1 1 1V145a1 1 0 0 1-2 0v-6.667a1 1 0 0 1 1-1Zm220 0a1 1 0 0 1 1 1V145a1 1 0 0 1-2 0v-6.667a1 1 0 0 1 1-1ZM46 150.667a1 1 0 0 1 1 1V154h2.929a1 1 0 0 1 0 2H46a1 1 0 0 1-1-1v-3.333a1 1 0 0 1 1-1Zm220 0a1 1 0 0 1 1 1V155a1 1 0 0 1-1 1h-3.929a1 1 0 0 1 0-2H265v-2.333a1 1 0 0 1 1-1ZM56.786 155a1 1 0 0 1 1-1h7.857a1 1 0 0 1 0 2h-7.857a1 1 0 0 1-1-1Zm15.714 0a1 1 0 0 1 1-1h7.857a1 1 0 0 1 0 2H73.5a1 1 0 0 1-1-1Zm15.714 0a1 1 0 0 1 1-1h7.857a1 1 0 0 1 0 2h-7.857a1 1 0 0 1-1-1Zm15.715 0a1 1 0 0 1 1-1h7.857a1 1 0 0 1 0 2h-7.857a1 1 0 0 1-1-1Zm15.714 0a1 1 0 0 1 1-1h7.857a1 1 0 0 1 0 2h-7.857a1 1 0 0 1-1-1Zm15.714 0a1 1 0 0 1 1-1h7.857a1 1 0 1 1 0 2h-7.857a1 1 0 0 1-1-1Zm15.714 0a1 1 0 0 1 1-1h7.858a1 1 0 0 1 0 2h-7.858a1 1 0 0 1-1-1Zm15.715 0a1 1 0 0 1 1-1h7.857a1 1 0 0 1 0 2h-7.857a1 1 0 0 1-1-1Zm15.714 0a1 1 0 0 1 1-1h7.857a1 1 0 0 1 0 2H183.5a1 1 0 0 1-1-1Zm15.714 0a1 1 0 0 1 1-1h7.857a1 1 0 1 1 0 2h-7.857a1 1 0 0 1-1-1Zm15.715 0a1 1 0 0 1 1-1h7.857a1 1 0 0 1 0 2h-7.857a1 1 0 0 1-1-1Zm15.714 0a1 1 0 0 1 1-1h7.857a1 1 0 0 1 0 2h-7.857a1 1 0 0 1-1-1Zm15.714 0a1 1 0 0 1 1-1h7.857a1 1 0 1 1 0 2h-7.857a1 1 0 0 1-1-1Z" clip-rule="evenodd"/></svg>