<svg width="325" height="180" viewBox="0 0 325 180" fill="none" xmlns="http://www.w3.org/2000/svg">
<rect width="325" height="180" fill="#F4F4F4"/>
<path fill-rule="evenodd" clip-rule="evenodd" d="M111 40C111 39.4477 111.448 39 112 39H116.167C116.719 39 117.167 39.4477 117.167 40C117.167 40.5523 116.719 41 116.167 41H113V44.1667C113 44.719 112.552 45.1667 112 45.1667C111.448 45.1667 111 44.719 111 44.1667V40ZM123.5 40C123.5 39.4477 123.948 39 124.5 39H132.833C133.386 39 133.833 39.4477 133.833 40C133.833 40.5523 133.386 41 132.833 41H124.5C123.948 41 123.5 40.5523 123.5 40ZM140.167 40C140.167 39.4477 140.614 39 141.167 39H149.5C150.052 39 150.5 39.4477 150.5 40C150.5 40.5523 150.052 41 149.5 41H141.167C140.614 41 140.167 40.5523 140.167 40ZM156.833 40C156.833 39.4477 157.281 39 157.833 39H166.167C166.719 39 167.167 39.4477 167.167 40C167.167 40.5523 166.719 41 166.167 41H157.833C157.281 41 156.833 40.5523 156.833 40ZM173.5 40C173.5 39.4477 173.948 39 174.5 39H182.833C183.386 39 183.833 39.4477 183.833 40C183.833 40.5523 183.386 41 182.833 41H174.5C173.948 41 173.5 40.5523 173.5 40ZM190.167 40C190.167 39.4477 190.614 39 191.167 39H199.5C200.052 39 200.5 39.4477 200.5 40C200.5 40.5523 200.052 41 199.5 41H191.167C190.614 41 190.167 40.5523 190.167 40ZM206.833 40C206.833 39.4477 207.281 39 207.833 39H212C212.552 39 213 39.4477 213 40V44.1667C213 44.7189 212.552 45.1667 212 45.1667C211.448 45.1667 211 44.7189 211 44.1667V41H207.833C207.281 41 206.833 40.5523 206.833 40ZM112 51.5C112.552 51.5 113 51.9477 113 52.5V60.8333C113 61.3856 112.552 61.8333 112 61.8333C111.448 61.8333 111 61.3856 111 60.8333V52.5C111 51.9477 111.448 51.5 112 51.5ZM212 51.5C212.552 51.5 213 51.9477 213 52.5V60.8333C213 61.3856 212.552 61.8333 212 61.8333C211.448 61.8333 211 61.3856 211 60.8333V52.5C211 51.9477 211.448 51.5 212 51.5ZM112 68.1667C112.552 68.1667 113 68.6144 113 69.1667V77.5C113 78.0523 112.552 78.5 112 78.5C111.448 78.5 111 78.0523 111 77.5V69.1667C111 68.6144 111.448 68.1667 112 68.1667ZM212 68.1667C212.552 68.1667 213 68.6144 213 69.1667V77.5C213 78.0523 212.552 78.5 212 78.5C211.448 78.5 211 78.0523 211 77.5V69.1667C211 68.6144 211.448 68.1667 212 68.1667ZM112 84.8333C112.552 84.8333 113 85.281 113 85.8333V94.1667C113 94.7189 112.552 95.1667 112 95.1667C111.448 95.1667 111 94.7189 111 94.1667V85.8333C111 85.281 111.448 84.8333 112 84.8333ZM212 84.8333C212.552 84.8333 213 85.2811 213 85.8333V94.1667C213 94.719 212.552 95.1667 212 95.1667C211.448 95.1667 211 94.719 211 94.1667V85.8333C211 85.2811 211.448 84.8333 212 84.8333ZM112 101.5C112.552 101.5 113 101.948 113 102.5V110.833C113 111.386 112.552 111.833 112 111.833C111.448 111.833 111 111.386 111 110.833V102.5C111 101.948 111.448 101.5 112 101.5ZM212 101.5C212.552 101.5 213 101.948 213 102.5V110.833C213 111.386 212.552 111.833 212 111.833C211.448 111.833 211 111.386 211 110.833V102.5C211 101.948 211.448 101.5 212 101.5ZM112 118.167C112.552 118.167 113 118.614 113 119.167V127.5C113 128.052 112.552 128.5 112 128.5C111.448 128.5 111 128.052 111 127.5V119.167C111 118.614 111.448 118.167 112 118.167ZM212 118.167C212.552 118.167 213 118.614 213 119.167V127.5C213 128.052 212.552 128.5 212 128.5C211.448 128.5 211 128.052 211 127.5V119.167C211 118.614 211.448 118.167 212 118.167ZM112 134.833C112.552 134.833 113 135.281 113 135.833V139H116.167C116.719 139 117.167 139.448 117.167 140C117.167 140.552 116.719 141 116.167 141H112C111.448 141 111 140.552 111 140V135.833C111 135.281 111.448 134.833 112 134.833ZM212 134.833C212.552 134.833 213 135.281 213 135.833V140C213 140.552 212.552 141 212 141H207.833C207.281 141 206.833 140.552 206.833 140C206.833 139.448 207.281 139 207.833 139H211V135.833C211 135.281 211.448 134.833 212 134.833ZM123.5 140C123.5 139.448 123.948 139 124.5 139H132.833C133.386 139 133.833 139.448 133.833 140C133.833 140.552 133.386 141 132.833 141H124.5C123.948 141 123.5 140.552 123.5 140ZM140.167 140C140.167 139.448 140.614 139 141.167 139H149.5C150.052 139 150.5 139.448 150.5 140C150.5 140.552 150.052 141 149.5 141H141.167C140.614 141 140.167 140.552 140.167 140ZM156.833 140C156.833 139.448 157.281 139 157.833 139H166.167C166.719 139 167.167 139.448 167.167 140C167.167 140.552 166.719 141 166.167 141H157.833C157.281 141 156.833 140.552 156.833 140ZM173.5 140C173.5 139.448 173.948 139 174.5 139H182.833C183.386 139 183.833 139.448 183.833 140C183.833 140.552 183.386 141 182.833 141H174.5C173.948 141 173.5 140.552 173.5 140ZM190.167 140C190.167 139.448 190.614 139 191.167 139H199.5C200.052 139 200.5 139.448 200.5 140C200.5 140.552 200.052 141 199.5 141H191.167C190.614 141 190.167 140.552 190.167 140Z" fill="#4D4D4D"/>
<path fill-rule="evenodd" clip-rule="evenodd" d="M205.6 110C205.6 110 200.57 105.874 198.8 102.714C197.031 99.5541 193.677 95.5282 194.267 93C194.857 90.4718 197.031 89.6751 198.8 91.5712C200.57 93.4673 201.762 97.5756 202.942 96.9436C204.122 96.3115 203.237 90.3071 202.057 86.8309C200.877 83.3547 199.647 76 202.057 76C204.467 76 204.467 78.4286 205.6 82.0714C206.734 85.7143 205.849 90.5714 206.734 90.5714C207.618 90.5714 207.956 89.723 207.956 88.1429C207.956 87.7134 208.035 87.3505 208.194 87.0497C208.622 86.2434 209.631 85.8828 211.267 85.8828C213.514 85.8828 212.4 90.5714 213.534 90.5714C214.667 90.5714 214.667 90.671 214.667 88.1429C214.667 85.6147 215.718 85.8828 217.985 85.8828C220.251 85.8828 219.154 90.5714 220.334 90.5714C221.513 90.5714 220.334 88.1429 221.467 88.1429C222.6 88.1429 223.734 88.5259 223.734 94.2143C223.734 99.9027 224.37 100.186 222.6 102.714C220.831 105.242 219.2 107.571 219.2 107.571C219.2 107.571 219.2 110 217.985 110C216.769 110 216.142 107.571 214.667 107.571C213.192 107.571 212.4 110 212.4 110H205.6ZM212.402 102.715C212.402 103.373 212.928 105.144 213.535 105.144C214.161 105.144 214.669 103.384 214.669 102.715V97.8582C214.669 97.2003 214.143 95.4296 213.535 95.4296C212.91 95.4296 212.402 97.1893 212.402 97.8582V102.715ZM216.936 102.715C216.936 103.373 217.462 105.144 218.069 105.144C218.695 105.144 219.203 103.384 219.203 102.715V97.8582C219.203 97.2003 218.677 95.4296 218.069 95.4296C217.443 95.4296 216.936 97.1893 216.936 97.8582V102.715ZM207.867 102.715C207.867 103.373 208.393 105.144 209 105.144C209.626 105.144 210.134 103.384 210.134 102.715V97.8582C210.134 97.2003 209.608 95.4296 209 95.4296C208.375 95.4296 207.867 97.1893 207.867 97.8582V102.715Z" fill="white"/>
<path fill-rule="evenodd" clip-rule="evenodd" d="M204.332 111.546L205.6 110H212.4C212.4 110 213.192 107.571 214.667 107.571C215.44 107.571 215.98 108.239 216.494 108.874C216.961 109.45 217.406 110 217.985 110C219.2 110 219.2 107.571 219.2 107.571L222.6 102.714C223.925 100.822 223.902 100.187 223.806 97.6018C223.774 96.7333 223.734 95.6447 223.734 94.2143C223.734 88.7029 222.67 88.1718 221.573 88.1441C221.538 88.1432 221.502 88.1429 221.467 88.1429C221.119 88.1429 220.989 88.3722 220.942 88.69C220.913 88.884 220.915 89.111 220.918 89.3388C220.924 89.952 220.929 90.5714 220.334 90.5714C219.839 90.5714 219.745 89.7479 219.635 88.7911C219.634 88.7825 219.633 88.7738 219.632 88.7651C219.574 88.2616 219.511 87.7231 219.383 87.2495C219.174 86.4807 218.794 85.8828 217.985 85.8828C217.776 85.8828 217.578 85.8806 217.39 85.8784C215.776 85.8599 214.91 85.85 214.711 87.3572C214.682 87.5832 214.667 87.8434 214.667 88.1429C214.667 88.4818 214.667 88.7735 214.664 89.0246C214.654 89.9309 214.609 90.3073 214.399 90.463C214.234 90.586 213.967 90.5714 213.534 90.5714C213.117 90.5714 213.004 89.9373 212.916 89.1354C212.905 89.0318 212.894 88.9254 212.883 88.8172C212.86 88.5971 212.837 88.3694 212.807 88.1429C212.777 87.9078 212.74 87.674 212.692 87.4507C212.504 86.5876 212.138 85.8828 211.267 85.8828C209.692 85.8828 208.699 86.2168 208.245 86.9606C208.227 86.9896 208.21 87.0193 208.194 87.0497C208.035 87.3505 207.956 87.7134 207.956 88.1429C207.956 88.4655 207.942 88.7575 207.912 89.0182C207.795 90.034 207.438 90.5714 206.734 90.5714C206.386 90.5714 206.312 89.8236 206.281 88.6949C206.276 88.5196 206.272 88.3351 206.268 88.1429C206.267 88.0696 206.266 87.9952 206.264 87.9197C206.257 87.4917 206.248 87.0297 206.231 86.5475C206.179 85.1125 206.044 83.4988 205.6 82.0714C205.362 81.3054 205.174 80.5931 205.003 79.9458C204.36 77.5146 203.96 76 202.057 76C199.647 76 200.877 83.3547 202.057 86.8309C202.898 89.3072 203.588 93.0664 203.49 95.2527C203.49 95.2543 203.49 95.2559 203.489 95.2575C203.449 96.1377 203.281 96.7621 202.942 96.9436C202.45 97.207 201.956 96.6467 201.419 95.7663C201.419 95.7661 201.419 95.7664 201.419 95.7663C201.195 95.399 200.963 94.9756 200.721 94.5336C200.152 93.4933 199.524 92.347 198.8 91.5712C197.031 89.6751 194.857 90.4718 194.267 93C193.828 94.8802 195.571 97.5889 197.221 100.154C197.789 101.038 198.347 101.904 198.8 102.714C200.57 105.874 205.6 110 205.6 110C204.332 111.546 204.332 111.547 204.332 111.546L204.331 111.546L204.313 111.53L204.265 111.491C204.224 111.457 204.165 111.408 204.091 111.345C203.942 111.22 203.73 111.039 203.471 110.812C202.954 110.36 202.244 109.723 201.475 108.982C199.988 107.547 198.096 105.551 197.055 103.691C196.648 102.964 196.141 102.172 195.58 101.301L195.528 101.219C194.995 100.391 194.42 99.4977 193.914 98.6158C193.394 97.7099 192.9 96.737 192.579 95.7688C192.264 94.8187 192.053 93.6857 192.319 92.5455C192.717 90.8397 193.761 89.2924 195.461 88.7283C197.238 88.1388 199.002 88.8556 200.262 90.2066C200.563 90.5289 200.85 90.9008 201.119 91.2915C200.873 89.9299 200.53 88.5543 200.163 87.4737C199.523 85.5883 198.882 82.7099 198.716 80.2468C198.634 79.0416 198.651 77.7441 198.947 76.6718C199.095 76.1319 199.357 75.4894 199.857 74.9557C200.411 74.3638 201.176 74 202.057 74C203.022 74 203.939 74.2537 204.716 74.8732C205.446 75.456 205.871 76.222 206.153 76.9001C206.434 77.5738 206.647 78.3446 206.84 79.0713C206.873 79.195 206.906 79.3191 206.939 79.4439C207.11 80.0907 207.286 80.7562 207.51 81.4773C207.816 82.4607 207.993 83.5015 208.097 84.4979C209.082 84.0043 210.244 83.8828 211.267 83.8828C211.918 83.8828 212.548 84.0601 213.095 84.4353C213.317 84.5882 213.507 84.7604 213.668 84.9403C213.941 84.6521 214.268 84.4175 214.646 84.245C215.294 83.9494 215.969 83.8979 216.441 83.8816C216.747 83.8711 217.129 83.8752 217.487 83.8791C217.662 83.881 217.832 83.8828 217.985 83.8828C218.635 83.8828 219.263 84.058 219.81 84.4285C220.337 84.7859 220.681 85.2516 220.907 85.6746C220.992 85.834 221.065 85.9984 221.13 86.1641C221.244 86.1495 221.357 86.1429 221.467 86.1429C221.837 86.1429 222.479 86.1663 223.15 86.4814C223.872 86.8206 224.415 87.3913 224.795 88.1133C225.469 89.394 225.734 91.3566 225.734 94.2143C225.734 95.5974 225.772 96.6508 225.804 97.5128L225.807 97.5982C225.837 98.3957 225.864 99.1216 225.827 99.7623C225.787 100.479 225.667 101.151 225.38 101.865C225.107 102.545 224.714 103.182 224.239 103.861L221.162 108.257C221.134 108.535 221.083 108.894 220.989 109.271C220.884 109.687 220.689 110.286 220.287 110.821C219.842 111.413 219.073 112 217.985 112C216.967 112 216.238 111.481 215.822 111.107C215.467 110.786 215.145 110.387 214.939 110.132C214.914 110.101 214.892 110.073 214.87 110.047C214.801 109.961 214.741 109.889 214.689 109.827C214.683 109.835 214.678 109.843 214.673 109.851C214.555 110.039 214.456 110.242 214.386 110.406C214.352 110.486 214.328 110.549 214.313 110.589C214.306 110.608 214.301 110.622 214.299 110.627L214.299 110.63L213.852 112H204.885L204.332 111.546ZM212.525 103.501C212.515 103.464 212.506 103.426 212.498 103.39C212.437 103.124 212.402 102.883 212.402 102.715V97.8582C212.402 97.6897 212.434 97.4522 212.492 97.191C212.501 97.1525 212.51 97.1136 212.52 97.0742C212.705 96.3195 213.09 95.4296 213.536 95.4296C213.966 95.4296 214.356 96.3199 214.546 97.0724C214.556 97.1099 214.565 97.1471 214.573 97.1837C214.634 97.4491 214.669 97.69 214.669 97.8582V102.715C214.669 102.884 214.637 103.121 214.579 103.382C214.57 103.421 214.561 103.46 214.551 103.499C214.366 104.254 213.981 105.144 213.536 105.144C213.105 105.144 212.715 104.254 212.525 103.501ZM217.059 103.501C217.049 103.464 217.04 103.426 217.032 103.39C216.97 103.124 216.936 102.883 216.936 102.715V97.8582C216.936 97.6897 216.968 97.4522 217.026 97.191C217.035 97.1525 217.044 97.1136 217.054 97.0742C217.239 96.3195 217.624 95.4296 218.069 95.4296C218.5 95.4296 218.89 96.3199 219.08 97.0724C219.09 97.1099 219.099 97.1471 219.107 97.1837C219.168 97.4491 219.203 97.69 219.203 97.8582V102.715C219.203 102.884 219.17 103.121 219.112 103.382C219.104 103.421 219.095 103.46 219.085 103.499C218.9 104.254 218.514 105.144 218.069 105.144C217.638 105.144 217.249 104.254 217.059 103.501ZM207.99 103.501C207.98 103.464 207.971 103.426 207.963 103.39C207.902 103.124 207.867 102.883 207.867 102.715V97.8582C207.867 97.6897 207.899 97.4522 207.957 97.191C207.966 97.1525 207.975 97.1136 207.985 97.0742C208.17 96.3195 208.555 95.4296 209.001 95.4296C209.431 95.4296 209.821 96.3199 210.011 97.0724C210.021 97.1099 210.03 97.1471 210.038 97.1837C210.1 97.4491 210.134 97.69 210.134 97.8582V102.715C210.134 102.884 210.102 103.121 210.044 103.382C210.035 103.421 210.026 103.46 210.016 103.499C209.831 104.254 209.446 105.144 209.001 105.144C208.57 105.144 208.18 104.254 207.99 103.501Z" fill="#4D4D4D"/>
<path d="M0 0V-2H-2V0H0ZM325 0H327V-2H325V0ZM325 180V182H327V180H325ZM0 180H-2V182H0V180ZM0 2H325V-2H0V2ZM323 0V180H327V0H323ZM325 178H0V182H325V178ZM2 180V0H-2V180H2Z" fill="#767676"/>
</svg>
