<svg xmlns="http://www.w3.org/2000/svg" width="312" height="180" fill="none"><path fill="#4A4A4A" fill-rule="evenodd" d="M105 40a1 1 0 0 1 1-1h4.167a1 1 0 0 1 0 2H107v3.167a1 1 0 0 1-2 0V40Zm12.5 0a1 1 0 0 1 1-1h8.333a1 1 0 1 1 0 2H118.5a1 1 0 0 1-1-1Zm16.667 0a1 1 0 0 1 1-1h8.333a1 1 0 0 1 0 2h-8.333a1 1 0 0 1-1-1Zm16.666 0a1 1 0 0 1 1-1h8.334a1 1 0 0 1 0 2h-8.334a1 1 0 0 1-1-1Zm16.667 0a1 1 0 0 1 1-1h8.333a1 1 0 1 1 0 2H168.5a1 1 0 0 1-1-1Zm16.667 0a1 1 0 0 1 1-1h8.333a1 1 0 0 1 0 2h-8.333a1 1 0 0 1-1-1Zm16.666 0a1 1 0 0 1 1-1H206a1 1 0 0 1 1 1v4.167a1 1 0 0 1-2 0V41h-3.167a1 1 0 0 1-1-1ZM106 51.5a1 1 0 0 1 1 1v8.333a1 1 0 0 1-2 0V52.5a1 1 0 0 1 1-1Zm100 0a1 1 0 0 1 1 1v8.333a1 1 0 0 1-2 0V52.5a1 1 0 0 1 1-1ZM106 68.167a1 1 0 0 1 1 1V77.5a1 1 0 0 1-2 0v-8.333a1 1 0 0 1 1-1Zm100 0a1 1 0 0 1 1 1V77.5a1 1 0 0 1-2 0v-8.333a1 1 0 0 1 1-1ZM106 84.833a1 1 0 0 1 1 1v8.334a1 1 0 0 1-2 0v-8.334a1 1 0 0 1 1-1Zm100 0a1 1 0 0 1 1 1v8.334a1 1 0 0 1-2 0v-8.334a1 1 0 0 1 1-1ZM106 101.5a1 1 0 0 1 1 1v8.333a1 1 0 1 1-2 0V102.5a1 1 0 0 1 1-1Zm100 0a1 1 0 0 1 1 1v8.333a1 1 0 1 1-2 0V102.5a1 1 0 0 1 1-1Zm-100 16.667a1 1 0 0 1 1 1v8.333a1 1 0 0 1-2 0v-8.333a1 1 0 0 1 1-1Zm100 0a1 1 0 0 1 1 1v8.333a1 1 0 0 1-2 0v-8.333a1 1 0 0 1 1-1Zm-100 16.666a1 1 0 0 1 1 1V139h3.167a1 1 0 0 1 0 2H106a1 1 0 0 1-1-1v-4.167a1 1 0 0 1 1-1Zm100 0a1 1 0 0 1 1 1V140a1 1 0 0 1-1 1h-4.167a1 1 0 0 1 0-2H205v-3.167a1 1 0 0 1 1-1ZM117.5 140a1 1 0 0 1 1-1h8.333a1 1 0 1 1 0 2H118.5a1 1 0 0 1-1-1Zm16.667 0a1 1 0 0 1 1-1h8.333a1 1 0 0 1 0 2h-8.333a1 1 0 0 1-1-1Zm16.666 0a1 1 0 0 1 1-1h8.334a1 1 0 0 1 0 2h-8.334a1 1 0 0 1-1-1Zm16.667 0a1 1 0 0 1 1-1h8.333a1 1 0 1 1 0 2H168.5a1 1 0 0 1-1-1Zm16.667 0a1 1 0 0 1 1-1h8.333a1 1 0 0 1 0 2h-8.333a1 1 0 0 1-1-1Z" clip-rule="evenodd"/><path fill="#fff" fill-rule="evenodd" d="M199.6 110s-5.03-4.126-6.8-7.286c-1.769-3.16-5.123-7.186-4.533-9.714.59-2.528 2.764-3.325 4.533-1.429 1.77 1.896 2.962 6.005 4.142 5.373 1.18-.633.295-6.637-.885-10.113s-2.41-10.831 0-10.831 2.41 2.429 3.543 6.071c1.134 3.643.249 8.5 1.134 8.5.884 0 1.222-.848 1.222-2.428 0-.43.079-.793.238-1.093.428-.807 1.437-1.167 3.073-1.167 2.247 0 1.133 4.688 2.267 4.688 1.133 0 1.133.1 1.133-2.428s1.051-2.26 3.318-2.26c2.266 0 1.169 4.688 2.349 4.688 1.179 0 0-2.428 1.133-2.428s2.267.383 2.267 6.071c0 5.689.636 5.972-1.134 8.5l-3.4 4.857s0 2.429-1.215 2.429c-1.216 0-1.843-2.429-3.318-2.429S206.4 110 206.4 110h-6.8Zm6.802-7.285c0 .658.526 2.429 1.133 2.429.626 0 1.134-1.76 1.134-2.429v-4.857c0-.658-.526-2.428-1.134-2.428-.625 0-1.133 1.76-1.133 2.428v4.857Zm4.534 0c0 .658.526 2.429 1.133 2.429.626 0 1.134-1.76 1.134-2.429v-4.857c0-.658-.526-2.428-1.134-2.428-.626 0-1.133 1.76-1.133 2.428v4.857Zm-9.069 0c0 .658.526 2.429 1.133 2.429.626 0 1.134-1.76 1.134-2.429v-4.857c0-.658-.526-2.428-1.134-2.428-.625 0-1.133 1.76-1.133 2.428v4.857Z" clip-rule="evenodd"/><path fill="#4A4A4A" fill-rule="evenodd" d="M198.332 111.546 199.6 110h6.8s.792-2.429 2.267-2.429c.773 0 1.313.668 1.827 1.303.467.576.912 1.126 1.491 1.126 1.215 0 1.215-2.429 1.215-2.429l3.4-4.857c1.325-1.892 1.302-2.527 1.206-5.112a85.77 85.77 0 0 1-.072-3.388c0-5.511-1.064-6.042-2.161-6.07l-.106-.001c-.348 0-.478.23-.525.547a4.229 4.229 0 0 0-.024.649c.005.613.011 1.232-.584 1.232-.495 0-.589-.823-.699-1.78l-.003-.026c-.058-.503-.121-1.042-.249-1.516-.209-.768-.589-1.366-1.398-1.366-.209 0-.407-.002-.595-.005-1.614-.018-2.48-.028-2.679 1.48a6.22 6.22 0 0 0-.044.785c0 .339 0 .63-.003.882-.01.906-.055 1.282-.265 1.438-.165.123-.432.108-.865.108-.417 0-.53-.634-.618-1.436l-.033-.318a29.26 29.26 0 0 0-.076-.674 8.338 8.338 0 0 0-.115-.692c-.188-.863-.554-1.568-1.425-1.568-1.575 0-2.568.334-3.022 1.078a1.446 1.446 0 0 0-.051.089c-.159.3-.238.663-.238 1.093 0 .323-.014.614-.044.875-.117 1.016-.474 1.553-1.178 1.553-.348 0-.422-.747-.453-1.876l-.013-.552-.004-.223c-.007-.428-.016-.89-.033-1.373-.052-1.434-.187-3.048-.631-4.476-.238-.766-.426-1.478-.597-2.125-.643-2.431-1.043-3.946-2.946-3.946-2.41 0-1.18 7.355 0 10.83.841 2.477 1.531 6.236 1.433 8.423l-.001.004c-.04.88-.208 1.505-.547 1.687-.492.263-.986-.297-1.523-1.178-.224-.367-.456-.79-.698-1.232-.569-1.04-1.197-2.187-1.921-2.963-1.769-1.896-3.943-1.1-4.533 1.429-.439 1.88 1.304 4.589 2.954 7.154.568.884 1.126 1.75 1.579 2.56 1.77 3.16 6.8 7.286 6.8 7.286l-1.268 1.546h-.001l-.018-.016-.048-.039-.174-.146a56.587 56.587 0 0 1-2.616-2.363c-1.487-1.435-3.379-3.431-4.42-5.291-.407-.727-.914-1.519-1.475-2.39l-.052-.082a60.907 60.907 0 0 1-1.614-2.603c-.52-.906-1.014-1.879-1.335-2.847-.315-.95-.526-2.083-.26-3.224.398-1.705 1.442-3.253 3.142-3.817 1.777-.59 3.541.128 4.801 1.479.301.322.588.694.857 1.085-.246-1.362-.589-2.738-.956-3.818-.64-1.886-1.281-4.764-1.447-7.227-.082-1.205-.065-2.503.231-3.575.148-.54.41-1.183.91-1.716a2.974 2.974 0 0 1 2.2-.956c.965 0 1.882.254 2.659.873.73.583 1.155 1.349 1.437 2.027.281.674.494 1.445.687 2.171l.099.373c.171.647.347 1.312.571 2.033.306.984.483 2.024.587 3.02.985-.493 2.147-.614 3.17-.614.651 0 1.281.177 1.828.552.222.153.412.325.573.505.272-.288.6-.522.978-.695.648-.296 1.323-.347 1.795-.363.306-.01.688-.007 1.046-.003.175.002.345.004.498.004.65 0 1.278.175 1.825.546.527.357.871.823 1.097 1.246.085.159.158.323.223.49.114-.016.227-.022.337-.022.37 0 1.012.023 1.683.338.722.34 1.264.91 1.645 1.632.674 1.281.939 3.244.939 6.101 0 1.383.038 2.437.07 3.299l.003.085c.03.798.057 1.524.02 2.164-.04.717-.16 1.389-.447 2.103-.273.68-.666 1.317-1.141 1.996l-3.078 4.396a7.105 7.105 0 0 1-.173 1.014c-.104.416-.299 1.015-.701 1.55-.445.592-1.214 1.179-2.302 1.179-1.018 0-1.747-.519-2.163-.893-.355-.321-.677-.72-.883-.975l-.069-.085a12.685 12.685 0 0 0-.181-.22l-.016.024a4.111 4.111 0 0 0-.36.738l-.014.038v.003l-.447 1.37h-8.967l-.553-.454Zm8.193-8.045a2.548 2.548 0 0 1-.027-.111 3.29 3.29 0 0 1-.096-.675v-4.857c0-.168.032-.406.09-.667l.028-.117c.185-.754.57-1.644 1.015-1.644.431 0 .821.89 1.011 1.642l.027.112c.061.265.096.506.096.674v4.857c0 .169-.032.406-.09.667l-.028.117c-.185.755-.57 1.645-1.016 1.645-.43 0-.82-.89-1.01-1.643Zm4.534 0a2.548 2.548 0 0 1-.027-.111 3.221 3.221 0 0 1-.096-.675v-4.857c0-.168.032-.406.09-.667l.028-.117c.185-.754.57-1.644 1.015-1.644.431 0 .821.89 1.011 1.642l.027.112c.061.265.096.506.096.674v4.857c0 .169-.033.406-.091.667a2.467 2.467 0 0 1-.027.117c-.185.755-.571 1.645-1.016 1.645-.431 0-.82-.89-1.01-1.643Zm-9.069 0a2.548 2.548 0 0 1-.027-.111 3.29 3.29 0 0 1-.096-.675v-4.857c0-.168.032-.406.09-.667l.028-.117c.185-.754.57-1.644 1.016-1.644.43 0 .82.89 1.01 1.642l.027.112c.061.265.096.506.096.674v4.857c0 .169-.032.406-.09.667l-.028.117c-.185.755-.57 1.645-1.015 1.645-.431 0-.821-.89-1.011-1.643Z" clip-rule="evenodd"/></svg>