<svg xmlns="http://www.w3.org/2000/svg" width="312" height="180" fill="none"><path fill="#4A4A4A" fill-rule="evenodd" d="M156.056 19.198a1 1 0 0 1 1.203.006l3.117 2.372a.999.999 0 1 1-1.211 1.592l-2.518-1.916-2.579 1.922a1 1 0 1 1-1.195-1.604l3.183-2.372Zm-8.149 7.32a1 1 0 0 1-.204 1.4l-6.366 4.744a1 1 0 1 1-1.195-1.604l6.366-4.744a1 1 0 0 1 1.399.205Zm17.302-.007a1 1 0 0 1 1.402-.19l6.234 4.743a1 1 0 1 1-1.211 1.592l-6.234-4.744a1 1 0 0 1-.191-1.401Zm-30.033 9.496a1 1 0 0 1-.204 1.4l-6.365 4.743a1 1 0 0 1-1.195-1.603l6.365-4.744a1 1 0 0 1 1.399.204Zm42.503-.008a1 1 0 0 1 1.401-.19l6.235 4.744a1 1 0 0 1-1.211 1.591l-6.235-4.744a1 1 0 0 1-.19-1.401Zm-55.233 9.496a1 1 0 0 1-.204 1.4l-6.366 4.744a1 1 0 1 1-1.195-1.604l6.365-4.744a1 1 0 0 1 1.4.204Zm67.702-.008a1 1 0 0 1 1.401-.19l6.235 4.744a1 1 0 1 1-1.211 1.592l-6.235-4.745a1 1 0 0 1-.19-1.4Zm-80.433 9.496a1 1 0 0 1-.204 1.4l-6.365 4.744a1 1 0 0 1-1.196-1.604l6.366-4.744a1 1 0 0 1 1.399.204Zm92.902-.008a1 1 0 0 1 1.402-.19l6.235 4.744a1 1 0 0 1-1.212 1.592l-6.234-4.744a1 1 0 0 1-.191-1.402ZM96.985 64.472a1 1 0 0 1-.205 1.399l-2.108 1.571 2.11 1.576a1 1 0 0 1-1.198 1.602l-3.183-2.378a1 1 0 0 1 .001-1.603l3.183-2.372a1 1 0 0 1 1.4.205Zm118.102-.008a1 1 0 0 1 1.401-.19l3.118 2.371a1 1 0 0 1 0 1.591l-3.117 2.378a1 1 0 1 1-1.213-1.59l2.074-1.582-2.073-1.577a1 1 0 0 1-.19-1.401Zm-113.34 9.513a1 1 0 0 1 1.4-.203l6.365 4.756a1 1 0 0 1-1.197 1.602l-6.366-4.756a1 1 0 0 1-.202-1.4Zm108.696-.008a1 1 0 0 1-.189 1.401l-6.234 4.756a1 1 0 0 1-1.213-1.59l6.234-4.756a1 1 0 0 1 1.402.189Zm-95.965 9.52a1 1 0 0 1 1.399-.203l6.365 4.756a1 1 0 1 1-1.197 1.602l-6.365-4.756a1 1 0 0 1-.202-1.4Zm83.496-.009a1 1 0 0 1-.189 1.402l-6.235 4.756a1 1 0 1 1-1.213-1.59l6.235-4.756a1 1 0 0 1 1.402.188ZM127.208 93a1 1 0 0 1 1.4-.203l6.365 4.756a1 1 0 1 1-1.197 1.603l-6.365-4.756a1 1 0 0 1-.203-1.4Zm58.296-.008a1 1 0 0 1-.188 1.402l-6.235 4.755a1 1 0 0 1-1.213-1.59l6.235-4.755a1 1 0 0 1 1.401.188Zm-45.565 9.52a1 1 0 0 1 1.399-.203l6.366 4.756a1 1 0 0 1-1.197 1.602l-6.366-4.756a1 1 0 0 1-.202-1.399Zm33.096-.008a1 1 0 0 1-.189 1.401l-6.234 4.756a1 1 0 1 1-1.213-1.59l6.234-4.756a1 1 0 0 1 1.402.189Zm-20.366 9.52a1 1 0 0 1 1.4-.203l2.578 1.926 2.517-1.92a1 1 0 1 1 1.213 1.59l-3.117 2.378a1 1 0 0 1-1.205.006l-3.183-2.378a1 1 0 0 1-.203-1.399Zm48.626-13.836 4.572 3.283a.999.999 0 1 1-1.167 1.624l-4.572-3.283 1.167-1.624Zm-95.528 3.29 4.453-3.283 1.187 1.61-4.454 3.283a1 1 0 0 1-1.186-1.61Zm107.849 6.787a1 1 0 0 1 1.395-.229l4.572 3.283a.998.998 0 0 1 .022 1.608l-3.147 2.394a1 1 0 1 1-1.21-1.592l2.07-1.575-3.473-2.493a1 1 0 0 1-.229-1.396Zm-115.358-.01a1 1 0 0 1-.211 1.398l-3.378 2.49 2.089 1.585a1 1 0 1 1-1.21 1.593l-3.153-2.393a1.002 1.002 0 0 1 .012-1.602l4.453-3.283a1 1 0 0 1 1.398.212Zm112.097 10.451a1 1 0 0 1-.191 1.401l-6.294 4.787a1 1 0 1 1-1.211-1.592l6.295-4.786a1 1 0 0 1 1.401.19Zm-108.693.001a1 1 0 0 1 1.402-.192l6.305 4.787a1 1 0 1 1-1.209 1.593l-6.306-4.787a1 1 0 0 1-.192-1.401Zm12.612 9.574a1 1 0 0 1 1.401-.192l6.306 4.787a1 1 0 1 1-1.209 1.593l-6.306-4.787a1 1 0 0 1-.192-1.401Zm83.493-.001a1 1 0 0 1-.191 1.401l-6.294 4.787a1 1 0 0 1-1.211-1.592l6.294-4.787a1 1 0 0 1 1.402.191Zm-70.881 9.574a1 1 0 0 1 1.401-.191l6.306 4.786a1 1 0 0 1-1.209 1.593l-6.306-4.786a1 1 0 0 1-.192-1.402Zm58.293 0a1 1 0 0 1-.191 1.401l-6.294 4.787a1 1 0 0 1-1.211-1.592l6.294-4.787a1 1 0 0 1 1.402.191Zm-45.681 9.574a1 1 0 0 1 1.401-.192l6.306 4.787a1 1 0 1 1-1.209 1.593l-6.306-4.787a1 1 0 0 1-.192-1.401Zm33.092-.001a1 1 0 0 1-.19 1.402l-6.294 4.787a1 1 0 0 1-1.211-1.592l6.294-4.787a1 1 0 0 1 1.401.19Zm-20.48 9.575a1 1 0 0 1 1.401-.192l2.548 1.934 2.542-1.933a1 1 0 1 1 1.211 1.592l-3.147 2.393a1 1 0 0 1-1.21.001l-3.153-2.394a1 1 0 0 1-.192-1.401Z" clip-rule="evenodd"/></svg>