<svg width="325" height="180" viewBox="0 0 325 180" fill="none" xmlns="http://www.w3.org/2000/svg">
<rect width="325" height="180" fill="#F4F4F4"/>
<path fill-rule="evenodd" clip-rule="evenodd" d="M162.056 19.1982C162.413 18.9317 162.904 18.9342 163.259 19.2042L166.376 21.5763C166.816 21.9107 166.901 22.5381 166.566 22.9776C166.232 23.4171 165.604 23.5023 165.165 23.1679L162.647 21.2518L160.068 23.1739C159.625 23.5039 158.999 23.4125 158.669 22.9697C158.339 22.5268 158.43 21.9003 158.873 21.5703L162.056 19.1982ZM153.907 26.5186C154.237 26.9614 154.146 27.588 153.703 27.918L147.337 32.6621C146.895 32.9922 146.268 32.9007 145.938 32.4579C145.608 32.0151 145.699 31.3886 146.142 31.0585L152.508 26.3144C152.95 25.9844 153.577 26.0758 153.907 26.5186ZM171.209 26.5106C171.544 26.0711 172.171 25.9859 172.611 26.3204L178.845 31.0645C179.285 31.399 179.37 32.0264 179.036 32.4659C178.701 32.9054 178.074 32.9906 177.634 32.6561L171.4 27.912C170.96 27.5776 170.875 26.9502 171.209 26.5106ZM141.176 36.0069C141.506 36.4497 141.415 37.0762 140.972 37.4062L134.607 42.1504C134.164 42.4804 133.537 42.389 133.207 41.9462C132.877 41.5033 132.969 40.8768 133.412 40.5468L139.777 35.8026C140.22 35.4726 140.846 35.564 141.176 36.0069ZM183.679 35.9989C184.013 35.5594 184.641 35.4742 185.08 35.8086L191.315 40.5528C191.754 40.8872 191.839 41.5146 191.505 41.9541C191.171 42.3936 190.543 42.4788 190.104 42.1444L183.869 37.4003C183.429 37.0658 183.344 36.4384 183.679 35.9989ZM128.446 45.4951C128.776 45.9379 128.684 46.5645 128.242 46.8945L121.876 51.6386C121.433 51.9687 120.807 51.8773 120.477 51.4344C120.147 50.9916 120.238 50.3651 120.681 50.035L127.046 45.2909C127.489 44.9609 128.116 45.0523 128.446 45.4951ZM196.148 45.4872C196.483 45.0476 197.11 44.9625 197.549 45.2969L203.784 50.041C204.224 50.3755 204.309 51.0029 203.974 51.4424C203.64 51.8819 203.013 51.9671 202.573 51.6326L196.338 46.8885C195.899 46.5541 195.814 45.9267 196.148 45.4872ZM115.715 54.9834C116.045 55.4262 115.954 56.0527 115.511 56.3828L109.146 61.1269C108.703 61.4569 108.076 61.3655 107.746 60.9227C107.416 60.4799 107.508 59.8533 107.95 59.5233L114.316 54.7792C114.759 54.4491 115.385 54.5406 115.715 54.9834ZM208.617 54.9754C208.952 54.5359 209.579 54.4507 210.019 54.7852L216.254 59.5293C216.693 59.8637 216.778 60.4911 216.444 60.9306C216.109 61.3702 215.482 61.4553 215.042 61.1209L208.808 56.3768C208.368 56.0423 208.283 55.4149 208.617 54.9754ZM102.984 64.4716C103.314 64.9145 103.223 65.541 102.78 65.871L100.672 67.4423L102.781 69.0181C103.224 69.3487 103.314 69.9753 102.984 70.4178C102.653 70.8602 102.027 70.9509 101.584 70.6203L98.4015 68.2424C98.1486 68.0535 97.9998 67.7563 98 67.4407C98.0002 67.1251 98.1494 66.8281 98.4024 66.6395L101.585 64.2674C102.028 63.9374 102.654 64.0288 102.984 64.4716ZM221.087 64.4637C221.421 64.0242 222.049 63.939 222.488 64.2734L225.606 66.6455C225.854 66.8345 226 67.1286 226 67.4407C226 67.7528 225.855 68.0471 225.606 68.2364L222.489 70.6143C222.05 70.9493 221.423 70.8648 221.088 70.4257C220.753 69.9866 220.837 69.3591 221.276 69.0241L223.35 67.4423L221.277 65.865C220.838 65.5306 220.752 64.9032 221.087 64.4637ZM107.747 73.9766C108.077 73.5341 108.704 73.4434 109.147 73.774L115.512 78.5299C115.954 78.8604 116.045 79.4871 115.714 79.9295C115.384 80.3719 114.757 80.4626 114.315 80.1321L107.949 75.3762C107.507 75.0456 107.416 74.419 107.747 73.9766ZM216.443 73.9686C216.778 74.4077 216.694 75.0352 216.254 75.3702L210.02 80.1261C209.581 80.461 208.953 80.3766 208.618 79.9375C208.283 79.4984 208.368 78.8708 208.807 78.5359L215.041 73.78C215.481 73.445 216.108 73.5295 216.443 73.9686ZM120.478 83.4883C120.808 83.0459 121.435 82.9552 121.877 83.2857L128.242 88.0416C128.685 88.3722 128.776 88.9988 128.445 89.4412C128.114 89.8837 127.488 89.9744 127.045 89.6438L120.68 84.8879C120.238 84.5574 120.147 83.9307 120.478 83.4883ZM203.974 83.4803C204.309 83.9194 204.224 84.547 203.785 84.8819L197.55 89.6378C197.111 89.9728 196.484 89.8883 196.149 89.4492C195.814 89.0101 195.898 88.3826 196.337 88.0476L202.572 83.2918C203.011 82.9568 203.639 83.0412 203.974 83.4803ZM133.208 93C133.539 92.5576 134.165 92.4669 134.608 92.7975L140.973 97.5534C141.416 97.8839 141.506 98.5106 141.176 98.953C140.845 99.3954 140.218 99.4861 139.776 99.1555L133.411 94.3997C132.968 94.0691 132.878 93.4425 133.208 93ZM191.504 92.9921C191.839 93.4312 191.755 94.0587 191.316 94.3937L185.081 99.1495C184.642 99.4845 184.014 99.4001 183.679 98.9609C183.345 98.5218 183.429 97.8943 183.868 97.5594L190.103 92.8035C190.542 92.4685 191.169 92.553 191.504 92.9921ZM145.939 102.512C146.269 102.069 146.896 101.979 147.338 102.309L153.704 107.065C154.146 107.396 154.237 108.022 153.906 108.465C153.576 108.907 152.949 108.998 152.507 108.667L146.141 103.911C145.699 103.581 145.608 102.954 145.939 102.512ZM179.035 102.504C179.37 102.943 179.285 103.57 178.846 103.905L172.612 108.661C172.173 108.996 171.545 108.912 171.21 108.473C170.875 108.034 170.96 107.406 171.399 107.071L177.633 102.315C178.072 101.98 178.7 102.065 179.035 102.504ZM158.669 112.024C159 111.581 159.627 111.49 160.069 111.821L162.647 113.747L165.164 111.827C165.603 111.492 166.231 111.576 166.566 112.016C166.901 112.455 166.816 113.082 166.377 113.417L163.26 115.795C162.904 116.066 162.413 116.069 162.055 115.801L158.872 113.423C158.43 113.093 158.339 112.466 158.669 112.024Z" fill="#4D4D4D"/>
<path fill-rule="evenodd" clip-rule="evenodd" d="M207.295 98.1877L211.867 101.471C212.316 101.793 212.418 102.417 212.096 102.866C211.774 103.315 211.149 103.417 210.7 103.095L206.128 99.8124L207.295 98.1877ZM111.767 101.478L116.22 98.1951L117.407 99.805L112.953 103.088C112.509 103.415 111.883 103.321 111.555 102.876C111.227 102.432 111.322 101.806 111.767 101.478ZM219.616 108.265C219.938 107.817 220.563 107.714 221.011 108.036L225.583 111.319C225.841 111.504 225.996 111.8 226 112.117C226.004 112.435 225.858 112.735 225.605 112.927L222.458 115.321C222.019 115.655 221.391 115.57 221.057 115.13C220.723 114.69 220.808 114.063 221.248 113.729L223.318 112.154L219.845 109.661C219.396 109.339 219.293 108.714 219.616 108.265ZM104.258 108.255C104.586 108.7 104.491 109.326 104.047 109.653L100.669 112.143L102.758 113.728C103.197 114.062 103.283 114.689 102.949 115.129C102.616 115.569 101.988 115.655 101.548 115.321L98.3954 112.928C98.1443 112.737 97.9978 112.439 98 112.124C98.0022 111.809 98.1529 111.513 98.4066 111.326L102.86 108.043C103.305 107.716 103.931 107.81 104.258 108.255ZM216.355 118.706C216.689 119.146 216.604 119.773 216.164 120.107L209.87 124.894C209.431 125.229 208.803 125.143 208.469 124.704C208.135 124.264 208.22 123.637 208.659 123.302L214.954 118.516C215.393 118.181 216.021 118.267 216.355 118.706ZM107.662 118.707C107.996 118.267 108.624 118.181 109.064 118.515L115.369 123.302C115.809 123.636 115.895 124.263 115.561 124.703C115.227 125.143 114.6 125.229 114.16 124.895L107.854 120.108C107.414 119.774 107.328 119.147 107.662 118.707ZM120.274 128.281C120.608 127.841 121.236 127.755 121.675 128.089L127.981 132.876C128.421 133.21 128.507 133.837 128.173 134.277C127.839 134.717 127.212 134.803 126.772 134.469L120.466 129.682C120.026 129.348 119.94 128.721 120.274 128.281ZM203.767 128.28C204.101 128.72 204.016 129.347 203.576 129.681L197.282 134.468C196.842 134.802 196.215 134.717 195.881 134.278C195.546 133.838 195.632 133.211 196.071 132.876L202.365 128.089C202.805 127.755 203.432 127.84 203.767 128.28ZM132.886 137.854C133.22 137.415 133.847 137.329 134.287 137.663L140.593 142.449C141.033 142.783 141.119 143.411 140.785 143.851C140.451 144.29 139.824 144.376 139.384 144.042L133.078 139.256C132.638 138.922 132.552 138.294 132.886 137.854ZM191.179 137.854C191.513 138.293 191.428 138.921 190.988 139.255L184.694 144.042C184.254 144.376 183.627 144.291 183.293 143.851C182.958 143.412 183.044 142.784 183.483 142.45L189.777 137.663C190.217 137.329 190.844 137.414 191.179 137.854ZM145.498 147.428C145.832 146.988 146.459 146.902 146.899 147.236L153.205 152.023C153.645 152.357 153.731 152.984 153.397 153.424C153.063 153.864 152.436 153.95 151.996 153.616L145.69 148.829C145.25 148.495 145.164 147.868 145.498 147.428ZM178.59 147.427C178.925 147.867 178.839 148.494 178.4 148.829L172.106 153.616C171.666 153.95 171.039 153.865 170.705 153.425C170.37 152.985 170.456 152.358 170.895 152.024L177.189 147.237C177.629 146.903 178.256 146.988 178.59 147.427ZM158.11 157.002C158.444 156.562 159.071 156.476 159.511 156.81L162.059 158.744L164.601 156.811C165.041 156.476 165.668 156.562 166.002 157.001C166.337 157.441 166.251 158.068 165.812 158.403L162.665 160.796C162.307 161.068 161.812 161.068 161.455 160.797L158.302 158.403C157.862 158.069 157.776 157.442 158.11 157.002Z" fill="#4D4D4D"/>
<path d="M0 0V-2H-2V0H0ZM325 0H327V-2H325V0ZM325 180V182H327V180H325ZM0 180H-2V182H0V180ZM0 2H325V-2H0V2ZM323 0V180H327V0H323ZM325 178H0V182H325V178ZM2 180V0H-2V180H2Z" fill="#767676"/>
</svg>
