<svg width="312" height="180" viewBox="0 0 312 180" fill="none" xmlns="http://www.w3.org/2000/svg">
<path d="M100 82C100 75.3726 105.373 70 112 70H257C263.627 70 269 75.3726 269 82V98C269 104.627 263.627 110 257 110H112C105.373 110 100 104.627 100 98V82Z" fill="#D7EDFF"/>
<path fill-rule="evenodd" clip-rule="evenodd" d="M127 88.25C126.516 88.25 126.125 87.8586 126.125 87.375C126.125 86.8914 126.516 86.5 127 86.5C127.484 86.5 127.875 86.8914 127.875 87.375C127.875 87.8586 127.484 88.25 127 88.25ZM127.875 92.625C127.875 93.1086 127.484 93.5 127 93.5C126.516 93.5 126.125 93.1086 126.125 92.625V89.7083C126.125 89.2247 126.516 88.8333 127 88.8333C127.484 88.8333 127.875 89.2247 127.875 89.7083V92.625ZM127 83C123.134 83 120 86.1343 120 90C120 93.8657 123.134 97 127 97C130.866 97 134 93.8657 134 90C134 86.1343 130.866 83 127 83Z" fill="#004BA9"/>
<path d="M142 90C142 87.7909 143.791 86 146 86H245C247.209 86 249 87.7909 249 90C249 92.2091 247.209 94 245 94H146C143.791 94 142 92.2091 142 90Z" fill="#004BA9"/>
<path fill-rule="evenodd" clip-rule="evenodd" d="M89 64.5C89 63.6716 89.6716 63 90.5 63L128.5 63C129.328 63 130 63.6716 130 64.5C130 65.3284 129.328 66 128.5 66L90.5 66C89.6716 66 89 65.3284 89 64.5ZM73 64.5C73 63.6716 73.6716 63 74.5 63L83.5 63C84.3284 63 85 63.6716 85 64.5C85 65.3284 84.3284 66 83.5 66L74.5 66C73.6716 66 73 65.3284 73 64.5ZM57 78.5C57 77.6716 57.6716 77 58.5 77L96.5 77C97.3284 77 98 77.6716 98 78.5C98 79.3285 97.3284 80 96.5 80L58.5 80C57.6716 80 57 79.3285 57 78.5ZM44 86.5001C44 85.6716 44.6716 85.0001 45.5 85.0001L108.5 85.0001C109.328 85.0001 110 85.6716 110 86.5001C110 87.3285 109.328 88.0001 108.5 88.0001L45.5 88.0001C44.6716 88.0001 44 87.3285 44 86.5001ZM57 94.5001C57 93.6716 57.6716 93.0001 58.5 93.0001L96.5 93.0001C97.3284 93.0001 98 93.6716 98 94.5001C98 95.3285 97.3284 96.0001 96.5 96.0001L58.5 96.0001C57.6716 96.0001 57 95.3285 57 94.5001ZM32 102.5C32 101.672 32.6716 101 33.5 101L110.5 101C111.328 101 112 101.672 112 102.5C112 103.328 111.328 104 110.5 104L33.5 104C32.6716 104 32 103.328 32 102.5ZM74 116.5C74 115.672 74.6716 115 75.5 115L105.5 115C106.328 115 107 115.672 107 116.5C107 117.328 106.328 118 105.5 118L75.5 118C74.6716 118 74 117.328 74 116.5ZM110 116.5C110 115.672 110.672 115 111.5 115H120.5C121.328 115 122 115.672 122 116.5C122 117.328 121.328 118 120.5 118H111.5C110.672 118 110 117.328 110 116.5Z" fill="#65AEF8"/>
</svg>
