<svg width="678" height="409" viewBox="0 0 678 409" fill="none" xmlns="http://www.w3.org/2000/svg">
<rect width="678" height="409" rx="16" fill="white"/>
<path d="M0 17.2681C0 7.73118 7.73119 0 17.2681 0H660.732C670.269 0 678 7.73119 678 17.2681V391.713C678 401.25 670.269 408.981 660.732 408.981H17.2681C7.73116 408.981 0 401.25 0 391.713V17.2681Z" fill="#3D3D3D"/>
<path d="M11.815 15.4504C11.815 14.6975 12.4254 14.0871 13.1783 14.0871H664.822C665.575 14.0871 666.185 14.6975 666.185 15.4504V393.985C666.185 394.738 665.575 395.349 664.822 395.349H13.1783C12.4254 395.349 11.815 394.738 11.815 393.985V15.4504Z" fill="#8F8F8F"/>
<path d="M11.815 15.4504C11.815 14.6975 12.4254 14.0871 13.1783 14.0871H664.822C665.575 14.0871 666.185 14.6975 666.185 15.4504V393.985C666.185 394.738 665.575 395.349 664.822 395.349H13.1783C12.4254 395.349 11.815 394.738 11.815 393.985V15.4504Z" fill="white"/>
<path d="M11.815 14.0871H666.185V32.2641H11.815V14.0871Z" fill="#E9E9E9"/>
<path d="M22.7212 18.6316H31.3552V27.2656H22.7212V18.6316Z" fill="white"/>
<path d="M45.8968 22.9486C45.8968 25.3329 43.964 27.2656 41.5798 27.2656C39.1955 27.2656 37.2627 25.3329 37.2627 22.9486C37.2627 20.5644 39.1955 18.6316 41.5798 18.6316C43.964 18.6316 45.8968 20.5644 45.8968 22.9486Z" fill="white"/>
<path d="M54.9853 18.6316L59.9839 27.2656H49.9866L54.9853 18.6316Z" fill="white"/>
<path d="M201.31 22.7214C201.31 20.2117 203.344 18.1772 205.854 18.1772H473.055C475.565 18.1772 477.599 20.2117 477.599 22.7214V23.6302C477.599 26.14 475.565 28.1745 473.055 28.1745H205.854C203.344 28.1745 201.31 26.14 201.31 23.6302V22.7214Z" fill="white"/>
<path d="M314.007 7.04369C314.007 5.91432 314.922 4.99878 316.052 4.99878H366.947C368.076 4.99878 368.992 5.91432 368.992 7.04369C368.992 8.17306 368.076 9.0886 366.947 9.0886H316.052C314.922 9.0886 314.007 8.17306 314.007 7.04369Z" fill="#1F1F1F"/>
<path d="M377.172 7.04369C377.172 8.17306 376.256 9.0886 375.127 9.0886C373.997 9.0886 373.082 8.17306 373.082 7.04369C373.082 5.91432 373.997 4.99878 375.127 4.99878C376.256 4.99878 377.172 5.91432 377.172 7.04369Z" fill="#1F1F1F"/>
<path d="M304.918 7.04357C304.918 8.17294 304.003 9.08847 302.873 9.08847C301.744 9.08847 300.828 8.17294 300.828 7.04357C300.828 5.91419 301.744 4.99866 302.873 4.99866C304.003 4.99866 304.918 5.91419 304.918 7.04357Z" fill="#1F1F1F"/>
<path d="M37.7171 51.1226C37.7171 55.0127 34.5636 58.1662 30.6735 58.1662C26.7834 58.1662 23.6299 55.0127 23.6299 51.1226C23.6299 47.2326 26.7834 44.0791 30.6735 44.0791C34.5636 44.0791 37.7171 47.2326 37.7171 51.1226Z" fill="#E60023"/>
<path d="M578.027 51.1226C578.027 55.0127 574.873 58.1662 570.983 58.1662C567.093 58.1662 563.94 55.0127 563.94 51.1226C563.94 47.2326 567.093 44.0791 570.983 44.0791C574.873 44.0791 578.027 47.2326 578.027 51.1226Z" fill="#767676"/>
<path d="M600.293 51.1226C600.293 55.0127 597.14 58.1662 593.25 58.1662C589.36 58.1662 586.206 55.0127 586.206 51.1226C586.206 47.2326 589.36 44.0791 593.25 44.0791C597.14 44.0791 600.293 47.2326 600.293 51.1226Z" fill="#767676"/>
<path d="M622.56 51.1226C622.56 55.0127 619.407 58.1662 615.517 58.1662C611.627 58.1662 608.473 55.0127 608.473 51.1226C608.473 47.2326 611.627 44.0791 615.517 44.0791C619.407 44.0791 622.56 47.2326 622.56 51.1226Z" fill="#767676"/>
<path d="M644.827 51.1226C644.827 55.0127 641.673 58.1662 637.783 58.1662C633.893 58.1662 630.74 55.0127 630.74 51.1226C630.74 47.2326 633.893 44.0791 637.783 44.0791C641.673 44.0791 644.827 47.2326 644.827 51.1226Z" fill="#767676"/>
<path d="M652.098 87.0221C652.098 90.9122 648.944 94.0657 645.054 94.0657C641.164 94.0657 638.011 90.9122 638.011 87.0221C638.011 83.1321 641.164 79.9785 645.054 79.9785C648.944 79.9785 652.098 83.1321 652.098 87.0221Z" fill="#767676"/>
<path d="M47.7144 50.6682C47.7144 48.284 49.6472 46.3512 52.0314 46.3512H86.1132C88.4974 46.3512 90.4302 48.284 90.4302 50.6682C90.4302 53.0524 88.4974 54.9852 86.1132 54.9852H52.0314C49.6472 54.9852 47.7144 53.0524 47.7144 50.6682Z" fill="#E9E9E9"/>
<path d="M22.7211 87.2493C22.7211 83.9867 25.366 81.3418 28.6286 81.3418H122.24C125.502 81.3418 128.147 83.9867 128.147 87.2493C128.147 90.5119 125.502 93.1568 122.24 93.1568H28.6286C25.366 93.1568 22.7211 90.5119 22.7211 87.2493Z" fill="#767676"/>
<path d="M99.5187 50.6682C99.5187 48.284 101.451 46.3512 103.836 46.3512H137.917C140.302 46.3512 142.234 48.284 142.234 50.6682C142.234 53.0524 140.302 54.9852 137.917 54.9852H103.836C101.451 54.9852 99.5187 53.0524 99.5187 50.6682Z" fill="#E9E9E9"/>
<path d="M151.323 50.6682C151.323 48.284 153.256 46.3512 155.64 46.3512H189.722C192.106 46.3512 194.039 48.284 194.039 50.6682C194.039 53.0524 192.106 54.9852 189.722 54.9852H155.64C153.256 54.9852 151.323 53.0524 151.323 50.6682Z" fill="#E9E9E9"/>
<path d="M203.127 50.6682C203.127 48.284 205.06 46.3512 207.444 46.3512H241.526C243.91 46.3512 245.843 48.284 245.843 50.6682C245.843 53.0524 243.91 54.9852 241.526 54.9852H207.444C205.06 54.9852 203.127 53.0524 203.127 50.6682Z" fill="#E9E9E9"/>
<path d="M254.932 50.6682C254.932 48.284 256.864 46.3512 259.249 46.3512H329.23C331.614 46.3512 333.547 48.284 333.547 50.6682C333.547 53.0524 331.614 54.9852 329.23 54.9852H259.249C256.864 54.9852 254.932 53.0524 254.932 50.6682Z" fill="#E9E9E9"/>
<path fill-rule="evenodd" clip-rule="evenodd" d="M665.73 68.618H12.7238V106.79H665.73V68.618ZM12.2693 68.1635V107.244H666.185V68.1635H12.2693Z" fill="#767676"/>
<path d="M427.158 84.0684C427.158 80.0528 430.413 76.7976 434.429 76.7976H488.051C492.066 76.7976 495.322 80.0528 495.322 84.0684V90.4303C495.322 94.4458 492.066 97.7011 488.051 97.7011H434.429C430.413 97.7011 427.158 94.4458 427.158 90.4303V84.0684Z" fill="#D9D9D9"/>
<path d="M498.957 84.0684C498.957 80.0528 502.212 76.7976 506.228 76.7976H623.923C627.939 76.7976 631.194 80.0528 631.194 84.0684V90.4303C631.194 94.4458 627.939 97.7011 623.923 97.7011H506.228C502.212 97.7011 498.957 94.4458 498.957 90.4303V84.0684Z" fill="#D9D9D9"/>
<path d="M24.5388 122.24C24.5388 118.224 27.794 114.969 31.8096 114.969H121.785C125.801 114.969 129.056 118.224 129.056 122.24V192.676C129.056 196.691 125.801 199.946 121.785 199.946H31.8096C27.794 199.946 24.5388 196.691 24.5388 192.676V122.24Z" fill="#E9E9E9"/>
<path d="M24.5388 266.292C24.5388 262.277 27.794 259.021 31.8096 259.021H253.114C257.129 259.021 260.385 262.277 260.385 266.292V374.445C260.385 378.461 257.129 381.716 253.114 381.716H31.8096C27.794 381.716 24.5388 378.461 24.5388 374.445V266.292Z" fill="#E9E9E9"/>
<path d="M24.5388 225.394C24.5388 221.379 27.794 218.123 31.8096 218.123H647.099C651.115 218.123 654.37 221.379 654.37 225.394V238.572C654.37 242.588 651.115 245.843 647.099 245.843H31.8095C27.794 245.843 24.5388 242.588 24.5388 238.572V225.394Z" fill="#E9E9E9"/>
<path d="M155.867 122.24C155.867 118.224 159.122 114.969 163.138 114.969H253.114C257.129 114.969 260.385 118.224 260.385 122.24V192.676C260.385 196.691 257.129 199.946 253.114 199.946H163.138C159.122 199.946 155.867 196.691 155.867 192.676V122.24Z" fill="#E9E9E9"/>
<path d="M287.196 122.24C287.196 118.224 290.451 114.969 294.466 114.969H384.442C388.458 114.969 391.713 118.224 391.713 122.24V192.676C391.713 196.691 388.458 199.946 384.442 199.946H294.466C290.451 199.946 287.196 196.691 287.196 192.676V122.24Z" fill="#E9E9E9"/>
<path d="M418.524 122.24C418.524 118.224 421.779 114.969 425.795 114.969H515.771C519.786 114.969 523.041 118.224 523.041 122.24V192.676C523.041 196.691 519.786 199.946 515.771 199.946H425.795C421.779 199.946 418.524 196.691 418.524 192.676V122.24Z" fill="#E9E9E9"/>
<path d="M549.852 122.24C549.852 118.224 553.108 114.969 557.123 114.969H647.099C651.115 114.969 654.37 118.224 654.37 122.24V192.676C654.37 196.691 651.115 199.946 647.099 199.946H557.123C553.108 199.946 549.852 196.691 549.852 192.676V122.24Z" fill="#E9E9E9"/>
<path fill-rule="evenodd" clip-rule="evenodd" d="M652.098 264.475H287.196V264.02H652.098V264.475Z" fill="#767676"/>
<path fill-rule="evenodd" clip-rule="evenodd" d="M652.098 303.555H287.196V303.101H652.098V303.555Z" fill="#767676"/>
<path fill-rule="evenodd" clip-rule="evenodd" d="M652.098 342.635H287.196V342.181H652.098V342.635Z" fill="#767676"/>
<path fill-rule="evenodd" clip-rule="evenodd" d="M652.098 381.716H287.196V381.261H652.098V381.716Z" fill="#767676"/>
<path d="M241.299 358.086C241.299 354.07 244.554 350.815 248.57 350.815H436.247C440.262 350.815 443.517 354.07 443.517 358.086V381.261C443.517 385.277 440.262 388.532 436.247 388.532H248.57C244.554 388.532 241.299 385.277 241.299 381.261V358.086Z" fill="#00261A"/>
<path d="M237.664 354.905C237.664 350.889 240.919 347.634 244.934 347.634H432.611C436.627 347.634 439.882 350.889 439.882 354.905V378.08C439.882 382.096 436.627 385.351 432.611 385.351H244.934C240.919 385.351 237.664 382.096 237.664 378.08V354.905Z" fill="#1DAD65"/>
</svg>
