<svg width="312" height="180" viewBox="0 0 312 180" fill="none" xmlns="http://www.w3.org/2000/svg">
<path d="M171 54C171 47.3726 176.373 42 183 42H263C269.627 42 275 47.3726 275 54V125C275 131.627 269.627 137 263 137H183C176.373 137 171 131.627 171 125V54Z" fill="#CCF6EE"/>
<path d="M181.281 54.6158C181.281 52.6251 182.895 51.0113 184.886 51.0113H220.932C222.922 51.0113 224.536 52.6251 224.536 54.6158V124.004C224.536 125.994 222.922 127.608 220.932 127.608H184.886C182.895 127.608 181.281 125.994 181.281 124.004V54.6158Z" fill="#4AB3BA"/>
<path d="M229.042 54.6158C229.042 52.625 230.656 51.0112 232.646 51.0112H260.582C262.572 51.0112 264.186 52.625 264.186 54.6158V71.7375C264.186 73.7282 262.572 75.342 260.582 75.342H232.646C230.656 75.342 229.042 73.7282 229.042 71.7375V54.6158Z" fill="#4AB3BA"/>
<path d="M229.042 82.1006C229.042 80.3587 230.454 78.9466 232.196 78.9466H261.032C262.774 78.9466 264.186 80.3587 264.186 82.1006C264.186 83.8425 262.774 85.2546 261.032 85.2546H232.196C230.454 85.2546 229.042 83.8425 229.042 82.1006Z" fill="#4AB3BA"/>
<path d="M229.042 92.0131C229.042 90.2712 230.454 88.8591 232.196 88.8591H261.032C262.774 88.8591 264.186 90.2712 264.186 92.0131C264.186 93.755 262.774 95.1671 261.032 95.1671H232.196C230.454 95.1671 229.042 93.755 229.042 92.0131Z" fill="#4AB3BA"/>
<path d="M229.042 101.926C229.042 100.184 230.454 98.7717 232.196 98.7717H252.021C253.763 98.7717 255.175 100.184 255.175 101.926C255.175 103.668 253.763 105.08 252.021 105.08H232.196C230.454 105.08 229.042 103.668 229.042 101.926Z" fill="#4AB3BA"/>
<path d="M38 54C38 47.3726 43.3726 42 50 42H152C158.627 42 164 47.3726 164 54V125C164 131.627 158.627 137 152 137H50C43.3726 137 38 131.627 38 125V54Z" fill="white"/>
<path d="M46.1103 108.684C46.1103 104.703 49.3379 101.475 53.3194 101.475H148.84C152.822 101.475 156.049 104.703 156.049 108.684V123.102C156.049 127.084 152.822 130.312 148.84 130.312H53.3194C49.3379 130.312 46.1103 127.084 46.1103 123.103V108.684Z" fill="#CCF6EE"/>
<path fill-rule="evenodd" clip-rule="evenodd" d="M148.84 103.277H53.3194C50.3333 103.277 47.9125 105.698 47.9125 108.684V123.103C47.9125 126.089 50.3333 128.509 53.3194 128.509H148.84C151.826 128.509 154.247 126.089 154.247 123.102V108.684C154.247 105.698 151.826 103.277 148.84 103.277ZM53.3194 101.475C49.3379 101.475 46.1103 104.703 46.1103 108.684V123.103C46.1103 127.084 49.3379 130.312 53.3194 130.312H148.84C152.822 130.312 156.049 127.084 156.049 123.102V108.684C156.049 104.703 152.822 101.475 148.84 101.475H53.3194Z" fill="#005C62"/>
<path fill-rule="evenodd" clip-rule="evenodd" d="M63.232 106.882C58.2551 106.882 54.2206 110.916 54.2206 115.893C54.2206 120.87 58.2551 124.905 63.232 124.905C68.2088 124.905 72.2434 120.87 72.2434 115.893C72.2434 110.916 68.2088 106.882 63.232 106.882ZM59.0011 116.925L62.1055 120.024L67.4628 114.676C67.8293 114.311 67.8293 113.717 67.4628 113.352C67.0964 112.986 66.5016 112.986 66.1351 113.352L62.1055 117.373L60.3288 115.6C59.9623 115.234 59.3676 115.234 59.0011 115.6C58.6346 115.966 58.6346 116.559 59.0011 116.925Z" fill="#009990"/>
<path d="M77.6502 111.388C77.6502 109.895 78.8606 108.684 80.3536 108.684H130.818C132.311 108.684 133.521 109.895 133.521 111.388C133.521 112.881 132.311 114.091 130.818 114.091H80.3536C78.8606 114.091 77.6502 112.881 77.6502 111.388Z" fill="#009990"/>
<path d="M77.6502 120.399C77.6502 118.906 78.8606 117.696 80.3536 117.696H110.091C111.584 117.696 112.795 118.906 112.795 120.399C112.795 121.892 111.584 123.103 110.091 123.103H80.3536C78.8606 123.103 77.6502 121.892 77.6502 120.399Z" fill="#009990"/>
<path d="M47.9125 54.6158C47.9125 52.625 49.5264 51.0112 51.5171 51.0112H87.5627C89.5535 51.0112 91.1673 52.625 91.1673 54.6158V89.7603C91.1673 91.751 89.5535 93.3648 87.5627 93.3648H51.5171C49.5264 93.3648 47.9125 91.751 47.9125 89.7603V54.6158Z" fill="#4AB3BA"/>
<path d="M95.673 75.342C95.673 73.3513 97.2868 71.7375 99.2776 71.7375H135.323C137.314 71.7375 138.928 73.3513 138.928 75.342V89.7603C138.928 91.751 137.314 93.3648 135.323 93.3648H99.2776C97.2868 93.3648 95.673 91.751 95.673 89.7603V75.342Z" fill="#4AB3BA"/>
<path d="M95.673 54.6158C95.673 52.625 97.2868 51.0112 99.2776 51.0112H135.323C137.314 51.0112 138.928 52.625 138.928 54.6158C138.928 56.6065 137.314 58.2204 135.323 58.2204H99.2776C97.2868 58.2204 95.673 56.6065 95.673 54.6158Z" fill="#4AB3BA"/>
<path d="M95.673 65.4295C95.673 63.4387 97.2868 61.8249 99.2776 61.8249H121.806C123.797 61.8249 125.411 63.4387 125.411 65.4295C125.411 67.4202 123.797 69.034 121.806 69.034H99.2776C97.2868 69.034 95.673 67.4202 95.673 65.4295Z" fill="#4AB3BA"/>
</svg>
