<svg width="312" height="180" viewBox="0 0 312 180" fill="none" xmlns="http://www.w3.org/2000/svg">
<path fill-rule="evenodd" clip-rule="evenodd" d="M157.24 135.893C179.628 135.893 197.777 117.743 197.777 95.3554C197.777 72.9673 179.628 54.8182 157.24 54.8182C134.852 54.8182 116.703 72.9673 116.703 95.3554C116.703 117.743 134.852 135.893 157.24 135.893ZM157.24 144C184.106 144 205.884 122.221 205.884 95.3554C205.884 68.4897 184.106 46.7107 157.24 46.7107C130.374 46.7107 108.595 68.4897 108.595 95.3554C108.595 122.221 130.374 144 157.24 144Z" fill="#550AA9"/>
<path fill-rule="evenodd" clip-rule="evenodd" d="M157.24 65.9659C159.479 65.9659 161.294 67.7808 161.294 70.0196V98.3957C161.294 99.8852 160.477 101.255 159.166 101.963L133.83 115.644C131.86 116.708 129.401 115.973 128.337 114.003C127.273 112.033 128.008 109.574 129.978 108.51L153.186 95.9777V70.0196C153.186 67.7808 155.001 65.9659 157.24 65.9659Z" fill="#550AA9"/>
<path d="M153.074 43.1074H162.983V50.314H153.074V43.1074Z" fill="#550AA9"/>
<path d="M200.654 61.764C202.378 60.7689 204.582 61.3594 205.577 63.0829L209.214 69.3823C210.209 71.1057 209.618 73.3095 207.895 74.3045L202.25 77.5637C200.526 78.5587 198.322 77.9682 197.327 76.2448L193.69 69.9453C192.695 68.2219 193.286 66.0181 195.009 65.0231L200.654 61.764Z" fill="#550AA9"/>
<path d="M148.57 37.6033C148.57 35.6133 150.183 34 152.173 34H163.884C165.874 34 167.487 35.6133 167.487 37.6033C167.487 39.5934 165.874 41.2066 163.884 41.2066H152.173C150.183 41.2066 148.57 39.5934 148.57 37.6033Z" fill="#550AA9"/>
<path d="M211.375 124.688C211.375 135.561 202.561 144.375 191.688 144.375C180.814 144.375 172 135.561 172 124.688C172 113.814 180.814 105 191.688 105C202.561 105 211.375 113.814 211.375 124.688Z" fill="#E9E4FF"/>
<path fill-rule="evenodd" clip-rule="evenodd" d="M215.875 124.688C215.875 138.046 205.046 148.875 191.688 148.875C178.329 148.875 167.5 138.046 167.5 124.688C167.5 111.329 178.329 100.5 191.688 100.5C205.046 100.5 215.875 111.329 215.875 124.688ZM191.688 144.375C202.561 144.375 211.375 135.561 211.375 124.688C211.375 113.814 202.561 105 191.688 105C180.814 105 172 113.814 172 124.688C172 135.561 180.814 144.375 191.688 144.375Z" fill="#8A39FA"/>
<path d="M189.028 118.642C189.028 120.587 187.482 122.14 185.567 122.14C183.653 122.14 182.125 120.587 182.125 118.642C182.125 116.696 183.671 115.125 185.586 115.125C187.5 115.125 189.028 116.696 189.028 118.642ZM198.914 115.125C197 115.125 195.453 116.696 195.453 118.642C195.453 120.587 197 122.14 198.914 122.14C200.829 122.14 202.375 120.568 202.375 118.642C202.375 116.715 200.829 115.125 198.914 115.125ZM182.806 129.491C182.806 134.597 186.93 138.75 192.011 138.75C197.092 138.75 201.215 134.597 201.215 129.491C201.215 124.384 182.806 124.384 182.806 129.491Z" fill="#8A39FA"/>
</svg>
