<svg width="678" height="409" viewBox="0 0 678 409" fill="none" xmlns="http://www.w3.org/2000/svg">
<rect width="678" height="409" rx="16" fill="white"/>
<path d="M0 17.2681C0 7.73118 7.73119 0 17.2681 0H660.732C670.269 0 678 7.73119 678 17.2681V391.713C678 401.25 670.269 408.981 660.732 408.981H17.2681C7.73116 408.981 0 401.25 0 391.713V17.2681Z" fill="#3D3D3D"/>
<path d="M11.815 15.4504C11.815 14.6975 12.4254 14.0871 13.1783 14.0871H664.822C665.575 14.0871 666.185 14.6975 666.185 15.4504V393.985C666.185 394.738 665.575 395.349 664.822 395.349H13.1783C12.4254 395.349 11.815 394.738 11.815 393.985V15.4504Z" fill="#8F8F8F"/>
<path d="M11.815 15.4504C11.815 14.6975 12.4254 14.0871 13.1783 14.0871H664.822C665.575 14.0871 666.185 14.6975 666.185 15.4504V393.985C666.185 394.738 665.575 395.349 664.822 395.349H13.1783C12.4254 395.349 11.815 394.738 11.815 393.985V15.4504Z" fill="white"/>
<path d="M11.815 14.0871H666.185V32.2641H11.815V14.0871Z" fill="#E9E9E9"/>
<path d="M22.7211 18.6313H31.3552V27.2654H22.7211V18.6313Z" fill="white"/>
<path d="M45.8967 22.9484C45.8967 25.3326 43.9639 27.2654 41.5797 27.2654C39.1955 27.2654 37.2627 25.3326 37.2627 22.9484C37.2627 20.5642 39.1955 18.6314 41.5797 18.6314C43.9639 18.6314 45.8967 20.5642 45.8967 22.9484Z" fill="white"/>
<path d="M54.9852 18.6314L59.9838 27.2654H49.9865L54.9852 18.6314Z" fill="white"/>
<path d="M201.31 22.7212C201.31 20.2114 203.344 18.1769 205.854 18.1769H473.055C475.565 18.1769 477.599 20.2114 477.599 22.7212V23.63C477.599 26.1397 475.565 28.1742 473.055 28.1742H205.854C203.344 28.1742 201.31 26.1397 201.31 23.63V22.7212Z" fill="white"/>
<path d="M314.007 7.04345C314.007 5.91407 314.922 4.99854 316.052 4.99854H366.947C368.076 4.99854 368.992 5.91407 368.992 7.04345C368.992 8.17282 368.076 9.08835 366.947 9.08835H316.052C314.922 9.08835 314.007 8.17282 314.007 7.04345Z" fill="#1F1F1F"/>
<path d="M377.172 7.04345C377.172 8.17282 376.256 9.08835 375.127 9.08835C373.997 9.08835 373.082 8.17282 373.082 7.04345C373.082 5.91407 373.997 4.99854 375.127 4.99854C376.256 4.99854 377.172 5.91407 377.172 7.04345Z" fill="#1F1F1F"/>
<path d="M304.918 7.04357C304.918 8.17294 304.003 9.08847 302.873 9.08847C301.744 9.08847 300.828 8.17294 300.828 7.04357C300.828 5.91419 301.744 4.99866 302.873 4.99866C304.003 4.99866 304.918 5.91419 304.918 7.04357Z" fill="#1F1F1F"/>
<path d="M37.7171 51.1226C37.7171 55.0127 34.5636 58.1662 30.6735 58.1662C26.7834 58.1662 23.6299 55.0127 23.6299 51.1226C23.6299 47.2326 26.7834 44.0791 30.6735 44.0791C34.5636 44.0791 37.7171 47.2326 37.7171 51.1226Z" fill="#E60023"/>
<path d="M578.027 51.1226C578.027 55.0127 574.873 58.1662 570.983 58.1662C567.093 58.1662 563.94 55.0127 563.94 51.1226C563.94 47.2326 567.093 44.0791 570.983 44.0791C574.873 44.0791 578.027 47.2326 578.027 51.1226Z" fill="#767676"/>
<path d="M600.293 51.1226C600.293 55.0127 597.14 58.1662 593.25 58.1662C589.36 58.1662 586.206 55.0127 586.206 51.1226C586.206 47.2326 589.36 44.0791 593.25 44.0791C597.14 44.0791 600.293 47.2326 600.293 51.1226Z" fill="#767676"/>
<path d="M622.56 51.1226C622.56 55.0127 619.407 58.1662 615.517 58.1662C611.627 58.1662 608.473 55.0127 608.473 51.1226C608.473 47.2326 611.627 44.0791 615.517 44.0791C619.407 44.0791 622.56 47.2326 622.56 51.1226Z" fill="#767676"/>
<path d="M644.827 51.1226C644.827 55.0127 641.673 58.1662 637.783 58.1662C633.893 58.1662 630.74 55.0127 630.74 51.1226C630.74 47.2326 633.893 44.0791 637.783 44.0791C641.673 44.0791 644.827 47.2326 644.827 51.1226Z" fill="#767676"/>
<path d="M652.098 141.553C652.098 145.443 648.944 148.596 645.054 148.596C641.164 148.596 638.011 145.443 638.011 141.553C638.011 137.663 641.164 134.509 645.054 134.509C648.944 134.509 652.098 137.663 652.098 141.553Z" fill="#767676"/>
<path d="M47.7144 50.6682C47.7144 48.284 49.6472 46.3512 52.0314 46.3512H86.1132C88.4974 46.3512 90.4302 48.284 90.4302 50.6682C90.4302 53.0524 88.4974 54.9852 86.1132 54.9852H52.0314C49.6472 54.9852 47.7144 53.0524 47.7144 50.6682Z" fill="#E9E9E9"/>
<path d="M22.7211 141.78C22.7211 138.518 25.366 135.873 28.6286 135.873H122.24C125.502 135.873 128.147 138.518 128.147 141.78C128.147 145.043 125.502 147.688 122.24 147.688H28.6286C25.366 147.688 22.7211 145.043 22.7211 141.78Z" fill="#767676"/>
<path d="M99.5187 50.6682C99.5187 48.284 101.451 46.3512 103.836 46.3512H137.917C140.302 46.3512 142.234 48.284 142.234 50.6682C142.234 53.0524 140.302 54.9852 137.917 54.9852H103.836C101.451 54.9852 99.5187 53.0524 99.5187 50.6682Z" fill="#E9E9E9"/>
<path d="M151.323 50.6682C151.323 48.284 153.256 46.3512 155.64 46.3512H189.722C192.106 46.3512 194.039 48.284 194.039 50.6682C194.039 53.0524 192.106 54.9852 189.722 54.9852H155.64C153.256 54.9852 151.323 53.0524 151.323 50.6682Z" fill="#E9E9E9"/>
<path d="M203.127 50.6682C203.127 48.284 205.06 46.3512 207.444 46.3512H241.526C243.91 46.3512 245.843 48.284 245.843 50.6682C245.843 53.0524 243.91 54.9852 241.526 54.9852H207.444C205.06 54.9852 203.127 53.0524 203.127 50.6682Z" fill="#E9E9E9"/>
<path d="M254.932 50.6682C254.932 48.284 256.864 46.3512 259.249 46.3512H329.23C331.614 46.3512 333.547 48.284 333.547 50.6682C333.547 53.0524 331.614 54.9852 329.23 54.9852H259.249C256.864 54.9852 254.932 53.0524 254.932 50.6682Z" fill="#E9E9E9"/>
<path fill-rule="evenodd" clip-rule="evenodd" d="M665.73 123.149H12.7238V161.32H665.73V123.149ZM12.2693 122.694V161.775H666.185V122.694H12.2693Z" fill="#767676"/>
<path d="M427.158 138.599C427.158 134.584 430.413 131.328 434.429 131.328H488.051C492.066 131.328 495.322 134.584 495.322 138.599V144.961C495.322 148.977 492.066 152.232 488.051 152.232H434.429C430.413 152.232 427.158 148.977 427.158 144.961V138.599Z" fill="#D9D9D9"/>
<path d="M498.957 138.599C498.957 134.584 502.212 131.328 506.228 131.328H623.923C627.939 131.328 631.194 134.584 631.194 138.599V144.961C631.194 148.977 627.939 152.232 623.923 152.232H506.228C502.212 152.232 498.957 148.977 498.957 144.961V138.599Z" fill="#D9D9D9"/>
<path d="M24.5388 176.771C24.5388 172.755 27.794 169.5 31.8096 169.5H121.785C125.801 169.5 129.056 172.755 129.056 176.771V247.206C129.056 251.222 125.801 254.477 121.785 254.477H31.8096C27.794 254.477 24.5388 251.222 24.5388 247.206V176.771Z" fill="#E9E9E9"/>
<path d="M24.5388 320.823C24.5388 316.808 27.794 313.552 31.8096 313.552H253.114C257.129 313.552 260.385 316.808 260.385 320.823V395.349H24.5388V320.823Z" fill="#E9E9E9"/>
<path d="M24.5388 279.925C24.5388 275.909 27.794 272.654 31.8096 272.654H647.099C651.115 272.654 654.37 275.909 654.37 279.925V293.103C654.37 297.119 651.115 300.374 647.099 300.374H31.8095C27.794 300.374 24.5388 297.119 24.5388 293.103V279.925Z" fill="#E9E9E9"/>
<path d="M155.867 176.771C155.867 172.755 159.122 169.5 163.138 169.5H253.114C257.129 169.5 260.385 172.755 260.385 176.771V247.206C260.385 251.222 257.129 254.477 253.114 254.477H163.138C159.122 254.477 155.867 251.222 155.867 247.206V176.771Z" fill="#E9E9E9"/>
<path d="M287.196 176.771C287.196 172.755 290.451 169.5 294.466 169.5H384.442C388.458 169.5 391.713 172.755 391.713 176.771V247.206C391.713 251.222 388.458 254.477 384.442 254.477H294.466C290.451 254.477 287.196 251.222 287.196 247.206V176.771Z" fill="#E9E9E9"/>
<path d="M418.524 176.771C418.524 172.755 421.779 169.5 425.795 169.5H515.771C519.786 169.5 523.041 172.755 523.041 176.771V247.206C523.041 251.222 519.786 254.477 515.771 254.477H425.795C421.779 254.477 418.524 251.222 418.524 247.206V176.771Z" fill="#E9E9E9"/>
<path d="M549.852 176.771C549.852 172.755 553.108 169.5 557.123 169.5H647.099C651.115 169.5 654.37 172.755 654.37 176.771V247.206C654.37 251.222 651.115 254.477 647.099 254.477H557.123C553.108 254.477 549.852 251.222 549.852 247.206V176.771Z" fill="#E9E9E9"/>
<path fill-rule="evenodd" clip-rule="evenodd" d="M652.098 319.005H287.196V318.551H652.098V319.005Z" fill="#767676"/>
<path fill-rule="evenodd" clip-rule="evenodd" d="M652.098 358.086H287.196V357.631H652.098V358.086Z" fill="#767676"/>
<path fill-rule="evenodd" clip-rule="evenodd" d="M652.098 397.166H287.196V396.712H652.098V397.166Z" fill="#767676"/>
<path d="M198.129 73.1622C198.129 69.1467 201.384 65.8914 205.399 65.8914H472.146C476.162 65.8914 479.417 69.1467 479.417 73.1622V104.517C479.417 108.533 476.162 111.788 472.146 111.788H205.399C201.384 111.788 198.129 108.533 198.129 104.517V73.1622Z" fill="#FF5B45"/>
</svg>
