<svg width="312" height="180" viewBox="0 0 312 180" fill="none" xmlns="http://www.w3.org/2000/svg">
<g clip-path="url(#clip0_1221_1625)">
<path d="M156.584 52.9731C158.575 51.2631 161.517 51.2631 163.508 52.9731L166.237 55.3173C167.518 56.4174 169.246 56.8432 170.891 56.4644L174.397 55.6572C176.955 55.0684 179.56 56.4353 180.528 58.8748L181.856 62.219C182.479 63.7883 183.81 64.9681 185.443 65.3974L188.923 66.3121C191.462 66.9794 193.132 69.4001 192.856 72.0102L192.478 75.5883C192.3 77.2674 192.931 78.931 194.177 80.0699L196.833 82.4971C198.771 84.2676 199.125 87.1875 197.668 89.3702L195.67 92.3625C194.732 93.7667 194.518 95.5329 195.092 97.1207L196.316 100.504C197.209 102.972 196.166 105.723 193.861 106.978L190.701 108.699C189.218 109.506 188.208 110.971 187.978 112.644L187.49 116.208C187.133 118.809 184.932 120.759 182.307 120.799L178.71 120.855C177.021 120.881 175.446 121.708 174.465 123.082L172.376 126.012C170.852 128.149 167.996 128.852 165.654 127.669L162.442 126.046C160.935 125.284 159.156 125.284 157.649 126.046L154.438 127.669C152.096 128.852 149.24 128.149 147.716 126.012L145.626 123.082C144.646 121.708 143.07 120.881 141.382 120.855L137.785 120.799C135.16 120.759 132.959 118.809 132.602 116.208L132.113 112.644C131.884 110.971 130.873 109.506 129.391 108.699L126.231 106.978C123.926 105.723 122.883 102.972 123.776 100.504L125 97.1207C125.574 95.5329 125.36 93.7667 124.422 92.3625L122.424 89.3702C120.966 87.1875 121.321 84.2676 123.258 82.4971L125.914 80.0699C127.161 78.931 127.792 77.2674 127.614 75.5883L127.235 72.0102C126.959 69.4001 128.63 66.9794 131.169 66.3121L134.648 65.3974C136.281 64.9681 137.613 63.7883 138.236 62.219L139.564 58.8748C140.532 56.4353 143.136 55.0684 145.694 55.6572L149.201 56.4644C150.846 56.8432 152.574 56.4174 153.854 55.3173L156.584 52.9731Z" fill="url(#paint0_linear_1221_1625)"/>
<circle cx="159.703" cy="90.1082" r="28.4529" fill="white"/>
<path d="M177.541 89.1855H159.8L177.541 106.918V89.1855Z" fill="#009990"/>
<path fill-rule="evenodd" clip-rule="evenodd" d="M142.06 89.1855C142.06 98.9787 150.003 106.918 159.8 106.918V89.1855H142.06Z" fill="#80CCC7"/>
<path fill-rule="evenodd" clip-rule="evenodd" d="M159.802 71.4536C150.004 71.4536 142.061 79.3925 142.061 89.1856H159.802V71.4536Z" fill="#005C62"/>
</g>
<defs>
<linearGradient id="paint0_linear_1221_1625" x1="160.046" y1="50" x2="160.046" y2="130.902" gradientUnits="userSpaceOnUse">
<stop stop-color="#009990"/>
</linearGradient>
<clipPath id="clip0_1221_1625">
<rect width="312" height="180" fill="white"/>
</clipPath>
</defs>
</svg>
