<svg width="312" height="180" viewBox="0 0 312 180" fill="none" xmlns="http://www.w3.org/2000/svg">
<g clip-path="url(#clip0_1221_1629)">
<circle cx="184.5" cy="89.5" r="23.5" fill="#005C62"/>
<path fill-rule="evenodd" clip-rule="evenodd" d="M184.5 95.2115C183.373 95.2115 182.46 96.1246 182.46 97.2514C182.46 98.3783 183.373 99.2913 184.5 99.2913C185.627 99.2913 186.54 98.3783 186.54 97.2514C186.54 96.1246 185.627 95.2115 184.5 95.2115ZM190.008 85.2158C190.008 87.1505 188.963 89.0019 187.347 89.9313C186.976 90.1451 186.416 91.0149 186.416 91.8415C186.416 92.8998 185.558 93.7566 184.5 93.7566C183.442 93.7566 182.584 92.8998 182.584 91.8415C182.584 89.7608 183.784 87.5609 185.436 86.6103C185.805 86.399 186.177 85.8523 186.177 85.2158C186.177 84.2913 185.424 83.5398 184.5 83.5398C183.575 83.5398 182.823 84.2913 182.823 85.2158C182.823 86.2741 181.966 87.1317 180.908 87.1317C179.85 87.1317 178.992 86.2741 178.992 85.2158C178.992 82.1788 181.462 79.708 184.5 79.708C187.538 79.708 190.008 82.1788 190.008 85.2158Z" fill="#F6FDF5"/>
<g clip-path="url(#clip1_1221_1629)">
<path d="M122 78L129 71L136 78L129 85L122 78Z" fill="#009990" stroke="#009990" stroke-width="4" stroke-linecap="round" stroke-linejoin="round"/>
<path d="M122 102L129 95L136 102L129 109L122 102Z" fill="#009990" stroke="#009990" stroke-width="4" stroke-linecap="round" stroke-linejoin="round"/>
<path d="M134 90L141 83L148 90L141 97L134 90Z" fill="#009990" stroke="#009990" stroke-width="4" stroke-linecap="round" stroke-linejoin="round"/>
<path d="M110 90L117 83L124 90L117 97L110 90Z" fill="#009990" stroke="#009990" stroke-width="4" stroke-linecap="round" stroke-linejoin="round"/>
</g>
</g>
<defs>
<clipPath id="clip0_1221_1629">
<rect width="312" height="180" fill="white"/>
</clipPath>
<clipPath id="clip1_1221_1629">
<rect width="48" height="48" fill="white" transform="translate(105 66)"/>
</clipPath>
</defs>
</svg>
