<svg width="312" height="180" viewBox="0 0 312 180" fill="none" xmlns="http://www.w3.org/2000/svg">
<g clip-path="url(#clip0_1606_419)">
<g clip-path="url(#clip1_1606_419)">
<rect width="312" height="180" fill="#E6FAF5"/>
</g>
<g clip-path="url(#clip2_1606_419)">
<circle cx="192" cy="97.7322" r="7.5" stroke="#26C0B4" stroke-width="3"/>
<circle cx="177.5" cy="88.2322" r="3.5" stroke="#26C0B4" stroke-width="2"/>
<path fill-rule="evenodd" clip-rule="evenodd" d="M144.869 62.8901C143.412 62.4676 142.264 61.3193 141.841 59.8635C141.791 59.6885 141.542 59.6885 141.491 59.8635C141.069 61.3193 139.921 62.4676 138.464 62.8901C138.289 62.941 138.289 63.1901 138.464 63.241C139.921 63.6635 141.069 64.8118 141.491 66.2676C141.542 66.4426 141.791 66.4426 141.841 66.2676C142.264 64.8118 143.412 63.6635 144.869 63.241C145.044 63.1901 145.044 62.941 144.869 62.8901ZM142.156 71.4426C138.332 72.551 135.319 75.5651 134.21 79.3885C134.077 79.8468 133.423 79.8468 133.29 79.3885C132.181 75.5651 129.167 72.551 125.343 71.4426C124.886 71.3093 124.886 70.6551 125.343 70.5218C129.167 69.4135 132.181 66.3993 133.29 62.576C133.423 62.1176 134.077 62.1176 134.21 62.576C135.319 66.3993 138.332 69.4135 142.156 70.5218C142.615 70.6551 142.615 71.3093 142.156 71.4426Z" fill="#26C0B4"/>
<path fill-rule="evenodd" clip-rule="evenodd" d="M155.571 99.5148L155.924 33.8565C155.933 32.2704 157.225 30.9915 158.811 31C160.398 31.0085 161.676 32.3012 161.668 33.8874L161.315 99.5457L166.267 99.5725C172.611 99.6066 177.727 104.777 177.693 111.122L181.347 149.864L154.282 149.719L154.282 131.732C154.282 130.628 153.387 129.732 152.282 129.732L148.282 129.732C147.178 129.732 146.282 130.628 146.282 131.732L146.282 149.676L135 149.615L139.049 114.876L139.071 110.914C139.105 104.57 144.276 99.4545 150.62 99.4885L155.571 99.5148ZM151 104C146.582 104 143 107.582 143 112L143 117L173 117L173 112C173 107.582 169.418 104 165 104L151 104Z" fill="#00857C"/>
</g>
</g>
<defs>
<clipPath id="clip0_1606_419">
<rect width="312" height="180" fill="white"/>
</clipPath>
<clipPath id="clip1_1606_419">
<rect width="312" height="180" fill="white"/>
</clipPath>
<clipPath id="clip2_1606_419">
<rect width="137.855" height="137.855" fill="white" transform="translate(135.372 -3) rotate(28.3077)"/>
</clipPath>
</defs>
</svg>
