<svg width="312" height="180" viewBox="0 0 312 180" fill="none" xmlns="http://www.w3.org/2000/svg">
<g clip-path="url(#clip0_1221_1626)">
<rect x="155.745" y="52.3571" width="74.2857" height="74.2857" stroke="#80CCC7" stroke-width="2.71429"/>
<rect x="80" y="51" width="77" height="77" fill="#80CCC7"/>
<path d="M189.271 96.8096H180.865V88.4042H189.271V96.8096Z" fill="#009990"/>
<path fill-rule="evenodd" clip-rule="evenodd" d="M204.401 76.6365H200.198V74.1149C200.198 72.7213 199.07 71.5933 197.676 71.5933C196.283 71.5933 195.155 72.7213 195.155 74.1149V76.6365H186.749V74.1149C186.749 72.7213 185.621 71.5933 184.228 71.5933C182.834 71.5933 181.706 72.7213 181.706 74.1149V76.6365H177.503C174.729 76.6365 172.46 78.906 172.46 81.6798V103.534C172.46 106.308 174.729 108.577 177.503 108.577H204.401C207.174 108.577 209.444 106.308 209.444 103.534V81.6798C209.444 78.906 207.174 76.6365 204.401 76.6365ZM177.503 103.534H204.401V85.042H177.503V103.534Z" fill="#009990"/>
<path d="M100 95.4395C100 96.4208 100.39 97.3619 101.084 98.0558C101.778 98.7497 102.719 99.1395 103.7 99.1395C104.681 99.1395 105.622 98.7497 106.316 98.0558C107.01 97.3619 107.4 96.4208 107.4 95.4395V91.7395H103.7C102.719 91.7395 101.778 92.1293 101.084 92.8232C100.39 93.5171 100 94.4582 100 95.4395ZM123.384 89.2605C124.365 89.2605 125.306 88.8707 126 88.1768C126.694 87.4829 127.084 86.5418 127.084 85.5605V75.7C127.084 74.7187 126.694 73.7776 126 73.0837C125.306 72.3898 124.365 72 123.384 72C122.403 72 121.462 72.3898 120.768 73.0837C120.074 73.7776 119.684 74.7187 119.684 75.7V85.5605C119.684 86.0495 119.781 86.5337 119.969 86.985C120.157 87.4364 120.433 87.8459 120.781 88.19C121.128 88.534 121.541 88.8058 121.994 88.9895C122.447 89.1733 122.932 89.2654 123.421 89.2605H123.384ZM136.926 85.5605C136.926 84.5792 136.536 83.6381 135.842 82.9442C135.148 82.2503 134.207 81.8605 133.226 81.8605C132.245 81.8605 131.304 82.2503 130.61 82.9442C129.916 83.6381 129.526 84.5792 129.526 85.5605V89.2605H133.226C133.718 89.2703 134.207 89.1819 134.665 89.0004C135.122 88.8189 135.539 88.5479 135.89 88.2033C136.242 87.8587 136.521 87.4475 136.711 86.9937C136.902 86.5399 137 86.0527 137 85.5605H136.926ZM113.579 91.7395C112.598 91.7395 111.657 92.1293 110.963 92.8232C110.269 93.5171 109.879 94.4582 109.879 95.4395V105.3C109.879 106.281 110.269 107.222 110.963 107.916C111.657 108.61 112.598 109 113.579 109C114.56 109 115.501 108.61 116.195 107.916C116.889 107.222 117.279 106.281 117.279 105.3V95.4395C117.279 94.4582 116.889 93.5171 116.195 92.8232C115.501 92.1293 114.56 91.7395 113.579 91.7395ZM123.421 101.6H119.721V105.3C119.721 106.032 119.938 106.747 120.345 107.356C120.751 107.964 121.329 108.438 122.005 108.718C122.681 108.998 123.425 109.072 124.143 108.929C124.861 108.786 125.52 108.434 126.037 107.916C126.555 107.399 126.907 106.74 127.05 106.022C127.193 105.304 127.119 104.56 126.839 103.884C126.559 103.208 126.085 102.63 125.477 102.224C124.868 101.817 124.153 101.6 123.421 101.6ZM133.3 91.7395H123.421C122.44 91.7395 121.499 92.1293 120.805 92.8232C120.111 93.5171 119.721 94.4582 119.721 95.4395C119.721 96.4208 120.111 97.3619 120.805 98.0558C121.499 98.7497 122.44 99.1395 123.421 99.1395H133.3C134.281 99.1395 135.222 98.7497 135.916 98.0558C136.61 97.3619 137 96.4208 137 95.4395C137 94.4582 136.61 93.5171 135.916 92.8232C135.222 92.1293 134.281 91.7395 133.3 91.7395ZM113.579 81.8605H103.7C102.719 81.8605 101.778 82.2503 101.084 82.9442C100.39 83.6381 100 84.5792 100 85.5605C100 86.5418 100.39 87.4829 101.084 88.1768C101.778 88.8707 102.719 89.2605 103.7 89.2605H113.579C114.56 89.2605 115.501 88.8707 116.195 88.1768C116.889 87.4829 117.279 86.5418 117.279 85.5605C117.279 84.5792 116.889 83.6381 116.195 82.9442C115.501 82.2503 114.56 81.8605 113.579 81.8605ZM113.579 72C112.598 72 111.657 72.3898 110.963 73.0837C110.269 73.7776 109.879 74.7187 109.879 75.7C109.879 76.6813 110.269 77.6224 110.963 78.3163C111.657 79.0102 112.598 79.4 113.579 79.4H117.279V75.7C117.279 74.7187 116.889 73.7776 116.195 73.0837C115.501 72.3898 114.56 72 113.579 72Z" fill="#005C62"/>
</g>
<defs>
<clipPath id="clip0_1221_1626">
<rect width="312" height="180" fill="white"/>
</clipPath>
</defs>
</svg>
