<svg width="312" height="180" viewBox="0 0 312 180" fill="none" xmlns="http://www.w3.org/2000/svg">
<g clip-path="url(#clip0_1221_1627)">
<path d="M193.792 77.3825L158.925 66.4469C157.025 65.851 154.975 65.851 153.076 66.4469L118.207 77.3825C115.264 78.3051 115.264 82.2774 118.207 83.2L124.286 85.1064C122.952 86.7895 122.132 88.8426 122.051 91.091C120.847 91.7953 119.999 93.0663 119.999 94.5835C119.999 95.959 120.709 97.1164 121.732 97.8565L118.541 112.516C118.263 113.79 119.213 115 120.492 115H127.506C128.786 115 129.736 113.79 129.458 112.516L126.267 97.8565C127.289 97.1164 127.999 95.959 127.999 94.5835C127.999 93.1071 127.191 91.8719 126.042 91.1548C126.137 89.2382 127.097 87.5436 128.628 86.4692L153.075 94.1369C154.207 94.4916 156.38 94.9344 158.923 94.1369L193.792 83.2012C196.736 82.2774 196.736 78.3064 193.792 77.3825ZM160.098 98.0402C156.532 99.158 153.493 98.5404 151.9 98.0402L133.772 92.3555L131.999 106.833C131.999 111.344 142.744 115 156 115C169.255 115 180 111.344 180 106.833L178.227 92.3542L160.098 98.0402Z" fill="#009990"/>
</g>
<defs>
<clipPath id="clip0_1221_1627">
<rect width="312" height="180" fill="white"/>
</clipPath>
</defs>
</svg>
