<svg width="24" height="24" viewBox="0 0 24 24" xmlns="http://www.w3.org/2000/svg"><path fill="#B4B4B5" d="M17.83,17.83 C17.46,18.19 16.98,18.38 16.50,18.38 C16.02,18.38 15.54,18.19 15.17,17.83 L10.13,12.78 L10.13,6.00 C10.13,4.96 10.96,4.13 12.00,4.13 C13.04,4.13 13.88,4.96 13.88,6.00 L13.88,11.22 L17.83,15.17 C18.56,15.91 18.56,17.09 17.83,17.83 M12.00,0.00 C5.37,0.00 0.00,5.37 0.00,12.00 C0.00,18.63 5.37,24.00 12.00,24.00 C18.63,24.00 24.00,18.63 24.00,12.00 C24.00,5.37 18.63,0.00 12.00,0.00"/></svg>
