<svg width="24" height="24" viewBox="0 0 24 24" xmlns="http://www.w3.org/2000/svg"><path fill="#B5B5B5" d="M16.46,10.88 C15.54,10.88 14.79,10.13 14.79,9.21 C14.79,8.28 15.54,7.53 16.46,7.53 C17.39,7.53 18.14,8.28 18.14,9.21 C18.14,10.13 17.39,10.88 16.46,10.88 M12.02,20.71 C9.08,20.71 6.64,18.75 6.67,15.81 C6.68,13.69 8.39,15.27 12.00,15.26 C15.60,15.25 17.32,13.62 17.32,15.81 C17.33,18.76 14.97,20.71 12.02,20.71 M6.09,9.21 C6.09,8.28 6.84,7.53 7.77,7.53 C8.69,7.53 9.44,8.28 9.44,9.21 C9.44,10.13 8.69,10.88 7.77,10.88 C6.84,10.88 6.09,10.13 6.09,9.21 M24.00,11.99 C23.99,5.37 18.62,0.00 12.00,0.00 C5.37,0.00 0.00,5.37 0.00,12.00 C0.00,18.63 5.37,24.00 12.00,24.00 C18.62,24.00 23.99,18.63 24.00,12.01 C24.00,12.01 24.00,12.00 24.00,12.00 C24.00,12.00 24.00,11.99 24.00,11.99"/></svg>
