<svg width="24" height="24" viewBox="0 0 24 24" xmlns="http://www.w3.org/2000/svg"><path fill="#B5B5B5" d="M16.63,24.00 L16.63,14.74 L19.73,14.74 C19.89,13.51 20.04,12.32 20.21,11.08 C20.04,11.06 19.89,11.04 19.75,11.04 C18.82,11.03 17.90,11.02 16.97,11.04 C16.68,11.04 16.59,10.95 16.60,10.66 C16.63,9.84 16.60,9.02 16.67,8.20 C16.74,7.49 17.18,7.12 17.91,7.08 C18.59,7.05 19.27,7.05 19.96,7.06 C20.24,7.06 20.34,6.97 20.34,6.68 C20.32,5.80 20.33,4.92 20.33,4.04 C20.33,3.88 20.35,3.72 20.10,3.70 C18.74,3.58 17.38,3.40 16.03,3.75 C14.24,4.20 13.17,5.40 12.91,7.20 C12.75,8.29 12.81,9.41 12.78,10.52 C12.76,11.03 12.77,11.03 12.26,11.03 C11.51,11.03 10.75,11.04 10.00,11.03 C9.71,11.02 9.62,11.12 9.62,11.41 C9.64,12.41 9.63,13.40 9.62,14.40 C9.62,14.65 9.70,14.74 9.96,14.74 C10.78,14.72 11.60,14.74 12.43,14.73 C12.67,14.72 12.78,14.77 12.78,15.05 C12.77,17.93 12.77,20.81 12.78,23.70 C12.78,23.91 12.71,24.00 12.48,24.00 C8.75,23.99 5.02,24.00 1.29,23.99 C0.58,23.99 0.03,23.42 0.01,22.71 C-0.01,22.32 0.00,21.94 0.00,21.56 C0.00,14.88 0.00,8.20 0.00,1.51 C0.00,0.51 0.52,0.00 1.52,0.00 C8.51,-0.00 15.51,-0.00 22.50,0.00 C23.48,0.00 24.00,0.52 24.00,1.50 C24.00,8.50 24.00,15.51 24.00,22.52 C24.00,23.47 23.47,24.00 22.52,24.00 C20.69,24.00 18.86,24.00 17.03,24.00 L16.63,24.00 Z"/></svg>
