<svg width="24" height="24" viewBox="0 0 24 24" xmlns="http://www.w3.org/2000/svg"><path fill="#B5B5B5" d="M18.00,19.00 C18.55,19.00 19.00,18.55 19.00,18.00 L19.00,14.00 L14.00,14.00 L14.00,19.00 L18.00,19.00 Z M18.00,24.00 L14.00,24.00 L14.00,14.00 L24.00,14.00 L24.00,18.00 C24.00,21.31 21.31,24.00 18.00,24.00 L18.00,24.00 Z M6.00,19.00 L10.00,19.00 L10.00,14.00 L5.00,14.00 L5.00,18.00 C5.00,18.55 5.45,19.00 6.00,19.00 L6.00,19.00 Z M6.00,24.00 C2.69,24.00 0.00,21.31 0.00,18.00 L0.00,14.00 L10.00,14.00 L10.00,24.00 L6.00,24.00 Z M18.00,5.00 L14.00,5.00 L14.00,10.00 L19.00,10.00 L19.00,6.00 C19.00,5.45 18.55,5.00 18.00,5.00 L18.00,5.00 Z M18.00,0.00 C21.31,0.00 24.00,2.69 24.00,6.00 L24.00,10.00 L14.00,10.00 L14.00,0.00 L18.00,0.00 Z M6.00,5.00 C5.45,5.00 5.00,5.45 5.00,6.00 L5.00,10.00 L10.00,10.00 L10.00,5.00 L6.00,5.00 Z M6.00,0.00 L10.00,0.00 L10.00,10.00 L0.00,10.00 L0.00,6.00 C0.00,2.69 2.69,0.00 6.00,0.00 L6.00,0.00 Z"/></svg>
