<svg width="24" height="24" viewBox="0 0 24 24" xmlns="http://www.w3.org/2000/svg"><path fill="#B5B5B5" d="M15.49,20.83 C16.36,18.82 16.86,16.08 16.97,13.25 L21.41,13.25 C20.95,16.71 18.63,19.58 15.49,20.83 L15.49,20.83 Z M2.59,13.25 L7.03,13.25 C7.14,16.08 7.64,18.82 8.52,20.83 C5.37,19.58 3.05,16.71 2.59,13.25 L2.59,13.25 Z M8.52,3.17 C7.64,5.18 7.14,7.92 7.03,10.75 L2.59,10.75 C3.05,7.29 5.37,4.42 8.52,3.17 L8.52,3.17 Z M9.53,10.75 C9.76,5.43 11.40,2.54 12.00,2.50 L12.01,2.50 C12.68,2.56 14.25,5.51 14.47,10.75 L9.53,10.75 Z M12.01,21.50 C12.01,21.50 12.01,21.50 12.00,21.50 C11.40,21.46 9.76,18.57 9.53,13.25 L14.47,13.25 C14.25,18.49 12.68,21.44 12.01,21.50 L12.01,21.50 Z M21.41,10.75 L16.97,10.75 C16.86,7.92 16.36,5.18 15.49,3.17 C18.63,4.42 20.95,7.29 21.41,10.75 L21.41,10.75 Z M24.00,12.00 C24.00,5.39 18.62,0.01 12.01,0.00 C12.01,0.00 12.01,0.00 12.01,0.00 L12.00,0.00 L12.00,0.00 C5.38,0.00 0.00,5.38 0.00,12.00 C0.00,18.62 5.38,24.00 12.00,24.00 L12.00,24.00 L12.01,24.00 C12.01,24.00 12.01,24.00 12.01,24.00 C18.62,24.00 24.00,18.61 24.00,12.00 L24.00,12.00 Z"/></svg>
