<svg width="24" height="24" viewBox="0 0 24 24" xmlns="http://www.w3.org/2000/svg"><path fill="#B5B5B5" d="M15.00,10.50 C14.17,10.50 13.50,9.83 13.50,9.00 C13.50,8.17 14.17,7.50 15.00,7.50 C15.83,7.50 16.50,8.17 16.50,9.00 C16.50,9.83 15.83,10.50 15.00,10.50 M15.00,16.50 C14.17,16.50 13.50,15.83 13.50,15.00 C13.50,14.17 14.17,13.50 15.00,13.50 C15.83,13.50 16.50,14.17 16.50,15.00 C16.50,15.83 15.83,16.50 15.00,16.50 M9.00,10.50 C8.17,10.50 7.50,9.83 7.50,9.00 C7.50,8.17 8.17,7.50 9.00,7.50 C9.83,7.50 10.50,8.17 10.50,9.00 C10.50,9.83 9.83,10.50 9.00,10.50 M9.00,16.50 C8.17,16.50 7.50,15.83 7.50,15.00 C7.50,14.17 8.17,13.50 9.00,13.50 C9.83,13.50 10.50,14.17 10.50,15.00 C10.50,15.83 9.83,16.50 9.00,16.50 M12.00,0.00 C5.37,0.00 0.00,5.37 0.00,12.00 C0.00,18.63 5.37,24.00 12.00,24.00 C18.63,24.00 24.00,18.63 24.00,12.00 C24.00,5.37 18.63,0.00 12.00,0.00"/></svg>
