<svg width="24" height="24" viewBox="0 0 24 24" xmlns="http://www.w3.org/2000/svg" ><path fill="#B5B5B5" d="M20.00,8.00 C20.00,10.23 19.09,12.24 17.61,13.70 L17.63,13.70 C16.64,14.67 16.03,16.01 16.00,17.50 L16.00,17.50 L16.00,19.00 L8.00,19.00 L8.00,17.50 L8.00,17.50 C7.97,16.00 7.35,14.65 6.36,13.67 C4.90,12.22 4.00,10.22 4.00,8.00 C4.00,3.58 7.58,0.00 12.00,0.00 C16.42,0.00 20.00,3.58 20.00,8.00 Z M8.00,22.50 L8.00,21.00 L16.00,21.00 L16.00,22.50 C16.00,23.33 15.33,24.00 14.50,24.00 L9.50,24.00 C8.67,24.00 8.00,23.33 8.00,22.50 Z"/></svg>
