<svg width="24" height="24" viewBox="0 0 24 24" xmlns="http://www.w3.org/2000/svg"><path fill="#B5B5B5" d="M21.00,15.05 C22.10,15.05 23.00,15.95 23.00,17.05 L23.00,21.00 C23.00,22.10 22.10,23.00 21.00,23.00 L3.00,23.00 C1.90,23.00 1.00,22.10 1.00,21.00 L1.00,3.00 C1.00,1.90 1.90,1.00 3.00,1.00 L7.00,1.00 C8.10,1.00 9.00,1.90 9.00,3.00 C9.00,4.11 8.10,5.00 7.00,5.00 L5.00,5.00 L5.00,19.00 L19.00,19.00 L19.00,17.05 C19.00,15.95 19.90,15.05 21.00,15.05 Z M12.00,14.00 C11.49,14.00 10.98,13.80 10.59,13.41 C9.80,12.63 9.80,11.37 10.59,10.59 L16.16,5.00 L14.00,5.01 L14.00,5.01 C12.90,5.01 12.00,4.11 12.00,3.01 C12.00,1.90 12.89,1.01 14.00,1.01 L20.99,1.00 L21.00,1.00 L22.99,1.00 L22.99,3.00 L22.99,3.00 L23.00,10.00 C23.00,11.10 22.11,12.00 21.00,12.00 L21.00,12.00 C19.90,12.00 19.00,11.11 19.00,10.00 L19.00,7.83 L13.41,13.41 C13.02,13.80 12.51,14.00 12.00,14.00 Z"/></svg>
