<svg width="24" height="24" viewBox="0 0 24 24" xmlns="http://www.w3.org/2000/svg"><path fill="#B5B5B5" d="M0.00,12.00 C0.00,17.12 3.21,21.50 7.73,23.22 C7.62,22.28 7.50,20.74 7.75,19.65 C7.97,18.72 9.16,13.71 9.16,13.71 C9.16,13.71 8.80,13.00 8.80,11.94 C8.80,10.28 9.76,9.04 10.96,9.04 C11.98,9.04 12.47,9.80 12.47,10.72 C12.47,11.75 11.82,13.28 11.48,14.70 C11.20,15.89 12.08,16.86 13.25,16.86 C15.37,16.86 17.01,14.62 17.01,11.39 C17.01,8.53 14.95,6.53 12.02,6.53 C8.62,6.53 6.62,9.08 6.62,11.71 C6.62,12.74 7.02,13.84 7.51,14.44 C7.61,14.56 7.62,14.66 7.59,14.78 C7.50,15.16 7.30,15.97 7.26,16.14 C7.21,16.35 7.09,16.40 6.86,16.30 C5.37,15.60 4.44,13.42 4.44,11.67 C4.44,7.90 7.18,4.44 12.33,4.44 C16.48,4.44 19.70,7.39 19.70,11.34 C19.70,15.46 17.10,18.77 13.50,18.77 C12.29,18.77 11.15,18.14 10.76,17.40 C10.76,17.40 10.16,19.68 10.02,20.24 C9.73,21.32 8.95,22.69 8.47,23.47 C9.58,23.82 10.77,24.00 12.00,24.00 C18.63,24.00 24.00,18.63 24.00,12.00 C24.00,5.37 18.63,0.00 12.00,0.00 C5.37,0.00 0.00,5.37 0.00,12.00"/></svg>
