<svg width="24" height="24" viewBox="0 0 24 24" xmlns="http://www.w3.org/2000/svg"><path fill="#B5B5B5" d="M18.00,12.50 C17.17,12.50 16.50,11.83 16.50,11.00 C16.50,10.17 17.17,9.50 18.00,9.50 C18.83,9.50 19.50,10.17 19.50,11.00 C19.50,11.83 18.83,12.50 18.00,12.50 M12.00,12.50 C11.17,12.50 10.50,11.83 10.50,11.00 C10.50,10.17 11.17,9.50 12.00,9.50 C12.83,9.50 13.50,10.17 13.50,11.00 C13.50,11.83 12.83,12.50 12.00,12.50 M6.00,12.50 C5.17,12.50 4.50,11.83 4.50,11.00 C4.50,10.17 5.17,9.50 6.00,9.50 C6.83,9.50 7.50,10.17 7.50,11.00 C7.50,11.83 6.83,12.50 6.00,12.50 M12.00,0.00 C5.92,0.00 1.00,4.92 1.00,11.00 C1.00,13.65 1.94,16.09 3.50,17.99 L2.00,24.00 L7.34,20.95 C8.75,21.62 10.33,22.00 12.00,22.00 C18.07,22.00 23.00,17.07 23.00,11.00 C23.00,4.92 18.07,0.00 12.00,0.00"/></svg>
