<svg width="24" height="24" viewBox="0 0 24 24" fill="none" xmlns="http://www.w3.org/2000/svg">
<path d="M6.3941 11.57L8.2341 10.22V8.95H3.4541V10.3H6.2841L4.1841 11.75L4.6941 12.78C5.0341 12.57 5.3641 12.48 5.7841 12.48C6.5041 12.48 7.0041 12.95 7.0041 13.64C7.0041 14.38 6.5041 14.84 5.7341 14.84C5.0641 14.84 4.6341 14.51 4.4641 13.86L3.1141 14.46C3.3741 15.53 4.3541 16.14 5.8241 16.14C7.3741 16.14 8.5041 15.14 8.5041 13.76C8.5041 12.42 7.7241 11.62 6.3941 11.57Z" fill="black"/>
<path fill-rule="evenodd" clip-rule="evenodd" d="M14.3811 13.69C14.3811 12.27 13.3611 11.37 12.0311 11.37C11.2211 11.37 10.6411 11.7 10.3611 12.25C10.4311 10.86 10.9511 10.14 11.9211 10.14C12.4911 10.14 12.9211 10.43 13.2111 10.87L14.4011 9.98C14.0111 9.28 13.0611 8.81 11.9311 8.81C10.1411 8.81 8.87113 10.13 8.87113 12.53C8.87113 14.77 9.97113 16.14 11.7311 16.14C13.3411 16.14 14.3811 15.07 14.3811 13.69ZM12.8811 13.76C12.8811 14.45 12.3611 14.9 11.6711 14.9C10.9811 14.9 10.4611 14.45 10.4611 13.76C10.4611 13.06 10.9811 12.61 11.6711 12.61C12.3611 12.61 12.8811 13.06 12.8811 13.76Z" fill="black"/>
<path fill-rule="evenodd" clip-rule="evenodd" d="M14.7286 12.47C14.7286 14.77 15.8286 16.14 17.6586 16.14C19.4986 16.14 20.5886 14.77 20.5886 12.47C20.5886 10.18 19.4986 8.81 17.6586 8.81C15.8286 8.81 14.7286 10.18 14.7286 12.47ZM19.0886 12.47C19.0886 13.93 18.5486 14.79 17.6586 14.79C16.7686 14.79 16.2386 13.93 16.2386 12.47C16.2386 11.02 16.7686 10.16 17.6586 10.16C18.5486 10.16 19.0886 11.02 19.0886 12.47Z" fill="black"/>
<path fill-rule="evenodd" clip-rule="evenodd" d="M0 7C0 4.79086 1.79086 3 4 3H20C22.2091 3 24 4.79086 24 7V17C24 19.2091 22.2091 21 20 21H4C1.79086 21 0 19.2091 0 17V7ZM4 5H20C21.1046 5 22 5.89543 22 7V17C22 18.1046 21.1046 19 20 19H4C2.89543 19 2 18.1046 2 17V7C2 5.89543 2.89543 5 4 5Z" fill="black"/>
</svg>
