<svg width="24" height="24" viewBox="0 0 24 24" fill="none" xmlns="http://www.w3.org/2000/svg">
<path d="M18.0012 4C16.3293 2.74359 14.252 2 12 2C6.47715 2 2 6.47715 2 12H0C0 5.37258 5.37258 0 12 0C14.6121 0 17.0301 0.835354 19 2.25225V0H21V6H15.0006L15 4H18.0012Z" fill="black"/>
<path d="M5.99885 20C7.67073 21.2564 9.74803 22 12 22C17.5228 22 22 17.5228 22 12H24C24 18.6274 18.6274 24 12 24C9.38788 24 6.96994 23.1646 5 21.7477V24H3V18H8.99939L8.99996 20H5.99885Z" fill="black"/>
<path d="M9.00617 11.127L11.0302 9.642V8.245H5.77217V9.73H8.88517L6.57517 11.325L7.13617 12.458C7.51017 12.227 7.87317 12.128 8.33517 12.128C9.12717 12.128 9.67717 12.645 9.67717 13.404C9.67717 14.218 9.12717 14.724 8.28017 14.724C7.54317 14.724 7.07017 14.361 6.88317 13.646L5.39817 14.306C5.68417 15.483 6.76217 16.154 8.37917 16.154C10.0842 16.154 11.3272 15.054 11.3272 13.536C11.3272 12.062 10.4692 11.182 9.00617 11.127Z" fill="black"/>
<path fill-rule="evenodd" clip-rule="evenodd" d="M12.5559 8.245V16H15.4709C17.7699 16 19.3319 14.449 19.3319 12.15C19.3319 9.818 17.7699 8.245 15.4709 8.245H12.5559ZM14.0959 14.548V9.697H15.3719C16.8019 9.697 17.7259 10.665 17.7259 12.15C17.7259 13.602 16.8019 14.548 15.3719 14.548H14.0959Z" fill="black"/>
</svg>
