<svg width="24" height="24" viewBox="0 0 24 24" fill="none" xmlns="http://www.w3.org/2000/svg">
<path fill-rule="evenodd" clip-rule="evenodd" d="M7 0C4.79086 0 3 1.79086 3 4V14C3 16.2091 4.79086 18 7 18H17C19.2091 18 21 16.2091 21 14V4C21 1.79086 19.2091 0 17 0H7ZM17 2H7C5.89543 2 5 2.89543 5 4V14C5 15.1046 5.89543 16 7 16H17C18.1046 16 19 15.1046 19 14V4C19 2.89543 18.1046 2 17 2Z" fill="black"/>
<path d="M20 23L9 23V21L20 21V23Z" fill="black"/>
<path d="M5 24C6.10457 24 7 23.1046 7 22C7 20.8954 6.10457 20 5 20C3.89543 20 3 20.8954 3 22C3 23.1046 3.89543 24 5 24Z" fill="black"/>
</svg>
