<svg width="24" height="24" viewBox="0 0 24 24" fill="none" xmlns="http://www.w3.org/2000/svg">
<path d="M11 17V13H7V11H11V7H13V11H17V13H13V17H11Z" fill="black"/>
<path fill-rule="evenodd" clip-rule="evenodd" d="M12 3L10.1716 1.17157C9.42143 0.421427 8.40401 0 7.34315 0H4C1.79086 0 0 1.79086 0 4V17C0 19.2091 1.79086 21 4 21H20C22.2091 21 24 19.2091 24 17V7C24 4.79086 22.2091 3 20 3H12ZM11.1716 5H20C21.1046 5 22 5.89543 22 7V17C22 18.1046 21.1046 19 20 19H4C2.89543 19 2 18.1046 2 17V4C2 2.89543 2.89543 2 4 2H7.34315C7.87358 2 8.38229 2.21071 8.75736 2.58579L11.1716 5Z" fill="black"/>
</svg>
