<svg xmlns="http://www.w3.org/2000/svg" width="24" height="24"><path d="m21.3 10.7 1 1 1.4-1.4-1-1v-.01l-9-9-1.4 1.42 1 1c.7.72.7 1.87 0 2.58l-1.9 1.89-.52-.4a5 5 0 0 0-6.54.47L2.79 8.79a1 1 0 0 0 0 1.42L7.6 15l-1.94 1.93a22 22 0 0 0-3.3 4.24l-.2.33.35.35.33-.2a22 22 0 0 0 4.23-3.3L9 16.4l2.04 2.05 1.42-1.42L4.9 9.5l.84-.84a3 3 0 0 1 3.93-.28l1.91 1.44 3.12-3.11q.7-.72.96-1.62l3.24 3.24q-.9.26-1.62.96l-3.2 3.21 1.41 1.41 3.2-3.2a1.83 1.83 0 0 1 2.59 0zM20 24v-4h4v-2h-4v-4h-2v4h-4v2h4v4z"/></svg>