<svg width="24" height="24" viewBox="0 0 24 24" fill="none" xmlns="http://www.w3.org/2000/svg">
<path d="M14.0395 8.45718L13.1845 13.0171C13.0777 13.587 12.5801 14 12.0003 14C11.4204 14 10.9228 13.587 10.816 13.0171L9.96097 8.45718C9.72156 7.18031 10.7011 6 12.0003 6C13.2994 6 14.2789 7.18031 14.0395 8.45718Z" fill="black"/>
<path d="M13.5003 16.5C13.5003 17.3284 12.8287 18 12.0003 18C11.1718 18 10.5003 17.3284 10.5003 16.5C10.5003 15.6716 11.1718 15 12.0003 15C12.8287 15 13.5003 15.6716 13.5003 16.5Z" fill="black"/>
<path fill-rule="evenodd" clip-rule="evenodd" d="M24 12C24 18.6274 18.6274 24 12 24C5.37258 24 0 18.6274 0 12C0 5.37258 5.37258 0 12 0C18.6274 0 24 5.37258 24 12ZM22 12C22 17.5228 17.5228 22 12 22C6.47715 22 2 17.5228 2 12C2 6.47715 6.47715 2 12 2C17.5228 2 22 6.47715 22 12Z" fill="black"/>
</svg>
