<svg width="24" height="24" viewBox="0 0 24 24" fill="none" xmlns="http://www.w3.org/2000/svg">
<path fill-rule="evenodd" clip-rule="evenodd" d="M23 5C23 7.20914 21.2091 9 19 9C17.7572 9 16.6468 8.43323 15.9132 7.54407L7.93325 11.268C7.80751 10.5881 7.5098 9.96844 7.08691 9.45592L15.0668 5.73196C15.0229 5.49466 15 5.25001 15 5C15 2.79086 16.7909 1 19 1C21.2091 1 23 2.79086 23 5ZM21 5C21 6.10457 20.1046 7 19 7C17.8954 7 17 6.10457 17 5C17 3.89543 17.8954 3 19 3C20.1046 3 21 3.89543 21 5Z" fill="black"/>
<path fill-rule="evenodd" clip-rule="evenodd" d="M23 19C23 21.2091 21.2091 23 19 23C16.7909 23 15 21.2091 15 19C15 18.75 15.0229 18.5053 15.0668 18.268L7.08691 14.544C7.5098 14.0315 7.80751 13.4119 7.93325 12.7319L15.9132 16.4559C16.6468 15.5668 17.7572 15 19 15C21.2091 15 23 16.7909 23 19ZM21 19C21 20.1046 20.1046 21 19 21C17.8954 21 17 20.1046 17 19C17 17.8954 17.8954 17 19 17C20.1046 17 21 17.8954 21 19Z" fill="black"/>
<path fill-rule="evenodd" clip-rule="evenodd" d="M4 16C6.20914 16 8 14.2091 8 12C8 9.79086 6.20914 8 4 8C1.79086 8 0 9.79086 0 12C0 14.2091 1.79086 16 4 16ZM4 14C5.10457 14 6 13.1046 6 12C6 10.8954 5.10457 10 4 10C2.89543 10 2 10.8954 2 12C2 13.1046 2.89543 14 4 14Z" fill="black"/>
</svg>
