<svg xmlns="http://www.w3.org/2000/svg" width="24" height="24"><path d="m22.3 11.7-1-1h-.01a1.83 1.83 0 0 0-2.58 0l-1.89 1.9.4.52a5 5 0 0 1-.47 6.54l-1.54 1.55a1 1 0 0 1-1.42 0L9 16.4l-1.94 1.94a22 22 0 0 1-4.23 3.3l-.33.2-.35-.35.2-.33a22 22 0 0 1 3.3-4.24L7.6 15l-4.8-4.8a1 1 0 0 1 0-1.4l1.55-1.55a5 5 0 0 1 6.54-.47l.53.4 1.88-1.89c.72-.71.72-1.86 0-2.58l-1-1L13.71.29l9 9 1 1zm-5-2.4a4 4 0 0 1 1.61-.97l-3.24-3.24q-.26.9-.96 1.62l-3.12 3.11-1.91-1.44a3 3 0 0 0-3.93.28l-.84.84 9.59 9.59.84-.84a3 3 0 0 0 .28-3.93l-1.44-1.91z"/></svg>