<svg width="24" height="24" viewBox="0 0 24 24" fill="none" xmlns="http://www.w3.org/2000/svg">
<path fill-rule="evenodd" clip-rule="evenodd" d="M16 15C15.9999 15 16.0001 15 16 15C12.134 15 9 11.866 9 8C9 4.13401 12.134 1 16 1C19.866 1 23 4.13401 23 8C23 10.9742 21.1451 13.5151 18.5291 14.5292C17.8192 16.3606 16.3608 17.819 14.5294 18.529C13.5155 21.1454 10.9744 23.0005 8 23.0005C4.13401 23.0005 1 19.8665 1 16.0005C1 13.0265 2.85472 10.4856 5.47059 9.47148C6.18043 7.6397 7.6389 6.18104 9.47055 5.47093C9.16667 6.25516 9 7.10846 9 8C7.78555 8.91221 7 10.3641 7 12C7 14.7614 9.23858 17 12 17C13.6358 17 15.0878 16.2144 16 15ZM21 8C21 10.7614 18.7614 13 16 13C13.2386 13 11 10.7614 11 8C11 5.23858 13.2386 3 16 3C18.7614 3 21 5.23858 21 8ZM3 16.0005C3 14.3647 3.78555 12.9124 5 12.0002C5 15.8662 8.13401 19 12 19C11.0878 20.2147 9.63607 21.0005 8 21.0005C5.23858 21.0005 3 18.762 3 16.0005Z" fill="black"/>
</svg>
