<svg xmlns="http://www.w3.org/2000/svg" width="24" height="24"><path d="M4 7a3 3 0 1 0 0-6 3 3 0 0 0 0 6M3 4a1 1 0 1 1 2 0 1 1 0 0 1-2 0m1 11a3 3 0 1 0 0-6 3 3 0 0 0 0 6m-1-3a1 1 0 1 1 2 0 1 1 0 0 1-2 0m1 5a3 3 0 1 0 0 6 3 3 0 0 0 0-6m1 3a1 1 0 1 1-2 0 1 1 0 0 1 2 0m7-13a3 3 0 1 0 0-6 3 3 0 0 0 0 6m-1-3a1 1 0 1 1 2 0 1 1 0 0 1-2 0m1 5a3 3 0 1 0 0 6 3 3 0 0 0 0-6m1 3a1 1 0 1 1-2 0 1 1 0 0 1 2 0m-1 11a3 3 0 1 0 0-6 3 3 0 0 0 0 6m-1-3a1 1 0 1 1 2 0 1 1 0 0 1-2 0m9-19a3 3 0 1 0 0 6 3 3 0 0 0 0-6m1 3a1 1 0 1 1-2 0 1 1 0 0 1 2 0m-1 11a3 3 0 1 0 0-6 3 3 0 0 0 0 6m-1-3a1 1 0 1 1 2 0 1 1 0 0 1-2 0m1 5a3 3 0 1 0 0 6 3 3 0 0 0 0-6m1 3a1 1 0 1 1-2 0 1 1 0 0 1 2 0"/></svg>