<svg xmlns="http://www.w3.org/2000/svg" width="24" height="24"><path d="M12.52.15a1 1 0 0 0-1.04 0L8.5 1.95l1 1.74L11 2.8V5h2V2.78l1.49.91 1-1.73zm6.38 3.9-1 1.73 1.1.67-2.26 1.16.91 1.78L20 8.18V10h2V6.5a1 1 0 0 0-.48-.85zM22 14h-2v1.82l-2.35-1.2-.91 1.77 2.25 1.16-1.09.67 1 1.73 2.62-1.6a1 1 0 0 0 .48-.85zm-6.51 8.04-1-1.73-1.49.9V19h-2v2.22l-1.49-.91-1 1.73 2.97 1.81a1 1 0 0 0 1.04 0zm-10.4-2.09 1-1.73-1.08-.67 2.25-1.16-.91-1.78L4 15.82V14H2v3.5a1 1 0 0 0 .48.85zM2 10h2V8.18l2.35 1.2.91-1.77-2.25-1.16 1.09-.67-1-1.73-2.62 1.6A1 1 0 0 0 2 6.5zm13.02-1.53L12 10.1 8.98 8.47l-.96 1.75L11 11.84V15h2v-3.16l2.98-1.62z"/></svg>