<svg width="24" height="24" viewBox="0 0 24 24" fill="none" xmlns="http://www.w3.org/2000/svg">
<path fill-rule="evenodd" clip-rule="evenodd" d="M11 8C11 9.86384 9.72523 11.4299 8 11.874L8 24H6L6 11.874C4.27477 11.4299 3 9.86384 3 8C3 6.13616 4.27477 4.57006 6 4.12602L6 5.24537e-07L8 4.37114e-07V4.12602C9.72523 4.57006 11 6.13616 11 8ZM7 6C8.10457 6 9 6.89543 9 8C9 9.10457 8.10457 10 7 10C5.89543 10 5 9.10457 5 8C5 6.89543 5.89543 6 7 6Z" fill="black"/>
<path fill-rule="evenodd" clip-rule="evenodd" d="M16 12.126C14.2748 12.5701 13 14.1362 13 16C13 17.8638 14.2748 19.4299 16 19.874V24H18V19.874C19.7252 19.4299 21 17.8638 21 16C21 14.1362 19.7252 12.5701 18 12.126L18 0L16 8.74228e-08L16 12.126ZM17 14C18.1046 14 19 14.8954 19 16C19 17.1046 18.1046 18 17 18C15.8954 18 15 17.1046 15 16C15 14.8954 15.8954 14 17 14Z" fill="black"/>
</svg>
