<svg width="24" height="24" viewBox="0 0 24 24" fill="none" xmlns="http://www.w3.org/2000/svg">
<path d="M18 20V4C18 3.44772 17.5523 3 17 3C16.4477 3 16 3.44772 16 4V20C16 20.5523 16.4477 21 17 21C17.5523 21 18 20.5523 18 20Z" fill="black"/>
<path d="M8 8V20C8 20.5523 7.55228 21 7 21C6.44772 21 6 20.5523 6 20V8C6 7.44772 6.44772 7 7 7C7.55228 7 8 7.44772 8 8Z" fill="black"/>
<path d="M13 14C13 13.4477 12.5523 13 12 13C11.4477 13 11 13.4477 11 14V20C11 20.5523 11.4477 21 12 21C12.5523 21 13 20.5523 13 20V14Z" fill="black"/>
<path d="M22 9C22.5523 9 23 9.44772 23 10V20C23 20.5523 22.5523 21 22 21C21.4477 21 21 20.5523 21 20V10C21 9.44771 21.4477 9 22 9Z" fill="black"/>
<path d="M3 16V20C3 20.5523 2.55228 21 2 21C1.44772 21 1 20.5523 1 20V16C1 15.4477 1.44772 15 2 15C2.55228 15 3 15.4477 3 16Z" fill="black"/>
</svg>
