<svg xmlns="http://www.w3.org/2000/svg" width="24" height="24"><path d="M10.5 3.4c0-.88.67-2.4 1.5-2.4s1.5 1.52 1.5 2.4S12.83 5 12 5s-1.5-.72-1.5-1.6M1 9a3 3 0 0 1 3-3h16a3 3 0 0 1 3 3v2.5c0 1.07-.37 2.06-1 2.83V18a4 4 0 0 1-4 4H6a4 4 0 0 1-4-4v-3.67c-.63-.77-1-1.76-1-2.83zm19 9v-1a1 1 0 0 0-1-1h-.5a4.5 4.5 0 0 1-3.25-1.39 4.5 4.5 0 0 1-6.5 0A4.5 4.5 0 0 1 5.5 16H5a1 1 0 0 0-1 1v1c0 1.1.9 2 2 2h12a2 2 0 0 0 2-2m-1.5-4a2.5 2.5 0 0 0 2.5-2.5V9a1 1 0 0 0-1-1H4a1 1 0 0 0-1 1v2.5a2.5 2.5 0 0 0 4.82.93 1 1 0 0 1 1.86 0 2.5 2.5 0 0 0 4.64 0 1 1 0 0 1 1.86 0A2.5 2.5 0 0 0 18.5 14M19 3.4c0 .88-.67 1.6-1.5 1.6S16 4.28 16 3.4 16.67 1 17.5 1 19 2.52 19 3.4m-14 0C5 2.52 5.67 1 6.5 1S8 2.52 8 3.4 7.33 5 6.5 5 5 4.28 5 3.4"/></svg>