<svg width="24" height="24" viewBox="0 0 24 24" fill="none" xmlns="http://www.w3.org/2000/svg">
<path d="M12.0004 7C11.7165 7 11.4367 7.01471 11.1615 7.0433L10.7482 3.06472C11.1604 3.02189 11.5782 3 12.0004 3C12.4227 3 12.8405 3.02189 13.2527 3.06472L12.8394 7.0433C12.5642 7.01471 12.2844 7 12.0004 7Z" fill="black"/>
<path d="M8.74649 7.68894C8.23379 7.91756 7.74902 8.19887 7.29914 8.52628L4.94538 5.29212C5.6192 4.80172 6.34659 4.37942 7.11745 4.03569L8.74649 7.68894Z" fill="black"/>
<path d="M16.7018 8.52628C16.2519 8.19887 15.7671 7.91756 15.2544 7.68894L16.8834 4.03569C17.6543 4.37942 18.3817 4.80172 19.0555 5.29212L16.7018 8.52628Z" fill="black"/>
<path d="M5.52673 10.2987C5.19931 10.7486 4.918 11.2333 4.68938 11.746L1.03613 10.117C1.37987 9.34615 1.80217 8.61876 2.29256 7.94494L5.52673 10.2987Z" fill="black"/>
<path d="M19.3115 11.746C19.0829 11.2333 18.8016 10.7486 18.4742 10.2987L21.7083 7.94494C22.1987 8.61876 22.621 9.34615 22.9648 10.117L19.3115 11.746Z" fill="black"/>
<path fill-rule="evenodd" clip-rule="evenodd" d="M12.0004 9C8.68674 9 6.00045 11.6863 6.00045 15H0V17H24V15H18.0004C18.0004 11.6863 15.3142 9 12.0004 9ZM12.0004 11C9.79131 11 8.00045 12.7909 8.00045 15H16.0004C16.0004 12.7909 14.2096 11 12.0004 11Z" fill="black"/>
<path d="M3 21H21V19H3V21Z" fill="black"/>
</svg>
