<svg xmlns="http://www.w3.org/2000/svg" width="24" height="24"><path d="M2 8.65v9.2c0 2.01 1.5 3.74 3.56 3.9A87 87 0 0 0 11 22h2l.25-.01a87 87 0 0 0 5.2-.24 3.87 3.87 0 0 0 3.55-3.9v-9.2A4 4 0 0 0 23 6V4a2 2 0 0 0-2-2H3a2 2 0 0 0-2 2v2c0 1.01.38 1.94 1 2.65M7.5 6a2 2 0 0 1-2 2H5a2 2 0 0 1-2-2V5a1 1 0 0 1 1-1h2.5a1 1 0 0 1 1 1zm11 2a2 2 0 0 1-2-2V5a1 1 0 0 1 1-1H20a1 1 0 0 1 1 1v1a2 2 0 0 1-2 2zm.5 2a1 1 0 0 1 1 1v6.85c0 1.02-.75 1.83-1.71 1.9L16 19.9V16a4 4 0 0 0-8 0v3.9q-1.28-.07-2.29-.15A1.87 1.87 0 0 1 4 17.85V11a1 1 0 0 1 1-1h.5c1.2 0 2.27-.52 3-1.35.73.83 1.8 1.35 3 1.35h1c1.2 0 2.27-.52 3-1.35.73.83 1.8 1.35 3 1.35zm-9 9v-3a2 2 0 1 1 4 0v3a1 1 0 0 1-.87 1h-2.26a1 1 0 0 1-.87-1m3.5-15a1 1 0 0 1 1 1v1a2 2 0 0 1-2 2h-1a2 2 0 0 1-2-2V5a1 1 0 0 1 1-1z"/></svg>