<svg width="24" height="24" viewBox="0 0 24 24" fill="none" xmlns="http://www.w3.org/2000/svg">
<path d="M3.70294 11.764C3.70294 14.416 5.52694 16.168 8.08294 16.168C9.82294 16.168 11.2029 15.4 11.7429 13.948L10.1589 13.144C9.78694 14.14 9.00694 14.524 8.07094 14.524C6.48694 14.524 5.45494 13.432 5.45494 11.764C5.45494 10.096 6.47494 9.016 8.05894 9.016C9.07894 9.016 9.79894 9.46 10.1469 10.396L11.7429 9.58C11.2029 8.128 9.82294 7.372 8.07094 7.372C5.49094 7.372 3.70294 9.124 3.70294 11.764Z" fill="black"/>
<path d="M12.3748 11.764C12.3748 14.416 14.1988 16.168 16.7548 16.168C18.4948 16.168 19.8748 15.4 20.4148 13.948L18.8308 13.144C18.4588 14.14 17.6788 14.524 16.7428 14.524C15.1588 14.524 14.1268 13.432 14.1268 11.764C14.1268 10.096 15.1468 9.016 16.7308 9.016C17.7508 9.016 18.4708 9.46 18.8188 10.396L20.4148 9.58C19.8748 8.128 18.4948 7.372 16.7428 7.372C14.1628 7.372 12.3748 9.124 12.3748 11.764Z" fill="black"/>
<path fill-rule="evenodd" clip-rule="evenodd" d="M0 7C0 4.79086 1.79086 3 4 3H20C22.2091 3 24 4.79086 24 7V17C24 19.2091 22.2091 21 20 21H4C1.79086 21 0 19.2091 0 17V7ZM4 5H20C21.1046 5 22 5.89543 22 7V17C22 18.1046 21.1046 19 20 19H4C2.89543 19 2 18.1046 2 17V7C2 5.89543 2.89543 5 4 5Z" fill="black"/>
</svg>
