<svg xmlns="http://www.w3.org/2000/svg" width="24" height="24"><path d="M12 2q-.5 0-.98.05l-.2-2Q11.41 0 12 0a12 12 0 0 1 11.87 13.76l-1.98-.3q.1-.7.11-1.46A10 10 0 0 0 12 2m-2.9.43q-.96.29-1.81.75l-.95-1.76Q7.38.86 8.52.52zM5.66 4.27q-.76.63-1.4 1.39L2.73 4.39q.75-.92 1.67-1.67zM3.18 7.29q-.46.86-.75 1.8L.5 8.53q.35-1.15.9-2.18zm-1.13 3.73a10 10 0 0 0 .06 2.45l-1.98.29a12 12 0 0 1-.07-2.94zm21.6 3.9a12 12 0 0 1-1.36 3.25l-1.71-1.03q.75-1.25 1.12-2.7zM1.7 18.17Q.8 16.66.36 14.92l1.94-.49q.37 1.46 1.12 2.71zm19.93.98q-1.05 1.43-2.5 2.49l-1.18-1.6q1.2-.9 2.07-2.08zM4.85 21.64q-1.43-1.05-2.49-2.5l1.6-1.18q.9 1.2 2.08 2.07zm4.23 2a12 12 0 0 1-3.25-1.35l1.03-1.71q1.25.75 2.7 1.12zm9.1-1.35q-1.51.9-3.26 1.35l-.49-1.94a10 10 0 0 0 2.71-1.12zM12 24q-.9 0-1.76-.13l.3-1.98a10 10 0 0 0 2.93 0l.29 1.98Q12.9 24 12 24"/></svg>