<svg width="24" height="24" viewBox="0 0 24 24" fill="none" xmlns="http://www.w3.org/2000/svg">
<path d="M8.29289 8.29289L4.58579 12L8.29289 15.7071L9.70711 14.2929L7.41421 12L9.70711 9.70711L8.29289 8.29289Z" fill="black"/>
<path d="M15.7071 8.29289L14.2929 9.70711L16.5858 12L14.2929 14.2929L15.7071 15.7071L19.4142 12L15.7071 8.29289Z" fill="black"/>
<path d="M11.9864 18.1644L13.9864 6.1644L12.0136 5.8356L10.0136 17.8356L11.9864 18.1644Z" fill="black"/>
<path fill-rule="evenodd" clip-rule="evenodd" d="M1 5C1 2.79086 2.79086 1 5 1H19C21.2091 1 23 2.79086 23 5V19C23 21.2091 21.2091 23 19 23H5C2.79086 23 1 21.2091 1 19V5ZM5 3H19C20.1046 3 21 3.89543 21 5V19C21 20.1046 20.1046 21 19 21H5C3.89543 21 3 20.1046 3 19V5C3 3.89543 3.89543 3 5 3Z" fill="black"/>
</svg>
