<svg xmlns="http://www.w3.org/2000/svg" width="24" height="24"><path d="M6 6a4 4 0 0 1 4-4h9a4 4 0 0 1 4 4v9a4 4 0 0 1-4 4h-5v-2h5a2 2 0 0 0 2-2V6a2 2 0 0 0-2-2h-9a2 2 0 0 0-2 2v5H6zm8.15 1h.7l.1.43a3.5 3.5 0 0 0 2.62 2.62l.43.1v.7l-.43.1a3.5 3.5 0 0 0-2.62 2.62l-.1.43h-.7l-.1-.43a3.5 3.5 0 0 0-2.62-2.62l-.43-.1v-.7l.43-.1a3.5 3.5 0 0 0 2.62-2.62zm-2.14 14.44a2.2 2.2 0 0 1-3.03.53L5 19.31l-.68.47A2.5 2.5 0 0 1 2.5 24a2.5 2.5 0 0 1-1.25-4.67l2-1.33-2-1.33a2.5 2.5 0 1 1 3.07-.45l.68.47 3.98-2.66a2.2 2.2 0 0 1 3.02.53L7 18zM2.5 22.5a1 1 0 1 0 0-2 1 1 0 0 0 0 2m0-9a1 1 0 1 0 0 2 1 1 0 0 0 0-2"/></svg>