<svg xmlns="http://www.w3.org/2000/svg" width="24" height="24"><path d="M12 1a1.5 1.5 0 1 0 0 3 1.5 1.5 0 0 0 0-3m-.7 11.3-3 3 1.4 1.4 3-3zM12 21a8 8 0 1 0 0-16 8 8 0 0 0 0 16m-6-8a6 6 0 1 1 12 0 6 6 0 0 1-12 0m-.36-6.36A1.5 1.5 0 1 0 3.5 4.52a1.5 1.5 0 0 0 2.13 2.12M24 13a1.5 1.5 0 1 0-3 0 1.5 1.5 0 0 0 3 0m-5.64-6.36A1.5 1.5 0 1 0 20.5 4.5a1.5 1.5 0 0 0-2.13 2.13m0 12.72a1.5 1.5 0 1 0 2.13 2.12 1.5 1.5 0 0 0-2.13-2.12M0 13a1.5 1.5 0 1 0 3 0 1.5 1.5 0 0 0-3 0m5.64 6.36a1.5 1.5 0 1 0-2.13 2.12 1.5 1.5 0 0 0 2.13-2.12"/></svg>