<svg width="24" height="24" viewBox="0 0 24 24" fill="none" xmlns="http://www.w3.org/2000/svg">
<path fill-rule="evenodd" clip-rule="evenodd" d="M18.7071 13.2933C18.2692 12.8554 18.2692 12.1454 18.7071 11.7075L22.2071 8.20749C23.9783 6.43625 23.9783 3.56451 22.2071 1.79327C20.4359 0.0220327 17.5641 0.0220364 15.7929 1.79327L12.2929 5.29327C11.8552 5.73099 11.1456 5.73117 10.7076 5.29381C10.7075 5.29363 10.7078 5.29399 10.7076 5.29381L9.70711 4.29327L8.29289 5.70748L10.3787 7.79327C10.7692 8.18379 10.7692 8.81696 10.3787 9.20748L4.43803 15.1481C4.24651 15.3397 4.09588 15.5681 3.99529 15.8196L3.90266 16.0511C2.25422 16.3346 1 17.771 1 19.5004C1 21.4334 2.567 23.0004 4.5 23.0004C6.22935 23.0004 7.66576 21.7462 7.94923 20.0977L8.18081 20.0051C8.43229 19.9045 8.66072 19.7539 8.85225 19.5623L14.7929 13.6217C15.1834 13.2312 15.8166 13.2312 16.2071 13.6217L17.2926 14.7072C17.2925 14.7071 17.2927 14.7073 17.2926 14.7072L18.2929 15.7075L19.7071 14.2933L18.7071 13.2933ZM20.7929 3.20748C19.8027 2.2173 18.1973 2.2173 17.2071 3.20749L13.7071 6.70748C13.4276 6.98696 13.1084 7.20235 12.7675 7.35367L16.6467 11.2329C16.798 10.892 17.0134 10.5727 17.2929 10.2933L20.7929 6.79327C21.7831 5.80308 21.7831 4.19767 20.7929 3.20748ZM14.2065 11.6211L12.3793 9.79388C12.2363 10.0932 12.0408 10.3738 11.7929 10.6217L5.85225 16.5623L5.26555 18.0291L4.56023 18.0015C4.5403 18.0008 4.52022 18.0004 4.5 18.0004C3.67157 18.0004 3 18.6719 3 19.5004C3 20.3288 3.67157 21.0004 4.5 21.0004C5.32843 21.0004 6 20.3288 6 19.5004C6 19.4802 5.99961 19.4601 5.99883 19.4401L5.9713 18.7348L7.43803 18.1481L13.3787 12.2075C13.6266 11.9595 13.9072 11.7641 14.2065 11.6211Z" fill="black"/>
</svg>
