<svg width="24" height="24" viewBox="0 0 24 24" fill="none" xmlns="http://www.w3.org/2000/svg">
<path fill-rule="evenodd" clip-rule="evenodd" d="M22 4.5C22 3.64238 21.5491 2.93437 20.9696 2.4015C20.3909 1.86943 19.6087 1.43622 18.7264 1.09312C16.9555 0.404444 14.577 0 12 0C9.42296 0 7.04448 0.404444 5.27359 1.09312C4.39133 1.43622 3.60913 1.86943 3.03043 2.4015C2.45088 2.93437 2 3.64238 2 4.5V20C2 20.8519 2.51889 21.5044 3.08829 21.9531C3.66896 22.4108 4.44724 22.7791 5.31981 23.07C7.07541 23.6552 9.43715 24 12 24C14.5629 24 16.9246 23.6552 18.6802 23.07C19.5528 22.7791 20.331 22.4108 20.9117 21.9531C21.4811 21.5044 22 20.8519 22 20V4.5ZM4.3841 3.87378C4.0528 4.17839 4 4.39112 4 4.5C4 4.60888 4.0528 4.82161 4.3841 5.12622C4.71624 5.43161 5.25207 5.7526 5.99849 6.04287C7.48496 6.62094 9.60648 7 12 7C14.3935 7 16.515 6.62094 18.0015 6.04287C18.7479 5.7526 19.2838 5.43161 19.6159 5.12622C19.9472 4.82161 20 4.60888 20 4.5C20 4.39112 19.9472 4.17839 19.6159 3.87378C19.2838 3.56839 18.7479 3.2474 18.0015 2.95713C16.515 2.37906 14.3935 2 12 2C9.60648 2 7.48496 2.37906 5.99849 2.95713C5.25207 3.2474 4.71624 3.56839 4.3841 3.87378ZM20 7.30142C19.6117 7.52812 19.1824 7.72953 18.7264 7.90688C16.9555 8.59556 14.577 9 12 9C9.42296 9 7.04448 8.59556 5.27359 7.90688C4.81757 7.72953 4.38827 7.52812 4 7.30142V10C4 9.99992 4 10.0001 4 10C4.00001 10.0012 4.00018 10.0058 4.00305 10.0153C4.00645 10.0264 4.01483 10.0485 4.03507 10.0814C4.07752 10.1506 4.16408 10.2545 4.32624 10.3823C4.65642 10.6425 5.19616 10.9206 5.95227 11.1726C7.45402 11.6732 9.59229 12 12 12C14.4077 12 16.546 11.6732 18.0477 11.1726C18.8038 10.9206 19.3436 10.6425 19.6738 10.3823C19.8359 10.2545 19.9225 10.1506 19.9649 10.0814C19.9852 10.0485 19.9935 10.0264 19.9969 10.0153C19.9999 10.0057 20 10.0014 20 10.0002C20 10.0002 20 10.0003 20 10.0002V7.30142ZM20 12.5266C19.5988 12.7318 19.1533 12.9123 18.6802 13.07C16.9246 13.6552 14.5629 14 12 14C9.43715 14 7.07541 13.6552 5.31981 13.07C4.84666 12.9123 4.40123 12.7318 4 12.5266V15C4.00001 15.0012 4.00018 15.0058 4.00305 15.0153C4.00645 15.0264 4.01483 15.0485 4.03507 15.0814C4.07752 15.1506 4.16408 15.2545 4.32624 15.3823C4.65642 15.6425 5.19616 15.9206 5.95227 16.1726C7.45402 16.6732 9.59229 17 12 17C14.4077 17 16.546 16.6732 18.0477 16.1726C18.8038 15.9206 19.3436 15.6425 19.6738 15.3823C19.8359 15.2545 19.9225 15.1506 19.9649 15.0814C19.9852 15.0485 19.9935 15.0264 19.9969 15.0153C19.9999 15.0057 20 15.0014 20 15.0002C20 15.0002 20 15.0003 20 15.0002V12.5266ZM20 17.5266C19.5988 17.7318 19.1533 17.9123 18.6802 18.07C16.9246 18.6552 14.5629 19 12 19C9.43715 19 7.07541 18.6552 5.31981 18.07C4.84666 17.9123 4.40123 17.7318 4 17.5266V20C4 20.0009 3.99998 20.0052 4.00305 20.0153C4.00645 20.0264 4.01483 20.0485 4.03507 20.0814C4.07752 20.1506 4.16408 20.2545 4.32624 20.3823C4.65642 20.6425 5.19616 20.9206 5.95227 21.1726C7.45402 21.6732 9.59229 22 12 22C14.4077 22 16.546 21.6732 18.0477 21.1726C18.8038 20.9206 19.3436 20.6425 19.6738 20.3823C19.8359 20.2545 19.9225 20.1506 19.9649 20.0814C19.9852 20.0485 19.9935 20.0264 19.9969 20.0153C20 20.0052 20 20.001 20 20.0001V17.5266Z" fill="black"/>
</svg>
