<svg xmlns="http://www.w3.org/2000/svg" width="24" height="24"><path d="M15.01 19.2a3.6 3.6 0 0 1-3.13-1.33l-.15-.18-3.8 3.8a2 2 0 0 1-1.03.55l-3.97.8a1.5 1.5 0 0 1-1.76-1.77l.79-3.97a2 2 0 0 1 .55-1.02l4.34-4.35L1.1 4.7a2.51 2.51 0 0 1 3.66-3.42l6.5 6.07 5.63-5.63a3 3 0 0 1 4.24 0l1.17 1.17a3 3 0 0 1 0 4.24L21.12 8.3l-4.28 4.29.35.32c.88.83 1.26 2 1.12 3.1h.25a3.53 3.53 0 0 1 3.55 3.5v1.13q0 .18.05.37v.02a1.5 1.5 0 0 0 .4.67l.26.25a.62.62 0 0 1-.44 1.06h-3.82A3.53 3.53 0 0 1 15 19.2m5.87-13.5a1 1 0 0 0 0-1.4L19.7 3.11a1 1 0 0 0-1.42 0L17.12 4.3a1 1 0 0 0 0 1.42l1.17 1.17a1 1 0 0 0 1.42 0zM15.7 7.13l-.71-.7L3.92 17.48l-.65 3.24 3.24-.65L17.59 9zM9.83 8.76 3.38 2.73a.51.51 0 0 0-.74.7l5.63 6.88zm3.32 7.5.27.34a1.64 1.64 0 1 0 2.4-2.24l-.4-.37zM17 19.5c0 .8.67 1.5 1.56 1.5h1.57l-.02-.37V19.5c0-.8-.67-1.5-1.55-1.5-.9 0-1.56.7-1.56 1.5"/></svg>