<svg width="24" height="24" viewBox="0 0 24 24" fill="none" xmlns="http://www.w3.org/2000/svg">
<g clip-path="url(#clip0_4128_10343)">
<path fill-rule="evenodd" clip-rule="evenodd" d="M11 21C13.4013 21 15.6049 20.1536 17.3287 18.7429L22.0429 23.4571L23.4571 22.0429L18.7429 17.3287C20.1536 15.6049 21 13.4013 21 11C21 5.47715 16.5228 1 11 1C5.47715 1 1 5.47715 1 11C1 16.5228 5.47715 21 11 21ZM18.748 13H15C14.6212 13 14.275 12.786 14.1056 12.4472L13.0311 10.2982L10.4062 15.9229C10.2416 16.2757 9.88718 16.5008 9.49789 16.5C9.1086 16.4992 8.75517 16.2725 8.59204 15.9191L6.46394 11.3082L5.89443 12.4472C5.72504 12.786 5.37877 13 5 13H3.25204C4.14012 16.4505 7.27232 19 11 19C14.7277 19 17.8599 16.4505 18.748 13ZM19 11C19 6.58172 15.4183 3 11 3C6.58172 3 3 6.58172 3 11H4.38197L5.60557 8.55279C5.77748 8.20896 6.13126 7.99412 6.51562 8.00012C6.89998 8.00613 7.24687 8.23192 7.40796 8.58094L9.50501 13.1246L12.0938 7.57712C12.2561 7.22946 12.6029 7.00527 12.9865 7.00009C13.3701 6.99491 13.7229 7.20965 13.8944 7.55279L15.618 11H19Z" fill="black"/>
</g>
<defs>
<clipPath id="clip0_4128_10343">
<rect width="24" height="24" fill="white"/>
</clipPath>
</defs>
</svg>
