<svg xmlns="http://www.w3.org/2000/svg" width="24" height="24"><path d="M3.85 2.7c-.8.47-1.6 1.3-2.05 1.9L.2 3.4A10 10 0 0 1 2.84.97a4 4 0 0 1 1.92-.6c.76 0 1.48.33 2.02 1 .46.58.56 1.25.47 1.87a5 5 0 0 1-.64 1.72c-.52.93-1.3 1.94-2.04 2.88q-.15.21-.31.4a14 14 0 0 0-1.87 2.86c-.15.38-.16.6-.14.73.02.07.06.18.28.32.19.12.4.15.73.03q.57-.2 1.42-1a37 37 0 0 0 3.67-4.49l.05-.06a35 35 0 0 1 3.78-4.59 5.5 5.5 0 0 1 2.07-1.3 2.5 2.5 0 0 1 2.4.5c.81.7.92 1.68.74 2.55a9 9 0 0 1-1.18 2.7c-1.08 1.77-2.76 3.84-4.39 5.85l-.23.29a52 52 0 0 0-4.36 5.9q-.73 1.29-.81 2c-.06.43.05.57.18.67.17.12.35.17.66.08q.55-.15 1.45-.88c1.19-1 2.52-2.56 3.97-4.25v-.01a41 41 0 0 1 4.38-4.64 8 8 0 0 1 2.29-1.43c.8-.3 1.7-.37 2.56.02q1.13.5 1.61 1.55c.32.66.4 1.4.33 2.13a10.5 10.5 0 0 1-1.77 4.5 16 16 0 0 1-3.59 3.92C17.14 23.23 15.56 24 14 24v-2c.94 0 2.09-.49 3.28-1.4 1.17-.9 2.28-2.13 3.12-3.43a8.5 8.5 0 0 0 1.45-3.58q.05-.71-.13-1.1-.15-.35-.63-.58c-.26-.11-.59-.13-1.05.04q-.73.27-1.7 1.08a39 39 0 0 0-4.13 4.4l-.1.12a38 38 0 0 1-4.13 4.39 6 6 0 0 1-2.16 1.26c-.8.23-1.66.17-2.42-.4-.87-.65-1.09-1.6-.97-2.53.12-.87.54-1.81 1.07-2.74a53 53 0 0 1 4.53-6.16l.19-.23a60 60 0 0 0 4.28-5.7q.78-1.28.93-2.04c.1-.47-.02-.59-.08-.64-.17-.15-.3-.17-.53-.1q-.45.1-1.28.85a34 34 0 0 0-3.58 4.37l-.04.06a38 38 0 0 1-3.86 4.7 7 7 0 0 1-2.11 1.42c-.8.3-1.67.3-2.48-.21A2.5 2.5 0 0 1 .29 12.2c-.12-.65.02-1.3.24-1.85a16 16 0 0 1 2.15-3.33q.15-.22.32-.42c.74-.96 1.43-1.84 1.86-2.62q.37-.67.41-1.03.03-.28-.05-.34c-.16-.2-.3-.24-.46-.24q-.3-.01-.91.32"/></svg>