<svg width="24" height="24" viewBox="0 0 24 24" fill="none" xmlns="http://www.w3.org/2000/svg">
<path d="M0.293376 1.70718L22.2934 23.7072L23.7076 22.293L1.70759 0.292969L0.293376 1.70718Z" fill="black"/>
<path d="M22.6818 14.3113C22.2082 15.0235 21.6072 15.8324 20.8786 16.6356L19.4626 15.2195C20.0881 14.5215 20.6081 13.8185 21.0206 13.1975C21.5087 12.4579 21.5088 11.5424 21.0208 10.8028C20.4682 9.97078 19.7225 8.99144 18.7887 8.07431C18.4666 7.75799 18.1272 7.45374 17.7703 7.16788C16.2103 5.92157 14.2819 5 12.0004 5C11.1497 5 10.3482 5.12812 9.59646 5.35341L8.02918 3.78613C9.22037 3.29824 10.5441 3 12.0004 3C17.2384 3 20.7617 6.85834 22.5701 9.52248C23.1729 10.4105 23.5851 11.1659 23.8069 11.6014C23.9352 11.8536 23.9353 12.1464 23.8069 12.3986L22.6818 14.3113Z" fill="black"/>
<path d="M2.98015 10.8027C3.39261 10.1816 3.91267 9.47852 4.53824 8.78047L3.12217 7.3644C2.3936 8.16757 1.79256 8.97651 1.31905 9.68874C0.776731 10.5045 0.401694 11.1933 0.193935 11.6014C0.0655632 11.8536 0.0655633 12.1464 0.193935 12.3986C0.415667 12.8341 0.827935 13.5895 1.43074 14.4775C3.23914 17.1417 6.76237 21 12.0004 21C13.4567 21 14.7804 20.7018 15.9716 20.2139L14.4044 18.6466C13.6527 18.8719 12.8511 19 12.0004 19C9.71906 19 7.79085 18.0786 6.23088 16.8324C5.87387 16.5465 5.53434 16.2421 5.21216 15.9257C4.27837 15.0086 3.53267 14.0293 2.9801 13.1973C2.49209 12.4577 2.4921 11.5422 2.98015 10.8027Z" fill="black"/>
</svg>
