<svg xmlns="http://www.w3.org/2000/svg" width="24" height="24"><path d="m.3 1.7 22 22 1.4-1.4-22-22zm23.5 10.7a.9.9 0 0 0 0-.8c-.21-.43-.63-1.19-1.23-2.08C20.77 6.86 17.24 3 12 3c-1.46 0-2.78.3-3.97.79L9.6 5.35A8 8 0 0 1 12 5c2.28 0 4.21.92 5.77 2.17q.54.43 1.02.9c.93.92 1.68 1.9 2.23 2.73.49.74.49 1.66 0 2.4a17 17 0 0 1-1.56 2.02l1.42 1.42c.73-.8 1.33-1.62 1.8-2.33zM2.99 10.8c.41-.62.93-1.32 1.56-2.02L3.12 7.36A20 20 0 0 0 .2 11.6a.9.9 0 0 0 0 .8 23 23 0 0 0 1.24 2.08C3.23 17.14 6.76 21 12 21c1.46 0 2.78-.3 3.97-.79l-1.57-1.56q-1.12.34-2.4.35a9.2 9.2 0 0 1-5.77-2.17q-.54-.43-1.02-.9c-.93-.92-1.68-1.9-2.23-2.73a2.1 2.1 0 0 1 0-2.4"/></svg>