<svg xmlns="http://www.w3.org/2000/svg" width="24" height="24"><path d="M12 9a3 3 0 1 0 0 6 3 3 0 0 0 0-6m11.8 3.4a.9.9 0 0 0 0-.8c-.21-.43-.63-1.19-1.23-2.08C20.77 6.86 17.24 3 12 3 6.65 3 3.1 7.02 1.32 9.69.78 10.5.4 11.19.19 11.6a.9.9 0 0 0 0 .8 23 23 0 0 0 1.24 2.08C3.23 17.14 6.76 21 12 21c5.35 0 8.9-4.02 10.68-6.69m-1.66-1.11a17 17 0 0 1-3.25 3.63A9.2 9.2 0 0 1 12 19a9.2 9.2 0 0 1-5.77-2.17q-.54-.43-1.02-.9c-.93-.92-1.68-1.9-2.23-2.73a2.1 2.1 0 0 1 0-2.4 17 17 0 0 1 3.25-3.63A9.2 9.2 0 0 1 12 5c2.28 0 4.21.92 5.77 2.17q.54.43 1.02.9c.93.92 1.68 1.9 2.23 2.73.49.74.49 1.66 0 2.4"/></svg>