<svg width="24" height="24" viewBox="0 0 24 24" fill="none" xmlns="http://www.w3.org/2000/svg">
<path d="M8.5 10C9.32843 10 10 9.32843 10 8.5C10 7.67157 9.32843 7 8.5 7C7.67157 7 7 7.67157 7 8.5C7 9.32843 7.67157 10 8.5 10Z" fill="black"/>
<path d="M17 8.5C17 9.32843 16.3284 10 15.5 10C14.6716 10 14 9.32843 14 8.5C14 7.67157 14.6716 7 15.5 7C16.3284 7 17 7.67157 17 8.5Z" fill="black"/>
<path d="M16.9003 12.9934C17.0101 12.4521 16.5523 12 16 12H8C7.44772 12 6.98995 12.4521 7.09967 12.9934C7.16337 13.3076 7.25731 13.6158 7.3806 13.9134C7.63188 14.52 8.00017 15.0712 8.46447 15.5355C8.92876 15.9998 9.47995 16.3681 10.0866 16.6194C10.6932 16.8707 11.3434 17 12 17C12.6566 17 13.3068 16.8707 13.9134 16.6194C14.52 16.3681 15.0712 15.9998 15.5355 15.5355C15.9998 15.0712 16.3681 14.52 16.6194 13.9134C16.7427 13.6158 16.8366 13.3076 16.9003 12.9934Z" fill="black"/>
<path fill-rule="evenodd" clip-rule="evenodd" d="M24 12C24 18.6274 18.6274 24 12 24C5.37258 24 0 18.6274 0 12C0 5.37258 5.37258 0 12 0C18.6274 0 24 5.37258 24 12ZM22 12C22 17.5228 17.5228 22 12 22C6.47715 22 2 17.5228 2 12C2 6.47715 6.47715 2 12 2C17.5228 2 22 6.47715 22 12Z" fill="black"/>
</svg>
