<svg width="24" height="24" viewBox="0 0 24 24" fill="none" xmlns="http://www.w3.org/2000/svg">
<path d="M0 12C0 17.94 4.32 22.86 10.02 23.88L10.091 23.8219C10.0873 23.8212 10.0836 23.8206 10.0799 23.8199V15.3599H7.07988V11.9999H10.0799V9.35988C10.0799 6.35988 11.9999 4.67988 14.7599 4.67988C15.5999 4.67988 16.5599 4.79988 17.3999 4.91988V7.97988H15.8399C14.3999 7.97988 14.0399 8.69988 14.0399 9.65988V11.9999H17.2199L16.6799 15.3599H14.0399V23.8199C14.0033 23.8265 13.9668 23.833 13.9302 23.8393L13.98 23.88C19.68 22.86 24 17.94 24 12C24 5.4 18.6 0 12 0C5.4 0 0 5.4 0 12Z" fill="black"/>
</svg>
