<svg width="24" height="24" viewBox="0 0 24 24" fill="none" xmlns="http://www.w3.org/2000/svg">
<path fill-rule="evenodd" clip-rule="evenodd" d="M22 20C22 22.2091 20.2091 24 18 24H6C3.79086 24 2 22.2091 2 20V7.24264C2 6.18177 2.42143 5.16436 3.17157 4.41421L7.08579 0.5C7.40593 0.179855 7.84014 0 8.29289 0C9.2357 0 10 0.764297 10 1.70711V4C10 6.20914 8.20914 8 6 8H5C4.44772 8 4 8.44772 4 9V20C4 21.1046 4.89543 22 6 22H18C19.1046 22 20 21.1046 20 20V4C20 2.89543 19.1046 2 18 2H12V0H18C20.2091 0 22 1.79086 22 4V20ZM6 6H4.43288C4.48029 5.94022 4.5313 5.88291 4.58579 5.82843L8 2.41421V4C8 5.10457 7.10457 6 6 6Z" fill="black"/>
<path d="M11.3334 16.075H13.0884V15.971C13.0884 15.295 13.2704 15.022 14.0504 14.502L14.2714 14.346C15.3244 13.631 15.6494 12.864 15.6494 11.993C15.6494 10.498 14.4794 9.653 12.5164 9.653C10.5404 9.653 9.27935 10.68 9.13635 12.422L10.9564 12.773C11.0474 11.785 11.5804 11.278 12.4644 11.278C13.2184 11.278 13.6994 11.642 13.6994 12.227C13.6994 12.682 13.4654 12.981 12.8284 13.41L12.6074 13.566C11.7234 14.177 11.3334 14.788 11.3334 15.828V16.075Z" fill="black"/>
<path d="M11.1644 17.96C11.1644 18.597 11.6324 19.065 12.2694 19.065C12.9064 19.065 13.3744 18.597 13.3744 17.96C13.3744 17.323 12.9064 16.842 12.2694 16.842C11.6324 16.842 11.1644 17.323 11.1644 17.96Z" fill="black"/>
</svg>
