<svg width="24" height="24" viewBox="0 0 24 24" fill="none" xmlns="http://www.w3.org/2000/svg">
<path d="M6 6H9V9H6V6Z" fill="black"/>
<path fill-rule="evenodd" clip-rule="evenodd" d="M12 9H9V12H6V15H9V18H12V15H15V18H18V15H15V12H18V9H15V6H12V9ZM12 12H15V9H12V12ZM12 12V15H9V12H12Z" fill="black"/>
<path fill-rule="evenodd" clip-rule="evenodd" d="M1 5C1 2.79086 2.79086 1 5 1H19C21.2091 1 23 2.79086 23 5V19C23 21.2091 21.2091 23 19 23H5C2.79086 23 1 21.2091 1 19V5ZM5 3H19C20.1046 3 21 3.89543 21 5V19C21 20.1046 20.1046 21 19 21H5C3.89543 21 3 20.1046 3 19V5C3 3.89543 3.89543 3 5 3Z" fill="black"/>
</svg>
