<svg width="24" height="24" viewBox="0 0 24 24" fill="none" xmlns="http://www.w3.org/2000/svg">
<path fill-rule="evenodd" clip-rule="evenodd" d="M16 11C14.1362 11 12.5701 9.72523 12.126 8L0 8V6L12.126 6C12.5701 4.27477 14.1362 3 16 3C17.8638 3 19.4299 4.27477 19.874 6L24 6V8L19.874 8C19.4299 9.72523 17.8638 11 16 11ZM18 7C18 8.10457 17.1046 9 16 9C14.8954 9 14 8.10457 14 7C14 5.89543 14.8954 5 16 5C17.1046 5 18 5.89543 18 7Z" fill="black"/>
<path fill-rule="evenodd" clip-rule="evenodd" d="M11.874 16C11.4299 14.2748 9.86384 13 8 13C6.13616 13 4.57006 14.2748 4.12602 16H0V18H4.12602C4.57006 19.7252 6.13616 21 8 21C9.86384 21 11.4299 19.7252 11.874 18L24 18V16L11.874 16ZM10 17C10 18.1046 9.10457 19 8 19C6.89543 19 6 18.1046 6 17C6 15.8954 6.89543 15 8 15C9.10457 15 10 15.8954 10 17Z" fill="black"/>
</svg>
