<svg width="24" height="24" viewBox="0 0 24 24" fill="none" xmlns="http://www.w3.org/2000/svg">
<path d="M5 1C2.79086 1 1 2.79086 1 5V9H3V5C3 3.89543 3.89543 3 5 3H9V1H5Z" fill="black"/>
<path d="M19 1C21.2091 1 23 2.79086 23 5V9H21V5C21 3.89543 20.1046 3 19 3H15V1H19Z" fill="black"/>
<path d="M1 19C1 21.2091 2.79086 23 5 23H9V21H5C3.89543 21 3 20.1046 3 19V15H1V19Z" fill="black"/>
<path d="M19 23C21.2091 23 23 21.2091 23 19V15H21V19C21 20.1046 20.1046 21 19 21H15V23H19Z" fill="black"/>
<path fill-rule="evenodd" clip-rule="evenodd" d="M15.8907 14.4765C16.5892 13.4957 17 12.2958 17 11C17 7.68629 14.3137 5 11 5C7.68629 5 5 7.68629 5 11C5 14.3137 7.68629 17 11 17C12.2958 17 13.4957 16.5892 14.4765 15.8907L17.2929 18.7071L18.7071 17.2929L15.8907 14.4765ZM11 15C13.2091 15 15 13.2091 15 11C15 8.79086 13.2091 7 11 7C8.79086 7 7 8.79086 7 11C7 13.2091 8.79086 15 11 15Z" fill="black"/>
</svg>
