<svg width="24" height="24" viewBox="0 0 24 24" fill="none" xmlns="http://www.w3.org/2000/svg">
<path fill-rule="evenodd" clip-rule="evenodd" d="M13.0598 3.2532L4.99972 14H12.2805L10.6383 20.5686L18.9423 10H11.7948L13.0598 3.2532ZM12.5238 0.634613C12.8234 0.235117 13.2936 0 13.793 0C14.7864 0 15.5354 0.90254 15.3524 1.87892L14.2047 8H18.9423C20.6111 8 21.546 9.92339 20.5149 11.2356L10.956 23.4015C10.6591 23.7794 10.2052 24 9.72463 24C8.70585 24 7.95831 23.0426 8.2054 22.0542L9.71895 16H4.99972C3.35163 16 2.41087 14.1185 3.39972 12.8L12.5238 0.634613Z" fill="black"/>
</svg>
