<svg xmlns="http://www.w3.org/2000/svg" width="24" height="24"><path d="M17.5 16.5s1.12-1.36.98-1.87c-.15-.52-.93-.76-1.74-.56-.82.2-1.36.79-1.22 1.3.15.52 1.98 1.13 1.98 1.13M13 13a1 1 0 1 0 0 2 1 1 0 0 0 0-2m6 0a1 1 0 1 0 0-2 1 1 0 0 0 0 2M1 19a4 4 0 0 0 4 4h14a4 4 0 0 0 4-4V5a4 4 0 0 0-4-4H5a4 4 0 0 0-4 4zM9 5H7V3h2zm4-2v2h-2V3zm4 0v2h-2V3zm4 2h-2V3a2 2 0 0 1 2 2M3 5c0-1.1.9-2 2-2v2zm0 11V8a1 1 0 0 1 1-1h13.38L16.3 9.18l-2.1.7-2.48-1.85a1.92 1.92 0 0 0-3.04 1.09C8.37 10.42 8 12.52 8 15v2H4a1 1 0 0 1-1-1m16.27-8.31L21 9.4V16a1 1 0 0 1-1 1H10v-2c0-2.2.32-4.1.59-5.3l3.23 2.41 3.89-1.3zM21 19a2 2 0 0 1-2 2v-2zm-4 2h-2v-2h2zm-6 0v-2h2v2zm-4 0v-2h2v2zm-4-2h2v2a2 2 0 0 1-2-2"/></svg>