<svg width="24" height="24" viewBox="0 0 24 24" fill="none" xmlns="http://www.w3.org/2000/svg">
<path d="M17.5 16.5C17.5 16.5 18.622 15.1395 18.4764 14.6272C18.3307 14.1149 17.5517 13.8665 16.7363 14.0724C15.9209 14.2783 15.378 14.8605 15.5236 15.3728C15.6693 15.8851 17.5 16.5 17.5 16.5Z" fill="black"/>
<path d="M14 14C14 14.5523 13.5523 15 13 15C12.4477 15 12 14.5523 12 14C12 13.4477 12.4477 13 13 13C13.5523 13 14 13.4477 14 14Z" fill="black"/>
<path d="M19 13C19.5523 13 20 12.5523 20 12C20 11.4477 19.5523 11 19 11C18.4477 11 18 11.4477 18 12C18 12.5523 18.4477 13 19 13Z" fill="black"/>
<path fill-rule="evenodd" clip-rule="evenodd" d="M1 19C1 21.2091 2.79086 23 5 23H19C21.2091 23 23 21.2091 23 19V5C23 2.79086 21.2091 1 19 1H5C2.79086 1 1 2.79086 1 5V19ZM9 3H7V5H9V3ZM11 3V5H13V3H11ZM15 3V5H17V3H15ZM19 3V5H21C21 3.89543 20.1046 3 19 3ZM5 5V3C3.89543 3 3 3.89543 3 5H5ZM3 16V8C3 7.44772 3.44772 7 4 7H17.382L16.2908 9.1823L14.1808 9.88563L11.7099 8.03246C10.6325 7.22441 8.99453 7.68851 8.66698 9.11593C8.36841 10.4171 8 12.5223 8 15V17H4C3.44772 17 3 16.5523 3 16ZM19.274 7.68816L21 9.41421V16C21 16.5523 20.5523 17 20 17H10V15C10 12.7922 10.3178 10.8983 10.5875 9.69062L13.8192 12.1144L17.7092 10.8177L19.274 7.68816ZM21 19C21 20.1046 20.1046 21 19 21V19H21ZM17 19H15V21H17V19ZM13 21V19H11V21H13ZM9 21V19H7V21H9ZM5 21V19H3C3 20.1046 3.89543 21 5 21Z" fill="black"/>
</svg>
