<svg xmlns="http://www.w3.org/2000/svg" width="24" height="24"><path d="M3.22 5.48q.18.84.65 1.52H3a2 2 0 0 0-2 2v3a2 2 0 0 0 1.02 1.74L2 14v5a4 4 0 0 0 4 4h12a4 4 0 0 0 4-4v-5l-.02-.26A2 2 0 0 0 23 12V9a2 2 0 0 0-2-2h-.87q.46-.69.65-1.52l.03-.13a4.4 4.4 0 1 0-8.57-1.91L12 4.5l-.24-1.06a4.4 4.4 0 1 0-8.57 1.9zM7.6 7a2.5 2.5 0 0 1-2.44-1.96l-.03-.13A2.4 2.4 0 1 1 9.8 3.87L10.5 7zm6.58-3.13a2.4 2.4 0 1 1 4.67 1.04l-.03.13A2.5 2.5 0 0 1 16.4 7h-2.9zM21 9v3h-8V9zM11 9v3H3V9zm2 5h6a1 1 0 0 1 1 1v4a2 2 0 0 1-2 2h-5zm-2 0v7H6a2 2 0 0 1-2-2v-4a1 1 0 0 1 1-1z"/></svg>