<svg xmlns="http://www.w3.org/2000/svg" width="24" height="24"><path d="M3.87 7H3a2 2 0 0 0-2 2v3a2 2 0 0 0 1.02 1.74L2 14v5a4 4 0 0 0 4 4h12a4 4 0 0 0 4-4v-5l-.02-.26A2 2 0 0 0 23 12V9a2 2 0 0 0-2-2h-.87q.5-.76.68-1.65a4.35 4.35 0 0 0-4.29-5.3 4.35 4.35 0 0 0-4.28 3.39L12 4.5l-.24-1.06A4.35 4.35 0 0 0 7.48.05a4.35 4.35 0 0 0-4.3 5.3q.2.88.69 1.65M7.6 7c-3.16 0-3.39-4.95-.13-4.95 1.12 0 2.09.73 2.33 1.82L10.5 7zm6.58-3.13a2.35 2.35 0 0 1 2.33-1.82c3.26 0 3.03 4.95-.13 4.95h-2.9zM21 9v3h-8V9zM11 9v3H3V9zm2 5h6a1 1 0 0 1 1 1v4a2 2 0 0 1-2 2h-5zm-2 0v7H6a2 2 0 0 1-2-2v-4a1 1 0 0 1 1-1z"/></svg>