<svg width="24" height="24" viewBox="0 0 24 24" fill="none" xmlns="http://www.w3.org/2000/svg">
<path fill-rule="evenodd" clip-rule="evenodd" d="M0 7C0 4.79086 1.79086 3 4 3H20C22.2091 3 24 4.79086 24 7V17C24 19.2091 22.2091 21 20 21H4C1.79086 21 0 19.2091 0 17V7ZM4 5H20C21.1046 5 22 5.89543 22 7C22 7.2505 21.8632 7.481 21.6433 7.60096L12 12.8609L2.35675 7.60096C2.13683 7.481 2 7.2505 2 7C2 5.89543 2.89543 5 4 5ZM22 9.68454V17C22 18.1046 21.1046 19 20 19H4C2.89543 19 2 18.1046 2 17V9.68454L12 15.1391L22 9.68454Z" fill="black"/>
</svg>
