<svg width="24" height="24" viewBox="0 0 24 24" fill="none" xmlns="http://www.w3.org/2000/svg">
<path fill-rule="evenodd" clip-rule="evenodd" d="M12 8.1241L9.90348 5.60828C9.05426 4.58921 7.79627 4 6.46974 4C4.00117 4 2 6.00117 2 8.46974V9C2 11.1793 3.64786 13.562 6.09123 15.7769C8.39898 17.8689 10.9732 19.4132 12 19.9931C13.0268 19.4132 15.601 17.8689 17.9088 15.7769C20.3521 13.562 22 11.1793 22 9V8.46974C22 6.00117 19.9988 4 17.5303 4C16.2037 4 14.9457 4.58921 14.0965 5.60828L12 8.1241ZM10.6325 3.51696C9.47594 2.54492 8.00453 2 6.46974 2C2.8966 2 0 4.8966 0 8.46974V9C0 15.1831 8.9724 20.5859 11.0667 21.7628C11.353 21.9237 11.6715 22 12 22C12.3285 22 12.647 21.9237 12.9333 21.7628C15.0276 20.5859 24 15.1831 24 9V8.46974C24 4.8966 21.1034 2 17.5303 2C15.9955 2 14.5241 2.54492 13.3675 3.51696C13.0772 3.76098 12.8067 4.03192 12.5601 4.32791L12 5L11.4399 4.32791C11.1933 4.03192 10.9228 3.76098 10.6325 3.51696Z" fill="black"/>
</svg>
