<svg width="24" height="24" viewBox="0 0 24 24" fill="none" xmlns="http://www.w3.org/2000/svg">
<path d="M12 2C8.29999 2 5.06755 4.00951 3.33759 7H7.99979L7.99995 9H0V1H2V5.36475C4.149 2.13238 7.8247 0 12 0C18.6274 0 24 5.37258 24 12C24 18.6274 18.6274 24 12 24C8.70321 24 5.7153 22.6692 3.54743 20.5179L4.95622 19.0983C6.76474 20.893 9.25212 22 12 22C17.5228 22 22 17.5228 22 12C22 6.47715 17.5228 2 12 2Z" fill="black"/>
<path d="M11 5V12.4142L14.2929 15.7071L15.7071 14.2929L13 11.5858V5H11Z" fill="black"/>
</svg>
