<svg width="24" height="24" viewBox="0 0 24 24" fill="none" xmlns="http://www.w3.org/2000/svg">
<path fill-rule="evenodd" clip-rule="evenodd" d="M19 19C19 21.2091 17.2091 23 15 23H5C2.79086 23 1 21.2091 1 19V9C1 6.79086 2.79086 5 5 5H15C17.2091 5 19 6.79086 19 9V19ZM15 21H5C3.89543 21 3 20.1046 3 19V9C3 7.89543 3.89543 7 5 7H15C16.1046 7 17 7.89543 17 9V19C17 20.1046 16.1046 21 15 21Z" fill="black"/>
<path d="M21 8V17H23V8C23 4.13401 19.866 1 16 1H7V3H16C18.7614 3 21 5.23857 21 8Z" fill="black"/>
</svg>
