<svg width="24" height="24" viewBox="0 0 24 24" fill="none" xmlns="http://www.w3.org/2000/svg">
<path d="M4.01168 8.47436C5.44828 5.80831 8.26374 4 11.5 4C14.096 4 16.4212 5.16354 17.9812 7H15V9H21V3H19V5.15169C17.0949 3.20756 14.4389 2 11.5 2C7.4992 2 4.02257 4.23798 2.25102 7.52564L4.01168 8.47436Z" fill="black"/>
<path fill-rule="evenodd" clip-rule="evenodd" d="M3 10C1.89543 10 1 10.8954 1 12V20C1 21.1046 1.89543 22 3 22H5C6.10457 22 7 21.1046 7 20V12C7 10.8954 6.10457 10 5 10H3ZM5 12H3L3 20H5V12Z" fill="black"/>
<path fill-rule="evenodd" clip-rule="evenodd" d="M19 14C17.8954 14 17 14.8954 17 16V20C17 21.1046 17.8954 22 19 22H21C22.1046 22 23 21.1046 23 20V16C23 14.8954 22.1046 14 21 14H19ZM19 16V20H21V16H19Z" fill="black"/>
<path fill-rule="evenodd" clip-rule="evenodd" d="M9 14C9 12.8954 9.89543 12 11 12H13C14.1046 12 15 12.8954 15 14V20C15 21.1046 14.1046 22 13 22H11C9.89543 22 9 21.1046 9 20V14ZM11 14H13V20H11V14Z" fill="black"/>
</svg>
