<svg width="24" height="24" viewBox="0 0 24 24" fill="none" xmlns="http://www.w3.org/2000/svg">
<path d="M17.9169 5.00454C18.0085 5.54917 17.5523 5.99992 17 5.99992H13C12.4477 5.99992 12 5.5522 12 4.99992V0.999919C12 0.447635 12.4508 -0.00856197 12.9954 0.0830609C13.4406 0.157961 13.877 0.283052 14.2961 0.456642C15.0241 0.75817 15.6855 1.20013 16.2426 1.75728C16.7998 2.31443 17.2417 2.97587 17.5433 3.70382C17.7169 4.1229 17.842 4.55931 17.9169 5.00454Z" fill="black"/>
<path d="M14.4495 7.99992C13.8182 8.61851 12.9537 8.99992 12 8.99992C10.067 8.99992 8.5 7.43291 8.5 5.49992C8.5 4.31055 9.09326 3.25974 10 2.62726V0.374858C7.95132 1.17493 6.5 3.16794 6.5 5.49992C6.5 8.53748 8.96243 10.9999 12 10.9999C14.1373 10.9999 15.9899 9.78076 16.9003 7.99992H14.4495Z" fill="black"/>
<path fill-rule="evenodd" clip-rule="evenodd" d="M2 21.9999C2 16.4771 6.47715 11.9999 12 11.9999C17.5228 11.9999 22 16.4771 22 21.9999C22 22.5522 21.5523 22.9999 21 22.9999H3C2.44772 22.9999 2 22.5522 2 21.9999ZM19.9381 20.9999C19.446 17.0536 16.0796 13.9999 12 13.9999C7.92038 13.9999 4.55399 17.0536 4.06189 20.9999H19.9381Z" fill="black"/>
</svg>
