<svg xmlns="http://www.w3.org/2000/svg" width="24" height="24"><path d="M12 1c-2.99 0-3.36.01-4.53.07a8 8 0 0 0-2.67.5c-.73.29-1.34.66-1.95 1.28a5.4 5.4 0 0 0-1.27 1.94 8 8 0 0 0-.51 2.67A79 79 0 0 0 1 12c0 2.99.01 3.36.07 4.53.05 1.18.24 1.98.5 2.67.29.73.66 1.34 1.28 1.95.6.61 1.22 1 1.94 1.27.7.27 1.5.46 2.67.51C8.64 23 9.01 23 12 23s3.36-.01 4.53-.07a8 8 0 0 0 2.68-.5 5 5 0 0 0 1.94-1.28 5.4 5.4 0 0 0 1.27-1.95c.27-.7.46-1.5.51-2.67C23 15.36 23 15 23 12s-.01-3.36-.07-4.54a8 8 0 0 0-.5-2.67 5.4 5.4 0 0 0-1.28-1.94 5 5 0 0 0-1.95-1.27 8 8 0 0 0-2.67-.51A78 78 0 0 0 12 1m-.99 1.98h1c2.93 0 3.28.01 4.44.07a6 6 0 0 1 2.04.37c.51.2.88.44 1.26.83.39.38.63.75.83 1.26.15.39.33.97.37 2.04.06 1.16.07 1.51.07 4.45 0 2.93-.01 3.28-.07 4.44a6 6 0 0 1-.37 2.04c-.2.52-.44.88-.83 1.27a3.4 3.4 0 0 1-1.26.82c-.39.15-.97.33-2.04.38-1.16.05-1.51.06-4.45.06s-3.28 0-4.44-.06a6 6 0 0 1-2.05-.38 3.4 3.4 0 0 1-1.26-.82 3.4 3.4 0 0 1-.82-1.27 6 6 0 0 1-.38-2.04 77 77 0 0 1-.07-4.45c0-2.93.01-3.28.07-4.44.05-1.07.22-1.65.38-2.04.2-.51.43-.88.82-1.27.38-.38.75-.62 1.26-.82.4-.15.97-.33 2.05-.38C8.57 3 8.96 2.98 11 2.98zm6.86 1.83a1.32 1.32 0 1 0 0 2.64 1.32 1.32 0 0 0 0-2.64M12 6.35a5.65 5.65 0 1 0 0 11.3 5.65 5.65 0 0 0 0-11.3m0 1.98a3.67 3.67 0 1 1 0 7.34 3.67 3.67 0 0 1 0-7.34"/></svg>