<svg width="24" height="24" viewBox="0 0 24 24" fill="none" xmlns="http://www.w3.org/2000/svg">
<path d="M19.828 2.41376C18.2659 0.851662 15.7332 0.851665 14.1711 2.41376L11.9138 4.67112C10.5348 6.05011 10.3731 8.18546 11.4288 9.74177L12.8973 8.27326C12.5929 7.54667 12.7365 6.67684 13.328 6.08533L15.5853 3.82797C16.3664 3.04693 17.6327 3.04693 18.4138 3.82797L20.1711 5.58533C20.9522 6.36638 20.9522 7.63271 20.1711 8.41376L17.9138 10.6711C17.3222 11.2626 16.4523 11.4062 15.7257 11.1017L14.2572 12.5702C15.8136 13.626 17.949 13.4643 19.328 12.0853L21.5853 9.82797C23.1474 8.26588 23.1474 5.73321 21.5853 4.17112L19.828 2.41376Z" fill="black"/>
<path d="M4.67112 11.9138C6.05011 10.5348 8.18546 10.3731 9.74177 11.4288L8.27326 12.8973C7.54667 12.5929 6.67684 12.7365 6.08533 13.328L3.82797 15.5853C3.04693 16.3664 3.04693 17.6327 3.82797 18.4138L5.58533 20.1711C6.36638 20.9522 7.63271 20.9522 8.41376 20.1711L10.6711 17.9138C11.2626 17.3222 11.4062 16.4523 11.1017 15.7257L12.5702 14.2572C13.626 15.8136 13.4643 17.949 12.0853 19.328L9.82797 21.5853C8.26588 23.1474 5.73322 23.1474 4.17112 21.5853L2.41376 19.828C0.851665 18.2659 0.851662 15.7332 2.41376 14.1711L4.67112 11.9138Z" fill="black"/>
<path d="M8.70711 16.7071L16.7071 8.70711L15.2929 7.29289L7.29289 15.2929L8.70711 16.7071Z" fill="black"/>
</svg>
