<svg xmlns="http://www.w3.org/2000/svg" width="24" height="24"><path d="M7 5V1h2v4zm7.17-2.59a4 4 0 0 1 5.66 0l1.76 1.76a4 4 0 0 1 0 5.66l-2.26 2.26q-.33.31-.7.55l-1.48-1.5a2 2 0 0 0 .76-.47l2.26-2.26a2 2 0 0 0 0-2.82l-1.76-1.76a2 2 0 0 0-2.82 0l-2.26 2.26a2 2 0 0 0-.48.76l-1.49-1.49q.24-.37.55-.69zM6.85 12.85a2 2 0 0 0-.76.48l-2.26 2.26a2 2 0 0 0 0 2.82l1.76 1.76a2 2 0 0 0 2.82 0l2.26-2.26a2 2 0 0 0 .48-.76l1.49 1.49q-.24.36-.55.69l-2.26 2.26a4 4 0 0 1-5.66 0l-1.76-1.76a4 4 0 0 1 0-5.66l2.26-2.26q.32-.32.7-.55zM15 23v-4h2v4zM1 7h4v2H1zm18 8h4v2h-4z"/></svg>