<svg xmlns="http://www.w3.org/2000/svg" width="24" height="24"><path d="M12 6.38c2.64-2.17 6.32-1.77 8.55 1.13l3.02 3.93c.26.34.28.8.04 1.14C20.85 16.5 16.68 19 12 19S3.15 16.5.4 12.58a1 1 0 0 1 .03-1.14l3.02-3.93c2.23-2.9 5.91-3.3 8.55-1.13M5.03 8.73l-1.57 2.05 4.26-.6a4 4 0 0 1 2.79.62l.38.26a2 2 0 0 0 2.22 0l.38-.26a4 4 0 0 1 2.79-.63l4.26.61-1.57-2.05C17.4 6.7 15 6.5 13.27 7.93L12 8.96l-1.27-1.05C9 6.5 6.6 6.7 5.03 8.73m-1.87 4.12A12 12 0 0 0 12 17c3.36 0 6.48-1.54 8.84-4.15l-4.85-.7a2 2 0 0 0-1.39.32l-.38.25a4 4 0 0 1-4.44 0l-.38-.25a2 2 0 0 0-1.4-.32z"/></svg>