<svg xmlns="http://www.w3.org/2000/svg" width="24" height="24"><path d="M1.9 3.38v-1.5Q3.32 1.87 3.35.66h1.43V7H3.3V2.77c-.2.41-.7.61-1.41.61M9 3h14v2H9zm14 10H9v-2h14zm0 8H9v-2h14zM1.59 15c-.04-.14-.06-.4-.06-.6a2.5 2.5 0 0 1 1.57-2.41l1.15-.56q.64-.3.65-.85c0-.46-.33-.75-.83-.75q-.91.01-1.02 1.06l-1.5-.36c.04-1.29 1.05-2 2.51-2 1.52 0 2.38.75 2.38 1.99 0 .97-.56 1.58-1.42 2.01l-1.12.59c-.33.17-.49.31-.56.5h3.03V15zm1.16 5.98q.24.86 1.08.86c.64 0 1.04-.4 1.04-1 0-.57-.4-.94-1-.94q-.58.02-.96.31l-.55-1.03L4.26 18H1.74v-1.35h4.38v1.33l-1.54 1.04c1.17.07 1.81.8 1.81 1.92 0 1.29-1.03 2.18-2.48 2.18-1.3 0-2.19-.53-2.47-1.52z"/></svg>