<svg width="24" height="24" viewBox="0 0 24 24" fill="none" xmlns="http://www.w3.org/2000/svg">
<path fill-rule="evenodd" clip-rule="evenodd" d="M16 10C16 12.2091 14.2091 14 12 14C9.79086 14 8 12.2091 8 10C8 7.79086 9.79086 6 12 6C14.2091 6 16 7.79086 16 10ZM14 10C14 11.1046 13.1046 12 12 12C10.8954 12 10 11.1046 10 10C10 8.89543 10.8954 8 12 8C13.1046 8 14 8.89543 14 10Z" fill="black"/>
<path fill-rule="evenodd" clip-rule="evenodd" d="M22 10C22 16.1402 14.6904 22.2804 12.8948 23.6961C12.6397 23.8972 12.3248 24 12 24C11.6752 24 11.3603 23.8972 11.1052 23.6961C9.30957 22.2804 2 16.1402 2 10C2 4.47715 6.47715 0 12 0C17.5228 0 22 4.47715 22 10ZM7.42009 17.3447C9.12139 19.4006 11.0024 21.0376 12 21.8501C12.9976 21.0376 14.8786 19.4006 16.5799 17.3447C18.5601 14.9517 20 12.344 20 10C20 5.58172 16.4183 2 12 2C7.58172 2 4 5.58172 4 10C4 12.344 5.43985 14.9517 7.42009 17.3447Z" fill="black"/>
</svg>
