<svg width="24" height="24" viewBox="0 0 24 24" fill="none" xmlns="http://www.w3.org/2000/svg">
<path d="M22 6H2V4H22V6Z" fill="black"/>
<path d="M22 20H2V18H22V20Z" fill="black"/>
<path d="M12.4267 8.30953C12.2926 7.89682 11.7088 7.89682 11.5747 8.30954L10.7938 10.7127H8.26693C7.83298 10.7127 7.65255 11.268 8.00362 11.5231L10.0479 13.0084L9.26706 15.4116C9.13296 15.8243 9.60533 16.1675 9.95641 15.9124L12.0007 14.4272L14.045 15.9124C14.3961 16.1675 14.8684 15.8243 14.7343 15.4116L13.9535 13.0084L15.9978 11.5231C16.3488 11.268 16.1684 10.7127 15.7345 10.7127H13.2076L12.4267 8.30953Z" fill="black"/>
</svg>
