<svg xmlns="http://www.w3.org/2000/svg" width="24" height="24"><path d="M5.85 0h-.7l-.1.43a3.5 3.5 0 0 1-2.62 2.62l-.43.1v.7l.43.1a3.5 3.5 0 0 1 2.62 2.62l.1.43h.7l.1-.43a3.5 3.5 0 0 1 2.62-2.62l.43-.1v-.7l-.43-.1A3.5 3.5 0 0 1 5.95.43zm13.54 18.37L19.3 18h-.6l-.09.37a3 3 0 0 1-2.24 2.24l-.37.09v.6l.37.09a3 3 0 0 1 2.24 2.24l.09.37h.6l.09-.37a3 3 0 0 1 2.24-2.24l.37-.09v-.6l-.37-.09a3 3 0 0 1-2.24-2.24M21.5 14a1.5 1.5 0 1 0 0 3 1.5 1.5 0 0 0 0-3M20.41 2a2 2 0 0 0-2.82 0L2 17.59a2 2 0 0 0 0 2.82L3.59 22a2 2 0 0 0 2.82 0L22 6.41a2 2 0 0 0 0-2.82zM17.6 8 5 20.59 3.41 19 16 6.41zM19 3.41 20.59 5l-.88.88a1 1 0 0 1-1.42 0l-.17-.17a1 1 0 0 1 0-1.42z"/></svg>