<svg width="24" height="24" viewBox="0 0 24 24" fill="none" xmlns="http://www.w3.org/2000/svg">
<path d="M11.0001 11.0001H6.00008V9.00008H7.58586L5.29297 6.70718L6.70718 5.29297L9.00008 7.58586V6.00008H11.0001V11.0001Z" fill="black"/>
<path d="M13.0002 13.0002H18.0002V15.0002H16.4144L18.7073 17.2931L17.2931 18.7073L15.0002 16.4144V18.0002H13.0002V13.0002Z" fill="black"/>
<path fill-rule="evenodd" clip-rule="evenodd" d="M1 5C1 2.79086 2.79086 1 5 1H19C21.2091 1 23 2.79086 23 5V19C23 21.2091 21.2091 23 19 23H5C2.79086 23 1 21.2091 1 19V5ZM5 4H19C19.5523 4 20 4.44772 20 5V19C20 19.5523 19.5523 20 19 20H5C4.44772 20 4 19.5523 4 19V5C4 4.44772 4.44772 4 5 4Z" fill="black"/>
</svg>
