<svg xmlns="http://www.w3.org/2000/svg" width="24" height="24"><path d="m5 18.54-.7-.12A4 4 0 0 1 1 14.48V9.52a4 4 0 0 1 3.3-3.94l11.57-2.04A2.6 2.6 0 0 0 18 1h2v6q.8 0 1.53.38.74.38 1.3 1.08t.87 1.63a6 6 0 0 1 0 3.82q-.3.92-.87 1.63-.56.7-1.3 1.08Q20.8 17 20 17v6h-2c0-1.25-.9-2.32-2.13-2.54l-3.59-.63-.6 1.35a3 3 0 0 1-3.8 1.6l-.93-.36A3 3 0 0 1 5 19.62zM18 4.78q-.79.54-1.78.73L7 7.13v9.74l9.22 1.62q1 .19 1.78.73zM5 16.51V7.5l-.35.06A2 2 0 0 0 3 9.52v4.96a2 2 0 0 0 1.65 1.97zm2 2.39v.71a1 1 0 0 0 .65.94l.94.35a1 1 0 0 0 1.26-.53l.4-.9zm13.77-9.67c-.38-.24-.77.13-.77.58v4.38c0 .45.39.82.77.58q.37-.23.64-.65.29-.42.44-.97a4.3 4.3 0 0 0 0-2.3q-.15-.55-.44-.97-.27-.42-.64-.65"/></svg>