<svg width="24" height="24" viewBox="0 0 24 24" fill="none" xmlns="http://www.w3.org/2000/svg">
<path fill-rule="evenodd" clip-rule="evenodd" d="M12 0C9.23858 0 7 2.23858 7 5V11C7 13.7614 9.23858 16 12 16C14.7614 16 17 13.7614 17 11V5C17 2.23858 14.7614 0 12 0ZM15 11V5C15 3.34315 13.6569 2 12 2C10.3431 2 9 3.34315 9 5V11C9 12.6569 10.3431 14 12 14C13.6569 14 15 12.6569 15 11Z" fill="black"/>
<path d="M5 9V11C5 14.866 8.13401 18 12 18C15.866 18 19 14.866 19 11V9H21V11C21 15.6326 17.5 19.4476 13 19.9451V24H11V19.9451C6.50005 19.4476 3 15.6326 3 11V9H5Z" fill="black"/>
</svg>
