<svg width="24" height="24" viewBox="0 0 24 24" fill="none" xmlns="http://www.w3.org/2000/svg">
<path fill-rule="evenodd" clip-rule="evenodd" d="M23 4.4738C23 2.56387 21.2389 1.14021 19.3714 1.54039L10.9524 3.34448C8.647 3.83848 7 5.8758 7 8.23349V15.535C6.41165 15.1946 5.72857 14.9998 5 14.9998C2.79086 14.9998 1 16.7907 1 18.9998C1 21.209 2.79086 22.9998 5 22.9998C7.20914 22.9998 9 21.209 9 18.9998V12.4252C9 11.4822 9.6588 10.6672 10.5809 10.4696L20.2539 8.39686C20.5158 8.34073 20.7655 8.25593 21 8.14618V12.535C20.4117 12.1946 19.7286 11.9998 19 11.9998C16.7909 11.9998 15 13.7907 15 15.9998C15 18.209 16.7909 19.9998 19 19.9998C21.2091 19.9998 23 18.209 23 15.9998V4.4738ZM21 4.4738C21 3.83716 20.413 3.3626 19.7905 3.496L11.3714 5.30008C9.9882 5.59649 9 6.81888 9 8.23349V8.96062C9.35422 8.7561 9.74457 8.60346 10.1619 8.51404L19.8349 6.44126C20.5145 6.29563 21 5.69503 21 5V4.4738ZM5 16.9998C6.10457 16.9998 7 17.8953 7 18.9998C7 20.1044 6.10457 20.9998 5 20.9998C3.89543 20.9998 3 20.1044 3 18.9998C3 17.8953 3.89543 16.9998 5 16.9998ZM19 13.9998C20.1046 13.9998 21 14.8953 21 15.9998C21 17.1044 20.1046 17.9998 19 17.9998C17.8954 17.9998 17 17.1044 17 15.9998C17 14.8953 17.8954 13.9998 19 13.9998Z" fill="black"/>
</svg>
