<svg width="24" height="24" viewBox="0 0 24 24" fill="none" xmlns="http://www.w3.org/2000/svg">
<path fill-rule="evenodd" clip-rule="evenodd" d="M23 21C23 22.1046 22.1046 23 21 23H3C1.89543 23 1 22.1046 1 21L1 3C1 1.89543 1.89543 1 3 1L9 1C10.1046 1 11 1.89543 11 3L11 13H21C22.1046 13 23 13.8954 23 15V21ZM3 13H9L9 3H3L3 13Z" fill="black"/>
<path d="M16.2929 8.70711L17.7071 7.29289L16.4142 6H18C19.1046 6 20 6.89543 20 8V11H22V8C22 5.79086 20.2091 4 18 4H16.4142L17.7071 2.70711L16.2929 1.29289L12.5858 5L16.2929 8.70711Z" fill="black"/>
</svg>
