<svg xmlns="http://www.w3.org/2000/svg" width="24" height="24"><path d="M7.58 9.59q-.71 0-1.12.66a3 3 0 0 0-.42 1.74q0 1.1.42 1.74.41.64 1.09.64.7 0 1.1-.62.42-.63.42-1.73a3.4 3.4 0 0 0-.4-1.8 1.2 1.2 0 0 0-1.09-.63M23 8.29s-6.65 4.37-6.41 4.23c0 0-.24.14-.43 0l-1.4-.94v5.84h7.06c.62 0 1.18-.36 1.18-1.22zM7.62 8.15q1.29 0 2.07 1.04.8 1.04.8 2.74a4.5 4.5 0 0 1-.82 2.81 2.6 2.6 0 0 1-2.15 1.07q-1.27 0-2.1-1.03a4.3 4.3 0 0 1-.8-2.7q0-1.76.82-2.84a2.6 2.6 0 0 1 2.18-1.09m7.15-2.49v4.3l1.52.95c.04.02.12.02.16 0L23 6.55c0-.52-.49-.89-.76-.89zM13.95 1 1 3.48v16.84L13.95 23z"/></svg>