<svg xmlns="http://www.w3.org/2000/svg" width="24" height="24"><path d="M8 1a3 3 0 0 1 3 3v6a3 3 0 0 1-3 3H4a3 3 0 0 1-3-3V4a3 3 0 0 1 3-3zm-5 9a1 1 0 0 0 1 1h4a1 1 0 0 0 1-1V4a1 1 0 0 0-1-1H4a1 1 0 0 0-1 1zm13 13a3 3 0 0 1-3-3v-6a3 3 0 0 1 3-3h4a3 3 0 0 1 3 3v6a3 3 0 0 1-3 3zm-1-3a1 1 0 0 0 1 1h4a1 1 0 0 0 1-1v-6a1 1 0 0 0-1-1h-4a1 1 0 0 0-1 1zM1 18a3 3 0 0 1 3-3h4a3 3 0 0 1 3 3v2a3 3 0 0 1-3 3H4a3 3 0 0 1-3-3zm3-1a1 1 0 0 0-1 1v2a1 1 0 0 0 1 1h4a1 1 0 0 0 1-1v-2a1 1 0 0 0-1-1zm12-8a3 3 0 0 1-3-3V4a3 3 0 0 1 3-3h4a3 3 0 0 1 3 3v2a3 3 0 0 1-3 3zm-1-3a1 1 0 0 0 1 1h4a1 1 0 0 0 1-1V4a1 1 0 0 0-1-1h-4a1 1 0 0 0-1 1z"/></svg>