<svg xmlns="http://www.w3.org/2000/svg" width="24" height="24"><path d="M2.61.37A3 3 0 0 1 .37 2.61L0 2.7v.6l.37.09a3 3 0 0 1 2.24 2.24L2.7 6h.6l.09-.37a3 3 0 0 1 2.24-2.24L6 3.3v-.6l-.37-.09A3 3 0 0 1 3.39.37L3.3 0h-.6zm8.17.33L8.81 7a2 2 0 0 0-1.95 1.6L4.02 22.8l1.96.4L8.82 9h6.36l.94 4.7 1.96-.4-.94-4.7A2 2 0 0 0 15.2 7L13.22.7a1 1 0 0 0-.96-.7h-.52a1 1 0 0 0-.96.7M21.5 17a1.5 1.5 0 1 0 0-3 1.5 1.5 0 0 0 0 3m-2.2 1h-.6l-.09.37a3 3 0 0 1-2.24 2.24l-.37.09v.6l.37.09a3 3 0 0 1 2.24 2.24l.09.37h.6l.09-.37a3 3 0 0 1 2.24-2.24l.37-.09v-.6l-.37-.09a3 3 0 0 1-2.24-2.24z"/></svg>