<svg width="24" height="24" viewBox="0 0 24 24" fill="none" xmlns="http://www.w3.org/2000/svg">
<path fill-rule="evenodd" clip-rule="evenodd" d="M12.9997 6.49987C12.9997 8.9851 10.9851 10.9998 8.49983 10.9998C6.0146 10.9998 3.99992 8.9851 3.99992 6.49987C3.99992 4.01464 6.0146 1.99996 8.49983 1.99996C10.9851 1.99996 12.9997 4.01464 12.9997 6.49987ZM10.9998 6.49987C10.9998 7.88055 9.88051 8.99982 8.49983 8.99982C7.11914 8.99982 5.99988 7.88055 5.99988 6.49987C5.99988 5.11918 7.11914 3.99992 8.49983 3.99992C9.88051 3.99992 10.9998 5.11918 10.9998 6.49987Z" fill="black"/>
<path fill-rule="evenodd" clip-rule="evenodd" d="M19.9996 6.99986C19.9996 8.65668 18.6565 9.9998 16.9997 9.9998C15.3428 9.9998 13.9997 8.65668 13.9997 6.99986C13.9997 5.34304 15.3428 3.99992 16.9997 3.99992C18.6565 3.99992 19.9996 5.34304 19.9996 6.99986ZM17.9996 6.99986C17.9996 7.55213 17.5519 7.99984 16.9997 7.99984C16.4474 7.99984 15.9997 7.55213 15.9997 6.99986C15.9997 6.44758 16.4474 5.99988 16.9997 5.99988C17.5519 5.99988 17.9996 6.44758 17.9996 6.99986Z" fill="black"/>
<path fill-rule="evenodd" clip-rule="evenodd" d="M0 20.9996C0 16.0909 3.74569 11.9998 8.49983 11.9998C13.254 11.9998 16.9997 16.0909 16.9997 20.9996C16.9997 21.5518 16.5519 21.9996 15.9997 21.9996H0.99998C0.447706 21.9996 0 21.5518 0 20.9996ZM14.9344 19.9996C14.481 16.5627 11.724 13.9997 8.49983 13.9997C5.27564 13.9997 2.51868 16.5627 2.06525 19.9996H14.9344Z" fill="black"/>
<path d="M18.8014 18.9996H23C23.5523 18.9996 24 18.5519 24 17.9996C24 14.1337 20.866 10.9998 17.0001 10.9998C15.9436 10.9998 14.9418 11.2338 14.0437 11.6529C14.6955 12.0792 15.2973 12.5774 15.8401 13.135C16.2124 13.0465 16.6008 12.9997 17.0001 12.9997C19.419 12.9997 21.4367 14.7175 21.9 16.9997H18.2826C18.4431 17.429 18.578 17.8699 18.6856 18.3202C18.7411 18.5523 18.7792 18.7789 18.8014 18.9996Z" fill="black"/>
</svg>
