<svg width="24" height="24" viewBox="0 0 24 24" fill="none" xmlns="http://www.w3.org/2000/svg">
<path d="M16.7032 9.20711L15.289 7.79289L10.4961 12.5858L8.7032 10.7929L7.28899 12.2071L10.4961 15.4142L16.7032 9.20711Z" fill="black"/>
<path fill-rule="evenodd" clip-rule="evenodd" d="M0.432808 7.27754C0.179178 5.37532 1.31223 3.56101 3.13281 2.95416L11.0471 0.31606C11.6629 0.110793 12.3287 0.110793 12.9445 0.316059L20.8587 2.95416C22.6793 3.56101 23.8124 5.37532 23.5588 7.27754L22.8152 12.8543C22.3012 16.7093 19.9509 20.0761 16.5094 21.8874L12.9382 23.767C12.6476 23.9199 12.3242 23.9998 11.9958 23.9998C11.6674 23.9998 11.3439 23.9199 11.0533 23.767L7.48216 21.8874C4.04067 20.0761 1.69037 16.7093 1.17638 12.8543L0.432808 7.27754ZM21.5763 7.01322L20.8327 12.59C20.4044 15.8025 18.4458 18.6081 15.5779 20.1176L12.0067 21.9971C12.0034 21.9989 11.9996 21.9998 11.9958 21.9998C11.9928 21.9998 11.9898 21.9993 11.987 21.9981L11.9848 21.9971L8.41365 20.1176C5.54574 18.6081 3.58716 15.8025 3.15884 12.59L2.41526 7.01321C2.28845 6.0621 2.85497 5.15495 3.76526 4.85152L11.6796 2.21343C11.8848 2.145 12.1067 2.145 12.312 2.21343L20.2263 4.85152C21.1366 5.15495 21.7031 6.0621 21.5763 7.01322Z" fill="black"/>
</svg>
