<svg width="24" height="24" viewBox="0 0 24 24" fill="none" xmlns="http://www.w3.org/2000/svg">
<path d="M13.5 17.5C13.5 18.3284 12.8284 19 12 19C11.1716 19 10.5 18.3284 10.5 17.5C10.5 16.6716 11.1716 16 12 16C12.8284 16 13.5 16.6716 13.5 17.5Z" fill="black"/>
<path d="M12.807 14.719V15.071H10.621V14.51C10.621 13.7136 10.7738 13.0724 11.1104 12.5139C11.4452 11.9585 11.9515 11.502 12.6288 11.0567L13.1025 10.7346L13.1063 10.7321C13.5823 10.4241 13.8873 10.1573 14.076 9.86898C14.2609 9.58639 14.345 9.26618 14.345 8.829C14.345 8.28742 14.1369 7.86207 13.7672 7.56756C13.3923 7.26891 12.833 7.091 12.113 7.091C11.3149 7.091 10.7041 7.31702 10.2822 7.71969C9.85995 8.12263 9.60306 8.72513 9.55765 9.52435L9.5449 9.74881L7.30957 9.35705L7.31507 9.18365C7.35475 7.93383 7.85743 6.88256 8.712 6.14578C9.56464 5.41065 10.7538 5 12.151 5C13.5199 5 14.6515 5.32986 15.4453 5.95486C16.2448 6.58431 16.683 7.49891 16.683 8.62C16.683 10.0081 15.9566 11.2999 14.5266 12.2609L14.1116 12.5627L14.1043 12.5678C13.5419 12.9396 13.2308 13.1893 13.05 13.4803C12.8736 13.7641 12.807 14.1117 12.807 14.719Z" fill="black"/>
<path fill-rule="evenodd" clip-rule="evenodd" d="M12 24C18.6274 24 24 18.6274 24 12C24 5.37258 18.6274 0 12 0C5.37258 0 0 5.37258 0 12C0 18.6274 5.37258 24 12 24ZM12 22C17.5228 22 22 17.5228 22 12C22 6.47715 17.5228 2 12 2C6.47715 2 2 6.47715 2 12C2 17.5228 6.47715 22 12 22Z" fill="black"/>
</svg>
