<svg width="24" height="24" viewBox="0 0 24 24" fill="none" xmlns="http://www.w3.org/2000/svg">
<path fill-rule="evenodd" clip-rule="evenodd" d="M11.3429 13.459C11.3429 11.897 10.2209 10.907 8.75788 10.907C7.86688 10.907 7.22888 11.27 6.92088 11.875C6.99788 10.346 7.56988 9.554 8.63688 9.554C9.26388 9.554 9.73688 9.873 10.0559 10.357L11.3649 9.378C10.9359 8.608 9.89088 8.091 8.64788 8.091C6.67888 8.091 5.28188 9.543 5.28188 12.183C5.28188 14.647 6.49188 16.154 8.42788 16.154C10.1989 16.154 11.3429 14.977 11.3429 13.459ZM9.69288 13.536C9.69288 14.295 9.12088 14.79 8.36188 14.79C7.60288 14.79 7.03088 14.295 7.03088 13.536C7.03088 12.766 7.60288 12.271 8.36188 12.271C9.12088 12.271 9.69288 12.766 9.69288 13.536Z" fill="black"/>
<path fill-rule="evenodd" clip-rule="evenodd" d="M12.275 12.117C12.275 14.647 13.485 16.154 15.498 16.154C17.522 16.154 18.721 14.647 18.721 12.117C18.721 9.598 17.522 8.091 15.498 8.091C13.485 8.091 12.275 9.598 12.275 12.117ZM17.071 12.117C17.071 13.723 16.477 14.669 15.498 14.669C14.519 14.669 13.936 13.723 13.936 12.117C13.936 10.522 14.519 9.576 15.498 9.576C16.477 9.576 17.071 10.522 17.071 12.117Z" fill="black"/>
<path fill-rule="evenodd" clip-rule="evenodd" d="M24 12C24 18.6274 18.6274 24 12 24C5.37258 24 0 18.6274 0 12C0 5.37258 5.37258 0 12 0C18.6274 0 24 5.37258 24 12ZM22 12C22 17.5228 17.5228 22 12 22C6.47715 22 2 17.5228 2 12C2 6.47715 6.47715 2 12 2C17.5228 2 22 6.47715 22 12Z" fill="black"/>
</svg>
