<svg width="24" height="24" viewBox="0 0 24 24" fill="none" xmlns="http://www.w3.org/2000/svg">
<path fill-rule="evenodd" clip-rule="evenodd" d="M1 3C1 1.89543 1.89543 1 3 1H9C10.1046 1 11 1.89543 11 3V9C11 10.1046 10.1046 11 9 11H3C1.89543 11 1 10.1046 1 9V3ZM3 3H9V9H3L3 3Z" fill="black"/>
<path fill-rule="evenodd" clip-rule="evenodd" d="M13 15C13 13.8954 13.8954 13 15 13H21C22.1046 13 23 13.8954 23 15V21C23 22.1046 22.1046 23 21 23H15C13.8954 23 13 22.1046 13 21V15ZM21 15V21H15V15H21Z" fill="black"/>
<path d="M15.2929 7.70711L16.7071 6.29289L18 7.58579V6C18 4.89543 17.1046 4 16 4H13V2H16C18.2091 2 20 3.79086 20 6V7.58579L21.2929 6.29289L22.7071 7.70711L19 11.4142L15.2929 7.70711Z" fill="black"/>
<path d="M8.70703 16.2929L4.99992 12.5858L1.29282 16.2929L2.70703 17.7071L4 16.4141V18C4 20.2091 5.79086 22 8 22H11V20H8C6.89543 20 6 19.1046 6 18V16.4143L7.29282 17.7071L8.70703 16.2929Z" fill="black"/>
</svg>
