<svg width="24" height="24" viewBox="0 0 24 24" fill="none" xmlns="http://www.w3.org/2000/svg">
<path fill-rule="evenodd" clip-rule="evenodd" d="M24 12C24 18.6274 18.6274 24 12 24C5.37258 24 0 18.6274 0 12C0 5.37258 5.37258 0 12 0C18.6274 0 24 5.37258 24 12ZM11 21.9506V2.04938C5.94668 2.5511 2 6.81465 2 12C2 17.1853 5.94668 21.4489 11 21.9506ZM16.3641 21C15.3298 21.5025 14.1959 21.8319 13 21.9506V21H16.3641ZM19.1414 19H13V17H20.6622C20.2399 17.73 19.728 18.4017 19.1414 19ZM21.5422 15H13V13H21.9506C21.8821 13.6897 21.7436 14.3588 21.5422 15ZM21.9506 11H13V9H21.5422C21.7436 9.64124 21.8821 10.3103 21.9506 11ZM20.6622 7H13V5H19.1414C19.728 5.59829 20.2399 6.26998 20.6622 7ZM16.3641 3H13V2.04938C14.1959 2.16811 15.3298 2.49753 16.3641 3Z" fill="black"/>
</svg>
