<svg xmlns="http://www.w3.org/2000/svg" width="24" height="24"><path d="M19.8 10.27A6.5 6.5 0 1 0 8.23 8.21l-.24.23a4.64 4.64 0 0 0-8 3.2v.22c0 2.72 2.14 4.77 3.92 6.03a20 20 0 0 0 3.68 2.03h.03L8 19l-.37.93.37.15.37-.15L8 19l.37.93.03-.01a12 12 0 0 0 1.14-.53q.64-.3 1.46-.8V21c0 1.1.9 2 2 2h9a2 2 0 0 0 2-2v-5a6 6 0 0 0-4.2-5.73M17 10q-.65 0-1.25.13a4.64 4.64 0 0 0-5.7-2.94A4.5 4.5 0 1 1 17.33 10zm-6.08 6.25A18 18 0 0 1 8 17.91a18 18 0 0 1-2.92-1.66C3.36 15.04 2 13.51 2 11.86v-.22a2.64 2.64 0 0 1 4.6-1.77L8 11.42l1.4-1.55a2.64 2.64 0 0 1 4.49 1A6 6 0 0 0 11 16v.2zM17 12h1a4 4 0 0 1 4 4v5h-9v-5a4 4 0 0 1 4-4"/></svg>