<svg width="24" height="24" viewBox="0 0 24 24" fill="none" xmlns="http://www.w3.org/2000/svg">
<path fill-rule="evenodd" clip-rule="evenodd" d="M4 7H5.64037C5.78899 6.73533 5.96226 6.48323 6.15889 6.24728L9.63209 2.07945C10.2021 1.39547 11.0464 1 11.9368 1H13C14.1046 1 15 1.89543 15 3V21C15 22.1046 14.1046 23 13 23H11.9368C11.0464 23 10.2021 22.6045 9.63209 21.9206L6.15889 17.7527C5.96226 17.5168 5.78899 17.2647 5.64037 17H4C1.79086 17 0 15.2091 0 13V11C0 8.79086 1.79086 7 4 7ZM11.9368 3C11.64 3 11.3585 3.13182 11.1685 3.35982L7.69534 7.52765C7.24605 8.06679 7 8.74639 7 9.4482V14.5518C7 15.2536 7.24605 15.9332 7.69534 16.4724L11.1685 20.6402C11.3585 20.8682 11.64 21 11.9368 21H13V3H11.9368ZM5 10C5 9.44771 4.55228 9 4 9C2.89543 9 2 9.89543 2 11V13C2 14.1046 2.89543 15 4 15C4.55228 15 5 14.5523 5 14V10Z" fill="black"/>
<path d="M18 12C18 10.8954 17.1046 10 16 10V8C18.2091 8 20 9.79086 20 12C20 14.2091 18.2091 16 16 16V14C17.1046 14 18 13.1046 18 12Z" fill="black"/>
<path d="M16 6C19.3137 6 22 8.68629 22 12C22 15.3137 19.3137 18 16 18V20C20.4183 20 24 16.4183 24 12C24 7.58172 20.4183 4 16 4V6Z" fill="black"/>
</svg>
