<svg width="24" height="24" viewBox="0 0 24 24" fill="none" xmlns="http://www.w3.org/2000/svg">
<path d="M0.292893 1.70711L22.2929 23.7071L23.7071 22.2929L1.70711 0.292892L0.292893 1.70711Z" fill="black"/>
<path d="M24 12C24 14.1474 23.1539 16.0972 21.7769 17.5342L20.3622 16.1196C21.3775 15.0449 22 13.5951 22 12C22 8.68629 19.3137 6 16 6V4C20.4183 4 24 7.58172 24 12Z" fill="black"/>
<path d="M20 12C20 13.0428 19.6009 13.9925 18.9472 14.7045L17.5304 13.2877C17.8234 12.9398 18 12.4905 18 12C18 10.8954 17.1046 10 16 10V8C18.2091 8 20 9.79086 20 12Z" fill="black"/>
<path d="M15 3V10.7574L13 8.75736V3H11.9368C11.64 3 11.3585 3.13182 11.1685 3.35981L9.54759 5.30494L8.12754 3.8849L9.63209 2.07945C10.2021 1.39547 11.0464 0.999999 11.9368 0.999999H13C14.1046 0.999999 15 1.89543 15 3Z" fill="black"/>
<path fill-rule="evenodd" clip-rule="evenodd" d="M7 11.2426L2.90818 7.15082C1.22974 7.62598 0 9.16938 0 11V13C0 15.2091 1.79086 17 4 17H5.64037C5.78899 17.2647 5.96226 17.5168 6.15889 17.7527L9.63209 21.9206C10.2021 22.6045 11.0464 23 11.9368 23H13C14.1046 23 15 22.1046 15 21V19.2426L13 17.2426V21H11.9368C11.64 21 11.3585 20.8682 11.1685 20.6402L7.69534 16.4724C7.24605 15.9332 7 15.2536 7 14.5518V11.2426ZM5 10C5 9.44771 4.55228 9 4 9C2.89543 9 2 9.89543 2 11V13C2 14.1046 2.89543 15 4 15C4.55228 15 5 14.5523 5 14V10Z" fill="black"/>
</svg>
