<svg xmlns="http://www.w3.org/2000/svg" width="24" height="24"><path d="m.3 1.7 22 22 1.4-1.4-22-22zm18.23 2.7-.63 1.9a6 6 0 0 1 2.46 9.82l1.42 1.41A8 8 0 0 0 18.53 4.4m-1.26 3.8-.64 1.9a2 2 0 0 1 .9 3.19l1.42 1.41a4 4 0 0 0-1.68-6.5M13 2h-.36a2 2 0 0 0-1.16.37L8.64 4.4l1.44 1.43L12 4.46v3.3l2 2V3a1 1 0 0 0-1-1m-6 9.24L2.76 7H2.5A2.5 2.5 0 0 0 0 9.5v5A2.5 2.5 0 0 0 2.5 17H5l6.48 4.63a2 2 0 0 0 1.16.37H13a1 1 0 0 0 1-1v-2.76l-2-2v3.3l-4.16-2.97A2 2 0 0 1 7 14.94zM2.5 15a.5.5 0 0 1-.5-.5v-5c0-.28.22-.5.5-.5H4a1 1 0 0 1 1 1v4a1 1 0 0 1-1 1z"/></svg>