<svg xmlns="http://www.w3.org/2000/svg" width="24" height="24"><path d="M4 7h1.64a5 5 0 0 1 .52-.75l3.47-4.17A3 3 0 0 1 11.93 1H13a2 2 0 0 1 2 2v18a2 2 0 0 1-2 2h-1.06a3 3 0 0 1-2.3-1.08l-3.48-4.17a5 5 0 0 1-.52-.75H4a4 4 0 0 1-4-4v-2a4 4 0 0 1 4-4m7.94-4a1 1 0 0 0-.77.36L7.7 7.53A3 3 0 0 0 7 9.45v5.1a3 3 0 0 0 .7 1.92l3.47 4.17a1 1 0 0 0 .77.36H13V3zM5 10a1 1 0 0 0-1-1 2 2 0 0 0-2 2v2c0 1.1.9 2 2 2a1 1 0 0 0 1-1zm13 2a2 2 0 0 0-2-2V8a4 4 0 0 1 0 8v-2a2 2 0 0 0 2-2m-2-8a8 8 0 1 1 0 16v-2a6 6 0 0 0 0-12z"/></svg>