<svg width="24" height="24" viewBox="0 0 24 24" fill="none" xmlns="http://www.w3.org/2000/svg">
<path d="M12 22C6.47715 22 2 17.5228 2 12C2 6.47715 6.47715 2 12 2C17.5228 2 22 6.47715 22 12C22 12.8953 21.8823 13.7631 21.6617 14.5888L23.594 15.1066C23.8588 14.1157 24 13.0744 24 12C24 5.37258 18.6274 0 12 0C5.37258 0 0 5.37258 0 12C0 18.6274 5.37258 24 12 24V22Z" fill="black"/>
<path d="M13.4142 14.1213C12.4379 15.0977 10.855 15.0977 9.87868 14.1213C8.90237 13.145 8.90237 11.5621 9.87868 10.5858C11.1815 9.28301 14.4045 7.98021 16.0099 7.385C16.3962 7.24177 16.7583 7.60379 16.615 7.99012C16.0198 9.59548 14.717 12.8185 13.4142 14.1213Z" fill="black"/>
<path d="M16.942 16.075H15.413C15.402 17.065 14.764 17.549 13.631 17.549V19.155C14.467 19.155 15.083 18.946 15.358 18.473V23.83H16.942V16.075Z" fill="black"/>
<path d="M23.8811 23.83L21.9231 21.124L23.7161 18.605H21.9561L20.9881 20.09L20.0531 18.605H18.2821L20.0421 21.08L18.0621 23.83H19.8331L20.9881 22.092L22.1211 23.83H23.8811Z" fill="black"/>
</svg>
