<svg width="24" height="24" viewBox="0 0 24 24" fill="none" xmlns="http://www.w3.org/2000/svg">
<path d="M21.6617 14.5888C21.8823 13.7631 22 12.8953 22 12C22 6.47715 17.5228 2 12 2C6.47715 2 2 6.47715 2 12C2 15.7011 4.01062 18.9325 6.99917 20.6617L5.999 22.394C2.41274 20.319 0 16.4413 0 12C0 5.37258 5.37258 0 12 0C18.6274 0 24 5.37258 24 12C24 13.0744 23.8588 14.1157 23.594 15.1066L21.6617 14.5888Z" fill="black"/>
<path d="M13.4142 14.1213C12.4379 15.0977 10.855 15.0977 9.87868 14.1213C8.90237 13.145 8.90237 11.5621 9.87868 10.5858C11.1815 9.28301 14.4045 7.98021 16.0099 7.385C16.3962 7.24177 16.7583 7.60379 16.615 7.99012C16.0198 9.59548 14.717 12.8185 13.4142 14.1213Z" fill="black"/>
<path d="M9.21041 22.95C9.21041 23.489 9.61741 23.885 10.1564 23.885C10.6954 23.885 11.0804 23.489 11.0804 22.95C11.0804 22.411 10.6954 22.004 10.1564 22.004C9.61741 22.004 9.21041 22.411 9.21041 22.95Z" fill="black"/>
<path d="M17.6085 21.267C17.6085 19.705 16.5855 18.748 15.1555 18.748C14.5725 18.748 14.0775 18.902 13.7805 19.199L14.1105 17.56H17.1575V16.075H12.9115L12.1855 20.167L13.4835 20.684C13.6925 20.299 14.1215 20.013 14.7155 20.013C15.4965 20.013 15.9475 20.475 15.9475 21.278C15.9475 22.07 15.4525 22.554 14.6275 22.554C13.9565 22.554 13.5055 22.224 13.3075 21.597L11.8665 22.246C12.1745 23.302 13.2745 23.984 14.6715 23.984C16.3985 23.984 17.6085 22.917 17.6085 21.267Z" fill="black"/>
<path d="M23.8811 23.83L21.9231 21.124L23.7161 18.605H21.9561L20.9881 20.09L20.0531 18.605H18.2821L20.0421 21.08L18.0621 23.83H19.8331L20.9881 22.092L22.1211 23.83H23.8811Z" fill="black"/>
</svg>
