<svg width="24" height="24" viewBox="0 0 24 24" fill="none" xmlns="http://www.w3.org/2000/svg">
<path d="M12 0C14.1861 0 16.2357 0.584586 18.001 1.60596L17.0008 3.3383C15.5298 2.48715 13.8218 2 12 2C6.47715 2 2 6.47715 2 12C2 17.5228 6.47715 22 12 22C17.5228 22 22 17.5228 22 12C22 10.1782 21.5128 8.47022 20.6617 6.99917L22.394 5.999C23.4154 7.76427 24 9.81386 24 12C24 18.6274 18.6274 24 12 24C5.37258 24 0 18.6274 0 12C0 5.37258 5.37258 0 12 0Z" fill="black"/>
<path d="M9.87868 14.1213C10.855 15.0977 12.4379 15.0977 13.4142 14.1213C14.717 12.8185 16.0198 9.59548 16.615 7.99012C16.7583 7.60379 16.3962 7.24177 16.0099 7.385C14.4045 7.98021 11.1815 9.28301 9.87868 10.5858C8.90237 11.5621 8.90237 13.145 9.87868 14.1213Z" fill="black"/>
</svg>
