<svg width="24" height="24" viewBox="0 0 24 24" fill="none" xmlns="http://www.w3.org/2000/svg">
<path fill-rule="evenodd" clip-rule="evenodd" d="M20.2725 16.7195L20.5548 16.137C21.1598 14.8888 21.5 13.487 21.5 12C21.5 6.75329 17.2467 2.5 12 2.5C6.75329 2.5 2.5 6.75329 2.5 12C2.5 17.2467 6.75329 21.5 12 21.5C13.487 21.5 14.8888 21.1598 16.137 20.5548L16.7195 20.2725L21.0339 21.0339L20.2725 16.7195ZM17.0093 22.3546C15.4951 23.0885 13.7956 23.5 12 23.5C5.64873 23.5 0.5 18.3513 0.5 12C0.5 5.64873 5.64873 0.5 12 0.5C18.3513 0.5 23.5 5.64873 23.5 12C23.5 13.7956 23.0885 15.4951 22.3546 17.0093L23.0035 20.6863C23.2448 22.0536 22.0536 23.2448 20.6863 23.0035L17.0093 22.3546Z" fill="black"/>
</svg>
