<svg width="24" height="24" viewBox="0 0 24 24" fill="none" xmlns="http://www.w3.org/2000/svg">
<path fill-rule="evenodd" clip-rule="evenodd" d="M14.2574 9.9404L11.9997 4.51221L9.74202 9.9404L3.88183 10.4102L8.34668 14.2348L6.9826 19.9534L11.9997 16.8889L17.0169 19.9534L15.6528 14.2348L20.1176 10.4102L14.2574 9.9404ZM8.36451 8.04442L1.46249 8.59775C0.525122 8.6729 0.145032 9.8427 0.859209 10.4545L6.11782 14.959L4.51123 21.6942C4.29303 22.6089 5.28812 23.3319 6.09064 22.8417L11.9997 19.2325L17.9088 22.8417C18.7113 23.3319 19.7064 22.6089 19.4882 21.6942L17.8816 14.959L23.1403 10.4545C23.8544 9.8427 23.4743 8.6729 22.537 8.59775L15.635 8.04442L12.9759 1.6512C12.6147 0.782933 11.3847 0.782933 11.0236 1.6512L8.36451 8.04442Z" fill="black"/>
</svg>
