<svg width="24" height="24" viewBox="0 0 24 24" fill="none" xmlns="http://www.w3.org/2000/svg">
<path fill-rule="evenodd" clip-rule="evenodd" d="M5 1C2.79086 1 1 2.79086 1 5V19C1 21.2091 2.79086 23 5 23H10V21H5C3.89543 21 3 20.1046 3 19V5C3 3.89543 3.89543 3 5 3H19C20.1046 3 21 3.89543 21 5V11C21 11.5523 20.5523 12 20 12H16.2102L14.3233 4.65039H12.3316L4.61719 19.0004H7.10289L9.18288 14.9204H12.1474C12.0514 15.2638 12 15.6259 12 16V23H12.7574C13.8182 23 14.8356 22.5786 15.5858 21.8284L21.8284 15.5858C22.5786 14.8356 23 13.8182 23 12.7574V5C23 2.79086 21.2091 1 19 1H5ZM13.4115 12.9504C13.6524 12.7457 13.9179 12.569 14.2029 12.4254L13.0231 7.47327L10.211 12.9504H13.4115ZM20.5671 14H16C14.8954 14 14 14.8954 14 16V20.5671C14.0598 20.5197 14.1171 20.4687 14.1716 20.4142L20.4142 14.1716C20.4687 14.1171 20.5197 14.0598 20.5671 14Z" fill="black"/>
</svg>
