<svg width="24" height="24" viewBox="0 0 24 24" fill="none" xmlns="http://www.w3.org/2000/svg">
<path d="M11.1611 4.0433C11.4362 4.01471 11.7161 4 12 4C12.2839 4 12.5638 4.01471 12.8389 4.0433L13.2523 0.0647151C12.8401 0.0218879 12.4223 0 12 0C11.5777 0 11.1599 0.0218879 10.7477 0.0647151L11.1611 4.0433Z" fill="black"/>
<path d="M7.29869 5.52628C7.74857 5.19887 8.23334 4.91756 8.74604 4.68894L7.11701 1.03569C6.34615 1.37942 5.61876 1.80172 4.94494 2.29212L7.29869 5.52628Z" fill="black"/>
<path d="M15.254 4.68894C15.7667 4.91756 16.2514 5.19887 16.7013 5.52628L19.0551 2.29212C18.3812 1.80172 17.6539 1.37942 16.883 1.03569L15.254 4.68894Z" fill="black"/>
<path d="M4.68894 8.74604C4.91756 8.23334 5.19887 7.74857 5.52628 7.29869L2.29212 4.94494C1.80172 5.61876 1.37942 6.34615 1.03569 7.11701L4.68894 8.74604Z" fill="black"/>
<path d="M18.4737 7.29869C18.8011 7.74857 19.0824 8.23334 19.3111 8.74604L22.9643 7.11701C22.6206 6.34615 22.1983 5.61876 21.7079 4.94494L18.4737 7.29869Z" fill="black"/>
<path d="M4 12C4 11.7161 4.01471 11.4362 4.0433 11.1611L0.0647151 10.7477C0.0218879 11.1599 0 11.5777 0 12C0 12.4223 0.0218879 12.8401 0.0647151 13.2523L4.0433 12.8389C4.01471 12.5638 4 12.2839 4 12Z" fill="black"/>
<path d="M19.9567 11.1611C19.9853 11.4362 20 11.7161 20 12C20 12.2839 19.9853 12.5638 19.9567 12.8389L23.9353 13.2523C23.9781 12.8401 24 12.4223 24 12C24 11.5777 23.9781 11.1599 23.9353 10.7477L19.9567 11.1611Z" fill="black"/>
<path d="M5.52628 16.7013C5.19887 16.2514 4.91756 15.7667 4.68894 15.254L1.03569 16.883C1.37942 17.6539 1.80172 18.3812 2.29212 19.0551L5.52628 16.7013Z" fill="black"/>
<path d="M19.3111 15.254C19.0824 15.7667 18.8011 16.2514 18.4737 16.7013L21.7079 19.0551C22.1983 18.3812 22.6206 17.6539 22.9643 16.883L19.3111 15.254Z" fill="black"/>
<path d="M8.74604 19.3111C8.23334 19.0824 7.74857 18.8011 7.29869 18.4737L4.94494 21.7079C5.61876 22.1983 6.34615 22.6206 7.11701 22.9643L8.74604 19.3111Z" fill="black"/>
<path d="M16.7013 18.4737C16.2514 18.8011 15.7667 19.0824 15.254 19.3111L16.883 22.9643C17.6539 22.6206 18.3812 22.1983 19.0551 21.7079L16.7013 18.4737Z" fill="black"/>
<path d="M12 20C11.7161 20 11.4362 19.9853 11.1611 19.9567L10.7477 23.9353C11.1599 23.9781 11.5777 24 12 24C12.4223 24 12.8401 23.9781 13.2523 23.9353L12.8389 19.9567C12.5638 19.9853 12.2839 20 12 20Z" fill="black"/>
<path fill-rule="evenodd" clip-rule="evenodd" d="M18 12C18 15.3137 15.3137 18 12 18C8.68629 18 6 15.3137 6 12C6 8.68629 8.68629 6 12 6C15.3137 6 18 8.68629 18 12ZM16 12C16 14.2091 14.2091 16 12 16C9.79086 16 8 14.2091 8 12C8 9.79086 9.79086 8 12 8C14.2091 8 16 9.79086 16 12Z" fill="black"/>
</svg>
