<svg width="24" height="24" viewBox="0 0 24 24" fill="none" xmlns="http://www.w3.org/2000/svg">
<path d="M3.33759 17C5.06756 19.9905 8.29999 22 12 22C17.5229 22 22 17.5229 22 12L24 12C24 18.6274 18.6274 24 12 24C7.8247 24 4.149 21.8676 2 18.6352L2 23H1.42652e-06L1.77621e-06 15L7.99915 15L7.99995 17H3.33759Z" fill="black"/>
<path d="M24 9V1H22V5.36476C19.851 2.13238 16.1753 1.82508e-07 12 0C5.37258 -2.89694e-07 2.89694e-07 5.37258 0 12L2 12C2 6.47715 6.47715 2 12 2C15.7 2 18.9324 4.00951 20.6624 7L16.0002 7L16.0001 9L24 9Z" fill="black"/>
</svg>
