<svg xmlns="http://www.w3.org/2000/svg" width="24" height="24"><path d="M9.41 2.17A4 4 0 0 1 12.24 1H19a4 4 0 0 1 4 4v6.76a4 4 0 0 1-.36 1.65l-1.82-.82a2 2 0 0 0 .18-.83V5a2 2 0 0 0-2-2h-6.76a2 2 0 0 0-1.41.59l-8 8a2 2 0 0 0 0 2.82l6.76 6.76a2 2 0 0 0 2.62.18l1.22 1.58a4 4 0 0 1-5.26-.34l-6.76-6.76a4 4 0 0 1 0-5.66zM18 8a2 2 0 1 1-4 0 2 2 0 0 1 4 0m1.86 9.02 2.6.2a.4.4 0 0 1 .22.7l-1.97 1.69.6 2.53a.4.4 0 0 1-.6.43L18.5 21.2l-2.22 1.36a.4.4 0 0 1-.59-.43l.6-2.53-1.97-1.69a.4.4 0 0 1 .23-.7l2.59-.2 1-2.4a.4.4 0 0 1 .73 0z"/></svg>