<svg xmlns="http://www.w3.org/2000/svg" width="24" height="24"><path d="M9 1.5C9 .67 9.67 0 10.5 0h1.34c1.7 0 3.3 1.1 3.71 2.85C15.78 3.81 16 5 16 6q0 .49-.06 1h2.56a3.5 3.5 0 0 1 3.36 4.48 3.5 3.5 0 0 1 0 4.04 3.5 3.5 0 0 1-.9 3.46A3.5 3.5 0 0 1 17.5 22h-5.16a11 11 0 0 1-2.9-.39l-2.91-.8a9 9 0 0 0-2.37-.31H4a2 2 0 0 1-2-2v-5.75a2 2 0 0 1 1.45-1.92l2.1-.6a1 1 0 0 0 .54-.38L9 5.68zm2 .5v3.68a2 2 0 0 1-.36 1.15L7.73 11a3 3 0 0 1-1.64 1.17l-2.09.6v5.74h.16a11 11 0 0 1 2.9.39l2.91.8a9 9 0 0 0 2.37.31h5.16c.83 0 1.5-.67 1.5-1.5V18l.4-.3a1.5 1.5 0 0 0 .43-1.9l-.37-.68.56-.52a1.5 1.5 0 0 0 0-2.2l-.56-.52.37-.68q.16-.3.17-.7c0-.83-.67-1.5-1.5-1.5h-4.93l.22-1.19c.13-.65.21-1.29.21-1.81 0-.77-.18-1.77-.4-2.69A1.8 1.8 0 0 0 11.85 2z"/></svg>