<svg width="24" height="24" viewBox="0 0 24 24" fill="none" xmlns="http://www.w3.org/2000/svg">
<path d="M15 0V1.41409C16.5015 1.83877 17.8725 2.5743 19.039 3.54676L20.2929 2.29289L21.7071 3.70711L20.4532 4.96099C22.0433 6.86847 22.9999 9.32252 22.9999 12C22.9999 13.5626 22.6735 15.0516 22.0842 16.4004L20.2515 15.5996C20.7325 14.4986 20.9999 13.2818 20.9999 12C20.9999 7.02944 16.9705 3 11.9999 3C7.02936 3 2.99992 7.02944 2.99992 12C2.99992 16.9706 7.02936 21 11.9999 21V23C5.92479 23 0.999924 18.0751 0.999924 12C0.999924 6.96486 4.38295 2.71988 9 1.41404V0H15Z" fill="black"/>
<path d="M13 5H11V11.5858L8.29289 14.2929L9.70711 15.7071L13 12.4142V5Z" fill="black"/>
<path d="M17.6087 19.2915L19.3567 18.009V16.8025H14.8157V18.085H17.5042L15.5092 19.4625L15.9937 20.441C16.3167 20.2415 16.6302 20.156 17.0292 20.156C17.7132 20.156 18.1882 20.6025 18.1882 21.258C18.1882 21.961 17.7132 22.398 16.9817 22.398C16.3452 22.398 15.9367 22.0845 15.7752 21.467L14.4927 22.037C14.7397 23.0535 15.6707 23.633 17.0672 23.633C18.5397 23.633 19.6132 22.683 19.6132 21.372C19.6132 20.099 18.8722 19.339 17.6087 19.2915Z" fill="black"/>
</svg>
