<svg xmlns="http://www.w3.org/2000/svg" width="24" height="24"><path d="M1 12A11 11 0 0 1 9 1.41V0h6v1.41q2.27.66 4.04 2.14l1.25-1.26 1.42 1.42-1.26 1.25a11 11 0 0 1 1.63 11.44l-1.83-.8q.73-1.67.75-3.6a9 9 0 1 0-9 9v2A11 11 0 0 1 1 12m12 .41-3.3 3.3-1.4-1.42 2.7-2.7V5h2zm2.69 11.09h-1.37v-4.63c-.24.41-.77.6-1.49.6v-1.4c.98 0 1.53-.41 1.54-1.27h1.32zm4.1-6.83c1.74 0 2.78 1.3 2.78 3.48s-1.04 3.48-2.79 3.48c-1.74 0-2.78-1.3-2.78-3.48s1.04-3.48 2.78-3.48m0 1.28c-.85 0-1.36.82-1.36 2.2s.5 2.2 1.35 2.2 1.36-.82 1.36-2.2-.51-2.2-1.36-2.2"/></svg>