<svg width="24" height="24" viewBox="0 0 24 24" fill="none" xmlns="http://www.w3.org/2000/svg">
<path d="M11 9V18H13V9H11Z" fill="black"/>
<path fill-rule="evenodd" clip-rule="evenodd" d="M7.65113 2.27239C7.985 0.936893 9.18495 0 10.5616 0H13.4384C14.8151 0 16.015 0.936892 16.3489 2.27239L16.7808 4H23V6H21.892C21.3612 6 20.923 6.41461 20.8935 6.94453L20.1559 20.2219C20.0381 22.3415 18.285 24 16.162 24H7.83796C5.71502 24 3.96188 22.3415 3.84412 20.2219L3.10649 6.94453C3.07705 6.41461 2.63876 6 2.10803 6H1V4H7.21922L7.65113 2.27239ZM19.0629 6C18.9701 6.26256 18.9128 6.54227 18.8966 6.83359L18.159 20.1109C18.1001 21.1708 17.2235 22 16.162 22H7.83796C6.77649 22 5.89992 21.1708 5.84104 20.1109L5.10341 6.83359C5.08722 6.54227 5.02985 6.26256 4.93713 6H19.0629ZM9.28078 4H14.7192L14.4086 2.75746C14.2973 2.3123 13.8973 2 13.4384 2H10.5616C10.1027 2 9.7027 2.3123 9.59141 2.75746L9.28078 4Z" fill="black"/>
</svg>
