<svg width="24" height="24" viewBox="0 0 24 24" fill="none" xmlns="http://www.w3.org/2000/svg">
<path d="M12 2C15.7 2 18.9324 4.00951 20.6624 7H18.0006L18 9H24V3H22V5.36475C19.851 2.13238 16.1753 0 12 0C5.37258 0 0 5.37258 0 12C0 18.6274 5.37258 24 12 24C15.2968 24 18.2847 22.6692 20.4526 20.5179L19.0438 19.0983C17.2353 20.893 14.7479 22 12 22C6.47715 22 2 17.5228 2 12C2 6.47715 6.47715 2 12 2Z" fill="black"/>
<path fill-rule="evenodd" clip-rule="evenodd" d="M14 15.25C15.6569 15.25 17 13.7949 17 12C17 10.2051 15.6569 8.75 14 8.75C12.3431 8.75 11 10.2051 11 12C11 13.7949 12.3431 15.25 14 15.25ZM14 13.25C14.4046 13.25 15 12.8441 15 12C15 11.1559 14.4046 10.75 14 10.75C13.5954 10.75 13 11.1559 13 12C13 12.8441 13.5954 13.25 14 13.25Z" fill="black"/>
<path d="M8 15V9H10V15H8Z" fill="black"/>
</svg>
