<svg width="24" height="24" viewBox="0 0 24 24" fill="none" xmlns="http://www.w3.org/2000/svg">
<path d="M18.123 6.21793C19.4452 6.76559 20.6851 7.48697 21.8108 8.36081L14.3053 15.8663C14.824 16.3207 15.2073 16.9258 15.3868 17.6133L23.3138 9.68629C24.0948 8.90524 24.101 7.62887 23.2382 6.93925C21.9188 5.88473 20.4549 5.01906 18.8884 4.37017C16.7045 3.46558 14.3639 3 12.0001 3C9.63627 3 7.29563 3.46558 5.11177 4.37017C3.5452 5.01906 2.08132 5.88474 0.761948 6.93925C-0.10089 7.62888 -0.0946887 8.90525 0.68636 9.6863L8.61337 17.6133C8.79287 16.9258 9.17616 16.3207 9.69483 15.8663L2.18931 8.36082C3.31508 7.48697 4.55497 6.76559 5.87713 6.21793C7.81834 5.41385 9.89892 5 12.0001 5C14.1012 5 16.1818 5.41385 18.123 6.21793Z" fill="black"/>
<path d="M12 20C11.1716 20 10.5 19.3284 10.5 18.5C10.5 17.6716 11.1716 17 12 17C12.3304 17 12.6359 17.1068 12.8838 17.2879C13.2573 17.5607 13.5001 18.002 13.5001 18.5C13.5001 19.226 12.9843 19.8316 12.2992 19.9702C12.2025 19.9897 12.1024 20 12 20Z" fill="black"/>
<path d="M14.089 9.46598L13.1644 15.0136C13.0695 15.5828 12.5771 16 12 16C11.4229 16 10.9305 15.5828 10.8356 15.0136L9.911 9.46598C9.69585 8.17511 10.6913 7 12 7C13.3087 7 14.3041 8.17511 14.089 9.46598Z" fill="black"/>
</svg>
