<svg xmlns="http://www.w3.org/2000/svg" width="24" height="24"><path d="m21.56 17.45.83.04-.23 1.51-.78-.06-.73-.06v-1.54zm-.7-7.63c.32.07 2.86.3 3.14.31l-1.67 6.31-1.44-.11zm.76-1.48h-1.73l-.56.12c-.59.15-5.96 4.2-6.31 5.2-.08.34 0 3.67.08 4.17.36.08 2.91 0 3.38.09l-.06 1.02c-.45-.03-3.7-.02-5.56-.02-.94 0-3.96.1-4.9.07l.18-.98c.51-.03 2.62.1 3.09-.38.23-.24.16-3.4.08-3.94-.2-.57-4.9-6.31-6.14-7.25H0V5h10.7v.1h.03l-.03.24v1.1H7.47c1.44 2.04 3.5 4.51 4.38 5.7l4.3-3.8H13.6l-.36-1.44h9.38l-.08.1h.04l-.67.95h-.02z"/></svg>