<svg width="140" height="141" viewBox="0 0 140 141" fill="none" xmlns="http://www.w3.org/2000/svg">
<g clip-path="url(#clip0_1172_482)">
<path d="M0 70.5C0 31.6998 31.3359 0.25354 70 0.25354C108.664 0.25354 140 31.6998 140 70.5C140 109.3 108.664 140.746 70 140.746C31.3359 140.746 0 109.3 0 70.5ZM44.8711 89.5708C43.2852 87.7324 40.5234 87.5403 38.6914 89.1318C36.8594 90.7233 36.668 93.4948 38.2539 95.3332C44.3242 102.358 54.9336 110.014 69.7539 110.014C85.0664 110.014 95.6484 102.358 101.746 95.3332C103.332 93.4948 103.141 90.7233 101.309 89.1318C99.4766 87.5403 96.7148 87.7324 95.1289 89.5708C90.207 95.2509 81.8672 101.233 69.7539 101.233C58.1328 101.233 49.7656 95.2509 44.8711 89.5708ZM48.2344 48.548C43.3945 48.548 39.4844 52.4719 39.4844 57.3288C39.4844 62.1857 43.3945 66.1096 48.2344 66.1096C53.0469 66.1096 56.9844 62.1857 56.9844 57.3288C56.9844 52.4719 53.0469 48.548 48.2344 48.548ZM91.9844 66.1096C96.7969 66.1096 100.734 62.1857 100.734 57.3288C100.734 52.4719 96.7969 48.548 91.9844 48.548C87.1445 48.548 83.2344 52.4719 83.2344 57.3288C83.2344 62.1857 87.1445 66.1096 91.9844 66.1096Z" fill="#111111"/>
</g>
<defs>
<clipPath id="clip0_1172_482">
<rect width="140" height="140.493" fill="white" transform="translate(0 0.25354)"/>
</clipPath>
</defs>
</svg>
