<svg width="200" height="230" viewBox="0 0 200 230" fill="none" xmlns="http://www.w3.org/2000/svg">
<path d="M90.2402 138.898L164.003 179.759L197.975 60.9251L188.591 38.0581L124.588 2.25806L90.2402 138.898Z" fill="white" stroke="#111111" stroke-width="2.5"/>
<path d="M129.843 16.5031L171.886 39.1826" stroke="#111111" stroke-width="2.5"/>
<path d="M128.153 22.501L170.196 45.1806" stroke="#111111" stroke-width="2.5"/>
<path d="M126.277 29.6234L168.32 52.303" stroke="#111111" stroke-width="2.5"/>
<path d="M116.141 62.9867L179.956 97.2872" stroke="#111111" stroke-width="2.5"/>
<path d="M105.255 99.3492L169.07 133.65" stroke="#111111" stroke-width="2.5"/>
<path d="M113.139 71.6089L176.954 105.909" stroke="#111111" stroke-width="2.5"/>
<path d="M102.252 107.971L166.068 142.272" stroke="#111111" stroke-width="2.5"/>
<path d="M111.262 80.6057L175.077 114.906" stroke="#111111" stroke-width="2.5"/>
<path d="M100.375 116.968L164.191 151.268" stroke="#111111" stroke-width="2.5"/>
<path d="M45.1934 160.265L118.956 201.126L152.928 82.2924L143.544 59.4254L79.5409 23.6254L45.1934 160.265Z" fill="white" stroke="#111111" stroke-width="2.5"/>
<path d="M143.92 59.6132L135.662 78.544L152.742 82.4802" stroke="#111111" stroke-width="2.5"/>
<path d="M78.228 59.6132L142.043 93.9137" stroke="#111111" stroke-width="2.5"/>
<path d="M67.3418 95.9753L131.157 130.276" stroke="#111111" stroke-width="2.5"/>
<path d="M56.0801 130.838L119.895 165.139" stroke="#111111" stroke-width="2.5"/>
<path d="M75.2241 68.235L139.039 102.536" stroke="#111111" stroke-width="2.5"/>
<path d="M64.3389 104.597L128.154 138.898" stroke="#111111" stroke-width="2.5"/>
<path d="M53.0771 139.46L116.892 173.761" stroke="#111111" stroke-width="2.5"/>
<path d="M73.3486 77.2319L137.164 111.532" stroke="#111111" stroke-width="2.5"/>
<path d="M62.4619 113.594L126.277 147.895" stroke="#111111" stroke-width="2.5"/>
<path d="M51.1997 148.457L115.015 182.758" stroke="#111111" stroke-width="2.5"/>
<path d="M2.0249 186.881L75.7876 227.742L100.375 151.643L90.9906 128.776L26.9879 92.9764L2.0249 186.881Z" fill="white" stroke="#111111" stroke-width="2.5"/>
<path d="M91.3663 128.589L83.1079 147.52L100.188 151.456" stroke="#111111" stroke-width="2.5"/>
<path d="M30.7417 110.595L72.7846 133.275" stroke="#111111" stroke-width="2.5"/>
<path d="M27.1763 117.718L69.2191 140.397" stroke="#111111" stroke-width="2.5"/>
<path d="M21.1694 142.459L84.9845 176.76" stroke="#111111" stroke-width="2.5"/>
<path d="M14.4131 165.701L78.2282 200.001" stroke="#111111" stroke-width="2.5"/>
<path d="M18.1665 151.081L81.9816 185.382" stroke="#111111" stroke-width="2.5"/>
<path d="M11.4097 174.323L75.2247 208.624" stroke="#111111" stroke-width="2.5"/>
</svg>
