<svg width="665" height="285" viewBox="0 0 665 285" fill="none" xmlns="http://www.w3.org/2000/svg">
<g clip-path="url(#clip0_1192_373)">
<path d="M0 60C0 26.8629 26.8629 0 60 0H665V225C665 258.137 638.137 285 605 285H0V60Z" fill="white"/>
<path d="M0 60C0 26.8629 26.8629 0 60 0H95V35C95 68.1371 68.1371 95 35 95H0V60Z" fill="#EE376A"/>
<path d="M570 250C570 216.863 596.863 190 630 190H665V225C665 258.137 638.137 285 605 285H570V250Z" fill="#EE376A"/>
<path d="M95 0H130C163.137 0 190 26.8629 190 60V95H95V0Z" fill="#FFDFE9"/>
<path d="M570 95H605C638.137 95 665 121.863 665 155V190H570V95Z" fill="#D7EDFF"/>
<path d="M0 95H35C68.1371 95 95 121.863 95 155V190H0V95Z" fill="#FFDFE9"/>
<path d="M475 190H510C543.137 190 570 216.863 570 250V285H475V190Z" fill="#D7EDFF"/>
<path d="M475 60C475 26.8629 501.863 0 535 0H570V95H475V60Z" fill="#D7EDFF"/>
<path d="M380 155C380 121.863 406.863 95 440 95H475V190H380V155Z" fill="#D7EDFF"/>
<path d="M285 250C285 216.863 311.863 190 345 190H380V285H285V250Z" fill="#D7EDFF"/>
<path d="M190 47.5C190 21.2665 211.266 0 237.5 0C263.734 0 285 21.2665 285 47.5V95H190V47.5Z" fill="#007CFF"/>
<path d="M95 142.5C95 116.266 116.266 95 142.5 95C168.734 95 190 116.266 190 142.5V190H95V142.5Z" fill="#007CFF"/>
<path d="M0 237.5C0 211.266 21.2665 190 47.5 190C73.7335 190 95 211.266 95 237.5V285H0V237.5Z" fill="#007CFF"/>
<path d="M380 47.5C380 21.2665 401.266 0 427.5 0C453.734 0 475 21.2665 475 47.5C475 73.7335 453.734 95 427.5 95C401.266 95 380 73.7335 380 47.5Z" fill="#1DAD65"/>
<path d="M285 142.5C285 116.266 306.266 95 332.5 95C358.734 95 380 116.266 380 142.5C380 168.734 358.734 190 332.5 190C306.266 190 285 168.734 285 142.5Z" fill="#1DAD65"/>
<path d="M190 237.5C190 211.266 211.266 190 237.5 190C263.734 190 285 211.266 285 237.5C285 263.734 263.734 285 237.5 285C211.266 285 190 263.734 190 237.5Z" fill="#1DAD65"/>
<path d="M285 0H320C353.137 0 380 26.8629 380 60V95H345C311.863 95 285 68.1371 285 35V0Z" fill="#FFDFE9"/>
<path d="M190 95H225C258.137 95 285 121.863 285 155V190H250C216.863 190 190 163.137 190 130V95Z" fill="#FFDFE9"/>
<path d="M95 190H130C163.137 190 190 216.863 190 250V285H155C121.863 285 95 258.137 95 225V190Z" fill="#FFDFE9"/>
<path d="M570 0H665V47.5C665 73.7335 643.734 95 617.5 95C591.266 95 570 73.7335 570 47.5V0Z" fill="#EE376A"/>
<path d="M475 95H570V142.5C570 168.734 548.734 190 522.5 190C496.266 190 475 168.734 475 142.5V95Z" fill="#EE376A"/>
<path d="M380 190H475V237.5C475 263.734 453.734 285 427.5 285C401.266 285 380 263.734 380 237.5V190Z" fill="#EE376A"/>
<line x1="238" y1="236.172" x2="427.172" y2="47" stroke="black" stroke-width="4" stroke-linecap="round"/>
<line x1="48" y1="236.172" x2="237.172" y2="47" stroke="black" stroke-width="4" stroke-linecap="round"/>
<line x1="430" y1="236.172" x2="619.172" y2="47" stroke="black" stroke-width="4" stroke-linecap="round"/>
</g>
<defs>
<clipPath id="clip0_1192_373">
<path d="M0 60C0 26.8629 26.8629 0 60 0H665V225C665 258.137 638.137 285 605 285H0V60Z" fill="white"/>
</clipPath>
</defs>
</svg>
