<svg width="665" height="482" viewBox="0 0 665 482" fill="none" xmlns="http://www.w3.org/2000/svg">
<g clip-path="url(#clip0_1192_322)">
<g clip-path="url(#clip1_1192_322)">
<rect width="333" height="241" transform="translate(332)" fill="white"/>
<path d="M278 179.5C278 92.6035 348.367 22 435.5 22C522.633 22 593 92.3673 593 179.5C593 266.633 522.633 337 435.5 337C348.367 337 278 266.397 278 179.5Z" fill="#007CFF"/>
<path d="M332 241L332 -3.65462e-05L575.5 0L332 241Z" fill="#C3F9C2"/>
<path d="M614.426 132.282L647.818 146.515" stroke="#111111" stroke-width="2.5" stroke-linecap="round" stroke-linejoin="round"/>
<path d="M614.918 115.538L646.459 112.307" stroke="#111111" stroke-width="2.5" stroke-linecap="round" stroke-linejoin="round"/>
<path d="M604.31 98.5119L634.272 74.2502" stroke="#111111" stroke-width="2.5" stroke-linecap="round" stroke-linejoin="round"/>
<path d="M585.554 85.2709L595.909 41.7068" stroke="#111111" stroke-width="2.5" stroke-linecap="round" stroke-linejoin="round"/>
</g>
<g clip-path="url(#clip2_1192_322)">
<rect width="333" height="241" transform="translate(-1 241)" fill="white"/>
<path d="M89 482L-5 482L-5.00001 241L332.5 241L89 482Z" fill="#C3F9C2"/>
<path fill-rule="evenodd" clip-rule="evenodd" d="M320 348C246.069 348 186 407.868 186 482C186 555.931 245.868 616 320 616C394.132 616 454 556.132 454 482C454 407.868 393.931 348 320 348ZM321.301 415.65C285.358 415.65 256.252 444.756 256.252 480.699C256.252 516.642 285.358 545.748 321.301 545.748C357.243 545.748 386.349 516.642 386.349 480.699C386.349 444.756 357.243 415.65 321.301 415.65Z" fill="#EE376A"/>
<path d="M21 329.5C21 291.098 52.0976 260 90.5 260C128.902 260 160 291.098 160 329.5C160 367.902 128.902 399 90.5 399C52.0976 399 21 367.902 21 329.5Z" fill="white"/>
<path fill-rule="evenodd" clip-rule="evenodd" d="M107.382 294.737L73.9075 294.737C73.9075 298.834 76.8598 302.234 80.7547 302.953L80.7547 326.133C74.8478 329.556 70.8626 335.93 70.8626 343.251L87.6019 343.249L87.6019 375.204L90.6447 381.289L93.6874 375.204L93.6874 343.249L110.427 343.246C110.425 335.932 106.439 329.558 100.535 326.137L100.535 302.953C104.427 302.236 107.382 298.838 107.382 294.737Z" fill="#111111"/>
</g>
<g clip-path="url(#clip3_1192_322)">
<rect width="334" height="241" transform="translate(332 241)" fill="#C3F9C2"/>
<path d="M423 361C489.809 361 544 415.191 544 482H423V361Z" fill="#39D377"/>
<path d="M423 240C489.809 240 544 294.191 544 361H423V240Z" fill="#39D377"/>
<path d="M544 361C610.809 361 665 415.191 665 482H544V361Z" fill="#39D377"/>
<path d="M544 240C610.809 240 665 294.191 665 361H544V240Z" fill="#39D377"/>
<path d="M620 361H544L620 436V361Z" fill="black"/>
<path d="M470.027 363H542V433.974C502.706 432.946 471.083 401.714 470.027 363Z" stroke="black" stroke-width="4"/>
<path fill-rule="evenodd" clip-rule="evenodd" d="M544 285C502.026 285 468 319.026 468 361H544V285Z" fill="black"/>
</g>
<g clip-path="url(#clip4_1192_322)">
<path d="M243.5 0H332V241H0L243.5 0Z" fill="#C3F9C2"/>
<path d="M4.81871 241H0C0 107.898 107.98 0 241.181 0H246C246 133.102 138.02 241 4.81871 241Z" fill="#007CFF"/>
<path d="M75 121.478C75 94.6914 96.6914 73 123.478 73C150.265 73 171.956 94.6914 171.956 121.478C171.956 148.265 150.265 169.956 123.478 169.956C96.6914 169.956 75 148.265 75 121.478Z" fill="#111111"/>
<path d="M102.343 120.498H142.855" stroke="white" stroke-width="2.5" stroke-linecap="round"/>
<path d="M111.062 134.811L134.131 106.15" stroke="white" stroke-width="2.5" stroke-linecap="round"/>
<path d="M107.898 107.908L137.227 133.052" stroke="white" stroke-width="2.5" stroke-linecap="round"/>
<path d="M122.6 92.8572V151.55" stroke="white" stroke-width="2.5" stroke-linecap="round"/>
<line x1="270" y1="241" x2="270" y2="-45" stroke="black" stroke-width="4"/>
<line x1="310" y1="241" x2="310" y2="-45" stroke="black" stroke-width="4"/>
</g>
<line x1="350" y1="241" x2="350" y2="-45" stroke="black" stroke-width="4"/>
<line x1="390" y1="244" x2="390" y2="-42" stroke="black" stroke-width="4"/>
<line x1="390" y1="522" x2="390" y2="236" stroke="black" stroke-width="4"/>
<line x1="422" y1="527" x2="422" y2="241" stroke="black" stroke-width="4"/>
<line x1="350" y1="527" x2="350" y2="241" stroke="black" stroke-width="4"/>
</g>
<defs>
<clipPath id="clip0_1192_322">
<rect width="665" height="482" fill="white"/>
</clipPath>
<clipPath id="clip1_1192_322">
<rect width="333" height="241" fill="white" transform="translate(332)"/>
</clipPath>
<clipPath id="clip2_1192_322">
<rect width="333" height="241" fill="white" transform="translate(-1 241)"/>
</clipPath>
<clipPath id="clip3_1192_322">
<rect width="334" height="241" fill="white" transform="translate(332 241)"/>
</clipPath>
<clipPath id="clip4_1192_322">
<rect width="333" height="241" fill="white" transform="translate(-1)"/>
</clipPath>
</defs>
</svg>
