<svg width="56" height="42" viewBox="0 0 56 42" fill="none" xmlns="http://www.w3.org/2000/svg">
<path d="M15.9499 19.1501C21.6499 19.1501 26.2999 23.9501 26.2999 29.8001C26.2999 36.5501 21.1999 41.5001 14.1499 41.5001C6.0499 41.5001 0.649902 35.2001 0.649902 26.0501C0.649902 17.9501 5.8999 8.80009 14.8999 0.100098L23.2999 4.45009C18.0499 9.25009 13.8499 14.8001 11.8999 19.9001C13.2499 19.4501 14.5999 19.1501 15.9499 19.1501ZM45.1999 19.1501C50.8999 19.1501 55.6999 23.9501 55.6999 29.8001C55.6999 36.5501 50.4499 41.5001 43.5499 41.5001C35.4499 41.5001 29.8999 35.2001 29.8999 26.0501C29.8999 17.9501 35.1499 8.80009 44.1499 0.100098L52.5499 4.45009C47.2999 9.25009 43.2499 14.8001 41.2999 19.9001C42.4999 19.4501 43.8499 19.1501 45.1999 19.1501Z" fill="#111111"/>
</svg>
