<svg width="665" height="266" viewBox="0 0 665 266" fill="none" xmlns="http://www.w3.org/2000/svg">
<g clip-path="url(#clip0_1170_869)">
<path d="M133.3 133H0V266.3H133.3V133Z" fill="#007CFF"/>
<path d="M399.3 133H266V266.3H399.3V133Z" fill="white"/>
<path d="M266.3 0H133V133.3H266.3V0Z" fill="#007CFF"/>
<path d="M133.3 0H0V133.3H133.3V0Z" fill="#C3F9C2"/>
<path d="M399 0H266V133H399V0Z" fill="#007CFF"/>
<path d="M532.3 0H399V133.3H532.3V0Z" fill="#1DAD65"/>
<path d="M532.3 133H399V266.3H532.3V133Z" fill="white"/>
<path d="M665.3 0H532V133.3H665.3V0Z" fill="white"/>
<path d="M665.3 133H532V266.3H665.3V133Z" fill="#EE376A"/>
<path d="M0 0C73.6 0 133.3 59.7 133.3 133.3H0V0Z" fill="#007CFF"/>
<path d="M133.3 133C133.3 206.6 73.6 266.3 0 266.3V133H133.3Z" fill="#C3F9C2"/>
<path d="M133 0C206.6 0 266.3 59.7 266.3 133.3H133V0Z" fill="white"/>
<path fill-rule="evenodd" clip-rule="evenodd" d="M637.094 149.921L542.36 243.213C536.311 249.096 526.683 249.096 520.635 243.213L425.901 149.921C400.7 124.793 400.7 84.0294 425.901 58.9012C451.205 33.8663 492.249 33.8663 517.553 58.9012L531.497 72.8452L545.441 58.9012C570.746 33.8663 611.79 33.8663 637.094 58.9012C662.295 84.0294 662.295 124.793 637.094 149.921Z" fill="#191919"/>
<path d="M266.3 133H133V266.3H266.3V133Z" fill="#1DAD65"/>
<path d="M148 200.5C148 172.044 171.044 149 199.5 149C227.956 149 251 172.044 251 200.5C251 228.956 227.956 252 199.5 252C171.044 252 148 228.956 148 200.5Z" fill="white"/>
<path d="M281 67.5C281 39.009 304.086 16 332.5 16C360.914 16 384 39.009 384 67.5C384 95.991 360.991 119 332.5 119C304.009 119 281 95.9138 281 67.5Z" fill="#FFDFE9"/>
<path d="M308 67C308 53.1862 319.186 42 333 42C346.814 42 358 53.1862 358 67C358 80.8138 346.814 92 333 92C319.186 92 308 80.8138 308 67Z" fill="#007CFF"/>
<path d="M281 200.5C281 172.086 304.009 149 332.5 149C360.991 149 384 172.009 384 200.5C384 228.991 360.991 252 332.5 252C304.009 252 281 228.914 281 200.5Z" fill="#C3F9C2"/>
<path d="M589.877 57.0332C608.743 57.3904 634.433 72.2543 633.915 90.732" stroke="white" stroke-width="4" stroke-linecap="round"/>
<path d="M41.5 249.5C41.5 249.5 88 235 104 198" stroke="black" stroke-width="4" stroke-linecap="round"/>
<path d="M245.762 85.3257C245.762 85.3257 228.801 39.6656 191 25.6626" stroke="black" stroke-width="4" stroke-linecap="round"/>
</g>
<defs>
<clipPath id="clip0_1170_869">
<rect width="665" height="266" fill="white"/>
</clipPath>
</defs>
</svg>
