<svg width="325" height="180" viewBox="0 0 325 180" fill="none" xmlns="http://www.w3.org/2000/svg">
<rect width="325" height="180" fill="#F4F4F4"/>
<path fill-rule="evenodd" clip-rule="evenodd" d="M162 79C158.933 79 156.049 80.299 154 82.465V80.5C154 79.671 153.328 79 152.5 79C151.672 79 151 79.671 151 80.5V87.5H158.5C159.328 87.5 160 86.829 160 86C160 85.171 159.328 84.5 158.5 84.5H156.216C157.705 82.941 159.783 82 162 82C166.411 82 170 85.589 170 90C170 94.411 166.411 98 162 98C159.434 98 157.004 96.754 155.501 94.667C155.018 93.995 154.08 93.844 153.407 94.327C152.735 94.811 152.583 95.749 153.067 96.42C155.132 99.288 158.472 101 162 101C168.065 101 173 96.065 173 90C173 83.935 168.065 79 162 79Z" fill="#4D4D4D"/>
<path fill-rule="evenodd" clip-rule="evenodd" d="M149.935 136.354C149.74 136.87 149.163 137.131 148.646 136.936C147.489 136.498 146.351 136.026 145.233 135.52C144.73 135.292 144.506 134.699 144.734 134.196C144.962 133.693 145.554 133.47 146.058 133.698C147.137 134.186 148.236 134.643 149.354 135.065C149.87 135.26 150.131 135.837 149.935 136.354ZM140.088 131.724C139.798 132.194 139.182 132.339 138.712 132.049C136.605 130.747 134.593 129.317 132.69 127.768C132.261 127.419 132.197 126.79 132.545 126.361C132.894 125.933 133.524 125.868 133.952 126.217C135.788 127.71 137.729 129.091 139.763 130.347C140.233 130.638 140.378 131.254 140.088 131.724ZM128.689 122.779C128.287 123.158 127.654 123.139 127.275 122.737C125.581 120.94 124.01 119.034 122.575 117.031C122.254 116.582 122.357 115.957 122.806 115.636C123.255 115.314 123.88 115.417 124.201 115.866C125.583 117.796 127.097 119.632 128.731 121.365C129.109 121.767 129.091 122.4 128.689 122.779ZM120.041 111.157C119.552 111.414 118.948 111.226 118.691 110.737C118.117 109.646 117.581 108.534 117.084 107.402C116.862 106.897 117.092 106.307 117.598 106.085C118.103 105.863 118.693 106.092 118.916 106.598C119.394 107.687 119.909 108.757 120.461 109.807C120.718 110.296 120.53 110.9 120.041 111.157Z" fill="#4D4D4D"/>
<path fill-rule="evenodd" clip-rule="evenodd" d="M134.861 140.506C134.58 140.982 133.967 141.14 133.492 140.859C132.607 140.336 131.736 139.794 130.88 139.231C130.419 138.928 130.29 138.308 130.594 137.847C130.897 137.385 131.517 137.257 131.978 137.56C132.807 138.104 133.651 138.63 134.509 139.137C134.984 139.418 135.142 140.031 134.861 140.506ZM127.312 135.458C126.966 135.888 126.336 135.956 125.906 135.61C124.303 134.321 122.767 132.957 121.304 131.525C120.909 131.139 120.902 130.506 121.289 130.111C121.675 129.716 122.308 129.709 122.703 130.096C124.119 131.482 125.607 132.803 127.16 134.052C127.59 134.398 127.658 135.027 127.312 135.458ZM118.53 127.133C118.107 127.488 117.476 127.433 117.122 127.009C116.462 126.222 115.822 125.42 115.203 124.601C114.869 124.161 114.956 123.534 115.397 123.201C115.837 122.867 116.464 122.954 116.797 123.394C117.397 124.186 118.016 124.963 118.654 125.724C119.009 126.148 118.954 126.778 118.53 127.133Z" fill="#4D4D4D"/>
<path fill-rule="evenodd" clip-rule="evenodd" d="M175.065 43.6442C175.26 43.1276 175.837 42.8671 176.354 43.0624C177.511 43.4998 178.649 43.9722 179.767 44.4785C180.27 44.7062 180.494 45.2987 180.266 45.8019C180.038 46.305 179.446 46.5282 178.942 46.3005C177.863 45.8117 176.764 45.3555 175.646 44.9332C175.13 44.7379 174.869 44.1608 175.065 43.6442ZM184.912 48.2744C185.202 47.8045 185.818 47.6589 186.288 47.9491C188.395 49.2506 190.407 50.6815 192.31 52.2301C192.739 52.5787 192.803 53.2085 192.455 53.6369C192.106 54.0653 191.476 54.1301 191.048 53.7815C189.212 52.2876 187.271 50.9068 185.237 49.6507C184.767 49.3605 184.622 48.7443 184.912 48.2744ZM196.311 57.2192C196.713 56.8403 197.346 56.8589 197.725 57.2608C199.419 59.0581 200.99 60.9643 202.425 62.9672C202.746 63.4162 202.643 64.0409 202.194 64.3625C201.745 64.684 201.12 64.5807 200.799 64.1317C199.417 62.2025 197.903 60.3656 196.269 58.6328C195.891 58.231 195.909 57.5981 196.311 57.2192ZM204.959 68.841C205.448 68.584 206.052 68.7721 206.309 69.261C206.883 70.352 207.419 71.4641 207.916 72.5957C208.138 73.1013 207.908 73.6913 207.402 73.9134C206.897 74.1355 206.307 73.9056 206.084 73.4C205.606 72.3114 205.091 71.2413 204.539 70.1914C204.282 69.7025 204.47 69.0979 204.959 68.841Z" fill="#4D4D4D"/>
<path fill-rule="evenodd" clip-rule="evenodd" d="M190.139 39.4916C190.42 39.0161 191.033 38.8583 191.508 39.1391C192.393 39.6618 193.264 40.2045 194.12 40.7667C194.581 41.0699 194.71 41.69 194.406 42.1515C194.103 42.6131 193.483 42.7415 193.022 42.4382C192.193 41.8935 191.349 41.3677 190.491 40.8612C190.016 40.5803 189.858 39.9672 190.139 39.4916ZM197.688 44.5403C198.034 44.11 198.664 44.0418 199.094 44.3879C200.697 45.6774 202.233 47.0409 203.696 48.4729C204.091 48.8592 204.098 49.4924 203.711 49.8871C203.325 50.2818 202.692 50.2886 202.297 49.9023C200.881 48.5158 199.393 47.1953 197.84 45.9463C197.41 45.6001 197.342 44.9707 197.688 44.5403ZM206.47 52.8649C206.893 52.5101 207.524 52.5655 207.878 52.9887C208.538 53.7756 209.178 54.5785 209.797 55.3966C210.131 55.837 210.044 56.4642 209.603 56.7975C209.163 57.1308 208.536 57.044 208.203 56.6037C207.603 55.8121 206.984 55.0352 206.346 54.2737C205.991 53.8504 206.046 53.2197 206.47 52.8649Z" fill="#4D4D4D"/>
<path fill-rule="evenodd" clip-rule="evenodd" d="M162 118C177.464 118 190 105.464 190 90C190 74.536 177.464 62 162 62C146.536 62 134 74.536 134 90C134 105.464 146.536 118 162 118ZM162 120C178.569 120 192 106.569 192 90C192 73.4315 178.569 60 162 60C145.431 60 132 73.4315 132 90C132 106.569 145.431 120 162 120Z" fill="#4D4D4D"/>
<path d="M0 0V-2H-2V0H0ZM325 0H327V-2H325V0ZM325 180V182H327V180H325ZM0 180H-2V182H0V180ZM0 2H325V-2H0V2ZM323 0V180H327V0H323ZM325 178H0V182H325V178ZM2 180V0H-2V180H2Z" fill="#767676"/>
</svg>
