<svg xmlns="http://www.w3.org/2000/svg" width="312" height="180" fill="none"><path fill="#4A4A4A" fill-rule="evenodd" d="M155 79c-3.067 0-5.951 1.3-8 3.465V80.5a1.5 1.5 0 1 0-3 0v7h7.5a1.5 1.5 0 1 0 0-3h-2.284c1.489-1.559 3.567-2.5 5.784-2.5 4.411 0 8 3.59 8 8 0 4.411-3.589 8-8 8a8.031 8.031 0 0 1-6.499-3.333 1.5 1.5 0 1 0-2.434 1.753A11.037 11.037 0 0 0 155 101c6.065 0 11-4.935 11-11s-4.935-11-11-11Zm-12.065 57.354a1 1 0 0 1-1.289.582 58.838 58.838 0 0 1-3.413-1.416 1 1 0 1 1 .825-1.822c1.079.488 2.178.945 3.296 1.367a1 1 0 0 1 .581 1.289Zm-9.847-4.63a1 1 0 0 1-1.376.325 57.012 57.012 0 0 1-6.022-4.281 1 1 0 1 1 1.262-1.551 55.083 55.083 0 0 0 5.811 4.13c.47.291.615.907.325 1.377Zm-11.399-8.945a1 1 0 0 1-1.414-.042 55.115 55.115 0 0 1-4.7-5.706 1 1 0 0 1 1.626-1.165 52.975 52.975 0 0 0 4.53 5.499 1 1 0 0 1-.042 1.414Zm-8.648-11.622a1 1 0 0 1-1.35-.42 53.531 53.531 0 0 1-1.607-3.335 1 1 0 0 1 1.832-.804 51.148 51.148 0 0 0 1.545 3.209 1 1 0 0 1-.42 1.35Zm14.82 29.349a1 1 0 0 1-1.369.353 64.077 64.077 0 0 1-2.612-1.628.999.999 0 1 1 1.098-1.671c.829.544 1.673 1.07 2.531 1.577a1 1 0 0 1 .352 1.369Zm-7.549-5.048a1 1 0 0 1-1.406.152 63.183 63.183 0 0 1-4.602-4.085.999.999 0 1 1 1.399-1.429 61.246 61.246 0 0 0 4.457 3.956 1 1 0 0 1 .152 1.406Zm-8.782-8.325a.998.998 0 0 1-1.408-.124c-.66-.787-1.3-1.589-1.919-2.408a.998.998 0 0 1 .194-1.4.999.999 0 0 1 1.4.193c.6.792 1.219 1.569 1.857 2.33a1 1 0 0 1-.124 1.409Zm56.535-83.489a1 1 0 0 1 1.289-.582 57.93 57.93 0 0 1 3.413 1.416 1 1 0 1 1-.825 1.822 55.592 55.592 0 0 0-3.296-1.367 1 1 0 0 1-.581-1.289Zm9.847 4.63a1 1 0 0 1 1.376-.325 56.998 56.998 0 0 1 6.022 4.281 1 1 0 1 1-1.262 1.552 54.974 54.974 0 0 0-5.811-4.131 1 1 0 0 1-.325-1.377Zm11.399 8.945a1 1 0 0 1 1.414.042 55.162 55.162 0 0 1 4.7 5.706 1 1 0 0 1-1.626 1.165 53.037 53.037 0 0 0-4.53-5.5 1 1 0 0 1 .042-1.413Zm8.648 11.622a1 1 0 0 1 1.35.42 52.522 52.522 0 0 1 1.607 3.335 1 1 0 0 1-1.832.804 50.665 50.665 0 0 0-1.545-3.209 1 1 0 0 1 .42-1.35Zm-14.82-29.349a1 1 0 0 1 1.37-.353 64.589 64.589 0 0 1 2.611 1.628 1 1 0 0 1-1.098 1.671 62.079 62.079 0 0 0-2.531-1.577 1 1 0 0 1-.352-1.37Zm7.549 5.048a1 1 0 0 1 1.406-.152 63.302 63.302 0 0 1 4.602 4.085 1 1 0 1 1-1.399 1.43 61.128 61.128 0 0 0-4.457-3.957 1 1 0 0 1-.152-1.406Zm8.782 8.325a1 1 0 0 1 1.409.124 62.44 62.44 0 0 1 1.918 2.408 1 1 0 1 1-1.594 1.207 60.082 60.082 0 0 0-1.857-2.33 1 1 0 0 1 .124-1.41Z" clip-rule="evenodd"/><path fill="#4A4A4A" fill-rule="evenodd" d="M155 118c15.464 0 28-12.536 28-28s-12.536-28-28-28-28 12.536-28 28 12.536 28 28 28Zm0 2c16.569 0 30-13.431 30-30 0-16.568-13.431-30-30-30-16.568 0-30 13.432-30 30 0 16.569 13.432 30 30 30Z" clip-rule="evenodd"/></svg>