<svg width="325" height="180" viewBox="0 0 325 180" fill="none" xmlns="http://www.w3.org/2000/svg">
<rect width="325" height="180" fill="#F4F4F4"/>
<path d="M119 90C119 76.7452 129.745 66 143 66H182C195.255 66 206 76.7452 206 90C206 103.255 195.255 114 182 114H143C129.745 114 119 103.255 119 90Z" fill="#4D4D4D"/>
<path d="M141.069 94.8274C143.478 94.8274 144.972 93.6344 144.972 91.7285C144.972 90.3329 143.884 89.2599 142.39 89.1473V89.0123C143.548 88.8472 144.432 87.8492 144.432 86.7012C144.432 85.028 143.126 84 140.936 84H136V94.8274H141.069ZM138.362 85.6808H140.333C141.46 85.6808 142.109 86.206 142.109 87.0914C142.109 87.9918 141.413 88.502 140.138 88.502H138.362V85.6808ZM138.362 93.1392V89.9952H140.412C141.804 89.9952 142.563 90.5355 142.563 91.5484C142.563 92.5839 141.827 93.1392 140.466 93.1392H138.362Z" fill="white"/>
<path d="M154.687 86.5662H152.41V91.3383C152.41 92.4714 151.8 93.1692 150.666 93.1692C149.618 93.1692 149.078 92.5764 149.078 91.4059V86.5662H146.802V91.9461C146.802 93.867 147.96 95 149.821 95C151.128 95 151.933 94.4598 152.34 93.4993H152.481V94.8274H154.687V86.5662Z" fill="white"/>
<path d="M157.62 84.5928V86.6412H156.274V88.2995H157.62V92.5989C157.62 94.2046 158.449 94.8574 160.545 94.8574C160.983 94.8574 161.406 94.8124 161.687 94.7599V93.1467C161.468 93.1692 161.312 93.1842 161.014 93.1842C160.24 93.1842 159.896 92.839 159.896 92.0962V88.2995H161.687V86.6412H159.896V84.5928H157.62Z" fill="white"/>
<path d="M164.315 84.5928V86.6412H162.97V88.2995H164.315V92.5989C164.315 94.2046 165.144 94.8574 167.241 94.8574C167.679 94.8574 168.101 94.8124 168.383 94.7599V93.1467C168.164 93.1692 168.007 93.1842 167.71 93.1842C166.936 93.1842 166.591 92.839 166.591 92.0962V88.2995H168.383V86.6412H166.591V84.5928H164.315Z" fill="white"/>
<path d="M174.046 95C176.697 95 178.293 93.3943 178.293 90.693C178.293 88.0143 176.674 86.3861 174.046 86.3861C171.418 86.3861 169.798 88.0218 169.798 90.693C169.798 93.3868 171.394 95 174.046 95ZM174.046 93.2742C172.826 93.2742 172.137 92.3288 172.137 90.693C172.137 89.0723 172.833 88.1194 174.046 88.1194C175.25 88.1194 175.954 89.0723 175.954 90.693C175.954 92.3288 175.258 93.2742 174.046 93.2742Z" fill="white"/>
<path d="M180.155 94.8274H182.431V90.0477C182.431 88.9297 183.08 88.2094 184.136 88.2094C185.215 88.2094 185.724 88.8172 185.724 89.9802V94.8274H188V89.485C188 87.5116 186.968 86.3861 185.051 86.3861C183.776 86.3861 182.9 86.9638 182.501 87.8943H182.36V86.5662H180.155V94.8274Z" fill="white"/>
<path fill-rule="evenodd" clip-rule="evenodd" d="M141 59C139.715 59 138.451 59.0835 137.211 59.2452C136.663 59.3166 136.162 58.9306 136.09 58.3829C136.019 57.8353 136.405 57.3334 136.952 57.262C138.278 57.0891 139.629 57 141 57H144.583C145.136 57 145.583 57.4477 145.583 58C145.583 58.5523 145.136 59 144.583 59H141ZM150.75 58C150.75 57.4477 151.198 57 151.75 57H158.917C159.469 57 159.917 57.4477 159.917 58C159.917 58.5523 159.469 59 158.917 59H151.75C151.198 59 150.75 58.5523 150.75 58ZM165.083 58C165.083 57.4477 165.531 57 166.083 57H173.25C173.802 57 174.25 57.4477 174.25 58C174.25 58.5523 173.802 59 173.25 59H166.083C165.531 59 165.083 58.5523 165.083 58ZM179.417 58C179.417 57.4477 179.864 57 180.417 57H184C185.371 57 186.722 57.0891 188.048 57.262C188.595 57.3334 188.981 57.8353 188.91 58.3829C188.838 58.9306 188.337 59.3166 187.789 59.2452C186.549 59.0835 185.285 59 184 59H180.417C179.864 59 179.417 58.5523 179.417 58ZM194.56 59.8934C194.771 59.3832 195.357 59.1411 195.867 59.3527C198.387 60.398 200.74 61.7661 202.873 63.4051C203.311 63.7416 203.393 64.3694 203.056 64.8073C202.72 65.2453 202.092 65.3275 201.654 64.9909C199.658 63.4572 197.458 62.1776 195.101 61.2001C194.59 60.9886 194.348 60.4035 194.56 59.8934ZM130.44 59.8934C130.652 60.4035 130.41 60.9886 129.899 61.2001C127.542 62.1776 125.342 63.4572 123.346 64.9909C122.908 65.3275 122.28 65.2453 121.944 64.8073C121.607 64.3694 121.689 63.7416 122.127 63.4051C124.26 61.7661 126.613 60.398 129.133 59.3527C129.643 59.1411 130.229 59.3832 130.44 59.8934ZM117.807 68.9436C118.245 69.2801 118.327 69.9079 117.991 70.3458C116.457 72.3417 115.178 74.5423 114.2 76.8994C113.989 77.4096 113.404 77.6516 112.893 77.4401C112.383 77.2285 112.141 76.6435 112.353 76.1333C113.398 73.6125 114.766 71.26 116.405 69.1271C116.742 68.6892 117.369 68.607 117.807 68.9436ZM207.193 68.9436C207.631 68.607 208.258 68.6892 208.595 69.1271C210.234 71.26 211.602 73.6125 212.647 76.1333C212.859 76.6435 212.617 77.2285 212.107 77.4401C211.596 77.6516 211.011 77.4096 210.8 76.8994C209.822 74.5423 208.543 72.3417 207.009 70.3458C206.673 69.9079 206.755 69.2801 207.193 68.9436ZM213.617 83.0901C214.165 83.0187 214.667 83.4047 214.738 83.9524C214.911 85.2776 215 86.6286 215 88V89C215 89.5523 214.552 90 214 90C213.448 90 213 89.5523 213 89V88C213 86.7154 212.917 85.4507 212.755 84.2111C212.683 83.6634 213.069 83.1616 213.617 83.0901ZM111.383 83.0901C111.931 83.1616 112.317 83.6634 112.245 84.2111C112.083 85.4507 112 86.7154 112 88V89C112 89.5523 111.552 90 111 90C110.448 90 110 89.5523 110 89V88C110 86.6286 110.089 85.2776 110.262 83.9524C110.333 83.4047 110.835 83.0187 111.383 83.0901ZM111 90C111.552 90 112 90.4477 112 91V92C112 93.2846 112.083 94.5493 112.245 95.7889C112.317 96.3366 111.931 96.8384 111.383 96.9099C110.835 96.9813 110.333 96.5953 110.262 96.0476C110.089 94.7224 110 93.3714 110 92V91C110 90.4477 110.448 90 111 90ZM214 90C214.552 90 215 90.4477 215 91V92C215 93.3714 214.911 94.7224 214.738 96.0476C214.667 96.5953 214.165 96.9813 213.617 96.9099C213.069 96.8384 212.683 96.3366 212.755 95.7889C212.917 94.5493 213 93.2846 213 92V91C213 90.4477 213.448 90 214 90ZM112.893 102.56C113.404 102.348 113.989 102.59 114.2 103.101C115.178 105.458 116.457 107.658 117.991 109.654C118.327 110.092 118.245 110.72 117.807 111.056C117.369 111.393 116.742 111.311 116.405 110.873C114.766 108.74 113.398 106.387 112.353 103.867C112.141 103.357 112.383 102.771 112.893 102.56ZM212.107 102.56C212.617 102.771 212.859 103.357 212.647 103.867C211.602 106.387 210.234 108.74 208.595 110.873C208.258 111.311 207.631 111.393 207.193 111.056C206.755 110.72 206.673 110.092 207.009 109.654C208.543 107.658 209.822 105.458 210.8 103.101C211.011 102.59 211.596 102.348 212.107 102.56ZM121.944 115.193C122.28 114.755 122.908 114.673 123.346 115.009C125.342 116.543 127.542 117.822 129.899 118.8C130.41 119.011 130.652 119.596 130.44 120.107C130.229 120.617 129.643 120.859 129.133 120.647C126.613 119.602 124.26 118.234 122.127 116.595C121.689 116.258 121.607 115.631 121.944 115.193ZM203.056 115.193C203.393 115.631 203.311 116.258 202.873 116.595C200.74 118.234 198.387 119.602 195.867 120.647C195.357 120.859 194.771 120.617 194.56 120.107C194.348 119.596 194.59 119.011 195.101 118.8C197.458 117.822 199.658 116.543 201.654 115.009C202.092 114.673 202.72 114.755 203.056 115.193ZM136.09 121.617C136.162 121.069 136.663 120.683 137.211 120.755C138.451 120.917 139.715 121 141 121H144.583C145.136 121 145.583 121.448 145.583 122C145.583 122.552 145.136 123 144.583 123H141C139.629 123 138.278 122.911 136.952 122.738C136.405 122.667 136.019 122.165 136.09 121.617ZM188.91 121.617C188.981 122.165 188.595 122.667 188.048 122.738C186.722 122.911 185.371 123 184 123H180.417C179.864 123 179.417 122.552 179.417 122C179.417 121.448 179.864 121 180.417 121H184C185.285 121 186.549 120.917 187.789 120.755C188.337 120.683 188.838 121.069 188.91 121.617ZM150.75 122C150.75 121.448 151.198 121 151.75 121H158.917C159.469 121 159.917 121.448 159.917 122C159.917 122.552 159.469 123 158.917 123H151.75C151.198 123 150.75 122.552 150.75 122ZM165.083 122C165.083 121.448 165.531 121 166.083 121H173.25C173.802 121 174.25 121.448 174.25 122C174.25 122.552 173.802 123 173.25 123H166.083C165.531 123 165.083 122.552 165.083 122Z" fill="#4D4D4D"/>
<path d="M0 0V-2H-2V0H0ZM325 0H327V-2H325V0ZM325 180V182H327V180H325ZM0 180H-2V182H0V180ZM0 2H325V-2H0V2ZM323 0V180H327V0H323ZM325 178H0V182H325V178ZM2 180V0H-2V180H2Z" fill="#767676"/>
</svg>
