<svg xmlns="http://www.w3.org/2000/svg" width="312" height="180" fill="none"><rect width="186" height="48" x="63" y="66" fill="#4A4A4A" rx="24"/><path fill="#fff" d="m86.445 95.5 3.758-11.273h-2.539l-2.516 8.695h-.14l-2.563-8.695h-2.664L83.594 95.5h2.851Zm6.618-9.922c.703 0 1.28-.562 1.28-1.266 0-.71-.577-1.273-1.28-1.273-.704 0-1.29.563-1.29 1.273 0 .704.586 1.266 1.29 1.266ZM91.921 95.5h2.273v-8.602h-2.273V95.5Zm4.384-6.094c0 1.32.812 2.11 2.484 2.477l1.563.351c.757.172 1.086.438 1.086.875 0 .57-.61.961-1.493.961-.906 0-1.46-.351-1.632-.945h-2.22c.157 1.625 1.532 2.555 3.805 2.555 2.258 0 3.797-1.11 3.797-2.813 0-1.281-.75-1.984-2.422-2.351l-1.617-.352c-.797-.18-1.164-.453-1.164-.89 0-.563.602-.946 1.414-.946.844 0 1.367.352 1.485.922h2.101c-.125-1.625-1.414-2.54-3.601-2.54-2.149 0-3.586 1.087-3.586 2.696Zm10.414-3.828c.703 0 1.281-.562 1.281-1.266 0-.71-.578-1.273-1.281-1.273s-1.289.563-1.289 1.273c0 .704.586 1.266 1.289 1.266Zm-1.141 9.922h2.274v-8.602h-2.274V95.5Zm5.227-10.656v2.133h-1.344v1.726h1.344v4.477c0 1.672.828 2.351 2.922 2.351.437 0 .859-.047 1.14-.101v-1.68c-.219.023-.375.04-.672.04-.773 0-1.117-.36-1.117-1.134v-3.953h1.789v-1.726h-1.789v-2.133h-2.273Zm10.312-.617V95.5h2.36v-3.555h2.226c2.375 0 4.024-1.547 4.024-3.843 0-2.329-1.586-3.875-3.907-3.875h-4.703Zm2.36 1.875h1.718c1.36 0 2.133.695 2.133 2.007 0 1.282-.789 1.985-2.14 1.985h-1.711v-3.992Zm9.351-.524c.703 0 1.281-.562 1.281-1.266 0-.71-.578-1.273-1.281-1.273s-1.289.563-1.289 1.273c0 .704.586 1.266 1.289 1.266Zm-1.14 9.922h2.273v-8.602h-2.273V95.5Zm4.578 0h2.273v-4.977c0-1.164.649-1.914 1.703-1.914 1.078 0 1.586.633 1.586 1.844V95.5h2.274v-5.563c0-2.054-1.032-3.226-2.946-3.226-1.273 0-2.148.602-2.547 1.57h-.14v-1.383h-2.203V95.5Zm10.695-10.656v2.133h-1.344v1.726h1.344v4.477c0 1.672.828 2.351 2.922 2.351.437 0 .859-.047 1.14-.101v-1.68c-.218.023-.375.04-.671.04-.774 0-1.118-.36-1.118-1.134v-3.953h1.789v-1.726h-1.789v-2.133h-2.273Zm11.469 8.226c-.242.586-.86.914-1.758.914-1.188 0-1.938-.82-1.969-2.132v-.118h5.914v-.68c0-2.718-1.5-4.343-4.039-4.343-2.562 0-4.14 1.734-4.14 4.531 0 2.781 1.546 4.438 4.171 4.438 2.11 0 3.602-1.008 3.938-2.61h-2.117Zm-1.844-4.664c1.062 0 1.75.735 1.797 1.914h-3.672c.078-1.156.82-1.914 1.875-1.914Zm5.898 7.094h2.274v-4.813c0-1.21.851-1.953 2.094-1.953.367 0 .898.063 1.078.125v-2c-.196-.062-.578-.101-.891-.101-1.094 0-1.984.648-2.211 1.508h-.14v-1.368h-2.204V95.5Zm12.336-2.43c-.242.586-.859.914-1.758.914-1.187 0-1.937-.82-1.968-2.132v-.118h5.914v-.68c0-2.718-1.5-4.343-4.039-4.343-2.563 0-4.141 1.734-4.141 4.531 0 2.781 1.547 4.438 4.172 4.438 2.109 0 3.602-1.008 3.938-2.61h-2.118Zm-1.843-4.664c1.062 0 1.75.735 1.796 1.914h-3.671c.078-1.156.82-1.914 1.875-1.914Zm5.703 1c0 1.32.812 2.11 2.484 2.477l1.563.351c.757.172 1.085.438 1.085.875 0 .57-.609.961-1.492.961-.906 0-1.461-.351-1.632-.945h-2.219c.156 1.625 1.531 2.555 3.804 2.555 2.258 0 3.797-1.11 3.797-2.813 0-1.281-.75-1.984-2.422-2.351l-1.617-.352c-.797-.18-1.164-.453-1.164-.89 0-.563.602-.946 1.414-.946.844 0 1.367.352 1.485.922h2.101c-.125-1.625-1.414-2.54-3.601-2.54-2.149 0-3.586 1.087-3.586 2.696Zm9.859-4.562v2.133h-1.344v1.726h1.344v4.477c0 1.672.828 2.351 2.922 2.351.437 0 .859-.047 1.141-.101v-1.68c-.219.023-.375.04-.672.04-.774 0-1.118-.36-1.118-1.134v-3.953h1.79v-1.726h-1.79v-2.133h-2.273Zm7.602 10.851c.843 0 1.382-.562 1.382-1.328 0-.765-.539-1.32-1.382-1.32-.836 0-1.383.555-1.383 1.32 0 .766.547 1.328 1.383 1.328Zm11.234-5.797c-.187-1.921-1.555-3.187-3.836-3.187-2.695 0-4.211 1.633-4.211 4.469 0 2.867 1.524 4.5 4.211 4.5 2.242 0 3.649-1.235 3.836-3.125h-2.125c-.172.86-.781 1.32-1.711 1.32-1.219 0-1.914-.96-1.914-2.695 0-1.711.687-2.657 1.914-2.657.969 0 1.555.547 1.711 1.375h2.125Zm5.602 5.782c2.648 0 4.242-1.672 4.242-4.485 0-2.789-1.617-4.484-4.242-4.484s-4.243 1.703-4.243 4.484c0 2.805 1.594 4.485 4.243 4.485Zm0-1.797c-1.219 0-1.907-.985-1.907-2.688 0-1.687.696-2.68 1.907-2.68 1.203 0 1.906.993 1.906 2.68 0 1.703-.695 2.688-1.906 2.688Zm6.101 1.617h2.274v-5.188c0-.984.632-1.703 1.523-1.703.891 0 1.422.532 1.422 1.454V95.5h2.187v-5.29c0-.929.594-1.6 1.516-1.6.961 0 1.438.515 1.438 1.554V95.5h2.273v-5.906c0-1.774-1.07-2.883-2.789-2.883-1.203 0-2.195.633-2.594 1.586h-.14c-.344-.984-1.172-1.586-2.383-1.586-1.133 0-2.032.602-2.383 1.586h-.141v-1.399h-2.203V95.5Z"/></svg>