<svg width="325" height="180" viewBox="0 0 325 180" fill="none" xmlns="http://www.w3.org/2000/svg">
<rect width="325" height="180" fill="#F4F4F4"/>
<rect x="69" y="66" width="186" height="48" rx="24" fill="#4D4D4D"/>
<path d="M92.4453 95.5L96.2031 84.2266H93.6641L91.1484 92.9219H91.0078L88.4453 84.2266H85.7812L89.5938 95.5H92.4453Z" fill="white"/>
<path d="M99.0625 85.5781C99.7656 85.5781 100.344 85.0156 100.344 84.3125C100.344 83.6016 99.7656 83.0391 99.0625 83.0391C98.3594 83.0391 97.7734 83.6016 97.7734 84.3125C97.7734 85.0156 98.3594 85.5781 99.0625 85.5781ZM97.9219 95.5H100.195V86.8984H97.9219V95.5Z" fill="white"/>
<path d="M102.305 89.4062C102.305 90.7266 103.117 91.5156 104.789 91.8828L106.352 92.2344C107.109 92.4062 107.438 92.6719 107.438 93.1094C107.438 93.6797 106.828 94.0703 105.945 94.0703C105.039 94.0703 104.484 93.7188 104.312 93.125H102.094C102.25 94.75 103.625 95.6797 105.898 95.6797C108.156 95.6797 109.695 94.5703 109.695 92.8672C109.695 91.5859 108.945 90.8828 107.273 90.5156L105.656 90.1641C104.859 89.9844 104.492 89.7109 104.492 89.2734C104.492 88.7109 105.094 88.3281 105.906 88.3281C106.75 88.3281 107.273 88.6797 107.391 89.25H109.492C109.367 87.625 108.078 86.7109 105.891 86.7109C103.742 86.7109 102.305 87.7969 102.305 89.4062Z" fill="white"/>
<path d="M112.719 85.5781C113.422 85.5781 114 85.0156 114 84.3125C114 83.6016 113.422 83.0391 112.719 83.0391C112.016 83.0391 111.43 83.6016 111.43 84.3125C111.43 85.0156 112.016 85.5781 112.719 85.5781ZM111.578 95.5H113.852V86.8984H111.578V95.5Z" fill="white"/>
<path d="M116.805 84.8438V86.9766H115.461V88.7031H116.805V93.1797C116.805 94.8516 117.633 95.5312 119.727 95.5312C120.164 95.5312 120.586 95.4844 120.867 95.4297V93.75C120.648 93.7734 120.492 93.7891 120.195 93.7891C119.422 93.7891 119.078 93.4297 119.078 92.6562V88.7031H120.867V86.9766H119.078V84.8438H116.805Z" fill="white"/>
<path d="M127.117 84.2266V95.5H129.477V91.9453H131.703C134.078 91.9453 135.727 90.3984 135.727 88.1016C135.727 85.7734 134.141 84.2266 131.82 84.2266H127.117ZM129.477 86.1016H131.195C132.555 86.1016 133.328 86.7969 133.328 88.1094C133.328 89.3906 132.539 90.0938 131.188 90.0938H129.477V86.1016Z" fill="white"/>
<path d="M138.828 85.5781C139.531 85.5781 140.109 85.0156 140.109 84.3125C140.109 83.6016 139.531 83.0391 138.828 83.0391C138.125 83.0391 137.539 83.6016 137.539 84.3125C137.539 85.0156 138.125 85.5781 138.828 85.5781ZM137.688 95.5H139.961V86.8984H137.688V95.5Z" fill="white"/>
<path d="M142.266 95.5H144.539V90.5234C144.539 89.3594 145.188 88.6094 146.242 88.6094C147.32 88.6094 147.828 89.2422 147.828 90.4531V95.5H150.102V89.9375C150.102 87.8828 149.07 86.7109 147.156 86.7109C145.883 86.7109 145.008 87.3125 144.609 88.2812H144.469V86.8984H142.266V95.5Z" fill="white"/>
<path d="M152.961 84.8438V86.9766H151.617V88.7031H152.961V93.1797C152.961 94.8516 153.789 95.5312 155.883 95.5312C156.32 95.5312 156.742 95.4844 157.023 95.4297V93.75C156.805 93.7734 156.648 93.7891 156.352 93.7891C155.578 93.7891 155.234 93.4297 155.234 92.6562V88.7031H157.023V86.9766H155.234V84.8438H152.961Z" fill="white"/>
<path d="M164.43 93.0703C164.188 93.6562 163.57 93.9844 162.672 93.9844C161.484 93.9844 160.734 93.1641 160.703 91.8516V91.7344H166.617V91.0547C166.617 88.3359 165.117 86.7109 162.578 86.7109C160.016 86.7109 158.438 88.4453 158.438 91.2422C158.438 94.0234 159.984 95.6797 162.609 95.6797C164.719 95.6797 166.211 94.6719 166.547 93.0703H164.43ZM162.586 88.4062C163.648 88.4062 164.336 89.1406 164.383 90.3203H160.711C160.789 89.1641 161.531 88.4062 162.586 88.4062Z" fill="white"/>
<path d="M168.484 95.5H170.758V90.6875C170.758 89.4766 171.609 88.7344 172.852 88.7344C173.219 88.7344 173.75 88.7969 173.93 88.8594V86.8594C173.734 86.7969 173.352 86.7578 173.039 86.7578C171.945 86.7578 171.055 87.4062 170.828 88.2656H170.688V86.8984H168.484V95.5Z" fill="white"/>
<path d="M180.82 93.0703C180.578 93.6562 179.961 93.9844 179.062 93.9844C177.875 93.9844 177.125 93.1641 177.094 91.8516V91.7344H183.008V91.0547C183.008 88.3359 181.508 86.7109 178.969 86.7109C176.406 86.7109 174.828 88.4453 174.828 91.2422C174.828 94.0234 176.375 95.6797 179 95.6797C181.109 95.6797 182.602 94.6719 182.938 93.0703H180.82ZM178.977 88.4062C180.039 88.4062 180.727 89.1406 180.773 90.3203H177.102C177.18 89.1641 177.922 88.4062 178.977 88.4062Z" fill="white"/>
<path d="M184.68 89.4062C184.68 90.7266 185.492 91.5156 187.164 91.8828L188.727 92.2344C189.484 92.4062 189.812 92.6719 189.812 93.1094C189.812 93.6797 189.203 94.0703 188.32 94.0703C187.414 94.0703 186.859 93.7188 186.688 93.125H184.469C184.625 94.75 186 95.6797 188.273 95.6797C190.531 95.6797 192.07 94.5703 192.07 92.8672C192.07 91.5859 191.32 90.8828 189.648 90.5156L188.031 90.1641C187.234 89.9844 186.867 89.7109 186.867 89.2734C186.867 88.7109 187.469 88.3281 188.281 88.3281C189.125 88.3281 189.648 88.6797 189.766 89.25H191.867C191.742 87.625 190.453 86.7109 188.266 86.7109C186.117 86.7109 184.68 87.7969 184.68 89.4062Z" fill="white"/>
<path d="M194.539 84.8438V86.9766H193.195V88.7031H194.539V93.1797C194.539 94.8516 195.367 95.5312 197.461 95.5312C197.898 95.5312 198.32 95.4844 198.602 95.4297V93.75C198.383 93.7734 198.227 93.7891 197.93 93.7891C197.156 93.7891 196.812 93.4297 196.812 92.6562V88.7031H198.602V86.9766H196.812V84.8438H194.539Z" fill="white"/>
<path d="M202.141 95.6953C202.984 95.6953 203.523 95.1328 203.523 94.3672C203.523 93.6016 202.984 93.0469 202.141 93.0469C201.305 93.0469 200.758 93.6016 200.758 94.3672C200.758 95.1328 201.305 95.6953 202.141 95.6953Z" fill="white"/>
<path d="M213.375 89.8984C213.188 87.9766 211.82 86.7109 209.539 86.7109C206.844 86.7109 205.328 88.3438 205.328 91.1797C205.328 94.0469 206.852 95.6797 209.539 95.6797C211.781 95.6797 213.188 94.4453 213.375 92.5547H211.25C211.078 93.4141 210.469 93.875 209.539 93.875C208.32 93.875 207.625 92.9141 207.625 91.1797C207.625 89.4688 208.312 88.5234 209.539 88.5234C210.508 88.5234 211.094 89.0703 211.25 89.8984H213.375Z" fill="white"/>
<path d="M218.977 95.6797C221.625 95.6797 223.219 94.0078 223.219 91.1953C223.219 88.4062 221.602 86.7109 218.977 86.7109C216.352 86.7109 214.734 88.4141 214.734 91.1953C214.734 94 216.328 95.6797 218.977 95.6797ZM218.977 93.8828C217.758 93.8828 217.07 92.8984 217.07 91.1953C217.07 89.5078 217.766 88.5156 218.977 88.5156C220.18 88.5156 220.883 89.5078 220.883 91.1953C220.883 92.8984 220.188 93.8828 218.977 93.8828Z" fill="white"/>
<path d="M225.078 95.5H227.352V90.3125C227.352 89.3281 227.984 88.6094 228.875 88.6094C229.766 88.6094 230.297 89.1406 230.297 90.0625V95.5H232.484V90.2109C232.484 89.2812 233.078 88.6094 234 88.6094C234.961 88.6094 235.438 89.125 235.438 90.1641V95.5H237.711V89.5938C237.711 87.8203 236.641 86.7109 234.922 86.7109C233.719 86.7109 232.727 87.3438 232.328 88.2969H232.188C231.844 87.3125 231.016 86.7109 229.805 86.7109C228.672 86.7109 227.773 87.3125 227.422 88.2969H227.281V86.8984H225.078V95.5Z" fill="white"/>
<path d="M0 0V-2H-2V0H0ZM325 0H327V-2H325V0ZM325 180V182H327V180H325ZM0 180H-2V182H0V180ZM0 2H325V-2H0V2ZM323 0V180H327V0H323ZM325 178H0V182H325V178ZM2 180V0H-2V180H2Z" fill="#767676"/>
</svg>
