<svg xmlns="http://www.w3.org/2000/svg" width="312" height="180" fill="none"><path fill="#F1F1F1" d="M104 36a8 8 0 0 1 8-8h8a8 8 0 0 1 8 8v8a8 8 0 0 1-8 8h-8a8 8 0 0 1-8-8v-8Z"/><path fill="#4A4A4A" fill-rule="evenodd" d="m114.5 45-4.134-4.126a1.246 1.246 0 0 1 0-1.765 1.252 1.252 0 0 1 1.768 0l2.366 2.362 5.366-5.355a1.251 1.251 0 0 1 1.768 0 1.246 1.246 0 0 1 0 1.764L114.5 45Z" clip-rule="evenodd"/><path fill="#F1F1F1" fill-rule="evenodd" d="M120 70h-8a6 6 0 0 0-6 6v8a6 6 0 0 0 6 6h8a6 6 0 0 0 6-6v-8a6 6 0 0 0-6-6Zm-8-2a8 8 0 0 0-8 8v8a8 8 0 0 0 8 8h8a8 8 0 0 0 8-8v-8a8 8 0 0 0-8-8h-8Z" clip-rule="evenodd"/><rect width="70" height="8" x="138" y="36" fill="#E9E9E9" fill-opacity=".6" rx="4"/><rect width="70" height="8" x="138" y="76" fill="#E9E9E9" fill-opacity=".6" rx="4"/><path fill="#F1F1F1" d="M100 128c0-13.255 10.745-24 24-24h65c13.255 0 24 10.745 24 24s-10.745 24-24 24h-65c-13.255 0-24-10.745-24-24Z"/><path fill="#4A4A4A" d="M135.069 132.827c2.409 0 3.903-1.193 3.903-3.098 0-1.396-1.088-2.469-2.582-2.582v-.135c1.158-.165 2.042-1.163 2.042-2.311 0-1.673-1.306-2.701-3.496-2.701H130v10.827h5.069Zm-2.707-9.146h1.971c1.127 0 1.776.525 1.776 1.41 0 .901-.696 1.411-1.971 1.411h-1.776v-2.821Zm0 7.458v-3.144h2.05c1.392 0 2.151.54 2.151 1.553 0 1.036-.736 1.591-2.097 1.591h-2.104ZM148.687 124.566h-2.277v4.772c0 1.133-.61 1.831-1.744 1.831-1.048 0-1.588-.593-1.588-1.763v-4.84h-2.276v5.38c0 1.921 1.158 3.054 3.019 3.054 1.307 0 2.112-.54 2.519-1.501h.141v1.328h2.206v-8.261ZM151.62 122.593v2.048h-1.346v1.658h1.346v4.3c0 1.606.829 2.258 2.925 2.258.438 0 .861-.045 1.142-.097v-1.613a5.72 5.72 0 0 1-.673.037c-.774 0-1.118-.345-1.118-1.088v-3.797h1.791v-1.658h-1.791v-2.048h-2.276ZM158.315 122.593v2.048h-1.345v1.658h1.345v4.3c0 1.606.829 2.258 2.926 2.258.438 0 .86-.045 1.142-.097v-1.613a5.732 5.732 0 0 1-.673.037c-.774 0-1.119-.345-1.119-1.088v-3.797h1.792v-1.658h-1.792v-2.048h-2.276ZM168.046 133c2.651 0 4.247-1.606 4.247-4.307 0-2.679-1.619-4.307-4.247-4.307s-4.248 1.636-4.248 4.307c0 2.694 1.596 4.307 4.248 4.307Zm0-1.726c-1.22 0-1.909-.945-1.909-2.581 0-1.621.696-2.574 1.909-2.574 1.204 0 1.908.953 1.908 2.574 0 1.636-.696 2.581-1.908 2.581ZM174.155 132.827h2.276v-4.779c0-1.118.649-1.839 1.705-1.839 1.079 0 1.588.608 1.588 1.771v4.847H182v-5.342c0-1.973-1.032-3.099-2.949-3.099-1.275 0-2.151.578-2.55 1.508h-.141v-1.328h-2.205v8.261Z"/></svg>