<svg xmlns="http://www.w3.org/2000/svg" width="103" height="129" fill="none"><rect width="102" height="129" fill="#fff" rx="18.976"/><path fill="#75BFFF" d="M102.019 40.992H81.673C82.501 28.406 91.235 18.437 102.02 18v22.992Z"/><path fill="#00422C" d="M102.019 41.007H81.673C82.501 53.594 91.235 63.563 102.02 64V41.007Z"/><path fill="#009990" fill-rule="evenodd" d="M54.572 62v17.415c0 6.826 5.534 12.36 12.36 12.36 6.825 0 12.359-5.534 12.359-12.36V62l-8.427 8.427H63L54.572 62Zm9.55 17.977a1.685 1.685 0 1 0 0-3.37 1.685 1.685 0 0 0 0 3.37Zm8.427-1.685a1.685 1.685 0 1 1-3.37 0 1.685 1.685 0 0 1 3.37 0Zm-50.557 36.516V82.786c0-2.247-3.655-3.37-5.939-3.933-2.854-.702-3.425-3.932-2.854-5.617.57-1.686 1.713-2.247 3.996-2.247s11.988 2.247 11.988 9.55v13.483l.35-.463c2.923-3.866 8.146-10.773 20.771-10.773.304 0 .608.004.91.012-.008.183-.013.366-.013.55 0 6.826 6.288 12.36 14.045 12.36 2.132 0 4.153-.419 5.963-1.167l.01.043h.207v29.212h-8.989v-21.012l-15.273 12.024h2.914a4.494 4.494 0 0 1 4.494 4.494v2.721c0 .979-.794 1.773-1.773 1.773H30.977a8.99 8.99 0 0 1-8.919-7.865h-.066v-.881a8.823 8.823 0 0 1-.003-.242h.003ZM25.995 23.29c-.78-6.504 6.763-13.006 12.226-12.226v33.193a3.743 3.743 0 1 1-7.474-.304l.842-10.332c-2.22-2.094-5.072-5.98-5.594-10.332Zm-8.063-12.226H14.29v11.965h-2.08V11.064H8.568l-.554 9.564c-.224 3.85 2.335 7.19 5.89 8.124H12.73l-.875 16.175A2.916 2.916 0 0 0 14.767 48h2.387a2.916 2.916 0 0 0 2.909-3.112l-1.09-16.136h-1.024c3.672-.965 6.264-4.493 5.86-8.465l-.935-9.223h-2.861v11.965h-2.081V11.064Z" clip-rule="evenodd"/></svg>