<svg  viewBox="0 0 736 574" fill="none" xmlns="http://www.w3.org/2000/svg">
<g clip-path="url(#clip0_851_11120)">
<path d="M57.003 244.219H57.6404V239.108H57.0065L55.6465 240.086V240.759L56.9463 239.817H57.003V244.219ZM59.8716 242.069H59.815V238.885H59.2058V244.219H59.815V242.77L60.1797 242.43L61.6105 244.219H62.3861L60.633 242.037L62.2763 240.401H61.5291L59.8716 242.069Z" fill="#111111"/>
<rect x="50.375" y="233.592" width="635.25" height="0.686947" fill="#EFEFEF"/>
</g>
<g clip-path="url(#clip1_851_11120)">
<path d="M55.9936 283.759H56.663L58.9366 279.24V278.648H55.5545V279.219H58.2885V279.268L55.9936 283.759ZM61.5468 283.879C62.5915 283.879 63.3034 283.157 63.3034 282.105C63.3034 281.092 62.5951 280.419 61.738 280.419C61.228 280.419 60.8491 280.575 60.6012 280.883H60.5445L60.7039 279.219H63.0413V278.648H60.2045L59.9106 281.57H60.5091C60.711 281.191 61.0935 280.968 61.5786 280.968C62.2232 280.968 62.6659 281.432 62.6659 282.123C62.6659 282.838 62.2232 283.32 61.5539 283.32C60.9518 283.32 60.5126 282.955 60.456 282.409H59.8291C59.8858 283.284 60.5799 283.879 61.5468 283.879ZM66.0552 283.879C67.2026 283.879 67.8614 282.909 67.8614 281.212C67.8614 279.52 67.192 278.528 66.0552 278.528C64.9112 278.528 64.2419 279.516 64.2419 281.202C64.2419 282.902 64.9042 283.879 66.0552 283.879ZM66.0552 283.323C65.3008 283.323 64.8829 282.569 64.8829 281.202C64.8829 279.852 65.3079 279.087 66.0552 279.087C66.8024 279.087 67.2203 279.845 67.2203 281.202C67.2203 282.572 66.8095 283.323 66.0552 283.323Z" fill="#111111"/>
<rect x="50.375" y="273.434" width="635.25" height="0.686947" fill="#EFEFEF"/>
</g>
<g clip-path="url(#clip2_851_11120)">
<path d="M57.4811 323.337C58.5258 323.337 59.2377 322.615 59.2377 321.563C59.2377 320.55 58.5294 319.877 57.6723 319.877C57.1623 319.877 56.7834 320.033 56.5355 320.341H56.4788L56.6382 318.677H58.9756V318.106H56.1388L55.8449 321.028H56.4434C56.6453 320.649 57.0278 320.426 57.5129 320.426C58.1575 320.426 58.6002 320.89 58.6002 321.581C58.6002 322.296 58.1575 322.778 57.4882 322.778C56.8861 322.778 56.4469 322.413 56.3903 321.867H55.7634C55.8201 322.742 56.5142 323.337 57.4811 323.337ZM61.9895 323.337C63.1369 323.337 63.7957 322.367 63.7957 320.67C63.7957 318.978 63.1263 317.986 61.9895 317.986C60.8455 317.986 60.1762 318.974 60.1762 320.66C60.1762 322.36 60.8385 323.337 61.9895 323.337ZM61.9895 322.781C61.2351 322.781 60.8172 322.027 60.8172 320.66C60.8172 319.31 61.2422 318.545 61.9895 318.545C62.7367 318.545 63.1546 319.303 63.1546 320.66C63.1546 322.03 62.7438 322.781 61.9895 322.781ZM66.5581 323.337C67.7055 323.337 68.3643 322.367 68.3643 320.67C68.3643 318.978 67.6949 317.986 66.5581 317.986C65.4141 317.986 64.7448 318.974 64.7448 320.66C64.7448 322.36 65.4071 323.337 66.5581 323.337ZM66.5581 322.781C65.8037 322.781 65.3858 322.027 65.3858 320.66C65.3858 319.31 65.8108 318.545 66.5581 318.545C67.3053 318.545 67.7232 319.303 67.7232 320.66C67.7232 322.03 67.3124 322.781 66.5581 322.781Z" fill="#111111"/>
<rect x="50.375" y="312.59" width="635.25" height="0.686947" fill="#EFEFEF"/>
</g>
<g clip-path="url(#clip3_851_11120)">
<path d="M55.7493 359.088H56.3655C56.3655 358.482 56.7728 358.082 57.3854 358.082C57.9875 358.082 58.3523 358.486 58.3523 359.028C58.3523 359.477 58.161 359.743 57.5094 360.448L55.7811 362.318V362.757H59.0889V362.183H56.6665V362.126L57.8281 360.926C58.7489 359.973 59.0039 359.548 59.0039 358.96C59.0039 358.132 58.3204 357.526 57.4279 357.526C56.4505 357.526 55.7493 358.178 55.7493 359.088ZM61.8655 362.877C62.9103 362.877 63.6221 362.155 63.6221 361.103C63.6221 360.09 62.9138 359.417 62.0568 359.417C61.5468 359.417 61.1678 359.573 60.9199 359.881H60.8633L61.0226 358.217H63.36V357.646H60.5233L60.2293 360.568H60.8278C61.0297 360.189 61.4122 359.966 61.8974 359.966C62.5419 359.966 62.9846 360.43 62.9846 361.121C62.9846 361.836 62.5419 362.318 61.8726 362.318C61.2705 362.318 60.8314 361.953 60.7747 361.408H60.1479C60.2045 362.282 60.8987 362.877 61.8655 362.877ZM66.3739 362.877C67.5214 362.877 68.1801 361.907 68.1801 360.21C68.1801 358.518 67.5107 357.526 66.3739 357.526C65.23 357.526 64.5606 358.514 64.5606 360.2C64.5606 361.9 65.2229 362.877 66.3739 362.877ZM66.3739 362.321C65.6196 362.321 65.2016 361.567 65.2016 360.2C65.2016 358.851 65.6266 358.086 66.3739 358.086C67.1212 358.086 67.5391 358.843 67.5391 360.2C67.5391 361.57 67.1283 362.321 66.3739 362.321Z" fill="#111111"/>
<rect x="50.375" y="352.432" width="635.25" height="0.686947" fill="#EFEFEF"/>
</g>
<g clip-path="url(#clip4_851_11120)">
<path d="M112.03 406.137C112.03 406.919 112.633 407.45 113.49 407.45C114.414 407.45 114.977 406.88 114.977 405.906V402.22H114.34V405.903C114.34 406.53 114.031 406.863 113.486 406.863C113.004 406.863 112.679 406.565 112.664 406.137H112.03ZM117.265 407.397C117.775 407.397 118.193 407.174 118.441 406.767H118.497V407.33H119.078V404.716C119.078 403.923 118.558 403.445 117.626 403.445C116.812 403.445 116.209 403.849 116.128 404.461H116.744C116.829 404.16 117.148 403.987 117.605 403.987C118.175 403.987 118.469 404.245 118.469 404.716V405.063L117.368 405.131C116.479 405.184 115.976 405.577 115.976 406.261C115.976 406.958 116.525 407.397 117.265 407.397ZM117.378 406.863C116.935 406.863 116.606 406.636 116.606 406.246C116.606 405.864 116.861 405.662 117.442 405.623L118.469 405.556V405.906C118.469 406.452 118.005 406.863 117.378 406.863ZM120.204 407.33H120.813V405.071C120.813 404.401 121.207 403.994 121.816 403.994C122.425 403.994 122.715 404.32 122.715 405.007V407.33H123.324V404.858C123.324 403.951 122.846 403.445 121.989 403.445C121.405 403.445 121.033 403.693 120.842 404.114H120.785V403.512H120.204V407.33ZM126.452 403.661H127.068C127.068 403.055 127.475 402.655 128.088 402.655C128.69 402.655 129.055 403.059 129.055 403.601C129.055 404.051 128.863 404.316 128.212 405.021L126.484 406.891V407.33H129.791V406.756H127.369V406.7L128.531 405.499C129.451 404.546 129.706 404.121 129.706 403.534C129.706 402.705 129.023 402.099 128.13 402.099C127.153 402.099 126.452 402.751 126.452 403.661ZM132.568 407.45C133.613 407.45 134.324 406.728 134.324 405.676C134.324 404.663 133.616 403.99 132.759 403.99C132.249 403.99 131.87 404.146 131.622 404.454H131.566L131.725 402.79H134.062V402.22H131.226L130.932 405.141H131.53C131.732 404.762 132.115 404.539 132.6 404.539C133.244 404.539 133.687 405.003 133.687 405.694C133.687 406.409 133.244 406.891 132.575 406.891C131.973 406.891 131.534 406.526 131.477 405.981H130.85C130.907 406.856 131.601 407.45 132.568 407.45Z" fill="#111111"/>
<path d="M216.782 407.33V405.117H219.045V404.55H216.782V402.793H219.247V402.22H216.145V407.33H216.782ZM222.746 406.342C222.587 406.678 222.254 406.859 221.762 406.859C221.113 406.859 220.692 406.381 220.66 405.627V405.598H223.405V405.365C223.405 404.178 222.778 403.445 221.747 403.445C220.699 403.445 220.026 404.224 220.026 405.425C220.026 406.632 220.688 407.397 221.747 407.397C222.583 407.397 223.178 406.994 223.355 406.342H222.746ZM221.74 403.983C222.346 403.983 222.75 404.43 222.764 405.106H220.66C220.706 404.43 221.131 403.983 221.74 403.983ZM226.259 407.397C227.226 407.397 227.86 406.615 227.86 405.421C227.86 404.221 227.23 403.445 226.259 403.445C225.735 403.445 225.271 403.704 225.062 404.114H225.006V401.997H224.396V407.33H224.977V406.721H225.034C225.275 407.146 225.728 407.397 226.259 407.397ZM226.118 403.994C226.815 403.994 227.23 404.529 227.23 405.421C227.23 406.314 226.815 406.848 226.118 406.848C225.423 406.848 224.991 406.303 224.991 405.421C224.991 404.539 225.423 403.994 226.118 403.994ZM232.082 407.33H232.719V402.22H232.085L230.725 403.197V403.87L232.025 402.928H232.082V407.33Z" fill="#111111"/>
<path d="M318.748 407.33V405.117H321.011V404.55H318.748V402.793H321.213V402.22H318.111V407.33H318.748ZM324.712 406.342C324.553 406.678 324.22 406.859 323.727 406.859C323.079 406.859 322.658 406.381 322.626 405.627V405.598H325.371V405.365C325.371 404.178 324.744 403.445 323.713 403.445C322.665 403.445 321.992 404.224 321.992 405.425C321.992 406.632 322.654 407.397 323.713 407.397C324.549 407.397 325.144 406.994 325.321 406.342H324.712ZM323.706 403.983C324.312 403.983 324.716 404.43 324.73 405.106H322.626C322.672 404.43 323.097 403.983 323.706 403.983ZM328.225 407.397C329.192 407.397 329.826 406.615 329.826 405.421C329.826 404.221 329.196 403.445 328.225 403.445C327.701 403.445 327.237 403.704 327.028 404.114H326.972V401.997H326.362V407.33H326.943V406.721H327C327.241 407.146 327.694 407.397 328.225 407.397ZM328.084 403.994C328.781 403.994 329.196 404.529 329.196 405.421C329.196 406.314 328.781 406.848 328.084 406.848C327.389 406.848 326.957 406.303 326.957 405.421C326.957 404.539 327.389 403.994 328.084 403.994ZM333.038 407.33H333.708L335.981 402.811V402.22H332.599V402.79H335.333V402.839L333.038 407.33Z" fill="#111111"/>
<path d="M419.191 407.33V405.117H421.454V404.55H419.191V402.793H421.656V402.22H418.554V407.33H419.191ZM425.155 406.342C424.996 406.678 424.663 406.859 424.171 406.859C423.522 406.859 423.101 406.381 423.069 405.627V405.598H425.814V405.365C425.814 404.178 425.187 403.445 424.156 403.445C423.108 403.445 422.435 404.224 422.435 405.425C422.435 406.632 423.098 407.397 424.156 407.397C424.992 407.397 425.587 406.994 425.764 406.342H425.155ZM424.149 403.983C424.755 403.983 425.159 404.43 425.173 405.106H423.069C423.115 404.43 423.54 403.983 424.149 403.983ZM428.668 407.397C429.635 407.397 430.269 406.615 430.269 405.421C430.269 404.221 429.639 403.445 428.668 403.445C428.144 403.445 427.68 403.704 427.471 404.114H427.415V401.997H426.806V407.33H427.386V406.721H427.443C427.684 407.146 428.137 407.397 428.668 407.397ZM428.527 403.994C429.224 403.994 429.639 404.529 429.639 405.421C429.639 406.314 429.224 406.848 428.527 406.848C427.833 406.848 427.4 406.303 427.4 405.421C427.4 404.539 427.833 403.994 428.527 403.994ZM434.491 407.33H435.128V402.22H434.494L433.134 403.197V403.87L434.434 402.928H434.491V407.33ZM437.728 404.975H438.362C439.081 404.975 439.523 405.343 439.523 405.935C439.523 406.508 439.045 406.894 438.372 406.894C437.713 406.894 437.253 406.551 437.196 406.013H436.58C436.626 406.88 437.342 407.45 438.379 407.45C439.396 407.45 440.178 406.809 440.178 405.952C440.178 405.241 439.739 404.791 439.077 404.685V404.628C439.601 404.476 439.984 404.068 439.987 403.452C439.991 402.737 439.41 402.099 438.401 402.099C437.366 402.099 436.732 402.712 436.669 403.544H437.288C437.342 402.97 437.742 402.655 438.358 402.655C438.974 402.655 439.339 403.045 439.339 403.523C439.339 404.054 438.921 404.43 438.333 404.43H437.728V404.975Z" fill="#111111"/>
<path d="M522.505 407.33V405.117H524.768V404.55H522.505V402.793H524.97V402.22H521.867V407.33H522.505ZM528.469 406.342C528.309 406.678 527.976 406.859 527.484 406.859C526.836 406.859 526.415 406.381 526.383 405.627V405.598H529.127V405.365C529.127 404.178 528.501 403.445 527.47 403.445C526.422 403.445 525.749 404.224 525.749 405.425C525.749 406.632 526.411 407.397 527.47 407.397C528.306 407.397 528.901 406.994 529.078 406.342H528.469ZM527.463 403.983C528.068 403.983 528.472 404.43 528.486 405.106H526.383C526.429 404.43 526.854 403.983 527.463 403.983ZM531.982 407.397C532.949 407.397 533.583 406.615 533.583 405.421C533.583 404.221 532.952 403.445 531.982 403.445C531.458 403.445 530.994 403.704 530.785 404.114H530.728V401.997H530.119V407.33H530.7V406.721H530.756C530.997 407.146 531.451 407.397 531.982 407.397ZM531.84 403.994C532.538 403.994 532.952 404.529 532.952 405.421C532.952 406.314 532.538 406.848 531.84 406.848C531.146 406.848 530.714 406.303 530.714 405.421C530.714 404.539 531.146 403.994 531.84 403.994ZM537.804 407.33H538.442V402.22H537.808L536.448 403.197V403.87L537.747 402.928H537.804V407.33ZM541.601 407.447C542.851 407.447 543.566 406.441 543.566 404.685C543.566 402.946 542.745 402.099 541.643 402.099C540.595 402.099 539.851 402.832 539.851 403.859C539.851 404.851 540.556 405.57 541.53 405.57C542.139 405.57 542.638 405.28 542.89 404.784H542.946C542.911 406.144 542.44 406.88 541.608 406.88C541.105 406.88 540.715 406.601 540.581 406.14H539.926C540.085 406.944 540.733 407.447 541.601 407.447ZM541.643 405.017C540.967 405.017 540.496 404.536 540.496 403.838C540.496 403.169 540.995 402.659 541.65 402.659C542.305 402.659 542.805 403.176 542.805 403.859C542.805 404.536 542.32 405.017 541.643 405.017Z" fill="#111111"/>
<path d="M623.402 407.33V405.117H625.665V404.55H623.402V402.793H625.867V402.22H622.764V407.33H623.402ZM629.366 406.342C629.206 406.678 628.873 406.859 628.381 406.859C627.733 406.859 627.312 406.381 627.28 405.627V405.598H630.024V405.365C630.024 404.178 629.398 403.445 628.367 403.445C627.319 403.445 626.646 404.224 626.646 405.425C626.646 406.632 627.308 407.397 628.367 407.397C629.203 407.397 629.798 406.994 629.975 406.342H629.366ZM628.36 403.983C628.966 403.983 629.369 404.43 629.383 405.106H627.28C627.326 404.43 627.751 403.983 628.36 403.983ZM632.879 407.397C633.846 407.397 634.48 406.615 634.48 405.421C634.48 404.221 633.849 403.445 632.879 403.445C632.355 403.445 631.891 403.704 631.682 404.114H631.625V401.997H631.016V407.33H631.597V406.721H631.654C631.894 407.146 632.348 407.397 632.879 407.397ZM632.737 403.994C633.435 403.994 633.849 404.529 633.849 405.421C633.849 406.314 633.435 406.848 632.737 406.848C632.043 406.848 631.611 406.303 631.611 405.421C631.611 404.539 632.043 403.994 632.737 403.994ZM637.448 403.661H638.064C638.064 403.055 638.471 402.655 639.084 402.655C639.686 402.655 640.051 403.059 640.051 403.601C640.051 404.051 639.859 404.316 639.208 405.021L637.479 406.891V407.33H640.787V406.756H638.365V406.7L639.526 405.499C640.447 404.546 640.702 404.121 640.702 403.534C640.702 402.705 640.019 402.099 639.126 402.099C638.149 402.099 637.448 402.751 637.448 403.661ZM643.564 407.45C644.609 407.45 645.32 406.728 645.32 405.676C645.32 404.663 644.612 403.99 643.755 403.99C643.245 403.99 642.866 404.146 642.618 404.454H642.562L642.721 402.79H645.058V402.22H642.222L641.928 405.141H642.526C642.728 404.762 643.111 404.539 643.596 404.539C644.24 404.539 644.683 405.003 644.683 405.694C644.683 406.409 644.24 406.891 643.571 406.891C642.969 406.891 642.53 406.526 642.473 405.981H641.846C641.903 406.856 642.597 407.45 643.564 407.45Z" fill="#111111"/>
</g>
<path d="M636.668 307.74L601.337 299.798L576.226 314.744L548.788 322.901L529.147 299.798L510.138 301.997L493.424 305.076L475.109 307.74L457.313 314.744L439.282 327.155L421.768 322.901L402.591 296.874L384.268 299.798L367.324 298.685L348.756 295.162L331.844 314.744L313.593 321.917L295.573 320.643L277.635 298.685L259.801 296.874L239.259 281.26L223.836 300.661L203.762 307.74L187.727 320.643L169.498 316.603L151.86 301.997L134.693 290.024L116.259 303.711" stroke="#6B16CA" stroke-width="1.81327" stroke-linecap="round" stroke-linejoin="round"/>
<path d="M637.574 350.238L601.336 343.333L583.78 350.238L548.788 345.727L529.147 321.232L510.138 343.333L493.424 350.238L475.109 363.342H457.313L439.282 350.238L421.768 345.727L399.733 332.938L381.298 337.079H367.323L348.756 343.333L331.844 356.813L313.593 344.684L295.573 343.333L277.635 356.813L259.801 343.333L248.108 329.652H223.836L213.873 337.079L187.727 343.333L169.498 350.238L150.71 343.333L134.391 337.079L116.863 343.333" stroke="#003C96" stroke-width="1.81327" stroke-linecap="round" stroke-linejoin="round"/>
<path d="M638.48 383.284L602.215 376.755H571.994L548.788 365.669H532.102L510.137 363.275L493.423 370.18L475.108 383.284H457.313L431.767 376.755L421.767 365.669L399.128 365.669L384.622 370.18H362.259L347.752 365.669L331.844 376.755H312.091H296.376H277.635H262.529H248.627L225.659 370.18H203.295L187.726 363.275L169.497 370.18H154.337L136.204 376.755H112.027" stroke="#DE3700" stroke-width="1.81327" stroke-linecap="round" stroke-linejoin="round"/>
<path d="M638.48 370.592H589.22L565.226 376.756L555.372 370.592L531.497 370.592L510.947 370.592L497.952 373.736L481.632 376.756L463.5 379.781L447.18 376.756L424.816 373.736L406.382 370.592L385.227 364.67H371.023L356.214 373.736H329.62H316.624H298.19H280.661H267.062L250.742 376.756H232.307L213.268 373.736H193.624L177.909 376.756H150.71H134.693L116.862 383.105" stroke="#0074E8" stroke-width="1.81327" stroke-linecap="round" stroke-linejoin="round"/>
<path d="M638.48 365.151H589.22L565.226 371.315L555.372 365.151L531.497 365.151L510.947 365.151L497.952 368.295L481.632 371.315L463.5 374.339L447.18 371.315L424.816 368.295L406.382 365.151L385.227 359.229H371.023L356.214 368.295H329.62H316.624H298.19H280.661H267.062L250.742 371.315H232.307L213.268 368.295H193.624L177.909 371.315H150.71H134.693L116.862 377.663" stroke="#A42700" stroke-width="1.81327" stroke-linecap="round" stroke-linejoin="round"/>
<path d="M636.062 313.331L601.336 327.011H568.971L558.092 309.06L529.146 304.911L510.137 327.011H496.138L476.494 317.828H461.384L445.064 313.331L426.025 309.06L402.59 301.811L384.267 304.911L367.323 320.757L348.755 327.011L336.268 317.828L313.592 328.362L295.572 327.011L284.892 313.331L259.8 327.011L248.107 313.331L233.818 301.811L212.059 313.331L197.25 309.06L184.86 304.911L164.309 301.811L133.79 309.06H116.258" stroke="#DE2C62" stroke-width="1.81327" stroke-linecap="round" stroke-linejoin="round"/>
<path d="M116.26 296.974L156.152 275.672L182.142 260.537L210.55 273.745L225.594 258.259L244.603 260.537L261.317 263.728L279.632 266.488L297.428 273.745L315.459 286.605L332.973 282.197L352.15 255.229L370.473 258.259L387.417 257.106L405.985 253.455L422.897 273.745L441.148 281.178L459.167 279.858L477.106 257.106L494.94 255.229L514.138 259.154H530.905L550.979 266.488L567.014 279.858L585.243 275.672L602.881 260.537L620.95 262.314H638.482" stroke="#009990" stroke-width="1.81327" stroke-linecap="round" stroke-linejoin="round"/>
<path d="M116.861 289.46L152.825 285.792L188.183 315.127L205.95 297.912L225.591 273.974L244.6 276.252L261.314 279.443L279.629 282.203L297.425 289.46L315.456 302.32L332.97 297.912L352.147 270.944L370.47 273.974L387.414 272.821L405.982 269.17L422.894 289.46L441.145 296.892L459.165 295.572L477.103 272.821L494.937 270.944L514.135 274.869H530.902L550.976 282.203L567.011 295.572L585.24 291.386L602.878 276.252L620.947 278.029H638.48" stroke="#D86800" stroke-width="1.81327" stroke-linecap="round" stroke-linejoin="round"/>
<rect x="50.375" y="394.891" width="635.25" height="0.604424" fill="#767676"/>
<rect x="685.02" y="232.904" width="0.604424" height="162.59" fill="#767676"/>
<rect x="50.375" y="232.904" width="0.604424" height="162.59" fill="#767676"/>
<path fill-rule="evenodd" clip-rule="evenodd" d="M179.111 209.485H176.507V212.205C176.507 212.622 176.183 212.961 175.784 212.961C175.385 212.961 175.061 212.622 175.061 212.205V209.485H172.458C172.058 209.485 171.734 209.147 171.734 208.73C171.734 208.313 172.058 207.974 172.458 207.974H175.061V205.254C175.061 204.837 175.385 204.499 175.784 204.499C176.183 204.499 176.507 204.837 176.507 205.254V207.974H179.111C179.51 207.974 179.834 208.313 179.834 208.73C179.834 209.147 179.51 209.485 179.111 209.485ZM175.784 201.477C171.95 201.477 168.842 204.724 168.842 208.73C168.842 212.735 171.95 215.983 175.784 215.983C179.618 215.983 182.726 212.735 182.726 208.73C182.726 204.724 179.618 201.477 175.784 201.477Z" fill="#111111"/>
<g clip-path="url(#clip5_851_11120)">
<path fill-rule="evenodd" clip-rule="evenodd" d="M148.341 206.811L145.875 209.247L143.409 206.811C143.143 206.549 142.713 206.549 142.447 206.811C142.182 207.073 142.182 207.499 142.447 207.761L145.875 211.147L149.302 207.761C149.435 207.63 149.501 207.458 149.501 207.286C149.501 207.114 149.435 206.942 149.302 206.811C149.169 206.68 148.995 206.614 148.821 206.614C148.647 206.614 148.473 206.68 148.341 206.811Z" fill="#111111"/>
<path d="M60.9138 205.173V211.987H61.7638V209.555H63.4779C64.7575 209.555 65.6689 208.654 65.6689 207.379C65.6689 206.08 64.7764 205.173 63.4873 205.173H60.9138ZM61.7638 205.929H63.2654C64.2523 205.929 64.7953 206.444 64.7953 207.379C64.7953 208.28 64.2334 208.8 63.2654 208.8H61.7638V205.929ZM68.1858 212.077C68.8657 212.077 69.4229 211.78 69.7535 211.236H69.829V211.987H70.6035V208.502C70.6035 207.445 69.9093 206.807 68.6674 206.807C67.5813 206.807 66.7786 207.346 66.67 208.162H67.4916C67.6049 207.761 68.0299 207.53 68.6391 207.53C69.3993 207.53 69.7913 207.874 69.7913 208.502V208.965L68.3227 209.055C67.1375 209.126 66.4669 209.65 66.4669 210.561C66.4669 211.491 67.1989 212.077 68.1858 212.077ZM68.3369 211.364C67.7466 211.364 67.3075 211.062 67.3075 210.542C67.3075 210.032 67.6474 209.763 68.4219 209.711L69.7913 209.622V210.089C69.7913 210.816 69.1727 211.364 68.3369 211.364ZM74.2017 213.942C75.59 213.942 76.4683 213.215 76.4683 212.077V206.897H75.6938V207.704H75.6183C75.3255 207.157 74.6975 206.807 73.9845 206.807C72.6764 206.807 71.8501 207.841 71.8501 209.367C71.8501 210.892 72.667 211.912 73.9845 211.912C74.6833 211.912 75.2594 211.595 75.5805 211.033H75.6561V212.035C75.6561 212.785 75.113 213.234 74.2017 213.234C73.4698 213.234 73.0164 212.965 72.9267 212.549H72.0673C72.1901 213.39 72.9739 213.942 74.2017 213.942ZM74.1639 211.194C73.2195 211.194 72.6906 210.476 72.6906 209.367C72.6906 208.257 73.2195 207.539 74.1639 207.539C75.1036 207.539 75.675 208.257 75.675 209.367C75.675 210.476 75.1083 211.194 74.1639 211.194ZM81.3698 210.67C81.1573 211.118 80.7134 211.359 80.057 211.359C79.1929 211.359 78.631 210.722 78.5885 209.716V209.678H82.2481V209.367C82.2481 207.785 81.4123 206.807 80.0381 206.807C78.6404 206.807 77.7432 207.846 77.7432 209.447C77.7432 211.057 78.6262 212.077 80.0381 212.077C81.1526 212.077 81.9459 211.539 82.182 210.67H81.3698ZM80.0287 207.525C80.8362 207.525 81.3745 208.12 81.3934 209.022H78.5885C78.6499 208.12 79.2165 207.525 80.0287 207.525ZM90.4078 206.897H89.5389L88.1459 211.09H88.0704L86.6774 206.897H85.8085L87.6926 211.987H88.5237L90.4078 206.897ZM91.9189 205.915C92.2305 205.915 92.4855 205.66 92.4855 205.348C92.4855 205.036 92.2305 204.781 91.9189 204.781C91.6072 204.781 91.3522 205.036 91.3522 205.348C91.3522 205.66 91.6072 205.915 91.9189 205.915ZM91.5128 211.987H92.325V206.897H91.5128V211.987ZM93.7557 208.29C93.7557 209.027 94.1902 209.437 95.144 209.669L96.0176 209.881C96.5607 210.013 96.8251 210.25 96.8251 210.599C96.8251 211.067 96.334 211.392 95.6493 211.392C94.9976 211.392 94.5916 211.118 94.4546 210.689H93.6188C93.7085 211.534 94.4877 212.077 95.621 212.077C96.7779 212.077 97.6609 211.449 97.6609 210.538C97.6609 209.806 97.1981 209.39 96.2396 209.159L95.4557 208.97C94.856 208.824 94.5727 208.606 94.5727 208.257C94.5727 207.804 95.0449 207.497 95.6493 207.497C96.2632 207.497 96.6598 207.766 96.7684 208.172H97.5712C97.4626 207.336 96.7212 206.807 95.654 206.807C94.5727 206.807 93.7557 207.445 93.7557 208.29ZM99.3608 205.915C99.6725 205.915 99.9275 205.66 99.9275 205.348C99.9275 205.036 99.6725 204.781 99.3608 204.781C99.0492 204.781 98.7942 205.036 98.7942 205.348C98.7942 205.66 99.0492 205.915 99.3608 205.915ZM98.9547 211.987H99.7669V206.897H98.9547V211.987ZM101.656 205.579V206.897H100.834V207.577H101.656V210.665C101.656 211.638 102.076 212.025 103.124 212.025C103.285 212.025 103.441 212.006 103.601 211.978V211.293C103.45 211.307 103.37 211.312 103.223 211.312C102.695 211.312 102.468 211.057 102.468 210.457V207.577H103.601V206.897H102.468V205.579H101.656ZM104.616 208.29C104.616 209.027 105.051 209.437 106.005 209.669L106.878 209.881C107.421 210.013 107.686 210.25 107.686 210.599C107.686 211.067 107.195 211.392 106.51 211.392C105.858 211.392 105.452 211.118 105.315 210.689H104.48C104.569 211.534 105.348 212.077 106.482 212.077C107.639 212.077 108.522 211.449 108.522 210.538C108.522 209.806 108.059 209.39 107.1 209.159L106.316 208.97C105.717 208.824 105.433 208.606 105.433 208.257C105.433 207.804 105.906 207.497 106.51 207.497C107.124 207.497 107.521 207.766 107.629 208.172H108.432C108.323 207.336 107.582 206.807 106.515 206.807C105.433 206.807 104.616 207.445 104.616 208.29Z" fill="#111111"/>
<rect x="50.9794" y="194.827" width="107.588" height="27.8035" rx="9.06637" stroke="#EFEFEF" stroke-width="1.20885"/>
</g>
<g clip-path="url(#clip6_851_11120)">
<path fill-rule="evenodd" clip-rule="evenodd" d="M674.794 206.811L672.328 209.247L669.862 206.811C669.596 206.549 669.166 206.549 668.9 206.811C668.635 207.073 668.635 207.499 668.9 207.761L672.328 211.147L675.755 207.761C675.888 207.63 675.954 207.458 675.954 207.286C675.954 207.114 675.888 206.942 675.755 206.811C675.623 206.68 675.448 206.614 675.274 206.614C675.1 206.614 674.927 206.68 674.794 206.811Z" fill="#111111"/>
<path d="M575.478 211.987H576.37L573.858 205.173H573.018L570.506 211.987H571.398L572.083 210.037H574.793L575.478 211.987ZM573.4 206.274H573.476L574.543 209.315H572.333L573.4 206.274ZM579.274 213.942C580.663 213.942 581.541 213.215 581.541 212.077V206.897H580.767V207.704H580.691C580.398 207.157 579.77 206.807 579.057 206.807C577.749 206.807 576.923 207.841 576.923 209.367C576.923 210.892 577.74 211.912 579.057 211.912C579.756 211.912 580.332 211.595 580.653 211.033H580.729V212.035C580.729 212.785 580.186 213.234 579.274 213.234C578.542 213.234 578.089 212.965 577.999 212.549H577.14C577.263 213.39 578.047 213.942 579.274 213.942ZM579.237 211.194C578.292 211.194 577.763 210.476 577.763 209.367C577.763 208.257 578.292 207.539 579.237 207.539C580.176 207.539 580.748 208.257 580.748 209.367C580.748 210.476 580.181 211.194 579.237 211.194ZM586.442 210.67C586.23 211.118 585.786 211.359 585.13 211.359C584.266 211.359 583.704 210.722 583.661 209.716V209.678H587.321V209.367C587.321 207.785 586.485 206.807 585.111 206.807C583.713 206.807 582.816 207.846 582.816 209.447C582.816 211.057 583.699 212.077 585.111 212.077C586.225 212.077 587.019 211.539 587.255 210.67H586.442ZM585.101 207.525C585.909 207.525 586.447 208.12 586.466 209.022H583.661C583.723 208.12 584.289 207.525 585.101 207.525Z" fill="#111111"/>
<rect x="561.114" y="194.827" width="123.907" height="27.8035" rx="9.06637" stroke="#EFEFEF" stroke-width="1.20885"/>
</g>
<path d="M530.091 210.163C530.158 211.045 530.905 211.618 531.989 211.618C533.158 211.618 533.898 211.02 533.898 210.081C533.898 209.331 533.473 208.92 532.414 208.654L531.879 208.513C531.175 208.332 530.895 208.102 530.895 207.702C530.895 207.184 531.345 206.844 532.025 206.844C532.662 206.844 533.094 207.156 533.183 207.68H533.824C533.771 206.855 533.034 206.267 532.046 206.267C530.966 206.267 530.24 206.855 530.24 207.723C530.24 208.449 530.64 208.867 531.564 209.1L532.219 209.27C532.924 209.447 533.243 209.724 533.243 210.159C533.243 210.666 532.736 211.038 532.049 211.038C531.323 211.038 530.813 210.698 530.735 210.163H530.091ZM536.742 207.613C536.221 207.613 535.764 207.879 535.52 208.318H535.463V207.68H534.883V212.773H535.492V210.924H535.548C535.757 211.328 536.197 211.565 536.742 211.565C537.712 211.565 538.346 210.783 538.346 209.589C538.346 208.389 537.716 207.613 536.742 207.613ZM536.597 211.016C535.91 211.016 535.474 210.464 535.474 209.589C535.474 208.711 535.91 208.162 536.6 208.162C537.298 208.162 537.716 208.697 537.716 209.589C537.716 210.482 537.298 211.016 536.597 211.016ZM539.338 211.498H539.947V206.164H539.338V211.498ZM541.449 206.944C541.682 206.944 541.874 206.752 541.874 206.519C541.874 206.285 541.682 206.094 541.449 206.094C541.215 206.094 541.024 206.285 541.024 206.519C541.024 206.752 541.215 206.944 541.449 206.944ZM541.144 211.498H541.753V207.68H541.144V211.498ZM543.17 206.692V207.68H542.554V208.19H543.17V210.506C543.17 211.236 543.485 211.526 544.271 211.526C544.392 211.526 544.509 211.512 544.629 211.491V210.977C544.516 210.988 544.455 210.992 544.346 210.992C543.949 210.992 543.779 210.8 543.779 210.351V208.19H544.629V207.68H543.779V206.692H543.17ZM549.495 211.565C550.462 211.565 551.096 210.783 551.096 209.589C551.096 208.389 550.465 207.613 549.495 207.613C548.971 207.613 548.507 207.872 548.298 208.282H548.241V206.164H547.632V211.498H548.213V210.889H548.27C548.51 211.314 548.964 211.565 549.495 211.565ZM549.353 208.162C550.051 208.162 550.465 208.697 550.465 209.589C550.465 210.482 550.051 211.016 549.353 211.016C548.659 211.016 548.227 210.471 548.227 209.589C548.227 208.707 548.659 208.162 549.353 208.162ZM552.236 212.879C552.913 212.879 553.217 212.617 553.543 211.732L555.034 207.68H554.386L553.341 210.822H553.284L552.236 207.68H551.577L552.991 211.502L552.92 211.728C552.76 212.189 552.569 212.355 552.218 212.355C552.133 212.355 552.038 212.352 551.963 212.337V212.858C552.048 212.872 552.155 212.879 552.236 212.879Z" fill="#111111"/>
<path d="M51.0833 167.692V176.209H52.8659V173.523H54.4596C56.254 173.523 57.4994 172.355 57.4994 170.607C57.4994 168.854 56.2953 167.692 54.5481 167.692H51.0833ZM52.8659 169.102H54.0759C55.0971 169.102 55.6873 169.645 55.6873 170.613C55.6873 171.587 55.0912 172.13 54.07 172.13H52.8659V169.102ZM62.3868 174.273C62.2274 174.757 61.7434 175.07 61.1118 175.07C60.2323 175.07 59.6598 174.45 59.6598 173.547V173.441H64.0218V172.915C64.0218 170.991 62.859 169.746 61.0174 169.746C59.1462 169.746 57.9657 171.056 57.9657 173.075C57.9657 175.099 59.1344 176.345 61.0823 176.345C62.6465 176.345 63.7798 175.512 63.9686 174.273H62.3868ZM61.0351 171.021C61.8024 171.021 62.3277 171.575 62.3631 172.384H59.6775C59.7365 171.593 60.2795 171.021 61.0351 171.021ZM64.9131 176.209H66.6366V172.673C66.6366 171.782 67.1324 171.263 67.9824 171.263C68.2303 171.263 68.4664 171.304 68.6081 171.363V169.846C68.49 169.811 68.3188 169.781 68.1182 169.781C67.3744 169.781 66.8373 170.218 66.613 171.021H66.5776V169.881H64.9131V176.209ZM69.8122 176.209H71.5358V171.18H72.7517V169.911H71.4944V169.492C71.4944 169.043 71.7423 168.795 72.309 168.795C72.4802 168.795 72.6513 168.807 72.7753 168.831V167.692C72.5746 167.65 72.2146 167.615 71.8958 167.615C70.3966 167.615 69.8122 168.193 69.8122 169.433V169.911H68.9504V171.18H69.8122V176.209ZM76.3877 176.345C78.3001 176.345 79.5219 175.123 79.5219 173.039C79.5219 170.985 78.2824 169.746 76.3877 169.746C74.4929 169.746 73.2534 170.991 73.2534 173.039C73.2534 175.117 74.4752 176.345 76.3877 176.345ZM76.3877 175.028C75.5377 175.028 75.0006 174.314 75.0006 173.045C75.0006 171.788 75.5495 171.062 76.3877 171.062C77.2258 171.062 77.7689 171.788 77.7689 173.045C77.7689 174.314 77.2317 175.028 76.3877 175.028ZM80.4132 176.209H82.1368V172.673C82.1368 171.782 82.6326 171.263 83.4826 171.263C83.7305 171.263 83.9666 171.304 84.1083 171.363V169.846C83.9902 169.811 83.819 169.781 83.6183 169.781C82.8746 169.781 82.3375 170.218 82.1132 171.021H82.0778V169.881H80.4132V176.209ZM84.8166 176.209H86.5401V172.39C86.5401 171.682 86.9828 171.186 87.638 171.186C88.2755 171.186 88.6591 171.587 88.6591 172.266V176.209H90.3178V172.366C90.3178 171.664 90.7487 171.186 91.4038 171.186C92.0708 171.186 92.4368 171.587 92.4368 172.319V176.209H94.1604V171.888C94.1604 170.613 93.3281 169.763 92.0885 169.763C91.1618 169.763 90.4063 170.265 90.123 171.062H90.0876C89.8751 170.236 89.2376 169.763 88.3227 169.763C87.4609 169.763 86.7821 170.265 86.5165 171.027H86.4811V169.881H84.8166V176.209ZM97.1294 176.309C97.9203 176.309 98.7053 175.914 99.0595 175.241H99.0949V176.209H100.759V171.859C100.759 170.584 99.7029 169.746 98.0797 169.746C96.4033 169.746 95.3586 170.59 95.2936 171.817H96.8696C96.9523 171.351 97.3596 171.032 98.0029 171.032C98.6522 171.032 99.0654 171.375 99.0654 171.965V172.384L97.4717 172.479C95.8957 172.573 95.0103 173.24 95.0103 174.391C95.0103 175.53 95.9252 176.309 97.1294 176.309ZM97.696 175.064C97.1116 175.064 96.7221 174.769 96.7221 174.297C96.7221 173.848 97.088 173.559 97.7314 173.512L99.0654 173.429V173.889C99.0654 174.574 98.4456 175.064 97.696 175.064ZM101.875 176.209H103.599V172.579C103.599 171.758 104.088 171.192 104.862 171.192C105.635 171.192 106.025 171.664 106.025 172.49V176.209H107.748V172.13C107.748 170.649 106.957 169.763 105.552 169.763C104.578 169.763 103.911 170.224 103.575 171.009H103.54V169.881H101.875V176.209ZM114.589 172.237C114.512 170.802 113.426 169.746 111.715 169.746C109.82 169.746 108.61 171.009 108.61 173.039C108.61 175.105 109.82 176.345 111.726 176.345C113.391 176.345 114.507 175.383 114.595 173.889H112.99C112.883 174.58 112.435 174.993 111.744 174.993C110.888 174.993 110.357 174.285 110.357 173.039C110.357 171.817 110.888 171.097 111.738 171.097C112.447 171.097 112.889 171.57 112.99 172.237H114.589ZM119.618 174.273C119.459 174.757 118.975 175.07 118.343 175.07C117.464 175.07 116.891 174.45 116.891 173.547V173.441H121.253V172.915C121.253 170.991 120.09 169.746 118.249 169.746C116.378 169.746 115.197 171.056 115.197 173.075C115.197 175.099 116.366 176.345 118.314 176.345C119.878 176.345 121.011 175.512 121.2 174.273H119.618ZM118.266 171.021C119.034 171.021 119.559 171.575 119.595 172.384H116.909C116.968 171.593 117.511 171.021 118.266 171.021ZM127.445 176.345C129.357 176.345 130.579 175.123 130.579 173.039C130.579 170.985 129.34 169.746 127.445 169.746C125.55 169.746 124.311 170.991 124.311 173.039C124.311 175.117 125.533 176.345 127.445 176.345ZM127.445 175.028C126.595 175.028 126.058 174.314 126.058 173.045C126.058 171.788 126.607 171.062 127.445 171.062C128.283 171.062 128.826 171.788 128.826 173.045C128.826 174.314 128.289 175.028 127.445 175.028ZM137.102 169.881H135.301L133.991 174.686H133.956L132.639 169.881H130.792L132.982 176.209H134.929L137.102 169.881ZM141.717 174.273C141.558 174.757 141.074 175.07 140.442 175.07C139.563 175.07 138.99 174.45 138.99 173.547V173.441H143.352V172.915C143.352 170.991 142.19 169.746 140.348 169.746C138.477 169.746 137.296 171.056 137.296 173.075C137.296 175.099 138.465 176.345 140.413 176.345C141.977 176.345 143.11 175.512 143.299 174.273H141.717ZM140.366 171.021C141.133 171.021 141.658 171.575 141.694 172.384H139.008C139.067 171.593 139.61 171.021 140.366 171.021ZM144.244 176.209H145.967V172.673C145.967 171.782 146.463 171.263 147.313 171.263C147.561 171.263 147.797 171.304 147.939 171.363V169.846C147.821 169.811 147.65 169.781 147.449 169.781C146.705 169.781 146.168 170.218 145.944 171.021H145.908V169.881H144.244V176.209ZM151.504 168.423V169.881H150.613V171.18H151.504V174.503C151.504 175.737 152.082 176.233 153.57 176.233C153.918 176.233 154.213 176.203 154.39 176.162V174.893C154.284 174.91 154.125 174.922 153.971 174.922C153.464 174.922 153.227 174.692 153.227 174.208V171.18H154.396V169.881H153.227V168.423H151.504ZM156.226 169.026C156.728 169.026 157.123 168.624 157.123 168.14C157.123 167.65 156.728 167.255 156.226 167.255C155.724 167.255 155.329 167.65 155.329 168.14C155.329 168.624 155.724 169.026 156.226 169.026ZM155.37 176.209H157.094V169.881H155.37V176.209ZM158.245 176.209H159.968V172.39C159.968 171.682 160.411 171.186 161.066 171.186C161.704 171.186 162.087 171.587 162.087 172.266V176.209H163.746V172.366C163.746 171.664 164.177 171.186 164.832 171.186C165.499 171.186 165.865 171.587 165.865 172.319V176.209H167.588V171.888C167.588 170.613 166.756 169.763 165.517 169.763C164.59 169.763 163.834 170.265 163.551 171.062H163.516C163.303 170.236 162.666 169.763 161.751 169.763C160.889 169.763 160.21 170.265 159.945 171.027H159.909V169.881H158.245V176.209ZM172.871 174.273C172.712 174.757 172.228 175.07 171.596 175.07C170.717 175.07 170.144 174.45 170.144 173.547V173.441H174.506V172.915C174.506 170.991 173.343 169.746 171.502 169.746C169.631 169.746 168.45 171.056 168.45 173.075C168.45 175.099 169.619 176.345 171.567 176.345C173.131 176.345 174.264 175.512 174.453 174.273H172.871ZM171.52 171.021C172.287 171.021 172.812 171.575 172.848 172.384H170.162C170.221 171.593 170.764 171.021 171.52 171.021Z" fill="#111111"/>
<rect x="0.5" y="0.500977" width="735" height="573" stroke="#E9E9E9"/>
<defs>
<clipPath id="clip0_851_11120">
<rect width="635.25" height="13.7389" fill="white" transform="translate(50.375 233.592)"/>
</clipPath>
<clipPath id="clip1_851_11120">
<rect width="635.25" height="13.3955" fill="white" transform="translate(50.375 273.434)"/>
</clipPath>
<clipPath id="clip2_851_11120">
<rect width="635.25" height="13.7389" fill="white" transform="translate(50.375 312.59)"/>
</clipPath>
<clipPath id="clip3_851_11120">
<rect width="635.25" height="13.3955" fill="white" transform="translate(50.375 352.432)"/>
</clipPath>
<clipPath id="clip4_851_11120">
<rect width="614.045" height="8.46194" fill="white" transform="translate(71.5801 400.33)"/>
</clipPath>
<clipPath id="clip5_851_11120">
<rect width="109" height="42.3097" fill="white" transform="translate(50.375 194.223)"/>
</clipPath>
<clipPath id="clip6_851_11120">
<rect width="125" height="42.3097" fill="white" transform="translate(560.51 194.223)"/>
</clipPath>
</defs>
</svg>
