<svg fill="none" preserveAspectRatio="xMinYMin meet" viewBox="0 0 736 286"><path fill="var(--color-background-default)" d="M72.5 40h375v206h-375z"/><g clip-path="url(#a1)"><g clip-path="url(#b1)"><path fill="var(--color-text-subtle)" d="M95.796 173.199c1.728 0 2.906-1.195 2.906-2.935 0-1.676-1.172-2.789-2.59-2.789-.844 0-1.47.257-1.88.767h-.095l.264-2.754h3.867v-.943h-4.693l-.487 4.834h.99c.335-.627.968-.996 1.77-.996 1.067 0 1.8.767 1.8 1.91 0 1.184-.733 1.98-1.84 1.98-.997 0-1.723-.603-1.817-1.505h-1.037c.094 1.447 1.242 2.431 2.842 2.431Zm7.459 0c1.898 0 2.988-1.605 2.988-4.412 0-2.801-1.108-4.441-2.988-4.441-1.893 0-3 1.634-3 4.424 0 2.812 1.095 4.429 3 4.429Zm0-.92c-1.248 0-1.94-1.248-1.94-3.509 0-2.233.703-3.499 1.94-3.499 1.236 0 1.927 1.254 1.927 3.499 0 2.267-.679 3.509-1.927 3.509Zm5.882-2.836h-.093v-5.267h-1.008V173h1.008v-2.396l.603-.563 2.367 2.959h1.284l-2.901-3.609 2.719-2.707h-1.236l-2.743 2.759ZM93.083 201.93h1.02c0-1.002.673-1.664 1.687-1.664.996 0 1.6.668 1.6 1.564 0 .744-.317 1.184-1.395 2.35l-2.86 3.093V208h5.473v-.949H94.6v-.094l1.922-1.986c1.524-1.576 1.945-2.28 1.945-3.252 0-1.371-1.13-2.373-2.607-2.373-1.617 0-2.777 1.078-2.777 2.584Zm10.119 6.269c1.728 0 2.906-1.195 2.906-2.935 0-1.676-1.172-2.789-2.59-2.789-.844 0-1.47.257-1.881.767h-.093l.263-2.754h3.867v-.943h-4.693l-.486 4.834h.99c.334-.627.967-.996 1.77-.996 1.066 0 1.798.767 1.798 1.91 0 1.184-.732 1.98-1.839 1.98-.997 0-1.723-.603-1.817-1.505h-1.037c.094 1.447 1.242 2.431 2.842 2.431Zm5.783-3.756h-.094v-5.267h-1.008V208h1.008v-2.396l.604-.563 2.367 2.959h1.283l-2.9-3.609 2.719-2.707h-1.237l-2.742 2.759Z"/><path fill="#EFEFEF" d="M122.188 175H431.5v1H122.188zM122.188 210H431.5v1H122.188z"/></g><g clip-path="url(#c1)"><path fill="var(--color-text-subtle)" d="M94.262 138h1.107l3.762-7.477v-.978h-5.596v.943h4.524v.082L94.262 138Zm9.187.199c1.729 0 2.906-1.195 2.906-2.935 0-1.676-1.171-2.789-2.589-2.789-.844 0-1.471.257-1.881.767h-.094l.264-2.754h3.867v-.943h-4.693l-.487 4.834h.99c.334-.627.967-.996 1.77-.996 1.066 0 1.799.767 1.799 1.91 0 1.184-.733 1.98-1.84 1.98-.996 0-1.723-.603-1.816-1.505h-1.038c.094 1.447 1.243 2.431 2.842 2.431Zm5.783-3.756h-.093v-5.267h-1.008V138h1.008v-2.396l.603-.563 2.367 2.959h1.284l-2.901-3.609 2.719-2.707h-1.236l-2.743 2.759Z"/><path fill="#EFEFEF" d="M122.188 140H431.5v1H122.188z"/></g><g clip-path="url(#d1)"><path fill="var(--color-text-subtle)" d="M91.118 104h1.055v-8.455h-1.05l-2.25 1.617v1.113l2.151-1.558h.094V104Zm6.422.199c1.898 0 2.988-1.605 2.988-4.412 0-2.8-1.107-4.441-2.988-4.441-1.893 0-3 1.635-3 4.423 0 2.813 1.095 4.43 3 4.43Zm0-.92c-1.248 0-1.94-1.248-1.94-3.51 0-2.232.703-3.498 1.94-3.498 1.236 0 1.927 1.254 1.927 3.498 0 2.268-.68 3.51-1.927 3.51Zm7.558.92c1.899 0 2.989-1.605 2.989-4.412 0-2.8-1.108-4.441-2.989-4.441-1.892 0-3 1.635-3 4.423 0 2.813 1.096 4.43 3 4.43Zm0-.92c-1.248 0-1.939-1.248-1.939-3.51 0-2.232.703-3.498 1.939-3.498 1.237 0 1.928 1.254 1.928 3.498 0 2.268-.68 3.51-1.928 3.51Zm5.883-2.836h-.094v-5.267h-1.007V104h1.007v-2.396l.604-.563 2.367 2.959h1.283l-2.9-3.609 2.719-2.707h-1.237l-2.742 2.759Z"/><path fill="#EFEFEF" d="M122.188 107H431.5v1H122.188z"/></g><g clip-path="url(#e1)"><path fill="#EFEFEF" d="M122.188 73H431.5v1H122.188z"/><path fill="var(--color-text-subtle)" d="M91.846 71H92.9v-8.455h-1.048l-2.25 1.617v1.113l2.15-1.558h.094V71Zm3.527-6.07h1.02c0-1.002.673-1.664 1.687-1.664.996 0 1.6.668 1.6 1.564 0 .744-.317 1.184-1.395 2.35l-2.86 3.093V71h5.473v-.95h-4.007v-.093l1.921-1.986c1.524-1.577 1.946-2.28 1.946-3.252 0-1.371-1.131-2.373-2.608-2.373-1.617 0-2.777 1.078-2.777 2.584Zm10.119 6.27c1.729 0 2.906-1.196 2.906-2.936 0-1.676-1.171-2.79-2.589-2.79-.844 0-1.471.258-1.881.768h-.094l.264-2.754h3.867v-.943h-4.694l-.486 4.834h.99c.334-.627.967-.996 1.77-.996 1.066 0 1.799.767 1.799 1.91 0 1.184-.733 1.98-1.84 1.98-.996 0-1.723-.603-1.816-1.505h-1.038c.094 1.447 1.243 2.431 2.842 2.431Zm5.783-3.757h-.093v-5.267h-1.008V71h1.008v-2.397l.603-.562L114.152 71h1.284l-2.901-3.61 2.719-2.706h-1.236l-2.743 2.76Z"/></g><path stroke="var(--color-data-visualization-primary)" stroke-dasharray="4 8" stroke-linecap="round" stroke-linejoin="round" stroke-width="3" d="m405.5 105-19 31" opacity=".3"/><path fill="var(--color-text-subtle)" d="M129.238 225.025c0 1.295.996 2.174 2.414 2.174 1.53 0 2.461-.943 2.461-2.554v-6.1h-1.054v6.094c0 1.037-.51 1.588-1.413 1.588-.796 0-1.335-.493-1.359-1.202h-1.049Zm12.012-4.341h-1.008v3.738c0 1.107-.609 1.769-1.722 1.769-1.008 0-1.43-.527-1.43-1.664v-3.843h-1.008v4.089c0 1.495.738 2.338 2.156 2.338.967 0 1.641-.398 1.957-1.101h.094v.99h.961v-6.316Zm1.957 6.316h1.008v-8.824h-1.008V227Zm6.697 0h1.108l3.761-7.477v-.978h-5.595v.943h4.523v.082l-3.797 7.43ZM183.311 225.025c0 1.295.996 2.174 2.414 2.174 1.53 0 2.461-.943 2.461-2.554v-6.1h-1.054v6.094c0 1.037-.51 1.588-1.413 1.588-.796 0-1.336-.493-1.359-1.202h-1.049Zm12.012-4.341h-1.008v3.738c0 1.107-.609 1.769-1.723 1.769-1.007 0-1.429-.527-1.429-1.664v-3.843h-1.008v4.089c0 1.495.738 2.338 2.156 2.338.967 0 1.641-.398 1.957-1.101h.094v.99h.961v-6.316ZM197.28 227h1.008v-8.824h-1.008V227Zm8.367 0h1.055v-8.455h-1.049l-2.25 1.617v1.113l2.15-1.558h.094V227Zm6.393.199c1.728 0 2.906-1.195 2.906-2.935 0-1.676-1.172-2.789-2.59-2.789-.844 0-1.471.257-1.881.767h-.093l.263-2.754h3.867v-.943h-4.693l-.486 4.834h.99c.334-.627.967-.996 1.769-.996 1.067 0 1.799.767 1.799 1.91 0 1.184-.732 1.98-1.84 1.98-.996 0-1.722-.603-1.816-1.505h-1.037c.094 1.447 1.242 2.431 2.842 2.431ZM255.427 225.025c0 1.295.996 2.174 2.414 2.174 1.529 0 2.461-.943 2.461-2.554v-6.1h-1.055v6.094c0 1.037-.509 1.588-1.412 1.588-.797 0-1.336-.493-1.359-1.202h-1.049Zm12.012-4.341h-1.008v3.738c0 1.107-.609 1.769-1.723 1.769-1.007 0-1.429-.527-1.429-1.664v-3.843h-1.008v4.089c0 1.495.738 2.338 2.156 2.338.967 0 1.641-.398 1.957-1.101h.094v.99h.961v-6.316Zm1.957 6.316h1.008v-8.824h-1.008V227Zm6.293-6.07h1.019c0-1.002.674-1.664 1.688-1.664.996 0 1.599.668 1.599 1.564 0 .744-.316 1.184-1.394 2.35l-2.859 3.093V227h5.472v-.949h-4.008v-.094l1.922-1.986c1.524-1.576 1.946-2.28 1.946-3.252 0-1.371-1.131-2.373-2.608-2.373-1.617 0-2.777 1.078-2.777 2.584Zm9.082 2.174h1.049c1.189 0 1.922.609 1.922 1.587 0 .95-.791 1.588-1.905 1.588-1.09 0-1.851-.568-1.945-1.459h-1.02c.077 1.436 1.26 2.379 2.977 2.379 1.682 0 2.977-1.06 2.977-2.478 0-1.178-.727-1.922-1.823-2.098v-.094c.867-.252 1.5-.925 1.506-1.945.006-1.184-.955-2.238-2.625-2.238-1.711 0-2.76 1.013-2.865 2.39h1.025c.088-.949.75-1.47 1.77-1.47 1.019 0 1.623.644 1.623 1.435 0 .879-.692 1.5-1.664 1.5h-1.002v.903ZM329.243 225.025c0 1.295.996 2.174 2.414 2.174 1.529 0 2.461-.943 2.461-2.554v-6.1h-1.055v6.094c0 1.037-.51 1.588-1.412 1.588-.797 0-1.336-.493-1.359-1.202h-1.049Zm12.012-4.341h-1.008v3.738c0 1.107-.61 1.769-1.723 1.769-1.008 0-1.43-.527-1.43-1.664v-3.843h-1.007v4.089c0 1.495.738 2.338 2.156 2.338.967 0 1.64-.398 1.957-1.101h.094v.99h.961v-6.316Zm1.957 6.316h1.007v-8.824h-1.007V227Zm8.121-3.896h1.049c1.189 0 1.921.609 1.921 1.587 0 .95-.791 1.588-1.904 1.588-1.09 0-1.851-.568-1.945-1.459h-1.02c.076 1.436 1.26 2.379 2.977 2.379 1.681 0 2.976-1.06 2.976-2.478 0-1.178-.726-1.922-1.822-2.098v-.094c.867-.252 1.5-.925 1.506-1.945.006-1.184-.955-2.238-2.625-2.238-1.711 0-2.76 1.013-2.865 2.39h1.025c.088-.949.75-1.47 1.77-1.47 1.019 0 1.623.644 1.623 1.435 0 .879-.692 1.5-1.664 1.5h-1.002v.903Zm7.769 3.896h1.055v-8.455h-1.049l-2.25 1.617v1.113l2.15-1.558h.094V227ZM395.934 227h1.107l-3.117-8.455h-1.043L389.764 227h1.107l.85-2.42h3.363l.85 2.42Zm-2.579-7.09h.094l1.324 3.774h-2.742l1.324-3.774Zm9.856.774h-1.008v3.738c0 1.107-.609 1.769-1.723 1.769-1.007 0-1.429-.527-1.429-1.664v-3.843h-1.008v4.089c0 1.495.738 2.338 2.156 2.338.967 0 1.641-.398 1.957-1.101h.094v.99h.961v-6.316Zm4.5 8.742c1.723 0 2.812-.903 2.812-2.315v-6.427h-.961v1.002h-.093c-.364-.68-1.143-1.114-2.028-1.114-1.623 0-2.648 1.283-2.648 3.176 0 1.893 1.014 3.158 2.648 3.158.868 0 1.582-.392 1.981-1.09h.094v1.243c0 .931-.674 1.488-1.805 1.488-.908 0-1.471-.334-1.582-.85h-1.067c.153 1.043 1.126 1.729 2.649 1.729Zm-.047-3.41c-1.172 0-1.828-.891-1.828-2.268 0-1.377.656-2.268 1.828-2.268 1.166 0 1.875.891 1.875 2.268 0 1.377-.703 2.268-1.875 2.268Zm8.49.984h1.108l3.761-7.477v-.978h-5.595v.943h4.523v.082l-3.797 7.43Z"/></g><path stroke="var(--color-data-visualization-primary)" stroke-linecap="round" stroke-linejoin="round" stroke-width="3" d="M384.542 140.618 374.9 190.98l-8.923 3.439-9.498-28.988-8.49 25.549-18.133-20.636L319.639 204l-9.21-38.569-9.211 32.182L283.23 119l-18.564 62.645-9.211-4.422-8.634 4.422-10.218-11.301-8.634 16.705-9.498-46.431-10.074 14.003-8.778 39.798-9.786-7.37h-8.347l-9.354-28.988-10.073 12.283h-8.347l-9.066 13.757L128 178.5"/><circle cx="405.5" cy="105" r="5" fill="var(--color-data-visualization-primary)"/><path fill="var(--color-text-default)" d="M513.797 117.918h1.189c0-1.169.786-1.941 1.969-1.941 1.162 0 1.866.779 1.866 1.825 0 .868-.369 1.381-1.627 2.741l-3.336 3.609V125h6.385v-1.107h-4.676v-.11l2.243-2.317c1.777-1.839 2.269-2.659 2.269-3.794 0-1.6-1.319-2.769-3.042-2.769-1.887 0-3.24 1.258-3.24 3.015Zm11.676 7.308c2.413 0 3.794-1.942 3.794-5.332 0-3.357-1.586-4.991-3.712-4.991-2.024 0-3.459 1.415-3.459 3.398 0 1.914 1.36 3.302 3.24 3.302 1.176 0 2.14-.561 2.625-1.518h.109c-.068 2.625-.977 4.047-2.584 4.047-.97 0-1.722-.54-1.982-1.429h-1.265c.308 1.552 1.559 2.523 3.234 2.523Zm.082-4.69c-1.306 0-2.215-.93-2.215-2.276 0-1.292.964-2.277 2.228-2.277 1.265 0 2.229.998 2.229 2.318 0 1.305-.937 2.235-2.242 2.235Zm6.125 4.532a.89.89 0 0 0 .888-.888.887.887 0 0 0-.888-.889.892.892 0 0 0-.889.889c0 .485.403.888.889.888Zm3.589-.068h1.292l4.388-8.723v-1.141h-6.528v1.1h5.277v.096L535.269 125Zm9.057-5.4c1.333 0 2.14-.869 2.14-2.325 0-1.435-.814-2.317-2.14-2.317s-2.146.882-2.146 2.317c0 1.45.806 2.325 2.146 2.325Zm.445 5.4 6.815-9.864h-1.114L543.656 125h1.115Zm-.445-6.296c-.69 0-1.087-.519-1.087-1.422 0-.895.397-1.422 1.087-1.422.684 0 1.08.527 1.08 1.422 0 .896-.389 1.422-1.08 1.422Zm6.597 6.392c1.333 0 2.139-.868 2.139-2.325 0-1.435-.813-2.317-2.139-2.317-1.326 0-2.147.882-2.147 2.317 0 1.45.814 2.325 2.147 2.325Zm0-.896c-.691 0-1.08-.519-1.08-1.422 0-.895.389-1.422 1.08-1.422.69 0 1.08.527 1.08 1.422 0 .896-.39 1.422-1.08 1.422Z"/><rect width="100" height="36" x="563.5" y="103" fill="#E9E9E9" rx="4"/><rect width="30" height="36" x="563.5" y="103" fill="var(--color-data-visualization-primary)" rx="4"/><path fill="var(--color-text-default)" d="M516.647 169.232c2.017 0 3.391-1.394 3.391-3.424 0-1.955-1.367-3.254-3.021-3.254-.985 0-1.716.3-2.195.895h-.109l.308-3.213h4.511v-1.1h-5.475l-.568 5.639h1.156c.389-.731 1.127-1.162 2.064-1.162 1.244 0 2.099.896 2.099 2.229 0 1.381-.855 2.31-2.147 2.31-1.162 0-2.01-.704-2.119-1.756h-1.21c.109 1.688 1.449 2.836 3.315 2.836Zm8.757 0c2.092 0 3.555-1.182 3.555-2.871 0-1.285-.813-2.283-2.051-2.515v-.11c1.019-.28 1.648-1.121 1.648-2.201 0-1.538-1.306-2.632-3.152-2.632-1.845 0-3.151 1.094-3.151 2.632 0 1.073.643 1.928 1.647 2.201v.11c-1.237.232-2.05 1.23-2.05 2.515 0 1.689 1.462 2.871 3.554 2.871Zm0-5.906c-1.162 0-1.941-.67-1.941-1.675 0-1.018.772-1.695 1.941-1.695s1.942.677 1.942 1.695c0 1.005-.78 1.675-1.942 1.675Zm0 4.854c-1.367 0-2.31-.78-2.31-1.908 0-1.127.943-1.907 2.31-1.907s2.311.78 2.311 1.907c0 1.128-.944 1.908-2.311 1.908Zm6.071.888a.89.89 0 0 0 .888-.888.887.887 0 0 0-.888-.889.892.892 0 0 0-.889.889c0 .485.403.888.889.888Zm2.843-7.15h1.19c0-1.169.786-1.941 1.969-1.941 1.162 0 1.866.779 1.866 1.825 0 .868-.369 1.381-1.627 2.741l-3.336 3.609V169h6.385v-1.107h-4.676v-.11l2.242-2.317c1.777-1.839 2.27-2.659 2.27-3.794 0-1.6-1.32-2.769-3.042-2.769-1.887 0-3.241 1.258-3.241 3.015Zm10.008 1.682c1.333 0 2.14-.869 2.14-2.325 0-1.435-.814-2.317-2.14-2.317s-2.146.882-2.146 2.317c0 1.45.806 2.325 2.146 2.325Zm.445 5.4 6.815-9.864h-1.114L543.656 169h1.115Zm-.445-6.296c-.69 0-1.087-.519-1.087-1.422 0-.895.397-1.422 1.087-1.422.684 0 1.08.527 1.08 1.422 0 .896-.389 1.422-1.08 1.422Zm6.597 6.392c1.333 0 2.139-.868 2.139-2.325 0-1.435-.813-2.317-2.139-2.317-1.326 0-2.147.882-2.147 2.317 0 1.45.814 2.325 2.147 2.325Zm0-.896c-.691 0-1.08-.519-1.08-1.422 0-.895.389-1.422 1.08-1.422.69 0 1.08.527 1.08 1.422 0 .896-.39 1.422-1.08 1.422Z"/><rect width="100" height="36" x="563.5" y="147" fill="#E9E9E9" rx="4"/><rect width="58" height="36" x="563.5" y="147" fill="var(--color-data-visualization-primary)" rx="4"/><path stroke="#E9E9E9" d="M.5.5h735v285H.5z"/><defs><clipPath id="a1"><path fill="var(--color-background-default)" d="M0 0h343v174H0z" transform="translate(88.5 56)"/></clipPath><clipPath id="b1"><path fill="var(--color-background-default)" d="M0 0h343v53H0z" transform="translate(88.5 158)"/></clipPath><clipPath id="c1"><path fill="var(--color-background-default)" d="M0 0h343v17H0z" transform="translate(88.5 124)"/></clipPath><clipPath id="d1"><path fill="var(--color-background-default)" d="M0 0h343v18H0z" transform="translate(88.5 90)"/></clipPath><clipPath id="e1"><path fill="var(--color-background-default)" d="M0 0h343v18H0z" transform="translate(88.5 56)"/></clipPath></defs></svg>
