<svg xmlns="http://www.w3.org/2000/svg" fill="none" viewBox="0 0 736 262"><path fill="var(--color-text-default)" d="M179.258 74.636V84.5h1.23v-3.52h2.482c1.852 0 3.172-1.306 3.172-3.152 0-1.88-1.292-3.192-3.159-3.192h-3.725Zm1.23 1.094h2.174c1.429 0 2.215.745 2.215 2.098 0 1.306-.814 2.058-2.215 2.058h-2.174V75.73Zm8.135-.021c.451 0 .82-.37.82-.82a.823.823 0 0 0-.82-.82c-.451 0-.82.368-.82.82 0 .45.369.82.82.82Zm-.588 8.791h1.176v-7.37h-1.176v7.37Zm3.418 0h1.176v-4.361c0-1.292.759-2.078 1.934-2.078 1.176 0 1.737.628 1.737 1.955V84.5h1.176v-4.772c0-1.75-.923-2.727-2.578-2.727-1.127 0-1.845.478-2.214 1.292h-.11v-1.162h-1.121V84.5Zm18.225-5.113c-.205-1.313-1.299-2.386-3.09-2.386-2.065 0-3.377 1.49-3.377 3.787 0 2.345 1.319 3.842 3.384 3.842 1.77 0 2.871-.998 3.083-2.352h-1.19c-.218.834-.909 1.292-1.9 1.292-1.313 0-2.16-1.08-2.16-2.782 0-1.668.834-2.727 2.16-2.727 1.059 0 1.709.594 1.9 1.326h1.19Zm1.804 5.113h1.176V74.205h-1.176V84.5Zm4.075-8.791c.451 0 .82-.37.82-.82a.823.823 0 0 0-.82-.82.823.823 0 0 0-.821.82c0 .45.369.82.821.82Zm-.588 8.791h1.176v-7.37h-1.176v7.37Zm9.515-5.113c-.205-1.313-1.298-2.386-3.089-2.386-2.065 0-3.377 1.49-3.377 3.787 0 2.345 1.319 3.842 3.383 3.842 1.771 0 2.871-.998 3.083-2.352h-1.189c-.219.834-.909 1.292-1.9 1.292-1.313 0-2.161-1.08-2.161-2.782 0-1.668.834-2.727 2.161-2.727 1.059 0 1.709.594 1.9 1.326h1.189Zm3.09.964h-.109v-6.146h-1.176V84.5h1.176v-2.796l.704-.656 2.762 3.452h1.497l-3.384-4.21 3.172-3.16h-1.443l-3.199 3.22Zm5.804-1.204c0 1.067.629 1.662 2.01 1.997l1.264.307c.786.192 1.169.533 1.169 1.04 0 .676-.711 1.148-1.702 1.148-.943 0-1.531-.397-1.729-1.019h-1.21c.13 1.224 1.258 2.01 2.898 2.01 1.675 0 2.953-.91 2.953-2.229 0-1.06-.67-1.66-2.057-1.996l-1.135-.273c-.868-.212-1.278-.526-1.278-1.032 0-.657.683-1.101 1.558-1.101.889 0 1.463.39 1.62.978h1.162c-.157-1.21-1.23-1.976-2.775-1.976-1.565 0-2.748.923-2.748 2.146Z"/><path fill="var(--color-text-icon-subtle)" fill-rule="evenodd" d="M256 78a1 1 0 1 1-.001-1.999A1 1 0 0 1 256 78Zm1 5a1 1 0 1 1-2 0v-3.333a1 1 0 1 1 2 0V83Zm-1-11a8 8 0 1 0 0 16 8 8 0 0 0 0-16Z" clip-rule="evenodd"/><path fill="var(--color-text-default)" d="M182.521 115.5h2.92v-14.092h-2.929l-3.643 2.53v2.617l3.594-2.442h.058V115.5Zm11.612.312c3.359 0 5.713-1.679 5.713-4.121 0-1.855-1.358-3.222-3.282-3.603v-.059c1.651-.41 2.764-1.621 2.764-3.134 0-2.207-2.139-3.799-5.195-3.799-3.057 0-5.205 1.601-5.205 3.789 0 1.533 1.123 2.744 2.783 3.144v.059c-1.924.371-3.291 1.738-3.291 3.594 0 2.441 2.344 4.13 5.713 4.13Zm0-8.671c-1.338 0-2.285-.801-2.285-1.953 0-1.163.947-1.963 2.285-1.963 1.328 0 2.285.8 2.285 1.963 0 1.152-.957 1.953-2.285 1.953Zm0 6.523c-1.553 0-2.637-.918-2.637-2.197 0-1.26 1.084-2.178 2.637-2.178s2.627.908 2.627 2.178c0 1.279-1.074 2.197-2.627 2.197Zm9.15 1.953c.869 0 1.572-.703 1.572-1.572 0-.879-.703-1.572-1.572-1.572-.879 0-1.572.693-1.572 1.572 0 .869.693 1.572 1.572 1.572Zm3.613-9.922h2.735c0-1.357 1.064-2.304 2.471-2.304 1.269 0 2.138.859 2.138 1.992 0 .976-.4 1.65-2.187 3.369l-4.991 4.727v2.021h10.245v-2.344h-6.387v-.058l2.959-2.832c2.383-2.276 3.232-3.34 3.232-5.069 0-2.343-1.992-4.101-5.009-4.101-3.057 0-5.206 1.884-5.206 4.599Zm15.762 9.805h2.92v-14.092h-2.93l-3.642 2.53v2.617l3.594-2.442h.058V115.5Zm8.975-6.27h-.039v-7.822h-2.852V115.5h2.852v-3.457l.742-.801 2.998 4.258h3.281l-4.189-5.977 3.994-4.492h-3.232l-3.555 4.199Z"/><path fill="var(--color-data-visualization-success-text)" fill-rule="evenodd" d="M258.057 105.61a1.333 1.333 0 1 0 1.885 1.886l1.724-1.724V114a1.333 1.333 0 1 0 2.667 0v-8.228l1.724 1.724a1.334 1.334 0 0 0 1.885-1.886l-4.943-4.943-4.942 4.943Z" clip-rule="evenodd"/><path fill="var(--color-data-visualization-success-text)" d="M280.605 113h1.969v-1.812h1.292v-1.654h-1.292v-6.398h-2.891a112.535 112.535 0 0 0-3.904 6.432v1.62h4.826V113Zm-2.973-3.521a85.272 85.272 0 0 1 2.912-4.778h.109v4.888h-3.021v-.11Zm9.727-1.743c1.477 0 2.345-.882 2.345-2.399 0-1.483-.889-2.393-2.345-2.393-1.449 0-2.344.916-2.344 2.393 0 1.511.868 2.399 2.344 2.399Zm1.012 5.264 6.556-9.864h-1.579L286.792 113h1.579Zm-1.012-6.453c-.499 0-.786-.438-.786-1.203 0-.745.294-1.203.786-1.203.486 0 .78.458.78 1.203 0 .759-.281 1.203-.78 1.203Zm7 6.562c1.477 0 2.345-.881 2.345-2.399 0-1.483-.889-2.393-2.345-2.393-1.449 0-2.344.916-2.344 2.393 0 1.511.875 2.399 2.344 2.399Zm0-1.189c-.499 0-.779-.438-.779-1.203 0-.745.287-1.203.779-1.203.493 0 .787.458.787 1.203 0 .759-.288 1.203-.787 1.203Z"/><path stroke="var(--color-data-visualization-success-graph)" stroke-linecap="round" stroke-linejoin="round" stroke-width="3" d="m318 177.203-9.435-4.603-8.845 4.603-10.467-11.762-8.845 17.388-9.73-48.329-10.319 14.575-8.993 41.425-10.024-7.671h-8.551l-9.582-30.174-10.319 12.786h-8.551l-9.287 14.319L178 173.93"/><path fill="var(--color-text-default)" d="M418.786 81.923c.13 1.702 1.572 2.81 3.664 2.81 2.256 0 3.685-1.156 3.685-2.967 0-1.45-.821-2.243-2.864-2.755l-1.033-.274c-1.36-.348-1.9-.793-1.9-1.565 0-.998.868-1.654 2.181-1.654 1.23 0 2.064.601 2.235 1.613h1.237c-.102-1.593-1.524-2.728-3.431-2.728-2.085 0-3.487 1.135-3.487 2.81 0 1.401.773 2.208 2.557 2.66l1.265.327c1.36.342 1.975.875 1.975 1.716 0 .978-.977 1.695-2.304 1.695-1.401 0-2.385-.656-2.536-1.688h-1.244Zm11.3 2.707c.984 0 1.791-.43 2.269-1.217h.11V84.5h1.121v-5.045c0-1.531-1.005-2.454-2.803-2.454-1.572 0-2.734.78-2.891 1.962h1.189c.164-.581.779-.916 1.661-.916 1.101 0 1.668.499 1.668 1.408v.67l-2.126.13c-1.716.102-2.686.861-2.686 2.18 0 1.347 1.059 2.195 2.488 2.195Zm.219-1.032c-.855 0-1.491-.438-1.491-1.19 0-.738.493-1.128 1.614-1.203l1.982-.13v.677c0 1.053-.895 1.846-2.105 1.846Zm11.197-6.467h-1.258l-2.016 6.07h-.11l-2.016-6.07h-1.258l2.727 7.369h1.203l2.728-7.37Zm6.18 5.462c-.308.65-.951.998-1.901.998-1.251 0-2.064-.923-2.126-2.38v-.054h5.298v-.45c0-2.291-1.21-3.706-3.199-3.706-2.024 0-3.322 1.504-3.322 3.821 0 2.331 1.278 3.808 3.322 3.808 1.613 0 2.762-.78 3.103-2.037h-1.175Zm-1.942-4.553c1.169 0 1.948.861 1.976 2.167h-4.061c.089-1.306.909-2.167 2.085-2.167Zm4.888 1.107c0 1.067.629 1.662 2.01 1.997l1.264.307c.786.192 1.169.533 1.169 1.04 0 .676-.711 1.148-1.702 1.148-.943 0-1.531-.397-1.729-1.019h-1.21c.13 1.224 1.258 2.01 2.898 2.01 1.675 0 2.953-.91 2.953-2.229 0-1.06-.67-1.66-2.057-1.996l-1.135-.273c-.868-.212-1.278-.526-1.278-1.032 0-.657.683-1.101 1.558-1.101.889 0 1.463.39 1.62.978h1.162c-.157-1.21-1.23-1.976-2.775-1.976-1.565 0-2.748.923-2.748 2.146Z"/><path fill="var(--color-text-icon-subtle)" fill-rule="evenodd" d="M474 78a1 1 0 1 1-.001-1.999A1 1 0 0 1 474 78Zm1 5a1 1 0 1 1-2 0v-3.333a1 1 0 1 1 2 0V83Zm-1-11a8 8 0 1 0 0 16 8 8 0 0 0 0-16Z" clip-rule="evenodd"/><path fill="var(--color-text-default)" d="M424.68 115.812c3.144 0 5.429-2.08 5.429-5 0-2.646-1.865-4.589-4.589-4.589-1.905 0-3.291.957-3.838 2.265h-.059c-.01-3.086 1.006-5.068 3.057-5.068 1.162 0 2.002.586 2.334 1.592h2.91c-.391-2.324-2.5-3.926-5.235-3.926-3.662 0-5.888 2.812-5.888 7.48 0 4.864 2.51 7.246 5.879 7.246Zm-.039-2.343c-1.446 0-2.579-1.133-2.579-2.588 0-1.436 1.114-2.481 2.608-2.481 1.475 0 2.568 1.055 2.568 2.539-.009 1.416-1.152 2.53-2.597 2.53Zm10.634-4.17h1.612c1.709 0 2.715.762 2.705 2.129 0 1.191-1.016 2.011-2.49 2.011-1.553 0-2.569-.781-2.666-1.933h-2.813c.127 2.588 2.295 4.306 5.479 4.306 3.271 0 5.488-1.699 5.488-4.257 0-1.934-1.367-3.174-3.457-3.369v-.059c1.66-.342 2.939-1.504 2.939-3.301 0-2.256-2.011-3.73-4.99-3.73-2.949 0-5 1.65-5.146 4.228h2.705c.088-1.22 1.054-1.963 2.441-1.963 1.406 0 2.197.733 2.197 1.885 0 1.152-.957 1.953-2.431 1.953h-1.573v2.1Zm14.698 6.513c3.574 0 5.742-2.841 5.742-7.392s-2.188-7.334-5.742-7.334c-3.555 0-5.752 2.793-5.752 7.344 0 4.56 2.177 7.382 5.752 7.382Zm0-2.363c-1.739 0-2.754-1.787-2.754-5.019 0-3.203 1.035-4.981 2.754-4.981 1.728 0 2.744 1.768 2.744 4.981 0 3.232-1.006 5.019-2.744 5.019Z"/><path fill="var(--color-data-visualization-error)" fill-rule="evenodd" d="M476.057 110.39a1.332 1.332 0 1 1 1.885-1.885l1.724 1.724V102a1.333 1.333 0 0 1 2.667 0v8.229l1.724-1.724a1.332 1.332 0 1 1 1.885 1.885l-4.943 4.944-4.942-4.944Z" clip-rule="evenodd"/><path fill="var(--color-data-visualization-error)" d="M493.882 106.13h1.914c0-.964.629-1.641 1.634-1.641.964 0 1.524.643 1.524 1.449 0 .684-.266 1.135-1.497 2.332l-3.459 3.342V113h7.116v-1.661h-4.334v-.123l2.051-1.955c1.641-1.559 2.147-2.352 2.147-3.507 0-1.661-1.34-2.871-3.432-2.871-2.16 0-3.664 1.326-3.664 3.247Zm10.848 1.606c1.477 0 2.345-.882 2.345-2.399 0-1.483-.888-2.393-2.345-2.393-1.449 0-2.344.916-2.344 2.393 0 1.511.868 2.399 2.344 2.399Zm1.012 5.264 6.556-9.864h-1.579L504.163 113h1.579Zm-1.012-6.453c-.499 0-.786-.438-.786-1.203 0-.745.294-1.203.786-1.203.486 0 .78.458.78 1.203 0 .759-.281 1.203-.78 1.203Zm7 6.562c1.477 0 2.345-.881 2.345-2.399 0-1.483-.888-2.393-2.345-2.393-1.449 0-2.344.916-2.344 2.393 0 1.511.875 2.399 2.344 2.399Zm0-1.189c-.499 0-.779-.438-.779-1.203 0-.745.287-1.203.779-1.203.493 0 .787.458.787 1.203 0 .759-.288 1.203-.787 1.203Z"/><path stroke="var(--color-data-visualization-error)" stroke-linecap="round" stroke-linejoin="round" stroke-width="3" d="m418 177.203 9.435-4.603 8.845 4.603 10.467-11.762 8.845 17.388 9.73-48.329 10.319 14.575 8.993 41.425 10.024-7.671h8.551l9.582-30.174 10.319 12.786h8.551l9.287 14.319L558 173.93"/><path stroke="#E9E9E9" d="M.5.5h735v261H.5z"/></svg>
