<svg xmlns="http://www.w3.org/2000/svg" fill="none" viewBox="0 0 736 509"><path stroke="#EFEFEF" stroke-width=".605" d="M304.802 40.322v211.667M431.802 40.322v211.667M177.802 40.322v211.667"/><path fill="#111" d="M314.548 54.711c1.233 0 2.133-.747 2.222-1.839h-1.042c-.103.563-.563.925-1.176.925-.808 0-1.308-.68-1.308-1.775 0-1.095.5-1.776 1.304-1.776.61 0 1.074.39 1.177.982h1.041c-.078-1.099-1.006-1.892-2.218-1.892-1.485 0-2.399 1.024-2.399 2.686s.918 2.69 2.399 2.69Zm3.14-.13h1.031v-2.248c0-.517.298-.868.815-.868.468 0 .719.284.719.837v2.278h1.031v-2.512c0-.936-.499-1.464-1.339-1.464-.574 0-.999.27-1.18.712h-.064v-2.13h-1.013v5.394Zm7.126-1.103c-.11.266-.39.415-.798.415-.538 0-.878-.372-.893-.968v-.053h2.683v-.308c0-1.233-.68-1.97-1.832-1.97-1.162 0-1.878.786-1.878 2.055 0 1.261.701 2.013 1.892 2.013.957 0 1.634-.457 1.786-1.184h-.96Zm-.837-2.115c.482 0 .794.333.815.868h-1.665c.035-.525.372-.868.85-.868Zm6.134.676c-.085-.871-.705-1.445-1.74-1.445-1.222 0-1.91.74-1.91 2.026 0 1.301.691 2.042 1.91 2.042 1.017 0 1.655-.56 1.74-1.418h-.964c-.077.39-.354.599-.776.599-.552 0-.868-.436-.868-1.223 0-.776.312-1.204.868-1.204.44 0 .706.248.776.623h.964Zm1.939.181h-.064v-3.033h-1.031v5.393h1.031V53.27l.283-.294 1.141 1.605h1.223l-1.591-2.229 1.488-1.672h-1.173l-1.307 1.541Zm4.734 2.442c1.201 0 1.924-.759 1.924-2.034 0-1.265-.734-2.034-1.924-2.034-1.191 0-1.924.772-1.924 2.034 0 1.272.723 2.034 1.924 2.034Zm0-.815c-.553 0-.865-.447-.865-1.22 0-.765.316-1.215.865-1.215.545 0 .864.45.864 1.216 0 .772-.315 1.219-.864 1.219Zm6.304-3.168h-1.031v2.253c0 .535-.277.865-.791.865-.474 0-.719-.28-.719-.833V50.68h-1.031v2.54c0 .907.524 1.443 1.368 1.443.591 0 .956-.256 1.141-.71h.063v.628h1V50.68Zm1.329-.932v.967h-.61v.783h.61v2.03c0 .759.375 1.067 1.325 1.067.198 0 .39-.021.517-.046v-.762a2.42 2.42 0 0 1-.305.018c-.35 0-.506-.163-.506-.514v-1.793h.811v-.783h-.811v-.967h-1.031Zm2.579 2.07c0 .598.369.956 1.127 1.122l.709.16c.344.078.492.198.492.397 0 .258-.276.436-.676.436-.412 0-.663-.16-.741-.43h-1.006c.07.738.694 1.16 1.725 1.16 1.024 0 1.722-.504 1.722-1.276 0-.581-.34-.9-1.098-1.067l-.734-.16c-.361-.08-.528-.205-.528-.403 0-.255.273-.429.642-.429.383 0 .62.16.673.418h.953c-.056-.737-.641-1.151-1.633-1.151-.975 0-1.627.492-1.627 1.222Z"/><rect width="634.395" height="211.062" x="50.802" y="40.625" stroke="#EFEFEF" stroke-width=".605" rx="4.536"/><path fill="#009990" d="M305.105 72.374a2.42 2.42 0 0 1 2.42-2.419h14.514a2.419 2.419 0 0 1 2.419 2.42v15.118a2.419 2.419 0 0 1-2.419 2.42h-14.514a2.42 2.42 0 0 1-2.42-2.42V72.374Z"/><path fill="#D86800" d="M305.105 133.456a2.42 2.42 0 0 1 2.42-2.419h14.514a2.419 2.419 0 0 1 2.419 2.419v58.662a2.419 2.419 0 0 1-2.419 2.419h-14.514a2.42 2.42 0 0 1-2.42-2.419v-58.662Z"/><path fill="#6B16CA" d="M305.105 235.056a2.42 2.42 0 0 1 2.42-2.419h14.514a2.419 2.419 0 0 1 2.419 2.419v4.838a2.419 2.419 0 0 1-2.419 2.419h-14.514a2.42 2.42 0 0 1-2.42-2.419v-4.838Z"/><path stroke="#EFEFEF" stroke-width=".605" d="M558.802 40.322v211.667"/><path fill="#111" d="M567.448 52.71h.875l.954 1.87h1.211l-1.077-2.03c.588-.23.929-.798.929-1.453 0-1.01-.691-1.63-1.815-1.63h-2.147v5.113h1.07v-1.87Zm0-2.407h.928c.532 0 .865.312.865.808 0 .507-.315.8-.854.8h-.939v-1.608Zm6.265 3.175c-.11.266-.39.415-.797.415-.539 0-.879-.372-.893-.968v-.053h2.682v-.308c0-1.233-.68-1.97-1.832-1.97-1.162 0-1.878.786-1.878 2.055 0 1.261.702 2.013 1.892 2.013.957 0 1.634-.457 1.786-1.184h-.96Zm-.836-2.115c.482 0 .794.333.815.868h-1.666c.036-.525.372-.868.851-.868Zm6.102-.684h-1.088l-.801 2.934h-.064l-.808-2.934h-1.109l1.357 3.901h1.163l1.35-3.901Zm3.061 2.799c-.11.266-.389.415-.797.415-.539 0-.879-.372-.893-.968v-.053h2.683v-.308c0-1.233-.681-1.97-1.832-1.97-1.163 0-1.879.786-1.879 2.055 0 1.261.702 2.013 1.893 2.013.956 0 1.633-.457 1.786-1.184h-.961Zm-.836-2.115c.482 0 .794.333.815.868h-1.665c.035-.525.372-.868.85-.868Zm2.675 3.217h1.032v-2.257c0-.528.294-.868.772-.868.489 0 .719.287.719.836v2.29h1.032v-2.524c0-.932-.468-1.463-1.336-1.463-.578 0-.975.273-1.156.712h-.063v-.627h-1v3.901Zm8.094-3.901h-1.031v2.253c0 .535-.277.865-.791.865-.474 0-.719-.28-.719-.833V50.68h-1.031v2.54c0 .907.524 1.443 1.368 1.443.592 0 .957-.256 1.141-.71h.064v.628h.999V50.68Zm3.561 2.799c-.11.266-.39.415-.797.415-.539 0-.879-.372-.893-.968v-.053h2.682v-.308c0-1.233-.68-1.97-1.832-1.97-1.162 0-1.878.786-1.878 2.055 0 1.261.702 2.013 1.892 2.013.957 0 1.634-.457 1.786-1.184h-.96Zm-.836-2.115c.482 0 .794.333.815.868h-1.666c.036-.525.372-.868.851-.868ZM442.663 54.58h1.159l-1.776-5.113h-1.258l-1.775 5.113h1.074l.393-1.24h1.797l.386 1.24Zm-1.311-4.075h.063l.635 2.034h-1.34l.642-2.034Zm6.311.174h-1.088l-.801 2.934h-.064l-.808-2.934h-1.109l1.357 3.901h1.163l1.35-3.901Zm3.061 2.799c-.11.266-.389.415-.797.415-.539 0-.879-.372-.893-.968v-.053h2.682v-.308c0-1.233-.68-1.97-1.832-1.97-1.162 0-1.878.786-1.878 2.055 0 1.261.702 2.013 1.893 2.013.956 0 1.633-.457 1.786-1.184h-.961Zm-.836-2.115c.482 0 .794.333.815.868h-1.665c.035-.525.372-.868.85-.868Zm2.675 3.217h1.032v-2.183c0-.549.386-.886.949-.886.167 0 .408.029.489.057v-.907a1.603 1.603 0 0 0-.404-.046c-.496 0-.9.294-1.003.684h-.063v-.62h-1v3.901Zm4.16.06c.507 0 .932-.216 1.134-.577h.064v.517h.999v-2.665c0-.832-.584-1.321-1.619-1.321-.981 0-1.644.45-1.711 1.165h.949c.085-.244.333-.375.705-.375.426 0 .659.195.659.531v.323l-.946.056c-.971.057-1.513.468-1.513 1.173 0 .713.528 1.173 1.279 1.173Zm.341-.755c-.358 0-.61-.18-.61-.481 0-.287.216-.454.659-.482l.79-.053v.29c0 .411-.361.727-.839.727Zm4.592 2.173c1.18 0 1.928-.574 1.928-1.485v-3.894h-1v.623h-.063c-.209-.425-.659-.687-1.187-.687-.993 0-1.602.772-1.602 1.98 0 1.17.606 1.928 1.58 1.928.55 0 .961-.223 1.177-.634h.064v.726c0 .45-.323.713-.876.713-.446 0-.737-.156-.79-.404h-1.02c.063.684.751 1.134 1.789 1.134Zm.014-2.325c-.56 0-.879-.44-.879-1.14 0-.703.323-1.142.879-1.142.557 0 .893.44.893 1.141 0 .702-.333 1.141-.893 1.141Zm5.475-.255c-.11.266-.39.415-.797.415-.539 0-.879-.372-.893-.968v-.053h2.682v-.308c0-1.233-.68-1.97-1.832-1.97-1.162 0-1.878.786-1.878 2.055 0 1.261.702 2.013 1.892 2.013.957 0 1.634-.457 1.786-1.184h-.96Zm-.836-2.115c.482 0 .793.333.815.868h-1.666c.036-.525.372-.868.851-.868Zm6.279 3.299c1.201 0 1.924-.759 1.924-2.034 0-1.265-.734-2.034-1.924-2.034-1.191 0-1.924.772-1.924 2.034 0 1.272.723 2.034 1.924 2.034Zm0-.815c-.553 0-.865-.447-.865-1.22 0-.765.316-1.215.865-1.215.546 0 .864.45.864 1.216 0 .772-.315 1.219-.864 1.219Zm2.767.733h1.032v-2.183c0-.549.386-.886.949-.886.167 0 .408.029.489.057v-.907a1.603 1.603 0 0 0-.404-.046c-.496 0-.9.294-1.003.684h-.063v-.62h-1v3.901Zm4.469.06c.542 0 .985-.251 1.194-.673h.064v.613h.999v-5.393h-1.031v2.115h-.06c-.202-.432-.638-.687-1.166-.687-.982 0-1.591.769-1.591 2.01 0 1.243.606 2.015 1.591 2.015Zm.351-3.189c.549 0 .885.45.885 1.18s-.333 1.177-.885 1.177c-.553 0-.883-.443-.883-1.18 0-.734.333-1.177.883-1.177Zm5.503 2.027c-.11.266-.39.415-.798.415-.538 0-.878-.372-.893-.968v-.053h2.683v-.308c0-1.233-.681-1.97-1.832-1.97-1.162 0-1.878.786-1.878 2.055 0 1.261.701 2.013 1.892 2.013.957 0 1.634-.457 1.786-1.184h-.96Zm-.837-2.115c.482 0 .794.333.815.868h-1.665c.035-.525.372-.868.85-.868Zm2.676 3.217h1.031v-2.183c0-.549.386-.886.95-.886.166 0 .407.029.489.057v-.907a1.614 1.614 0 0 0-.404-.046c-.496 0-.9.294-1.003.684h-.064v-.62h-.999v3.901Zm8.564-3.901h-1.087l-.801 2.934h-.064l-.808-2.934h-1.109l1.357 3.901h1.162l1.35-3.901Zm1.641 3.961c.507 0 .932-.216 1.134-.577h.064v.517h.999v-2.665c0-.832-.585-1.321-1.619-1.321-.982 0-1.644.45-1.712 1.165h.95c.085-.244.333-.375.705-.375.425 0 .659.195.659.531v.323l-.946.056c-.971.057-1.513.468-1.513 1.173 0 .713.528 1.173 1.279 1.173Zm.34-.755c-.358 0-.609-.18-.609-.481 0-.287.216-.454.659-.482l.79-.053v.29c0 .411-.361.727-.84.727Zm2.906.695h1.031v-5.393h-1.031v5.393Zm5.641-3.901h-1.031v2.253c0 .535-.276.865-.79.865-.475 0-.719-.28-.719-.833V50.68h-1.032v2.54c0 .907.525 1.443 1.368 1.443.592 0 .957-.256 1.141-.71h.064v.628h.999V50.68Zm3.562 2.799c-.11.266-.39.415-.798.415-.538 0-.879-.372-.893-.968v-.053h2.683v-.308c0-1.233-.681-1.97-1.832-1.97-1.163 0-1.878.786-1.878 2.055 0 1.261.701 2.013 1.892 2.013.957 0 1.633-.457 1.786-1.184h-.96Zm-.837-2.115c.482 0 .794.333.815.868h-1.665c.035-.525.372-.868.85-.868Z"/><path fill="#009990" d="M566.361 65.722a2.42 2.42 0 0 1 2.419-2.42h19.353a2.42 2.42 0 0 1 2.419 2.42V94.75a2.419 2.419 0 0 1-2.419 2.42H568.78a2.419 2.419 0 0 1-2.419-2.42V65.722Z"/><path fill="#D86800" d="M566.361 102.007a2.42 2.42 0 0 1 2.419-2.42h19.353a2.42 2.42 0 0 1 2.419 2.42v123.371a2.419 2.419 0 0 1-2.419 2.419H568.78a2.419 2.419 0 0 1-2.419-2.419V102.007Z"/><path fill="#6B16CA" d="M566.361 242.311a2.419 2.419 0 0 0 2.419 2.419h19.353a2.419 2.419 0 0 0 2.419-2.419v-9.676a2.419 2.419 0 0 0-2.419-2.419H568.78a2.419 2.419 0 0 0-2.419 2.419v9.676Z"/><path fill="#111" d="M188.663 54.578h1.159l-1.776-5.113h-1.258l-1.775 5.113h1.074l.393-1.24h1.797l.386 1.24Zm-1.311-4.075h.063l.635 2.034h-1.34l.642-2.034Zm4.426 4.135c.542 0 .985-.251 1.194-.673h.063v.613h1v-5.393h-1.031V51.3h-.061c-.202-.432-.637-.687-1.165-.687-.982 0-1.592.769-1.592 2.01 0 1.243.606 2.015 1.592 2.015Zm.35-3.189c.55 0 .886.45.886 1.18s-.333 1.177-.886 1.177c-.552 0-.882-.443-.882-1.18 0-.734.333-1.177.882-1.177Zm4.377 3.19c.542 0 .985-.252 1.194-.674h.064v.613h.999v-5.393h-1.031V51.3h-.061c-.202-.432-.637-.687-1.165-.687-.982 0-1.591.769-1.591 2.01 0 1.243.606 2.015 1.591 2.015Zm.35-3.19c.55 0 .886.45.886 1.18s-.333 1.177-.886 1.177c-.552 0-.882-.443-.882-1.18 0-.734.333-1.177.882-1.177Zm5.142-1.704v.967h-.609v.783h.609v2.03c0 .759.376 1.067 1.325 1.067.199 0 .39-.021.518-.046v-.762c-.1.011-.17.018-.305.018-.351 0-.507-.163-.507-.514v-1.793h.812v-.783h-.812v-.967h-1.031Zm4.408 4.915c1.201 0 1.924-.759 1.924-2.034 0-1.265-.733-2.034-1.924-2.034-1.19 0-1.924.772-1.924 2.034 0 1.272.723 2.034 1.924 2.034Zm0-.815c-.553 0-.864-.447-.864-1.22 0-.765.315-1.215.864-1.215.546 0 .865.45.865 1.216 0 .772-.316 1.219-.865 1.219Zm8.097-1.808c-.085-.871-.705-1.445-1.74-1.445-1.222 0-1.91.74-1.91 2.027 0 1.3.691 2.04 1.91 2.04 1.017 0 1.655-.56 1.74-1.417h-.964c-.078.39-.354.6-.776.6-.552 0-.868-.437-.868-1.223 0-.776.312-1.205.868-1.205.44 0 .705.248.776.623h.964Zm1.878 2.601c.507 0 .932-.216 1.134-.577h.064v.517h.999v-2.665c0-.832-.584-1.321-1.619-1.321-.982 0-1.644.45-1.712 1.166h.95c.085-.245.333-.376.705-.376.425 0 .659.195.659.531v.323l-.946.057c-.971.056-1.513.467-1.513 1.172 0 .713.528 1.173 1.279 1.173Zm.34-.754c-.357 0-.609-.181-.609-.482 0-.287.216-.454.659-.482l.79-.053v.29c0 .411-.361.727-.84.727Zm2.871.694h1.031v-2.183c0-.549.386-.886.95-.886.166 0 .407.029.489.057v-.907a1.61 1.61 0 0 0-.404-.046c-.497 0-.9.294-1.003.684h-.064v-.62h-.999v3.901Zm3.618-4.833v.967h-.61v.783h.61v2.03c0 .759.375 1.067 1.325 1.067.198 0 .39-.021.517-.046v-.762c-.099.011-.17.018-.304.018-.351 0-.507-.163-.507-.514v-1.793h.811v-.783h-.811v-.967h-1.031Z"/><path fill="#111" fill-rule="evenodd" d="M234.223 49.57a.604.604 0 1 0-.855.856l.782.782h-3.733a.605.605 0 0 0 0 1.21h3.733l-.782.781a.603.603 0 0 0 .427 1.033c.155 0 .31-.06.428-.178l2.242-2.242-2.242-2.241Z" clip-rule="evenodd"/><path fill="#111" d="M58.376 49.465v5.113h1.07v-1.612h1.01c1.077 0 1.825-.702 1.825-1.744 0-1.056-.72-1.757-1.772-1.757h-2.133Zm1.07.85h.78c.616 0 .967.316.967.91 0 .582-.358.901-.97.901h-.777v-1.81Zm4.646 4.323c.506 0 .932-.216 1.134-.577h.063v.517h1v-2.665c0-.832-.585-1.321-1.62-1.321-.981 0-1.644.45-1.711 1.166h.95c.084-.245.332-.376.705-.376.425 0 .659.195.659.531v.323l-.946.057c-.971.056-1.513.467-1.513 1.172 0 .713.527 1.173 1.279 1.173Zm.34-.754c-.358 0-.61-.181-.61-.482 0-.287.216-.454.66-.482l.79-.053v.29c0 .411-.362.727-.84.727Zm4.592 2.172c1.18 0 1.928-.574 1.928-1.485v-3.894h-1v.623h-.063c-.21-.425-.66-.687-1.187-.687-.992 0-1.602.772-1.602 1.98 0 1.17.606 1.928 1.58 1.928.55 0 .96-.223 1.177-.634h.064v.727c0 .45-.323.712-.876.712-.446 0-.737-.156-.79-.404h-1.02c.064.684.751 1.134 1.79 1.134Zm.014-2.325c-.56 0-.878-.44-.878-1.14 0-.702.322-1.142.878-1.142.557 0 .893.44.893 1.141 0 .702-.333 1.141-.893 1.141Zm5.475-.255c-.11.266-.39.415-.797.415-.539 0-.879-.372-.893-.968v-.053h2.682v-.308c0-1.233-.68-1.97-1.832-1.97-1.162 0-1.878.786-1.878 2.055 0 1.261.702 2.013 1.893 2.013.956 0 1.633-.457 1.785-1.184h-.96Zm-.836-2.115c.482 0 .794.333.815.868h-1.666c.036-.525.373-.868.85-.868Zm8.08-.684h-1.089l-.8 2.934h-.064l-.808-2.934h-1.11l1.358 3.901h1.162l1.35-3.901Zm1.222-.6a.578.578 0 0 0 .58-.573.578.578 0 0 0-.58-.578.581.581 0 0 0-.585.578.58.58 0 0 0 .585.574Zm-.518 4.501h1.032v-3.901H82.46v3.901Zm1.988-2.764c0 .599.369.957 1.127 1.123l.709.16c.344.078.492.198.492.397 0 .258-.276.436-.677.436-.41 0-.662-.16-.74-.43h-1.006c.07.738.694 1.16 1.725 1.16 1.024 0 1.722-.504 1.722-1.276 0-.581-.34-.9-1.098-1.067l-.734-.16c-.361-.08-.528-.205-.528-.403 0-.255.273-.429.642-.429.383 0 .62.16.673.418h.953c-.056-.737-.641-1.151-1.633-1.151-.975 0-1.627.492-1.627 1.222Zm4.724-1.736a.578.578 0 0 0 .58-.574.578.578 0 0 0-.58-.578.581.581 0 0 0-.585.578.58.58 0 0 0 .585.574Zm-.518 4.5h1.032v-3.901h-1.032v3.901Zm2.371-4.833v.967h-.61v.783h.61v2.03c0 .759.376 1.067 1.325 1.067.199 0 .39-.021.518-.046v-.762c-.1.011-.17.018-.305.018-.35 0-.507-.163-.507-.514v-1.793h.812v-.783h-.812v-.967h-1.031Zm2.58 2.07c0 .598.368.956 1.127 1.123l.708.159c.344.078.493.198.493.397 0 .258-.277.436-.677.436-.411 0-.663-.16-.74-.43H93.51c.07.738.695 1.16 1.726 1.16 1.024 0 1.722-.504 1.722-1.276 0-.581-.34-.9-1.099-1.067l-.733-.16c-.362-.08-.528-.205-.528-.403 0-.255.273-.429.641-.429.383 0 .62.16.674.418h.953c-.057-.737-.642-1.151-1.634-1.151-.974 0-1.626.492-1.626 1.222Z"/><path fill="#111" fill-rule="evenodd" d="M107.221 49.57a.604.604 0 1 0-.855.856l.782.782h-3.733a.604.604 0 0 0 0 1.21h3.733l-.782.781a.603.603 0 0 0 .427 1.033c.155 0 .31-.06.428-.178l2.242-2.242-2.242-2.241Z" clip-rule="evenodd"/><path fill="#D86800" d="M51.103 100.192a2.419 2.419 0 0 1 2.42-2.419h7.257v130.024h-7.257a2.42 2.42 0 0 1-2.42-2.419V100.192Z"/><path fill="#D86800" d="m60.78 97.773 114.671 17.825a2.419 2.419 0 0 1 2.047 2.39v90.188a2.419 2.419 0 0 1-2.059 2.393l-114.66 17.228V97.773Z" opacity=".4"/><path fill="#D86800" d="M178.104 118.335a2.419 2.419 0 0 1 2.419-2.419h7.257v94.343h-7.257a2.419 2.419 0 0 1-2.419-2.419v-89.505Z"/><path fill="#D86800" d="m187.779 115.916 114.611 14.846a2.418 2.418 0 0 1 2.108 2.399v59.259a2.418 2.418 0 0 1-2.096 2.397l-114.623 15.442v-94.343Z" opacity=".4"/><path fill="#6B16CA" d="M51.103 232.638a2.42 2.42 0 0 1 2.42-2.419h7.257v14.514h-7.257a2.42 2.42 0 0 1-2.42-2.419v-9.676Z"/><path fill="#6B16CA" d="m60.78 230.219 114.324 1.184a2.419 2.419 0 0 1 2.394 2.419v7.307a2.418 2.418 0 0 1-2.394 2.419l-114.325 1.185v-14.514Z" opacity=".4"/><path fill="#6B16CA" d="M178.104 233.845a2.419 2.419 0 0 1 2.419-2.419h7.257v12.095h-7.257a2.419 2.419 0 0 1-2.419-2.419v-7.257Z"/><path fill="#6B16CA" d="m187.779 231.426 114.325 1.184a2.419 2.419 0 0 1 2.394 2.419v4.888a2.418 2.418 0 0 1-2.394 2.419l-114.325 1.185v-12.095Z" opacity=".4"/><rect width="24.795" height="12.7" x="101.906" y="156.436" fill="#fff" rx="2.419"/><path fill="#111" d="M107.695 165.785h.727v-1.236h.848v-.666h-.848v-4.063h-1.079a94.054 94.054 0 0 0-2.555 4.051v.678h2.907v1.236Zm-2.146-1.947a74.82 74.82 0 0 1 2.1-3.328h.05v3.378h-2.15v-.05Zm5.172 1.988a.536.536 0 1 0 0-1.074.539.539 0 0 0-.538.537c0 .294.244.537.538.537Zm3.671.1c1.265 0 2.15-.715 2.15-1.737 0-.777-.492-1.38-1.241-1.521v-.066c.616-.17.997-.678.997-1.331 0-.93-.79-1.592-1.906-1.592-1.116 0-1.906.662-1.906 1.592 0 .649.389 1.166.996 1.331v.066c-.748.141-1.24.744-1.24 1.521 0 1.022.885 1.737 2.15 1.737Zm0-3.572c-.703 0-1.174-.405-1.174-1.013 0-.616.467-1.025 1.174-1.025.707 0 1.174.409 1.174 1.025 0 .608-.471 1.013-1.174 1.013Zm0 2.935c-.827 0-1.397-.471-1.397-1.153s.57-1.154 1.397-1.154c.827 0 1.397.472 1.397 1.154 0 .682-.57 1.153-1.397 1.153Zm4.266-2.77c.806 0 1.294-.525 1.294-1.405 0-.869-.492-1.402-1.294-1.402s-1.298.533-1.298 1.402c0 .876.488 1.405 1.298 1.405Zm.269 3.266 4.122-5.965h-.674l-4.122 5.965h.674Zm-.269-3.807c-.417 0-.657-.315-.657-.86 0-.542.24-.86.657-.86.414 0 .654.318.654.86 0 .541-.236.86-.654.86Zm3.99 3.865c.806 0 1.294-.525 1.294-1.406 0-.868-.492-1.401-1.294-1.401s-1.298.533-1.298 1.401c0 .877.492 1.406 1.298 1.406Zm0-.542c-.418 0-.653-.314-.653-.859 0-.542.235-.86.653-.86.417 0 .653.318.653.86 0 .541-.236.859-.653.859Z"/><rect width="24.795" height="12.7" x="101.906" y="230.822" fill="#fff" rx="2.419"/><path fill="#111" d="M107.695 240.172h.727v-1.236h.848v-.666h-.848v-4.064h-1.079a94.719 94.719 0 0 0-2.555 4.052v.678h2.907v1.236Zm-2.146-1.947a74.82 74.82 0 0 1 2.1-3.328h.05v3.377h-2.15v-.049Zm5.172 1.988a.537.537 0 1 0 0-1.077.537.537 0 0 0 0 1.077Zm2.927-2.79h.74c.839 0 1.356.43 1.356 1.12 0 .67-.558 1.12-1.344 1.12-.769 0-1.306-.401-1.372-1.029h-.72c.054 1.013.889 1.678 2.1 1.678 1.187 0 2.101-.748 2.101-1.748 0-.831-.513-1.356-1.286-1.48v-.066c.612-.178 1.058-.654 1.062-1.373.004-.835-.674-1.579-1.852-1.579-1.207 0-1.947.715-2.021 1.687h.723c.062-.67.529-1.038 1.249-1.038.719 0 1.145.455 1.145 1.013 0 .62-.488 1.058-1.174 1.058h-.707v.637Zm4.952-.517c.807 0 1.294-.525 1.294-1.406 0-.868-.492-1.401-1.294-1.401s-1.298.533-1.298 1.401c0 .877.488 1.406 1.298 1.406Zm.269 3.266 4.122-5.966h-.674l-4.122 5.966h.674Zm-.269-3.808c-.417 0-.657-.314-.657-.86 0-.541.24-.859.657-.859.414 0 .654.318.654.859 0 .542-.236.86-.654.86Zm3.99 3.866c.806 0 1.294-.525 1.294-1.406 0-.868-.492-1.401-1.294-1.401s-1.298.533-1.298 1.401c0 .877.492 1.406 1.298 1.406Zm0-.542c-.418 0-.653-.314-.653-.86 0-.541.235-.86.653-.86.417 0 .653.319.653.86 0 .542-.236.86-.653.86Z"/><path fill="#009990" d="m60.78 63.305 114.349 2.37a2.419 2.419 0 0 1 2.369 2.418v23.068a2.419 2.419 0 0 1-2.381 2.419L60.779 95.357V63.305Z" opacity=".4"/><path fill="#009990" d="M51.103 65.724a2.42 2.42 0 0 1 2.42-2.42h7.257v32.053h-7.257a2.42 2.42 0 0 1-2.42-2.419V65.724Z"/><path fill="#009990" d="m187.779 65.723 114.388 4.148a2.419 2.419 0 0 1 2.331 2.418v15.28a2.419 2.419 0 0 1-2.344 2.417l-114.375 3.556v-27.82Z" opacity=".4"/><path fill="#009990" d="M178.104 68.142a2.419 2.419 0 0 1 2.419-2.42h7.257v27.82h-7.257a2.419 2.419 0 0 1-2.419-2.42v-22.98Z"/><rect width="24.795" height="12.7" x="101.906" y="72.981" fill="#fff" rx="2.419"/><path fill="#111" d="M106.955 82.47c1.219 0 2.05-.843 2.05-2.07 0-1.183-.827-1.968-1.827-1.968-.595 0-1.038.181-1.327.541h-.066l.186-1.943h2.728v-.665h-3.311l-.343 3.41h.698c.236-.442.682-.703 1.249-.703.752 0 1.269.542 1.269 1.348 0 .835-.517 1.397-1.298 1.397-.703 0-1.216-.425-1.282-1.062h-.731c.066 1.021.876 1.716 2.005 1.716Zm3.559-.099a.537.537 0 1 0 .003-1.076.537.537 0 0 0-.003 1.076Zm3.634.1c1.22 0 2.051-.844 2.051-2.072 0-1.182-.827-1.967-1.828-1.967-.595 0-1.037.181-1.327.541h-.066l.186-1.943h2.729v-.665h-3.312l-.343 3.41h.699c.235-.442.682-.703 1.248-.703.753 0 1.269.542 1.269 1.348 0 .835-.516 1.397-1.298 1.397-.703 0-1.215-.425-1.281-1.062h-.732c.066 1.021.876 1.716 2.005 1.716Zm4.155-3.407c.806 0 1.294-.525 1.294-1.405 0-.869-.492-1.402-1.294-1.402s-1.298.533-1.298 1.401c0 .877.488 1.406 1.298 1.406Zm.269 3.266 4.121-5.965h-.674l-4.121 5.965h.674Zm-.269-3.807c-.418 0-.658-.315-.658-.86 0-.542.24-.86.658-.86.413 0 .653.318.653.86 0 .541-.236.86-.653.86Zm3.989 3.865c.806 0 1.294-.525 1.294-1.406 0-.868-.492-1.401-1.294-1.401s-1.298.533-1.298 1.401c0 .877.492 1.406 1.298 1.406Zm0-.542c-.417 0-.653-.314-.653-.86 0-.541.236-.86.653-.86.418 0 .653.319.653.86 0 .542-.235.86-.653.86Z"/><rect width="29.029" height="12.7" x="227.092" y="72.981" fill="#fff" rx="2.419"/><path fill="#111" d="M231.697 82.33h.744v-5.965h-.74l-1.587 1.14v.786l1.517-1.1h.066v5.14Zm2.489-4.283h.719c0-.707.476-1.174 1.191-1.174.703 0 1.129.471 1.129 1.104 0 .525-.224.835-.984 1.658l-2.018 2.182v.513h3.862v-.67h-2.828v-.066l1.356-1.401c1.075-1.112 1.372-1.608 1.372-2.295 0-.967-.798-1.674-1.839-1.674-1.141 0-1.96.76-1.96 1.823Zm5.622 4.324a.537.537 0 1 0 .003-1.076.537.537 0 0 0-.003 1.076Zm3.7.096c1.224 0 2.092-.856 2.092-2.055 0-1.158-.822-1.997-1.959-1.997-.711 0-1.294.34-1.588.918h-.066c.025-1.62.604-2.448 1.596-2.448.603 0 1.042.31 1.166.864h.765c-.153-.926-.869-1.525-1.956-1.525-1.41 0-2.294 1.174-2.294 3.225 0 2.009.946 3.017 2.244 3.017Zm-.008-.654c-.765 0-1.347-.603-1.347-1.401 0-.79.566-1.352 1.355-1.352.79 0 1.34.562 1.34 1.377 0 .781-.583 1.376-1.348 1.376Zm4.196-2.749c.807 0 1.294-.525 1.294-1.405 0-.869-.492-1.402-1.294-1.402s-1.298.533-1.298 1.401c0 .877.488 1.406 1.298 1.406Zm.269 3.266 4.122-5.965h-.674l-4.122 5.965h.674Zm-.269-3.807c-.417 0-.657-.315-.657-.86 0-.542.24-.86.657-.86.414 0 .654.318.654.86 0 .541-.236.86-.654.86Zm3.99 3.865c.806 0 1.294-.525 1.294-1.406 0-.868-.492-1.401-1.294-1.401s-1.298.533-1.298 1.401c0 .877.492 1.406 1.298 1.406Zm0-.542c-.418 0-.653-.314-.653-.86 0-.541.235-.86.653-.86.417 0 .653.319.653.86 0 .542-.236.86-.653.86Z"/><rect width="27.819" height="12.7" x="227.092" y="156.436" fill="#fff" rx="2.419"/><path fill="#111" d="M231.594 165.785h.744v-5.965h-.74l-1.588 1.141v.785l1.518-1.1h.066v5.139Zm3.952 0h.744v-5.965h-.74l-1.587 1.141v.785l1.517-1.1h.066v5.139Zm2.91.041a.536.536 0 1 0 0-1.074.538.538 0 0 0-.537.537c0 .294.244.537.537.537Zm3.7.096c1.224 0 2.092-.856 2.092-2.055 0-1.158-.822-1.997-1.959-1.997-.711 0-1.294.339-1.588.918h-.066c.025-1.621.604-2.447 1.596-2.447.603 0 1.042.31 1.166.864h.765c-.153-.926-.869-1.526-1.956-1.526-1.41 0-2.294 1.174-2.294 3.225 0 2.009.946 3.018 2.244 3.018Zm-.008-.654c-.765 0-1.348-.603-1.348-1.401 0-.79.567-1.352 1.356-1.352.79 0 1.34.562 1.34 1.377 0 .781-.583 1.376-1.348 1.376Zm4.196-2.749c.806 0 1.294-.525 1.294-1.405 0-.869-.492-1.402-1.294-1.402s-1.298.533-1.298 1.402c0 .876.488 1.405 1.298 1.405Zm.269 3.266 4.122-5.965h-.674l-4.122 5.965h.674Zm-.269-3.807c-.417 0-.657-.315-.657-.86 0-.542.24-.86.657-.86.414 0 .654.318.654.86 0 .541-.236.86-.654.86Zm3.99 3.865c.806 0 1.294-.525 1.294-1.406 0-.868-.492-1.401-1.294-1.401s-1.298.533-1.298 1.401c0 .877.492 1.406 1.298 1.406Zm0-.542c-.418 0-.653-.314-.653-.859 0-.542.235-.86.653-.86.417 0 .653.318.653.86 0 .541-.236.859-.653.859Z"/><rect width="29.029" height="12.7" x="227.092" y="230.822" fill="#fff" rx="2.419"/><path fill="#111" d="M231.697 240.172h.744v-5.966h-.74l-1.587 1.141v.786l1.517-1.1h.066v5.139Zm3.779-2.749h.74c.839 0 1.356.43 1.356 1.12 0 .67-.558 1.12-1.344 1.12-.769 0-1.306-.401-1.372-1.029h-.72c.054 1.013.889 1.678 2.101 1.678 1.186 0 2.1-.748 2.1-1.748 0-.831-.513-1.356-1.286-1.48v-.066c.612-.178 1.058-.654 1.062-1.373.005-.835-.673-1.579-1.852-1.579-1.207 0-1.947.715-2.021 1.687h.723c.062-.67.529-1.038 1.249-1.038.719 0 1.145.455 1.145 1.013 0 .62-.488 1.058-1.174 1.058h-.707v.637Zm4.357 2.79a.537.537 0 1 0 .002-1.076.537.537 0 0 0-.002 1.076Zm2.927-2.79h.74c.839 0 1.356.43 1.356 1.12 0 .67-.558 1.12-1.343 1.12-.769 0-1.307-.401-1.373-1.029h-.719c.054 1.013.889 1.678 2.1 1.678 1.186 0 2.1-.748 2.1-1.748 0-.831-.513-1.356-1.286-1.48v-.066c.612-.178 1.059-.654 1.063-1.373.004-.835-.674-1.579-1.852-1.579-1.207 0-1.947.715-2.022 1.687h.724c.062-.67.529-1.038 1.248-1.038s1.145.455 1.145 1.013c0 .62-.488 1.058-1.174 1.058h-.707v.637Zm4.953-.517c.806 0 1.294-.525 1.294-1.406 0-.868-.492-1.401-1.294-1.401s-1.298.533-1.298 1.401c0 .877.488 1.406 1.298 1.406Zm.269 3.266 4.121-5.966h-.674l-4.121 5.966h.674Zm-.269-3.808c-.418 0-.657-.314-.657-.86 0-.541.239-.859.657-.859.413 0 .653.318.653.859 0 .542-.236.86-.653.86Zm3.989 3.866c.806 0 1.294-.525 1.294-1.406 0-.868-.492-1.401-1.294-1.401s-1.298.533-1.298 1.401c0 .877.492 1.406 1.298 1.406Zm0-.542c-.417 0-.653-.314-.653-.86 0-.541.236-.86.653-.86.418 0 .654.319.654.86 0 .542-.236.86-.654.86Z"/><path fill="#000" d="M334.761 78.51h.72c0-.707.475-1.174 1.19-1.174.703 0 1.129.471 1.129 1.104 0 .525-.223.835-.984 1.657l-2.018 2.183v.513h3.862v-.67h-2.828v-.066l1.356-1.401c1.075-1.112 1.372-1.609 1.372-2.295 0-.967-.797-1.674-1.839-1.674-1.141 0-1.96.76-1.96 1.823Zm7.264 4.42c1.224 0 2.092-.856 2.092-2.055 0-1.158-.823-1.997-1.96-1.997-.711 0-1.294.339-1.587.918h-.067c.025-1.62.604-2.448 1.596-2.448.604 0 1.042.31 1.166.864h.765c-.153-.926-.868-1.525-1.956-1.525-1.409 0-2.294 1.174-2.294 3.225 0 2.009.947 3.017 2.245 3.017Zm-.008-.654c-.765 0-1.348-.603-1.348-1.401 0-.79.566-1.352 1.356-1.352.789 0 1.339.562 1.339 1.377 0 .78-.583 1.376-1.347 1.376Zm4.551-2.232h.74c.839 0 1.356.43 1.356 1.12 0 .67-.558 1.12-1.343 1.12-.769 0-1.307-.4-1.373-1.029h-.719c.054 1.013.889 1.678 2.1 1.678 1.186 0 2.1-.748 2.1-1.748 0-.831-.513-1.356-1.286-1.48v-.066c.612-.178 1.059-.654 1.063-1.373.004-.835-.674-1.58-1.852-1.58-1.207 0-1.947.716-2.022 1.688h.724c.062-.67.529-1.038 1.248-1.038s1.145.455 1.145 1.013c0 .62-.488 1.058-1.174 1.058h-.707v.637Zm4.358 2.79a.536.536 0 1 0 .001-1.077.536.536 0 0 0-.001 1.077Zm2.17-.041h.781l2.654-5.275v-.69h-3.948v.665h3.192v.058l-2.679 5.242Zm6.482.14c1.22 0 2.051-.843 2.051-2.07 0-1.183-.827-1.969-1.827-1.969-.596 0-1.038.182-1.328.542h-.066l.186-1.943h2.729v-.666h-3.312l-.343 3.411h.699c.236-.442.682-.703 1.248-.703.753 0 1.27.542 1.27 1.348 0 .835-.517 1.397-1.298 1.397-.703 0-1.216-.425-1.282-1.062h-.732c.066 1.021.877 1.715 2.005 1.715Zm4.081-2.65h-.066v-3.716h-.712v6.226h.712v-1.69l.425-.398 1.671 2.088h.905l-2.047-2.547 1.919-1.91h-.873l-1.934 1.948Z"/><circle cx="442.384" cy="79.63" r="3.629" fill="#009990"/><path fill="#000" d="M453.357 83.392h.496v-.715c.976-.074 1.786-.616 1.786-1.612 0-.868-.595-1.306-1.658-1.563l-.128-.029v-1.88c.558.07.955.396 1.009.954h.719c-.029-.913-.773-1.517-1.728-1.604v-.715h-.496v.72c-.98.086-1.679.673-1.679 1.562 0 .814.554 1.273 1.584 1.521l.095.025v1.972c-.715-.078-1.034-.471-1.108-.988h-.719c.028.963.843 1.546 1.827 1.633v.72Zm-.959-4.932c0-.4.33-.78.959-.864v1.757c-.711-.173-.959-.487-.959-.893Zm1.48 1.72c.818.199 1.042.488 1.042.943 0 .475-.298.851-1.067.91v-1.857l.025.004Zm3.092-1.67h.719c0-.707.476-1.174 1.191-1.174.703 0 1.129.471 1.129 1.104 0 .525-.224.835-.984 1.657l-2.018 2.183v.513h3.862v-.67h-2.828v-.066l1.356-1.401c1.075-1.112 1.372-1.609 1.372-2.295 0-.967-.798-1.674-1.839-1.674-1.141 0-1.96.76-1.96 1.823Zm7.264 4.42c1.223 0 2.092-.856 2.092-2.055 0-1.158-.823-1.997-1.96-1.997-.711 0-1.294.339-1.588.918h-.066c.025-1.62.604-2.448 1.596-2.448.604 0 1.042.31 1.166.864h.765c-.153-.926-.868-1.525-1.956-1.525-1.409 0-2.294 1.174-2.294 3.225 0 2.009.947 3.017 2.245 3.017Zm-.009-.654c-.764 0-1.347-.603-1.347-1.401 0-.79.566-1.352 1.356-1.352.789 0 1.339.562 1.339 1.377 0 .78-.583 1.376-1.348 1.376Zm4.726.517h.744v-5.966h-.74l-1.588 1.142v.785l1.518-1.1h.066v5.139Zm2.91.041a.537.537 0 1 0 .003-1.076.537.537 0 0 0-.003 1.076Zm2.927-2.79h.74c.839 0 1.356.43 1.356 1.12 0 .67-.558 1.12-1.344 1.12-.768 0-1.306-.4-1.372-1.029h-.719c.053 1.013.888 1.678 2.1 1.678 1.186 0 2.1-.748 2.1-1.748 0-.831-.513-1.356-1.286-1.48v-.066c.612-.178 1.059-.654 1.063-1.373.004-.835-.674-1.58-1.852-1.58-1.208 0-1.948.716-2.022 1.688h.723c.062-.67.53-1.038 1.249-1.038.719 0 1.145.455 1.145 1.013 0 .62-.488 1.058-1.174 1.058h-.707v.637Zm5.482 2.749h.744v-5.966h-.74l-1.587 1.142v.785l1.517-1.1h.066v5.139Z"/><rect width="7.257" height="7.257" x="438.756" y="233.242" fill="#6B16CA" rx="1.21"/><path fill="#000" d="M453.357 240.633h.496v-.716c.976-.074 1.786-.616 1.786-1.612 0-.868-.595-1.306-1.658-1.563l-.128-.028v-1.882c.558.071.955.397 1.009.955h.719c-.029-.913-.773-1.517-1.728-1.604v-.715h-.496v.72c-.98.086-1.679.673-1.679 1.562 0 .815.554 1.274 1.584 1.522l.095.024v1.972c-.715-.078-1.034-.471-1.108-.988h-.719c.028.964.843 1.546 1.827 1.633v.72Zm-.959-4.932c0-.401.33-.782.959-.864v1.757c-.711-.174-.959-.488-.959-.893Zm1.48 1.719c.818.199 1.042.488 1.042.943 0 .475-.298.852-1.067.91v-1.857l.025.004Zm3.092-1.67h.719c0-.707.476-1.174 1.191-1.174.703 0 1.129.471 1.129 1.104 0 .525-.224.835-.984 1.658l-2.018 2.183v.512h3.862v-.67h-2.828v-.066l1.356-1.401c1.075-1.112 1.372-1.608 1.372-2.295 0-.967-.798-1.674-1.839-1.674-1.141 0-1.96.761-1.96 1.823Zm7.264 4.42c1.223 0 2.092-.856 2.092-2.055 0-1.158-.823-1.997-1.96-1.997-.711 0-1.294.339-1.588.918h-.066c.025-1.621.604-2.447 1.596-2.447.604 0 1.042.31 1.166.864h.765c-.153-.926-.868-1.526-1.956-1.526-1.409 0-2.294 1.174-2.294 3.225 0 2.009.947 3.018 2.245 3.018Zm-.009-.654c-.764 0-1.347-.603-1.347-1.401 0-.79.566-1.352 1.356-1.352.789 0 1.339.562 1.339 1.377 0 .781-.583 1.376-1.348 1.376Zm4.552-2.232h.74c.839 0 1.356.43 1.356 1.12 0 .67-.558 1.121-1.344 1.121-.768 0-1.306-.401-1.372-1.03h-.719c.053 1.013.888 1.679 2.1 1.679 1.186 0 2.1-.749 2.1-1.749 0-.831-.513-1.356-1.286-1.48v-.066c.612-.178 1.059-.653 1.063-1.373.004-.835-.674-1.579-1.852-1.579-1.208 0-1.948.715-2.022 1.687h.723c.062-.67.53-1.038 1.249-1.038.719 0 1.145.455 1.145 1.013 0 .62-.488 1.058-1.174 1.058h-.707v.637Zm4.357 2.791a.54.54 0 0 0 .538-.538.538.538 0 0 0-1.075 0c0 .294.244.538.537.538Zm3.634.099c1.22 0 2.051-.844 2.051-2.071 0-1.183-.827-1.968-1.827-1.968-.596 0-1.038.182-1.327.541h-.067l.186-1.943h2.729v-.665h-3.311l-.344 3.41h.699c.236-.442.682-.702 1.249-.702.752 0 1.269.541 1.269 1.347 0 .835-.517 1.398-1.298 1.398-.703 0-1.216-.426-1.282-1.063h-.732c.066 1.021.877 1.716 2.005 1.716Zm3.221-4.424h.719c0-.707.476-1.174 1.191-1.174.703 0 1.128.471 1.128 1.104 0 .525-.223.835-.984 1.658l-2.017 2.183v.512h3.861v-.67h-2.827v-.066l1.356-1.401c1.074-1.112 1.372-1.608 1.372-2.295 0-.967-.798-1.674-1.84-1.674-1.141 0-1.959.761-1.959 1.823ZM597.896 83.998h.496v-.715c.976-.075 1.786-.616 1.786-1.613 0-.868-.595-1.306-1.658-1.562l-.128-.03v-1.88c.558.07.955.397 1.009.955h.719c-.029-.914-.773-1.518-1.728-1.604v-.716h-.496v.72c-.98.087-1.679.674-1.679 1.563 0 .814.554 1.273 1.584 1.52l.095.026v1.972c-.715-.079-1.034-.472-1.108-.988h-.719c.029.963.843 1.546 1.827 1.632v.72Zm-.959-4.932c0-.401.331-.782.959-.864v1.757c-.711-.174-.959-.488-.959-.893Zm1.48 1.72c.818.198 1.042.487 1.042.942 0 .476-.298.852-1.067.91V80.78l.025.005Zm5.238 2.749c1.223 0 2.092-.856 2.092-2.055 0-1.157-.823-1.997-1.96-1.997-.711 0-1.294.34-1.587.918h-.067c.025-1.62.604-2.447 1.596-2.447.604 0 1.042.31 1.166.864h.765c-.153-.926-.868-1.526-1.956-1.526-1.409 0-2.294 1.174-2.294 3.225 0 2.01.947 3.018 2.245 3.018Zm-.009-.653c-.764 0-1.347-.604-1.347-1.402 0-.79.566-1.352 1.356-1.352.789 0 1.339.563 1.339 1.377 0 .781-.583 1.377-1.348 1.377Zm5.338.657c1.265 0 2.149-.715 2.149-1.736 0-.778-.492-1.381-1.24-1.522v-.066c.616-.17.996-.678.996-1.331 0-.93-.789-1.592-1.905-1.592-1.117 0-1.906.662-1.906 1.592 0 .649.388 1.166.996 1.331v.066c-.748.14-1.24.744-1.24 1.522 0 1.02.885 1.736 2.15 1.736Zm0-3.572c-.703 0-1.174-.405-1.174-1.013 0-.616.467-1.025 1.174-1.025.707 0 1.174.41 1.174 1.025 0 .608-.472 1.013-1.174 1.013Zm0 2.935c-.827 0-1.398-.47-1.398-1.153 0-.682.571-1.153 1.398-1.153.826 0 1.397.47 1.397 1.153 0 .682-.571 1.153-1.397 1.153Zm3.671.538a.536.536 0 1 0 .001-1.077.536.536 0 0 0-.001 1.077Zm3.497.095c1.459 0 2.295-1.174 2.295-3.225 0-2.03-.96-3.018-2.245-3.018-1.224 0-2.092.856-2.092 2.055 0 1.158.823 1.997 1.959 1.997.712 0 1.294-.34 1.588-.918h.066c-.041 1.587-.591 2.447-1.563 2.447-.587 0-1.041-.326-1.198-.864h-.765c.186.939.942 1.526 1.955 1.526Zm.05-2.836c-.79 0-1.34-.562-1.34-1.377 0-.781.583-1.377 1.348-1.377.765 0 1.348.604 1.348 1.402 0 .79-.567 1.352-1.356 1.352Zm3.406-1.584h.72c0-.706.475-1.174 1.19-1.174.703 0 1.129.472 1.129 1.104 0 .525-.223.835-.984 1.658l-2.018 2.183v.512h3.862v-.67h-2.828v-.065l1.356-1.402c1.075-1.112 1.373-1.608 1.373-2.294 0-.968-.798-1.675-1.84-1.675-1.141 0-1.96.761-1.96 1.823Zm5.16 4.283h.711v-2.761c0-.629.45-1.133 1.033-1.133.562 0 .93.34.93.868v3.026h.711v-2.864c0-.567.414-1.03 1.034-1.03.628 0 .938.323.938.98v2.914h.712v-3.08c0-.934-.509-1.455-1.418-1.455-.616 0-1.125.31-1.365.782h-.066c-.207-.463-.628-.782-1.232-.782-.595 0-1.042.286-1.244.782h-.066v-.703h-.678v4.456ZM597.896 167.455h.496v-.715c.976-.075 1.786-.616 1.786-1.613 0-.868-.595-1.306-1.658-1.562l-.128-.029v-1.881c.558.07.955.397 1.009.955h.719c-.029-.914-.773-1.517-1.728-1.604v-.716h-.496v.72c-.98.087-1.679.674-1.679 1.563 0 .814.554 1.273 1.584 1.521l.095.025v1.972c-.715-.079-1.034-.472-1.108-.988h-.719c.029.963.843 1.546 1.827 1.633v.719Zm-.959-4.932c0-.401.331-.781.959-.864v1.757c-.711-.174-.959-.488-.959-.893Zm1.48 1.72c.818.198 1.042.488 1.042.942 0 .476-.298.852-1.067.91v-1.856l.025.004Zm3.092-1.67h.719c0-.707.476-1.175 1.191-1.175.703 0 1.129.472 1.129 1.104 0 .525-.224.835-.984 1.658l-2.018 2.183v.512h3.862v-.669h-2.828v-.066l1.356-1.402c1.075-1.112 1.372-1.608 1.372-2.294 0-.968-.798-1.675-1.839-1.675-1.141 0-1.96.761-1.96 1.824Zm7.756 4.282h.727v-1.236h.848v-.665h-.848v-4.064h-1.079a94.675 94.675 0 0 0-2.555 4.051v.678h2.907v1.236Zm-2.146-1.947a76.953 76.953 0 0 1 2.1-3.328h.05v3.378h-2.15v-.05Zm6.214 1.947h.744v-5.965h-.74l-1.588 1.141v.785l1.518-1.099h.066v5.138Zm2.91.042a.537.537 0 1 0 .003-1.077.537.537 0 0 0-.003 1.077Zm2.927-2.791h.74c.839 0 1.356.43 1.356 1.121 0 .669-.558 1.12-1.344 1.12-.768 0-1.306-.401-1.372-1.029h-.719c.053 1.012.888 1.678 2.1 1.678 1.186 0 2.1-.748 2.1-1.749 0-.831-.513-1.356-1.286-1.48v-.066c.612-.178 1.058-.653 1.063-1.372.004-.835-.674-1.58-1.852-1.58-1.208 0-1.948.716-2.022 1.687h.723c.062-.67.53-1.038 1.249-1.038.719 0 1.145.455 1.145 1.013 0 .62-.488 1.059-1.174 1.059h-.707v.636Zm6.04 2.89c1.22 0 2.051-.843 2.051-2.071 0-1.183-.827-1.968-1.828-1.968-.595 0-1.037.182-1.327.542h-.066l.186-1.943h2.729v-.666h-3.312l-.343 3.411h.699c.235-.443.682-.703 1.248-.703.753 0 1.269.541 1.269 1.348 0 .835-.516 1.397-1.298 1.397-.703 0-1.215-.426-1.281-1.063h-.732c.066 1.021.876 1.716 2.005 1.716Zm3.262-.141h.711v-2.761c0-.629.45-1.133 1.033-1.133.563 0 .931.339.931.868v3.026h.711v-2.864c0-.567.413-1.03 1.033-1.03.629 0 .939.323.939.98v2.914h.711v-3.079c0-.935-.509-1.456-1.418-1.456-.616 0-1.125.31-1.365.782h-.066c-.206-.463-.628-.782-1.232-.782-.595 0-1.041.286-1.244.782h-.066v-.703h-.678v4.456ZM597.896 241.236h.496v-.715c.976-.074 1.786-.616 1.786-1.612 0-.869-.595-1.307-1.658-1.563l-.128-.029v-1.881c.558.07.955.397 1.009.955h.719c-.029-.914-.773-1.517-1.728-1.604v-.715h-.496v.719c-.98.087-1.679.674-1.679 1.563 0 .814.554 1.273 1.584 1.521l.095.025v1.972c-.715-.079-1.034-.471-1.108-.988h-.719c.029.963.843 1.546 1.827 1.633v.719Zm-.959-4.932c0-.401.331-.781.959-.864v1.757c-.711-.173-.959-.488-.959-.893Zm1.48 1.72c.818.198 1.042.488 1.042.943 0 .475-.298.851-1.067.909v-1.856l.025.004Zm4.556 2.613h.744v-5.966h-.74l-1.588 1.141v.786l1.517-1.1h.067v5.139Zm4.634.136c1.224 0 2.092-.856 2.092-2.055 0-1.157-.823-1.996-1.96-1.996-.711 0-1.294.339-1.587.917h-.066c.024-1.62.603-2.447 1.595-2.447.604 0 1.042.31 1.166.864h.765c-.153-.926-.868-1.525-1.955-1.525-1.41 0-2.295 1.174-2.295 3.224 0 2.009.947 3.018 2.245 3.018Zm-.008-.653c-.765 0-1.348-.604-1.348-1.402 0-.789.566-1.351 1.356-1.351.79 0 1.339.562 1.339 1.376 0 .782-.583 1.377-1.347 1.377Zm3.6.558a.537.537 0 1 0 .002-1.076.537.537 0 0 0-.002 1.076Zm3.06-.041h.744v-5.966h-.74l-1.588 1.141v.786l1.518-1.1h.066v5.139Zm3.952 0h.744v-5.966h-.74l-1.587 1.141v.786l1.517-1.1h.066v5.139Zm2.53 0h.711v-2.762c0-.628.451-1.133 1.034-1.133.562 0 .93.339.93.869v3.026h.711v-2.865c0-.567.413-1.03 1.033-1.03.629 0 .939.323.939.98v2.915h.711v-3.08c0-.935-.509-1.455-1.418-1.455-.616 0-1.125.31-1.364.781h-.067c-.206-.463-.628-.781-1.231-.781-.596 0-1.042.285-1.245.781h-.066v-.703h-.678v4.457ZM336.837 165.785c1.265 0 2.149-.715 2.149-1.736 0-.777-.492-1.381-1.24-1.522v-.066c.616-.169.996-.678.996-1.331 0-.93-.789-1.592-1.905-1.592-1.117 0-1.906.662-1.906 1.592 0 .649.388 1.166.996 1.331v.066c-.748.141-1.24.745-1.24 1.522 0 1.021.884 1.736 2.15 1.736Zm0-3.572c-.703 0-1.175-.405-1.175-1.013 0-.616.468-1.025 1.175-1.025.706 0 1.174.409 1.174 1.025 0 .608-.472 1.013-1.174 1.013Zm0 2.935c-.827 0-1.398-.471-1.398-1.153s.571-1.153 1.398-1.153c.826 0 1.397.471 1.397 1.153s-.571 1.153-1.397 1.153Zm4.621-2.253h.74c.84 0 1.356.43 1.356 1.121 0 .669-.558 1.12-1.343 1.12-.769 0-1.307-.401-1.373-1.029h-.719c.054 1.012.889 1.678 2.1 1.678 1.187 0 2.1-.748 2.1-1.749 0-.831-.512-1.356-1.285-1.48v-.066c.611-.178 1.058-.653 1.062-1.372.004-.835-.674-1.58-1.852-1.58-1.207 0-1.947.716-2.022 1.687h.724c.062-.67.529-1.038 1.248-1.038.72 0 1.145.455 1.145 1.013 0 .62-.487 1.059-1.174 1.059h-.707v.636Zm6.061 2.89c1.34 0 2.108-1.133 2.108-3.113 0-1.976-.781-3.134-2.108-3.134-1.335 0-2.117 1.154-2.117 3.122 0 1.984.773 3.125 2.117 3.125Zm0-.649c-.88 0-1.368-.881-1.368-2.476 0-1.575.496-2.468 1.368-2.468.872 0 1.36.884 1.36 2.468 0 1.6-.479 2.476-1.36 2.476Zm3.588.55a.537.537 0 1 0 .003-1.077.537.537 0 0 0-.003 1.077Zm3.597.099c1.34 0 2.109-1.133 2.109-3.113 0-1.976-.782-3.134-2.109-3.134-1.335 0-2.116 1.154-2.116 3.122 0 1.984.773 3.125 2.116 3.125Zm0-.649c-.88 0-1.368-.881-1.368-2.476 0-1.575.496-2.468 1.368-2.468.872 0 1.36.884 1.36 2.468 0 1.6-.479 2.476-1.36 2.476Zm3.291-3.774h.719c0-.707.476-1.175 1.191-1.175.703 0 1.128.472 1.128 1.104 0 .525-.223.835-.983 1.658l-2.018 2.183v.513h3.861v-.67h-2.827v-.066l1.356-1.402c1.075-1.112 1.372-1.608 1.372-2.294 0-.968-.798-1.675-1.84-1.675-1.141 0-1.959.761-1.959 1.824Zm5.978 1.773h-.066v-3.716h-.711v6.226h.711v-1.691l.426-.397 1.67 2.088h.905l-2.046-2.547 1.918-1.91h-.872l-1.935 1.947ZM336.907 240.168c1.224 0 2.092-.856 2.092-2.055 0-1.158-.823-1.997-1.96-1.997-.711 0-1.294.339-1.587.918h-.067c.025-1.621.604-2.447 1.596-2.447.604 0 1.042.31 1.166.864h.765c-.153-.926-.868-1.526-1.956-1.526-1.409 0-2.294 1.174-2.294 3.225 0 2.009.947 3.018 2.245 3.018Zm-.008-.654c-.765 0-1.348-.603-1.348-1.401 0-.79.566-1.352 1.356-1.352.789 0 1.339.562 1.339 1.377 0 .781-.583 1.376-1.347 1.376Zm4.725.517h.744v-5.965h-.74l-1.588 1.141v.785l1.518-1.099h.066v5.138Zm2.91.042a.54.54 0 0 0 .538-.538.538.538 0 0 0-1.075 0c0 .294.244.538.537.538Zm3.059-.042h.745v-5.965h-.74l-1.588 1.141v.785l1.517-1.099h.066v5.138Zm3.779-2.749h.74c.839 0 1.356.43 1.356 1.12 0 .67-.558 1.121-1.344 1.121-.768 0-1.306-.401-1.372-1.03h-.719c.053 1.013.888 1.679 2.1 1.679 1.186 0 2.1-.748 2.1-1.749 0-.831-.513-1.356-1.286-1.48v-.066c.612-.178 1.059-.653 1.063-1.373.004-.835-.674-1.579-1.852-1.579-1.208 0-1.948.715-2.022 1.687h.723c.062-.67.53-1.038 1.249-1.038.719 0 1.145.455 1.145 1.013 0 .62-.488 1.058-1.174 1.058h-.707v.637Zm4.878.24h-.066v-3.717h-.711v6.226h.711v-1.691l.426-.396 1.67 2.087h.906l-2.047-2.546 1.918-1.91h-.872l-1.935 1.947ZM453.357 166.248h.496v-.715c.976-.075 1.786-.616 1.786-1.613 0-.868-.595-1.306-1.658-1.562l-.128-.029v-1.881c.558.07.955.397 1.009.955h.719c-.029-.914-.773-1.518-1.728-1.604v-.716h-.496v.72c-.98.087-1.679.674-1.679 1.562 0 .815.554 1.274 1.584 1.522l.095.025v1.972c-.715-.079-1.034-.472-1.108-.988h-.719c.028.963.843 1.546 1.827 1.633v.719Zm-.959-4.932c0-.401.33-.781.959-.864v1.757c-.711-.174-.959-.488-.959-.893Zm1.48 1.72c.818.198 1.042.488 1.042.942 0 .476-.298.852-1.067.91v-1.856l.025.004Zm3.092-1.671h.719c0-.706.476-1.174 1.191-1.174.703 0 1.129.472 1.129 1.104 0 .525-.224.835-.984 1.658l-2.018 2.183v.512h3.862v-.669h-2.828v-.066l1.356-1.402c1.075-1.112 1.372-1.608 1.372-2.294 0-.968-.798-1.675-1.839-1.675-1.141 0-1.96.761-1.96 1.823Zm7.061 4.42c1.459 0 2.295-1.174 2.295-3.225 0-2.03-.96-3.018-2.245-3.018-1.224 0-2.092.856-2.092 2.055 0 1.158.823 1.997 1.959 1.997.712 0 1.294-.339 1.588-.918h.066c-.041 1.588-.591 2.447-1.563 2.447-.587 0-1.041-.326-1.199-.864h-.764c.186.939.942 1.526 1.955 1.526Zm.05-2.836c-.79 0-1.34-.562-1.34-1.377 0-.781.583-1.376 1.348-1.376.765 0 1.348.603 1.348 1.401 0 .79-.567 1.352-1.356 1.352Zm5.448 2.84c1.34 0 2.109-1.133 2.109-3.113 0-1.976-.781-3.134-2.109-3.134-1.335 0-2.116 1.154-2.116 3.122 0 1.984.773 3.125 2.116 3.125Zm0-.649c-.88 0-1.368-.881-1.368-2.476 0-1.575.496-2.468 1.368-2.468.873 0 1.361.884 1.361 2.468 0 1.6-.48 2.476-1.361 2.476Zm3.589.55a.539.539 0 0 0 0-1.075.54.54 0 0 0-.538.537c0 .294.244.538.538.538Zm2.17-.042h.782l2.654-5.275v-.69h-3.948v.666h3.191v.057l-2.679 5.242Zm4.994 0h.782l2.654-5.275v-.69h-3.948v.666h3.191v.057l-2.679 5.242Z"/><path fill="#D86800" d="m443.175 159.926 2.719 4.829a.912.912 0 0 1-.789 1.36h-5.441a.913.913 0 0 1-.79-1.36l2.719-4.829a.907.907 0 0 1 1.582 0Z"/><circle cx="54.129" cy="265.898" r="3.629" fill="#009990"/><path fill="#000" d="M65.395 263.43c-1.446 0-2.346 1.031-2.346 2.676 0 1.637.88 2.679 2.346 2.679 1.46 0 2.346-1.046 2.346-2.679 0-1.641-.893-2.676-2.346-2.676Zm0 .588c1.045 0 1.69.808 1.69 2.088 0 1.268-.641 2.09-1.69 2.09-1.063 0-1.69-.822-1.69-2.09 0-1.28.648-2.088 1.69-2.088Zm3.374 4.646h.609v-2.367c0-.539.422-.928 1.003-.928.12 0 .34.021.39.035v-.609a2.534 2.534 0 0 0-.305-.018c-.507 0-.946.262-1.06.634h-.056v-.567h-.581v3.82Zm4.23 1.467c1.042 0 1.701-.546 1.701-1.4v-3.887h-.58v.606h-.057c-.22-.411-.691-.673-1.227-.673-.981 0-1.601.776-1.601 1.92 0 1.145.613 1.91 1.602 1.91.524 0 .956-.237 1.197-.659h.057v.751c0 .564-.408.901-1.091.901-.55 0-.89-.202-.957-.514h-.645c.092.63.68 1.045 1.602 1.045Zm-.028-2.062c-.709 0-1.105-.539-1.105-1.372 0-.832.396-1.371 1.105-1.371.705 0 1.134.539 1.134 1.371 0 .833-.425 1.372-1.134 1.372Zm3.94.662c.51 0 .929-.223 1.177-.63h.057v.563h.58v-2.615c0-.794-.52-1.272-1.452-1.272-.815 0-1.417.404-1.499 1.017h.617c.085-.301.404-.475.86-.475.571 0 .865.259.865.73v.347l-1.102.068c-.89.053-1.392.446-1.392 1.13 0 .698.549 1.137 1.29 1.137Zm.114-.535c-.443 0-.773-.226-.773-.616 0-.383.256-.585.837-.624l1.027-.067v.351c0 .545-.464.956-1.091.956Zm2.828.468h.61v-2.261c0-.669.393-1.077 1.002-1.077.61 0 .9.326.9 1.014v2.324h.61v-2.473c0-.907-.479-1.414-1.336-1.414-.585 0-.957.248-1.148.67h-.057v-.603h-.581v3.82Zm4.557-4.557a.426.426 0 0 0 .425-.425.426.426 0 0 0-.85 0c0 .234.19.425.425.425Zm-.305 4.557h.61v-3.82h-.61v3.82Zm4.932-2.65c-.106-.681-.673-1.237-1.601-1.237-1.07 0-1.75.772-1.75 1.963 0 1.215.683 1.991 1.753 1.991.918 0 1.489-.517 1.599-1.219h-.617c-.114.433-.471.67-.985.67-.68 0-1.12-.56-1.12-1.442 0-.865.432-1.414 1.12-1.414.55 0 .886.308.985.688h.616Z"/><rect width="7.257" height="7.257" x="176.289" y="262.27" fill="#6B16CA" rx="1.21"/><path fill="#000" d="M189.037 263.551v5.113h.638v-1.825h1.286c.96 0 1.644-.677 1.644-1.633 0-.975-.67-1.655-1.637-1.655h-1.931Zm.638.567h1.126c.741 0 1.149.386 1.149 1.088 0 .676-.422 1.066-1.149 1.066h-1.126v-2.154Zm4.819 4.613c.51 0 .928-.223 1.176-.63h.057v.563h.581v-2.615c0-.794-.521-1.272-1.453-1.272-.815 0-1.417.404-1.499 1.017h.617c.085-.301.404-.475.861-.475.57 0 .865.259.865.73v.347l-1.102.068c-.89.053-1.393.446-1.393 1.13 0 .698.549 1.137 1.29 1.137Zm.113-.535c-.443 0-.772-.226-.772-.616 0-.383.255-.585.836-.624l1.028-.067v.351c0 .545-.465.956-1.092.956Zm3.147-4.089a.426.426 0 0 0 0-.85.426.426 0 0 0 0 .85Zm-.305 4.557h.61v-3.82h-.61v3.82Zm3.186.067c.528 0 .981-.251 1.222-.676h.057v.609h.581v-5.336h-.609v2.119h-.054c-.216-.419-.666-.67-1.197-.67-.971 0-1.605.779-1.605 1.977 0 1.201.627 1.977 1.605 1.977Zm.141-3.405c.691 0 1.124.553 1.124 1.428 0 .882-.429 1.428-1.124 1.428-.698 0-1.116-.535-1.116-1.428 0-.889.422-1.428 1.116-1.428Zm8.041-.482h-.61v2.261c0 .67-.368 1.07-1.042 1.07-.609 0-.864-.319-.864-1.006v-2.325h-.61v2.474c0 .903.447 1.413 1.304 1.413.585 0 .993-.241 1.184-.666h.057v.599h.581v-3.82Zm1.148 3.82h.609v-2.261c0-.669.394-1.077 1.003-1.077.61 0 .9.326.9 1.014v2.324h.61v-2.473c0-.907-.479-1.414-1.336-1.414-.585 0-.957.248-1.148.67h-.057v-.603h-.581v3.82Zm5.301.067c.51 0 .928-.223 1.176-.63h.057v.563h.581v-2.615c0-.794-.521-1.272-1.453-1.272-.815 0-1.417.404-1.499 1.017h.617c.085-.301.404-.475.861-.475.571 0 .865.259.865.73v.347l-1.102.068c-.89.053-1.393.446-1.393 1.13 0 .698.549 1.137 1.29 1.137Zm.113-.535c-.443 0-.772-.226-.772-.616 0-.383.255-.585.836-.624l1.028-.067v.351c0 .545-.464.956-1.092.956Zm2.74-2.307c0 .553.326.862 1.041 1.035l.656.16c.407.099.606.276.606.538 0 .351-.369.596-.883.596-.489 0-.793-.206-.896-.528h-.627c.067.634.652 1.041 1.502 1.041.868 0 1.531-.471 1.531-1.155 0-.549-.347-.861-1.067-1.035l-.588-.141c-.45-.11-.662-.273-.662-.535 0-.341.354-.571.807-.571.461 0 .759.202.84.507h.603c-.082-.627-.638-1.024-1.439-1.024-.811 0-1.424.478-1.424 1.112Zm3.727 0c0 .553.326.862 1.042 1.035l.656.16c.407.099.606.276.606.538 0 .351-.369.596-.883.596-.489 0-.794-.206-.896-.528h-.627c.067.634.652 1.041 1.502 1.041.868 0 1.531-.471 1.531-1.155 0-.549-.347-.861-1.067-1.035l-.588-.141c-.45-.11-.663-.273-.663-.535 0-.341.355-.571.808-.571.461 0 .759.202.84.507h.602c-.081-.627-.637-1.024-1.438-1.024-.812 0-1.425.478-1.425 1.112Zm4.206-1.782a.427.427 0 0 0 .426-.425.427.427 0 0 0-.426-.425.427.427 0 0 0-.425.425c0 .234.192.425.425.425Zm-.304 4.557h.609v-3.82h-.609v3.82Zm1.683-2.775c0 .553.326.862 1.042 1.035l.655.16c.408.099.606.276.606.538 0 .351-.368.596-.882.596-.489 0-.794-.206-.897-.528h-.627c.067.634.652 1.041 1.503 1.041.868 0 1.53-.471 1.53-1.155 0-.549-.347-.861-1.066-1.035l-.588-.141c-.45-.11-.663-.273-.663-.535 0-.341.354-.571.808-.571.461 0 .758.202.84.507h.602c-.081-.627-.638-1.024-1.439-1.024-.811 0-1.424.478-1.424 1.112Zm4.107-2.034v.989h-.617v.51h.617v2.318c0 .73.315 1.02 1.102 1.02.12 0 .237-.014.358-.035v-.514a2.5 2.5 0 0 1-.284.014c-.397 0-.567-.191-.567-.641v-2.162h.851v-.51h-.851v-.989h-.609Zm4.854 3.82c-.159.337-.492.518-.985.518-.648 0-1.07-.479-1.102-1.233v-.029h2.747v-.234c0-1.187-.628-1.92-1.659-1.92-1.049 0-1.722.779-1.722 1.981 0 1.208.663 1.973 1.722 1.973.836 0 1.432-.404 1.609-1.056h-.61Zm-1.006-2.36c.606 0 1.01.447 1.024 1.124h-2.105c.046-.677.472-1.124 1.081-1.124Zm4.036 3.416c.528 0 .982-.251 1.223-.676h.056v.609h.582v-5.336h-.61v2.119h-.053c-.216-.419-.666-.67-1.198-.67-.971 0-1.605.779-1.605 1.977 0 1.201.627 1.977 1.605 1.977Zm.142-3.405c.691 0 1.123.553 1.123 1.428 0 .882-.429 1.428-1.123 1.428-.698 0-1.116-.535-1.116-1.428 0-.889.421-1.428 1.116-1.428ZM117.07 263.551v5.113h.638v-1.825h1.286c.96 0 1.644-.677 1.644-1.633 0-.975-.669-1.655-1.637-1.655h-1.931Zm.638.567h1.127c.74 0 1.148.386 1.148 1.088 0 .676-.422 1.066-1.148 1.066h-1.127v-2.154Zm4.819 4.613c.51 0 .928-.223 1.176-.63h.057v.563h.581v-2.615c0-.794-.521-1.272-1.453-1.272-.815 0-1.417.404-1.498 1.017h.616c.085-.301.404-.475.861-.475.571 0 .865.259.865.73v.347l-1.102.068c-.89.053-1.393.446-1.393 1.13 0 .698.549 1.137 1.29 1.137Zm.113-.535c-.443 0-.772-.226-.772-.616 0-.383.255-.585.836-.624l1.028-.067v.351c0 .545-.464.956-1.092.956Zm3.147-4.089a.426.426 0 0 0 0-.85.426.426 0 0 0 0 .85Zm-.305 4.557h.61v-3.82h-.61v3.82Zm3.186.067c.528 0 .981-.251 1.222-.676h.057v.609h.581v-5.336h-.609v2.119h-.053c-.217-.419-.667-.67-1.198-.67-.971 0-1.605.779-1.605 1.977 0 1.201.627 1.977 1.605 1.977Zm.142-3.405c.691 0 1.123.553 1.123 1.428 0 .882-.429 1.428-1.123 1.428-.698 0-1.117-.535-1.117-1.428 0-.889.422-1.428 1.117-1.428Zm6.013 3.405c.51 0 .928-.223 1.176-.63h.057v.563h.581v-2.615c0-.794-.521-1.272-1.453-1.272-.815 0-1.417.404-1.498 1.017h.616c.085-.301.404-.475.861-.475.571 0 .865.259.865.73v.347l-1.102.068c-.89.053-1.393.446-1.393 1.13 0 .698.549 1.137 1.29 1.137Zm.113-.535c-.443 0-.772-.226-.772-.616 0-.383.255-.585.836-.624l1.028-.067v.351c0 .545-.464.956-1.092.956Zm2.74-2.307c0 .553.326.862 1.041 1.035l.656.16c.407.099.606.276.606.538 0 .351-.369.596-.882.596-.489 0-.794-.206-.897-.528h-.627c.067.634.652 1.041 1.502 1.041.868 0 1.531-.471 1.531-1.155 0-.549-.347-.861-1.067-1.035l-.588-.141c-.45-.11-.662-.273-.662-.535 0-.341.354-.571.808-.571.46 0 .758.202.839.507h.603c-.082-.627-.638-1.024-1.439-1.024-.811 0-1.424.478-1.424 1.112Zm3.727 0c0 .553.326.862 1.042 1.035l.656.16c.407.099.606.276.606.538 0 .351-.369.596-.883.596-.489 0-.793-.206-.896-.528h-.627c.067.634.652 1.041 1.502 1.041.868 0 1.531-.471 1.531-1.155 0-.549-.347-.861-1.067-1.035l-.588-.141c-.45-.11-.663-.273-.663-.535 0-.341.355-.571.808-.571.461 0 .759.202.84.507h.603c-.082-.627-.638-1.024-1.439-1.024-.812 0-1.425.478-1.425 1.112Zm4.207-1.782a.427.427 0 0 0 .425-.425.427.427 0 0 0-.425-.425.427.427 0 0 0-.426.425c0 .234.192.425.426.425Zm-.305 4.557h.609v-3.82h-.609v3.82Zm1.683-2.775c0 .553.326.862 1.042 1.035l.655.16c.408.099.606.276.606.538 0 .351-.368.596-.882.596-.489 0-.794-.206-.897-.528h-.627c.068.634.652 1.041 1.503 1.041.868 0 1.53-.471 1.53-1.155 0-.549-.347-.861-1.066-1.035l-.588-.141c-.45-.11-.663-.273-.663-.535 0-.341.354-.571.808-.571.461 0 .758.202.84.507h.602c-.081-.627-.638-1.024-1.439-1.024-.811 0-1.424.478-1.424 1.112Zm4.107-2.034v.989h-.617v.51h.617v2.318c0 .73.315 1.02 1.102 1.02.12 0 .237-.014.358-.035v-.514a2.5 2.5 0 0 1-.284.014c-.396 0-.567-.191-.567-.641v-2.162h.851v-.51h-.851v-.989h-.609Zm4.855 3.82c-.16.337-.493.518-.986.518-.648 0-1.07-.479-1.102-1.233v-.029h2.747v-.234c0-1.187-.628-1.92-1.659-1.92-1.049 0-1.722.779-1.722 1.981 0 1.208.663 1.973 1.722 1.973.837 0 1.432-.404 1.609-1.056h-.609Zm-1.007-2.36c.606 0 1.01.447 1.024 1.124h-2.105c.046-.677.472-1.124 1.081-1.124Zm4.036 3.416c.528 0 .982-.251 1.223-.676h.056v.609h.582v-5.336h-.61v2.119h-.053c-.216-.419-.666-.67-1.198-.67-.971 0-1.605.779-1.605 1.977 0 1.201.627 1.977 1.605 1.977Zm.142-3.405c.691 0 1.123.553 1.123 1.428 0 .882-.428 1.428-1.123 1.428-.698 0-1.116-.535-1.116-1.428 0-.889.421-1.428 1.116-1.428Z"/><path fill="#D86800" d="m108.742 262.732 2.719 4.829a.913.913 0 0 1-.79 1.361h-5.441a.913.913 0 0 1-.789-1.361l2.719-4.829a.907.907 0 0 1 1.582 0Z"/><path fill="#D86800" fill-rule="evenodd" d="M354.406 371.485C342.364 376.747 334 388.746 334 402.663c0 2.593.287 5.099.825 7.496l-31.223 7.009A66.18 66.18 0 0 1 302 402.663c0-27.089 16.318-50.331 39.594-60.501l12.812 29.323Z" clip-rule="evenodd"/><path fill="#6B16CA" fill-rule="evenodd" d="M368 368.664a33.829 33.829 0 0 0-13.594 2.822l-12.812-29.323A65.829 65.829 0 0 1 368 336.664v32Z" clip-rule="evenodd"/><path fill="#009990" fill-rule="evenodd" d="M401.999 402.664c0-18.778-15.222-34-34-34v-32c36.451 0 66 29.549 66 66s-29.549 66-66 66c-31.482 0-57.782-22.027-64.397-51.495l31.222-7.01c3.408 15.177 16.987 26.505 33.175 26.505 18.778 0 34-15.222 34-34Z" clip-rule="evenodd"/><path stroke="#fff" d="m341.461 341.471 13 31M368.5 334.664v36M301.899 417.174l34-7"/><path stroke="#E9E9E9" d="M.5.822h735v507.342H.5z"/></svg>