<svg width="736" height="756" viewBox="0 0 736 756" fill="none" xmlns="http://www.w3.org/2000/svg">
<path d="M75.3818 53H77.6172L74.1924 43.1357H71.7656L68.3408 53H70.4121L71.1709 50.6074H74.6367L75.3818 53ZM72.8525 45.1387H72.9756L74.1992 49.0625H71.6152L72.8525 45.1387ZM82.0127 55.8506C84.2891 55.8506 85.7314 54.7432 85.7314 52.9863V45.4736H83.8037V46.6768H83.6807C83.2773 45.8564 82.4092 45.3506 81.3906 45.3506C79.4766 45.3506 78.3008 46.8408 78.3008 49.1719C78.3008 51.4277 79.4697 52.8906 81.3496 52.8906C82.4092 52.8906 83.2021 52.46 83.6191 51.667H83.7422V53.0684C83.7422 53.9365 83.1201 54.4424 82.0537 54.4424C81.1924 54.4424 80.6318 54.1416 80.5293 53.6631H78.5605C78.6836 54.9824 80.0098 55.8506 82.0127 55.8506ZM82.04 51.3662C80.96 51.3662 80.3447 50.5186 80.3447 49.165C80.3447 47.8115 80.9668 46.9639 82.04 46.9639C83.1133 46.9639 83.7627 47.8115 83.7627 49.165C83.7627 50.5186 83.1201 51.3662 82.04 51.3662ZM92.6016 50.874C92.3896 51.3867 91.8496 51.6738 91.0635 51.6738C90.0244 51.6738 89.3682 50.9561 89.3408 49.8076V49.7051H94.5156V49.1104C94.5156 46.7314 93.2031 45.3096 90.9814 45.3096C88.7393 45.3096 87.3584 46.8271 87.3584 49.2744C87.3584 51.708 88.7119 53.1572 91.0088 53.1572C92.8545 53.1572 94.1602 52.2754 94.4541 50.874H92.6016ZM90.9883 46.793C91.918 46.793 92.5195 47.4355 92.5605 48.4678H89.3477C89.416 47.4561 90.0654 46.793 90.9883 46.793Z" fill="black"/>
<path d="M134.602 387H135.656V378.545H134.607L132.357 380.162V381.275L134.508 379.717H134.602V387ZM141.07 387.199C142.863 387.199 144.117 386.186 144.117 384.738C144.117 383.637 143.42 382.781 142.359 382.582V382.488C143.232 382.248 143.771 381.527 143.771 380.602C143.771 379.283 142.652 378.346 141.07 378.346C139.488 378.346 138.369 379.283 138.369 380.602C138.369 381.521 138.92 382.254 139.781 382.488V382.582C138.721 382.781 138.023 383.637 138.023 384.738C138.023 386.186 139.277 387.199 141.07 387.199ZM141.07 382.137C140.074 382.137 139.406 381.562 139.406 380.701C139.406 379.828 140.068 379.248 141.07 379.248C142.072 379.248 142.734 379.828 142.734 380.701C142.734 381.562 142.066 382.137 141.07 382.137ZM141.07 386.297C139.898 386.297 139.09 385.629 139.09 384.662C139.09 383.695 139.898 383.027 141.07 383.027C142.242 383.027 143.051 383.695 143.051 384.662C143.051 385.629 142.242 386.297 141.07 386.297ZM149.654 384.076V383.121H145.811V384.076H149.654ZM151.453 380.93H152.473C152.473 379.928 153.146 379.266 154.16 379.266C155.156 379.266 155.76 379.934 155.76 380.83C155.76 381.574 155.443 382.014 154.365 383.18L151.506 386.273V387H156.979V386.051H152.971V385.957L154.893 383.971C156.416 382.395 156.838 381.691 156.838 380.719C156.838 379.348 155.707 378.346 154.23 378.346C152.613 378.346 151.453 379.424 151.453 380.93ZM162.445 387H163.477V385.248H164.678V384.305H163.477V378.545H161.947C160.764 380.309 159.469 382.371 158.326 384.287V385.248H162.445V387ZM159.404 384.24C160.324 382.688 161.432 380.941 162.381 379.523H162.451V384.311H159.404V384.24Z" fill="var(--color-text-default)"/>
<path d="M215.096 380.93H216.115C216.115 379.928 216.789 379.266 217.803 379.266C218.799 379.266 219.402 379.934 219.402 380.83C219.402 381.574 219.086 382.014 218.008 383.18L215.148 386.273V387H220.621V386.051H216.613V385.957L218.535 383.971C220.059 382.395 220.48 381.691 220.48 380.719C220.48 379.348 219.35 378.346 217.873 378.346C216.256 378.346 215.096 379.424 215.096 380.93ZM225.215 387.199C226.943 387.199 228.121 386.004 228.121 384.264C228.121 382.588 226.949 381.475 225.531 381.475C224.688 381.475 224.061 381.732 223.65 382.242H223.557L223.82 379.488H227.688V378.545H222.994L222.508 383.379H223.498C223.832 382.752 224.465 382.383 225.268 382.383C226.334 382.383 227.066 383.15 227.066 384.293C227.066 385.477 226.334 386.273 225.227 386.273C224.23 386.273 223.504 385.67 223.41 384.768H222.373C222.467 386.215 223.615 387.199 225.215 387.199ZM233.641 384.076V383.121H229.797V384.076H233.641ZM237.268 383.104H238.316C239.506 383.104 240.238 383.713 240.238 384.691C240.238 385.641 239.447 386.279 238.334 386.279C237.244 386.279 236.482 385.711 236.389 384.82H235.369C235.445 386.256 236.629 387.199 238.346 387.199C240.027 387.199 241.322 386.139 241.322 384.721C241.322 383.543 240.596 382.799 239.5 382.623V382.529C240.367 382.277 241 381.604 241.006 380.584C241.012 379.4 240.051 378.346 238.381 378.346C236.67 378.346 235.621 379.359 235.516 380.736H236.541C236.629 379.787 237.291 379.266 238.311 379.266C239.33 379.266 239.934 379.91 239.934 380.701C239.934 381.58 239.242 382.201 238.27 382.201H237.268V383.104ZM246.877 387H247.908V385.248H249.109V384.305H247.908V378.545H246.379C245.195 380.309 243.9 382.371 242.758 384.287V385.248H246.877V387ZM243.836 384.24C244.756 382.688 245.863 380.941 246.812 379.523H246.883V384.311H243.836V384.24Z" fill="var(--color-text-default)"/>
<path d="M298.689 384.104H299.738C300.928 384.104 301.66 384.713 301.66 385.691C301.66 386.641 300.869 387.279 299.756 387.279C298.666 387.279 297.904 386.711 297.811 385.82H296.791C296.867 387.256 298.051 388.199 299.768 388.199C301.449 388.199 302.744 387.139 302.744 385.721C302.744 384.543 302.018 383.799 300.922 383.623V383.529C301.789 383.277 302.422 382.604 302.428 381.584C302.434 380.4 301.473 379.346 299.803 379.346C298.092 379.346 297.043 380.359 296.938 381.736H297.963C298.051 380.787 298.713 380.266 299.732 380.266C300.752 380.266 301.355 380.91 301.355 381.701C301.355 382.58 300.664 383.201 299.691 383.201H298.689V384.104ZM307.25 388.199C308.979 388.199 310.156 387.004 310.156 385.264C310.156 383.588 308.984 382.475 307.566 382.475C306.723 382.475 306.096 382.732 305.686 383.242H305.592L305.855 380.488H309.723V379.545H305.029L304.543 384.379H305.533C305.867 383.752 306.5 383.383 307.303 383.383C308.369 383.383 309.102 384.15 309.102 385.293C309.102 386.477 308.369 387.273 307.262 387.273C306.266 387.273 305.539 386.67 305.445 385.768H304.408C304.502 387.215 305.65 388.199 307.25 388.199ZM315.676 385.076V384.121H311.832V385.076H315.676ZM321.389 388H322.42V386.248H323.621V385.305H322.42V379.545H320.891C319.707 381.309 318.412 383.371 317.27 385.287V386.248H321.389V388ZM318.348 385.24C319.268 383.688 320.375 381.941 321.324 380.523H321.395V385.311H318.348V385.24ZM329.111 388H330.143V386.248H331.344V385.305H330.143V379.545H328.613C327.43 381.309 326.135 383.371 324.992 385.287V386.248H329.111V388ZM326.07 385.24C326.99 383.688 328.098 381.941 329.047 380.523H329.117V385.311H326.07V385.24Z" fill="var(--color-text-default)"/>
<path d="M385.711 388H386.742V386.248H387.943V385.305H386.742V379.545H385.213C384.029 381.309 382.734 383.371 381.592 385.287V386.248H385.711V388ZM382.67 385.24C383.59 383.688 384.697 381.941 385.646 380.523H385.717V385.311H382.67V385.24ZM392.385 388.199C394.113 388.199 395.291 387.004 395.291 385.264C395.291 383.588 394.119 382.475 392.701 382.475C391.857 382.475 391.23 382.732 390.82 383.242H390.727L390.99 380.488H394.857V379.545H390.164L389.678 384.379H390.668C391.002 383.752 391.635 383.383 392.438 383.383C393.504 383.383 394.236 384.15 394.236 385.293C394.236 386.477 393.504 387.273 392.396 387.273C391.4 387.273 390.674 386.67 390.58 385.768H389.543C389.637 387.215 390.785 388.199 392.385 388.199ZM400.811 385.076V384.121H396.967V385.076H400.811ZM406.523 388H407.555V386.248H408.756V385.305H407.555V379.545H406.025C404.842 381.309 403.547 383.371 402.404 385.287V386.248H406.523V388ZM403.482 385.24C404.402 383.688 405.51 381.941 406.459 380.523H406.529V385.311H403.482V385.24ZM413.086 388.193C415.154 388.193 416.338 386.529 416.338 383.623C416.338 380.746 414.979 379.346 413.156 379.346C411.422 379.346 410.191 380.559 410.191 382.258C410.191 383.898 411.357 385.088 412.969 385.088C413.977 385.088 414.803 384.607 415.219 383.787H415.312C415.254 386.037 414.475 387.256 413.098 387.256C412.266 387.256 411.621 386.793 411.398 386.031H410.314C410.578 387.361 411.65 388.193 413.086 388.193ZM413.156 384.174C412.037 384.174 411.258 383.377 411.258 382.223C411.258 381.115 412.084 380.271 413.168 380.271C414.252 380.271 415.078 381.127 415.078 382.258C415.078 383.377 414.275 384.174 413.156 384.174Z" fill="var(--color-text-default)"/>
<path d="M467.855 388.199C469.584 388.199 470.762 387.004 470.762 385.264C470.762 383.588 469.59 382.475 468.172 382.475C467.328 382.475 466.701 382.732 466.291 383.242H466.197L466.461 380.488H470.328V379.545H465.635L465.148 384.379H466.139C466.473 383.752 467.105 383.383 467.908 383.383C468.975 383.383 469.707 384.15 469.707 385.293C469.707 386.477 468.975 387.273 467.867 387.273C466.871 387.273 466.145 386.67 466.051 385.768H465.014C465.107 387.215 466.256 388.199 467.855 388.199ZM475.314 388.199C477.213 388.199 478.303 386.594 478.303 383.787C478.303 380.986 477.195 379.346 475.314 379.346C473.422 379.346 472.314 380.98 472.314 383.77C472.314 386.582 473.41 388.199 475.314 388.199ZM475.314 387.279C474.066 387.279 473.375 386.031 473.375 383.77C473.375 381.537 474.078 380.271 475.314 380.271C476.551 380.271 477.242 381.525 477.242 383.77C477.242 386.037 476.562 387.279 475.314 387.279ZM483.84 385.076V384.121H479.996V385.076H483.84ZM488.504 388.199C490.232 388.199 491.41 387.004 491.41 385.264C491.41 383.588 490.238 382.475 488.82 382.475C487.977 382.475 487.35 382.732 486.939 383.242H486.846L487.109 380.488H490.977V379.545H486.283L485.797 384.379H486.787C487.121 383.752 487.754 383.383 488.557 383.383C489.623 383.383 490.355 384.15 490.355 385.293C490.355 386.477 489.623 387.273 488.516 387.273C487.52 387.273 486.793 386.67 486.699 385.768H485.662C485.756 387.215 486.904 388.199 488.504 388.199ZM496.982 388H498.014V386.248H499.215V385.305H498.014V379.545H496.484C495.301 381.309 494.006 383.371 492.863 385.287V386.248H496.982V388ZM493.941 385.24C494.861 383.688 495.969 381.941 496.918 380.523H496.988V385.311H493.941V385.24Z" fill="var(--color-text-default)"/>
<path d="M552.809 389.199C554.537 389.199 555.715 388.004 555.715 386.264C555.715 384.588 554.543 383.475 553.125 383.475C552.281 383.475 551.654 383.732 551.244 384.242H551.15L551.414 381.488H555.281V380.545H550.588L550.102 385.379H551.092C551.426 384.752 552.059 384.383 552.861 384.383C553.928 384.383 554.66 385.15 554.66 386.293C554.66 387.477 553.928 388.273 552.82 388.273C551.824 388.273 551.098 387.67 551.004 386.768H549.967C550.061 388.215 551.209 389.199 552.809 389.199ZM560.238 389.199C561.967 389.199 563.145 388.004 563.145 386.264C563.145 384.588 561.973 383.475 560.555 383.475C559.711 383.475 559.084 383.732 558.674 384.242H558.58L558.844 381.488H562.711V380.545H558.018L557.531 385.379H558.521C558.855 384.752 559.488 384.383 560.291 384.383C561.357 384.383 562.09 385.15 562.09 386.293C562.09 387.477 561.357 388.273 560.25 388.273C559.254 388.273 558.527 387.67 558.434 386.768H557.396C557.49 388.215 558.639 389.199 560.238 389.199ZM568.664 386.076V385.121H564.82V386.076H568.664ZM573.504 389.193C575.238 389.193 576.469 387.98 576.469 386.281C576.469 384.641 575.303 383.451 573.691 383.451C572.684 383.451 571.857 383.932 571.441 384.752H571.348C571.383 382.455 572.203 381.283 573.609 381.283C574.465 381.283 575.086 381.723 575.262 382.508H576.346C576.129 381.195 575.115 380.346 573.574 380.346C571.576 380.346 570.322 382.01 570.322 384.916C570.322 387.764 571.664 389.193 573.504 389.193ZM573.492 388.268C572.408 388.268 571.582 387.412 571.582 386.281C571.582 385.162 572.385 384.365 573.504 384.365C574.623 384.365 575.402 385.162 575.402 386.316C575.402 387.424 574.576 388.268 573.492 388.268ZM582.029 389H583.061V387.248H584.262V386.305H583.061V380.545H581.531C580.348 382.309 579.053 384.371 577.91 386.287V387.248H582.029V389ZM578.988 386.24C579.908 384.688 581.016 382.941 581.965 381.523H582.035V386.311H578.988V386.24Z" fill="var(--color-text-default)"/>
<path d="M648.5 388.193C650.234 388.193 651.465 386.98 651.465 385.281C651.465 383.641 650.299 382.451 648.688 382.451C647.68 382.451 646.854 382.932 646.438 383.752H646.344C646.379 381.455 647.199 380.283 648.605 380.283C649.461 380.283 650.082 380.723 650.258 381.508H651.342C651.125 380.195 650.111 379.346 648.57 379.346C646.572 379.346 645.318 381.01 645.318 383.916C645.318 386.764 646.66 388.193 648.5 388.193ZM648.488 387.268C647.404 387.268 646.578 386.412 646.578 385.281C646.578 384.162 647.381 383.365 648.5 383.365C649.619 383.365 650.398 384.162 650.398 385.316C650.398 386.424 649.572 387.268 648.488 387.268ZM655.977 388.199C657.705 388.199 658.883 387.004 658.883 385.264C658.883 383.588 657.711 382.475 656.293 382.475C655.449 382.475 654.822 382.732 654.412 383.242H654.318L654.582 380.488H658.449V379.545H653.756L653.27 384.379H654.26C654.594 383.752 655.227 383.383 656.029 383.383C657.096 383.383 657.828 384.15 657.828 385.293C657.828 386.477 657.096 387.273 655.988 387.273C654.992 387.273 654.266 386.67 654.172 385.768H653.135C653.229 387.215 654.377 388.199 655.977 388.199ZM664.016 385.141H666.371V384.191H664.016V381.719H663.066V384.191H660.711V385.141H663.066V387.613H664.016V385.141Z" fill="var(--color-text-default)"/>
<path d="M70.668 86H71.7227V77.5449H70.6738L68.4238 79.1621V80.2754L70.5742 78.7168H70.668V86ZM77.0898 86.1992C78.9883 86.1992 80.0781 84.5938 80.0781 81.7871C80.0781 78.9863 78.9707 77.3457 77.0898 77.3457C75.1973 77.3457 74.0898 78.9805 74.0898 81.7695C74.0898 84.582 75.1855 86.1992 77.0898 86.1992ZM77.0898 85.2793C75.8418 85.2793 75.1504 84.0312 75.1504 81.7695C75.1504 79.5371 75.8535 78.2715 77.0898 78.2715C78.3262 78.2715 79.0176 79.5254 79.0176 81.7695C79.0176 84.0371 78.3379 85.2793 77.0898 85.2793ZM84.6484 86.1992C86.5469 86.1992 87.6367 84.5938 87.6367 81.7871C87.6367 78.9863 86.5293 77.3457 84.6484 77.3457C82.7559 77.3457 81.6484 78.9805 81.6484 81.7695C81.6484 84.582 82.7441 86.1992 84.6484 86.1992ZM84.6484 85.2793C83.4004 85.2793 82.709 84.0312 82.709 81.7695C82.709 79.5371 83.4121 78.2715 84.6484 78.2715C85.8848 78.2715 86.5762 79.5254 86.5762 81.7695C86.5762 84.0371 85.8965 85.2793 84.6484 85.2793ZM90.6367 81.3711C91.7793 81.3711 92.4707 80.627 92.4707 79.3789C92.4707 78.1484 91.7734 77.3926 90.6367 77.3926C89.5 77.3926 88.7969 78.1484 88.7969 79.3789C88.7969 80.6211 89.4883 81.3711 90.6367 81.3711ZM91.0176 86L96.8594 77.5449H95.9043L90.0625 86H91.0176ZM90.6367 80.6035C90.0449 80.6035 89.7051 80.1582 89.7051 79.3848C89.7051 78.6172 90.0449 78.166 90.6367 78.166C91.2227 78.166 91.5625 78.6172 91.5625 79.3848C91.5625 80.1523 91.2285 80.6035 90.6367 80.6035ZM96.291 86.082C97.4336 86.082 98.125 85.3379 98.125 84.0898C98.125 82.8594 97.4277 82.1035 96.291 82.1035C95.1543 82.1035 94.4512 82.8594 94.4512 84.0898C94.4512 85.332 95.1484 86.082 96.291 86.082ZM96.291 85.3145C95.6992 85.3145 95.3652 84.8691 95.3652 84.0957C95.3652 83.3281 95.6992 82.877 96.291 82.877C96.8828 82.877 97.2168 83.3281 97.2168 84.0957C97.2168 84.8633 96.8828 85.3145 96.291 85.3145ZM76.8555 114.193C78.9238 114.193 80.1074 112.529 80.1074 109.623C80.1074 106.746 78.748 105.346 76.9258 105.346C75.1914 105.346 73.9609 106.559 73.9609 108.258C73.9609 109.898 75.127 111.088 76.7383 111.088C77.7461 111.088 78.5723 110.607 78.9883 109.787H79.082C79.0234 112.037 78.2441 113.256 76.8672 113.256C76.0352 113.256 75.3906 112.793 75.168 112.031H74.084C74.3477 113.361 75.4199 114.193 76.8555 114.193ZM76.9258 110.174C75.8066 110.174 75.0273 109.377 75.0273 108.223C75.0273 107.115 75.8535 106.271 76.9375 106.271C78.0215 106.271 78.8477 107.127 78.8477 108.258C78.8477 109.377 78.0449 110.174 76.9258 110.174ZM84.6484 114.199C86.5469 114.199 87.6367 112.594 87.6367 109.787C87.6367 106.986 86.5293 105.346 84.6484 105.346C82.7559 105.346 81.6484 106.98 81.6484 109.77C81.6484 112.582 82.7441 114.199 84.6484 114.199ZM84.6484 113.279C83.4004 113.279 82.709 112.031 82.709 109.77C82.709 107.537 83.4121 106.271 84.6484 106.271C85.8848 106.271 86.5762 107.525 86.5762 109.77C86.5762 112.037 85.8965 113.279 84.6484 113.279ZM90.6367 109.371C91.7793 109.371 92.4707 108.627 92.4707 107.379C92.4707 106.148 91.7734 105.393 90.6367 105.393C89.5 105.393 88.7969 106.148 88.7969 107.379C88.7969 108.621 89.4883 109.371 90.6367 109.371ZM91.0176 114L96.8594 105.545H95.9043L90.0625 114H91.0176ZM90.6367 108.604C90.0449 108.604 89.7051 108.158 89.7051 107.385C89.7051 106.617 90.0449 106.166 90.6367 106.166C91.2227 106.166 91.5625 106.617 91.5625 107.385C91.5625 108.152 91.2285 108.604 90.6367 108.604ZM96.291 114.082C97.4336 114.082 98.125 113.338 98.125 112.09C98.125 110.859 97.4277 110.104 96.291 110.104C95.1543 110.104 94.4512 110.859 94.4512 112.09C94.4512 113.332 95.1484 114.082 96.291 114.082ZM96.291 113.314C95.6992 113.314 95.3652 112.869 95.3652 112.096C95.3652 111.328 95.6992 110.877 96.291 110.877C96.8828 110.877 97.2168 111.328 97.2168 112.096C97.2168 112.863 96.8828 113.314 96.291 113.314ZM77.0312 142.199C78.8242 142.199 80.0781 141.186 80.0781 139.738C80.0781 138.637 79.3809 137.781 78.3203 137.582V137.488C79.1934 137.248 79.7324 136.527 79.7324 135.602C79.7324 134.283 78.6133 133.346 77.0312 133.346C75.4492 133.346 74.3301 134.283 74.3301 135.602C74.3301 136.521 74.8809 137.254 75.7422 137.488V137.582C74.6816 137.781 73.9844 138.637 73.9844 139.738C73.9844 141.186 75.2383 142.199 77.0312 142.199ZM77.0312 137.137C76.0352 137.137 75.3672 136.562 75.3672 135.701C75.3672 134.828 76.0293 134.248 77.0312 134.248C78.0332 134.248 78.6953 134.828 78.6953 135.701C78.6953 136.562 78.0273 137.137 77.0312 137.137ZM77.0312 141.297C75.8594 141.297 75.0508 140.629 75.0508 139.662C75.0508 138.695 75.8594 138.027 77.0312 138.027C78.2031 138.027 79.0117 138.695 79.0117 139.662C79.0117 140.629 78.2031 141.297 77.0312 141.297ZM84.6484 142.199C86.5469 142.199 87.6367 140.594 87.6367 137.787C87.6367 134.986 86.5293 133.346 84.6484 133.346C82.7559 133.346 81.6484 134.98 81.6484 137.77C81.6484 140.582 82.7441 142.199 84.6484 142.199ZM84.6484 141.279C83.4004 141.279 82.709 140.031 82.709 137.77C82.709 135.537 83.4121 134.271 84.6484 134.271C85.8848 134.271 86.5762 135.525 86.5762 137.77C86.5762 140.037 85.8965 141.279 84.6484 141.279ZM90.6367 137.371C91.7793 137.371 92.4707 136.627 92.4707 135.379C92.4707 134.148 91.7734 133.393 90.6367 133.393C89.5 133.393 88.7969 134.148 88.7969 135.379C88.7969 136.621 89.4883 137.371 90.6367 137.371ZM91.0176 142L96.8594 133.545H95.9043L90.0625 142H91.0176ZM90.6367 136.604C90.0449 136.604 89.7051 136.158 89.7051 135.385C89.7051 134.617 90.0449 134.166 90.6367 134.166C91.2227 134.166 91.5625 134.617 91.5625 135.385C91.5625 136.152 91.2285 136.604 90.6367 136.604ZM96.291 142.082C97.4336 142.082 98.125 141.338 98.125 140.09C98.125 138.859 97.4277 138.104 96.291 138.104C95.1543 138.104 94.4512 138.859 94.4512 140.09C94.4512 141.332 95.1484 142.082 96.291 142.082ZM96.291 141.314C95.6992 141.314 95.3652 140.869 95.3652 140.096C95.3652 139.328 95.6992 138.877 96.291 138.877C96.8828 138.877 97.2168 139.328 97.2168 140.096C97.2168 140.863 96.8828 141.314 96.291 141.314ZM75.4902 170H76.5977L80.3594 162.523V161.545H74.7637V162.488H79.2871V162.57L75.4902 170ZM84.6484 170.199C86.5469 170.199 87.6367 168.594 87.6367 165.787C87.6367 162.986 86.5293 161.346 84.6484 161.346C82.7559 161.346 81.6484 162.98 81.6484 165.77C81.6484 168.582 82.7441 170.199 84.6484 170.199ZM84.6484 169.279C83.4004 169.279 82.709 168.031 82.709 165.77C82.709 163.537 83.4121 162.271 84.6484 162.271C85.8848 162.271 86.5762 163.525 86.5762 165.77C86.5762 168.037 85.8965 169.279 84.6484 169.279ZM90.6367 165.371C91.7793 165.371 92.4707 164.627 92.4707 163.379C92.4707 162.148 91.7734 161.393 90.6367 161.393C89.5 161.393 88.7969 162.148 88.7969 163.379C88.7969 164.621 89.4883 165.371 90.6367 165.371ZM91.0176 170L96.8594 161.545H95.9043L90.0625 170H91.0176ZM90.6367 164.604C90.0449 164.604 89.7051 164.158 89.7051 163.385C89.7051 162.617 90.0449 162.166 90.6367 162.166C91.2227 162.166 91.5625 162.617 91.5625 163.385C91.5625 164.152 91.2285 164.604 90.6367 164.604ZM96.291 170.082C97.4336 170.082 98.125 169.338 98.125 168.09C98.125 166.859 97.4277 166.104 96.291 166.104C95.1543 166.104 94.4512 166.859 94.4512 168.09C94.4512 169.332 95.1484 170.082 96.291 170.082ZM96.291 169.314C95.6992 169.314 95.3652 168.869 95.3652 168.096C95.3652 167.328 95.6992 166.877 96.291 166.877C96.8828 166.877 97.2168 167.328 97.2168 168.096C97.2168 168.863 96.8828 169.314 96.291 169.314ZM77.1426 198.193C78.877 198.193 80.1074 196.98 80.1074 195.281C80.1074 193.641 78.9414 192.451 77.3301 192.451C76.3223 192.451 75.4961 192.932 75.0801 193.752H74.9863C75.0215 191.455 75.8418 190.283 77.248 190.283C78.1035 190.283 78.7246 190.723 78.9004 191.508H79.9844C79.7676 190.195 78.7539 189.346 77.2129 189.346C75.2148 189.346 73.9609 191.01 73.9609 193.916C73.9609 196.764 75.3027 198.193 77.1426 198.193ZM77.1309 197.268C76.0469 197.268 75.2207 196.412 75.2207 195.281C75.2207 194.162 76.0234 193.365 77.1426 193.365C78.2617 193.365 79.041 194.162 79.041 195.316C79.041 196.424 78.2148 197.268 77.1309 197.268ZM84.6484 198.199C86.5469 198.199 87.6367 196.594 87.6367 193.787C87.6367 190.986 86.5293 189.346 84.6484 189.346C82.7559 189.346 81.6484 190.98 81.6484 193.77C81.6484 196.582 82.7441 198.199 84.6484 198.199ZM84.6484 197.279C83.4004 197.279 82.709 196.031 82.709 193.77C82.709 191.537 83.4121 190.271 84.6484 190.271C85.8848 190.271 86.5762 191.525 86.5762 193.77C86.5762 196.037 85.8965 197.279 84.6484 197.279ZM90.6367 193.371C91.7793 193.371 92.4707 192.627 92.4707 191.379C92.4707 190.148 91.7734 189.393 90.6367 189.393C89.5 189.393 88.7969 190.148 88.7969 191.379C88.7969 192.621 89.4883 193.371 90.6367 193.371ZM91.0176 198L96.8594 189.545H95.9043L90.0625 198H91.0176ZM90.6367 192.604C90.0449 192.604 89.7051 192.158 89.7051 191.385C89.7051 190.617 90.0449 190.166 90.6367 190.166C91.2227 190.166 91.5625 190.617 91.5625 191.385C91.5625 192.152 91.2285 192.604 90.6367 192.604ZM96.291 198.082C97.4336 198.082 98.125 197.338 98.125 196.09C98.125 194.859 97.4277 194.104 96.291 194.104C95.1543 194.104 94.4512 194.859 94.4512 196.09C94.4512 197.332 95.1484 198.082 96.291 198.082ZM96.291 197.314C95.6992 197.314 95.3652 196.869 95.3652 196.096C95.3652 195.328 95.6992 194.877 96.291 194.877C96.8828 194.877 97.2168 195.328 97.2168 196.096C97.2168 196.863 96.8828 197.314 96.291 197.314ZM77.1895 226.199C78.918 226.199 80.0957 225.004 80.0957 223.264C80.0957 221.588 78.9238 220.475 77.5059 220.475C76.6621 220.475 76.0352 220.732 75.625 221.242H75.5312L75.7949 218.488H79.6621V217.545H74.9688L74.4824 222.379H75.4727C75.8066 221.752 76.4395 221.383 77.2422 221.383C78.3086 221.383 79.041 222.15 79.041 223.293C79.041 224.477 78.3086 225.273 77.2012 225.273C76.2051 225.273 75.4785 224.67 75.3848 223.768H74.3477C74.4414 225.215 75.5898 226.199 77.1895 226.199ZM84.6484 226.199C86.5469 226.199 87.6367 224.594 87.6367 221.787C87.6367 218.986 86.5293 217.346 84.6484 217.346C82.7559 217.346 81.6484 218.98 81.6484 221.77C81.6484 224.582 82.7441 226.199 84.6484 226.199ZM84.6484 225.279C83.4004 225.279 82.709 224.031 82.709 221.77C82.709 219.537 83.4121 218.271 84.6484 218.271C85.8848 218.271 86.5762 219.525 86.5762 221.77C86.5762 224.037 85.8965 225.279 84.6484 225.279ZM90.6367 221.371C91.7793 221.371 92.4707 220.627 92.4707 219.379C92.4707 218.148 91.7734 217.393 90.6367 217.393C89.5 217.393 88.7969 218.148 88.7969 219.379C88.7969 220.621 89.4883 221.371 90.6367 221.371ZM91.0176 226L96.8594 217.545H95.9043L90.0625 226H91.0176ZM90.6367 220.604C90.0449 220.604 89.7051 220.158 89.7051 219.385C89.7051 218.617 90.0449 218.166 90.6367 218.166C91.2227 218.166 91.5625 218.617 91.5625 219.385C91.5625 220.152 91.2285 220.604 90.6367 220.604ZM96.291 226.082C97.4336 226.082 98.125 225.338 98.125 224.09C98.125 222.859 97.4277 222.104 96.291 222.104C95.1543 222.104 94.4512 222.859 94.4512 224.09C94.4512 225.332 95.1484 226.082 96.291 226.082ZM96.291 225.314C95.6992 225.314 95.3652 224.869 95.3652 224.096C95.3652 223.328 95.6992 222.877 96.291 222.877C96.8828 222.877 97.2168 223.328 97.2168 224.096C97.2168 224.863 96.8828 225.314 96.291 225.314ZM77.9453 254H78.9766V252.248H80.1777V251.305H78.9766V245.545H77.4473C76.2637 247.309 74.9688 249.371 73.8262 251.287V252.248H77.9453V254ZM74.9043 251.24C75.8242 249.688 76.9316 247.941 77.8809 246.523H77.9512V251.311H74.9043V251.24ZM84.6484 254.199C86.5469 254.199 87.6367 252.594 87.6367 249.787C87.6367 246.986 86.5293 245.346 84.6484 245.346C82.7559 245.346 81.6484 246.98 81.6484 249.77C81.6484 252.582 82.7441 254.199 84.6484 254.199ZM84.6484 253.279C83.4004 253.279 82.709 252.031 82.709 249.77C82.709 247.537 83.4121 246.271 84.6484 246.271C85.8848 246.271 86.5762 247.525 86.5762 249.77C86.5762 252.037 85.8965 253.279 84.6484 253.279ZM90.6367 249.371C91.7793 249.371 92.4707 248.627 92.4707 247.379C92.4707 246.148 91.7734 245.393 90.6367 245.393C89.5 245.393 88.7969 246.148 88.7969 247.379C88.7969 248.621 89.4883 249.371 90.6367 249.371ZM91.0176 254L96.8594 245.545H95.9043L90.0625 254H91.0176ZM90.6367 248.604C90.0449 248.604 89.7051 248.158 89.7051 247.385C89.7051 246.617 90.0449 246.166 90.6367 246.166C91.2227 246.166 91.5625 246.617 91.5625 247.385C91.5625 248.152 91.2285 248.604 90.6367 248.604ZM96.291 254.082C97.4336 254.082 98.125 253.338 98.125 252.09C98.125 250.859 97.4277 250.104 96.291 250.104C95.1543 250.104 94.4512 250.859 94.4512 252.09C94.4512 253.332 95.1484 254.082 96.291 254.082ZM96.291 253.314C95.6992 253.314 95.3652 252.869 95.3652 252.096C95.3652 251.328 95.6992 250.877 96.291 250.877C96.8828 250.877 97.2168 251.328 97.2168 252.096C97.2168 252.863 96.8828 253.314 96.291 253.314ZM76.0586 278.104H77.1074C78.2969 278.104 79.0293 278.713 79.0293 279.691C79.0293 280.641 78.2383 281.279 77.125 281.279C76.0352 281.279 75.2734 280.711 75.1797 279.82H74.1602C74.2363 281.256 75.4199 282.199 77.1367 282.199C78.8184 282.199 80.1133 281.139 80.1133 279.721C80.1133 278.543 79.3867 277.799 78.291 277.623V277.529C79.1582 277.277 79.791 276.604 79.7969 275.584C79.8027 274.4 78.8418 273.346 77.1719 273.346C75.4609 273.346 74.4121 274.359 74.3066 275.736H75.332C75.4199 274.787 76.082 274.266 77.1016 274.266C78.1211 274.266 78.7246 274.91 78.7246 275.701C78.7246 276.58 78.0332 277.201 77.0605 277.201H76.0586V278.104ZM84.6484 282.199C86.5469 282.199 87.6367 280.594 87.6367 277.787C87.6367 274.986 86.5293 273.346 84.6484 273.346C82.7559 273.346 81.6484 274.98 81.6484 277.77C81.6484 280.582 82.7441 282.199 84.6484 282.199ZM84.6484 281.279C83.4004 281.279 82.709 280.031 82.709 277.77C82.709 275.537 83.4121 274.271 84.6484 274.271C85.8848 274.271 86.5762 275.525 86.5762 277.77C86.5762 280.037 85.8965 281.279 84.6484 281.279ZM90.6367 277.371C91.7793 277.371 92.4707 276.627 92.4707 275.379C92.4707 274.148 91.7734 273.393 90.6367 273.393C89.5 273.393 88.7969 274.148 88.7969 275.379C88.7969 276.621 89.4883 277.371 90.6367 277.371ZM91.0176 282L96.8594 273.545H95.9043L90.0625 282H91.0176ZM90.6367 276.604C90.0449 276.604 89.7051 276.158 89.7051 275.385C89.7051 274.617 90.0449 274.166 90.6367 274.166C91.2227 274.166 91.5625 274.617 91.5625 275.385C91.5625 276.152 91.2285 276.604 90.6367 276.604ZM96.291 282.082C97.4336 282.082 98.125 281.338 98.125 280.09C98.125 278.859 97.4277 278.104 96.291 278.104C95.1543 278.104 94.4512 278.859 94.4512 280.09C94.4512 281.332 95.1484 282.082 96.291 282.082ZM96.291 281.314C95.6992 281.314 95.3652 280.869 95.3652 280.096C95.3652 279.328 95.6992 278.877 96.291 278.877C96.8828 278.877 97.2168 279.328 97.2168 280.096C97.2168 280.863 96.8828 281.314 96.291 281.314ZM74.5 303.93H75.5195C75.5195 302.928 76.1934 302.266 77.207 302.266C78.2031 302.266 78.8066 302.934 78.8066 303.83C78.8066 304.574 78.4902 305.014 77.4121 306.18L74.5527 309.273V310H80.0254V309.051H76.0176V308.957L77.9395 306.971C79.4629 305.395 79.8848 304.691 79.8848 303.719C79.8848 302.348 78.7539 301.346 77.2773 301.346C75.6602 301.346 74.5 302.424 74.5 303.93ZM84.6484 310.199C86.5469 310.199 87.6367 308.594 87.6367 305.787C87.6367 302.986 86.5293 301.346 84.6484 301.346C82.7559 301.346 81.6484 302.98 81.6484 305.77C81.6484 308.582 82.7441 310.199 84.6484 310.199ZM84.6484 309.279C83.4004 309.279 82.709 308.031 82.709 305.77C82.709 303.537 83.4121 302.271 84.6484 302.271C85.8848 302.271 86.5762 303.525 86.5762 305.77C86.5762 308.037 85.8965 309.279 84.6484 309.279ZM90.6367 305.371C91.7793 305.371 92.4707 304.627 92.4707 303.379C92.4707 302.148 91.7734 301.393 90.6367 301.393C89.5 301.393 88.7969 302.148 88.7969 303.379C88.7969 304.621 89.4883 305.371 90.6367 305.371ZM91.0176 310L96.8594 301.545H95.9043L90.0625 310H91.0176ZM90.6367 304.604C90.0449 304.604 89.7051 304.158 89.7051 303.385C89.7051 302.617 90.0449 302.166 90.6367 302.166C91.2227 302.166 91.5625 302.617 91.5625 303.385C91.5625 304.152 91.2285 304.604 90.6367 304.604ZM96.291 310.082C97.4336 310.082 98.125 309.338 98.125 308.09C98.125 306.859 97.4277 306.104 96.291 306.104C95.1543 306.104 94.4512 306.859 94.4512 308.09C94.4512 309.332 95.1484 310.082 96.291 310.082ZM96.291 309.314C95.6992 309.314 95.3652 308.869 95.3652 308.096C95.3652 307.328 95.6992 306.877 96.291 306.877C96.8828 306.877 97.2168 307.328 97.2168 308.096C97.2168 308.863 96.8828 309.314 96.291 309.314ZM78.2266 338H79.2812V329.545H78.2324L75.9824 331.162V332.275L78.1328 330.717H78.2266V338ZM84.6484 338.199C86.5469 338.199 87.6367 336.594 87.6367 333.787C87.6367 330.986 86.5293 329.346 84.6484 329.346C82.7559 329.346 81.6484 330.98 81.6484 333.77C81.6484 336.582 82.7441 338.199 84.6484 338.199ZM84.6484 337.279C83.4004 337.279 82.709 336.031 82.709 333.77C82.709 331.537 83.4121 330.271 84.6484 330.271C85.8848 330.271 86.5762 331.525 86.5762 333.77C86.5762 336.037 85.8965 337.279 84.6484 337.279ZM90.6367 333.371C91.7793 333.371 92.4707 332.627 92.4707 331.379C92.4707 330.148 91.7734 329.393 90.6367 329.393C89.5 329.393 88.7969 330.148 88.7969 331.379C88.7969 332.621 89.4883 333.371 90.6367 333.371ZM91.0176 338L96.8594 329.545H95.9043L90.0625 338H91.0176ZM90.6367 332.604C90.0449 332.604 89.7051 332.158 89.7051 331.385C89.7051 330.617 90.0449 330.166 90.6367 330.166C91.2227 330.166 91.5625 330.617 91.5625 331.385C91.5625 332.152 91.2285 332.604 90.6367 332.604ZM96.291 338.082C97.4336 338.082 98.125 337.338 98.125 336.09C98.125 334.859 97.4277 334.104 96.291 334.104C95.1543 334.104 94.4512 334.859 94.4512 336.09C94.4512 337.332 95.1484 338.082 96.291 338.082ZM96.291 337.314C95.6992 337.314 95.3652 336.869 95.3652 336.096C95.3652 335.328 95.6992 334.877 96.291 334.877C96.8828 334.877 97.2168 335.328 97.2168 336.096C97.2168 336.863 96.8828 337.314 96.291 337.314ZM84.6484 366.199C86.5469 366.199 87.6367 364.594 87.6367 361.787C87.6367 358.986 86.5293 357.346 84.6484 357.346C82.7559 357.346 81.6484 358.98 81.6484 361.77C81.6484 364.582 82.7441 366.199 84.6484 366.199ZM84.6484 365.279C83.4004 365.279 82.709 364.031 82.709 361.77C82.709 359.537 83.4121 358.271 84.6484 358.271C85.8848 358.271 86.5762 359.525 86.5762 361.77C86.5762 364.037 85.8965 365.279 84.6484 365.279ZM90.6367 361.371C91.7793 361.371 92.4707 360.627 92.4707 359.379C92.4707 358.148 91.7734 357.393 90.6367 357.393C89.5 357.393 88.7969 358.148 88.7969 359.379C88.7969 360.621 89.4883 361.371 90.6367 361.371ZM91.0176 366L96.8594 357.545H95.9043L90.0625 366H91.0176ZM90.6367 360.604C90.0449 360.604 89.7051 360.158 89.7051 359.385C89.7051 358.617 90.0449 358.166 90.6367 358.166C91.2227 358.166 91.5625 358.617 91.5625 359.385C91.5625 360.152 91.2285 360.604 90.6367 360.604ZM96.291 366.082C97.4336 366.082 98.125 365.338 98.125 364.09C98.125 362.859 97.4277 362.104 96.291 362.104C95.1543 362.104 94.4512 362.859 94.4512 364.09C94.4512 365.332 95.1484 366.082 96.291 366.082ZM96.291 365.314C95.6992 365.314 95.3652 364.869 95.3652 364.096C95.3652 363.328 95.6992 362.877 96.291 362.877C96.8828 362.877 97.2168 363.328 97.2168 364.096C97.2168 364.863 96.8828 365.314 96.291 365.314Z" fill="var(--color-text-default)"/>
<path d="M75.3818 53H77.6172L74.1924 43.1357H71.7656L68.3408 53H70.4121L71.1709 50.6074H74.6367L75.3818 53ZM72.8525 45.1387H72.9756L74.1992 49.0625H71.6152L72.8525 45.1387ZM82.0127 55.8506C84.2891 55.8506 85.7314 54.7432 85.7314 52.9863V45.4736H83.8037V46.6768H83.6807C83.2773 45.8564 82.4092 45.3506 81.3906 45.3506C79.4766 45.3506 78.3008 46.8408 78.3008 49.1719C78.3008 51.4277 79.4697 52.8906 81.3496 52.8906C82.4092 52.8906 83.2021 52.46 83.6191 51.667H83.7422V53.0684C83.7422 53.9365 83.1201 54.4424 82.0537 54.4424C81.1924 54.4424 80.6318 54.1416 80.5293 53.6631H78.5605C78.6836 54.9824 80.0098 55.8506 82.0127 55.8506ZM82.04 51.3662C80.96 51.3662 80.3447 50.5186 80.3447 49.165C80.3447 47.8115 80.9668 46.9639 82.04 46.9639C83.1133 46.9639 83.7627 47.8115 83.7627 49.165C83.7627 50.5186 83.1201 51.3662 82.04 51.3662ZM92.6016 50.874C92.3896 51.3867 91.8496 51.6738 91.0635 51.6738C90.0244 51.6738 89.3682 50.9561 89.3408 49.8076V49.7051H94.5156V49.1104C94.5156 46.7314 93.2031 45.3096 90.9814 45.3096C88.7393 45.3096 87.3584 46.8271 87.3584 49.2744C87.3584 51.708 88.7119 53.1572 91.0088 53.1572C92.8545 53.1572 94.1602 52.2754 94.4541 50.874H92.6016ZM90.9883 46.793C91.918 46.793 92.5195 47.4355 92.5605 48.4678H89.3477C89.416 47.4561 90.0654 46.793 90.9883 46.793Z" fill="black"/>
<rect x="114.5" y="200" width="32" height="166" rx="6" fill="var(--color-data-visualization-01)"/>
<rect x="198.5" y="126" width="32" height="240" rx="6" fill="var(--color-data-visualization-01)"/>
<rect x="281.5" y="224" width="31" height="142" rx="6" fill="var(--color-data-visualization-01)"/>
<rect x="364.5" y="291" width="32" height="75" rx="6" fill="var(--color-data-visualization-01)"/>
<rect x="448.5" y="306" width="32" height="60" rx="6" fill="var(--color-data-visualization-01)"/>
<rect x="531.5" y="245" width="31" height="121" rx="6" fill="var(--color-data-visualization-01)"/>
<rect x="614.5" y="338" width="32" height="28" rx="6" fill="var(--color-data-visualization-01)"/>
<rect x="150.5" y="179" width="32" height="187" rx="6" fill="var(--color-data-visualization-02)"/>
<rect x="234.5" y="115" width="31" height="251" rx="6" fill="var(--color-data-visualization-02)"/>
<rect x="316.5" y="163" width="32" height="203" rx="6" fill="var(--color-data-visualization-02)"/>
<rect x="400.5" y="286" width="32" height="80" rx="6" fill="var(--color-data-visualization-02)"/>
<rect x="484.5" y="286" width="31" height="80" rx="6" fill="var(--color-data-visualization-02)"/>
<rect x="650.5" y="347" width="32" height="19" rx="6" fill="var(--color-data-visualization-02)"/>
<rect x="566.5" y="263" width="32" height="103" rx="6" fill="var(--color-data-visualization-02)"/>
<path d="M121.67 192.199C123.398 192.199 124.576 191.004 124.576 189.264C124.576 187.588 123.404 186.475 121.986 186.475C121.143 186.475 120.516 186.732 120.105 187.242H120.012L120.275 184.488H124.143V183.545H119.449L118.963 188.379H119.953C120.287 187.752 120.92 187.383 121.723 187.383C122.789 187.383 123.521 188.15 123.521 189.293C123.521 190.477 122.789 191.273 121.682 191.273C120.686 191.273 119.959 190.67 119.865 189.768H118.828C118.922 191.215 120.07 192.199 121.67 192.199ZM129.176 192.199C130.969 192.199 132.223 191.186 132.223 189.738C132.223 188.637 131.525 187.781 130.465 187.582V187.488C131.338 187.248 131.877 186.527 131.877 185.602C131.877 184.283 130.758 183.346 129.176 183.346C127.594 183.346 126.475 184.283 126.475 185.602C126.475 186.521 127.025 187.254 127.887 187.488V187.582C126.826 187.781 126.129 188.637 126.129 189.738C126.129 191.186 127.383 192.199 129.176 192.199ZM129.176 187.137C128.18 187.137 127.512 186.562 127.512 185.701C127.512 184.828 128.174 184.248 129.176 184.248C130.178 184.248 130.84 184.828 130.84 185.701C130.84 186.562 130.172 187.137 129.176 187.137ZM129.176 191.297C128.004 191.297 127.195 190.629 127.195 189.662C127.195 188.695 128.004 188.027 129.176 188.027C130.348 188.027 131.156 188.695 131.156 189.662C131.156 190.629 130.348 191.297 129.176 191.297ZM135.223 187.371C136.365 187.371 137.057 186.627 137.057 185.379C137.057 184.148 136.359 183.393 135.223 183.393C134.086 183.393 133.383 184.148 133.383 185.379C133.383 186.621 134.074 187.371 135.223 187.371ZM135.604 192L141.445 183.545H140.49L134.648 192H135.604ZM135.223 186.604C134.631 186.604 134.291 186.158 134.291 185.385C134.291 184.617 134.631 184.166 135.223 184.166C135.809 184.166 136.148 184.617 136.148 185.385C136.148 186.152 135.814 186.604 135.223 186.604ZM140.877 192.082C142.02 192.082 142.711 191.338 142.711 190.09C142.711 188.859 142.014 188.104 140.877 188.104C139.74 188.104 139.037 188.859 139.037 190.09C139.037 191.332 139.734 192.082 140.877 192.082ZM140.877 191.314C140.285 191.314 139.951 190.869 139.951 190.096C139.951 189.328 140.285 188.877 140.877 188.877C141.469 188.877 141.803 189.328 141.803 190.096C141.803 190.863 141.469 191.314 140.877 191.314Z" fill="var(--color-text-default)"/>
<path d="M157.74 171.193C159.475 171.193 160.705 169.98 160.705 168.281C160.705 166.641 159.539 165.451 157.928 165.451C156.92 165.451 156.094 165.932 155.678 166.752H155.584C155.619 164.455 156.439 163.283 157.846 163.283C158.701 163.283 159.322 163.723 159.498 164.508H160.582C160.365 163.195 159.352 162.346 157.811 162.346C155.812 162.346 154.559 164.01 154.559 166.916C154.559 169.764 155.9 171.193 157.74 171.193ZM157.729 170.268C156.645 170.268 155.818 169.412 155.818 168.281C155.818 167.162 156.621 166.365 157.74 166.365C158.859 166.365 159.639 167.162 159.639 168.316C159.639 169.424 158.812 170.268 157.729 170.268ZM165.393 171.193C167.127 171.193 168.357 169.98 168.357 168.281C168.357 166.641 167.191 165.451 165.58 165.451C164.572 165.451 163.746 165.932 163.33 166.752H163.236C163.271 164.455 164.092 163.283 165.498 163.283C166.354 163.283 166.975 163.723 167.15 164.508H168.234C168.018 163.195 167.004 162.346 165.463 162.346C163.465 162.346 162.211 164.01 162.211 166.916C162.211 169.764 163.553 171.193 165.393 171.193ZM165.381 170.268C164.297 170.268 163.471 169.412 163.471 168.281C163.471 167.162 164.273 166.365 165.393 166.365C166.512 166.365 167.291 167.162 167.291 168.316C167.291 169.424 166.465 170.268 165.381 170.268ZM171.328 166.371C172.471 166.371 173.162 165.627 173.162 164.379C173.162 163.148 172.465 162.393 171.328 162.393C170.191 162.393 169.488 163.148 169.488 164.379C169.488 165.621 170.18 166.371 171.328 166.371ZM171.709 171L177.551 162.545H176.596L170.754 171H171.709ZM171.328 165.604C170.736 165.604 170.396 165.158 170.396 164.385C170.396 163.617 170.736 163.166 171.328 163.166C171.914 163.166 172.254 163.617 172.254 164.385C172.254 165.152 171.92 165.604 171.328 165.604ZM176.982 171.082C178.125 171.082 178.816 170.338 178.816 169.09C178.816 167.859 178.119 167.104 176.982 167.104C175.846 167.104 175.143 167.859 175.143 169.09C175.143 170.332 175.84 171.082 176.982 171.082ZM176.982 170.314C176.391 170.314 176.057 169.869 176.057 169.096C176.057 168.328 176.391 167.877 176.982 167.877C177.574 167.877 177.908 168.328 177.908 169.096C177.908 169.863 177.574 170.314 176.982 170.314Z" fill="var(--color-text-default)"/>
<path d="M241.635 107.199C243.428 107.199 244.682 106.186 244.682 104.738C244.682 103.637 243.984 102.781 242.924 102.582V102.488C243.797 102.248 244.336 101.527 244.336 100.602C244.336 99.2832 243.217 98.3457 241.635 98.3457C240.053 98.3457 238.934 99.2832 238.934 100.602C238.934 101.521 239.484 102.254 240.346 102.488V102.582C239.285 102.781 238.588 103.637 238.588 104.738C238.588 106.186 239.842 107.199 241.635 107.199ZM241.635 102.137C240.639 102.137 239.971 101.562 239.971 100.701C239.971 99.8281 240.633 99.248 241.635 99.248C242.637 99.248 243.299 99.8281 243.299 100.701C243.299 101.562 242.631 102.137 241.635 102.137ZM241.635 106.297C240.463 106.297 239.654 105.629 239.654 104.662C239.654 103.695 240.463 103.027 241.635 103.027C242.807 103.027 243.615 103.695 243.615 104.662C243.615 105.629 242.807 106.297 241.635 106.297ZM249.398 107.193C251.133 107.193 252.363 105.98 252.363 104.281C252.363 102.641 251.197 101.451 249.586 101.451C248.578 101.451 247.752 101.932 247.336 102.752H247.242C247.277 100.455 248.098 99.2832 249.504 99.2832C250.359 99.2832 250.98 99.7227 251.156 100.508H252.24C252.023 99.1953 251.01 98.3457 249.469 98.3457C247.471 98.3457 246.217 100.01 246.217 102.916C246.217 105.764 247.559 107.193 249.398 107.193ZM249.387 106.268C248.303 106.268 247.477 105.412 247.477 104.281C247.477 103.162 248.279 102.365 249.398 102.365C250.518 102.365 251.297 103.162 251.297 104.316C251.297 105.424 250.471 106.268 249.387 106.268ZM255.334 102.371C256.477 102.371 257.168 101.627 257.168 100.379C257.168 99.1484 256.471 98.3926 255.334 98.3926C254.197 98.3926 253.494 99.1484 253.494 100.379C253.494 101.621 254.186 102.371 255.334 102.371ZM255.715 107L261.557 98.5449H260.602L254.76 107H255.715ZM255.334 101.604C254.742 101.604 254.402 101.158 254.402 100.385C254.402 99.6172 254.742 99.166 255.334 99.166C255.92 99.166 256.26 99.6172 256.26 100.385C256.26 101.152 255.926 101.604 255.334 101.604ZM260.988 107.082C262.131 107.082 262.822 106.338 262.822 105.09C262.822 103.859 262.125 103.104 260.988 103.104C259.852 103.104 259.148 103.859 259.148 105.09C259.148 106.332 259.846 107.082 260.988 107.082ZM260.988 106.314C260.396 106.314 260.062 105.869 260.062 105.096C260.062 104.328 260.396 103.877 260.988 103.877C261.58 103.877 261.914 104.328 261.914 105.096C261.914 105.863 261.58 106.314 260.988 106.314Z" fill="var(--color-text-default)"/>
<path d="M369.01 276.93H370.029C370.029 275.928 370.703 275.266 371.717 275.266C372.713 275.266 373.316 275.934 373.316 276.83C373.316 277.574 373 278.014 371.922 279.18L369.062 282.273V283H374.535V282.051H370.527V281.957L372.449 279.971C373.973 278.395 374.395 277.691 374.395 276.719C374.395 275.348 373.264 274.346 371.787 274.346C370.17 274.346 369.01 275.424 369.01 276.93ZM379.129 283.199C380.857 283.199 382.035 282.004 382.035 280.264C382.035 278.588 380.863 277.475 379.445 277.475C378.602 277.475 377.975 277.732 377.564 278.242H377.471L377.734 275.488H381.602V274.545H376.908L376.422 279.379H377.412C377.746 278.752 378.379 278.383 379.182 278.383C380.248 278.383 380.98 279.15 380.98 280.293C380.98 281.477 380.248 282.273 379.141 282.273C378.145 282.273 377.418 281.67 377.324 280.768H376.287C376.381 282.215 377.529 283.199 379.129 283.199ZM385.018 278.371C386.16 278.371 386.852 277.627 386.852 276.379C386.852 275.148 386.154 274.393 385.018 274.393C383.881 274.393 383.178 275.148 383.178 276.379C383.178 277.621 383.869 278.371 385.018 278.371ZM385.398 283L391.24 274.545H390.285L384.443 283H385.398ZM385.018 277.604C384.426 277.604 384.086 277.158 384.086 276.385C384.086 275.617 384.426 275.166 385.018 275.166C385.604 275.166 385.943 275.617 385.943 276.385C385.943 277.152 385.609 277.604 385.018 277.604ZM390.672 283.082C391.814 283.082 392.506 282.338 392.506 281.09C392.506 279.859 391.809 279.104 390.672 279.104C389.535 279.104 388.832 279.859 388.832 281.09C388.832 282.332 389.529 283.082 390.672 283.082ZM390.672 282.314C390.08 282.314 389.746 281.869 389.746 281.096C389.746 280.328 390.08 279.877 390.672 279.877C391.264 279.877 391.598 280.328 391.598 281.096C391.598 281.863 391.264 282.314 390.672 282.314Z" fill="var(--color-text-default)"/>
<path d="M404.893 271.93H405.912C405.912 270.928 406.586 270.266 407.6 270.266C408.596 270.266 409.199 270.934 409.199 271.83C409.199 272.574 408.883 273.014 407.805 274.18L404.945 277.273V278H410.418V277.051H406.41V276.957L408.332 274.971C409.855 273.395 410.277 272.691 410.277 271.719C410.277 270.348 409.146 269.346 407.67 269.346C406.053 269.346 404.893 270.424 404.893 271.93ZM415.088 278.199C416.881 278.199 418.135 277.186 418.135 275.738C418.135 274.637 417.438 273.781 416.377 273.582V273.488C417.25 273.248 417.789 272.527 417.789 271.602C417.789 270.283 416.67 269.346 415.088 269.346C413.506 269.346 412.387 270.283 412.387 271.602C412.387 272.521 412.938 273.254 413.799 273.488V273.582C412.738 273.781 412.041 274.637 412.041 275.738C412.041 277.186 413.295 278.199 415.088 278.199ZM415.088 273.137C414.092 273.137 413.424 272.562 413.424 271.701C413.424 270.828 414.086 270.248 415.088 270.248C416.09 270.248 416.752 270.828 416.752 271.701C416.752 272.562 416.084 273.137 415.088 273.137ZM415.088 277.297C413.916 277.297 413.107 276.629 413.107 275.662C413.107 274.695 413.916 274.027 415.088 274.027C416.26 274.027 417.068 274.695 417.068 275.662C417.068 276.629 416.26 277.297 415.088 277.297ZM421.135 273.371C422.277 273.371 422.969 272.627 422.969 271.379C422.969 270.148 422.271 269.393 421.135 269.393C419.998 269.393 419.295 270.148 419.295 271.379C419.295 272.621 419.986 273.371 421.135 273.371ZM421.516 278L427.357 269.545H426.402L420.561 278H421.516ZM421.135 272.604C420.543 272.604 420.203 272.158 420.203 271.385C420.203 270.617 420.543 270.166 421.135 270.166C421.721 270.166 422.061 270.617 422.061 271.385C422.061 272.152 421.727 272.604 421.135 272.604ZM426.789 278.082C427.932 278.082 428.623 277.338 428.623 276.09C428.623 274.859 427.926 274.104 426.789 274.104C425.652 274.104 424.949 274.859 424.949 276.09C424.949 277.332 425.646 278.082 426.789 278.082ZM426.789 277.314C426.197 277.314 425.863 276.869 425.863 276.096C425.863 275.328 426.197 274.877 426.789 274.877C427.381 274.877 427.715 275.328 427.715 276.096C427.715 276.863 427.381 277.314 426.789 277.314Z" fill="var(--color-text-default)"/>
<path d="M453.098 291.93H454.117C454.117 290.928 454.791 290.266 455.805 290.266C456.801 290.266 457.404 290.934 457.404 291.83C457.404 292.574 457.088 293.014 456.01 294.18L453.15 297.273V298H458.623V297.051H454.615V296.957L456.537 294.971C458.061 293.395 458.482 292.691 458.482 291.719C458.482 290.348 457.352 289.346 455.875 289.346C454.258 289.346 453.098 290.424 453.098 291.93ZM460.352 291.93H461.371C461.371 290.928 462.045 290.266 463.059 290.266C464.055 290.266 464.658 290.934 464.658 291.83C464.658 292.574 464.342 293.014 463.264 294.18L460.404 297.273V298H465.877V297.051H461.869V296.957L463.791 294.971C465.314 293.395 465.736 292.691 465.736 291.719C465.736 290.348 464.605 289.346 463.129 289.346C461.512 289.346 460.352 290.424 460.352 291.93ZM468.93 293.371C470.072 293.371 470.764 292.627 470.764 291.379C470.764 290.148 470.066 289.393 468.93 289.393C467.793 289.393 467.09 290.148 467.09 291.379C467.09 292.621 467.781 293.371 468.93 293.371ZM469.311 298L475.152 289.545H474.197L468.355 298H469.311ZM468.93 292.604C468.338 292.604 467.998 292.158 467.998 291.385C467.998 290.617 468.338 290.166 468.93 290.166C469.516 290.166 469.855 290.617 469.855 291.385C469.855 292.152 469.521 292.604 468.93 292.604ZM474.584 298.082C475.727 298.082 476.418 297.338 476.418 296.09C476.418 294.859 475.721 294.104 474.584 294.104C473.447 294.104 472.744 294.859 472.744 296.09C472.744 297.332 473.441 298.082 474.584 298.082ZM474.584 297.314C473.992 297.314 473.658 296.869 473.658 296.096C473.658 295.328 473.992 294.877 474.584 294.877C475.176 294.877 475.51 295.328 475.51 296.096C475.51 296.863 475.176 297.314 474.584 297.314Z" fill="var(--color-text-default)"/>
<path d="M487.893 271.93H488.912C488.912 270.928 489.586 270.266 490.6 270.266C491.596 270.266 492.199 270.934 492.199 271.83C492.199 272.574 491.883 273.014 490.805 274.18L487.945 277.273V278H493.418V277.051H489.41V276.957L491.332 274.971C492.855 273.395 493.277 272.691 493.277 271.719C493.277 270.348 492.146 269.346 490.67 269.346C489.053 269.346 487.893 270.424 487.893 271.93ZM498.088 278.199C499.881 278.199 501.135 277.186 501.135 275.738C501.135 274.637 500.438 273.781 499.377 273.582V273.488C500.25 273.248 500.789 272.527 500.789 271.602C500.789 270.283 499.67 269.346 498.088 269.346C496.506 269.346 495.387 270.283 495.387 271.602C495.387 272.521 495.938 273.254 496.799 273.488V273.582C495.738 273.781 495.041 274.637 495.041 275.738C495.041 277.186 496.295 278.199 498.088 278.199ZM498.088 273.137C497.092 273.137 496.424 272.562 496.424 271.701C496.424 270.828 497.086 270.248 498.088 270.248C499.09 270.248 499.752 270.828 499.752 271.701C499.752 272.562 499.084 273.137 498.088 273.137ZM498.088 277.297C496.916 277.297 496.107 276.629 496.107 275.662C496.107 274.695 496.916 274.027 498.088 274.027C499.26 274.027 500.068 274.695 500.068 275.662C500.068 276.629 499.26 277.297 498.088 277.297ZM504.135 273.371C505.277 273.371 505.969 272.627 505.969 271.379C505.969 270.148 505.271 269.393 504.135 269.393C502.998 269.393 502.295 270.148 502.295 271.379C502.295 272.621 502.986 273.371 504.135 273.371ZM504.516 278L510.357 269.545H509.402L503.561 278H504.516ZM504.135 272.604C503.543 272.604 503.203 272.158 503.203 271.385C503.203 270.617 503.543 270.166 504.135 270.166C504.721 270.166 505.061 270.617 505.061 271.385C505.061 272.152 504.727 272.604 504.135 272.604ZM509.789 278.082C510.932 278.082 511.623 277.338 511.623 276.09C511.623 274.859 510.926 274.104 509.789 274.104C508.652 274.104 507.949 274.859 507.949 276.09C507.949 277.332 508.646 278.082 509.789 278.082ZM509.789 277.314C509.197 277.314 508.863 276.869 508.863 276.096C508.863 275.328 509.197 274.877 509.789 274.877C510.381 274.877 510.715 275.328 510.715 276.096C510.715 276.863 510.381 277.314 509.789 277.314Z" fill="var(--color-text-default)"/>
<path d="M539.643 237H540.674V235.248H541.875V234.305H540.674V228.545H539.145C537.961 230.309 536.666 232.371 535.523 234.287V235.248H539.643V237ZM536.602 234.24C537.521 232.688 538.629 230.941 539.578 229.523H539.648V234.311H536.602V234.24ZM545.279 233.104H546.328C547.518 233.104 548.25 233.713 548.25 234.691C548.25 235.641 547.459 236.279 546.346 236.279C545.256 236.279 544.494 235.711 544.4 234.82H543.381C543.457 236.256 544.641 237.199 546.357 237.199C548.039 237.199 549.334 236.139 549.334 234.721C549.334 233.543 548.607 232.799 547.512 232.623V232.529C548.379 232.277 549.012 231.604 549.018 230.584C549.023 229.4 548.062 228.346 546.393 228.346C544.682 228.346 543.633 229.359 543.527 230.736H544.553C544.641 229.787 545.303 229.266 546.322 229.266C547.342 229.266 547.945 229.91 547.945 230.701C547.945 231.58 547.254 232.201 546.281 232.201H545.279V233.104ZM552.299 232.371C553.441 232.371 554.133 231.627 554.133 230.379C554.133 229.148 553.436 228.393 552.299 228.393C551.162 228.393 550.459 229.148 550.459 230.379C550.459 231.621 551.15 232.371 552.299 232.371ZM552.68 237L558.521 228.545H557.566L551.725 237H552.68ZM552.299 231.604C551.707 231.604 551.367 231.158 551.367 230.385C551.367 229.617 551.707 229.166 552.299 229.166C552.885 229.166 553.225 229.617 553.225 230.385C553.225 231.152 552.891 231.604 552.299 231.604ZM557.953 237.082C559.096 237.082 559.787 236.338 559.787 235.09C559.787 233.859 559.09 233.104 557.953 233.104C556.816 233.104 556.113 233.859 556.113 235.09C556.113 236.332 556.811 237.082 557.953 237.082ZM557.953 236.314C557.361 236.314 557.027 235.869 557.027 235.096C557.027 234.328 557.361 233.877 557.953 233.877C558.545 233.877 558.879 234.328 558.879 235.096C558.879 235.863 558.545 236.314 557.953 236.314Z" fill="var(--color-text-default)"/>
<path d="M572.592 251.104H573.641C574.83 251.104 575.562 251.713 575.562 252.691C575.562 253.641 574.771 254.279 573.658 254.279C572.568 254.279 571.807 253.711 571.713 252.82H570.693C570.77 254.256 571.953 255.199 573.67 255.199C575.352 255.199 576.646 254.139 576.646 252.721C576.646 251.543 575.92 250.799 574.824 250.623V250.529C575.691 250.277 576.324 249.604 576.33 248.584C576.336 247.4 575.375 246.346 573.705 246.346C571.994 246.346 570.945 247.359 570.84 248.736H571.865C571.953 247.787 572.615 247.266 573.635 247.266C574.654 247.266 575.258 247.91 575.258 248.701C575.258 249.58 574.566 250.201 573.594 250.201H572.592V251.104ZM581.328 255.193C583.062 255.193 584.293 253.98 584.293 252.281C584.293 250.641 583.127 249.451 581.516 249.451C580.508 249.451 579.682 249.932 579.266 250.752H579.172C579.207 248.455 580.027 247.283 581.434 247.283C582.289 247.283 582.91 247.723 583.086 248.508H584.17C583.953 247.195 582.939 246.346 581.398 246.346C579.4 246.346 578.146 248.01 578.146 250.916C578.146 253.764 579.488 255.193 581.328 255.193ZM581.316 254.268C580.232 254.268 579.406 253.412 579.406 252.281C579.406 251.162 580.209 250.365 581.328 250.365C582.447 250.365 583.227 251.162 583.227 252.316C583.227 253.424 582.4 254.268 581.316 254.268ZM587.264 250.371C588.406 250.371 589.098 249.627 589.098 248.379C589.098 247.148 588.4 246.393 587.264 246.393C586.127 246.393 585.424 247.148 585.424 248.379C585.424 249.621 586.115 250.371 587.264 250.371ZM587.645 255L593.486 246.545H592.531L586.689 255H587.645ZM587.264 249.604C586.672 249.604 586.332 249.158 586.332 248.385C586.332 247.617 586.672 247.166 587.264 247.166C587.85 247.166 588.189 247.617 588.189 248.385C588.189 249.152 587.855 249.604 587.264 249.604ZM592.918 255.082C594.061 255.082 594.752 254.338 594.752 253.09C594.752 251.859 594.055 251.104 592.918 251.104C591.781 251.104 591.078 251.859 591.078 253.09C591.078 254.332 591.775 255.082 592.918 255.082ZM592.918 254.314C592.326 254.314 591.992 253.869 591.992 253.096C591.992 252.328 592.326 251.877 592.918 251.877C593.51 251.877 593.844 252.328 593.844 253.096C593.844 253.863 593.51 254.314 592.918 254.314Z" fill="var(--color-text-default)"/>
<path d="M625.279 330.193C627.348 330.193 628.531 328.529 628.531 325.623C628.531 322.746 627.172 321.346 625.35 321.346C623.615 321.346 622.385 322.559 622.385 324.258C622.385 325.898 623.551 327.088 625.162 327.088C626.17 327.088 626.996 326.607 627.412 325.787H627.506C627.447 328.037 626.668 329.256 625.291 329.256C624.459 329.256 623.814 328.793 623.592 328.031H622.508C622.771 329.361 623.844 330.193 625.279 330.193ZM625.35 326.174C624.23 326.174 623.451 325.377 623.451 324.223C623.451 323.115 624.277 322.271 625.361 322.271C626.445 322.271 627.271 323.127 627.271 324.258C627.271 325.377 626.469 326.174 625.35 326.174ZM631.502 325.371C632.645 325.371 633.336 324.627 633.336 323.379C633.336 322.148 632.639 321.393 631.502 321.393C630.365 321.393 629.662 322.148 629.662 323.379C629.662 324.621 630.354 325.371 631.502 325.371ZM631.883 330L637.725 321.545H636.77L630.928 330H631.883ZM631.502 324.604C630.91 324.604 630.57 324.158 630.57 323.385C630.57 322.617 630.91 322.166 631.502 322.166C632.088 322.166 632.428 322.617 632.428 323.385C632.428 324.152 632.094 324.604 631.502 324.604ZM637.156 330.082C638.299 330.082 638.99 329.338 638.99 328.09C638.99 326.859 638.293 326.104 637.156 326.104C636.02 326.104 635.316 326.859 635.316 328.09C635.316 329.332 636.014 330.082 637.156 330.082ZM637.156 329.314C636.564 329.314 636.23 328.869 636.23 328.096C636.23 327.328 636.564 326.877 637.156 326.877C637.748 326.877 638.082 327.328 638.082 328.096C638.082 328.863 637.748 329.314 637.156 329.314Z" fill="var(--color-text-default)"/>
<path d="M661.502 339.199C663.23 339.199 664.408 338.004 664.408 336.264C664.408 334.588 663.236 333.475 661.818 333.475C660.975 333.475 660.348 333.732 659.938 334.242H659.844L660.107 331.488H663.975V330.545H659.281L658.795 335.379H659.785C660.119 334.752 660.752 334.383 661.555 334.383C662.621 334.383 663.354 335.15 663.354 336.293C663.354 337.477 662.621 338.273 661.514 338.273C660.518 338.273 659.791 337.67 659.697 336.768H658.66C658.754 338.215 659.902 339.199 661.502 339.199ZM667.391 334.371C668.533 334.371 669.225 333.627 669.225 332.379C669.225 331.148 668.527 330.393 667.391 330.393C666.254 330.393 665.551 331.148 665.551 332.379C665.551 333.621 666.242 334.371 667.391 334.371ZM667.771 339L673.613 330.545H672.658L666.816 339H667.771ZM667.391 333.604C666.799 333.604 666.459 333.158 666.459 332.385C666.459 331.617 666.799 331.166 667.391 331.166C667.977 331.166 668.316 331.617 668.316 332.385C668.316 333.152 667.982 333.604 667.391 333.604ZM673.045 339.082C674.188 339.082 674.879 338.338 674.879 337.09C674.879 335.859 674.182 335.104 673.045 335.104C671.908 335.104 671.205 335.859 671.205 337.09C671.205 338.332 671.902 339.082 673.045 339.082ZM673.045 338.314C672.453 338.314 672.119 337.869 672.119 337.096C672.119 336.328 672.453 335.877 673.045 335.877C673.637 335.877 673.971 336.328 673.971 337.096C673.971 337.863 673.637 338.314 673.045 338.314Z" fill="var(--color-text-default)"/>
<path d="M241.635 107.199C243.428 107.199 244.682 106.186 244.682 104.738C244.682 103.637 243.984 102.781 242.924 102.582V102.488C243.797 102.248 244.336 101.527 244.336 100.602C244.336 99.2832 243.217 98.3457 241.635 98.3457C240.053 98.3457 238.934 99.2832 238.934 100.602C238.934 101.521 239.484 102.254 240.346 102.488V102.582C239.285 102.781 238.588 103.637 238.588 104.738C238.588 106.186 239.842 107.199 241.635 107.199ZM241.635 102.137C240.639 102.137 239.971 101.562 239.971 100.701C239.971 99.8281 240.633 99.248 241.635 99.248C242.637 99.248 243.299 99.8281 243.299 100.701C243.299 101.562 242.631 102.137 241.635 102.137ZM241.635 106.297C240.463 106.297 239.654 105.629 239.654 104.662C239.654 103.695 240.463 103.027 241.635 103.027C242.807 103.027 243.615 103.695 243.615 104.662C243.615 105.629 242.807 106.297 241.635 106.297ZM249.398 107.193C251.133 107.193 252.363 105.98 252.363 104.281C252.363 102.641 251.197 101.451 249.586 101.451C248.578 101.451 247.752 101.932 247.336 102.752H247.242C247.277 100.455 248.098 99.2832 249.504 99.2832C250.359 99.2832 250.98 99.7227 251.156 100.508H252.24C252.023 99.1953 251.01 98.3457 249.469 98.3457C247.471 98.3457 246.217 100.01 246.217 102.916C246.217 105.764 247.559 107.193 249.398 107.193ZM249.387 106.268C248.303 106.268 247.477 105.412 247.477 104.281C247.477 103.162 248.279 102.365 249.398 102.365C250.518 102.365 251.297 103.162 251.297 104.316C251.297 105.424 250.471 106.268 249.387 106.268ZM255.334 102.371C256.477 102.371 257.168 101.627 257.168 100.379C257.168 99.1484 256.471 98.3926 255.334 98.3926C254.197 98.3926 253.494 99.1484 253.494 100.379C253.494 101.621 254.186 102.371 255.334 102.371ZM255.715 107L261.557 98.5449H260.602L254.76 107H255.715ZM255.334 101.604C254.742 101.604 254.402 101.158 254.402 100.385C254.402 99.6172 254.742 99.166 255.334 99.166C255.92 99.166 256.26 99.6172 256.26 100.385C256.26 101.152 255.926 101.604 255.334 101.604ZM260.988 107.082C262.131 107.082 262.822 106.338 262.822 105.09C262.822 103.859 262.125 103.104 260.988 103.104C259.852 103.104 259.148 103.859 259.148 105.09C259.148 106.332 259.846 107.082 260.988 107.082ZM260.988 106.314C260.396 106.314 260.062 105.869 260.062 105.096C260.062 104.328 260.396 103.877 260.988 103.877C261.58 103.877 261.914 104.328 261.914 105.096C261.914 105.863 261.58 106.314 260.988 106.314Z" fill="var(--color-text-default)"/>
<path d="M321.643 155H322.75L326.512 147.523V146.545H320.916V147.488H325.439V147.57L321.643 155ZM330.801 155.199C332.699 155.199 333.789 153.594 333.789 150.787C333.789 147.986 332.682 146.346 330.801 146.346C328.908 146.346 327.801 147.98 327.801 150.77C327.801 153.582 328.896 155.199 330.801 155.199ZM330.801 154.279C329.553 154.279 328.861 153.031 328.861 150.77C328.861 148.537 329.564 147.271 330.801 147.271C332.037 147.271 332.729 148.525 332.729 150.77C332.729 153.037 332.049 154.279 330.801 154.279ZM336.789 150.371C337.932 150.371 338.623 149.627 338.623 148.379C338.623 147.148 337.926 146.393 336.789 146.393C335.652 146.393 334.949 147.148 334.949 148.379C334.949 149.621 335.641 150.371 336.789 150.371ZM337.17 155L343.012 146.545H342.057L336.215 155H337.17ZM336.789 149.604C336.197 149.604 335.857 149.158 335.857 148.385C335.857 147.617 336.197 147.166 336.789 147.166C337.375 147.166 337.715 147.617 337.715 148.385C337.715 149.152 337.381 149.604 336.789 149.604ZM342.443 155.082C343.586 155.082 344.277 154.338 344.277 153.09C344.277 151.859 343.58 151.104 342.443 151.104C341.307 151.104 340.604 151.859 340.604 153.09C340.604 154.332 341.301 155.082 342.443 155.082ZM342.443 154.314C341.852 154.314 341.518 153.869 341.518 153.096C341.518 152.328 341.852 151.877 342.443 151.877C343.035 151.877 343.369 152.328 343.369 153.096C343.369 153.863 343.035 154.314 342.443 154.314Z" fill="var(--color-text-default)"/>
<path d="M289.572 216H290.604V214.248H291.805V213.305H290.604V207.545H289.074C287.891 209.309 286.596 211.371 285.453 213.287V214.248H289.572V216ZM286.531 213.24C287.451 211.688 288.559 209.941 289.508 208.523H289.578V213.311H286.531V213.24ZM296.322 216.199C298.115 216.199 299.369 215.186 299.369 213.738C299.369 212.637 298.672 211.781 297.611 211.582V211.488C298.484 211.248 299.023 210.527 299.023 209.602C299.023 208.283 297.904 207.346 296.322 207.346C294.74 207.346 293.621 208.283 293.621 209.602C293.621 210.521 294.172 211.254 295.033 211.488V211.582C293.973 211.781 293.275 212.637 293.275 213.738C293.275 215.186 294.529 216.199 296.322 216.199ZM296.322 211.137C295.326 211.137 294.658 210.562 294.658 209.701C294.658 208.828 295.32 208.248 296.322 208.248C297.324 208.248 297.986 208.828 297.986 209.701C297.986 210.562 297.318 211.137 296.322 211.137ZM296.322 215.297C295.15 215.297 294.342 214.629 294.342 213.662C294.342 212.695 295.15 212.027 296.322 212.027C297.494 212.027 298.303 212.695 298.303 213.662C298.303 214.629 297.494 215.297 296.322 215.297ZM302.369 211.371C303.512 211.371 304.203 210.627 304.203 209.379C304.203 208.148 303.506 207.393 302.369 207.393C301.232 207.393 300.529 208.148 300.529 209.379C300.529 210.621 301.221 211.371 302.369 211.371ZM302.75 216L308.592 207.545H307.637L301.795 216H302.75ZM302.369 210.604C301.777 210.604 301.438 210.158 301.438 209.385C301.438 208.617 301.777 208.166 302.369 208.166C302.955 208.166 303.295 208.617 303.295 209.385C303.295 210.152 302.961 210.604 302.369 210.604ZM308.023 216.082C309.166 216.082 309.857 215.338 309.857 214.09C309.857 212.859 309.16 212.104 308.023 212.104C306.887 212.104 306.184 212.859 306.184 214.09C306.184 215.332 306.881 216.082 308.023 216.082ZM308.023 215.314C307.432 215.314 307.098 214.869 307.098 214.096C307.098 213.328 307.432 212.877 308.023 212.877C308.615 212.877 308.949 213.328 308.949 214.096C308.949 214.863 308.615 215.314 308.023 215.314Z" fill="var(--color-text-default)"/>
<path d="M205.6 118.199C207.393 118.199 208.646 117.186 208.646 115.738C208.646 114.637 207.949 113.781 206.889 113.582V113.488C207.762 113.248 208.301 112.527 208.301 111.602C208.301 110.283 207.182 109.346 205.6 109.346C204.018 109.346 202.898 110.283 202.898 111.602C202.898 112.521 203.449 113.254 204.311 113.488V113.582C203.25 113.781 202.553 114.637 202.553 115.738C202.553 117.186 203.807 118.199 205.6 118.199ZM205.6 113.137C204.604 113.137 203.936 112.562 203.936 111.701C203.936 110.828 204.598 110.248 205.6 110.248C206.602 110.248 207.264 110.828 207.264 111.701C207.264 112.562 206.596 113.137 205.6 113.137ZM205.6 117.297C204.428 117.297 203.619 116.629 203.619 115.662C203.619 114.695 204.428 114.027 205.6 114.027C206.771 114.027 207.58 114.695 207.58 115.662C207.58 116.629 206.771 117.297 205.6 117.297ZM214.236 118H215.268V116.248H216.469V115.305H215.268V109.545H213.738C212.555 111.309 211.26 113.371 210.117 115.287V116.248H214.236V118ZM211.195 115.24C212.115 113.688 213.223 111.941 214.172 110.523H214.242V115.311H211.195V115.24ZM219.369 113.371C220.512 113.371 221.203 112.627 221.203 111.379C221.203 110.148 220.506 109.393 219.369 109.393C218.232 109.393 217.529 110.148 217.529 111.379C217.529 112.621 218.221 113.371 219.369 113.371ZM219.75 118L225.592 109.545H224.637L218.795 118H219.75ZM219.369 112.604C218.777 112.604 218.438 112.158 218.438 111.385C218.438 110.617 218.777 110.166 219.369 110.166C219.955 110.166 220.295 110.617 220.295 111.385C220.295 112.152 219.961 112.604 219.369 112.604ZM225.023 118.082C226.166 118.082 226.857 117.338 226.857 116.09C226.857 114.859 226.16 114.104 225.023 114.104C223.887 114.104 223.184 114.859 223.184 116.09C223.184 117.332 223.881 118.082 225.023 118.082ZM225.023 117.314C224.432 117.314 224.098 116.869 224.098 116.096C224.098 115.328 224.432 114.877 225.023 114.877C225.615 114.877 225.949 115.328 225.949 116.096C225.949 116.863 225.615 117.314 225.023 117.314Z" fill="var(--color-text-default)"/>
<path d="M51.2246 462.287V471H53.0481V468.253H54.6784C56.514 468.253 57.788 467.057 57.788 465.27C57.788 463.476 56.5563 462.287 54.769 462.287H51.2246ZM53.0481 463.73H54.2859C55.3305 463.73 55.9343 464.286 55.9343 465.276C55.9343 466.272 55.3245 466.828 54.2799 466.828H53.0481V463.73ZM62.7876 469.019C62.6246 469.515 62.1295 469.835 61.4834 469.835C60.5837 469.835 59.998 469.201 59.998 468.277V468.168H64.4602V467.631C64.4602 465.662 63.2707 464.388 61.3868 464.388C59.4727 464.388 58.2651 465.729 58.2651 467.794C58.2651 469.865 59.4606 471.139 61.4532 471.139C63.0533 471.139 64.2126 470.287 64.4058 469.019H62.7876ZM61.4049 465.692C62.1898 465.692 62.7272 466.26 62.7635 467.087H60.0161C60.0765 466.278 60.632 465.692 61.4049 465.692ZM65.3719 471H67.1351V467.383C67.1351 466.471 67.6423 465.94 68.5118 465.94C68.7654 465.94 69.0069 465.982 69.1518 466.043V464.491C69.0311 464.455 68.856 464.424 68.6507 464.424C67.8898 464.424 67.3404 464.871 67.1109 465.692H67.0747V464.527H65.3719V471ZM70.3836 471H72.1467V465.856H73.3906V464.557H72.1045V464.129C72.1045 463.67 72.3581 463.416 72.9377 463.416C73.1128 463.416 73.2879 463.428 73.4147 463.452V462.287C73.2095 462.245 72.8411 462.208 72.5151 462.208C70.9814 462.208 70.3836 462.8 70.3836 464.068V464.557H69.502V465.856H70.3836V471ZM77.1101 471.139C79.0664 471.139 80.3163 469.889 80.3163 467.758C80.3163 465.656 79.0483 464.388 77.1101 464.388C75.1718 464.388 73.9038 465.662 73.9038 467.758C73.9038 469.883 75.1537 471.139 77.1101 471.139ZM77.1101 469.792C76.2406 469.792 75.6911 469.062 75.6911 467.764C75.6911 466.477 76.2527 465.735 77.1101 465.735C77.9675 465.735 78.523 466.477 78.523 467.764C78.523 469.062 77.9735 469.792 77.1101 469.792ZM81.2281 471H82.9912V467.383C82.9912 466.471 83.4984 465.94 84.3679 465.94C84.6215 465.94 84.8631 465.982 85.008 466.043V464.491C84.8872 464.455 84.7121 464.424 84.5068 464.424C83.746 464.424 83.1965 464.871 82.9671 465.692H82.9309V464.527H81.2281V471ZM85.7326 471H87.4957V467.093C87.4957 466.369 87.9486 465.862 88.6188 465.862C89.2709 465.862 89.6634 466.272 89.6634 466.967V471H91.3601V467.069C91.3601 466.351 91.8009 465.862 92.4711 465.862C93.1534 465.862 93.5278 466.272 93.5278 467.021V471H95.2909V466.58C95.2909 465.276 94.4396 464.406 93.1715 464.406C92.2236 464.406 91.4507 464.92 91.1608 465.735H91.1246C90.9072 464.889 90.2551 464.406 89.3192 464.406C88.4376 464.406 87.7433 464.92 87.4715 465.699H87.4353V464.527H85.7326V471ZM98.3281 471.103C99.1372 471.103 99.9403 470.698 100.303 470.01H100.339V471H102.042V466.55C102.042 465.246 100.961 464.388 99.3003 464.388C97.5854 464.388 96.5167 465.252 96.4503 466.508H98.0624C98.147 466.031 98.5636 465.705 99.2218 465.705C99.886 465.705 100.309 466.055 100.309 466.659V467.087L98.6783 467.184C97.0662 467.281 96.1604 467.963 96.1604 469.14C96.1604 470.306 97.0963 471.103 98.3281 471.103ZM98.9078 469.829C98.31 469.829 97.9115 469.527 97.9115 469.044C97.9115 468.585 98.2859 468.289 98.944 468.241L100.309 468.156V468.627C100.309 469.327 99.6746 469.829 98.9078 469.829ZM103.183 471H104.946V467.287C104.946 466.447 105.447 465.868 106.238 465.868C107.029 465.868 107.428 466.351 107.428 467.196V471H109.191V466.828C109.191 465.312 108.382 464.406 106.945 464.406C105.948 464.406 105.266 464.877 104.922 465.68H104.886V464.527H103.183V471ZM116.189 466.936C116.11 465.469 114.999 464.388 113.248 464.388C111.31 464.388 110.072 465.68 110.072 467.758C110.072 469.871 111.31 471.139 113.26 471.139C114.963 471.139 116.104 470.155 116.195 468.627H114.553C114.444 469.333 113.985 469.756 113.279 469.756C112.403 469.756 111.86 469.032 111.86 467.758C111.86 466.508 112.403 465.771 113.273 465.771C113.997 465.771 114.45 466.254 114.553 466.936H116.189ZM121.333 469.019C121.17 469.515 120.675 469.835 120.029 469.835C119.13 469.835 118.544 469.201 118.544 468.277V468.168H123.006V467.631C123.006 465.662 121.816 464.388 119.933 464.388C118.019 464.388 116.811 465.729 116.811 467.794C116.811 469.865 118.006 471.139 119.999 471.139C121.599 471.139 122.758 470.287 122.952 469.019H121.333ZM119.951 465.692C120.736 465.692 121.273 466.26 121.309 467.087H118.562C118.622 466.278 119.178 465.692 119.951 465.692ZM129.34 471.139C131.296 471.139 132.546 469.889 132.546 467.758C132.546 465.656 131.278 464.388 129.34 464.388C127.402 464.388 126.134 465.662 126.134 467.758C126.134 469.883 127.384 471.139 129.34 471.139ZM129.34 469.792C128.471 469.792 127.921 469.062 127.921 467.764C127.921 466.477 128.483 465.735 129.34 465.735C130.197 465.735 130.753 466.477 130.753 467.764C130.753 469.062 130.203 469.792 129.34 469.792ZM139.218 464.527H137.377L136.036 469.442H136L134.654 464.527H132.764L135.004 471H136.996L139.218 464.527ZM143.94 469.019C143.777 469.515 143.282 469.835 142.636 469.835C141.736 469.835 141.151 469.201 141.151 468.277V468.168H145.613V467.631C145.613 465.662 144.423 464.388 142.539 464.388C140.625 464.388 139.418 465.729 139.418 467.794C139.418 469.865 140.613 471.139 142.606 471.139C144.206 471.139 145.365 470.287 145.558 469.019H143.94ZM142.558 465.692C143.342 465.692 143.88 466.26 143.916 467.087H141.169C141.229 466.278 141.785 465.692 142.558 465.692ZM146.525 471H148.288V467.383C148.288 466.471 148.795 465.94 149.664 465.94C149.918 465.94 150.16 465.982 150.304 466.043V464.491C150.184 464.455 150.009 464.424 149.803 464.424C149.042 464.424 148.493 464.871 148.264 465.692H148.227V464.527H146.525V471ZM153.951 463.036V464.527H153.04V465.856H153.951V469.255C153.951 470.517 154.543 471.024 156.065 471.024C156.421 471.024 156.723 470.994 156.904 470.952V469.653C156.795 469.672 156.632 469.684 156.475 469.684C155.956 469.684 155.715 469.448 155.715 468.953V465.856H156.91V464.527H155.715V463.036H153.951ZM158.782 463.652C159.295 463.652 159.7 463.241 159.7 462.746C159.7 462.245 159.295 461.84 158.782 461.84C158.269 461.84 157.864 462.245 157.864 462.746C157.864 463.241 158.269 463.652 158.782 463.652ZM157.906 471H159.67V464.527H157.906V471ZM160.847 471H162.61V467.093C162.61 466.369 163.063 465.862 163.733 465.862C164.385 465.862 164.778 466.272 164.778 466.967V471H166.475V467.069C166.475 466.351 166.915 465.862 167.586 465.862C168.268 465.862 168.642 466.272 168.642 467.021V471H170.405V466.58C170.405 465.276 169.554 464.406 168.286 464.406C167.338 464.406 166.565 464.92 166.275 465.735H166.239C166.022 464.889 165.37 464.406 164.434 464.406C163.552 464.406 162.858 464.92 162.586 465.699H162.55V464.527H160.847V471ZM175.81 469.019C175.647 469.515 175.151 469.835 174.505 469.835C173.606 469.835 173.02 469.201 173.02 468.277V468.168H177.482V467.631C177.482 465.662 176.293 464.388 174.409 464.388C172.495 464.388 171.287 465.729 171.287 467.794C171.287 469.865 172.483 471.139 174.475 471.139C176.075 471.139 177.235 470.287 177.428 469.019H175.81ZM174.427 465.692C175.212 465.692 175.749 466.26 175.785 467.087H173.038C173.098 466.278 173.654 465.692 174.427 465.692Z" fill="var(--color-text-default)"/>
<path d="M533.335 502.423C533.427 503.626 534.446 504.408 535.924 504.408C537.518 504.408 538.528 503.592 538.528 502.312C538.528 501.288 537.948 500.728 536.504 500.365L535.774 500.172C534.813 499.926 534.431 499.612 534.431 499.066C534.431 498.361 535.045 497.897 535.972 497.897C536.842 497.897 537.431 498.322 537.552 499.037H538.426C538.354 497.911 537.349 497.109 536.001 497.109C534.528 497.109 533.538 497.911 533.538 499.095C533.538 500.085 534.084 500.655 535.344 500.974L536.238 501.206C537.199 501.447 537.634 501.824 537.634 502.418C537.634 503.109 536.943 503.616 536.006 503.616C535.016 503.616 534.32 503.152 534.214 502.423H533.335ZM542.407 498.945C541.696 498.945 541.073 499.307 540.74 499.906H540.663V499.037H539.87V505.983H540.701V503.462H540.779C541.064 504.012 541.663 504.336 542.407 504.336C543.73 504.336 544.595 503.268 544.595 501.64C544.595 500.003 543.735 498.945 542.407 498.945ZM542.208 503.587C541.271 503.587 540.677 502.834 540.677 501.64C540.677 500.443 541.271 499.694 542.213 499.694C543.165 499.694 543.735 500.423 543.735 501.64C543.735 502.858 543.165 503.587 542.208 503.587ZM545.947 504.244H546.778V496.969H545.947V504.244ZM548.826 498.032C549.145 498.032 549.406 497.771 549.406 497.452C549.406 497.134 549.145 496.873 548.826 496.873C548.507 496.873 548.247 497.134 548.247 497.452C548.247 497.771 548.507 498.032 548.826 498.032ZM548.411 504.244H549.242V499.037H548.411V504.244ZM551.174 497.689V499.037H550.333V499.732H551.174V502.892C551.174 503.887 551.604 504.283 552.676 504.283C552.84 504.283 553 504.263 553.164 504.234V503.534C553.009 503.549 552.927 503.553 552.778 503.553C552.237 503.553 552.005 503.293 552.005 502.679V499.732H553.164V499.037H552.005V497.689H551.174ZM559.801 504.336C561.12 504.336 561.985 503.268 561.985 501.64C561.985 500.003 561.125 498.945 559.801 498.945C559.086 498.945 558.453 499.298 558.168 499.858H558.091V496.969H557.26V504.244H558.053V503.413H558.13C558.458 503.993 559.077 504.336 559.801 504.336ZM559.608 499.694C560.56 499.694 561.125 500.423 561.125 501.64C561.125 502.858 560.56 503.587 559.608 503.587C558.661 503.587 558.072 502.843 558.072 501.64C558.072 500.438 558.661 499.694 559.608 499.694ZM563.54 506.128C564.463 506.128 564.878 505.771 565.322 504.563L567.356 499.037H566.472L565.047 503.322H564.97L563.54 499.037H562.642L564.569 504.249L564.472 504.558C564.255 505.186 563.994 505.413 563.516 505.413C563.4 505.413 563.269 505.408 563.168 505.389V506.099C563.284 506.118 563.429 506.128 563.54 506.128Z" fill="var(--color-text-default)"/>
<g clip-path="url(#clip0_851_9799)">
<path fill-rule="evenodd" clip-rule="evenodd" d="M674.42 498.461L671.897 500.953L669.375 498.461C669.103 498.193 668.663 498.193 668.391 498.461C668.12 498.729 668.12 499.165 668.391 499.433L671.897 502.897L675.404 499.433C675.539 499.299 675.607 499.123 675.607 498.947C675.607 498.771 675.539 498.595 675.404 498.461C675.268 498.327 675.09 498.26 674.912 498.26C674.734 498.26 674.556 498.327 674.42 498.461Z" fill="var(--color-text-default)"/>
<path d="M582.798 502.73C582.889 503.932 583.909 504.715 585.387 504.715C586.981 504.715 587.99 503.899 587.99 502.619C587.99 501.595 587.411 501.034 585.967 500.672L585.237 500.479C584.276 500.232 583.894 499.918 583.894 499.372C583.894 498.667 584.508 498.203 585.435 498.203C586.305 498.203 586.894 498.629 587.015 499.343H587.889C587.817 498.218 586.812 497.416 585.464 497.416C583.991 497.416 583.001 498.218 583.001 499.401C583.001 500.392 583.546 500.962 584.807 501.281L585.701 501.512C586.662 501.754 587.097 502.131 587.097 502.725C587.097 503.416 586.406 503.923 585.469 503.923C584.479 503.923 583.783 503.459 583.677 502.73H582.798ZM591.473 504.643C592.956 504.643 593.874 503.618 593.874 501.947C593.874 500.271 592.956 499.252 591.473 499.252C589.99 499.252 589.073 500.271 589.073 501.947C589.073 503.618 589.99 504.643 591.473 504.643ZM591.473 503.894C590.488 503.894 589.932 503.179 589.932 501.947C589.932 500.711 590.488 500 591.473 500C592.459 500 593.014 500.711 593.014 501.947C593.014 503.179 592.459 503.894 591.473 503.894ZM599.391 499.343H598.56V502.425C598.56 503.338 598.057 503.884 597.139 503.884C596.309 503.884 595.961 503.449 595.961 502.512V499.343H595.13V502.715C595.13 503.947 595.739 504.643 596.908 504.643C597.705 504.643 598.26 504.314 598.521 503.734H598.598V504.551H599.391V499.343ZM600.956 504.551H601.786V501.324C601.786 500.59 602.361 500.058 603.153 500.058C603.318 500.058 603.617 500.087 603.685 500.107V499.276C603.579 499.261 603.405 499.252 603.269 499.252C602.579 499.252 601.98 499.609 601.825 500.116H601.748V499.343H600.956V504.551ZM608.887 500.938C608.742 500.01 607.97 499.252 606.704 499.252C605.245 499.252 604.318 500.305 604.318 501.928C604.318 503.585 605.25 504.643 606.709 504.643C607.96 504.643 608.738 503.937 608.887 502.981H608.047C607.892 503.57 607.404 503.894 606.704 503.894C605.776 503.894 605.177 503.131 605.177 501.928C605.177 500.749 605.767 500 606.704 500C607.453 500 607.912 500.421 608.047 500.938H608.887ZM613.563 503.203C613.346 503.662 612.892 503.908 612.22 503.908C611.336 503.908 610.762 503.256 610.718 502.227V502.189H614.462V501.87C614.462 500.252 613.607 499.252 612.201 499.252C610.771 499.252 609.853 500.314 609.853 501.952C609.853 503.599 610.757 504.643 612.201 504.643C613.341 504.643 614.153 504.092 614.394 503.203H613.563ZM612.191 499.986C613.017 499.986 613.568 500.595 613.587 501.517H610.718C610.781 500.595 611.361 499.986 612.191 499.986Z" fill="var(--color-text-default)"/>
<rect x="572.968" y="486.204" width="111.913" height="28.4421" rx="9.27459" stroke="#EFEFEF" stroke-width="1.23661"/>
</g>
<g clip-path="url(#clip1_851_9799)">
<path fill-rule="evenodd" clip-rule="evenodd" d="M197.088 498.461L194.565 500.953L192.043 498.461C191.771 498.193 191.331 498.193 191.059 498.461C190.788 498.729 190.788 499.165 191.059 499.433L194.565 502.897L198.071 499.433C198.207 499.299 198.275 499.123 198.275 498.947C198.275 498.771 198.207 498.595 198.071 498.461C197.936 498.327 197.758 498.26 197.58 498.26C197.402 498.26 197.224 498.327 197.088 498.461Z" fill="var(--color-text-default)"/>
<path d="M62.1509 504.551V497.58H61.2814V504.551H62.1509ZM63.8222 504.551H64.6531V501.324C64.6531 500.59 65.1796 500 65.8607 500C66.5177 500 66.9476 500.397 66.9476 501.015V504.551H67.7784V501.203C67.7784 500.541 68.2615 500 68.9861 500C69.7203 500 70.0826 500.377 70.0826 501.145V504.551H70.9134V500.952C70.9134 499.86 70.3193 499.252 69.2566 499.252C68.5368 499.252 67.9427 499.614 67.6625 500.165H67.5852C67.3437 499.624 66.851 499.252 66.1457 499.252C65.4501 499.252 64.9284 499.585 64.6917 500.165H64.6144V499.343H63.8222V504.551ZM74.9662 499.252C74.2562 499.252 73.633 499.614 73.2997 500.213H73.2224V499.343H72.4302V506.29H73.2611V503.768H73.3384C73.6234 504.319 74.2223 504.643 74.9662 504.643C76.2898 504.643 77.1545 503.575 77.1545 501.947C77.1545 500.31 76.2946 499.252 74.9662 499.252ZM74.7682 503.894C73.8311 503.894 73.2369 503.14 73.2369 501.947C73.2369 500.749 73.8311 500 74.773 500C75.7246 500 76.2946 500.73 76.2946 501.947C76.2946 503.164 75.7246 503.894 74.7682 503.894ZM78.4587 504.551H79.2895V501.324C79.2895 500.59 79.8644 500.058 80.6566 500.058C80.8208 500.058 81.1203 500.087 81.1879 500.107V499.276C81.0817 499.261 80.9078 499.252 80.7725 499.252C80.0818 499.252 79.4828 499.609 79.3282 500.116H79.2509V499.343H78.4587V504.551ZM85.5306 503.203C85.3132 503.662 84.8591 503.908 84.1877 503.908C83.3037 503.908 82.7289 503.256 82.6854 502.227V502.189H86.429V501.87C86.429 500.252 85.574 499.252 84.1684 499.252C82.7385 499.252 81.8207 500.314 81.8207 501.952C81.8207 503.599 82.724 504.643 84.1684 504.643C85.3084 504.643 86.1199 504.092 86.3614 503.203H85.5306ZM84.1587 499.986C84.9847 499.986 85.5354 500.595 85.5547 501.517H82.6854C82.7482 500.595 83.3279 499.986 84.1587 499.986ZM87.6125 500.768C87.6125 501.522 88.0569 501.942 89.0327 502.179L89.9263 502.396C90.4818 502.532 90.7524 502.773 90.7524 503.131C90.7524 503.609 90.25 503.942 89.5496 503.942C88.8829 503.942 88.4675 503.662 88.3274 503.222H87.4724C87.5642 504.087 88.3613 504.643 89.5206 504.643C90.704 504.643 91.6074 504 91.6074 503.068C91.6074 502.319 91.134 501.894 90.1534 501.657L89.3515 501.464C88.738 501.314 88.4482 501.092 88.4482 500.735C88.4482 500.271 88.9313 499.957 89.5496 499.957C90.1775 499.957 90.5833 500.232 90.6944 500.648H91.5156C91.4045 499.793 90.6461 499.252 89.5544 499.252C88.4482 499.252 87.6125 499.904 87.6125 500.768ZM92.6942 500.768C92.6942 501.522 93.1386 501.942 94.1144 502.179L95.008 502.396C95.5635 502.532 95.8341 502.773 95.8341 503.131C95.8341 503.609 95.3317 503.942 94.6313 503.942C93.9646 503.942 93.5492 503.662 93.4091 503.222H92.5541C92.6459 504.087 93.443 504.643 94.6023 504.643C95.7858 504.643 96.6891 504 96.6891 503.068C96.6891 502.319 96.2157 501.894 95.2351 501.657L94.4332 501.464C93.8197 501.314 93.5299 501.092 93.5299 500.735C93.5299 500.271 94.013 499.957 94.6313 499.957C95.2592 499.957 95.665 500.232 95.7761 500.648H96.5973C96.4862 499.793 95.7278 499.252 94.6361 499.252C93.5299 499.252 92.6942 499.904 92.6942 500.768ZM98.428 498.339C98.7469 498.339 99.0077 498.078 99.0077 497.759C99.0077 497.44 98.7469 497.179 98.428 497.179C98.1092 497.179 97.8484 497.44 97.8484 497.759C97.8484 498.078 98.1092 498.339 98.428 498.339ZM98.0126 504.551H98.8435V499.343H98.0126V504.551ZM102.568 504.643C104.051 504.643 104.969 503.618 104.969 501.947C104.969 500.271 104.051 499.252 102.568 499.252C101.085 499.252 100.167 500.271 100.167 501.947C100.167 503.618 101.085 504.643 102.568 504.643ZM102.568 503.894C101.582 503.894 101.027 503.179 101.027 501.947C101.027 500.711 101.582 500 102.568 500C103.553 500 104.109 500.711 104.109 501.947C104.109 503.179 103.553 503.894 102.568 503.894ZM106.273 504.551H107.104V501.469C107.104 500.556 107.64 500 108.471 500C109.302 500 109.698 500.445 109.698 501.382V504.551H110.528V501.179C110.528 499.942 109.876 499.252 108.707 499.252C107.91 499.252 107.403 499.59 107.142 500.165H107.065V499.343H106.273V504.551ZM111.929 500.768C111.929 501.522 112.374 501.942 113.349 502.179L114.243 502.396C114.799 502.532 115.069 502.773 115.069 503.131C115.069 503.609 114.567 503.942 113.866 503.942C113.2 503.942 112.784 503.662 112.644 503.222H111.789C111.881 504.087 112.678 504.643 113.837 504.643C115.021 504.643 115.924 504 115.924 503.068C115.924 502.319 115.451 501.894 114.47 501.657L113.668 501.464C113.055 501.314 112.765 501.092 112.765 500.735C112.765 500.271 113.248 499.957 113.866 499.957C114.494 499.957 114.9 500.232 115.011 500.648H115.832C115.721 499.793 114.963 499.252 113.871 499.252C112.765 499.252 111.929 499.904 111.929 500.768Z" fill="var(--color-text-default)"/>
<rect x="51.1183" y="486.204" width="156.431" height="28.4421" rx="9.27459" stroke="#EFEFEF" stroke-width="1.23661"/>
<line x1="51.4283" y1="525.776" x2="51.4283" y2="701.994" stroke="black" stroke-width="0.618306"/>
</g>
<path fill-rule="evenodd" clip-rule="evenodd" d="M225.055 498.533H222.969V500.62C222.969 500.94 222.709 501.2 222.389 501.2C222.069 501.2 221.809 500.94 221.809 500.62V498.533H219.723C219.403 498.533 219.143 498.273 219.143 497.953C219.143 497.633 219.403 497.374 219.723 497.374H221.809V495.287C221.809 494.967 222.069 494.707 222.389 494.707C222.709 494.707 222.969 494.967 222.969 495.287V497.374H225.055C225.375 497.374 225.635 497.633 225.635 497.953C225.635 498.273 225.375 498.533 225.055 498.533ZM222.389 492.389C219.316 492.389 216.824 494.88 216.824 497.953C216.824 501.027 219.316 503.518 222.389 503.518C225.462 503.518 227.954 501.027 227.954 497.953C227.954 494.88 225.462 492.389 222.389 492.389Z" fill="#767676"/>
<line x1="685.5" y1="702.303" x2="51.7366" y2="702.303" stroke="var(--color-text-default)" stroke-width="0.618306"/>
<line x1="685.5" y1="658.403" x2="51.7366" y2="658.403" stroke="#EFEFEF" stroke-width="0.618306"/>
<line x1="685.5" y1="614.504" x2="51.7366" y2="614.504" stroke="#EFEFEF" stroke-width="0.618306"/>
<line x1="685.5" y1="570.604" x2="51.7366" y2="570.604" stroke="#EFEFEF" stroke-width="0.618306"/>
<line x1="685.5" y1="526.086" x2="51.7366" y2="526.086" stroke="#EFEFEF" stroke-width="0.618306"/>
<line x1="685.5" y1="526.086" x2="51.7366" y2="526.086" stroke="#EFEFEF" stroke-width="0.618306"/>
<line x1="685.5" y1="526.086" x2="51.7366" y2="526.086" stroke="#EFEFEF" stroke-width="0.618306"/>
<line x1="685.5" y1="526.086" x2="51.7366" y2="526.086" stroke="#EFEFEF" stroke-width="0.618306"/>
<line x1="685.5" y1="526.086" x2="51.7366" y2="526.086" stroke="#EFEFEF" stroke-width="0.618306"/>
<path d="M59.6231 667.072C60.6918 667.072 61.42 666.333 61.42 665.257C61.42 664.221 60.6954 663.533 59.8187 663.533C59.297 663.533 58.9093 663.692 58.6557 664.007H58.5978L58.7608 662.305H61.1519V661.721H58.25L57.9493 664.71H58.5615C58.768 664.323 59.1593 664.094 59.6557 664.094C60.315 664.094 60.7679 664.569 60.7679 665.275C60.7679 666.007 60.315 666.5 59.6303 666.5C59.0144 666.5 58.5652 666.127 58.5072 665.569H57.866C57.9239 666.464 58.634 667.072 59.6231 667.072ZM64.235 667.072C65.4088 667.072 66.0827 666.08 66.0827 664.344C66.0827 662.613 65.3979 661.598 64.235 661.598C63.0648 661.598 62.3801 662.609 62.3801 664.333C62.3801 666.072 63.0575 667.072 64.235 667.072ZM64.235 666.504C63.4633 666.504 63.0358 665.732 63.0358 664.333C63.0358 662.953 63.4706 662.171 64.235 662.171C64.9994 662.171 65.4269 662.946 65.4269 664.333C65.4269 665.736 65.0067 666.504 64.235 666.504ZM67.8724 664.75H67.8144V661.493H67.1913V666.949H67.8144V665.467L68.1876 665.12L69.6512 666.949H70.4446L68.6513 664.718L70.3323 663.044H69.5679L67.8724 664.75Z" fill="var(--color-text-default)"/>
<path d="M84.2002 712.101C84.2002 712.902 84.8161 713.445 85.6929 713.445C86.6384 713.445 87.2145 712.862 87.2145 711.866V708.094H86.5624V711.862C86.5624 712.503 86.2472 712.844 85.6892 712.844C85.1965 712.844 84.8632 712.54 84.8487 712.101H84.2002ZM91.6272 709.417H91.004V711.728C91.004 712.413 90.6272 712.822 89.9389 712.822C89.3158 712.822 89.0549 712.496 89.0549 711.793V709.417H88.4318V711.946C88.4318 712.869 88.8883 713.391 89.765 713.391C90.3628 713.391 90.7794 713.145 90.975 712.71H91.033V713.322H91.6272V709.417ZM92.8372 713.322H93.4603V707.866H92.8372V713.322ZM96.9782 713.322H97.6629L99.9888 708.699V708.094H96.5289V708.678H99.3258V708.728L96.9782 713.322Z" fill="var(--color-text-default)"/>
<path d="M161.487 712.101C161.487 712.902 162.103 713.445 162.98 713.445C163.926 713.445 164.502 712.862 164.502 711.866V708.094H163.849V711.862C163.849 712.503 163.534 712.844 162.976 712.844C162.484 712.844 162.15 712.54 162.136 712.101H161.487ZM168.914 709.417H168.291V711.728C168.291 712.413 167.914 712.822 167.226 712.822C166.603 712.822 166.342 712.496 166.342 711.793V709.417H165.719V711.946C165.719 712.869 166.175 713.391 167.052 713.391C167.65 713.391 168.067 713.145 168.262 712.71H168.32V713.322H168.914V709.417ZM170.124 713.322H170.747V707.866H170.124V713.322ZM175.298 713.322H175.95V708.094H175.301L173.91 709.094V709.783L175.24 708.819H175.298V713.322ZM178.761 713.322H179.413V708.094H178.765L177.374 709.094V709.783L178.703 708.819H178.761V713.322Z" fill="var(--color-text-default)"/>
<path d="M241.249 712.101C241.249 712.902 241.865 713.445 242.742 713.445C243.687 713.445 244.263 712.862 244.263 711.866V708.094H243.611V711.862C243.611 712.503 243.296 712.844 242.738 712.844C242.245 712.844 241.912 712.54 241.898 712.101H241.249ZM248.676 709.417H248.053V711.728C248.053 712.413 247.676 712.822 246.988 712.822C246.365 712.822 246.104 712.496 246.104 711.793V709.417H245.481V711.946C245.481 712.869 245.937 713.391 246.814 713.391C247.412 713.391 247.828 713.145 248.024 712.71H248.082V713.322H248.676V709.417ZM249.886 713.322H250.509V707.866H249.886V713.322ZM255.06 713.322H255.712V708.094H255.063L253.672 709.094V709.783L255.002 708.819H255.06V713.322ZM259.012 713.445C260.081 713.445 260.809 712.706 260.809 711.63C260.809 710.594 260.084 709.906 259.208 709.906C258.686 709.906 258.298 710.065 258.045 710.38H257.987L258.15 708.678H260.541V708.094H257.639L257.338 711.083H257.951C258.157 710.696 258.548 710.467 259.045 710.467C259.704 710.467 260.157 710.942 260.157 711.648C260.157 712.38 259.704 712.873 259.019 712.873C258.403 712.873 257.954 712.5 257.896 711.942H257.255C257.313 712.837 258.023 713.445 259.012 713.445Z" fill="var(--color-text-default)"/>
<path d="M320.394 712.101C320.394 712.902 321.009 713.445 321.886 713.445C322.832 713.445 323.408 712.862 323.408 711.866V708.094H322.756V711.862C322.756 712.503 322.441 712.844 321.883 712.844C321.39 712.844 321.057 712.54 321.042 712.101H320.394ZM327.821 709.417H327.197V711.728C327.197 712.413 326.821 712.822 326.132 712.822C325.509 712.822 325.248 712.496 325.248 711.793V709.417H324.625V711.946C324.625 712.869 325.082 713.391 325.958 713.391C326.556 713.391 326.973 713.145 327.168 712.71H327.226V713.322H327.821V709.417ZM329.031 713.322H329.654V707.866H329.031V713.322ZM334.204 713.322H334.856V708.094H334.208L332.816 709.094V709.783L334.146 708.819H334.204V713.322ZM338.088 713.442C339.367 713.442 340.098 712.413 340.098 710.616C340.098 708.837 339.258 707.971 338.131 707.971C337.059 707.971 336.298 708.721 336.298 709.772C336.298 710.786 337.019 711.522 338.015 711.522C338.638 711.522 339.149 711.225 339.407 710.717H339.464C339.428 712.109 338.946 712.862 338.095 712.862C337.581 712.862 337.182 712.576 337.044 712.105H336.374C336.537 712.927 337.2 713.442 338.088 713.442ZM338.131 710.957C337.439 710.957 336.957 710.464 336.957 709.75C336.957 709.065 337.468 708.544 338.138 708.544C338.809 708.544 339.32 709.073 339.32 709.772C339.32 710.464 338.823 710.957 338.131 710.957Z" fill="var(--color-text-default)"/>
<path d="M400.153 712.101C400.153 712.902 400.769 713.445 401.646 713.445C402.592 713.445 403.168 712.862 403.168 711.866V708.094H402.515V711.862C402.515 712.503 402.2 712.844 401.642 712.844C401.15 712.844 400.816 712.54 400.802 712.101H400.153ZM407.58 709.417H406.957V711.728C406.957 712.413 406.58 712.822 405.892 712.822C405.269 712.822 405.008 712.496 405.008 711.793V709.417H404.385V711.946C404.385 712.869 404.841 713.391 405.718 713.391C406.316 713.391 406.733 713.145 406.928 712.71H406.986V713.322H407.58V709.417ZM408.79 713.322H409.413V707.866H408.79V713.322ZM412.681 709.569H413.312C413.312 708.949 413.728 708.54 414.355 708.54C414.971 708.54 415.344 708.953 415.344 709.507C415.344 709.967 415.148 710.239 414.482 710.96L412.714 712.873V713.322H416.098V712.735H413.62V712.677L414.808 711.449C415.75 710.475 416.011 710.04 416.011 709.439C416.011 708.591 415.312 707.971 414.399 707.971C413.399 707.971 412.681 708.638 412.681 709.569ZM418.297 710.913H418.945C419.681 710.913 420.134 711.29 420.134 711.895C420.134 712.482 419.644 712.877 418.956 712.877C418.282 712.877 417.811 712.525 417.753 711.975H417.123C417.17 712.862 417.902 713.445 418.963 713.445C420.003 713.445 420.804 712.79 420.804 711.913C420.804 711.185 420.355 710.725 419.677 710.616V710.558C420.213 710.402 420.605 709.986 420.608 709.355C420.612 708.623 420.018 707.971 418.985 707.971C417.927 707.971 417.279 708.598 417.214 709.449H417.848C417.902 708.862 418.311 708.54 418.942 708.54C419.572 708.54 419.945 708.939 419.945 709.428C419.945 709.971 419.518 710.355 418.916 710.355H418.297V710.913Z" fill="var(--color-text-default)"/>
<path d="M479.915 712.101C479.915 712.902 480.531 713.445 481.408 713.445C482.353 713.445 482.929 712.862 482.929 711.866V708.094H482.277V711.862C482.277 712.503 481.962 712.844 481.404 712.844C480.911 712.844 480.578 712.54 480.564 712.101H479.915ZM487.342 709.417H486.719V711.728C486.719 712.413 486.342 712.822 485.654 712.822C485.031 712.822 484.77 712.496 484.77 711.793V709.417H484.147V711.946C484.147 712.869 484.603 713.391 485.48 713.391C486.078 713.391 486.494 713.145 486.69 712.71H486.748V713.322H487.342V709.417ZM488.552 713.322H489.175V707.866H488.552V713.322ZM492.443 709.569H493.073C493.073 708.949 493.49 708.54 494.117 708.54C494.733 708.54 495.106 708.953 495.106 709.507C495.106 709.967 494.91 710.239 494.244 710.96L492.476 712.873V713.322H495.859V712.735H493.381V712.677L494.57 711.449C495.512 710.475 495.772 710.04 495.772 709.439C495.772 708.591 495.073 707.971 494.16 707.971C493.16 707.971 492.443 708.638 492.443 709.569ZM497.178 713.322H497.863L500.189 708.699V708.094H496.729V708.678H499.526V708.728L497.178 713.322Z" fill="var(--color-text-default)"/>
<path d="M559.06 712.101C559.06 712.902 559.676 713.445 560.552 713.445C561.498 713.445 562.074 712.862 562.074 711.866V708.094H561.422V711.862C561.422 712.503 561.107 712.844 560.549 712.844C560.056 712.844 559.723 712.54 559.708 712.101H559.06ZM566.487 709.417H565.863V711.728C565.863 712.413 565.487 712.822 564.798 712.822C564.175 712.822 563.914 712.496 563.914 711.793V709.417H563.291V711.946C563.291 712.869 563.748 713.391 564.624 713.391C565.222 713.391 565.639 713.145 565.834 712.71H565.892V713.322H566.487V709.417ZM567.697 713.322H568.32V707.866H567.697V713.322ZM572.718 710.913H573.366C574.102 710.913 574.555 711.29 574.555 711.895C574.555 712.482 574.066 712.877 573.377 712.877C572.703 712.877 572.232 712.525 572.174 711.975H571.544C571.591 712.862 572.323 713.445 573.385 713.445C574.424 713.445 575.225 712.79 575.225 711.913C575.225 711.185 574.776 710.725 574.098 710.616V710.558C574.634 710.402 575.026 709.986 575.029 709.355C575.033 708.623 574.439 707.971 573.406 707.971C572.348 707.971 571.7 708.598 571.635 709.449H572.269C572.323 708.862 572.732 708.54 573.363 708.54C573.993 708.54 574.366 708.939 574.366 709.428C574.366 709.971 573.939 710.355 573.337 710.355H572.718V710.913ZM577.522 713.322H578.174V708.094H577.525L576.134 709.094V709.783L577.464 708.819H577.522V713.322Z" fill="var(--color-text-default)"/>
<path d="M643.192 713.322H643.877L641.949 708.094H641.304L639.377 713.322H640.062L640.587 711.826H642.667L643.192 713.322ZM641.598 708.939H641.656L642.474 711.272H640.779L641.598 708.939ZM647.691 709.417H647.068V711.728C647.068 712.413 646.692 712.822 646.003 712.822C645.38 712.822 645.119 712.496 645.119 711.793V709.417H644.496V711.946C644.496 712.869 644.953 713.391 645.829 713.391C646.427 713.391 646.844 713.145 647.039 712.71H647.097V713.322H647.691V709.417ZM650.474 714.822C651.539 714.822 652.213 714.264 652.213 713.391V709.417H651.619V710.036H651.561C651.336 709.616 650.854 709.348 650.307 709.348C649.304 709.348 648.67 710.141 648.67 711.312C648.67 712.482 649.296 713.264 650.307 713.264C650.843 713.264 651.285 713.022 651.532 712.59H651.59V713.358C651.59 713.935 651.173 714.279 650.474 714.279C649.912 714.279 649.564 714.072 649.496 713.753H648.836C648.93 714.398 649.532 714.822 650.474 714.822ZM650.445 712.714C649.72 712.714 649.315 712.163 649.315 711.312C649.315 710.46 649.72 709.91 650.445 709.91C651.166 709.91 651.604 710.46 651.604 711.312C651.604 712.163 651.169 712.714 650.445 712.714ZM655.694 713.322H656.379L658.705 708.699V708.094H655.245V708.678H658.042V708.728L655.694 713.322Z" fill="var(--color-text-default)"/>
<path d="M57.4843 623.049H58.169L60.4949 618.426V617.821H57.035V618.404H59.8319V618.455L57.4843 623.049ZM63.1649 623.172C64.2337 623.172 64.9619 622.433 64.9619 621.357C64.9619 620.321 64.2373 619.632 63.3606 619.632C62.8389 619.632 62.4512 619.792 62.1976 620.107H62.1397L62.3027 618.404H64.6938V617.821H61.7919L61.4912 620.81H62.1034C62.3099 620.422 62.7012 620.194 63.1975 620.194C63.8569 620.194 64.3098 620.669 64.3098 621.375C64.3098 622.107 63.8569 622.6 63.1722 622.6C62.5563 622.6 62.1071 622.226 62.0491 621.669H61.4078C61.4658 622.563 62.1759 623.172 63.1649 623.172ZM66.7407 620.85H66.6828V617.593H66.0596V623.049H66.6828V621.567L67.0559 621.219L68.5196 623.049H69.313L67.5196 620.817L69.2007 619.143H68.4362L66.7407 620.85Z" fill="var(--color-text-default)"/>
<path d="M58.5168 579.15H59.1689V573.923H58.5204L57.1292 574.922V575.611L58.4588 574.647H58.5168V579.15ZM62.4875 579.274C63.6613 579.274 64.3351 578.281 64.3351 576.546C64.3351 574.814 63.6504 573.799 62.4875 573.799C61.3173 573.799 60.6325 574.81 60.6325 576.535C60.6325 578.274 61.31 579.274 62.4875 579.274ZM62.4875 578.705C61.7158 578.705 61.2883 577.933 61.2883 576.535C61.2883 575.154 61.723 574.372 62.4875 574.372C63.2519 574.372 63.6794 575.147 63.6794 576.535C63.6794 577.937 63.2591 578.705 62.4875 578.705ZM67.161 579.274C68.3348 579.274 69.0086 578.281 69.0086 576.546C69.0086 574.814 68.3239 573.799 67.161 573.799C65.9908 573.799 65.3061 574.81 65.3061 576.535C65.3061 578.274 65.9835 579.274 67.161 579.274ZM67.161 578.705C66.3893 578.705 65.9618 577.933 65.9618 576.535C65.9618 575.154 66.3965 574.372 67.161 574.372C67.9254 574.372 68.3529 575.147 68.3529 576.535C68.3529 577.937 67.9327 578.705 67.161 578.705ZM70.7984 576.951H70.7404V573.694H70.1173V579.15H70.7404V577.669L71.1135 577.321L72.5772 579.15H73.3706L71.5773 576.919L73.2583 575.245H72.4939L70.7984 576.951Z" fill="var(--color-text-default)"/>
<path d="M58.5168 534.633H59.1689V529.405H58.5204L57.1292 530.405V531.093L58.4588 530.13H58.5168V534.633ZM60.6978 530.88H61.3281C61.3281 530.26 61.7448 529.851 62.3715 529.851C62.9874 529.851 63.3606 530.264 63.3606 530.818C63.3606 531.278 63.1649 531.55 62.4983 532.271L60.7304 534.184V534.633H64.1141V534.046H61.6361V533.988L62.8244 532.76C63.7663 531.785 64.0272 531.35 64.0272 530.749C64.0272 529.901 63.328 529.282 62.415 529.282C61.4151 529.282 60.6978 529.948 60.6978 530.88ZM66.9545 534.756C68.0232 534.756 68.7514 534.017 68.7514 532.941C68.7514 531.905 68.0268 531.216 67.1501 531.216C66.6284 531.216 66.2408 531.376 65.9872 531.691H65.9292L66.0922 529.988H68.4833V529.405H65.5814L65.2807 532.394H65.893C66.0995 532.006 66.4907 531.778 66.9871 531.778C67.6464 531.778 68.0993 532.253 68.0993 532.959C68.0993 533.691 67.6464 534.184 66.9617 534.184C66.3458 534.184 65.8966 533.81 65.8386 533.252H65.1974C65.2553 534.147 65.9654 534.756 66.9545 534.756ZM70.5303 532.434H70.4723V529.177H69.8492V534.633H70.4723V533.151L70.8455 532.803L72.3091 534.633H73.1025L71.3092 532.401L72.9902 530.727H72.2258L70.5303 532.434Z" fill="var(--color-text-default)"/>
<line x1="51.4272" y1="701.994" x2="51.4272" y2="525.159" stroke="var(--color-text-default)" stroke-width="0.618306"/>
<path d="M93.1621 570.149L113.795 565.345H132.791L155.717 561.056L177.005 571.178H196.001L218.272 573.751L238.25 559.856L261.176 554.966L282.792 571.178L302.443 565.345L325.696 569.291L345.347 567.747L366.308 569.291L408.557 547.418L449.496 574.866L470.457 563.63L491.418 577.097L514.671 565.345L555.938 572.55L575.261 563.63L596.877 573.751L617.183 572.55L639.126 554.966" stroke="var(--color-data-visualization-01)" stroke-width="1.85492" stroke-linecap="round" stroke-linejoin="round"/>
<circle cx="650.255" cy="575.86" r="4.32814" fill="var(--color-data-visualization-01)" stroke="white" stroke-width="1.23661"/>
<circle cx="666.95" cy="564.731" r="4.32814" fill="var(--color-data-visualization-01)" stroke="white" stroke-width="1.23661"/>
<path opacity="0.4" d="M639.127 554.838L649.947 575.86L666.951 564.422" stroke="var(--color-data-visualization-01)" stroke-width="1.85492" stroke-linecap="round" stroke-dasharray="2.47 4.95"/>
<path d="M93.1621 640.807L113.795 642.108H132.791L155.717 643.269L177.005 640.528H196.001L218.272 639.831L238.25 643.594L261.176 644.919L282.792 640.528L302.443 642.108L325.696 641.039L345.347 641.457L366.308 641.039L408.557 646.963L449.496 639.529L470.457 642.572L491.418 638.925L514.671 642.108L555.938 640.156L575.261 642.572L596.877 639.831L617.183 640.156H637.271" stroke="var(--color-data-visualization-02)" stroke-width="1.85492" stroke-linecap="round" stroke-linejoin="round"/>
<circle cx="650.255" cy="649.436" r="4.32814" fill="var(--color-data-visualization-02)" stroke="white" stroke-width="1.23661"/>
<circle cx="666.95" cy="645.108" r="4.32814" fill="var(--color-data-visualization-02)" stroke="white" stroke-width="1.23661"/>
<path opacity="0.4" d="M637.58 640.162L650.255 649.437L666.95 644.799" stroke="var(--color-data-visualization-02)" stroke-width="1.85492" stroke-linecap="round" stroke-dasharray="2.47 4.95"/>
<rect x="0.5" y="0.5" width="735" height="754.322" stroke="#E9E9E9"/>
<defs>
<clipPath id="clip0_851_9799">
<rect width="113.15" height="43.2814" fill="white" transform="translate(572.35 485.587)"/>
</clipPath>
<clipPath id="clip1_851_9799">
<rect width="157.668" height="43.2814" fill="white" transform="translate(50.5 485.587)"/>
</clipPath>
</defs>
</svg>
