<svg  viewBox="0 0 736 442" fill="none" xmlns="http://www.w3.org/2000/svg">
<g clip-path="url(#clip0_851_10726)">
<path d="M57.1127 164.177H57.538V163.564C58.3745 163.5 59.0692 163.036 59.0692 162.182C59.0692 161.437 58.5588 161.062 57.6479 160.842L57.538 160.817V159.204C58.0165 159.265 58.3568 159.545 58.4029 160.023H59.0196C58.9948 159.24 58.3568 158.722 57.538 158.648V158.035H57.1127V158.651C56.2727 158.726 55.6737 159.229 55.6737 159.991C55.6737 160.689 56.1487 161.083 57.0312 161.295L57.1127 161.317V163.007C56.4995 162.94 56.2266 162.603 56.1628 162.16H55.5461C55.5709 162.986 56.2692 163.486 57.1127 163.56V164.177ZM56.2904 159.949C56.2904 159.605 56.574 159.279 57.1127 159.208V160.714C56.5031 160.565 56.2904 160.296 56.2904 159.949ZM57.5593 161.423C58.2611 161.593 58.4525 161.841 58.4525 162.231C58.4525 162.639 58.1973 162.961 57.538 163.011V161.42L57.5593 161.423ZM61.4652 163.663H62.1031V158.549H61.4687L60.1077 159.527V160.2L61.4084 159.257H61.4652V163.663ZM65.332 163.784C66.3776 163.784 67.09 163.061 67.09 162.008C67.09 160.994 66.3812 160.321 65.5234 160.321C65.013 160.321 64.6338 160.477 64.3857 160.785H64.329L64.4885 159.119H66.8277V158.549H63.9887L63.6945 161.473H64.2935C64.4956 161.093 64.8784 160.87 65.3639 160.87C66.009 160.87 66.452 161.334 66.452 162.026C66.452 162.742 66.009 163.224 65.3391 163.224C64.7366 163.224 64.2971 162.859 64.2404 162.313H63.613C63.6697 163.188 64.3644 163.784 65.332 163.784ZM68.8303 161.512H68.7736V158.325H68.164V163.663H68.7736V162.213L69.1386 161.873L70.5706 163.663H71.3468L69.5923 161.48L71.2369 159.842H70.489L68.8303 161.512Z" fill="#111111"/>
<rect x="50.125" y="153.034" width="635.75" height="0.687488" fill="#EFEFEF"/>
</g>
<g clip-path="url(#clip1_851_10726)">
<path d="M57.1127 203.747H57.538V203.134C58.3745 203.07 59.0692 202.606 59.0692 201.752C59.0692 201.008 58.5588 200.632 57.6479 200.412L57.538 200.387V198.775C58.0165 198.835 58.3568 199.115 58.4029 199.593H59.0196C58.9948 198.81 58.3568 198.293 57.538 198.218V197.605H57.1127V198.222C56.2727 198.296 55.6737 198.799 55.6737 199.561C55.6737 200.26 56.1487 200.653 57.0312 200.866L57.1127 200.887V202.578C56.4995 202.51 56.2266 202.174 56.1628 201.731H55.5461C55.5709 202.556 56.2692 203.056 57.1127 203.131V203.747ZM56.2904 199.519C56.2904 199.175 56.574 198.849 57.1127 198.778V200.285C56.5031 200.136 56.2904 199.866 56.2904 199.519ZM57.5593 200.993C58.2611 201.164 58.4525 201.412 58.4525 201.801C58.4525 202.209 58.1973 202.532 57.538 202.581V200.99L57.5593 200.993ZM61.4652 203.233H62.1031V198.119H61.4687L60.1077 199.097V199.771L61.4084 198.828H61.4652V203.233ZM64.8535 203.233H65.4915V198.119H64.8571L63.4961 199.097V199.771L64.7968 198.828H64.8535V203.233ZM67.3488 203.269C67.6039 203.269 67.8095 203.06 67.8095 202.808C67.8095 202.553 67.6039 202.347 67.3488 202.347C67.0971 202.347 66.888 202.553 66.888 202.808C66.888 203.06 67.0971 203.269 67.3488 203.269ZM70.5209 203.35C71.5701 203.35 72.3144 202.617 72.3144 201.589C72.3144 200.596 71.609 199.877 70.6344 199.877C70.0247 199.877 69.525 200.168 69.2733 200.664H69.2166C69.2379 199.274 69.7341 198.566 70.5847 198.566C71.1022 198.566 71.4779 198.831 71.5842 199.306H72.2399C72.1088 198.512 71.4956 197.998 70.5635 197.998C69.3548 197.998 68.5964 199.005 68.5964 200.763C68.5964 202.486 69.408 203.35 70.5209 203.35ZM70.5138 202.79C69.8581 202.79 69.3584 202.273 69.3584 201.589C69.3584 200.912 69.844 200.43 70.5209 200.43C71.1979 200.43 71.6693 200.912 71.6693 201.61C71.6693 202.28 71.1696 202.79 70.5138 202.79ZM74.0476 201.082H73.9908V197.896H73.3812V203.233H73.9908V201.784L74.3559 201.444L75.7878 203.233H76.564L74.8096 201.05L76.4542 199.413H75.7063L74.0476 201.082Z" fill="#111111"/>
<rect x="50.125" y="192.907" width="635.75" height="0.687488" fill="#EFEFEF"/>
</g>
<g clip-path="url(#clip2_851_10726)">
<path d="M57.1127 243.237H57.538V242.623C58.3745 242.56 59.0692 242.095 59.0692 241.241C59.0692 240.497 58.5588 240.121 57.6479 239.901L57.538 239.877V238.264C58.0165 238.324 58.3568 238.604 58.4029 239.083H59.0196C58.9948 238.299 58.3568 237.782 57.538 237.707V237.094H57.1127V237.711C56.2727 237.785 55.6737 238.289 55.6737 239.051C55.6737 239.749 56.1487 240.142 57.0312 240.355L57.1127 240.376V242.067C56.4995 242 56.2266 241.663 56.1628 241.22H55.5461C55.5709 242.046 56.2692 242.545 57.1127 242.62V243.237ZM56.2904 239.008C56.2904 238.664 56.574 238.338 57.1127 238.267V239.774C56.5031 239.625 56.2904 239.356 56.2904 239.008ZM57.5593 240.483C58.2611 240.653 58.4525 240.901 58.4525 241.291C58.4525 241.698 58.1973 242.021 57.538 242.07V240.479L57.5593 240.483ZM60.455 242.723H61.1249L63.4004 238.2V237.608H60.0155V238.179H62.7518V238.228L60.455 242.723ZM64.0029 242.758C64.2581 242.758 64.4637 242.549 64.4637 242.297C64.4637 242.042 64.2581 241.837 64.0029 241.837C63.7513 241.837 63.5421 242.042 63.5421 242.297C63.5421 242.549 63.7513 242.758 64.0029 242.758ZM67.1503 242.843C68.2348 242.843 68.9933 242.23 68.9933 241.355C68.9933 240.688 68.5716 240.171 67.93 240.05V239.994C68.4581 239.848 68.7842 239.412 68.7842 238.852C68.7842 238.055 68.1072 237.488 67.1503 237.488C66.1933 237.488 65.5163 238.055 65.5163 238.852C65.5163 239.409 65.8495 239.852 66.3705 239.994V240.05C65.729 240.171 65.3072 240.688 65.3072 241.355C65.3072 242.23 66.0657 242.843 67.1503 242.843ZM67.1503 239.781C66.5477 239.781 66.1437 239.434 66.1437 238.912C66.1437 238.384 66.5442 238.033 67.1503 238.033C67.7564 238.033 68.1569 238.384 68.1569 238.912C68.1569 239.434 67.7528 239.781 67.1503 239.781ZM67.1503 242.297C66.4414 242.297 65.9523 241.893 65.9523 241.308C65.9523 240.724 66.4414 240.32 67.1503 240.32C67.8591 240.32 68.3483 240.724 68.3483 241.308C68.3483 241.893 67.8591 242.297 67.1503 242.297ZM70.7442 240.571H70.6875V237.385H70.0779V242.723H70.6875V241.273L71.0526 240.933L72.4845 242.723H73.2607L71.5063 240.539L73.1508 238.902H72.403L70.7442 240.571Z" fill="#111111"/>
<rect x="50.125" y="232.094" width="635.75" height="0.687488" fill="#EFEFEF"/>
</g>
<g clip-path="url(#clip3_851_10726)">
<path d="M57.1127 282.808H57.538V282.195C58.3745 282.131 59.0692 281.667 59.0692 280.812C59.0692 280.068 58.5588 279.692 57.6479 279.473L57.538 279.448V277.835C58.0165 277.895 58.3568 278.175 58.4029 278.654H59.0196C58.9948 277.871 58.3568 277.353 57.538 277.279V276.666H57.1127V277.282C56.2727 277.357 55.6737 277.86 55.6737 278.622C55.6737 279.32 56.1487 279.714 57.0312 279.926L57.1127 279.948V281.638C56.4995 281.571 56.2266 281.234 56.1628 280.791H55.5461C55.5709 281.617 56.2692 282.117 57.1127 282.191V282.808ZM56.2904 278.579C56.2904 278.236 56.574 277.91 57.1127 277.839V279.345C56.5031 279.196 56.2904 278.927 56.2904 278.579ZM57.5593 280.054C58.2611 280.224 58.4525 280.472 58.4525 280.862C58.4525 281.27 58.1973 281.592 57.538 281.642V280.05L57.5593 280.054ZM61.3163 279.937H61.9507C62.6702 279.937 63.1133 280.306 63.1133 280.897C63.1133 281.472 62.6348 281.858 61.9614 281.858C61.3021 281.858 60.8414 281.514 60.7846 280.975H60.1679C60.214 281.844 60.93 282.414 61.9685 282.414C62.9857 282.414 63.769 281.773 63.769 280.915C63.769 280.203 63.3295 279.753 62.6667 279.646V279.59C63.1912 279.437 63.574 279.03 63.5776 278.413C63.5811 277.697 62.9999 277.059 61.9897 277.059C60.9548 277.059 60.3203 277.672 60.2565 278.505H60.8768C60.93 277.931 61.3305 277.615 61.9472 277.615C62.5639 277.615 62.929 278.005 62.929 278.484C62.929 279.015 62.5107 279.391 61.9224 279.391H61.3163V279.937ZM65.052 282.329C65.3072 282.329 65.5128 282.12 65.5128 281.869C65.5128 281.613 65.3072 281.408 65.052 281.408C64.8004 281.408 64.5913 281.613 64.5913 281.869C64.5913 282.12 64.8004 282.329 65.052 282.329ZM68.0505 282.411C69.3017 282.411 70.0176 281.404 70.0176 279.646C70.0176 277.906 69.1954 277.059 68.0931 277.059C67.0439 277.059 66.2996 277.793 66.2996 278.82C66.2996 279.813 67.005 280.532 67.9796 280.532C68.5893 280.532 69.089 280.242 69.3407 279.746H69.3974C69.3619 281.107 68.8905 281.844 68.0576 281.844C67.5543 281.844 67.1644 281.564 67.0298 281.103H66.3741C66.5336 281.908 67.1822 282.411 68.0505 282.411ZM68.0931 279.979C67.4161 279.979 66.9447 279.497 66.9447 278.799C66.9447 278.129 67.4445 277.619 68.1002 277.619C68.7559 277.619 69.2556 278.136 69.2556 278.82C69.2556 279.497 68.77 279.979 68.0931 279.979ZM71.7508 280.143H71.6941V276.956H71.0845V282.294H71.6941V280.844L72.0592 280.504L73.4911 282.294H74.2673L72.5129 280.111L74.1574 278.473H73.4096L71.7508 280.143Z" fill="#111111"/>
<rect x="50.125" y="271.969" width="635.75" height="0.687488" fill="#EFEFEF"/>
</g>
<path d="M216.652 326.901H217.322L215.436 321.787H214.806L212.92 326.901H213.59L214.104 325.438H216.138L216.652 326.901ZM215.093 322.613H215.149L215.95 324.895H214.292L215.093 322.613ZM220.002 323.013C219.481 323.013 219.023 323.279 218.779 323.719H218.722V323.081H218.141V328.177H218.75V326.327H218.807C219.016 326.731 219.456 326.969 220.002 326.969C220.973 326.969 221.607 326.185 221.607 324.991C221.607 323.789 220.976 323.013 220.002 323.013ZM219.856 326.419C219.169 326.419 218.733 325.866 218.733 324.991C218.733 324.112 219.169 323.563 219.86 323.563C220.558 323.563 220.976 324.098 220.976 324.991C220.976 325.884 220.558 326.419 219.856 326.419ZM222.564 326.901H223.174V324.534C223.174 323.995 223.595 323.605 224.177 323.605C224.297 323.605 224.517 323.626 224.567 323.641V323.031C224.489 323.02 224.361 323.013 224.262 323.013C223.755 323.013 223.315 323.276 223.202 323.648H223.145V323.081H222.564V326.901ZM228.597 326.901H229.235V321.787H228.6L227.239 322.765V323.439L228.54 322.496H228.597V326.901ZM231.985 326.901H232.623V321.787H231.988L230.627 322.765V323.439L231.928 322.496H231.985V326.901Z" fill="#111111"/>
<path d="M269.426 326.901H270.064V321.787H269.429L268.068 322.765V323.439L269.369 322.496H269.426V326.901ZM271.559 323.229H272.176C272.176 322.623 272.584 322.223 273.197 322.223C273.799 322.223 274.164 322.627 274.164 323.169C274.164 323.619 273.973 323.885 273.321 324.59L271.591 326.462V326.901H274.902V326.327H272.477V326.27L273.64 325.069C274.561 324.116 274.816 323.69 274.816 323.102C274.816 322.272 274.132 321.666 273.239 321.666C272.261 321.666 271.559 322.319 271.559 323.229Z" fill="#111111"/>
<path d="M317.735 326.901H318.373V321.787H317.738L316.377 322.765V323.439L317.678 322.496H317.735V326.901ZM320.974 324.544H321.609C322.328 324.544 322.771 324.913 322.771 325.505C322.771 326.079 322.293 326.465 321.619 326.465C320.96 326.465 320.499 326.122 320.443 325.583H319.826C319.872 326.451 320.588 327.022 321.626 327.022C322.644 327.022 323.427 326.38 323.427 325.523C323.427 324.81 322.987 324.36 322.325 324.254V324.197C322.849 324.045 323.232 323.637 323.235 323.02C323.239 322.304 322.658 321.666 321.648 321.666C320.613 321.666 319.978 322.28 319.914 323.112H320.535C320.588 322.538 320.988 322.223 321.605 322.223C322.222 322.223 322.587 322.613 322.587 323.091C322.587 323.623 322.169 323.999 321.58 323.999H320.974V324.544Z" fill="#111111"/>
<path d="M366.067 326.901H366.705V321.787H366.07L364.709 322.765V323.439L366.01 322.496H366.067V326.901ZM370.568 326.901H371.192V325.842H371.919V325.271H371.192V321.787H370.267C369.551 322.854 368.768 324.101 368.077 325.26V325.842H370.568V326.901ZM368.729 325.232C369.285 324.293 369.955 323.237 370.529 322.379H370.572V325.275H368.729V325.232Z" fill="#111111"/>
<path d="M414.548 326.901H415.186V321.787H414.552L413.191 322.765V323.439L414.491 322.496H414.548V326.901ZM418.415 327.022C419.461 327.022 420.173 326.299 420.173 325.246C420.173 324.232 419.464 323.559 418.606 323.559C418.096 323.559 417.717 323.715 417.469 324.023H417.412L417.571 322.358H419.911V321.787H417.072L416.778 324.711H417.377C417.579 324.332 417.961 324.108 418.447 324.108C419.092 324.108 419.535 324.573 419.535 325.264C419.535 325.98 419.092 326.462 418.422 326.462C417.82 326.462 417.38 326.097 417.323 325.551H416.696C416.753 326.426 417.447 327.022 418.415 327.022Z" fill="#111111"/>
<path d="M462.873 326.901H463.511V321.787H462.877L461.516 322.765V323.439L462.817 322.496H462.873V326.901ZM466.847 327.018C467.896 327.018 468.64 326.285 468.64 325.257C468.64 324.264 467.935 323.545 466.96 323.545C466.35 323.545 465.851 323.836 465.599 324.332H465.542C465.564 322.942 466.06 322.233 466.91 322.233C467.428 322.233 467.804 322.499 467.91 322.974H468.566C468.434 322.18 467.821 321.666 466.889 321.666C465.68 321.666 464.922 322.673 464.922 324.431C464.922 326.154 465.734 327.018 466.847 327.018ZM466.839 326.458C466.184 326.458 465.684 325.941 465.684 325.257C465.684 324.58 466.17 324.098 466.847 324.098C467.524 324.098 467.995 324.58 467.995 325.278C467.995 325.948 467.495 326.458 466.839 326.458Z" fill="#111111"/>
<path d="M511.509 326.901H512.147V321.787H511.512L510.151 322.765V323.439L511.452 322.496H511.509V326.901ZM513.887 326.901H514.557L516.832 322.379V321.787H513.447V322.358H516.184V322.407L513.887 326.901Z" fill="#111111"/>
<rect x="50.125" y="314.458" width="635.75" height="0.6049" fill="#767676"/>
<rect x="685.271" y="152.347" width="0.6049" height="162.718" fill="#767676"/>
<rect x="50.125" y="152.347" width="0.6049" height="162.718" fill="#767676"/>
<path d="M54.0001 126.635C55.9554 126.635 57.2964 125.413 57.2964 123.611C57.2964 121.986 56.1327 120.817 54.5082 120.817C53.6457 120.817 52.9427 121.165 52.5883 121.738H52.5529L52.7596 119.34H56.7824V117.922H51.3419L50.952 122.926H52.5056C52.7951 122.412 53.3267 122.093 54.012 122.093C54.9453 122.093 55.5951 122.737 55.5951 123.652C55.5951 124.58 54.9453 125.223 54.006 125.223C53.1849 125.223 52.5529 124.739 52.4524 124.001H50.8043C50.8516 125.548 52.1748 126.635 54.0001 126.635ZM61.6559 126.635C63.818 126.635 65.1294 124.916 65.1294 122.164C65.1294 119.411 63.8061 117.727 61.6559 117.727C59.5057 117.727 58.1766 119.417 58.1766 122.169C58.1766 124.928 59.4939 126.635 61.6559 126.635ZM61.6559 125.206C60.6044 125.206 59.9901 124.125 59.9901 122.169C59.9901 120.232 60.6162 119.157 61.6559 119.157C62.7015 119.157 63.3158 120.226 63.3158 122.169C63.3158 124.125 62.7074 125.206 61.6559 125.206ZM69.5716 126.635C71.6037 126.635 73.0273 125.619 73.0273 124.142C73.0273 123.02 72.2062 122.193 71.0425 121.963V121.927C72.0408 121.679 72.7142 120.947 72.7142 120.031C72.7142 118.696 71.4206 117.733 69.5716 117.733C67.7226 117.733 66.423 118.702 66.423 120.025C66.423 120.953 67.1024 121.685 68.1066 121.927V121.963C66.9429 122.187 66.1159 123.014 66.1159 124.137C66.1159 125.613 67.5336 126.635 69.5716 126.635ZM69.5716 121.39C68.7623 121.39 68.1893 120.905 68.1893 120.208C68.1893 119.505 68.7623 119.021 69.5716 119.021C70.375 119.021 70.9539 119.505 70.9539 120.208C70.9539 120.905 70.375 121.39 69.5716 121.39ZM69.5716 125.336C68.6323 125.336 67.9766 124.78 67.9766 124.007C67.9766 123.245 68.6323 122.689 69.5716 122.689C70.5108 122.689 71.1606 123.239 71.1606 124.007C71.1606 124.78 70.5108 125.336 69.5716 125.336ZM82.2308 122.471C82.154 121.035 81.0671 119.978 79.354 119.978C77.4577 119.978 76.2468 121.242 76.2468 123.274C76.2468 125.342 77.4577 126.582 79.3658 126.582C81.0316 126.582 82.1481 125.619 82.2367 124.125H80.6299C80.5236 124.816 80.0746 125.229 79.3835 125.229C78.5269 125.229 77.9953 124.521 77.9953 123.274C77.9953 122.051 78.5269 121.331 79.3776 121.331C80.0865 121.331 80.5295 121.803 80.6299 122.471H82.2308ZM84.9481 126.547C85.7397 126.547 86.5253 126.151 86.8798 125.478H86.9152V126.446H88.581V122.093C88.581 120.817 87.5237 119.978 85.8992 119.978C84.2215 119.978 83.1759 120.823 83.111 122.051H84.6882C84.7709 121.585 85.1785 121.266 85.8224 121.266C86.4722 121.266 86.8857 121.608 86.8857 122.199V122.618L85.2907 122.713C83.7135 122.807 82.8274 123.475 82.8274 124.627C82.8274 125.767 83.743 126.547 84.9481 126.547ZM85.5152 125.3C84.9304 125.3 84.5405 125.005 84.5405 124.532C84.5405 124.083 84.9068 123.794 85.5506 123.747L86.8857 123.664V124.125C86.8857 124.81 86.2654 125.3 85.5152 125.3ZM89.6975 126.446H91.4224V122.624C91.4224 121.915 91.8655 121.419 92.5212 121.419C93.1592 121.419 93.5431 121.821 93.5431 122.5V126.446H95.2031V122.601C95.2031 121.898 95.6343 121.419 96.29 121.419C96.9575 121.419 97.3237 121.821 97.3237 122.553V126.446H99.0487V122.122C99.0487 120.846 98.2157 119.996 96.9752 119.996C96.0478 119.996 95.2917 120.498 95.0081 121.295H94.9727C94.76 120.468 94.122 119.996 93.2064 119.996C92.344 119.996 91.6646 120.498 91.3988 121.26H91.3634V120.114H89.6975V126.446ZM103.839 120.013C102.924 120.013 102.221 120.474 101.878 121.218H101.843V120.114H100.141V128.514H101.866V125.383H101.902C102.239 126.098 102.947 126.547 103.869 126.547C105.452 126.547 106.433 125.318 106.433 123.28C106.433 121.236 105.446 120.013 103.839 120.013ZM103.261 125.159C102.416 125.159 101.86 124.426 101.86 123.28C101.86 122.146 102.416 121.396 103.261 121.396C104.123 121.396 104.666 122.134 104.666 123.28C104.666 124.432 104.123 125.159 103.261 125.159ZM109.203 126.547C109.995 126.547 110.78 126.151 111.135 125.478H111.17V126.446H112.836V122.093C112.836 120.817 111.779 119.978 110.154 119.978C108.477 119.978 107.431 120.823 107.366 122.051H108.943C109.026 121.585 109.434 121.266 110.077 121.266C110.727 121.266 111.141 121.608 111.141 122.199V122.618L109.546 122.713C107.969 122.807 107.082 123.475 107.082 124.627C107.082 125.767 107.998 126.547 109.203 126.547ZM109.77 125.3C109.185 125.3 108.796 125.005 108.796 124.532C108.796 124.083 109.162 123.794 109.806 123.747L111.141 123.664V124.125C111.141 124.81 110.52 125.3 109.77 125.3ZM114.839 119.257C115.341 119.257 115.737 118.856 115.737 118.371C115.737 117.881 115.341 117.485 114.839 117.485C114.337 117.485 113.941 117.881 113.941 118.371C113.941 118.856 114.337 119.257 114.839 119.257ZM113.982 126.446H115.707V120.114H113.982V126.446ZM119.753 128.833C121.65 128.833 122.914 127.864 122.914 126.358V120.114H121.213V121.218H121.183C120.852 120.492 120.137 120.013 119.228 120.013C117.621 120.013 116.629 121.248 116.629 123.256C116.629 125.235 117.651 126.429 119.198 126.429C120.114 126.429 120.858 125.968 121.154 125.294H121.189V126.405C121.189 127.137 120.693 127.628 119.801 127.628C119.145 127.628 118.649 127.332 118.513 126.895H116.824C116.959 128.024 118.088 128.833 119.753 128.833ZM119.783 125.099C118.926 125.099 118.395 124.426 118.395 123.268C118.395 122.116 118.932 121.396 119.783 121.396C120.645 121.396 121.195 122.128 121.195 123.268C121.195 124.414 120.645 125.099 119.783 125.099ZM124.042 126.446H125.767V122.813C125.767 121.992 126.257 121.425 127.031 121.425C127.805 121.425 128.195 121.898 128.195 122.725V126.446H129.92V122.364C129.92 120.882 129.128 119.996 127.722 119.996C126.748 119.996 126.08 120.456 125.743 121.242H125.708V120.114H124.042V126.446ZM130.906 121.975C130.906 122.926 131.527 123.54 132.749 123.8L133.83 124.024C134.451 124.166 134.669 124.355 134.669 124.692C134.669 125.105 134.268 125.371 133.618 125.371C132.933 125.371 132.537 125.076 132.43 124.521H130.747C130.859 125.767 131.869 126.582 133.618 126.582C135.248 126.582 136.388 125.761 136.388 124.515C136.388 123.587 135.845 123.067 134.522 122.79L133.441 122.559C132.803 122.423 132.566 122.205 132.566 121.88C132.566 121.461 132.962 121.189 133.559 121.189C134.197 121.189 134.581 121.537 134.634 122.051H136.223C136.187 120.811 135.183 119.978 133.559 119.978C131.946 119.978 130.906 120.769 130.906 121.975Z" fill="#111111"/>
<rect x="219.498" y="194.083" width="9.6784" height="14.5176" fill="#A42700"/>
<rect x="219.498" y="209.205" width="9.6784" height="7.2588" fill="#003C96"/>
<rect x="219.498" y="217.069" width="9.6784" height="39.3185" fill="#DE2C62"/>
<rect x="219.498" y="256.992" width="9.6784" height="18.7519" fill="#6B16CA"/>
<rect x="219.498" y="276.35" width="9.6784" height="18.7519" fill="#D86800"/>
<rect x="219.498" y="295.706" width="9.6784" height="18.7519" fill="#009990"/>
<rect x="266.678" y="176.542" width="9.6784" height="14.5176" fill="#A42700"/>
<rect x="266.678" y="191.664" width="9.6784" height="4.2343" fill="#003C96"/>
<rect x="266.678" y="196.504" width="9.6784" height="53.8361" fill="#DE2C62"/>
<rect x="266.678" y="250.944" width="9.6784" height="23.5911" fill="#6B16CA"/>
<rect x="266.678" y="275.141" width="9.6784" height="13.9127" fill="#D86800"/>
<rect x="266.678" y="289.658" width="9.6784" height="24.8009" fill="#009990"/>
<rect x="315.072" y="186.22" width="9.6784" height="17.5421" fill="#A42700"/>
<rect x="315.072" y="204.367" width="9.6784" height="7.2588" fill="#003C96"/>
<rect x="315.072" y="212.23" width="9.6784" height="55.6508" fill="#DE2C62"/>
<rect x="315.072" y="268.486" width="9.6784" height="11.4931" fill="#6B16CA"/>
<rect x="315.072" y="280.584" width="9.6784" height="14.5176" fill="#D86800"/>
<rect x="315.072" y="295.707" width="9.6784" height="18.7519" fill="#009990"/>
<rect x="363.463" y="168.677" width="9.6784" height="14.5176" fill="#A42700"/>
<rect x="363.463" y="183.799" width="9.6784" height="12.098" fill="#003C96"/>
<rect x="363.463" y="196.502" width="9.6784" height="49.6018" fill="#DE2C62"/>
<rect x="363.463" y="246.709" width="9.6784" height="26.0107" fill="#6B16CA"/>
<rect x="363.463" y="273.324" width="9.6784" height="18.7519" fill="#D86800"/>
<rect x="363.463" y="292.682" width="9.6784" height="21.7764" fill="#009990"/>
<rect x="411.855" y="189.849" width="9.6784" height="10.2833" fill="#A42700"/>
<rect x="411.855" y="200.737" width="9.6784" height="11.4931" fill="#003C96"/>
<rect x="411.855" y="212.835" width="9.6784" height="45.3675" fill="#DE2C62"/>
<rect x="411.855" y="258.808" width="9.6784" height="21.7764" fill="#6B16CA"/>
<rect x="411.855" y="281.188" width="9.6784" height="13.9127" fill="#D86800"/>
<rect x="411.855" y="295.706" width="9.6784" height="18.7519" fill="#009990"/>
<rect x="460.246" y="197.712" width="9.6784" height="14.5176" fill="#A42700"/>
<rect x="460.246" y="212.834" width="9.6784" height="7.2588" fill="#003C96"/>
<rect x="460.246" y="220.698" width="9.6784" height="39.3185" fill="#DE2C62"/>
<rect x="460.246" y="260.621" width="9.6784" height="14.5176" fill="#6B16CA"/>
<rect x="460.246" y="275.744" width="9.6784" height="10.2833" fill="#D86800"/>
<rect x="460.246" y="286.632" width="9.6784" height="27.8254" fill="#009990"/>
<rect x="508.641" y="187.429" width="9.6784" height="18.147" fill="#A42700"/>
<rect x="508.641" y="206.181" width="9.6784" height="7.2588" fill="#003C96"/>
<rect x="508.641" y="214.044" width="9.6784" height="30.245" fill="#DE2C62"/>
<rect x="508.641" y="244.895" width="9.6784" height="18.7519" fill="#6B16CA"/>
<rect x="508.641" y="264.251" width="9.6784" height="13.9127" fill="#D86800"/>
<rect x="508.641" y="278.769" width="9.6784" height="35.6891" fill="#009990"/>
<path d="M282.408 128.15C282.408 129.487 281.325 130.57 279.988 130.57C278.651 130.57 277.568 129.487 277.568 128.15C277.568 126.813 278.651 125.73 279.988 125.73C281.325 125.73 282.408 126.813 282.408 128.15Z" fill="#009990"/>
<path d="M291.223 130.65H291.893L290.007 125.536H289.376L287.491 130.65H288.161L288.674 129.187H290.709L291.223 130.65ZM289.663 126.362H289.72L290.521 128.644H288.862L289.663 126.362ZM297.021 126.83H296.408L295.657 129.885H295.6L294.746 126.83H294.161L293.307 129.885H293.25L292.499 126.83H291.882L292.952 130.65H293.569L294.42 127.694H294.477L295.331 130.65H295.951L297.021 126.83ZM298.794 130.718C299.304 130.718 299.722 130.494 299.97 130.087H300.027V130.65H300.608V128.035C300.608 127.241 300.087 126.762 299.155 126.762C298.34 126.762 297.737 127.166 297.656 127.779H298.273C298.358 127.478 298.677 127.305 299.134 127.305C299.704 127.305 299.999 127.563 299.999 128.035V128.382L298.896 128.449C298.007 128.503 297.503 128.896 297.503 129.58C297.503 130.278 298.053 130.718 298.794 130.718ZM298.907 130.183C298.464 130.183 298.134 129.956 298.134 129.566C298.134 129.183 298.389 128.981 298.971 128.942L299.999 128.875V129.226C299.999 129.771 299.534 130.183 298.907 130.183ZM301.735 130.65H302.345V128.283C302.345 127.744 302.767 127.354 303.348 127.354C303.469 127.354 303.688 127.375 303.738 127.39V126.78C303.66 126.769 303.532 126.762 303.433 126.762C302.926 126.762 302.487 127.025 302.373 127.397H302.317V126.83H301.735V130.65ZM306.924 129.662C306.765 129.998 306.432 130.179 305.939 130.179C305.29 130.179 304.869 129.701 304.837 128.946V128.917H307.583V128.683C307.583 127.496 306.956 126.762 305.925 126.762C304.876 126.762 304.202 127.542 304.202 128.744C304.202 129.952 304.865 130.718 305.925 130.718C306.761 130.718 307.357 130.314 307.534 129.662H306.924ZM305.918 127.301C306.524 127.301 306.928 127.748 306.942 128.425H304.837C304.883 127.748 305.308 127.301 305.918 127.301ZM308.54 130.65H309.15V128.389C309.15 127.719 309.544 127.312 310.153 127.312C310.763 127.312 311.053 127.638 311.053 128.325V130.65H311.663V128.176C311.663 127.269 311.185 126.762 310.327 126.762C309.742 126.762 309.37 127.01 309.178 127.432H309.122V126.83H308.54V130.65ZM315.31 129.662C315.151 129.998 314.817 130.179 314.325 130.179C313.676 130.179 313.254 129.701 313.223 128.946V128.917H315.969V128.683C315.969 127.496 315.342 126.762 314.311 126.762C313.262 126.762 312.588 127.542 312.588 128.744C312.588 129.952 313.251 130.718 314.311 130.718C315.147 130.718 315.743 130.314 315.92 129.662H315.31ZM314.304 127.301C314.91 127.301 315.314 127.748 315.328 128.425H313.223C313.269 127.748 313.694 127.301 314.304 127.301ZM316.838 127.875C316.838 128.428 317.164 128.736 317.88 128.91L318.535 129.07C318.943 129.169 319.142 129.346 319.142 129.608C319.142 129.959 318.773 130.204 318.259 130.204C317.77 130.204 317.465 129.998 317.362 129.676H316.735C316.802 130.31 317.387 130.718 318.238 130.718C319.106 130.718 319.769 130.246 319.769 129.562C319.769 129.013 319.422 128.701 318.702 128.527L318.114 128.386C317.664 128.276 317.451 128.113 317.451 127.85C317.451 127.51 317.805 127.28 318.259 127.28C318.72 127.28 319.018 127.482 319.099 127.787H319.702C319.62 127.159 319.064 126.762 318.263 126.762C317.451 126.762 316.838 127.241 316.838 127.875ZM320.566 127.875C320.566 128.428 320.892 128.736 321.608 128.91L322.264 129.07C322.672 129.169 322.87 129.346 322.87 129.608C322.87 129.959 322.502 130.204 321.988 130.204C321.499 130.204 321.194 129.998 321.091 129.676H320.464C320.531 130.31 321.116 130.718 321.966 130.718C322.835 130.718 323.498 130.246 323.498 129.562C323.498 129.013 323.15 128.701 322.431 128.527L321.842 128.386C321.392 128.276 321.18 128.113 321.18 127.85C321.18 127.51 321.534 127.28 321.988 127.28C322.448 127.28 322.746 127.482 322.828 127.787H323.43C323.349 127.159 322.792 126.762 321.991 126.762C321.18 126.762 320.566 127.241 320.566 127.875Z" fill="black"/>
<path d="M338.765 128.15C338.765 129.487 337.682 130.57 336.345 130.57C335.009 130.57 333.926 129.487 333.926 128.15C333.926 126.813 335.009 125.73 336.345 125.73C337.682 125.73 338.765 126.813 338.765 128.15Z" fill="#D86800"/>
<path d="M346.315 126.271C347.403 126.271 348.211 125.665 348.381 124.726H347.733C347.57 125.317 347.027 125.683 346.315 125.683C345.33 125.683 344.713 124.878 344.713 123.595C344.713 122.312 345.33 121.504 346.311 121.504C347.017 121.504 347.563 121.918 347.733 122.578H348.381C348.229 121.592 347.389 120.915 346.311 120.915C344.922 120.915 344.057 121.943 344.057 123.595C344.057 125.243 344.926 126.271 346.315 126.271ZM350.944 126.218C352.032 126.218 352.705 125.466 352.705 124.24C352.705 123.01 352.032 122.262 350.944 122.262C349.856 122.262 349.182 123.01 349.182 124.24C349.182 125.466 349.856 126.218 350.944 126.218ZM350.944 125.668C350.221 125.668 349.813 125.144 349.813 124.24C349.813 123.333 350.221 122.812 350.944 122.812C351.667 122.812 352.074 123.333 352.074 124.24C352.074 125.144 351.667 125.668 350.944 125.668ZM353.662 126.15H354.272V123.889C354.272 123.219 354.665 122.812 355.275 122.812C355.885 122.812 356.175 123.138 356.175 123.825V126.15H356.785V123.676C356.785 122.769 356.306 122.262 355.449 122.262C354.864 122.262 354.492 122.51 354.3 122.932H354.244V122.33H353.662V126.15ZM357.813 123.375C357.813 123.928 358.139 124.236 358.855 124.41L359.51 124.57C359.918 124.669 360.117 124.846 360.117 125.108C360.117 125.459 359.748 125.704 359.234 125.704C358.745 125.704 358.44 125.498 358.337 125.176H357.71C357.777 125.81 358.362 126.218 359.213 126.218C360.081 126.218 360.744 125.746 360.744 125.062C360.744 124.513 360.397 124.201 359.677 124.027L359.089 123.886C358.639 123.776 358.426 123.613 358.426 123.35C358.426 123.01 358.78 122.78 359.234 122.78C359.695 122.78 359.993 122.982 360.074 123.287H360.677C360.595 122.659 360.039 122.262 359.238 122.262C358.426 122.262 357.813 122.741 357.813 123.375ZM362.02 121.592C362.254 121.592 362.445 121.401 362.445 121.167C362.445 120.933 362.254 120.742 362.02 120.742C361.786 120.742 361.595 120.933 361.595 121.167C361.595 121.401 361.786 121.592 362.02 121.592ZM361.715 126.15H362.325V122.33H361.715V126.15ZM364.901 126.218C365.43 126.218 365.883 125.966 366.124 125.541H366.181V126.15H366.762V120.813H366.153V122.932H366.099C365.883 122.514 365.433 122.262 364.901 122.262C363.93 122.262 363.296 123.042 363.296 124.24C363.296 125.442 363.923 126.218 364.901 126.218ZM365.043 122.812C365.734 122.812 366.167 123.365 366.167 124.24C366.167 125.123 365.738 125.668 365.043 125.668C364.345 125.668 363.927 125.133 363.927 124.24C363.927 123.35 364.349 122.812 365.043 122.812ZM370.477 125.162C370.317 125.498 369.984 125.679 369.491 125.679C368.843 125.679 368.421 125.201 368.389 124.446V124.417H371.136V124.183C371.136 122.996 370.509 122.262 369.477 122.262C368.428 122.262 367.755 123.042 367.755 124.244C367.755 125.452 368.417 126.218 369.477 126.218C370.314 126.218 370.909 125.814 371.086 125.162H370.477ZM369.47 122.801C370.076 122.801 370.48 123.248 370.494 123.925H368.389C368.435 123.248 368.86 122.801 369.47 122.801ZM372.093 126.15H372.703V123.783C372.703 123.244 373.124 122.854 373.706 122.854C373.826 122.854 374.046 122.875 374.095 122.89V122.28C374.017 122.269 373.89 122.262 373.791 122.262C373.284 122.262 372.844 122.525 372.731 122.897H372.674V122.33H372.093V126.15ZM375.921 126.218C376.431 126.218 376.849 125.994 377.097 125.587H377.154V126.15H377.735V123.535C377.735 122.741 377.214 122.262 376.282 122.262C375.467 122.262 374.865 122.666 374.783 123.279H375.4C375.485 122.978 375.804 122.805 376.261 122.805C376.832 122.805 377.126 123.063 377.126 123.535V123.882L376.024 123.949C375.134 124.003 374.631 124.396 374.631 125.08C374.631 125.778 375.18 126.218 375.921 126.218ZM376.034 125.683C375.591 125.683 375.262 125.456 375.262 125.066C375.262 124.683 375.517 124.481 376.098 124.442L377.126 124.375V124.726C377.126 125.271 376.662 125.683 376.034 125.683ZM379.118 121.341V122.33H378.501V122.84H379.118V125.158C379.118 125.888 379.433 126.179 380.22 126.179C380.341 126.179 380.458 126.165 380.578 126.143V125.629C380.465 125.64 380.404 125.644 380.294 125.644C379.898 125.644 379.727 125.452 379.727 125.002V122.84H380.578V122.33H379.727V121.341H379.118ZM381.819 121.592C382.052 121.592 382.244 121.401 382.244 121.167C382.244 120.933 382.052 120.742 381.819 120.742C381.585 120.742 381.393 120.933 381.393 121.167C381.393 121.401 381.585 121.592 381.819 121.592ZM381.514 126.15H382.123V122.33H381.514V126.15ZM384.856 126.218C385.944 126.218 386.618 125.466 386.618 124.24C386.618 123.01 385.944 122.262 384.856 122.262C383.768 122.262 383.095 123.01 383.095 124.24C383.095 125.466 383.768 126.218 384.856 126.218ZM384.856 125.668C384.133 125.668 383.725 125.144 383.725 124.24C383.725 123.333 384.133 122.812 384.856 122.812C385.579 122.812 385.987 123.333 385.987 124.24C385.987 125.144 385.579 125.668 384.856 125.668ZM387.575 126.15H388.184V123.889C388.184 123.219 388.578 122.812 389.187 122.812C389.797 122.812 390.087 123.138 390.087 123.825V126.15H390.697V123.676C390.697 122.769 390.219 122.262 389.361 122.262C388.776 122.262 388.404 122.51 388.213 122.932H388.156V122.33H387.575V126.15ZM344.461 133.024C344.461 134.303 344.787 135.338 345.468 136.239H345.985C345.478 135.593 345.089 134.229 345.089 133.024C345.089 131.826 345.482 130.458 345.985 129.813H345.468C344.787 130.713 344.461 131.748 344.461 133.024ZM347.205 135.15H347.814V131.84H348.69V131.33H347.814V130.922C347.814 130.504 347.998 130.291 348.438 130.291C348.548 130.291 348.651 130.295 348.725 130.309V129.813C348.597 129.788 348.463 129.777 348.314 129.777C347.587 129.777 347.205 130.142 347.205 130.904V131.33H346.57V131.84H347.205V135.15ZM350.986 135.218C352.074 135.218 352.748 134.466 352.748 133.24C352.748 132.01 352.074 131.262 350.986 131.262C349.898 131.262 349.225 132.01 349.225 133.24C349.225 134.466 349.898 135.218 350.986 135.218ZM350.986 134.668C350.263 134.668 349.856 134.144 349.856 133.24C349.856 132.333 350.263 131.812 350.986 131.812C351.709 131.812 352.117 132.333 352.117 133.24C352.117 134.144 351.709 134.668 350.986 134.668ZM353.705 135.15H354.314V132.783C354.314 132.244 354.736 131.854 355.318 131.854C355.438 131.854 355.658 131.875 355.707 131.89V131.28C355.629 131.269 355.502 131.262 355.403 131.262C354.896 131.262 354.456 131.525 354.343 131.897H354.286V131.33H353.705V135.15ZM356.54 135.15H357.15V132.783C357.15 132.244 357.536 131.812 358.036 131.812C358.518 131.812 358.834 132.102 358.834 132.556V135.15H359.443V132.694C359.443 132.209 359.798 131.812 360.329 131.812C360.868 131.812 361.134 132.088 361.134 132.652V135.15H361.743V132.51C361.743 131.709 361.307 131.262 360.528 131.262C360 131.262 359.564 131.528 359.358 131.932H359.301C359.124 131.535 358.763 131.262 358.245 131.262C357.735 131.262 357.352 131.507 357.178 131.932H357.122V131.33H356.54V135.15ZM365.387 134.162C365.228 134.498 364.894 134.679 364.402 134.679C363.753 134.679 363.331 134.201 363.299 133.446V133.417H366.046V133.183C366.046 131.996 365.419 131.262 364.388 131.262C363.338 131.262 362.665 132.042 362.665 133.244C362.665 134.452 363.328 135.218 364.388 135.218C365.224 135.218 365.819 134.814 365.997 134.162H365.387ZM364.38 131.801C364.986 131.801 365.391 132.248 365.405 132.925H363.299C363.345 132.248 363.771 131.801 364.38 131.801ZM367.003 135.15H367.613V132.783C367.613 132.244 368.035 131.854 368.616 131.854C368.736 131.854 368.956 131.875 369.006 131.89V131.28C368.928 131.269 368.8 131.262 368.701 131.262C368.194 131.262 367.755 131.525 367.641 131.897H367.584V131.33H367.003V135.15ZM369.803 135.15H370.413V129.813H369.803V135.15ZM371.923 136.533C372.6 136.533 372.905 136.27 373.231 135.384L374.723 131.33H374.074L373.029 134.473H372.972L371.923 131.33H371.264L372.678 135.154L372.607 135.381C372.447 135.842 372.256 136.008 371.905 136.008C371.82 136.008 371.724 136.005 371.65 135.99V136.511C371.735 136.526 371.841 136.533 371.923 136.533ZM377.842 130.341V131.33H377.225V131.84H377.842V134.158C377.842 134.888 378.157 135.179 378.944 135.179C379.065 135.179 379.182 135.165 379.302 135.143V134.629C379.189 134.64 379.128 134.644 379.019 134.644C378.622 134.644 378.451 134.452 378.451 134.002V131.84H379.302V131.33H378.451V130.341H377.842ZM380.224 135.15H380.833V132.783C380.833 132.244 381.255 131.854 381.836 131.854C381.957 131.854 382.177 131.875 382.226 131.89V131.28C382.148 131.269 382.021 131.262 381.921 131.262C381.414 131.262 380.975 131.525 380.862 131.897H380.805V131.33H380.224V135.15ZM384.051 135.218C384.562 135.218 384.98 134.994 385.228 134.587H385.285V135.15H385.866V132.535C385.866 131.741 385.345 131.262 384.413 131.262C383.598 131.262 382.995 131.666 382.914 132.279H383.53C383.616 131.978 383.935 131.805 384.392 131.805C384.962 131.805 385.257 132.063 385.257 132.535V132.882L384.154 132.949C383.265 133.003 382.761 133.396 382.761 134.08C382.761 134.778 383.311 135.218 384.051 135.218ZM384.165 134.683C383.722 134.683 383.392 134.456 383.392 134.066C383.392 133.683 383.647 133.481 384.229 133.442L385.257 133.375V133.726C385.257 134.271 384.792 134.683 384.165 134.683ZM387.248 135.15H387.858V131.84H388.734V131.33H387.858V130.922C387.858 130.504 388.042 130.291 388.482 130.291C388.592 130.291 388.695 130.295 388.769 130.309V129.813C388.641 129.788 388.507 129.777 388.358 129.777C387.631 129.777 387.248 130.142 387.248 130.904V131.33H386.614V131.84H387.248V135.15ZM389.878 135.15H390.488V131.84H391.363V131.33H390.488V130.922C390.488 130.504 390.672 130.291 391.112 130.291C391.222 130.291 391.324 130.295 391.399 130.309V129.813C391.271 129.788 391.137 129.777 390.988 129.777C390.261 129.777 389.878 130.142 389.878 130.904V131.33H389.244V131.84H389.878V135.15ZM392.572 130.592C392.806 130.592 392.997 130.401 392.997 130.167C392.997 129.933 392.806 129.742 392.572 129.742C392.338 129.742 392.147 129.933 392.147 130.167C392.147 130.401 392.338 130.592 392.572 130.592ZM392.267 135.15H392.877V131.33H392.267V135.15ZM397.201 132.499C397.095 131.819 396.528 131.262 395.599 131.262C394.529 131.262 393.848 132.035 393.848 133.226C393.848 134.442 394.532 135.218 395.602 135.218C396.52 135.218 397.091 134.7 397.201 133.998H396.584C396.471 134.431 396.113 134.668 395.599 134.668C394.918 134.668 394.479 134.108 394.479 133.226C394.479 132.361 394.911 131.812 395.599 131.812C396.148 131.812 396.485 132.12 396.584 132.499H397.201ZM399.441 133.027C399.441 131.748 399.115 130.713 398.434 129.813H397.917C398.424 130.458 398.814 131.822 398.814 133.027C398.814 134.225 398.42 135.593 397.917 136.239H398.434C399.115 135.338 399.441 134.303 399.441 133.027Z" fill="black"/>
<path d="M415.12 128.15C415.12 129.487 414.038 130.57 412.701 130.57C411.364 130.57 410.281 129.487 410.281 128.15C410.281 126.813 411.364 125.73 412.701 125.73C414.038 125.73 415.12 126.813 415.12 128.15Z" fill="#6B16CA"/>
<path d="M422.67 126.271C423.759 126.271 424.567 125.665 424.737 124.726H424.088C423.925 125.317 423.383 125.683 422.67 125.683C421.685 125.683 421.068 124.878 421.068 123.595C421.068 122.312 421.685 121.504 422.667 121.504C423.372 121.504 423.918 121.918 424.088 122.578H424.737C424.584 121.592 423.744 120.915 422.667 120.915C421.277 120.915 420.413 121.943 420.413 123.595C420.413 125.243 421.281 126.271 422.67 126.271ZM426.792 126.218C427.303 126.218 427.721 125.994 427.969 125.587H428.026V126.15H428.607V123.535C428.607 122.741 428.086 122.262 427.154 122.262C426.339 122.262 425.736 122.666 425.655 123.279H426.271C426.357 122.978 426.676 122.805 427.133 122.805C427.703 122.805 427.998 123.063 427.998 123.535V123.882L426.895 123.949C426.006 124.003 425.502 124.396 425.502 125.08C425.502 125.778 426.052 126.218 426.792 126.218ZM426.906 125.683C426.463 125.683 426.133 125.456 426.133 125.066C426.133 124.683 426.388 124.481 426.97 124.442L427.998 124.375V124.726C427.998 125.271 427.533 125.683 426.906 125.683ZM429.989 121.341V122.33H429.373V122.84H429.989V125.158C429.989 125.888 430.305 126.179 431.092 126.179C431.212 126.179 431.329 126.165 431.45 126.143V125.629C431.336 125.64 431.276 125.644 431.166 125.644C430.769 125.644 430.599 125.452 430.599 125.002V122.84H431.45V122.33H430.599V121.341H429.989ZM433.435 126.218C433.945 126.218 434.363 125.994 434.611 125.587H434.668V126.15H435.249V123.535C435.249 122.741 434.728 122.262 433.796 122.262C432.981 122.262 432.378 122.666 432.297 123.279H432.914C432.999 122.978 433.318 122.805 433.775 122.805C434.345 122.805 434.64 123.063 434.64 123.535V123.882L433.537 123.949C432.648 124.003 432.144 124.396 432.144 125.08C432.144 125.778 432.694 126.218 433.435 126.218ZM433.548 125.683C433.105 125.683 432.775 125.456 432.775 125.066C432.775 124.683 433.03 124.481 433.612 124.442L434.64 124.375V124.726C434.64 125.271 434.175 125.683 433.548 125.683ZM436.412 126.15H437.021V120.813H436.412V126.15ZM439.775 126.218C440.863 126.218 441.537 125.466 441.537 124.24C441.537 123.01 440.863 122.262 439.775 122.262C438.687 122.262 438.014 123.01 438.014 124.24C438.014 125.466 438.687 126.218 439.775 126.218ZM439.775 125.668C439.052 125.668 438.645 125.144 438.645 124.24C438.645 123.333 439.052 122.812 439.775 122.812C440.498 122.812 440.906 123.333 440.906 124.24C440.906 125.144 440.498 125.668 439.775 125.668ZM444.068 127.618C445.11 127.618 445.769 127.072 445.769 126.218V122.33H445.188V122.936H445.131C444.911 122.525 444.44 122.262 443.905 122.262C442.923 122.262 442.302 123.038 442.302 124.183C442.302 125.328 442.916 126.094 443.905 126.094C444.429 126.094 444.861 125.856 445.103 125.434H445.159V126.186C445.159 126.749 444.752 127.086 444.068 127.086C443.518 127.086 443.178 126.884 443.111 126.572H442.466C442.558 127.203 443.146 127.618 444.068 127.618ZM444.039 125.555C443.33 125.555 442.933 125.016 442.933 124.183C442.933 123.35 443.33 122.812 444.039 122.812C444.745 122.812 445.173 123.35 445.173 124.183C445.173 125.016 444.748 125.555 444.039 125.555ZM420.445 132.375C420.445 132.928 420.771 133.236 421.487 133.41L422.142 133.57C422.55 133.669 422.748 133.846 422.748 134.108C422.748 134.459 422.38 134.704 421.866 134.704C421.377 134.704 421.072 134.498 420.969 134.176H420.342C420.409 134.81 420.994 135.218 421.845 135.218C422.713 135.218 423.376 134.746 423.376 134.062C423.376 133.513 423.028 133.201 422.309 133.027L421.721 132.886C421.27 132.776 421.058 132.613 421.058 132.35C421.058 132.01 421.412 131.78 421.866 131.78C422.327 131.78 422.624 131.982 422.706 132.287H423.308C423.227 131.659 422.67 131.262 421.869 131.262C421.058 131.262 420.445 131.741 420.445 132.375ZM425.396 135.218C425.906 135.218 426.325 134.994 426.573 134.587H426.629V135.15H427.211V132.535C427.211 131.741 426.69 131.262 425.758 131.262C424.942 131.262 424.34 131.666 424.258 132.279H424.875C424.96 131.978 425.279 131.805 425.736 131.805C426.307 131.805 426.601 132.063 426.601 132.535V132.882L425.499 132.949C424.609 133.003 424.106 133.396 424.106 134.08C424.106 134.778 424.655 135.218 425.396 135.218ZM425.509 134.683C425.066 134.683 424.737 134.456 424.737 134.066C424.737 133.683 424.992 133.481 425.573 133.442L426.601 133.375V133.726C426.601 134.271 426.137 134.683 425.509 134.683ZM428.373 135.15H428.983V129.813H428.373V135.15ZM432.697 134.162C432.538 134.498 432.205 134.679 431.712 134.679C431.063 134.679 430.642 134.201 430.61 133.446V133.417H433.357V133.183C433.357 131.996 432.729 131.262 431.698 131.262C430.649 131.262 429.975 132.042 429.975 133.244C429.975 134.452 430.638 135.218 431.698 135.218C432.534 135.218 433.13 134.814 433.307 134.162H432.697ZM431.691 131.801C432.297 131.801 432.701 132.248 432.715 132.925H430.61C430.656 132.248 431.081 131.801 431.691 131.801ZM434.225 132.375C434.225 132.928 434.551 133.236 435.267 133.41L435.923 133.57C436.33 133.669 436.529 133.846 436.529 134.108C436.529 134.459 436.16 134.704 435.646 134.704C435.157 134.704 434.852 134.498 434.75 134.176H434.122C434.189 134.81 434.774 135.218 435.625 135.218C436.493 135.218 437.156 134.746 437.156 134.062C437.156 133.513 436.809 133.201 436.089 133.027L435.501 132.886C435.051 132.776 434.838 132.613 434.838 132.35C434.838 132.01 435.193 131.78 435.646 131.78C436.107 131.78 436.405 131.982 436.486 132.287H437.089C437.007 131.659 436.451 131.262 435.65 131.262C434.838 131.262 434.225 131.741 434.225 132.375Z" fill="black"/>
<path d="M461.478 128.15C461.478 129.487 460.395 130.57 459.058 130.57C457.721 130.57 456.639 129.487 456.639 128.15C456.639 126.813 457.721 125.73 459.058 125.73C460.395 125.73 461.478 126.813 461.478 128.15Z" fill="#DE2C62"/>
<path d="M469.028 130.771C470.116 130.771 470.924 130.165 471.094 129.226H470.446C470.283 129.817 469.74 130.183 469.028 130.183C468.042 130.183 467.426 129.378 467.426 128.095C467.426 126.812 468.042 126.004 469.024 126.004C469.73 126.004 470.275 126.418 470.446 127.078H471.094C470.942 126.092 470.102 125.415 469.024 125.415C467.635 125.415 466.77 126.443 466.77 128.095C466.77 129.743 467.638 130.771 469.028 130.771ZM473.657 130.718C474.745 130.718 475.418 129.966 475.418 128.74C475.418 127.51 474.745 126.762 473.657 126.762C472.569 126.762 471.895 127.51 471.895 128.74C471.895 129.966 472.569 130.718 473.657 130.718ZM473.657 130.168C472.934 130.168 472.526 129.644 472.526 128.74C472.526 127.833 472.934 127.312 473.657 127.312C474.38 127.312 474.787 127.833 474.787 128.74C474.787 129.644 474.38 130.168 473.657 130.168ZM476.375 130.65H476.985V128.389C476.985 127.719 477.378 127.312 477.988 127.312C478.598 127.312 478.888 127.638 478.888 128.325V130.65H479.498V128.176C479.498 127.269 479.019 126.762 478.162 126.762C477.577 126.762 477.205 127.01 477.013 127.432H476.957V126.83H476.375V130.65ZM483.592 126.83H482.939L481.894 129.977H481.837L480.791 126.83H480.139L481.554 130.65H482.177L483.592 126.83ZM486.796 129.662C486.636 129.998 486.303 130.179 485.81 130.179C485.162 130.179 484.74 129.701 484.708 128.946V128.917H487.455V128.683C487.455 127.496 486.827 126.762 485.796 126.762C484.747 126.762 484.074 127.542 484.074 128.744C484.074 129.952 484.736 130.718 485.796 130.718C486.633 130.718 487.228 130.314 487.405 129.662H486.796ZM485.789 127.301C486.395 127.301 486.799 127.748 486.813 128.425H484.708C484.754 127.748 485.179 127.301 485.789 127.301ZM488.412 130.65H489.021V128.283C489.021 127.744 489.443 127.354 490.024 127.354C490.145 127.354 490.365 127.375 490.414 127.39V126.78C490.336 126.769 490.209 126.762 490.11 126.762C489.603 126.762 489.163 127.025 489.05 127.397H488.993V126.83H488.412V130.65ZM491.017 127.875C491.017 128.428 491.343 128.736 492.059 128.91L492.715 129.07C493.122 129.169 493.321 129.346 493.321 129.608C493.321 129.959 492.952 130.204 492.438 130.204C491.949 130.204 491.644 129.998 491.541 129.676H490.914C490.981 130.31 491.566 130.718 492.417 130.718C493.285 130.718 493.948 130.246 493.948 129.562C493.948 129.013 493.601 128.701 492.881 128.527L492.293 128.386C491.843 128.276 491.63 128.113 491.63 127.85C491.63 127.51 491.984 127.28 492.438 127.28C492.899 127.28 493.197 127.482 493.278 127.787H493.881C493.799 127.159 493.243 126.762 492.442 126.762C491.63 126.762 491.017 127.241 491.017 127.875ZM495.224 126.092C495.458 126.092 495.649 125.901 495.649 125.667C495.649 125.433 495.458 125.242 495.224 125.242C494.99 125.242 494.799 125.433 494.799 125.667C494.799 125.901 494.99 126.092 495.224 126.092ZM494.919 130.65H495.529V126.83H494.919V130.65ZM498.262 130.718C499.35 130.718 500.023 129.966 500.023 128.74C500.023 127.51 499.35 126.762 498.262 126.762C497.173 126.762 496.5 127.51 496.5 128.74C496.5 129.966 497.173 130.718 498.262 130.718ZM498.262 130.168C497.538 130.168 497.131 129.644 497.131 128.74C497.131 127.833 497.538 127.312 498.262 127.312C498.985 127.312 499.392 127.833 499.392 128.74C499.392 129.644 498.985 130.168 498.262 130.168ZM500.98 130.65H501.59V128.389C501.59 127.719 501.983 127.312 502.593 127.312C503.202 127.312 503.493 127.638 503.493 128.325V130.65H504.103V128.176C504.103 127.269 503.624 126.762 502.766 126.762C502.182 126.762 501.809 127.01 501.618 127.432H501.561V126.83H500.98V130.65ZM505.13 127.875C505.13 128.428 505.457 128.736 506.172 128.91L506.828 129.07C507.236 129.169 507.434 129.346 507.434 129.608C507.434 129.959 507.066 130.204 506.552 130.204C506.063 130.204 505.758 129.998 505.655 129.676H505.028C505.095 130.31 505.68 130.718 506.53 130.718C507.399 130.718 508.062 130.246 508.062 129.562C508.062 129.013 507.714 128.701 506.995 128.527L506.406 128.386C505.956 128.276 505.744 128.113 505.744 127.85C505.744 127.51 506.098 127.28 506.552 127.28C507.012 127.28 507.31 127.482 507.392 127.787H507.994C507.913 127.159 507.356 126.762 506.555 126.762C505.744 126.762 505.13 127.241 505.13 127.875Z" fill="black"/>
<path d="M523.835 128.15C523.835 129.487 522.753 130.57 521.416 130.57C520.079 130.57 518.996 129.487 518.996 128.15C518.996 126.813 520.079 125.73 521.416 125.73C522.753 125.73 523.835 126.813 523.835 128.15Z" fill="#003C96"/>
<path d="M531.435 126.15L533.32 121.036H532.651L531.148 125.325H531.091L529.588 121.036H528.918L530.804 126.15H531.435ZM534.458 121.592C534.692 121.592 534.884 121.401 534.884 121.167C534.884 120.933 534.692 120.742 534.458 120.742C534.224 120.742 534.033 120.933 534.033 121.167C534.033 121.401 534.224 121.592 534.458 121.592ZM534.153 126.15H534.763V122.33H534.153V126.15ZM537.34 126.218C537.868 126.218 538.322 125.966 538.563 125.541H538.619V126.15H539.201V120.813H538.591V122.932H538.538C538.322 122.514 537.871 122.262 537.34 122.262C536.369 122.262 535.734 123.042 535.734 124.24C535.734 125.442 536.361 126.218 537.34 126.218ZM537.482 122.812C538.173 122.812 538.605 123.365 538.605 124.24C538.605 125.123 538.176 125.668 537.482 125.668C536.783 125.668 536.365 125.133 536.365 124.24C536.365 123.35 536.787 122.812 537.482 122.812ZM542.915 125.162C542.755 125.498 542.422 125.679 541.93 125.679C541.281 125.679 540.859 125.201 540.827 124.446V124.417H543.574V124.183C543.574 122.996 542.947 122.262 541.915 122.262C540.866 122.262 540.193 123.042 540.193 124.244C540.193 125.452 540.856 126.218 541.915 126.218C542.752 126.218 543.347 125.814 543.525 125.162H542.915ZM541.908 122.801C542.514 122.801 542.919 123.248 542.933 123.925H540.827C540.873 123.248 541.299 122.801 541.908 122.801ZM546.101 126.218C547.189 126.218 547.863 125.466 547.863 124.24C547.863 123.01 547.189 122.262 546.101 122.262C545.013 122.262 544.34 123.01 544.34 124.24C544.34 125.466 545.013 126.218 546.101 126.218ZM546.101 125.668C545.378 125.668 544.971 125.144 544.971 124.24C544.971 123.333 545.378 122.812 546.101 122.812C546.824 122.812 547.232 123.333 547.232 124.24C547.232 125.144 546.824 125.668 546.101 125.668ZM553.987 122.33H553.335L552.29 125.477H552.233L551.187 122.33H550.535L551.949 126.15H552.573L553.987 122.33ZM555.122 121.592C555.356 121.592 555.547 121.401 555.547 121.167C555.547 120.933 555.356 120.742 555.122 120.742C554.888 120.742 554.696 120.933 554.696 121.167C554.696 121.401 554.888 121.592 555.122 121.592ZM554.817 126.15H555.426V122.33H554.817V126.15ZM559.12 125.162C558.96 125.498 558.627 125.679 558.134 125.679C557.486 125.679 557.064 125.201 557.032 124.446V124.417H559.779V124.183C559.779 122.996 559.152 122.262 558.12 122.262C557.071 122.262 556.398 123.042 556.398 124.244C556.398 125.452 557.06 126.218 558.12 126.218C558.957 126.218 559.552 125.814 559.729 125.162H559.12ZM558.113 122.801C558.719 122.801 559.123 123.248 559.137 123.925H557.032C557.078 123.248 557.503 122.801 558.113 122.801ZM565.542 122.33H564.929L564.177 125.385H564.121L563.267 122.33H562.682L561.828 125.385H561.771L561.019 122.33H560.403L561.473 126.15H562.09L562.94 123.194H562.997L563.851 126.15H564.472L565.542 122.33ZM566.162 123.375C566.162 123.928 566.488 124.236 567.204 124.41L567.86 124.57C568.268 124.669 568.466 124.846 568.466 125.108C568.466 125.459 568.097 125.704 567.584 125.704C567.094 125.704 566.79 125.498 566.687 125.176H566.059C566.127 125.81 566.712 126.218 567.562 126.218C568.431 126.218 569.093 125.746 569.093 125.062C569.093 124.513 568.746 124.201 568.027 124.027L567.438 123.886C566.988 123.776 566.775 123.613 566.775 123.35C566.775 123.01 567.13 122.78 567.584 122.78C568.044 122.78 568.342 122.982 568.424 123.287H569.026C568.945 122.659 568.388 122.262 567.587 122.262C566.775 122.262 566.162 122.741 566.162 123.375ZM529.532 133.024C529.532 134.303 529.858 135.338 530.538 136.239H531.056C530.549 135.593 530.159 134.229 530.159 133.024C530.159 131.826 530.552 130.458 531.056 129.813H530.538C529.858 130.713 529.532 131.748 529.532 133.024ZM534.157 135.271C535.245 135.271 536.053 134.665 536.223 133.726H535.575C535.412 134.317 534.869 134.683 534.157 134.683C533.172 134.683 532.555 133.878 532.555 132.595C532.555 131.312 533.172 130.504 534.153 130.504C534.859 130.504 535.405 130.918 535.575 131.578H536.223C536.071 130.592 535.231 129.915 534.153 129.915C532.764 129.915 531.899 130.943 531.899 132.595C531.899 134.243 532.768 135.271 534.157 135.271ZM537.294 130.036V135.15H537.932V133.325H539.218C540.179 133.325 540.863 132.648 540.863 131.691C540.863 130.716 540.193 130.036 539.225 130.036H537.294ZM537.932 130.603H539.059C539.8 130.603 540.207 130.989 540.207 131.691C540.207 132.368 539.785 132.758 539.059 132.758H537.932V130.603ZM544.017 135.15L545.903 130.036H545.233L543.73 134.325H543.673L542.171 130.036H541.501L543.386 135.15H544.017ZM548.061 133.027C548.061 131.748 547.735 130.713 547.055 129.813H546.537C547.044 130.458 547.434 131.822 547.434 133.027C547.434 134.225 547.041 135.593 546.537 136.239H547.055C547.735 135.338 548.061 134.303 548.061 133.027Z" fill="black"/>
<path d="M584.191 128.15C584.191 129.487 583.108 130.57 581.771 130.57C580.434 130.57 579.352 129.487 579.352 128.15C579.352 126.813 580.434 125.73 581.771 125.73C583.108 125.73 584.191 126.813 584.191 128.15Z" fill="#A42700"/>
<path d="M592.52 122.113H592.563L593.74 126.15H594.342L595.735 121.036H595.069L594.052 125.193H594.009L592.864 121.036H592.219L591.074 125.193H591.032L590.015 121.036H589.348L590.741 126.15H591.344L592.52 122.113ZM598.805 125.162C598.645 125.498 598.312 125.679 597.819 125.679C597.171 125.679 596.749 125.201 596.717 124.446V124.417H599.464V124.183C599.464 122.996 598.836 122.262 597.805 122.262C596.756 122.262 596.083 123.042 596.083 124.244C596.083 125.452 596.745 126.218 597.805 126.218C598.642 126.218 599.237 125.814 599.414 125.162H598.805ZM597.798 122.801C598.404 122.801 598.808 123.248 598.822 123.925H596.717C596.763 123.248 597.188 122.801 597.798 122.801ZM602.321 126.218C603.288 126.218 603.923 125.434 603.923 124.24C603.923 123.038 603.292 122.262 602.321 122.262C601.796 122.262 601.332 122.521 601.123 122.932H601.066V120.813H600.456V126.15H601.038V125.541H601.094C601.335 125.966 601.789 126.218 602.321 126.218ZM602.179 122.812C602.877 122.812 603.292 123.347 603.292 124.24C603.292 125.133 602.877 125.668 602.179 125.668C601.484 125.668 601.052 125.123 601.052 124.24C601.052 123.357 601.484 122.812 602.179 122.812ZM589.515 132.375C589.515 132.928 589.841 133.236 590.557 133.41L591.213 133.57C591.62 133.669 591.819 133.846 591.819 134.108C591.819 134.459 591.45 134.704 590.936 134.704C590.447 134.704 590.142 134.498 590.039 134.176H589.412C589.479 134.81 590.064 135.218 590.915 135.218C591.783 135.218 592.446 134.746 592.446 134.062C592.446 133.513 592.099 133.201 591.379 133.027L590.791 132.886C590.341 132.776 590.128 132.613 590.128 132.35C590.128 132.01 590.482 131.78 590.936 131.78C591.397 131.78 591.695 131.982 591.776 132.287H592.379C592.297 131.659 591.741 131.262 590.94 131.262C590.128 131.262 589.515 131.741 589.515 132.375ZM595.934 134.162C595.774 134.498 595.441 134.679 594.948 134.679C594.3 134.679 593.878 134.201 593.846 133.446V133.417H596.593V133.183C596.593 131.996 595.966 131.262 594.934 131.262C593.885 131.262 593.212 132.042 593.212 133.244C593.212 134.452 593.874 135.218 594.934 135.218C595.771 135.218 596.366 134.814 596.543 134.162H595.934ZM594.927 131.801C595.533 131.801 595.937 132.248 595.951 132.925H593.846C593.892 132.248 594.317 131.801 594.927 131.801ZM597.461 132.375C597.461 132.928 597.787 133.236 598.503 133.41L599.159 133.57C599.567 133.669 599.765 133.846 599.765 134.108C599.765 134.459 599.396 134.704 598.883 134.704C598.393 134.704 598.089 134.498 597.986 134.176H597.358C597.426 134.81 598.011 135.218 598.861 135.218C599.73 135.218 600.392 134.746 600.392 134.062C600.392 133.513 600.045 133.201 599.326 133.027L598.737 132.886C598.287 132.776 598.074 132.613 598.074 132.35C598.074 132.01 598.429 131.78 598.883 131.78C599.343 131.78 599.641 131.982 599.723 132.287H600.325C600.244 131.659 599.687 131.262 598.886 131.262C598.074 131.262 597.461 131.741 597.461 132.375ZM601.19 132.375C601.19 132.928 601.516 133.236 602.232 133.41L602.888 133.57C603.295 133.669 603.494 133.846 603.494 134.108C603.494 134.459 603.125 134.704 602.611 134.704C602.122 134.704 601.817 134.498 601.714 134.176H601.087C601.154 134.81 601.739 135.218 602.59 135.218C603.458 135.218 604.121 134.746 604.121 134.062C604.121 133.513 603.774 133.201 603.054 133.027L602.466 132.886C602.016 132.776 601.803 132.613 601.803 132.35C601.803 132.01 602.158 131.78 602.611 131.78C603.072 131.78 603.37 131.982 603.451 132.287H604.054C603.972 131.659 603.416 131.262 602.615 131.262C601.803 131.262 601.19 131.741 601.19 132.375ZM605.397 130.592C605.631 130.592 605.822 130.401 605.822 130.167C605.822 129.933 605.631 129.742 605.397 129.742C605.163 129.742 604.972 129.933 604.972 130.167C604.972 130.401 605.163 130.592 605.397 130.592ZM605.092 135.15H605.702V131.33H605.092V135.15ZM608.435 135.218C609.523 135.218 610.196 134.466 610.196 133.24C610.196 132.01 609.523 131.262 608.435 131.262C607.346 131.262 606.673 132.01 606.673 133.24C606.673 134.466 607.346 135.218 608.435 135.218ZM608.435 134.668C607.711 134.668 607.304 134.144 607.304 133.24C607.304 132.333 607.711 131.812 608.435 131.812C609.158 131.812 609.565 132.333 609.565 133.24C609.565 134.144 609.158 134.668 608.435 134.668ZM611.153 135.15H611.763V132.889C611.763 132.219 612.156 131.812 612.766 131.812C613.375 131.812 613.666 132.138 613.666 132.825V135.15H614.276V132.676C614.276 131.769 613.797 131.262 612.939 131.262C612.355 131.262 611.982 131.51 611.791 131.932H611.734V131.33H611.153V135.15ZM615.303 132.375C615.303 132.928 615.63 133.236 616.345 133.41L617.001 133.57C617.409 133.669 617.607 133.846 617.607 134.108C617.607 134.459 617.239 134.704 616.725 134.704C616.236 134.704 615.931 134.498 615.828 134.176H615.201C615.268 134.81 615.853 135.218 616.703 135.218C617.572 135.218 618.235 134.746 618.235 134.062C618.235 133.513 617.887 133.201 617.168 133.027L616.579 132.886C616.129 132.776 615.917 132.613 615.917 132.35C615.917 132.01 616.271 131.78 616.725 131.78C617.186 131.78 617.483 131.982 617.565 132.287H618.167C618.086 131.659 617.529 131.262 616.728 131.262C615.917 131.262 615.303 131.741 615.303 132.375Z" fill="black"/>
<path d="M628.709 128.15C628.709 122.664 633.156 118.218 638.641 118.218H676.393C681.878 118.218 686.325 122.664 686.325 128.15C686.325 133.635 681.878 138.081 676.393 138.081H638.641C633.156 138.081 628.709 133.635 628.709 128.15Z" fill="white"/>
<path d="M636.601 129.264C636.653 130.526 637.707 131.324 639.333 131.324C641.044 131.324 642.098 130.483 642.098 129.122C642.098 128.068 641.507 127.477 640.136 127.184L639.314 127.01C638.515 126.835 638.189 126.584 638.189 126.154C638.189 125.62 638.662 125.275 639.375 125.275C640.065 125.275 640.566 125.639 640.633 126.197H641.975C641.932 124.992 640.869 124.155 639.366 124.155C637.792 124.155 636.757 124.996 636.757 126.268C636.757 127.303 637.367 127.941 638.61 128.205L639.498 128.399C640.335 128.583 640.675 128.843 640.675 129.292C640.675 129.821 640.151 130.195 639.409 130.195C638.605 130.195 638.048 129.831 637.981 129.264H636.601ZM646.682 129.68C646.535 130.034 646.162 130.233 645.618 130.233C644.9 130.233 644.446 129.736 644.427 128.942V128.872H648.005V128.46C648.005 126.816 647.097 125.833 645.562 125.833C644.011 125.833 643.057 126.882 643.057 128.574C643.057 130.256 643.993 131.258 645.58 131.258C646.856 131.258 647.759 130.648 647.962 129.68H646.682ZM645.566 126.858C646.209 126.858 646.625 127.303 646.653 128.016H644.432C644.479 127.317 644.928 126.858 645.566 126.858ZM649.181 131.149H650.557V123.957H649.181V131.149ZM655.358 129.68C655.212 130.034 654.838 130.233 654.295 130.233C653.576 130.233 653.123 129.736 653.104 128.942V128.872H656.681V128.46C656.681 126.816 655.774 125.833 654.238 125.833C652.688 125.833 651.733 126.882 651.733 128.574C651.733 130.256 652.669 131.258 654.257 131.258C655.533 131.258 656.436 130.648 656.639 129.68H655.358ZM654.243 126.858C654.885 126.858 655.301 127.303 655.33 128.016H653.109C653.156 127.317 653.605 126.858 654.243 126.858ZM662.423 127.761C662.31 126.598 661.483 125.833 660.103 125.833C658.472 125.833 657.556 126.821 657.556 128.536C657.556 130.27 658.477 131.258 660.103 131.258C661.459 131.258 662.31 130.511 662.423 129.368H661.138C661.034 129.888 660.665 130.166 660.103 130.166C659.366 130.166 658.945 129.585 658.945 128.536C658.945 127.501 659.361 126.929 660.103 126.929C660.689 126.929 661.043 127.26 661.138 127.761H662.423ZM663.94 124.703V125.994H663.127V127.038H663.94V129.746C663.94 130.757 664.441 131.168 665.708 131.168C665.972 131.168 666.227 131.14 666.397 131.107V130.091C666.265 130.105 666.171 130.114 665.991 130.114C665.523 130.114 665.315 129.897 665.315 129.429V127.038H666.397V125.994H665.315V124.703H663.94Z" fill="#111111"/>
<path fill-rule="evenodd" clip-rule="evenodd" d="M677.904 126.532L675.436 128.97L672.969 126.532C672.703 126.269 672.272 126.269 672.006 126.532C671.74 126.794 671.74 127.221 672.006 127.483L675.436 130.872L678.866 127.483C678.999 127.351 679.066 127.179 679.066 127.007C679.066 126.835 678.999 126.663 678.866 126.532C678.733 126.401 678.559 126.335 678.385 126.335C678.211 126.335 678.037 126.401 677.904 126.532Z" fill="#111111"/>
<rect x="266.98" y="113.934" width="418.591" height="28.4303" rx="14.2152" stroke="#E9E9E9" stroke-width="0.6049"/>
<rect x="0.5" y="0.500977" width="735" height="441" stroke="#E9E9E9"/>
<defs>
<clipPath id="clip0_851_10726">
<rect width="635.75" height="13.7498" fill="white" transform="translate(50.125 153.034)"/>
</clipPath>
<clipPath id="clip1_851_10726">
<rect width="635.75" height="13.406" fill="white" transform="translate(50.125 192.907)"/>
</clipPath>
<clipPath id="clip2_851_10726">
<rect width="635.75" height="13.7498" fill="white" transform="translate(50.125 232.095)"/>
</clipPath>
<clipPath id="clip3_851_10726">
<rect width="635.75" height="13.406" fill="white" transform="translate(50.125 271.97)"/>
</clipPath>
</defs>
</svg>
