<svg xmlns="http://www.w3.org/2000/svg" fill="none" viewBox="0 0 736 756"><path fill="#000" d="M75.382 53h2.235l-3.425-9.864h-2.426L68.34 53h2.071l.759-2.393h3.466L75.382 53Zm-2.53-7.861h.124l1.223 3.923h-2.584l1.238-3.923Zm9.16 10.712c2.277 0 3.72-1.108 3.72-2.865v-7.512h-1.928v1.203h-.123c-.404-.82-1.272-1.326-2.29-1.326-1.914 0-3.09 1.49-3.09 3.82 0 2.257 1.169 3.72 3.049 3.72 1.06 0 1.852-.431 2.27-1.224h.122v1.401c0 .869-.622 1.374-1.688 1.374-.862 0-1.422-.3-1.525-.779h-1.968c.123 1.32 1.449 2.188 3.452 2.188Zm.028-4.485c-1.08 0-1.695-.847-1.695-2.201 0-1.353.622-2.201 1.695-2.201s1.723.848 1.723 2.201c0 1.354-.643 2.201-1.723 2.201Zm10.562-.492c-.212.513-.752.8-1.538.8-1.04 0-1.696-.718-1.723-1.866v-.103h5.175v-.595c0-2.379-1.313-3.8-3.535-3.8-2.242 0-3.623 1.517-3.623 3.964 0 2.434 1.354 3.883 3.65 3.883 1.847 0 3.152-.882 3.446-2.283h-1.852Zm-1.614-4.081c.93 0 1.531.642 1.573 1.675h-3.213c.068-1.012.717-1.675 1.64-1.675Z"/><path fill="#111" d="M134.602 387h1.054v-8.455h-1.049l-2.25 1.617v1.113l2.151-1.558h.094V387Zm6.468.199c1.793 0 3.047-1.013 3.047-2.461 0-1.101-.697-1.957-1.758-2.156v-.094c.873-.24 1.412-.961 1.412-1.886 0-1.319-1.119-2.256-2.701-2.256s-2.701.937-2.701 2.256c0 .919.551 1.652 1.412 1.886v.094c-1.06.199-1.758 1.055-1.758 2.156 0 1.448 1.254 2.461 3.047 2.461Zm0-5.062c-.996 0-1.664-.575-1.664-1.436 0-.873.662-1.453 1.664-1.453 1.002 0 1.664.58 1.664 1.453 0 .861-.668 1.436-1.664 1.436Zm0 4.16c-1.172 0-1.98-.668-1.98-1.635s.808-1.635 1.98-1.635 1.981.668 1.981 1.635-.809 1.635-1.981 1.635Zm8.584-2.221v-.955h-3.843v.955h3.843Zm1.799-3.146h1.02c0-1.002.673-1.664 1.687-1.664.996 0 1.6.668 1.6 1.564 0 .744-.317 1.184-1.395 2.35l-2.859 3.093V387h5.473v-.949h-4.008v-.094l1.922-1.986c1.523-1.576 1.945-2.28 1.945-3.252 0-1.371-1.131-2.373-2.608-2.373-1.617 0-2.777 1.078-2.777 2.584Zm10.992 6.07h1.032v-1.752h1.201v-.943h-1.201v-5.76h-1.53a133.676 133.676 0 0 0-3.621 5.742v.961h4.119V387Zm-3.041-2.76c.92-1.552 2.028-3.299 2.977-4.717h.07v4.788h-3.047v-.071ZM215.096 380.93h1.019c0-1.002.674-1.664 1.688-1.664.996 0 1.599.668 1.599 1.564 0 .744-.316 1.184-1.394 2.35l-2.86 3.093V387h5.473v-.949h-4.008v-.094l1.922-1.986c1.524-1.576 1.945-2.28 1.945-3.252 0-1.371-1.13-2.373-2.607-2.373-1.617 0-2.777 1.078-2.777 2.584Zm10.119 6.269c1.728 0 2.906-1.195 2.906-2.935 0-1.676-1.172-2.789-2.59-2.789-.843 0-1.47.257-1.881.767h-.093l.263-2.754h3.868v-.943h-4.694l-.486 4.834h.99c.334-.627.967-.996 1.77-.996 1.066 0 1.798.767 1.798 1.91 0 1.184-.732 1.98-1.839 1.98-.997 0-1.723-.603-1.817-1.505h-1.037c.094 1.447 1.242 2.431 2.842 2.431Zm8.426-3.123v-.955h-3.844v.955h3.844Zm3.627-.972h1.048c1.19 0 1.922.609 1.922 1.587 0 .95-.791 1.588-1.904 1.588-1.09 0-1.852-.568-1.945-1.459h-1.02c.076 1.436 1.26 2.379 2.977 2.379 1.681 0 2.976-1.06 2.976-2.478 0-1.178-.726-1.922-1.822-2.098v-.094c.867-.252 1.5-.925 1.506-1.945.006-1.184-.955-2.238-2.625-2.238-1.711 0-2.76 1.013-2.865 2.39h1.025c.088-.949.75-1.47 1.77-1.47 1.019 0 1.623.644 1.623 1.435 0 .879-.692 1.5-1.664 1.5h-1.002v.903Zm9.609 3.896h1.031v-1.752h1.201v-.943h-1.201v-5.76h-1.529a131.737 131.737 0 0 0-3.621 5.742v.961h4.119V387Zm-3.041-2.76c.92-1.552 2.027-3.299 2.976-4.717h.071v4.788h-3.047v-.071ZM298.689 384.104h1.049c1.19 0 1.922.609 1.922 1.587 0 .95-.791 1.588-1.904 1.588-1.09 0-1.852-.568-1.945-1.459h-1.02c.076 1.436 1.26 2.379 2.977 2.379 1.681 0 2.976-1.06 2.976-2.478 0-1.178-.726-1.922-1.822-2.098v-.094c.867-.252 1.5-.925 1.506-1.945.006-1.184-.955-2.238-2.625-2.238-1.711 0-2.76 1.013-2.865 2.39h1.025c.088-.949.75-1.47 1.769-1.47 1.02 0 1.623.644 1.623 1.435 0 .879-.691 1.5-1.664 1.5h-1.002v.903Zm8.561 4.095c1.729 0 2.906-1.195 2.906-2.935 0-1.676-1.172-2.789-2.59-2.789-.843 0-1.47.257-1.88.767h-.094l.263-2.754h3.868v-.943h-4.694l-.486 4.834h.99c.334-.627.967-.996 1.77-.996 1.066 0 1.799.767 1.799 1.91 0 1.184-.733 1.98-1.84 1.98-.996 0-1.723-.603-1.817-1.505h-1.037c.094 1.447 1.242 2.431 2.842 2.431Zm8.426-3.123v-.955h-3.844v.955h3.844Zm5.713 2.924h1.031v-1.752h1.201v-.943h-1.201v-5.76h-1.529a131.737 131.737 0 0 0-3.621 5.742v.961h4.119V388Zm-3.041-2.76c.92-1.552 2.027-3.299 2.976-4.717h.071v4.788h-3.047v-.071Zm10.763 2.76h1.032v-1.752h1.201v-.943h-1.201v-5.76h-1.53a133.676 133.676 0 0 0-3.621 5.742v.961h4.119V388Zm-3.041-2.76c.92-1.552 2.028-3.299 2.977-4.717h.07v4.788h-3.047v-.071ZM385.711 388h1.031v-1.752h1.201v-.943h-1.201v-5.76h-1.529a131.737 131.737 0 0 0-3.621 5.742v.961h4.119V388Zm-3.041-2.76c.92-1.552 2.027-3.299 2.976-4.717h.071v4.788h-3.047v-.071Zm9.715 2.959c1.728 0 2.906-1.195 2.906-2.935 0-1.676-1.172-2.789-2.59-2.789-.844 0-1.471.257-1.881.767h-.093l.263-2.754h3.867v-.943h-4.693l-.486 4.834h.99c.334-.627.967-.996 1.77-.996 1.066 0 1.798.767 1.798 1.91 0 1.184-.732 1.98-1.84 1.98-.996 0-1.722-.603-1.816-1.505h-1.037c.094 1.447 1.242 2.431 2.842 2.431Zm8.426-3.123v-.955h-3.844v.955h3.844Zm5.712 2.924h1.032v-1.752h1.201v-.943h-1.201v-5.76h-1.53a133.676 133.676 0 0 0-3.621 5.742v.961h4.119V388Zm-3.041-2.76c.92-1.552 2.028-3.299 2.977-4.717h.07v4.788h-3.047v-.071Zm9.604 2.953c2.068 0 3.252-1.664 3.252-4.57 0-2.877-1.359-4.277-3.182-4.277-1.734 0-2.965 1.213-2.965 2.912 0 1.64 1.166 2.83 2.778 2.83 1.008 0 1.834-.481 2.25-1.301h.093c-.058 2.25-.837 3.469-2.214 3.469-.832 0-1.477-.463-1.7-1.225h-1.084c.264 1.33 1.336 2.162 2.772 2.162Zm.07-4.019c-1.119 0-1.898-.797-1.898-1.951 0-1.108.826-1.952 1.91-1.952s1.91.856 1.91 1.987c0 1.119-.803 1.916-1.922 1.916ZM467.855 388.199c1.729 0 2.907-1.195 2.907-2.935 0-1.676-1.172-2.789-2.59-2.789-.844 0-1.471.257-1.881.767h-.094l.264-2.754h3.867v-.943h-4.693l-.487 4.834h.991c.334-.627.966-.996 1.769-.996 1.067 0 1.799.767 1.799 1.91 0 1.184-.732 1.98-1.84 1.98-.996 0-1.722-.603-1.816-1.505h-1.037c.093 1.447 1.242 2.431 2.841 2.431Zm7.459 0c1.899 0 2.989-1.605 2.989-4.412 0-2.801-1.108-4.441-2.989-4.441-1.892 0-3 1.634-3 4.424 0 2.812 1.096 4.429 3 4.429Zm0-.92c-1.248 0-1.939-1.248-1.939-3.509 0-2.233.703-3.499 1.939-3.499 1.237 0 1.928 1.254 1.928 3.499 0 2.267-.68 3.509-1.928 3.509Zm8.526-2.203v-.955h-3.844v.955h3.844Zm4.664 3.123c1.728 0 2.906-1.195 2.906-2.935 0-1.676-1.172-2.789-2.59-2.789-.843 0-1.47.257-1.881.767h-.093l.263-2.754h3.868v-.943h-4.694l-.486 4.834h.99c.334-.627.967-.996 1.77-.996 1.066 0 1.798.767 1.798 1.91 0 1.184-.732 1.98-1.839 1.98-.996 0-1.723-.603-1.817-1.505h-1.037c.094 1.447 1.242 2.431 2.842 2.431Zm8.478-.199h1.032v-1.752h1.201v-.943h-1.201v-5.76h-1.53a133.676 133.676 0 0 0-3.621 5.742v.961h4.119V388Zm-3.041-2.76c.92-1.552 2.028-3.299 2.977-4.717h.07v4.788h-3.047v-.071ZM552.809 389.199c1.728 0 2.906-1.195 2.906-2.935 0-1.676-1.172-2.789-2.59-2.789-.844 0-1.471.257-1.881.767h-.094l.264-2.754h3.867v-.943h-4.693l-.486 4.834h.99c.334-.627.967-.996 1.769-.996 1.067 0 1.799.767 1.799 1.91 0 1.184-.732 1.98-1.84 1.98-.996 0-1.722-.603-1.816-1.505h-1.037c.094 1.447 1.242 2.431 2.842 2.431Zm7.429 0c1.729 0 2.907-1.195 2.907-2.935 0-1.676-1.172-2.789-2.59-2.789-.844 0-1.471.257-1.881.767h-.094l.264-2.754h3.867v-.943h-4.693l-.487 4.834h.99c.334-.627.967-.996 1.77-.996 1.066 0 1.799.767 1.799 1.91 0 1.184-.733 1.98-1.84 1.98-.996 0-1.723-.603-1.816-1.505h-1.038c.094 1.447 1.243 2.431 2.842 2.431Zm8.426-3.123v-.955h-3.844v.955h3.844Zm4.84 3.117c1.734 0 2.965-1.213 2.965-2.912 0-1.64-1.166-2.83-2.778-2.83-1.007 0-1.834.481-2.25 1.301h-.093c.035-2.297.855-3.469 2.261-3.469.856 0 1.477.44 1.653 1.225h1.084c-.217-1.313-1.231-2.162-2.772-2.162-1.998 0-3.252 1.664-3.252 4.57 0 2.848 1.342 4.277 3.182 4.277Zm-.012-.925c-1.084 0-1.91-.856-1.91-1.987 0-1.119.803-1.916 1.922-1.916 1.119 0 1.898.797 1.898 1.951 0 1.108-.826 1.952-1.91 1.952Zm8.537.732h1.032v-1.752h1.201v-.943h-1.201v-5.76h-1.53a133.676 133.676 0 0 0-3.621 5.742v.961h4.119V389Zm-3.041-2.76c.92-1.552 2.028-3.299 2.977-4.717h.07v4.788h-3.047v-.071ZM648.5 388.193c1.734 0 2.965-1.213 2.965-2.912 0-1.64-1.166-2.83-2.777-2.83-1.008 0-1.834.481-2.25 1.301h-.094c.035-2.297.855-3.469 2.261-3.469.856 0 1.477.44 1.653 1.225h1.084c-.217-1.313-1.231-2.162-2.772-2.162-1.998 0-3.252 1.664-3.252 4.57 0 2.848 1.342 4.277 3.182 4.277Zm-.012-.925c-1.084 0-1.91-.856-1.91-1.987 0-1.119.803-1.916 1.922-1.916 1.119 0 1.898.797 1.898 1.951 0 1.108-.826 1.952-1.91 1.952Zm7.489.931c1.728 0 2.906-1.195 2.906-2.935 0-1.676-1.172-2.789-2.59-2.789-.844 0-1.471.257-1.881.767h-.094l.264-2.754h3.867v-.943h-4.693l-.486 4.834h.99c.334-.627.967-.996 1.769-.996 1.067 0 1.799.767 1.799 1.91 0 1.184-.732 1.98-1.84 1.98-.996 0-1.722-.603-1.816-1.505h-1.037c.094 1.447 1.242 2.431 2.842 2.431Zm8.039-3.058h2.355v-.95h-2.355v-2.472h-.95v2.472h-2.355v.95h2.355v2.472h.95v-2.472ZM70.668 86h1.055v-8.455h-1.05l-2.25 1.617v1.113l2.151-1.558h.094V86Zm6.422.2c1.898 0 2.988-1.606 2.988-4.413 0-2.8-1.107-4.441-2.988-4.441-1.893 0-3 1.635-3 4.423 0 2.813 1.096 4.43 3 4.43Zm0-.92c-1.248 0-1.94-1.249-1.94-3.51 0-2.233.703-3.498 1.94-3.498 1.236 0 1.928 1.253 1.928 3.497 0 2.268-.68 3.51-1.928 3.51Zm7.558.92c1.899 0 2.989-1.606 2.989-4.413 0-2.8-1.108-4.441-2.989-4.441-1.892 0-3 1.635-3 4.423 0 2.813 1.096 4.43 3 4.43Zm0-.92c-1.248 0-1.939-1.249-1.939-3.51 0-2.233.703-3.498 1.94-3.498 1.236 0 1.927 1.253 1.927 3.497 0 2.268-.68 3.51-1.928 3.51Zm5.989-3.909c1.142 0 1.834-.744 1.834-1.992 0-1.23-.698-1.986-1.834-1.986-1.137 0-1.84.755-1.84 1.986 0 1.242.691 1.992 1.84 1.992Zm.38 4.629 5.842-8.455h-.955L90.063 86h.955Zm-.38-5.397c-.592 0-.932-.445-.932-1.218 0-.768.34-1.219.932-1.219.586 0 .925.451.925 1.219 0 .767-.334 1.218-.925 1.218Zm5.654 5.479c1.143 0 1.834-.744 1.834-1.992 0-1.23-.697-1.987-1.834-1.987s-1.84.756-1.84 1.987c0 1.242.697 1.992 1.84 1.992Zm0-.767c-.592 0-.926-.446-.926-1.22 0-.767.334-1.218.926-1.218.592 0 .926.451.926 1.219 0 .767-.334 1.218-.926 1.218Zm-19.435 28.878c2.068 0 3.251-1.664 3.251-4.57 0-2.877-1.359-4.277-3.181-4.277-1.735 0-2.965 1.213-2.965 2.912 0 1.64 1.166 2.83 2.777 2.83 1.008 0 1.834-.481 2.25-1.301h.094c-.059 2.25-.838 3.469-2.215 3.469-.832 0-1.476-.463-1.699-1.225h-1.084c.264 1.33 1.336 2.162 2.772 2.162Zm.07-4.019c-1.12 0-1.899-.797-1.899-1.951 0-1.108.826-1.952 1.91-1.952 1.085 0 1.91.856 1.91 1.987 0 1.119-.802 1.916-1.921 1.916Zm7.722 4.025c1.899 0 2.989-1.605 2.989-4.412 0-2.801-1.108-4.441-2.989-4.441-1.892 0-3 1.634-3 4.424 0 2.812 1.096 4.429 3 4.429Zm0-.92c-1.248 0-1.939-1.248-1.939-3.509 0-2.233.703-3.499 1.94-3.499 1.236 0 1.927 1.254 1.927 3.499 0 2.267-.68 3.509-1.928 3.509Zm5.989-3.908c1.142 0 1.834-.744 1.834-1.992 0-1.231-.698-1.986-1.834-1.986-1.137 0-1.84.755-1.84 1.986 0 1.242.691 1.992 1.84 1.992Zm.38 4.629 5.842-8.455h-.955L90.063 114h.955Zm-.38-5.396c-.592 0-.932-.446-.932-1.219 0-.768.34-1.219.932-1.219.586 0 .925.451.925 1.219 0 .767-.334 1.219-.925 1.219Zm5.654 5.478c1.143 0 1.834-.744 1.834-1.992 0-1.231-.697-1.986-1.834-1.986s-1.84.755-1.84 1.986c0 1.242.697 1.992 1.84 1.992Zm0-.768c-.592 0-.926-.445-.926-1.218 0-.768.334-1.219.926-1.219.592 0 .926.451.926 1.219 0 .767-.334 1.218-.926 1.218Zm-19.26 28.885c1.793 0 3.047-1.013 3.047-2.461 0-1.101-.697-1.957-1.758-2.156v-.094c.873-.24 1.412-.961 1.412-1.886 0-1.319-1.119-2.256-2.7-2.256-1.583 0-2.702.937-2.702 2.256 0 .919.55 1.652 1.412 1.886v.094c-1.06.199-1.758 1.055-1.758 2.156 0 1.448 1.254 2.461 3.047 2.461Zm0-5.062c-.996 0-1.664-.575-1.664-1.436 0-.873.662-1.453 1.664-1.453 1.002 0 1.664.58 1.664 1.453 0 .861-.668 1.436-1.664 1.436Zm0 4.16c-1.172 0-1.98-.668-1.98-1.635s.808-1.635 1.98-1.635 1.98.668 1.98 1.635-.808 1.635-1.98 1.635Zm7.617.902c1.899 0 2.989-1.605 2.989-4.412 0-2.801-1.108-4.441-2.989-4.441-1.892 0-3 1.634-3 4.424 0 2.812 1.096 4.429 3 4.429Zm0-.92c-1.248 0-1.939-1.248-1.939-3.509 0-2.233.703-3.499 1.94-3.499 1.236 0 1.927 1.254 1.927 3.499 0 2.267-.68 3.509-1.928 3.509Zm5.989-3.908c1.142 0 1.834-.744 1.834-1.992 0-1.231-.698-1.986-1.834-1.986-1.137 0-1.84.755-1.84 1.986 0 1.242.691 1.992 1.84 1.992Zm.38 4.629 5.842-8.455h-.955L90.063 142h.955Zm-.38-5.396c-.592 0-.932-.446-.932-1.219 0-.768.34-1.219.932-1.219.586 0 .925.451.925 1.219 0 .767-.334 1.219-.925 1.219Zm5.654 5.478c1.143 0 1.834-.744 1.834-1.992 0-1.231-.697-1.986-1.834-1.986s-1.84.755-1.84 1.986c0 1.242.697 1.992 1.84 1.992Zm0-.768c-.592 0-.926-.445-.926-1.218 0-.768.334-1.219.926-1.219.592 0 .926.451.926 1.219 0 .767-.334 1.218-.926 1.218ZM75.491 170h1.107l3.761-7.477v-.978h-5.595v.943h4.523v.082L75.49 170Zm9.157.199c1.899 0 2.989-1.605 2.989-4.412 0-2.801-1.108-4.441-2.989-4.441-1.892 0-3 1.634-3 4.424 0 2.812 1.096 4.429 3 4.429Zm0-.92c-1.248 0-1.939-1.248-1.939-3.509 0-2.233.703-3.499 1.94-3.499 1.236 0 1.927 1.254 1.927 3.499 0 2.267-.68 3.509-1.928 3.509Zm5.989-3.908c1.142 0 1.834-.744 1.834-1.992 0-1.231-.698-1.986-1.834-1.986-1.137 0-1.84.755-1.84 1.986 0 1.242.691 1.992 1.84 1.992Zm.38 4.629 5.842-8.455h-.955L90.063 170h.955Zm-.38-5.396c-.592 0-.932-.446-.932-1.219 0-.768.34-1.219.932-1.219.586 0 .925.451.925 1.219 0 .767-.334 1.219-.925 1.219Zm5.654 5.478c1.143 0 1.834-.744 1.834-1.992 0-1.231-.697-1.986-1.834-1.986s-1.84.755-1.84 1.986c0 1.242.697 1.992 1.84 1.992Zm0-.768c-.592 0-.926-.445-.926-1.218 0-.768.334-1.219.926-1.219.592 0 .926.451.926 1.219 0 .767-.334 1.218-.926 1.218Zm-19.148 28.879c1.734 0 2.964-1.213 2.964-2.912 0-1.64-1.166-2.83-2.777-2.83-1.008 0-1.834.481-2.25 1.301h-.094c.035-2.297.856-3.469 2.262-3.469.855 0 1.477.44 1.652 1.225h1.084c-.216-1.313-1.23-2.162-2.771-2.162-1.998 0-3.252 1.664-3.252 4.57 0 2.848 1.342 4.277 3.182 4.277Zm-.012-.925c-1.084 0-1.91-.856-1.91-1.987 0-1.119.802-1.916 1.922-1.916 1.119 0 1.898.797 1.898 1.951 0 1.108-.826 1.952-1.91 1.952Zm7.517.931c1.899 0 2.989-1.605 2.989-4.412 0-2.801-1.108-4.441-2.989-4.441-1.892 0-3 1.634-3 4.424 0 2.812 1.096 4.429 3 4.429Zm0-.92c-1.248 0-1.939-1.248-1.939-3.509 0-2.233.703-3.499 1.94-3.499 1.236 0 1.927 1.254 1.927 3.499 0 2.267-.68 3.509-1.928 3.509Zm5.989-3.908c1.142 0 1.834-.744 1.834-1.992 0-1.231-.698-1.986-1.834-1.986-1.137 0-1.84.755-1.84 1.986 0 1.242.691 1.992 1.84 1.992Zm.38 4.629 5.842-8.455h-.955L90.063 198h.955Zm-.38-5.396c-.592 0-.932-.446-.932-1.219 0-.768.34-1.219.932-1.219.586 0 .925.451.925 1.219 0 .767-.334 1.219-.925 1.219Zm5.654 5.478c1.143 0 1.834-.744 1.834-1.992 0-1.231-.697-1.986-1.834-1.986s-1.84.755-1.84 1.986c0 1.242.697 1.992 1.84 1.992Zm0-.768c-.592 0-.926-.445-.926-1.218 0-.768.334-1.219.926-1.219.592 0 .926.451.926 1.219 0 .767-.334 1.218-.926 1.218Zm-19.102 28.885c1.729 0 2.907-1.195 2.907-2.935 0-1.676-1.172-2.789-2.59-2.789-.844 0-1.47.257-1.881.767h-.094l.264-2.754h3.867v-.943H74.97l-.487 4.834h.99c.335-.627.968-.996 1.77-.996 1.067 0 1.799.767 1.799 1.91 0 1.184-.732 1.98-1.84 1.98-.996 0-1.722-.603-1.816-1.505h-1.037c.093 1.447 1.242 2.431 2.841 2.431Zm7.46 0c1.898 0 2.988-1.605 2.988-4.412 0-2.801-1.108-4.441-2.989-4.441-1.892 0-3 1.634-3 4.424 0 2.812 1.096 4.429 3 4.429Zm0-.92c-1.249 0-1.94-1.248-1.94-3.509 0-2.233.703-3.499 1.94-3.499 1.236 0 1.927 1.254 1.927 3.499 0 2.267-.68 3.509-1.928 3.509Zm5.988-3.908c1.142 0 1.834-.744 1.834-1.992 0-1.231-.698-1.986-1.834-1.986-1.137 0-1.84.755-1.84 1.986 0 1.242.691 1.992 1.84 1.992Zm.38 4.629 5.842-8.455h-.955L90.063 226h.955Zm-.38-5.396c-.592 0-.932-.446-.932-1.219 0-.768.34-1.219.932-1.219.586 0 .925.451.925 1.219 0 .767-.334 1.219-.925 1.219Zm5.654 5.478c1.143 0 1.834-.744 1.834-1.992 0-1.231-.697-1.986-1.834-1.986s-1.84.755-1.84 1.986c0 1.242.697 1.992 1.84 1.992Zm0-.768c-.592 0-.926-.445-.926-1.218 0-.768.334-1.219.926-1.219.592 0 .926.451.926 1.219 0 .767-.334 1.218-.926 1.218ZM77.945 254h1.032v-1.752h1.2v-.943h-1.2v-5.76h-1.53a132.7 132.7 0 0 0-3.62 5.742v.961h4.118V254Zm-3.04-2.76c.92-1.552 2.027-3.299 2.976-4.717h.07v4.788h-3.047v-.071Zm9.743 2.959c1.899 0 2.989-1.605 2.989-4.412 0-2.801-1.108-4.441-2.989-4.441-1.892 0-3 1.634-3 4.424 0 2.812 1.096 4.429 3 4.429Zm0-.92c-1.248 0-1.939-1.248-1.939-3.509 0-2.233.703-3.499 1.94-3.499 1.236 0 1.927 1.254 1.927 3.499 0 2.267-.68 3.509-1.928 3.509Zm5.989-3.908c1.142 0 1.834-.744 1.834-1.992 0-1.231-.698-1.986-1.834-1.986-1.137 0-1.84.755-1.84 1.986 0 1.242.691 1.992 1.84 1.992Zm.38 4.629 5.842-8.455h-.955L90.063 254h.955Zm-.38-5.396c-.592 0-.932-.446-.932-1.219 0-.768.34-1.219.932-1.219.586 0 .925.451.925 1.219 0 .767-.334 1.219-.925 1.219Zm5.654 5.478c1.143 0 1.834-.744 1.834-1.992 0-1.231-.697-1.986-1.834-1.986s-1.84.755-1.84 1.986c0 1.242.697 1.992 1.84 1.992Zm0-.768c-.592 0-.926-.445-.926-1.218 0-.768.334-1.219.926-1.219.592 0 .926.451.926 1.219 0 .767-.334 1.218-.926 1.218Zm-20.232 24.79h1.048c1.19 0 1.922.609 1.922 1.587 0 .95-.79 1.588-1.904 1.588-1.09 0-1.852-.568-1.945-1.459h-1.02c.076 1.436 1.26 2.379 2.977 2.379 1.681 0 2.976-1.06 2.976-2.478 0-1.178-.726-1.922-1.822-2.098v-.094c.867-.252 1.5-.925 1.506-1.945.006-1.184-.955-2.238-2.625-2.238-1.711 0-2.76 1.013-2.865 2.39h1.025c.088-.949.75-1.47 1.77-1.47s1.623.644 1.623 1.435c0 .879-.692 1.5-1.664 1.5h-1.002v.903Zm8.59 4.095c1.898 0 2.988-1.605 2.988-4.412 0-2.801-1.108-4.441-2.989-4.441-1.892 0-3 1.634-3 4.424 0 2.812 1.096 4.429 3 4.429Zm0-.92c-1.249 0-1.94-1.248-1.94-3.509 0-2.233.703-3.499 1.94-3.499 1.236 0 1.927 1.254 1.927 3.499 0 2.267-.68 3.509-1.928 3.509Zm5.988-3.908c1.142 0 1.834-.744 1.834-1.992 0-1.231-.698-1.986-1.834-1.986-1.137 0-1.84.755-1.84 1.986 0 1.242.691 1.992 1.84 1.992Zm.38 4.629 5.842-8.455h-.955L90.063 282h.955Zm-.38-5.396c-.592 0-.932-.446-.932-1.219 0-.768.34-1.219.932-1.219.586 0 .925.451.925 1.219 0 .767-.334 1.219-.925 1.219Zm5.654 5.478c1.143 0 1.834-.744 1.834-1.992 0-1.231-.697-1.986-1.834-1.986s-1.84.755-1.84 1.986c0 1.242.697 1.992 1.84 1.992Zm0-.768c-.592 0-.926-.445-.926-1.218 0-.768.334-1.219.926-1.219.592 0 .926.451.926 1.219 0 .767-.334 1.218-.926 1.218ZM74.5 303.93h1.02c0-1.002.673-1.664 1.687-1.664.996 0 1.6.668 1.6 1.564 0 .744-.317 1.184-1.395 2.35l-2.86 3.093V310h5.473v-.949h-4.007v-.094l1.921-1.986c1.524-1.576 1.946-2.28 1.946-3.252 0-1.371-1.131-2.373-2.608-2.373-1.617 0-2.777 1.078-2.777 2.584Zm10.148 6.269c1.899 0 2.989-1.605 2.989-4.412 0-2.801-1.108-4.441-2.989-4.441-1.892 0-3 1.634-3 4.424 0 2.812 1.096 4.429 3 4.429Zm0-.92c-1.248 0-1.939-1.248-1.939-3.509 0-2.233.703-3.499 1.94-3.499 1.236 0 1.927 1.254 1.927 3.499 0 2.267-.68 3.509-1.928 3.509Zm5.989-3.908c1.142 0 1.834-.744 1.834-1.992 0-1.231-.698-1.986-1.834-1.986-1.137 0-1.84.755-1.84 1.986 0 1.242.691 1.992 1.84 1.992Zm.38 4.629 5.842-8.455h-.955L90.063 310h.955Zm-.38-5.396c-.592 0-.932-.446-.932-1.219 0-.768.34-1.219.932-1.219.586 0 .925.451.925 1.219 0 .767-.334 1.219-.925 1.219Zm5.654 5.478c1.143 0 1.834-.744 1.834-1.992 0-1.231-.697-1.986-1.834-1.986s-1.84.755-1.84 1.986c0 1.242.697 1.992 1.84 1.992Zm0-.768c-.592 0-.926-.445-.926-1.218 0-.768.334-1.219.926-1.219.592 0 .926.451.926 1.219 0 .767-.334 1.218-.926 1.218ZM78.227 338h1.054v-8.455h-1.049l-2.25 1.617v1.113l2.15-1.558h.095V338Zm6.421.199c1.899 0 2.989-1.605 2.989-4.412 0-2.801-1.108-4.441-2.989-4.441-1.892 0-3 1.634-3 4.424 0 2.812 1.096 4.429 3 4.429Zm0-.92c-1.248 0-1.939-1.248-1.939-3.509 0-2.233.703-3.499 1.94-3.499 1.236 0 1.927 1.254 1.927 3.499 0 2.267-.68 3.509-1.928 3.509Zm5.989-3.908c1.142 0 1.834-.744 1.834-1.992 0-1.231-.698-1.986-1.834-1.986-1.137 0-1.84.755-1.84 1.986 0 1.242.691 1.992 1.84 1.992Zm.38 4.629 5.842-8.455h-.955L90.063 338h.955Zm-.38-5.396c-.592 0-.932-.446-.932-1.219 0-.768.34-1.219.932-1.219.586 0 .925.451.925 1.219 0 .767-.334 1.219-.925 1.219Zm5.654 5.478c1.143 0 1.834-.744 1.834-1.992 0-1.231-.697-1.986-1.834-1.986s-1.84.755-1.84 1.986c0 1.242.697 1.992 1.84 1.992Zm0-.768c-.592 0-.926-.445-.926-1.218 0-.768.334-1.219.926-1.219.592 0 .926.451.926 1.219 0 .767-.334 1.218-.926 1.218Zm-11.643 28.885c1.899 0 2.989-1.605 2.989-4.412 0-2.801-1.108-4.441-2.989-4.441-1.892 0-3 1.634-3 4.424 0 2.812 1.096 4.429 3 4.429Zm0-.92c-1.248 0-1.939-1.248-1.939-3.509 0-2.233.703-3.499 1.94-3.499 1.236 0 1.927 1.254 1.927 3.499 0 2.267-.68 3.509-1.928 3.509Zm5.989-3.908c1.142 0 1.834-.744 1.834-1.992 0-1.231-.698-1.986-1.834-1.986-1.137 0-1.84.755-1.84 1.986 0 1.242.691 1.992 1.84 1.992Zm.38 4.629 5.842-8.455h-.955L90.063 366h.955Zm-.38-5.396c-.592 0-.932-.446-.932-1.219 0-.768.34-1.219.932-1.219.586 0 .925.451.925 1.219 0 .767-.334 1.219-.925 1.219Zm5.654 5.478c1.143 0 1.834-.744 1.834-1.992 0-1.231-.697-1.986-1.834-1.986s-1.84.755-1.84 1.986c0 1.242.697 1.992 1.84 1.992Zm0-.768c-.592 0-.926-.445-.926-1.218 0-.768.334-1.219.926-1.219.592 0 .926.451.926 1.219 0 .767-.334 1.218-.926 1.218Z"/><path fill="#000" d="M75.382 53h2.235l-3.425-9.864h-2.426L68.34 53h2.071l.759-2.393h3.466L75.382 53Zm-2.53-7.861h.124l1.223 3.923h-2.584l1.238-3.923Zm9.16 10.712c2.277 0 3.72-1.108 3.72-2.865v-7.512h-1.928v1.203h-.123c-.404-.82-1.272-1.326-2.29-1.326-1.914 0-3.09 1.49-3.09 3.82 0 2.257 1.169 3.72 3.049 3.72 1.06 0 1.852-.431 2.27-1.224h.122v1.401c0 .869-.622 1.374-1.688 1.374-.862 0-1.422-.3-1.525-.779h-1.968c.123 1.32 1.449 2.188 3.452 2.188Zm.028-4.485c-1.08 0-1.695-.847-1.695-2.201 0-1.353.622-2.201 1.695-2.201s1.723.848 1.723 2.201c0 1.354-.643 2.201-1.723 2.201Zm10.562-.492c-.212.513-.752.8-1.538.8-1.04 0-1.696-.718-1.723-1.866v-.103h5.175v-.595c0-2.379-1.313-3.8-3.535-3.8-2.242 0-3.623 1.517-3.623 3.964 0 2.434 1.354 3.883 3.65 3.883 1.847 0 3.152-.882 3.446-2.283h-1.852Zm-1.614-4.081c.93 0 1.531.642 1.573 1.675h-3.213c.068-1.012.717-1.675 1.64-1.675Z"/><rect width="32" height="166" x="114.5" y="200" fill="#009990" rx="6"/><rect width="32" height="240" x="198.5" y="126" fill="#009990" rx="6"/><rect width="31" height="142" x="281.5" y="224" fill="#009990" rx="6"/><rect width="32" height="75" x="364.5" y="291" fill="#009990" rx="6"/><rect width="32" height="60" x="448.5" y="306" fill="#009990" rx="6"/><rect width="31" height="121" x="531.5" y="245" fill="#009990" rx="6"/><rect width="32" height="28" x="614.5" y="338" fill="#009990" rx="6"/><rect width="32" height="187" x="150.5" y="179" fill="#D86800" rx="6"/><rect width="31" height="251" x="234.5" y="115" fill="#D86800" rx="6"/><rect width="32" height="203" x="316.5" y="163" fill="#D86800" rx="6"/><rect width="32" height="80" x="400.5" y="286" fill="#D86800" rx="6"/><rect width="31" height="80" x="484.5" y="286" fill="#D86800" rx="6"/><rect width="32" height="19" x="650.5" y="347" fill="#D86800" rx="6"/><rect width="32" height="103" x="566.5" y="263" fill="#D86800" rx="6"/><path fill="#111" d="M121.67 192.199c1.728 0 2.906-1.195 2.906-2.935 0-1.676-1.172-2.789-2.59-2.789-.843 0-1.47.257-1.881.767h-.093l.263-2.754h3.868v-.943h-4.694l-.486 4.834h.99c.334-.627.967-.996 1.77-.996 1.066 0 1.798.767 1.798 1.91 0 1.184-.732 1.98-1.839 1.98-.996 0-1.723-.603-1.817-1.505h-1.037c.094 1.447 1.242 2.431 2.842 2.431Zm7.506 0c1.793 0 3.047-1.013 3.047-2.461 0-1.101-.698-1.957-1.758-2.156v-.094c.873-.24 1.412-.961 1.412-1.886 0-1.319-1.119-2.256-2.701-2.256s-2.701.937-2.701 2.256c0 .919.55 1.652 1.412 1.886v.094c-1.061.199-1.758 1.055-1.758 2.156 0 1.448 1.254 2.461 3.047 2.461Zm0-5.062c-.996 0-1.664-.575-1.664-1.436 0-.873.662-1.453 1.664-1.453 1.002 0 1.664.58 1.664 1.453 0 .861-.668 1.436-1.664 1.436Zm0 4.16c-1.172 0-1.981-.668-1.981-1.635s.809-1.635 1.981-1.635c1.172 0 1.98.668 1.98 1.635s-.808 1.635-1.98 1.635Zm6.047-3.926c1.142 0 1.834-.744 1.834-1.992 0-1.231-.698-1.986-1.834-1.986-1.137 0-1.84.755-1.84 1.986 0 1.242.691 1.992 1.84 1.992Zm.381 4.629 5.841-8.455h-.955L134.648 192h.956Zm-.381-5.396c-.592 0-.932-.446-.932-1.219 0-.768.34-1.219.932-1.219.586 0 .925.451.925 1.219 0 .767-.334 1.219-.925 1.219Zm5.654 5.478c1.143 0 1.834-.744 1.834-1.992 0-1.231-.697-1.986-1.834-1.986s-1.84.755-1.84 1.986c0 1.242.697 1.992 1.84 1.992Zm0-.768c-.592 0-.926-.445-.926-1.218 0-.768.334-1.219.926-1.219.592 0 .926.451.926 1.219 0 .767-.334 1.218-.926 1.218ZM157.74 171.193c1.735 0 2.965-1.213 2.965-2.912 0-1.64-1.166-2.83-2.777-2.83-1.008 0-1.834.481-2.25 1.301h-.094c.035-2.297.855-3.469 2.262-3.469.855 0 1.476.44 1.652 1.225h1.084c-.217-1.313-1.23-2.162-2.771-2.162-1.999 0-3.252 1.664-3.252 4.57 0 2.848 1.341 4.277 3.181 4.277Zm-.011-.925c-1.084 0-1.911-.856-1.911-1.987 0-1.119.803-1.916 1.922-1.916 1.119 0 1.899.797 1.899 1.951 0 1.108-.827 1.952-1.91 1.952Zm7.664.925c1.734 0 2.964-1.213 2.964-2.912 0-1.64-1.166-2.83-2.777-2.83-1.008 0-1.834.481-2.25 1.301h-.094c.035-2.297.856-3.469 2.262-3.469.856 0 1.477.44 1.652 1.225h1.084c-.216-1.313-1.23-2.162-2.771-2.162-1.998 0-3.252 1.664-3.252 4.57 0 2.848 1.342 4.277 3.182 4.277Zm-.012-.925c-1.084 0-1.91-.856-1.91-1.987 0-1.119.802-1.916 1.922-1.916 1.119 0 1.898.797 1.898 1.951 0 1.108-.826 1.952-1.91 1.952Zm5.947-3.897c1.143 0 1.834-.744 1.834-1.992 0-1.231-.697-1.986-1.834-1.986s-1.84.755-1.84 1.986c0 1.242.692 1.992 1.84 1.992Zm.381 4.629 5.842-8.455h-.955L170.754 171h.955Zm-.381-5.396c-.592 0-.932-.446-.932-1.219 0-.768.34-1.219.932-1.219.586 0 .926.451.926 1.219 0 .767-.334 1.219-.926 1.219Zm5.654 5.478c1.143 0 1.834-.744 1.834-1.992 0-1.231-.697-1.986-1.834-1.986-1.136 0-1.839.755-1.839 1.986 0 1.242.697 1.992 1.839 1.992Zm0-.768c-.591 0-.925-.445-.925-1.218 0-.768.334-1.219.925-1.219.592 0 .926.451.926 1.219 0 .767-.334 1.218-.926 1.218ZM241.635 107.199c1.793 0 3.047-1.013 3.047-2.461 0-1.101-.698-1.957-1.758-2.156v-.094c.873-.24 1.412-.961 1.412-1.886 0-1.319-1.119-2.256-2.701-2.256s-2.701.937-2.701 2.256c0 .919.55 1.652 1.412 1.886v.094c-1.061.199-1.758 1.055-1.758 2.156 0 1.448 1.254 2.461 3.047 2.461Zm0-5.062c-.996 0-1.664-.575-1.664-1.436 0-.873.662-1.453 1.664-1.453 1.002 0 1.664.58 1.664 1.453 0 .861-.668 1.436-1.664 1.436Zm0 4.16c-1.172 0-1.981-.668-1.981-1.635s.809-1.635 1.981-1.635c1.172 0 1.98.668 1.98 1.635s-.808 1.635-1.98 1.635Zm7.763.896c1.735 0 2.965-1.213 2.965-2.912 0-1.64-1.166-2.83-2.777-2.83-1.008 0-1.834.481-2.25 1.301h-.094c.035-2.297.856-3.469 2.262-3.469.855 0 1.476.44 1.652 1.225h1.084c-.217-1.313-1.23-2.162-2.771-2.162-1.998 0-3.252 1.664-3.252 4.57 0 2.848 1.342 4.277 3.181 4.277Zm-.011-.925c-1.084 0-1.91-.856-1.91-1.987 0-1.119.802-1.916 1.921-1.916 1.12 0 1.899.797 1.899 1.951 0 1.108-.826 1.952-1.91 1.952Zm5.947-3.897c1.143 0 1.834-.744 1.834-1.992 0-1.23-.697-1.986-1.834-1.986s-1.84.755-1.84 1.986c0 1.242.692 1.992 1.84 1.992Zm.381 4.629 5.842-8.455h-.955L254.76 107h.955Zm-.381-5.396c-.592 0-.932-.446-.932-1.219 0-.768.34-1.219.932-1.219.586 0 .926.451.926 1.219 0 .767-.334 1.219-.926 1.219Zm5.654 5.478c1.143 0 1.834-.744 1.834-1.992 0-1.231-.697-1.986-1.834-1.986-1.136 0-1.84.755-1.84 1.986 0 1.242.698 1.992 1.84 1.992Zm0-.768c-.592 0-.926-.445-.926-1.218 0-.768.334-1.219.926-1.219.592 0 .926.451.926 1.219 0 .767-.334 1.218-.926 1.218ZM369.01 276.93h1.019c0-1.002.674-1.664 1.688-1.664.996 0 1.599.668 1.599 1.564 0 .744-.316 1.184-1.394 2.35l-2.86 3.093V283h5.473v-.949h-4.008v-.094l1.922-1.986c1.524-1.576 1.946-2.28 1.946-3.252 0-1.371-1.131-2.373-2.608-2.373-1.617 0-2.777 1.078-2.777 2.584Zm10.119 6.269c1.728 0 2.906-1.195 2.906-2.935 0-1.676-1.172-2.789-2.59-2.789-.843 0-1.47.257-1.881.767h-.093l.263-2.754h3.868v-.943h-4.694l-.486 4.834h.99c.334-.627.967-.996 1.77-.996 1.066 0 1.798.767 1.798 1.91 0 1.184-.732 1.98-1.839 1.98-.996 0-1.723-.603-1.817-1.505h-1.037c.094 1.447 1.242 2.431 2.842 2.431Zm5.889-4.828c1.142 0 1.834-.744 1.834-1.992 0-1.231-.698-1.986-1.834-1.986-1.137 0-1.84.755-1.84 1.986 0 1.242.691 1.992 1.84 1.992Zm.38 4.629 5.842-8.455h-.955L384.443 283h.955Zm-.38-5.396c-.592 0-.932-.446-.932-1.219 0-.768.34-1.219.932-1.219.586 0 .925.451.925 1.219 0 .767-.334 1.219-.925 1.219Zm5.654 5.478c1.142 0 1.834-.744 1.834-1.992 0-1.231-.697-1.986-1.834-1.986s-1.84.755-1.84 1.986c0 1.242.697 1.992 1.84 1.992Zm0-.768c-.592 0-.926-.445-.926-1.218 0-.768.334-1.219.926-1.219.592 0 .926.451.926 1.219 0 .767-.334 1.218-.926 1.218ZM404.893 271.93h1.019c0-1.002.674-1.664 1.688-1.664.996 0 1.599.668 1.599 1.564 0 .744-.316 1.184-1.394 2.35l-2.86 3.093V278h5.473v-.949h-4.008v-.094l1.922-1.986c1.523-1.576 1.945-2.28 1.945-3.252 0-1.371-1.131-2.373-2.607-2.373-1.617 0-2.777 1.078-2.777 2.584Zm10.195 6.269c1.793 0 3.047-1.013 3.047-2.461 0-1.101-.697-1.957-1.758-2.156v-.094c.873-.24 1.412-.961 1.412-1.886 0-1.319-1.119-2.256-2.701-2.256s-2.701.937-2.701 2.256c0 .919.551 1.652 1.412 1.886v.094c-1.061.199-1.758 1.055-1.758 2.156 0 1.448 1.254 2.461 3.047 2.461Zm0-5.062c-.996 0-1.664-.575-1.664-1.436 0-.873.662-1.453 1.664-1.453 1.002 0 1.664.58 1.664 1.453 0 .861-.668 1.436-1.664 1.436Zm0 4.16c-1.172 0-1.981-.668-1.981-1.635s.809-1.635 1.981-1.635c1.172 0 1.98.668 1.98 1.635s-.808 1.635-1.98 1.635Zm6.047-3.926c1.142 0 1.834-.744 1.834-1.992 0-1.231-.698-1.986-1.834-1.986-1.137 0-1.84.755-1.84 1.986 0 1.242.691 1.992 1.84 1.992Zm.381 4.629 5.841-8.455h-.955L420.561 278h.955Zm-.381-5.396c-.592 0-.932-.446-.932-1.219 0-.768.34-1.219.932-1.219.586 0 .926.451.926 1.219 0 .767-.334 1.219-.926 1.219Zm5.654 5.478c1.143 0 1.834-.744 1.834-1.992 0-1.231-.697-1.986-1.834-1.986s-1.84.755-1.84 1.986c0 1.242.697 1.992 1.84 1.992Zm0-.768c-.592 0-.926-.445-.926-1.218 0-.768.334-1.219.926-1.219.592 0 .926.451.926 1.219 0 .767-.334 1.218-.926 1.218ZM453.098 291.93h1.019c0-1.002.674-1.664 1.688-1.664.996 0 1.599.668 1.599 1.564 0 .744-.316 1.184-1.394 2.35l-2.86 3.093V298h5.473v-.949h-4.008v-.094l1.922-1.986c1.524-1.576 1.945-2.28 1.945-3.252 0-1.371-1.13-2.373-2.607-2.373-1.617 0-2.777 1.078-2.777 2.584Zm7.254 0h1.019c0-1.002.674-1.664 1.688-1.664.996 0 1.599.668 1.599 1.564 0 .744-.316 1.184-1.394 2.35l-2.86 3.093V298h5.473v-.949h-4.008v-.094l1.922-1.986c1.523-1.576 1.945-2.28 1.945-3.252 0-1.371-1.131-2.373-2.607-2.373-1.617 0-2.777 1.078-2.777 2.584Zm8.578 1.441c1.142 0 1.834-.744 1.834-1.992 0-1.231-.698-1.986-1.834-1.986-1.137 0-1.84.755-1.84 1.986 0 1.242.691 1.992 1.84 1.992Zm.381 4.629 5.841-8.455h-.955L468.355 298h.956Zm-.381-5.396c-.592 0-.932-.446-.932-1.219 0-.768.34-1.219.932-1.219.586 0 .925.451.925 1.219 0 .767-.334 1.219-.925 1.219Zm5.654 5.478c1.143 0 1.834-.744 1.834-1.992 0-1.231-.697-1.986-1.834-1.986s-1.84.755-1.84 1.986c0 1.242.697 1.992 1.84 1.992Zm0-.768c-.592 0-.926-.445-.926-1.218 0-.768.334-1.219.926-1.219.592 0 .926.451.926 1.219 0 .767-.334 1.218-.926 1.218ZM487.893 271.93h1.019c0-1.002.674-1.664 1.688-1.664.996 0 1.599.668 1.599 1.564 0 .744-.316 1.184-1.394 2.35l-2.86 3.093V278h5.473v-.949h-4.008v-.094l1.922-1.986c1.523-1.576 1.945-2.28 1.945-3.252 0-1.371-1.131-2.373-2.607-2.373-1.617 0-2.777 1.078-2.777 2.584Zm10.195 6.269c1.793 0 3.047-1.013 3.047-2.461 0-1.101-.697-1.957-1.758-2.156v-.094c.873-.24 1.412-.961 1.412-1.886 0-1.319-1.119-2.256-2.701-2.256s-2.701.937-2.701 2.256c0 .919.551 1.652 1.412 1.886v.094c-1.061.199-1.758 1.055-1.758 2.156 0 1.448 1.254 2.461 3.047 2.461Zm0-5.062c-.996 0-1.664-.575-1.664-1.436 0-.873.662-1.453 1.664-1.453 1.002 0 1.664.58 1.664 1.453 0 .861-.668 1.436-1.664 1.436Zm0 4.16c-1.172 0-1.981-.668-1.981-1.635s.809-1.635 1.981-1.635c1.172 0 1.98.668 1.98 1.635s-.808 1.635-1.98 1.635Zm6.047-3.926c1.142 0 1.834-.744 1.834-1.992 0-1.231-.698-1.986-1.834-1.986-1.137 0-1.84.755-1.84 1.986 0 1.242.691 1.992 1.84 1.992Zm.381 4.629 5.841-8.455h-.955L503.561 278h.955Zm-.381-5.396c-.592 0-.932-.446-.932-1.219 0-.768.34-1.219.932-1.219.586 0 .926.451.926 1.219 0 .767-.334 1.219-.926 1.219Zm5.654 5.478c1.143 0 1.834-.744 1.834-1.992 0-1.231-.697-1.986-1.834-1.986s-1.84.755-1.84 1.986c0 1.242.697 1.992 1.84 1.992Zm0-.768c-.592 0-.926-.445-.926-1.218 0-.768.334-1.219.926-1.219.592 0 .926.451.926 1.219 0 .767-.334 1.218-.926 1.218ZM539.643 237h1.031v-1.752h1.201v-.943h-1.201v-5.76h-1.529a132.705 132.705 0 0 0-3.622 5.742v.961h4.12V237Zm-3.041-2.76a107.036 107.036 0 0 1 2.976-4.717h.07v4.788h-3.046v-.071Zm8.677-1.136h1.049c1.19 0 1.922.609 1.922 1.587 0 .95-.791 1.588-1.904 1.588-1.09 0-1.852-.568-1.946-1.459h-1.019c.076 1.436 1.26 2.379 2.976 2.379 1.682 0 2.977-1.06 2.977-2.478 0-1.178-.727-1.922-1.822-2.098v-.094c.867-.252 1.5-.925 1.506-1.945.005-1.184-.956-2.238-2.625-2.238-1.711 0-2.76 1.013-2.866 2.39h1.026c.088-.949.75-1.47 1.769-1.47 1.02 0 1.623.644 1.623 1.435 0 .879-.691 1.5-1.664 1.5h-1.002v.903Zm7.02-.733c1.142 0 1.834-.744 1.834-1.992 0-1.231-.697-1.986-1.834-1.986s-1.84.755-1.84 1.986c0 1.242.691 1.992 1.84 1.992Zm.381 4.629 5.841-8.455h-.955L551.725 237h.955Zm-.381-5.396c-.592 0-.932-.446-.932-1.219 0-.768.34-1.219.932-1.219.586 0 .926.451.926 1.219 0 .767-.334 1.219-.926 1.219Zm5.654 5.478c1.143 0 1.834-.744 1.834-1.992 0-1.231-.697-1.986-1.834-1.986s-1.84.755-1.84 1.986c0 1.242.698 1.992 1.84 1.992Zm0-.768c-.592 0-.926-.445-.926-1.218 0-.768.334-1.219.926-1.219.592 0 .926.451.926 1.219 0 .767-.334 1.218-.926 1.218ZM572.592 251.104h1.049c1.189 0 1.921.609 1.921 1.587 0 .95-.791 1.588-1.904 1.588-1.09 0-1.851-.568-1.945-1.459h-1.02c.077 1.436 1.26 2.379 2.977 2.379 1.682 0 2.976-1.06 2.976-2.478 0-1.178-.726-1.922-1.822-2.098v-.094c.867-.252 1.5-.925 1.506-1.945.006-1.184-.955-2.238-2.625-2.238-1.711 0-2.76 1.013-2.865 2.39h1.025c.088-.949.75-1.47 1.77-1.47 1.019 0 1.623.644 1.623 1.435 0 .879-.692 1.5-1.664 1.5h-1.002v.903Zm8.736 4.089c1.734 0 2.965-1.213 2.965-2.912 0-1.64-1.166-2.83-2.777-2.83-1.008 0-1.834.481-2.25 1.301h-.094c.035-2.297.855-3.469 2.262-3.469.855 0 1.476.44 1.652 1.225h1.084c-.217-1.313-1.231-2.162-2.772-2.162-1.998 0-3.252 1.664-3.252 4.57 0 2.848 1.342 4.277 3.182 4.277Zm-.012-.925c-1.084 0-1.91-.856-1.91-1.987 0-1.119.803-1.916 1.922-1.916 1.119 0 1.899.797 1.899 1.951 0 1.108-.827 1.952-1.911 1.952Zm5.948-3.897c1.142 0 1.834-.744 1.834-1.992 0-1.231-.698-1.986-1.834-1.986-1.137 0-1.84.755-1.84 1.986 0 1.242.691 1.992 1.84 1.992Zm.381 4.629 5.841-8.455h-.955L586.689 255h.956Zm-.381-5.396c-.592 0-.932-.446-.932-1.219 0-.768.34-1.219.932-1.219.586 0 .925.451.925 1.219 0 .767-.334 1.219-.925 1.219Zm5.654 5.478c1.143 0 1.834-.744 1.834-1.992 0-1.231-.697-1.986-1.834-1.986s-1.84.755-1.84 1.986c0 1.242.697 1.992 1.84 1.992Zm0-.768c-.592 0-.926-.445-.926-1.218 0-.768.334-1.219.926-1.219.592 0 .926.451.926 1.219 0 .767-.334 1.218-.926 1.218ZM625.279 330.193c2.069 0 3.252-1.664 3.252-4.57 0-2.877-1.359-4.277-3.181-4.277-1.735 0-2.965 1.213-2.965 2.912 0 1.64 1.166 2.83 2.777 2.83 1.008 0 1.834-.481 2.25-1.301h.094c-.059 2.25-.838 3.469-2.215 3.469-.832 0-1.477-.463-1.699-1.225h-1.084c.263 1.33 1.336 2.162 2.771 2.162Zm.071-4.019c-1.12 0-1.899-.797-1.899-1.951 0-1.108.826-1.952 1.91-1.952s1.91.856 1.91 1.987c0 1.119-.802 1.916-1.921 1.916Zm6.152-.803c1.143 0 1.834-.744 1.834-1.992 0-1.231-.697-1.986-1.834-1.986s-1.84.755-1.84 1.986c0 1.242.692 1.992 1.84 1.992Zm.381 4.629 5.842-8.455h-.955L630.928 330h.955Zm-.381-5.396c-.592 0-.932-.446-.932-1.219 0-.768.34-1.219.932-1.219.586 0 .926.451.926 1.219 0 .767-.334 1.219-.926 1.219Zm5.654 5.478c1.143 0 1.834-.744 1.834-1.992 0-1.231-.697-1.986-1.834-1.986-1.136 0-1.84.755-1.84 1.986 0 1.242.698 1.992 1.84 1.992Zm0-.768c-.592 0-.926-.445-.926-1.218 0-.768.334-1.219.926-1.219.592 0 .926.451.926 1.219 0 .767-.334 1.218-.926 1.218ZM661.502 339.199c1.728 0 2.906-1.195 2.906-2.935 0-1.676-1.172-2.789-2.59-2.789-.843 0-1.47.257-1.88.767h-.094l.263-2.754h3.868v-.943h-4.694l-.486 4.834h.99c.334-.627.967-.996 1.77-.996 1.066 0 1.799.767 1.799 1.91 0 1.184-.733 1.98-1.84 1.98-.996 0-1.723-.603-1.817-1.505h-1.037c.094 1.447 1.242 2.431 2.842 2.431Zm5.889-4.828c1.142 0 1.834-.744 1.834-1.992 0-1.231-.698-1.986-1.834-1.986-1.137 0-1.84.755-1.84 1.986 0 1.242.691 1.992 1.84 1.992Zm.38 4.629 5.842-8.455h-.955L666.816 339h.955Zm-.38-5.396c-.592 0-.932-.446-.932-1.219 0-.768.34-1.219.932-1.219.586 0 .925.451.925 1.219 0 .767-.334 1.219-.925 1.219Zm5.654 5.478c1.143 0 1.834-.744 1.834-1.992 0-1.231-.697-1.986-1.834-1.986s-1.84.755-1.84 1.986c0 1.242.697 1.992 1.84 1.992Zm0-.768c-.592 0-.926-.445-.926-1.218 0-.768.334-1.219.926-1.219.592 0 .926.451.926 1.219 0 .767-.334 1.218-.926 1.218Z"/><path fill="#111" d="M241.635 107.199c1.793 0 3.047-1.013 3.047-2.461 0-1.101-.698-1.957-1.758-2.156v-.094c.873-.24 1.412-.961 1.412-1.886 0-1.319-1.119-2.256-2.701-2.256s-2.701.937-2.701 2.256c0 .919.55 1.652 1.412 1.886v.094c-1.061.199-1.758 1.055-1.758 2.156 0 1.448 1.254 2.461 3.047 2.461Zm0-5.062c-.996 0-1.664-.575-1.664-1.436 0-.873.662-1.453 1.664-1.453 1.002 0 1.664.58 1.664 1.453 0 .861-.668 1.436-1.664 1.436Zm0 4.16c-1.172 0-1.981-.668-1.981-1.635s.809-1.635 1.981-1.635c1.172 0 1.98.668 1.98 1.635s-.808 1.635-1.98 1.635Zm7.763.896c1.735 0 2.965-1.213 2.965-2.912 0-1.64-1.166-2.83-2.777-2.83-1.008 0-1.834.481-2.25 1.301h-.094c.035-2.297.856-3.469 2.262-3.469.855 0 1.476.44 1.652 1.225h1.084c-.217-1.313-1.23-2.162-2.771-2.162-1.998 0-3.252 1.664-3.252 4.57 0 2.848 1.342 4.277 3.181 4.277Zm-.011-.925c-1.084 0-1.91-.856-1.91-1.987 0-1.119.802-1.916 1.921-1.916 1.12 0 1.899.797 1.899 1.951 0 1.108-.826 1.952-1.91 1.952Zm5.947-3.897c1.143 0 1.834-.744 1.834-1.992 0-1.23-.697-1.986-1.834-1.986s-1.84.755-1.84 1.986c0 1.242.692 1.992 1.84 1.992Zm.381 4.629 5.842-8.455h-.955L254.76 107h.955Zm-.381-5.396c-.592 0-.932-.446-.932-1.219 0-.768.34-1.219.932-1.219.586 0 .926.451.926 1.219 0 .767-.334 1.219-.926 1.219Zm5.654 5.478c1.143 0 1.834-.744 1.834-1.992 0-1.231-.697-1.986-1.834-1.986-1.136 0-1.84.755-1.84 1.986 0 1.242.698 1.992 1.84 1.992Zm0-.768c-.592 0-.926-.445-.926-1.218 0-.768.334-1.219.926-1.219.592 0 .926.451.926 1.219 0 .767-.334 1.218-.926 1.218ZM321.643 155h1.107l3.762-7.477v-.978h-5.596v.943h4.523v.082l-3.796 7.43Zm9.158.199c1.898 0 2.988-1.605 2.988-4.412 0-2.801-1.107-4.441-2.988-4.441-1.893 0-3 1.634-3 4.424 0 2.812 1.095 4.429 3 4.429Zm0-.92c-1.248 0-1.94-1.248-1.94-3.509 0-2.233.703-3.499 1.94-3.499 1.236 0 1.928 1.254 1.928 3.499 0 2.267-.68 3.509-1.928 3.509Zm5.988-3.908c1.143 0 1.834-.744 1.834-1.992 0-1.231-.697-1.986-1.834-1.986s-1.84.755-1.84 1.986c0 1.242.692 1.992 1.84 1.992Zm.381 4.629 5.842-8.455h-.955L336.215 155h.955Zm-.381-5.396c-.592 0-.932-.446-.932-1.219 0-.768.34-1.219.932-1.219.586 0 .926.451.926 1.219 0 .767-.334 1.219-.926 1.219Zm5.654 5.478c1.143 0 1.834-.744 1.834-1.992 0-1.231-.697-1.986-1.834-1.986-1.136 0-1.839.755-1.839 1.986 0 1.242.697 1.992 1.839 1.992Zm0-.768c-.591 0-.925-.445-.925-1.218 0-.768.334-1.219.925-1.219.592 0 .926.451.926 1.219 0 .767-.334 1.218-.926 1.218ZM289.572 216h1.032v-1.752h1.201v-.943h-1.201v-5.76h-1.53a133.676 133.676 0 0 0-3.621 5.742v.961h4.119V216Zm-3.041-2.76c.92-1.552 2.028-3.299 2.977-4.717h.07v4.788h-3.047v-.071Zm9.791 2.959c1.793 0 3.047-1.013 3.047-2.461 0-1.101-.697-1.957-1.758-2.156v-.094c.873-.24 1.412-.961 1.412-1.886 0-1.319-1.119-2.256-2.701-2.256s-2.701.937-2.701 2.256c0 .919.551 1.652 1.412 1.886v.094c-1.06.199-1.758 1.055-1.758 2.156 0 1.448 1.254 2.461 3.047 2.461Zm0-5.062c-.996 0-1.664-.575-1.664-1.436 0-.873.662-1.453 1.664-1.453 1.002 0 1.664.58 1.664 1.453 0 .861-.668 1.436-1.664 1.436Zm0 4.16c-1.172 0-1.98-.668-1.98-1.635s.808-1.635 1.98-1.635 1.981.668 1.981 1.635-.809 1.635-1.981 1.635Zm6.047-3.926c1.143 0 1.834-.744 1.834-1.992 0-1.231-.697-1.986-1.834-1.986s-1.84.755-1.84 1.986c0 1.242.692 1.992 1.84 1.992Zm.381 4.629 5.842-8.455h-.955L301.795 216h.955Zm-.381-5.396c-.592 0-.931-.446-.931-1.219 0-.768.339-1.219.931-1.219.586 0 .926.451.926 1.219 0 .767-.334 1.219-.926 1.219Zm5.654 5.478c1.143 0 1.834-.744 1.834-1.992 0-1.231-.697-1.986-1.834-1.986-1.136 0-1.839.755-1.839 1.986 0 1.242.697 1.992 1.839 1.992Zm0-.768c-.591 0-.925-.445-.925-1.218 0-.768.334-1.219.925-1.219.592 0 .926.451.926 1.219 0 .767-.334 1.218-.926 1.218ZM205.6 118.199c1.793 0 3.046-1.013 3.046-2.461 0-1.101-.697-1.957-1.757-2.156v-.094c.873-.24 1.412-.961 1.412-1.886 0-1.319-1.119-2.256-2.701-2.256s-2.702.937-2.702 2.256c0 .919.551 1.652 1.413 1.886v.094c-1.061.199-1.758 1.055-1.758 2.156 0 1.448 1.254 2.461 3.047 2.461Zm0-5.062c-.996 0-1.664-.575-1.664-1.436 0-.873.662-1.453 1.664-1.453 1.002 0 1.664.58 1.664 1.453 0 .861-.668 1.436-1.664 1.436Zm0 4.16c-1.172 0-1.981-.668-1.981-1.635s.809-1.635 1.981-1.635c1.171 0 1.98.668 1.98 1.635s-.809 1.635-1.98 1.635Zm8.636.703h1.032v-1.752h1.201v-.943h-1.201v-5.76h-1.53a133.676 133.676 0 0 0-3.621 5.742v.961h4.119V118Zm-3.041-2.76c.92-1.552 2.028-3.299 2.977-4.717h.07v4.788h-3.047v-.071Zm8.174-1.869c1.143 0 1.834-.744 1.834-1.992 0-1.231-.697-1.986-1.834-1.986s-1.84.755-1.84 1.986c0 1.242.692 1.992 1.84 1.992Zm.381 4.629 5.842-8.455h-.955L218.795 118h.955Zm-.381-5.396c-.592 0-.931-.446-.931-1.219 0-.768.339-1.219.931-1.219.586 0 .926.451.926 1.219 0 .767-.334 1.219-.926 1.219Zm5.654 5.478c1.143 0 1.834-.744 1.834-1.992 0-1.231-.697-1.986-1.834-1.986-1.136 0-1.839.755-1.839 1.986 0 1.242.697 1.992 1.839 1.992Zm0-.768c-.591 0-.925-.445-.925-1.218 0-.768.334-1.219.925-1.219.592 0 .926.451.926 1.219 0 .767-.334 1.218-.926 1.218ZM51.225 462.287V471h1.823v-2.747h1.63c1.836 0 3.11-1.196 3.11-2.983 0-1.794-1.232-2.983-3.019-2.983h-3.544Zm1.823 1.443h1.238c1.044 0 1.648.556 1.648 1.546 0 .996-.61 1.552-1.654 1.552h-1.232v-3.098Zm9.74 5.289c-.163.496-.658.816-1.305.816-.9 0-1.485-.634-1.485-1.558v-.109h4.462v-.537c0-1.969-1.19-3.243-3.073-3.243-1.914 0-3.122 1.341-3.122 3.406 0 2.071 1.196 3.345 3.188 3.345 1.6 0 2.76-.852 2.953-2.12h-1.618Zm-1.383-3.327c.785 0 1.322.568 1.358 1.395h-2.747c.06-.809.616-1.395 1.389-1.395ZM65.372 471h1.763v-3.617c0-.912.507-1.443 1.377-1.443a1.8 1.8 0 0 1 .64.103v-1.552a1.8 1.8 0 0 0-.501-.067c-.761 0-1.31.447-1.54 1.268h-.036v-1.165h-1.703V471Zm5.012 0h1.763v-5.144h1.244v-1.299h-1.287v-.428c0-.459.254-.713.834-.713.175 0 .35.012.477.036v-1.165a5.148 5.148 0 0 0-.9-.079c-1.534 0-2.131.592-2.131 1.86v.489h-.882v1.299h.882V471Zm6.726.139c1.956 0 3.206-1.25 3.206-3.381 0-2.102-1.268-3.37-3.206-3.37s-3.206 1.274-3.206 3.37c0 2.125 1.25 3.381 3.206 3.381Zm0-1.347c-.87 0-1.419-.73-1.419-2.028 0-1.287.562-2.029 1.42-2.029.856 0 1.412.742 1.412 2.029 0 1.298-.55 2.028-1.413 2.028ZM81.228 471h1.763v-3.617c0-.912.507-1.443 1.377-1.443a1.8 1.8 0 0 1 .64.103v-1.552a1.802 1.802 0 0 0-.501-.067c-.761 0-1.31.447-1.54 1.268h-.036v-1.165h-1.703V471Zm4.505 0h1.763v-3.907c0-.724.453-1.231 1.123-1.231.652 0 1.044.41 1.044 1.105V471h1.697v-3.931c0-.718.44-1.207 1.111-1.207.682 0 1.057.41 1.057 1.159V471h1.763v-4.42c0-1.304-.851-2.174-2.12-2.174-.947 0-1.72.514-2.01 1.329h-.036c-.218-.846-.87-1.329-1.806-1.329-.881 0-1.576.514-1.847 1.293h-.037v-1.172h-1.702V471Zm12.595.103c.81 0 1.612-.405 1.975-1.093h.036v.99h1.703v-4.45c0-1.304-1.081-2.162-2.742-2.162-1.715 0-2.783.864-2.85 2.12h1.612c.085-.477.502-.803 1.16-.803.664 0 1.087.35 1.087.954v.428l-1.63.097c-1.613.097-2.519.779-2.519 1.956 0 1.166.936 1.963 2.168 1.963Zm.58-1.274c-.598 0-.996-.302-.996-.785 0-.459.374-.755 1.032-.803l1.365-.085v.471c0 .7-.634 1.202-1.401 1.202Zm4.275 1.171h1.763v-3.713c0-.84.501-1.419 1.292-1.419s1.19.483 1.19 1.328V471h1.763v-4.172c0-1.516-.809-2.422-2.246-2.422-.997 0-1.679.471-2.023 1.274h-.036v-1.153h-1.703V471Zm13.006-4.064c-.079-1.467-1.19-2.548-2.941-2.548-1.938 0-3.176 1.292-3.176 3.37 0 2.113 1.238 3.381 3.188 3.381 1.703 0 2.844-.984 2.935-2.512h-1.642c-.109.706-.568 1.129-1.274 1.129-.876 0-1.419-.724-1.419-1.998 0-1.25.543-1.987 1.413-1.987.724 0 1.177.483 1.28 1.165h1.636Zm5.144 2.083c-.163.496-.658.816-1.304.816-.899 0-1.485-.634-1.485-1.558v-.109h4.462v-.537c0-1.969-1.19-3.243-3.073-3.243-1.914 0-3.122 1.341-3.122 3.406 0 2.071 1.195 3.345 3.188 3.345 1.6 0 2.759-.852 2.953-2.12h-1.619Zm-1.382-3.327c.785 0 1.322.568 1.358 1.395h-2.747c.06-.809.616-1.395 1.389-1.395Zm9.389 5.447c1.956 0 3.206-1.25 3.206-3.381 0-2.102-1.268-3.37-3.206-3.37s-3.206 1.274-3.206 3.37c0 2.125 1.25 3.381 3.206 3.381Zm0-1.347c-.869 0-1.419-.73-1.419-2.028 0-1.287.562-2.029 1.419-2.029s1.413.742 1.413 2.029c0 1.298-.55 2.028-1.413 2.028Zm9.878-5.265h-1.841l-1.341 4.915H136l-1.346-4.915h-1.89l2.24 6.473h1.992l2.222-6.473Zm4.722 4.492c-.163.496-.658.816-1.304.816-.9 0-1.485-.634-1.485-1.558v-.109h4.462v-.537c0-1.969-1.19-3.243-3.074-3.243-1.914 0-3.121 1.341-3.121 3.406 0 2.071 1.195 3.345 3.188 3.345 1.6 0 2.759-.852 2.952-2.12h-1.618Zm-1.382-3.327c.784 0 1.322.568 1.358 1.395h-2.747c.06-.809.616-1.395 1.389-1.395Zm3.967 5.308h1.763v-3.617c0-.912.507-1.443 1.376-1.443.254 0 .496.042.64.103v-1.552a1.792 1.792 0 0 0-.501-.067c-.761 0-1.31.447-1.539 1.268h-.037v-1.165h-1.702V471Zm7.426-7.964v1.491h-.911v1.329h.911v3.399c0 1.262.592 1.769 2.114 1.769.356 0 .658-.03.839-.072v-1.299a2.738 2.738 0 0 1-.429.031c-.519 0-.76-.236-.76-.731v-3.097h1.195v-1.329h-1.195v-1.491h-1.764Zm4.831.616a.912.912 0 0 0 .918-.906.908.908 0 0 0-.918-.906.908.908 0 0 0-.918.906c0 .495.405.906.918.906Zm-.876 7.348h1.764v-6.473h-1.764V471Zm2.941 0h1.763v-3.907c0-.724.453-1.231 1.123-1.231.652 0 1.045.41 1.045 1.105V471h1.697v-3.931c0-.718.44-1.207 1.111-1.207.682 0 1.056.41 1.056 1.159V471h1.763v-4.42c0-1.304-.851-2.174-2.119-2.174-.948 0-1.721.514-2.011 1.329h-.036c-.217-.846-.869-1.329-1.805-1.329-.882 0-1.576.514-1.848 1.293h-.036v-1.172h-1.703V471Zm14.963-1.981c-.163.496-.659.816-1.305.816-.899 0-1.485-.634-1.485-1.558v-.109h4.462v-.537c0-1.969-1.189-3.243-3.073-3.243-1.914 0-3.122 1.341-3.122 3.406 0 2.071 1.196 3.345 3.188 3.345 1.6 0 2.76-.852 2.953-2.12h-1.618Zm-1.383-3.327c.785 0 1.322.568 1.358 1.395h-2.747c.06-.809.616-1.395 1.389-1.395ZM533.335 502.423c.092 1.203 1.111 1.985 2.589 1.985 1.594 0 2.604-.816 2.604-2.096 0-1.024-.58-1.584-2.024-1.947l-.73-.193c-.961-.246-1.343-.56-1.343-1.106 0-.705.614-1.169 1.541-1.169.87 0 1.459.425 1.58 1.14h.874c-.072-1.126-1.077-1.928-2.425-1.928-1.473 0-2.463.802-2.463 1.986 0 .99.546 1.56 1.806 1.879l.894.232c.961.241 1.396.618 1.396 1.212 0 .691-.691 1.198-1.628 1.198-.99 0-1.686-.464-1.792-1.193h-.879Zm9.072-3.478c-.711 0-1.334.362-1.667.961h-.077v-.869h-.793v6.946h.831v-2.521h.078c.285.55.884.874 1.628.874 1.323 0 2.188-1.068 2.188-2.696 0-1.637-.86-2.695-2.188-2.695Zm-.199 4.642c-.937 0-1.531-.753-1.531-1.947 0-1.197.594-1.946 1.536-1.946.952 0 1.522.729 1.522 1.946 0 1.218-.57 1.947-1.527 1.947Zm3.739.657h.831v-7.275h-.831v7.275Zm2.879-6.212c.319 0 .58-.261.58-.58a.58.58 0 1 0-.58.58Zm-.415 6.212h.831v-5.207h-.831v5.207Zm2.763-6.555v1.348h-.841v.695h.841v3.16c0 .995.43 1.391 1.502 1.391.164 0 .324-.02.488-.049v-.7a3.392 3.392 0 0 1-.386.019c-.541 0-.773-.26-.773-.874v-2.947h1.159v-.695h-1.159v-1.348h-.831Zm8.627 6.647c1.319 0 2.184-1.068 2.184-2.696 0-1.637-.86-2.695-2.184-2.695-.715 0-1.348.353-1.633.913h-.077v-2.889h-.831v7.275h.793v-.831h.077c.328.58.947.923 1.671.923Zm-.193-4.642c.952 0 1.517.729 1.517 1.946 0 1.218-.565 1.947-1.517 1.947-.947 0-1.536-.744-1.536-1.947 0-1.202.589-1.946 1.536-1.946Zm3.932 6.434c.923 0 1.338-.357 1.782-1.565l2.034-5.526h-.884l-1.425 4.285h-.077l-1.43-4.285h-.898l1.927 5.212-.097.309c-.217.628-.478.855-.956.855-.116 0-.247-.005-.348-.024v.71c.116.019.261.029.372.029Z"/><g clip-path="url(#a)"><path fill="#111" fill-rule="evenodd" d="m674.42 498.461-2.523 2.492-2.522-2.492a.703.703 0 0 0-.984 0 .683.683 0 0 0 0 .972l3.506 3.464 3.507-3.464a.683.683 0 0 0 0-.972.699.699 0 0 0-.984 0Z" clip-rule="evenodd"/><path fill="#111" d="M582.798 502.73c.091 1.202 1.111 1.985 2.589 1.985 1.594 0 2.603-.816 2.603-2.096 0-1.024-.579-1.585-2.023-1.947l-.73-.193c-.961-.247-1.343-.561-1.343-1.107 0-.705.614-1.169 1.541-1.169.87 0 1.459.426 1.58 1.14h.874c-.072-1.125-1.077-1.927-2.425-1.927-1.473 0-2.463.802-2.463 1.985 0 .991.545 1.561 1.806 1.88l.894.231c.961.242 1.396.619 1.396 1.213 0 .691-.691 1.198-1.628 1.198-.99 0-1.686-.464-1.792-1.193h-.879Zm8.675 1.913c1.483 0 2.401-1.025 2.401-2.696 0-1.676-.918-2.695-2.401-2.695-1.483 0-2.4 1.019-2.4 2.695 0 1.671.917 2.696 2.4 2.696Zm0-.749c-.985 0-1.541-.715-1.541-1.947 0-1.236.556-1.947 1.541-1.947.986 0 1.541.711 1.541 1.947 0 1.232-.555 1.947-1.541 1.947Zm7.918-4.551h-.831v3.082c0 .913-.503 1.459-1.421 1.459-.83 0-1.178-.435-1.178-1.372v-3.169h-.831v3.372c0 1.232.609 1.928 1.778 1.928.797 0 1.352-.329 1.613-.909h.077v.817h.793v-5.208Zm1.565 5.208h.83v-3.227c0-.734.575-1.266 1.367-1.266.165 0 .464.029.532.049v-.831a3.459 3.459 0 0 0-.416-.024c-.69 0-1.289.357-1.444.864h-.077v-.773h-.792v5.208Zm7.931-3.613c-.145-.928-.917-1.686-2.183-1.686-1.459 0-2.386 1.053-2.386 2.676 0 1.657.932 2.715 2.391 2.715 1.251 0 2.029-.706 2.178-1.662h-.84c-.155.589-.643.913-1.343.913-.928 0-1.527-.763-1.527-1.966 0-1.179.59-1.928 1.527-1.928.749 0 1.208.421 1.343.938h.84Zm4.676 2.265c-.217.459-.671.705-1.343.705-.884 0-1.458-.652-1.502-1.681v-.038h3.744v-.319c0-1.618-.855-2.618-2.261-2.618-1.43 0-2.348 1.062-2.348 2.7 0 1.647.904 2.691 2.348 2.691 1.14 0 1.952-.551 2.193-1.44h-.831Zm-1.372-3.217c.826 0 1.377.609 1.396 1.531h-2.869c.063-.922.643-1.531 1.473-1.531Z"/><rect width="111.913" height="28.442" x="572.968" y="486.204" stroke="#EFEFEF" stroke-width="1.237" rx="9.275"/></g><g clip-path="url(#b)"><path fill="#111" fill-rule="evenodd" d="m197.088 498.461-2.523 2.492-2.522-2.492a.703.703 0 0 0-.984 0 .683.683 0 0 0 0 .972l3.506 3.464 3.506-3.464a.68.68 0 0 0 0-.972.699.699 0 0 0-.983 0Z" clip-rule="evenodd"/><path fill="#111" d="M62.15 504.551v-6.971h-.869v6.971h.87Zm1.672 0h.831v-3.227c0-.734.527-1.324 1.208-1.324.657 0 1.087.397 1.087 1.015v3.536h.83v-3.348c0-.662.483-1.203 1.208-1.203.734 0 1.097.377 1.097 1.145v3.406h.83v-3.599c0-1.092-.594-1.7-1.656-1.7-.72 0-1.314.362-1.595.913h-.077c-.241-.541-.734-.913-1.44-.913-.695 0-1.217.333-1.453.913h-.078v-.822h-.792v5.208Zm11.144-5.299c-.71 0-1.333.362-1.666.961h-.078v-.87h-.792v6.947h.831v-2.522h.077c.285.551.884.875 1.628.875 1.324 0 2.189-1.068 2.189-2.696 0-1.637-.86-2.695-2.189-2.695Zm-.198 4.642c-.937 0-1.531-.754-1.531-1.947 0-1.198.594-1.947 1.536-1.947.952 0 1.522.73 1.522 1.947s-.57 1.947-1.527 1.947Zm3.69.657h.832v-3.227c0-.734.574-1.266 1.367-1.266.164 0 .463.029.53.049v-.831a3.46 3.46 0 0 0-.415-.024c-.69 0-1.29.357-1.444.864h-.077v-.773h-.792v5.208Zm7.073-1.348c-.218.459-.672.705-1.343.705-.884 0-1.46-.652-1.503-1.681v-.038h3.744v-.319c0-1.618-.855-2.618-2.26-2.618-1.43 0-2.348 1.062-2.348 2.7 0 1.647.903 2.691 2.347 2.691 1.14 0 1.952-.551 2.193-1.44h-.83Zm-1.372-3.217c.826 0 1.376.609 1.396 1.531h-2.87c.063-.922.643-1.531 1.474-1.531Zm3.453.782c0 .754.445 1.174 1.42 1.411l.894.217c.556.136.826.377.826.735 0 .478-.502.811-1.202.811-.667 0-1.082-.28-1.223-.72h-.855c.092.865.89 1.421 2.049 1.421 1.183 0 2.086-.643 2.086-1.575 0-.749-.473-1.174-1.454-1.411l-.802-.193c-.613-.15-.903-.372-.903-.729 0-.464.483-.778 1.102-.778.627 0 1.033.275 1.144.691h.822c-.112-.855-.87-1.396-1.962-1.396-1.106 0-1.942.652-1.942 1.516Zm5.082 0c0 .754.445 1.174 1.42 1.411l.894.217c.556.136.826.377.826.735 0 .478-.502.811-1.203.811-.666 0-1.082-.28-1.222-.72h-.855c.092.865.889 1.421 2.048 1.421 1.184 0 2.087-.643 2.087-1.575 0-.749-.473-1.174-1.454-1.411l-.802-.193c-.613-.15-.903-.372-.903-.729 0-.464.483-.778 1.101-.778.628 0 1.034.275 1.145.691h.821c-.11-.855-.87-1.396-1.96-1.396-1.107 0-1.943.652-1.943 1.516Zm5.734-2.429c.319 0 .58-.261.58-.58 0-.319-.261-.58-.58-.58a.581.581 0 0 0-.58.58c0 .319.261.58.58.58Zm-.415 6.212h.83v-5.208h-.83v5.208Zm4.555.092c1.483 0 2.401-1.025 2.401-2.696 0-1.676-.918-2.695-2.401-2.695-1.483 0-2.401 1.019-2.401 2.695 0 1.671.918 2.696 2.401 2.696Zm0-.749c-.986 0-1.541-.715-1.541-1.947 0-1.236.555-1.947 1.541-1.947.985 0 1.541.711 1.541 1.947 0 1.232-.556 1.947-1.541 1.947Zm3.705.657h.831v-3.082c0-.913.536-1.469 1.367-1.469s1.227.445 1.227 1.382v3.169h.83v-3.372c0-1.237-.652-1.927-1.821-1.927-.797 0-1.304.338-1.565.913h-.077v-.822h-.792v5.208Zm5.656-3.783c0 .754.445 1.174 1.42 1.411l.894.217c.556.136.826.377.826.735 0 .478-.502.811-1.203.811-.666 0-1.082-.28-1.222-.72h-.855c.092.865.889 1.421 2.048 1.421 1.184 0 2.087-.643 2.087-1.575 0-.749-.473-1.174-1.454-1.411l-.802-.193c-.613-.15-.903-.372-.903-.729 0-.464.483-.778 1.101-.778.628 0 1.034.275 1.145.691h.821c-.111-.855-.869-1.396-1.961-1.396-1.106 0-1.942.652-1.942 1.516Z"/><rect width="156.431" height="28.442" x="51.118" y="486.204" stroke="#EFEFEF" stroke-width="1.237" rx="9.275"/><path stroke="#000" stroke-width=".618" d="M51.428 525.776v176.218"/></g><path fill="#767676" fill-rule="evenodd" d="M225.055 498.533h-2.086v2.087a.58.58 0 0 1-1.16 0v-2.087h-2.086a.58.58 0 0 1 0-1.159h2.086v-2.087a.58.58 0 0 1 1.16 0v2.087h2.086a.58.58 0 1 1 0 1.159Zm-2.666-6.144a5.565 5.565 0 1 0 0 11.13 5.565 5.565 0 0 0 0-11.13Z" clip-rule="evenodd"/><path stroke="#111" stroke-width=".618" d="M685.5 702.303H51.737"/><path stroke="#EFEFEF" stroke-width=".618" d="M685.5 658.403H51.737M685.5 614.504H51.737M685.5 570.604H51.737M685.5 526.086H51.737M685.5 526.086H51.737M685.5 526.086H51.737M685.5 526.086H51.737M685.5 526.086H51.737"/><path fill="#111" d="M59.623 667.072c1.069 0 1.797-.739 1.797-1.815 0-1.036-.725-1.724-1.601-1.724-.522 0-.91.159-1.163.474h-.058l.163-1.702h2.39v-.584H58.25l-.3 2.989h.611c.207-.387.598-.616 1.095-.616.659 0 1.112.475 1.112 1.181 0 .732-.453 1.225-1.138 1.225-.616 0-1.065-.373-1.123-.931h-.641c.058.895.768 1.503 1.757 1.503Zm4.612 0c1.174 0 1.848-.992 1.848-2.728 0-1.731-.685-2.746-1.848-2.746-1.17 0-1.855 1.011-1.855 2.735 0 1.739.677 2.739 1.855 2.739Zm0-.568c-.772 0-1.2-.772-1.2-2.171 0-1.38.436-2.162 1.2-2.162s1.192.775 1.192 2.162c0 1.403-.42 2.171-1.192 2.171Zm3.637-1.754h-.058v-3.257h-.623v5.456h.623v-1.482l.374-.347 1.463 1.829h.794l-1.794-2.231 1.681-1.674h-.764l-1.696 1.706ZM84.2 712.101c0 .801.616 1.344 1.493 1.344.945 0 1.522-.583 1.522-1.579v-3.772h-.653v3.768c0 .641-.315.982-.873.982-.492 0-.826-.304-.84-.743H84.2Zm7.427-2.684h-.623v2.311c0 .685-.377 1.094-1.065 1.094-.623 0-.884-.326-.884-1.029v-2.376h-.623v2.529c0 .923.456 1.445 1.333 1.445.598 0 1.014-.246 1.21-.681h.058v.612h.594v-3.905Zm1.21 3.905h.623v-5.456h-.623v5.456Zm4.141 0h.685l2.326-4.623v-.605h-3.46v.584h2.797v.05l-2.348 4.594ZM161.487 712.101c0 .801.616 1.344 1.493 1.344.946 0 1.522-.583 1.522-1.579v-3.772h-.653v3.768c0 .641-.315.982-.873.982-.492 0-.826-.304-.84-.743h-.649Zm7.427-2.684h-.623v2.311c0 .685-.377 1.094-1.065 1.094-.623 0-.884-.326-.884-1.029v-2.376h-.623v2.529c0 .923.456 1.445 1.333 1.445.598 0 1.015-.246 1.21-.681h.058v.612h.594v-3.905Zm1.21 3.905h.623v-5.456h-.623v5.456Zm5.174 0h.652v-5.228h-.649l-1.391 1v.689l1.33-.964h.058v4.503Zm3.463 0h.652v-5.228h-.648l-1.391 1v.689l1.329-.964h.058v4.503ZM241.249 712.101c0 .801.616 1.344 1.493 1.344.945 0 1.521-.583 1.521-1.579v-3.772h-.652v3.768c0 .641-.315.982-.873.982-.493 0-.826-.304-.84-.743h-.649Zm7.427-2.684h-.623v2.311c0 .685-.377 1.094-1.065 1.094-.623 0-.884-.326-.884-1.029v-2.376h-.623v2.529c0 .923.456 1.445 1.333 1.445.598 0 1.014-.246 1.21-.681h.058v.612h.594v-3.905Zm1.21 3.905h.623v-5.456h-.623v5.456Zm5.174 0h.652v-5.228h-.649l-1.391 1v.689l1.33-.964h.058v4.503Zm3.952.123c1.069 0 1.797-.739 1.797-1.815 0-1.036-.725-1.724-1.601-1.724-.522 0-.91.159-1.163.474h-.058l.163-1.702h2.391v-.584h-2.902l-.301 2.989h.613c.206-.387.597-.616 1.094-.616.659 0 1.112.475 1.112 1.181 0 .732-.453 1.225-1.138 1.225-.616 0-1.065-.373-1.123-.931h-.641c.058.895.768 1.503 1.757 1.503ZM320.394 712.101c0 .801.615 1.344 1.492 1.344.946 0 1.522-.583 1.522-1.579v-3.772h-.652v3.768c0 .641-.315.982-.873.982-.493 0-.826-.304-.841-.743h-.648Zm7.427-2.684h-.624v2.311c0 .685-.376 1.094-1.065 1.094-.623 0-.884-.326-.884-1.029v-2.376h-.623v2.529c0 .923.457 1.445 1.333 1.445.598 0 1.015-.246 1.21-.681h.058v.612h.595v-3.905Zm1.21 3.905h.623v-5.456h-.623v5.456Zm5.173 0h.652v-5.228h-.648l-1.392 1v.689l1.33-.964h.058v4.503Zm3.884.12c1.279 0 2.01-1.029 2.01-2.826 0-1.779-.84-2.645-1.967-2.645-1.072 0-1.833.75-1.833 1.801 0 1.014.721 1.75 1.717 1.75.623 0 1.134-.297 1.392-.805h.057c-.036 1.392-.518 2.145-1.369 2.145-.514 0-.913-.286-1.051-.757h-.67c.163.822.826 1.337 1.714 1.337Zm.043-2.485c-.692 0-1.174-.493-1.174-1.207 0-.685.511-1.206 1.181-1.206.671 0 1.182.529 1.182 1.228 0 .692-.497 1.185-1.189 1.185ZM400.153 712.101c0 .801.616 1.344 1.493 1.344.946 0 1.522-.583 1.522-1.579v-3.772h-.653v3.768c0 .641-.315.982-.873.982-.492 0-.826-.304-.84-.743h-.649Zm7.427-2.684h-.623v2.311c0 .685-.377 1.094-1.065 1.094-.623 0-.884-.326-.884-1.029v-2.376h-.623v2.529c0 .923.456 1.445 1.333 1.445.598 0 1.015-.246 1.21-.681h.058v.612h.594v-3.905Zm1.21 3.905h.623v-5.456h-.623v5.456Zm3.891-3.753h.631c0-.62.416-1.029 1.043-1.029.616 0 .989.413.989.967 0 .46-.196.732-.862 1.453l-1.768 1.913v.449h3.384v-.587h-2.478v-.058l1.188-1.228c.942-.974 1.203-1.409 1.203-2.01 0-.848-.699-1.468-1.612-1.468-1 0-1.718.667-1.718 1.598Zm5.616 1.344h.648c.736 0 1.189.377 1.189.982 0 .587-.49.982-1.178.982-.674 0-1.145-.352-1.203-.902h-.63c.047.887.779 1.47 1.84 1.47 1.04 0 1.841-.655 1.841-1.532 0-.728-.449-1.188-1.127-1.297v-.058c.536-.156.928-.572.931-1.203.004-.732-.59-1.384-1.623-1.384-1.058 0-1.706.627-1.771 1.478h.634c.054-.587.463-.909 1.094-.909.63 0 1.003.399 1.003.888 0 .543-.427.927-1.029.927h-.619v.558ZM479.915 712.101c0 .801.616 1.344 1.493 1.344.945 0 1.521-.583 1.521-1.579v-3.772h-.652v3.768c0 .641-.315.982-.873.982-.493 0-.826-.304-.84-.743h-.649Zm7.427-2.684h-.623v2.311c0 .685-.377 1.094-1.065 1.094-.623 0-.884-.326-.884-1.029v-2.376h-.623v2.529c0 .923.456 1.445 1.333 1.445.598 0 1.014-.246 1.21-.681h.058v.612h.594v-3.905Zm1.21 3.905h.623v-5.456h-.623v5.456Zm3.891-3.753h.63c0-.62.417-1.029 1.044-1.029.616 0 .989.413.989.967 0 .46-.196.732-.862 1.453l-1.768 1.913v.449h3.383v-.587h-2.478v-.058l1.189-1.228c.942-.974 1.202-1.409 1.202-2.01 0-.848-.699-1.468-1.612-1.468-1 0-1.717.667-1.717 1.598Zm4.735 3.753h.685l2.326-4.623v-.605h-3.46v.584h2.797v.05l-2.348 4.594ZM559.06 712.101c0 .801.616 1.344 1.492 1.344.946 0 1.522-.583 1.522-1.579v-3.772h-.652v3.768c0 .641-.315.982-.873.982-.493 0-.826-.304-.841-.743h-.648Zm7.427-2.684h-.624v2.311c0 .685-.376 1.094-1.065 1.094-.623 0-.884-.326-.884-1.029v-2.376h-.623v2.529c0 .923.457 1.445 1.333 1.445.598 0 1.015-.246 1.21-.681h.058v.612h.595v-3.905Zm1.21 3.905h.623v-5.456h-.623v5.456Zm5.021-2.409h.648c.736 0 1.189.377 1.189.982 0 .587-.489.982-1.178.982-.674 0-1.145-.352-1.203-.902h-.63c.047.887.779 1.47 1.841 1.47 1.039 0 1.84-.655 1.84-1.532 0-.728-.449-1.188-1.127-1.297v-.058c.536-.156.928-.572.931-1.203.004-.732-.59-1.384-1.623-1.384-1.058 0-1.706.627-1.771 1.478h.634c.054-.587.463-.909 1.094-.909.63 0 1.003.399 1.003.888 0 .543-.427.927-1.029.927h-.619v.558Zm4.804 2.409h.652v-5.228h-.649l-1.391 1v.689l1.33-.964h.058v4.503ZM643.192 713.322h.685l-1.928-5.228h-.645l-1.927 5.228h.685l.525-1.496h2.08l.525 1.496Zm-1.594-4.383h.058l.818 2.333h-1.695l.819-2.333Zm6.093.478h-.623v2.311c0 .685-.376 1.094-1.065 1.094-.623 0-.884-.326-.884-1.029v-2.376h-.623v2.529c0 .923.457 1.445 1.333 1.445.598 0 1.015-.246 1.21-.681h.058v.612h.594v-3.905Zm2.783 5.405c1.065 0 1.739-.558 1.739-1.431v-3.974h-.594v.619h-.058c-.225-.42-.707-.688-1.254-.688-1.003 0-1.637.793-1.637 1.964 0 1.17.626 1.952 1.637 1.952.536 0 .978-.242 1.225-.674h.058v.768c0 .577-.417.921-1.116.921-.562 0-.91-.207-.978-.526h-.66c.094.645.696 1.069 1.638 1.069Zm-.029-2.108c-.725 0-1.13-.551-1.13-1.402 0-.852.405-1.402 1.13-1.402.721 0 1.159.55 1.159 1.402 0 .851-.435 1.402-1.159 1.402Zm5.249.608h.685l2.326-4.623v-.605h-3.46v.584h2.797v.05l-2.348 4.594ZM57.484 623.049h.685l2.326-4.623v-.605h-3.46v.583h2.797v.051l-2.348 4.594Zm5.68.123c1.07 0 1.798-.739 1.798-1.815 0-1.036-.725-1.725-1.601-1.725-.522 0-.91.16-1.163.475h-.058l.163-1.703h2.39v-.583h-2.901l-.3 2.989h.611c.207-.388.598-.616 1.094-.616.66 0 1.113.475 1.113 1.181 0 .732-.453 1.225-1.138 1.225-.616 0-1.065-.374-1.123-.931h-.641c.058.894.768 1.503 1.757 1.503Zm3.577-2.322h-.058v-3.257h-.623v5.456h.623v-1.482l.373-.348 1.464 1.83h.793l-1.793-2.232 1.68-1.674h-.764l-1.695 1.707ZM58.517 579.15h.652v-5.227h-.649l-1.39.999v.689l1.329-.964h.058v4.503Zm3.97.124c1.174 0 1.848-.993 1.848-2.728 0-1.732-.685-2.747-1.847-2.747-1.17 0-1.855 1.011-1.855 2.736 0 1.739.677 2.739 1.854 2.739Zm0-.569c-.771 0-1.199-.772-1.199-2.17 0-1.381.435-2.163 1.2-2.163.764 0 1.191.775 1.191 2.163 0 1.402-.42 2.17-1.192 2.17Zm4.674.569c1.174 0 1.848-.993 1.848-2.728 0-1.732-.685-2.747-1.848-2.747-1.17 0-1.855 1.011-1.855 2.736 0 1.739.678 2.739 1.855 2.739Zm0-.569c-.772 0-1.2-.772-1.2-2.17 0-1.381.436-2.163 1.2-2.163s1.192.775 1.192 2.163c0 1.402-.42 2.17-1.192 2.17Zm3.637-1.754h-.058v-3.257h-.623v5.456h.623v-1.481l.374-.348 1.463 1.829h.794l-1.794-2.231 1.681-1.674h-.764l-1.696 1.706ZM58.517 534.633h.652v-5.228h-.649l-1.39 1v.688l1.329-.963h.058v4.503Zm2.18-3.753h.631c0-.62.417-1.029 1.043-1.029.616 0 .99.413.99.967 0 .46-.196.732-.863 1.453l-1.768 1.913v.449h3.384v-.587h-2.478v-.058l1.188-1.228c.942-.975 1.203-1.41 1.203-2.011 0-.848-.699-1.467-1.612-1.467-1 0-1.717.666-1.717 1.598Zm6.257 3.876c1.07 0 1.797-.739 1.797-1.815 0-1.036-.724-1.725-1.6-1.725-.523 0-.91.16-1.164.475h-.058l.163-1.703h2.391v-.583h-2.902l-.3 2.989h.612c.207-.388.598-.616 1.094-.616.66 0 1.112.475 1.112 1.181 0 .732-.453 1.225-1.137 1.225-.616 0-1.065-.374-1.123-.932h-.642c.058.895.768 1.504 1.757 1.504Zm3.576-2.322h-.058v-3.257h-.623v5.456h.623v-1.482l.374-.348 1.463 1.83h.794l-1.794-2.232 1.681-1.674h-.764l-1.696 1.707Z"/><path stroke="#111" stroke-width=".618" d="M51.427 701.994V525.159"/><path stroke="#009990" stroke-linecap="round" stroke-linejoin="round" stroke-width="1.855" d="m93.162 570.149 20.633-4.804h18.996l22.926-4.289 21.288 10.122h18.996l22.271 2.573 19.978-13.895 22.926-4.89 21.616 16.212 19.651-5.833 23.253 3.946 19.651-1.544 20.961 1.544 42.249-21.873 40.939 27.448 20.961-11.236 20.961 13.467 23.253-11.752 41.267 7.205 19.323-8.92 21.616 10.121 20.306-1.201 21.943-17.584"/><circle cx="650.255" cy="575.86" r="4.328" fill="#009990" stroke="#fff" stroke-width="1.237"/><circle cx="666.95" cy="564.731" r="4.328" fill="#009990" stroke="#fff" stroke-width="1.237"/><path stroke="#009990" stroke-dasharray="2.47 4.95" stroke-linecap="round" stroke-width="1.855" d="m639.127 554.838 10.82 21.022 17.004-11.438" opacity=".4"/><path stroke="#D86800" stroke-linecap="round" stroke-linejoin="round" stroke-width="1.855" d="m93.162 640.807 20.633 1.301h18.996l22.926 1.161 21.288-2.741h18.996l22.271-.697 19.978 3.763 22.926 1.325 21.616-4.391 19.651 1.58 23.253-1.069 19.651.418 20.961-.418 42.249 5.924 40.939-7.434 20.961 3.043 20.961-3.647 23.253 3.183 41.267-1.952 19.323 2.416 21.616-2.741 20.306.325h20.088"/><circle cx="650.255" cy="649.436" r="4.328" fill="#D86800" stroke="#fff" stroke-width="1.237"/><circle cx="666.95" cy="645.108" r="4.328" fill="#D86800" stroke="#fff" stroke-width="1.237"/><path stroke="#D86800" stroke-dasharray="2.47 4.95" stroke-linecap="round" stroke-width="1.855" d="m637.58 640.162 12.675 9.275 16.695-4.638" opacity=".4"/><path stroke="#E9E9E9" d="M.5.5h735v754.322H.5z"/><defs><clipPath id="a"><path fill="#fff" d="M0 0h113.15v43.281H0z" transform="translate(572.35 485.587)"/></clipPath><clipPath id="b"><path fill="#fff" d="M0 0h157.668v43.281H0z" transform="translate(50.5 485.587)"/></clipPath></defs></svg>