<svg xmlns="http://www.w3.org/2000/svg" width="312" height="180" fill="none"><path fill="#fff" d="M40 28a8 8 0 0 1 8-8h217a8 8 0 0 1 8 8v124a8 8 0 0 1-8 8H48a8 8 0 0 1-8-8V28Z"/><path fill="#005C62" fill-rule="evenodd" d="M265 22H48a6 6 0 0 0-6 6v124a6 6 0 0 0 6 6h217a6 6 0 0 0 6-6V28a6 6 0 0 0-6-6ZM48 20a8 8 0 0 0-8 8v124a8 8 0 0 0 8 8h217a8 8 0 0 0 8-8V28a8 8 0 0 0-8-8H48Z" clip-rule="evenodd"/><path fill="#005C62" fill-rule="evenodd" d="m64.27 40.561-.99 3.397c-.083.278-.477.278-.56 0l-.99-3.397h.005a1.3 1.3 0 0 1-.047-.332 1.312 1.312 0 1 1 2.624 0 1.3 1.3 0 0 1-.047.332h.005ZM63 47.083a1.02 1.02 0 1 1 0-2.041 1.02 1.02 0 0 1 0 2.041ZM63 36a7 7 0 1 0 0 14 7 7 0 0 0 0-14Zm188.856 7 4.176-4.176a1.312 1.312 0 1 0-1.856-1.856L250 41.144l-4.177-4.176a1.31 1.31 0 1 0-1.855 1.856L248.144 43l-4.176 4.176a1.312 1.312 0 1 0 1.855 1.856L250 44.856l4.176 4.176a1.308 1.308 0 0 0 1.856 0 1.312 1.312 0 0 0 0-1.856L251.856 43Z" clip-rule="evenodd"/><rect width="195" height="28" x="59" y="120" fill="#005C62" rx="12.563"/><path fill="#fff" d="M143.401 138.848c1.39 0 2.252-.759 2.252-1.972 0-.888-.628-1.571-1.49-1.642v-.086c.668-.105 1.178-.74 1.178-1.471 0-1.065-.753-1.719-2.017-1.719h-2.847v6.89h2.924Zm-1.562-5.82h1.138c.649 0 1.024.334 1.024.897 0 .573-.402.898-1.137.898h-1.025v-1.795Zm0 4.746v-2.001h1.183c.803 0 1.241.344 1.241.989 0 .658-.425 1.012-1.21 1.012h-1.214Zm9.418-4.183h-1.313v3.037c0 .721-.352 1.165-1.006 1.165-.605 0-.916-.377-.916-1.122v-3.08h-1.313v3.424c0 1.222.667 1.943 1.741 1.943.754 0 1.219-.344 1.453-.955h.082v.845h1.272v-5.257Zm1.692-1.256v1.304h-.776v1.055h.776v2.736c0 1.022.479 1.437 1.688 1.437.253 0 .497-.028.659-.062v-1.026a3.008 3.008 0 0 1-.388.023c-.447 0-.645-.219-.645-.692v-2.416h1.033v-1.055h-1.033v-1.304h-1.314Zm3.863 0v1.304h-.776v1.055h.776v2.736c0 1.022.479 1.437 1.688 1.437.253 0 .496-.028.659-.062v-1.026a3.008 3.008 0 0 1-.388.023c-.447 0-.646-.219-.646-.692v-2.416h1.034v-1.055h-1.034v-1.304h-1.313Zm5.614 6.623c1.53 0 2.45-1.022 2.45-2.741 0-1.704-.934-2.741-2.45-2.741s-2.45 1.041-2.45 2.741c0 1.714.92 2.741 2.45 2.741Zm0-1.098c-.704 0-1.101-.602-1.101-1.643 0-1.031.402-1.638 1.101-1.638.695 0 1.101.607 1.101 1.638 0 1.041-.402 1.643-1.101 1.643Zm3.524.988h1.314v-3.041c0-.712.374-1.17.983-1.17.623 0 .916.386.916 1.127v3.084h1.314v-3.4c0-1.255-.596-1.972-1.702-1.972-.735 0-1.241.368-1.471.96h-.081v-.845h-1.273v5.257Z"/><rect width="201" height="8" x="56" y="58" fill="#009990" fill-opacity=".5" rx="4"/><rect width="154" height="8" x="56" y="74" fill="#009990" fill-opacity=".5" rx="4"/><rect width="100" height="12" x="78" y="37" fill="#009990" fill-opacity=".5" rx="6"/></svg>