<svg xmlns="http://www.w3.org/2000/svg" width="312" height="180" fill="none"><circle cx="139" cy="84" r="35" fill="#005C62"/><path fill="#CDF9CD" d="M138.789 86.144v-2.895h-9.458v3.48h4.885l-.015.427c-.094 2.848-2.232 4.762-5.323 4.762-3.714 0-6.055-3.022-6.055-7.99 0-4.872 2.232-7.862 5.868-7.862 2.622 0 4.511 1.36 5.213 3.75h4.682c-.655-4.731-4.573-7.816-9.895-7.816C122.136 72 118 76.635 118 83.976 118 91.428 122.105 96 128.8 96c6.15 0 9.989-3.797 9.989-9.856Zm14.453 9.271v-18.89H160v-3.94h-18.23v3.94h6.758v18.89h4.714Z"/><path fill="#fff" fill-rule="evenodd" d="M139 117c18.225 0 33-14.775 33-33s-14.775-33-33-33-33 14.775-33 33 14.775 33 33 33Zm0 2c19.33 0 35-15.67 35-35s-15.67-35-35-35-35 15.67-35 35 15.67 35 35 35Z" clip-rule="evenodd"/><circle cx="174" cy="96" r="35" fill="#005C62"/><path fill="#CDF9CD" d="M158 96c0-8.838 7.163-16 16-16s16 7.162 16 16c0 8.837-7.163 16-16 16s-16-7.163-16-16Zm10.256 4.344a1 1 0 0 0-1.412-.1.999.999 0 0 0-.1 1.412c1.387 1.6 3.812 3.344 7.2 3.344 3.5 0 5.919-1.744 7.312-3.344a.999.999 0 0 0-.1-1.412 1 1 0 0 0-1.412.1c-1.125 1.294-3.032 2.656-5.8 2.656-2.656 0-4.569-1.362-5.688-2.656Zm.769-9.344c-1.106 0-2 .894-2 2 0 1.106.894 2 2 2 1.1 0 2-.894 2-2 0-1.106-.9-2-2-2Zm10 4c1.1 0 2-.894 2-2 0-1.106-.9-2-2-2-1.106 0-2 .894-2 2 0 1.106.894 2 2 2Z"/><path fill="#fff" fill-rule="evenodd" d="M174 129c18.225 0 33-14.775 33-33s-14.775-33-33-33-33 14.775-33 33 14.775 33 33 33Zm0 2c19.33 0 35-15.67 35-35s-15.67-35-35-35-35 15.67-35 35 15.67 35 35 35Z" clip-rule="evenodd"/></svg>