<svg xmlns="http://www.w3.org/2000/svg" width="312" height="180" fill="none"><circle cx="156" cy="90" r="35" fill="#005C62"/><path fill="#CDF9CD" d="M140 90c0-8.838 7.163-16 16-16s16 7.162 16 16c0 8.838-7.163 16-16 16s-16-7.162-16-16Zm10.256 4.344a1 1 0 0 0-1.412-.1 1 1 0 0 0-.1 1.412c1.387 1.6 3.812 3.344 7.2 3.344 3.5 0 5.919-1.744 7.312-3.344a1 1 0 0 0-.1-1.412 1 1 0 0 0-1.412.1c-1.125 1.294-3.032 2.656-5.8 2.656-2.656 0-4.569-1.362-5.688-2.656Zm.769-9.344c-1.106 0-2 .894-2 2 0 1.106.894 2 2 2 1.1 0 2-.894 2-2 0-1.106-.9-2-2-2Zm10 4c1.1 0 2-.894 2-2 0-1.106-.9-2-2-2-1.106 0-2 .894-2 2 0 1.106.894 2 2 2Z"/><path fill="#fff" fill-rule="evenodd" d="M156 123c18.225 0 33-14.775 33-33s-14.775-33-33-33-33 14.775-33 33 14.775 33 33 33Zm0 2c19.33 0 35-15.67 35-35s-15.67-35-35-35-35 15.67-35 35 15.67 35 35 35Z" clip-rule="evenodd"/></svg>