<svg width="325" height="180" viewBox="0 0 325 180" fill="none" xmlns="http://www.w3.org/2000/svg">
<rect width="325" height="180" fill="#F6FDF5"/>
<circle cx="127" cy="90" r="35" fill="#005C62"/>
<path d="M111 90C111 81.1625 118.163 74 127 74C135.837 74 143 81.1625 143 90C143 98.8375 135.837 106 127 106C118.163 106 111 98.8375 111 90ZM121.256 94.3438C120.894 93.925 120.262 93.8812 119.844 94.2437C119.425 94.6062 119.381 95.2375 119.744 95.6562C121.131 97.2563 123.556 99 126.944 99C130.444 99 132.863 97.2563 134.256 95.6562C134.619 95.2375 134.575 94.6062 134.156 94.2437C133.738 93.8812 133.106 93.925 132.744 94.3438C131.619 95.6375 129.713 97 126.944 97C124.288 97 122.375 95.6375 121.256 94.3438ZM122.025 85C120.919 85 120.025 85.8937 120.025 87C120.025 88.1063 120.919 89 122.025 89C123.125 89 124.025 88.1063 124.025 87C124.025 85.8937 123.125 85 122.025 85ZM132.025 89C133.125 89 134.025 88.1063 134.025 87C134.025 85.8937 133.125 85 132.025 85C130.919 85 130.025 85.8937 130.025 87C130.025 88.1063 130.919 89 132.025 89Z" fill="#CDF9CD"/>
<path fill-rule="evenodd" clip-rule="evenodd" d="M127 123C145.225 123 160 108.225 160 90C160 71.7746 145.225 57 127 57C108.775 57 94 71.7746 94 90C94 108.225 108.775 123 127 123ZM127 125C146.33 125 162 109.33 162 90C162 70.67 146.33 55 127 55C107.67 55 92 70.67 92 90C92 109.33 107.67 125 127 125Z" fill="white"/>
<circle cx="162" cy="90" r="35" fill="#005C62"/>
<path d="M161.789 92.1437V89.2485H152.331V92.7291H157.216L157.201 93.1562C157.107 96.004 154.969 97.9183 151.878 97.9183C148.164 97.9183 145.823 94.8965 145.823 89.9288C145.823 85.056 148.055 82.0659 151.691 82.0659C154.313 82.0659 156.202 83.4265 156.904 85.8154H161.586C160.931 81.085 157.013 78 151.691 78C145.136 78 141 82.6355 141 89.9763C141 97.4278 145.105 102 151.8 102C157.95 102 161.789 98.203 161.789 92.1437Z" fill="#CDF9CD"/>
<path d="M176.242 101.415V82.5247H183V78.5854H164.77V82.5247H171.528V101.415H176.242Z" fill="#CDF9CD"/>
<path fill-rule="evenodd" clip-rule="evenodd" d="M162 123C180.225 123 195 108.225 195 90C195 71.7746 180.225 57 162 57C143.775 57 129 71.7746 129 90C129 108.225 143.775 123 162 123ZM162 125C181.33 125 197 109.33 197 90C197 70.67 181.33 55 162 55C142.67 55 127 70.67 127 90C127 109.33 142.67 125 162 125Z" fill="white"/>
<circle cx="197" cy="90" r="35" fill="#005C62"/>
<path d="M181 90C181 81.1625 188.163 74 197 74C205.837 74 213 81.1625 213 90C213 98.8375 205.837 106 197 106C188.163 106 181 98.8375 181 90ZM191.256 94.3438C190.894 93.925 190.262 93.8812 189.844 94.2437C189.425 94.6062 189.381 95.2375 189.744 95.6562C191.131 97.2563 193.556 99 196.944 99C200.444 99 202.863 97.2563 204.256 95.6562C204.619 95.2375 204.575 94.6062 204.156 94.2437C203.738 93.8812 203.106 93.925 202.744 94.3438C201.619 95.6375 199.713 97 196.944 97C194.288 97 192.375 95.6375 191.256 94.3438ZM192.025 85C190.919 85 190.025 85.8937 190.025 87C190.025 88.1063 190.919 89 192.025 89C193.125 89 194.025 88.1063 194.025 87C194.025 85.8937 193.125 85 192.025 85ZM202.025 89C203.125 89 204.025 88.1063 204.025 87C204.025 85.8937 203.125 85 202.025 85C200.919 85 200.025 85.8937 200.025 87C200.025 88.1063 200.919 89 202.025 89Z" fill="#CDF9CD"/>
<path fill-rule="evenodd" clip-rule="evenodd" d="M197 123C215.225 123 230 108.225 230 90C230 71.7746 215.225 57 197 57C178.775 57 164 71.7746 164 90C164 108.225 178.775 123 197 123ZM197 125C216.33 125 232 109.33 232 90C232 70.67 216.33 55 197 55C177.67 55 162 70.67 162 90C162 109.33 177.67 125 197 125Z" fill="white"/>
<path d="M0 0V-2H-2V0H0ZM325 0H327V-2H325V0ZM325 180V182H327V180H325ZM0 180H-2V182H0V180ZM0 2H325V-2H0V2ZM323 0V180H327V0H323ZM325 178H0V182H325V178ZM2 180V0H-2V180H2Z" fill="#767676"/>
</svg>
