<svg width="325" height="180" viewBox="0 0 325 180" fill="none" xmlns="http://www.w3.org/2000/svg">
<rect width="325" height="180" fill="#F6FDF5"/>
<circle cx="145" cy="84" r="35" fill="#005C62"/>
<path d="M144.789 86.1437V83.2485H135.331V86.7291H140.216L140.201 87.1562C140.107 90.004 137.969 91.9183 134.878 91.9183C131.164 91.9183 128.823 88.8965 128.823 83.9288C128.823 79.056 131.055 76.0659 134.691 76.0659C137.313 76.0659 139.202 77.4265 139.904 79.8154H144.586C143.931 75.085 140.013 72 134.691 72C128.136 72 124 76.6355 124 83.9763C124 91.4278 128.105 96 134.8 96C140.95 96 144.789 92.203 144.789 86.1437Z" fill="#CDF9CD"/>
<path d="M159.242 95.4146V76.5247H166V72.5854H147.77V76.5247H154.528V95.4146H159.242Z" fill="#CDF9CD"/>
<path fill-rule="evenodd" clip-rule="evenodd" d="M145 117C163.225 117 178 102.225 178 84C178 65.7746 163.225 51 145 51C126.775 51 112 65.7746 112 84C112 102.225 126.775 117 145 117ZM145 119C164.33 119 180 103.33 180 84C180 64.67 164.33 49 145 49C125.67 49 110 64.67 110 84C110 103.33 125.67 119 145 119Z" fill="white"/>
<circle cx="180" cy="96" r="35" fill="#005C62"/>
<path d="M164 96C164 87.1625 171.163 80 180 80C188.837 80 196 87.1625 196 96C196 104.837 188.837 112 180 112C171.163 112 164 104.837 164 96ZM174.256 100.344C173.894 99.925 173.262 99.8812 172.844 100.244C172.425 100.606 172.381 101.238 172.744 101.656C174.131 103.256 176.556 105 179.944 105C183.444 105 185.863 103.256 187.256 101.656C187.619 101.238 187.575 100.606 187.156 100.244C186.738 99.8812 186.106 99.925 185.744 100.344C184.619 101.638 182.713 103 179.944 103C177.288 103 175.375 101.638 174.256 100.344ZM175.025 91C173.919 91 173.025 91.8937 173.025 93C173.025 94.1063 173.919 95 175.025 95C176.125 95 177.025 94.1063 177.025 93C177.025 91.8937 176.125 91 175.025 91ZM185.025 95C186.125 95 187.025 94.1063 187.025 93C187.025 91.8937 186.125 91 185.025 91C183.919 91 183.025 91.8937 183.025 93C183.025 94.1063 183.919 95 185.025 95Z" fill="#CDF9CD"/>
<path fill-rule="evenodd" clip-rule="evenodd" d="M180 129C198.225 129 213 114.225 213 96C213 77.7746 198.225 63 180 63C161.775 63 147 77.7746 147 96C147 114.225 161.775 129 180 129ZM180 131C199.33 131 215 115.33 215 96C215 76.67 199.33 61 180 61C160.67 61 145 76.67 145 96C145 115.33 160.67 131 180 131Z" fill="white"/>
<path d="M0 0V-2H-2V0H0ZM325 0H327V-2H325V0ZM325 180V182H327V180H325ZM0 180H-2V182H0V180ZM0 2H325V-2H0V2ZM323 0V180H327V0H323ZM325 178H0V182H325V178ZM2 180V0H-2V180H2Z" fill="#767676"/>
</svg>
