<svg width="325" height="180" viewBox="0 0 325 180" fill="none" xmlns="http://www.w3.org/2000/svg">
<rect width="325" height="180" fill="#F6FDF5"/>
<circle cx="162" cy="90" r="35" fill="#005C62"/>
<path d="M146 90C146 81.1625 153.163 74 162 74C170.837 74 178 81.1625 178 90C178 98.8375 170.837 106 162 106C153.163 106 146 98.8375 146 90ZM156.256 94.3438C155.894 93.925 155.262 93.8812 154.844 94.2437C154.425 94.6062 154.381 95.2375 154.744 95.6562C156.131 97.2563 158.556 99 161.944 99C165.444 99 167.863 97.2563 169.256 95.6562C169.619 95.2375 169.575 94.6062 169.156 94.2437C168.738 93.8812 168.106 93.925 167.744 94.3438C166.619 95.6375 164.713 97 161.944 97C159.288 97 157.375 95.6375 156.256 94.3438ZM157.025 85C155.919 85 155.025 85.8937 155.025 87C155.025 88.1063 155.919 89 157.025 89C158.125 89 159.025 88.1063 159.025 87C159.025 85.8937 158.125 85 157.025 85ZM167.025 89C168.125 89 169.025 88.1063 169.025 87C169.025 85.8937 168.125 85 167.025 85C165.919 85 165.025 85.8937 165.025 87C165.025 88.1063 165.919 89 167.025 89Z" fill="#CDF9CD"/>
<path fill-rule="evenodd" clip-rule="evenodd" d="M162 123C180.225 123 195 108.225 195 90C195 71.7746 180.225 57 162 57C143.775 57 129 71.7746 129 90C129 108.225 143.775 123 162 123ZM162 125C181.33 125 197 109.33 197 90C197 70.67 181.33 55 162 55C142.67 55 127 70.67 127 90C127 109.33 142.67 125 162 125Z" fill="white"/>
<path d="M0 0V-2H-2V0H0ZM325 0H327V-2H325V0ZM325 180V182H327V180H325ZM0 180H-2V182H0V180ZM0 2H325V-2H0V2ZM323 0V180H327V0H323ZM325 178H0V182H325V178ZM2 180V0H-2V180H2Z" fill="#767676"/>
</svg>
