<svg width="312" height="180" viewBox="0 0 312 180" fill="none" xmlns="http://www.w3.org/2000/svg">
<g clip-path="url(#clip0_1664_1643)">
<path d="M20 47.68C20 43.4385 23.4183 40 27.6351 40H284.365C288.582 40 292 43.4385 292 47.68V128.32C292 132.562 288.582 136 284.365 136H27.6351C23.4183 136 20 132.562 20 128.32V47.68Z" fill="white"/>
<rect x="91" y="73" width="117" height="8" rx="4" fill="#009990" fill-opacity="0.5"/>
<rect x="91" y="57" width="141" height="8" rx="4" fill="#009990" fill-opacity="0.5"/>
<path fill-rule="evenodd" clip-rule="evenodd" d="M270.856 62.9998L275.032 58.8237C275.544 58.311 275.544 57.4803 275.032 56.9676C274.52 56.4548 273.688 56.4548 273.176 56.9676L268.999 61.1437L264.823 56.9676C264.311 56.4548 263.479 56.4548 262.968 56.9676C262.455 57.4803 262.455 58.311 262.968 58.8237L267.144 62.9998L262.968 67.1759C262.455 67.6887 262.455 68.5193 262.968 69.0321C263.223 69.2882 263.559 69.4165 263.895 69.4165C264.232 69.4165 264.568 69.2882 264.823 69.0321L268.999 64.856L273.176 69.0321C273.432 69.2882 273.768 69.4165 274.104 69.4165C274.44 69.4165 274.776 69.2882 275.032 69.0321C275.544 68.5193 275.544 67.6887 275.032 67.1759L270.856 62.9998Z" fill="#005C62"/>
<path d="M232.5 108C232.5 101.373 237.873 96 244.5 96H264C270.627 96 276 101.373 276 108C276 114.627 270.627 120 264 120H244.5C237.873 120 232.5 114.627 232.5 108Z" fill="#005C62"/>
<path d="M243.531 110.637C244.734 110.637 245.48 110.016 245.48 109.023C245.48 108.297 244.938 107.738 244.191 107.68V107.609C244.77 107.523 245.211 107.004 245.211 106.406C245.211 105.535 244.559 105 243.465 105H241V110.637H243.531ZM242.18 105.875H243.164C243.727 105.875 244.051 106.148 244.051 106.609C244.051 107.078 243.703 107.344 243.066 107.344H242.18V105.875ZM242.18 109.758V108.121H243.203C243.898 108.121 244.277 108.402 244.277 108.93C244.277 109.469 243.91 109.758 243.23 109.758H242.18Z" fill="white"/>
<path d="M250.332 106.336H249.195V108.82C249.195 109.41 248.891 109.773 248.324 109.773C247.801 109.773 247.531 109.465 247.531 108.855V106.336H246.395V109.137C246.395 110.137 246.973 110.727 247.902 110.727C248.555 110.727 248.957 110.445 249.16 109.945H249.23V110.637H250.332V106.336Z" fill="white"/>
<path d="M251.797 105.309V106.375H251.125V107.238H251.797V109.477C251.797 110.312 252.211 110.652 253.258 110.652C253.477 110.652 253.688 110.629 253.828 110.602V109.762C253.719 109.773 253.641 109.781 253.492 109.781C253.105 109.781 252.934 109.602 252.934 109.215V107.238H253.828V106.375H252.934V105.309H251.797Z" fill="white"/>
<path d="M255.141 105.309V106.375H254.469V107.238H255.141V109.477C255.141 110.312 255.555 110.652 256.602 110.652C256.82 110.652 257.031 110.629 257.172 110.602V109.762C257.062 109.773 256.984 109.781 256.836 109.781C256.449 109.781 256.277 109.602 256.277 109.215V107.238H257.172V106.375H256.277V105.309H255.141Z" fill="white"/>
<path d="M260 110.727C261.324 110.727 262.121 109.891 262.121 108.484C262.121 107.09 261.312 106.242 260 106.242C258.688 106.242 257.879 107.094 257.879 108.484C257.879 109.887 258.676 110.727 260 110.727ZM260 109.828C259.391 109.828 259.047 109.336 259.047 108.484C259.047 107.641 259.395 107.145 260 107.145C260.602 107.145 260.953 107.641 260.953 108.484C260.953 109.336 260.605 109.828 260 109.828Z" fill="white"/>
<path d="M263.051 110.637H264.188V108.148C264.188 107.566 264.512 107.191 265.039 107.191C265.578 107.191 265.832 107.508 265.832 108.113V110.637H266.969V107.855C266.969 106.828 266.453 106.242 265.496 106.242C264.859 106.242 264.422 106.543 264.223 107.027H264.152V106.336H263.051V110.637Z" fill="white"/>
<path d="M185 108C185 101.373 190.373 96 197 96H216.5C223.127 96 228.5 101.373 228.5 108C228.5 114.627 223.127 120 216.5 120H197C190.373 120 185 114.627 185 108Z" fill="#009990"/>
<path d="M196.031 110.637C197.234 110.637 197.98 110.016 197.98 109.023C197.98 108.297 197.438 107.738 196.691 107.68V107.609C197.27 107.523 197.711 107.004 197.711 106.406C197.711 105.535 197.059 105 195.965 105H193.5V110.637H196.031ZM194.68 105.875H195.664C196.227 105.875 196.551 106.148 196.551 106.609C196.551 107.078 196.203 107.344 195.566 107.344H194.68V105.875ZM194.68 109.758V108.121H195.703C196.398 108.121 196.777 108.402 196.777 108.93C196.777 109.469 196.41 109.758 195.73 109.758H194.68Z" fill="white"/>
<path d="M202.832 106.336H201.695V108.82C201.695 109.41 201.391 109.773 200.824 109.773C200.301 109.773 200.031 109.465 200.031 108.855V106.336H198.895V109.137C198.895 110.137 199.473 110.727 200.402 110.727C201.055 110.727 201.457 110.445 201.66 109.945H201.73V110.637H202.832V106.336Z" fill="white"/>
<path d="M204.297 105.309V106.375H203.625V107.238H204.297V109.477C204.297 110.312 204.711 110.652 205.758 110.652C205.977 110.652 206.188 110.629 206.328 110.602V109.762C206.219 109.773 206.141 109.781 205.992 109.781C205.605 109.781 205.434 109.602 205.434 109.215V107.238H206.328V106.375H205.434V105.309H204.297Z" fill="white"/>
<path d="M207.641 105.309V106.375H206.969V107.238H207.641V109.477C207.641 110.312 208.055 110.652 209.102 110.652C209.32 110.652 209.531 110.629 209.672 110.602V109.762C209.562 109.773 209.484 109.781 209.336 109.781C208.949 109.781 208.777 109.602 208.777 109.215V107.238H209.672V106.375H208.777V105.309H207.641Z" fill="white"/>
<path d="M212.5 110.727C213.824 110.727 214.621 109.891 214.621 108.484C214.621 107.09 213.812 106.242 212.5 106.242C211.188 106.242 210.379 107.094 210.379 108.484C210.379 109.887 211.176 110.727 212.5 110.727ZM212.5 109.828C211.891 109.828 211.547 109.336 211.547 108.484C211.547 107.641 211.895 107.145 212.5 107.145C213.102 107.145 213.453 107.641 213.453 108.484C213.453 109.336 213.105 109.828 212.5 109.828Z" fill="white"/>
<path d="M215.551 110.637H216.688V108.148C216.688 107.566 217.012 107.191 217.539 107.191C218.078 107.191 218.332 107.508 218.332 108.113V110.637H219.469V107.855C219.469 106.828 218.953 106.242 217.996 106.242C217.359 106.242 216.922 106.543 216.723 107.027H216.652V106.336H215.551V110.637Z" fill="white"/>
<path fill-rule="evenodd" clip-rule="evenodd" d="M286 41.92H26C23.7909 41.92 22 43.6392 22 45.76V130.24C22 132.361 23.7909 134.08 26 134.08H286C288.209 134.08 290 132.361 290 130.24V45.76C290 43.6392 288.209 41.92 286 41.92ZM26 40C22.6863 40 20 42.5788 20 45.76V130.24C20 133.421 22.6863 136 26 136H286C289.314 136 292 133.421 292 130.24V45.76C292 42.5788 289.314 40 286 40H26Z" fill="#005C62"/>
<rect x="36" y="57" width="39" height="39" rx="3.3913" fill="#005C62"/>
<path d="M41.4348 75.9998C41.4348 68.5071 47.5074 62.4346 55 62.4346C62.4927 62.4346 68.5652 68.5071 68.5652 75.9998C68.5652 83.4924 62.4927 89.565 55 89.565C47.5074 89.565 41.4348 83.4924 41.4348 75.9998ZM50.1303 79.6825C49.823 79.3275 49.2878 79.2904 48.9328 79.5977C48.5777 79.9051 48.5407 80.4403 48.848 80.7953C50.0244 82.1518 52.0803 83.6302 54.9523 83.6302C57.9197 83.6302 59.9704 82.1518 61.1521 80.7953C61.4594 80.4403 61.4223 79.9051 61.0673 79.5977C60.7123 79.2904 60.1771 79.3275 59.8697 79.6825C58.9159 80.7794 57.2998 81.9346 54.9523 81.9346C52.7003 81.9346 51.0788 80.7794 50.1303 79.6825ZM50.7821 71.7607C49.8442 71.7607 49.0864 72.5184 49.0864 73.4563C49.0864 74.3942 49.8442 75.152 50.7821 75.152C51.7147 75.152 52.4777 74.3942 52.4777 73.4563C52.4777 72.5184 51.7147 71.7607 50.7821 71.7607ZM59.2604 75.152C60.193 75.152 60.956 74.3942 60.956 73.4563C60.956 72.5184 60.193 71.7607 59.2604 71.7607C58.3224 71.7607 57.5647 72.5184 57.5647 73.4563C57.5647 74.3942 58.3224 75.152 59.2604 75.152Z" fill="#C3F9C2"/>
</g>
<defs>
<clipPath id="clip0_1664_1643">
<rect width="312" height="180" fill="white"/>
</clipPath>
</defs>
</svg>
