<svg width="312" height="180" viewBox="0 0 312 180" fill="none" xmlns="http://www.w3.org/2000/svg">
<path d="M20 73.2C20 71.4327 23.4183 70 27.6351 70H284.365C288.582 70 292 71.4327 292 73.2V106.8C292 108.567 288.582 110 284.365 110H27.6351C23.4183 110 20 108.567 20 106.8V73.2Z" fill="#CCF6EE" fill-opacity="0.5"/>
<path fill-rule="evenodd" clip-rule="evenodd" d="M43 88.25C42.5164 88.25 42.125 87.8586 42.125 87.375C42.125 86.8914 42.5164 86.5 43 86.5C43.4836 86.5 43.875 86.8914 43.875 87.375C43.875 87.8586 43.4836 88.25 43 88.25ZM43.875 92.625C43.875 93.1086 43.4836 93.5 43 93.5C42.5164 93.5 42.125 93.1086 42.125 92.625V89.7083C42.125 89.2247 42.5164 88.8333 43 88.8333C43.4836 88.8333 43.875 89.2247 43.875 89.7083V92.625ZM43 83C39.1342 83 36 86.1342 36 90C36 93.8657 39.1342 97 43 97C46.8657 97 50 93.8657 50 90C50 86.1342 46.8657 83 43 83Z" fill="#005C62"/>
<rect x="58" y="86" width="99" height="8" rx="4" fill="#009990" fill-opacity="0.5"/>
<path fill-rule="evenodd" clip-rule="evenodd" d="M270.856 90.0001L275.032 85.824C275.545 85.3113 275.545 84.4806 275.032 83.9679C274.52 83.4551 273.688 83.4551 273.176 83.9679L269 88.144L264.824 83.9679C264.311 83.4551 263.48 83.4551 262.968 83.9679C262.455 84.4806 262.455 85.3113 262.968 85.824L267.144 90.0001L262.968 94.1762C262.455 94.689 262.455 95.5196 262.968 96.0324C263.223 96.2885 263.559 96.4168 263.895 96.4168C264.232 96.4168 264.568 96.2885 264.824 96.0324L269 91.8563L273.176 96.0324C273.432 96.2885 273.768 96.4168 274.104 96.4168C274.44 96.4168 274.776 96.2885 275.032 96.0324C275.545 95.5196 275.545 94.689 275.032 94.1762L270.856 90.0001Z" fill="#005C62"/>
<path fill-rule="evenodd" clip-rule="evenodd" d="M285 72H27C24.2386 72 22 74.2386 22 77V103C22 105.761 24.2386 108 27 108H285C287.761 108 290 105.761 290 103V77C290 74.2386 287.761 72 285 72ZM27 70C23.134 70 20 73.134 20 77V103C20 106.866 23.134 110 27 110H285C288.866 110 292 106.866 292 103V77C292 73.134 288.866 70 285 70H27Z" fill="#005C62"/>
</svg>
