<svg width="325" height="180" viewBox="0 0 325 180" fill="none" xmlns="http://www.w3.org/2000/svg">
<rect width="325" height="180" fill="#F6FDF5"/>
<path d="M119 90C119 76.7452 129.745 66 143 66H182C195.255 66 206 76.7452 206 90C206 103.255 195.255 114 182 114H143C129.745 114 119 103.255 119 90Z" fill="#005C62"/>
<path d="M141.069 94.8274C143.478 94.8274 144.972 93.6344 144.972 91.7285C144.972 90.3329 143.884 89.2599 142.39 89.1473V89.0123C143.548 88.8472 144.432 87.8492 144.432 86.7012C144.432 85.028 143.126 84 140.936 84H136V94.8274H141.069ZM138.362 85.6808H140.333C141.46 85.6808 142.109 86.206 142.109 87.0914C142.109 87.9918 141.413 88.502 140.138 88.502H138.362V85.6808ZM138.362 93.1392V89.9952H140.412C141.804 89.9952 142.563 90.5355 142.563 91.5484C142.563 92.5839 141.827 93.1392 140.466 93.1392H138.362Z" fill="white"/>
<path d="M154.687 86.5662H152.41V91.3383C152.41 92.4714 151.8 93.1692 150.666 93.1692C149.618 93.1692 149.078 92.5764 149.078 91.4059V86.5662H146.802V91.9461C146.802 93.867 147.96 95 149.821 95C151.128 95 151.933 94.4598 152.34 93.4993H152.481V94.8274H154.687V86.5662Z" fill="white"/>
<path d="M157.62 84.5928V86.6412H156.274V88.2995H157.62V92.5989C157.62 94.2046 158.449 94.8574 160.545 94.8574C160.983 94.8574 161.406 94.8124 161.687 94.7599V93.1467C161.468 93.1692 161.312 93.1842 161.014 93.1842C160.24 93.1842 159.896 92.839 159.896 92.0962V88.2995H161.687V86.6412H159.896V84.5928H157.62Z" fill="white"/>
<path d="M164.315 84.5928V86.6412H162.97V88.2995H164.315V92.5989C164.315 94.2046 165.144 94.8574 167.241 94.8574C167.679 94.8574 168.101 94.8124 168.383 94.7599V93.1467C168.164 93.1692 168.007 93.1842 167.71 93.1842C166.936 93.1842 166.591 92.839 166.591 92.0962V88.2995H168.383V86.6412H166.591V84.5928H164.315Z" fill="white"/>
<path d="M174.046 95C176.697 95 178.293 93.3943 178.293 90.693C178.293 88.0143 176.674 86.3861 174.046 86.3861C171.418 86.3861 169.798 88.0218 169.798 90.693C169.798 93.3868 171.394 95 174.046 95ZM174.046 93.2742C172.826 93.2742 172.137 92.3288 172.137 90.693C172.137 89.0723 172.833 88.1194 174.046 88.1194C175.25 88.1194 175.954 89.0723 175.954 90.693C175.954 92.3288 175.258 93.2742 174.046 93.2742Z" fill="white"/>
<path d="M180.155 94.8274H182.431V90.0477C182.431 88.9297 183.08 88.2094 184.136 88.2094C185.215 88.2094 185.724 88.8172 185.724 89.9802V94.8274H188V89.485C188 87.5116 186.968 86.3861 185.051 86.3861C183.776 86.3861 182.9 86.9638 182.501 87.8943H182.36V86.5662H180.155V94.8274Z" fill="white"/>
<path d="M0 0V-2H-2V0H0ZM325 0H327V-2H325V0ZM325 180V182H327V180H325ZM0 180H-2V182H0V180ZM0 2H325V-2H0V2ZM323 0V180H327V0H323ZM325 178H0V182H325V178ZM2 180V0H-2V180H2Z" fill="#767676"/>
</svg>
