<svg width="325" height="180" viewBox="0 0 325 180" fill="none" xmlns="http://www.w3.org/2000/svg">
<g clip-path="url(#clip0_102_2537)">
<rect width="325" height="180" fill="#F6FDF5"/>
<path d="M0 0V-1H-1V0H0ZM325 0H326V-1H325V0ZM325 180V181H326V180H325ZM0 180H-1V181H0V180ZM0 1H325V-1H0V1ZM324 0V180H326V0H324ZM325 179H0V181H325V179ZM1 180V0H-1V180H1Z" fill="#767676"/>
<path d="M166 90C166 76.7452 176.745 66 190 66H229C242.255 66 253 76.7452 253 90C253 103.255 242.255 114 229 114H190C176.745 114 166 103.255 166 90Z" fill="#005C62"/>
<path d="M188.069 94.8274C190.478 94.8274 191.972 93.6344 191.972 91.7285C191.972 90.3329 190.884 89.2599 189.39 89.1473V89.0123C190.548 88.8472 191.432 87.8492 191.432 86.7012C191.432 85.028 190.126 84 187.936 84H183V94.8274H188.069ZM185.362 85.6808H187.333C188.46 85.6808 189.109 86.206 189.109 87.0914C189.109 87.9918 188.413 88.502 187.138 88.502H185.362V85.6808ZM185.362 93.1392V89.9952H187.412C188.804 89.9952 189.563 90.5355 189.563 91.5484C189.563 92.5839 188.827 93.1392 187.466 93.1392H185.362Z" fill="white"/>
<path d="M201.687 86.5662H199.41V91.3383C199.41 92.4714 198.8 93.1692 197.666 93.1692C196.618 93.1692 196.078 92.5764 196.078 91.4059V86.5662H193.802V91.9461C193.802 93.867 194.96 95 196.821 95C198.128 95 198.933 94.4598 199.34 93.4993H199.481V94.8274H201.687V86.5662Z" fill="white"/>
<path d="M204.62 84.5928V86.6412H203.274V88.2995H204.62V92.5989C204.62 94.2046 205.449 94.8574 207.545 94.8574C207.983 94.8574 208.406 94.8124 208.687 94.7599V93.1467C208.468 93.1692 208.312 93.1842 208.014 93.1842C207.24 93.1842 206.896 92.839 206.896 92.0962V88.2995H208.687V86.6412H206.896V84.5928H204.62Z" fill="white"/>
<path d="M211.315 84.5928V86.6412H209.97V88.2995H211.315V92.5989C211.315 94.2046 212.144 94.8574 214.241 94.8574C214.679 94.8574 215.101 94.8124 215.383 94.7599V93.1467C215.164 93.1692 215.007 93.1842 214.71 93.1842C213.936 93.1842 213.591 92.839 213.591 92.0962V88.2995H215.383V86.6412H213.591V84.5928H211.315Z" fill="white"/>
<path d="M221.046 95C223.697 95 225.293 93.3943 225.293 90.693C225.293 88.0143 223.674 86.3861 221.046 86.3861C218.418 86.3861 216.798 88.0218 216.798 90.693C216.798 93.3868 218.394 95 221.046 95ZM221.046 93.2742C219.826 93.2742 219.137 92.3288 219.137 90.693C219.137 89.0723 219.833 88.1194 221.046 88.1194C222.25 88.1194 222.954 89.0723 222.954 90.693C222.954 92.3288 222.258 93.2742 221.046 93.2742Z" fill="white"/>
<path d="M227.155 94.8274H229.431V90.0477C229.431 88.9297 230.08 88.2094 231.136 88.2094C232.215 88.2094 232.724 88.8172 232.724 89.9802V94.8274H235V89.485C235 87.5116 233.968 86.3861 232.051 86.3861C230.776 86.3861 229.9 86.9638 229.501 87.8943H229.36V86.5662H227.155V94.8274Z" fill="white"/>
<path d="M71 90C71 76.7452 81.7452 66 95 66H134C147.255 66 158 76.7452 158 90C158 103.255 147.255 114 134 114H95C81.7452 114 71 103.255 71 90Z" fill="#009990"/>
<path d="M93.0686 94.8274C95.4777 94.8274 96.9717 93.6344 96.9717 91.7285C96.9717 90.3329 95.8845 89.2599 94.3905 89.1473V89.0123C95.5481 88.8472 96.432 87.8492 96.432 86.7012C96.432 85.028 95.1258 84 92.9356 84H88V94.8274H93.0686ZM90.3622 85.6808H92.3333C93.4597 85.6808 94.1089 86.206 94.1089 87.0914C94.1089 87.9918 93.4128 88.502 92.1378 88.502H90.3622V85.6808ZM90.3622 93.1392V89.9952H92.4116C93.8039 89.9952 94.5626 90.5355 94.5626 91.5484C94.5626 92.5839 93.8273 93.1392 92.4663 93.1392H90.3622Z" fill="white"/>
<path d="M106.687 86.5662H104.41V91.3383C104.41 92.4714 103.8 93.1692 102.666 93.1692C101.618 93.1692 101.078 92.5764 101.078 91.4059V86.5662H98.802V91.9461C98.802 93.867 99.9597 95 101.821 95C103.128 95 103.933 94.4598 104.34 93.4993H104.481V94.8274H106.687V86.5662Z" fill="white"/>
<path d="M109.62 84.5928V86.6412H108.274V88.2995H109.62V92.5989C109.62 94.2046 110.449 94.8574 112.545 94.8574C112.983 94.8574 113.406 94.8124 113.687 94.7599V93.1467C113.468 93.1692 113.312 93.1842 113.014 93.1842C112.24 93.1842 111.896 92.839 111.896 92.0962V88.2995H113.687V86.6412H111.896V84.5928H109.62Z" fill="white"/>
<path d="M116.315 84.5928V86.6412H114.97V88.2995H116.315V92.5989C116.315 94.2046 117.144 94.8574 119.241 94.8574C119.679 94.8574 120.101 94.8124 120.383 94.7599V93.1467C120.164 93.1692 120.007 93.1842 119.71 93.1842C118.936 93.1842 118.591 92.839 118.591 92.0962V88.2995H120.383V86.6412H118.591V84.5928H116.315Z" fill="white"/>
<path d="M126.046 95C128.697 95 130.293 93.3943 130.293 90.693C130.293 88.0143 128.674 86.3861 126.046 86.3861C123.418 86.3861 121.798 88.0218 121.798 90.693C121.798 93.3868 123.394 95 126.046 95ZM126.046 93.2742C124.826 93.2742 124.137 92.3288 124.137 90.693C124.137 89.0723 124.833 88.1194 126.046 88.1194C127.25 88.1194 127.954 89.0723 127.954 90.693C127.954 92.3288 127.258 93.2742 126.046 93.2742Z" fill="white"/>
<path d="M132.155 94.8274H134.431V90.0477C134.431 88.9297 135.08 88.2094 136.136 88.2094C137.215 88.2094 137.724 88.8172 137.724 89.9802V94.8274H140V89.485C140 87.5116 138.968 86.3861 137.051 86.3861C135.776 86.3861 134.9 86.9638 134.501 87.8943H134.36V86.5662H132.155V94.8274Z" fill="white"/>
</g>
<path d="M0 0V-2H-2V0H0ZM325 0H327V-2H325V0ZM325 180V182H327V180H325ZM0 180H-2V182H0V180ZM0 2H325V-2H0V2ZM323 0V180H327V0H323ZM325 178H0V182H325V178ZM2 180V0H-2V180H2Z" fill="#767676"/>
<defs>
<clipPath id="clip0_102_2537">
<path d="M0 0H325V180H0V0Z" fill="white"/>
</clipPath>
</defs>
</svg>
