<svg width="312" height="180" viewBox="0 0 312 180" fill="none" xmlns="http://www.w3.org/2000/svg">
<rect width="312" height="180" rx="8" fill="#E3FAE1"/>
<rect x="15.5" y="66.5" width="281" height="47" rx="23.5" stroke="#005C62"/>
<path d="M111.93 95.9922H107.109V84.7188H111.82C113.961 84.7188 115.25 85.7969 115.25 87.5312C115.25 88.7188 114.375 89.7656 113.242 89.9453V90.0859C114.758 90.2266 115.805 91.3203 115.805 92.7891C115.805 94.7734 114.336 95.9922 111.93 95.9922ZM109.125 86.2891V89.4688H111.07C112.5 89.4688 113.258 88.9141 113.258 87.8828C113.258 86.875 112.547 86.2891 111.328 86.2891H109.125ZM109.125 94.4219H111.469C112.953 94.4219 113.742 93.8047 113.742 92.6484C113.742 91.5 112.93 90.8984 111.391 90.8984H109.125V94.4219Z" fill="#005C62"/>
<path d="M125.234 87.4531V95.9922H123.367V94.6328H123.234C122.82 95.6094 121.984 96.1641 120.68 96.1641C118.812 96.1641 117.719 95 117.719 93V87.4531H119.656V92.5312C119.656 93.8594 120.195 94.5 121.352 94.5C122.609 94.5 123.297 93.7188 123.297 92.4297V87.4531H125.234Z" fill="#005C62"/>
<path d="M128.227 85.3594H130.156V87.5078H131.984V89.0156H130.156V93.2656C130.156 94.1172 130.516 94.5 131.328 94.5C131.602 94.5 131.75 94.4844 131.984 94.4609V95.9453C131.703 96 131.344 96.0312 130.969 96.0312C129.008 96.0312 128.227 95.375 128.227 93.7266V89.0156H126.875V87.5078H128.227V85.3594Z" fill="#005C62"/>
<path d="M134.586 85.3594H136.516V87.5078H138.344V89.0156H136.516V93.2656C136.516 94.1172 136.875 94.5 137.688 94.5C137.961 94.5 138.109 94.4844 138.344 94.4609V95.9453C138.062 96 137.703 96.0312 137.328 96.0312C135.367 96.0312 134.586 95.375 134.586 93.7266V89.0156H133.234V87.5078H134.586V85.3594Z" fill="#005C62"/>
<path d="M143.891 96.1641C141.328 96.1641 139.781 94.4922 139.781 91.7188C139.781 88.9688 141.352 87.2891 143.891 87.2891C146.438 87.2891 148 88.9609 148 91.7188C148 94.4922 146.445 96.1641 143.891 96.1641ZM143.891 94.5781C145.242 94.5781 146.008 93.5312 146.008 91.7266C146.008 89.9219 145.234 88.875 143.891 88.875C142.539 88.875 141.766 89.9219 141.766 91.7266C141.766 93.5312 142.539 94.5781 143.891 94.5781Z" fill="#005C62"/>
<path d="M149.953 95.9922V87.4531H151.82V88.8203H151.953C152.359 87.8672 153.219 87.2891 154.492 87.2891C156.398 87.2891 157.438 88.4375 157.438 90.4688V95.9922H155.5V90.9219C155.5 89.5938 154.953 88.9297 153.773 88.9297C152.617 88.9297 151.891 89.7344 151.891 91.0156V95.9922H149.953Z" fill="#005C62"/>
<path d="M159.422 92.9375H161.391C161.516 93.9688 162.516 94.625 163.945 94.625C165.273 94.625 166.234 93.9297 166.234 92.9688C166.234 92.1484 165.617 91.6484 164.172 91.3125L162.711 90.9766C160.664 90.5078 159.703 89.5 159.703 87.8281C159.703 85.7969 161.375 84.4375 163.898 84.4375C166.266 84.4375 167.977 85.7891 168.07 87.7188H166.141C166 86.7109 165.125 86.0781 163.891 86.0781C162.594 86.0781 161.734 86.7188 161.734 87.6953C161.734 88.4688 162.305 88.9141 163.703 89.2422L165 89.5391C167.289 90.0625 168.25 91.0156 168.25 92.7266C168.25 94.9141 166.555 96.2734 163.82 96.2734C161.234 96.2734 159.523 94.9766 159.422 92.9375Z" fill="#005C62"/>
<path d="M174 96.1641C171.438 96.1641 169.891 94.4922 169.891 91.7188C169.891 88.9688 171.461 87.2891 174 87.2891C176.547 87.2891 178.109 88.9609 178.109 91.7188C178.109 94.4922 176.555 96.1641 174 96.1641ZM174 94.5781C175.352 94.5781 176.117 93.5312 176.117 91.7266C176.117 89.9219 175.344 88.875 174 88.875C172.648 88.875 171.875 89.9219 171.875 91.7266C171.875 93.5312 172.648 94.5781 174 94.5781Z" fill="#005C62"/>
<path d="M187.445 90.3047H185.602C185.422 89.4766 184.781 88.875 183.719 88.875C182.391 88.875 181.602 89.9219 181.602 91.7031C181.602 93.5156 182.398 94.5703 183.719 94.5703C184.727 94.5703 185.398 94.0938 185.602 93.1953H187.445C187.234 94.9609 185.891 96.1641 183.727 96.1641C181.156 96.1641 179.641 94.5 179.641 91.7031C179.641 88.9375 181.148 87.2891 183.719 87.2891C185.914 87.2891 187.242 88.5391 187.445 90.3047Z" fill="#005C62"/>
<path d="M190.281 86.0234C189.648 86.0234 189.125 85.5156 189.125 84.875C189.125 84.2422 189.648 83.7266 190.281 83.7266C190.922 83.7266 191.445 84.2422 191.445 84.875C191.445 85.5156 190.922 86.0234 190.281 86.0234ZM189.32 95.9922V87.4531H191.25V95.9922H189.32Z" fill="#005C62"/>
<path d="M196.008 96.1328C194.359 96.1328 193.18 95.1328 193.18 93.5703C193.18 92.0391 194.344 91.1406 196.422 91.0234L198.625 90.8906V90.1562C198.625 89.3047 198.062 88.8281 197.016 88.8281C196.125 88.8281 195.516 89.1484 195.336 89.7344H193.508C193.664 88.2422 195.078 87.2891 197.109 87.2891C199.305 87.2891 200.539 88.3516 200.539 90.1562V95.9922H198.672V94.8203H198.539C198.062 95.6484 197.125 96.1328 196.008 96.1328ZM196.578 94.6406C197.75 94.6406 198.625 93.875 198.625 92.8594V92.1641L196.695 92.2969C195.609 92.3672 195.102 92.7656 195.102 93.4766C195.102 94.2109 195.719 94.6406 196.578 94.6406Z" fill="#005C62"/>
<path d="M202.953 95.9922V84.1484H204.891V95.9922H202.953Z" fill="#005C62"/>
<path d="M34.5447 101.146C34.3949 99.7804 34.4995 98.4758 34.7995 97.2157L35.9995 92.0408C35.8046 91.411 35.6544 90.6905 35.6544 89.9705C35.6544 88.2904 36.4646 87.0904 37.7394 87.0904C38.6244 87.0904 39.2695 87.7053 39.2695 88.8905C39.2695 89.2653 39.1946 89.6854 39.0444 90.1654L38.5193 91.8905C38.4142 92.2208 38.3696 92.5357 38.3696 92.8054C38.3696 94.0054 39.2844 94.6803 40.4546 94.6803C42.5395 94.6803 44.0246 92.5203 44.0246 89.7151C44.0246 86.5951 41.9847 84.6001 38.97 84.6001C35.6102 84.6001 33.4806 86.7904 33.4806 89.8351C33.4806 91.0649 33.8554 92.2049 34.5907 92.9849C34.3508 93.3901 34.0959 93.4649 33.7057 93.4649C32.5057 93.4649 31.3658 91.77 31.3658 89.4598C31.3658 85.4694 34.5605 82.2898 39.0454 82.2898C43.7548 82.2898 46.71 85.575 46.71 89.6249C46.71 93.6747 43.8302 96.765 40.7253 96.765C39.4951 96.765 38.4152 96.2399 37.6654 95.2947L37.0506 97.785C36.7204 99.0748 36.2255 100.29 35.4307 101.46C36.5557 101.805 37.6654 102 39.0007 102C45.64 102 51 96.64 51 89.9998C51 83.3699 45.64 78 38.9993 78C32.3694 78 27 83.3703 27 90.0002C27 95.0255 30.0901 99.3604 34.5447 101.146Z" fill="#005C62"/>
</svg>
