<svg width="312" height="180" viewBox="0 0 312 180" fill="none" xmlns="http://www.w3.org/2000/svg">
<rect x="70" y="67" width="83" height="46" rx="11" stroke="#009990" stroke-width="2"/>
<path d="M129.18 95.5508V87.0117H131.047V88.3789H131.18C131.586 87.4258 132.445 86.8477 133.719 86.8477C135.625 86.8477 136.664 87.9961 136.664 90.0273V95.5508H134.727V90.4805C134.727 89.1523 134.18 88.4883 133 88.4883C131.844 88.4883 131.117 89.293 131.117 90.5742V95.5508H129.18Z" fill="#005C62"/>
<path d="M123.117 95.7227C120.555 95.7227 119.008 94.0508 119.008 91.2773C119.008 88.5273 120.578 86.8477 123.117 86.8477C125.664 86.8477 127.227 88.5195 127.227 91.2773C127.227 94.0508 125.672 95.7227 123.117 95.7227ZM123.117 94.1367C124.469 94.1367 125.234 93.0898 125.234 91.2852C125.234 89.4805 124.461 88.4336 123.117 88.4336C121.766 88.4336 120.992 89.4805 120.992 91.2852C120.992 93.0898 121.766 94.1367 123.117 94.1367Z" fill="#005C62"/>
<path d="M113.812 84.918H115.742V87.0664H117.57V88.5742H115.742V92.8242C115.742 93.6758 116.102 94.0586 116.914 94.0586C117.188 94.0586 117.336 94.043 117.57 94.0195V95.5039C117.289 95.5586 116.93 95.5898 116.555 95.5898C114.594 95.5898 113.812 94.9336 113.812 93.2852V88.5742H112.461V87.0664H113.812V84.918Z" fill="#005C62"/>
<path d="M107.453 84.918H109.383V87.0664H111.211V88.5742H109.383V92.8242C109.383 93.6758 109.742 94.0586 110.555 94.0586C110.828 94.0586 110.977 94.043 111.211 94.0195V95.5039C110.93 95.5586 110.57 95.5898 110.195 95.5898C108.234 95.5898 107.453 94.9336 107.453 93.2852V88.5742H106.102V87.0664H107.453V84.918Z" fill="#005C62"/>
<path d="M104.461 87.0117V95.5508H102.594V94.1914H102.461C102.047 95.168 101.211 95.7227 99.9062 95.7227C98.0391 95.7227 96.9453 94.5586 96.9453 92.5586V87.0117H98.8828V92.0898C98.8828 93.418 99.4219 94.0586 100.578 94.0586C101.836 94.0586 102.523 93.2773 102.523 91.9883V87.0117H104.461Z" fill="#005C62"/>
<path d="M91.1562 95.5508H86.3359V84.2773H91.0469C93.1875 84.2773 94.4766 85.3555 94.4766 87.0898C94.4766 88.2773 93.6016 89.3242 92.4688 89.5039V89.6445C93.9844 89.7852 95.0312 90.8789 95.0312 92.3477C95.0312 94.332 93.5625 95.5508 91.1562 95.5508ZM88.3516 85.8477V89.0273H90.2969C91.7266 89.0273 92.4844 88.4727 92.4844 87.4414C92.4844 86.4336 91.7734 85.8477 90.5547 85.8477H88.3516ZM88.3516 93.9805H90.6953C92.1797 93.9805 92.9688 93.3633 92.9688 92.207C92.9688 91.0586 92.1562 90.457 90.6172 90.457H88.3516V93.9805Z" fill="#005C62"/>
<rect x="160" y="69" width="81" height="44" rx="10" stroke="#005C62" stroke-width="4"/>
<path d="M218.18 96.5508V88.0117H220.047V89.3789H220.18C220.586 88.4258 221.445 87.8477 222.719 87.8477C224.625 87.8477 225.664 88.9961 225.664 91.0273V96.5508H223.727V91.4805C223.727 90.1523 223.18 89.4883 222 89.4883C220.844 89.4883 220.117 90.293 220.117 91.5742V96.5508H218.18Z" fill="#005C62"/>
<path d="M212.117 96.7227C209.555 96.7227 208.008 95.0508 208.008 92.2773C208.008 89.5273 209.578 87.8477 212.117 87.8477C214.664 87.8477 216.227 89.5195 216.227 92.2773C216.227 95.0508 214.672 96.7227 212.117 96.7227ZM212.117 95.1367C213.469 95.1367 214.234 94.0898 214.234 92.2852C214.234 90.4805 213.461 89.4336 212.117 89.4336C210.766 89.4336 209.992 90.4805 209.992 92.2852C209.992 94.0898 210.766 95.1367 212.117 95.1367Z" fill="#005C62"/>
<path d="M202.812 85.918H204.742V88.0664H206.57V89.5742H204.742V93.8242C204.742 94.6758 205.102 95.0586 205.914 95.0586C206.188 95.0586 206.336 95.043 206.57 95.0195V96.5039C206.289 96.5586 205.93 96.5898 205.555 96.5898C203.594 96.5898 202.812 95.9336 202.812 94.2852V89.5742H201.461V88.0664H202.812V85.918Z" fill="#005C62"/>
<path d="M196.453 85.918H198.383V88.0664H200.211V89.5742H198.383V93.8242C198.383 94.6758 198.742 95.0586 199.555 95.0586C199.828 95.0586 199.977 95.043 200.211 95.0195V96.5039C199.93 96.5586 199.57 96.5898 199.195 96.5898C197.234 96.5898 196.453 95.9336 196.453 94.2852V89.5742H195.102V88.0664H196.453V85.918Z" fill="#005C62"/>
<path d="M193.461 88.0117V96.5508H191.594V95.1914H191.461C191.047 96.168 190.211 96.7227 188.906 96.7227C187.039 96.7227 185.945 95.5586 185.945 93.5586V88.0117H187.883V93.0898C187.883 94.418 188.422 95.0586 189.578 95.0586C190.836 95.0586 191.523 94.2773 191.523 92.9883V88.0117H193.461Z" fill="#005C62"/>
<path d="M180.156 96.5508H175.336V85.2773H180.047C182.188 85.2773 183.477 86.3555 183.477 88.0898C183.477 89.2773 182.602 90.3242 181.469 90.5039V90.6445C182.984 90.7852 184.031 91.8789 184.031 93.3477C184.031 95.332 182.562 96.5508 180.156 96.5508ZM177.352 86.8477V90.0273H179.297C180.727 90.0273 181.484 89.4727 181.484 88.4414C181.484 87.4336 180.773 86.8477 179.555 86.8477H177.352ZM177.352 94.9805H179.695C181.18 94.9805 181.969 94.3633 181.969 93.207C181.969 92.0586 181.156 91.457 179.617 91.457H177.352V94.9805Z" fill="#005C62"/>
</svg>
