<svg width="325" height="180" viewBox="0 0 325 180" fill="none" xmlns="http://www.w3.org/2000/svg">
<rect width="325" height="180" fill="#F6FDF5"/>
<path d="M20 48C20 43.5817 23.5817 40 28 40H297C301.418 40 305 43.5817 305 48V132C305 136.418 301.418 140 297 140H28C23.5817 140 20 136.418 20 132V48Z" fill="#CCF6EE" fill-opacity="0.5"/>
<path fill-rule="evenodd" clip-rule="evenodd" d="M297 42H28C24.6863 42 22 44.6863 22 48V132C22 135.314 24.6863 138 28 138H297C300.314 138 303 135.314 303 132V48C303 44.6863 300.314 42 297 42ZM28 40C23.5817 40 20 43.5817 20 48V132C20 136.418 23.5817 140 28 140H297C301.418 140 305 136.418 305 132V48C305 43.5817 301.418 40 297 40H28Z" fill="#005C62"/>
<path fill-rule="evenodd" clip-rule="evenodd" d="M43 88.25C42.5164 88.25 42.125 87.8586 42.125 87.375C42.125 86.8914 42.5164 86.5 43 86.5C43.4836 86.5 43.875 86.8914 43.875 87.375C43.875 87.8586 43.4836 88.25 43 88.25ZM43.875 92.625C43.875 93.1086 43.4836 93.5 43 93.5C42.5164 93.5 42.125 93.1086 42.125 92.625V89.7083C42.125 89.2247 42.5164 88.8333 43 88.8333C43.4836 88.8333 43.875 89.2247 43.875 89.7083V92.625ZM43 83C39.1342 83 36 86.1342 36 90C36 93.8657 39.1342 97 43 97C46.8657 97 50 93.8657 50 90C50 86.1342 46.8657 83 43 83Z" fill="#005C62"/>
<rect x="66" y="73" width="144" height="8" rx="4" fill="#009990" fill-opacity="0.5"/>
<rect x="66" y="89" width="103" height="8" rx="4" fill="#009990" fill-opacity="0.5"/>
<rect x="66" y="57" width="160" height="8" rx="4" fill="#009990" fill-opacity="0.5"/>
<path fill-rule="evenodd" clip-rule="evenodd" d="M283.856 62.9998L288.032 58.8237C288.544 58.311 288.544 57.4803 288.032 56.9676C287.52 56.4548 286.688 56.4548 286.176 56.9676L281.999 61.1437L277.823 56.9676C277.311 56.4548 276.479 56.4548 275.968 56.9676C275.455 57.4803 275.455 58.311 275.968 58.8237L280.144 62.9998L275.968 67.1759C275.455 67.6887 275.455 68.5193 275.968 69.0321C276.223 69.2882 276.559 69.4165 276.895 69.4165C277.232 69.4165 277.568 69.2882 277.823 69.0321L281.999 64.856L286.176 69.0321C286.432 69.2882 286.768 69.4165 287.104 69.4165C287.44 69.4165 287.776 69.2882 288.032 69.0321C288.544 68.5193 288.544 67.6887 288.032 67.1759L283.856 62.9998Z" fill="#005C62"/>
<path d="M245.5 118C245.5 111.373 250.873 106 257.5 106H277C283.627 106 289 111.373 289 118C289 124.627 283.627 130 277 130H257.5C250.873 130 245.5 124.627 245.5 118Z" fill="#005C62"/>
<path d="M256.531 120.637C257.734 120.637 258.48 120.016 258.48 119.023C258.48 118.297 257.938 117.738 257.191 117.68V117.609C257.77 117.523 258.211 117.004 258.211 116.406C258.211 115.535 257.559 115 256.465 115H254V120.637H256.531ZM255.18 115.875H256.164C256.727 115.875 257.051 116.148 257.051 116.609C257.051 117.078 256.703 117.344 256.066 117.344H255.18V115.875ZM255.18 119.758V118.121H256.203C256.898 118.121 257.277 118.402 257.277 118.93C257.277 119.469 256.91 119.758 256.23 119.758H255.18Z" fill="white"/>
<path d="M263.332 116.336H262.195V118.82C262.195 119.41 261.891 119.773 261.324 119.773C260.801 119.773 260.531 119.465 260.531 118.855V116.336H259.395V119.137C259.395 120.137 259.973 120.727 260.902 120.727C261.555 120.727 261.957 120.445 262.16 119.945H262.23V120.637H263.332V116.336Z" fill="white"/>
<path d="M264.797 115.309V116.375H264.125V117.238H264.797V119.477C264.797 120.312 265.211 120.652 266.258 120.652C266.477 120.652 266.688 120.629 266.828 120.602V119.762C266.719 119.773 266.641 119.781 266.492 119.781C266.105 119.781 265.934 119.602 265.934 119.215V117.238H266.828V116.375H265.934V115.309H264.797Z" fill="white"/>
<path d="M268.141 115.309V116.375H267.469V117.238H268.141V119.477C268.141 120.312 268.555 120.652 269.602 120.652C269.82 120.652 270.031 120.629 270.172 120.602V119.762C270.062 119.773 269.984 119.781 269.836 119.781C269.449 119.781 269.277 119.602 269.277 119.215V117.238H270.172V116.375H269.277V115.309H268.141Z" fill="white"/>
<path d="M273 120.727C274.324 120.727 275.121 119.891 275.121 118.484C275.121 117.09 274.312 116.242 273 116.242C271.688 116.242 270.879 117.094 270.879 118.484C270.879 119.887 271.676 120.727 273 120.727ZM273 119.828C272.391 119.828 272.047 119.336 272.047 118.484C272.047 117.641 272.395 117.145 273 117.145C273.602 117.145 273.953 117.641 273.953 118.484C273.953 119.336 273.605 119.828 273 119.828Z" fill="white"/>
<path d="M276.051 120.637H277.188V118.148C277.188 117.566 277.512 117.191 278.039 117.191C278.578 117.191 278.832 117.508 278.832 118.113V120.637H279.969V117.855C279.969 116.828 279.453 116.242 278.496 116.242C277.859 116.242 277.422 116.543 277.223 117.027H277.152V116.336H276.051V120.637Z" fill="white"/>
<path d="M198 118C198 111.373 203.373 106 210 106H229.5C236.127 106 241.5 111.373 241.5 118C241.5 124.627 236.127 130 229.5 130H210C203.373 130 198 124.627 198 118Z" fill="#009990"/>
<path d="M209.031 120.637C210.234 120.637 210.98 120.016 210.98 119.023C210.98 118.297 210.438 117.738 209.691 117.68V117.609C210.27 117.523 210.711 117.004 210.711 116.406C210.711 115.535 210.059 115 208.965 115H206.5V120.637H209.031ZM207.68 115.875H208.664C209.227 115.875 209.551 116.148 209.551 116.609C209.551 117.078 209.203 117.344 208.566 117.344H207.68V115.875ZM207.68 119.758V118.121H208.703C209.398 118.121 209.777 118.402 209.777 118.93C209.777 119.469 209.41 119.758 208.73 119.758H207.68Z" fill="white"/>
<path d="M215.832 116.336H214.695V118.82C214.695 119.41 214.391 119.773 213.824 119.773C213.301 119.773 213.031 119.465 213.031 118.855V116.336H211.895V119.137C211.895 120.137 212.473 120.727 213.402 120.727C214.055 120.727 214.457 120.445 214.66 119.945H214.73V120.637H215.832V116.336Z" fill="white"/>
<path d="M217.297 115.309V116.375H216.625V117.238H217.297V119.477C217.297 120.312 217.711 120.652 218.758 120.652C218.977 120.652 219.188 120.629 219.328 120.602V119.762C219.219 119.773 219.141 119.781 218.992 119.781C218.605 119.781 218.434 119.602 218.434 119.215V117.238H219.328V116.375H218.434V115.309H217.297Z" fill="white"/>
<path d="M220.641 115.309V116.375H219.969V117.238H220.641V119.477C220.641 120.312 221.055 120.652 222.102 120.652C222.32 120.652 222.531 120.629 222.672 120.602V119.762C222.562 119.773 222.484 119.781 222.336 119.781C221.949 119.781 221.777 119.602 221.777 119.215V117.238H222.672V116.375H221.777V115.309H220.641Z" fill="white"/>
<path d="M225.5 120.727C226.824 120.727 227.621 119.891 227.621 118.484C227.621 117.09 226.812 116.242 225.5 116.242C224.188 116.242 223.379 117.094 223.379 118.484C223.379 119.887 224.176 120.727 225.5 120.727ZM225.5 119.828C224.891 119.828 224.547 119.336 224.547 118.484C224.547 117.641 224.895 117.145 225.5 117.145C226.102 117.145 226.453 117.641 226.453 118.484C226.453 119.336 226.105 119.828 225.5 119.828Z" fill="white"/>
<path d="M228.551 120.637H229.688V118.148C229.688 117.566 230.012 117.191 230.539 117.191C231.078 117.191 231.332 117.508 231.332 118.113V120.637H232.469V117.855C232.469 116.828 231.953 116.242 230.996 116.242C230.359 116.242 229.922 116.543 229.723 117.027H229.652V116.336H228.551V120.637Z" fill="white"/>
<path d="M0 0V-2H-2V0H0ZM325 0H327V-2H325V0ZM325 180V182H327V180H325ZM0 180H-2V182H0V180ZM0 2H325V-2H0V2ZM323 0V180H327V0H323ZM325 178H0V182H325V178ZM2 180V0H-2V180H2Z" fill="#767676"/>
</svg>
