<svg width="325" height="180" viewBox="0 0 325 180" fill="none" xmlns="http://www.w3.org/2000/svg">
<rect width="325" height="180" fill="#F6FDF5"/>
<path fill-rule="evenodd" clip-rule="evenodd" d="M91 20C91 19.4477 91.4477 19 92 19H95.8889C96.4412 19 96.8889 19.4477 96.8889 20C96.8889 20.5523 96.4412 21 95.8889 21H93V23.8889C93 24.4412 92.5523 24.8889 92 24.8889C91.4477 24.8889 91 24.4412 91 23.8889V20ZM102.667 20C102.667 19.4477 103.114 19 103.667 19H111.444C111.997 19 112.444 19.4477 112.444 20C112.444 20.5523 111.997 21 111.444 21H103.667C103.114 21 102.667 20.5523 102.667 20ZM118.222 20C118.222 19.4477 118.67 19 119.222 19H127C127.552 19 128 19.4477 128 20C128 20.5523 127.552 21 127 21H119.222C118.67 21 118.222 20.5523 118.222 20ZM133.778 20C133.778 19.4477 134.225 19 134.778 19H142.556C143.108 19 143.556 19.4477 143.556 20C143.556 20.5523 143.108 21 142.556 21H134.778C134.225 21 133.778 20.5523 133.778 20ZM149.333 20C149.333 19.4477 149.781 19 150.333 19H158.111C158.663 19 159.111 19.4477 159.111 20C159.111 20.5523 158.663 21 158.111 21H150.333C149.781 21 149.333 20.5523 149.333 20ZM164.889 20C164.889 19.4477 165.337 19 165.889 19H173.667C174.219 19 174.667 19.4477 174.667 20C174.667 20.5523 174.219 21 173.667 21H165.889C165.337 21 164.889 20.5523 164.889 20ZM180.444 20C180.444 19.4477 180.892 19 181.444 19H189.222C189.775 19 190.222 19.4477 190.222 20C190.222 20.5523 189.775 21 189.222 21H181.444C180.892 21 180.444 20.5523 180.444 20ZM196 20C196 19.4477 196.448 19 197 19H204.778C205.33 19 205.778 19.4477 205.778 20C205.778 20.5523 205.33 21 204.778 21H197C196.448 21 196 20.5523 196 20ZM211.556 20C211.556 19.4477 212.003 19 212.556 19H220.333C220.886 19 221.333 19.4477 221.333 20C221.333 20.5523 220.886 21 220.333 21H212.556C212.003 21 211.556 20.5523 211.556 20ZM227.111 20C227.111 19.4477 227.559 19 228.111 19H232C232.552 19 233 19.4477 233 20V23.8889C233 24.4412 232.552 24.8889 232 24.8889C231.448 24.8889 231 24.4412 231 23.8889V21H228.111C227.559 21 227.111 20.5523 227.111 20ZM232 30.6667C232.552 30.6667 233 31.1144 233 31.6667V39.4444C233 39.9967 232.552 40.4444 232 40.4444C231.448 40.4444 231 39.9967 231 39.4444V31.6667C231 31.1144 231.448 30.6667 232 30.6667ZM92 30.6667C92.5523 30.6667 93 31.1144 93 31.6667V39.4444C93 39.9967 92.5523 40.4444 92 40.4444C91.4477 40.4444 91 39.9967 91 39.4444V31.6667C91 31.1144 91.4477 30.6667 92 30.6667ZM232 46.2222C232.552 46.2222 233 46.6699 233 47.2222V55C233 55.5523 232.552 56 232 56C231.448 56 231 55.5523 231 55V47.2222C231 46.6699 231.448 46.2222 232 46.2222ZM92 46.2222C92.5523 46.2222 93 46.6699 93 47.2222V55C93 55.5523 92.5523 56 92 56C91.4477 56 91 55.5523 91 55V47.2222C91 46.6699 91.4477 46.2222 92 46.2222ZM232 61.7778C232.552 61.7778 233 62.2255 233 62.7778V70.5555C233 71.1078 232.552 71.5555 232 71.5555C231.448 71.5555 231 71.1078 231 70.5555V62.7778C231 62.2255 231.448 61.7778 232 61.7778ZM92 61.7778C92.5523 61.7778 93 62.2255 93 62.7778V70.5556C93 71.1078 92.5523 71.5556 92 71.5556C91.4477 71.5556 91 71.1078 91 70.5556V62.7778C91 62.2255 91.4477 61.7778 92 61.7778ZM232 77.3333C232.552 77.3333 233 77.781 233 78.3333V86.1111C233 86.6634 232.552 87.1111 232 87.1111C231.448 87.1111 231 86.6634 231 86.1111V78.3333C231 77.781 231.448 77.3333 232 77.3333ZM92 77.3333C92.5523 77.3333 93 77.7811 93 78.3333V86.1111C93 86.6634 92.5523 87.1111 92 87.1111C91.4477 87.1111 91 86.6634 91 86.1111V78.3333C91 77.7811 91.4477 77.3333 92 77.3333ZM232 92.8889C232.552 92.8889 233 93.3366 233 93.8889V101.667C233 102.219 232.552 102.667 232 102.667C231.448 102.667 231 102.219 231 101.667V93.8889C231 93.3366 231.448 92.8889 232 92.8889ZM92 92.8889C92.5523 92.8889 93 93.3366 93 93.8889V101.667C93 102.219 92.5523 102.667 92 102.667C91.4477 102.667 91 102.219 91 101.667V93.8889C91 93.3366 91.4477 92.8889 92 92.8889ZM232 108.444C232.552 108.444 233 108.892 233 109.444V117.222C233 117.775 232.552 118.222 232 118.222C231.448 118.222 231 117.775 231 117.222V109.444C231 108.892 231.448 108.444 232 108.444ZM92 108.444C92.5523 108.444 93 108.892 93 109.444V117.222C93 117.775 92.5523 118.222 92 118.222C91.4477 118.222 91 117.775 91 117.222V109.444C91 108.892 91.4477 108.444 92 108.444ZM232 124C232.552 124 233 124.448 233 125V132.778C233 133.33 232.552 133.778 232 133.778C231.448 133.778 231 133.33 231 132.778V125C231 124.448 231.448 124 232 124ZM92 124C92.5523 124 93 124.448 93 125V132.778C93 133.33 92.5523 133.778 92 133.778C91.4477 133.778 91 133.33 91 132.778V125C91 124.448 91.4477 124 92 124ZM232 139.556C232.552 139.556 233 140.003 233 140.556V148.333C233 148.886 232.552 149.333 232 149.333C231.448 149.333 231 148.886 231 148.333V140.556C231 140.003 231.448 139.556 232 139.556ZM92 139.556C92.5523 139.556 93 140.003 93 140.556V148.333C93 148.886 92.5523 149.333 92 149.333C91.4477 149.333 91 148.886 91 148.333V140.556C91 140.003 91.4477 139.556 92 139.556ZM92 155.111C92.5523 155.111 93 155.559 93 156.111V159H95.8889C96.4412 159 96.8889 159.448 96.8889 160C96.8889 160.552 96.4412 161 95.8889 161H92C91.4477 161 91 160.552 91 160V156.111C91 155.559 91.4477 155.111 92 155.111ZM232 155.111C232.552 155.111 233 155.559 233 156.111V160C233 160.552 232.552 161 232 161H228.111C227.559 161 227.111 160.552 227.111 160C227.111 159.448 227.559 159 228.111 159H231V156.111C231 155.559 231.448 155.111 232 155.111ZM102.667 160C102.667 159.448 103.114 159 103.667 159H111.444C111.997 159 112.444 159.448 112.444 160C112.444 160.552 111.997 161 111.444 161H103.667C103.114 161 102.667 160.552 102.667 160ZM118.222 160C118.222 159.448 118.67 159 119.222 159H127C127.552 159 128 159.448 128 160C128 160.552 127.552 161 127 161H119.222C118.67 161 118.222 160.552 118.222 160ZM133.778 160C133.778 159.448 134.225 159 134.778 159H142.556C143.108 159 143.556 159.448 143.556 160C143.556 160.552 143.108 161 142.556 161H134.778C134.225 161 133.778 160.552 133.778 160ZM149.333 160C149.333 159.448 149.781 159 150.333 159H158.111C158.663 159 159.111 159.448 159.111 160C159.111 160.552 158.663 161 158.111 161H150.333C149.781 161 149.333 160.552 149.333 160ZM164.889 160C164.889 159.448 165.337 159 165.889 159H173.667C174.219 159 174.667 159.448 174.667 160C174.667 160.552 174.219 161 173.667 161H165.889C165.337 161 164.889 160.552 164.889 160ZM180.444 160C180.444 159.448 180.892 159 181.444 159H189.222C189.775 159 190.222 159.448 190.222 160C190.222 160.552 189.775 161 189.222 161H181.444C180.892 161 180.444 160.552 180.444 160ZM196 160C196 159.448 196.448 159 197 159H204.778C205.33 159 205.778 159.448 205.778 160C205.778 160.552 205.33 161 204.778 161H197C196.448 161 196 160.552 196 160ZM211.556 160C211.556 159.448 212.003 159 212.556 159H220.333C220.886 159 221.333 159.448 221.333 160C221.333 160.552 220.886 161 220.333 161H212.556C212.003 161 211.556 160.552 211.556 160Z" fill="#005C62"/>
<path fill-rule="evenodd" clip-rule="evenodd" d="M158.344 39.2366C159.541 39.0805 160.761 39 162 39C163.239 39 164.459 39.0805 165.656 39.2366C166.203 39.308 166.589 39.8099 166.518 40.3576C166.447 40.9052 165.945 41.2912 165.397 41.2198C164.286 41.0748 163.152 41 162 41C160.848 41 159.714 41.0748 158.603 41.2198C158.055 41.2912 157.553 40.9052 157.482 40.3576C157.411 39.8099 157.797 39.308 158.344 39.2366ZM152.588 41.6657C152.8 42.1759 152.558 42.7609 152.048 42.9725C149.935 43.8488 147.962 44.996 146.172 46.3711C145.734 46.7077 145.106 46.6255 144.77 46.1875C144.433 45.7496 144.516 45.1218 144.954 44.7853C146.88 43.3049 149.005 42.0692 151.282 41.125C151.792 40.9135 152.377 41.1556 152.588 41.6657ZM171.412 41.6657C171.623 41.1556 172.208 40.9135 172.718 41.125C174.995 42.0692 177.12 43.3049 179.047 44.7853C179.484 45.1218 179.567 45.7496 179.23 46.1875C178.894 46.6255 178.266 46.7077 177.828 46.3711C176.038 44.996 174.065 43.8488 171.952 42.9725C171.442 42.7609 171.2 42.1759 171.412 41.6657ZM141.188 49.7699C141.625 50.1064 141.708 50.7342 141.371 51.1722C139.996 52.9616 138.849 54.9346 137.973 57.0478C137.761 57.5579 137.176 57.8 136.666 57.5885C136.156 57.3769 135.913 56.7918 136.125 56.2817C137.069 54.0048 138.305 51.8799 139.785 49.9535C140.122 49.5156 140.75 49.4334 141.188 49.7699ZM182.812 49.7699C183.25 49.4334 183.878 49.5156 184.215 49.9535C185.695 51.8799 186.931 54.0048 187.875 56.2817C188.087 56.7918 187.844 57.3769 187.334 57.5885C186.824 57.8 186.239 57.5579 186.028 57.0478C185.151 54.9346 184.004 52.9616 182.629 51.1722C182.292 50.7342 182.375 50.1064 182.812 49.7699ZM135.358 62.482C135.905 62.5534 136.291 63.0553 136.22 63.6029C136.075 64.7143 136 65.8482 136 67C136 68.1518 136.075 69.2857 136.22 70.3971C136.291 70.9447 135.905 71.4466 135.358 71.5181C134.81 71.5895 134.308 71.2034 134.237 70.6558C134.08 69.4589 134 68.2386 134 67C134 65.7614 134.08 64.5411 134.237 63.3442C134.308 62.7966 134.81 62.4105 135.358 62.482ZM188.642 62.482C189.19 62.4105 189.692 62.7966 189.763 63.3442C189.92 64.5411 190 65.7614 190 67C190 68.2386 189.92 69.4589 189.763 70.6558C189.692 71.2034 189.19 71.5895 188.642 71.5181C188.095 71.4466 187.709 70.9447 187.78 70.3971C187.925 69.2857 188 68.1518 188 67C188 65.8482 187.925 64.7143 187.78 63.6029C187.709 63.0553 188.095 62.5534 188.642 62.482ZM136.666 76.4115C137.176 76.2 137.761 76.4421 137.973 76.9522C138.849 79.0654 139.996 81.0384 141.371 82.8278C141.708 83.2658 141.625 83.8936 141.188 84.2301C140.75 84.5666 140.122 84.4844 139.785 84.0465C138.305 82.1201 137.069 79.9952 136.125 77.7183C135.913 77.2082 136.156 76.6231 136.666 76.4115ZM187.334 76.4115C187.844 76.6231 188.087 77.2082 187.875 77.7183C186.931 79.9952 185.695 82.1201 184.215 84.0465C183.878 84.4844 183.25 84.5666 182.812 84.2301C182.375 83.8936 182.292 83.2658 182.629 82.8278C184.004 81.0384 185.151 79.0654 186.028 76.9522C186.239 76.4421 186.824 76.2 187.334 76.4115ZM144.77 87.8125C145.106 87.3745 145.734 87.2923 146.172 87.6289C147.962 89.004 149.935 90.1512 152.048 91.0275C152.558 91.2391 152.8 91.8241 152.588 92.3343C152.377 92.8444 151.792 93.0865 151.282 92.875C149.005 91.9308 146.88 90.6951 144.953 89.2147C144.516 88.8782 144.433 88.2504 144.77 87.8125ZM179.23 87.8125C179.567 88.2504 179.484 88.8782 179.046 89.2147C177.12 90.6951 174.995 91.9308 172.718 92.875C172.208 93.0865 171.623 92.8444 171.412 92.3343C171.2 91.8241 171.442 91.2391 171.952 91.0275C174.065 90.1512 176.038 89.004 177.828 87.6289C178.266 87.2923 178.894 87.3745 179.23 87.8125ZM157.482 93.6424C157.553 93.0948 158.055 92.7088 158.603 92.7802C159.714 92.9252 160.848 93 162 93C163.152 93 164.286 92.9252 165.397 92.7802C165.945 92.7088 166.447 93.0948 166.518 93.6424C166.589 94.1901 166.203 94.692 165.656 94.7634C164.459 94.9195 163.239 95 162 95C160.761 95 159.541 94.9195 158.344 94.7634C157.797 94.692 157.411 94.1901 157.482 93.6424Z" fill="#005C62"/>
<path fill-rule="evenodd" clip-rule="evenodd" d="M132 124C130.778 124 129.615 124.243 128.555 124.683C128.045 124.894 127.46 124.652 127.248 124.142C127.037 123.632 127.279 123.047 127.789 122.835C129.087 122.297 130.51 122 132 122H135.75C136.302 122 136.75 122.448 136.75 123C136.75 123.552 136.302 124 135.75 124H132ZM142.25 123C142.25 122.448 142.698 122 143.25 122H150.75C151.302 122 151.75 122.448 151.75 123C151.75 123.552 151.302 124 150.75 124H143.25C142.698 124 142.25 123.552 142.25 123ZM157.25 123C157.25 122.448 157.698 122 158.25 122H165.75C166.302 122 166.75 122.448 166.75 123C166.75 123.552 166.302 124 165.75 124H158.25C157.698 124 157.25 123.552 157.25 123ZM172.25 123C172.25 122.448 172.698 122 173.25 122H180.75C181.302 122 181.75 122.448 181.75 123C181.75 123.552 181.302 124 180.75 124H173.25C172.698 124 172.25 123.552 172.25 123ZM187.25 123C187.25 122.448 187.698 122 188.25 122H192C193.49 122 194.913 122.297 196.211 122.835C196.721 123.047 196.963 123.632 196.752 124.142C196.54 124.652 195.955 124.894 195.445 124.683C194.385 124.243 193.222 124 192 124H188.25C187.698 124 187.25 123.552 187.25 123ZM123.142 128.248C123.652 128.46 123.894 129.045 123.683 129.555C123.243 130.615 123 131.778 123 133C123 134.222 123.243 135.385 123.683 136.445C123.894 136.955 123.652 137.54 123.142 137.752C122.632 137.963 122.047 137.721 121.835 137.211C121.297 135.913 121 134.49 121 133C121 131.51 121.297 130.087 121.835 128.789C122.047 128.279 122.632 128.037 123.142 128.248ZM200.858 128.248C201.368 128.037 201.953 128.279 202.165 128.789C202.703 130.087 203 131.51 203 133C203 134.49 202.703 135.913 202.165 137.211C201.953 137.721 201.368 137.963 200.858 137.752C200.348 137.54 200.106 136.955 200.317 136.445C200.757 135.385 201 134.222 201 133C201 131.778 200.757 130.615 200.317 129.555C200.106 129.045 200.348 128.46 200.858 128.248ZM127.248 141.858C127.46 141.348 128.045 141.106 128.555 141.317C129.615 141.757 130.778 142 132 142H135.75C136.302 142 136.75 142.448 136.75 143C136.75 143.552 136.302 144 135.75 144H132C130.51 144 129.087 143.703 127.789 143.165C127.279 142.953 127.037 142.368 127.248 141.858ZM196.752 141.858C196.963 142.368 196.721 142.953 196.211 143.165C194.913 143.703 193.49 144 192 144H188.25C187.698 144 187.25 143.552 187.25 143C187.25 142.448 187.698 142 188.25 142H192C193.222 142 194.385 141.757 195.445 141.317C195.955 141.106 196.54 141.348 196.752 141.858ZM142.25 143C142.25 142.448 142.698 142 143.25 142H150.75C151.302 142 151.75 142.448 151.75 143C151.75 143.552 151.302 144 150.75 144H143.25C142.698 144 142.25 143.552 142.25 143ZM157.25 143C157.25 142.448 157.698 142 158.25 142H165.75C166.302 142 166.75 142.448 166.75 143C166.75 143.552 166.302 144 165.75 144H158.25C157.698 144 157.25 143.552 157.25 143ZM172.25 143C172.25 142.448 172.698 142 173.25 142H180.75C181.302 142 181.75 142.448 181.75 143C181.75 143.552 181.302 144 180.75 144H173.25C172.698 144 172.25 143.552 172.25 143Z" fill="#005C62"/>
<path fill-rule="evenodd" clip-rule="evenodd" d="M228.6 102C228.6 102 223.57 97.8745 221.8 94.7143C220.031 91.5541 216.677 87.5282 217.267 85C217.857 82.4718 220.031 81.6751 221.8 83.5712C223.57 85.4673 224.762 89.5756 225.942 88.9436C227.122 88.3115 226.237 82.3071 225.057 78.8309C223.877 75.3547 222.647 68 225.057 68C227.467 68 227.467 70.4286 228.6 74.0714C229.734 77.7143 228.849 82.5714 229.734 82.5714C230.618 82.5714 230.956 81.723 230.956 80.1429C230.956 79.7134 231.035 79.3505 231.194 79.0497C231.622 78.2434 232.631 77.8828 234.267 77.8828C236.514 77.8828 235.4 82.5714 236.534 82.5714C237.667 82.5714 237.667 82.671 237.667 80.1429C237.667 77.6147 238.718 77.8828 240.985 77.8828C243.251 77.8828 242.154 82.5714 243.334 82.5714C244.513 82.5714 243.334 80.1429 244.467 80.1429C245.6 80.1429 246.734 80.5259 246.734 86.2143C246.734 91.9027 247.37 92.1861 245.6 94.7143C243.831 97.2424 242.2 99.5714 242.2 99.5714C242.2 99.5714 242.2 102 240.985 102C239.769 102 239.142 99.5714 237.667 99.5714C236.192 99.5714 235.4 102 235.4 102H228.6ZM235.402 94.7153C235.402 95.3732 235.928 97.1439 236.535 97.1439C237.161 97.1439 237.669 95.3842 237.669 94.7153V89.8582C237.669 89.2003 237.143 87.4296 236.535 87.4296C235.91 87.4296 235.402 89.1893 235.402 89.8582V94.7153ZM239.936 94.7153C239.936 95.3732 240.462 97.1439 241.069 97.1439C241.695 97.1439 242.203 95.3842 242.203 94.7153V89.8582C242.203 89.2003 241.677 87.4296 241.069 87.4296C240.443 87.4296 239.936 89.1893 239.936 89.8582V94.7153ZM230.867 94.7153C230.867 95.3732 231.393 97.1439 232 97.1439C232.626 97.1439 233.134 95.3842 233.134 94.7153V89.8582C233.134 89.2003 232.608 87.4296 232 87.4296C231.375 87.4296 230.867 89.1893 230.867 89.8582V94.7153Z" fill="white"/>
<path fill-rule="evenodd" clip-rule="evenodd" d="M227.332 103.546L228.6 102H235.4C235.4 102 236.192 99.5714 237.667 99.5714C238.44 99.5714 238.98 100.239 239.494 100.874C239.961 101.45 240.406 102 240.985 102C242.2 102 242.2 99.5714 242.2 99.5714L245.6 94.7143C246.925 92.8219 246.902 92.1872 246.806 89.6018C246.774 88.7333 246.734 87.6447 246.734 86.2143C246.734 80.7029 245.67 80.1718 244.573 80.1441C244.538 80.1432 244.502 80.1429 244.467 80.1429C244.119 80.1429 243.989 80.3722 243.942 80.69C243.913 80.884 243.915 81.111 243.918 81.3388C243.924 81.952 243.929 82.5714 243.334 82.5714C242.839 82.5714 242.745 81.7479 242.635 80.7911C242.634 80.7825 242.633 80.7738 242.632 80.7651C242.574 80.2616 242.511 79.7231 242.383 79.2495C242.174 78.4807 241.794 77.8828 240.985 77.8828C240.776 77.8828 240.578 77.8806 240.39 77.8784C238.776 77.8599 237.91 77.85 237.711 79.3572C237.682 79.5832 237.667 79.8434 237.667 80.1429C237.667 80.4818 237.667 80.7735 237.664 81.0246C237.654 81.9309 237.609 82.3073 237.399 82.463C237.234 82.586 236.967 82.5714 236.534 82.5714C236.117 82.5714 236.004 81.9373 235.916 81.1354C235.905 81.0318 235.894 80.9254 235.883 80.8172C235.86 80.5971 235.837 80.3694 235.807 80.1429C235.777 79.9078 235.74 79.674 235.692 79.4507C235.504 78.5876 235.138 77.8828 234.267 77.8828C232.692 77.8828 231.699 78.2168 231.245 78.9606C231.227 78.9896 231.21 79.0193 231.194 79.0497C231.035 79.3505 230.956 79.7134 230.956 80.1429C230.956 80.4655 230.942 80.7575 230.912 81.0182C230.795 82.034 230.438 82.5714 229.734 82.5714C229.386 82.5714 229.312 81.8236 229.281 80.6949C229.276 80.5196 229.272 80.3351 229.268 80.1429C229.267 80.0696 229.266 79.9952 229.264 79.9197C229.257 79.4917 229.248 79.0297 229.231 78.5475C229.179 77.1125 229.044 75.4988 228.6 74.0714C228.362 73.3054 228.174 72.5931 228.003 71.9458C227.36 69.5146 226.96 68 225.057 68C222.647 68 223.877 75.3547 225.057 78.8309C225.898 81.3072 226.588 85.0664 226.49 87.2527C226.49 87.2543 226.49 87.2559 226.489 87.2575C226.449 88.1377 226.281 88.7621 225.942 88.9436C225.45 89.207 224.956 88.6467 224.419 87.7663C224.419 87.7661 224.419 87.7664 224.419 87.7663C224.195 87.399 223.963 86.9756 223.721 86.5336C223.152 85.4933 222.524 84.347 221.8 83.5712C220.031 81.6751 217.857 82.4718 217.267 85C216.828 86.8802 218.571 89.5889 220.221 92.1537C220.789 93.0376 221.347 93.9044 221.8 94.7143C223.57 97.8745 228.6 102 228.6 102C227.332 103.546 227.332 103.547 227.332 103.546L227.331 103.546L227.313 103.53L227.265 103.491C227.224 103.457 227.165 103.408 227.091 103.345C226.942 103.22 226.73 103.039 226.471 102.812C225.954 102.36 225.244 101.723 224.475 100.982C222.988 99.5472 221.096 97.5507 220.055 95.6915C219.648 94.9643 219.141 94.1725 218.58 93.3007L218.528 93.2188C217.995 92.391 217.42 91.4977 216.914 90.6158C216.394 89.7099 215.9 88.737 215.579 87.7688C215.264 86.8187 215.053 85.6857 215.319 84.5455C215.717 82.8397 216.761 81.2924 218.461 80.7283C220.238 80.1388 222.002 80.8556 223.262 82.2066C223.563 82.5289 223.85 82.9008 224.119 83.2915C223.873 81.9299 223.53 80.5543 223.163 79.4737C222.523 77.5883 221.882 74.7099 221.716 72.2468C221.634 71.0416 221.651 69.7441 221.947 68.6718C222.095 68.1319 222.357 67.4894 222.857 66.9557C223.411 66.3638 224.176 66 225.057 66C226.022 66 226.939 66.2537 227.716 66.8732C228.446 67.456 228.871 68.222 229.153 68.9001C229.434 69.5738 229.647 70.3446 229.84 71.0713C229.873 71.195 229.906 71.3191 229.939 71.4439C230.11 72.0907 230.286 72.7562 230.51 73.4773C230.816 74.4607 230.993 75.5015 231.097 76.4979C232.082 76.0043 233.244 75.8828 234.267 75.8828C234.918 75.8828 235.548 76.0601 236.095 76.4353C236.317 76.5882 236.507 76.7604 236.668 76.9403C236.941 76.6521 237.268 76.4175 237.646 76.245C238.294 75.9494 238.969 75.8979 239.441 75.8816C239.747 75.8711 240.129 75.8752 240.487 75.8791C240.662 75.881 240.832 75.8828 240.985 75.8828C241.635 75.8828 242.263 76.058 242.81 76.4285C243.337 76.7859 243.681 77.2516 243.907 77.6746C243.992 77.834 244.065 77.9984 244.13 78.1641C244.244 78.1495 244.357 78.1429 244.467 78.1429C244.837 78.1429 245.479 78.1663 246.15 78.4814C246.872 78.8206 247.415 79.3913 247.795 80.1133C248.469 81.394 248.734 83.3566 248.734 86.2143C248.734 87.5974 248.772 88.6508 248.804 89.5128L248.807 89.5982C248.837 90.3957 248.864 91.1216 248.827 91.7623C248.787 92.479 248.667 93.151 248.38 93.8651C248.107 94.5449 247.714 95.1821 247.239 95.8612L244.162 100.257C244.134 100.535 244.083 100.894 243.989 101.271C243.884 101.687 243.689 102.286 243.287 102.821C242.842 103.413 242.073 104 240.985 104C239.967 104 239.238 103.481 238.822 103.107C238.467 102.786 238.145 102.387 237.939 102.132C237.914 102.101 237.892 102.073 237.87 102.047C237.801 101.961 237.741 101.889 237.689 101.827C237.683 101.835 237.678 101.843 237.673 101.851C237.555 102.039 237.456 102.242 237.386 102.406C237.352 102.486 237.328 102.549 237.313 102.589C237.306 102.608 237.301 102.622 237.299 102.627L237.299 102.63L236.852 104H227.885L227.332 103.546ZM235.525 95.501C235.515 95.4635 235.506 95.4264 235.498 95.3897C235.437 95.1243 235.402 94.8834 235.402 94.7153V89.8582C235.402 89.6897 235.434 89.4522 235.492 89.191C235.501 89.1525 235.51 89.1136 235.52 89.0742C235.705 88.3195 236.09 87.4296 236.536 87.4296C236.966 87.4296 237.356 88.3199 237.546 89.0724C237.556 89.1099 237.565 89.1471 237.573 89.1837C237.634 89.4491 237.669 89.69 237.669 89.8582V94.7153C237.669 94.8837 237.637 95.1213 237.579 95.3825C237.57 95.4209 237.561 95.4599 237.551 95.4992C237.366 96.2539 236.981 97.1439 236.536 97.1439C236.105 97.1439 235.715 96.2536 235.525 95.501ZM240.059 95.501C240.049 95.4635 240.04 95.4264 240.032 95.3897C239.97 95.1243 239.936 94.8834 239.936 94.7153V89.8582C239.936 89.6897 239.968 89.4522 240.026 89.191C240.035 89.1525 240.044 89.1136 240.054 89.0742C240.239 88.3195 240.624 87.4296 241.069 87.4296C241.5 87.4296 241.89 88.3199 242.08 89.0724C242.09 89.1099 242.099 89.1471 242.107 89.1837C242.168 89.4491 242.203 89.69 242.203 89.8582V94.7153C242.203 94.8837 242.17 95.1213 242.112 95.3825C242.104 95.4209 242.095 95.4599 242.085 95.4992C241.9 96.2539 241.514 97.1439 241.069 97.1439C240.638 97.1439 240.249 96.2536 240.059 95.501ZM230.99 95.501C230.98 95.4635 230.971 95.4264 230.963 95.3897C230.902 95.1243 230.867 94.8834 230.867 94.7153V89.8582C230.867 89.6897 230.899 89.4522 230.957 89.191C230.966 89.1525 230.975 89.1136 230.985 89.0742C231.17 88.3195 231.555 87.4296 232.001 87.4296C232.431 87.4296 232.821 88.3199 233.011 89.0724C233.021 89.1099 233.03 89.1471 233.038 89.1837C233.1 89.4491 233.134 89.69 233.134 89.8582V94.7153C233.134 94.8837 233.102 95.1213 233.044 95.3825C233.035 95.4209 233.026 95.4599 233.016 95.4992C232.831 96.2539 232.446 97.1439 232.001 97.1439C231.57 97.1439 231.18 96.2536 230.99 95.501Z" fill="#005C62"/>
<path d="M0 0V-2H-2V0H0ZM325 0H327V-2H325V0ZM325 180V182H327V180H325ZM0 180H-2V182H0V180ZM0 2H325V-2H0V2ZM323 0V180H327V0H323ZM325 178H0V182H325V178ZM2 180V0H-2V180H2Z" fill="#767676"/>
</svg>
