<svg xmlns="http://www.w3.org/2000/svg" width="312" height="180" fill="none"><g clip-path="url(#a)"><path fill="#F6FDF5" d="M0 0h312v180H0z"/><rect width="196" height="130" x="58" y="25" fill="#fff" rx="23"/><circle cx="85" cy="52" r="12" fill="#005C62"/><g clip-path="url(#b)"><path fill="#C3F9C2" d="M79.514 52a5.485 5.485 0 1 1 10.971 0 5.485 5.485 0 0 1-10.97 0Zm3.517 1.49a.343.343 0 1 0-.519.45c.476.548 1.307 1.146 2.469 1.146 1.2 0 2.03-.598 2.507-1.146a.343.343 0 1 0-.519-.45 2.59 2.59 0 0 1-1.988.91c-.91 0-1.567-.467-1.95-.91Zm.263-3.204a.685.685 0 1 0-.001 1.37.685.685 0 0 0 .001-1.37Zm3.429 1.371a.686.686 0 1 0-.001-1.372.686.686 0 0 0 .001 1.373Z"/></g><rect width="44" height="4" x="105" y="44" fill="#009990" fill-opacity=".5" rx="2"/><rect width="81" height="8" x="105" y="52" fill="#009990" rx="4"/><path fill="#005C62" d="M194 52c0-6.627 5.434-12 12.138-12h19.724C232.566 40 238 45.373 238 52s-5.434 12-12.138 12h-19.724C199.434 64 194 58.627 194 52Z"/><path fill="#fff" d="M205.158 54.637c1.217 0 1.972-.621 1.972-1.614 0-.726-.55-1.285-1.304-1.343v-.07a1.223 1.223 0 0 0 1.031-1.204c0-.87-.66-1.406-1.766-1.406h-2.493v5.637h2.56Zm-1.367-4.762h.996c.569 0 .897.273.897.734 0 .47-.352.735-.996.735h-.897v-1.469Zm0 3.883V52.12h1.035c.703 0 1.087.281 1.087.809 0 .539-.372.828-1.059.828h-1.063ZM212.037 50.336h-1.15v2.484c0 .59-.308.953-.881.953-.529 0-.802-.308-.802-.918v-2.52h-1.15v2.802c0 1 .585 1.59 1.525 1.59.66 0 1.067-.282 1.273-.782h.071v.692h1.114v-4.301ZM213.519 49.309v1.066h-.68v.863h.68v2.239c0 .836.418 1.175 1.477 1.175.222 0 .435-.023.577-.05v-.84c-.11.011-.189.02-.34.02-.391 0-.565-.18-.565-.567v-1.977h.905v-.863h-.905v-1.066h-1.149ZM216.901 49.309v1.066h-.68v.863h.68v2.239c0 .836.419 1.175 1.478 1.175.221 0 .434-.023.576-.05v-.84c-.11.011-.189.02-.339.02-.392 0-.565-.18-.565-.567v-1.977h.904v-.863h-.904v-1.066h-1.15ZM221.816 54.727c1.339 0 2.146-.836 2.146-2.243 0-1.394-.818-2.242-2.146-2.242-1.328 0-2.145.852-2.145 2.242 0 1.403.806 2.243 2.145 2.243Zm0-.899c-.616 0-.964-.492-.964-1.344 0-.843.352-1.34.964-1.34.609 0 .964.497.964 1.34 0 .852-.352 1.344-.964 1.344ZM224.902 54.637h1.15v-2.489c0-.582.328-.957.861-.957.545 0 .802.317.802.922v2.524h1.15v-2.782c0-1.027-.522-1.613-1.49-1.613-.644 0-1.086.301-1.288.785h-.071v-.691h-1.114v4.3Z"/><g clip-path="url(#c)"><path fill="#005C62" d="M129 72h54v72h-54z"/><g clip-path="url(#d)"><path fill="#C3F9C2" d="M146 93.973c0-1.09.896-1.973 2-1.973h16c1.106 0 2 .883 2 1.973 0 1.089-.894 1.972-2 1.972h-1.844l.713 9.136a10.42 10.42 0 0 1 4.969 5.837l.062.185c.2.598.044 1.264-.331 1.776-.325.518-.925.82-1.569.82h-20a1.997 1.997 0 0 1-1.622-.82 1.946 1.946 0 0 1-.275-1.776l.062-.185a10.398 10.398 0 0 1 4.969-5.837l.712-9.136H148c-1.104 0-2-.883-2-1.972Zm12 21.698v5.918c0 1.091-.894 1.973-2 1.973-1.106 0-2-.882-2-1.973v-5.918h4Z"/></g><path fill="#005C62" d="M73 72h54v72H73z"/><g clip-path="url(#e)"><path fill="#C3F9C2" d="M99.85 101.294c.194.787.2 1.612.031 2.406a5.776 5.776 0 0 1-1.031 2.181c-.906 1.032-2.037 1.688-3.406 2V121.5c0 .663-.207 1.3-.675 1.769-.469.469-1.107.731-1.825.731a2.47 2.47 0 0 1-1.712-.731c-.469-.469-.788-1.106-.788-1.769v-13.619a5.788 5.788 0 0 1-3.3-1.981 5.303 5.303 0 0 1-1.034-2.181 5.351 5.351 0 0 1 .034-2.419l1.888-8.522A.999.999 0 0 1 89.118 92a1 1 0 0 1 .892 1v9h1.086l1.068-9.256a.838.838 0 0 1 .28-.53.802.802 0 0 1 .5-.212c.262 0 .462.076.612.213.157.136.2.325.282.53L94.906 102h1.038v-9c0-.246.144-.483.25-.668.218-.184.444-.302.687-.332.244-.027.438.039.694.183.2.145.337.36.394.601l1.881 8.51ZM114 121.5c0 .663-.263 1.3-.731 1.769A2.503 2.503 0 0 1 109 121.5V114h-1.05c-.525 0-1.05-.106-1.538-.306a4.143 4.143 0 0 1-1.3-.875c-.368-.375-.662-.819-.918-1.306a5.488 5.488 0 0 1-.244-1.538l-.006-7.112c.056-2.307.75-4.563 2.043-6.47a11.53 11.53 0 0 1 5.269-4.247c.25-.12.631-.166.956-.131a1.997 1.997 0 0 1 1.55 1.05c.157.288.182.609.238.935v27.5Z"/></g><path fill="#005C62" d="M185 72h54v72h-54z"/><path fill="#C3F9C2" d="M213.922 104.5c-1.122 0-5.933.109-9.033 4.703V104.5c0-2.898-2.389-5.25-5.333-5.25-.979 0-1.778.787-1.778 1.75s.799 1.75 1.778 1.75c.978 0 1.777.786 1.777 1.75v14c0 1.928 1.598 3.5 3.556 3.5h9.778c.493 0 .889-.39.889-.826v-.924c0-.964-.799-1.75-1.778-1.75H212l7.111-5.25v7.875A.88.88 0 0 0 220 122h1.778a.88.88 0 0 0 .889-.875v-11.271c-.57.143-1.16.246-1.778.246-3.433 0-6.306-2.406-6.967-5.6Zm8.745-5.25h-3.556l-3.555-3.5v7.35c0 2.898 2.389 5.201 5.333 5.201 2.944 0 5.333-2.303 5.333-5.201v-7.35l-3.555 3.5Zm-4 4.375a.88.88 0 0 1-.889-.875.88.88 0 0 1 .889-.875.88.88 0 0 1 .889.875.879.879 0 0 1-.889.875Zm4.444 0a.88.88 0 0 1-.889-.875.88.88 0 0 1 .889-.875.88.88 0 0 1 .889.875.878.878 0 0 1-.889.875Z"/></g><rect width="196" height="130" x="58" y="25" stroke="#005C62" stroke-width="2" rx="23"/></g><defs><clipPath id="a"><path fill="#fff" d="M0 0h312v180H0z"/></clipPath><clipPath id="b"><path fill="#fff" d="M79.514 46.515h10.971v10.97h-10.97z"/></clipPath><clipPath id="c"><rect width="166" height="72" x="73" y="72" fill="#fff" rx="8"/></clipPath><clipPath id="d"><path fill="#fff" d="M144 92h24v31.562h-24z"/></clipPath><clipPath id="e"><path fill="#fff" d="M86 92h28v32H86z"/></clipPath></defs></svg>