<svg width="312" height="180" viewBox="0 0 312 180" fill="none" xmlns="http://www.w3.org/2000/svg">

<path opacity="0.5" fill-rule="evenodd" clip-rule="evenodd" d="M32 33H280C280.552 33 281 32.5523 281 32C281 31.4477 280.552 31 280 31H32V33ZM280 91H32V89H280C280.552 89 281 89.4477 281 90C281 90.5523 280.552 91 280 91ZM280 149H32V147H280C280.552 147 281 147.448 281 148C281 148.552 280.552 149 280 149Z" fill="#009990" fill-opacity="0.5"/>
<path d="M56 134C56 131.791 57.7909 130 60 130H84C86.2091 130 88 131.791 88 134V147H56V134Z" fill="#70C9C0"/>
<path d="M98 103C98 100.791 99.7909 99 102 99H126C128.209 99 130 100.791 130 103V147H98V103Z" fill="#70C9C0"/>
<path d="M140 80C140 77.7909 141.791 76 144 76H168C170.209 76 172 77.7909 172 80V147H140V80Z" fill="#70C9C0"/>
<path d="M182 103C182 100.791 183.791 99 186 99H210C212.209 99 214 100.791 214 103V147H182V103Z" fill="#70C9C0"/>
<path d="M224 41C224 38.7909 225.791 37 228 37H252C254.209 37 256 38.7909 256 41V147H224V41Z" fill="#70C9C0"/>
<path d="M72 115L108 110.5L131 65.5L157 105.5L196.501 47L241 63.5" stroke="#005C62" stroke-width="3" stroke-linecap="round" stroke-linejoin="round"/>
</svg>
