<svg width="325" height="180" viewBox="0 0 325 180" fill="none" xmlns="http://www.w3.org/2000/svg">
<rect width="325" height="180" fill="#F6FDF5"/>
<path d="M95 66C95 61.5817 98.5817 58 103 58H111C115.418 58 119 61.5817 119 66V74C119 78.4183 115.418 82 111 82H103C98.5817 82 95 78.4183 95 74V66Z" fill="#005C62"/>
<path fill-rule="evenodd" clip-rule="evenodd" d="M105.5 75L101.366 70.874C100.878 70.387 100.878 69.597 101.366 69.1095C101.854 68.6225 102.646 68.6225 103.134 69.1095L105.5 71.471L110.866 66.1155C111.354 65.628 112.146 65.628 112.634 66.1155C113.122 66.6025 113.122 67.3925 112.634 67.8795L105.5 75Z" fill="white"/>
<path d="M95 106C95 101.582 98.5817 98 103 98H111C115.418 98 119 101.582 119 106V114C119 118.418 115.418 122 111 122H103C98.5817 122 95 118.418 95 114V106Z" fill="white"/>
<path fill-rule="evenodd" clip-rule="evenodd" d="M111 100H103C99.6863 100 97 102.686 97 106V114C97 117.314 99.6863 120 103 120H111C114.314 120 117 117.314 117 114V106C117 102.686 114.314 100 111 100ZM103 98C98.5817 98 95 101.582 95 106V114C95 118.418 98.5817 122 103 122H111C115.418 122 119 118.418 119 114V106C119 101.582 115.418 98 111 98H103Z" fill="#009990"/>
<rect x="129" y="66" width="100" height="8" rx="4" fill="#009990" fill-opacity="0.5"/>
<rect x="129" y="106" width="100" height="8" rx="4" fill="#009990" fill-opacity="0.5"/>
<path d="M0 0V-2H-2V0H0ZM325 0H327V-2H325V0ZM325 180V182H327V180H325ZM0 180H-2V182H0V180ZM0 2H325V-2H0V2ZM323 0V180H327V0H323ZM325 178H0V182H325V178ZM2 180V0H-2V180H2Z" fill="#767676"/>
</svg>
