<svg xmlns="http://www.w3.org/2000/svg" width="312" height="180" fill="none"><path fill="#005C62" d="M89 66a8 8 0 0 1 8-8h8a8 8 0 0 1 8 8v8a8 8 0 0 1-8 8h-8a8 8 0 0 1-8-8v-8Z"/><path fill="#fff" fill-rule="evenodd" d="m99.5 75-4.134-4.126a1.246 1.246 0 0 1 0-1.764 1.252 1.252 0 0 1 1.768 0l2.366 2.36 5.366-5.356a1.251 1.251 0 0 1 1.768 0 1.246 1.246 0 0 1 0 1.764L99.5 75Z" clip-rule="evenodd"/><path fill="#fff" d="M89 106a8 8 0 0 1 8-8h8a8 8 0 0 1 8 8v8a8 8 0 0 1-8 8h-8a8 8 0 0 1-8-8v-8Z"/><path fill="#009990" fill-rule="evenodd" d="M105 100h-8a6 6 0 0 0-6 6v8a6 6 0 0 0 6 6h8a6 6 0 0 0 6-6v-8a6 6 0 0 0-6-6Zm-8-2a8 8 0 0 0-8 8v8a8 8 0 0 0 8 8h8a8 8 0 0 0 8-8v-8a8 8 0 0 0-8-8h-8Z" clip-rule="evenodd"/><rect width="100" height="8" x="123" y="66" fill="#009990" fill-opacity=".5" rx="4"/><rect width="100" height="8" x="123" y="106" fill="#009990" fill-opacity=".5" rx="4"/></svg>