<svg width="325" height="180" viewBox="0 0 325 180" fill="none" xmlns="http://www.w3.org/2000/svg">
<rect width="325" height="180" fill="#F6FDF5"/>
<rect width="54" height="54" transform="translate(106 20)" fill="#005C62"/>
<path d="M142.6 35.625H123C122.338 35.625 121.8 36.1709 121.8 36.8437L121.801 48.625C121.801 51.3164 123.95 53.5 126.6 53.5H136.201C138.85 53.5 141 51.3164 141 48.625H142.6C146.132 48.625 149 45.7112 149 42.125C149 38.5388 146.13 35.625 142.6 35.625ZM142.6 45.375H141V38.875H142.6C144.363 38.875 145.8 40.335 145.8 42.125C145.8 43.915 144.365 45.375 142.6 45.375ZM145 55.125H117.8C117.358 55.125 117 55.4906 117 55.9375C117 57.2832 118.075 58.375 119.4 58.375H143.4C144.726 58.375 145.8 57.2837 145.8 55.9375C145.8 55.4906 145.44 55.125 145 55.125Z" fill="#CDF9CD"/>
<rect width="54" height="73" transform="translate(164 20)" fill="#005C62"/>
<g clip-path="url(#clip0_102_2786)">
<path d="M181 43C181 41.8956 181.896 41 183 41H199C200.106 41 201 41.8956 201 43C201 44.1044 200.106 45 199 45H197.156L197.869 54.2625C200.163 55.5062 201.969 57.5875 202.838 60.1812L202.9 60.3687C203.1 60.975 202.944 61.65 202.569 62.1688C202.244 62.6938 201.644 63 201 63H181C180.357 63 179.753 62.6938 179.378 62.1688C179.002 61.65 178.899 60.975 179.103 60.3687L179.165 60.1812C180.029 57.5875 181.839 55.5062 184.134 54.2625L184.846 45H183C181.896 45 181 44.1044 181 43ZM193 65V71C193 72.1063 192.106 73 191 73C189.894 73 189 72.1063 189 71V65H193Z" fill="#CDF9CD"/>
</g>
<rect width="54" height="82" transform="translate(106 78)" fill="#005C62"/>
<g clip-path="url(#clip1_102_2786)">
<path d="M132.85 112.294C133.044 113.081 133.05 113.906 132.881 114.7C132.706 115.444 132.35 116.244 131.85 116.881C130.944 117.913 129.812 118.569 128.444 118.881V132.5C128.444 133.163 128.237 133.8 127.769 134.269C127.3 134.738 126.662 135 125.944 135C125.337 135 124.701 134.738 124.232 134.269C123.763 133.8 123.444 133.163 123.444 132.5V118.881C122.185 118.631 120.997 117.931 120.144 116.9C119.637 116.263 119.283 115.519 119.11 114.719C118.936 113.919 118.948 113.094 119.144 112.3L121.032 103.778C121.085 103.537 121.226 103.325 121.426 103.181C121.626 103.038 121.873 102.973 122.118 103C122.364 103.027 122.591 103.144 122.756 103.329C122.921 103.513 123.011 103.753 123.01 104V113H124.096L125.164 103.744C125.189 103.54 125.287 103.351 125.444 103.215C125.594 103.078 125.794 103.003 125.944 103.003C126.206 103.003 126.406 103.078 126.556 103.215C126.712 103.351 126.756 103.54 126.837 103.744L127.906 113H128.944V104C128.944 103.754 129.087 103.517 129.194 103.332C129.412 103.148 129.637 103.03 129.881 103C130.125 102.973 130.319 103.039 130.575 103.184C130.775 103.328 130.912 103.542 130.969 103.784L132.85 112.294ZM147 132.5C147 133.163 146.737 133.8 146.269 134.269C145.8 134.738 145.162 135 144.5 135C143.837 135 143.2 134.738 142.731 134.269C142.262 133.8 142 133.163 142 132.5V125H140.95C140.425 125 139.9 124.894 139.412 124.694C138.931 124.488 138.487 124.194 138.112 123.819C137.744 123.444 137.45 123 137.194 122.513C137.05 122.025 136.95 121.5 136.95 120.975L136.944 113.863C137 111.556 137.694 109.3 138.987 107.393C140.281 105.482 142.112 104.003 144.256 103.146C144.506 103.025 144.887 102.98 145.212 103.015C145.537 103.05 145.85 103.164 146.119 103.347C146.387 103.53 146.612 103.776 146.762 104.064C146.919 104.353 146.944 104.674 147 105V132.5Z" fill="#CDF9CD"/>
</g>
<rect width="54" height="63" transform="translate(164 97)" fill="#005C62"/>
<path d="M192.922 125.5C191.8 125.5 186.989 125.609 183.889 130.203V125.5C183.889 122.602 181.5 120.25 178.556 120.25C177.577 120.25 176.778 121.037 176.778 122C176.778 122.963 177.577 123.75 178.556 123.75C179.534 123.75 180.333 124.536 180.333 125.5V139.5C180.333 141.428 181.931 143 183.889 143H193.667C194.16 143 194.556 142.61 194.556 142.174V141.25C194.556 140.286 193.757 139.5 192.778 139.5H191L198.111 134.25V142.125C198.111 142.61 198.507 143 199 143H200.778C201.271 143 201.667 142.61 201.667 142.125V130.854C201.097 130.997 200.507 131.1 199.889 131.1C196.456 131.1 193.583 128.694 192.922 125.5ZM201.667 120.25H198.111L194.556 116.75V124.1C194.556 126.998 196.945 129.301 199.889 129.301C202.833 129.301 205.222 126.998 205.222 124.1V116.75L201.667 120.25ZM197.667 124.625C197.174 124.625 196.778 124.235 196.778 123.75C196.778 123.265 197.174 122.875 197.667 122.875C198.16 122.875 198.556 123.265 198.556 123.75C198.556 124.235 198.161 124.625 197.667 124.625ZM202.111 124.625C201.618 124.625 201.222 124.235 201.222 123.75C201.222 123.265 201.618 122.875 202.111 122.875C202.604 122.875 203 123.265 203 123.75C203 124.235 202.606 124.625 202.111 124.625Z" fill="#CDF9CD"/>
<path d="M0 0V-2H-2V0H0ZM325 0H327V-2H325V0ZM325 180V182H327V180H325ZM0 180H-2V182H0V180ZM0 2H325V-2H0V2ZM323 0V180H327V0H323ZM325 178H0V182H325V178ZM2 180V0H-2V180H2Z" fill="#767676"/>
<defs>
<clipPath id="clip0_102_2786">
<rect width="24" height="32" fill="white" transform="translate(179 41)"/>
</clipPath>
<clipPath id="clip1_102_2786">
<rect width="28" height="32" fill="white" transform="translate(119 103)"/>
</clipPath>
</defs>
</svg>
