<svg xmlns="http://www.w3.org/2000/svg" width="312" height="180" fill="none"><path fill="#005C62" d="M100 20h54v54h-54z"/><path fill="#CDF9CD" d="M136.6 35.625H117c-.662 0-1.2.546-1.2 1.219l.001 11.781c0 2.691 2.15 4.875 4.8 4.875h9.6c2.649 0 4.799-2.184 4.799-4.875h1.6c3.532 0 6.4-2.914 6.4-6.5s-2.87-6.5-6.4-6.5Zm0 9.75H135v-6.5h1.6c1.763 0 3.2 1.46 3.2 3.25s-1.435 3.25-3.2 3.25Zm2.4 9.75h-27.2c-.442 0-.8.366-.8.813 0 1.345 1.074 2.437 2.4 2.437h24c1.326 0 2.4-1.091 2.4-2.438a.809.809 0 0 0-.8-.812Z"/><path fill="#005C62" d="M158 20h54v73h-54z"/><g clip-path="url(#collage_a)"><path fill="#CDF9CD" d="M175 43a2 2 0 0 1 2-2h16a2 2 0 1 1 0 4h-1.844l.713 9.263a10.524 10.524 0 0 1 4.968 5.918l.063.188c.2.606.044 1.281-.331 1.8-.325.525-.925.831-1.569.831h-20a1.997 1.997 0 0 1-1.897-2.631l.062-.188a10.503 10.503 0 0 1 4.969-5.918l.712-9.263H177a2 2 0 0 1-2-2Zm12 22v6c0 1.106-.894 2-2 2-1.106 0-2-.894-2-2v-6h4Z"/></g><path fill="#005C62" d="M100 78h54v82h-54z"/><g clip-path="url(#collage_b)"><path fill="#CDF9CD" d="M126.85 112.294c.194.787.2 1.612.031 2.406a5.776 5.776 0 0 1-1.031 2.181c-.906 1.032-2.037 1.688-3.406 2V132.5c0 .663-.206 1.3-.675 1.769-.469.469-1.106.731-1.825.731a2.47 2.47 0 0 1-1.712-.731c-.469-.469-.788-1.106-.788-1.769v-13.619a5.788 5.788 0 0 1-3.3-1.981 5.341 5.341 0 0 1-1-4.6l1.888-8.522a1.001 1.001 0 0 1 1.978.222v9h1.086l1.068-9.256a.837.837 0 0 1 .28-.529.8.8 0 0 1 .5-.212c.262 0 .462.075.612.212.157.136.2.325.282.529l1.068 9.256h1.038v-9c0-.246.144-.483.25-.668.219-.184.444-.302.687-.332.244-.027.438.039.694.184.2.144.338.358.394.6l1.881 8.51ZM141 132.5c0 .663-.262 1.3-.731 1.769a2.503 2.503 0 0 1-3.538 0A2.506 2.506 0 0 1 136 132.5V125h-1.05a4.06 4.06 0 0 1-1.537-.306 4.131 4.131 0 0 1-1.3-.875c-.369-.375-.663-.819-.919-1.306a5.488 5.488 0 0 1-.244-1.538l-.006-7.112c.056-2.307.75-4.563 2.044-6.47a11.526 11.526 0 0 1 5.268-4.247c.25-.121.632-.166.957-.131a1.991 1.991 0 0 1 1.55 1.049c.156.289.181.61.237.936v27.5Z"/></g><path fill="#005C62" d="M158 97h54v63h-54z"/><path fill="#CDF9CD" d="M186.922 125.5c-1.122 0-5.933.109-9.033 4.703V125.5c0-2.898-2.389-5.25-5.333-5.25-.979 0-1.778.787-1.778 1.75s.799 1.75 1.778 1.75c.978 0 1.777.786 1.777 1.75v14c0 1.928 1.598 3.5 3.556 3.5h9.778c.493 0 .889-.39.889-.826v-.924c0-.964-.799-1.75-1.778-1.75H185l7.111-5.25v7.875A.88.88 0 0 0 193 143h1.778a.88.88 0 0 0 .889-.875v-11.271c-.57.143-1.16.246-1.778.246-3.433 0-6.306-2.406-6.967-5.6Zm8.745-5.25h-3.556l-3.555-3.5v7.35c0 2.898 2.388 5.201 5.333 5.201 2.944 0 5.333-2.303 5.333-5.201v-7.35l-3.555 3.5Zm-4 4.375a.88.88 0 0 1-.889-.875.88.88 0 0 1 .889-.875.88.88 0 0 1 .889.875.879.879 0 0 1-.889.875Zm4.444 0a.88.88 0 0 1-.889-.875.88.88 0 0 1 .889-.875.88.88 0 0 1 .889.875.878.878 0 0 1-.889.875Z"/><defs><clipPath id="collage_a"><path fill="#fff" d="M0 0h24v32H0z" transform="translate(173 41)"/></clipPath><clipPath id="collage_b"><path fill="#fff" d="M0 0h28v32H0z" transform="translate(113 103)"/></clipPath></defs></svg>
