<svg xmlns="http://www.w3.org/2000/svg" width="312" height="180" fill="none"><path fill="#fff" d="M46 57c0-5.523 4.477-10 10-10h200c5.523 0 10 4.477 10 10v12c0 5.523-4.477 10-10 10H56c-5.523 0-10-4.477-10-10V57Z"/><path fill="#005C62" fill-rule="evenodd" d="M45 57c0-6.075 4.925-11 11-11h200c6.075 0 11 4.925 11 11v12c0 6.075-4.925 11-11 11H56c-6.075 0-11-4.925-11-11V57Zm11-9a9 9 0 0 0-9 9v12a9 9 0 0 0 9 9h200a9 9 0 0 0 9-9V57a9 9 0 0 0-9-9H56Z" clip-rule="evenodd"/><path fill="#005C62" fill-rule="evenodd" d="m253.76 59.88-4.76 4.7-4.759-4.701a1.325 1.325 0 0 0-1.857 0 1.288 1.288 0 0 0 0 1.834L249 68.25l6.616-6.536a1.289 1.289 0 0 0 0-1.834 1.32 1.32 0 0 0-1.856 0Z" clip-rule="evenodd"/><rect width="122" height="8" x="56" y="59" fill="#009990" fill-opacity=".5" rx="4"/><rect width="100" height="8" x="46" y="31" fill="#009990" fill-opacity=".5" rx="4"/><path fill="#fff" d="M46 95a8 8 0 0 1 8-8h204a8 8 0 0 1 8 8v46a8 8 0 0 1-8 8H54a8 8 0 0 1-8-8V95Z"/><path fill="#005C62" fill-rule="evenodd" d="M258 89H54a6 6 0 0 0-6 6v46a6 6 0 0 0 6 6h204a6 6 0 0 0 6-6V95a6 6 0 0 0-6-6ZM54 87a8 8 0 0 0-8 8v46a8 8 0 0 0 8 8h204a8 8 0 0 0 8-8V95a8 8 0 0 0-8-8H54Z" clip-rule="evenodd"/><rect width="6" height="24" x="250" y="97" fill="#005C62" rx="3"/><rect width="77" height="8" x="56" y="98" fill="#009990" fill-opacity=".5" rx="4"/><rect width="92" height="8" x="56" y="114" fill="#009990" fill-opacity=".5" rx="4"/><rect width="72" height="8" x="56" y="130" fill="#009990" fill-opacity=".5" rx="4"/></svg>