<svg width="325" height="180" viewBox="0 0 325 180" fill="none" xmlns="http://www.w3.org/2000/svg">
<rect width="325" height="180" fill="#F6FDF5"/>
<path d="M52 57C52 51.4772 56.4772 47 62 47H262C267.523 47 272 51.4772 272 57V69C272 74.5228 267.523 79 262 79H62C56.4772 79 52 74.5228 52 69V57Z" fill="white"/>
<path fill-rule="evenodd" clip-rule="evenodd" d="M51 57C51 50.9249 55.9249 46 62 46H262C268.075 46 273 50.9249 273 57V69C273 75.0751 268.075 80 262 80H62C55.9249 80 51 75.0751 51 69V57ZM62 48C57.0294 48 53 52.0294 53 57V69C53 73.9706 57.0294 78 62 78H262C266.971 78 271 73.9706 271 69V57C271 52.0294 266.971 48 262 48H62Z" fill="#005C62"/>
<path fill-rule="evenodd" clip-rule="evenodd" d="M259.76 59.8798L255 64.5814L250.241 59.8798C249.728 59.3734 248.897 59.3734 248.384 59.8798C247.872 60.3855 247.872 61.208 248.384 61.7143L255 68.25L261.615 61.7143C261.872 61.4606 262 61.1281 262 60.7967C262 60.4648 261.872 60.1329 261.615 59.8798C261.359 59.6266 261.023 59.5 260.687 59.5C260.351 59.5 260.016 59.6266 259.76 59.8798Z" fill="#005C62"/>
<rect x="62" y="59" width="122" height="8" rx="4" fill="#009990" fill-opacity="0.5"/>
<rect x="52" y="31" width="100" height="8" rx="4" fill="#009990" fill-opacity="0.5"/>
<path d="M52 95C52 90.5817 55.5817 87 60 87H264C268.418 87 272 90.5817 272 95V141C272 145.418 268.418 149 264 149H60C55.5817 149 52 145.418 52 141V95Z" fill="white"/>
<path fill-rule="evenodd" clip-rule="evenodd" d="M264 89H60C56.6863 89 54 91.6863 54 95V141C54 144.314 56.6863 147 60 147H264C267.314 147 270 144.314 270 141V95C270 91.6863 267.314 89 264 89ZM60 87C55.5817 87 52 90.5817 52 95V141C52 145.418 55.5817 149 60 149H264C268.418 149 272 145.418 272 141V95C272 90.5817 268.418 87 264 87H60Z" fill="#005C62"/>
<rect x="256" y="97" width="6" height="24" rx="3" fill="#005C62"/>
<rect x="62" y="98" width="77" height="8" rx="4" fill="#009990" fill-opacity="0.5"/>
<rect x="62" y="114" width="92" height="8" rx="4" fill="#009990" fill-opacity="0.5"/>
<rect x="62" y="130" width="72" height="8" rx="4" fill="#009990" fill-opacity="0.5"/>
<path d="M0 0V-2H-2V0H0ZM325 0H327V-2H325V0ZM325 180V182H327V180H325ZM0 180H-2V182H0V180ZM0 2H325V-2H0V2ZM323 0V180H327V0H323ZM325 178H0V182H325V178ZM2 180V0H-2V180H2Z" fill="#767676"/>
</svg>
