<svg xmlns="http://www.w3.org/2000/svg" width="312" height="180" fill="none"><path fill="#005C62" d="M90.14 108.575h4.109v-19.15h-4.123L85 92.862v3.557l5.057-3.318h.083v15.474Zm10.719.16c1.223 0 2.213-.956 2.213-2.137 0-1.195-.99-2.137-2.213-2.137-1.237 0-2.213.942-2.213 2.137 0 1.181.976 2.137 2.213 2.137Zm5.085-13.485h3.848c0-1.844 1.498-3.131 3.477-3.131 1.786 0 3.009 1.168 3.009 2.707 0 1.327-.563 2.243-3.078 4.579l-7.023 6.423v2.747h14.416v-3.185h-8.987v-.079l4.164-3.849c3.353-3.092 4.549-4.539 4.549-6.888 0-3.185-2.804-5.574-7.05-5.574-4.302 0-7.325 2.561-7.325 6.25ZM130.777 109c4.549 0 7.668-2.747 7.668-6.795 0-3.65-2.707-6.277-6.486-6.277-2.007 0-3.642.783-4.467 2.07h-.082l.481-5.388h9.359v-3.185h-12.657l-.907 11.241h3.614c.673-1.155 1.91-1.872 3.504-1.872 2.172 0 3.683 1.447 3.683 3.504 0 2.084-1.511 3.53-3.697 3.53-1.91 0-3.38-1.088-3.614-2.747h-3.834c.11 3.477 3.188 5.919 7.435 5.919Zm31.223-.425v-19.15h-4.81l-5.634 13.749h-.11l-5.635-13.75h-4.81v19.151h3.697V95.649h.11l5.387 12.926h2.611l5.387-12.926h.11v12.926H162Z"/><path fill="#009990" fill-rule="evenodd" d="M181.01 96.68a1.263 1.263 0 0 0 0 1.83 1.37 1.37 0 0 0 1.892 0l1.73-1.673v7.987c0 .715.6 1.294 1.339 1.294s1.338-.579 1.338-1.294v-7.987l1.73 1.673a1.37 1.37 0 0 0 1.892 0 1.265 1.265 0 0 0 0-1.83l-4.96-4.799-4.961 4.799Z" clip-rule="evenodd"/><rect width="95" height="8" x="85" y="71" fill="#009990" fill-opacity=".5" rx="4"/><rect width="24" height="8" x="202" y="95" fill="#009990" fill-opacity=".5" rx="4"/></svg>