<svg width="325" height="180" viewBox="0 0 325 180" fill="none" xmlns="http://www.w3.org/2000/svg">
<rect width="325" height="180" fill="#F6FDF5"/>
<path d="M97.1397 108.575H101.249V89.4247H97.126L92 92.862V96.4187L97.0573 93.1009H97.1397V108.575Z" fill="#005C62"/>
<path d="M107.859 108.735C109.082 108.735 110.072 107.779 110.072 106.598C110.072 105.403 109.082 104.461 107.859 104.461C106.622 104.461 105.646 105.403 105.646 106.598C105.646 107.779 106.622 108.735 107.859 108.735Z" fill="#005C62"/>
<path d="M112.944 95.2508H116.792C116.792 93.4061 118.29 92.1188 120.269 92.1188C122.055 92.1188 123.278 93.2867 123.278 94.8261C123.278 96.1533 122.715 97.069 120.2 99.4048L113.177 105.828V108.575H127.593V105.39H118.606V105.311L122.77 101.462C126.123 98.3696 127.319 96.923 127.319 94.574C127.319 91.3889 124.515 89 120.269 89C115.967 89 112.944 91.5614 112.944 95.2508Z" fill="#005C62"/>
<path d="M137.777 109C142.326 109 145.445 106.253 145.445 102.205C145.445 98.5554 142.738 95.9277 138.959 95.9277C136.952 95.9277 135.317 96.7107 134.492 97.998H134.41L134.891 92.6098H144.25V89.4247H131.593L130.686 100.666H134.3C134.973 99.5109 136.21 98.7943 137.804 98.7943C139.976 98.7943 141.487 100.241 141.487 102.298C141.487 104.382 139.976 105.828 137.79 105.828C135.88 105.828 134.41 104.74 134.176 103.081H130.342C130.452 106.558 133.53 109 137.777 109Z" fill="#005C62"/>
<path d="M169 108.575V89.4247H164.19L158.556 103.174H158.446L152.811 89.4247H148.001V108.575H151.698V95.649H151.808L157.195 108.575H159.806L165.193 95.649H165.303V108.575H169Z" fill="#005C62"/>
<path fill-rule="evenodd" clip-rule="evenodd" d="M188.01 96.6804C187.487 97.1851 187.487 98.0057 188.01 98.5105C188.532 99.0159 189.379 99.0159 189.902 98.5105L191.632 96.837V104.825C191.632 105.54 192.232 106.119 192.97 106.119C193.71 106.119 194.309 105.54 194.309 104.825V96.837L196.039 98.5105C196.561 99.0159 197.408 99.0159 197.931 98.5105C198.193 98.2581 198.323 97.9268 198.323 97.5954C198.323 97.2641 198.193 96.9328 197.931 96.6804L192.97 91.8818L188.01 96.6804Z" fill="#009990"/>
<rect x="92" y="71" width="95" height="8" rx="4" fill="#009990" fill-opacity="0.5"/>
<rect x="209" y="95" width="24" height="8" rx="4" fill="#009990" fill-opacity="0.5"/>
<path d="M0 0V-2H-2V0H0ZM325 0H327V-2H325V0ZM325 180V182H327V180H325ZM0 180H-2V182H0V180ZM0 2H325V-2H0V2ZM323 0V180H327V0H323ZM325 178H0V182H325V178ZM2 180V0H-2V180H2Z" fill="#767676"/>
</svg>
