<svg width="312" height="180" viewBox="0 0 312 180" fill="none" xmlns="http://www.w3.org/2000/svg">
<g clip-path="url(#clip0_1530_1828)">
<rect width="312" height="180" fill="#F6FDF5"/>
<path d="M46 93C46 87.4772 50.4772 83 56 83H256C261.523 83 266 87.4772 266 93V105C266 110.523 261.523 115 256 115H56C50.4772 115 46 110.523 46 105V93Z" fill="white"/>
<path fill-rule="evenodd" clip-rule="evenodd" d="M45 92C45 85.9249 49.9249 81 56 81H256C262.075 81 267 85.9249 267 92V104C267 110.075 262.075 115 256 115H56C49.9249 115 45 110.075 45 104V92ZM56 83C51.0294 83 47 87.0294 47 92V104C47 108.971 51.0294 113 56 113H256C260.971 113 265 108.971 265 104V92C265 87.0294 260.971 83 256 83H56Z" fill="#005C62"/>
<rect x="56" y="94" width="122" height="8" rx="4" fill="#009990" fill-opacity="0.5"/>
<rect x="46" y="66" width="100" height="8" rx="4" fill="#009990" fill-opacity="0.5"/>
<path d="M248.417 100.333H245.5V97.4163H248.417V100.333Z" fill="#005C62"/>
<path fill-rule="evenodd" clip-rule="evenodd" d="M253.667 93.333H252.208V92.458C252.208 91.9744 251.817 91.583 251.333 91.583C250.85 91.583 250.458 91.9744 250.458 92.458V93.333H247.542V92.458C247.542 91.9744 247.15 91.583 246.667 91.583C246.183 91.583 245.792 91.9744 245.792 92.458V93.333H244.333C243.371 93.333 242.583 94.1205 242.583 95.083V102.666C242.583 103.629 243.371 104.416 244.333 104.416H253.667C254.629 104.416 255.417 103.629 255.417 102.666V95.083C255.417 94.1205 254.629 93.333 253.667 93.333ZM244.333 102.666H253.667V96.2497H244.333V102.666Z" fill="#005C62"/>
</g>
<defs>
<clipPath id="clip0_1530_1828">
<rect width="312" height="180" fill="white"/>
</clipPath>
</defs>
</svg>
