<svg xmlns="http://www.w3.org/2000/svg" width="312" height="180" fill="none"><path fill="#fff" d="M86 28a8 8 0 0 1 8-8h124a8 8 0 0 1 8 8v124a8 8 0 0 1-8 8H94a8 8 0 0 1-8-8V28Z"/><path fill="#005C62" fill-rule="evenodd" d="M218 22H94a6 6 0 0 0-6 6v124a6 6 0 0 0 6 6h124a6 6 0 0 0 6-6V28a6 6 0 0 0-6-6ZM94 20a8 8 0 0 0-8 8v124a8 8 0 0 0 8 8h124a8 8 0 0 0 8-8V28a8 8 0 0 0-8-8H94Z" clip-rule="evenodd"/><path fill="#005C62" fill-rule="evenodd" d="M105.203 48c-.331 0-.663-.128-.917-.384L97.75 41l6.536-6.615a1.285 1.285 0 0 1 1.834 0 1.323 1.323 0 0 1 0 1.856L101.418 41l4.702 4.759a1.323 1.323 0 0 1 0 1.856 1.285 1.285 0 0 1-.917.384ZM205.88 34.384a1.322 1.322 0 0 0 0 1.856l4.702 4.76-4.702 4.759a1.323 1.323 0 0 0 0 1.857 1.286 1.286 0 0 0 1.834 0L214.25 41l-6.536-6.616a1.288 1.288 0 0 0-1.834 0Z" clip-rule="evenodd"/><rect width="40" height="8" x="136" y="37" fill="#009990" fill-opacity=".5" rx="4"/><rect width="10" height="10" x="98" y="80" fill="#009990" fill-opacity=".5" rx="5"/><rect width="10" height="10" x="98" y="98" fill="#009990" fill-opacity=".5" rx="5"/><rect width="10" height="10" x="98" y="116" fill="#009990" fill-opacity=".5" rx="5"/><rect width="10" height="10" x="98" y="134" fill="#009990" fill-opacity=".5" rx="5"/><rect width="10" height="10" x="116" y="80" fill="#009990" fill-opacity=".5" rx="5"/><rect width="10" height="10" x="116" y="98" fill="#009990" fill-opacity=".5" rx="5"/><rect width="10" height="10" x="116" y="116" fill="#009990" fill-opacity=".5" rx="5"/><rect width="10" height="10" x="116" y="134" fill="#009990" fill-opacity=".5" rx="5"/><rect width="10" height="10" x="134" y="80" fill="#009990" fill-opacity=".5" rx="5"/><rect width="10" height="10" x="134" y="98" fill="#009990" fill-opacity=".5" rx="5"/><rect width="10" height="10" x="134" y="116" fill="#009990" fill-opacity=".5" rx="5"/><rect width="10" height="10" x="134" y="134" fill="#009990" fill-opacity=".5" rx="5"/><rect width="10" height="10" x="152" y="62" fill="#009990" fill-opacity=".5" rx="5"/><rect width="10" height="10" x="152" y="80" fill="#009990" fill-opacity=".5" rx="5"/><rect width="10" height="10" x="152" y="98" fill="#009990" fill-opacity=".5" rx="5"/><rect width="10" height="10" x="152" y="116" fill="#009990" fill-opacity=".5" rx="5"/><rect width="10" height="10" x="152" y="134" fill="#009990" fill-opacity=".5" rx="5"/><rect width="10" height="10" x="170" y="62" fill="#009990" fill-opacity=".5" rx="5"/><rect width="10" height="10" x="170" y="80" fill="#009990" fill-opacity=".5" rx="5"/><rect width="10" height="10" x="170" y="98" fill="#009990" fill-opacity=".5" rx="5"/><rect width="10" height="10" x="170" y="116" fill="#009990" fill-opacity=".5" rx="5"/><rect width="10" height="10" x="170" y="134" fill="#009990" fill-opacity=".5" rx="5"/><rect width="10" height="10" x="188" y="62" fill="#009990" fill-opacity=".5" rx="5"/><rect width="10" height="10" x="188" y="80" fill="#009990" fill-opacity=".5" rx="5"/><rect width="10" height="10" x="188" y="98" fill="#009990" fill-opacity=".5" rx="5"/><rect width="10" height="10" x="188" y="116" fill="#009990" fill-opacity=".5" rx="5"/><rect width="10" height="10" x="206" y="62" fill="#009990" fill-opacity=".5" rx="5"/><rect width="10" height="10" x="206" y="80" fill="#009990" fill-opacity=".5" rx="5"/><rect width="10" height="10" x="206" y="98" fill="#009990" fill-opacity=".5" rx="5"/><rect width="10" height="10" x="206" y="116" fill="#009990" fill-opacity=".5" rx="5"/><path fill="#005C62" fill-rule="evenodd" d="M192 99h-72a4 4 0 0 0 0 8h72a4 4 0 0 0 0-8Zm-72-2a6 6 0 1 0 0 12h72a6 6 0 1 0 0-12h-72Z" clip-rule="evenodd"/></svg>