<svg width="325" height="180" viewBox="0 0 325 180" fill="none" xmlns="http://www.w3.org/2000/svg">
<rect width="325" height="180" fill="#F6FDF5"/>
<rect x="119" y="66" width="99" height="48" rx="24" fill="#005C62"/>
<path d="M148.618 95.054V84.2266H145.839L142.708 91.6925H142.567L139.443 84.2266H136.656V95.054H138.848V87.7232H138.973L141.854 94.5212H143.428L146.301 87.7232H146.426V95.054H148.618Z" fill="white"/>
<path d="M156.713 92.7204C156.47 93.2832 155.852 93.5983 154.951 93.5983C153.762 93.5983 153.01 92.8105 152.979 91.5499V91.4373H158.905V90.7845C158.905 88.1734 157.402 86.6126 154.858 86.6126C152.29 86.6126 150.708 88.2784 150.708 90.9646C150.708 93.6358 152.258 95.2266 154.889 95.2266C157.003 95.2266 158.498 94.2586 158.834 92.7204H156.713ZM154.865 88.2409C155.93 88.2409 156.619 88.9462 156.666 90.0792H152.987C153.065 88.9687 153.809 88.2409 154.865 88.2409Z" fill="white"/>
<path d="M160.776 95.054H163.054V90.2743C163.054 89.1563 163.704 88.436 164.761 88.436C165.841 88.436 166.35 89.0438 166.35 90.2068V95.054H168.628V89.7116C168.628 87.7382 167.595 86.6126 165.677 86.6126C164.401 86.6126 163.524 87.1904 163.124 88.1208H162.984V86.7927H160.776V95.054Z" fill="white"/>
<path d="M178.656 86.7927H176.378V91.5649C176.378 92.6979 175.768 93.3957 174.632 93.3957C173.583 93.3957 173.043 92.803 173.043 91.6324V86.7927H170.765V92.1727C170.765 94.0935 171.924 95.2266 173.787 95.2266C175.094 95.2266 175.901 94.6863 176.308 93.7259H176.449V95.054H178.656V86.7927Z" fill="white"/>
<path fill-rule="evenodd" clip-rule="evenodd" d="M199.76 86.8798L195 91.5814L190.241 86.8798C189.728 86.3734 188.897 86.3734 188.384 86.8798C187.872 87.3855 187.872 88.208 188.384 88.7143L195 95.25L201.615 88.7143C201.872 88.4606 202 88.1281 202 87.7967C202 87.4648 201.872 87.1329 201.615 86.8798C201.359 86.6266 201.023 86.5 200.687 86.5C200.351 86.5 200.016 86.6266 199.76 86.8798Z" fill="#F6FDF5"/>
<path d="M0 0V-2H-2V0H0ZM325 0H327V-2H325V0ZM325 180V182H327V180H325ZM0 180H-2V182H0V180ZM0 2H325V-2H0V2ZM323 0V180H327V0H323ZM325 178H0V182H325V178ZM2 180V0H-2V180H2Z" fill="#767676"/>
</svg>
