<svg xmlns="http://www.w3.org/2000/svg" width="312" height="180" fill="none"><rect width="99" height="48" x="107" y="66" fill="#005C62" rx="24"/><path fill="#fff" d="M136.618 95.054V84.227h-2.779l-3.131 7.465h-.141l-3.124-7.465h-2.787v10.827h2.192v-7.33h.125l2.881 6.797h1.574l2.873-6.798h.125v7.331h2.192Zm8.095-2.334c-.243.563-.861.878-1.762.878-1.189 0-1.941-.787-1.972-2.048v-.113h5.926v-.653c0-2.61-1.503-4.171-4.047-4.171-2.568 0-4.15 1.665-4.15 4.352 0 2.67 1.55 4.262 4.181 4.262 2.114 0 3.609-.968 3.945-2.507h-2.121Zm-1.848-4.48c1.065 0 1.754.706 1.801 1.84h-3.679c.078-1.111.822-1.84 1.878-1.84Zm5.911 6.814h2.278v-4.78c0-1.118.65-1.838 1.707-1.838 1.08 0 1.589.608 1.589 1.77v4.848h2.278v-5.342c0-1.974-1.033-3.1-2.951-3.1-1.276 0-2.153.578-2.553 1.509h-.14v-1.328h-2.208v8.261Zm17.88-8.261h-2.278v4.772c0 1.133-.61 1.83-1.746 1.83-1.049 0-1.589-.592-1.589-1.763v-4.84h-2.278v5.38c0 1.922 1.159 3.055 3.022 3.055 1.307 0 2.114-.54 2.521-1.501h.141v1.328h2.207v-8.261Z"/><path fill="#F6FDF5" fill-rule="evenodd" d="m187.76 86.88-4.76 4.7-4.759-4.701a1.325 1.325 0 0 0-1.857 0 1.288 1.288 0 0 0 0 1.834L183 95.25l6.616-6.536a1.289 1.289 0 0 0 0-1.834 1.32 1.32 0 0 0-1.856 0Z" clip-rule="evenodd"/></svg>