<svg xmlns="http://www.w3.org/2000/svg" width="312" height="180" fill="none"><circle cx="102" cy="62" r="12" fill="#005C62"/><rect width="8" height="8" x="98" y="58" fill="#fff" rx="4"/><path fill="#fff" fill-rule="evenodd" d="M90 102c0-6.627 5.373-12 12-12s12 5.373 12 12-5.373 12-12 12-12-5.373-12-12Z" clip-rule="evenodd"/><path fill="#009990" fill-rule="evenodd" d="M92 102c0 5.523 4.477 10 10 10s10-4.477 10-10-4.477-10-10-10-10 4.477-10 10Zm10-12c-6.627 0-12 5.373-12 12s5.373 12 12 12 12-5.373 12-12-5.373-12-12-12Z" clip-rule="evenodd"/><path fill="#fff" fill-rule="evenodd" d="M90 142c0-6.627 5.373-12 12-12s12 5.373 12 12-5.373 12-12 12-12-5.373-12-12Z" clip-rule="evenodd"/><path fill="#009990" fill-rule="evenodd" d="M92 142c0 5.523 4.477 10 10 10s10-4.477 10-10-4.477-10-10-10-10 4.477-10 10Zm10-12c-6.627 0-12 5.373-12 12s5.373 12 12 12 12-5.373 12-12-5.373-12-12-12Z" clip-rule="evenodd"/><rect width="100" height="8" x="122" y="138" fill="#009990" fill-opacity=".5" rx="4"/><rect width="100" height="8" x="122" y="98" fill="#009990" fill-opacity=".5" rx="4"/><rect width="100" height="8" x="122" y="58" fill="#009990" fill-opacity=".5" rx="4"/><rect width="100" height="8" x="90" y="26" fill="#009990" fill-opacity=".5" rx="4"/></svg>