<svg width="325" height="180" viewBox="0 0 325 180" fill="none" xmlns="http://www.w3.org/2000/svg">
<rect width="325" height="180" fill="#F6FDF5"/>
<circle cx="108" cy="62" r="12" fill="#005C62"/>
<rect x="104" y="58" width="8" height="8" rx="4" fill="white"/>
<path fill-rule="evenodd" clip-rule="evenodd" d="M96 102C96 95.3726 101.373 90 108 90C114.627 90 120 95.3726 120 102C120 108.627 114.627 114 108 114C101.373 114 96 108.627 96 102Z" fill="white"/>
<path fill-rule="evenodd" clip-rule="evenodd" d="M98 102C98 107.523 102.477 112 108 112C113.523 112 118 107.523 118 102C118 96.4772 113.523 92 108 92C102.477 92 98 96.4772 98 102ZM108 90C101.373 90 96 95.3726 96 102C96 108.627 101.373 114 108 114C114.627 114 120 108.627 120 102C120 95.3726 114.627 90 108 90Z" fill="#009990"/>
<path fill-rule="evenodd" clip-rule="evenodd" d="M96 142C96 135.373 101.373 130 108 130C114.627 130 120 135.373 120 142C120 148.627 114.627 154 108 154C101.373 154 96 148.627 96 142Z" fill="white"/>
<path fill-rule="evenodd" clip-rule="evenodd" d="M98 142C98 147.523 102.477 152 108 152C113.523 152 118 147.523 118 142C118 136.477 113.523 132 108 132C102.477 132 98 136.477 98 142ZM108 130C101.373 130 96 135.373 96 142C96 148.627 101.373 154 108 154C114.627 154 120 148.627 120 142C120 135.373 114.627 130 108 130Z" fill="#009990"/>
<rect x="128" y="138" width="100" height="8" rx="4" fill="#009990" fill-opacity="0.5"/>
<rect x="128" y="98" width="100" height="8" rx="4" fill="#009990" fill-opacity="0.5"/>
<rect x="128" y="58" width="100" height="8" rx="4" fill="#009990" fill-opacity="0.5"/>
<rect x="96" y="26" width="100" height="8" rx="4" fill="#009990" fill-opacity="0.5"/>
<path d="M0 0V-2H-2V0H0ZM325 0H327V-2H325V0ZM325 180V182H327V180H325ZM0 180H-2V182H0V180ZM0 2H325V-2H0V2ZM323 0V180H327V0H323ZM325 178H0V182H325V178ZM2 180V0H-2V180H2Z" fill="#767676"/>
</svg>
