<svg width="325" height="180" viewBox="0 0 325 180" fill="none" xmlns="http://www.w3.org/2000/svg">
<g clip-path="url(#clip0_103_1061)">
<rect width="325" height="180" fill="#F6FDF5"/>
<path d="M0 0V-1H-1V0H0ZM325 0H326V-1H325V0ZM325 180V181H326V180H325ZM0 180H-1V181H0V180ZM0 1H325V-1H0V1ZM324 0V180H326V0H324ZM325 179H0V181H325V179ZM1 180V0H-1V180H1Z" fill="#767676"/>
<rect x="52" y="68" width="120" height="12" rx="6" fill="#005C62"/>
<rect x="52" y="88" width="220" height="8" rx="4" fill="#009990" fill-opacity="0.5"/>
<rect x="52" y="104" width="220" height="8" rx="4" fill="#009990" fill-opacity="0.5"/>
</g>
<path d="M0 0V-2H-2V0H0ZM325 0H327V-2H325V0ZM325 180V182H327V180H325ZM0 180H-2V182H0V180ZM0 2H325V-2H0V2ZM323 0V180H327V0H323ZM325 178H0V182H325V178ZM2 180V0H-2V180H2Z" fill="#767676"/>
<defs>
<clipPath id="clip0_103_1061">
<path d="M0 0H325V180H0V0Z" fill="white"/>
</clipPath>
</defs>
</svg>
