<svg width="312" height="180" viewBox="0 0 312 180" fill="none" xmlns="http://www.w3.org/2000/svg">
<rect x="77" y="79" width="158" height="54" rx="7" fill="white" stroke="#005C62" stroke-width="2"/>
<rect x="92" y="94" width="128" height="8" rx="4" fill="#009990" fill-opacity="0.5"/>
<rect x="92" y="110" width="128" height="8" rx="4" fill="#009990" fill-opacity="0.5"/>
<path fill-rule="evenodd" clip-rule="evenodd" d="M144 58C144 51.373 149.373 46 156 46C162.627 46 168 51.373 168 58C168 64.627 162.627 70 156 70C149.373 70 144 64.627 144 58ZM154.333 64.3333C154.333 63.4127 155.079 62.6667 156 62.6667C156.921 62.6667 157.667 63.4127 157.667 64.3333C157.667 65.254 156.921 66 156 66C155.079 66 154.333 65.254 154.333 64.3333ZM158.326 58.3527C159.647 57.5933 160.5 56.0807 160.5 54.5C160.5 52.0187 158.482 50 156 50C153.518 50 151.5 52.0187 151.5 54.5C151.5 55.3647 152.201 56.0653 153.065 56.0653C153.93 56.0653 154.63 55.3647 154.63 54.5C154.63 53.7447 155.245 53.1307 156 53.1307C156.755 53.1307 157.37 53.7447 157.37 54.5C157.37 55.02 157.066 55.4667 156.765 55.6393C155.415 56.416 154.435 58.2133 154.435 59.9133C154.435 60.778 155.135 61.478 156 61.478C156.865 61.478 157.565 60.778 157.565 59.9133C157.565 59.238 158.023 58.5273 158.326 58.3527Z" fill="#005C62"/>
</svg>
