<svg xmlns="http://www.w3.org/2000/svg" width="312" height="180" fill="none">
<path fill-rule="evenodd" clip-rule="evenodd" d="M97 88C95.344 88 94 86.658 94 85C94 83.342 95.344 82 97 82C98.656 82 100 83.342 100 85C100 86.658 98.656 88 97 88ZM97.898 99.9C95.258 102.544 91.742 104 88 104C84.264 104 80.748 102.544 78.104 99.904C77.322 99.122 77.322 97.856 78.104 97.076C78.884 96.292 80.15 96.294 80.932 97.074C82.82 98.96 85.33 100 88 100C90.672 100 93.184 98.96 95.07 97.072C95.852 96.29 97.118 96.292 97.898 97.07C98.68 97.852 98.68 99.118 97.898 99.9ZM76 85C76 83.342 77.344 82 79 82C80.656 82 82 83.342 82 85C82 86.658 80.656 88 79 88C77.344 88 76 86.658 76 85ZM88 66C74.746 66 64 76.746 64 90C64 103.254 74.746 114 88 114C101.254 114 112 103.254 112 90C112 76.746 101.254 66 88 66Z" fill="#005C62"/>
<path fill-rule="evenodd" clip-rule="evenodd" d="M168 94C168 89.77 165.806 86.06 162.5 83.922V70.746C164.524 70.106 166 68.236 166 66H146C146 68.236 147.476 70.106 149.5 70.746V83.922C146.194 86.06 144 89.77 144 94H154V109.112C154 111.016 154.766 112.738 156 114C157.234 112.738 158 111.016 158 109.112V94H168Z" fill="#005C62"/>
<path fill-rule="evenodd" clip-rule="evenodd" d="M200 90C200 100.246 206.422 108.994 215.46 112.436C215.24 110.562 215.006 107.472 215.51 105.304C215.944 103.44 218.312 93.428 218.312 93.428C218.312 93.428 217.598 91.998 217.598 89.88C217.598 86.56 219.522 84.08 221.92 84.08C223.96 84.08 224.944 85.61 224.944 87.444C224.944 89.494 223.638 92.558 222.964 95.4C222.402 97.778 224.158 99.718 226.502 99.718C230.748 99.718 234.014 95.24 234.014 88.776C234.014 83.054 229.902 79.056 224.032 79.056C217.236 79.056 213.246 84.154 213.246 89.424C213.246 91.478 214.036 93.678 215.024 94.876C215.218 95.114 215.248 95.32 215.19 95.562C215.008 96.318 214.604 97.94 214.526 98.272C214.42 98.708 214.18 98.802 213.726 98.59C210.742 97.202 208.878 92.84 208.878 89.336C208.878 81.798 214.352 74.878 224.662 74.878C232.95 74.878 239.392 80.784 239.392 88.676C239.392 96.91 234.202 103.538 226.994 103.538C224.572 103.538 222.298 102.278 221.518 100.792C221.518 100.792 220.32 105.356 220.03 106.472C219.466 108.64 217.902 111.384 216.932 112.942C219.168 113.63 221.54 114 224 114C237.254 114 248 103.254 248 90C248 76.746 237.254 66 224 66C210.746 66 200 76.746 200 90Z" fill="#005C62"/>
</svg>
