<svg xmlns="http://www.w3.org/2000/svg" fill="none" viewBox="0 0 312 180"><g clip-path="url(#iconbutton)"><path fill="#F6FDF5" d="M0 0h312v180H0z"/><ellipse cx="244" cy="151" fill="#009990" fill-opacity=".5" rx="36" ry="7"/><circle cx="244" cy="107" r="28" fill="#005C62"/><path fill="#F6FDF5" fill-rule="evenodd" d="M244 113.805a2.43 2.43 0 1 0-.001 4.861 2.43 2.43 0 0 0 .001-4.861Zm6.563-11.909c0 2.305-1.245 4.511-3.171 5.618-.442.255-1.109 1.291-1.109 2.276a2.282 2.282 0 0 1-2.283 2.282 2.282 2.282 0 0 1-2.283-2.282c0-2.479 1.429-5.1 3.398-6.233.44-.252.883-.903.883-1.661A2 2 0 0 0 244 99.899a2 2 0 0 0-1.998 1.997 2.282 2.282 0 1 1-4.564 0A6.569 6.569 0 0 1 244 95.333a6.57 6.57 0 0 1 6.563 6.563Z" clip-rule="evenodd"/></g><defs><clipPath id="iconbutton"><path fill="#fff" d="M0 0h312v180H0z"/></clipPath></defs></svg>
