<svg width="325" height="180" viewBox="0 0 325 180" fill="none" xmlns="http://www.w3.org/2000/svg">
<rect width="325" height="180" fill="#F6FDF5"/>
<circle cx="162" cy="90" r="24" fill="#005C62"/>
<path fill-rule="evenodd" clip-rule="evenodd" d="M170.333 88.3333H163.667V81.6667C163.667 80.7467 162.92 80 162 80C161.08 80 160.333 80.7467 160.333 81.6667V88.3333H153.667C152.747 88.3333 152 89.08 152 90C152 90.92 152.747 91.6667 153.667 91.6667H160.333V98.3333C160.333 99.2533 161.08 100 162 100C162.92 100 163.667 99.2533 163.667 98.3333V91.6667H170.333C171.253 91.6667 172 90.92 172 90C172 89.08 171.253 88.3333 170.333 88.3333Z" fill="#F6FDF5"/>
<path d="M0 0V-2H-2V0H0ZM325 0H327V-2H325V0ZM325 180V182H327V180H325ZM0 180H-2V182H0V180ZM0 2H325V-2H0V2ZM323 0V180H327V0H323ZM325 178H0V182H325V178ZM2 180V0H-2V180H2Z" fill="#767676"/>
</svg>
