<svg width="312" height="180" viewBox="0 0 312 180" fill="none" xmlns="http://www.w3.org/2000/svg">
<g clip-path="url(#clip0_1606_1088)">
<rect width="312" height="180" fill="#F6FDF5"/>
<circle cx="156" cy="90" r="24" fill="#005C62"/>
<path d="M163.475 89.9997C162.556 89.9969 161.814 89.2484 161.817 88.3279L161.822 86.518L155.923 92.4283C155.273 93.0792 154.22 93.0792 153.57 92.4283C152.921 91.7775 152.921 90.7222 153.57 90.0713L159.464 84.1664L157.658 84.1664C156.739 84.1664 155.994 83.4202 155.994 82.4998C155.994 81.5793 156.739 80.8331 157.658 80.8331L165.167 80.833L165.144 88.3381C165.141 89.2586 164.394 90.0025 163.475 89.9997Z" fill="#F6FDF5"/>
<path d="M147.875 83.3331C147.3 83.3331 146.833 83.7995 146.833 84.3748V98.1248C146.833 98.7001 147.3 99.1664 147.875 99.1664H161.625C162.2 99.1664 162.667 98.7001 162.667 98.1248V94.3641C162.667 93.7888 162.2 93.3224 161.625 93.3224C161.05 93.3224 160.583 93.7888 160.583 94.3641V97.0831H148.917V85.4164H151.625C152.2 85.4164 152.667 84.9501 152.667 84.3748C152.667 83.7995 152.2 83.3331 151.625 83.3331H147.875Z" fill="#F6FDF5"/>
</g>
<defs>
<clipPath id="clip0_1606_1088">
<rect width="312" height="180" fill="white"/>
</clipPath>
</defs>
</svg>
