<svg width="325" height="180" viewBox="0 0 325 180" fill="none" xmlns="http://www.w3.org/2000/svg">
<rect width="325" height="180" fill="#F6FDF5"/>
<rect width="111" height="140" transform="translate(107 20)" fill="#005C62"/>
<g clip-path="url(#clip0_103_1185)">
<path d="M153 76C153 74.8956 153.896 74 155 74H171C172.106 74 173 74.8956 173 76C173 77.1044 172.106 78 171 78H169.156L169.869 87.2625C172.163 88.5062 173.969 90.5875 174.838 93.1812L174.9 93.3687C175.1 93.975 174.944 94.65 174.569 95.1688C174.244 95.6938 173.644 96 173 96H153C152.357 96 151.753 95.6938 151.378 95.1688C151.002 94.65 150.899 93.975 151.103 93.3687L151.165 93.1812C152.029 90.5875 153.839 88.5062 156.134 87.2625L156.846 78H155C153.896 78 153 77.1044 153 76ZM165 98V104C165 105.106 164.106 106 163 106C161.894 106 161 105.106 161 104V98H165Z" fill="#CDF9CD"/>
</g>
<path d="M0 0V-2H-2V0H0ZM325 0H327V-2H325V0ZM325 180V182H327V180H325ZM0 180H-2V182H0V180ZM0 2H325V-2H0V2ZM323 0V180H327V0H323ZM325 178H0V182H325V178ZM2 180V0H-2V180H2Z" fill="#767676"/>
<defs>
<clipPath id="clip0_103_1185">
<rect width="24" height="32" fill="white" transform="translate(151 74)"/>
</clipPath>
</defs>
</svg>
