<svg xmlns="http://www.w3.org/2000/svg" width="312" height="180" fill="none"><path fill="#005C62" d="M101 20h111v140H101z"/><g clip-path="url(#image)"><path fill="#CDF9CD" d="M147 76a2 2 0 0 1 2-2h16a2 2 0 1 1 0 4h-1.844l.713 9.263a10.526 10.526 0 0 1 4.969 5.918l.062.188c.2.606.044 1.281-.331 1.8-.325.525-.925.831-1.569.831h-20a1.989 1.989 0 0 1-1.622-.831 1.994 1.994 0 0 1-.275-1.8l.062-.188a10.503 10.503 0 0 1 4.969-5.918l.712-9.263H149a2 2 0 0 1-2-2Zm12 22v6c0 1.106-.894 2-2 2-1.106 0-2-.894-2-2v-6h4Z"/></g><defs><clipPath id="image"><path fill="#fff" d="M0 0h24v32H0z" transform="translate(145 74)"/></clipPath></defs></svg>
