<svg xmlns="http://www.w3.org/2000/svg" width="312" height="180" fill="none"><path fill="#005C62" fill-rule="evenodd" d="M45 82a1 1 0 0 1 1-1h3.928a1 1 0 1 1 0 2H47v3a1 1 0 1 1-2 0v-4Zm11.786 0a1 1 0 0 1 1-1h7.857a1 1 0 1 1 0 2h-7.857a1 1 0 0 1-1-1ZM72.5 82a1 1 0 0 1 1-1h7.857a1 1 0 1 1 0 2H73.5a1 1 0 0 1-1-1Zm15.714 0a1 1 0 0 1 1-1h7.857a1 1 0 1 1 0 2h-7.857a1 1 0 0 1-1-1Zm15.715 0a1 1 0 0 1 1-1h7.857a1 1 0 0 1 0 2h-7.857a1 1 0 0 1-1-1Zm15.714 0a1 1 0 0 1 1-1h7.857a1 1 0 0 1 0 2h-7.857a1 1 0 0 1-1-1Zm15.714 0a1 1 0 0 1 1-1h7.857a1 1 0 1 1 0 2h-7.857a1 1 0 0 1-1-1Zm15.714 0a1 1 0 0 1 1-1h7.858a1 1 0 0 1 0 2h-7.858a1 1 0 0 1-1-1Zm15.715 0a1 1 0 0 1 1-1h7.857a1 1 0 0 1 0 2h-7.857a1 1 0 0 1-1-1Zm15.714 0a1 1 0 0 1 1-1h7.857a1 1 0 0 1 0 2H183.5a1 1 0 0 1-1-1Zm15.714 0a1 1 0 0 1 1-1h7.857a1 1 0 1 1 0 2h-7.857a1 1 0 0 1-1-1Zm15.715 0a1 1 0 0 1 1-1h7.857a1 1 0 0 1 0 2h-7.857a1 1 0 0 1-1-1Zm15.714 0a1 1 0 0 1 1-1h7.857a1 1 0 0 1 0 2h-7.857a1 1 0 0 1-1-1Zm15.714 0a1 1 0 0 1 1-1h7.857a1 1 0 1 1 0 2h-7.857a1 1 0 0 1-1-1Zm15.714 0a1 1 0 0 1 1-1H266a1 1 0 0 1 1 1v4a1 1 0 0 1-2 0v-3h-2.929a1 1 0 0 1-1-1ZM46 93a1 1 0 0 1 1 1v8a1 1 0 0 1-2 0v-8a1 1 0 0 1 1-1Zm220 0a1 1 0 0 1 1 1v8a1 1 0 0 1-2 0v-8a1 1 0 0 1 1-1ZM46 109a1 1 0 0 1 1 1v3h2.929a1 1 0 0 1 0 2H46a1 1 0 0 1-1-1v-4a1 1 0 0 1 1-1Zm220 0a1 1 0 0 1 1 1v4a1 1 0 0 1-1 1h-3.929a1 1 0 0 1 0-2H265v-3a1 1 0 0 1 1-1Zm-209.214 5a1 1 0 0 1 1-1h7.857a1 1 0 0 1 0 2h-7.857a1 1 0 0 1-1-1Zm15.714 0a1 1 0 0 1 1-1h7.857a1 1 0 0 1 0 2H73.5a1 1 0 0 1-1-1Zm15.714 0a1 1 0 0 1 1-1h7.857a1 1 0 0 1 0 2h-7.857a1 1 0 0 1-1-1Zm15.715 0a1 1 0 0 1 1-1h7.857a1 1 0 0 1 0 2h-7.857a1 1 0 0 1-1-1Zm15.714 0a1 1 0 0 1 1-1h7.857a1 1 0 0 1 0 2h-7.857a1 1 0 0 1-1-1Zm15.714 0a1 1 0 0 1 1-1h7.857a1 1 0 1 1 0 2h-7.857a1 1 0 0 1-1-1Zm15.714 0a1 1 0 0 1 1-1h7.858a1 1 0 0 1 0 2h-7.858a1 1 0 0 1-1-1Zm15.715 0a1 1 0 0 1 1-1h7.857a1 1 0 0 1 0 2h-7.857a1 1 0 0 1-1-1Zm15.714 0a1 1 0 0 1 1-1h7.857a1 1 0 0 1 0 2H183.5a1 1 0 0 1-1-1Zm15.714 0a1 1 0 0 1 1-1h7.857a1 1 0 1 1 0 2h-7.857a1 1 0 0 1-1-1Zm15.715 0a1 1 0 0 1 1-1h7.857a1 1 0 0 1 0 2h-7.857a1 1 0 0 1-1-1Zm15.714 0a1 1 0 0 1 1-1h7.857a1 1 0 0 1 0 2h-7.857a1 1 0 0 1-1-1Zm15.714 0a1 1 0 0 1 1-1h7.857a1 1 0 1 1 0 2h-7.857a1 1 0 0 1-1-1Z" clip-rule="evenodd"/><rect width="100" height="8" x="46" y="66" fill="#005C62" rx="4"/></svg>