<svg width="325" height="180" viewBox="0 0 325 180" fill="none" xmlns="http://www.w3.org/2000/svg">
<rect width="325" height="180" fill="#F6FDF5"/>
<path fill-rule="evenodd" clip-rule="evenodd" d="M51 82C51 81.4477 51.4477 81 52 81H55.9285C56.4808 81 56.9285 81.4477 56.9285 82C56.9285 82.5523 56.4808 83 55.9285 83H53V86C53 86.5523 52.5523 87 52 87C51.4477 87 51 86.5523 51 86V82ZM62.7857 82C62.7857 81.4477 63.2334 81 63.7857 81H71.6428C72.1951 81 72.6428 81.4477 72.6428 82C72.6428 82.5523 72.1951 83 71.6428 83H63.7857C63.2334 83 62.7857 82.5523 62.7857 82ZM78.5 82C78.5 81.4477 78.9477 81 79.5 81H87.3571C87.9094 81 88.3571 81.4477 88.3571 82C88.3571 82.5523 87.9094 83 87.3571 83H79.5C78.9477 83 78.5 82.5523 78.5 82ZM94.2143 82C94.2143 81.4477 94.662 81 95.2143 81H103.071C103.624 81 104.071 81.4477 104.071 82C104.071 82.5523 103.624 83 103.071 83H95.2143C94.662 83 94.2143 82.5523 94.2143 82ZM109.929 82C109.929 81.4477 110.376 81 110.929 81H118.786C119.338 81 119.786 81.4477 119.786 82C119.786 82.5523 119.338 83 118.786 83H110.929C110.376 83 109.929 82.5523 109.929 82ZM125.643 82C125.643 81.4477 126.091 81 126.643 81H134.5C135.052 81 135.5 81.4477 135.5 82C135.5 82.5523 135.052 83 134.5 83H126.643C126.091 83 125.643 82.5523 125.643 82ZM141.357 82C141.357 81.4477 141.805 81 142.357 81H150.214C150.767 81 151.214 81.4477 151.214 82C151.214 82.5523 150.767 83 150.214 83H142.357C141.805 83 141.357 82.5523 141.357 82ZM157.071 82C157.071 81.4477 157.519 81 158.071 81H165.929C166.481 81 166.929 81.4477 166.929 82C166.929 82.5523 166.481 83 165.929 83H158.071C157.519 83 157.071 82.5523 157.071 82ZM172.786 82C172.786 81.4477 173.233 81 173.786 81H181.643C182.195 81 182.643 81.4477 182.643 82C182.643 82.5523 182.195 83 181.643 83H173.786C173.233 83 172.786 82.5523 172.786 82ZM188.5 82C188.5 81.4477 188.948 81 189.5 81H197.357C197.909 81 198.357 81.4477 198.357 82C198.357 82.5523 197.909 83 197.357 83H189.5C188.948 83 188.5 82.5523 188.5 82ZM204.214 82C204.214 81.4477 204.662 81 205.214 81H213.071C213.624 81 214.071 81.4477 214.071 82C214.071 82.5523 213.624 83 213.071 83H205.214C204.662 83 204.214 82.5523 204.214 82ZM219.929 82C219.929 81.4477 220.376 81 220.929 81H228.786C229.338 81 229.786 81.4477 229.786 82C229.786 82.5523 229.338 83 228.786 83H220.929C220.376 83 219.929 82.5523 219.929 82ZM235.643 82C235.643 81.4477 236.091 81 236.643 81H244.5C245.052 81 245.5 81.4477 245.5 82C245.5 82.5523 245.052 83 244.5 83H236.643C236.091 83 235.643 82.5523 235.643 82ZM251.357 82C251.357 81.4477 251.805 81 252.357 81H260.214C260.767 81 261.214 81.4477 261.214 82C261.214 82.5523 260.767 83 260.214 83H252.357C251.805 83 251.357 82.5523 251.357 82ZM267.071 82C267.071 81.4477 267.519 81 268.071 81H272C272.552 81 273 81.4477 273 82V86C273 86.5523 272.552 87 272 87C271.448 87 271 86.5523 271 86V83H268.071C267.519 83 267.071 82.5523 267.071 82ZM52 93C52.5523 93 53 93.4477 53 94V102C53 102.552 52.5523 103 52 103C51.4477 103 51 102.552 51 102V94C51 93.4477 51.4477 93 52 93ZM272 93C272.552 93 273 93.4477 273 94V102C273 102.552 272.552 103 272 103C271.448 103 271 102.552 271 102V94C271 93.4477 271.448 93 272 93ZM52 109C52.5523 109 53 109.448 53 110V113H55.9286C56.4809 113 56.9286 113.448 56.9286 114C56.9286 114.552 56.4809 115 55.9286 115H52C51.4477 115 51 114.552 51 114V110C51 109.448 51.4477 109 52 109ZM272 109C272.552 109 273 109.448 273 110V114C273 114.552 272.552 115 272 115H268.071C267.519 115 267.071 114.552 267.071 114C267.071 113.448 267.519 113 268.071 113H271V110C271 109.448 271.448 109 272 109ZM62.7857 114C62.7857 113.448 63.2334 113 63.7857 113H71.6429C72.1951 113 72.6429 113.448 72.6429 114C72.6429 114.552 72.1951 115 71.6429 115H63.7857C63.2334 115 62.7857 114.552 62.7857 114ZM78.5 114C78.5 113.448 78.9477 113 79.5 113H87.3571C87.9094 113 88.3571 113.448 88.3571 114C88.3571 114.552 87.9094 115 87.3571 115H79.5C78.9477 115 78.5 114.552 78.5 114ZM94.2143 114C94.2143 113.448 94.662 113 95.2143 113H103.071C103.624 113 104.071 113.448 104.071 114C104.071 114.552 103.624 115 103.071 115H95.2143C94.662 115 94.2143 114.552 94.2143 114ZM109.929 114C109.929 113.448 110.376 113 110.929 113H118.786C119.338 113 119.786 113.448 119.786 114C119.786 114.552 119.338 115 118.786 115H110.929C110.376 115 109.929 114.552 109.929 114ZM125.643 114C125.643 113.448 126.091 113 126.643 113H134.5C135.052 113 135.5 113.448 135.5 114C135.5 114.552 135.052 115 134.5 115H126.643C126.091 115 125.643 114.552 125.643 114ZM141.357 114C141.357 113.448 141.805 113 142.357 113H150.214C150.767 113 151.214 113.448 151.214 114C151.214 114.552 150.767 115 150.214 115H142.357C141.805 115 141.357 114.552 141.357 114ZM157.071 114C157.071 113.448 157.519 113 158.071 113H165.929C166.481 113 166.929 113.448 166.929 114C166.929 114.552 166.481 115 165.929 115H158.071C157.519 115 157.071 114.552 157.071 114ZM172.786 114C172.786 113.448 173.233 113 173.786 113H181.643C182.195 113 182.643 113.448 182.643 114C182.643 114.552 182.195 115 181.643 115H173.786C173.233 115 172.786 114.552 172.786 114ZM188.5 114C188.5 113.448 188.948 113 189.5 113H197.357C197.909 113 198.357 113.448 198.357 114C198.357 114.552 197.909 115 197.357 115H189.5C188.948 115 188.5 114.552 188.5 114ZM204.214 114C204.214 113.448 204.662 113 205.214 113H213.071C213.624 113 214.071 113.448 214.071 114C214.071 114.552 213.624 115 213.071 115H205.214C204.662 115 204.214 114.552 204.214 114ZM219.929 114C219.929 113.448 220.376 113 220.929 113H228.786C229.338 113 229.786 113.448 229.786 114C229.786 114.552 229.338 115 228.786 115H220.929C220.376 115 219.929 114.552 219.929 114ZM235.643 114C235.643 113.448 236.091 113 236.643 113H244.5C245.052 113 245.5 113.448 245.5 114C245.5 114.552 245.052 115 244.5 115H236.643C236.091 115 235.643 114.552 235.643 114ZM251.357 114C251.357 113.448 251.805 113 252.357 113H260.214C260.767 113 261.214 113.448 261.214 114C261.214 114.552 260.767 115 260.214 115H252.357C251.805 115 251.357 114.552 251.357 114Z" fill="#005C62"/>
<rect x="52" y="66" width="100" height="8" rx="4" fill="#005C62"/>
<path d="M0 0V-2H-2V0H0ZM325 0H327V-2H325V0ZM325 180V182H327V180H325ZM0 180H-2V182H0V180ZM0 2H325V-2H0V2ZM323 0V180H327V0H323ZM325 178H0V182H325V178ZM2 180V0H-2V180H2Z" fill="#767676"/>
</svg>
