<svg width="325" height="180" viewBox="0 0 325 180" fill="none" xmlns="http://www.w3.org/2000/svg">
<rect width="325" height="180" fill="#F6FDF5"/>
<path d="M153.027 95.0957H146.426V82.9082H144.238V97H153.027V95.0957Z" fill="#005C62"/>
<path d="M156.641 84.5C157.373 84.5 157.969 83.9043 157.969 83.1816C157.969 82.4492 157.373 81.8535 156.641 81.8535C155.908 81.8535 155.312 82.4492 155.312 83.1816C155.312 83.9043 155.908 84.5 156.641 84.5ZM155.596 97H157.686V86.3945H155.596V97Z" fill="#005C62"/>
<path d="M160.771 97H162.871V90.7793C162.871 89.0703 163.857 88.0156 165.41 88.0156C166.963 88.0156 167.705 88.875 167.705 90.6328V97H169.805V90.1348C169.805 87.6055 168.496 86.1895 166.123 86.1895C164.521 86.1895 163.467 86.9023 162.949 88.0742H162.793V86.3945H160.771V97Z" fill="#005C62"/>
<path d="M175.127 90.8672H174.961V82.2344H172.861V97H174.961V93.1426L175.889 92.2539L179.541 97H182.119L177.451 90.9355L181.826 86.3945H179.346L175.127 90.8672Z" fill="#005C62"/>
<path d="M142.471 100.623H182.52V102.039H142.471V100.623Z" fill="#005C62"/>
<path d="M0 0V-2H-2V0H0ZM325 0H327V-2H325V0ZM325 180V182H327V180H325ZM0 180H-2V182H0V180ZM0 2H325V-2H0V2ZM323 0V180H327V0H323ZM325 178H0V182H325V178ZM2 180V0H-2V180H2Z" fill="#767676"/>
</svg>
