<svg xmlns="http://www.w3.org/2000/svg" width="312" height="180" fill="none"><path fill="#005C62" d="M146.544 93.12h-6.594V81.046h-2.185v13.962h8.779v-1.886Zm3.609-10.498a1.32 1.32 0 0 0 1.326-1.306c0-.726-.595-1.316-1.326-1.316-.732 0-1.327.59-1.327 1.316a1.32 1.32 0 0 0 1.327 1.306Zm-1.044 12.385h2.087V84.5h-2.087v10.508Zm5.169 0h2.098v-6.163c0-1.694.985-2.738 2.535-2.738 1.551 0 2.293.85 2.293 2.593v6.308h2.097v-6.802c0-2.506-1.307-3.909-3.677-3.909-1.6 0-2.654.706-3.17 1.867h-.157V84.5h-2.019v10.508Zm14.338-6.077h-.165v-8.553h-2.097v14.63h2.097v-3.822l.926-.88 3.648 4.702h2.575L170.938 89l4.369-4.5h-2.477l-4.214 4.432ZM136 98.597h40V100h-40v-1.403Z"/></svg>