<svg width="312" height="180" viewBox="0 0 312 180" fill="none" xmlns="http://www.w3.org/2000/svg">
<g clip-path="url(#clip0_1609_1615)">
<rect x="19" y="69" width="272" height="46" fill="white"/>
<path fill-rule="evenodd" clip-rule="evenodd" d="M19 67H293V114H19V67ZM21 69V112H291V69H21Z" fill="#005C62"/>
<rect x="251" y="78" width="24" height="24" rx="12" fill="white" fill-opacity="0.9"/>
<path fill-rule="evenodd" clip-rule="evenodd" d="M268.325 84.3296C267.891 84.7686 267.891 85.4811 268.325 85.9201L272.356 90.0001L268.325 94.0791C267.891 94.5191 267.891 95.2311 268.325 95.6706C268.76 96.1101 269.464 96.1101 269.898 95.6706L275.5 90.0001L269.898 84.3296C269.68 84.1101 269.396 84.0001 269.112 84.0001C268.827 84.0001 268.543 84.1101 268.325 84.3296Z" fill="#005C62"/>
<rect x="67" y="80" width="80" height="8" rx="4" fill="#009990" fill-opacity="0.5"/>
<rect x="67" y="92" width="137" height="8" rx="4" fill="#009990" fill-opacity="0.5"/>
<circle cx="43" cy="91" r="16" fill="#005C62"/>
<g clip-path="url(#clip1_1609_1615)">
<path d="M35.6857 91C35.6857 86.96 38.96 83.6857 43 83.6857C47.04 83.6857 50.3143 86.96 50.3143 91C50.3143 95.04 47.04 98.3143 43 98.3143C38.96 98.3143 35.6857 95.04 35.6857 91ZM40.3743 92.9857C40.2086 92.7943 39.92 92.7743 39.7286 92.94C39.5372 93.1057 39.5172 93.3943 39.6829 93.5857C40.3172 94.3172 41.4257 95.1143 42.9743 95.1143C44.5743 95.1143 45.68 94.3172 46.3172 93.5857C46.4829 93.3943 46.4629 93.1057 46.2714 92.94C46.08 92.7743 45.7914 92.7943 45.6257 92.9857C45.1114 93.5772 44.24 94.2 42.9743 94.2C41.76 94.2 40.8857 93.5772 40.3743 92.9857ZM40.7257 88.7143C40.22 88.7143 39.8114 89.1229 39.8114 89.6286C39.8114 90.1343 40.22 90.5429 40.7257 90.5429C41.2286 90.5429 41.64 90.1343 41.64 89.6286C41.64 89.1229 41.2286 88.7143 40.7257 88.7143ZM45.2972 90.5429C45.8 90.5429 46.2114 90.1343 46.2114 89.6286C46.2114 89.1229 45.8 88.7143 45.2972 88.7143C44.7914 88.7143 44.3829 89.1229 44.3829 89.6286C44.3829 90.1343 44.7914 90.5429 45.2972 90.5429Z" fill="#C3F9C2"/>
</g>
</g>
<defs>
<clipPath id="clip0_1609_1615">
<rect width="312" height="180" fill="white"/>
</clipPath>
<clipPath id="clip1_1609_1615">
<rect width="14.6286" height="14.6286" fill="white" transform="translate(35.6857 83.6857)"/>
</clipPath>
</defs>
</svg>
