<svg width="325" height="180" viewBox="0 0 325 180" fill="none" xmlns="http://www.w3.org/2000/svg">
<rect width="325" height="180" fill="#F6FDF5"/>
<path d="M36 24C36 21.7909 37.7909 20 40 20H92C94.2091 20 96 21.7909 96 24V81C96 83.2091 94.2091 85 92 85H40C37.7909 85 36 83.2091 36 81V24Z" fill="#005C62"/>
<path d="M75.6 41.625H56C55.3375 41.625 54.8 42.1709 54.8 42.8437L54.8005 54.625C54.8005 57.3164 56.9505 59.5 59.6005 59.5H69.2005C71.85 59.5 74 57.3164 74 54.625H75.6C79.1315 54.625 82 51.7112 82 48.125C82 44.5388 79.13 41.625 75.6 41.625ZM75.6 51.375H74V44.875H75.6C77.3625 44.875 78.8 46.335 78.8 48.125C78.8 49.915 77.365 51.375 75.6 51.375ZM78 61.125H50.8C50.3582 61.125 50 61.4906 50 61.9375C50 63.2832 51.0745 64.375 52.4 64.375H76.4C77.7255 64.375 78.8 63.2837 78.8 61.9375C78.8 61.4906 78.44 61.125 78 61.125Z" fill="#CDF9CD"/>
<path d="M164 24C164 21.7909 165.791 20 168 20H220C222.209 20 224 21.7909 224 24V81C224 83.2091 222.209 85 220 85H168C165.791 85 164 83.2091 164 81V24Z" fill="#005C62"/>
<path d="M195.922 49.5C194.8 49.5 189.989 49.6094 186.889 54.2031V49.5C186.889 46.6016 184.5 44.25 181.556 44.25C180.577 44.25 179.778 45.0375 179.778 46C179.778 46.9625 180.577 47.75 181.556 47.75C182.534 47.75 183.333 48.5364 183.333 49.5V63.5C183.333 65.4277 184.931 67 186.889 67H196.667C197.16 67 197.556 66.6104 197.556 66.1742V65.25C197.556 64.2864 196.757 63.5 195.778 63.5H194L201.111 58.25V66.125C201.111 66.6104 201.507 67 202 67H203.778C204.271 67 204.667 66.6104 204.667 66.125V54.8539C204.097 54.9975 203.507 55.1 202.889 55.1C199.456 55.1 196.583 52.6938 195.922 49.5ZM204.667 44.25H201.111L197.556 40.75V48.1C197.556 50.9984 199.945 53.3008 202.889 53.3008C205.833 53.3008 208.222 50.9984 208.222 48.1V40.75L204.667 44.25ZM200.667 48.625C200.174 48.625 199.778 48.2354 199.778 47.75C199.778 47.2646 200.174 46.875 200.667 46.875C201.16 46.875 201.556 47.2646 201.556 47.75C201.556 48.2354 201.161 48.625 200.667 48.625ZM205.111 48.625C204.618 48.625 204.222 48.2354 204.222 47.75C204.222 47.2646 204.618 46.875 205.111 46.875C205.604 46.875 206 47.2646 206 47.75C206 48.2354 205.606 48.625 205.111 48.625Z" fill="#CDF9CD"/>
<path d="M36 93C36 90.7909 37.7909 89 40 89H92C94.2091 89 96 90.7909 96 93V156C96 158.209 94.2091 160 92 160H40C37.7909 160 36 158.209 36 156V93Z" fill="#005C62"/>
<path d="M50 125C50 116.163 57.1625 109 66 109C74.8375 109 82 116.163 82 125C82 133.837 74.8375 141 66 141C57.1625 141 50 133.837 50 125ZM60.2563 129.344C59.8938 128.925 59.2625 128.881 58.8438 129.244C58.425 129.606 58.3812 130.238 58.7437 130.656C60.1312 132.256 62.5563 134 65.9438 134C69.4438 134 71.8625 132.256 73.2563 130.656C73.6188 130.238 73.575 129.606 73.1562 129.244C72.7375 128.881 72.1062 128.925 71.7437 129.344C70.6187 130.638 68.7125 132 65.9438 132C63.2875 132 61.375 130.638 60.2563 129.344ZM61.025 120C59.9187 120 59.025 120.894 59.025 122C59.025 123.106 59.9187 124 61.025 124C62.125 124 63.025 123.106 63.025 122C63.025 120.894 62.125 120 61.025 120ZM71.025 124C72.125 124 73.025 123.106 73.025 122C73.025 120.894 72.125 120 71.025 120C69.9187 120 69.025 120.894 69.025 122C69.025 123.106 69.9187 124 71.025 124Z" fill="#CDF9CD"/>
<path d="M164 93C164 90.7909 165.791 89 168 89H220C222.209 89 224 90.7909 224 93V156C224 158.209 222.209 160 220 160H168C165.791 160 164 158.209 164 156V93Z" fill="#005C62"/>
<path d="M200.222 116.25L200.172 116.286C199.928 116.262 199.633 116.25 199.333 116.25H192.222C191.306 116.25 190.417 116.364 189.567 116.578C189.561 116.469 189.556 116.36 189.556 116.25C189.556 113.35 191.894 111 194.889 111C197.833 111 200.222 113.35 200.222 116.25ZM199.333 118C199.528 118 199.672 118.005 199.911 118.016C200.15 118.033 200.383 118.055 200.611 118.088C201.589 116.966 203.044 116.25 204.667 116.25H206.444L205.4 120.357C206.283 121.166 206.994 122.151 207.483 123.25H208.222C209.206 123.25 210 124.032 210 125V130.25C210 131.218 209.206 132 208.222 132H206.444C205.939 132.662 205.339 133.252 204.667 133.75V137.25C204.667 138.218 203.872 139 202.889 139H201.111C200.128 139 199.333 138.218 199.333 137.25V135.5H192.222V137.25C192.222 138.218 191.428 139 190.444 139H188.667C187.683 139 186.889 138.218 186.889 137.25V133.75C184.95 132.317 183.628 130.13 183.377 127.625H181.778C179.691 127.625 178 125.962 178 123.906C178 121.85 179.691 120.188 181.778 120.188H182C182.736 120.188 183.333 120.773 183.333 121.5C183.333 122.227 182.736 122.812 182 122.812H181.778C181.164 122.812 180.667 123.255 180.667 123.906C180.667 124.508 181.164 125 181.778 125H183.511C184.183 121.73 186.717 119.121 189.972 118.284C190.689 118.098 191.394 118 192.222 118H199.333ZM201.556 124.125C200.817 124.125 200.222 124.71 200.222 125.438C200.222 126.165 200.817 126.75 201.556 126.75C202.294 126.75 202.889 126.165 202.889 125.438C202.889 124.71 202.294 124.125 201.556 124.125Z" fill="#CDF9CD"/>
<path d="M100 24C100 21.7909 101.791 20 104 20H156C158.209 20 160 21.7909 160 24V71C160 73.2091 158.209 75 156 75H104C101.791 75 100 73.2091 100 71V24Z" fill="#005C62"/>
<path d="M129.789 50.1437V47.2485H120.331V50.7291H125.216L125.201 51.1562C125.107 54.004 122.969 55.9183 119.878 55.9183C116.164 55.9183 113.823 52.8965 113.823 47.9288C113.823 43.056 116.055 40.0659 119.691 40.0659C122.313 40.0659 124.202 41.4265 124.904 43.8154H129.586C128.931 39.085 125.013 36 119.691 36C113.136 36 109 40.6355 109 47.9763C109 55.4278 113.105 60 119.8 60C125.95 60 129.789 56.203 129.789 50.1437Z" fill="#CDF9CD"/>
<path d="M144.242 59.4146V40.5247H151V36.5854H132.77V40.5247H139.528V59.4146H144.242Z" fill="#CDF9CD"/>
<path d="M228 24C228 21.7909 229.791 20 232 20H284C286.209 20 288 21.7909 288 24V71C288 73.2091 286.209 75 284 75H232C229.791 75 228 73.2091 228 71V24Z" fill="#005C62"/>
<path d="M271.6 45.9375C270.275 45.9375 269.2 46.9873 269.2 48.2812V52.1875H246.8V48.2812C246.8 46.9873 245.726 45.9375 244.4 45.9375C243.075 45.9375 242 46.9873 242 48.2812V57.6562C242 58.0859 242.358 58.4375 242.8 58.4375H246C246.442 58.4375 246.755 58.0877 246.755 57.6562L246.8 56.875H269.2V57.6562C269.2 58.0877 269.558 58.4375 270 58.4375H273.2C273.642 58.4375 274 58.0877 274 57.6562V48.2812C274 46.9873 272.925 45.9375 271.6 45.9375ZM248.4 48.2812V50.625H267.6V48.2812C267.6 46.395 268.977 44.8169 270.8 44.4541V42.8125C270.8 39.3608 267.935 36.5625 264.4 36.5625H251.555C248.021 36.5625 245.155 39.3608 245.155 42.8125L245.2 44.4531C247.025 44.8193 248.4 46.3965 248.4 48.2812Z" fill="#CDF9CD"/>
<path d="M100 83C100 80.7909 101.791 79 104 79H156C158.209 79 160 80.7909 160 83V156C160 158.209 158.209 160 156 160H104C101.791 160 100 158.209 100 156V83Z" fill="#005C62"/>
<g clip-path="url(#clip0_103_1452)">
<path d="M129.85 113.294C130.044 114.081 130.05 114.906 129.881 115.7C129.706 116.444 129.35 117.244 128.85 117.881C127.944 118.913 126.812 119.569 125.444 119.881V133.5C125.444 134.163 125.237 134.8 124.769 135.269C124.3 135.738 123.662 136 122.944 136C122.337 136 121.701 135.738 121.232 135.269C120.763 134.8 120.444 134.163 120.444 133.5V119.881C119.185 119.631 117.997 118.931 117.144 117.9C116.637 117.263 116.283 116.519 116.11 115.719C115.936 114.919 115.948 114.094 116.144 113.3L118.032 104.778C118.085 104.537 118.226 104.325 118.426 104.181C118.626 104.038 118.873 103.973 119.118 104C119.364 104.027 119.591 104.144 119.756 104.329C119.921 104.513 120.011 104.753 120.01 105V114H121.096L122.164 104.744C122.189 104.54 122.287 104.351 122.444 104.215C122.594 104.078 122.794 104.003 122.944 104.003C123.206 104.003 123.406 104.078 123.556 104.215C123.712 104.351 123.756 104.54 123.837 104.744L124.906 114H125.944V105C125.944 104.754 126.087 104.517 126.194 104.332C126.412 104.148 126.637 104.03 126.881 104C127.125 103.973 127.319 104.039 127.575 104.184C127.775 104.328 127.912 104.542 127.969 104.784L129.85 113.294ZM144 133.5C144 134.163 143.737 134.8 143.269 135.269C142.8 135.738 142.162 136 141.5 136C140.837 136 140.2 135.738 139.731 135.269C139.262 134.8 139 134.163 139 133.5V126H137.95C137.425 126 136.9 125.894 136.412 125.694C135.931 125.488 135.487 125.194 135.112 124.819C134.744 124.444 134.45 124 134.194 123.513C134.05 123.025 133.95 122.5 133.95 121.975L133.944 114.863C134 112.556 134.694 110.3 135.987 108.393C137.281 106.482 139.112 105.003 141.256 104.146C141.506 104.025 141.887 103.98 142.212 104.015C142.537 104.05 142.85 104.164 143.119 104.347C143.387 104.53 143.612 104.776 143.762 105.064C143.919 105.353 143.944 105.674 144 106V133.5Z" fill="#CDF9CD"/>
</g>
<path d="M228 83C228 80.7909 229.791 79 232 79H284C286.209 79 288 80.7909 288 83V156C288 158.209 286.209 160 284 160H232C229.791 160 228 158.209 228 156V83Z" fill="#005C62"/>
<g clip-path="url(#clip1_103_1452)">
<path d="M248 106C248 104.896 248.896 104 250 104H266C267.106 104 268 104.896 268 106C268 107.104 267.106 108 266 108H264.156L264.869 117.262C267.163 118.506 268.969 120.587 269.838 123.181L269.9 123.369C270.1 123.975 269.944 124.65 269.569 125.169C269.244 125.694 268.644 126 268 126H248C247.357 126 246.753 125.694 246.378 125.169C246.002 124.65 245.899 123.975 246.103 123.369L246.165 123.181C247.029 120.587 248.839 118.506 251.134 117.262L251.846 108H250C248.896 108 248 107.104 248 106ZM260 128V134C260 135.106 259.106 136 258 136C256.894 136 256 135.106 256 134V128H260Z" fill="#CDF9CD"/>
</g>
<path d="M0 0V-2H-2V0H0ZM325 0H327V-2H325V0ZM325 180V182H327V180H325ZM0 180H-2V182H0V180ZM0 2H325V-2H0V2ZM323 0V180H327V0H323ZM325 178H0V182H325V178ZM2 180V0H-2V180H2Z" fill="#767676"/>
<defs>
<clipPath id="clip0_103_1452">
<rect width="28" height="32" fill="white" transform="translate(116 104)"/>
</clipPath>
<clipPath id="clip1_103_1452">
<rect width="24" height="32" fill="white" transform="translate(246 104)"/>
</clipPath>
</defs>
</svg>
