<svg xmlns="http://www.w3.org/2000/svg" width="312" height="180" fill="none"><path fill="#005C62" d="M30 24a4 4 0 0 1 4-4h52a4 4 0 0 1 4 4v57a4 4 0 0 1-4 4H34a4 4 0 0 1-4-4V24Z"/><path fill="#CDF9CD" d="M69.6 41.625H50c-.663 0-1.2.546-1.2 1.219v11.781c0 2.691 2.15 4.875 4.8 4.875h9.6c2.65 0 4.8-2.184 4.8-4.875h1.6c3.532 0 6.4-2.914 6.4-6.5s-2.87-6.5-6.4-6.5Zm0 9.75H68v-6.5h1.6c1.763 0 3.2 1.46 3.2 3.25s-1.435 3.25-3.2 3.25Zm2.4 9.75H44.8c-.442 0-.8.366-.8.813 0 1.345 1.075 2.437 2.4 2.437h24c1.325 0 2.4-1.091 2.4-2.438a.809.809 0 0 0-.8-.812Z"/><path fill="#005C62" d="M158 24a4 4 0 0 1 4-4h52a4 4 0 0 1 4 4v57a4 4 0 0 1-4 4h-52a4 4 0 0 1-4-4V24Z"/><path fill="#CDF9CD" d="M189.922 49.5c-1.122 0-5.933.11-9.033 4.703V49.5c0-2.898-2.389-5.25-5.333-5.25-.979 0-1.778.788-1.778 1.75s.799 1.75 1.778 1.75c.978 0 1.777.786 1.777 1.75v14c0 1.928 1.598 3.5 3.556 3.5h9.778c.493 0 .889-.39.889-.826v-.924c0-.964-.799-1.75-1.778-1.75H188l7.111-5.25v7.875A.88.88 0 0 0 196 67h1.778a.88.88 0 0 0 .889-.875V54.854c-.57.144-1.16.246-1.778.246-3.433 0-6.306-2.406-6.967-5.6Zm8.745-5.25h-3.556l-3.555-3.5v7.35c0 2.898 2.389 5.2 5.333 5.2 2.944 0 5.333-2.302 5.333-5.2v-7.35l-3.555 3.5Zm-4 4.375a.88.88 0 0 1-.889-.875.88.88 0 0 1 .889-.875.88.88 0 0 1 .889.875.879.879 0 0 1-.889.875Zm4.444 0a.88.88 0 0 1-.889-.875.88.88 0 0 1 .889-.875.88.88 0 0 1 .889.875.878.878 0 0 1-.889.875Z"/><path fill="#005C62" d="M30 93a4 4 0 0 1 4-4h52a4 4 0 0 1 4 4v63a4 4 0 0 1-4 4H34a4 4 0 0 1-4-4V93Z"/><path fill="#CDF9CD" d="M44 125c0-8.837 7.163-16 16-16 8.838 0 16 7.163 16 16s-7.162 16-16 16c-8.837 0-16-7.163-16-16Zm10.256 4.344a1 1 0 0 0-1.412-.1 1 1 0 0 0-.1 1.412c1.387 1.6 3.812 3.344 7.2 3.344 3.5 0 5.918-1.744 7.312-3.344a1 1 0 0 0-.1-1.412 1 1 0 0 0-1.412.1c-1.125 1.294-3.032 2.656-5.8 2.656-2.657 0-4.569-1.362-5.688-2.656Zm.769-9.344c-1.106 0-2 .894-2 2 0 1.106.894 2 2 2 1.1 0 2-.894 2-2 0-1.106-.9-2-2-2Zm10 4c1.1 0 2-.894 2-2 0-1.106-.9-2-2-2-1.106 0-2 .894-2 2 0 1.106.894 2 2 2Z"/><path fill="#005C62" d="M158 93a4 4 0 0 1 4-4h52a4 4 0 0 1 4 4v63a4 4 0 0 1-4 4h-52a4 4 0 0 1-4-4V93Z"/><path fill="#CDF9CD" d="m194.222 116.25-.05.036a8.895 8.895 0 0 0-.839-.036h-7.111c-.916 0-1.805.114-2.655.328a5.955 5.955 0 0 1-.011-.328c0-2.9 2.338-5.25 5.333-5.25 2.944 0 5.333 2.35 5.333 5.25Zm-.889 1.75c.195 0 .339.005.578.016.239.017.472.039.7.072a5.37 5.37 0 0 1 4.056-1.838h1.777l-1.044 4.107a8.751 8.751 0 0 1 2.083 2.893h.739c.984 0 1.778.782 1.778 1.75v5.25c0 .968-.794 1.75-1.778 1.75h-1.778a8.903 8.903 0 0 1-1.777 1.75v3.5c0 .968-.795 1.75-1.778 1.75h-1.778c-.983 0-1.778-.782-1.778-1.75v-1.75h-7.111v1.75c0 .968-.794 1.75-1.778 1.75h-1.777c-.984 0-1.778-.782-1.778-1.75v-3.5c-1.939-1.433-3.261-3.62-3.512-6.125h-1.599c-2.087 0-3.778-1.663-3.778-3.719s1.691-3.718 3.778-3.718H176c.736 0 1.333.585 1.333 1.312 0 .727-.597 1.312-1.333 1.312h-.222c-.614 0-1.111.443-1.111 1.094 0 .602.497 1.094 1.111 1.094h1.733c.672-3.27 3.206-5.879 6.461-6.716a8.67 8.67 0 0 1 2.25-.284h7.111Zm2.223 6.125a1.32 1.32 0 0 0-1.334 1.313 1.32 1.32 0 0 0 1.334 1.312 1.32 1.32 0 0 0 1.333-1.312 1.32 1.32 0 0 0-1.333-1.313Z"/><path fill="#005C62" d="M94 24a4 4 0 0 1 4-4h52a4 4 0 0 1 4 4v47a4 4 0 0 1-4 4H98a4 4 0 0 1-4-4V24Z"/><path fill="#CDF9CD" d="M123.789 50.144v-2.895h-9.458v3.48h4.885l-.015.427c-.094 2.848-2.232 4.762-5.323 4.762-3.714 0-6.055-3.021-6.055-7.99 0-4.872 2.232-7.862 5.868-7.862 2.622 0 4.511 1.36 5.213 3.75h4.682c-.655-4.731-4.573-7.816-9.895-7.816C107.136 36 103 40.636 103 47.976 103 55.428 107.105 60 113.8 60c6.15 0 9.989-3.797 9.989-9.856ZM138.242 59.415v-18.89H145v-3.94h-18.23v3.94h6.758v18.89h4.714Z"/><path fill="#005C62" d="M222 24a4 4 0 0 1 4-4h52a4 4 0 0 1 4 4v47a4 4 0 0 1-4 4h-52a4 4 0 0 1-4-4V24Z"/><path fill="#CDF9CD" d="M265.6 45.938c-1.325 0-2.4 1.05-2.4 2.343v3.907h-22.4V48.28c0-1.294-1.074-2.343-2.4-2.343-1.325 0-2.4 1.05-2.4 2.343v9.375c0 .43.358.782.8.782h3.2c.442 0 .755-.35.755-.782l.045-.781h22.4v.781a.79.79 0 0 0 .8.782h3.2c.442 0 .8-.35.8-.782v-9.375c0-1.294-1.075-2.343-2.4-2.343Zm-23.2 2.343v2.344h19.2v-2.344c0-1.886 1.377-3.464 3.2-3.827v-1.642c0-3.451-2.865-6.25-6.4-6.25h-12.845c-3.534 0-6.4 2.799-6.4 6.25l.045 1.641c1.825.366 3.2 1.944 3.2 3.828Z"/><path fill="#005C62" d="M94 83a4 4 0 0 1 4-4h52a4 4 0 0 1 4 4v73a4 4 0 0 1-4 4H98a4 4 0 0 1-4-4V83Z"/><g clip-path="url(#masonry_a)"><path fill="#CDF9CD" d="M123.85 113.294c.194.787.2 1.612.031 2.406a5.776 5.776 0 0 1-1.031 2.181c-.906 1.032-2.038 1.688-3.406 2V133.5c0 .663-.207 1.3-.675 1.769-.469.469-1.107.731-1.825.731a2.469 2.469 0 0 1-1.712-.731c-.469-.469-.788-1.106-.788-1.769v-13.619a5.785 5.785 0 0 1-3.3-1.981 5.341 5.341 0 0 1-1-4.6l1.888-8.522a1.001 1.001 0 0 1 1.978.222v9h1.086l1.068-9.256a.832.832 0 0 1 .28-.529.8.8 0 0 1 .5-.212c.262 0 .462.075.612.212.156.136.2.325.281.529l1.069 9.256h1.038v-9c0-.246.143-.483.25-.668.218-.184.443-.302.687-.332.244-.027.438.039.694.184.2.144.337.358.394.6l1.881 8.51ZM138 133.5c0 .663-.263 1.3-.731 1.769A2.503 2.503 0 0 1 133 133.5V126h-1.05c-.525 0-1.05-.106-1.538-.306a4.143 4.143 0 0 1-1.3-.875c-.368-.375-.662-.819-.918-1.306a5.488 5.488 0 0 1-.244-1.538l-.006-7.112c.056-2.307.75-4.563 2.043-6.47a11.529 11.529 0 0 1 5.269-4.247c.25-.121.631-.166.956-.131a1.995 1.995 0 0 1 1.55 1.049c.157.289.182.61.238.936v27.5Z"/></g><path fill="#005C62" d="M222 83a4 4 0 0 1 4-4h52a4 4 0 0 1 4 4v73a4 4 0 0 1-4 4h-52a4 4 0 0 1-4-4V83Z"/><g clip-path="url(#masonry_b)"><path fill="#CDF9CD" d="M242 106a2 2 0 0 1 2-2h16a2 2 0 1 1 0 4h-1.844l.713 9.262a10.527 10.527 0 0 1 4.969 5.919l.062.188c.2.606.044 1.281-.331 1.8-.325.525-.925.831-1.569.831h-20a1.989 1.989 0 0 1-1.622-.831 1.994 1.994 0 0 1-.275-1.8l.062-.188a10.504 10.504 0 0 1 4.969-5.919l.712-9.262H244a2 2 0 0 1-2-2Zm12 22v6c0 1.106-.894 2-2 2-1.106 0-2-.894-2-2v-6h4Z"/></g><defs><clipPath id="masonry_a"><path fill="#fff" d="M0 0h28v32H0z" transform="translate(110 104)"/></clipPath><clipPath id="masonry_b"><path fill="#fff" d="M0 0h24v32H0z" transform="translate(240 104)"/></clipPath></defs></svg>
