<svg width="325" height="180" viewBox="0 0 325 180" fill="none" xmlns="http://www.w3.org/2000/svg">
<rect width="325" height="180" fill="#F6FDF5"/>
<path d="M27 46C27 37.1634 34.1634 30 43 30H281C289.837 30 297 37.1634 297 46V134C297 142.837 289.837 150 281 150H43C34.1634 150 27 142.837 27 134V46Z" fill="white"/>
<path fill-rule="evenodd" clip-rule="evenodd" d="M281 32H43C35.268 32 29 38.268 29 46V134C29 141.732 35.268 148 43 148H281C288.732 148 295 141.732 295 134V46C295 38.268 288.732 32 281 32ZM43 30C34.1634 30 27 37.1634 27 46V134C27 142.837 34.1634 150 43 150H281C289.837 150 297 142.837 297 134V46C297 37.1634 289.837 30 281 30H43Z" fill="#005C62"/>
<path d="M237.5 128C237.5 121.373 242.873 116 249.5 116H269C275.627 116 281 121.373 281 128C281 134.627 275.627 140 269 140H249.5C242.873 140 237.5 134.627 237.5 128Z" fill="#005C62"/>
<path d="M248.531 130.637C249.734 130.637 250.48 130.016 250.48 129.023C250.48 128.297 249.938 127.738 249.191 127.68V127.609C249.77 127.523 250.211 127.004 250.211 126.406C250.211 125.535 249.559 125 248.465 125H246V130.637H248.531ZM247.18 125.875H248.164C248.727 125.875 249.051 126.148 249.051 126.609C249.051 127.078 248.703 127.344 248.066 127.344H247.18V125.875ZM247.18 129.758V128.121H248.203C248.898 128.121 249.277 128.402 249.277 128.93C249.277 129.469 248.91 129.758 248.23 129.758H247.18Z" fill="white"/>
<path d="M255.332 126.336H254.195V128.82C254.195 129.41 253.891 129.773 253.324 129.773C252.801 129.773 252.531 129.465 252.531 128.855V126.336H251.395V129.137C251.395 130.137 251.973 130.727 252.902 130.727C253.555 130.727 253.957 130.445 254.16 129.945H254.23V130.637H255.332V126.336Z" fill="white"/>
<path d="M256.797 125.309V126.375H256.125V127.238H256.797V129.477C256.797 130.312 257.211 130.652 258.258 130.652C258.477 130.652 258.688 130.629 258.828 130.602V129.762C258.719 129.773 258.641 129.781 258.492 129.781C258.105 129.781 257.934 129.602 257.934 129.215V127.238H258.828V126.375H257.934V125.309H256.797Z" fill="white"/>
<path d="M260.141 125.309V126.375H259.469V127.238H260.141V129.477C260.141 130.312 260.555 130.652 261.602 130.652C261.82 130.652 262.031 130.629 262.172 130.602V129.762C262.062 129.773 261.984 129.781 261.836 129.781C261.449 129.781 261.277 129.602 261.277 129.215V127.238H262.172V126.375H261.277V125.309H260.141Z" fill="white"/>
<path d="M265 130.727C266.324 130.727 267.121 129.891 267.121 128.484C267.121 127.09 266.312 126.242 265 126.242C263.688 126.242 262.879 127.094 262.879 128.484C262.879 129.887 263.676 130.727 265 130.727ZM265 129.828C264.391 129.828 264.047 129.336 264.047 128.484C264.047 127.641 264.395 127.145 265 127.145C265.602 127.145 265.953 127.641 265.953 128.484C265.953 129.336 265.605 129.828 265 129.828Z" fill="white"/>
<path d="M268.051 130.637H269.188V128.148C269.188 127.566 269.512 127.191 270.039 127.191C270.578 127.191 270.832 127.508 270.832 128.113V130.637H271.969V127.855C271.969 126.828 271.453 126.242 270.496 126.242C269.859 126.242 269.422 126.543 269.223 127.027H269.152V126.336H268.051V130.637Z" fill="white"/>
<path d="M190 128C190 121.373 195.373 116 202 116H221.5C228.127 116 233.5 121.373 233.5 128C233.5 134.627 228.127 140 221.5 140H202C195.373 140 190 134.627 190 128Z" fill="#009990"/>
<path d="M201.031 130.637C202.234 130.637 202.98 130.016 202.98 129.023C202.98 128.297 202.438 127.738 201.691 127.68V127.609C202.27 127.523 202.711 127.004 202.711 126.406C202.711 125.535 202.059 125 200.965 125H198.5V130.637H201.031ZM199.68 125.875H200.664C201.227 125.875 201.551 126.148 201.551 126.609C201.551 127.078 201.203 127.344 200.566 127.344H199.68V125.875ZM199.68 129.758V128.121H200.703C201.398 128.121 201.777 128.402 201.777 128.93C201.777 129.469 201.41 129.758 200.73 129.758H199.68Z" fill="white"/>
<path d="M207.832 126.336H206.695V128.82C206.695 129.41 206.391 129.773 205.824 129.773C205.301 129.773 205.031 129.465 205.031 128.855V126.336H203.895V129.137C203.895 130.137 204.473 130.727 205.402 130.727C206.055 130.727 206.457 130.445 206.66 129.945H206.73V130.637H207.832V126.336Z" fill="white"/>
<path d="M209.297 125.309V126.375H208.625V127.238H209.297V129.477C209.297 130.312 209.711 130.652 210.758 130.652C210.977 130.652 211.188 130.629 211.328 130.602V129.762C211.219 129.773 211.141 129.781 210.992 129.781C210.605 129.781 210.434 129.602 210.434 129.215V127.238H211.328V126.375H210.434V125.309H209.297Z" fill="white"/>
<path d="M212.641 125.309V126.375H211.969V127.238H212.641V129.477C212.641 130.312 213.055 130.652 214.102 130.652C214.32 130.652 214.531 130.629 214.672 130.602V129.762C214.562 129.773 214.484 129.781 214.336 129.781C213.949 129.781 213.777 129.602 213.777 129.215V127.238H214.672V126.375H213.777V125.309H212.641Z" fill="white"/>
<path d="M217.5 130.727C218.824 130.727 219.621 129.891 219.621 128.484C219.621 127.09 218.812 126.242 217.5 126.242C216.188 126.242 215.379 127.094 215.379 128.484C215.379 129.887 216.176 130.727 217.5 130.727ZM217.5 129.828C216.891 129.828 216.547 129.336 216.547 128.484C216.547 127.641 216.895 127.145 217.5 127.145C218.102 127.145 218.453 127.641 218.453 128.484C218.453 129.336 218.105 129.828 217.5 129.828Z" fill="white"/>
<path d="M220.551 130.637H221.688V128.148C221.688 127.566 222.012 127.191 222.539 127.191C223.078 127.191 223.332 127.508 223.332 128.113V130.637H224.469V127.855C224.469 126.828 223.953 126.242 222.996 126.242C222.359 126.242 221.922 126.543 221.723 127.027H221.652V126.336H220.551V130.637Z" fill="white"/>
<rect x="43" y="46" width="130" height="12" rx="6" fill="#009990" fill-opacity="0.5"/>
<rect x="43" y="66" width="238" height="8" rx="4" fill="#009990" fill-opacity="0.5"/>
<rect x="43" y="82" width="166" height="8" rx="4" fill="#009990" fill-opacity="0.5"/>
<path d="M0 0V-2H-2V0H0ZM325 0H327V-2H325V0ZM325 180V182H327V180H325ZM0 180H-2V182H0V180ZM0 2H325V-2H0V2ZM323 0V180H327V0H323ZM325 178H0V182H325V178ZM2 180V0H-2V180H2Z" fill="#767676"/>
</svg>
