<svg xmlns="http://www.w3.org/2000/svg" width="312" height="180" fill="none"><path fill="#fff" d="M21 46c0-8.837 7.163-16 16-16h238c8.837 0 16 7.163 16 16v88c0 8.837-7.163 16-16 16H37c-8.837 0-16-7.163-16-16V46Z"/><path fill="#005C62" fill-rule="evenodd" d="M275 32H37c-7.732 0-14 6.268-14 14v88c0 7.732 6.268 14 14 14h238c7.732 0 14-6.268 14-14V46c0-7.732-6.268-14-14-14ZM37 30c-8.837 0-16 7.163-16 16v88c0 8.837 7.163 16 16 16h238c8.837 0 16-7.163 16-16V46c0-8.837-7.163-16-16-16H37Z" clip-rule="evenodd"/><path fill="#005C62" d="M231.5 128c0-6.627 5.373-12 12-12H263c6.627 0 12 5.373 12 12s-5.373 12-12 12h-19.5c-6.627 0-12-5.373-12-12Z"/><path fill="#fff" d="M242.531 130.637c1.203 0 1.949-.621 1.949-1.614 0-.726-.542-1.285-1.289-1.343v-.071a1.218 1.218 0 0 0 1.02-1.203c0-.871-.652-1.406-1.746-1.406H240v5.637h2.531Zm-1.351-4.762h.984c.563 0 .887.273.887.734 0 .469-.348.735-.985.735h-.886v-1.469Zm0 3.883v-1.637h1.023c.695 0 1.074.281 1.074.809 0 .539-.367.828-1.047.828h-1.05Zm8.152-3.422h-1.137v2.484c0 .59-.304.953-.871.953-.523 0-.793-.308-.793-.918v-2.519h-1.136v2.801c0 1 .578 1.59 1.507 1.59.653 0 1.055-.282 1.258-.782h.07v.692h1.102v-4.301Zm1.465-1.027v1.066h-.672v.863h.672v2.239c0 .835.414 1.175 1.461 1.175.219 0 .43-.023.57-.05v-.84c-.109.011-.187.019-.336.019-.387 0-.558-.179-.558-.566v-1.977h.894v-.863h-.894v-1.066h-1.137Zm3.344 0v1.066h-.672v.863h.672v2.239c0 .835.414 1.175 1.461 1.175.218 0 .429-.023.57-.05v-.84c-.11.011-.188.019-.336.019-.387 0-.559-.179-.559-.566v-1.977h.895v-.863h-.895v-1.066h-1.136Zm4.859 5.418c1.324 0 2.121-.836 2.121-2.243 0-1.394-.809-2.242-2.121-2.242-1.312 0-2.121.852-2.121 2.242 0 1.403.797 2.243 2.121 2.243Zm0-.899c-.609 0-.953-.492-.953-1.344 0-.843.348-1.339.953-1.339.602 0 .953.496.953 1.339 0 .852-.348 1.344-.953 1.344Zm3.051.809h1.137v-2.489c0-.582.324-.957.851-.957.539 0 .793.317.793.922v2.524h1.137v-2.782c0-1.027-.516-1.613-1.473-1.613-.637 0-1.074.301-1.273.785h-.071v-.691h-1.101v4.301Z"/><path fill="#009990" d="M184 128c0-6.627 5.373-12 12-12h19.5c6.627 0 12 5.373 12 12s-5.373 12-12 12H196c-6.627 0-12-5.373-12-12Z"/><path fill="#fff" d="M195.031 130.637c1.203 0 1.949-.621 1.949-1.614 0-.726-.542-1.285-1.289-1.343v-.071a1.218 1.218 0 0 0 1.02-1.203c0-.871-.652-1.406-1.746-1.406H192.5v5.637h2.531Zm-1.351-4.762h.984c.563 0 .887.273.887.734 0 .469-.348.735-.985.735h-.886v-1.469Zm0 3.883v-1.637h1.023c.695 0 1.074.281 1.074.809 0 .539-.367.828-1.047.828h-1.05Zm8.152-3.422h-1.137v2.484c0 .59-.304.953-.871.953-.523 0-.793-.308-.793-.918v-2.519h-1.136v2.801c0 1 .578 1.59 1.507 1.59.653 0 1.055-.282 1.258-.782h.07v.692h1.102v-4.301Zm1.465-1.027v1.066h-.672v.863h.672v2.239c0 .835.414 1.175 1.461 1.175.219 0 .43-.023.57-.05v-.84c-.109.011-.187.019-.336.019-.387 0-.558-.179-.558-.566v-1.977h.894v-.863h-.894v-1.066h-1.137Zm3.344 0v1.066h-.672v.863h.672v2.239c0 .835.414 1.175 1.461 1.175.218 0 .429-.023.57-.05v-.84c-.11.011-.188.019-.336.019-.387 0-.559-.179-.559-.566v-1.977h.895v-.863h-.895v-1.066h-1.136Zm4.859 5.418c1.324 0 2.121-.836 2.121-2.243 0-1.394-.809-2.242-2.121-2.242-1.312 0-2.121.852-2.121 2.242 0 1.403.797 2.243 2.121 2.243Zm0-.899c-.609 0-.953-.492-.953-1.344 0-.843.348-1.339.953-1.339.602 0 .953.496.953 1.339 0 .852-.348 1.344-.953 1.344Zm3.051.809h1.137v-2.489c0-.582.324-.957.851-.957.539 0 .793.317.793.922v2.524h1.137v-2.782c0-1.027-.516-1.613-1.473-1.613-.637 0-1.074.301-1.273.785h-.071v-.691h-1.101v4.301Z"/><rect width="130" height="12" x="37" y="46" fill="#009990" fill-opacity=".5" rx="6"/><rect width="238" height="8" x="37" y="66" fill="#009990" fill-opacity=".5" rx="4"/><rect width="166" height="8" x="37" y="82" fill="#009990" fill-opacity=".5" rx="4"/></svg>