<svg width="325" height="180" viewBox="0 0 325 180" fill="none" xmlns="http://www.w3.org/2000/svg">
<rect width="325" height="180" fill="#F6FDF5"/>
<path d="M52 36C52 27.1634 59.1634 20 68 20H256C264.837 20 272 27.1634 272 36V144C272 152.837 264.837 160 256 160H68C59.1634 160 52 152.837 52 144V36Z" fill="white"/>
<path fill-rule="evenodd" clip-rule="evenodd" d="M256 22H68C60.268 22 54 28.268 54 36V144C54 151.732 60.268 158 68 158H256C263.732 158 270 151.732 270 144V36C270 28.268 263.732 22 256 22ZM68 20C59.1634 20 52 27.1634 52 36V144C52 152.837 59.1634 160 68 160H256C264.837 160 272 152.837 272 144V36C272 27.1634 264.837 20 256 20H68Z" fill="#005C62"/>
<path fill-rule="evenodd" clip-rule="evenodd" d="M253.76 39.8798L249 44.5814L244.241 39.8798C243.728 39.3734 242.897 39.3734 242.385 39.8798C241.872 40.3855 241.872 41.208 242.385 41.7143L249 48.25L255.616 41.7143C255.872 41.4606 256 41.1281 256 40.7967C256 40.4648 255.872 40.1329 255.616 39.8798C255.36 39.6266 255.024 39.5 254.688 39.5C254.352 39.5 254.016 39.6266 253.76 39.8798Z" fill="#005C62"/>
<path fill-rule="evenodd" clip-rule="evenodd" d="M242.384 92.2862C242.128 92.54 242 92.8719 242 93.2032C242 93.5352 242.128 93.8671 242.384 94.1202C242.897 94.6266 243.728 94.6266 244.241 94.1202L249 89.418L253.759 94.1202C254.272 94.6266 255.103 94.6266 255.616 94.1202C256.128 93.6139 256.128 92.792 255.616 92.2862L249 85.75L242.384 92.2862Z" fill="#005C62"/>
<rect x="52" y="66" width="220" height="2" fill="#005C62"/>
<rect x="68" y="39" width="120" height="8" rx="4" fill="#009990" fill-opacity="0.5"/>
<rect x="68" y="87" width="120" height="8" rx="4" fill="#009990" fill-opacity="0.5"/>
<rect x="68" y="109" width="188" height="8" rx="4" fill="#009990" fill-opacity="0.5"/>
<rect x="68" y="125" width="188" height="8" rx="4" fill="#009990" fill-opacity="0.5"/>
<path d="M0 0V-2H-2V0H0ZM325 0H327V-2H325V0ZM325 180V182H327V180H325ZM0 180H-2V182H0V180ZM0 2H325V-2H0V2ZM323 0V180H327V0H323ZM325 178H0V182H325V178ZM2 180V0H-2V180H2Z" fill="#767676"/>
</svg>
