<svg xmlns="http://www.w3.org/2000/svg" width="312" height="180" fill="none"><path fill="#fff" d="M46 36c0-8.837 7.163-16 16-16h188c8.837 0 16 7.163 16 16v108c0 8.837-7.163 16-16 16H62c-8.837 0-16-7.163-16-16V36Z"/><path fill="#005C62" fill-rule="evenodd" d="M250 22H62c-7.732 0-14 6.268-14 14v108c0 7.732 6.268 14 14 14h188c7.732 0 14-6.268 14-14V36c0-7.732-6.268-14-14-14ZM62 20c-8.837 0-16 7.163-16 16v108c0 8.837 7.163 16 16 16h188c8.837 0 16-7.163 16-16V36c0-8.837-7.163-16-16-16H62Z" clip-rule="evenodd"/><path fill="#005C62" fill-rule="evenodd" d="m247.76 39.88-4.76 4.7-4.759-4.701a1.324 1.324 0 0 0-1.856 0 1.286 1.286 0 0 0 0 1.834L243 48.25l6.616-6.536a1.289 1.289 0 0 0 0-1.834 1.316 1.316 0 0 0-.928-.38c-.336 0-.672.127-.928.38Zm-11.376 52.406a1.288 1.288 0 0 0 0 1.834 1.325 1.325 0 0 0 1.857 0L243 89.418l4.759 4.702a1.325 1.325 0 0 0 1.857 0 1.287 1.287 0 0 0 0-1.834L243 85.75l-6.616 6.536Z" clip-rule="evenodd"/><path fill="#005C62" d="M46 66h220v2H46z"/><rect width="120" height="8" x="62" y="39" fill="#009990" fill-opacity=".5" rx="4"/><rect width="120" height="8" x="62" y="87" fill="#009990" fill-opacity=".5" rx="4"/><rect width="188" height="8" x="62" y="109" fill="#009990" fill-opacity=".5" rx="4"/><rect width="188" height="8" x="62" y="125" fill="#009990" fill-opacity=".5" rx="4"/></svg>