<svg width="325" height="180" viewBox="0 0 325 180" fill="none" xmlns="http://www.w3.org/2000/svg">
<rect width="325" height="180" fill="#F6FDF5"/>
<path d="M53 92C53 86.4772 57.4772 82 63 82H263C268.523 82 273 86.4772 273 92V104C273 109.523 268.523 114 263 114H63C57.4772 114 53 109.523 53 104V92Z" fill="white"/>
<path fill-rule="evenodd" clip-rule="evenodd" d="M52 92C52 85.9249 56.9249 81 63 81H263C269.075 81 274 85.9249 274 92V104C274 110.075 269.075 115 263 115H63C56.9249 115 52 110.075 52 104V92ZM63 83C58.0294 83 54 87.0294 54 92V104C54 108.971 58.0294 113 63 113H263C267.971 113 272 108.971 272 104V92C272 87.0294 267.971 83 263 83H63Z" fill="#005C62"/>
<path fill-rule="evenodd" clip-rule="evenodd" d="M253.247 94.3269C253.083 94.49 253 94.7034 253 94.9164C253 95.1298 253.083 95.3431 253.247 95.5059C253.577 95.8314 254.111 95.8314 254.44 95.5059L257.5 92.483L260.56 95.5059C260.889 95.8314 261.423 95.8314 261.753 95.5059C262.083 95.1804 262.083 94.652 261.753 94.3269L257.5 90.125L253.247 94.3269Z" fill="#005C62"/>
<path fill-rule="evenodd" clip-rule="evenodd" d="M260.56 100.494L257.5 103.517L254.441 100.494C254.111 100.169 253.577 100.169 253.247 100.494C252.917 100.819 252.917 101.348 253.247 101.674L257.5 105.875L261.753 101.674C261.917 101.51 262 101.297 262 101.084C262 100.87 261.917 100.657 261.753 100.494C261.588 100.331 261.372 100.25 261.156 100.25C260.94 100.25 260.724 100.331 260.56 100.494Z" fill="#005C62"/>
<rect x="62" y="94" width="122" height="8" rx="4" fill="#009990" fill-opacity="0.5"/>
<rect x="52" y="66" width="100" height="8" rx="4" fill="#009990" fill-opacity="0.5"/>
<path d="M0 0V-2H-2V0H0ZM325 0H327V-2H325V0ZM325 180V182H327V180H325ZM0 180H-2V182H0V180ZM0 2H325V-2H0V2ZM323 0V180H327V0H323ZM325 178H0V182H325V178ZM2 180V0H-2V180H2Z" fill="#767676"/>
</svg>
