<svg width="325" height="180" viewBox="0 0 325 180" fill="none" xmlns="http://www.w3.org/2000/svg">
<g clip-path="url(#clip0_103_1692)">
<rect width="325" height="180" fill="#F6FDF5"/>
<path d="M60 52C60 45.3726 65.3726 40 72 40H330V84H60V52Z" fill="white"/>
<path fill-rule="evenodd" clip-rule="evenodd" d="M328 42H72C66.4772 42 62 46.4772 62 52V82H328V42ZM72 40C65.3726 40 60 45.3726 60 52V84H330V40H72Z" fill="#005C62"/>
<path d="M60 82H330V187H60V82Z" fill="#CCF6EE" fill-opacity="0.5"/>
<path fill-rule="evenodd" clip-rule="evenodd" d="M328 84H62V185H328V84ZM60 82V187H330V82H60Z" fill="#005C62"/>
<path d="M265.5 62C265.5 55.3726 270.873 50 277.5 50H297C303.627 50 309 55.3726 309 62C309 68.6274 303.627 74 297 74H277.5C270.873 74 265.5 68.6274 265.5 62Z" fill="#005C62"/>
<path d="M276.531 64.6367C277.734 64.6367 278.48 64.0156 278.48 63.0234C278.48 62.2969 277.938 61.7383 277.191 61.6797V61.6094C277.77 61.5234 278.211 61.0039 278.211 60.4062C278.211 59.5352 277.559 59 276.465 59H274V64.6367H276.531ZM275.18 59.875H276.164C276.727 59.875 277.051 60.1484 277.051 60.6094C277.051 61.0781 276.703 61.3438 276.066 61.3438H275.18V59.875ZM275.18 63.7578V62.1211H276.203C276.898 62.1211 277.277 62.4023 277.277 62.9297C277.277 63.4688 276.91 63.7578 276.23 63.7578H275.18Z" fill="white"/>
<path d="M283.332 60.3359H282.195V62.8203C282.195 63.4102 281.891 63.7734 281.324 63.7734C280.801 63.7734 280.531 63.4648 280.531 62.8555V60.3359H279.395V63.1367C279.395 64.1367 279.973 64.7266 280.902 64.7266C281.555 64.7266 281.957 64.4453 282.16 63.9453H282.23V64.6367H283.332V60.3359Z" fill="white"/>
<path d="M284.797 59.3086V60.375H284.125V61.2383H284.797V63.4766C284.797 64.3125 285.211 64.6523 286.258 64.6523C286.477 64.6523 286.688 64.6289 286.828 64.6016V63.7617C286.719 63.7734 286.641 63.7812 286.492 63.7812C286.105 63.7812 285.934 63.6016 285.934 63.2148V61.2383H286.828V60.375H285.934V59.3086H284.797Z" fill="white"/>
<path d="M288.141 59.3086V60.375H287.469V61.2383H288.141V63.4766C288.141 64.3125 288.555 64.6523 289.602 64.6523C289.82 64.6523 290.031 64.6289 290.172 64.6016V63.7617C290.062 63.7734 289.984 63.7812 289.836 63.7812C289.449 63.7812 289.277 63.6016 289.277 63.2148V61.2383H290.172V60.375H289.277V59.3086H288.141Z" fill="white"/>
<path d="M293 64.7266C294.324 64.7266 295.121 63.8906 295.121 62.4844C295.121 61.0898 294.312 60.2422 293 60.2422C291.688 60.2422 290.879 61.0938 290.879 62.4844C290.879 63.8867 291.676 64.7266 293 64.7266ZM293 63.8281C292.391 63.8281 292.047 63.3359 292.047 62.4844C292.047 61.6406 292.395 61.1445 293 61.1445C293.602 61.1445 293.953 61.6406 293.953 62.4844C293.953 63.3359 293.605 63.8281 293 63.8281Z" fill="white"/>
<path d="M296.051 64.6367H297.188V62.1484C297.188 61.5664 297.512 61.1914 298.039 61.1914C298.578 61.1914 298.832 61.5078 298.832 62.1133V64.6367H299.969V61.8555C299.969 60.8281 299.453 60.2422 298.496 60.2422C297.859 60.2422 297.422 60.543 297.223 61.0273H297.152V60.3359H296.051V64.6367Z" fill="white"/>
<path d="M218 62C218 55.3726 223.373 50 230 50H249.5C256.127 50 261.5 55.3726 261.5 62C261.5 68.6274 256.127 74 249.5 74H230C223.373 74 218 68.6274 218 62Z" fill="#009990"/>
<path d="M229.031 64.6367C230.234 64.6367 230.98 64.0156 230.98 63.0234C230.98 62.2969 230.438 61.7383 229.691 61.6797V61.6094C230.27 61.5234 230.711 61.0039 230.711 60.4062C230.711 59.5352 230.059 59 228.965 59H226.5V64.6367H229.031ZM227.68 59.875H228.664C229.227 59.875 229.551 60.1484 229.551 60.6094C229.551 61.0781 229.203 61.3438 228.566 61.3438H227.68V59.875ZM227.68 63.7578V62.1211H228.703C229.398 62.1211 229.777 62.4023 229.777 62.9297C229.777 63.4688 229.41 63.7578 228.73 63.7578H227.68Z" fill="white"/>
<path d="M235.832 60.3359H234.695V62.8203C234.695 63.4102 234.391 63.7734 233.824 63.7734C233.301 63.7734 233.031 63.4648 233.031 62.8555V60.3359H231.895V63.1367C231.895 64.1367 232.473 64.7266 233.402 64.7266C234.055 64.7266 234.457 64.4453 234.66 63.9453H234.73V64.6367H235.832V60.3359Z" fill="white"/>
<path d="M237.297 59.3086V60.375H236.625V61.2383H237.297V63.4766C237.297 64.3125 237.711 64.6523 238.758 64.6523C238.977 64.6523 239.188 64.6289 239.328 64.6016V63.7617C239.219 63.7734 239.141 63.7812 238.992 63.7812C238.605 63.7812 238.434 63.6016 238.434 63.2148V61.2383H239.328V60.375H238.434V59.3086H237.297Z" fill="white"/>
<path d="M240.641 59.3086V60.375H239.969V61.2383H240.641V63.4766C240.641 64.3125 241.055 64.6523 242.102 64.6523C242.32 64.6523 242.531 64.6289 242.672 64.6016V63.7617C242.562 63.7734 242.484 63.7812 242.336 63.7812C241.949 63.7812 241.777 63.6016 241.777 63.2148V61.2383H242.672V60.375H241.777V59.3086H240.641Z" fill="white"/>
<path d="M245.5 64.7266C246.824 64.7266 247.621 63.8906 247.621 62.4844C247.621 61.0898 246.812 60.2422 245.5 60.2422C244.188 60.2422 243.379 61.0938 243.379 62.4844C243.379 63.8867 244.176 64.7266 245.5 64.7266ZM245.5 63.8281C244.891 63.8281 244.547 63.3359 244.547 62.4844C244.547 61.6406 244.895 61.1445 245.5 61.1445C246.102 61.1445 246.453 61.6406 246.453 62.4844C246.453 63.3359 246.105 63.8281 245.5 63.8281Z" fill="white"/>
<path d="M248.551 64.6367H249.688V62.1484C249.688 61.5664 250.012 61.1914 250.539 61.1914C251.078 61.1914 251.332 61.5078 251.332 62.1133V64.6367H252.469V61.8555C252.469 60.8281 251.953 60.2422 250.996 60.2422C250.359 60.2422 249.922 60.543 249.723 61.0273H249.652V60.3359H248.551V64.6367Z" fill="white"/>
<rect x="76" y="58" width="80" height="8" rx="4" fill="#009990" fill-opacity="0.5"/>
</g>
<path d="M0 0V-2H-2V0H0ZM325 0H327V-2H325V0ZM325 180V182H327V180H325ZM0 180H-2V182H0V180ZM0 2H325V-2H0V2ZM323 0V180H327V0H323ZM325 178H0V182H325V178ZM2 180V0H-2V180H2Z" fill="#767676"/>
<defs>
<clipPath id="clip0_103_1692">
<path d="M0 0H325V180H0V0Z" fill="white"/>
</clipPath>
</defs>
</svg>
