<svg xmlns="http://www.w3.org/2000/svg" width="312" height="180" fill="none"><path fill="#fff" d="M20 68h272v45H20z"/><path fill="#005C62" fill-rule="evenodd" d="M19 67h274v47H19V67Zm2 2v43h270V69H21Z" clip-rule="evenodd"/><path fill="#005C62" d="M238.5 90c0-6.627 5.373-12 12-12H270c6.627 0 12 5.373 12 12s-5.373 12-12 12h-19.5c-6.627 0-12-5.373-12-12Z"/><path fill="#fff" d="M249.531 92.637c1.203 0 1.949-.621 1.949-1.614 0-.726-.542-1.285-1.289-1.343v-.07a1.218 1.218 0 0 0 1.02-1.204c0-.87-.652-1.406-1.746-1.406H247v5.637h2.531Zm-1.351-4.762h.984c.563 0 .887.273.887.734 0 .47-.348.735-.985.735h-.886v-1.469Zm0 3.883V90.12h1.023c.695 0 1.074.281 1.074.809 0 .539-.367.828-1.047.828h-1.05ZM256.332 88.336h-1.137v2.484c0 .59-.304.953-.871.953-.523 0-.793-.308-.793-.917v-2.52h-1.136v2.8c0 1 .578 1.59 1.507 1.59.653 0 1.055-.28 1.258-.78h.07v.69h1.102v-4.3ZM257.797 87.309v1.066h-.672v.863h.672v2.239c0 .835.414 1.175 1.461 1.175.219 0 .43-.023.57-.05v-.84a2.68 2.68 0 0 1-.336.02c-.387 0-.558-.18-.558-.567v-1.977h.894v-.863h-.894v-1.066h-1.137ZM261.141 87.309v1.066h-.672v.863h.672v2.239c0 .835.414 1.175 1.461 1.175.218 0 .429-.023.57-.05v-.84c-.11.011-.188.02-.336.02-.387 0-.559-.18-.559-.567v-1.977h.895v-.863h-.895v-1.066h-1.136ZM266 92.727c1.324 0 2.121-.836 2.121-2.243 0-1.394-.809-2.242-2.121-2.242-1.312 0-2.121.852-2.121 2.242 0 1.403.797 2.243 2.121 2.243Zm0-.899c-.609 0-.953-.492-.953-1.344 0-.843.348-1.34.953-1.34.602 0 .953.497.953 1.34 0 .852-.348 1.344-.953 1.344ZM269.051 92.637h1.137v-2.489c0-.582.324-.957.851-.957.539 0 .793.317.793.922v2.524h1.137v-2.781c0-1.028-.516-1.614-1.473-1.614-.637 0-1.074.301-1.273.785h-.071v-.691h-1.101v4.3Z"/><rect width="24" height="24" x="209" y="78" fill="#fff" fill-opacity=".9" rx="12"/><path fill="#005C62" fill-rule="evenodd" d="M221 88.5a1.5 1.5 0 1 0 0 3 1.5 1.5 0 0 0 0-3ZM216.5 88.5a1.5 1.5 0 1 0 0 3 1.5 1.5 0 0 0 0-3ZM225.5 88.5a1.5 1.5 0 1 0 0 3 1.5 1.5 0 0 0 0-3Z" clip-rule="evenodd"/><rect width="80" height="8" x="29" y="80" fill="#009990" fill-opacity=".5" rx="4"/><rect width="137" height="8" x="29" y="92" fill="#009990" fill-opacity=".5" rx="4"/></svg>