<svg width="312" height="180" viewBox="0 0 312 180" fill="none" xmlns="http://www.w3.org/2000/svg">
<g clip-path="url(#clip0_1527_1831)">
<rect width="312" height="180" fill="#F6FDF5"/>
<path fill-rule="evenodd" clip-rule="evenodd" d="M75 31C68.3726 31 63 36.3726 63 43V131C63 137.627 68.3726 143 75 143H151.381L155.134 149.5C155.519 150.167 156.481 150.167 156.866 149.5L160.619 143H237C243.627 143 249 137.627 249 131V43C249 36.3726 243.627 31 237 31H75Z" fill="#CCF6EE" fill-opacity="0.5"/>
<path fill-rule="evenodd" clip-rule="evenodd" d="M61 43C61 35.268 67.268 29 75 29H237C244.732 29 251 35.268 251 43V131C251 138.732 244.732 145 237 145H161.774L158.598 150.5C157.443 152.5 154.557 152.5 153.402 150.5L150.226 145H75C67.268 145 61 138.732 61 131V43ZM151.381 143H75C68.3726 143 63 137.627 63 131V43C63 36.3726 68.3726 31 75 31H237C243.627 31 249 36.3726 249 43V131C249 137.627 243.627 143 237 143H160.619L156.866 149.5C156.481 150.167 155.519 150.167 155.134 149.5L151.381 143Z" fill="#005C62"/>
<rect x="79" y="54" width="154" height="8" rx="4" fill="#009990" fill-opacity="0.5"/>
<rect x="79" y="70" width="154" height="8" rx="4" fill="#009990" fill-opacity="0.5"/>
<path d="M175 110C175 101.163 182.163 94 191 94H217C225.837 94 233 101.163 233 110C233 118.837 225.837 126 217 126H191C182.163 126 175 118.837 175 110Z" fill="#005C62"/>
<path d="M189.412 113.874C191.033 113.874 192.039 113.007 192.039 111.621C192.039 110.606 191.307 109.825 190.301 109.744V109.645C191.08 109.525 191.675 108.799 191.675 107.965C191.675 106.748 190.796 106 189.322 106H186V113.874H189.412ZM187.59 107.222H188.917C189.675 107.222 190.112 107.604 190.112 108.248C190.112 108.903 189.643 109.274 188.785 109.274H187.59V107.222ZM187.59 112.647V110.36H188.969C189.906 110.36 190.417 110.753 190.417 111.49C190.417 112.243 189.922 112.647 189.006 112.647H187.59Z" fill="white"/>
<path d="M198.577 107.866H197.045V111.337C197.045 112.161 196.635 112.668 195.871 112.668C195.166 112.668 194.803 112.237 194.803 111.386V107.866H193.271V111.779C193.271 113.176 194.05 114 195.303 114C196.182 114 196.724 113.607 196.998 112.909H197.093V113.874H198.577V107.866Z" fill="white"/>
<path d="M200.552 106.431V107.921H199.646V109.127H200.552V112.254C200.552 113.422 201.11 113.896 202.521 113.896C202.816 113.896 203.1 113.864 203.289 113.825V112.652C203.142 112.668 203.037 112.679 202.837 112.679C202.315 112.679 202.084 112.428 202.084 111.888V109.127H203.289V107.921H202.084V106.431H200.552Z" fill="white"/>
<path d="M205.058 106.431V107.921H204.153V109.127H205.058V112.254C205.058 113.422 205.616 113.896 207.027 113.896C207.322 113.896 207.606 113.864 207.796 113.825V112.652C207.649 112.668 207.543 112.679 207.343 112.679C206.822 112.679 206.59 112.428 206.59 111.888V109.127H207.796V107.921H206.59V106.431H205.058Z" fill="white"/>
<path d="M211.608 114C213.392 114 214.466 112.832 214.466 110.868C214.466 108.92 213.377 107.735 211.608 107.735C209.839 107.735 208.749 108.925 208.749 110.868C208.749 112.827 209.823 114 211.608 114ZM211.608 112.745C210.786 112.745 210.323 112.057 210.323 110.868C210.323 109.689 210.792 108.996 211.608 108.996C212.418 108.996 212.892 109.689 212.892 110.868C212.892 112.057 212.424 112.745 211.608 112.745Z" fill="white"/>
<path d="M215.719 113.874H217.252V110.398C217.252 109.585 217.688 109.061 218.399 109.061C219.126 109.061 219.468 109.503 219.468 110.349V113.874H221V109.989C221 108.554 220.305 107.735 219.015 107.735C218.157 107.735 217.567 108.156 217.299 108.832H217.204V107.866H215.719V113.874Z" fill="white"/>
</g>
<defs>
<clipPath id="clip0_1527_1831">
<rect width="312" height="180" fill="white"/>
</clipPath>
</defs>
</svg>
