<svg width="325" height="180" viewBox="0 0 325 180" fill="none" xmlns="http://www.w3.org/2000/svg">
<rect width="325" height="180" fill="#F6FDF5"/>
<path fill-rule="evenodd" clip-rule="evenodd" d="M81 31C74.3726 31 69 36.3726 69 43V131C69 137.627 74.3726 143 81 143H157.381L161.134 149.5C161.519 150.167 162.481 150.167 162.866 149.5L166.619 143H243C249.627 143 255 137.627 255 131V43C255 36.3726 249.627 31 243 31H81Z" fill="white"/>
<path fill-rule="evenodd" clip-rule="evenodd" d="M67 43C67 35.268 73.268 29 81 29H243C250.732 29 257 35.268 257 43V131C257 138.732 250.732 145 243 145H167.774L164.598 150.5C163.443 152.5 160.557 152.5 159.402 150.5L156.226 145H81C73.268 145 67 138.732 67 131V43ZM157.381 143H81C74.3726 143 69 137.627 69 131V43C69 36.3726 74.3726 31 81 31H243C249.627 31 255 36.3726 255 43V131C255 137.627 249.627 143 243 143H166.619L162.866 149.5C162.481 150.167 161.519 150.167 161.134 149.5L157.381 143Z" fill="#005C62"/>
<rect x="85" y="54" width="154" height="8" rx="4" fill="#009990" fill-opacity="0.5"/>
<rect x="85" y="70" width="154" height="8" rx="4" fill="#009990" fill-opacity="0.5"/>
<path d="M133 110C133 101.163 140.163 94 149 94H175C183.837 94 191 101.163 191 110C191 118.837 183.837 126 175 126H149C140.163 126 133 118.837 133 110Z" fill="#005C62"/>
<path d="M147.412 113.874C149.033 113.874 150.039 113.007 150.039 111.621C150.039 110.606 149.307 109.825 148.301 109.744V109.645C149.08 109.525 149.675 108.799 149.675 107.965C149.675 106.748 148.796 106 147.322 106H144V113.874H147.412ZM145.59 107.222H146.917C147.675 107.222 148.112 107.604 148.112 108.248C148.112 108.903 147.643 109.274 146.785 109.274H145.59V107.222ZM145.59 112.647V110.36H146.969C147.906 110.36 148.417 110.753 148.417 111.49C148.417 112.243 147.922 112.647 147.006 112.647H145.59Z" fill="white"/>
<path d="M156.577 107.866H155.045V111.337C155.045 112.161 154.635 112.668 153.871 112.668C153.166 112.668 152.803 112.237 152.803 111.386V107.866H151.271V111.779C151.271 113.176 152.05 114 153.303 114C154.182 114 154.724 113.607 154.998 112.909H155.093V113.874H156.577V107.866Z" fill="white"/>
<path d="M158.552 106.431V107.921H157.646V109.127H158.552V112.254C158.552 113.422 159.11 113.896 160.521 113.896C160.816 113.896 161.1 113.864 161.289 113.825V112.652C161.142 112.668 161.037 112.679 160.837 112.679C160.315 112.679 160.084 112.428 160.084 111.888V109.127H161.289V107.921H160.084V106.431H158.552Z" fill="white"/>
<path d="M163.058 106.431V107.921H162.153V109.127H163.058V112.254C163.058 113.422 163.616 113.896 165.027 113.896C165.322 113.896 165.606 113.864 165.796 113.825V112.652C165.649 112.668 165.543 112.679 165.343 112.679C164.822 112.679 164.59 112.428 164.59 111.888V109.127H165.796V107.921H164.59V106.431H163.058Z" fill="white"/>
<path d="M169.608 114C171.392 114 172.466 112.832 172.466 110.868C172.466 108.92 171.377 107.735 169.608 107.735C167.839 107.735 166.749 108.925 166.749 110.868C166.749 112.827 167.823 114 169.608 114ZM169.608 112.745C168.786 112.745 168.323 112.057 168.323 110.868C168.323 109.689 168.792 108.996 169.608 108.996C170.418 108.996 170.892 109.689 170.892 110.868C170.892 112.057 170.424 112.745 169.608 112.745Z" fill="white"/>
<path d="M173.719 113.874H175.252V110.398C175.252 109.585 175.688 109.061 176.399 109.061C177.126 109.061 177.468 109.503 177.468 110.349V113.874H179V109.989C179 108.554 178.305 107.735 177.015 107.735C176.157 107.735 175.567 108.156 175.299 108.832H175.204V107.866H173.719V113.874Z" fill="white"/>
<path d="M0 0V-2H-2V0H0ZM325 0H327V-2H325V0ZM325 180V182H327V180H325ZM0 180H-2V182H0V180ZM0 2H325V-2H0V2ZM323 0V180H327V0H323ZM325 178H0V182H325V178ZM2 180V0H-2V180H2Z" fill="#767676"/>
</svg>
