<svg width="312" height="180" viewBox="0 0 312 180" fill="none" xmlns="http://www.w3.org/2000/svg">
<g clip-path="url(#clip0_103_1741)">
<rect width="312" height="180" fill="#F6FDF5"/>
<path fill-rule="evenodd" clip-rule="evenodd" d="M75 31C68.3726 31 63 36.3726 63 43V131C63 137.627 68.3726 143 75 143H151.381H155C155.385 143.667 156.115 143.667 156.5 143H160.619H237C243.627 143 249 137.627 249 131V43C249 36.3726 243.627 31 237 31H75Z" fill="white"/>
<path fill-rule="evenodd" clip-rule="evenodd" d="M61 43C61 35.268 67.268 29 75 29H237C244.732 29 251 35.268 251 43V131C251 138.732 244.732 145 237 145H161.774H157.5H154H150.226H75C67.268 145 61 138.732 61 131V43ZM151.381 143H75C68.3726 143 63 137.627 63 131V43C63 36.3726 68.3726 31 75 31H237C243.627 31 249 36.3726 249 43V131C249 137.627 243.627 143 237 143H160.619H156.5H156H151.381Z" fill="#005C62"/>
<rect x="79" y="54" width="154" height="8" rx="4" fill="#009990" fill-opacity="0.5"/>
<rect x="79" y="70" width="154" height="8" rx="4" fill="#009990" fill-opacity="0.5"/>
<path d="M127 110C127 101.163 134.163 94 143 94H169C177.837 94 185 101.163 185 110C185 118.837 177.837 126 169 126H143C134.163 126 127 118.837 127 110Z" fill="#005C62"/>
<path d="M141.412 113.874C143.033 113.874 144.039 113.007 144.039 111.621C144.039 110.606 143.307 109.825 142.301 109.744V109.645C143.08 109.525 143.675 108.799 143.675 107.965C143.675 106.748 142.796 106 141.322 106H138V113.874H141.412ZM139.59 107.222H140.917C141.675 107.222 142.112 107.604 142.112 108.248C142.112 108.903 141.643 109.274 140.785 109.274H139.59V107.222ZM139.59 112.647V110.36H140.969C141.906 110.36 142.417 110.753 142.417 111.49C142.417 112.243 141.922 112.647 141.006 112.647H139.59Z" fill="white"/>
<path d="M150.577 107.866H149.045V111.337C149.045 112.161 148.635 112.668 147.871 112.668C147.166 112.668 146.803 112.237 146.803 111.386V107.866H145.271V111.779C145.271 113.176 146.05 114 147.303 114C148.182 114 148.724 113.607 148.998 112.909H149.093V113.874H150.577V107.866Z" fill="white"/>
<path d="M152.552 106.431V107.921H151.646V109.127H152.552V112.254C152.552 113.422 153.11 113.896 154.521 113.896C154.816 113.896 155.1 113.864 155.289 113.825V112.652C155.142 112.668 155.037 112.679 154.837 112.679C154.315 112.679 154.084 112.428 154.084 111.888V109.127H155.289V107.921H154.084V106.431H152.552Z" fill="white"/>
<path d="M157.058 106.431V107.921H156.153V109.127H157.058V112.254C157.058 113.422 157.616 113.896 159.027 113.896C159.322 113.896 159.606 113.864 159.796 113.825V112.652C159.649 112.668 159.543 112.679 159.343 112.679C158.822 112.679 158.59 112.428 158.59 111.888V109.127H159.796V107.921H158.59V106.431H157.058Z" fill="white"/>
<path d="M163.608 114C165.392 114 166.466 112.832 166.466 110.868C166.466 108.92 165.377 107.735 163.608 107.735C161.839 107.735 160.749 108.925 160.749 110.868C160.749 112.827 161.823 114 163.608 114ZM163.608 112.745C162.786 112.745 162.323 112.057 162.323 110.868C162.323 109.689 162.792 108.996 163.608 108.996C164.418 108.996 164.892 109.689 164.892 110.868C164.892 112.057 164.424 112.745 163.608 112.745Z" fill="white"/>
<path d="M167.719 113.874H169.252V110.398C169.252 109.585 169.688 109.061 170.399 109.061C171.126 109.061 171.468 109.503 171.468 110.349V113.874H173V109.989C173 108.554 172.305 107.735 171.015 107.735C170.157 107.735 169.567 108.156 169.299 108.832H169.204V107.866H167.719V113.874Z" fill="white"/>
</g>
<defs>
<clipPath id="clip0_103_1741">
<rect width="312" height="180" fill="white"/>
</clipPath>
</defs>
</svg>
