<svg xmlns="http://www.w3.org/2000/svg" width="312" height="180" fill="none"><path fill="#CCF6EE" fill-opacity=".5" fill-rule="evenodd" d="M75 31c-6.627 0-12 5.373-12 12v88c0 6.627 5.373 12 12 12h76.381l3.753 6.5a1 1 0 0 0 1.732 0l3.753-6.5H237c6.627 0 12-5.373 12-12V43c0-6.627-5.373-12-12-12H75Z" clip-rule="evenodd"/><path fill="#005C62" fill-rule="evenodd" d="M61 43c0-7.732 6.268-14 14-14h162c7.732 0 14 6.268 14 14v88c0 7.732-6.268 14-14 14h-75.226l-3.176 5.5c-1.155 2-4.041 2-5.196 0l-3.176-5.5H75c-7.732 0-14-6.268-14-14V43Zm90.381 100H75c-6.627 0-12-5.373-12-12V43c0-6.627 5.373-12 12-12h162c6.627 0 12 5.373 12 12v88c0 6.627-5.373 12-12 12h-76.381l-3.753 6.5a1 1 0 0 1-1.732 0l-3.753-6.5Z" clip-rule="evenodd"/><rect width="154" height="8" x="79" y="54" fill="#009990" fill-opacity=".5" rx="4"/><rect width="154" height="8" x="79" y="70" fill="#009990" fill-opacity=".5" rx="4"/><path fill="#005C62" d="M127 110c0-8.837 7.163-16 16-16h26c8.837 0 16 7.163 16 16s-7.163 16-16 16h-26c-8.837 0-16-7.163-16-16Z"/><path fill="#fff" d="M141.412 113.874c1.621 0 2.627-.867 2.627-2.253 0-1.015-.732-1.796-1.738-1.877v-.099c.779-.12 1.374-.846 1.374-1.68 0-1.217-.879-1.965-2.353-1.965H138v7.874h3.412Zm-1.822-6.652h1.327c.758 0 1.195.382 1.195 1.026 0 .655-.469 1.026-1.327 1.026h-1.195v-2.052Zm0 5.425v-2.287h1.379c.937 0 1.448.393 1.448 1.13 0 .753-.495 1.157-1.411 1.157h-1.416Zm10.987-4.781h-1.532v3.471c0 .824-.41 1.331-1.174 1.331-.705 0-1.068-.431-1.068-1.282v-3.52h-1.532v3.913c0 1.397.779 2.221 2.032 2.221.879 0 1.421-.393 1.695-1.091h.095v.965h1.484v-6.008Zm1.975-1.435v1.49h-.906v1.206h.906v3.127c0 1.168.558 1.642 1.969 1.642.295 0 .579-.032.768-.071v-1.173a3.55 3.55 0 0 1-.452.027c-.522 0-.753-.251-.753-.791v-2.761h1.205v-1.206h-1.205v-1.49h-1.532Zm4.506 0v1.49h-.905v1.206h.905v3.127c0 1.168.558 1.642 1.969 1.642.295 0 .579-.032.769-.071v-1.173a3.567 3.567 0 0 1-.453.027c-.521 0-.753-.251-.753-.791v-2.761h1.206v-1.206h-1.206v-1.49h-1.532Zm6.55 7.569c1.784 0 2.858-1.168 2.858-3.132 0-1.948-1.089-3.133-2.858-3.133-1.769 0-2.859 1.19-2.859 3.133 0 1.959 1.074 3.132 2.859 3.132Zm0-1.255c-.822 0-1.285-.688-1.285-1.877 0-1.179.469-1.872 1.285-1.872.81 0 1.284.693 1.284 1.872 0 1.189-.468 1.877-1.284 1.877Zm4.111 1.129h1.533v-3.476c0-.813.436-1.337 1.147-1.337.727 0 1.069.442 1.069 1.288v3.525H173v-3.885c0-1.435-.695-2.254-1.985-2.254-.858 0-1.448.421-1.716 1.097h-.095v-.966h-1.485v6.008Z"/></svg>