<svg xmlns="http://www.w3.org/2000/svg" width="312" height="180" fill="none"><path fill="#005C62" fill-rule="evenodd" d="M156 132.5c23.196 0 42-18.804 42-42s-18.804-42-42-42-42 18.804-42 42 18.804 42 42 42Zm0 8c27.614 0 50-22.386 50-50s-22.386-50-50-50-50 22.386-50 50 22.386 50 50 50Z" clip-rule="evenodd"/><path fill="#009990" fill-rule="evenodd" d="M132.935 149.353a1 1 0 0 1-1.289.582 58.144 58.144 0 0 1-3.413-1.416 1 1 0 0 1 .825-1.822c1.079.489 2.178.945 3.296 1.367a1 1 0 0 1 .581 1.289Zm-9.847-4.63a1 1 0 0 1-1.376.326 57.02 57.02 0 0 1-6.022-4.282.999.999 0 1 1 1.262-1.551 54.946 54.946 0 0 0 5.811 4.131 1 1 0 0 1 .325 1.376Zm-11.399-8.945a1 1 0 0 1-1.414-.041 55.232 55.232 0 0 1-4.7-5.707 1 1 0 0 1 1.626-1.164 53.08 53.08 0 0 0 4.53 5.499.999.999 0 0 1-.042 1.413Zm-8.648-11.621a1 1 0 0 1-1.35-.42 53.531 53.531 0 0 1-1.607-3.335 1 1 0 0 1 1.832-.804 51.391 51.391 0 0 0 1.545 3.208 1 1 0 0 1-.42 1.351Zm14.82 29.349a1 1 0 0 1-1.369.352 64.057 64.057 0 0 1-2.612-1.627 1 1 0 0 1 1.098-1.672 61.209 61.209 0 0 0 2.531 1.577 1 1 0 0 1 .352 1.37Zm-7.549-5.049a1 1 0 0 1-1.406.153 63.42 63.42 0 0 1-4.602-4.085 1 1 0 1 1 1.399-1.43 61.01 61.01 0 0 0 4.457 3.956 1 1 0 0 1 .152 1.406Zm-8.782-8.324a1 1 0 0 1-1.408-.124 61.71 61.71 0 0 1-1.92-2.408 1 1 0 0 1 1.595-1.207c.6.791 1.219 1.568 1.857 2.33a1 1 0 0 1-.124 1.409Zm77.534-108.489a1 1 0 0 1 1.289-.582c1.157.438 2.296.91 3.414 1.416a1 1 0 0 1-.825 1.822 56.155 56.155 0 0 0-3.296-1.367 1 1 0 0 1-.582-1.289Zm9.848 4.63a1 1 0 0 1 1.376-.325 56.998 56.998 0 0 1 6.022 4.281 1 1 0 0 1-1.262 1.551 54.974 54.974 0 0 0-5.811-4.13 1 1 0 0 1-.325-1.377Zm11.399 8.945a1 1 0 0 1 1.413.042 55.055 55.055 0 0 1 4.701 5.706 1 1 0 0 1-1.626 1.165 53.037 53.037 0 0 0-4.53-5.5 1 1 0 0 1 .042-1.413Zm8.648 11.622a1 1 0 0 1 1.35.42 53.033 53.033 0 0 1 1.606 3.335 1 1 0 1 1-1.831.804 51.22 51.22 0 0 0-1.545-3.209 1 1 0 0 1 .42-1.35Zm-14.82-29.349a1 1 0 0 1 1.369-.353 64.625 64.625 0 0 1 2.612 1.628 1 1 0 1 1-1.099 1.671 62.042 62.042 0 0 0-2.53-1.577 1 1 0 0 1-.352-1.37Zm7.549 5.048a1 1 0 0 1 1.406-.152 63.302 63.302 0 0 1 4.602 4.085 1 1 0 1 1-1.399 1.43 61.338 61.338 0 0 0-4.457-3.957 1 1 0 0 1-.152-1.406Zm8.782 8.325a1 1 0 0 1 1.408.124c.66.787 1.3 1.59 1.919 2.408a1 1 0 1 1-1.595 1.207 60.057 60.057 0 0 0-1.856-2.33 1 1 0 0 1 .124-1.41Z" clip-rule="evenodd"/></svg>