<svg width="325" height="180" viewBox="0 0 325 180" fill="none" xmlns="http://www.w3.org/2000/svg">
<rect width="325" height="180" fill="#F6FDF5"/>
<path fill-rule="evenodd" clip-rule="evenodd" d="M162 131.5C185.196 131.5 204 112.696 204 89.5C204 66.304 185.196 47.5 162 47.5C138.804 47.5 120 66.304 120 89.5C120 112.696 138.804 131.5 162 131.5ZM162 139.5C189.614 139.5 212 117.114 212 89.5C212 61.8858 189.614 39.5 162 39.5C134.386 39.5 112 61.8858 112 89.5C112 117.114 134.386 139.5 162 139.5Z" fill="#005C62"/>
<path fill-rule="evenodd" clip-rule="evenodd" d="M138.936 148.353C138.74 148.87 138.163 149.13 137.647 148.935C136.49 148.498 135.351 148.025 134.233 147.519C133.73 147.291 133.507 146.699 133.734 146.196C133.962 145.693 134.555 145.469 135.058 145.697C136.138 146.186 137.237 146.642 138.354 147.064C138.87 147.26 139.131 147.837 138.936 148.353ZM129.088 143.723C128.798 144.193 128.182 144.339 127.712 144.048C125.605 142.747 123.593 141.316 121.69 139.767C121.262 139.419 121.197 138.789 121.545 138.361C121.894 137.932 122.524 137.867 122.952 138.216C124.788 139.71 126.729 141.091 128.763 142.347C129.233 142.637 129.379 143.253 129.088 143.723ZM117.689 134.778C117.287 135.157 116.655 135.139 116.276 134.737C114.581 132.939 113.01 131.033 111.575 129.03C111.254 128.581 111.357 127.957 111.806 127.635C112.255 127.314 112.88 127.417 113.201 127.866C114.583 129.795 116.097 131.632 117.731 133.365C118.11 133.767 118.091 134.399 117.689 134.778ZM109.041 123.157C108.553 123.414 107.948 123.225 107.691 122.737C107.118 121.646 106.582 120.533 106.085 119.402C105.863 118.896 106.092 118.306 106.598 118.084C107.104 117.862 107.694 118.092 107.916 118.598C108.394 119.686 108.91 120.756 109.461 121.806C109.718 122.295 109.53 122.9 109.041 123.157Z" fill="#009990"/>
<path fill-rule="evenodd" clip-rule="evenodd" d="M123.861 152.506C123.58 152.981 122.967 153.139 122.491 152.858C121.606 152.336 120.736 151.793 119.88 151.231C119.418 150.928 119.29 150.308 119.593 149.846C119.897 149.384 120.517 149.256 120.978 149.559C121.807 150.104 122.651 150.63 123.508 151.136C123.984 151.417 124.142 152.03 123.861 152.506ZM116.312 147.457C115.966 147.888 115.336 147.956 114.906 147.61C113.303 146.32 111.767 144.957 110.304 143.525C109.909 143.138 109.902 142.505 110.288 142.11C110.675 141.716 111.308 141.709 111.702 142.095C113.119 143.482 114.607 144.802 116.159 146.051C116.59 146.397 116.658 147.027 116.312 147.457ZM107.53 139.133C107.107 139.487 106.476 139.432 106.121 139.009C105.462 138.222 104.822 137.419 104.202 136.601C103.869 136.161 103.956 135.533 104.396 135.2C104.837 134.867 105.464 134.954 105.797 135.394C106.396 136.185 107.016 136.962 107.654 137.724C108.009 138.147 107.953 138.778 107.53 139.133Z" fill="#009990"/>
<path fill-rule="evenodd" clip-rule="evenodd" d="M185.064 30.6442C185.26 30.1276 185.837 29.8671 186.353 30.0624C187.51 30.4998 188.649 30.9722 189.767 31.4785C190.27 31.7062 190.493 32.2987 190.266 32.8019C190.038 33.305 189.445 33.5282 188.942 33.3005C187.862 32.8117 186.763 32.3555 185.646 31.9332C185.13 31.7379 184.869 31.1608 185.064 30.6442ZM194.912 35.2744C195.202 34.8045 195.818 34.6589 196.288 34.9491C198.395 36.2506 200.407 37.6815 202.31 39.2301C202.738 39.5787 202.803 40.2085 202.455 40.6369C202.106 41.0653 201.476 41.1301 201.048 40.7815C199.212 39.2876 197.271 37.9068 195.237 36.6507C194.767 36.3605 194.621 35.7443 194.912 35.2744ZM206.311 44.2192C206.713 43.8403 207.345 43.8589 207.724 44.2608C209.419 46.0581 210.99 47.9643 212.425 49.9672C212.746 50.4162 212.643 51.0409 212.194 51.3625C211.745 51.684 211.12 51.5807 210.799 51.1317C209.417 49.2025 207.903 47.3656 206.269 45.6328C205.89 45.231 205.909 44.5981 206.311 44.2192ZM214.959 55.841C215.447 55.584 216.052 55.7721 216.309 56.261C216.882 57.352 217.418 58.4641 217.915 59.5957C218.137 60.1013 217.908 60.6913 217.402 60.9134C216.896 61.1355 216.306 60.9056 216.084 60.4C215.606 59.3114 215.09 58.2413 214.539 57.1914C214.282 56.7025 214.47 56.0979 214.959 55.841Z" fill="#009990"/>
<path fill-rule="evenodd" clip-rule="evenodd" d="M200.139 26.4916C200.419 26.0161 201.033 25.8583 201.508 26.1391C202.393 26.6618 203.264 27.2045 204.119 27.7667C204.581 28.0699 204.709 28.69 204.406 29.1515C204.103 29.6131 203.483 29.7415 203.021 29.4382C202.192 28.8935 201.349 28.3677 200.491 27.8612C200.016 27.5803 199.858 26.9672 200.139 26.4916ZM207.688 31.5403C208.034 31.11 208.663 31.0418 209.094 31.3879C210.697 32.6774 212.233 34.0409 213.696 35.4729C214.091 35.8592 214.098 36.4924 213.711 36.8871C213.325 37.2818 212.692 37.2886 212.297 36.9023C210.88 35.5158 209.393 34.1953 207.84 32.9463C207.41 32.6001 207.342 31.9707 207.688 31.5403ZM216.469 39.8649C216.893 39.5101 217.523 39.5655 217.878 39.9887C218.538 40.7756 219.178 41.5785 219.797 42.3966C220.13 42.837 220.044 43.4642 219.603 43.7975C219.163 44.1308 218.536 44.044 218.202 43.6037C217.603 42.8121 216.984 42.0352 216.346 41.2737C215.991 40.8504 216.046 40.2197 216.469 39.8649Z" fill="#009990"/>
<path d="M0 0V-2H-2V0H0ZM325 0H327V-2H325V0ZM325 180V182H327V180H325ZM0 180H-2V182H0V180ZM0 2H325V-2H0V2ZM323 0V180H327V0H323ZM325 178H0V182H325V178ZM2 180V0H-2V180H2Z" fill="#767676"/>
</svg>
