<svg width="325" height="180" viewBox="0 0 325 180" fill="none" xmlns="http://www.w3.org/2000/svg">
<rect width="325" height="180" fill="#F6FDF5"/>
<path d="M53 84C53 78.4772 57.4772 74 63 74H263C268.523 74 273 78.4772 273 84V96C273 101.523 268.523 106 263 106H63C57.4772 106 53 101.523 53 96V84Z" fill="white"/>
<path fill-rule="evenodd" clip-rule="evenodd" d="M52 84C52 77.9249 56.9249 73 63 73H263C269.075 73 274 77.9249 274 84V96C274 102.075 269.075 107 263 107H63C56.9249 107 52 102.075 52 96V84ZM63 75C58.0294 75 54 79.0294 54 84V96C54 100.971 58.0294 105 63 105H263C267.971 105 272 100.971 272 96V84C272 79.0294 267.971 75 263 75H63Z" fill="#005C62"/>
<path fill-rule="evenodd" clip-rule="evenodd" d="M67.8333 92.3333C65.9037 92.3333 64.3333 90.763 64.3333 88.8333C64.3333 86.9037 65.9037 85.3333 67.8333 85.3333C69.763 85.3333 71.3333 86.9037 71.3333 88.8333C71.3333 90.763 69.763 92.3333 67.8333 92.3333ZM75.4872 94.0122L73.0034 91.5289C73.4252 90.7222 73.6667 89.8063 73.6667 88.8333C73.6667 85.6116 71.0551 83 67.8333 83C64.6116 83 62 85.6116 62 88.8333C62 92.0551 64.6116 94.6667 67.8333 94.6667C68.8063 94.6667 69.7222 94.4252 70.5289 94.0034L73.0122 96.4872C73.6958 97.1709 74.8036 97.1709 75.4872 96.4872C76.1709 95.8042 76.1709 94.6958 75.4872 94.0122Z" fill="#005C62"/>
<rect x="84" y="86" width="122" height="8" rx="4" fill="#009990" fill-opacity="0.5"/>
<path d="M0 0V-2H-2V0H0ZM325 0H327V-2H325V0ZM325 180V182H327V180H325ZM0 180H-2V182H0V180ZM0 2H325V-2H0V2ZM323 0V180H327V0H323ZM325 178H0V182H325V178ZM2 180V0H-2V180H2Z" fill="#767676"/>
</svg>
