<svg xmlns="http://www.w3.org/2000/svg" width="312" height="180" fill="none"><path fill="#fff" d="M46 84c0-5.523 4.477-10 10-10h200c5.523 0 10 4.477 10 10v12c0 5.523-4.477 10-10 10H56c-5.523 0-10-4.477-10-10V84Z"/><path fill="#005C62" fill-rule="evenodd" d="M45 84c0-6.075 4.925-11 11-11h200c6.075 0 11 4.925 11 11v12c0 6.075-4.925 11-11 11H56c-6.075 0-11-4.925-11-11V84Zm11-9a9 9 0 0 0-9 9v12a9 9 0 0 0 9 9h200a9 9 0 0 0 9-9V84a9 9 0 0 0-9-9H56Z" clip-rule="evenodd"/><path fill="#005C62" fill-rule="evenodd" d="M60.833 92.333c-1.93 0-3.5-1.57-3.5-3.5s1.57-3.5 3.5-3.5 3.5 1.57 3.5 3.5-1.57 3.5-3.5 3.5Zm7.654 1.68-2.484-2.484a5.8 5.8 0 0 0 .664-2.696 5.833 5.833 0 1 0-5.834 5.834 5.8 5.8 0 0 0 2.696-.664l2.483 2.484a1.75 1.75 0 1 0 2.475-2.475Z" clip-rule="evenodd"/><rect width="122" height="8" x="77" y="86" fill="#009990" fill-opacity=".5" rx="4"/></svg>