<svg width="312" height="180" viewBox="0 0 312 180" fill="none" xmlns="http://www.w3.org/2000/svg">
<g clip-path="url(#clip0_1728_1036)">
<rect width="312" height="180" rx="8" fill="#E3FAE1"/>
<rect x="96" y="66" width="120" height="48" rx="8" fill="#005C62"/>
<path d="M96 78.8C96 74.3196 96 72.0794 96.8719 70.3681C97.6389 68.8628 98.8628 67.6389 100.368 66.8719C102.079 66 104.32 66 108.8 66H144V114H108.8C104.32 114 102.079 114 100.368 113.128C98.8628 112.361 97.6389 111.137 96.8719 109.632C96 107.921 96 105.68 96 101.2V78.8Z" fill="#009990"/>
<g clip-path="url(#clip1_1728_1036)">
<path d="M104 90C104 81.1625 111.163 74 120 74C128.837 74 136 81.1625 136 90C136 98.8375 128.837 106 120 106C111.163 106 104 98.8375 104 90ZM114.256 94.3438C113.894 93.925 113.262 93.8812 112.844 94.2437C112.425 94.6062 112.381 95.2375 112.744 95.6562C114.131 97.2563 116.556 99 119.944 99C123.444 99 125.863 97.2563 127.256 95.6562C127.619 95.2375 127.575 94.6062 127.156 94.2437C126.738 93.8812 126.106 93.925 125.744 94.3438C124.619 95.6375 122.713 97 119.944 97C117.288 97 115.375 95.6375 114.256 94.3438ZM115.025 85C113.919 85 113.025 85.8937 113.025 87C113.025 88.1063 113.919 89 115.025 89C116.125 89 117.025 88.1063 117.025 87C117.025 85.8937 116.125 85 115.025 85ZM125.025 89C126.125 89 127.025 88.1063 127.025 87C127.025 85.8937 126.125 85 125.025 85C123.919 85 123.025 85.8937 123.025 87C123.025 88.1063 123.919 89 125.025 89Z" fill="#C3F9C2"/>
</g>
<path d="M167.406 91.8828V90.4531H162.672V92.1719H165.117L165.109 92.3828C165.062 93.7891 163.992 94.7344 162.445 94.7344C160.586 94.7344 159.414 93.2422 159.414 90.7891C159.414 88.3828 160.531 86.9062 162.352 86.9062C163.664 86.9062 164.609 87.5781 164.961 88.7578H167.305C166.977 86.4219 165.016 84.8984 162.352 84.8984C159.07 84.8984 157 87.1875 157 90.8125C157 94.4922 159.055 96.75 162.406 96.75C165.484 96.75 167.406 94.875 167.406 91.8828Z" fill="white"/>
<path d="M177.242 87.8594H174.969V92.8281C174.969 94.0078 174.359 94.7344 173.227 94.7344C172.18 94.7344 171.641 94.1172 171.641 92.8984V87.8594H169.367V93.4609C169.367 95.4609 170.523 96.6406 172.383 96.6406C173.688 96.6406 174.492 96.0781 174.898 95.0781H175.039V96.4609H177.242V87.8594Z" fill="white"/>
<path d="M180.68 86.5391C181.383 86.5391 181.961 85.9766 181.961 85.2734C181.961 84.5625 181.383 84 180.68 84C179.977 84 179.391 84.5625 179.391 85.2734C179.391 85.9766 179.977 86.5391 180.68 86.5391ZM179.539 96.4609H181.812V87.8594H179.539V96.4609Z" fill="white"/>
<path d="M187.203 96.5938C188.398 96.5938 189.375 96.0391 189.836 95.1094H189.977V96.4609H192.18V84.5703H189.906V89.2344H189.773C189.328 88.2812 188.367 87.7188 187.203 87.7188C185.039 87.7188 183.695 89.4141 183.695 92.1484C183.695 94.8906 185.031 96.5938 187.203 96.5938ZM187.977 89.5625C189.188 89.5625 189.93 90.5547 189.93 92.1641C189.93 93.7734 189.195 94.7578 187.977 94.7578C186.758 94.7578 186.031 93.7812 186.031 92.1562C186.031 90.5391 186.766 89.5625 187.977 89.5625Z" fill="white"/>
<path d="M200.109 94.0312C199.867 94.6172 199.25 94.9453 198.352 94.9453C197.164 94.9453 196.414 94.125 196.383 92.8125V92.6953H202.297V92.0156C202.297 89.2969 200.797 87.6719 198.258 87.6719C195.695 87.6719 194.117 89.4062 194.117 92.2031C194.117 94.9844 195.664 96.6406 198.289 96.6406C200.398 96.6406 201.891 95.6328 202.227 94.0312H200.109ZM198.266 89.3672C199.328 89.3672 200.016 90.1016 200.062 91.2812H196.391C196.469 90.125 197.211 89.3672 198.266 89.3672Z" fill="white"/>
</g>
<defs>
<clipPath id="clip0_1728_1036">
<rect width="312" height="180" fill="white"/>
</clipPath>
<clipPath id="clip1_1728_1036">
<rect width="32" height="32" fill="white" transform="translate(104 74)"/>
</clipPath>
</defs>
</svg>

