<svg xmlns="http://www.w3.org/2000/svg" width="312" height="180" fill="none"><path fill="#fff" d="M46 58c0-5.523 4.477-10 10-10h200c5.523 0 10 4.477 10 10v12c0 5.523-4.477 10-10 10H56c-5.523 0-10-4.477-10-10V58Z"/><path fill="#005C62" fill-rule="evenodd" d="M45 57c0-6.075 4.925-11 11-11h200c6.075 0 11 4.925 11 11v12c0 6.075-4.925 11-11 11H56c-6.075 0-11-4.925-11-11V57Zm11-9a9 9 0 0 0-9 9v12a9 9 0 0 0 9 9h200a9 9 0 0 0 9-9V57a9 9 0 0 0-9-9H56Z" clip-rule="evenodd"/><path fill="#005C62" fill-rule="evenodd" d="M253.76 60.88 249 65.58l-4.759-4.701a1.324 1.324 0 0 0-1.856 0 1.286 1.286 0 0 0 0 1.834L249 69.25l6.616-6.536a1.289 1.289 0 0 0 0-1.834 1.316 1.316 0 0 0-.928-.38c-.336 0-.672.127-.928.38Z" clip-rule="evenodd"/><rect width="122" height="8" x="56" y="60" fill="#009990" fill-opacity=".5" rx="4"/><rect width="100" height="8" x="46" y="31" fill="#009990" fill-opacity=".5" rx="4"/><path fill="#CCF6EE" fill-opacity=".5" d="M46 96a8 8 0 0 1 8-8h104a8 8 0 0 1 8 8v46a8 8 0 0 1-8 8H54a8 8 0 0 1-8-8V96Z"/><path fill="#005C62" fill-rule="evenodd" d="M158 90H54a6 6 0 0 0-6 6v46a6 6 0 0 0 6 6h104a6 6 0 0 0 6-6V96a6 6 0 0 0-6-6ZM54 88a8 8 0 0 0-8 8v46a8 8 0 0 0 8 8h104a8 8 0 0 0 8-8V96a8 8 0 0 0-8-8H54Z" clip-rule="evenodd"/><rect width="77" height="8" x="56" y="99" fill="#009990" fill-opacity=".5" rx="4"/><rect width="92" height="8" x="56" y="115" fill="#009990" fill-opacity=".5" rx="4"/><rect width="72" height="8" x="56" y="131" fill="#009990" fill-opacity=".5" rx="4"/></svg>