<svg xmlns="http://www.w3.org/2000/svg" width="312" height="180" fill="none"><path fill="#fff" d="M123 8h181v164H123V8Z"/><path fill="#005C62" fill-rule="evenodd" d="M302 10H125v160h177V10ZM123 8v164h181V8H123Z" clip-rule="evenodd"/><path fill="#005C62" fill-rule="evenodd" d="m282.856 25 4.176-4.176a1.312 1.312 0 1 0-1.856-1.856L281 23.144l-4.176-4.176a1.312 1.312 0 1 0-1.856 1.856L279.144 25l-4.176 4.176a1.312 1.312 0 1 0 1.856 1.856L281 26.856l4.176 4.176a1.308 1.308 0 0 0 1.856 0 1.312 1.312 0 0 0 0-1.856L282.856 25Z" clip-rule="evenodd"/><rect width="98" height="8" x="133" y="19" fill="#009990" fill-opacity=".5" rx="4"/><rect width="98" height="8" x="133" y="97" fill="#009990" fill-opacity=".5" rx="4"/><rect width="121" height="8" x="133" y="41" fill="#009990" fill-opacity=".5" rx="4"/><rect width="121" height="8" x="133" y="119" fill="#009990" fill-opacity=".5" rx="4"/><rect width="121" height="8" x="133" y="57" fill="#009990" fill-opacity=".5" rx="4"/><rect width="121" height="8" x="133" y="135" fill="#009990" fill-opacity=".5" rx="4"/><rect width="121" height="8" x="133" y="151" fill="#009990" fill-opacity=".5" rx="4"/><path fill="#009990" fill-opacity=".5" fill-rule="evenodd" d="M87.415 82.586a2 2 0 1 1 2.828 2.828L87.657 88H100a2 2 0 0 1 0 4H87.657l2.586 2.586a2 2 0 1 1-2.828 2.828L80 90l7.415-7.414Z" clip-rule="evenodd"/></svg>