<svg width="312" height="180" viewBox="0 0 312 180" fill="none" xmlns="http://www.w3.org/2000/svg">
<g clip-path="url(#clip0_1213_1655)">

<rect x="97" y="20" width="118" height="73" rx="16" fill="#005C62"/>
<rect x="98" y="42" width="116" height="147" fill="white" stroke="#005C62" stroke-width="2"/>
<path d="M157 158.681C157 152.782 161.782 148 167.681 148H185.038C190.938 148 195.72 152.782 195.72 158.681C195.72 164.58 190.938 169.363 185.038 169.363H167.681C161.782 169.363 157 164.58 157 158.681Z" fill="#005C62"/>
<path d="M166.819 161.029C167.89 161.029 168.554 160.476 168.554 159.593C168.554 158.946 168.071 158.449 167.407 158.396V158.334C167.921 158.257 168.314 157.795 168.314 157.263C168.314 156.488 167.733 156.011 166.76 156.011H164.566V161.029H166.819ZM165.616 156.79H166.492C166.993 156.79 167.281 157.033 167.281 157.444C167.281 157.861 166.972 158.097 166.405 158.097H165.616V156.79ZM165.616 160.246V158.789H166.527C167.146 158.789 167.483 159.04 167.483 159.509C167.483 159.989 167.156 160.246 166.551 160.246H165.616Z" fill="white"/>
<path d="M172.872 157.2H171.861V159.412C171.861 159.937 171.589 160.26 171.085 160.26C170.619 160.26 170.379 159.985 170.379 159.443V157.2H169.368V159.693C169.368 160.583 169.882 161.109 170.71 161.109C171.29 161.109 171.649 160.858 171.829 160.413H171.892V161.029H172.872V157.2Z" fill="white"/>
<path d="M174.176 156.286V157.235H173.578V158.004H174.176V159.996C174.176 160.74 174.545 161.042 175.477 161.042C175.671 161.042 175.859 161.022 175.984 160.997V160.25C175.887 160.26 175.817 160.267 175.685 160.267C175.341 160.267 175.188 160.107 175.188 159.763V158.004H175.984V157.235H175.188V156.286H174.176Z" fill="white"/>
<path d="M177.153 156.286V157.235H176.555V158.004H177.153V159.996C177.153 160.74 177.521 161.042 178.453 161.042C178.648 161.042 178.835 161.022 178.961 160.997V160.25C178.863 160.26 178.794 160.267 178.662 160.267C178.317 160.267 178.164 160.107 178.164 159.763V158.004H178.961V157.235H178.164V156.286H177.153Z" fill="white"/>
<path d="M181.478 161.109C182.657 161.109 183.366 160.364 183.366 159.113C183.366 157.871 182.646 157.117 181.478 157.117C180.31 157.117 179.59 157.875 179.59 159.113C179.59 160.361 180.299 161.109 181.478 161.109ZM181.478 160.309C180.936 160.309 180.63 159.871 180.63 159.113C180.63 158.362 180.939 157.92 181.478 157.92C182.013 157.92 182.326 158.362 182.326 159.113C182.326 159.871 182.017 160.309 181.478 160.309Z" fill="white"/>
<path d="M184.194 161.029H185.205V158.814C185.205 158.296 185.494 157.962 185.963 157.962C186.443 157.962 186.669 158.243 186.669 158.782V161.029H187.681V158.553C187.681 157.638 187.222 157.117 186.37 157.117C185.803 157.117 185.414 157.385 185.237 157.816H185.174V157.2H184.194V161.029Z" fill="white"/>
<path d="M116 158.681C116 152.782 120.782 148 126.681 148H144.038C149.938 148 154.72 152.782 154.72 158.681C154.72 164.58 149.938 169.363 144.038 169.363H126.681C120.782 169.363 116 164.58 116 158.681Z" fill="#009990"/>
<path d="M125.819 161.029C126.89 161.029 127.554 160.476 127.554 159.593C127.554 158.946 127.071 158.449 126.407 158.396V158.334C126.921 158.257 127.314 157.795 127.314 157.263C127.314 156.488 126.733 156.011 125.76 156.011H123.566V161.029H125.819ZM124.616 156.79H125.492C125.993 156.79 126.281 157.033 126.281 157.444C126.281 157.861 125.972 158.097 125.405 158.097H124.616V156.79ZM124.616 160.246V158.789H125.527C126.146 158.789 126.483 159.04 126.483 159.509C126.483 159.989 126.156 160.246 125.551 160.246H124.616Z" fill="white"/>
<path d="M131.872 157.2H130.861V159.412C130.861 159.937 130.589 160.26 130.085 160.26C129.619 160.26 129.379 159.985 129.379 159.443V157.2H128.368V159.693C128.368 160.583 128.882 161.109 129.71 161.109C130.29 161.109 130.649 160.858 130.829 160.413H130.892V161.029H131.872V157.2Z" fill="white"/>
<path d="M133.176 156.286V157.235H132.578V158.004H133.176V159.996C133.176 160.74 133.545 161.042 134.477 161.042C134.671 161.042 134.859 161.022 134.984 160.997V160.25C134.887 160.26 134.817 160.267 134.685 160.267C134.341 160.267 134.188 160.107 134.188 159.763V158.004H134.984V157.235H134.188V156.286H133.176Z" fill="white"/>
<path d="M136.153 156.286V157.235H135.555V158.004H136.153V159.996C136.153 160.74 136.521 161.042 137.453 161.042C137.648 161.042 137.835 161.022 137.961 160.997V160.25C137.863 160.26 137.794 160.267 137.662 160.267C137.317 160.267 137.164 160.107 137.164 159.763V158.004H137.961V157.235H137.164V156.286H136.153Z" fill="white"/>
<path d="M140.478 161.109C141.657 161.109 142.366 160.364 142.366 159.113C142.366 157.871 141.646 157.117 140.478 157.117C139.31 157.117 138.59 157.875 138.59 159.113C138.59 160.361 139.299 161.109 140.478 161.109ZM140.478 160.309C139.936 160.309 139.63 159.871 139.63 159.113C139.63 158.362 139.939 157.92 140.478 157.92C141.013 157.92 141.326 158.362 141.326 159.113C141.326 159.871 141.017 160.309 140.478 160.309Z" fill="white"/>
<path d="M143.194 161.029H144.205V158.814C144.205 158.296 144.494 157.962 144.963 157.962C145.443 157.962 145.669 158.243 145.669 158.782V161.029H146.681V158.553C146.681 157.638 146.222 157.117 145.37 157.117C144.803 157.117 144.414 157.385 144.237 157.816H144.174V157.2H143.194V161.029Z" fill="white"/>
<path fill-rule="evenodd" clip-rule="evenodd" d="M113.856 60.0003L118.032 55.8242C118.544 55.3115 118.544 54.4808 118.032 53.9681C117.52 53.4553 116.688 53.4553 116.176 53.9681L111.999 58.1441L107.823 53.9681C107.311 53.4553 106.479 53.4553 105.968 53.9681C105.455 54.4808 105.455 55.3115 105.968 55.8242L110.144 60.0003L105.968 64.1764C105.455 64.6891 105.455 65.5198 105.968 66.0326C106.223 66.2886 106.559 66.417 106.895 66.417C107.232 66.417 107.568 66.2886 107.823 66.0326L111.999 61.8565L116.176 66.0326C116.432 66.2886 116.768 66.417 117.104 66.417C117.44 66.417 117.776 66.2886 118.032 66.0326C118.544 65.5198 118.544 64.6891 118.032 64.1764L113.856 60.0003Z" fill="#005C62"/>
<rect x="135" y="56" width="42" height="8" rx="4" fill="#009990" fill-opacity="0.5"/>
<path fill-rule="evenodd" clip-rule="evenodd" d="M197.797 52.9999C198.128 52.9999 198.46 53.1282 198.714 53.3843L205.25 59.9999L198.714 66.6154C198.208 67.1282 197.386 67.1282 196.88 66.6154C196.373 66.1027 196.373 65.272 196.88 64.7593L201.582 59.9999L196.88 55.2404C196.373 54.7277 196.373 53.897 196.88 53.3843C197.133 53.1282 197.465 52.9999 197.797 52.9999Z" fill="#005C62"/>
<rect x="105" y="85" width="89" height="8" rx="4" fill="#009990" fill-opacity="0.5"/>
<rect x="105" y="101" width="64" height="8" rx="4" fill="#009990" fill-opacity="0.5"/>
<rect x="105" y="117" width="86" height="8" rx="4" fill="#009990" fill-opacity="0.5"/>
<path fill-rule="evenodd" clip-rule="evenodd" d="M242.414 86.415C243.195 87.195 243.195 88.463 242.414 89.243C241.633 90.024 240.367 90.024 239.586 89.243L237 86.657L237 99C237 100.105 236.104 101 235 101C233.895 101 233 100.105 233 99L233 86.657L230.414 89.243C229.633 90.024 228.367 90.024 227.586 89.243C227.195 88.853 227 88.341 227 87.829C227 87.317 227.195 86.805 227.586 86.415L235 79L242.414 86.415Z" fill="#009990" fill-opacity="0.5"/>
</g>
<defs>
<clipPath id="clip0_1213_1655">
<rect width="312" height="180" fill="white"/>
</clipPath>
</defs>
</svg>
