<svg width="312" height="180" viewBox="0 0 312 180" fill="none" xmlns="http://www.w3.org/2000/svg">
<path d="M40 57.2C40 55.4327 42.79 54 46.2316 54H255.768C259.21 54 262 55.4327 262 57.2V90.8C262 92.5673 259.21 94 255.768 94H46.2316C42.79 94 40 92.5673 40 90.8V57.2Z" fill="#009990" fill-opacity="0.5"/>
<rect x="55" y="38" width="114" height="8" rx="4" fill="#005C62"/>
<rect x="55" y="102" width="120" height="8" rx="4" fill="#005C62"/>
<rect x="55" y="70" width="139" height="8" rx="4" fill="#005C62"/>
<rect x="55" y="134" width="133" height="8" rx="4" fill="#005C62"/>
<path fill-rule="evenodd" clip-rule="evenodd" d="M237.6 107C237.6 107 232.57 102.874 230.8 99.7143C229.031 96.5541 225.677 92.5282 226.267 90C226.857 87.4718 229.031 86.6751 230.8 88.5712C232.57 90.4673 233.762 94.5756 234.942 93.9436C236.122 93.3115 235.237 87.3071 234.057 83.8309C232.877 80.3547 231.647 73 234.057 73C236.467 73 236.467 75.4286 237.6 79.0714C238.734 82.7143 237.849 87.5714 238.734 87.5714C239.618 87.5714 239.956 86.723 239.956 85.1429C239.956 84.7134 240.035 84.3505 240.194 84.0497C240.622 83.2434 241.631 82.8828 243.267 82.8828C245.514 82.8828 244.4 87.5714 245.534 87.5714C246.667 87.5714 246.667 87.671 246.667 85.1429C246.667 82.6147 247.718 82.8828 249.985 82.8828C252.251 82.8828 251.154 87.5714 252.334 87.5714C253.513 87.5714 252.334 85.1429 253.467 85.1429C254.6 85.1429 255.734 85.5259 255.734 91.2143C255.734 96.9027 256.37 97.1861 254.6 99.7143C252.831 102.242 251.2 104.571 251.2 104.571C251.2 104.571 251.2 107 249.985 107C248.769 107 248.142 104.571 246.667 104.571C245.192 104.571 244.4 107 244.4 107H237.6ZM244.402 99.7153C244.402 100.373 244.928 102.144 245.535 102.144C246.161 102.144 246.669 100.384 246.669 99.7153V94.8582C246.669 94.2003 246.143 92.4296 245.535 92.4296C244.91 92.4296 244.402 94.1893 244.402 94.8582V99.7153ZM248.936 99.7153C248.936 100.373 249.462 102.144 250.069 102.144C250.695 102.144 251.203 100.384 251.203 99.7153V94.8582C251.203 94.2003 250.677 92.4296 250.069 92.4296C249.443 92.4296 248.936 94.1893 248.936 94.8582V99.7153ZM239.867 99.7153C239.867 100.373 240.393 102.144 241 102.144C241.626 102.144 242.134 100.384 242.134 99.7153V94.8582C242.134 94.2003 241.608 92.4296 241 92.4296C240.375 92.4296 239.867 94.1893 239.867 94.8582V99.7153Z" fill="white"/>
<path fill-rule="evenodd" clip-rule="evenodd" d="M236.332 108.546L237.6 107H244.4C244.4 107 245.192 104.571 246.667 104.571C247.44 104.571 247.98 105.239 248.494 105.874C248.961 106.45 249.406 107 249.985 107C251.2 107 251.2 104.571 251.2 104.571L254.6 99.7143C255.925 97.8219 255.902 97.1872 255.806 94.6018C255.774 93.7333 255.734 92.6447 255.734 91.2143C255.734 85.7029 254.67 85.1718 253.573 85.1441C253.538 85.1432 253.502 85.1429 253.467 85.1429C253.119 85.1429 252.989 85.3722 252.942 85.69C252.913 85.884 252.915 86.111 252.918 86.3388C252.924 86.952 252.929 87.5714 252.334 87.5714C251.839 87.5714 251.745 86.7479 251.635 85.7911C251.634 85.7825 251.633 85.7738 251.632 85.7651C251.574 85.2616 251.511 84.7231 251.383 84.2495C251.174 83.4807 250.794 82.8828 249.985 82.8828C249.776 82.8828 249.578 82.8806 249.39 82.8784C247.776 82.8599 246.91 82.85 246.711 84.3572C246.682 84.5832 246.667 84.8434 246.667 85.1429C246.667 85.4818 246.667 85.7735 246.664 86.0246C246.654 86.9309 246.609 87.3073 246.399 87.463C246.234 87.586 245.967 87.5714 245.534 87.5714C245.117 87.5714 245.004 86.9373 244.916 86.1354C244.905 86.0318 244.894 85.9254 244.883 85.8172C244.86 85.5971 244.837 85.3694 244.807 85.1429C244.777 84.9078 244.74 84.674 244.692 84.4507C244.504 83.5876 244.138 82.8828 243.267 82.8828C241.692 82.8828 240.699 83.2168 240.245 83.9606C240.227 83.9896 240.21 84.0193 240.194 84.0497C240.035 84.3505 239.956 84.7134 239.956 85.1429C239.956 85.4655 239.942 85.7575 239.912 86.0182C239.795 87.034 239.438 87.5714 238.734 87.5714C238.386 87.5714 238.312 86.8236 238.281 85.6949C238.276 85.5196 238.272 85.3351 238.268 85.1429C238.267 85.0696 238.266 84.9952 238.264 84.9197C238.257 84.4917 238.248 84.0297 238.231 83.5475C238.179 82.1125 238.044 80.4988 237.6 79.0714C237.362 78.3054 237.174 77.5931 237.003 76.9458C236.36 74.5146 235.96 73 234.057 73C231.647 73 232.877 80.3547 234.057 83.8309C234.898 86.3072 235.588 90.0664 235.49 92.2527C235.49 92.2543 235.49 92.2559 235.489 92.2575C235.449 93.1377 235.281 93.7621 234.942 93.9436C234.45 94.207 233.956 93.6467 233.419 92.7663C233.419 92.7661 233.419 92.7664 233.419 92.7663C233.195 92.399 232.963 91.9756 232.721 91.5336C232.152 90.4933 231.524 89.347 230.8 88.5712C229.031 86.6751 226.857 87.4718 226.267 90C225.828 91.8802 227.571 94.5889 229.221 97.1537C229.789 98.0376 230.347 98.9044 230.8 99.7143C232.57 102.874 237.6 107 237.6 107C236.332 108.546 236.332 108.547 236.332 108.546L236.331 108.546L236.313 108.53L236.265 108.491C236.224 108.457 236.165 108.408 236.091 108.345C235.942 108.22 235.73 108.039 235.471 107.812C234.954 107.36 234.244 106.723 233.475 105.982C231.988 104.547 230.096 102.551 229.055 100.691C228.648 99.9643 228.141 99.1725 227.58 98.3007L227.528 98.2188C226.995 97.391 226.42 96.4977 225.914 95.6158C225.394 94.7099 224.9 93.737 224.579 92.7688C224.264 91.8187 224.053 90.6857 224.319 89.5455C224.717 87.8397 225.761 86.2924 227.461 85.7283C229.238 85.1388 231.002 85.8556 232.262 87.2066C232.563 87.5289 232.85 87.9008 233.119 88.2915C232.873 86.9299 232.53 85.5543 232.163 84.4737C231.523 82.5883 230.882 79.7099 230.716 77.2468C230.634 76.0416 230.651 74.7441 230.947 73.6718C231.095 73.1319 231.357 72.4894 231.857 71.9557C232.411 71.3638 233.176 71 234.057 71C235.022 71 235.939 71.2537 236.716 71.8732C237.446 72.456 237.871 73.222 238.153 73.9001C238.434 74.5738 238.647 75.3446 238.84 76.0713C238.873 76.195 238.906 76.3191 238.939 76.4439C239.11 77.0907 239.286 77.7562 239.51 78.4773C239.816 79.4607 239.993 80.5015 240.097 81.4979C241.082 81.0043 242.244 80.8828 243.267 80.8828C243.918 80.8828 244.548 81.0601 245.095 81.4353C245.317 81.5882 245.507 81.7604 245.668 81.9403C245.941 81.6521 246.268 81.4175 246.646 81.245C247.294 80.9494 247.969 80.8979 248.441 80.8816C248.747 80.8711 249.129 80.8752 249.487 80.8791C249.662 80.881 249.832 80.8828 249.985 80.8828C250.635 80.8828 251.263 81.058 251.81 81.4285C252.337 81.7859 252.681 82.2516 252.907 82.6746C252.992 82.834 253.065 82.9984 253.13 83.1641C253.244 83.1495 253.357 83.1429 253.467 83.1429C253.837 83.1429 254.479 83.1663 255.15 83.4814C255.872 83.8206 256.415 84.3913 256.795 85.1133C257.469 86.394 257.734 88.3566 257.734 91.2143C257.734 92.5974 257.772 93.6508 257.804 94.5128L257.807 94.5982C257.837 95.3957 257.864 96.1216 257.827 96.7623C257.787 97.479 257.667 98.151 257.38 98.8651C257.107 99.5449 256.714 100.182 256.239 100.861L253.162 105.257C253.134 105.535 253.083 105.894 252.989 106.271C252.884 106.687 252.689 107.286 252.287 107.821C251.842 108.413 251.073 109 249.985 109C248.967 109 248.238 108.481 247.822 108.107C247.467 107.786 247.145 107.387 246.939 107.132C246.914 107.101 246.892 107.073 246.87 107.047C246.801 106.961 246.741 106.889 246.689 106.827C246.683 106.835 246.678 106.843 246.673 106.851C246.555 107.039 246.456 107.242 246.386 107.406C246.352 107.486 246.328 107.549 246.313 107.589C246.306 107.608 246.301 107.622 246.299 107.627L246.299 107.63L245.852 109H236.885L236.332 108.546ZM244.525 100.501C244.515 100.464 244.506 100.426 244.498 100.39C244.437 100.124 244.402 99.8834 244.402 99.7153V94.8582C244.402 94.6897 244.434 94.4522 244.492 94.191C244.501 94.1525 244.51 94.1136 244.52 94.0742C244.705 93.3195 245.09 92.4296 245.536 92.4296C245.966 92.4296 246.356 93.3199 246.546 94.0724C246.556 94.1099 246.565 94.1471 246.573 94.1837C246.634 94.4491 246.669 94.69 246.669 94.8582V99.7153C246.669 99.8837 246.637 100.121 246.579 100.382C246.57 100.421 246.561 100.46 246.551 100.499C246.366 101.254 245.981 102.144 245.536 102.144C245.105 102.144 244.715 101.254 244.525 100.501ZM249.059 100.501C249.049 100.464 249.04 100.426 249.032 100.39C248.97 100.124 248.936 99.8834 248.936 99.7153V94.8582C248.936 94.6897 248.968 94.4522 249.026 94.191C249.035 94.1525 249.044 94.1136 249.054 94.0742C249.239 93.3195 249.624 92.4296 250.069 92.4296C250.5 92.4296 250.89 93.3199 251.08 94.0724C251.09 94.1099 251.099 94.1471 251.107 94.1837C251.168 94.4491 251.203 94.69 251.203 94.8582V99.7153C251.203 99.8837 251.17 100.121 251.112 100.382C251.104 100.421 251.095 100.46 251.085 100.499C250.9 101.254 250.514 102.144 250.069 102.144C249.638 102.144 249.249 101.254 249.059 100.501ZM239.99 100.501C239.98 100.464 239.971 100.426 239.963 100.39C239.902 100.124 239.867 99.8834 239.867 99.7153V94.8582C239.867 94.6897 239.899 94.4522 239.957 94.191C239.966 94.1525 239.975 94.1136 239.985 94.0742C240.17 93.3195 240.555 92.4296 241.001 92.4296C241.431 92.4296 241.821 93.3199 242.011 94.0724C242.021 94.1099 242.03 94.1471 242.038 94.1837C242.1 94.4491 242.134 94.69 242.134 94.8582V99.7153C242.134 99.8837 242.102 100.121 242.044 100.382C242.035 100.421 242.026 100.46 242.016 100.499C241.831 101.254 241.446 102.144 241.001 102.144C240.57 102.144 240.18 101.254 239.99 100.501Z" fill="#005C62"/>
</svg>
