<svg width="325" height="180" viewBox="0 0 325 180" fill="none" xmlns="http://www.w3.org/2000/svg">
<g clip-path="url(#clip0_103_1919)">
<rect width="325" height="180" fill="#F6FDF5"/>
<path d="M0 0V-1H-1V0H0ZM325 0H326V-1H325V0ZM325 180V181H326V180H325ZM0 180H-1V181H0V180ZM0 1H325V-1H0V1ZM324 0V180H326V0H324ZM325 179H0V181H325V179ZM1 180V0H-1V180H1Z" fill="#767676"/>
<path fill-rule="evenodd" clip-rule="evenodd" d="M168 87C166.344 87 165 85.658 165 84C165 82.342 166.344 81 168 81C169.656 81 171 82.342 171 84C171 85.658 169.656 87 168 87ZM168 99C166.344 99 165 97.658 165 96C165 94.342 166.344 93 168 93C169.656 93 171 94.342 171 96C171 97.658 169.656 99 168 99ZM156 87C154.344 87 153 85.658 153 84C153 82.342 154.344 81 156 81C157.656 81 159 82.342 159 84C159 85.658 157.656 87 156 87ZM156 99C154.344 99 153 97.658 153 96C153 94.342 154.344 93 156 93C157.656 93 159 94.342 159 96C159 97.658 157.656 99 156 99ZM162 66C148.746 66 138 76.746 138 90C138 103.254 148.746 114 162 114C175.254 114 186 103.254 186 90C186 76.746 175.254 66 162 66Z" fill="#005C62"/>
</g>
<path d="M0 0V-2H-2V0H0ZM325 0H327V-2H325V0ZM325 180V182H327V180H325ZM0 180H-2V182H0V180ZM0 2H325V-2H0V2ZM323 0V180H327V0H323ZM325 178H0V182H325V178ZM2 180V0H-2V180H2Z" fill="#767676"/>
<defs>
<clipPath id="clip0_103_1919">
<path d="M0 0H325V180H0V0Z" fill="white"/>
</clipPath>
</defs>
</svg>
