<svg xmlns="http://www.w3.org/2000/svg" width="312" height="180" fill="none"><path fill="#005C62" fill-rule="evenodd" d="M92 78c-6.627 0-12 5.373-12 12s5.373 12 12 12 12-5.373 12-12-5.373-12-12-12Zm-5.634 13.374L90.5 95.5l7.134-7.12a1.246 1.246 0 0 0 0-1.764 1.251 1.251 0 0 0-1.768 0L90.5 91.97l-2.366-2.362a1.252 1.252 0 0 0-1.768 0 1.246 1.246 0 0 0 0 1.765Z" clip-rule="evenodd"/><rect width="120" height="8" x="112" y="78" fill="#009990" fill-opacity=".5" rx="4"/><rect width="97" height="8" x="112" y="94" fill="#009990" fill-opacity=".5" rx="4"/></svg>