<svg width="325" height="180" viewBox="0 0 325 180" fill="none" xmlns="http://www.w3.org/2000/svg">
<rect width="325" height="180" fill="#F6FDF5"/>
<path fill-rule="evenodd" clip-rule="evenodd" d="M182 78C175.373 78 170 83.3726 170 90V90C170 96.6274 175.373 102 182 102H198C204.627 102 210 96.6274 210 90V90C210 83.3726 204.627 78 198 78H182Z" fill="#005C62"/>
<path fill-rule="evenodd" clip-rule="evenodd" d="M198 100C203.523 100 208 95.5228 208 90C208 84.4772 203.523 80 198 80C192.477 80 188 84.4772 188 90C188 95.5228 192.477 100 198 100Z" fill="white"/>
<path fill-rule="evenodd" clip-rule="evenodd" d="M126 78C119.373 78 114 83.3726 114 90V90C114 96.6274 119.373 102 126 102H142C148.627 102 154 96.6274 154 90V90C154 83.3726 148.627 78 142 78H126Z" fill="white"/>
<path fill-rule="evenodd" clip-rule="evenodd" d="M126 100H142C147.523 100 152 95.5228 152 90C152 84.4772 147.523 80 142 80H126C120.477 80 116 84.4772 116 90C116 95.5228 120.477 100 126 100ZM114 90C114 83.3726 119.373 78 126 78H142C148.627 78 154 83.3726 154 90C154 96.6274 148.627 102 142 102H126C119.373 102 114 96.6274 114 90Z" fill="#005C62"/>
<path fill-rule="evenodd" clip-rule="evenodd" d="M126 102C132.627 102 138 96.6274 138 90C138 83.3726 132.627 78 126 78C119.373 78 114 83.3726 114 90C114 96.6274 119.373 102 126 102Z" fill="white"/>
<path fill-rule="evenodd" clip-rule="evenodd" d="M126 100C131.523 100 136 95.5228 136 90C136 84.4772 131.523 80 126 80C120.477 80 116 84.4772 116 90C116 95.5228 120.477 100 126 100ZM138 90C138 96.6274 132.627 102 126 102C119.373 102 114 96.6274 114 90C114 83.3726 119.373 78 126 78C132.627 78 138 83.3726 138 90Z" fill="#005C62"/>
<path d="M0 0V-2H-2V0H0ZM325 0H327V-2H325V0ZM325 180V182H327V180H325ZM0 180H-2V182H0V180ZM0 2H325V-2H0V2ZM323 0V180H327V0H323ZM325 178H0V182H325V178ZM2 180V0H-2V180H2Z" fill="#767676"/>
</svg>
