<svg xmlns="http://www.w3.org/2000/svg" width="312" height="180" fill="none"><path fill="#005C62" fill-rule="evenodd" d="M176 78c-6.627 0-12 5.373-12 12s5.373 12 12 12h16c6.627 0 12-5.373 12-12s-5.373-12-12-12h-16Z" clip-rule="evenodd"/><path fill="#fff" fill-rule="evenodd" d="M192 100c5.523 0 10-4.477 10-10s-4.477-10-10-10-10 4.477-10 10 4.477 10 10 10Zm-72-22c-6.627 0-12 5.373-12 12s5.373 12 12 12h16c6.627 0 12-5.373 12-12s-5.373-12-12-12h-16Z" clip-rule="evenodd"/><path fill="#005C62" fill-rule="evenodd" d="M120 100h16c5.523 0 10-4.477 10-10s-4.477-10-10-10h-16c-5.523 0-10 4.477-10 10s4.477 10 10 10Zm-12-10c0-6.627 5.373-12 12-12h16c6.627 0 12 5.373 12 12s-5.373 12-12 12h-16c-6.627 0-12-5.373-12-12Z" clip-rule="evenodd"/><path fill="#fff" fill-rule="evenodd" d="M120 102c6.627 0 12-5.373 12-12s-5.373-12-12-12-12 5.373-12 12 5.373 12 12 12Z" clip-rule="evenodd"/><path fill="#005C62" fill-rule="evenodd" d="M120 100c5.523 0 10-4.477 10-10s-4.477-10-10-10-10 4.477-10 10 4.477 10 10 10Zm12-10c0 6.627-5.373 12-12 12s-12-5.373-12-12 5.373-12 12-12 12 5.373 12 12Z" clip-rule="evenodd"/></svg>