<svg xmlns="http://www.w3.org/2000/svg" width="312" height="180" fill="none"><path fill="#fff" d="M40 45a8 8 0 0 1 8-8h217a8 8 0 0 1 8 8v90a8 8 0 0 1-8 8H48a8 8 0 0 1-8-8V45Z"/><path fill="#005C62" fill-rule="evenodd" d="M265 39H48a6 6 0 0 0-6 6v90a6 6 0 0 0 6 6h217a6 6 0 0 0 6-6V45a6 6 0 0 0-6-6ZM48 37a8 8 0 0 0-8 8v90a8 8 0 0 0 8 8h217a8 8 0 0 0 8-8V45a8 8 0 0 0-8-8H48Z" clip-rule="evenodd"/><rect width="80" height="8" x="56" y="53" fill="#009990" fill-opacity=".5" rx="4"/><rect width="70" height="8" x="56" y="87" fill="#009990" fill-opacity=".5" rx="4"/><rect width="70" height="8" x="56" y="121" fill="#009990" fill-opacity=".5" rx="4"/><rect width="80" height="8" x="160" y="53" fill="#009990" fill-opacity=".5" rx="4"/><rect width="60" height="8" x="160" y="87" fill="#009990" fill-opacity=".5" rx="4"/><rect width="60" height="8" x="160" y="121" fill="#009990" fill-opacity=".5" rx="4"/><rect width="201" height="2" x="56" y="73" fill="#005C62" rx="1"/><rect width="201" height="2" x="56" y="107" fill="#005C62" rx="1"/></svg>