<svg width="325" height="180" viewBox="0 0 325 180" fill="none" xmlns="http://www.w3.org/2000/svg">
<rect width="325" height="180" fill="#F6FDF5"/>
<path d="M73.7422 95.8789V86.5508H77.125V84.6055H68V86.5508H71.3828V95.8789H73.7422Z" fill="#005C62"/>
<path d="M79.8594 96.0117C80.9766 96.0117 81.9141 95.5352 82.3594 94.7383H82.5V95.8789H84.7031V90.0039C84.7031 88.168 83.4141 87.0898 81.1328 87.0898C78.9688 87.0898 77.5078 88.082 77.3594 89.6602H79.4531C79.6406 89.1211 80.1875 88.832 81.0078 88.832C81.9453 88.832 82.4609 89.2617 82.4609 90.0039V90.7148L80.375 90.8398C78.2344 90.9648 77.0391 91.8711 77.0391 93.4258C77.0391 94.9961 78.2031 96.0117 79.8594 96.0117ZM80.6094 94.3477C79.8203 94.3477 79.2656 93.9492 79.2656 93.2852C79.2656 92.6523 79.7422 92.2852 80.7188 92.2227L82.4609 92.1055V92.7461C82.4609 93.6523 81.6641 94.3477 80.6094 94.3477Z" fill="#005C62"/>
<path d="M92.0156 96.0117C94.1797 96.0117 95.5078 94.332 95.5078 91.5742C95.5078 88.8008 94.1953 87.1367 92.0156 87.1367C90.8359 87.1367 89.8672 87.707 89.4297 88.6523H89.2891V83.9883H87.0156V95.8789H89.2188V94.5273H89.3594C89.8203 95.4648 90.7969 96.0117 92.0156 96.0117ZM91.2266 88.9805C92.4297 88.9805 93.1719 89.9727 93.1719 91.5742C93.1719 93.1914 92.4375 94.1758 91.2266 94.1758C90.0234 94.1758 89.2734 93.1836 89.2656 91.582C89.2734 89.9805 90.0312 88.9805 91.2266 88.9805Z" fill="#005C62"/>
<path d="M179.742 95.8789V86.5508H183.125V84.6055H174V86.5508H177.383V95.8789H179.742Z" fill="#005C62"/>
<path d="M185.859 96.0117C186.977 96.0117 187.914 95.5352 188.359 94.7383H188.5V95.8789H190.703V90.0039C190.703 88.168 189.414 87.0898 187.133 87.0898C184.969 87.0898 183.508 88.082 183.359 89.6602H185.453C185.641 89.1211 186.188 88.832 187.008 88.832C187.945 88.832 188.461 89.2617 188.461 90.0039V90.7148L186.375 90.8398C184.234 90.9648 183.039 91.8711 183.039 93.4258C183.039 94.9961 184.203 96.0117 185.859 96.0117ZM186.609 94.3477C185.82 94.3477 185.266 93.9492 185.266 93.2852C185.266 92.6523 185.742 92.2852 186.719 92.2227L188.461 92.1055V92.7461C188.461 93.6523 187.664 94.3477 186.609 94.3477Z" fill="#005C62"/>
<path d="M198.016 96.0117C200.18 96.0117 201.508 94.332 201.508 91.5742C201.508 88.8008 200.195 87.1367 198.016 87.1367C196.836 87.1367 195.867 87.707 195.43 88.6523H195.289V83.9883H193.016V95.8789H195.219V94.5273H195.359C195.82 95.4648 196.797 96.0117 198.016 96.0117ZM197.227 88.9805C198.43 88.9805 199.172 89.9727 199.172 91.5742C199.172 93.1914 198.438 94.1758 197.227 94.1758C196.023 94.1758 195.273 93.1836 195.266 91.582C195.273 89.9805 196.031 88.9805 197.227 88.9805Z" fill="#005C62"/>
<path d="M232.742 95.8789V86.5508H236.125V84.6055H227V86.5508H230.383V95.8789H232.742Z" fill="#005C62"/>
<path d="M238.859 96.0117C239.977 96.0117 240.914 95.5352 241.359 94.7383H241.5V95.8789H243.703V90.0039C243.703 88.168 242.414 87.0898 240.133 87.0898C237.969 87.0898 236.508 88.082 236.359 89.6602H238.453C238.641 89.1211 239.188 88.832 240.008 88.832C240.945 88.832 241.461 89.2617 241.461 90.0039V90.7148L239.375 90.8398C237.234 90.9648 236.039 91.8711 236.039 93.4258C236.039 94.9961 237.203 96.0117 238.859 96.0117ZM239.609 94.3477C238.82 94.3477 238.266 93.9492 238.266 93.2852C238.266 92.6523 238.742 92.2852 239.719 92.2227L241.461 92.1055V92.7461C241.461 93.6523 240.664 94.3477 239.609 94.3477Z" fill="#005C62"/>
<path d="M251.016 96.0117C253.18 96.0117 254.508 94.332 254.508 91.5742C254.508 88.8008 253.195 87.1367 251.016 87.1367C249.836 87.1367 248.867 87.707 248.43 88.6523H248.289V83.9883H246.016V95.8789H248.219V94.5273H248.359C248.82 95.4648 249.797 96.0117 251.016 96.0117ZM250.227 88.9805C251.43 88.9805 252.172 89.9727 252.172 91.5742C252.172 93.1914 251.438 94.1758 250.227 94.1758C249.023 94.1758 248.273 93.1836 248.266 91.582C248.273 89.9805 249.031 88.9805 250.227 88.9805Z" fill="#005C62"/>
<path d="M127.461 95.5V86.1719H130.844V84.2266H121.719V86.1719H125.102V95.5H127.461Z" fill="#005C62"/>
<path d="M133.578 95.6328C134.695 95.6328 135.633 95.1562 136.078 94.3594H136.219V95.5H138.422V89.625C138.422 87.7891 137.133 86.7109 134.852 86.7109C132.688 86.7109 131.227 87.7031 131.078 89.2812H133.172C133.359 88.7422 133.906 88.4531 134.727 88.4531C135.664 88.4531 136.18 88.8828 136.18 89.625V90.3359L134.094 90.4609C131.953 90.5859 130.758 91.4922 130.758 93.0469C130.758 94.6172 131.922 95.6328 133.578 95.6328ZM134.328 93.9688C133.539 93.9688 132.984 93.5703 132.984 92.9062C132.984 92.2734 133.461 91.9062 134.438 91.8438L136.18 91.7266V92.3672C136.18 93.2734 135.383 93.9688 134.328 93.9688Z" fill="#005C62"/>
<path d="M145.734 95.6328C147.898 95.6328 149.227 93.9531 149.227 91.1953C149.227 88.4219 147.914 86.7578 145.734 86.7578C144.555 86.7578 143.586 87.3281 143.148 88.2734H143.008V83.6094H140.734V95.5H142.938V94.1484H143.078C143.539 95.0859 144.516 95.6328 145.734 95.6328ZM144.945 88.6016C146.148 88.6016 146.891 89.5938 146.891 91.1953C146.891 92.8125 146.156 93.7969 144.945 93.7969C143.742 93.7969 142.992 92.8047 142.984 91.2031C142.992 89.6016 143.75 88.6016 144.945 88.6016Z" fill="#005C62"/>
<rect x="121" y="103.5" width="29" height="3" rx="1.5" fill="#005C62"/>
<path d="M0 0V-2H-2V0H0ZM325 0H327V-2H325V0ZM325 180V182H327V180H325ZM0 180H-2V182H0V180ZM0 2H325V-2H0V2ZM323 0V180H327V0H323ZM325 178H0V182H325V178ZM2 180V0H-2V180H2Z" fill="#767676"/>
</svg>
