<svg xmlns="http://www.w3.org/2000/svg" width="312" height="180" fill="none"><path fill="#005C62" d="M67.742 95.879V86.55h3.383v-1.945H62v1.945h3.383v9.328h2.36Zm6.118.133c1.117 0 2.054-.477 2.5-1.274h.14v1.14h2.203v-5.874c0-1.836-1.289-2.914-3.57-2.914-2.164 0-3.625.992-3.774 2.57h2.094c.188-.539.734-.828 1.555-.828.937 0 1.453.43 1.453 1.172v.71l-2.086.126c-2.14.125-3.336 1.031-3.336 2.586 0 1.57 1.164 2.586 2.82 2.586Zm.75-1.664c-.79 0-1.344-.399-1.344-1.063 0-.633.476-1 1.453-1.062l1.742-.117v.64c0 .906-.797 1.602-1.852 1.602Zm11.406 1.664c2.164 0 3.492-1.68 3.492-4.438 0-2.773-1.313-4.437-3.492-4.437-1.18 0-2.149.57-2.586 1.515h-.14v-4.664h-2.274v11.89h2.203v-1.35h.14c.461.937 1.438 1.484 2.657 1.484Zm-.79-7.031c1.204 0 1.946.992 1.946 2.593 0 1.617-.734 2.602-1.945 2.602-1.204 0-1.954-.992-1.961-2.594.007-1.601.765-2.601 1.96-2.601Zm88.516 6.898V86.55h3.383v-1.945H168v1.945h3.383v9.328h2.359Zm6.117.133c1.118 0 2.055-.477 2.5-1.274h.141v1.14h2.203v-5.874c0-1.836-1.289-2.914-3.57-2.914-2.164 0-3.625.992-3.774 2.57h2.094c.188-.539.735-.828 1.555-.828.937 0 1.453.43 1.453 1.172v.71l-2.086.126c-2.141.125-3.336 1.031-3.336 2.586 0 1.57 1.164 2.586 2.82 2.586Zm.75-1.664c-.789 0-1.343-.399-1.343-1.063 0-.633.476-1 1.453-1.062l1.742-.117v.64c0 .906-.797 1.602-1.852 1.602Zm11.407 1.664c2.164 0 3.492-1.68 3.492-4.438 0-2.773-1.313-4.437-3.492-4.437-1.18 0-2.149.57-2.586 1.515h-.141v-4.664h-2.273v11.89h2.203v-1.35h.14c.461.937 1.438 1.484 2.657 1.484Zm-.789-7.031c1.203 0 1.945.992 1.945 2.593 0 1.617-.734 2.602-1.945 2.602-1.204 0-1.954-.992-1.961-2.594.007-1.601.765-2.601 1.961-2.601Zm35.515 6.898V86.55h3.383v-1.945H221v1.945h3.383v9.328h2.359Zm6.117.133c1.118 0 2.055-.477 2.5-1.274h.141v1.14h2.203v-5.874c0-1.836-1.289-2.914-3.57-2.914-2.164 0-3.625.992-3.774 2.57h2.094c.188-.539.735-.828 1.555-.828.937 0 1.453.43 1.453 1.172v.71l-2.086.126c-2.141.125-3.336 1.031-3.336 2.586 0 1.57 1.164 2.586 2.82 2.586Zm.75-1.664c-.789 0-1.343-.399-1.343-1.063 0-.633.476-1 1.453-1.062l1.742-.117v.64c0 .906-.797 1.602-1.852 1.602Zm11.407 1.664c2.164 0 3.492-1.68 3.492-4.438 0-2.773-1.313-4.437-3.492-4.437-1.18 0-2.149.57-2.586 1.515h-.141v-4.664h-2.273v11.89h2.203v-1.35h.14c.461.937 1.438 1.484 2.657 1.484Zm-.789-7.031c1.203 0 1.945.992 1.945 2.593 0 1.617-.734 2.602-1.945 2.602-1.204 0-1.954-.992-1.961-2.594.007-1.601.765-2.601 1.961-2.601ZM121.461 95.5v-9.328h3.383v-1.945h-9.125v1.945h3.383V95.5h2.359Zm6.117.133c1.117 0 2.055-.477 2.5-1.274h.141V95.5h2.203v-5.875c0-1.836-1.289-2.914-3.57-2.914-2.164 0-3.625.992-3.774 2.57h2.094c.187-.539.734-.828 1.555-.828.937 0 1.453.43 1.453 1.172v.71l-2.086.126c-2.141.125-3.336 1.031-3.336 2.586 0 1.57 1.164 2.586 2.82 2.586Zm.75-1.664c-.789 0-1.344-.399-1.344-1.063 0-.633.477-1 1.454-1.062l1.742-.117v.64c0 .906-.797 1.602-1.852 1.602Zm11.406 1.664c2.164 0 3.493-1.68 3.493-4.438 0-2.773-1.313-4.437-3.493-4.437-1.179 0-2.148.57-2.586 1.515h-.14V83.61h-2.274V95.5h2.204v-1.352h.14c.461.938 1.438 1.485 2.656 1.485Zm-.789-7.031c1.203 0 1.946.992 1.946 2.593 0 1.618-.735 2.602-1.946 2.602-1.203 0-1.953-.992-1.961-2.594.008-1.601.766-2.601 1.961-2.601Z"/><rect width="29" height="3" x="115" y="103.5" fill="#005C62" rx="1.5"/></svg>