<svg xmlns="http://www.w3.org/2000/svg" width="312" height="180" fill="none"><rect width="72" height="30" x="56" y="75" fill="#005C62" rx="9.667"/><path fill="#F6FDF5" fill-rule="evenodd" d="m112.591 90 3.579-3.58a1.124 1.124 0 1 0-1.59-1.59L111 88.41l-3.58-3.58a1.124 1.124 0 1 0-1.59 1.59l3.579 3.58-3.579 3.58a1.124 1.124 0 1 0 1.59 1.59l3.58-3.579 3.58 3.58a1.12 1.12 0 0 0 1.59 0c.44-.44.44-1.152 0-1.591L112.591 90Z" clip-rule="evenodd"/><rect width="72" height="30" x="56" y="75" stroke="#005C62" stroke-width="2" rx="9.667"/><rect width="118" height="30" x="138" y="75" fill="#005C62" rx="9.667"/><path fill="#F6FDF5" fill-rule="evenodd" d="m240.591 90 3.579-3.58a1.124 1.124 0 1 0-1.59-1.59L239 88.41l-3.58-3.58a1.124 1.124 0 1 0-1.59 1.59l3.579 3.58-3.579 3.58a1.124 1.124 0 1 0 1.59 1.59l3.58-3.579 3.58 3.58a1.12 1.12 0 0 0 1.59 0c.44-.44.44-1.152 0-1.591L240.591 90Z" clip-rule="evenodd"/><rect width="78" height="8" x="147" y="86" fill="#CCF6EE" fill-opacity=".5" rx="4"/><rect width="118" height="30" x="138" y="75" stroke="#005C62" stroke-width="2" rx="9.667"/><rect width="32" height="8" x="65" y="86" fill="#CCF6EE" fill-opacity=".5" rx="4"/></svg>