<svg width="325" height="180" viewBox="0 0 325 180" fill="none" xmlns="http://www.w3.org/2000/svg">
<rect width="325" height="180" fill="#F6FDF5"/>
<rect x="62" y="75" width="72" height="30" rx="9.66667" fill="#005C62"/>
<path fill-rule="evenodd" clip-rule="evenodd" d="M118.591 90.0001L122.17 86.4206C122.61 85.9811 122.61 85.2691 122.17 84.8296C121.731 84.3901 121.018 84.3901 120.58 84.8296L117 88.4091L113.42 84.8296C112.981 84.3901 112.268 84.3901 111.83 84.8296C111.39 85.2691 111.39 85.9811 111.83 86.4206L115.409 90.0001L111.83 93.5796C111.39 94.0191 111.39 94.7311 111.83 95.1706C112.049 95.3901 112.337 95.5001 112.625 95.5001C112.913 95.5001 113.201 95.3901 113.42 95.1706L117 91.5911L120.58 95.1706C120.799 95.3901 121.087 95.5001 121.375 95.5001C121.663 95.5001 121.951 95.3901 122.17 95.1706C122.61 94.7311 122.61 94.0191 122.17 93.5796L118.591 90.0001Z" fill="#F6FDF5"/>
<rect x="62" y="75" width="72" height="30" rx="9.66667" stroke="#005C62" stroke-width="2"/>
<rect x="144" y="75" width="118" height="30" rx="9.66667" fill="#005C62"/>
<path fill-rule="evenodd" clip-rule="evenodd" d="M246.591 90.0001L250.17 86.4206C250.61 85.9811 250.61 85.2691 250.17 84.8296C249.731 84.3901 249.018 84.3901 248.58 84.8296L245 88.4091L241.42 84.8296C240.981 84.3901 240.268 84.3901 239.83 84.8296C239.39 85.2691 239.39 85.9811 239.83 86.4206L243.409 90.0001L239.83 93.5796C239.39 94.0191 239.39 94.7311 239.83 95.1706C240.049 95.3901 240.337 95.5001 240.625 95.5001C240.913 95.5001 241.201 95.3901 241.42 95.1706L245 91.5911L248.58 95.1706C248.799 95.3901 249.087 95.5001 249.375 95.5001C249.663 95.5001 249.951 95.3901 250.17 95.1706C250.61 94.7311 250.61 94.0191 250.17 93.5796L246.591 90.0001Z" fill="#F6FDF5"/>
<rect x="153" y="86" width="78" height="8" rx="4" fill="#CCF6EE" fill-opacity="0.5"/>
<rect x="144" y="75" width="118" height="30" rx="9.66667" stroke="#005C62" stroke-width="2"/>
<rect x="71" y="86" width="32" height="8" rx="4" fill="#CCF6EE" fill-opacity="0.5"/>
<path d="M0 0V-2H-2V0H0ZM325 0H327V-2H325V0ZM325 180V182H327V180H325ZM0 180H-2V182H0V180ZM0 2H325V-2H0V2ZM323 0V180H327V0H323ZM325 178H0V182H325V178ZM2 180V0H-2V180H2Z" fill="#767676"/>
</svg>
