<svg width="312" height="180" viewBox="0 0 312 180" fill="none" xmlns="http://www.w3.org/2000/svg">
<g clip-path="url(#clip0_1313_2140)">
<rect width="312" height="180" fill="#F6FDF5"/>
<rect x="43" y="75" width="80" height="30" rx="9" fill="#CCF6EE" fill-opacity="0.5"/>
<path d="M52 86.6667C52 82.9848 54.9848 80 58.6667 80H65.3333C69.0152 80 72 82.9848 72 86.6667V93.3333C72 97.0152 69.0152 100 65.3333 100H58.6667C54.9848 100 52 97.0152 52 93.3333V86.6667Z" fill="#005C62"/>
<path fill-rule="evenodd" clip-rule="evenodd" d="M60.75 94.1667L57.305 90.7283C56.8983 90.3225 56.8983 89.6642 57.305 89.2579C57.7117 88.8521 58.3717 88.8521 58.7783 89.2579L60.75 91.2258L65.2217 86.7629C65.6283 86.3567 66.2883 86.3567 66.695 86.7629C67.1017 87.1688 67.1017 87.8271 66.695 88.2329L60.75 94.1667Z" fill="white"/>
<rect x="82" y="86" width="32" height="8" rx="4" fill="#009990" fill-opacity="0.5"/>
<rect x="43" y="75" width="80" height="30" rx="9" stroke="#005C62" stroke-width="2"/>
<rect x="137" y="75" width="118" height="30" rx="9" fill="#CCF6EE" fill-opacity="0.5"/>
<path d="M147 86.6667C147 82.9848 149.985 80 153.667 80H160.333C164.015 80 167 82.9848 167 86.6667V93.3333C167 97.0152 164.015 100 160.333 100H153.667C149.985 100 147 97.0152 147 93.3333V86.6667Z" fill="#005C62"/>
<path fill-rule="evenodd" clip-rule="evenodd" d="M155.75 94.1667L152.305 90.7283C151.898 90.3225 151.898 89.6642 152.305 89.2579C152.712 88.8521 153.372 88.8521 153.778 89.2579L155.75 91.2258L160.222 86.7629C160.628 86.3567 161.288 86.3567 161.695 86.7629C162.102 87.1688 162.102 87.8271 161.695 88.2329L155.75 94.1667Z" fill="white"/>
<rect x="177" y="86" width="68" height="8" rx="4" fill="#009990" fill-opacity="0.5"/>
<rect x="137" y="75" width="118" height="30" rx="9" stroke="#005C62" stroke-width="2"/>
</g>
<defs>
<clipPath id="clip0_1313_2140">
<rect width="312" height="180" fill="white"/>
</clipPath>
</defs>
</svg>
