<svg xmlns="http://www.w3.org/2000/svg" width="312" height="180" fill="none"><path fill="#fff" d="M46 93c0-5.523 4.477-10 10-10h200c5.523 0 10 4.477 10 10v12c0 5.523-4.477 10-10 10H56c-5.523 0-10-4.477-10-10V93Z"/><path fill="#005C62" fill-rule="evenodd" d="M45 92c0-6.075 4.925-11 11-11h200c6.075 0 11 4.925 11 11v12c0 6.075-4.925 11-11 11H56c-6.075 0-11-4.925-11-11V92Zm11-9a9 9 0 0 0-9 9v12a9 9 0 0 0 9 9h200a9 9 0 0 0 9-9V92a9 9 0 0 0-9-9H56Z" clip-rule="evenodd"/><rect width="122" height="8" x="56" y="94" fill="#009990" fill-opacity=".5" rx="4"/><rect width="100" height="8" x="46" y="66" fill="#009990" fill-opacity=".5" rx="4"/></svg>