<svg xmlns="http://www.w3.org/2000/svg" width="312" height="180" fill="none"><path fill="#fff" d="M46 72a8 8 0 0 1 8-8h204a8 8 0 0 1 8 8v53a8 8 0 0 1-8 8H54a8 8 0 0 1-8-8V72Z"/><path fill="#005C62" fill-rule="evenodd" d="M258 66H54a6 6 0 0 0-6 6v53a6 6 0 0 0 6 6h204a6 6 0 0 0 6-6V72a6 6 0 0 0-6-6ZM54 64a8 8 0 0 0-8 8v53a8 8 0 0 0 8 8h204a8 8 0 0 0 8-8V72a8 8 0 0 0-8-8H54Z" clip-rule="evenodd"/><rect width="152" height="8" x="56" y="76" fill="#009990" fill-opacity=".5" rx="4"/><rect width="200" height="8" x="56" y="92" fill="#009990" fill-opacity=".5" rx="4"/><rect width="100" height="8" x="46" y="48" fill="#009990" fill-opacity=".5" rx="4"/></svg>