<svg width="325" height="180" viewBox="0 0 325 180" fill="none" xmlns="http://www.w3.org/2000/svg">
<rect width="325" height="180" fill="#F6FDF5"/>
<path d="M52 93C52 87.4772 56.4772 83 62 83H262C267.523 83 272 87.4772 272 93V105C272 110.523 267.523 115 262 115H62C56.4772 115 52 110.523 52 105V93Z" fill="white"/>
<path fill-rule="evenodd" clip-rule="evenodd" d="M51 92C51 85.9249 55.9249 81 62 81H262C268.075 81 273 85.9249 273 92V104C273 110.075 268.075 115 262 115H62C55.9249 115 51 110.075 51 104V92ZM62 83C57.0294 83 53 87.0294 53 92V104C53 108.971 57.0294 113 62 113H262C266.971 113 271 108.971 271 104V92C271 87.0294 266.971 83 262 83H62Z" fill="#005C62"/>
<rect x="62" y="94" width="122" height="8" rx="4" fill="#009990" fill-opacity="0.5"/>
<rect x="52" y="66" width="100" height="8" rx="4" fill="#009990" fill-opacity="0.5"/>
<path d="M0 0V-2H-2V0H0ZM325 0H327V-2H325V0ZM325 180V182H327V180H325ZM0 180H-2V182H0V180ZM0 2H325V-2H0V2ZM323 0V180H327V0H323ZM325 178H0V182H325V178ZM2 180V0H-2V180H2Z" fill="#767676"/>
</svg>
