<svg width="312" height="180" viewBox="0 0 312 180" fill="none" xmlns="http://www.w3.org/2000/svg">
<g clip-path="url(#clip0_1313_2174)">
<rect width="312" height="180" fill="#F6FDF5"/>
<rect x="65" y="49" width="182" height="82" rx="15" fill="#CCF6EE" fill-opacity="0.5"/>
<path d="M91.1397 108.575H95.2488V89.4247H91.126L86 92.862V96.4187L91.0573 93.1009H91.1397V108.575Z" fill="#005C62"/>
<path d="M101.859 108.735C103.082 108.735 104.072 107.779 104.072 106.598C104.072 105.403 103.082 104.461 101.859 104.461C100.622 104.461 99.6464 105.403 99.6464 106.598C99.6464 107.779 100.622 108.735 101.859 108.735Z" fill="#005C62"/>
<path d="M106.944 95.2508H110.792C110.792 93.4061 112.29 92.1188 114.269 92.1188C116.055 92.1188 117.278 93.2867 117.278 94.8261C117.278 96.1533 116.715 97.069 114.2 99.4048L107.177 105.828V108.575H121.593V105.39H112.606V105.311L116.77 101.462C120.123 98.3696 121.319 96.923 121.319 94.574C121.319 91.3889 118.515 89 114.269 89C109.967 89 106.944 91.5614 106.944 95.2508Z" fill="#005C62"/>
<path d="M131.777 109C136.326 109 139.445 106.253 139.445 102.205C139.445 98.5554 136.738 95.9277 132.959 95.9277C130.952 95.9277 129.317 96.7107 128.492 97.998H128.41L128.891 92.6098H138.25V89.4247H125.593L124.686 100.666H128.3C128.973 99.5109 130.21 98.7943 131.804 98.7943C133.976 98.7943 135.487 100.241 135.487 102.298C135.487 104.382 133.976 105.828 131.79 105.828C129.88 105.828 128.41 104.74 128.176 103.081H124.342C124.452 106.558 127.53 109 131.777 109Z" fill="#005C62"/>
<path d="M163 108.575V89.4247H158.19L152.556 103.174H152.446L146.811 89.4247H142.001V108.575H145.698V95.649H145.808L151.195 108.575H153.806L159.193 95.649H159.303V108.575H163Z" fill="#005C62"/>
<path fill-rule="evenodd" clip-rule="evenodd" d="M182.01 96.6799C181.487 97.1846 181.487 98.0052 182.01 98.51C182.532 99.0154 183.379 99.0154 183.902 98.51L185.632 96.8365V104.824C185.632 105.539 186.232 106.118 186.971 106.118C187.71 106.118 188.309 105.539 188.309 104.824V96.8365L190.039 98.51C190.562 99.0154 191.409 99.0154 191.931 98.51C192.193 98.2576 192.323 97.9263 192.323 97.5949C192.323 97.2636 192.193 96.9323 191.931 96.6799L186.971 91.8813L182.01 96.6799Z" fill="#009990"/>
<rect x="86" y="71" width="95" height="8" rx="4" fill="#009990" fill-opacity="0.5"/>
<rect x="203" y="95" width="24" height="8" rx="4" fill="#009990" fill-opacity="0.5"/>
<path d="M211 72.3333C211 69.3878 213.388 67 216.333 67H221.667C224.612 67 227 69.3878 227 72.3333V77.6667C227 80.6122 224.612 83 221.667 83H216.333C213.388 83 211 80.6122 211 77.6667V72.3333Z" fill="#005C62"/>
<path fill-rule="evenodd" clip-rule="evenodd" d="M218 78.3333L215.244 75.5827C214.919 75.258 214.919 74.7313 215.244 74.4063C215.569 74.0817 216.097 74.0817 216.423 74.4063L218 75.9807L221.577 72.4103C221.903 72.0853 222.431 72.0853 222.756 72.4103C223.081 72.735 223.081 73.2617 222.756 73.5863L218 78.3333Z" fill="white"/>
<rect x="65" y="49" width="182" height="82" rx="15" stroke="#005C62" stroke-width="2"/>
</g>
<defs>
<clipPath id="clip0_1313_2174">
<rect width="312" height="180" fill="white"/>
</clipPath>
</defs>
</svg>
