<svg width="325" height="180" viewBox="0 0 325 180" fill="none" xmlns="http://www.w3.org/2000/svg">
<rect width="325" height="180" fill="#F6FDF5"/>
<rect x="53" y="113" width="218" height="46" rx="23" fill="#005C62"/>
<circle cx="76" cy="136" r="12" fill="#005C62"/>
<g clip-path="url(#clip0_103_2388)">
<path d="M70.5144 136C70.5144 132.97 72.9701 130.514 76.0001 130.514C79.0301 130.514 81.4858 132.97 81.4858 136C81.4858 139.03 79.0301 141.486 76.0001 141.486C72.9701 141.486 70.5144 139.03 70.5144 136ZM74.0308 137.489C73.9065 137.346 73.6901 137.331 73.5465 137.455C73.403 137.579 73.388 137.796 73.5123 137.939C73.988 138.488 74.8194 139.086 75.9808 139.086C77.1808 139.086 78.0101 138.488 78.488 137.939C78.6123 137.796 78.5973 137.579 78.4537 137.455C78.3101 137.331 78.0937 137.346 77.9694 137.489C77.5837 137.933 76.9301 138.4 75.9808 138.4C75.0701 138.4 74.4144 137.933 74.0308 137.489ZM74.2944 134.286C73.9151 134.286 73.6087 134.592 73.6087 134.971C73.6087 135.351 73.9151 135.657 74.2944 135.657C74.6715 135.657 74.9801 135.351 74.9801 134.971C74.9801 134.592 74.6715 134.286 74.2944 134.286ZM77.723 135.657C78.1001 135.657 78.4087 135.351 78.4087 134.971C78.4087 134.592 78.1001 134.286 77.723 134.286C77.3437 134.286 77.0373 134.592 77.0373 134.971C77.0373 135.351 77.3437 135.657 77.723 135.657Z" fill="#CDF9CD"/>
</g>
<rect x="102" y="132" width="120" height="8" rx="4" fill="#CCF6EE" fill-opacity="0.5"/>
<path fill-rule="evenodd" clip-rule="evenodd" d="M76 146C81.5228 146 86 141.523 86 136C86 130.477 81.5228 126 76 126C70.4772 126 66 130.477 66 136C66 141.523 70.4772 146 76 146ZM76 148C82.6274 148 88 142.627 88 136C88 129.373 82.6274 124 76 124C69.3726 124 64 129.373 64 136C64 142.627 69.3726 148 76 148Z" fill="#F6FDF5"/>
<rect x="53" y="113" width="218" height="46" rx="23" stroke="#005C62" stroke-width="2"/>
<path d="M0 0V-2H-2V0H0ZM325 0H327V-2H325V0ZM325 180V182H327V180H325ZM0 180H-2V182H0V180ZM0 2H325V-2H0V2ZM323 0V180H327V0H323ZM325 178H0V182H325V178ZM2 180V0H-2V180H2Z" fill="#767676"/>
<defs>
<clipPath id="clip0_103_2388">
<rect width="10.9714" height="10.9714" fill="white" transform="translate(70.5144 130.514)"/>
</clipPath>
</defs>
</svg>
