<svg xmlns="http://www.w3.org/2000/svg" width="312" height="180" fill="none"><rect width="218" height="46" x="47" y="109" fill="#005C62" rx="23"/><circle cx="70" cy="132" r="12" fill="#005C62"/><g clip-path="url(#toast)"><path fill="#CDF9CD" d="M64.514 132a5.486 5.486 0 1 1 10.971 0 5.486 5.486 0 0 1-10.97 0Zm3.517 1.489a.344.344 0 0 0-.519.45c.476.549 1.307 1.147 2.469 1.147a3.28 3.28 0 0 0 2.507-1.147.343.343 0 1 0-.519-.45 2.59 2.59 0 0 1-1.988.911c-.911 0-1.567-.467-1.95-.911Zm.263-3.203a.685.685 0 1 0 0 1.371.686.686 0 0 0 0-1.371Zm3.429 1.371a.686.686 0 1 0-.001-1.372.686.686 0 0 0 0 1.372Z"/></g><rect width="120" height="8" x="96" y="128" fill="#CCF6EE" fill-opacity=".5" rx="4"/><path fill="#F6FDF5" fill-rule="evenodd" d="M70 142c5.523 0 10-4.477 10-10s-4.477-10-10-10-10 4.477-10 10 4.477 10 10 10Zm0 2c6.627 0 12-5.373 12-12s-5.373-12-12-12-12 5.373-12 12 5.373 12 12 12Z" clip-rule="evenodd"/><rect width="218" height="46" x="47" y="109" stroke="#005C62" stroke-width="2" rx="23"/><defs><clipPath id="toast"><path fill="#fff" d="M0 0h10.971v10.971H0z" transform="translate(64.514 126.514)"/></clipPath></defs></svg>
