<svg xmlns="http://www.w3.org/2000/svg" width="312" height="180" fill="none"><path fill="#005C62" fill-rule="evenodd" d="M156 55a1.5 1.5 0 1 1-.001-2.999A1.5 1.5 0 0 1 156 55Zm1.5 7.5a1.5 1.5 0 1 1-3 0v-5a1.5 1.5 0 1 1 3 0v5ZM156 46c-6.627 0-12 5.373-12 12s5.373 12 12 12 12-5.373 12-12-5.373-12-12-12Z" clip-rule="evenodd"/><rect width="160" height="56" x="76" y="78" fill="#005C62" rx="8"/><rect width="128" height="8" x="92" y="94" fill="#CCF6EE" fill-opacity=".5" rx="4"/><rect width="128" height="8" x="92" y="110" fill="#CCF6EE" fill-opacity=".5" rx="4"/></svg>