<svg xmlns="http://www.w3.org/2000/svg" width="312" height="180" fill="none"><path fill="#fff" d="M20 48c0-4.418 3.418-8 7.635-8h256.73c4.217 0 7.635 3.582 7.635 8v84c0 4.418-3.418 8-7.635 8H27.635c-4.217 0-7.635-3.582-7.635-8V48Z"/><rect width="114" height="8" x="98" y="73" fill="#009990" fill-opacity=".5" rx="4"/><rect width="131" height="8" x="98" y="57" fill="#009990" fill-opacity=".5" rx="4"/><path fill="#005C62" fill-rule="evenodd" d="m270.856 63 4.176-4.176a1.312 1.312 0 1 0-1.856-1.856L269 61.144l-4.177-4.176a1.31 1.31 0 1 0-1.855 1.856L267.144 63l-4.176 4.176a1.312 1.312 0 1 0 1.855 1.856L269 64.856l4.176 4.176a1.308 1.308 0 0 0 1.856 0 1.312 1.312 0 0 0 0-1.856L270.856 63Z" clip-rule="evenodd"/><path fill="#005C62" d="M232.5 118c0-6.627 5.373-12 12-12H264c6.627 0 12 5.373 12 12s-5.373 12-12 12h-19.5c-6.627 0-12-5.373-12-12Z"/><path fill="#fff" d="M243.531 120.637c1.203 0 1.949-.621 1.949-1.614 0-.726-.542-1.285-1.289-1.343v-.071a1.218 1.218 0 0 0 1.02-1.203c0-.871-.652-1.406-1.746-1.406H241v5.637h2.531Zm-1.351-4.762h.984c.563 0 .887.273.887.734 0 .469-.348.735-.985.735h-.886v-1.469Zm0 3.883v-1.637h1.023c.695 0 1.074.281 1.074.809 0 .539-.367.828-1.047.828h-1.05Zm8.152-3.422h-1.137v2.484c0 .59-.304.953-.871.953-.523 0-.793-.308-.793-.918v-2.519h-1.136v2.801c0 1 .578 1.59 1.507 1.59.653 0 1.055-.282 1.258-.782h.07v.692h1.102v-4.301Zm1.465-1.027v1.066h-.672v.863h.672v2.239c0 .835.414 1.175 1.461 1.175.219 0 .43-.023.57-.05v-.84c-.109.011-.187.019-.336.019-.387 0-.558-.179-.558-.566v-1.977h.894v-.863h-.894v-1.066h-1.137Zm3.344 0v1.066h-.672v.863h.672v2.239c0 .835.414 1.175 1.461 1.175.218 0 .429-.023.57-.05v-.84c-.11.011-.188.019-.336.019-.387 0-.559-.179-.559-.566v-1.977h.895v-.863h-.895v-1.066h-1.136Zm4.859 5.418c1.324 0 2.121-.836 2.121-2.243 0-1.394-.809-2.242-2.121-2.242-1.312 0-2.121.852-2.121 2.242 0 1.403.797 2.243 2.121 2.243Zm0-.899c-.609 0-.953-.492-.953-1.344 0-.843.348-1.339.953-1.339.602 0 .953.496.953 1.339 0 .852-.348 1.344-.953 1.344Zm3.051.809h1.137v-2.489c0-.582.324-.957.851-.957.539 0 .793.317.793.922v2.524h1.137v-2.782c0-1.027-.516-1.613-1.473-1.613-.637 0-1.074.301-1.273.785h-.071v-.691h-1.101v4.301Z"/><path fill="#009990" d="M185 118c0-6.627 5.373-12 12-12h19.5c6.627 0 12 5.373 12 12s-5.373 12-12 12H197c-6.627 0-12-5.373-12-12Z"/><path fill="#fff" d="M196.031 120.637c1.203 0 1.949-.621 1.949-1.614 0-.726-.542-1.285-1.289-1.343v-.071a1.218 1.218 0 0 0 1.02-1.203c0-.871-.652-1.406-1.746-1.406H193.5v5.637h2.531Zm-1.351-4.762h.984c.563 0 .887.273.887.734 0 .469-.348.735-.985.735h-.886v-1.469Zm0 3.883v-1.637h1.023c.695 0 1.074.281 1.074.809 0 .539-.367.828-1.047.828h-1.05Zm8.152-3.422h-1.137v2.484c0 .59-.304.953-.871.953-.523 0-.793-.308-.793-.918v-2.519h-1.136v2.801c0 1 .578 1.59 1.507 1.59.653 0 1.055-.282 1.258-.782h.07v.692h1.102v-4.301Zm1.465-1.027v1.066h-.672v.863h.672v2.239c0 .835.414 1.175 1.461 1.175.219 0 .43-.023.57-.05v-.84c-.109.011-.187.019-.336.019-.387 0-.558-.179-.558-.566v-1.977h.894v-.863h-.894v-1.066h-1.137Zm3.344 0v1.066h-.672v.863h.672v2.239c0 .835.414 1.175 1.461 1.175.218 0 .429-.023.57-.05v-.84c-.11.011-.188.019-.336.019-.387 0-.559-.179-.559-.566v-1.977h.895v-.863h-.895v-1.066h-1.136Zm4.859 5.418c1.324 0 2.121-.836 2.121-2.243 0-1.394-.809-2.242-2.121-2.242-1.312 0-2.121.852-2.121 2.242 0 1.403.797 2.243 2.121 2.243Zm0-.899c-.609 0-.953-.492-.953-1.344 0-.843.348-1.339.953-1.339.602 0 .953.496.953 1.339 0 .852-.348 1.344-.953 1.344Zm3.051.809h1.137v-2.489c0-.582.324-.957.851-.957.539 0 .793.317.793.922v2.524h1.137v-2.782c0-1.027-.516-1.613-1.473-1.613-.637 0-1.074.301-1.273.785h-.071v-.691h-1.101v4.301Z"/><path fill="#005C62" d="M36 60a4 4 0 0 1 4-4h46a4 4 0 0 1 4 4v46a4 4 0 0 1-4 4H40a4 4 0 0 1-4-4V60Z"/><g clip-path="url(#a)"><path fill="#CDF9CD" d="M62.85 76.294c.194.787.2 1.612.031 2.406a5.783 5.783 0 0 1-1.031 2.181c-.906 1.031-2.038 1.688-3.406 2V96.5c0 .662-.207 1.3-.675 1.769-.469.468-1.106.731-1.825.731-.607 0-1.243-.263-1.712-.731-.469-.469-.788-1.107-.788-1.769V82.881a5.786 5.786 0 0 1-3.3-1.981 5.305 5.305 0 0 1-1.034-2.181 5.35 5.35 0 0 1 .034-2.419l1.888-8.522A.999.999 0 0 1 52.118 67a1 1 0 0 1 .892 1v9h1.086l1.068-9.256a.837.837 0 0 1 .28-.53.802.802 0 0 1 .5-.212c.262 0 .462.076.612.213.157.136.2.325.282.53L57.905 77h1.038v-9c0-.246.143-.483.25-.668.218-.184.444-.302.687-.332.244-.027.438.039.694.183.2.145.337.36.394.601l1.881 8.51ZM77 96.5c0 .662-.263 1.3-.731 1.769A2.503 2.503 0 0 1 72 96.5V89h-1.05c-.525 0-1.05-.106-1.538-.306a4.145 4.145 0 0 1-1.3-.875c-.368-.375-.662-.819-.918-1.306a5.49 5.49 0 0 1-.244-1.538l-.006-7.112c.056-2.307.75-4.563 2.043-6.47a11.529 11.529 0 0 1 5.27-4.247c.25-.12.63-.166.956-.131a1.993 1.993 0 0 1 1.55 1.05c.156.288.18.609.237.935v27.5Z"/></g><path fill="#005C62" fill-rule="evenodd" d="M286 42H26a4 4 0 0 0-4 4v88a4 4 0 0 0 4 4h260a4 4 0 0 0 4-4V46a4 4 0 0 0-4-4ZM26 40a6 6 0 0 0-6 6v88a6 6 0 0 0 6 6h260a6 6 0 0 0 6-6V46a6 6 0 0 0-6-6H26Z" clip-rule="evenodd"/><defs><clipPath id="a"><path fill="#fff" d="M0 0h28v32H0z" transform="translate(49 67)"/></clipPath></defs></svg>