<svg xmlns="http://www.w3.org/2000/svg" width="312" height="180" fill="none"><path fill="#005C62" d="M40 28a8 8 0 0 1 8-8h217a8 8 0 0 1 8 8v124a8 8 0 0 1-8 8H48a8 8 0 0 1-8-8V28Z"/><path fill="#F6FDF5" fill-rule="evenodd" d="m166.622 73.48-13.988-8.997c-2-1.286-4.634.147-4.634 2.521v17.992c0 2.374 2.634 3.807 4.634 2.521l13.988-8.996c1.837-1.18 1.837-3.86 0-5.042ZM65.203 50c-.331 0-.663-.128-.917-.384L57.75 43l6.536-6.615a1.285 1.285 0 0 1 1.834 0 1.324 1.324 0 0 1 0 1.856L61.418 43l4.702 4.759a1.324 1.324 0 0 1 0 1.856 1.285 1.285 0 0 1-.917.384Z" clip-rule="evenodd"/><path fill="#F6FDF5" d="M58.917 134.63h-1.75c-.644 0-1.167.523-1.167 1.167v2.916c0 .644.523 1.167 1.167 1.167h1.75v-.016L63 143.417v-12.834l-4.083 4.06v-.013Zm9.031-2.582a.73.73 0 0 0-1.031 1.032 5.504 5.504 0 0 1 1.625 3.92c0 1.48-.577 2.871-1.624 3.918a.729.729 0 1 0 1.032 1.031A6.953 6.953 0 0 0 70 137c0-1.871-.728-3.63-2.052-4.952Z"/><path fill="#F6FDF5" d="M64.855 134.111a.73.73 0 0 1 1.031 0A4.06 4.06 0 0 1 67.084 137c0 1.09-.425 2.116-1.196 2.887a.728.728 0 0 1-1.032 0 .729.729 0 0 1 0-1.031 2.608 2.608 0 0 0 .77-1.856c0-.702-.275-1.361-.77-1.857a.73.73 0 0 1 0-1.032Zm183.833-3.528a.73.73 0 0 1 0 1.459h-2.615l3.13 3.13a.728.728 0 1 1-1.031 1.031l-3.13-3.13v2.615a.73.73 0 0 1-1.459 0v-5.105h5.105Zm6.27 7.73a.73.73 0 0 1 1.459 0v5.104h-5.104a.73.73 0 0 1 0-1.459h2.614l-3.13-3.13a.728.728 0 1 1 1.031-1.031l3.13 3.13v-2.614Z"/><circle cx="92" cy="137" r="5" fill="#F6FDF5"/><rect width="132" height="4" x="94" y="135" fill="#F6FDF5" rx="2"/></svg>