<svg width="325" height="180" viewBox="0 0 325 180" fill="none" xmlns="http://www.w3.org/2000/svg">
<rect width="325" height="180" fill="#F6FDF5"/>
<path d="M46 28C46 23.5817 49.5817 20 54 20H271C275.418 20 279 23.5817 279 28V152C279 156.418 275.418 160 271 160H54C49.5817 160 46 156.418 46 152V28Z" fill="#005C62"/>
<path fill-rule="evenodd" clip-rule="evenodd" d="M172.622 73.4789L158.634 64.4829C156.634 63.1969 154 64.6299 154 67.0039V84.9959C154 87.3699 156.634 88.8029 158.634 87.5169L172.622 78.5209C174.459 77.3399 174.459 74.6599 172.622 73.4789Z" fill="#F6FDF5"/>
<path fill-rule="evenodd" clip-rule="evenodd" d="M71.2031 50.0001C70.8717 50.0001 70.5398 49.8718 70.2862 49.6157L63.75 43.0001L70.2862 36.3846C70.7922 35.8718 71.614 35.8718 72.1201 36.3846C72.6266 36.8973 72.6266 37.728 72.1201 38.2407L67.4183 43.0001L72.1201 47.7596C72.6266 48.2723 72.6266 49.103 72.1201 49.6157C71.867 49.8718 71.5351 50.0001 71.2031 50.0001Z" fill="#F6FDF5"/>
<path d="M64.9167 134.63H63.1667C62.5227 134.63 62 135.153 62 135.797V138.713C62 139.357 62.5227 139.88 63.1667 139.88H64.9167V139.864L69 143.417V130.583L64.9167 134.643V134.63Z" fill="#F6FDF5"/>
<path d="M73.9481 132.048C73.6628 131.764 73.2008 131.764 72.9162 132.049C72.6321 132.334 72.6321 132.796 72.9167 133.08C73.9644 134.127 74.5419 135.519 74.5419 137C74.5419 138.48 73.965 139.871 72.9185 140.919C72.6338 141.203 72.6338 141.665 72.9185 141.949C73.0608 142.092 73.2475 142.163 73.4341 142.163C73.6208 142.163 73.8075 142.092 73.9498 141.949C75.2722 140.627 76.0002 138.869 76.0002 137C76.0002 135.129 75.2717 133.37 73.9481 132.048Z" fill="#F6FDF5"/>
<path d="M70.8551 134.111C71.1404 133.827 71.6018 133.827 71.8865 134.111C72.6582 134.883 73.0835 135.909 73.0835 137C73.0835 138.09 72.6588 139.116 71.8876 139.887C71.7453 140.029 71.5586 140.1 71.372 140.1C71.1853 140.1 70.9992 140.029 70.8563 139.887C70.5716 139.602 70.5716 139.141 70.8563 138.856C71.3521 138.36 71.6251 137.701 71.6251 137C71.6251 136.298 71.3515 135.639 70.8551 135.143C70.5705 134.858 70.5705 134.397 70.8551 134.111Z" fill="#F6FDF5"/>
<path d="M254.687 130.583C255.09 130.583 255.417 130.91 255.417 131.313C255.417 131.715 255.09 132.042 254.687 132.042H252.073L255.203 135.172C255.488 135.457 255.488 135.919 255.203 136.203C254.918 136.488 254.456 136.488 254.172 136.203L251.042 133.073V135.688C251.042 136.09 250.715 136.417 250.312 136.417C249.91 136.417 249.583 136.09 249.583 135.688V130.583H254.687Z" fill="#F6FDF5"/>
<path d="M260.958 138.313C260.958 137.91 261.285 137.583 261.687 137.583C262.09 137.583 262.417 137.91 262.417 138.313V143.417H257.312C256.91 143.417 256.583 143.09 256.583 142.688C256.583 142.285 256.91 141.958 257.312 141.958H259.927L256.797 138.828C256.512 138.544 256.512 138.082 256.797 137.797C257.081 137.512 257.543 137.512 257.828 137.797L260.958 140.927V138.313Z" fill="#F6FDF5"/>
<circle cx="98" cy="137" r="5" fill="#F6FDF5"/>
<rect x="100" y="135" width="132" height="4" rx="2" fill="#F6FDF5"/>
<path d="M0 0V-2H-2V0H0ZM325 0H327V-2H325V0ZM325 180V182H327V180H325ZM0 180H-2V182H0V180ZM0 2H325V-2H0V2ZM323 0V180H327V0H323ZM325 178H0V182H325V178ZM2 180V0H-2V180H2Z" fill="#767676"/>
</svg>
