<svg width="312" height="180" viewBox="0 0 312 180" fill="none" xmlns="http://www.w3.org/2000/svg">
<mask id="path-1-inside-1_1004_1878" fill="white">
<path fill-rule="evenodd" clip-rule="evenodd" d="M85 19H227V161H85V19ZM115 128C115 121.925 119.925 117 126 117H187C193.075 117 198 121.925 198 128C198 134.075 193.075 139 187 139H126C119.925 139 115 134.075 115 128ZM156 98C171.464 98 184 85.464 184 70C184 54.536 171.464 42 156 42C140.536 42 128 54.536 128 70C128 85.464 140.536 98 156 98Z"/>
</mask>
<path fill-rule="evenodd" clip-rule="evenodd" d="M85 19H227V161H85V19ZM115 128C115 121.925 119.925 117 126 117H187C193.075 117 198 121.925 198 128C198 134.075 193.075 139 187 139H126C119.925 139 115 134.075 115 128ZM156 98C171.464 98 184 85.464 184 70C184 54.536 171.464 42 156 42C140.536 42 128 54.536 128 70C128 85.464 140.536 98 156 98Z" fill="#767676" fill-opacity="0.5"/>
<path d="M227 19H228V18H227V19ZM85 19V18H84V19H85ZM227 161V162H228V161H227ZM85 161H84V162H85V161ZM223.056 18C222.503 18 222.056 18.4477 222.056 19C222.056 19.5523 222.503 20 223.056 20V18ZM215.167 20C215.719 20 216.167 19.5523 216.167 19C216.167 18.4477 215.719 18 215.167 18V20ZM207.278 18C206.725 18 206.278 18.4477 206.278 19C206.278 19.5523 206.725 20 207.278 20V18ZM199.389 20C199.941 20 200.389 19.5523 200.389 19C200.389 18.4477 199.941 18 199.389 18V20ZM191.5 18C190.948 18 190.5 18.4477 190.5 19C190.5 19.5523 190.948 20 191.5 20V18ZM183.611 20C184.163 20 184.611 19.5523 184.611 19C184.611 18.4477 184.163 18 183.611 18V20ZM175.722 18C175.17 18 174.722 18.4477 174.722 19C174.722 19.5523 175.17 20 175.722 20V18ZM167.833 20C168.386 20 168.833 19.5523 168.833 19C168.833 18.4477 168.386 18 167.833 18V20ZM159.944 18C159.392 18 158.944 18.4477 158.944 19C158.944 19.5523 159.392 20 159.944 20V18ZM152.056 20C152.608 20 153.056 19.5523 153.056 19C153.056 18.4477 152.608 18 152.056 18V20ZM144.167 18C143.614 18 143.167 18.4477 143.167 19C143.167 19.5523 143.614 20 144.167 20V18ZM136.278 20C136.83 20 137.278 19.5523 137.278 19C137.278 18.4477 136.83 18 136.278 18V20ZM128.389 18C127.837 18 127.389 18.4477 127.389 19C127.389 19.5523 127.837 20 128.389 20V18ZM120.5 20C121.052 20 121.5 19.5523 121.5 19C121.5 18.4477 121.052 18 120.5 18V20ZM112.611 18C112.059 18 111.611 18.4477 111.611 19C111.611 19.5523 112.059 20 112.611 20V18ZM104.722 20C105.275 20 105.722 19.5523 105.722 19C105.722 18.4477 105.275 18 104.722 18V20ZM96.8334 18C96.2811 18 95.8334 18.4477 95.8334 19C95.8334 19.5523 96.2811 20 96.8334 20V18ZM88.9445 20C89.4968 20 89.9445 19.5523 89.9445 19C89.9445 18.4477 89.4968 18 88.9445 18V20ZM84 22.9444C84 23.4967 84.4477 23.9444 85 23.9444C85.5523 23.9444 86 23.4967 86 22.9444H84ZM86 30.8333C86 30.281 85.5523 29.8333 85 29.8333C84.4477 29.8333 84 30.281 84 30.8333H86ZM84 38.7222C84 39.2745 84.4477 39.7222 85 39.7222C85.5523 39.7222 86 39.2745 86 38.7222H84ZM86 46.6111C86 46.0588 85.5523 45.6111 85 45.6111C84.4477 45.6111 84 46.0588 84 46.6111H86ZM84 54.5C84 55.0523 84.4477 55.5 85 55.5C85.5523 55.5 86 55.0523 86 54.5H84ZM86 62.3889C86 61.8366 85.5523 61.3889 85 61.3889C84.4477 61.3889 84 61.8366 84 62.3889H86ZM84 70.2778C84 70.8301 84.4477 71.2778 85 71.2778C85.5523 71.2778 86 70.8301 86 70.2778H84ZM86 78.1667C86 77.6144 85.5523 77.1667 85 77.1667C84.4477 77.1667 84 77.6144 84 78.1667H86ZM84 86.0556C84 86.6078 84.4477 87.0556 85 87.0556C85.5523 87.0556 86 86.6078 86 86.0556H84ZM86 93.9444C86 93.3922 85.5523 92.9444 85 92.9444C84.4477 92.9444 84 93.3922 84 93.9444H86ZM84 101.833C84 102.386 84.4477 102.833 85 102.833C85.5523 102.833 86 102.386 86 101.833H84ZM86 109.722C86 109.17 85.5523 108.722 85 108.722C84.4477 108.722 84 109.17 84 109.722H86ZM84 117.611C84 118.163 84.4477 118.611 85 118.611C85.5523 118.611 86 118.163 86 117.611H84ZM86 125.5C86 124.948 85.5523 124.5 85 124.5C84.4477 124.5 84 124.948 84 125.5H86ZM84 133.389C84 133.941 84.4477 134.389 85 134.389C85.5523 134.389 86 133.941 86 133.389H84ZM86 141.278C86 140.725 85.5523 140.278 85 140.278C84.4477 140.278 84 140.725 84 141.278H86ZM84 149.167C84 149.719 84.4477 150.167 85 150.167C85.5523 150.167 86 149.719 86 149.167H84ZM86 157.056C86 156.503 85.5523 156.056 85 156.056C84.4477 156.056 84 156.503 84 157.056H86ZM88.9444 162C89.4967 162 89.9444 161.552 89.9444 161C89.9444 160.448 89.4967 160 88.9444 160V162ZM96.8333 160C96.281 160 95.8333 160.448 95.8333 161C95.8333 161.552 96.281 162 96.8333 162V160ZM104.722 162C105.275 162 105.722 161.552 105.722 161C105.722 160.448 105.275 160 104.722 160V162ZM112.611 160C112.059 160 111.611 160.448 111.611 161C111.611 161.552 112.059 162 112.611 162V160ZM120.5 162C121.052 162 121.5 161.552 121.5 161C121.5 160.448 121.052 160 120.5 160V162ZM128.389 160C127.837 160 127.389 160.448 127.389 161C127.389 161.552 127.837 162 128.389 162V160ZM136.278 162C136.83 162 137.278 161.552 137.278 161C137.278 160.448 136.83 160 136.278 160V162ZM144.167 160C143.614 160 143.167 160.448 143.167 161C143.167 161.552 143.614 162 144.167 162V160ZM152.056 162C152.608 162 153.056 161.552 153.056 161C153.056 160.448 152.608 160 152.056 160V162ZM159.944 160C159.392 160 158.944 160.448 158.944 161C158.944 161.552 159.392 162 159.944 162V160ZM167.833 162C168.386 162 168.833 161.552 168.833 161C168.833 160.448 168.386 160 167.833 160V162ZM175.722 160C175.17 160 174.722 160.448 174.722 161C174.722 161.552 175.17 162 175.722 162V160ZM183.611 162C184.163 162 184.611 161.552 184.611 161C184.611 160.448 184.163 160 183.611 160V162ZM191.5 160C190.948 160 190.5 160.448 190.5 161C190.5 161.552 190.948 162 191.5 162V160ZM199.389 162C199.941 162 200.389 161.552 200.389 161C200.389 160.448 199.941 160 199.389 160V162ZM207.278 160C206.725 160 206.278 160.448 206.278 161C206.278 161.552 206.725 162 207.278 162V160ZM215.167 162C215.719 162 216.167 161.552 216.167 161C216.167 160.448 215.719 160 215.167 160V162ZM223.056 160C222.503 160 222.056 160.448 222.056 161C222.056 161.552 222.503 162 223.056 162V160ZM228 157.056C228 156.503 227.552 156.056 227 156.056C226.448 156.056 226 156.503 226 157.056H228ZM226 149.167C226 149.719 226.448 150.167 227 150.167C227.552 150.167 228 149.719 228 149.167H226ZM228 141.278C228 140.725 227.552 140.278 227 140.278C226.448 140.278 226 140.725 226 141.278H228ZM226 133.389C226 133.941 226.448 134.389 227 134.389C227.552 134.389 228 133.941 228 133.389H226ZM228 125.5C228 124.948 227.552 124.5 227 124.5C226.448 124.5 226 124.948 226 125.5H228ZM226 117.611C226 118.163 226.448 118.611 227 118.611C227.552 118.611 228 118.163 228 117.611H226ZM228 109.722C228 109.17 227.552 108.722 227 108.722C226.448 108.722 226 109.17 226 109.722H228ZM226 101.833C226 102.386 226.448 102.833 227 102.833C227.552 102.833 228 102.386 228 101.833H226ZM228 93.9444C228 93.3922 227.552 92.9444 227 92.9444C226.448 92.9444 226 93.3922 226 93.9444H228ZM226 86.0556C226 86.6078 226.448 87.0556 227 87.0556C227.552 87.0556 228 86.6078 228 86.0556H226ZM228 78.1667C228 77.6144 227.552 77.1667 227 77.1667C226.448 77.1667 226 77.6144 226 78.1667H228ZM226 70.2778C226 70.8301 226.448 71.2778 227 71.2778C227.552 71.2778 228 70.8301 228 70.2778H226ZM228 62.3889C228 61.8366 227.552 61.3889 227 61.3889C226.448 61.3889 226 61.8366 226 62.3889H228ZM226 54.5C226 55.0523 226.448 55.5 227 55.5C227.552 55.5 228 55.0523 228 54.5H226ZM228 46.6111C228 46.0588 227.552 45.6111 227 45.6111C226.448 45.6111 226 46.0588 226 46.6111H228ZM226 38.7222C226 39.2745 226.448 39.7222 227 39.7222C227.552 39.7222 228 39.2745 228 38.7222H226ZM228 30.8334C228 30.2811 227.552 29.8334 227 29.8334C226.448 29.8334 226 30.2811 226 30.8334H228ZM226 22.9445C226 23.4968 226.448 23.9445 227 23.9445C227.552 23.9445 228 23.4968 228 22.9445H226ZM121.406 116.911C120.896 117.123 120.654 117.708 120.866 118.218C121.077 118.728 121.662 118.97 122.172 118.758L121.406 116.911ZM116.758 124.172C116.97 123.662 116.728 123.077 116.218 122.866C115.708 122.654 115.123 122.896 114.911 123.406L116.758 124.172ZM114.911 132.594C115.123 133.104 115.708 133.346 116.218 133.134C116.728 132.923 116.97 132.338 116.758 131.828L114.911 132.594ZM122.172 137.242C121.662 137.03 121.077 137.272 120.866 137.782C120.654 138.292 120.896 138.877 121.406 139.089L122.172 137.242ZM129.812 140C130.365 140 130.812 139.552 130.812 139C130.812 138.448 130.365 138 129.812 138V140ZM137.437 138C136.885 138 136.437 138.448 136.437 139C136.437 139.552 136.885 140 137.437 140V138ZM145.062 140C145.615 140 146.062 139.552 146.062 139C146.062 138.448 145.615 138 145.062 138V140ZM152.688 138C152.135 138 151.688 138.448 151.688 139C151.688 139.552 152.135 140 152.688 140V138ZM160.312 140C160.865 140 161.312 139.552 161.312 139C161.312 138.448 160.865 138 160.312 138V140ZM167.938 138C167.385 138 166.938 138.448 166.938 139C166.938 139.552 167.385 140 167.938 140V138ZM175.562 140C176.115 140 176.562 139.552 176.562 139C176.562 138.448 176.115 138 175.562 138V140ZM183.188 138C182.635 138 182.188 138.448 182.188 139C182.188 139.552 182.635 140 183.188 140V138ZM191.594 139.089C192.104 138.877 192.346 138.292 192.134 137.782C191.923 137.272 191.338 137.03 190.828 137.242L191.594 139.089ZM196.242 131.828C196.03 132.338 196.272 132.923 196.782 133.134C197.292 133.346 197.877 133.104 198.089 132.594L196.242 131.828ZM198.089 123.406C197.877 122.896 197.292 122.654 196.782 122.866C196.272 123.077 196.03 123.662 196.242 124.172L198.089 123.406ZM190.828 118.758C191.338 118.97 191.923 118.728 192.134 118.218C192.346 117.708 192.104 117.123 191.594 116.911L190.828 118.758ZM183.188 116C182.635 116 182.188 116.448 182.188 117C182.188 117.552 182.635 118 183.188 118V116ZM175.562 118C176.115 118 176.562 117.552 176.562 117C176.562 116.448 176.115 116 175.562 116V118ZM167.938 116C167.385 116 166.938 116.448 166.938 117C166.938 117.552 167.385 118 167.938 118V116ZM160.312 118C160.865 118 161.312 117.552 161.312 117C161.312 116.448 160.865 116 160.312 116V118ZM152.688 116C152.135 116 151.688 116.448 151.688 117C151.688 117.552 152.135 118 152.688 118V116ZM145.062 118C145.615 118 146.062 117.552 146.062 117C146.062 116.448 145.615 116 145.062 116V118ZM137.438 116C136.885 116 136.438 116.448 136.438 117C136.438 117.552 136.885 118 137.438 118V116ZM129.812 118C130.365 118 130.812 117.552 130.812 117C130.812 116.448 130.365 116 129.812 116V118ZM184.755 66.2136C184.684 65.666 184.182 65.2799 183.634 65.3513C183.086 65.4228 182.7 65.9246 182.772 66.4723L184.755 66.2136ZM180.952 59.665C181.163 60.1752 181.748 60.4172 182.258 60.2057C182.769 59.9941 183.011 59.409 182.799 58.8989L180.952 59.665ZM179.008 52.3447C178.672 51.9068 178.044 51.8246 177.606 52.1611C177.168 52.4976 177.086 53.1255 177.422 53.5634L179.008 52.3447ZM172.437 48.5777C172.875 48.9143 173.502 48.8321 173.839 48.3941C174.175 47.9562 174.093 47.3284 173.655 46.9919L172.437 48.5777ZM167.101 43.2009C166.591 42.9894 166.006 43.2314 165.794 43.7416C165.583 44.2518 165.825 44.8368 166.335 45.0484L167.101 43.2009ZM159.528 43.2283C160.075 43.2997 160.577 42.9137 160.649 42.366C160.72 41.8184 160.334 41.3165 159.786 41.2451L159.528 43.2283ZM152.214 41.2451C151.666 41.3165 151.28 41.8184 151.351 42.366C151.423 42.9137 151.925 43.2997 152.472 43.2283L152.214 41.2451ZM145.665 45.0484C146.175 44.8368 146.417 44.2518 146.206 43.7416C145.994 43.2314 145.409 42.9894 144.899 43.2009L145.665 45.0484ZM138.345 46.9919C137.907 47.3284 137.825 47.9562 138.161 48.3941C138.498 48.8321 139.125 48.9143 139.563 48.5777L138.345 46.9919ZM134.578 53.5634C134.914 53.1255 134.832 52.4977 134.394 52.1611C133.956 51.8246 133.328 51.9068 132.992 52.3447L134.578 53.5634ZM129.201 58.8989C128.989 59.409 129.231 59.9941 129.742 60.2057C130.252 60.4172 130.837 60.1752 131.048 59.665L129.201 58.8989ZM129.228 66.4723C129.3 65.9246 128.914 65.4228 128.366 65.3513C127.818 65.2799 127.316 65.666 127.245 66.2136L129.228 66.4723ZM127.245 73.7864C127.317 74.334 127.818 74.7201 128.366 74.6487C128.914 74.5772 129.3 74.0754 129.228 73.5277L127.245 73.7864ZM131.048 80.335C130.837 79.8248 130.252 79.5828 129.742 79.7943C129.231 80.0059 128.989 80.591 129.201 81.1011L131.048 80.335ZM132.992 87.6553C133.328 88.0932 133.956 88.1754 134.394 87.8389C134.832 87.5023 134.914 86.8745 134.578 86.4366L132.992 87.6553ZM139.563 91.4223C139.125 91.0857 138.498 91.1679 138.161 91.6059C137.825 92.0438 137.907 92.6716 138.345 93.0081L139.563 91.4223ZM144.899 96.7991C145.409 97.0106 145.994 96.7686 146.206 96.2584C146.417 95.7482 146.175 95.1632 145.665 94.9516L144.899 96.7991ZM152.472 96.7717C151.925 96.7003 151.423 97.0863 151.351 97.634C151.28 98.1816 151.666 98.6835 152.214 98.7549L152.472 96.7717ZM159.786 98.7549C160.334 98.6835 160.72 98.1816 160.649 97.634C160.577 97.0863 160.075 96.7003 159.528 96.7717L159.786 98.7549ZM166.335 94.9516C165.825 95.1632 165.583 95.7482 165.794 96.2584C166.006 96.7686 166.591 97.0106 167.101 96.7991L166.335 94.9516ZM173.655 93.0081C174.093 92.6716 174.175 92.0438 173.839 91.6059C173.502 91.1679 172.875 91.0857 172.437 91.4223L173.655 93.0081ZM177.422 86.4366C177.086 86.8745 177.168 87.5023 177.606 87.8389C178.044 88.1754 178.672 88.0932 179.008 87.6553L177.422 86.4366ZM182.799 81.1011C183.011 80.591 182.769 80.0059 182.258 79.7943C181.748 79.5828 181.163 79.8248 180.952 80.335L182.799 81.1011ZM182.772 73.5277C182.7 74.0754 183.086 74.5772 183.634 74.6487C184.182 74.7201 184.684 74.334 184.755 73.7864L182.772 73.5277ZM227 18H223.056V20H227V18ZM215.167 18H207.278V20H215.167V18ZM199.389 18H191.5V20H199.389V18ZM183.611 18H175.722V20H183.611V18ZM167.833 18H159.944V20H167.833V18ZM152.056 18H144.167V20H152.056V18ZM136.278 18H128.389V20H136.278V18ZM120.5 18H112.611V20H120.5V18ZM104.722 18H96.8334V20H104.722V18ZM88.9445 18H85V20H88.9445V18ZM84 19V22.9444H86V19H84ZM84 30.8333V38.7222H86V30.8333H84ZM84 46.6111V54.5H86V46.6111H84ZM84 62.3889V70.2778H86V62.3889H84ZM84 78.1667V86.0556H86V78.1667H84ZM84 93.9444V101.833H86V93.9444H84ZM84 109.722V117.611H86V109.722H84ZM84 125.5V133.389H86V125.5H84ZM84 141.278V149.167H86V141.278H84ZM84 157.056V161H86V157.056H84ZM85 162H88.9444V160H85V162ZM96.8333 162H104.722V160H96.8333V162ZM112.611 162H120.5V160H112.611V162ZM128.389 162H136.278V160H128.389V162ZM144.167 162H152.056V160H144.167V162ZM159.944 162H167.833V160H159.944V162ZM175.722 162H183.611V160H175.722V162ZM191.5 162H199.389V160H191.5V162ZM207.278 162H215.167V160H207.278V162ZM223.056 162H227V160H223.056V162ZM228 161V157.056H226V161H228ZM228 149.167V141.278H226V149.167H228ZM228 133.389V125.5H226V133.389H228ZM228 117.611V109.722H226V117.611H228ZM228 101.833V93.9444H226V101.833H228ZM228 86.0556V78.1667H226V86.0556H228ZM228 70.2778V62.3889H226V70.2778H228ZM228 54.5V46.6111H226V54.5H228ZM228 38.7222V30.8334H226V38.7222H228ZM228 22.9445V19H226V22.9445H228ZM126 116C124.375 116 122.823 116.324 121.406 116.911L122.172 118.758C123.35 118.27 124.642 118 126 118V116ZM114.911 123.406C114.324 124.823 114 126.375 114 128H116C116 126.642 116.27 125.35 116.758 124.172L114.911 123.406ZM114 128C114 129.625 114.324 131.177 114.911 132.594L116.758 131.828C116.27 130.65 116 129.358 116 128H114ZM121.406 139.089C122.823 139.676 124.375 140 126 140V138C124.642 138 123.35 137.73 122.172 137.242L121.406 139.089ZM126 140H129.812V138H126V140ZM137.437 140H145.062V138H137.437V140ZM152.688 140H160.312V138H152.688V140ZM167.938 140H175.562V138H167.938V140ZM183.188 140H187V138H183.188V140ZM187 140C188.625 140 190.177 139.676 191.594 139.089L190.828 137.242C189.65 137.73 188.358 138 187 138V140ZM198.089 132.594C198.676 131.177 199 129.625 199 128H197C197 129.358 196.73 130.65 196.242 131.828L198.089 132.594ZM199 128C199 126.375 198.676 124.823 198.089 123.406L196.242 124.172C196.73 125.35 197 126.642 197 128H199ZM191.594 116.911C190.177 116.324 188.625 116 187 116V118C188.358 118 189.65 118.27 190.828 118.758L191.594 116.911ZM187 116H183.188V118H187V116ZM175.562 116H167.938V118H175.562V116ZM160.312 116H152.688V118H160.312V116ZM145.062 116H137.438V118H145.062V116ZM129.812 116H126V118H129.812V116ZM185 70C185 68.7172 184.917 67.4533 184.755 66.2136L182.772 66.4723C182.922 67.6264 183 68.8039 183 70H185ZM182.799 58.8989C181.821 56.5407 180.541 54.3399 179.008 52.3447L177.422 53.5634C178.85 55.4216 180.042 57.4705 180.952 59.665L182.799 58.8989ZM173.655 46.9919C171.66 45.4586 169.459 44.1788 167.101 43.2009L166.335 45.0484C168.529 45.9584 170.578 47.1498 172.437 48.5777L173.655 46.9919ZM159.786 41.2451C158.547 41.0834 157.283 41 156 41V43C157.196 43 158.374 43.0777 159.528 43.2283L159.786 41.2451ZM156 41C154.717 41 153.453 41.0834 152.214 41.2451L152.472 43.2283C153.626 43.0777 154.804 43 156 43V41ZM144.899 43.2009C142.541 44.1788 140.34 45.4586 138.345 46.9919L139.563 48.5777C141.422 47.1498 143.471 45.9584 145.665 45.0484L144.899 43.2009ZM132.992 52.3447C131.459 54.3399 130.179 56.5407 129.201 58.8989L131.048 59.665C131.958 57.4705 133.15 55.4216 134.578 53.5634L132.992 52.3447ZM127.245 66.2136C127.083 67.4533 127 68.7172 127 70H129C129 68.8039 129.078 67.6264 129.228 66.4723L127.245 66.2136ZM127 70C127 71.2828 127.083 72.5467 127.245 73.7864L129.228 73.5277C129.078 72.3736 129 71.1961 129 70H127ZM129.201 81.1011C130.179 83.4593 131.459 85.6601 132.992 87.6553L134.578 86.4366C133.15 84.5784 131.958 82.5295 131.048 80.335L129.201 81.1011ZM138.345 93.0081C140.34 94.5414 142.541 95.8212 144.899 96.7991L145.665 94.9516C143.471 94.0416 141.422 92.8502 139.563 91.4223L138.345 93.0081ZM152.214 98.7549C153.453 98.9166 154.717 99 156 99V97C154.804 97 153.626 96.9223 152.472 96.7717L152.214 98.7549ZM156 99C157.283 99 158.547 98.9166 159.786 98.7549L159.528 96.7717C158.374 96.9223 157.196 97 156 97V99ZM167.101 96.7991C169.459 95.8212 171.66 94.5414 173.655 93.0081L172.437 91.4223C170.578 92.8502 168.529 94.0416 166.335 94.9516L167.101 96.7991ZM179.008 87.6553C180.541 85.6601 181.821 83.4593 182.799 81.1011L180.952 80.335C180.042 82.5295 178.85 84.5784 177.422 86.4366L179.008 87.6553ZM184.755 73.7864C184.917 72.5467 185 71.2828 185 70H183C183 71.1961 182.922 72.3736 182.772 73.5277L184.755 73.7864ZM227 19H229V17H227V19ZM85 19V17H83V19H85ZM227 161V163H229V161H227ZM85 161H83V163H85V161ZM223.056 17C221.951 17 221.056 17.8954 221.056 19C221.056 20.1046 221.951 21 223.056 21V17ZM215.167 21C216.271 21 217.167 20.1046 217.167 19C217.167 17.8954 216.271 17 215.167 17V21ZM207.278 17C206.173 17 205.278 17.8954 205.278 19C205.278 20.1046 206.173 21 207.278 21V17ZM199.389 21C200.493 21 201.389 20.1046 201.389 19C201.389 17.8954 200.493 17 199.389 17V21ZM191.5 17C190.395 17 189.5 17.8954 189.5 19C189.5 20.1046 190.395 21 191.5 21V17ZM183.611 21C184.716 21 185.611 20.1046 185.611 19C185.611 17.8954 184.716 17 183.611 17V21ZM175.722 17C174.618 17 173.722 17.8954 173.722 19C173.722 20.1046 174.618 21 175.722 21V17ZM167.833 21C168.938 21 169.833 20.1046 169.833 19C169.833 17.8954 168.938 17 167.833 17V21ZM159.944 17C158.84 17 157.944 17.8954 157.944 19C157.944 20.1046 158.84 21 159.944 21V17ZM152.056 21C153.16 21 154.056 20.1046 154.056 19C154.056 17.8954 153.16 17 152.056 17V21ZM144.167 17C143.062 17 142.167 17.8954 142.167 19C142.167 20.1046 143.062 21 144.167 21V17ZM136.278 21C137.382 21 138.278 20.1046 138.278 19C138.278 17.8954 137.382 17 136.278 17V21ZM128.389 17C127.284 17 126.389 17.8954 126.389 19C126.389 20.1046 127.284 21 128.389 21V17ZM120.5 21C121.605 21 122.5 20.1046 122.5 19C122.5 17.8954 121.605 17 120.5 17V21ZM112.611 17C111.507 17 110.611 17.8954 110.611 19C110.611 20.1046 111.507 21 112.611 21V17ZM104.722 21C105.827 21 106.722 20.1046 106.722 19C106.722 17.8954 105.827 17 104.722 17V21ZM96.8334 17C95.7288 17 94.8334 17.8954 94.8334 19C94.8334 20.1046 95.7288 21 96.8334 21V17ZM88.9445 21C90.049 21 90.9445 20.1046 90.9445 19C90.9445 17.8954 90.049 17 88.9445 17V21ZM83 22.9444C83 24.049 83.8954 24.9444 85 24.9444C86.1046 24.9444 87 24.049 87 22.9444H83ZM87 30.8333C87 29.7288 86.1046 28.8333 85 28.8333C83.8954 28.8333 83 29.7288 83 30.8333H87ZM83 38.7222C83 39.8268 83.8954 40.7222 85 40.7222C86.1046 40.7222 87 39.8268 87 38.7222H83ZM87 46.6111C87 45.5065 86.1046 44.6111 85 44.6111C83.8954 44.6111 83 45.5065 83 46.6111H87ZM83 54.5C83 55.6046 83.8954 56.5 85 56.5C86.1046 56.5 87 55.6046 87 54.5H83ZM87 62.3889C87 61.2843 86.1046 60.3889 85 60.3889C83.8954 60.3889 83 61.2843 83 62.3889H87ZM83 70.2778C83 71.3823 83.8954 72.2778 85 72.2778C86.1046 72.2778 87 71.3823 87 70.2778H83ZM87 78.1667C87 77.0621 86.1046 76.1667 85 76.1667C83.8954 76.1667 83 77.0621 83 78.1667H87ZM83 86.0556C83 87.1601 83.8954 88.0556 85 88.0556C86.1046 88.0556 87 87.1601 87 86.0556H83ZM87 93.9444C87 92.8399 86.1046 91.9444 85 91.9444C83.8954 91.9444 83 92.8399 83 93.9444H87ZM83 101.833C83 102.938 83.8954 103.833 85 103.833C86.1046 103.833 87 102.938 87 101.833H83ZM87 109.722C87 108.618 86.1046 107.722 85 107.722C83.8954 107.722 83 108.618 83 109.722H87ZM83 117.611C83 118.716 83.8954 119.611 85 119.611C86.1046 119.611 87 118.716 87 117.611H83ZM87 125.5C87 124.395 86.1046 123.5 85 123.5C83.8954 123.5 83 124.395 83 125.5H87ZM83 133.389C83 134.493 83.8954 135.389 85 135.389C86.1046 135.389 87 134.493 87 133.389H83ZM87 141.278C87 140.173 86.1046 139.278 85 139.278C83.8954 139.278 83 140.173 83 141.278H87ZM83 149.167C83 150.271 83.8954 151.167 85 151.167C86.1046 151.167 87 150.271 87 149.167H83ZM87 157.056C87 155.951 86.1046 155.056 85 155.056C83.8954 155.056 83 155.951 83 157.056H87ZM88.9444 163C90.049 163 90.9444 162.105 90.9444 161C90.9444 159.895 90.049 159 88.9444 159V163ZM96.8333 159C95.7288 159 94.8333 159.895 94.8333 161C94.8333 162.105 95.7288 163 96.8333 163V159ZM104.722 163C105.827 163 106.722 162.105 106.722 161C106.722 159.895 105.827 159 104.722 159V163ZM112.611 159C111.507 159 110.611 159.895 110.611 161C110.611 162.105 111.507 163 112.611 163V159ZM120.5 163C121.605 163 122.5 162.105 122.5 161C122.5 159.895 121.605 159 120.5 159V163ZM128.389 159C127.284 159 126.389 159.895 126.389 161C126.389 162.105 127.284 163 128.389 163V159ZM136.278 163C137.382 163 138.278 162.105 138.278 161C138.278 159.895 137.382 159 136.278 159V163ZM144.167 159C143.062 159 142.167 159.895 142.167 161C142.167 162.105 143.062 163 144.167 163V159ZM152.056 163C153.16 163 154.056 162.105 154.056 161C154.056 159.895 153.16 159 152.056 159V163ZM159.944 159C158.84 159 157.944 159.895 157.944 161C157.944 162.105 158.84 163 159.944 163V159ZM167.833 163C168.938 163 169.833 162.105 169.833 161C169.833 159.895 168.938 159 167.833 159V163ZM175.722 159C174.618 159 173.722 159.895 173.722 161C173.722 162.105 174.618 163 175.722 163V159ZM183.611 163C184.716 163 185.611 162.105 185.611 161C185.611 159.895 184.716 159 183.611 159V163ZM191.5 159C190.395 159 189.5 159.895 189.5 161C189.5 162.105 190.395 163 191.5 163V159ZM199.389 163C200.493 163 201.389 162.105 201.389 161C201.389 159.895 200.493 159 199.389 159V163ZM207.278 159C206.173 159 205.278 159.895 205.278 161C205.278 162.105 206.173 163 207.278 163V159ZM215.167 163C216.271 163 217.167 162.105 217.167 161C217.167 159.895 216.271 159 215.167 159V163ZM223.056 159C221.951 159 221.056 159.895 221.056 161C221.056 162.105 221.951 163 223.056 163V159ZM229 157.056C229 155.951 228.105 155.056 227 155.056C225.895 155.056 225 155.951 225 157.056H229ZM225 149.167C225 150.271 225.895 151.167 227 151.167C228.105 151.167 229 150.271 229 149.167H225ZM229 141.278C229 140.173 228.105 139.278 227 139.278C225.895 139.278 225 140.173 225 141.278H229ZM225 133.389C225 134.493 225.895 135.389 227 135.389C228.105 135.389 229 134.493 229 133.389H225ZM229 125.5C229 124.395 228.105 123.5 227 123.5C225.895 123.5 225 124.395 225 125.5H229ZM225 117.611C225 118.716 225.895 119.611 227 119.611C228.105 119.611 229 118.716 229 117.611H225ZM229 109.722C229 108.618 228.105 107.722 227 107.722C225.895 107.722 225 108.618 225 109.722H229ZM225 101.833C225 102.938 225.895 103.833 227 103.833C228.105 103.833 229 102.938 229 101.833H225ZM229 93.9444C229 92.8399 228.105 91.9444 227 91.9444C225.895 91.9444 225 92.8399 225 93.9444H229ZM225 86.0556C225 87.1601 225.895 88.0556 227 88.0556C228.105 88.0556 229 87.1601 229 86.0556H225ZM229 78.1667C229 77.0621 228.105 76.1667 227 76.1667C225.895 76.1667 225 77.0621 225 78.1667H229ZM225 70.2778C225 71.3824 225.895 72.2778 227 72.2778C228.105 72.2778 229 71.3824 229 70.2778H225ZM229 62.3889C229 61.2843 228.105 60.3889 227 60.3889C225.895 60.3889 225 61.2843 225 62.3889H229ZM225 54.5C225 55.6046 225.895 56.5 227 56.5C228.105 56.5 229 55.6046 229 54.5H225ZM229 46.6111C229 45.5066 228.105 44.6111 227 44.6111C225.895 44.6111 225 45.5066 225 46.6111H229ZM225 38.7222C225 39.8268 225.895 40.7222 227 40.7222C228.105 40.7222 229 39.8268 229 38.7222H225ZM229 30.8334C229 29.7288 228.105 28.8334 227 28.8334C225.895 28.8334 225 29.7288 225 30.8334H229ZM225 22.9445C225 24.049 225.895 24.9445 227 24.9445C228.105 24.9445 229 24.049 229 22.9445H225ZM121.023 115.987C120.003 116.41 119.519 117.58 119.942 118.601C120.365 119.621 121.535 120.105 122.555 119.682L121.023 115.987ZM117.682 124.555C118.105 123.535 117.621 122.365 116.601 121.942C115.58 121.519 114.41 122.003 113.987 123.023L117.682 124.555ZM113.987 132.977C114.41 133.997 115.58 134.481 116.601 134.058C117.621 133.635 118.105 132.465 117.682 131.445L113.987 132.977ZM122.555 136.318C121.535 135.895 120.365 136.379 119.942 137.399C119.519 138.42 120.003 139.59 121.023 140.013L122.555 136.318ZM129.812 141C130.917 141 131.812 140.105 131.812 139C131.812 137.895 130.917 137 129.812 137V141ZM137.437 137C136.333 137 135.437 137.895 135.437 139C135.437 140.105 136.333 141 137.437 141V137ZM145.062 141C146.167 141 147.062 140.105 147.062 139C147.062 137.895 146.167 137 145.062 137V141ZM152.688 137C151.583 137 150.688 137.895 150.688 139C150.688 140.105 151.583 141 152.688 141V137ZM160.312 141C161.417 141 162.312 140.105 162.312 139C162.312 137.895 161.417 137 160.312 137V141ZM167.938 137C166.833 137 165.938 137.895 165.938 139C165.938 140.105 166.833 141 167.938 141V137ZM175.562 141C176.667 141 177.562 140.105 177.562 139C177.562 137.895 176.667 137 175.562 137V141ZM183.188 137C182.083 137 181.188 137.895 181.188 139C181.188 140.105 182.083 141 183.188 141V137ZM191.977 140.013C192.997 139.59 193.481 138.42 193.058 137.399C192.635 136.379 191.465 135.895 190.445 136.318L191.977 140.013ZM195.318 131.445C194.895 132.465 195.379 133.635 196.399 134.058C197.42 134.481 198.59 133.997 199.013 132.977L195.318 131.445ZM199.013 123.023C198.59 122.003 197.42 121.519 196.399 121.942C195.379 122.365 194.895 123.535 195.318 124.555L199.013 123.023ZM190.445 119.682C191.465 120.105 192.635 119.621 193.058 118.601C193.481 117.58 192.997 116.41 191.977 115.987L190.445 119.682ZM183.188 115C182.083 115 181.188 115.895 181.188 117C181.188 118.105 182.083 119 183.188 119V115ZM175.562 119C176.667 119 177.562 118.105 177.562 117C177.562 115.895 176.667 115 175.562 115V119ZM167.938 115C166.833 115 165.938 115.895 165.938 117C165.938 118.105 166.833 119 167.938 119V115ZM160.312 119C161.417 119 162.312 118.105 162.312 117C162.312 115.895 161.417 115 160.312 115V119ZM152.688 115C151.583 115 150.688 115.895 150.688 117C150.688 118.105 151.583 119 152.688 119V115ZM145.062 119C146.167 119 147.062 118.105 147.062 117C147.062 115.895 146.167 115 145.062 115V119ZM137.438 115C136.333 115 135.438 115.895 135.438 117C135.438 118.105 136.333 119 137.438 119V115ZM129.812 119C130.917 119 131.812 118.105 131.812 117C131.812 115.895 130.917 115 129.812 115V119ZM185.747 66.0842C185.604 64.989 184.6 64.2169 183.505 64.3597C182.409 64.5026 181.637 65.5063 181.78 66.6016L185.747 66.0842ZM180.028 60.048C180.451 61.0684 181.621 61.5525 182.641 61.1294C183.662 60.7063 184.146 59.5362 183.723 58.5158L180.028 60.048ZM179.801 51.7354C179.128 50.8596 177.872 50.6952 176.997 51.3682C176.121 52.0412 175.956 53.2969 176.629 54.1727L179.801 51.7354ZM171.827 49.3707C172.703 50.0437 173.959 49.8793 174.632 49.0035C175.305 48.1276 175.14 46.872 174.265 46.199L171.827 49.3707ZM167.484 42.2772C166.464 41.8541 165.294 42.3382 164.871 43.3585C164.447 44.3789 164.932 45.549 165.952 45.9721L167.484 42.2772ZM159.398 44.2199C160.494 44.3627 161.497 43.5906 161.64 42.4954C161.783 41.4001 161.011 40.3963 159.916 40.2535L159.398 44.2199ZM152.084 40.2535C150.989 40.3963 150.217 41.4001 150.36 42.4954C150.503 43.5906 151.506 44.3627 152.602 44.2199L152.084 40.2535ZM146.048 45.9721C147.068 45.549 147.553 44.3789 147.129 43.3585C146.706 42.3382 145.536 41.8541 144.516 42.2772L146.048 45.9721ZM137.735 46.199C136.86 46.872 136.695 48.1276 137.368 49.0035C138.041 49.8793 139.297 50.0437 140.173 49.3707L137.735 46.199ZM135.371 54.1727C136.044 53.2969 135.879 52.0413 135.003 51.3682C134.128 50.6952 132.872 50.8596 132.199 51.7354L135.371 54.1727ZM128.277 58.5158C127.854 59.5362 128.338 60.7063 129.359 61.1294C130.379 61.5525 131.549 61.0684 131.972 60.048L128.277 58.5158ZM130.22 66.6016C130.363 65.5063 129.591 64.5026 128.495 64.3597C127.4 64.2169 126.396 64.989 126.253 66.0843L130.22 66.6016ZM126.253 73.9158C126.396 75.011 127.4 75.7831 128.495 75.6403C129.591 75.4974 130.363 74.4937 130.22 73.3984L126.253 73.9158ZM131.972 79.952C131.549 78.9316 130.379 78.4475 129.359 78.8706C128.338 79.2937 127.854 80.4638 128.277 81.4842L131.972 79.952ZM132.199 88.2646C132.872 89.1404 134.128 89.3048 135.003 88.6318C135.879 87.9587 136.044 86.7031 135.371 85.8273L132.199 88.2646ZM140.173 90.6293C139.297 89.9563 138.041 90.1207 137.368 90.9965C136.695 91.8724 136.86 93.128 137.735 93.801L140.173 90.6293ZM144.516 97.7228C145.536 98.1459 146.706 97.6618 147.129 96.6415C147.553 95.6211 147.068 94.451 146.048 94.0279L144.516 97.7228ZM152.602 95.7801C151.506 95.6373 150.503 96.4094 150.36 97.5046C150.217 98.5999 150.989 99.6037 152.084 99.7465L152.602 95.7801ZM159.916 99.7465C161.011 99.6037 161.783 98.5999 161.64 97.5046C161.497 96.4094 160.494 95.6373 159.398 95.7801L159.916 99.7465ZM165.952 94.0279C164.932 94.451 164.448 95.6211 164.871 96.6415C165.294 97.6618 166.464 98.1459 167.484 97.7228L165.952 94.0279ZM174.265 93.801C175.14 93.128 175.305 91.8724 174.632 90.9965C173.959 90.1207 172.703 89.9563 171.827 90.6293L174.265 93.801ZM176.629 85.8273C175.956 86.7031 176.121 87.9587 176.997 88.6318C177.872 89.3048 179.128 89.1404 179.801 88.2646L176.629 85.8273ZM183.723 81.4842C184.146 80.4638 183.662 79.2937 182.641 78.8706C181.621 78.4475 180.451 78.9316 180.028 79.952L183.723 81.4842ZM181.78 73.3984C181.637 74.4937 182.409 75.4974 183.505 75.6403C184.6 75.7831 185.604 75.011 185.747 73.9157L181.78 73.3984ZM227 17H223.056V21H227V17ZM215.167 17H207.278V21H215.167V17ZM199.389 17H191.5V21H199.389V17ZM183.611 17H175.722V21H183.611V17ZM167.833 17H159.944V21H167.833V17ZM152.056 17H144.167V21H152.056V17ZM136.278 17H128.389V21H136.278V17ZM120.5 17H112.611V21H120.5V17ZM104.722 17H96.8334V21H104.722V17ZM88.9445 17H85V21H88.9445V17ZM83 19V22.9444H87V19H83ZM83 30.8333V38.7222H87V30.8333H83ZM83 46.6111V54.5H87V46.6111H83ZM83 62.3889V70.2778H87V62.3889H83ZM83 78.1667V86.0556H87V78.1667H83ZM83 93.9444V101.833H87V93.9444H83ZM83 109.722V117.611H87V109.722H83ZM83 125.5V133.389H87V125.5H83ZM83 141.278V149.167H87V141.278H83ZM83 157.056V161H87V157.056H83ZM85 163H88.9444V159H85V163ZM96.8333 163H104.722V159H96.8333V163ZM112.611 163H120.5V159H112.611V163ZM128.389 163H136.278V159H128.389V163ZM144.167 163H152.056V159H144.167V163ZM159.944 163H167.833V159H159.944V163ZM175.722 163H183.611V159H175.722V163ZM191.5 163H199.389V159H191.5V163ZM207.278 163H215.167V159H207.278V163ZM223.056 163H227V159H223.056V163ZM229 161V157.056H225V161H229ZM229 149.167V141.278H225V149.167H229ZM229 133.389V125.5H225V133.389H229ZM229 117.611V109.722H225V117.611H229ZM229 101.833V93.9444H225V101.833H229ZM229 86.0556V78.1667H225V86.0556H229ZM229 70.2778V62.3889H225V70.2778H229ZM229 54.5V46.6111H225V54.5H229ZM229 38.7222V30.8334H225V38.7222H229ZM229 22.9445V19H225V22.9445H229ZM126 115C124.241 115 122.559 115.35 121.023 115.987L122.555 119.682C123.614 119.243 124.776 119 126 119V115ZM113.987 123.023C113.35 124.559 113 126.241 113 128H117C117 126.776 117.243 125.614 117.682 124.555L113.987 123.023ZM113 128C113 129.759 113.35 131.441 113.987 132.977L117.682 131.445C117.243 130.386 117 129.224 117 128H113ZM121.023 140.013C122.559 140.65 124.241 141 126 141V137C124.776 137 123.614 136.757 122.555 136.318L121.023 140.013ZM126 141H129.812V137H126V141ZM137.437 141H145.062V137H137.437V141ZM152.688 141H160.312V137H152.688V141ZM167.938 141H175.562V137H167.938V141ZM183.188 141H187V137H183.188V141ZM187 141C188.759 141 190.441 140.65 191.977 140.013L190.445 136.318C189.386 136.757 188.224 137 187 137V141ZM199.013 132.977C199.65 131.441 200 129.759 200 128H196C196 129.224 195.757 130.386 195.318 131.445L199.013 132.977ZM200 128C200 126.241 199.65 124.559 199.013 123.023L195.318 124.555C195.757 125.614 196 126.776 196 128H200ZM191.977 115.987C190.441 115.35 188.759 115 187 115V119C188.224 119 189.386 119.243 190.445 119.682L191.977 115.987ZM187 115H183.188V119H187V115ZM175.562 115H167.938V119H175.562V115ZM160.312 115H152.688V119H160.312V115ZM145.062 115H137.438V119H145.062V115ZM129.812 115H126V119H129.812V115ZM186 70C186 68.6738 185.914 67.3667 185.747 66.0842L181.78 66.6016C181.925 67.713 182 68.8472 182 70H186ZM183.723 58.5158C182.711 56.0758 181.387 53.7991 179.801 51.7354L176.629 54.1727C178.005 55.9624 179.152 57.9354 180.028 60.048L183.723 58.5158ZM174.265 46.199C172.201 44.6131 169.924 43.289 167.484 42.2772L165.952 45.9721C168.065 46.8482 170.038 47.9953 171.827 49.3707L174.265 46.199ZM159.916 40.2535C158.633 40.0862 157.326 40 156 40V44C157.153 44 158.287 44.0749 159.398 44.2199L159.916 40.2535ZM156 40C154.674 40 153.367 40.0862 152.084 40.2535L152.602 44.2199C153.713 44.0749 154.847 44 156 44V40ZM144.516 42.2772C142.076 43.289 139.799 44.6131 137.735 46.199L140.173 49.3707C141.962 47.9953 143.935 46.8482 146.048 45.9721L144.516 42.2772ZM132.199 51.7354C130.613 53.7991 129.289 56.0758 128.277 58.5158L131.972 60.048C132.848 57.9354 133.995 55.9624 135.371 54.1727L132.199 51.7354ZM126.253 66.0843C126.086 67.3667 126 68.6738 126 70H130C130 68.8473 130.075 67.713 130.22 66.6016L126.253 66.0843ZM126 70C126 71.3262 126.086 72.6333 126.253 73.9158L130.22 73.3984C130.075 72.287 130 71.1528 130 70H126ZM128.277 81.4842C129.289 83.9242 130.613 86.2009 132.199 88.2646L135.371 85.8273C133.995 84.0376 132.848 82.0646 131.972 79.952L128.277 81.4842ZM137.735 93.801C139.799 95.3869 142.076 96.711 144.516 97.7228L146.048 94.0279C143.935 93.1518 141.962 92.0047 140.173 90.6293L137.735 93.801ZM152.084 99.7465C153.367 99.9138 154.674 100 156 100V96C154.847 96 153.713 95.9251 152.602 95.7801L152.084 99.7465ZM156 100C157.326 100 158.633 99.9138 159.916 99.7465L159.398 95.7801C158.287 95.9251 157.153 96 156 96V100ZM167.484 97.7228C169.924 96.711 172.201 95.3869 174.265 93.801L171.827 90.6293C170.038 92.0047 168.065 93.1518 165.952 94.0279L167.484 97.7228ZM179.801 88.2646C181.387 86.2009 182.711 83.9242 183.723 81.4842L180.028 79.952C179.152 82.0646 178.005 84.0376 176.629 85.8273L179.801 88.2646ZM185.747 73.9157C185.914 72.6333 186 71.3262 186 70H182C182 71.1527 181.925 72.287 181.78 73.3984L185.747 73.9157Z" fill="#4A4A4A" mask="url(#path-1-inside-1_1004_1878)"/>
<path fill-rule="evenodd" clip-rule="evenodd" d="M214.6 101C214.6 101 209.57 96.8745 207.8 93.7143C206.031 90.5541 202.677 86.5282 203.267 84C203.857 81.4718 206.031 80.6751 207.8 82.5712C209.57 84.4673 210.762 88.5756 211.942 87.9436C213.122 87.3115 212.237 81.3071 211.057 77.8309C209.877 74.3547 208.647 67 211.057 67C213.467 67 213.467 69.4286 214.6 73.0714C215.734 76.7143 214.849 81.5714 215.734 81.5714C216.619 81.5714 216.956 80.723 216.956 79.1429C216.956 78.7134 217.035 78.3505 217.194 78.0497C217.622 77.2434 218.631 76.8828 220.267 76.8828C222.514 76.8828 221.4 81.5714 222.534 81.5714C223.667 81.5714 223.667 81.671 223.667 79.1429C223.667 76.6147 224.718 76.8828 226.985 76.8828C229.251 76.8828 228.154 81.5714 229.334 81.5714C230.513 81.5714 229.334 79.1429 230.467 79.1429C231.6 79.1429 232.734 79.5259 232.734 85.2143C232.734 90.9027 233.37 91.1861 231.6 93.7143C229.831 96.2424 228.2 98.5714 228.2 98.5714C228.2 98.5714 228.2 101 226.985 101C225.769 101 225.142 98.5714 223.667 98.5714C222.192 98.5714 221.4 101 221.4 101H214.6ZM221.402 93.7153C221.402 94.3732 221.928 96.1439 222.536 96.1439C223.161 96.1439 223.669 94.3842 223.669 93.7153V88.8582C223.669 88.2003 223.143 86.4296 222.536 86.4296C221.91 86.4296 221.402 88.1893 221.402 88.8582V93.7153ZM225.936 93.7153C225.936 94.3732 226.462 96.1439 227.069 96.1439C227.695 96.1439 228.203 94.3842 228.203 93.7153V88.8582C228.203 88.2003 227.677 86.4296 227.069 86.4296C226.443 86.4296 225.936 88.1893 225.936 88.8582V93.7153ZM216.867 93.7153C216.867 94.3732 217.393 96.1439 218.001 96.1439C218.626 96.1439 219.134 94.3842 219.134 93.7153V88.8582C219.134 88.2003 218.608 86.4296 218.001 86.4296C217.375 86.4296 216.867 88.1893 216.867 88.8582V93.7153Z" fill="white"/>
<path fill-rule="evenodd" clip-rule="evenodd" d="M213.332 102.546L214.6 101H221.4C221.4 101 222.192 98.5714 223.667 98.5714C224.44 98.5714 224.98 99.2386 225.494 99.8735C225.961 100.45 226.406 101 226.985 101C228.2 101 228.2 98.5714 228.2 98.5714L231.6 93.7143C232.925 91.8219 232.902 91.1872 232.806 88.6018C232.774 87.7333 232.734 86.6447 232.734 85.2143C232.734 79.7029 231.67 79.1718 230.573 79.1441C230.538 79.1432 230.502 79.1429 230.467 79.1429C230.119 79.1429 229.989 79.3722 229.942 79.69C229.913 79.884 229.915 80.111 229.918 80.3388C229.924 80.952 229.929 81.5714 229.334 81.5714C228.839 81.5714 228.745 80.7479 228.635 79.7911C228.634 79.7825 228.633 79.7738 228.632 79.7651C228.574 79.2616 228.511 78.7231 228.383 78.2495C228.174 77.4807 227.794 76.8828 226.985 76.8828C226.776 76.8828 226.578 76.8806 226.39 76.8784C224.776 76.8599 223.91 76.85 223.711 78.3572C223.682 78.5832 223.667 78.8434 223.667 79.1429C223.667 79.4818 223.667 79.7735 223.664 80.0246C223.654 80.9309 223.609 81.3073 223.399 81.463C223.234 81.586 222.967 81.5714 222.534 81.5714C222.117 81.5714 222.004 80.9373 221.916 80.1354C221.905 80.0318 221.894 79.9254 221.883 79.8172C221.86 79.5971 221.837 79.3694 221.807 79.1429C221.777 78.9078 221.74 78.674 221.692 78.4507C221.504 77.5876 221.138 76.8828 220.267 76.8828C218.692 76.8828 217.699 77.2168 217.245 77.9606C217.227 77.9896 217.21 78.0193 217.194 78.0497C217.035 78.3505 216.956 78.7134 216.956 79.1429C216.956 79.4655 216.942 79.7575 216.912 80.0182C216.795 81.034 216.438 81.5714 215.734 81.5714C215.386 81.5714 215.312 80.8236 215.281 79.6949C215.276 79.5196 215.272 79.3351 215.268 79.1429C215.267 79.0696 215.266 78.9952 215.264 78.9197C215.257 78.4917 215.248 78.0297 215.231 77.5475C215.179 76.1125 215.044 74.4988 214.6 73.0714C214.362 72.3054 214.174 71.5931 214.003 70.9458C213.36 68.5146 212.96 67 211.057 67C208.647 67 209.877 74.3547 211.057 77.8309C211.898 80.3072 212.588 84.0664 212.49 86.2527C212.49 86.2543 212.49 86.2559 212.489 86.2575C212.449 87.1377 212.281 87.7621 211.942 87.9436C211.45 88.207 210.956 87.6467 210.419 86.7663C210.419 86.7661 210.419 86.7664 210.419 86.7663C210.195 86.399 209.963 85.9756 209.721 85.5336C209.152 84.4933 208.524 83.347 207.8 82.5712C206.031 80.6751 203.857 81.4718 203.267 84C202.828 85.8802 204.571 88.5889 206.221 91.1537C206.789 92.0376 207.347 92.9044 207.8 93.7143C209.57 96.8745 214.6 101 214.6 101C213.332 102.546 213.332 102.547 213.332 102.546L213.331 102.546L213.313 102.53L213.265 102.491C213.224 102.457 213.165 102.408 213.091 102.345C212.942 102.22 212.73 102.039 212.471 101.812C211.954 101.36 211.244 100.723 210.475 99.9817C208.988 98.5472 207.096 96.5507 206.055 94.6915C205.648 93.9643 205.141 93.1725 204.58 92.3007L204.528 92.2188C203.995 91.391 203.42 90.4977 202.914 89.6158C202.394 88.7099 201.9 87.737 201.579 86.7688C201.264 85.8187 201.053 84.6857 201.319 83.5455C201.717 81.8397 202.761 80.2924 204.461 79.7283C206.238 79.1388 208.002 79.8556 209.262 81.2066C209.563 81.5289 209.85 81.9008 210.119 82.2915C209.873 80.9299 209.53 79.5543 209.163 78.4737C208.523 76.5883 207.882 73.7099 207.716 71.2468C207.634 70.0416 207.651 68.7441 207.947 67.6718C208.095 67.1319 208.357 66.4894 208.857 65.9557C209.411 65.3638 210.176 65 211.057 65C212.022 65 212.939 65.2537 213.716 65.8732C214.446 66.456 214.871 67.222 215.153 67.9001C215.434 68.5738 215.647 69.3446 215.84 70.0713C215.873 70.195 215.906 70.3191 215.939 70.4439C216.11 71.0907 216.286 71.7562 216.51 72.4773C216.816 73.4607 216.993 74.5015 217.097 75.4979C218.082 75.0043 219.244 74.8828 220.267 74.8828C220.918 74.8828 221.548 75.0601 222.095 75.4353C222.317 75.5882 222.507 75.7604 222.668 75.9403C222.941 75.6521 223.268 75.4175 223.646 75.245C224.294 74.9494 224.969 74.8979 225.441 74.8816C225.747 74.8711 226.129 74.8752 226.487 74.8791C226.662 74.881 226.832 74.8828 226.985 74.8828C227.635 74.8828 228.263 75.058 228.81 75.4285C229.337 75.7859 229.681 76.2516 229.907 76.6746C229.992 76.834 230.065 76.9984 230.13 77.1641C230.244 77.1495 230.357 77.1429 230.467 77.1429C230.837 77.1429 231.479 77.1663 232.15 77.4814C232.872 77.8206 233.415 78.3913 233.795 79.1133C234.469 80.394 234.734 82.3566 234.734 85.2143C234.734 86.5974 234.772 87.6508 234.804 88.5128L234.807 88.5982C234.837 89.3957 234.864 90.1216 234.827 90.7623C234.787 91.479 234.667 92.151 234.38 92.8651C234.107 93.5449 233.714 94.1821 233.239 94.8612L230.162 99.2573C230.134 99.5353 230.083 99.8942 229.989 100.271C229.884 100.687 229.689 101.286 229.287 101.821C228.842 102.413 228.073 103 226.985 103C225.967 103 225.238 102.481 224.822 102.107C224.467 101.786 224.145 101.387 223.939 101.132C223.914 101.101 223.892 101.073 223.87 101.047C223.801 100.961 223.741 100.889 223.689 100.827C223.683 100.835 223.678 100.843 223.673 100.851C223.555 101.039 223.456 101.242 223.386 101.406C223.352 101.486 223.328 101.549 223.313 101.589C223.306 101.608 223.301 101.622 223.299 101.627L223.299 101.63L222.852 103H213.885L213.332 102.546ZM221.525 94.501C221.515 94.4635 221.506 94.4264 221.498 94.3897C221.437 94.1243 221.402 93.8834 221.402 93.7153V88.8582C221.402 88.6897 221.434 88.4522 221.492 88.191C221.501 88.1525 221.51 88.1136 221.52 88.0742C221.705 87.3195 222.09 86.4296 222.536 86.4296C222.966 86.4296 223.356 87.3199 223.546 88.0724C223.556 88.1099 223.565 88.1471 223.573 88.1837C223.634 88.4491 223.669 88.69 223.669 88.8582V93.7153C223.669 93.8837 223.637 94.1213 223.579 94.3825C223.57 94.4209 223.561 94.4599 223.551 94.4992C223.366 95.2539 222.981 96.1439 222.536 96.1439C222.105 96.1439 221.715 95.2536 221.525 94.501ZM226.059 94.501C226.049 94.4635 226.04 94.4264 226.032 94.3897C225.97 94.1243 225.936 93.8834 225.936 93.7153V88.8582C225.936 88.6897 225.968 88.4522 226.026 88.191C226.035 88.1525 226.044 88.1136 226.054 88.0742C226.239 87.3195 226.624 86.4296 227.069 86.4296C227.5 86.4296 227.89 87.3199 228.08 88.0724C228.09 88.1099 228.099 88.1471 228.107 88.1837C228.168 88.4491 228.203 88.69 228.203 88.8582V93.7153C228.203 93.8837 228.17 94.1213 228.112 94.3825C228.104 94.4209 228.095 94.4599 228.085 94.4992C227.9 95.2539 227.514 96.1439 227.069 96.1439C226.638 96.1439 226.249 95.2536 226.059 94.501ZM216.99 94.501C216.98 94.4635 216.971 94.4264 216.963 94.3897C216.902 94.1243 216.867 93.8834 216.867 93.7153V88.8582C216.867 88.6897 216.899 88.4522 216.957 88.191C216.966 88.1525 216.975 88.1136 216.985 88.0742C217.17 87.3195 217.555 86.4296 218.001 86.4296C218.431 86.4296 218.821 87.3199 219.011 88.0724C219.021 88.1099 219.03 88.1471 219.038 88.1837C219.1 88.4491 219.134 88.69 219.134 88.8582V93.7153C219.134 93.8837 219.102 94.1213 219.044 94.3825C219.035 94.4209 219.026 94.4599 219.016 94.4992C218.831 95.2539 218.446 96.1439 218.001 96.1439C217.57 96.1439 217.18 95.2536 216.99 94.501Z" fill="#4A4A4A"/>
</svg>
