<svg width="240" height="136" viewBox="0 0 240 136" fill="none" xmlns="http://www.w3.org/2000/svg">
<path fill-rule="evenodd" clip-rule="evenodd" d="M98 65.5H90.5V72.1675L97.5 81.5C98.3275 82.605 98.105 84.1725 97 85C96.55 85.3375 96.0225 85.5 95.5025 85.5C94.7425 85.5 93.99 85.155 93.5 84.5L88 77.1675L82.5 84.5C81.6725 85.605 80.1075 85.83 79 85C77.895 84.1725 77.6725 82.605 78.5 81.5L85.5 72.1675V65.5H78C76.62 65.5 75.5 64.38 75.5 63C75.5 61.62 76.62 60.5 78 60.5H98C99.38 60.5 100.5 61.62 100.5 63C100.5 64.38 99.38 65.5 98 65.5ZM88 48C90.76 48 93 50.24 93 53C93 55.7625 90.76 58 88 58C85.24 58 83 55.7625 83 53C83 50.24 85.24 48 88 48ZM88 38C71.4325 38 58 51.4325 58 68C58 84.57 71.4325 98 88 98C104.567 98 118 84.57 118 68C118 51.4325 104.567 38 88 38Z" fill="#111111"/>
<path fill-rule="evenodd" clip-rule="evenodd" d="M160.916 90.545L162.25 87.494L163.584 90.545H160.916ZM163.028 85.013C162.892 84.701 162.587 84.5 162.25 84.5C161.913 84.5 161.608 84.701 161.471 85.013L158.073 92.786C157.883 93.222 158.077 93.732 158.507 93.925C158.936 94.119 159.44 93.922 159.63 93.486L160.161 92.272H164.339L164.87 93.486C165.011 93.808 165.322 94 165.649 94C165.764 93.999 165.881 93.976 165.993 93.925C166.423 93.732 166.617 93.222 166.427 92.786L163.028 85.013ZM172.474 88.181L174.75 83.043L177.026 88.181H172.474ZM181.875 91.955L176.078 78.865C175.845 78.339 175.324 78 174.75 78C174.175 78 173.655 78.339 173.422 78.865L167.625 91.955C167.3 92.69 167.631 93.549 168.364 93.874C169.097 94.2 169.956 93.869 170.281 93.134L171.186 91.09H178.314L179.219 93.134C179.459 93.677 179.991 94 180.548 94C180.745 93.999 180.945 93.959 181.136 93.874C181.869 93.549 182.2 92.69 181.875 91.955Z" fill="#111111"/>
<path fill-rule="evenodd" clip-rule="evenodd" d="M173.488 58.828C174.357 56.818 174.859 54.078 174.972 51.25H179.408C178.95 54.708 176.631 57.581 173.488 58.828ZM160.592 51.25H165.027C165.141 54.078 165.643 56.819 166.515 58.829C163.371 57.583 161.05 54.709 160.592 51.25ZM166.515 41.171C165.643 43.181 165.141 45.922 165.027 48.75H160.592C161.05 45.29 163.371 42.416 166.515 41.171ZM167.529 48.75C167.759 43.426 169.405 40.541 170.004 40.5H170.005C170.677 40.561 172.25 43.506 172.471 48.75H167.529ZM170.006 59.499L170.004 59.5C169.405 59.459 167.759 56.574 167.529 51.25H172.471C172.25 56.493 170.677 59.438 170.006 59.499ZM179.408 48.75H174.972C174.859 45.922 174.357 43.182 173.488 41.172C176.631 42.418 178.95 45.291 179.408 48.75ZM182 50C182 43.386 176.622 38.005 170.009 38H170C163.383 38 158 43.383 158 50C158 56.617 163.383 62 170 62H170.005L170.009 61.999C176.622 61.995 182 56.614 182 50Z" fill="#111111"/>
</svg>
