<svg width="72" height="64" viewBox="0 0 72 64" fill="none" xmlns="http://www.w3.org/2000/svg">
<path d="M28 24H4C1.79067 24 0 22.2093 0 20V4C0 1.79067 1.79067 0 4 0H28C30.2093 0 32 1.79067 32 4V20C32 22.2093 30.2093 24 28 24Z" fill="#016FD0"/>
<path fill-rule="evenodd" clip-rule="evenodd" d="M14.9296 11.2291H2.94824L2.63091 10.4571H1.78824L1.47224 11.2291H0.000244141V9.0598L1.19224 6.33313H3.25358L3.92958 7.8598V6.33313H6.49358L6.89624 7.43713L7.28691 6.33313H18.7922V6.8878C18.7922 6.8878 19.3962 6.33313 20.3896 6.33313L24.1229 6.34646L24.7882 7.85313V6.33313H26.9322L27.5216 7.19846V6.33313H29.6869V11.2291H27.5216L26.9576 10.3611V11.2291H23.8056L23.4882 10.4571H22.6416L22.3296 11.2291H20.1922C19.3376 11.2291 18.7922 10.6865 18.7922 10.6865V11.2291H15.5696L14.9296 10.4571V11.2291ZM9.22424 6.9358H7.74691L6.90424 9.30513L6.03758 6.94246L4.54958 6.9358V10.6025H5.48424V7.90113L6.47758 10.6025H7.29758L8.28958 7.90113V10.6025H9.22424V6.9358ZM9.86291 6.9358H12.9122V7.7558H10.8069V8.3838H12.8629V9.1558H10.8069V9.80646H12.9122V10.6025H9.86291V6.9358ZM14.7816 9.30113L15.9029 10.6038H17.0442L15.8149 9.25313C16.3202 9.21046 16.8402 8.78513 16.8402 8.12646C16.8402 7.35446 16.2229 6.93713 15.5336 6.93713H13.4536V10.6038H14.3882V9.30113H14.7816ZM32.0002 15.8785V12.7758H12.7389L12.1509 13.4998L11.5829 12.7758H6.29224V17.6665H11.5509L12.1269 16.9265L12.6922 17.6665H15.8682V16.5345H16.5829C17.2016 16.5345 17.4882 16.3505 17.4882 16.3505V17.6665H19.5856V16.8958L20.2269 17.6665H30.8616C31.4429 17.6611 32.0002 17.3291 32.0002 17.3291V15.8785ZM30.8256 14.8251C31.6442 14.8251 32.0002 15.2811 32.0002 15.8785C32.0002 16.5198 31.6042 17.0451 30.7816 17.0451H28.7896V16.2491H30.6589C30.9362 16.2491 31.0562 16.1025 31.0562 15.9411C31.0562 15.7865 30.9362 15.6318 30.6589 15.6318H29.8136C29.0789 15.6318 28.6709 15.1918 28.6709 14.5331C28.6709 13.9451 29.0456 13.3785 30.1362 13.3785H31.9576L31.5642 14.2025H29.9896C29.6882 14.2025 29.5962 14.3585 29.5962 14.5051C29.5962 14.6585 29.7096 14.8251 29.9402 14.8251H30.8256ZM9.98158 13.3785H6.93224V17.0451H9.98158V16.2491H7.87624V15.5971H9.93224V14.8251H7.87624V14.1985H9.98158V13.3785ZM14.1869 13.3785L12.6869 15.2118L14.1749 17.0451H12.9976L12.1189 15.9158L11.2602 17.0451H10.1002L11.5842 15.2345L10.0656 13.3785H11.2416L12.1469 14.5251L13.0562 13.3785H14.1869ZM17.6922 14.6118C17.6922 13.9145 17.1976 13.3785 16.3509 13.3785H14.2856V17.0451H15.2442V15.8878H16.2296C17.0616 15.8878 17.6922 15.4545 17.6922 14.6118ZM27.3962 14.8251C28.2149 14.8251 28.5709 15.2811 28.5709 15.8785C28.5709 16.5198 28.1736 17.0451 27.3509 17.0451H25.3589V16.2491H27.2296C27.5069 16.2491 27.6269 16.1025 27.6269 15.9411C27.6269 15.7865 27.5069 15.6318 27.2296 15.6318H26.3842C25.6496 15.6318 25.2402 15.1918 25.2402 14.5331C25.2402 13.9451 25.6149 13.3785 26.7069 13.3785H28.5256L28.1322 14.2025H26.5589C26.2576 14.2025 26.1656 14.3585 26.1656 14.5051C26.1656 14.6585 26.2802 14.8251 26.5109 14.8251H27.3962ZM20.1016 14.1985H19.0322V14.9705H20.1149C20.3016 14.9705 20.5442 14.8278 20.5442 14.5851C20.5442 14.3945 20.3562 14.1985 20.1016 14.1985ZM16.2816 14.2078H15.2442V15.0531H16.2789C16.5509 15.0531 16.7416 14.8745 16.7416 14.6305C16.7416 14.3691 16.5496 14.2078 16.2816 14.2078ZM24.9256 13.3785H21.8762V17.0451H24.9256V16.2491H22.8202V15.5971H24.8669V14.8251H22.8202V14.1985H24.9256V13.3785ZM20.4602 15.6945L21.6882 17.0451H20.5469L19.4256 15.7425H19.0322V17.0451H18.0976V13.3785H20.1789C20.8669 13.3785 21.4842 13.7958 21.4842 14.5678C21.4842 15.2265 20.9629 15.6518 20.4602 15.6945ZM2.83358 6.93713L4.44024 10.6038H3.36958L3.07358 9.86913H1.34958L1.05358 10.6038H0.00691081L1.61491 6.93713H2.83358ZM17.2216 10.6025H18.1762V6.9358H17.2216V10.6025ZM20.2336 10.6025C19.2362 10.6025 18.6309 9.83313 18.6309 8.7838C18.6309 7.71046 19.2296 6.9358 20.4882 6.9358H21.5202V7.80513H20.4509C19.9389 7.80513 19.5776 8.1958 19.5776 8.79313C19.5776 9.5038 19.9909 9.80246 20.5856 9.80246H20.8322L20.4389 10.6025H20.2336ZM22.4722 6.93713L20.8642 10.6038H21.9109L22.2082 9.86913H23.9336L24.2282 10.6038H25.2976L23.6909 6.93713H22.4722ZM26.3429 10.6025H25.4069V6.9358H26.5949L28.1136 9.2398V6.9358H29.0469V10.6025H27.8976L26.3429 8.23846V10.6025ZM2.73491 9.07313H1.68291L2.20824 7.79046L2.73491 9.07313ZM15.4576 7.75713H14.3882V8.52913H15.4696C15.6576 8.52913 15.9002 8.38646 15.9002 8.14246C15.9002 7.95313 15.7136 7.75713 15.4576 7.75713ZM22.5402 9.07313H23.5936L23.0682 7.79046L22.5402 9.07313Z" fill="white"/>
<path d="M72 53.3333C72 53.3333 63.0529 60.7012 46.6667 64H67C69.7614 64 72 61.7614 72 59V53.3333Z" fill="#F58220"/>
<path d="M42.658 48.5286H41.3333V53.1552H42.6509C43.3516 53.1552 43.8576 52.9907 44.3027 52.6207C44.8301 52.1845 45.1429 51.5248 45.1429 50.8437C45.1411 49.4797 44.1221 48.5286 42.658 48.5286ZM43.7128 52.0039C43.4285 52.2596 43.0602 52.3722 42.4774 52.3722H42.2343V49.3116H42.4774C43.0602 49.3116 43.4142 49.4153 43.7128 49.6853C44.0256 49.9624 44.2133 50.3932 44.2133 50.8366C44.2115 51.2817 44.0238 51.7268 43.7128 52.0039Z" fill="#0742A6"/>
<path d="M46.4606 48.5286H45.5578V53.1552H46.4606V48.5286Z" fill="#0742A6"/>
<path d="M48.6666 50.3039C48.125 50.1036 47.9659 49.9714 47.9659 49.7211C47.9659 49.4297 48.2483 49.208 48.638 49.208C48.908 49.208 49.1314 49.3188 49.3656 49.5834L49.8376 48.9649C49.4496 48.6252 48.9848 48.4518 48.4771 48.4518C47.6584 48.4518 47.0345 49.0203 47.0345 49.7783C47.0345 50.4165 47.3259 50.7419 48.1732 51.0476C48.5272 51.1727 48.706 51.2549 48.7971 51.3103C48.9777 51.4283 49.0671 51.5946 49.0671 51.7895C49.0671 52.1649 48.7685 52.442 48.3663 52.442C47.9355 52.442 47.5886 52.2274 47.3813 51.8252L46.7985 52.3865C47.215 52.9962 47.7138 53.2679 48.4003 53.2679C49.3388 53.2679 49.9967 52.644 49.9967 51.7483C49.9967 51.0118 49.6928 50.6793 48.6666 50.3039Z" fill="#0742A6"/>
<path d="M50.2827 50.8455C50.2827 52.2059 51.35 53.2607 52.7247 53.2607C53.1126 53.2607 53.4452 53.1838 53.8563 52.9908V51.9289C53.4952 52.29 53.1752 52.4348 52.7658 52.4348C51.8559 52.4348 51.2123 51.7751 51.2123 50.8383C51.2123 49.9499 51.8773 49.2491 52.7247 49.2491C53.1555 49.2491 53.4809 49.4028 53.8563 49.7693V48.7074C53.4595 48.5072 53.1341 48.4232 52.7462 48.4232C51.3786 48.4232 50.2827 49.4994 50.2827 50.8455Z" fill="#0742A6"/>
<path d="M61.0125 51.6357L59.7789 48.5286H58.7921L60.7568 53.2732H61.2413L63.2417 48.5286H62.2621L61.0125 51.6357Z" fill="#0742A6"/>
<path d="M63.6494 53.1552H66.2094V52.3722H64.5504V51.1226H66.1486V50.3396H64.5504V49.3116H66.2094V48.5286H63.6494V53.1552Z" fill="#0742A6"/>
<path d="M69.783 49.8944C69.783 49.0274 69.1859 48.5286 68.1455 48.5286H66.8065V53.1552H67.7075V51.296H67.8255L69.0751 53.1552H70.1852L68.7282 51.2066C69.4076 51.0672 69.783 50.6024 69.783 49.8944ZM67.972 50.6578H67.7093V49.2562H67.9863C68.5477 49.2562 68.8534 49.4922 68.8534 49.9427C68.8534 50.4075 68.5477 50.6578 67.972 50.6578Z" fill="#0742A6"/>
<path d="M59.0745 50.8582C59.0745 52.2187 57.9715 53.3199 56.6129 53.3199C55.2524 53.3199 54.1512 52.2169 54.1512 50.8582C54.1512 49.4996 55.2524 48.3965 56.6129 48.3965C57.9715 48.3965 59.0745 49.4978 59.0745 50.8582Z" fill="url(#paint0_linear_58_530)"/>
<path d="M70.3586 48.7019C70.3586 48.6215 70.3032 48.5768 70.2049 48.5768H70.0744V48.9826H70.1709V48.8253L70.2853 48.9826H70.4033L70.2693 48.8146C70.3265 48.8003 70.3586 48.7591 70.3586 48.7019ZM70.187 48.7573H70.1709V48.6519H70.1888C70.2371 48.6519 70.2621 48.6697 70.2621 48.7037C70.2621 48.7395 70.2371 48.7573 70.187 48.7573Z" fill="black"/>
<path d="M70.2246 48.4248C70.0279 48.4248 69.8706 48.5821 69.8706 48.7788C69.8706 48.9754 70.0297 49.1327 70.2246 49.1327C70.4176 49.1327 70.575 48.9736 70.575 48.7788C70.575 48.5857 70.4159 48.4248 70.2246 48.4248ZM70.2228 49.0702C70.0673 49.0702 69.9403 48.9415 69.9403 48.7788C69.9403 48.6161 70.0655 48.4874 70.2228 48.4874C70.3783 48.4874 70.5035 48.6197 70.5035 48.7788C70.5035 48.9397 70.3783 49.0702 70.2228 49.0702Z" fill="black"/>
<path fill-rule="evenodd" clip-rule="evenodd" d="M44 40H68C70.2093 40 72 41.7907 72 44V60C72 62.2093 70.2093 64 68 64H44C41.7907 64 40 62.2093 40 60V44C40 41.7907 41.7907 40 44 40ZM71.3333 44C71.3333 42.1627 69.8373 40.6667 68 40.6667H44C42.1627 40.6667 40.6667 42.1627 40.6667 44V60C40.6667 61.8373 42.1627 63.3333 44 63.3333H68C69.8373 63.3333 71.3333 61.8373 71.3333 60V44Z" fill="#767676"/>
<path fill-rule="evenodd" clip-rule="evenodd" d="M4 40H28C30.2093 40 32 41.7907 32 44V60C32 62.2093 30.2093 64 28 64H4C1.79067 64 0 62.2093 0 60V44C0 41.7907 1.79067 40 4 40ZM31.3333 44C31.3333 42.1627 29.8373 40.6667 28 40.6667H4C2.16267 40.6667 0.666667 42.1627 0.666667 44V60C0.666667 61.8373 2.16267 63.3333 4 63.3333H28C29.8373 63.3333 31.3333 61.8373 31.3333 60V44Z" fill="#767676"/>
<path d="M24.6667 52C24.6667 54.9454 22.2787 57.3334 19.3333 57.3334C16.388 57.3334 14 54.9454 14 52C14 49.0547 16.388 46.6667 19.3333 46.6667C22.2787 46.6667 24.6667 49.0547 24.6667 52Z" fill="#F79E1B"/>
<path d="M18 52C18 54.9454 15.612 57.3334 12.6666 57.3334C9.72131 57.3334 7.33331 54.9454 7.33331 52C7.33331 49.0547 9.72131 46.6667 12.6666 46.6667C15.612 46.6667 18 49.0547 18 52Z" fill="#EB001B"/>
<path d="M14 52C14 53.6774 14.7893 55.1546 16 56.1333C17.2107 55.1546 18 53.6774 18 52C18 50.3227 17.2107 48.8453 16 47.8666C14.7893 48.8453 14 50.3227 14 52Z" fill="#FF5F00"/>
<path fill-rule="evenodd" clip-rule="evenodd" d="M44 0H68C70.2093 0 72 1.79067 72 4V20C72 22.2093 70.2093 24 68 24H44C41.7907 24 40 22.2093 40 20V4C40 1.79067 41.7907 0 44 0ZM71.3333 4C71.3333 2.16267 69.8373 0.666667 68 0.666667H44C42.1627 0.666667 40.6667 2.16267 40.6667 4V20C40.6667 21.8373 42.1627 23.3333 44 23.3333H68C69.8373 23.3333 71.3333 21.8373 71.3333 20V4Z" fill="#111111"/>
<path fill-rule="evenodd" clip-rule="evenodd" d="M58.1536 10.5725C58.1536 10.8752 58.5203 11.0752 59.1216 11.3712C60.1096 11.8312 60.5696 12.3952 60.5616 13.1312C60.5483 14.4725 59.3763 15.3392 57.5749 15.3392C56.8043 15.3325 56.0629 15.1739 55.6603 14.9952L55.9016 13.5432L56.1269 13.6472C56.6843 13.8885 57.0523 13.9912 57.7376 13.9912C58.2309 13.9912 58.7616 13.7912 58.7669 13.3579C58.7669 13.0765 58.5429 12.8699 57.8776 12.5539C57.2283 12.2445 56.3603 11.7285 56.3736 10.7992C56.3816 9.54186 57.5749 8.66187 59.2696 8.66187C59.9336 8.66187 60.4709 8.80587 60.8096 8.93653L60.5749 10.3325L60.4203 10.2632C60.1096 10.1325 59.7003 10.0032 59.1416 10.0165C58.4643 10.0165 58.1603 10.2979 58.1536 10.5725ZM66.5936 15.2419H65.0043C65.0043 15.2419 64.8483 14.4992 64.7989 14.2725H62.5963C62.5323 14.4445 62.2363 15.2419 62.2363 15.2419H60.4349L62.9843 9.31387C63.1603 8.8952 63.4709 8.7792 63.8803 8.7792H65.2083L66.5936 15.2419ZM64.5163 12.9525C64.4456 12.6299 64.1216 11.0819 64.1216 11.0819L64.0016 10.5245C63.9497 10.6712 63.8747 10.8736 63.8253 11.0067C63.7936 11.0924 63.7723 11.1498 63.7749 11.1445C63.7749 11.1445 63.2309 12.5819 63.0896 12.9525H64.5163ZM51.4376 8.7792L49.7576 13.1859L49.5736 12.2925L48.9736 9.32187C48.8749 8.90853 48.5709 8.79253 48.1963 8.7792H45.4349L45.4069 8.90853C46.0856 9.07787 46.6829 9.32987 47.2136 9.63387L48.7403 15.2352H50.5549L53.2523 8.7792H51.4376ZM54.5869 15.2419L55.6603 8.7792H53.9443L52.8709 15.2419H54.5869Z" fill="#0742A6"/>
<defs>
<linearGradient id="paint0_linear_58_530" x1="54.4212" y1="57.6418" x2="33.4521" y2="20.7066" gradientUnits="userSpaceOnUse">
<stop stop-color="#F9A020"/>
<stop offset="0.2041" stop-color="#F99D20"/>
<stop offset="0.4348" stop-color="#F79320"/>
<stop offset="0.6196" stop-color="#F68820"/>
<stop offset="0.7969" stop-color="#F57E20"/>
<stop offset="1" stop-color="#F47521"/>
</linearGradient>
</defs>
</svg>
