<svg width="240" height="136" viewBox="0 0 240 136" fill="none" xmlns="http://www.w3.org/2000/svg">
<path d="M114.5 29V35C114.5 35.83 113.83 36.5 113 36.5C112.17 36.5 111.5 35.83 111.5 35V29C111.5 28.17 112.17 27.5 113 27.5C113.83 27.5 114.5 28.17 114.5 29ZM119 27.5C118.17 27.5 117.5 28.17 117.5 29V35C117.5 35.83 118.17 36.5 119 36.5C119.83 36.5 120.5 35.83 120.5 35V29C120.5 28.17 119.83 27.5 119 27.5ZM128 32C128 38.63 122.63 44 116 44C109.37 44 104 38.63 104 32C104 25.37 109.37 20 116 20C122.63 20 128 25.37 128 32ZM125 32C125 27.04 120.96 23 116 23C111.04 23 107 27.04 107 32C107 36.96 111.04 41 116 41C120.96 41 125 36.96 125 32Z" fill="#111111"/>
<path fill-rule="evenodd" clip-rule="evenodd" d="M116 56C109.37 56 104 61.37 104 68C104 74.63 109.37 80 116 80C122.63 80 128 74.63 128 68C128 61.37 122.63 56 116 56ZM121.56 66.06L115.56 72.06C115.27 72.35 114.88 72.5 114.5 72.5C114.12 72.5 113.73 72.35 113.44 72.06L110.44 69.06C109.85 68.47 109.85 67.52 110.44 66.94C111.03 66.35 111.98 66.35 112.56 66.94L114.5 68.88L119.44 63.94C120.03 63.35 120.98 63.35 121.56 63.94C122.15 64.52 122.15 65.48 121.56 66.06Z" fill="#111111"/>
<path d="M127.122 101.874L118.126 92.8781C116.956 91.7073 115.044 91.7073 113.874 92.8781L104.878 101.874C103.707 103.044 103.707 104.956 104.878 106.126L113.874 115.122C115.044 116.293 116.956 116.293 118.126 115.122L127.122 106.126C128.293 104.956 128.293 103.054 127.122 101.874ZM115.995 111.009C115.134 111.009 114.434 110.309 114.434 109.448C114.434 108.588 115.134 107.887 115.995 107.887C116.856 107.887 117.556 108.588 117.556 109.448C117.556 110.309 116.856 111.009 115.995 111.009ZM117.556 104.785C117.556 105.646 116.856 106.346 115.995 106.346C115.134 106.346 114.434 105.646 114.434 104.785V98.5516C114.434 97.6911 115.134 96.9906 115.995 96.9906C116.856 96.9906 117.556 97.6911 117.556 98.5516V104.785Z" fill="#111111"/>
</svg>
