<svg width="240" height="136" viewBox="0 0 240 136" fill="none" xmlns="http://www.w3.org/2000/svg">
<path fill-rule="evenodd" clip-rule="evenodd" d="M87.3333 75.3333C82.9227 75.3333 79.3333 71.744 79.3333 67.3333C79.3333 62.9227 82.9227 59.3333 87.3333 59.3333C91.744 59.3333 95.3333 62.9227 95.3333 67.3333C95.3333 71.744 91.744 75.3333 87.3333 75.3333ZM104.828 79.1707L99.1507 73.4947C100.115 71.6507 100.667 69.5573 100.667 67.3333C100.667 59.9693 94.6973 54 87.3333 54C79.9693 54 74 59.9693 74 67.3333C74 74.6973 79.9693 80.6667 87.3333 80.6667C89.5573 80.6667 91.6507 80.1147 93.4947 79.1507L99.1707 84.828C100.733 86.3907 103.265 86.3907 104.828 84.828C106.391 83.2667 106.391 80.7333 104.828 79.1707Z" fill="#111111"/>
<path d="M159.333 63.3336V71.5536C161.441 73.5869 162.897 76.2923 163.333 79.3336H136.667C137.103 76.2923 138.559 73.5869 140.667 71.5536V63.3336C140.667 58.1789 144.845 54.0003 150 54.0003C155.155 54.0003 159.333 58.1789 159.333 63.3336Z" fill="#111111"/>
<path d="M154 82C154 84.2093 152.209 86 150 86C147.791 86 146 84.2093 146 82H154Z" fill="#111111"/>
</svg>
