<svg  viewBox="0 0 300 300" fill="none" xmlns="http://www.w3.org/2000/svg">
<path d="M100.5 38C100.5 34.4101 103.41 31.5 107 31.5H196C199.59 31.5 202.5 34.4101 202.5 38V43C202.5 48.2467 198.247 52.5 193 52.5H110C104.753 52.5 100.5 48.2467 100.5 43V38Z" fill="#111111" stroke="#111111" stroke-width="3"/>
<path d="M153 52V82" stroke="#111111" stroke-width="3" stroke-linejoin="round"/>

<path fill-rule="evenodd" clip-rule="evenodd" d="M63.5 52C63.5 51.1716 62.8284 50.5 62 50.5C61.1716 50.5 60.5 51.1716 60.5 52V60.5H51C50.1716 60.5 49.5 61.1716 49.5 62C49.5 62.8284 50.1716 63.5 51 63.5H60.5V74C60.5 74.8284 61.1716 75.5 62 75.5C62.8284 75.5 63.5 74.8284 63.5 74V63.5H73C73.8284 63.5 74.5 62.8284 74.5 62C74.5 61.1716 73.8284 60.5 73 60.5H63.5V52Z" fill="#111111"/>
<path fill-rule="evenodd" clip-rule="evenodd" d="M266.334 140.687C266.716 139.951 266.428 139.048 265.691 138.668C264.955 138.289 264.049 138.578 263.667 139.313L259.469 147.405L250.132 142.596C249.396 142.217 248.49 142.506 248.108 143.241C247.727 143.977 248.014 144.88 248.751 145.259L258.088 150.068L253.536 158.842C253.155 159.577 253.442 160.481 254.179 160.86C254.915 161.239 255.822 160.95 256.203 160.215L260.755 151.441L268.31 155.331C269.046 155.711 269.953 155.422 270.334 154.687C270.716 153.951 270.428 153.048 269.691 152.668L262.137 148.778L266.334 140.687Z" fill="#111111"/>
<path fill-rule="evenodd" clip-rule="evenodd" d="M47.8948 103.687C48.2763 102.951 47.9885 102.048 47.252 101.668C46.5154 101.289 45.6091 101.578 45.2276 102.313L40.8307 110.789L32.69 106.596C31.9535 106.217 31.0472 106.506 30.6657 107.241C30.2842 107.977 30.572 108.88 31.3085 109.259L39.4492 113.452L35.0966 121.842C34.7151 122.577 35.0029 123.481 35.7394 123.86C36.4759 124.239 37.3822 123.95 37.7637 123.215L42.1164 114.825L50.8675 119.331C51.604 119.711 52.5103 119.422 52.8918 118.687C53.2733 117.951 52.9855 117.048 52.249 116.668L43.4979 112.162L47.8948 103.687Z" fill="#111111"/>
<path fill-rule="evenodd" clip-rule="evenodd" d="M251.471 57.9261C251.429 57.0987 250.725 56.461 249.898 56.5019C249.07 56.5427 248.433 57.2465 248.474 58.0739L248.922 67.0926L238.925 67.5857C238.097 67.6266 237.46 68.3304 237.501 69.1578C237.542 69.9852 238.246 70.6229 239.074 70.582L249.071 70.0889L249.566 80.0468C249.607 80.8742 250.311 81.5119 251.139 81.471C251.966 81.4302 252.604 80.7264 252.562 79.899L252.068 69.9411L261.047 69.4982C261.874 69.4573 262.512 68.7535 262.471 67.9261C262.429 67.0987 261.725 66.461 260.898 66.5019L251.919 66.9448L251.471 57.9261Z" fill="#111111"/>
<circle cx="35.5" cy="166.5" r="3" fill="white" stroke="#111111" stroke-width="3"/>
<circle cx="206.5" cy="67.5" r="3" fill="white" stroke="#111111" stroke-width="3"/>
<circle cx="246.5" cy="110.5" r="3" fill="white" stroke="#111111" stroke-width="3"/>
<circle cx="91.5" cy="76.5" r="3" fill="white" stroke="#111111" stroke-width="3"/>
</svg>
