<svg xmlns="http://www.w3.org/2000/svg" fill="none" viewBox="0 0 300 300"><path fill="#111" stroke="#111" stroke-width="3" d="M107 31.5h89a6.5 6.5 0 0 1 6.5 6.5v5a9.5 9.5 0 0 1-9.5 9.5h-83a9.5 9.5 0 0 1-9.5-9.5v-5a6.5 6.5 0 0 1 6.5-6.5Z"/><path stroke="#111" stroke-linejoin="round" stroke-width="3" d="M153 52v30"/><path fill="#111" d="M243 174c0 52.467-42.533 95-95 95s-95-42.533-95-95 42.533-95 95-95 95 42.533 95 95Z"/><path fill="#fff" stroke="#111" stroke-width="3" d="M245.5 175c0 51.639-41.861 93.5-93.5 93.5S58.5 226.639 58.5 175s41.861-93.5 93.5-93.5 93.5 41.861 93.5 93.5Z"/><path fill="#111" fill-rule="evenodd" d="m153.241 245.495.259 24.521 3-.032-.259-24.49c7.453-.056 15.091-.513 22.797-1.472a233.54 233.54 0 0 1-6.261 21.489l2.835.978a237.019 237.019 0 0 0 6.612-22.892c9.294-1.323 18.667-3.393 27.917-6.385a137.194 137.194 0 0 1-6.433 14.088l2.654 1.399a140.726 140.726 0 0 0 7.462-16.73 146.403 146.403 0 0 0 15.836-6.622l-1.32-2.694a142.766 142.766 0 0 1-13.216 5.658c2.786-8.187 4.784-16.443 6.128-24.64a259.217 259.217 0 0 0 21.217-5.986l-.938-2.849a255.822 255.822 0 0 1-19.787 5.631c1.364-9.489 1.872-18.878 1.734-27.967H245v-3h-21.591a197.818 197.818 0 0 0-.72-11.82 207.772 207.772 0 0 0-2.16-16.439 256.172 256.172 0 0 1 21.002 5.923l.938-2.85a260.254 260.254 0 0 0-22.518-6.29c-1.713-9.117-3.907-17.503-6.271-24.861a143.118 143.118 0 0 1 14.66 6.184l1.32-2.694a146.914 146.914 0 0 0-17.176-7.087c-2.368-6.881-4.849-12.724-7.147-17.246l-2.674 1.36c1.993 3.922 4.138 8.891 6.227 14.709-9.063-2.847-18.234-4.819-27.327-6.079-2.005-8.778-4.155-16.171-6.149-21.81l-2.828 1c1.879 5.315 3.9 12.222 5.805 20.398-8.002-.967-15.926-1.396-23.642-1.398l-.249-23.516-3 .032.249 23.504a217.57 217.57 0 0 0-12.412.53c-5.115.364-10.094.896-14.892 1.559 1.952-8.487 4.036-15.64 5.969-21.11l-2.828-1c-2.051 5.802-4.268 13.46-6.322 22.573-10.148 1.55-19.421 3.671-27.397 5.997 2.165-6.111 4.4-11.315 6.47-15.39l-2.674-1.359c-2.362 4.648-4.917 10.691-7.344 17.823-6.368 2.001-11.773 4.108-15.963 6.101l1.288 2.709c3.607-1.716 8.17-3.529 13.515-5.286-2.298 7.224-4.429 15.419-6.1 24.309-9.477 2.203-16.893 4.577-21.657 6.648l1.196 2.751c4.373-1.901 11.17-4.101 19.88-6.18a208.148 208.148 0 0 0-2.167 16.485c-.35 3.865-.597 7.811-.72 11.82H58v3h21.522c-.138 9.102.371 18.506 1.74 28.011-8.129-1.992-14.496-4.075-18.664-5.887l-1.196 2.751c4.543 1.976 11.5 4.226 20.354 6.341 1.318 8.03 3.264 16.115 5.965 24.136-4.729-1.606-8.798-3.246-12.077-4.806l-1.288 2.709c3.893 1.852 8.834 3.802 14.621 5.674a140.896 140.896 0 0 0 7.66 17.27l2.655-1.399a137.499 137.499 0 0 1-6.687-14.742c8.082 2.419 17.566 4.642 27.99 6.266a237.474 237.474 0 0 0 6.793 23.665l2.835-.978a233.901 233.901 0 0 1-6.434-22.213c5 .707 10.199 1.271 15.548 1.652 4.533.322 9.178.512 13.904.545Zm2.968-3.001c7.707-.057 15.603-.55 23.559-1.59 2.057-9.056 3.58-18.106 4.651-27.047a315.665 315.665 0 0 1-28.496 1.619l.286 27.018Zm26.734-2.033c9.528-1.42 19.119-3.643 28.551-6.86 3.001-8.353 5.149-16.799 6.593-25.199-10.324 2.319-20.573 3.989-30.608 5.125-1.044 8.899-2.529 17.91-4.536 26.934Zm-29.734 2.034a214.209 214.209 0 0 1-13.66-.538 222.3 222.3 0 0 1-16.484-1.794c-1.977-8.827-3.448-17.646-4.491-26.36a330.38 330.38 0 0 0 34.349 1.695l.286 26.997Zm-33.325-2.821a268.055 268.055 0 0 1-4.369-26.198c-11.535-1.288-21.875-3.077-30.594-5.028 1.41 8.19 3.49 16.424 6.377 24.571 8.094 2.539 17.803 4.916 28.586 6.655Zm62.375-130.236c9.291 1.348 18.647 3.455 27.862 6.499 2.478 7.399 4.812 15.97 6.638 25.366-10.093-2.215-20.109-3.813-29.917-4.902-1.25-9.863-2.846-18.935-4.583-26.963Zm-27.478-1.938c7.941.004 16.094.465 24.314 1.509 1.768 8.015 3.401 17.128 4.681 27.068a316.451 316.451 0 0 0-28.71-1.563l-.285-27.014Zm-15.232.542c4-.284 8.084-.464 12.232-.522l.285 26.98a330.425 330.425 0 0 0-32.85 1.632c1.243-9.66 2.82-18.542 4.529-26.394a222.824 222.824 0 0 1 15.804-1.696Zm-46.875 8.513c7.985-2.432 17.448-4.688 27.9-6.34-1.675 7.849-3.212 16.672-4.422 26.238-11.209 1.229-21.305 2.933-29.902 4.805 1.773-9.118 4.026-17.459 6.424-24.703Zm63.217 95.921a312.64 312.64 0 0 0 28.877-1.671c1.275-11.724 1.787-23.238 1.727-34.305h-30.984l.38 35.976Zm31.931-2.008c10.097-1.166 20.406-2.88 30.781-5.26 1.471-9.73 2.019-19.372 1.875-28.708h-30.983c.059 10.962-.438 22.36-1.673 33.968Zm-34.931 2.031a327.924 327.924 0 0 1-34.665-1.748c-1.271-11.706-1.781-23.201-1.721-34.251h36.005l.381 35.999Zm-37.718-2.081c-1.232-11.591-1.727-22.971-1.668-33.918H82.522c-.144 9.351.406 19.01 1.882 28.755 8.663 1.986 19.07 3.832 30.769 5.163Zm72.042-70.956c9.887 1.121 19.979 2.767 30.141 5.047a205.397 205.397 0 0 1 2.345 17.442c.343 3.78.585 7.635.707 11.549h-30.943c-.175-12-1.007-23.446-2.25-34.038Zm-32.117-1.947c9.367.089 19.1.59 29.058 1.616a332.122 332.122 0 0 1 2.309 34.369h-30.986l-.381-35.985Zm-24.048.657a327.146 327.146 0 0 1 21.048-.672l.381 36h-35.944a332.011 332.011 0 0 1 2.303-34.314c3.941-.403 8.017-.745 12.212-1.014Zm-45.397 6.29c8.559-1.912 18.739-3.675 30.126-4.949a334.716 334.716 0 0 0-2.244 33.987H82.592c.123-3.914.364-7.769.707-11.549a205.475 205.475 0 0 1 2.354-17.489ZM63.5 52a1.5 1.5 0 0 0-3 0v8.5H51a1.5 1.5 0 0 0 0 3h9.5V74a1.5 1.5 0 0 0 3 0V63.5H73a1.5 1.5 0 0 0 0-3h-9.5V52ZM266.334 140.687a1.495 1.495 0 0 0-.643-2.019 1.506 1.506 0 0 0-2.024.645l-4.198 8.092-9.337-4.809a1.506 1.506 0 0 0-2.024.645 1.494 1.494 0 0 0 .643 2.018l9.337 4.809-4.552 8.774a1.494 1.494 0 0 0 .643 2.018c.736.379 1.643.09 2.024-.645l4.552-8.774 7.555 3.89c.736.38 1.643.091 2.024-.644a1.495 1.495 0 0 0-.643-2.019l-7.554-3.89 4.197-8.091ZM47.895 103.687a1.495 1.495 0 0 0-.643-2.019 1.506 1.506 0 0 0-2.024.645l-4.397 8.476-8.141-4.193a1.506 1.506 0 0 0-2.024.645 1.494 1.494 0 0 0 .642 2.018l8.141 4.193-4.352 8.39a1.494 1.494 0 0 0 .642 2.018c.737.379 1.643.09 2.025-.645l4.352-8.39 8.752 4.506c.736.38 1.642.091 2.024-.644a1.495 1.495 0 0 0-.643-2.019l-8.751-4.506 4.397-8.475ZM251.471 57.926a1.5 1.5 0 1 0-2.997.148l.448 9.019-9.997.493a1.5 1.5 0 1 0 .149 2.996l9.997-.493.495 9.958a1.5 1.5 0 0 0 2.996-.148l-.494-9.958 8.979-.443a1.5 1.5 0 1 0-.149-2.996l-8.979.443-.448-9.019Z" clip-rule="evenodd"/><circle cx="35.5" cy="166.5" r="3" fill="#fff" stroke="#111" stroke-width="3"/><circle cx="206.5" cy="67.5" r="3" fill="#fff" stroke="#111" stroke-width="3"/><circle cx="246.5" cy="110.5" r="3" fill="#fff" stroke="#111" stroke-width="3"/><circle cx="91.5" cy="76.5" r="3" fill="#fff" stroke="#111" stroke-width="3"/></svg>