<svg  viewBox="0 0 175 176" fill="none" xmlns="http://www.w3.org/2000/svg">
<mask id="path-1-inside-1_201_6064" fill="white">
<path fill-rule="evenodd" clip-rule="evenodd" d="M87.5 176C39.172 176 0 136.604 0 88C0 39.3958 39.172 0 87.5 0C135.828 0 175 39.3958 175 88C175 136.604 135.828 176 87.5 176ZM122.287 82.3146C121.112 64.0226 105.984 49.5475 87.5 49.5475C68.3656 49.5475 52.8276 65.0587 52.6417 84.2583C52.3909 103.404 67.4617 119.265 86.5365 119.797C105.784 120.334 121.819 105.061 122.352 85.6831C122.383 84.5484 122.361 83.4247 122.287 82.3146Z"/>
</mask>
<path fill-rule="evenodd" clip-rule="evenodd" d="M87.5 176C39.172 176 0 136.604 0 88C0 39.3958 39.172 0 87.5 0C135.828 0 175 39.3958 175 88C175 136.604 135.828 176 87.5 176ZM122.287 82.3146C121.112 64.0226 105.984 49.5475 87.5 49.5475C68.3656 49.5475 52.8276 65.0587 52.6417 84.2583C52.3909 103.404 67.4617 119.265 86.5365 119.797C105.784 120.334 121.819 105.061 122.352 85.6831C122.383 84.5484 122.361 83.4247 122.287 82.3146Z" fill="white"/>
<path d="M122.287 82.3146L118.295 82.5708L118.296 82.5811L122.287 82.3146ZM52.6417 84.2583L56.6414 84.3107L56.6415 84.2971L52.6417 84.2583ZM86.5365 119.797L86.4249 123.796L86.5365 119.797ZM122.352 85.6831L118.354 85.5731L118.354 85.5731L122.352 85.6831ZM-4 88C-4 138.792 36.9414 180 87.5 180V172C41.4026 172 4 134.417 4 88H-4ZM87.5 -4C36.9414 -4 -4 37.2082 -4 88H4C4 41.5835 41.4026 4 87.5 4V-4ZM179 88C179 37.2082 138.059 -4 87.5 -4V4C133.597 4 171 41.5835 171 88H179ZM87.5 180C138.059 180 179 138.792 179 88H171C171 134.417 133.597 172 87.5 172V180ZM87.5 53.5475C103.841 53.5475 117.254 66.3509 118.295 82.5708L126.278 82.0583C124.971 61.6943 108.127 45.5475 87.5 45.5475V53.5475ZM56.6415 84.2971C56.8064 67.268 70.5829 53.5475 87.5 53.5475V45.5475C66.1483 45.5475 48.8488 62.8495 48.6419 84.2196L56.6415 84.2971ZM48.642 84.206C48.363 105.51 65.1369 123.202 86.4249 123.796L86.648 115.799C69.7866 115.329 56.4188 101.299 56.6413 84.3107L48.642 84.206ZM86.4249 123.796C107.906 124.395 125.757 107.354 126.351 85.7932L118.354 85.5731C117.88 102.768 103.661 116.274 86.648 115.799L86.4249 123.796ZM126.351 85.7932C126.385 84.5327 126.36 83.2833 126.278 82.0481L118.296 82.5811C118.361 83.5661 118.381 84.5641 118.354 85.5731L126.351 85.7932Z" fill="#111111" mask="url(#path-1-inside-1_201_6064)"/>
</svg>
