<svg xmlns="http://www.w3.org/2000/svg" fill="none" viewBox="0 0 184 183"><mask id="a" fill="#fff"><path fill-rule="evenodd" d="M87.5 176C39.172 176 0 136.604 0 88S39.172 0 87.5 0 175 39.396 175 88s-39.172 88-87.5 88Zm34.787-93.685c-1.175-18.292-16.303-32.767-34.787-32.767-19.134 0-34.672 15.51-34.858 34.71-.251 19.146 14.82 35.007 33.895 35.539 19.247.537 35.282-14.736 35.815-34.114a35.898 35.898 0 0 0-.065-3.368Z" clip-rule="evenodd"/></mask><path fill="#111" fill-rule="evenodd" d="M87.5 176C39.172 176 0 136.604 0 88S39.172 0 87.5 0 175 39.396 175 88s-39.172 88-87.5 88Zm34.787-93.685c-1.175-18.292-16.303-32.767-34.787-32.767-19.134 0-34.672 15.51-34.858 34.71-.251 19.146 14.82 35.007 33.895 35.539 19.247.537 35.282-14.736 35.815-34.114a35.898 35.898 0 0 0-.065-3.368Z" clip-rule="evenodd"/><path fill="#111" d="m122.287 82.315-3.992.256.001.01 3.991-.266Zm-69.645 1.943 4 .053v-.014l-4-.039Zm33.895 35.539-.112 3.999.112-3.999Zm35.815-34.114-3.998-.11 3.998.11ZM-4 88c0 50.792 40.941 92 91.5 92v-8C41.403 172 4 134.417 4 88h-8ZM87.5-4C36.941-4-4 37.208-4 88h8C4 41.584 41.403 4 87.5 4v-8ZM179 88c0-50.792-40.941-92-91.5-92v8C133.597 4 171 41.584 171 88h8Zm-91.5 92c50.559 0 91.5-41.208 91.5-92h-8c0 46.417-37.403 84-83.5 84v8Zm0-126.453c16.341 0 29.754 12.804 30.795 29.024l7.983-.513c-1.307-20.364-18.151-36.51-38.778-36.51v8Zm-30.858 30.75c.164-17.029 13.94-30.75 30.858-30.75v-8c-21.352 0-38.651 17.303-38.858 38.673l8 .077Zm-8-.091c-.279 21.304 16.495 38.996 37.783 39.59l.223-7.997c-16.861-.47-30.23-14.5-30.007-31.488l-7.999-.105Zm37.783 39.59c21.481.599 39.332-16.442 39.926-38.003l-7.997-.22c-.474 17.195-14.693 30.701-31.706 30.226l-.223 7.997Zm39.926-38.003c.034-1.26.009-2.51-.073-3.745l-7.982.533c.065.985.085 1.983.058 2.992l7.997.22Z" mask="url(#a)"/><mask id="b" fill="#fff"><path fill-rule="evenodd" d="M96.5 183C48.172 183 9 143.604 9 95S48.172 7 96.5 7 184 46.396 184 95s-39.172 88-87.5 88Zm34.787-93.685c-1.175-18.292-16.303-32.767-34.787-32.767-19.134 0-34.672 15.51-34.858 34.71-.251 19.146 14.82 35.007 33.895 35.539 19.247.537 35.282-14.736 35.815-34.114a35.898 35.898 0 0 0-.065-3.368Z" clip-rule="evenodd"/></mask><path fill="#fff" fill-rule="evenodd" d="M96.5 183C48.172 183 9 143.604 9 95S48.172 7 96.5 7 184 46.396 184 95s-39.172 88-87.5 88Zm34.787-93.685c-1.175-18.292-16.303-32.767-34.787-32.767-19.134 0-34.672 15.51-34.858 34.71-.251 19.146 14.82 35.007 33.895 35.539 19.247.537 35.282-14.736 35.815-34.114a35.898 35.898 0 0 0-.065-3.368Z" clip-rule="evenodd"/><path fill="#111" d="m131.287 89.315-3.992.256.001.01 3.991-.266Zm-69.645 1.943 4 .053v-.014l-4-.039Zm33.895 35.539-.112 3.999.112-3.999Zm35.815-34.114-3.998-.11 3.998.11ZM5 95c0 50.792 40.941 92 91.5 92v-8C50.403 179 13 141.417 13 95H5ZM96.5 3C45.941 3 5 44.208 5 95h8c0-46.416 37.403-84 83.5-84V3ZM188 95c0-50.792-40.941-92-91.5-92v8c46.097 0 83.5 37.584 83.5 84h8Zm-91.5 92c50.559 0 91.5-41.208 91.5-92h-8c0 46.417-37.403 84-83.5 84v8Zm0-126.453c16.341 0 29.754 12.804 30.795 29.024l7.983-.513c-1.307-20.364-18.151-36.51-38.778-36.51v8Zm-30.859 30.75c.165-17.029 13.942-30.75 30.859-30.75v-8c-21.352 0-38.651 17.303-38.858 38.673l8 .077Zm-7.999-.091c-.279 21.304 16.495 38.996 37.783 39.59l.223-7.997c-16.861-.47-30.23-14.5-30.007-31.488l-7.999-.105Zm37.783 39.59c21.481.599 39.332-16.442 39.926-38.003l-7.997-.22c-.474 17.195-14.693 30.701-31.706 30.226l-.223 7.997Zm39.926-38.003c.034-1.26.009-2.51-.073-3.745l-7.982.533c.065.985.085 1.983.058 2.992l7.997.22Z" mask="url(#b)"/></svg>
