<svg  viewBox="0 0 1512 421" fill="none" xmlns="http://www.w3.org/2000/svg">
<path d="M2.30488 2.48481H1509.7V418.515H511.553C511.639 416.989 511.683 415.452 511.683 413.906C511.683 369.352 475.565 333.235 431.012 333.235C386.459 333.235 350.341 369.352 350.341 413.906C350.341 415.452 350.385 416.989 350.471 418.515H2.30488V2.48481Z" fill="#007CFF" stroke="#111111" stroke-width="4.60976"/>
<rect x="833.213" y="2.48505" width="216.659" height="210.896" fill="#007CFF" stroke="#111111" stroke-width="4.60976"/>
<rect x="833.213" y="213.381" width="216.659" height="205.134" fill="#007CFF" stroke="#111111" stroke-width="4.60976"/>
<rect x="1049.87" y="2.48505" width="220.116" height="210.896" fill="#007CFF" stroke="#111111" stroke-width="4.60976"/>
<rect x="1049.87" y="213.381" width="220.116" height="205.134" fill="#007CFF" stroke="#111111" stroke-width="4.60976"/>
<path className="logo1" d="M1178.94 329.861L1062.93 213.9H1178.94V329.861Z" fill="white" stroke="#111111" stroke-width="4.60976"/>
<path className="logo2" d="M936.954 213.9H1056.21V333.097C990.892 331.883 938.169 279.185 936.954 213.9Z" fill="#111111" stroke="#111111" stroke-width="4.60976"/>
<path className="logo3" d="M936.966 213.899C938.181 148.614 990.904 95.9153 1056.22 94.7015V213.899H936.966Z" fill="white" stroke="#111111" stroke-width="4.60976"/>
</svg>
