<svg xmlns="http://www.w3.org/2000/svg" fill="none" viewBox="0 0 1275 430"><path fill="#fff" stroke="#111" stroke-width="3.636" d="M203.139 190.495H15.451v80.892H203.14c22.338 0 40.447-18.109 40.447-40.446 0-22.338-18.109-40.446-40.447-40.446ZM203.139 291.382H15.451v80.892H203.14c22.338 0 40.447-18.108 40.447-40.446 0-22.337-18.109-40.446-40.447-40.446Z"/><path fill="#111" stroke="#111" stroke-width="3.636" d="M726.667 287.747c-21.836 0-39.538-17.702-39.538-39.538 0-21.835 17.702-39.537 39.538-39.537 21.835 0 39.537 17.702 39.537 39.537 0 21.836-17.702 39.538-39.537 39.538ZM644.866 125.962h38.628v79.075h-38.628c-21.836 0-39.537-17.702-39.537-39.537 0-21.836 17.701-39.538 39.537-39.538Z"/><path fill="#fff" stroke="#111" stroke-width="3.636" d="M725.758 125.962h-42.264v79.075h42.264c21.836 0 39.537-17.702 39.537-39.537 0-21.836-17.701-39.538-39.537-39.538ZM645.32 207.764h38.174v79.983H645.32c-22.087 0-39.991-17.905-39.991-39.992 0-22.087 17.904-39.991 39.991-39.991Z"/><path fill="#111" stroke="#111" stroke-width="3.636" d="M645.32 291.382h38.174v40.901c0 21.585-17.498 39.083-39.083 39.083-21.585 0-39.082-17.498-39.082-39.083v-.909c0-22.087 17.904-39.992 39.991-39.992Z"/><path fill="#111" d="M302.978 412.266H0V166.863l302.978 245.403ZM785.888 95.868a62.47 62.47 0 0 1-3.816-1.098c1.297.347 2.568.713 3.816 1.098 28.122 7.157 83.175 1.732 106.043-72.667-6.659 31.364-6.784 97.118 57.395 116.337 1.064.272 2.086.563 3.064.868a110.554 110.554 0 0 1-3.064-.868c-27.794-7.121-83.741-1.874-107.971 72.418 7.917-30.99 7.54-96.672-55.467-116.088Z"/><path stroke="#111" stroke-width="3.636" d="M782.072 94.77c26.639 8.614 85.906 6.361 109.859-71.57-6.763 31.857-6.786 99.188 60.459 117.206-26.529-8.29-85.877-5.586-111.035 71.55 8.074-31.604 7.521-99.286-59.283-117.186Z"/><path fill="#111" d="M347.506 323.994c-.884.249-1.742.461-2.569.638a73.422 73.422 0 0 1 2.569-.638c18.619-5.241 48.592-26.721 36.997-77.291 6.609 20.326 28.452 58.325 71.905 48.029.705-.197 1.392-.37 2.059-.52-.692.186-1.378.359-2.059.52-18.417 5.153-48.965 26.828-38.192 77.79-5.758-20.528-27.867-58.318-70.71-48.528Z"/><path stroke="#111" stroke-width="3.636" d="M344.937 324.632c18.249-3.905 51.711-24.959 39.566-77.929 6.713 20.644 29.14 59.52 73.964 47.509-18.078 4.057-51.436 25.398-40.251 78.31-5.872-20.935-28.749-59.821-73.279-47.89Z"/><path stroke="#E9E4FF" stroke-width="3.636" d="M876.251 83.926c1.605 10.375 7.988 33.348 20.675 42.237"/><path stroke="#F8F7FF" stroke-width="3.636" d="M401.014 285.753c5.028 4.868 17.665 14.506 27.984 14.124"/><path fill="#111" stroke="#111" stroke-width="3.636" d="M1155.48 347.274h37.72v-77.256h-37.72c-21.33 0-38.63 17.294-38.63 38.628s17.3 38.628 38.63 38.628ZM1107.31 26.433h-37.72v77.256h37.72c21.33 0 38.63-17.294 38.63-38.628s-17.3-38.629-38.63-38.629ZM1234.55 26.433h-37.72v77.256h37.72c21.34 0 38.63-17.294 38.63-38.628s-17.29-38.629-38.63-38.629ZM1028.23 184.581h37.72v-77.256h-37.72c-21.33 0-38.625 17.294-38.625 38.628s17.295 38.628 38.625 38.628ZM1155.48 184.581h37.72v-77.256h-37.72c-21.33 0-38.63 17.294-38.63 38.628s17.3 38.628 38.63 38.628ZM1107.31 188.217h-37.72v77.256h37.72c21.33 0 38.63-17.294 38.63-38.628s-17.3-38.628-38.63-38.628ZM1234.55 188.217h-37.72v77.256h37.72c21.34 0 38.63-17.294 38.63-38.628s-17.29-38.628-38.63-38.628ZM1028.23 347.274h37.72v-77.256h-37.72c-21.33 0-38.625 17.294-38.625 38.628s17.295 38.628 38.625 38.628ZM1107.31 350.001h-37.72v77.257h37.72c21.33 0 38.63-17.294 38.63-38.628s-17.3-38.629-38.63-38.629ZM1234.55 350.001h-37.72v77.257h37.72c21.34 0 38.63-17.294 38.63-38.628s-17.29-38.629-38.63-38.629Z"/></svg>