<svg  viewBox="0 0 765 457" fill="none" xmlns="http://www.w3.org/2000/svg">
<mask id="path-1-inside-1_201_6146" fill="white">
<path fill-rule="evenodd" clip-rule="evenodd" d="M158.954 77H118.047V168.458L54.6387 105.05L25.7129 133.976L87.9518 196.215L0 196.215V237.122H89.5098L25.7129 300.919L54.6387 329.845L118.047 266.437V354H158.954V267.217L221.582 329.845L250.507 300.919L186.71 237.122H277V196.215L188.268 196.215L250.507 133.976L221.581 105.05L158.954 167.678V77Z"/>
</mask>
<path d="M118.047 77V73H114.047V77H118.047ZM158.954 77H162.954V73H158.954V77ZM118.047 168.458L115.218 171.287L122.047 178.115V168.458H118.047ZM54.6387 105.05L57.4671 102.222L54.6387 99.3935L51.8102 102.222L54.6387 105.05ZM25.7129 133.976L22.8845 131.148L20.0561 133.976L22.8845 136.805L25.7129 133.976ZM87.9518 196.215V200.215H97.6086L90.7802 193.387L87.9518 196.215ZM0 196.215L3.46981e-07 192.215H-4V196.215H0ZM0 237.122H-4V241.122H0V237.122ZM89.5098 237.122L92.3382 239.951L99.1666 233.122H89.5098V237.122ZM25.7129 300.919L22.8845 298.091L20.0561 300.919L22.8845 303.747L25.7129 300.919ZM54.6387 329.845L51.8102 332.673L54.6387 335.502L57.4671 332.673L54.6387 329.845ZM118.047 266.437H122.047V256.78L115.218 263.608L118.047 266.437ZM118.047 354H114.047V358H118.047V354ZM158.954 354V358H162.954V354H158.954ZM158.954 267.217L161.782 264.388L154.954 257.56V267.217H158.954ZM221.582 329.845L218.753 332.673L221.582 335.502L224.41 332.673L221.582 329.845ZM250.507 300.919L253.336 303.747L256.164 300.919L253.336 298.091L250.507 300.919ZM186.71 237.122V233.122H177.054L183.882 239.951L186.71 237.122ZM277 237.122V241.122H281V237.122H277ZM277 196.215H281V192.215H277V196.215ZM188.268 196.215L185.44 193.387L178.612 200.215H188.268V196.215ZM250.507 133.976L253.336 136.805L256.164 133.976L253.336 131.148L250.507 133.976ZM221.581 105.05L224.41 102.222L221.581 99.3936L218.753 102.222L221.581 105.05ZM158.954 167.678H154.954V177.335L161.782 170.507L158.954 167.678ZM118.047 81H158.954V73H118.047V81ZM122.047 168.458V77H114.047V168.458H122.047ZM51.8102 107.879L115.218 171.287L120.875 165.63L57.4671 102.222L51.8102 107.879ZM28.5414 136.805L57.4671 107.879L51.8102 102.222L22.8845 131.148L28.5414 136.805ZM90.7802 193.387L28.5414 131.148L22.8845 136.805L85.1234 199.043L90.7802 193.387ZM-3.46981e-07 200.215L87.9518 200.215V192.215L3.46981e-07 192.215L-3.46981e-07 200.215ZM4 237.122V196.215H-4V237.122H4ZM89.5098 233.122H0V241.122H89.5098V233.122ZM28.5413 303.747L92.3382 239.951L86.6813 234.294L22.8845 298.091L28.5413 303.747ZM57.4671 327.016L28.5413 298.091L22.8845 303.747L51.8102 332.673L57.4671 327.016ZM115.218 263.608L51.8102 327.016L57.4671 332.673L120.875 269.265L115.218 263.608ZM122.047 354V266.437H114.047V354H122.047ZM158.954 350H118.047V358H158.954V350ZM154.954 267.217V354H162.954V267.217H154.954ZM224.41 327.016L161.782 264.388L156.125 270.045L218.753 332.673L224.41 327.016ZM247.679 298.091L218.753 327.016L224.41 332.673L253.336 303.747L247.679 298.091ZM183.882 239.951L247.679 303.747L253.336 298.091L189.539 234.294L183.882 239.951ZM277 233.122H186.71V241.122H277V233.122ZM273 196.215V237.122H281V196.215H273ZM188.268 200.215L277 200.215V192.215L188.268 192.215V200.215ZM247.679 131.148L185.44 193.387L191.097 199.043L253.336 136.805L247.679 131.148ZM218.753 107.879L247.679 136.805L253.336 131.148L224.41 102.222L218.753 107.879ZM161.782 170.507L224.41 107.879L218.753 102.222L156.125 164.85L161.782 170.507ZM154.954 77V167.678H162.954V77H154.954Z" fill="#111111" mask="url(#path-1-inside-1_201_6146)"/>
<path d="M660.333 283.196V348.092C603.652 347.014 558 300.201 558 242.556C558 184.91 603.652 138.097 660.333 137.019V193.586C636.744 194.644 617.97 214.322 617.97 238.391C617.97 262.46 636.744 282.138 660.333 283.196Z" stroke="#111111" stroke-width="4"/>
<path d="M702.294 238.391C702.294 214.295 683.284 194.631 659.444 193.601V137.019C716.822 138.085 763 184.923 763 242.556C763 300.188 716.822 347.027 659.444 348.093V283.197C683.283 282.151 702.294 262.488 702.294 238.391Z" fill="#111111" stroke="#111111" stroke-width="4"/>
<path d="M396.375 276.194L543.854 357.89L611.777 120.297L593.014 74.5776L465.049 3L396.375 276.194Z" fill="white" stroke="#111111" stroke-width="3"/>
<path d="M593.765 74.9521L577.253 112.802L611.402 120.672" stroke="#111111" stroke-width="3"/>
<path d="M475.556 31.481L559.615 76.8259" stroke="#111111" stroke-width="3"/>
<path d="M472.179 43.4731L556.238 88.8181" stroke="#111111" stroke-width="3"/>
<path d="M468.426 57.7139L552.485 103.059" stroke="#111111" stroke-width="3"/>
<path d="M448.161 124.419L575.751 192.999" stroke="#111111" stroke-width="3"/>
<path d="M426.396 197.122L553.987 265.701" stroke="#111111" stroke-width="3"/>
<path d="M442.157 141.658L569.747 210.238" stroke="#111111" stroke-width="3"/>
<path d="M420.392 214.36L547.982 282.939" stroke="#111111" stroke-width="3"/>
<path d="M438.404 159.646L565.995 228.226" stroke="#111111" stroke-width="3"/>
<path d="M416.639 232.348L544.229 300.928" stroke="#111111" stroke-width="3"/>
<path d="M306.312 318.916L453.791 400.612L521.714 163.019L502.951 117.299L374.985 45.7217L306.312 318.916Z" fill="white" stroke="#111111" stroke-width="3"/>
<path d="M503.701 117.674L487.189 155.524L521.339 163.394" stroke="#111111" stroke-width="3"/>
<path d="M372.358 117.674L499.949 186.253" stroke="#111111" stroke-width="3"/>
<path d="M350.593 190.376L478.183 258.956" stroke="#111111" stroke-width="3"/>
<path d="M328.076 260.08L455.666 328.659" stroke="#111111" stroke-width="3"/>
<path d="M366.354 134.913L493.944 203.492" stroke="#111111" stroke-width="3"/>
<path d="M344.588 207.614L472.178 276.194" stroke="#111111" stroke-width="3"/>
<path d="M322.072 277.318L449.663 345.898" stroke="#111111" stroke-width="3"/>
<path d="M362.602 152.901L490.192 221.48" stroke="#111111" stroke-width="3"/>
<path d="M340.836 225.603L468.426 294.182" stroke="#111111" stroke-width="3"/>
<path d="M318.319 295.307L445.91 363.886" stroke="#111111" stroke-width="3"/>
<path d="M220 372.131L367.479 453.826L416.639 301.677L397.876 255.957L269.91 184.38L220 372.131Z" fill="white" stroke="#111111" stroke-width="3"/>
<path d="M398.626 255.583L382.114 293.433L416.263 301.303" stroke="#111111" stroke-width="3"/>
<path d="M277.416 219.606L361.475 264.951" stroke="#111111" stroke-width="3"/>
<path d="M270.285 233.847L354.345 279.192" stroke="#111111" stroke-width="3"/>
<path d="M258.277 283.314L385.868 351.894" stroke="#111111" stroke-width="3"/>
<path d="M244.768 329.784L372.358 398.363" stroke="#111111" stroke-width="3"/>
<path d="M252.273 300.553L379.864 369.132" stroke="#111111" stroke-width="3"/>
<path d="M238.764 347.022L366.354 415.602" stroke="#111111" stroke-width="3"/>
<path d="M331.335 118.626L157.828 77.0231C137.508 97.6985 141.157 120.422 145.521 129.199L318.404 170.384L366.791 154.045L331.335 118.626Z" fill="#111111" stroke="#111111" stroke-width="0.75"/>
<path d="M190.384 88.4173L178.838 86.1083C167.672 108.215 167.579 124.561 168.928 129.97L180.059 132.902C176.739 116.259 185.559 96.311 190.384 88.4173Z" fill="white"/>
<path d="M318.313 149.587L199.624 122.54L199.305 133.146L311.857 159.246C307.615 154.247 314.393 150.724 318.313 149.587Z" fill="white"/>
<path d="M351.15 142.238L332.747 123.175C319.263 124.98 325.806 132.659 330.763 136.273C327.989 135.471 321.879 135.383 319.628 141.452C317.377 147.52 323.679 151.823 327.112 153.215C313.545 153.523 318.125 161.032 322.111 164.748L348.437 155.751C346.941 152.587 349.623 145.424 351.15 142.238Z" fill="white"/>
</svg>
