<svg xmlns="http://www.w3.org/2000/svg" fill="none" viewBox="0 0 184 183"><path fill="#111" fill-rule="evenodd" d="M109.848 9H84.152v57.45l-39.83-39.83-18.17 18.17 39.096 39.096H10v25.696h56.226l-40.074 40.075 18.17 18.17 39.83-39.83V183h25.696v-54.514l39.34 39.341 18.17-18.17-40.074-40.075H184V83.886h-55.738l39.096-39.096-18.17-18.17-39.34 39.34V9Z" clip-rule="evenodd"/><mask id="a" fill="#fff"><path fill-rule="evenodd" d="M99.848 0H74.152v57.45l-39.83-39.83-18.17 18.17 39.096 39.096H0v25.696h56.226l-40.074 40.075 18.17 18.17 39.83-39.83V174h25.696v-54.514l39.34 39.341 18.17-18.17-40.074-40.075H174V74.886h-55.738l39.096-39.096-18.17-18.17-39.34 39.34V0Z" clip-rule="evenodd"/></mask><path fill="#fff" fill-rule="evenodd" d="M99.848 0H74.152v57.45l-39.83-39.83-18.17 18.17 39.096 39.096H0v25.696h56.226l-40.074 40.075 18.17 18.17 39.83-39.83V174h25.696v-54.514l39.34 39.341 18.17-18.17-40.074-40.075H174V74.886h-55.738l39.096-39.096-18.17-18.17-39.34 39.34V0Z" clip-rule="evenodd"/><path fill="#111" d="M74.152 0v-4h-4v4h4Zm25.696 0h4v-4h-4v4ZM74.152 57.45l-2.829 2.829 6.829 6.828V57.45h-4Zm-39.83-39.83 2.828-2.828-2.828-2.829-2.829 2.829 2.829 2.828Zm-18.17 18.17-2.829-2.828-2.828 2.828 2.828 2.829 2.829-2.829Zm39.096 39.096v4h9.657l-6.829-6.828-2.828 2.828ZM0 74.886v-4h-4v4h4Zm0 25.696h-4v4h4v-4Zm56.226 0 2.829 2.829 6.828-6.829h-9.657v4Zm-40.074 40.075-2.829-2.829-2.828 2.829 2.828 2.828 2.829-2.828Zm18.17 18.17-2.829 2.828 2.829 2.829 2.828-2.829-2.828-2.828Zm39.83-39.83h4v-9.657l-6.829 6.828 2.829 2.829Zm0 55.003h-4v4h4v-4Zm25.696 0v4h4v-4h-4Zm0-54.514 2.829-2.828-6.829-6.828v9.656h4Zm39.34 39.341-2.828 2.828 2.828 2.829 2.829-2.829-2.829-2.828Zm18.17-18.17 2.829 2.828 2.828-2.828-2.828-2.829-2.829 2.829Zm-40.074-40.075v-4h-9.657l6.828 6.829 2.829-2.829Zm56.716 0v4h4v-4h-4Zm0-25.696h4v-4h-4v4Zm-55.738 0-2.828-2.828-6.828 6.828h9.656v-4Zm39.096-39.096 2.829 2.829 2.828-2.829-2.828-2.828-2.829 2.828Zm-18.17-18.17 2.829-2.828-2.829-2.829-2.828 2.829 2.828 2.828Zm-39.34 39.34h-4v9.657l6.829-6.828-2.829-2.829ZM74.152 4h25.696v-8H74.152v8Zm4 53.45V0h-8v57.45h8ZM31.493 20.45l39.83 39.83 5.657-5.657-39.83-39.83-5.657 5.657ZM18.98 38.619l18.17-18.17-5.657-5.657-18.17 18.17 5.657 5.657Zm39.096 33.439L18.98 32.962l-5.657 5.657L52.42 77.715l5.657-5.657ZM0 78.886h55.248v-8H0v8Zm4 21.696V74.886h-8v25.696h8Zm52.226-4H0v8h56.226v-8ZM18.98 143.485l40.075-40.074-5.657-5.657-40.075 40.074 5.657 5.657Zm18.17 12.513-18.17-18.17-5.657 5.657 18.17 18.17 5.657-5.657Zm34.173-39.83-39.83 39.83 5.657 5.657 39.83-39.83-5.657-5.657ZM78.152 174v-55.003h-8V174h8Zm21.696-4H74.152v8h25.696v-8Zm-4-50.514V174h8v-54.514h-8Zm46.169 36.512-39.34-39.34-5.657 5.657 39.34 39.34 5.657-5.657Zm12.513-18.17-18.17 18.17 5.657 5.657 18.17-18.17-5.657-5.657Zm-40.075-34.417 40.075 40.074 5.657-5.657-40.075-40.074-5.657 5.657ZM174 96.582h-56.716v8H174v-8Zm-4-21.696v25.696h8V74.886h-8Zm-51.738 4H174v-8h-55.738v8Zm36.268-45.924-39.096 39.096 5.657 5.656 39.096-39.095-5.657-5.657Zm-18.17-12.513 18.17 18.17 5.657-5.657-18.17-18.17-5.657 5.657Zm-33.683 39.34 39.34-39.34-5.657-5.657-39.34 39.34 5.657 5.657ZM95.848 0v56.96h8V0h-8Z" mask="url(#a)"/></svg>