<svg viewBox="0 0 44 44" fill="none" xmlns="http://www.w3.org/2000/svg">
<path fill-rule="evenodd" clip-rule="evenodd" d="M26.0822 2.13696H19.9809V15.7778L10.5237 6.32059L6.20946 10.6349L15.4925 19.9179H2.37402L2.37402 26.0192H15.7249L6.20956 35.5345L10.5238 39.8488L19.9809 30.3918V43.4515H26.0822V30.5076L35.4233 39.8487L39.7375 35.5344L30.2223 26.0192H43.6886V19.9179H30.4548L39.7377 10.635L35.4234 6.32074L26.0822 15.6619V2.13696Z" fill="#111111"/>
<mask id="path-2-inside-1_201_5804" fill="white">
<path fill-rule="evenodd" clip-rule="evenodd" d="M23.7077 0H17.6064V13.641L8.14922 4.1838L3.83495 8.49808L13.1178 17.7809H-0.000488015L-0.000488281 23.8822H13.3504L3.83505 33.3976L8.14933 37.7119L17.6064 28.2548V41.3146H23.7077V28.3708L33.0488 37.7119L37.363 33.3976L27.8477 23.8822H41.3141V17.7809H28.0803L37.3631 8.49805L33.0489 4.18377L23.7077 13.5249V0Z"/>
</mask>
<path fill-rule="evenodd" clip-rule="evenodd" d="M23.7077 0H17.6064V13.641L8.14922 4.1838L3.83495 8.49808L13.1178 17.7809H-0.000488015L-0.000488281 23.8822H13.3504L3.83505 33.3976L8.14933 37.7119L17.6064 28.2548V41.3146H23.7077V28.3708L33.0488 37.7119L37.363 33.3976L27.8477 23.8822H41.3141V17.7809H28.0803L37.3631 8.49805L33.0489 4.18377L23.7077 13.5249V0Z" fill="white"/>
<path d="M17.6064 0V-0.94976H16.6566V0H17.6064ZM23.7077 0H24.6575V-0.94976H23.7077V0ZM17.6064 13.641L16.9348 14.3126L18.5562 15.9339V13.641H17.6064ZM8.14922 4.1838L8.82081 3.51222L8.14922 2.84064L7.47764 3.51222L8.14922 4.1838ZM3.83495 8.49808L3.16337 7.8265L2.49178 8.49808L3.16337 9.16966L3.83495 8.49808ZM13.1178 17.7809V18.7307H15.4107L13.7894 17.1094L13.1178 17.7809ZM-0.000488015 17.7809V16.8312H-0.950248L-0.950248 17.7809H-0.000488015ZM-0.000488281 23.8822H-0.950248L-0.950249 24.832H-0.000488281V23.8822ZM13.3504 23.8822L14.022 24.5538L15.6433 22.9325H13.3504V23.8822ZM3.83505 33.3976L3.16347 32.726L2.49189 33.3976L3.16347 34.0692L3.83505 33.3976ZM8.14933 37.7119L7.47775 38.3834L8.14933 39.055L8.82091 38.3834L8.14933 37.7119ZM17.6064 28.2548H18.5562V25.9619L16.9348 27.5832L17.6064 28.2548ZM17.6064 41.3146H16.6566V42.2643H17.6064V41.3146ZM23.7077 41.3146V42.2643H24.6575V41.3146H23.7077ZM23.7077 28.3708L24.3793 27.6993L22.758 26.0779V28.3708H23.7077ZM33.0488 37.7119L32.3772 38.3835L33.0488 39.0551L33.7203 38.3835L33.0488 37.7119ZM37.363 33.3976L38.0346 34.0692L38.7062 33.3976L38.0346 32.726L37.363 33.3976ZM27.8477 23.8822V22.9325H25.5547L27.1761 24.5538L27.8477 23.8822ZM41.3141 23.8822V24.832H42.2638V23.8822H41.3141ZM41.3141 17.7809H42.2638V16.8312H41.3141V17.7809ZM28.0803 17.7809L27.4087 17.1094L25.7873 18.7307H28.0803V17.7809ZM37.3631 8.49805L38.0347 9.16963L38.7063 8.49805L38.0347 7.82647L37.3631 8.49805ZM33.0489 4.18377L33.7204 3.51219L33.0489 2.84061L32.3773 3.51219L33.0489 4.18377ZM23.7077 13.5249H22.758V15.8178L24.3793 14.1965L23.7077 13.5249ZM17.6064 0.94976H23.7077V-0.94976H17.6064V0.94976ZM18.5562 13.641V0H16.6566V13.641H18.5562ZM7.47764 4.85539L16.9348 14.3126L18.278 12.9694L8.82081 3.51222L7.47764 4.85539ZM4.50653 9.16966L8.82081 4.85539L7.47764 3.51222L3.16337 7.8265L4.50653 9.16966ZM13.7894 17.1094L4.50653 7.8265L3.16337 9.16966L12.4462 18.4525L13.7894 17.1094ZM-0.000488015 18.7307H13.1178V16.8312H-0.000488015V18.7307ZM0.949272 23.8822L0.949272 17.7809H-0.950248L-0.950248 23.8822H0.949272ZM13.3504 22.9325H-0.000488281V24.832H13.3504V22.9325ZM4.50663 34.0692L14.022 24.5538L12.6788 23.2107L3.16347 32.726L4.50663 34.0692ZM8.82091 37.0403L4.50663 32.726L3.16347 34.0692L7.47775 38.3834L8.82091 37.0403ZM16.9348 27.5832L7.47775 37.0403L8.82091 38.3834L18.278 28.9264L16.9348 27.5832ZM18.5562 41.3146V28.2548H16.6566V41.3146H18.5562ZM23.7077 40.3648H17.6064V42.2643H23.7077V40.3648ZM22.758 28.3708V41.3146H24.6575V28.3708H22.758ZM33.7203 37.0403L24.3793 27.6993L23.0361 29.0424L32.3772 38.3835L33.7203 37.0403ZM36.6915 32.726L32.3772 37.0403L33.7203 38.3835L38.0346 34.0692L36.6915 32.726ZM27.1761 24.5538L36.6915 34.0692L38.0346 32.726L28.5192 23.2107L27.1761 24.5538ZM41.3141 22.9325H27.8477V24.832H41.3141V22.9325ZM40.3643 17.7809V23.8822H42.2638V17.7809H40.3643ZM28.0803 18.7307H41.3141V16.8312H28.0803V18.7307ZM36.6916 7.82647L27.4087 17.1094L28.7518 18.4525L38.0347 9.16963L36.6916 7.82647ZM32.3773 4.85536L36.6916 9.16963L38.0347 7.82647L33.7204 3.51219L32.3773 4.85536ZM24.3793 14.1965L33.7204 4.85535L32.3773 3.51219L23.0361 12.8533L24.3793 14.1965ZM22.758 0V13.5249H24.6575V0H22.758Z" fill="#111111" mask="url(#path-2-inside-1_201_5804)"/>
</svg>
