<svg xmlns="http://www.w3.org/2000/svg" fill="none" viewBox="0 0 301 320"><path fill="#fff" d="M39.618 189.095a84.853 84.853 0 0 1-5.245 1.302c1.765-.473 3.513-.907 5.245-1.302 38.02-10.703 99.222-54.566 75.543-157.836 13.497 41.507 58.1 119.106 146.831 98.083a82.484 82.484 0 0 1 4.203-1.061c-1.412.378-2.813.732-4.203 1.061-37.609 10.522-99.985 54.784-77.985 158.854-11.759-41.922-56.905-119.094-144.389-99.101Z"/><path stroke="#111" stroke-width="4" d="M34.373 190.397c37.264-7.974 105.591-50.967 80.788-159.138 13.708 42.158 59.505 121.547 151.034 97.022-36.914 8.283-105.03 51.862-82.188 159.915-11.991-42.752-58.706-122.163-149.634-97.799Z"/><path stroke="#111" stroke-width="4" d="M138.17 114.128c8.928 11.075 32.025 33.679 52.992 35.494"/></svg>