<svg  viewBox="0 0 301 320" fill="none" xmlns="http://www.w3.org/2000/svg">
<path d="M39.6181 189.095C37.8136 189.603 36.0612 190.036 34.3727 190.397C36.1378 189.924 37.8863 189.49 39.6181 189.095C77.6377 178.392 138.84 134.529 115.161 31.2594C128.658 72.7662 173.261 150.365 261.992 129.342C263.431 128.939 264.834 128.586 266.195 128.281C264.783 128.659 263.382 129.013 261.992 129.342C224.383 139.864 162.007 184.126 184.007 288.196C172.248 246.274 127.102 169.102 39.6181 189.095Z" fill="white"/>
<path d="M34.3727 190.397C71.6367 182.423 139.964 139.43 115.161 31.2594C128.869 73.4166 174.666 152.806 266.195 128.281C229.281 136.564 161.165 180.143 184.007 288.196C172.016 245.444 125.301 166.033 34.3727 190.397Z" stroke="#111111" stroke-width="4"/>
<path d="M138.17 114.128C147.098 125.203 170.195 147.807 191.162 149.622" stroke="#111111" stroke-width="4"/>
</svg>
