<svg  viewBox="0 0 184 183" fill="none" xmlns="http://www.w3.org/2000/svg">
<path fill-rule="evenodd" clip-rule="evenodd" d="M109.848 9H84.1519V66.4503L44.3218 26.6202L26.1519 44.7901L65.2478 83.8861H10V109.582H66.2263L26.1517 149.657L44.3217 167.827L84.1519 127.997V183H109.848V128.486L149.188 167.827L167.358 149.657L127.284 109.582H184V83.8861H128.262L167.358 44.7902L149.188 26.6202L109.848 65.9604V9Z" fill="#111111"/>
<mask id="path-2-inside-1_8_1218" fill="white">
<path fill-rule="evenodd" clip-rule="evenodd" d="M99.8481 0H74.1519V57.4503L34.3218 17.6202L16.1519 35.7901L55.2478 74.8861H0V100.582H56.2263L16.1517 140.657L34.3217 158.827L74.1519 118.997V174H99.8481V119.486L139.188 158.827L157.358 140.657L117.284 100.582H174V74.8861H118.262L157.358 35.7902L139.188 17.6202L99.8481 56.9604V0Z"/>
</mask>
<path fill-rule="evenodd" clip-rule="evenodd" d="M99.8481 0H74.1519V57.4503L34.3218 17.6202L16.1519 35.7901L55.2478 74.8861H0V100.582H56.2263L16.1517 140.657L34.3217 158.827L74.1519 118.997V174H99.8481V119.486L139.188 158.827L157.358 140.657L117.284 100.582H174V74.8861H118.262L157.358 35.7902L139.188 17.6202L99.8481 56.9604V0Z" fill="white"/>
<path d="M74.1519 0V-4H70.1519V0H74.1519ZM99.8481 0H103.848V-4H99.8481V0ZM74.1519 57.4503L71.3235 60.2787L78.1519 67.1071V57.4503H74.1519ZM34.3218 17.6202L37.1503 14.7918L34.3218 11.9633L31.4934 14.7918L34.3218 17.6202ZM16.1519 35.7901L13.3234 32.9617L10.495 35.7901L13.3234 38.6186L16.1519 35.7901ZM55.2478 74.8861V78.8861H64.9047L58.0762 72.0576L55.2478 74.8861ZM0 74.8861V70.8861H-4V74.8861H0ZM0 100.582H-4V104.582H0V100.582ZM56.2263 100.582L59.0547 103.411L65.8831 96.5823H56.2263V100.582ZM16.1517 140.657L13.3233 137.828L10.4949 140.657L13.3233 143.485L16.1517 140.657ZM34.3217 158.827L31.4933 161.655L34.3217 164.484L37.1501 161.655L34.3217 158.827ZM74.1519 118.997H78.1519V109.34L71.3235 116.168L74.1519 118.997ZM74.1519 174H70.1519V178H74.1519V174ZM99.8481 174V178H103.848V174H99.8481ZM99.8481 119.486L102.677 116.658L95.8481 109.83V119.486H99.8481ZM139.188 158.827L136.36 161.655L139.188 164.484L142.017 161.655L139.188 158.827ZM157.358 140.657L160.187 143.485L163.015 140.657L160.187 137.828L157.358 140.657ZM117.284 100.582V96.5823H107.627L114.455 103.411L117.284 100.582ZM174 100.582V104.582H178V100.582H174ZM174 74.8861H178V70.8861H174V74.8861ZM118.262 74.8861L115.434 72.0576L108.606 78.8861H118.262V74.8861ZM157.358 35.7902L160.187 38.6186L163.015 35.7902L160.187 32.9618L157.358 35.7902ZM139.188 17.6202L142.017 14.7918L139.188 11.9634L136.36 14.7918L139.188 17.6202ZM99.8481 56.9604H95.8481V66.6173L102.677 59.7889L99.8481 56.9604ZM74.1519 4H99.8481V-4H74.1519V4ZM78.1519 57.4503V0H70.1519V57.4503H78.1519ZM31.4934 20.4486L71.3235 60.2787L76.9803 54.6218L37.1503 14.7918L31.4934 20.4486ZM18.9803 38.6186L37.1503 20.4486L31.4934 14.7918L13.3234 32.9617L18.9803 38.6186ZM58.0762 72.0576L18.9803 32.9617L13.3234 38.6186L52.4194 77.7145L58.0762 72.0576ZM0 78.8861H55.2478V70.8861H0V78.8861ZM4 100.582V74.8861H-4V100.582H4ZM56.2263 96.5823H0V104.582H56.2263V96.5823ZM18.9802 143.485L59.0547 103.411L53.3979 97.7538L13.3233 137.828L18.9802 143.485ZM37.1501 155.998L18.9802 137.828L13.3233 143.485L31.4933 161.655L37.1501 155.998ZM71.3235 116.168L31.4933 155.998L37.1501 161.655L76.9803 121.825L71.3235 116.168ZM78.1519 174V118.997H70.1519V174H78.1519ZM99.8481 170H74.1519V178H99.8481V170ZM95.8481 119.486V174H103.848V119.486H95.8481ZM142.017 155.998L102.677 116.658L97.0197 122.315L136.36 161.655L142.017 155.998ZM154.53 137.828L136.36 155.998L142.017 161.655L160.187 143.485L154.53 137.828ZM114.455 103.411L154.53 143.485L160.187 137.828L120.112 97.7539L114.455 103.411ZM174 96.5823H117.284V104.582H174V96.5823ZM170 74.8861V100.582H178V74.8861H170ZM118.262 78.8861H174V70.8861H118.262V78.8861ZM154.53 32.9618L115.434 72.0576L121.091 77.7145L160.187 38.6186L154.53 32.9618ZM136.36 20.4486L154.53 38.6186L160.187 32.9618L142.017 14.7918L136.36 20.4486ZM102.677 59.7889L142.017 20.4486L136.36 14.7918L97.0197 54.132L102.677 59.7889ZM95.8481 0V56.9604H103.848V0H95.8481Z" fill="#111111" mask="url(#path-2-inside-1_8_1218)"/>
</svg>
