<svg viewBox="0 0 523 585" fill="none" xmlns="http://www.w3.org/2000/svg">
<path d="M346.231 178.676V239.337C293.276 238.258 250.638 194.412 250.638 140.418C250.638 86.4243 293.276 42.5782 346.231 41.4989V94.343C324.122 95.4007 306.553 113.901 306.553 136.51C306.553 159.118 324.122 177.618 346.231 178.676Z" stroke="#111111" stroke-width="4"/>
<path d="M386.138 136.51C386.138 113.859 368.22 95.3815 345.745 94.3563V41.4981C399.724 42.5585 443.133 86.445 443.133 140.418C443.133 194.391 399.724 238.277 345.745 239.338V178.678C368.219 177.638 386.138 159.161 386.138 136.51Z" fill="#111111" stroke="#111111" stroke-width="4"/>
<path d="M244.205 583L173.493 583C174.577 521.623 225.448 472.153 288.117 472.153C350.785 472.153 401.656 521.623 402.74 583L341.061 583C339.997 557.53 318.691 537.245 292.633 537.245C266.575 537.245 245.27 557.53 244.205 583Z" fill="#111111" stroke="#111111" stroke-width="4"/>
<path d="M255.869 583L185.157 583C186.241 521.623 237.112 472.153 299.781 472.153C362.449 472.153 413.32 521.623 414.404 583L352.725 583C351.661 557.53 330.355 537.245 304.297 537.245C278.239 537.245 256.934 557.53 255.869 583Z" fill="#009990" stroke="#111111" stroke-width="4"/>
<path d="M1 358.731L47.8467 333.773L186.729 414.469L140.711 442.339L1 358.731Z" fill="#111111" stroke="#111111" stroke-width="1.22483" stroke-linecap="round" stroke-linejoin="round"/>
<path d="M49.4512 280.527L96.3859 255.713L234.282 333.878L188.178 361.587L49.4512 280.527Z" fill="#111111" stroke="#111111" stroke-width="1.22483" stroke-linecap="round" stroke-linejoin="round"/>
<path d="M97.0049 199.089L144.167 174.064L282.733 252.892L236.406 280.836L97.0049 199.089Z" fill="#111111" stroke="#111111" stroke-width="1.22483" stroke-linecap="round" stroke-linejoin="round"/>
<path d="M140.97 494.379L280.939 413.255V253.919L235.387 280.128V333.379L188.178 360.836V413.255L140.97 440.296V494.379Z" fill="white" stroke="#111111" stroke-width="2.44966" stroke-linecap="round" stroke-linejoin="round"/>
<path d="M1.89746 359.793L139.175 439.923V493.482L1.89746 413.351V359.793Z" fill="white" stroke="#111111" stroke-width="2.44966" stroke-linecap="round" stroke-linejoin="round"/>
<path d="M48.5537 280.836L186.729 360.966V414.525L48.5537 334.394V280.836Z" fill="white" stroke="#111111" stroke-width="2.44966" stroke-linecap="round" stroke-linejoin="round"/>
<path d="M97.0049 200.084L236.077 280.215V333.773L97.0049 253.643V200.084Z" fill="white" stroke="#111111" stroke-width="2.44966" stroke-linecap="round" stroke-linejoin="round"/>
<path d="M428.929 326.257L440.582 309.403L446.469 313.473L434.893 330.216L432.833 333.194L436.396 332.545L456.595 328.86L457.88 335.901L437.301 339.655L433.738 340.305L436.717 342.364L453.909 354.251L449.839 360.138L432.984 348.485L430.005 346.425L430.655 349.988L434.253 369.71L427.212 370.994L423.579 351.081L422.929 347.519L420.87 350.497L409.06 367.578L403.173 363.508L415.06 346.315L417.119 343.337L413.557 343.987L393.169 347.706L391.885 340.665L411.893 337.015L415.455 336.365L412.477 334.305L395.733 322.729L399.804 316.842L416.885 328.652L419.863 330.711L419.213 327.149L415.407 306.284L422.448 304.999L426.219 325.673L426.869 329.236L428.929 326.257Z" fill="white" stroke="#111111" stroke-width="3"/>
<path d="M320.725 366.712C320.404 366.985 320.088 367.239 319.777 367.472C320.093 367.209 320.409 366.955 320.725 366.712C327.477 360.945 335.838 346.227 321.277 327.38C327.942 334.58 344.356 346.216 360.487 333.566C360.743 333.349 360.996 333.144 361.245 332.954C360.992 333.164 360.739 333.368 360.487 333.566C353.801 339.257 345.238 354.167 359.532 373.336C353.183 365.887 336.699 354.389 320.725 366.712Z" fill="#111111"/>
<path d="M319.777 367.472C326.632 362.333 336.529 347.121 321.277 327.38C328.046 334.693 344.872 346.582 361.245 332.954C354.49 338.122 344.691 353.434 359.532 373.336C353.057 365.74 336.042 353.933 319.777 367.472Z" stroke="#111111" stroke-width="4"/>
<path d="M333.688 342.017C336.564 343.447 343.433 345.907 347.894 344.304" stroke="#E9E4FF" stroke-width="2"/>
<path d="M359.05 298.803C363.746 297.698 372.199 291.877 368.916 277.419C368.872 277.241 368.831 277.066 368.793 276.896C368.835 277.071 368.876 277.246 368.916 277.419C370.392 283.448 374.82 293.567 382.463 294.222C382.847 294.255 382.923 294.634 382.576 294.801C378.636 296.698 374.275 302.005 375.568 313.967C375.575 314.025 375.581 314.083 375.587 314.141C375.581 314.083 375.575 314.025 375.568 313.967C374.874 307.92 370.65 296.687 359.05 298.803Z" fill="white"/>
<path d="M359.05 298.803C363.802 297.685 372.402 291.737 368.793 276.896C370.133 282.842 374.594 293.548 382.463 294.222C382.847 294.255 382.923 294.634 382.576 294.801C378.617 296.707 374.233 302.056 375.587 314.141C374.955 308.138 370.762 296.667 359.05 298.803Z" stroke="#111111" stroke-width="3" stroke-linejoin="round"/>
<path d="M352.684 390.76L350.733 400.572C350.649 400.995 350.178 401.213 349.801 401.004L342.45 396.93C341.896 396.622 341.282 397.227 341.581 397.786L346.263 406.541C346.446 406.882 346.283 407.307 345.918 407.438L333.039 412.095C332.406 412.324 332.516 413.25 333.185 413.325L345.731 414.723C346.178 414.773 346.434 415.258 346.222 415.655L340.182 426.97C339.844 427.604 340.651 428.224 341.177 427.735L349.5 419.987C349.868 419.644 350.469 419.844 350.559 420.338L352.874 433.025C352.996 433.692 353.938 433.731 354.114 433.075L357.045 422.138C357.17 421.67 357.752 421.508 358.1 421.845L366.168 429.63C366.637 430.083 367.403 429.621 367.22 428.995L363.793 417.243C363.711 416.964 363.83 416.665 364.081 416.517L374.226 410.547C374.771 410.226 374.564 409.393 373.933 409.364L363.024 408.858C362.609 408.839 362.324 408.433 362.446 408.035L366.082 396.236C366.278 395.599 365.487 395.128 365.02 395.604L358.479 402.282C358.141 402.626 357.559 402.485 357.417 402.025L353.915 390.696C353.72 390.066 352.812 390.113 352.684 390.76Z" fill="white" stroke="#111111" stroke-width="3"/>
<path fill-rule="evenodd" clip-rule="evenodd" d="M327.881 266.877C327.757 266.198 327.106 265.748 326.427 265.871C325.748 265.995 325.298 266.646 325.422 267.326L327.894 280.876L320.268 276.425C319.672 276.077 318.906 276.278 318.558 276.875C318.21 277.471 318.412 278.236 319.008 278.584L326.053 282.696L317.502 284.256C316.822 284.38 316.372 285.031 316.496 285.71C316.62 286.389 317.271 286.839 317.95 286.715L327.256 285.017L323.275 292.353C322.945 292.96 323.17 293.719 323.777 294.048C324.384 294.377 325.143 294.152 325.472 293.546L329.015 287.019L331.704 301.759C331.828 302.439 332.479 302.889 333.158 302.765C333.837 302.641 334.287 301.99 334.163 301.311L331.329 285.775L338.906 290.197C339.502 290.545 340.267 290.343 340.615 289.747C340.963 289.151 340.762 288.386 340.166 288.038L333.149 283.942L341.718 282.379C342.397 282.255 342.847 281.604 342.723 280.925C342.599 280.246 341.948 279.796 341.269 279.92L331.944 281.621L335.939 274.262C336.268 273.655 336.043 272.896 335.436 272.567C334.83 272.238 334.071 272.463 333.741 273.069L330.201 279.592L327.881 266.877Z" fill="#111111"/>
<path d="M465.514 556.337L385.736 383.768C386.348 378.468 389.434 380.101 390.901 381.58L478.36 548.879C475.969 557.117 468.8 557.283 465.514 556.337Z" fill="white" stroke="#111111" stroke-width="4"/>
<path d="M415.245 446.639L421.561 443.376" stroke="#111111" stroke-width="4"/>
<path d="M190.51 130.291L180.218 142.729" stroke="#111111" stroke-width="4"/>
<path d="M165.206 108.275L180.86 105.915" stroke="#111111" stroke-width="4"/>
<path d="M167.848 67.7453L184.646 74.392" stroke="#111111" stroke-width="4"/>
<path d="M192.293 40.1533L200.871 53.1623" stroke="#111111" stroke-width="4"/>
<path d="M230.322 47.4417L231.321 30.0005" stroke="#111111" stroke-width="4"/>
<path d="M260.772 55.4466L272.565 40.2207" stroke="#111111" stroke-width="4"/>
<path d="M284.292 105.266C289.777 105.963 300.924 107.621 301.633 108.679" stroke="#111111" stroke-width="4"/>
<path d="M272.713 128.999L284.15 141.15" stroke="#111111" stroke-width="4"/>
<path d="M225.205 188.464C219.996 186.251 220.499 182.536 222.267 180.776L255.071 177.034C258.344 179.56 255.883 182.833 254.142 184.939C247.182 193.359 231.717 191.23 225.205 188.464Z" fill="white" stroke="#111111" stroke-width="4"/>
<path d="M218.829 179.064C212.813 176.405 215.963 171.232 217.813 169.57L254.347 168.256C258.214 171.087 257.511 173.706 255.718 175.724C248.549 183.793 226.35 182.388 218.829 179.064Z" fill="white" stroke="#111111" stroke-width="4"/>
<path d="M218.598 169.338C212.347 166.575 214.63 162.427 216.553 160.699L221.114 156.371L252.524 157.453C256.842 157.265 261.907 162.504 256.929 165.854C247.595 172.135 226.411 172.79 218.598 169.338Z" fill="white" stroke="#111111" stroke-width="4"/>
<path d="M215.133 143.5L217.327 159.11C230.003 165.935 246.492 161.649 253.152 158.653C249.481 146.348 260.084 131.248 265.844 125.236C282.631 103.897 275.52 83.3613 269.3 72.4182C263.08 61.4751 229.041 43.1489 202.945 66.3111C176.849 89.4734 193.749 121.355 202.775 128.492C209.995 134.203 214.022 140.877 215.133 143.5Z" fill="white" stroke="#111111" stroke-width="4"/>
<path d="M227.37 160.92C226.56 152.605 225.204 135.203 226.263 132.114C227.587 128.252 233.277 127.503 234.766 127.542C236.256 127.581 240.992 128.606 241.793 131.325C242.434 133.5 244.092 151.37 244.656 161.078M229.395 127.7C228.033 118.072 224.437 98.1919 220.944 95.7014C216.578 92.5884 208.978 96.8839 211.804 101.455C214.63 106.026 229.79 107.326 235.048 101.77C240.305 96.2133 239.338 89.5929 232.477 89.7113C225.616 89.8297 228.989 104.607 238.51 105.159C248.031 105.71 260.164 99.8567 254.715 93.2968C250.132 87.7798 242.357 100.818 243.108 105.035C243.709 108.408 240.181 120.291 238.649 127.345" stroke="#111111" stroke-width="4"/>
</svg>
