<svg  viewBox="0 0 1512 365" fill="none" xmlns="http://www.w3.org/2000/svg">
<g clip-path="url(#clip0_201_6219)">
<rect x="1.99868" y="2.11928" width="1508" height="360.761" fill="#75BFFF" stroke="#111111" stroke-width="3.99736"/>
<mask id="path-2-inside-1_201_6219" fill="white">
<path fill-rule="evenodd" clip-rule="evenodd" d="M265.324 96.0575C217.028 96.0575 177.882 56.6877 177.882 8.11567C177.882 -40.4564 217.028 -79.8262 265.324 -79.8262C313.62 -79.8262 352.766 -40.4564 352.766 8.11567C352.766 56.6877 313.62 96.0575 265.324 96.0575ZM300.086 2.41171C298.902 -15.8576 283.789 -30.3114 265.324 -30.3114C246.198 -30.3114 230.668 -14.8037 230.489 4.38895C230.245 23.5166 245.303 39.3604 264.361 39.8922C283.596 40.4288 299.62 25.1654 300.153 5.80033C300.185 4.65871 300.162 3.52833 300.086 2.41171Z"/>
</mask>
<path fill-rule="evenodd" clip-rule="evenodd" d="M265.324 96.0575C217.028 96.0575 177.882 56.6877 177.882 8.11567C177.882 -40.4564 217.028 -79.8262 265.324 -79.8262C313.62 -79.8262 352.766 -40.4564 352.766 8.11567C352.766 56.6877 313.62 96.0575 265.324 96.0575ZM300.086 2.41171C298.902 -15.8576 283.789 -30.3114 265.324 -30.3114C246.198 -30.3114 230.668 -14.8037 230.489 4.38895C230.245 23.5166 245.303 39.3604 264.361 39.8922C283.596 40.4288 299.62 25.1654 300.153 5.80033C300.185 4.65871 300.162 3.52833 300.086 2.41171Z" fill="white"/>
<path d="M300.086 2.41171L296.097 2.6703L296.098 2.68058L300.086 2.41171ZM230.489 4.38895L234.486 4.43991L234.486 4.42627L230.489 4.38895ZM264.361 39.8922L264.25 43.888L264.25 43.888L264.361 39.8922ZM300.153 5.80033L296.157 5.69034L296.157 5.69035L300.153 5.80033ZM173.884 8.11567C173.884 58.8739 214.799 100.055 265.324 100.055V92.0602C219.257 92.0602 181.879 54.5015 181.879 8.11567H173.884ZM265.324 -83.8235C214.799 -83.8235 173.884 -42.6425 173.884 8.11567H181.879C181.879 -38.2702 219.257 -75.8288 265.324 -75.8288V-83.8235ZM356.764 8.11567C356.764 -42.6425 315.849 -83.8235 265.324 -83.8235V-75.8288C311.391 -75.8288 348.769 -38.2702 348.769 8.11567H356.764ZM265.324 100.055C315.849 100.055 356.764 58.8739 356.764 8.11567H348.769C348.769 54.5015 311.391 92.0602 265.324 92.0602V100.055ZM265.324 -26.314C281.648 -26.314 295.047 -13.5296 296.097 2.6703L304.075 2.15311C302.757 -18.1857 285.929 -34.3088 265.324 -34.3088V-26.314ZM234.486 4.42627C234.645 -12.5967 248.414 -26.314 265.324 -26.314V-34.3088C243.982 -34.3088 226.691 -17.0108 226.491 4.35163L234.486 4.42627ZM226.492 4.33798C226.22 25.6213 242.98 43.2945 264.25 43.888L264.473 35.8963C247.626 35.4263 234.269 21.4119 234.486 4.43991L226.492 4.33798ZM264.25 43.888C285.717 44.4869 303.556 27.4572 304.149 5.91031L296.157 5.69035C295.684 22.8735 281.474 36.3707 264.473 35.8963L264.25 43.888ZM304.149 5.91033C304.184 4.64222 304.158 3.3854 304.075 2.14283L296.098 2.68058C296.165 3.67126 296.185 4.67521 296.157 5.69034L304.149 5.91033Z" fill="#111111" mask="url(#path-2-inside-1_201_6219)"/>
<mask id="path-4-inside-2_201_6219" fill="white">
<path fill-rule="evenodd" clip-rule="evenodd" d="M1395.58 120.041C1347.28 120.041 1308.13 80.6716 1308.13 32.0996C1308.13 -16.4725 1347.28 -55.8423 1395.58 -55.8423C1443.87 -55.8423 1483.02 -16.4725 1483.02 32.0996C1483.02 80.6716 1443.87 120.041 1395.58 120.041ZM1430.34 26.4402C1429.18 8.14977 1414.06 -6.32751 1395.58 -6.32751C1376.46 -6.32751 1360.94 9.16447 1360.74 28.3437C1360.48 47.4844 1375.55 63.344 1394.61 63.876C1413.85 64.4126 1429.87 49.1492 1430.41 29.7842C1430.44 28.6578 1430.41 27.5423 1430.34 26.4402Z"/>
</mask>
<path fill-rule="evenodd" clip-rule="evenodd" d="M1395.58 120.041C1347.28 120.041 1308.13 80.6716 1308.13 32.0996C1308.13 -16.4725 1347.28 -55.8423 1395.58 -55.8423C1443.87 -55.8423 1483.02 -16.4725 1483.02 32.0996C1483.02 80.6716 1443.87 120.041 1395.58 120.041ZM1430.34 26.4402C1429.18 8.14977 1414.06 -6.32751 1395.58 -6.32751C1376.46 -6.32751 1360.94 9.16447 1360.74 28.3437C1360.48 47.4844 1375.55 63.344 1394.61 63.876C1413.85 64.4126 1429.87 49.1492 1430.41 29.7842C1430.44 28.6578 1430.41 27.5423 1430.34 26.4402Z" fill="white"/>
<path d="M1430.34 26.4402L1426.35 26.6938L1426.35 26.704L1430.34 26.4402ZM1360.74 28.3437L1364.74 28.3979L1364.74 28.3843L1360.74 28.3437ZM1394.61 63.876L1394.5 67.8718L1394.5 67.8718L1394.61 63.876ZM1430.41 29.7842L1426.41 29.6742L1426.41 29.6742L1430.41 29.7842ZM1304.14 32.0996C1304.14 82.8578 1345.05 124.039 1395.58 124.039V116.044C1349.51 116.044 1312.13 78.4854 1312.13 32.0996H1304.14ZM1395.58 -59.8396C1345.05 -59.8396 1304.14 -18.6587 1304.14 32.0996H1312.13C1312.13 -14.2863 1349.51 -51.8449 1395.58 -51.8449V-59.8396ZM1487.02 32.0996C1487.02 -18.6587 1446.1 -59.8396 1395.58 -59.8396V-51.8449C1441.64 -51.8449 1479.02 -14.2863 1479.02 32.0996H1487.02ZM1395.58 124.039C1446.1 124.039 1487.02 82.8578 1487.02 32.0996H1479.02C1479.02 78.4854 1441.64 116.044 1395.58 116.044V124.039ZM1395.58 -2.33016C1411.91 -2.33016 1425.32 10.4752 1426.35 26.6938L1434.33 26.1866C1433.04 5.82439 1416.2 -10.3249 1395.58 -10.3249V-2.33016ZM1364.74 28.3843C1364.91 11.3733 1378.68 -2.33016 1395.58 -2.33016V-10.3249C1374.25 -10.3249 1356.96 6.95562 1356.74 28.3031L1364.74 28.3843ZM1356.74 28.2895C1356.46 49.5873 1373.22 67.2781 1394.5 67.8718L1394.73 59.8802C1377.87 59.41 1364.51 45.3816 1364.74 28.3979L1356.74 28.2895ZM1394.5 67.8718C1415.97 68.4707 1433.81 51.4411 1434.4 29.8942L1426.41 29.6742C1425.94 46.8573 1411.73 60.3545 1394.73 59.8802L1394.5 67.8718ZM1434.4 29.8942C1434.44 28.6429 1434.41 27.4027 1434.33 26.1763L1426.35 26.704C1426.42 27.6819 1426.44 28.6726 1426.41 29.6742L1434.4 29.8942Z" fill="#111111" mask="url(#path-4-inside-2_201_6219)"/>
<mask id="path-6-inside-3_201_6219" fill="white">
<path fill-rule="evenodd" clip-rule="evenodd" d="M1190.71 414.847C1142.42 414.847 1103.27 375.477 1103.27 326.905C1103.27 278.333 1142.42 238.963 1190.71 238.963C1239.01 238.963 1278.15 278.333 1278.15 326.905C1278.15 375.477 1239.01 414.847 1190.71 414.847ZM1225.47 321.113C1224.24 302.885 1209.15 288.478 1190.71 288.478C1171.56 288.478 1156.01 304.027 1155.88 323.256C1155.67 342.349 1170.72 358.15 1189.75 358.681C1208.98 359.218 1225.01 343.955 1225.54 324.59C1225.57 323.418 1225.55 322.258 1225.47 321.113Z"/>
</mask>
<path fill-rule="evenodd" clip-rule="evenodd" d="M1190.71 414.847C1142.42 414.847 1103.27 375.477 1103.27 326.905C1103.27 278.333 1142.42 238.963 1190.71 238.963C1239.01 238.963 1278.15 278.333 1278.15 326.905C1278.15 375.477 1239.01 414.847 1190.71 414.847ZM1225.47 321.113C1224.24 302.885 1209.15 288.478 1190.71 288.478C1171.56 288.478 1156.01 304.027 1155.88 323.256C1155.67 342.349 1170.72 358.15 1189.75 358.681C1208.98 359.218 1225.01 343.955 1225.54 324.59C1225.57 323.418 1225.55 322.258 1225.47 321.113Z" fill="white"/>
<path d="M1225.47 321.113L1221.48 321.381L1221.48 321.392L1225.47 321.113ZM1155.88 323.256L1159.87 323.298L1159.87 323.284L1155.88 323.256ZM1189.75 358.681L1189.64 362.677L1189.64 362.677L1189.75 358.681ZM1225.54 324.59L1229.54 324.7L1229.54 324.7L1225.54 324.59ZM1099.27 326.905C1099.27 377.663 1140.19 418.844 1190.71 418.844V410.849C1144.65 410.849 1107.27 373.291 1107.27 326.905H1099.27ZM1190.71 234.966C1140.19 234.966 1099.27 276.147 1099.27 326.905H1107.27C1107.27 280.519 1144.65 242.96 1190.71 242.96V234.966ZM1282.15 326.905C1282.15 276.147 1241.24 234.966 1190.71 234.966V242.96C1236.78 242.96 1274.16 280.519 1274.16 326.905H1282.15ZM1190.71 418.844C1241.24 418.844 1282.15 377.663 1282.15 326.905H1274.16C1274.16 373.291 1236.78 410.849 1190.71 410.849V418.844ZM1190.71 292.475C1207.01 292.475 1220.39 305.218 1221.48 321.381L1229.46 320.844C1228.09 300.552 1211.28 284.48 1190.71 284.48V292.475ZM1159.87 323.284C1160 306.229 1173.78 292.475 1190.71 292.475V284.48C1169.34 284.48 1152.03 301.825 1151.88 323.227L1159.87 323.284ZM1151.88 323.213C1151.65 344.458 1168.4 362.085 1189.64 362.677L1189.86 354.686C1173.04 354.216 1159.69 340.239 1159.87 323.298L1151.88 323.213ZM1189.64 362.677C1211.11 363.276 1228.94 346.246 1229.54 324.7L1221.55 324.48C1221.07 341.663 1206.86 355.16 1189.86 354.686L1189.64 362.677ZM1229.54 324.7C1229.57 323.398 1229.55 322.108 1229.46 320.834L1221.48 321.392C1221.55 322.408 1221.57 323.438 1221.55 324.48L1229.54 324.7Z" fill="#111111" mask="url(#path-6-inside-3_201_6219)"/>
<path d="M603.12 424.687C557.914 412.575 530.833 366.599 541.854 321.365L707.839 365.841C694.767 410.525 648.325 436.8 603.12 424.687Z" fill="white" stroke="#111111" stroke-width="3.99736"/>
<path d="M1432.01 262.724C1408.61 303.254 1357.19 317.513 1316.35 295.16L1402.27 146.342C1442.05 170.534 1455.41 222.193 1432.01 262.724Z" fill="white" stroke="#111111" stroke-width="3.99736"/>
<path d="M541.89 321.501C554.962 276.817 601.404 250.542 646.609 262.655C691.814 274.768 718.896 320.743 707.875 365.977L541.89 321.501Z" fill="#111111" stroke="#111111" stroke-width="3.99736"/>
<path d="M1316.49 295.162C1276.71 270.97 1263.35 219.311 1286.75 178.781C1310.15 138.25 1361.57 123.991 1402.41 146.344L1316.49 295.162Z" fill="#111111" stroke="#111111" stroke-width="3.99736"/>
<g className="token3">
  <path d="M1141.64 88.0624L1089.3 88.0624C1090.34 40.3731 1128.45 2.11928 1175.22 2.11928C1222 2.11928 1260.11 40.3731 1261.14 88.0624L1215.61 88.0624C1214.59 68.1383 1198.46 52.2301 1178.63 52.2301C1158.79 52.2301 1142.66 68.1383 1141.64 88.0624Z" fill="white" stroke="#111111" stroke-width="3.99736"/>
  <path d="M1178.63 123.294C1198.49 123.294 1214.61 107.189 1215.6 87.0631L1261.14 87.0631C1260.12 135.325 1221.98 174.006 1175.22 174.006C1128.46 174.006 1090.33 135.325 1089.3 87.0631L1141.64 87.0631C1142.65 107.188 1158.77 123.294 1178.63 123.294Z" fill="#111111" stroke="#111111" stroke-width="3.99736"/>
</g>
<path d="M90.4402 8.11538C138.652 8.11538 177.766 45.5648 178.858 92.0599H2.02214C3.11466 45.5648 42.2279 8.11538 90.4402 8.11538Z" fill="#75BFFF" stroke="#111111" stroke-width="3.99736"/>
<path d="M996.841 355.885C948.629 355.885 909.516 318.436 908.423 271.941L1085.26 271.941C1084.17 318.436 1045.05 355.885 996.841 355.885Z" fill="#75BFFF" stroke="#111111" stroke-width="3.99736"/>
<path d="M816.46 355.885C767.845 355.885 728.518 317.368 728.518 269.942C728.518 222.516 767.845 183.999 816.46 183.999C865.075 183.999 904.402 222.516 904.402 269.942C904.402 317.368 865.075 355.885 816.46 355.885ZM854.291 266.551C854.291 246.058 837.308 229.517 816.46 229.517C795.612 229.517 778.629 246.058 778.629 266.551C778.629 287.044 795.612 303.586 816.46 303.586C837.308 303.586 854.291 287.044 854.291 266.551Z" fill="#111111" stroke="#111111" stroke-width="3.99736"/>
<path d="M178.858 92.0597C177.766 138.555 138.652 176.004 90.4402 176.004C42.2279 176.004 3.11466 138.555 2.02214 92.0597H178.858Z" fill="#111111" stroke="#111111" stroke-width="3.99736"/>
<path d="M908.423 271.941C909.516 225.446 948.629 187.996 996.841 187.996C1045.05 187.996 1084.17 225.446 1085.26 271.941L908.423 271.941Z" fill="#111111" stroke="#111111" stroke-width="3.99736"/>
<g className="token1">
  <path d="M87.9418 303.521V355.864C40.2525 354.825 1.99868 316.717 1.99868 269.942C1.99868 223.168 40.2525 185.059 87.9418 184.021V229.553C68.0177 230.57 52.1095 246.703 52.1095 266.537C52.1095 286.371 68.0177 302.504 87.9418 303.521Z" fill="white" stroke="#111111" stroke-width="3.99736"/>
  <path d="M123.172 266.537C123.172 246.677 107.068 230.559 86.942 229.565V184.02C135.204 185.048 173.885 223.181 173.885 269.942C173.885 316.704 135.204 354.837 86.942 355.864V303.522C107.067 302.516 123.172 286.398 123.172 266.537Z" fill="#111111" stroke="#111111" stroke-width="3.99736"/>
</g>
<path d="M454.7 303.521V355.864C407.01 354.825 368.756 316.717 368.756 269.942C368.756 223.168 407.01 185.059 454.7 184.021V229.553C434.776 230.57 418.867 246.703 418.867 266.537C418.867 286.371 434.776 302.504 454.7 303.521Z" fill="#75BFFF" stroke="#111111" stroke-width="3.99736"/>
<path d="M629.583 180.002C580.968 180.002 541.641 141.485 541.641 94.0585C541.641 46.6324 580.968 8.11538 629.583 8.11538C678.198 8.11538 717.525 46.6324 717.525 94.0585C717.525 141.485 678.198 180.002 629.583 180.002ZM667.414 90.6675C667.414 70.1744 650.431 53.6328 629.583 53.6328C608.735 53.6328 591.752 70.1744 591.752 90.6675C591.752 111.161 608.735 127.702 629.583 127.702C650.431 127.702 667.414 111.161 667.414 90.6675Z" fill="#111111" stroke="#111111" stroke-width="3.99736"/>
<path d="M209.026 209.151C243.115 176.04 298.081 175.581 332.748 207.774L207.609 329.326C174.466 295.653 174.938 242.262 209.026 209.151Z" fill="#75BFFF" stroke="#111111" stroke-width="3.99736"/>
<path d="M1052.96 149.304C1018.88 182.415 963.91 182.874 929.243 150.681L1054.38 29.1292C1087.53 62.8025 1087.05 116.193 1052.96 149.304Z" fill="#75BFFF" stroke="#111111" stroke-width="3.99736"/>
<path d="M332.529 207.561C365.672 241.234 365.199 294.625 331.111 327.736C297.023 360.847 242.056 361.306 207.389 329.113L332.529 207.561Z" fill="#111111" stroke="#111111" stroke-width="3.99736"/>
<path d="M929.464 150.894C896.32 117.221 896.793 63.8303 930.881 30.7192C964.969 -2.39185 1019.94 -2.85082 1054.6 29.3423L929.464 150.894Z" fill="#111111" stroke="#111111" stroke-width="3.99736"/>
<path d="M537.644 91.0605C537.644 137.874 500.671 175.906 454.699 176.98L454.699 5.14066C500.671 6.21476 537.644 44.2472 537.644 91.0605Z" fill="#75BFFF" stroke="#111111" stroke-width="3.99736"/>
<path d="M454.7 176.984C404.722 175.989 364.759 137.785 364.759 91.0605C364.759 44.3357 404.722 6.13172 454.7 5.1372L454.7 176.984Z" fill="#111111" stroke="#111111" stroke-width="3.99736"/>
<path d="M491.133 266.537C491.133 246.73 475.423 230.582 455.699 229.567V184.021C502.816 185.071 540.643 223.155 540.643 269.942C540.643 316.73 502.816 354.813 455.699 355.863V303.52C475.422 302.492 491.133 286.345 491.133 266.537Z" fill="#111111" stroke="#111111" stroke-width="3.99736"/>
<g className="token2">
  <path d="M806.467 124.638V176.981C759.35 175.931 721.523 137.848 721.523 91.0605C721.523 44.2733 759.35 6.18965 806.467 5.13958V50.6726C786.744 51.7003 771.033 67.8478 771.033 87.6554C771.033 107.463 786.744 123.61 806.467 124.638Z" fill="#75BFFF" stroke="#111111" stroke-width="3.99736"/>
  <path d="M842.697 87.6554C842.697 67.7957 826.592 51.677 806.466 50.6833V5.13858C854.728 6.16568 893.409 44.2987 893.409 91.0605C893.409 137.822 854.728 175.955 806.466 176.982V124.64C826.592 123.634 842.697 107.516 842.697 87.6554Z" fill="white" stroke="#111111" stroke-width="3.99736"/>
</g>
</g>
<defs>
<clipPath id="clip0_201_6219">
<rect width="1512" height="364.759" fill="white" transform="translate(0 0.120605)"/>
</clipPath>
</defs>
</svg>
