<svg viewBox="0 0 896 365" fill="none" xmlns="http://www.w3.org/2000/svg">
<g clip-path="url(#clip0_339_6678)">
<rect x="2" y="2" width="892" height="361" fill="#D5C7FF" stroke="#111111" stroke-width="4"/>
<circle cx="329" cy="354" r="66" fill="#111111" stroke="#111111" stroke-width="4"/>
<path d="M366.5 -94.0651L468.065 0.5L366.5 95.065L366.5 -94.0651Z" fill="#111111" stroke="#111111" stroke-width="4"/>
<path d="M432 266C436.313 228.291 455.569 162.701 512 109.247M586.5 59C572.087 65.7386 558.956 73.2247 547 81.2659" stroke="#111111" stroke-width="4"/>
</g>
<mask id="path-5-inside-1_339_6678" fill="white">
<path fill-rule="evenodd" clip-rule="evenodd" d="M896 127.43C847.892 81.9129 782.956 54 711.5 54C563.212 54 443 174.212 443 322.5C443 336.962 444.143 351.157 446.345 365H896V127.43Z"/>
</mask>
<path fill-rule="evenodd" clip-rule="evenodd" d="M896 127.43C847.892 81.9129 782.956 54 711.5 54C563.212 54 443 174.212 443 322.5C443 336.962 444.143 351.157 446.345 365H896V127.43Z" fill="white"/>
<path d="M896 127.43H900V125.708L898.749 124.524L896 127.43ZM446.345 365L442.394 365.628L442.931 369H446.345V365ZM896 365V369H900V365H896ZM711.5 58C781.893 58 845.856 85.4932 893.251 130.335L898.749 124.524C849.928 78.3326 784.018 50 711.5 50V58ZM447 322.5C447 176.421 565.421 58 711.5 58V50C561.002 50 439 172.002 439 322.5H447ZM450.295 364.372C448.127 350.736 447 336.751 447 322.5H439C439 337.173 440.16 351.579 442.394 365.628L450.295 364.372ZM896 361H446.345V369H896V361ZM892 127.43V365H900V127.43H892Z" fill="#111111" mask="url(#path-5-inside-1_339_6678)"/>
<path d="M36.9575 183.128C34.544 183.158 32.2204 183.113 30 183C32.3528 183 34.6718 183.043 36.9575 183.128C87.806 182.488 178.536 148.329 183.5 12C186.454 68.1207 216.066 179.496 333.419 182.919C335.343 182.898 337.206 182.926 339 183C337.118 183 335.258 182.973 333.419 182.919C283.142 183.472 190.82 217.734 183.5 354.5C182.846 298.443 152.417 187.417 36.9575 183.128Z" fill="#111111"/>
<path d="M30 183C79 185.5 178.3 154.8 183.5 12C186.5 69 217 183 339 183C290.333 181 191.1 212.5 183.5 354.5C182.833 297.333 151.2 183 30 183Z" stroke="#111111" stroke-width="4"/>
<path d="M185 121C192.333 137.667 213.3 173.3 238.5 182.5" stroke="#E9E4FF" stroke-width="4"/>
<path d="M523 133L523 363" stroke="#111111" stroke-width="4"/>
<path d="M583 89L583 365" stroke="#111111" stroke-width="4"/>
<path d="M823 80L823 363" stroke="#111111" stroke-width="4"/>
<path d="M703 55V363" stroke="#111111" stroke-width="4"/>
<path d="M896 245L457 245" stroke="#111111" stroke-width="4"/>
<path d="M892 305H447" stroke="#111111" stroke-width="4"/>
<path d="M763 61L763 363" stroke="#111111" stroke-width="4"/>
<path d="M896 185L482 185" stroke="#111111" stroke-width="4"/>
<path d="M643 65V363" stroke="#111111" stroke-width="4"/>
<defs>
<clipPath id="clip0_339_6678">
<rect width="896" height="365" fill="white"/>
</clipPath>
</defs>
</svg>
