<svg width="244" height="111" viewBox="0 0 244 111" fill="none" xmlns="http://www.w3.org/2000/svg">
<rect x="51" y="32" width="142" height="48" rx="24" fill="#E60023"/>
<path d="M70.8828 61.5V50.2266H68.5234V61.5H70.8828Z" fill="white"/>
<path d="M79.875 61.6328C80.9922 61.6328 81.9297 61.1562 82.375 60.3594H82.5156V61.5H84.7188V55.625C84.7188 53.7891 83.4297 52.7109 81.1484 52.7109C78.9844 52.7109 77.5234 53.7031 77.375 55.2812H79.4688C79.6562 54.7422 80.2031 54.4531 81.0234 54.4531C81.9609 54.4531 82.4766 54.8828 82.4766 55.625V56.3359L80.3906 56.4609C78.25 56.5859 77.0547 57.4922 77.0547 59.0469C77.0547 60.6172 78.2188 61.6328 79.875 61.6328ZM80.625 59.9688C79.8359 59.9688 79.2812 59.5703 79.2812 58.9062C79.2812 58.2734 79.7578 57.9062 80.7344 57.8438L82.4766 57.7266V58.3672C82.4766 59.2734 81.6797 59.9688 80.625 59.9688Z" fill="white"/>
<path d="M86.9531 61.5H89.2266V56.3125C89.2266 55.3281 89.8594 54.6094 90.75 54.6094C91.6406 54.6094 92.1719 55.1406 92.1719 56.0625V61.5H94.3594V56.2109C94.3594 55.2812 94.9531 54.6094 95.875 54.6094C96.8359 54.6094 97.3125 55.125 97.3125 56.1641V61.5H99.5859V55.5938C99.5859 53.8203 98.5156 52.7109 96.7969 52.7109C95.5938 52.7109 94.6016 53.3438 94.2031 54.2969H94.0625C93.7188 53.3125 92.8906 52.7109 91.6797 52.7109C90.5469 52.7109 89.6484 53.3125 89.2969 54.2969H89.1562V52.8984H86.9531V61.5Z" fill="white"/>
<path d="M113.547 55.8984C113.359 53.9766 111.992 52.7109 109.711 52.7109C107.016 52.7109 105.5 54.3438 105.5 57.1797C105.5 60.0469 107.023 61.6797 109.711 61.6797C111.953 61.6797 113.359 60.4453 113.547 58.5547H111.422C111.25 59.4141 110.641 59.875 109.711 59.875C108.492 59.875 107.797 58.9141 107.797 57.1797C107.797 55.4688 108.484 54.5234 109.711 54.5234C110.68 54.5234 111.266 55.0703 111.422 55.8984H113.547Z" fill="white"/>
<path d="M120.898 59.0703C120.656 59.6562 120.039 59.9844 119.141 59.9844C117.953 59.9844 117.203 59.1641 117.172 57.8516V57.7344H123.086V57.0547C123.086 54.3359 121.586 52.7109 119.047 52.7109C116.484 52.7109 114.906 54.4453 114.906 57.2422C114.906 60.0234 116.453 61.6797 119.078 61.6797C121.188 61.6797 122.68 60.6719 123.016 59.0703H120.898ZM119.055 54.4062C120.117 54.4062 120.805 55.1406 120.852 56.3203H117.18C117.258 55.1641 118 54.4062 119.055 54.4062Z" fill="white"/>
<path d="M124.953 61.5H127.227V56.5234C127.227 55.3594 127.875 54.6094 128.93 54.6094C130.008 54.6094 130.516 55.2422 130.516 56.4531V61.5H132.789V55.9375C132.789 53.8828 131.758 52.7109 129.844 52.7109C128.57 52.7109 127.695 53.3125 127.297 54.2812H127.156V52.8984H124.953V61.5Z" fill="white"/>
<path d="M135.648 50.8438V52.9766H134.305V54.7031H135.648V59.1797C135.648 60.8516 136.477 61.5312 138.57 61.5312C139.008 61.5312 139.43 61.4844 139.711 61.4297V59.75C139.492 59.7734 139.336 59.7891 139.039 59.7891C138.266 59.7891 137.922 59.4297 137.922 58.6562V54.7031H139.711V52.9766H137.922V50.8438H135.648Z" fill="white"/>
<path d="M147.117 59.0703C146.875 59.6562 146.258 59.9844 145.359 59.9844C144.172 59.9844 143.422 59.1641 143.391 57.8516V57.7344H149.305V57.0547C149.305 54.3359 147.805 52.7109 145.266 52.7109C142.703 52.7109 141.125 54.4453 141.125 57.2422C141.125 60.0234 142.672 61.6797 145.297 61.6797C147.406 61.6797 148.898 60.6719 149.234 59.0703H147.117ZM145.273 54.4062C146.336 54.4062 147.023 55.1406 147.07 56.3203H143.398C143.477 55.1641 144.219 54.4062 145.273 54.4062Z" fill="white"/>
<path d="M151.172 61.5H153.445V56.6875C153.445 55.4766 154.297 54.7344 155.539 54.7344C155.906 54.7344 156.438 54.7969 156.617 54.8594V52.8594C156.422 52.7969 156.039 52.7578 155.727 52.7578C154.633 52.7578 153.742 53.4062 153.516 54.2656H153.375V52.8984H151.172V61.5Z" fill="white"/>
<path d="M163.508 59.0703C163.266 59.6562 162.648 59.9844 161.75 59.9844C160.562 59.9844 159.812 59.1641 159.781 57.8516V57.7344H165.695V57.0547C165.695 54.3359 164.195 52.7109 161.656 52.7109C159.094 52.7109 157.516 54.4453 157.516 57.2422C157.516 60.0234 159.062 61.6797 161.688 61.6797C163.797 61.6797 165.289 60.6719 165.625 59.0703H163.508ZM161.664 54.4062C162.727 54.4062 163.414 55.1406 163.461 56.3203H159.789C159.867 55.1641 160.609 54.4062 161.664 54.4062Z" fill="white"/>
<path d="M170.648 61.6328C171.844 61.6328 172.82 61.0781 173.281 60.1484H173.422V61.5H175.625V49.6094H173.352V54.2734H173.219C172.773 53.3203 171.812 52.7578 170.648 52.7578C168.484 52.7578 167.141 54.4531 167.141 57.1875C167.141 59.9297 168.477 61.6328 170.648 61.6328ZM171.422 54.6016C172.633 54.6016 173.375 55.5938 173.375 57.2031C173.375 58.8125 172.641 59.7969 171.422 59.7969C170.203 59.7969 169.477 58.8203 169.477 57.1953C169.477 55.5781 170.211 54.6016 171.422 54.6016Z" fill="white"/>
</svg>
