<svg width="244" height="222" viewBox="0 0 244 222" xmlns="http://www.w3.org/2000/svg">
<path d="M201.563 135.88C200.843 135.88 200.096 135.793 199.323 135.62C198.55 135.46 197.83 135.173 197.163 134.76C196.496 134.36 195.95 133.813 195.523 133.12C195.11 132.44 194.903 131.58 194.903 130.54C194.903 129.58 195.096 128.68 195.483 127.84C195.87 127 196.416 126.24 197.123 125.56C197.843 124.88 198.69 124.307 199.663 123.84C200.636 123.373 201.71 123.04 202.883 122.84L203.303 124.4C202.33 124.573 201.43 124.833 200.603 125.18C199.776 125.527 199.056 125.953 198.443 126.46C197.843 126.953 197.376 127.52 197.043 128.16C196.71 128.813 196.543 129.527 196.543 130.3C196.543 130.927 196.65 131.467 196.863 131.92C197.076 132.373 197.356 132.747 197.703 133.04C198.063 133.347 198.463 133.587 198.903 133.76C199.343 133.933 199.79 134.053 200.243 134.12C200.71 134.2 201.15 134.24 201.563 134.24C202.27 134.24 202.99 134.173 203.723 134.04C204.456 133.92 205.123 133.733 205.723 133.48L206.243 134.88C205.923 135.04 205.496 135.193 204.963 135.34C204.443 135.5 203.883 135.627 203.283 135.72C202.683 135.827 202.11 135.88 201.563 135.88ZM198.263 125.28C197.73 125.147 197.25 124.907 196.823 124.56C196.396 124.213 196.056 123.8 195.803 123.32C195.563 122.84 195.443 122.333 195.443 121.8C195.443 120.96 195.636 120.26 196.023 119.7C196.423 119.14 196.93 118.72 197.543 118.44C198.17 118.16 198.83 118.02 199.523 118.02C199.83 118.02 200.156 118.047 200.503 118.1C200.85 118.153 201.183 118.233 201.503 118.34L201.163 119.88C200.896 119.813 200.616 119.76 200.323 119.72C200.03 119.68 199.763 119.66 199.523 119.66C199.043 119.66 198.616 119.747 198.243 119.92C197.87 120.093 197.576 120.333 197.363 120.64C197.15 120.933 197.043 121.28 197.043 121.68C197.043 122.04 197.143 122.367 197.343 122.66C197.556 122.94 197.823 123.187 198.143 123.4C198.463 123.6 198.79 123.753 199.123 123.86C199.456 123.953 199.75 123.993 200.003 123.98L198.263 125.28Z" fill="#003440"/>
<path d="M208.318 132.64L207.738 131.12C208.712 130.8 209.518 130.433 210.158 130.02C210.812 129.607 211.325 129.167 211.698 128.7C212.085 128.233 212.358 127.76 212.518 127.28C212.678 126.787 212.758 126.313 212.758 125.86C212.758 125.207 212.612 124.547 212.318 123.88C212.038 123.2 211.725 122.56 211.378 121.96L212.838 121.22C213.092 121.687 213.312 122.147 213.498 122.6C213.698 123.053 213.872 123.48 214.018 123.88C214.178 124.28 214.305 124.647 214.398 124.98C214.585 125.553 214.825 125.947 215.118 126.16C215.425 126.36 215.838 126.46 216.358 126.46C216.638 126.46 216.838 126.54 216.958 126.7C217.092 126.847 217.158 127.027 217.158 127.24C217.158 127.453 217.065 127.653 216.878 127.84C216.692 128.013 216.452 128.1 216.158 128.1C215.572 128.1 215.092 128 214.718 127.8C214.358 127.587 214.085 127.313 213.898 126.98C213.712 126.633 213.585 126.273 213.518 125.9L214.158 126.26C214.158 127.14 213.958 127.94 213.558 128.66C213.172 129.393 212.672 130.027 212.058 130.56C211.445 131.107 210.805 131.553 210.138 131.9C209.472 132.247 208.865 132.493 208.318 132.64Z" fill="#003440"/>
<path d="M216.168 128.1L216.368 126.46C216.928 126.46 217.368 126.413 217.688 126.32C218.008 126.213 218.248 126.02 218.408 125.74C218.581 125.447 218.728 125.027 218.848 124.48C218.968 123.933 219.115 123.22 219.288 122.34L220.848 122.64C220.795 122.88 220.735 123.147 220.668 123.44C220.601 123.733 220.541 124.027 220.488 124.32C220.448 124.6 220.428 124.847 220.428 125.06C220.428 125.327 220.488 125.567 220.608 125.78C220.728 125.993 220.988 126.16 221.388 126.28C221.788 126.4 222.401 126.46 223.228 126.46C223.508 126.46 223.708 126.54 223.828 126.7C223.961 126.847 224.028 127.027 224.028 127.24C224.028 127.453 223.935 127.653 223.748 127.84C223.561 128.013 223.321 128.1 223.028 128.1C222.161 128.1 221.481 128.027 220.988 127.88C220.495 127.72 220.135 127.487 219.908 127.18C219.681 126.86 219.528 126.473 219.448 126.02L220.048 126.06C219.835 126.487 219.601 126.833 219.348 127.1C219.108 127.367 218.841 127.573 218.548 127.72C218.255 127.867 217.915 127.967 217.528 128.02C217.141 128.073 216.688 128.1 216.168 128.1ZM219.568 131.82C219.288 131.82 219.048 131.72 218.848 131.52C218.661 131.333 218.568 131.107 218.568 130.84C218.568 130.573 218.661 130.34 218.848 130.14C219.048 129.94 219.288 129.84 219.568 129.84C219.835 129.84 220.061 129.94 220.248 130.14C220.448 130.34 220.548 130.573 220.548 130.84C220.548 131.107 220.448 131.333 220.248 131.52C220.061 131.72 219.835 131.82 219.568 131.82Z" fill="#003440"/>
<path d="M223.023 128.1L223.223 126.46C224.01 126.46 224.623 126.433 225.063 126.38C225.503 126.313 225.817 126.16 226.003 125.92C226.19 125.667 226.283 125.273 226.283 124.74C226.283 124.407 226.23 124.013 226.123 123.56C226.017 123.093 225.877 122.6 225.703 122.08C225.53 121.56 225.343 121.047 225.143 120.54L226.763 119.94C226.937 120.367 227.097 120.853 227.243 121.4C227.403 121.947 227.537 122.487 227.643 123.02C227.75 123.553 227.803 124.02 227.803 124.42C227.803 125.087 227.71 125.653 227.523 126.12C227.35 126.587 227.07 126.967 226.683 127.26C226.297 127.553 225.797 127.767 225.183 127.9C224.583 128.033 223.863 128.1 223.023 128.1ZM226.723 131.88C226.443 131.88 226.203 131.78 226.003 131.58C225.817 131.393 225.723 131.167 225.723 130.9C225.723 130.633 225.817 130.4 226.003 130.2C226.203 130 226.443 129.9 226.723 129.9C226.99 129.9 227.217 130 227.403 130.2C227.603 130.4 227.703 130.633 227.703 130.9C227.703 131.167 227.603 131.393 227.403 131.58C227.217 131.78 226.99 131.88 226.723 131.88ZM223.983 131.88C223.703 131.88 223.463 131.78 223.263 131.58C223.077 131.393 222.983 131.167 222.983 130.9C222.983 130.633 223.077 130.4 223.263 130.2C223.463 130 223.703 129.9 223.983 129.9C224.25 129.9 224.477 130 224.663 130.2C224.863 130.4 224.963 130.633 224.963 130.9C224.963 131.167 224.863 131.393 224.663 131.58C224.477 131.78 224.25 131.88 223.983 131.88Z" fill="#003440"/>
<path d="M29.0449 28.5684H22.6582V25.0039H28.6836V22.7383H22.6582V19.3398H29.0449V16.9082H19.709V31H29.0449V28.5684Z" fill="#003440"/>
<path d="M31.8672 31H34.709V24.7793C34.709 23.3242 35.5195 22.3867 36.8379 22.3867C38.1855 22.3867 38.8203 23.1777 38.8203 24.6914V31H41.6621V24.0469C41.6621 21.4785 40.373 20.0137 37.9805 20.0137C36.3887 20.0137 35.2949 20.7656 34.7969 21.9766H34.6211V20.248H31.8672V31Z" fill="#003440"/>
<path d="M49.1719 35.0723C52.4238 35.0723 54.4844 33.4902 54.4844 30.9805V20.248H51.7305V21.9668H51.5547C50.9785 20.7949 49.7383 20.0723 48.2832 20.0723C45.5488 20.0723 43.8691 22.2012 43.8691 25.5312C43.8691 28.7539 45.5391 30.8438 48.2246 30.8438C49.7383 30.8438 50.8711 30.2285 51.4668 29.0957H51.6426V31.0977C51.6426 32.3379 50.7539 33.0605 49.2305 33.0605C48 33.0605 47.1992 32.6309 47.0527 31.9473H44.2402C44.416 33.832 46.3105 35.0723 49.1719 35.0723ZM49.2109 28.666C47.668 28.666 46.7891 27.4551 46.7891 25.5215C46.7891 23.5879 47.6777 22.377 49.2109 22.377C50.7441 22.377 51.6719 23.5879 51.6719 25.5215C51.6719 27.4551 50.7539 28.666 49.2109 28.666Z" fill="#003440"/>
<path d="M57.4336 31H60.2754V16.1367H57.4336V31Z" fill="#003440"/>
<path d="M64.6797 18.5977C65.5586 18.5977 66.2812 17.8945 66.2812 17.0156C66.2812 16.127 65.5586 15.4238 64.6797 15.4238C63.8008 15.4238 63.0684 16.127 63.0684 17.0156C63.0684 17.8945 63.8008 18.5977 64.6797 18.5977ZM63.2539 31H66.0957V20.248H63.2539V31Z" fill="#003440"/>
<path d="M68.7324 23.3828C68.7324 25.0332 69.748 26.0195 71.8379 26.4785L73.791 26.918C74.7383 27.1328 75.1484 27.4648 75.1484 28.0117C75.1484 28.7246 74.3867 29.2129 73.2832 29.2129C72.1504 29.2129 71.457 28.7734 71.2422 28.0312H68.4688C68.6641 30.0625 70.3828 31.2246 73.2246 31.2246C76.0469 31.2246 77.9707 29.8379 77.9707 27.709C77.9707 26.1074 77.0332 25.2285 74.9434 24.7695L72.9219 24.3301C71.9258 24.1055 71.4668 23.7637 71.4668 23.2168C71.4668 22.5137 72.2188 22.0352 73.2344 22.0352C74.2891 22.0352 74.9434 22.4746 75.0898 23.1875H77.7168C77.5605 21.1562 75.9492 20.0137 73.2148 20.0137C70.5293 20.0137 68.7324 21.3711 68.7324 23.3828Z" fill="#003440"/>
<path d="M80.4023 31H83.2441V24.8086C83.2441 23.3828 84.0645 22.416 85.4902 22.416C86.7793 22.416 87.4727 23.1973 87.4727 24.7207V31H90.3145V24.0762C90.3145 21.498 88.9375 20.043 86.623 20.043C85.041 20.043 83.8691 20.7852 83.3711 22.0059H83.1953V16.1367H80.4023V31Z" fill="#003440"/>
<path d="M24.7734 60V49.9922H28.4062V48.7266H19.7344V49.9922H23.3672V60H24.7734Z" fill="#003440"/>
<path d="M30.4844 60H31.8281V55.0156C31.8281 53.5938 32.6562 52.6406 34.1641 52.6406C35.4375 52.6406 36.1094 53.3828 36.1094 54.875V60H37.4531V54.5469C37.4531 52.5703 36.3281 51.4297 34.5469 51.4297C33.2578 51.4297 32.375 51.9766 31.9531 52.9062H31.8281V48.2344H30.4844V60Z" fill="#003440"/>
<path d="M40.6094 49.9531C41.125 49.9531 41.5469 49.5312 41.5469 49.0156C41.5469 48.5 41.125 48.0781 40.6094 48.0781C40.0938 48.0781 39.6719 48.5 39.6719 49.0156C39.6719 49.5312 40.0938 49.9531 40.6094 49.9531ZM39.9375 60H41.2812V51.5781H39.9375V60Z" fill="#003440"/>
<path d="M43.6484 53.8828C43.6484 55.1016 44.3672 55.7812 45.9453 56.1641L47.3906 56.5156C48.2891 56.7344 48.7266 57.125 48.7266 57.7031C48.7266 58.4766 47.9141 59.0156 46.7812 59.0156C45.7031 59.0156 45.0312 58.5625 44.8047 57.8516H43.4219C43.5703 59.25 44.8594 60.1484 46.7344 60.1484C48.6484 60.1484 50.1094 59.1094 50.1094 57.6016C50.1094 56.3906 49.3438 55.7031 47.7578 55.3203L46.4609 55.0078C45.4688 54.7656 45 54.4062 45 53.8281C45 53.0781 45.7812 52.5703 46.7812 52.5703C47.7969 52.5703 48.4531 53.0156 48.6328 53.6875H49.9609C49.7812 52.3047 48.5547 51.4297 46.7891 51.4297C45 51.4297 43.6484 52.4844 43.6484 53.8828Z" fill="#003440"/>
<path d="M57.4375 49.9531C57.9531 49.9531 58.375 49.5312 58.375 49.0156C58.375 48.5 57.9531 48.0781 57.4375 48.0781C56.9219 48.0781 56.5 48.5 56.5 49.0156C56.5 49.5312 56.9219 49.9531 57.4375 49.9531ZM56.7656 60H58.1094V51.5781H56.7656V60Z" fill="#003440"/>
<path d="M60.4766 53.8828C60.4766 55.1016 61.1953 55.7812 62.7734 56.1641L64.2188 56.5156C65.1172 56.7344 65.5547 57.125 65.5547 57.7031C65.5547 58.4766 64.7422 59.0156 63.6094 59.0156C62.5312 59.0156 61.8594 58.5625 61.6328 57.8516H60.25C60.3984 59.25 61.6875 60.1484 63.5625 60.1484C65.4766 60.1484 66.9375 59.1094 66.9375 57.6016C66.9375 56.3906 66.1719 55.7031 64.5859 55.3203L63.2891 55.0078C62.2969 54.7656 61.8281 54.4062 61.8281 53.8281C61.8281 53.0781 62.6094 52.5703 63.6094 52.5703C64.625 52.5703 65.2812 53.0156 65.4609 53.6875H66.7891C66.6094 52.3047 65.3828 51.4297 63.6172 51.4297C61.8281 51.4297 60.4766 52.4844 60.4766 53.8828Z" fill="#003440"/>
<path d="M73.3672 53.8828C73.3672 55.1016 74.0859 55.7812 75.6641 56.1641L77.1094 56.5156C78.0078 56.7344 78.4453 57.125 78.4453 57.7031C78.4453 58.4766 77.6328 59.0156 76.5 59.0156C75.4219 59.0156 74.75 58.5625 74.5234 57.8516H73.1406C73.2891 59.25 74.5781 60.1484 76.4531 60.1484C78.3672 60.1484 79.8281 59.1094 79.8281 57.6016C79.8281 56.3906 79.0625 55.7031 77.4766 55.3203L76.1797 55.0078C75.1875 54.7656 74.7188 54.4062 74.7188 53.8281C74.7188 53.0781 75.5 52.5703 76.5 52.5703C77.5156 52.5703 78.1719 53.0156 78.3516 53.6875H79.6797C79.5 52.3047 78.2734 51.4297 76.5078 51.4297C74.7188 51.4297 73.3672 52.4844 73.3672 53.8828Z" fill="#003440"/>
<path d="M82.4219 49.3984V51.5781H81.0625V52.7031H82.4219V57.8125C82.4219 59.4219 83.1172 60.0625 84.8516 60.0625C85.1172 60.0625 85.375 60.0312 85.6406 59.9844V58.8516C85.3906 58.875 85.2578 58.8828 85.0156 58.8828C84.1406 58.8828 83.7656 58.4609 83.7656 57.4688V52.7031H85.6406V51.5781H83.7656V49.3984H82.4219Z" fill="#003440"/>
<path d="M90.0156 60.1484C91.1406 60.1484 92.0625 59.6562 92.6094 58.7578H92.7344V60H94.0156V54.2344C94.0156 52.4844 92.8672 51.4297 90.8125 51.4297C89.0156 51.4297 87.6875 52.3203 87.5078 53.6719H88.8672C89.0547 53.0078 89.7578 52.625 90.7656 52.625C92.0234 52.625 92.6719 53.1953 92.6719 54.2344V55L90.2422 55.1484C88.2812 55.2656 87.1719 56.1328 87.1719 57.6406C87.1719 59.1797 88.3828 60.1484 90.0156 60.1484ZM90.2656 58.9688C89.2891 58.9688 88.5625 58.4688 88.5625 57.6094C88.5625 56.7656 89.125 56.3203 90.4062 56.2344L92.6719 56.0859V56.8594C92.6719 58.0625 91.6484 58.9688 90.2656 58.9688Z" fill="#003440"/>
<path d="M96.5 60H97.8438V54.7812C97.8438 53.5938 98.7734 52.7344 100.055 52.7344C100.32 52.7344 100.805 52.7812 100.914 52.8125V51.4688C100.742 51.4453 100.461 51.4297 100.242 51.4297C99.125 51.4297 98.1562 52.0078 97.9062 52.8281H97.7812V51.5781H96.5V60Z" fill="#003440"/>
<path d="M103.625 49.3984V51.5781H102.266V52.7031H103.625V57.8125C103.625 59.4219 104.32 60.0625 106.055 60.0625C106.32 60.0625 106.578 60.0312 106.844 59.9844V58.8516C106.594 58.875 106.461 58.8828 106.219 58.8828C105.344 58.8828 104.969 58.4609 104.969 57.4688V52.7031H106.844V51.5781H104.969V49.3984H103.625Z" fill="#003440"/>
<path d="M113.633 56.1016V54.8281H108.508V56.1016H113.633Z" fill="#003440"/>
<path d="M118.453 60.1484C119.578 60.1484 120.5 59.6562 121.047 58.7578H121.172V60H122.453V54.2344C122.453 52.4844 121.305 51.4297 119.25 51.4297C117.453 51.4297 116.125 52.3203 115.945 53.6719H117.305C117.492 53.0078 118.195 52.625 119.203 52.625C120.461 52.625 121.109 53.1953 121.109 54.2344V55L118.68 55.1484C116.719 55.2656 115.609 56.1328 115.609 57.6406C115.609 59.1797 116.82 60.1484 118.453 60.1484ZM118.703 58.9688C117.727 58.9688 117 58.4688 117 57.6094C117 56.7656 117.562 56.3203 118.844 56.2344L121.109 56.0859V56.8594C121.109 58.0625 120.086 58.9688 118.703 58.9688Z" fill="#003440"/>
<path d="M125.016 60H126.359V48.2344H125.016V60Z" fill="#003440"/>
<path d="M129.672 49.9531C130.188 49.9531 130.609 49.5312 130.609 49.0156C130.609 48.5 130.188 48.0781 129.672 48.0781C129.156 48.0781 128.734 48.5 128.734 49.0156C128.734 49.5312 129.156 49.9531 129.672 49.9531ZM129 60H130.344V51.5781H129V60Z" fill="#003440"/>
<path d="M136.375 63.2344C138.672 63.2344 140.125 62.0312 140.125 60.1484V51.5781H138.844V52.9141H138.719C138.234 52.0078 137.195 51.4297 136.016 51.4297C133.852 51.4297 132.484 53.1406 132.484 55.6641C132.484 58.1875 133.836 59.875 136.016 59.875C137.172 59.875 138.125 59.3516 138.656 58.4219H138.781V60.0781C138.781 61.3203 137.883 62.0625 136.375 62.0625C135.164 62.0625 134.414 61.6172 134.266 60.9297H132.844C133.047 62.3203 134.344 63.2344 136.375 63.2344ZM136.312 58.6875C134.75 58.6875 133.875 57.5 133.875 55.6641C133.875 53.8281 134.75 52.6406 136.312 52.6406C137.867 52.6406 138.812 53.8281 138.812 55.6641C138.812 57.5 137.875 58.6875 136.312 58.6875Z" fill="#003440"/>
<path d="M142.656 60H144V55.0156C144 53.5391 144.867 52.6406 146.211 52.6406C147.555 52.6406 148.195 53.3594 148.195 54.875V60H149.539V54.5469C149.539 52.5469 148.484 51.4297 146.594 51.4297C145.305 51.4297 144.484 51.9766 144.062 52.9062H143.938V51.5781H142.656V60Z" fill="#003440"/>
<path d="M157.578 57.8203C157.227 58.5625 156.492 58.9609 155.406 58.9609C153.977 58.9609 153.047 57.9062 152.977 56.2422V56.1797H159.031V55.6641C159.031 53.0469 157.648 51.4297 155.375 51.4297C153.062 51.4297 151.578 53.1484 151.578 55.7969C151.578 58.4609 153.039 60.1484 155.375 60.1484C157.219 60.1484 158.531 59.2578 158.922 57.8203H157.578ZM155.359 52.6172C156.695 52.6172 157.586 53.6016 157.617 55.0938H152.977C153.078 53.6016 154.016 52.6172 155.359 52.6172Z" fill="#003440"/>
<path d="M164.258 60.1484C165.422 60.1484 166.422 59.5938 166.953 58.6562H167.078V60H168.359V48.2344H167.016V52.9062H166.898C166.422 51.9844 165.43 51.4297 164.258 51.4297C162.117 51.4297 160.719 53.1484 160.719 55.7891C160.719 58.4375 162.102 60.1484 164.258 60.1484ZM164.57 52.6406C166.094 52.6406 167.047 53.8594 167.047 55.7891C167.047 57.7344 166.102 58.9375 164.57 58.9375C163.031 58.9375 162.109 57.7578 162.109 55.7891C162.109 53.8281 163.039 52.6406 164.57 52.6406Z" fill="#003440"/>
<path d="M176.047 49.3984V51.5781H174.688V52.7031H176.047V57.8125C176.047 59.4219 176.742 60.0625 178.477 60.0625C178.742 60.0625 179 60.0312 179.266 59.9844V58.8516C179.016 58.875 178.883 58.8828 178.641 58.8828C177.766 58.8828 177.391 58.4609 177.391 57.4688V52.7031H179.266V51.5781H177.391V49.3984H176.047Z" fill="#003440"/>
<path d="M186.75 57.8203C186.398 58.5625 185.664 58.9609 184.578 58.9609C183.148 58.9609 182.219 57.9062 182.148 56.2422V56.1797H188.203V55.6641C188.203 53.0469 186.82 51.4297 184.547 51.4297C182.234 51.4297 180.75 53.1484 180.75 55.7969C180.75 58.4609 182.211 60.1484 184.547 60.1484C186.391 60.1484 187.703 59.2578 188.094 57.8203H186.75ZM184.531 52.6172C185.867 52.6172 186.758 53.6016 186.789 55.0938H182.148C182.25 53.6016 183.188 52.6172 184.531 52.6172Z" fill="#003440"/>
<path d="M192.977 56.8438L194.969 60.0234H196.562L193.664 55.7578L196.523 51.6016H195L193.023 54.7344H192.898L190.898 51.6016H189.297L192.211 55.8125L189.328 60.0234H190.852L192.852 56.8438H192.977Z" fill="#003440"/>
<path d="M198.953 49.3984V51.5781H197.594V52.7031H198.953V57.8125C198.953 59.4219 199.648 60.0625 201.383 60.0625C201.648 60.0625 201.906 60.0312 202.172 59.9844V58.8516C201.922 58.875 201.789 58.8828 201.547 58.8828C200.672 58.8828 200.297 58.4609 200.297 57.4688V52.7031H202.172V51.5781H200.297V49.3984H198.953Z" fill="#003440"/>
<path d="M209.422 49.9531C209.938 49.9531 210.359 49.5312 210.359 49.0156C210.359 48.5 209.938 48.0781 209.422 48.0781C208.906 48.0781 208.484 48.5 208.484 49.0156C208.484 49.5312 208.906 49.9531 209.422 49.9531ZM208.75 60H210.094V51.5781H208.75V60Z" fill="#003440"/>
<path d="M212.656 60H214V55.0156C214 53.5391 214.867 52.6406 216.211 52.6406C217.555 52.6406 218.195 53.3594 218.195 54.875V60H219.539V54.5469C219.539 52.5469 218.484 51.4297 216.594 51.4297C215.305 51.4297 214.484 51.9766 214.062 52.9062H213.938V51.5781H212.656V60Z" fill="#003440"/>
<path d="M27.4219 78.7344H21.8438V74.8594H27.1328V73.6094H21.8438V69.9922H27.4219V68.7266H20.4375V80H27.4219V78.7344Z" fill="#003440"/>
<path d="M29.7969 80H31.1406V75.0156C31.1406 73.5391 32.0078 72.6406 33.3516 72.6406C34.6953 72.6406 35.3359 73.3594 35.3359 74.875V80H36.6797V74.5469C36.6797 72.5469 35.625 71.4297 33.7344 71.4297C32.4453 71.4297 31.625 71.9766 31.2031 72.9062H31.0781V71.5781H29.7969V80Z" fill="#003440"/>
<path d="M42.6094 83.2344C44.9062 83.2344 46.3594 82.0312 46.3594 80.1484V71.5781H45.0781V72.9141H44.9531C44.4688 72.0078 43.4297 71.4297 42.25 71.4297C40.0859 71.4297 38.7188 73.1406 38.7188 75.6641C38.7188 78.1875 40.0703 79.875 42.25 79.875C43.4062 79.875 44.3594 79.3516 44.8906 78.4219H45.0156V80.0781C45.0156 81.3203 44.1172 82.0625 42.6094 82.0625C41.3984 82.0625 40.6484 81.6172 40.5 80.9297H39.0781C39.2812 82.3203 40.5781 83.2344 42.6094 83.2344ZM42.5469 78.6875C40.9844 78.6875 40.1094 77.5 40.1094 75.6641C40.1094 73.8281 40.9844 72.6406 42.5469 72.6406C44.1016 72.6406 45.0469 73.8281 45.0469 75.6641C45.0469 77.5 44.1094 78.6875 42.5469 78.6875Z" fill="#003440"/>
<path d="M48.9688 80H50.3125V68.2344H48.9688V80Z" fill="#003440"/>
<path d="M53.625 69.9531C54.1406 69.9531 54.5625 69.5312 54.5625 69.0156C54.5625 68.5 54.1406 68.0781 53.625 68.0781C53.1094 68.0781 52.6875 68.5 52.6875 69.0156C52.6875 69.5312 53.1094 69.9531 53.625 69.9531ZM52.9531 80H54.2969V71.5781H52.9531V80Z" fill="#003440"/>
<path d="M56.6641 73.8828C56.6641 75.1016 57.3828 75.7812 58.9609 76.1641L60.4062 76.5156C61.3047 76.7344 61.7422 77.125 61.7422 77.7031C61.7422 78.4766 60.9297 79.0156 59.7969 79.0156C58.7188 79.0156 58.0469 78.5625 57.8203 77.8516H56.4375C56.5859 79.25 57.875 80.1484 59.75 80.1484C61.6641 80.1484 63.125 79.1094 63.125 77.6016C63.125 76.3906 62.3594 75.7031 60.7734 75.3203L59.4766 75.0078C58.4844 74.7656 58.0156 74.4062 58.0156 73.8281C58.0156 73.0781 58.7969 72.5703 59.7969 72.5703C60.8125 72.5703 61.4688 73.0156 61.6484 73.6875H62.9766C62.7969 72.3047 61.5703 71.4297 59.8047 71.4297C58.0156 71.4297 56.6641 72.4844 56.6641 73.8828Z" fill="#003440"/>
<path d="M65.3125 80H66.6562V75.0156C66.6562 73.5938 67.4844 72.6406 68.9922 72.6406C70.2656 72.6406 70.9375 73.3828 70.9375 74.875V80H72.2812V74.5469C72.2812 72.5703 71.1562 71.4297 69.375 71.4297C68.0859 71.4297 67.2031 71.9766 66.7812 72.9062H66.6562V68.2344H65.3125V80Z" fill="#003440"/>
<path d="M75.8438 80.0781C76.4062 80.0781 76.8594 79.6172 76.8594 79.0625C76.8594 78.5 76.4062 78.0469 75.8438 78.0469C75.2891 78.0469 74.8281 78.5 74.8281 79.0625C74.8281 79.6172 75.2891 80.0781 75.8438 80.0781Z" fill="#003440"/>
<path d="M85.5781 80V68.7266H84.1719V80H85.5781Z" fill="#003440"/>
<path d="M88.8438 69.3984V71.5781H87.4844V72.7031H88.8438V77.8125C88.8438 79.4219 89.5391 80.0625 91.2734 80.0625C91.5391 80.0625 91.7969 80.0312 92.0625 79.9844V78.8516C91.8125 78.875 91.6797 78.8828 91.4375 78.8828C90.5625 78.8828 90.1875 78.4609 90.1875 77.4688V72.7031H92.0625V71.5781H90.1875V69.3984H88.8438Z" fill="#003440"/>
<path d="M99.3125 69.9531C99.8281 69.9531 100.25 69.5312 100.25 69.0156C100.25 68.5 99.8281 68.0781 99.3125 68.0781C98.7969 68.0781 98.375 68.5 98.375 69.0156C98.375 69.5312 98.7969 69.9531 99.3125 69.9531ZM98.6406 80H99.9844V71.5781H98.6406V80Z" fill="#003440"/>
<path d="M102.352 73.8828C102.352 75.1016 103.07 75.7812 104.648 76.1641L106.094 76.5156C106.992 76.7344 107.43 77.125 107.43 77.7031C107.43 78.4766 106.617 79.0156 105.484 79.0156C104.406 79.0156 103.734 78.5625 103.508 77.8516H102.125C102.273 79.25 103.562 80.1484 105.438 80.1484C107.352 80.1484 108.812 79.1094 108.812 77.6016C108.812 76.3906 108.047 75.7031 106.461 75.3203L105.164 75.0078C104.172 74.7656 103.703 74.4062 103.703 73.8281C103.703 73.0781 104.484 72.5703 105.484 72.5703C106.5 72.5703 107.156 73.0156 107.336 73.6875H108.664C108.484 72.3047 107.258 71.4297 105.492 71.4297C103.703 71.4297 102.352 72.4844 102.352 73.8828Z" fill="#003440"/>
<path d="M115.438 80H116.781V74.7812C116.781 73.5938 117.633 72.6406 118.734 72.6406C119.797 72.6406 120.492 73.2812 120.492 74.2812V80H121.836V74.5859C121.836 73.5156 122.617 72.6406 123.789 72.6406C124.977 72.6406 125.562 73.25 125.562 74.4922V80H126.906V74.1797C126.906 72.4141 125.945 71.4297 124.227 71.4297C123.062 71.4297 122.102 72.0156 121.648 72.9062H121.523C121.133 72.0312 120.336 71.4297 119.195 71.4297C118.07 71.4297 117.227 71.9688 116.844 72.9062H116.719V71.5781H115.438V80Z" fill="#003440"/>
<path d="M132.82 80.1484C135.219 80.1484 136.703 78.4922 136.703 75.7891C136.703 73.0781 135.219 71.4297 132.82 71.4297C130.422 71.4297 128.938 73.0781 128.938 75.7891C128.938 78.4922 130.422 80.1484 132.82 80.1484ZM132.82 78.9375C131.227 78.9375 130.328 77.7812 130.328 75.7891C130.328 73.7891 131.227 72.6406 132.82 72.6406C134.414 72.6406 135.312 73.7891 135.312 75.7891C135.312 77.7812 134.414 78.9375 132.82 78.9375Z" fill="#003440"/>
<path d="M138.812 80H140.156V74.7812C140.156 73.5938 141.086 72.7344 142.367 72.7344C142.633 72.7344 143.117 72.7812 143.227 72.8125V71.4688C143.055 71.4453 142.773 71.4297 142.555 71.4297C141.438 71.4297 140.469 72.0078 140.219 72.8281H140.094V71.5781H138.812V80Z" fill="#003440"/>
<path d="M150.25 77.8203C149.898 78.5625 149.164 78.9609 148.078 78.9609C146.648 78.9609 145.719 77.9062 145.648 76.2422V76.1797H151.703V75.6641C151.703 73.0469 150.32 71.4297 148.047 71.4297C145.734 71.4297 144.25 73.1484 144.25 75.7969C144.25 78.4609 145.711 80.1484 148.047 80.1484C149.891 80.1484 151.203 79.2578 151.594 77.8203H150.25ZM148.031 72.6172C149.367 72.6172 150.258 73.6016 150.289 75.0938H145.648C145.75 73.6016 146.688 72.6172 148.031 72.6172Z" fill="#003440"/>
<path d="M159.031 69.9531C159.547 69.9531 159.969 69.5312 159.969 69.0156C159.969 68.5 159.547 68.0781 159.031 68.0781C158.516 68.0781 158.094 68.5 158.094 69.0156C158.094 69.5312 158.516 69.9531 159.031 69.9531ZM158.359 80H159.703V71.5781H158.359V80Z" fill="#003440"/>
<path d="M162.266 80H163.609V75.0156C163.609 73.5391 164.477 72.6406 165.82 72.6406C167.164 72.6406 167.805 73.3594 167.805 74.875V80H169.148V74.5469C169.148 72.5469 168.094 71.4297 166.203 71.4297C164.914 71.4297 164.094 71.9766 163.672 72.9062H163.547V71.5781H162.266V80Z" fill="#003440"/>
<path d="M178.578 74.1562C178.344 72.6562 177.094 71.4297 175.047 71.4297C172.688 71.4297 171.188 73.1328 171.188 75.7578C171.188 78.4375 172.695 80.1484 175.055 80.1484C177.078 80.1484 178.336 79.0078 178.578 77.4609H177.219C176.969 78.4141 176.18 78.9375 175.047 78.9375C173.547 78.9375 172.578 77.7031 172.578 75.7578C172.578 73.8516 173.531 72.6406 175.047 72.6406C176.258 72.6406 177 73.3203 177.219 74.1562H178.578Z" fill="#003440"/>
<path d="M180.641 80H181.984V68.2344H180.641V80Z" fill="#003440"/>
<path d="M191.406 71.5781H190.062V76.5625C190.062 78.0391 189.25 78.9219 187.766 78.9219C186.422 78.9219 185.859 78.2188 185.859 76.7031V71.5781H184.516V77.0312C184.516 79.0234 185.5 80.1484 187.391 80.1484C188.68 80.1484 189.578 79.6172 190 78.6797H190.125V80H191.406V71.5781Z" fill="#003440"/>
<path d="M193.742 73.8828C193.742 75.1016 194.461 75.7812 196.039 76.1641L197.484 76.5156C198.383 76.7344 198.82 77.125 198.82 77.7031C198.82 78.4766 198.008 79.0156 196.875 79.0156C195.797 79.0156 195.125 78.5625 194.898 77.8516H193.516C193.664 79.25 194.953 80.1484 196.828 80.1484C198.742 80.1484 200.203 79.1094 200.203 77.6016C200.203 76.3906 199.438 75.7031 197.852 75.3203L196.555 75.0078C195.562 74.7656 195.094 74.4062 195.094 73.8281C195.094 73.0781 195.875 72.5703 196.875 72.5703C197.891 72.5703 198.547 73.0156 198.727 73.6875H200.055C199.875 72.3047 198.648 71.4297 196.883 71.4297C195.094 71.4297 193.742 72.4844 193.742 73.8828Z" fill="#003440"/>
<path d="M203.016 69.9531C203.531 69.9531 203.953 69.5312 203.953 69.0156C203.953 68.5 203.531 68.0781 203.016 68.0781C202.5 68.0781 202.078 68.5 202.078 69.0156C202.078 69.5312 202.5 69.9531 203.016 69.9531ZM202.344 80H203.688V71.5781H202.344V80Z" fill="#003440"/>
<path d="M213.125 71.5781H211.688L209.383 78.5156H209.258L206.953 71.5781H205.516L208.633 80H210.008L213.125 71.5781Z" fill="#003440"/>
<path d="M220.188 77.8203C219.836 78.5625 219.102 78.9609 218.016 78.9609C216.586 78.9609 215.656 77.9062 215.586 76.2422V76.1797H221.641V75.6641C221.641 73.0469 220.258 71.4297 217.984 71.4297C215.672 71.4297 214.188 73.1484 214.188 75.7969C214.188 78.4609 215.648 80.1484 217.984 80.1484C219.828 80.1484 221.141 79.2578 221.531 77.8203H220.188ZM217.969 72.6172C219.305 72.6172 220.195 73.6016 220.227 75.0938H215.586C215.688 73.6016 216.625 72.6172 217.969 72.6172Z" fill="#003440"/>
<path d="M29.9976 157C29.475 157 29.0056 156.909 28.5896 156.728C28.1736 156.547 27.843 156.269 27.5976 155.896C27.363 155.523 27.2456 155.048 27.2456 154.472C27.2456 154.013 27.4216 153.443 27.7736 152.76C28.1256 152.067 28.739 151.336 29.6136 150.568L29.9176 151.432L28.8296 150.456L29.6616 149.464C30.2163 149.901 30.7283 150.371 31.1976 150.872C31.667 151.373 32.0456 151.907 32.3336 152.472C32.6216 153.037 32.7656 153.635 32.7656 154.264C32.7656 154.509 32.723 154.787 32.6376 155.096C32.5523 155.405 32.4083 155.709 32.2056 156.008C32.003 156.296 31.7203 156.536 31.3576 156.728C30.995 156.909 30.5416 157 29.9976 157ZM29.9976 155.688C30.3603 155.688 30.659 155.629 30.8936 155.512C31.139 155.384 31.3203 155.208 31.4376 154.984C31.5656 154.76 31.6296 154.499 31.6296 154.2C31.6296 153.933 31.5816 153.656 31.4856 153.368C31.4003 153.069 31.219 152.749 30.9416 152.408C30.675 152.056 30.2643 151.661 29.7096 151.224L30.4136 151.192C30.019 151.533 29.6776 151.896 29.3896 152.28C29.1016 152.653 28.883 153.021 28.7336 153.384C28.5843 153.736 28.5096 154.056 28.5096 154.344C28.5096 154.792 28.6483 155.128 28.9256 155.352C29.2136 155.576 29.571 155.688 29.9976 155.688Z" fill="#003440"/>
<path d="M33.81 156.28L34.45 155.176C34.6633 155.315 34.962 155.448 35.346 155.576C35.73 155.704 36.178 155.768 36.69 155.768C37.2233 155.768 37.6447 155.715 37.954 155.608C38.274 155.501 38.5033 155.347 38.642 155.144C38.7913 154.931 38.866 154.685 38.866 154.408C38.866 154.195 38.818 153.933 38.722 153.624C38.6367 153.304 38.4447 152.877 38.146 152.344C37.8473 151.8 37.3887 151.091 36.77 150.216L37.874 149.496C38.4393 150.275 38.8873 150.979 39.218 151.608C39.5593 152.237 39.7993 152.792 39.938 153.272C40.0873 153.741 40.162 154.147 40.162 154.488C40.162 154.915 40.0553 155.331 39.842 155.736C39.6287 156.131 39.2713 156.456 38.77 156.712C38.2687 156.968 37.5753 157.096 36.69 157.096C36.306 157.096 35.9327 157.064 35.57 157C35.218 156.936 34.8927 156.845 34.594 156.728C34.2953 156.6 34.034 156.451 33.81 156.28ZM36.706 148.04C36.482 148.04 36.29 147.965 36.13 147.816C35.9807 147.656 35.906 147.469 35.906 147.256C35.906 147.043 35.9807 146.856 36.13 146.696C36.29 146.536 36.482 146.456 36.706 146.456C36.9193 146.456 37.1007 146.536 37.25 146.696C37.41 146.856 37.49 147.043 37.49 147.256C37.49 147.469 37.41 147.656 37.25 147.816C37.1007 147.965 36.9193 148.04 36.706 148.04Z" fill="#003440"/>
<path d="M42.347 157L42.027 145.576H43.323L43.643 157H42.347Z" fill="#003440"/>
<path d="M49.6831 157.016C49.6831 156.632 49.7365 156.205 49.8431 155.736C49.9498 155.267 50.1205 154.749 50.3551 154.184L51.5071 154.632C51.3365 155.08 51.2085 155.491 51.1231 155.864C51.0378 156.237 50.9951 156.584 50.9951 156.904C50.9951 157.491 51.1391 157.965 51.4271 158.328C51.7258 158.701 52.1205 158.973 52.6111 159.144C53.1125 159.315 53.6618 159.4 54.2591 159.4C54.9845 159.4 55.5925 159.32 56.0831 159.16C56.5738 159.011 56.9631 158.803 57.2511 158.536C57.5391 158.269 57.7418 157.965 57.8591 157.624C57.9871 157.293 58.0511 156.947 58.0511 156.584C58.0511 156.115 58.0138 155.672 57.9391 155.256C57.8751 154.84 57.7845 154.435 57.6671 154.04C57.5605 153.635 57.4431 153.224 57.3151 152.808L58.6111 152.456C58.7285 152.861 58.8191 153.192 58.8831 153.448C58.9471 153.693 58.9951 153.891 59.0271 154.04C59.0698 154.189 59.1071 154.323 59.1391 154.44C59.2565 154.835 59.4111 155.128 59.6031 155.32C59.7951 155.501 60.0138 155.624 60.2591 155.688C60.5151 155.741 60.7765 155.768 61.0431 155.768C61.2671 155.768 61.4271 155.832 61.5231 155.96C61.6298 156.077 61.6831 156.221 61.6831 156.392C61.6831 156.563 61.6085 156.723 61.4591 156.872C61.3098 157.011 61.1178 157.08 60.8831 157.08C60.4351 157.08 60.0618 157.005 59.7631 156.856C59.4645 156.696 59.2298 156.499 59.0591 156.264C58.8991 156.029 58.7925 155.784 58.7391 155.528L59.3951 156.344C59.3631 156.888 59.2565 157.416 59.0751 157.928C58.9045 158.451 58.6271 158.92 58.2431 159.336C57.8591 159.763 57.3365 160.099 56.6751 160.344C56.0245 160.589 55.2031 160.712 54.2111 160.712C53.6031 160.712 53.0271 160.637 52.4831 160.488C51.9391 160.339 51.4538 160.109 51.0271 159.8C50.6111 159.501 50.2805 159.117 50.0351 158.648C49.8005 158.189 49.6831 157.645 49.6831 157.016ZM54.5151 150.632C54.2911 150.632 54.0991 150.557 53.9391 150.408C53.7898 150.248 53.7151 150.061 53.7151 149.848C53.7151 149.635 53.7898 149.448 53.9391 149.288C54.0991 149.128 54.2911 149.048 54.5151 149.048C54.7285 149.048 54.9098 149.128 55.0591 149.288C55.2191 149.448 55.2991 149.635 55.2991 149.848C55.2991 150.061 55.2191 150.248 55.0591 150.408C54.9098 150.557 54.7285 150.632 54.5151 150.632Z" fill="#003440"/>
<path d="M68.6346 157.288C67.696 157.288 66.9066 157.251 66.2666 157.176C65.6373 157.112 65.1253 157.011 64.7306 156.872C64.336 156.733 64.0373 156.557 63.8346 156.344C63.632 156.131 63.4933 155.875 63.4186 155.576L63.7866 155.448C63.52 155.96 63.232 156.333 62.9226 156.568C62.6133 156.792 62.288 156.936 61.9466 157C61.616 157.053 61.264 157.08 60.8906 157.08L61.0506 155.768C61.424 155.768 61.728 155.715 61.9626 155.608C62.208 155.501 62.4053 155.325 62.5546 155.08C62.7146 154.835 62.8533 154.509 62.9706 154.104C63.088 153.699 63.216 153.197 63.3546 152.6L64.5226 152.904C64.4586 153.149 64.4 153.384 64.3466 153.608C64.2933 153.832 64.2506 154.029 64.2186 154.2C64.1973 154.36 64.1866 154.488 64.1866 154.584C64.1866 154.84 64.2453 155.059 64.3626 155.24C64.48 155.411 64.704 155.555 65.0346 155.672C65.3653 155.779 65.84 155.859 66.4586 155.912C67.088 155.955 67.9093 155.976 68.9226 155.976C69.6266 155.976 70.256 155.933 70.8106 155.848C71.3653 155.763 71.8293 155.635 72.2026 155.464C72.5866 155.283 72.88 155.064 73.0826 154.808C73.2853 154.552 73.3866 154.259 73.3866 153.928C73.3866 153.693 73.328 153.464 73.2106 153.24C73.0933 153.005 72.912 152.808 72.6666 152.648C72.4213 152.488 72.096 152.408 71.6906 152.408C71.1786 152.408 70.6666 152.541 70.1546 152.808C69.6533 153.075 69.1733 153.411 68.7146 153.816C68.2666 154.211 67.8666 154.616 67.5146 155.032C67.1626 155.448 66.88 155.811 66.6666 156.12L65.2746 156.072C65.616 155.517 66.0213 154.952 66.4906 154.376C66.9706 153.789 67.4933 153.251 68.0586 152.76C68.6346 152.259 69.2373 151.859 69.8666 151.56C70.496 151.251 71.136 151.096 71.7866 151.096C72.3733 151.096 72.8746 151.219 73.2906 151.464C73.7173 151.699 74.0426 152.019 74.2666 152.424C74.5013 152.829 74.6186 153.288 74.6186 153.8C74.6186 154.429 74.432 155.011 74.0586 155.544C73.696 156.067 73.0773 156.488 72.2026 156.808C71.328 157.128 70.1386 157.288 68.6346 157.288Z" fill="#003440"/>
<path d="M86.0994 157.336L86.5154 156.024C87.166 156.024 87.854 155.987 88.5794 155.912C89.3047 155.827 90.0247 155.683 90.7394 155.48C91.4647 155.267 92.1527 154.979 92.8034 154.616C93.454 154.253 94.0247 153.795 94.5154 153.24L95.5234 153.832C95.4274 154.077 95.3634 154.275 95.3314 154.424C95.2994 154.563 95.2834 154.691 95.2834 154.808C95.2834 154.968 95.342 155.123 95.4594 155.272C95.5767 155.411 95.7954 155.528 96.1154 155.624C96.446 155.72 96.91 155.768 97.5074 155.768C97.7314 155.768 97.8914 155.832 97.9874 155.96C98.094 156.077 98.1474 156.221 98.1474 156.392C98.1474 156.563 98.0727 156.723 97.9234 156.872C97.774 157.011 97.582 157.08 97.3474 157.08C96.6647 157.08 96.062 157.011 95.5394 156.872C95.0274 156.723 94.6434 156.493 94.3874 156.184C94.142 155.864 94.062 155.453 94.1474 154.952L94.4354 155.048C94.0087 155.432 93.4967 155.768 92.8994 156.056C92.3127 156.333 91.6567 156.568 90.9314 156.76C90.2167 156.952 89.4487 157.096 88.6274 157.192C87.8167 157.288 86.974 157.336 86.0994 157.336ZM86.0994 157.336C85.15 157.336 84.3127 157.272 83.5874 157.144C82.8727 157.027 82.2754 156.84 81.7954 156.584C81.3154 156.328 80.9527 155.997 80.7074 155.592C80.462 155.176 80.3394 154.675 80.3394 154.088C80.3394 153.821 80.3607 153.549 80.4034 153.272C80.446 152.984 80.4994 152.696 80.5634 152.408C80.638 152.12 80.7127 151.843 80.7874 151.576L81.9874 151.88C81.9447 152.04 81.8967 152.232 81.8434 152.456C81.79 152.669 81.742 152.888 81.6994 153.112C81.6674 153.336 81.6514 153.539 81.6514 153.72C81.6514 154.275 81.79 154.723 82.0674 155.064C82.3554 155.395 82.8514 155.64 83.5554 155.8C84.2594 155.949 85.246 156.024 86.5154 156.024L86.8354 156.824L86.0994 157.336ZM87.2674 160.376C87.0434 160.376 86.8514 160.296 86.6914 160.136C86.542 159.987 86.4674 159.805 86.4674 159.592C86.4674 159.379 86.542 159.192 86.6914 159.032C86.8514 158.872 87.0434 158.792 87.2674 158.792C87.4807 158.792 87.662 158.872 87.8114 159.032C87.9714 159.192 88.0514 159.379 88.0514 159.592C88.0514 159.805 87.9714 159.987 87.8114 160.136C87.662 160.296 87.4807 160.376 87.2674 160.376Z" fill="#003440"/>
<path d="M97.3438 157.08L97.5038 155.768C97.8024 155.768 98.0371 155.704 98.2077 155.576C98.3891 155.448 98.5597 155.235 98.7197 154.936C98.8904 154.637 99.1037 154.237 99.3597 153.736C99.6157 153.224 99.8717 152.808 100.128 152.488C100.394 152.157 100.65 151.901 100.896 151.72C101.152 151.528 101.392 151.395 101.616 151.32C101.84 151.245 102.048 151.208 102.24 151.208C102.592 151.208 102.906 151.288 103.184 151.448C103.461 151.597 103.722 151.859 103.968 152.232C104.213 152.595 104.464 153.096 104.72 153.736C104.965 154.323 105.184 154.765 105.376 155.064C105.578 155.352 105.786 155.544 106 155.64C106.224 155.725 106.474 155.768 106.752 155.768C106.976 155.768 107.136 155.832 107.232 155.96C107.338 156.077 107.392 156.221 107.392 156.392C107.392 156.563 107.317 156.723 107.168 156.872C107.018 157.011 106.826 157.08 106.592 157.08C106.176 157.08 105.792 157.011 105.44 156.872C105.098 156.733 104.81 156.515 104.576 156.216L104.8 155.88C104.682 156.211 104.522 156.483 104.32 156.696C104.128 156.899 103.909 157.048 103.664 157.144C103.418 157.251 103.157 157.304 102.88 157.304C102.528 157.304 102.165 157.229 101.792 157.08C101.429 156.931 101.077 156.717 100.736 156.44C100.394 156.163 100.096 155.837 99.8398 155.464C99.5624 155.955 99.2957 156.317 99.0397 156.552C98.7944 156.776 98.5384 156.92 98.2718 156.984C98.0051 157.048 97.6957 157.08 97.3438 157.08ZM100.448 154.248C100.629 154.547 100.821 154.808 101.024 155.032C101.237 155.256 101.45 155.443 101.664 155.592C101.877 155.731 102.085 155.837 102.288 155.912C102.501 155.976 102.693 156.008 102.864 156.008C103.237 156.008 103.509 155.875 103.68 155.608C103.861 155.341 103.856 154.968 103.664 154.488C103.568 154.243 103.466 154.003 103.36 153.768C103.264 153.533 103.157 153.32 103.04 153.128C102.922 152.925 102.789 152.771 102.64 152.664C102.49 152.547 102.325 152.488 102.144 152.488C101.984 152.488 101.813 152.541 101.632 152.648C101.461 152.755 101.274 152.936 101.072 153.192C100.88 153.448 100.672 153.8 100.448 154.248Z" fill="#003440"/>
<path d="M106.594 157.08L106.738 155.768C107.292 155.768 107.836 155.725 108.37 155.64C108.903 155.555 109.426 155.432 109.938 155.272C110.45 155.112 110.94 154.92 111.41 154.696C111.89 154.461 112.343 154.195 112.77 153.896C112.492 153.651 112.172 153.437 111.81 153.256C111.447 153.075 111.047 152.936 110.61 152.84C110.183 152.733 109.73 152.68 109.25 152.68C109.079 152.68 108.919 152.685 108.77 152.696C108.62 152.707 108.471 152.728 108.322 152.76C108.172 152.781 108.002 152.813 107.81 152.856L107.554 151.64C107.842 151.555 108.13 151.491 108.418 151.448C108.706 151.395 108.983 151.368 109.25 151.368C109.804 151.368 110.306 151.437 110.754 151.576C111.202 151.704 111.607 151.864 111.97 152.056C112.343 152.248 112.69 152.44 113.01 152.632C113.34 152.824 113.66 152.989 113.97 153.128C114.279 153.256 114.599 153.32 114.93 153.32H115.266L115.378 154.472C114.919 154.472 114.498 154.536 114.114 154.664C113.73 154.792 113.351 154.957 112.978 155.16C112.615 155.352 112.231 155.56 111.826 155.784C111.42 155.997 110.972 156.205 110.482 156.408C109.991 156.6 109.426 156.76 108.786 156.888C108.156 157.016 107.426 157.08 106.594 157.08Z" fill="#003440"/>
<path d="M117.488 157L117.168 145.576H118.464L118.784 157H117.488Z" fill="#003440"/>
<path d="M120.388 156.28L121.028 155.176C121.241 155.315 121.54 155.448 121.924 155.576C122.308 155.704 122.756 155.768 123.268 155.768C123.801 155.768 124.223 155.715 124.532 155.608C124.852 155.501 125.081 155.347 125.22 155.144C125.369 154.931 125.444 154.685 125.444 154.408C125.444 154.195 125.396 153.933 125.3 153.624C125.215 153.304 125.023 152.877 124.724 152.344C124.425 151.8 123.967 151.091 123.348 150.216L124.452 149.496C125.017 150.275 125.465 150.979 125.796 151.608C126.137 152.237 126.377 152.792 126.516 153.272C126.665 153.741 126.74 154.147 126.74 154.488C126.74 154.915 126.633 155.331 126.42 155.736C126.207 156.131 125.849 156.456 125.348 156.712C124.847 156.968 124.153 157.096 123.268 157.096C122.884 157.096 122.511 157.064 122.148 157C121.796 156.936 121.471 156.845 121.172 156.728C120.873 156.6 120.612 156.451 120.388 156.28ZM123.284 148.04C123.06 148.04 122.868 147.965 122.708 147.816C122.559 147.656 122.484 147.469 122.484 147.256C122.484 147.043 122.559 146.856 122.708 146.696C122.868 146.536 123.06 146.456 123.284 146.456C123.497 146.456 123.679 146.536 123.828 146.696C123.988 146.856 124.068 147.043 124.068 147.256C124.068 147.469 123.988 147.656 123.828 147.816C123.679 147.965 123.497 148.04 123.284 148.04Z" fill="#003440"/>
<path d="M128.925 157L128.605 145.576H129.901L130.221 157H128.925Z" fill="#003440"/>
<path d="M134.498 157C133.975 157 133.506 156.909 133.09 156.728C132.674 156.547 132.343 156.269 132.098 155.896C131.863 155.523 131.746 155.048 131.746 154.472C131.746 154.013 131.922 153.443 132.274 152.76C132.626 152.067 133.239 151.336 134.114 150.568L134.418 151.432L133.33 150.456L134.162 149.464C134.716 149.901 135.228 150.371 135.698 150.872C136.167 151.373 136.546 151.907 136.834 152.472C137.122 153.037 137.266 153.635 137.266 154.264C137.266 154.509 137.223 154.787 137.138 155.096C137.052 155.405 136.908 155.709 136.706 156.008C136.503 156.296 136.22 156.536 135.858 156.728C135.495 156.909 135.042 157 134.498 157ZM134.498 155.688C134.86 155.688 135.159 155.629 135.394 155.512C135.639 155.384 135.82 155.208 135.938 154.984C136.066 154.76 136.13 154.499 136.13 154.2C136.13 153.933 136.082 153.656 135.986 153.368C135.9 153.069 135.719 152.749 135.442 152.408C135.175 152.056 134.764 151.661 134.21 151.224L134.914 151.192C134.519 151.533 134.178 151.896 133.89 152.28C133.602 152.653 133.383 153.021 133.234 153.384C133.084 153.736 133.01 154.056 133.01 154.344C133.01 154.792 133.148 155.128 133.426 155.352C133.714 155.576 134.071 155.688 134.498 155.688ZM135.714 148.04C135.49 148.04 135.298 147.965 135.138 147.816C134.988 147.656 134.914 147.469 134.914 147.256C134.914 147.043 134.988 146.856 135.138 146.696C135.298 146.536 135.49 146.456 135.714 146.456C135.927 146.456 136.108 146.536 136.258 146.696C136.418 146.856 136.498 147.043 136.498 147.256C136.498 147.469 136.418 147.656 136.258 147.816C136.108 147.965 135.927 148.04 135.714 148.04ZM133.522 148.04C133.298 148.04 133.106 147.965 132.946 147.816C132.796 147.656 132.722 147.469 132.722 147.256C132.722 147.043 132.796 146.856 132.946 146.696C133.106 146.536 133.298 146.456 133.522 146.456C133.735 146.456 133.916 146.536 134.066 146.696C134.226 146.856 134.306 147.043 134.306 147.256C134.306 147.469 134.226 147.656 134.066 147.816C133.916 147.965 133.735 148.04 133.522 148.04Z" fill="#003440"/>
<path d="M151.85 157.08C151.21 157.08 150.682 157.027 150.266 156.92C149.86 156.813 149.54 156.648 149.306 156.424C149.082 156.2 148.922 155.917 148.826 155.576C148.74 155.224 148.687 154.808 148.666 154.328L148.346 145.576H149.658L149.978 153.816C149.999 154.339 150.047 154.744 150.122 155.032C150.207 155.309 150.388 155.501 150.666 155.608C150.954 155.715 151.402 155.768 152.01 155.768C152.234 155.768 152.394 155.832 152.49 155.96C152.596 156.077 152.65 156.221 152.65 156.392C152.65 156.563 152.575 156.723 152.426 156.872C152.276 157.011 152.084 157.08 151.85 157.08ZM144.538 157.08C144.25 157.08 143.956 157.053 143.658 157C143.37 156.957 143.167 156.925 143.05 156.904L143.226 155.64C143.962 155.736 144.655 155.752 145.306 155.688C145.956 155.624 146.522 155.443 147.002 155.144C147.492 154.835 147.876 154.371 148.154 153.752C148.431 153.133 148.57 152.328 148.57 151.336L149.338 153.256C149.21 153.928 149.018 154.493 148.762 154.952C148.506 155.4 148.207 155.768 147.866 156.056C147.535 156.333 147.178 156.547 146.794 156.696C146.41 156.845 146.026 156.947 145.642 157C145.258 157.053 144.89 157.08 144.538 157.08ZM148.01 154.888C147.839 154.557 147.599 154.173 147.29 153.736C146.98 153.288 146.607 152.803 146.17 152.28C145.732 151.757 145.236 151.213 144.682 150.648C144.138 150.083 143.546 149.512 142.906 148.936L143.77 148.024C144.474 148.696 145.098 149.325 145.642 149.912C146.196 150.488 146.682 151.032 147.098 151.544C147.514 152.045 147.871 152.504 148.17 152.92C148.468 153.336 148.719 153.715 148.922 154.056L148.01 154.888Z" fill="#003440"/>
<path d="M151.844 157.08L152.004 155.768C152.526 155.768 152.942 155.736 153.252 155.672C153.561 155.608 153.785 155.48 153.924 155.288C154.062 155.085 154.132 154.787 154.132 154.392C154.132 154.125 154.089 153.811 154.004 153.448C153.918 153.075 153.806 152.68 153.668 152.264C153.529 151.848 153.38 151.437 153.22 151.032L154.516 150.552C154.654 150.893 154.782 151.283 154.9 151.72C155.028 152.157 155.134 152.589 155.22 153.016C155.305 153.443 155.348 153.816 155.348 154.136C155.348 154.563 155.3 154.941 155.204 155.272C155.118 155.592 154.985 155.869 154.804 156.104C154.622 156.328 154.388 156.515 154.1 156.664C153.822 156.803 153.497 156.909 153.124 156.984C152.75 157.048 152.324 157.08 151.844 157.08ZM153.556 160.056C153.332 160.056 153.14 159.976 152.98 159.816C152.83 159.667 152.756 159.485 152.756 159.272C152.756 159.059 152.83 158.872 152.98 158.712C153.14 158.552 153.332 158.472 153.556 158.472C153.769 158.472 153.95 158.552 154.1 158.712C154.26 158.872 154.34 159.059 154.34 159.272C154.34 159.485 154.26 159.667 154.1 159.816C153.95 159.976 153.769 160.056 153.556 160.056Z" fill="#003440"/>
<path d="M156.701 156.28L157.341 155.176C157.554 155.315 157.853 155.448 158.237 155.576C158.621 155.704 159.069 155.768 159.581 155.768C160.114 155.768 160.535 155.715 160.845 155.608C161.165 155.501 161.394 155.347 161.533 155.144C161.682 154.931 161.757 154.685 161.757 154.408C161.757 154.195 161.709 153.933 161.613 153.624C161.527 153.304 161.335 152.877 161.037 152.344C160.738 151.8 160.279 151.091 159.661 150.216L160.765 149.496C161.33 150.275 161.778 150.979 162.109 151.608C162.45 152.237 162.69 152.792 162.829 153.272C162.978 153.741 163.053 154.147 163.053 154.488C163.053 154.915 162.946 155.331 162.733 155.736C162.519 156.131 162.162 156.456 161.661 156.712C161.159 156.968 160.466 157.096 159.581 157.096C159.197 157.096 158.823 157.064 158.461 157C158.109 156.936 157.783 156.845 157.485 156.728C157.186 156.6 156.925 156.451 156.701 156.28Z" fill="#003440"/>
<path d="M168.422 157.08C167.568 157.08 166.912 156.984 166.454 156.792C166.006 156.6 165.696 156.301 165.526 155.896C165.355 155.491 165.259 154.968 165.238 154.328L164.918 145.576H166.23L166.55 153.816C166.571 154.339 166.619 154.744 166.694 155.032C166.779 155.309 166.96 155.501 167.238 155.608C167.526 155.715 167.974 155.768 168.582 155.768C168.806 155.768 168.966 155.832 169.062 155.96C169.168 156.077 169.222 156.221 169.222 156.392C169.222 156.563 169.147 156.723 168.998 156.872C168.848 157.011 168.656 157.08 168.422 157.08Z" fill="#003440"/>
<path d="M168.422 157.08L168.582 155.768C169.211 155.768 169.702 155.747 170.054 155.704C170.406 155.651 170.657 155.528 170.806 155.336C170.955 155.133 171.03 154.819 171.03 154.392C171.03 154.125 170.987 153.811 170.902 153.448C170.817 153.075 170.705 152.68 170.566 152.264C170.427 151.848 170.278 151.437 170.118 151.032L171.414 150.552C171.553 150.893 171.681 151.283 171.798 151.72C171.926 152.157 172.033 152.589 172.118 153.016C172.203 153.443 172.246 153.816 172.246 154.136C172.246 154.669 172.171 155.123 172.022 155.496C171.883 155.869 171.659 156.173 171.35 156.408C171.041 156.643 170.641 156.813 170.15 156.92C169.67 157.027 169.094 157.08 168.422 157.08ZM171.382 160.104C171.158 160.104 170.966 160.024 170.806 159.864C170.657 159.715 170.582 159.533 170.582 159.32C170.582 159.107 170.657 158.92 170.806 158.76C170.966 158.6 171.158 158.52 171.382 158.52C171.595 158.52 171.777 158.6 171.926 158.76C172.086 158.92 172.166 159.107 172.166 159.32C172.166 159.533 172.086 159.715 171.926 159.864C171.777 160.024 171.595 160.104 171.382 160.104ZM169.19 160.104C168.966 160.104 168.774 160.024 168.614 159.864C168.465 159.715 168.39 159.533 168.39 159.32C168.39 159.107 168.465 158.92 168.614 158.76C168.774 158.6 168.966 158.52 169.19 158.52C169.403 158.52 169.585 158.6 169.734 158.76C169.894 158.92 169.974 159.107 169.974 159.32C169.974 159.533 169.894 159.715 169.734 159.864C169.585 160.024 169.403 160.104 169.19 160.104Z" fill="#003440"/>
<path d="M176.435 157C175.912 157 175.443 156.909 175.027 156.728C174.611 156.547 174.28 156.269 174.035 155.896C173.8 155.523 173.683 155.048 173.683 154.472C173.683 154.013 173.859 153.443 174.211 152.76C174.563 152.067 175.176 151.336 176.051 150.568L176.355 151.432L175.267 150.456L176.099 149.464C176.654 149.901 177.166 150.371 177.635 150.872C178.104 151.373 178.483 151.907 178.771 152.472C179.059 153.037 179.203 153.635 179.203 154.264C179.203 154.509 179.16 154.787 179.075 155.096C178.99 155.405 178.846 155.709 178.643 156.008C178.44 156.296 178.158 156.536 177.795 156.728C177.432 156.909 176.979 157 176.435 157ZM176.435 155.688C176.798 155.688 177.096 155.629 177.331 155.512C177.576 155.384 177.758 155.208 177.875 154.984C178.003 154.76 178.067 154.499 178.067 154.2C178.067 153.933 178.019 153.656 177.923 153.368C177.838 153.069 177.656 152.749 177.379 152.408C177.112 152.056 176.702 151.661 176.147 151.224L176.851 151.192C176.456 151.533 176.115 151.896 175.827 152.28C175.539 152.653 175.32 153.021 175.171 153.384C175.022 153.736 174.947 154.056 174.947 154.344C174.947 154.792 175.086 155.128 175.363 155.352C175.651 155.576 176.008 155.688 176.435 155.688ZM177.651 148.04C177.427 148.04 177.235 147.965 177.075 147.816C176.926 147.656 176.851 147.469 176.851 147.256C176.851 147.043 176.926 146.856 177.075 146.696C177.235 146.536 177.427 146.456 177.651 146.456C177.864 146.456 178.046 146.536 178.195 146.696C178.355 146.856 178.435 147.043 178.435 147.256C178.435 147.469 178.355 147.656 178.195 147.816C178.046 147.965 177.864 148.04 177.651 148.04ZM175.459 148.04C175.235 148.04 175.043 147.965 174.883 147.816C174.734 147.656 174.659 147.469 174.659 147.256C174.659 147.043 174.734 146.856 174.883 146.696C175.043 146.536 175.235 146.456 175.459 146.456C175.672 146.456 175.854 146.536 176.003 146.696C176.163 146.856 176.243 147.043 176.243 147.256C176.243 147.469 176.163 147.656 176.003 147.816C175.854 147.965 175.672 148.04 175.459 148.04Z" fill="#003440"/>
<path d="M190.443 157.336L190.859 156.024C192.107 156.024 193.179 155.992 194.075 155.928C194.982 155.864 195.723 155.763 196.299 155.624C196.886 155.475 197.318 155.277 197.595 155.032C197.883 154.776 198.027 154.467 198.027 154.104C198.027 153.699 197.952 153.229 197.803 152.696C197.654 152.163 197.462 151.592 197.227 150.984L198.459 150.552C198.598 150.893 198.726 151.261 198.843 151.656C198.971 152.04 199.078 152.424 199.163 152.808C199.248 153.181 199.291 153.528 199.291 153.848C199.291 154.477 199.147 155.016 198.859 155.464C198.571 155.901 198.091 156.259 197.419 156.536C196.747 156.813 195.84 157.016 194.699 157.144C193.568 157.272 192.15 157.336 190.443 157.336ZM190.443 157.336C189.494 157.336 188.656 157.272 187.931 157.144C187.216 157.027 186.619 156.84 186.139 156.584C185.659 156.328 185.296 155.997 185.051 155.592C184.806 155.176 184.683 154.675 184.683 154.088C184.683 153.821 184.704 153.549 184.747 153.272C184.79 152.984 184.843 152.696 184.907 152.408C184.982 152.12 185.056 151.843 185.131 151.576L186.331 151.88C186.288 152.04 186.24 152.232 186.187 152.456C186.134 152.669 186.086 152.888 186.043 153.112C186.011 153.336 185.995 153.539 185.995 153.72C185.995 154.275 186.134 154.723 186.411 155.064C186.699 155.395 187.195 155.64 187.899 155.8C188.603 155.949 189.59 156.024 190.859 156.024L191.179 156.824L190.443 157.336ZM191.979 160.376C191.755 160.376 191.563 160.296 191.403 160.136C191.254 159.987 191.179 159.805 191.179 159.592C191.179 159.379 191.254 159.192 191.403 159.032C191.563 158.872 191.755 158.792 191.979 158.792C192.192 158.792 192.374 158.872 192.523 159.032C192.683 159.192 192.763 159.379 192.763 159.592C192.763 159.805 192.683 159.987 192.523 160.136C192.374 160.296 192.192 160.376 191.979 160.376Z" fill="#003440"/>
<path d="M209.678 157.08C209.038 157.08 208.51 157.027 208.094 156.92C207.688 156.813 207.368 156.648 207.134 156.424C206.91 156.2 206.75 155.917 206.654 155.576C206.568 155.224 206.515 154.808 206.494 154.328L206.174 145.576H207.486L207.806 153.816C207.827 154.339 207.875 154.744 207.95 155.032C208.035 155.309 208.216 155.501 208.494 155.608C208.782 155.715 209.23 155.768 209.838 155.768C210.062 155.768 210.222 155.832 210.318 155.96C210.424 156.077 210.478 156.221 210.478 156.392C210.478 156.563 210.403 156.723 210.254 156.872C210.104 157.011 209.912 157.08 209.678 157.08ZM202.366 157.08C202.078 157.08 201.784 157.053 201.486 157C201.198 156.957 200.995 156.925 200.878 156.904L201.054 155.64C201.79 155.736 202.483 155.752 203.134 155.688C203.784 155.624 204.35 155.443 204.83 155.144C205.32 154.835 205.704 154.371 205.982 153.752C206.259 153.133 206.398 152.328 206.398 151.336L207.166 153.256C207.038 153.928 206.846 154.493 206.59 154.952C206.334 155.4 206.035 155.768 205.694 156.056C205.363 156.333 205.006 156.547 204.622 156.696C204.238 156.845 203.854 156.947 203.47 157C203.086 157.053 202.718 157.08 202.366 157.08ZM205.838 154.888C205.667 154.557 205.427 154.173 205.118 153.736C204.808 153.288 204.435 152.803 203.998 152.28C203.56 151.757 203.064 151.213 202.51 150.648C201.966 150.083 201.374 149.512 200.734 148.936L201.598 148.024C202.302 148.696 202.926 149.325 203.47 149.912C204.024 150.488 204.51 151.032 204.926 151.544C205.342 152.045 205.699 152.504 205.998 152.92C206.296 153.336 206.547 153.715 206.75 154.056L205.838 154.888Z" fill="#003440"/>
<path d="M209.672 157.08L209.816 155.768C210.424 155.768 210.851 155.709 211.096 155.592C211.341 155.475 211.48 155.267 211.512 154.968C211.555 154.669 211.565 154.253 211.544 153.72L211.272 145.576H212.6L212.856 153.688C212.877 154.232 212.963 154.659 213.112 154.968C213.272 155.267 213.485 155.475 213.752 155.592C214.019 155.709 214.312 155.768 214.632 155.768C214.856 155.768 215.016 155.832 215.112 155.96C215.219 156.077 215.272 156.221 215.272 156.392C215.272 156.563 215.197 156.723 215.048 156.872C214.899 157.011 214.707 157.08 214.472 157.08C214.024 157.08 213.651 157.011 213.352 156.872C213.064 156.723 212.835 156.536 212.664 156.312C212.504 156.077 212.397 155.832 212.344 155.576L212.68 155.608C212.573 155.928 212.397 156.2 212.152 156.424C211.917 156.637 211.597 156.803 211.192 156.92C210.787 157.027 210.28 157.08 209.672 157.08Z" fill="#003440"/>
<path d="M214.469 157.08L214.629 155.768C215.301 155.768 215.818 155.763 216.181 155.752C216.554 155.741 216.826 155.731 216.997 155.72C217.167 155.699 217.285 155.688 217.349 155.688C217.157 155.581 216.933 155.416 216.677 155.192C216.421 154.957 216.197 154.664 216.005 154.312C215.813 153.949 215.717 153.523 215.717 153.032C215.717 152.424 215.855 151.891 216.133 151.432C216.421 150.973 216.81 150.616 217.301 150.36C217.802 150.104 218.373 149.976 219.013 149.976C219.258 149.976 219.519 149.997 219.797 150.04C220.074 150.083 220.341 150.147 220.597 150.232L220.325 151.464C220.111 151.411 219.887 151.368 219.653 151.336C219.418 151.304 219.205 151.288 219.013 151.288C218.629 151.288 218.287 151.363 217.989 151.512C217.69 151.651 217.455 151.848 217.285 152.104C217.114 152.36 217.029 152.669 217.029 153.032C217.029 153.309 217.087 153.565 217.205 153.8C217.322 154.024 217.477 154.227 217.669 154.408C217.861 154.589 218.074 154.739 218.309 154.856C218.543 154.973 218.773 155.064 218.997 155.128C219.231 155.192 219.439 155.219 219.621 155.208C219.749 155.165 219.866 155.128 219.973 155.096C220.079 155.064 220.197 155.027 220.325 154.984C220.463 154.931 220.629 154.861 220.821 154.776C221.023 154.691 221.279 154.579 221.589 154.44L222.037 155.608C221.322 155.896 220.591 156.152 219.845 156.376C219.109 156.6 218.303 156.776 217.429 156.904C216.565 157.021 215.578 157.08 214.469 157.08ZM218.709 148.328C218.485 148.328 218.293 148.253 218.133 148.104C217.983 147.944 217.909 147.757 217.909 147.544C217.909 147.331 217.983 147.144 218.133 146.984C218.293 146.824 218.485 146.744 218.709 146.744C218.922 146.744 219.103 146.824 219.253 146.984C219.413 147.144 219.493 147.331 219.493 147.544C219.493 147.757 219.413 147.944 219.253 148.104C219.103 148.253 218.922 148.328 218.709 148.328Z" fill="#003440"/>
<path d="M225.748 157C225.225 157 224.756 156.909 224.34 156.728C223.924 156.547 223.593 156.269 223.348 155.896C223.113 155.523 222.996 155.048 222.996 154.472C222.996 154.013 223.172 153.443 223.524 152.76C223.876 152.067 224.489 151.336 225.364 150.568L225.668 151.432L224.58 150.456L225.412 149.464C225.966 149.901 226.478 150.371 226.948 150.872C227.417 151.373 227.796 151.907 228.084 152.472C228.372 153.037 228.516 153.635 228.516 154.264C228.516 154.509 228.473 154.787 228.388 155.096C228.302 155.405 228.158 155.709 227.956 156.008C227.753 156.296 227.47 156.536 227.108 156.728C226.745 156.909 226.292 157 225.748 157ZM225.748 155.688C226.11 155.688 226.409 155.629 226.644 155.512C226.889 155.384 227.07 155.208 227.188 154.984C227.316 154.76 227.38 154.499 227.38 154.2C227.38 153.933 227.332 153.656 227.236 153.368C227.15 153.069 226.969 152.749 226.692 152.408C226.425 152.056 226.014 151.661 225.46 151.224L226.164 151.192C225.769 151.533 225.428 151.896 225.14 152.28C224.852 152.653 224.633 153.021 224.484 153.384C224.334 153.736 224.26 154.056 224.26 154.344C224.26 154.792 224.398 155.128 224.676 155.352C224.964 155.576 225.321 155.688 225.748 155.688ZM226.964 148.04C226.74 148.04 226.548 147.965 226.388 147.816C226.238 147.656 226.164 147.469 226.164 147.256C226.164 147.043 226.238 146.856 226.388 146.696C226.548 146.536 226.74 146.456 226.964 146.456C227.177 146.456 227.358 146.536 227.508 146.696C227.668 146.856 227.748 147.043 227.748 147.256C227.748 147.469 227.668 147.656 227.508 147.816C227.358 147.965 227.177 148.04 226.964 148.04ZM224.772 148.04C224.548 148.04 224.356 147.965 224.196 147.816C224.046 147.656 223.972 147.469 223.972 147.256C223.972 147.043 224.046 146.856 224.196 146.696C224.356 146.536 224.548 146.456 224.772 146.456C224.985 146.456 225.166 146.536 225.316 146.696C225.476 146.856 225.556 147.043 225.556 147.256C225.556 147.469 225.476 147.656 225.316 147.816C225.166 147.965 224.985 148.04 224.772 148.04Z" fill="#003440"/>
<path d="M93.5059 177.08C92.8659 177.08 92.3379 177.027 91.9219 176.92C91.5165 176.813 91.1965 176.648 90.9619 176.424C90.7379 176.2 90.5779 175.917 90.4819 175.576C90.3965 175.224 90.3432 174.808 90.3219 174.328L90.0019 165.576H91.3139L91.6339 173.816C91.6552 174.339 91.7032 174.744 91.7779 175.032C91.8632 175.309 92.0445 175.501 92.3219 175.608C92.6099 175.715 93.0579 175.768 93.6659 175.768C93.8899 175.768 94.0499 175.832 94.1459 175.96C94.2525 176.077 94.3059 176.221 94.3059 176.392C94.3059 176.563 94.2312 176.723 94.0819 176.872C93.9325 177.011 93.7405 177.08 93.5059 177.08ZM86.1939 177.08C85.9059 177.08 85.6125 177.053 85.3139 177C85.0259 176.957 84.8232 176.925 84.7059 176.904L84.8819 175.64C85.6179 175.736 86.3112 175.752 86.9619 175.688C87.6125 175.624 88.1779 175.443 88.6579 175.144C89.1485 174.835 89.5325 174.371 89.8099 173.752C90.0872 173.133 90.2259 172.328 90.2259 171.336L90.9939 173.256C90.8659 173.928 90.6739 174.493 90.4179 174.952C90.1619 175.4 89.8632 175.768 89.5219 176.056C89.1912 176.333 88.8339 176.547 88.4499 176.696C88.0659 176.845 87.6819 176.947 87.2979 177C86.9139 177.053 86.5459 177.08 86.1939 177.08ZM89.6659 174.888C89.4952 174.557 89.2552 174.173 88.9459 173.736C88.6365 173.288 88.2632 172.803 87.8259 172.28C87.3885 171.757 86.8925 171.213 86.3379 170.648C85.7939 170.083 85.2019 169.512 84.5619 168.936L85.4259 168.024C86.1299 168.696 86.7539 169.325 87.2979 169.912C87.8525 170.488 88.3379 171.032 88.7539 171.544C89.1699 172.045 89.5272 172.504 89.8259 172.92C90.1245 173.336 90.3752 173.715 90.5779 174.056L89.6659 174.888Z" fill="#003440"/>
<path d="M93.5 177.08L93.66 175.768C94.332 175.768 94.8493 175.763 95.212 175.752C95.5853 175.741 95.8573 175.731 96.028 175.72C96.1987 175.699 96.316 175.688 96.38 175.688C96.188 175.581 95.964 175.416 95.708 175.192C95.452 174.957 95.228 174.664 95.036 174.312C94.844 173.949 94.748 173.523 94.748 173.032C94.748 172.424 94.8867 171.891 95.164 171.432C95.452 170.973 95.8413 170.616 96.332 170.36C96.8333 170.104 97.404 169.976 98.044 169.976C98.2893 169.976 98.5507 169.997 98.828 170.04C99.1053 170.083 99.372 170.147 99.628 170.232L99.356 171.464C99.1427 171.411 98.9187 171.368 98.684 171.336C98.4493 171.304 98.236 171.288 98.044 171.288C97.66 171.288 97.3187 171.363 97.02 171.512C96.7213 171.651 96.4867 171.848 96.316 172.104C96.1453 172.36 96.06 172.669 96.06 173.032C96.06 173.309 96.1187 173.565 96.236 173.8C96.3533 174.024 96.508 174.227 96.7 174.408C96.892 174.589 97.1053 174.739 97.34 174.856C97.5747 174.973 97.804 175.064 98.028 175.128C98.2627 175.192 98.4707 175.219 98.652 175.208C98.78 175.165 98.8973 175.128 99.004 175.096C99.1107 175.064 99.228 175.027 99.356 174.984C99.4947 174.931 99.66 174.861 99.852 174.776C100.055 174.691 100.311 174.579 100.62 174.44L101.068 175.608C100.353 175.896 99.6227 176.152 98.876 176.376C98.14 176.6 97.3347 176.776 96.46 176.904C95.596 177.021 94.6093 177.08 93.5 177.08Z" fill="#003440"/>
<path d="M101.205 180.712L100.741 179.496C101.519 179.24 102.165 178.947 102.677 178.616C103.199 178.285 103.61 177.933 103.909 177.56C104.218 177.187 104.437 176.808 104.565 176.424C104.693 176.029 104.757 175.651 104.757 175.288C104.757 174.765 104.639 174.237 104.405 173.704C104.181 173.16 103.93 172.648 103.653 172.168L104.821 171.576C105.023 171.949 105.199 172.317 105.349 172.68C105.509 173.043 105.647 173.384 105.765 173.704C105.893 174.024 105.994 174.317 106.069 174.584C106.218 175.043 106.41 175.357 106.645 175.528C106.89 175.688 107.221 175.768 107.637 175.768C107.861 175.768 108.021 175.832 108.117 175.96C108.223 176.077 108.277 176.221 108.277 176.392C108.277 176.563 108.202 176.723 108.053 176.872C107.903 177.011 107.711 177.08 107.477 177.08C107.007 177.08 106.623 177 106.325 176.84C106.037 176.669 105.818 176.451 105.669 176.184C105.519 175.907 105.418 175.619 105.365 175.32L105.877 175.608C105.877 176.312 105.717 176.952 105.397 177.528C105.087 178.115 104.687 178.621 104.197 179.048C103.706 179.485 103.194 179.843 102.661 180.12C102.127 180.397 101.642 180.595 101.205 180.712Z" fill="#003440"/>
<path d="M107.484 177.08L107.644 175.768C108.092 175.768 108.444 175.731 108.7 175.656C108.956 175.571 109.148 175.416 109.276 175.192C109.415 174.957 109.532 174.621 109.628 174.184C109.724 173.747 109.842 173.176 109.98 172.472L111.228 172.712C111.186 172.904 111.138 173.117 111.084 173.352C111.031 173.587 110.983 173.821 110.94 174.056C110.908 174.28 110.892 174.477 110.892 174.648C110.892 174.861 110.94 175.053 111.036 175.224C111.132 175.395 111.34 175.528 111.66 175.624C111.98 175.72 112.471 175.768 113.132 175.768C113.356 175.768 113.516 175.832 113.612 175.96C113.719 176.077 113.772 176.221 113.772 176.392C113.772 176.563 113.698 176.723 113.548 176.872C113.399 177.011 113.207 177.08 112.972 177.08C112.279 177.08 111.735 177.021 111.34 176.904C110.946 176.776 110.658 176.589 110.476 176.344C110.295 176.088 110.172 175.779 110.108 175.416L110.588 175.448C110.418 175.789 110.231 176.067 110.028 176.28C109.836 176.493 109.623 176.659 109.388 176.776C109.154 176.893 108.882 176.973 108.572 177.016C108.263 177.059 107.9 177.08 107.484 177.08ZM110.204 180.056C109.98 180.056 109.788 179.976 109.628 179.816C109.479 179.667 109.404 179.485 109.404 179.272C109.404 179.059 109.479 178.872 109.628 178.712C109.788 178.552 109.98 178.472 110.204 178.472C110.418 178.472 110.599 178.552 110.748 178.712C110.908 178.872 110.988 179.059 110.988 179.272C110.988 179.485 110.908 179.667 110.748 179.816C110.599 179.976 110.418 180.056 110.204 180.056Z" fill="#003440"/>
<path d="M112.969 177.08L113.129 175.768C113.758 175.768 114.249 175.747 114.601 175.704C114.953 175.651 115.203 175.528 115.353 175.336C115.502 175.133 115.577 174.819 115.577 174.392C115.577 174.125 115.534 173.811 115.449 173.448C115.363 173.075 115.251 172.68 115.113 172.264C114.974 171.848 114.825 171.437 114.665 171.032L115.961 170.552C116.099 170.893 116.227 171.283 116.345 171.72C116.473 172.157 116.579 172.589 116.665 173.016C116.75 173.443 116.793 173.816 116.793 174.136C116.793 174.669 116.718 175.123 116.569 175.496C116.43 175.869 116.206 176.173 115.897 176.408C115.587 176.643 115.187 176.813 114.697 176.92C114.217 177.027 113.641 177.08 112.969 177.08ZM115.929 180.104C115.705 180.104 115.513 180.024 115.353 179.864C115.203 179.715 115.129 179.533 115.129 179.32C115.129 179.107 115.203 178.92 115.353 178.76C115.513 178.6 115.705 178.52 115.929 178.52C116.142 178.52 116.323 178.6 116.473 178.76C116.633 178.92 116.713 179.107 116.713 179.32C116.713 179.533 116.633 179.715 116.473 179.864C116.323 180.024 116.142 180.104 115.929 180.104ZM113.737 180.104C113.513 180.104 113.321 180.024 113.161 179.864C113.011 179.715 112.937 179.533 112.937 179.32C112.937 179.107 113.011 178.92 113.161 178.76C113.321 178.6 113.513 178.52 113.737 178.52C113.95 178.52 114.131 178.6 114.281 178.76C114.441 178.92 114.521 179.107 114.521 179.32C114.521 179.533 114.441 179.715 114.281 179.864C114.131 180.024 113.95 180.104 113.737 180.104Z" fill="#003440"/>
<path d="M120.982 177C120.459 177 119.99 176.909 119.574 176.728C119.158 176.547 118.827 176.269 118.582 175.896C118.347 175.523 118.23 175.048 118.23 174.472C118.23 174.013 118.406 173.443 118.758 172.76C119.11 172.067 119.723 171.336 120.598 170.568L120.902 171.432L119.814 170.456L120.646 169.464C121.201 169.901 121.713 170.371 122.182 170.872C122.651 171.373 123.03 171.907 123.318 172.472C123.606 173.037 123.75 173.635 123.75 174.264C123.75 174.509 123.707 174.787 123.622 175.096C123.537 175.405 123.393 175.709 123.19 176.008C122.987 176.296 122.705 176.536 122.342 176.728C121.979 176.909 121.526 177 120.982 177ZM120.982 175.688C121.345 175.688 121.643 175.629 121.878 175.512C122.123 175.384 122.305 175.208 122.422 174.984C122.55 174.76 122.614 174.499 122.614 174.2C122.614 173.933 122.566 173.656 122.47 173.368C122.385 173.069 122.203 172.749 121.926 172.408C121.659 172.056 121.249 171.661 120.694 171.224L121.398 171.192C121.003 171.533 120.662 171.896 120.374 172.28C120.086 172.653 119.867 173.021 119.718 173.384C119.569 173.736 119.494 174.056 119.494 174.344C119.494 174.792 119.633 175.128 119.91 175.352C120.198 175.576 120.555 175.688 120.982 175.688ZM122.198 168.04C121.974 168.04 121.782 167.965 121.622 167.816C121.473 167.656 121.398 167.469 121.398 167.256C121.398 167.043 121.473 166.856 121.622 166.696C121.782 166.536 121.974 166.456 122.198 166.456C122.411 166.456 122.593 166.536 122.742 166.696C122.902 166.856 122.982 167.043 122.982 167.256C122.982 167.469 122.902 167.656 122.742 167.816C122.593 167.965 122.411 168.04 122.198 168.04ZM120.006 168.04C119.782 168.04 119.59 167.965 119.43 167.816C119.281 167.656 119.206 167.469 119.206 167.256C119.206 167.043 119.281 166.856 119.43 166.696C119.59 166.536 119.782 166.456 120.006 166.456C120.219 166.456 120.401 166.536 120.55 166.696C120.71 166.856 120.79 167.043 120.79 167.256C120.79 167.469 120.71 167.656 120.55 167.816C120.401 167.965 120.219 168.04 120.006 168.04Z" fill="#003440"/>
<path d="M126.609 177.078C127.172 177.078 127.625 176.617 127.625 176.062C127.625 175.5 127.172 175.047 126.609 175.047C126.055 175.047 125.594 175.5 125.594 176.062C125.594 176.617 126.055 177.078 126.609 177.078Z" fill="#003440"/>
<path d="M138.156 177.08C137.303 177.08 136.647 176.984 136.188 176.792C135.74 176.6 135.431 176.301 135.26 175.896C135.089 175.491 134.993 174.968 134.972 174.328L134.652 165.576H135.964L136.284 173.816C136.305 174.339 136.353 174.744 136.428 175.032C136.513 175.309 136.695 175.501 136.972 175.608C137.26 175.715 137.708 175.768 138.316 175.768C138.54 175.768 138.7 175.832 138.796 175.96C138.903 176.077 138.956 176.221 138.956 176.392C138.956 176.563 138.881 176.723 138.732 176.872C138.583 177.011 138.391 177.08 138.156 177.08ZM134.604 181.848L134.412 180.984C134.689 180.92 134.913 180.867 135.084 180.824C135.255 180.781 135.447 180.733 135.66 180.68L135.58 181.016C135.303 180.931 135.036 180.749 134.78 180.472C134.535 180.195 134.412 179.88 134.412 179.528C134.412 179.208 134.487 178.936 134.636 178.712C134.796 178.499 134.999 178.339 135.244 178.232C135.5 178.125 135.772 178.072 136.06 178.072C136.177 178.072 136.3 178.083 136.428 178.104C136.567 178.125 136.695 178.157 136.812 178.2L136.684 179C136.577 178.979 136.476 178.957 136.38 178.936C136.284 178.915 136.177 178.904 136.06 178.904C135.815 178.904 135.623 178.952 135.484 179.048C135.345 179.155 135.276 179.299 135.276 179.48C135.276 179.704 135.345 179.896 135.484 180.056C135.633 180.216 135.799 180.339 135.98 180.424C136.172 180.52 136.327 180.568 136.444 180.568L135.788 180.632C136.076 180.557 136.343 180.477 136.588 180.392C136.844 180.317 137.073 180.243 137.276 180.168L137.532 180.984C137.276 181.08 136.972 181.181 136.62 181.288C136.279 181.395 135.932 181.496 135.58 181.592C135.228 181.688 134.903 181.773 134.604 181.848Z" fill="#003440"/>
<path d="M138.156 177.08L138.316 175.768C138.764 175.768 139.116 175.731 139.372 175.656C139.628 175.571 139.82 175.416 139.948 175.192C140.087 174.957 140.204 174.621 140.3 174.184C140.396 173.747 140.514 173.176 140.652 172.472L141.9 172.712C141.858 172.904 141.81 173.117 141.756 173.352C141.703 173.587 141.655 173.821 141.612 174.056C141.58 174.28 141.564 174.477 141.564 174.648C141.564 174.861 141.612 175.053 141.708 175.224C141.804 175.395 142.012 175.528 142.332 175.624C142.652 175.72 143.143 175.768 143.804 175.768C144.028 175.768 144.188 175.832 144.284 175.96C144.391 176.077 144.444 176.221 144.444 176.392C144.444 176.563 144.37 176.723 144.22 176.872C144.071 177.011 143.879 177.08 143.644 177.08C142.951 177.08 142.407 177.021 142.012 176.904C141.618 176.776 141.33 176.589 141.148 176.344C140.967 176.088 140.844 175.779 140.78 175.416L141.26 175.448C141.09 175.789 140.903 176.067 140.7 176.28C140.508 176.493 140.295 176.659 140.06 176.776C139.826 176.893 139.554 176.973 139.244 177.016C138.935 177.059 138.572 177.08 138.156 177.08ZM140.652 170.824C140.428 170.824 140.236 170.749 140.076 170.6C139.927 170.44 139.852 170.253 139.852 170.04C139.852 169.827 139.927 169.64 140.076 169.48C140.236 169.32 140.428 169.24 140.652 169.24C140.866 169.24 141.047 169.32 141.196 169.48C141.356 169.64 141.436 169.827 141.436 170.04C141.436 170.253 141.356 170.44 141.196 170.6C141.047 170.749 140.866 170.824 140.652 170.824Z" fill="#003440"/>
<path d="M149.801 177.128C149.363 177.128 148.915 177.069 148.457 176.952C147.998 176.824 147.555 176.648 147.129 176.424C146.713 176.2 146.334 175.928 145.993 175.608C145.662 175.277 145.395 174.909 145.193 174.504C145.001 174.099 144.905 173.661 144.905 173.192C144.905 172.712 145.001 172.269 145.193 171.864C145.395 171.459 145.678 171.133 146.041 170.888C146.414 170.632 146.846 170.504 147.337 170.504C147.817 170.504 148.227 170.637 148.569 170.904C148.91 171.16 149.171 171.496 149.353 171.912C149.545 172.317 149.641 172.744 149.641 173.192C149.641 173.811 149.465 174.365 149.113 174.856C148.771 175.336 148.307 175.741 147.721 176.072C147.134 176.403 146.489 176.653 145.785 176.824C145.081 176.995 144.366 177.08 143.641 177.08L143.801 175.768C144.377 175.768 144.889 175.731 145.337 175.656C145.795 175.571 146.19 175.459 146.521 175.32C147.011 175.128 147.395 174.899 147.673 174.632C147.961 174.355 148.163 174.072 148.281 173.784C148.398 173.496 148.457 173.235 148.457 173C148.457 172.776 148.409 172.563 148.313 172.36C148.227 172.147 148.099 171.976 147.929 171.848C147.769 171.709 147.571 171.64 147.337 171.64C147.102 171.64 146.889 171.709 146.697 171.848C146.515 171.976 146.371 172.147 146.265 172.36C146.158 172.573 146.105 172.797 146.105 173.032C146.105 173.48 146.217 173.88 146.441 174.232C146.675 174.573 146.974 174.867 147.337 175.112C147.71 175.357 148.105 175.544 148.521 175.672C148.947 175.8 149.353 175.864 149.737 175.864C150.099 175.864 150.366 175.805 150.537 175.688C150.707 175.56 150.793 175.352 150.793 175.064C150.793 175.011 150.777 174.915 150.745 174.776C150.723 174.627 150.638 174.424 150.489 174.168C150.35 173.912 150.11 173.597 149.769 173.224C149.427 172.84 148.947 172.387 148.329 171.864C147.71 171.331 146.91 170.712 145.929 170.008L146.681 169.016C147.705 169.763 148.547 170.424 149.209 171C149.881 171.565 150.409 172.061 150.793 172.488C151.187 172.904 151.475 173.272 151.657 173.592C151.849 173.901 151.971 174.179 152.025 174.424C152.078 174.659 152.105 174.883 152.105 175.096C152.105 175.448 152.025 175.779 151.865 176.088C151.715 176.397 151.47 176.648 151.129 176.84C150.798 177.032 150.355 177.128 149.801 177.128Z" fill="#003440"/>
<path d="M161.968 177.08C161.114 177.08 160.464 176.984 160.016 176.792C159.568 176.6 159.258 176.301 159.088 175.896C158.917 175.491 158.816 174.968 158.784 174.328L158.496 166.696H159.808L160.096 173.816C160.117 174.339 160.165 174.744 160.24 175.032C160.325 175.309 160.506 175.501 160.784 175.608C161.072 175.715 161.52 175.768 162.128 175.768C162.352 175.768 162.512 175.832 162.608 175.96C162.714 176.077 162.768 176.221 162.768 176.392C162.768 176.563 162.693 176.723 162.544 176.872C162.394 177.011 162.202 177.08 161.968 177.08ZM157.696 165.736L157.504 164.872C157.781 164.808 158.005 164.755 158.176 164.712C158.346 164.669 158.538 164.621 158.752 164.568L158.672 164.904C158.394 164.819 158.128 164.637 157.872 164.36C157.626 164.083 157.504 163.768 157.504 163.416C157.504 163.096 157.578 162.829 157.728 162.616C157.888 162.392 158.09 162.227 158.336 162.12C158.592 162.013 158.864 161.96 159.152 161.96C159.269 161.96 159.392 161.971 159.52 161.992C159.658 162.013 159.786 162.045 159.904 162.088L159.776 162.888C159.669 162.867 159.568 162.845 159.472 162.824C159.376 162.803 159.269 162.792 159.152 162.792C158.906 162.792 158.714 162.845 158.576 162.952C158.437 163.048 158.368 163.187 158.368 163.368C158.368 163.592 158.437 163.784 158.576 163.944C158.725 164.104 158.89 164.232 159.072 164.328C159.264 164.413 159.418 164.456 159.536 164.456L158.88 164.52C159.168 164.445 159.434 164.371 159.68 164.296C159.936 164.211 160.165 164.131 160.368 164.056L160.624 164.872C160.368 164.968 160.064 165.069 159.712 165.176C159.37 165.283 159.024 165.384 158.672 165.48C158.32 165.576 157.994 165.661 157.696 165.736Z" fill="#003440"/>
<path d="M161.968 177.08L162.128 175.768H163.361C164.246 175.768 164.902 175.72 165.329 175.624C165.755 175.528 166.033 175.4 166.161 175.24C166.299 175.08 166.369 174.915 166.369 174.744C166.369 174.488 166.273 174.205 166.081 173.896C165.889 173.587 165.643 173.272 165.345 172.952C165.046 172.621 164.726 172.296 164.385 171.976C164.054 171.656 163.739 171.363 163.441 171.096C163.142 170.829 162.897 170.6 162.705 170.408C162.513 170.205 162.417 170.061 162.417 169.976C162.417 169.816 162.427 169.661 162.449 169.512C162.481 169.363 162.518 169.224 162.561 169.096C162.614 168.968 162.678 168.867 162.753 168.792C162.966 168.568 163.259 168.333 163.633 168.088C164.006 167.832 164.438 167.576 164.929 167.32C165.419 167.053 165.942 166.787 166.497 166.52C167.051 166.243 167.611 165.965 168.177 165.688L168.721 166.872C168.209 167.128 167.697 167.384 167.185 167.64C166.673 167.885 166.177 168.131 165.697 168.376C165.217 168.621 164.763 168.872 164.337 169.128C163.921 169.373 163.542 169.624 163.201 169.88L163.297 169.336C163.777 169.741 164.23 170.131 164.657 170.504C165.083 170.877 165.489 171.261 165.873 171.656C166.257 172.04 166.614 172.456 166.945 172.904C167.275 173.352 167.585 173.848 167.873 174.392C168.097 174.808 168.358 175.112 168.657 175.304C168.955 175.496 169.249 175.624 169.537 175.688C169.835 175.741 170.075 175.768 170.257 175.768C170.481 175.768 170.641 175.832 170.737 175.96C170.843 176.077 170.897 176.221 170.897 176.392C170.897 176.563 170.822 176.723 170.673 176.872C170.523 177.011 170.331 177.08 170.097 177.08C169.809 177.08 169.467 177.037 169.073 176.952C168.689 176.856 168.31 176.675 167.937 176.408C167.563 176.141 167.254 175.736 167.009 175.192L167.489 175.384C167.329 175.672 167.142 175.923 166.929 176.136C166.726 176.339 166.465 176.515 166.145 176.664C165.825 176.803 165.435 176.909 164.977 176.984C164.518 177.048 163.958 177.08 163.297 177.08H161.968Z" fill="#003440"/>
<path d="M170.094 177.08L170.254 175.768C170.883 175.768 171.374 175.747 171.726 175.704C172.078 175.651 172.328 175.528 172.478 175.336C172.627 175.133 172.702 174.819 172.702 174.392C172.702 174.125 172.659 173.811 172.574 173.448C172.488 173.075 172.376 172.68 172.238 172.264C172.099 171.848 171.95 171.437 171.79 171.032L173.086 170.552C173.224 170.893 173.352 171.283 173.47 171.72C173.598 172.157 173.704 172.589 173.79 173.016C173.875 173.443 173.918 173.816 173.918 174.136C173.918 174.669 173.843 175.123 173.694 175.496C173.555 175.869 173.331 176.173 173.022 176.408C172.712 176.643 172.312 176.813 171.822 176.92C171.342 177.027 170.766 177.08 170.094 177.08ZM172.494 167.128C172.27 167.128 172.078 167.053 171.918 166.904C171.768 166.744 171.694 166.557 171.694 166.344C171.694 166.131 171.768 165.944 171.918 165.784C172.078 165.624 172.27 165.544 172.494 165.544C172.707 165.544 172.888 165.624 173.038 165.784C173.198 165.944 173.278 166.131 173.278 166.344C173.278 166.557 173.198 166.744 173.038 166.904C172.888 167.053 172.707 167.128 172.494 167.128ZM171.406 168.888C171.182 168.888 170.99 168.813 170.83 168.664C170.68 168.504 170.606 168.317 170.606 168.104C170.606 167.891 170.68 167.704 170.83 167.544C170.99 167.384 171.182 167.304 171.406 167.304C171.619 167.304 171.8 167.384 171.95 167.544C172.11 167.704 172.19 167.891 172.19 168.104C172.19 168.317 172.11 168.504 171.95 168.664C171.8 168.813 171.619 168.888 171.406 168.888ZM173.582 168.888C173.358 168.888 173.166 168.813 173.006 168.664C172.856 168.504 172.782 168.317 172.782 168.104C172.782 167.891 172.856 167.704 173.006 167.544C173.166 167.384 173.358 167.304 173.582 167.304C173.795 167.304 173.976 167.384 174.126 167.544C174.286 167.704 174.366 167.891 174.366 168.104C174.366 168.317 174.286 168.504 174.126 168.664C173.976 168.813 173.795 168.888 173.582 168.888Z" fill="#003440"/>
<path d="M174.455 180.68L173.991 179.464C175.068 179.123 175.895 178.712 176.471 178.232C177.057 177.763 177.457 177.272 177.671 176.76C177.895 176.248 178.007 175.757 178.007 175.288C178.007 174.989 177.975 174.701 177.911 174.424C177.847 174.147 177.735 173.832 177.575 173.48C177.415 173.128 177.191 172.691 176.903 172.168L178.071 171.576C178.476 172.269 178.764 172.925 178.935 173.544C179.116 174.163 179.207 174.707 179.207 175.176C179.207 175.848 179.095 176.456 178.871 177C178.657 177.544 178.369 178.024 178.007 178.44C177.655 178.867 177.265 179.229 176.839 179.528C176.423 179.827 176.001 180.072 175.575 180.264C175.159 180.456 174.785 180.595 174.455 180.68Z" fill="#003440"/>
<path d="M189.789 180.712C189.181 180.712 188.605 180.627 188.061 180.456C187.517 180.296 187.032 180.056 186.605 179.736C186.189 179.416 185.859 179.027 185.613 178.568C185.379 178.12 185.261 177.603 185.261 177.016C185.261 176.76 185.283 176.488 185.325 176.2C185.379 175.901 185.453 175.587 185.549 175.256C185.656 174.915 185.784 174.557 185.933 174.184L187.085 174.632C186.979 174.931 186.883 175.213 186.797 175.48C186.723 175.747 186.664 175.997 186.621 176.232C186.589 176.467 186.573 176.691 186.573 176.904C186.573 177.448 186.717 177.907 187.005 178.28C187.304 178.653 187.699 178.931 188.189 179.112C188.691 179.304 189.24 179.4 189.837 179.4C190.563 179.4 191.171 179.315 191.661 179.144C192.152 178.984 192.541 178.765 192.829 178.488C193.117 178.221 193.32 177.917 193.437 177.576C193.565 177.245 193.629 176.915 193.629 176.584C193.629 176.115 193.592 175.672 193.517 175.256C193.453 174.84 193.363 174.435 193.245 174.04C193.139 173.635 193.021 173.224 192.893 172.808L194.189 172.456C194.36 173.064 194.477 173.507 194.541 173.784C194.616 174.051 194.675 174.269 194.717 174.44C194.835 174.835 194.968 175.128 195.117 175.32C195.277 175.501 195.459 175.624 195.661 175.688C195.875 175.741 196.115 175.768 196.381 175.768C196.595 175.768 196.781 175.741 196.941 175.688C197.112 175.635 197.267 175.507 197.405 175.304C197.555 175.101 197.683 174.776 197.789 174.328C197.907 173.88 198.013 173.267 198.109 172.488L199.325 172.712C199.293 172.904 199.256 173.139 199.213 173.416C199.171 173.693 199.128 173.971 199.085 174.248C199.053 174.515 199.037 174.739 199.037 174.92C199.037 175.069 199.069 175.213 199.133 175.352C199.208 175.48 199.347 175.581 199.549 175.656C199.763 175.731 200.077 175.768 200.493 175.768C201.027 175.768 201.411 175.656 201.645 175.432C201.891 175.208 202.013 174.867 202.013 174.408C202.013 174.163 202.008 173.907 201.997 173.64C201.987 173.363 201.965 173.059 201.933 172.728C201.912 172.387 201.875 171.997 201.821 171.56L202.989 171.48C203.053 172.344 203.123 173.053 203.197 173.608C203.283 174.163 203.4 174.6 203.549 174.92C203.709 175.229 203.923 175.448 204.189 175.576C204.456 175.704 204.808 175.768 205.245 175.768C205.469 175.768 205.629 175.832 205.725 175.96C205.832 176.077 205.885 176.221 205.885 176.392C205.885 176.563 205.811 176.723 205.661 176.872C205.512 177.011 205.32 177.08 205.085 177.08C204.605 177.08 204.189 176.995 203.837 176.824C203.496 176.653 203.219 176.424 203.005 176.136C202.803 175.837 202.664 175.517 202.589 175.176L202.877 175.272C202.76 175.752 202.573 176.125 202.317 176.392C202.072 176.648 201.779 176.829 201.437 176.936C201.096 177.032 200.733 177.08 200.349 177.08C199.88 177.08 199.496 177.021 199.197 176.904C198.899 176.787 198.664 176.611 198.493 176.376C198.333 176.131 198.227 175.821 198.173 175.448H198.717C198.547 175.832 198.355 176.147 198.141 176.392C197.928 176.627 197.672 176.803 197.373 176.92C197.085 177.027 196.728 177.08 196.301 177.08C195.971 177.08 195.688 177.037 195.453 176.952C195.219 176.856 195.021 176.739 194.861 176.6C194.712 176.451 194.595 176.285 194.509 176.104C194.424 175.912 194.36 175.72 194.317 175.528L194.973 176.344C194.931 176.877 194.819 177.4 194.637 177.912C194.467 178.435 194.189 178.904 193.805 179.32C193.421 179.747 192.904 180.083 192.253 180.328C191.603 180.584 190.781 180.712 189.789 180.712ZM197.965 168.28C197.741 168.28 197.549 168.205 197.389 168.056C197.24 167.896 197.165 167.709 197.165 167.496C197.165 167.283 197.24 167.096 197.389 166.936C197.549 166.776 197.741 166.696 197.965 166.696C198.179 166.696 198.36 166.776 198.509 166.936C198.669 167.096 198.749 167.283 198.749 167.496C198.749 167.709 198.669 167.896 198.509 168.056C198.36 168.205 198.179 168.28 197.965 168.28ZM196.877 170.04C196.653 170.04 196.461 169.965 196.301 169.816C196.152 169.656 196.077 169.469 196.077 169.256C196.077 169.043 196.152 168.856 196.301 168.696C196.461 168.536 196.653 168.456 196.877 168.456C197.091 168.456 197.272 168.536 197.421 168.696C197.581 168.856 197.661 169.043 197.661 169.256C197.661 169.469 197.581 169.656 197.421 169.816C197.272 169.965 197.091 170.04 196.877 170.04ZM199.053 170.04C198.829 170.04 198.637 169.965 198.477 169.816C198.328 169.656 198.253 169.469 198.253 169.256C198.253 169.043 198.328 168.856 198.477 168.696C198.637 168.536 198.829 168.456 199.053 168.456C199.267 168.456 199.448 168.536 199.597 168.696C199.757 168.856 199.837 169.043 199.837 169.256C199.837 169.469 199.757 169.656 199.597 169.816C199.448 169.965 199.267 170.04 199.053 170.04Z" fill="#003440"/>
<path d="M205.078 177.08L205.238 175.768C205.537 175.768 205.787 175.704 205.99 175.576C206.193 175.448 206.39 175.235 206.582 174.936C206.774 174.637 206.982 174.237 207.206 173.736C207.515 173.053 207.819 172.536 208.118 172.184C208.427 171.832 208.731 171.592 209.03 171.464C209.339 171.336 209.643 171.272 209.942 171.272C210.305 171.272 210.641 171.368 210.95 171.56C211.259 171.741 211.531 171.987 211.766 172.296C212.001 172.605 212.182 172.947 212.31 173.32C212.449 173.683 212.518 174.045 212.518 174.408C212.518 175.048 212.406 175.56 212.182 175.944C211.958 176.317 211.67 176.589 211.318 176.76C210.977 176.92 210.619 177 210.246 177C209.915 177 209.489 176.936 208.966 176.808C208.454 176.68 207.803 176.355 207.014 175.832L207.638 174.824C208.161 175.155 208.63 175.384 209.046 175.512C209.473 175.629 209.825 175.688 210.102 175.688C210.411 175.688 210.657 175.645 210.838 175.56C211.019 175.464 211.153 175.331 211.238 175.16C211.323 174.989 211.366 174.797 211.366 174.584C211.366 174.275 211.291 173.965 211.142 173.656C210.993 173.347 210.801 173.091 210.566 172.888C210.342 172.685 210.102 172.584 209.846 172.584C209.654 172.584 209.467 172.637 209.286 172.744C209.105 172.851 208.918 173.048 208.726 173.336C208.534 173.624 208.315 174.04 208.07 174.584C207.814 175.16 207.569 175.619 207.334 175.96C207.11 176.291 206.881 176.536 206.646 176.696C206.411 176.856 206.166 176.957 205.91 177C205.665 177.053 205.387 177.08 205.078 177.08Z" fill="#003440"/>
<path d="M214.412 180.68L214.124 179.368C214.764 179.283 215.351 179.16 215.884 179C216.428 178.851 216.892 178.632 217.276 178.344C217.671 178.056 217.975 177.677 218.188 177.208C218.402 176.739 218.508 176.152 218.508 175.448C218.508 174.723 218.375 174.12 218.108 173.64C217.842 173.16 217.495 172.92 217.068 172.92C216.844 172.92 216.636 173.005 216.444 173.176C216.252 173.347 216.092 173.576 215.964 173.864C215.847 174.152 215.788 174.467 215.788 174.808C215.788 175 215.831 175.16 215.916 175.288C216.002 175.405 216.124 175.501 216.284 175.576C216.455 175.64 216.668 175.688 216.924 175.72C217.18 175.752 217.479 175.768 217.82 175.768H221.196C221.42 175.768 221.58 175.832 221.676 175.96C221.783 176.077 221.836 176.221 221.836 176.392C221.836 176.563 221.762 176.723 221.612 176.872C221.463 177.011 221.271 177.08 221.036 177.08H217.212C216.732 177.08 216.284 177.011 215.868 176.872C215.463 176.733 215.132 176.52 214.876 176.232C214.631 175.933 214.508 175.544 214.508 175.064C214.508 174.616 214.578 174.189 214.716 173.784C214.855 173.368 215.042 173 215.276 172.68C215.522 172.349 215.804 172.088 216.124 171.896C216.455 171.704 216.812 171.608 217.196 171.608C217.687 171.608 218.124 171.752 218.508 172.04C218.892 172.328 219.196 172.765 219.42 173.352C219.644 173.928 219.756 174.659 219.756 175.544C219.756 176.536 219.554 177.389 219.148 178.104C218.754 178.829 218.156 179.405 217.356 179.832C216.567 180.259 215.586 180.541 214.412 180.68Z" fill="#003440"/>
<path d="M221.031 177.08L221.175 175.768C221.783 175.768 222.21 175.709 222.455 175.592C222.701 175.475 222.839 175.267 222.871 174.968C222.914 174.669 222.925 174.253 222.903 173.72L222.599 165.576H223.895L224.215 173.576C224.237 174.141 224.215 174.643 224.151 175.08C224.098 175.517 223.959 175.885 223.735 176.184C223.522 176.483 223.197 176.707 222.759 176.856C222.333 177.005 221.757 177.08 221.031 177.08Z" fill="#003440"/>
<path d="M225.171 161.688V160.792L228.755 159.736V160.648L225.171 161.688ZM225.171 163.368V162.472L228.755 161.416V162.328L225.171 163.368Z" fill="#003440"/>
<path d="M226.66 177L226.339 165.576H227.635L227.956 177H226.66Z" fill="#003440"/>
<path d="M19.5 16L19.5 193M229.5 16L229.5 193" stroke="#EE376A"/>
</svg>
