<svg width="244" height="174" viewBox="0 0 244 174" fill="none" xmlns="http://www.w3.org/2000/svg">
<path d="M162.533 42H164.769L161.344 32.1357H158.917L155.492 42H157.563L158.322 39.6074H161.788L162.533 42ZM160.004 34.1387H160.127L161.351 38.0625H158.767L160.004 34.1387Z" fill="#003440"/>
<path d="M166.252 42H168.241V37.4609C168.241 36.5996 168.795 35.9707 169.574 35.9707C170.354 35.9707 170.818 36.4355 170.818 37.2422V42H172.732V37.3721C172.732 36.5586 173.252 35.9707 174.059 35.9707C174.899 35.9707 175.316 36.4219 175.316 37.3311V42H177.306V36.832C177.306 35.2803 176.369 34.3096 174.865 34.3096C173.812 34.3096 172.944 34.8633 172.596 35.6973H172.473C172.172 34.8359 171.447 34.3096 170.388 34.3096C169.396 34.3096 168.61 34.8359 168.303 35.6973H168.18V34.4736H166.252V42Z" fill="#003440"/>
<path d="M182.583 42.1572C184.9 42.1572 186.295 40.6943 186.295 38.2334C186.295 35.793 184.88 34.3096 182.583 34.3096C180.286 34.3096 178.871 35.7998 178.871 38.2334C178.871 40.6875 180.266 42.1572 182.583 42.1572ZM182.583 40.585C181.517 40.585 180.915 39.7236 180.915 38.2334C180.915 36.7568 181.523 35.8887 182.583 35.8887C183.636 35.8887 184.251 36.7568 184.251 38.2334C184.251 39.7236 183.643 40.585 182.583 40.585Z" fill="#003440"/>
<path d="M194.744 34.4736H192.755V38.8213C192.755 39.8535 192.222 40.4893 191.23 40.4893C190.314 40.4893 189.843 39.9492 189.843 38.8828V34.4736H187.854V39.375C187.854 41.125 188.865 42.1572 190.492 42.1572C191.634 42.1572 192.338 41.665 192.693 40.79H192.816V42H194.744V34.4736Z" fill="#003440"/>
<path d="M196.74 42H198.729V37.6455C198.729 36.627 199.297 35.9707 200.22 35.9707C201.163 35.9707 201.607 36.5244 201.607 37.584V42H203.597V37.1328C203.597 35.335 202.694 34.3096 201.02 34.3096C199.905 34.3096 199.14 34.8359 198.791 35.6836H198.668V34.4736H196.74V42Z" fill="#003440"/>
<path d="M206.099 32.6758V34.542H204.923V36.0527H206.099V39.9697C206.099 41.4326 206.823 42.0273 208.655 42.0273C209.038 42.0273 209.407 41.9863 209.653 41.9385V40.4688C209.462 40.4893 209.325 40.5029 209.065 40.5029C208.389 40.5029 208.088 40.1885 208.088 39.5117V36.0527H209.653V34.542H208.088V32.6758H206.099Z" fill="#003440"/>
<rect x="11" y="54" width="212" height="1" fill="#005C62"/>
<path d="M146.382 81.2324C148.398 81.2324 149.772 79.8379 149.772 77.8076C149.772 75.8525 148.405 74.5537 146.751 74.5537C145.767 74.5537 145.035 74.8545 144.557 75.4492H144.447L144.755 72.2363H149.267V71.1357H143.791L143.224 76.7754H144.379C144.769 76.0439 145.507 75.6133 146.443 75.6133C147.688 75.6133 148.542 76.5088 148.542 77.8418C148.542 79.2227 147.688 80.1523 146.396 80.1523C145.233 80.1523 144.386 79.4482 144.276 78.3955H143.066C143.176 80.084 144.516 81.2324 146.382 81.2324Z" fill="#003440"/>
<path d="M153.84 76.4541H155.063C156.451 76.4541 157.306 77.165 157.306 78.3066C157.306 79.4141 156.383 80.1592 155.084 80.1592C153.812 80.1592 152.924 79.4961 152.814 78.457H151.625C151.714 80.1318 153.095 81.2324 155.098 81.2324C157.06 81.2324 158.57 79.9951 158.57 78.3408C158.57 76.9668 157.723 76.0986 156.444 75.8936V75.7842C157.456 75.4902 158.194 74.7041 158.201 73.5146C158.208 72.1338 157.087 70.9033 155.139 70.9033C153.143 70.9033 151.919 72.0859 151.796 73.6924H152.992C153.095 72.585 153.867 71.9766 155.057 71.9766C156.246 71.9766 156.95 72.7285 156.95 73.6514C156.95 74.6768 156.144 75.4014 155.009 75.4014H153.84V76.4541Z" fill="#003440"/>
<path d="M160.819 83.5088L161.893 79.6191H160.587L159.938 83.5088H160.819Z" fill="#003440"/>
<path d="M166.992 81.2324C169.207 81.2324 170.479 79.3594 170.479 76.085C170.479 72.8174 169.187 70.9033 166.992 70.9033C164.784 70.9033 163.492 72.8105 163.492 76.0645C163.492 79.3457 164.771 81.2324 166.992 81.2324ZM166.992 80.1592C165.536 80.1592 164.729 78.7031 164.729 76.0645C164.729 73.46 165.55 71.9834 166.992 71.9834C168.435 71.9834 169.241 73.4463 169.241 76.0645C169.241 78.71 168.448 80.1592 166.992 80.1592Z" fill="#003440"/>
<path d="M175.811 81.2324C178.025 81.2324 179.297 79.3594 179.297 76.085C179.297 72.8174 178.005 70.9033 175.811 70.9033C173.603 70.9033 172.311 72.8105 172.311 76.0645C172.311 79.3457 173.589 81.2324 175.811 81.2324ZM175.811 80.1592C174.354 80.1592 173.548 78.7031 173.548 76.0645C173.548 73.46 174.368 71.9834 175.811 71.9834C177.253 71.9834 178.06 73.4463 178.06 76.0645C178.06 78.71 177.267 80.1592 175.811 80.1592Z" fill="#003440"/>
<path d="M184.629 81.2324C186.844 81.2324 188.115 79.3594 188.115 76.085C188.115 72.8174 186.823 70.9033 184.629 70.9033C182.421 70.9033 181.129 72.8105 181.129 76.0645C181.129 79.3457 182.407 81.2324 184.629 81.2324ZM184.629 80.1592C183.173 80.1592 182.366 78.7031 182.366 76.0645C182.366 73.46 183.187 71.9834 184.629 71.9834C186.071 71.9834 186.878 73.4463 186.878 76.0645C186.878 78.71 186.085 80.1592 184.629 80.1592Z" fill="#003440"/>
<path d="M190.562 81.0684C191.055 81.0684 191.451 80.665 191.451 80.1797C191.451 79.6875 191.055 79.291 190.562 79.291C190.077 79.291 189.674 79.6875 189.674 80.1797C189.674 80.665 190.077 81.0684 190.562 81.0684Z" fill="#003440"/>
<path d="M197.836 81H199.039V78.9561H200.44V77.8555H199.039V71.1357H197.255C195.874 73.1934 194.363 75.5996 193.03 77.835V78.9561H197.836V81ZM194.288 77.7803C195.361 75.9688 196.653 73.9316 197.761 72.2773H197.843V77.8623H194.288V77.7803Z" fill="#003440"/>
<path d="M205.711 81.2324C207.803 81.2324 209.266 80.0498 209.266 78.3613C209.266 77.0762 208.452 76.0781 207.215 75.8457V75.7363C208.233 75.4561 208.862 74.6152 208.862 73.5352C208.862 71.9971 207.557 70.9033 205.711 70.9033C203.865 70.9033 202.56 71.9971 202.56 73.5352C202.56 74.6084 203.202 75.4629 204.207 75.7363V75.8457C202.97 76.0781 202.156 77.0762 202.156 78.3613C202.156 80.0498 203.619 81.2324 205.711 81.2324ZM205.711 75.3262C204.549 75.3262 203.77 74.6562 203.77 73.6514C203.77 72.6328 204.542 71.9561 205.711 71.9561C206.88 71.9561 207.652 72.6328 207.652 73.6514C207.652 74.6562 206.873 75.3262 205.711 75.3262ZM205.711 80.1797C204.344 80.1797 203.4 79.4004 203.4 78.2725C203.4 77.1445 204.344 76.3652 205.711 76.3652C207.078 76.3652 208.021 77.1445 208.021 78.2725C208.021 79.4004 207.078 80.1797 205.711 80.1797Z" fill="#003440"/>
<rect opacity="0.2" x="11" y="98" width="212" height="1" fill="#009990"/>
<path d="M165.039 117.918H166.229C166.229 116.749 167.015 115.977 168.197 115.977C169.359 115.977 170.063 116.756 170.063 117.802C170.063 118.67 169.694 119.183 168.437 120.543L165.101 124.152V125H171.485V123.893H166.81V123.783L169.052 121.466C170.829 119.627 171.321 118.807 171.321 117.672C171.321 116.072 170.002 114.903 168.279 114.903C166.393 114.903 165.039 116.161 165.039 117.918Z" fill="#003440"/>
<path d="M176.845 125.232C178.861 125.232 180.235 123.838 180.235 121.808C180.235 119.853 178.868 118.554 177.214 118.554C176.229 118.554 175.498 118.854 175.02 119.449H174.91L175.218 116.236H179.729V115.136H174.254L173.687 120.775H174.842C175.231 120.044 175.97 119.613 176.906 119.613C178.15 119.613 179.005 120.509 179.005 121.842C179.005 123.223 178.15 124.152 176.858 124.152C175.696 124.152 174.849 123.448 174.739 122.396H173.529C173.639 124.084 174.979 125.232 176.845 125.232Z" fill="#003440"/>
<path d="M185.718 125.226C187.741 125.226 189.177 123.811 189.177 121.828C189.177 119.914 187.816 118.526 185.937 118.526C184.761 118.526 183.797 119.087 183.312 120.044H183.202C183.243 117.364 184.2 115.997 185.841 115.997C186.839 115.997 187.563 116.51 187.769 117.426H189.033C188.78 115.895 187.598 114.903 185.8 114.903C183.469 114.903 182.006 116.845 182.006 120.235C182.006 123.558 183.571 125.226 185.718 125.226ZM185.704 124.146C184.439 124.146 183.476 123.147 183.476 121.828C183.476 120.522 184.412 119.593 185.718 119.593C187.023 119.593 187.933 120.522 187.933 121.869C187.933 123.161 186.969 124.146 185.704 124.146Z" fill="#003440"/>
<path d="M191.658 125.068C192.15 125.068 192.547 124.665 192.547 124.18C192.547 123.688 192.15 123.291 191.658 123.291C191.173 123.291 190.77 123.688 190.77 124.18C190.77 124.665 191.173 125.068 191.658 125.068Z" fill="#003440"/>
<path d="M197.776 125.226C199.8 125.226 201.235 123.811 201.235 121.828C201.235 119.914 199.875 118.526 197.995 118.526C196.819 118.526 195.855 119.087 195.37 120.044H195.261C195.302 117.364 196.259 115.997 197.899 115.997C198.897 115.997 199.622 116.51 199.827 117.426H201.092C200.839 115.895 199.656 114.903 197.858 114.903C195.527 114.903 194.064 116.845 194.064 120.235C194.064 123.558 195.63 125.226 197.776 125.226ZM197.763 124.146C196.498 124.146 195.534 123.147 195.534 121.828C195.534 120.522 196.471 119.593 197.776 119.593C199.082 119.593 199.991 120.522 199.991 121.869C199.991 123.161 199.027 124.146 197.763 124.146Z" fill="#003440"/>
<path d="M205.289 120.454H206.513C207.9 120.454 208.755 121.165 208.755 122.307C208.755 123.414 207.832 124.159 206.533 124.159C205.262 124.159 204.373 123.496 204.264 122.457H203.074C203.163 124.132 204.544 125.232 206.547 125.232C208.509 125.232 210.02 123.995 210.02 122.341C210.02 120.967 209.172 120.099 207.894 119.894V119.784C208.905 119.49 209.644 118.704 209.65 117.515C209.657 116.134 208.536 114.903 206.588 114.903C204.592 114.903 203.368 116.086 203.245 117.692H204.441C204.544 116.585 205.316 115.977 206.506 115.977C207.695 115.977 208.399 116.729 208.399 117.651C208.399 118.677 207.593 119.401 206.458 119.401H205.289V120.454Z" fill="#003440"/>
<rect opacity="0.2" x="11" y="142" width="212" height="1" fill="#009990"/>
</svg>
