<svg width="200" height="54" viewBox="0 0 200 54" fill="none" xmlns="http://www.w3.org/2000/svg">
<path d="M0 8C0 3.58172 3.58172 0 8 0H192C196.418 0 200 3.58172 200 8V46C200 50.4183 196.418 54 192 54H8C3.58173 54 0 50.4183 0 46V8Z" fill="#FDC900"/>
<path d="M13.7734 23V12.9922H17.4062V11.7266H8.73438V12.9922H12.3672V23H13.7734ZM19.4844 23H20.8281V18.0156C20.8281 16.5938 21.6562 15.6406 23.1641 15.6406C24.4375 15.6406 25.1094 16.3828 25.1094 17.875V23H26.4531V17.5469C26.4531 15.5703 25.3281 14.4297 23.5469 14.4297C22.2578 14.4297 21.375 14.9766 20.9531 15.9062H20.8281V11.2344H19.4844V23ZM29.6094 12.9531C30.125 12.9531 30.5469 12.5312 30.5469 12.0156C30.5469 11.5 30.125 11.0781 29.6094 11.0781C29.0938 11.0781 28.6719 11.5 28.6719 12.0156C28.6719 12.5312 29.0938 12.9531 29.6094 12.9531ZM28.9375 23H30.2812V14.5781H28.9375V23ZM32.6484 16.8828C32.6484 18.1016 33.3672 18.7812 34.9453 19.1641L36.3906 19.5156C37.2891 19.7344 37.7266 20.125 37.7266 20.7031C37.7266 21.4766 36.9141 22.0156 35.7812 22.0156C34.7031 22.0156 34.0312 21.5625 33.8047 20.8516H32.4219C32.5703 22.25 33.8594 23.1484 35.7344 23.1484C37.6484 23.1484 39.1094 22.1094 39.1094 20.6016C39.1094 19.3906 38.3438 18.7031 36.7578 18.3203L35.4609 18.0078C34.4688 17.7656 34 17.4062 34 16.8281C34 16.0781 34.7812 15.5703 35.7812 15.5703C36.7969 15.5703 37.4531 16.0156 37.6328 16.6875H38.9609C38.7812 15.3047 37.5547 14.4297 35.7891 14.4297C34 14.4297 32.6484 15.4844 32.6484 16.8828ZM45.8125 23H47.1562V18.0156C47.1562 16.5938 47.9844 15.6406 49.4922 15.6406C50.7656 15.6406 51.4375 16.3828 51.4375 17.875V23H52.7812V17.5469C52.7812 15.5703 51.6562 14.4297 49.875 14.4297C48.5859 14.4297 47.7031 14.9766 47.2812 15.9062H47.1562V11.2344H45.8125V23ZM57.5781 23.1484C58.7031 23.1484 59.625 22.6562 60.1719 21.7578H60.2969V23H61.5781V17.2344C61.5781 15.4844 60.4297 14.4297 58.375 14.4297C56.5781 14.4297 55.25 15.3203 55.0703 16.6719H56.4297C56.6172 16.0078 57.3203 15.625 58.3281 15.625C59.5859 15.625 60.2344 16.1953 60.2344 17.2344V18L57.8047 18.1484C55.8438 18.2656 54.7344 19.1328 54.7344 20.6406C54.7344 22.1797 55.9453 23.1484 57.5781 23.1484ZM57.8281 21.9688C56.8516 21.9688 56.125 21.4688 56.125 20.6094C56.125 19.7656 56.6875 19.3203 57.9688 19.2344L60.2344 19.0859V19.8594C60.2344 21.0625 59.2109 21.9688 57.8281 21.9688ZM63.8672 16.8828C63.8672 18.1016 64.5859 18.7812 66.1641 19.1641L67.6094 19.5156C68.5078 19.7344 68.9453 20.125 68.9453 20.7031C68.9453 21.4766 68.1328 22.0156 67 22.0156C65.9219 22.0156 65.25 21.5625 65.0234 20.8516H63.6406C63.7891 22.25 65.0781 23.1484 66.9531 23.1484C68.8672 23.1484 70.3281 22.1094 70.3281 20.6016C70.3281 19.3906 69.5625 18.7031 67.9766 18.3203L66.6797 18.0078C65.6875 17.7656 65.2188 17.4062 65.2188 16.8281C65.2188 16.0781 66 15.5703 67 15.5703C68.0156 15.5703 68.6719 16.0156 68.8516 16.6875H70.1797C70 15.3047 68.7734 14.4297 67.0078 14.4297C65.2188 14.4297 63.8672 15.4844 63.8672 16.8828ZM82.5312 20.8203C82.1797 21.5625 81.4453 21.9609 80.3594 21.9609C78.9297 21.9609 78 20.9062 77.9297 19.2422V19.1797H83.9844V18.6641C83.9844 16.0469 82.6016 14.4297 80.3281 14.4297C78.0156 14.4297 76.5312 16.1484 76.5312 18.7969C76.5312 21.4609 77.9922 23.1484 80.3281 23.1484C82.1719 23.1484 83.4844 22.2578 83.875 20.8203H82.5312ZM80.3125 15.6172C81.6484 15.6172 82.5391 16.6016 82.5703 18.0938H77.9297C78.0312 16.6016 78.9688 15.6172 80.3125 15.6172ZM86.0938 23H87.4375V18.0156C87.4375 16.5391 88.3047 15.6406 89.6484 15.6406C90.9922 15.6406 91.6328 16.3594 91.6328 17.875V23H92.9766V17.5469C92.9766 15.5469 91.9219 14.4297 90.0312 14.4297C88.7422 14.4297 87.9219 14.9766 87.5 15.9062H87.375V14.5781H86.0938V23ZM98.8984 23.1484C101.297 23.1484 102.781 21.4922 102.781 18.7891C102.781 16.0781 101.297 14.4297 98.8984 14.4297C96.5 14.4297 95.0156 16.0781 95.0156 18.7891C95.0156 21.4922 96.5 23.1484 98.8984 23.1484ZM98.8984 21.9375C97.3047 21.9375 96.4062 20.7812 96.4062 18.7891C96.4062 16.7891 97.3047 15.6406 98.8984 15.6406C100.492 15.6406 101.391 16.7891 101.391 18.7891C101.391 20.7812 100.492 21.9375 98.8984 21.9375ZM111.703 14.5781H110.359V19.5625C110.359 21.0391 109.547 21.9219 108.062 21.9219C106.719 21.9219 106.156 21.2188 106.156 19.7031V14.5781H104.812V20.0312C104.812 22.0234 105.797 23.1484 107.688 23.1484C108.977 23.1484 109.875 22.6172 110.297 21.6797H110.422V23H111.703V14.5781ZM117.703 26.2344C120 26.2344 121.453 25.0312 121.453 23.1484V14.5781H120.172V15.9141H120.047C119.562 15.0078 118.523 14.4297 117.344 14.4297C115.18 14.4297 113.812 16.1406 113.812 18.6641C113.812 21.1875 115.164 22.875 117.344 22.875C118.5 22.875 119.453 22.3516 119.984 21.4219H120.109V23.0781C120.109 24.3203 119.211 25.0625 117.703 25.0625C116.492 25.0625 115.742 24.6172 115.594 23.9297H114.172C114.375 25.3203 115.672 26.2344 117.703 26.2344ZM117.641 21.6875C116.078 21.6875 115.203 20.5 115.203 18.6641C115.203 16.8281 116.078 15.6406 117.641 15.6406C119.195 15.6406 120.141 16.8281 120.141 18.6641C120.141 20.5 119.203 21.6875 117.641 21.6875ZM124.062 23H125.406V18.0156C125.406 16.5938 126.234 15.6406 127.742 15.6406C129.016 15.6406 129.688 16.3828 129.688 17.875V23H131.031V17.5469C131.031 15.5703 129.906 14.4297 128.125 14.4297C126.836 14.4297 125.953 14.9766 125.531 15.9062H125.406V11.2344H124.062V23ZM16.2344 36.1562C16 34.6562 14.75 33.4297 12.7031 33.4297C10.3438 33.4297 8.84375 35.1328 8.84375 37.7578C8.84375 40.4375 10.3516 42.1484 12.7109 42.1484C14.7344 42.1484 15.9922 41.0078 16.2344 39.4609H14.875C14.625 40.4141 13.8359 40.9375 12.7031 40.9375C11.2031 40.9375 10.2344 39.7031 10.2344 37.7578C10.2344 35.8516 11.1875 34.6406 12.7031 34.6406C13.9141 34.6406 14.6562 35.3203 14.875 36.1562H16.2344ZM21.6797 42.1484C24.0781 42.1484 25.5625 40.4922 25.5625 37.7891C25.5625 35.0781 24.0781 33.4297 21.6797 33.4297C19.2812 33.4297 17.7969 35.0781 17.7969 37.7891C17.7969 40.4922 19.2812 42.1484 21.6797 42.1484ZM21.6797 40.9375C20.0859 40.9375 19.1875 39.7812 19.1875 37.7891C19.1875 35.7891 20.0859 34.6406 21.6797 34.6406C23.2734 34.6406 24.1719 35.7891 24.1719 37.7891C24.1719 39.7812 23.2734 40.9375 21.6797 40.9375ZM27.6719 42H29.0156V37.0156C29.0156 35.5391 29.8828 34.6406 31.2266 34.6406C32.5703 34.6406 33.2109 35.3594 33.2109 36.875V42H34.5547V36.5469C34.5547 34.5469 33.5 33.4297 31.6094 33.4297C30.3203 33.4297 29.5 33.9766 29.0781 34.9062H28.9531V33.5781H27.6719V42ZM37.5781 31.3984V33.5781H36.2188V34.7031H37.5781V39.8125C37.5781 41.4219 38.2734 42.0625 40.0078 42.0625C40.2734 42.0625 40.5312 42.0312 40.7969 41.9844V40.8516C40.5469 40.875 40.4141 40.8828 40.1719 40.8828C39.2969 40.8828 38.9219 40.4609 38.9219 39.4688V34.7031H40.7969V33.5781H38.9219V31.3984H37.5781ZM42.8281 42H44.1719V36.7812C44.1719 35.5938 45.1016 34.7344 46.3828 34.7344C46.6484 34.7344 47.1328 34.7812 47.2422 34.8125V33.4688C47.0703 33.4453 46.7891 33.4297 46.5703 33.4297C45.4531 33.4297 44.4844 34.0078 44.2344 34.8281H44.1094V33.5781H42.8281V42ZM51.2656 42.1484C52.3906 42.1484 53.3125 41.6562 53.8594 40.7578H53.9844V42H55.2656V36.2344C55.2656 34.4844 54.1172 33.4297 52.0625 33.4297C50.2656 33.4297 48.9375 34.3203 48.7578 35.6719H50.1172C50.3047 35.0078 51.0078 34.625 52.0156 34.625C53.2734 34.625 53.9219 35.1953 53.9219 36.2344V37L51.4922 37.1484C49.5312 37.2656 48.4219 38.1328 48.4219 39.6406C48.4219 41.1797 49.6328 42.1484 51.2656 42.1484ZM51.5156 40.9688C50.5391 40.9688 49.8125 40.4688 49.8125 39.6094C49.8125 38.7656 50.375 38.3203 51.6562 38.2344L53.9219 38.0859V38.8594C53.9219 40.0625 52.8984 40.9688 51.5156 40.9688ZM57.5547 35.8828C57.5547 37.1016 58.2734 37.7812 59.8516 38.1641L61.2969 38.5156C62.1953 38.7344 62.6328 39.125 62.6328 39.7031C62.6328 40.4766 61.8203 41.0156 60.6875 41.0156C59.6094 41.0156 58.9375 40.5625 58.7109 39.8516H57.3281C57.4766 41.25 58.7656 42.1484 60.6406 42.1484C62.5547 42.1484 64.0156 41.1094 64.0156 39.6016C64.0156 38.3906 63.25 37.7031 61.6641 37.3203L60.3672 37.0078C59.375 36.7656 58.9062 36.4062 58.9062 35.8281C58.9062 35.0781 59.6875 34.5703 60.6875 34.5703C61.7031 34.5703 62.3594 35.0156 62.5391 35.6875H63.8672C63.6875 34.3047 62.4609 33.4297 60.6953 33.4297C58.9062 33.4297 57.5547 34.4844 57.5547 35.8828ZM66.6094 31.3984V33.5781H65.25V34.7031H66.6094V39.8125C66.6094 41.4219 67.3047 42.0625 69.0391 42.0625C69.3047 42.0625 69.5625 42.0312 69.8281 41.9844V40.8516C69.5781 40.875 69.4453 40.8828 69.2031 40.8828C68.3281 40.8828 67.9531 40.4609 67.9531 39.4688V34.7031H69.8281V33.5781H67.9531V31.3984H66.6094Z" fill="#662400"/>
</svg>
