<svg width="200" height="54" viewBox="0 0 200 54" fill="none" xmlns="http://www.w3.org/2000/svg">
<path d="M0 8C0 3.58172 3.58172 0 8 0H192C196.418 0 200 3.58172 200 8V46C200 50.4183 196.418 54 192 54H8C3.58173 54 0 50.4183 0 46V8Z" fill="#FDC900"/>
<path d="M13.7734 23V12.9922H17.4062V11.7266H8.73438V12.9922H12.3672V23H13.7734ZM19.4844 23H20.8281V18.0156C20.8281 16.5938 21.6562 15.6406 23.1641 15.6406C24.4375 15.6406 25.1094 16.3828 25.1094 17.875V23H26.4531V17.5469C26.4531 15.5703 25.3281 14.4297 23.5469 14.4297C22.2578 14.4297 21.375 14.9766 20.9531 15.9062H20.8281V11.2344H19.4844V23ZM29.6094 12.9531C30.125 12.9531 30.5469 12.5312 30.5469 12.0156C30.5469 11.5 30.125 11.0781 29.6094 11.0781C29.0938 11.0781 28.6719 11.5 28.6719 12.0156C28.6719 12.5312 29.0938 12.9531 29.6094 12.9531ZM28.9375 23H30.2812V14.5781H28.9375V23ZM32.6484 16.8828C32.6484 18.1016 33.3672 18.7812 34.9453 19.1641L36.3906 19.5156C37.2891 19.7344 37.7266 20.125 37.7266 20.7031C37.7266 21.4766 36.9141 22.0156 35.7812 22.0156C34.7031 22.0156 34.0312 21.5625 33.8047 20.8516H32.4219C32.5703 22.25 33.8594 23.1484 35.7344 23.1484C37.6484 23.1484 39.1094 22.1094 39.1094 20.6016C39.1094 19.3906 38.3438 18.7031 36.7578 18.3203L35.4609 18.0078C34.4688 17.7656 34 17.4062 34 16.8281C34 16.0781 34.7812 15.5703 35.7812 15.5703C36.7969 15.5703 37.4531 16.0156 37.6328 16.6875H38.9609C38.7812 15.3047 37.5547 14.4297 35.7891 14.4297C34 14.4297 32.6484 15.4844 32.6484 16.8828ZM48.8516 23.1484C50.0156 23.1484 51.0156 22.5938 51.5469 21.6562H51.6719V23H52.9531V11.2344H51.6094V15.9062H51.4922C51.0156 14.9844 50.0234 14.4297 48.8516 14.4297C46.7109 14.4297 45.3125 16.1484 45.3125 18.7891C45.3125 21.4375 46.6953 23.1484 48.8516 23.1484ZM49.1641 15.6406C50.6875 15.6406 51.6406 16.8594 51.6406 18.7891C51.6406 20.7344 50.6953 21.9375 49.1641 21.9375C47.625 21.9375 46.7031 20.7578 46.7031 18.7891C46.7031 16.8281 47.6328 15.6406 49.1641 15.6406ZM59.0234 23.1484C61.4219 23.1484 62.9062 21.4922 62.9062 18.7891C62.9062 16.0781 61.4219 14.4297 59.0234 14.4297C56.625 14.4297 55.1406 16.0781 55.1406 18.7891C55.1406 21.4922 56.625 23.1484 59.0234 23.1484ZM59.0234 21.9375C57.4297 21.9375 56.5312 20.7812 56.5312 18.7891C56.5312 16.7891 57.4297 15.6406 59.0234 15.6406C60.6172 15.6406 61.5156 16.7891 61.5156 18.7891C61.5156 20.7812 60.6172 21.9375 59.0234 21.9375ZM70.5938 20.8203C70.2422 21.5625 69.5078 21.9609 68.4219 21.9609C66.9922 21.9609 66.0625 20.9062 65.9922 19.2422V19.1797H72.0469V18.6641C72.0469 16.0469 70.6641 14.4297 68.3906 14.4297C66.0781 14.4297 64.5938 16.1484 64.5938 18.7969C64.5938 21.4609 66.0547 23.1484 68.3906 23.1484C70.2344 23.1484 71.5469 22.2578 71.9375 20.8203H70.5938ZM68.375 15.6172C69.7109 15.6172 70.6016 16.6016 70.6328 18.0938H65.9922C66.0938 16.6016 67.0312 15.6172 68.375 15.6172ZM73.9609 16.8828C73.9609 18.1016 74.6797 18.7812 76.2578 19.1641L77.7031 19.5156C78.6016 19.7344 79.0391 20.125 79.0391 20.7031C79.0391 21.4766 78.2266 22.0156 77.0938 22.0156C76.0156 22.0156 75.3438 21.5625 75.1172 20.8516H73.7344C73.8828 22.25 75.1719 23.1484 77.0469 23.1484C78.9609 23.1484 80.4219 22.1094 80.4219 20.6016C80.4219 19.3906 79.6562 18.7031 78.0703 18.3203L76.7734 18.0078C75.7812 17.7656 75.3125 17.4062 75.3125 16.8281C75.3125 16.0781 76.0938 15.5703 77.0938 15.5703C78.1094 15.5703 78.7656 16.0156 78.9453 16.6875H80.2734C80.0938 15.3047 78.8672 14.4297 77.1016 14.4297C75.3125 14.4297 73.9609 15.4844 73.9609 16.8828ZM87.0469 23H88.3906V18.0156C88.3906 16.5391 89.2578 15.6406 90.6016 15.6406C91.9453 15.6406 92.5859 16.3594 92.5859 17.875V23H93.9297V17.5469C93.9297 15.5469 92.875 14.4297 90.9844 14.4297C89.6953 14.4297 88.875 14.9766 88.4531 15.9062H88.3281V14.5781H87.0469V23ZM99.8516 23.1484C102.25 23.1484 103.734 21.4922 103.734 18.7891C103.734 16.0781 102.25 14.4297 99.8516 14.4297C97.4531 14.4297 95.9688 16.0781 95.9688 18.7891C95.9688 21.4922 97.4531 23.1484 99.8516 23.1484ZM99.8516 21.9375C98.2578 21.9375 97.3594 20.7812 97.3594 18.7891C97.3594 16.7891 98.2578 15.6406 99.8516 15.6406C101.445 15.6406 102.344 16.7891 102.344 18.7891C102.344 20.7812 101.445 21.9375 99.8516 21.9375ZM106.406 12.3984V14.5781H105.047V15.7031H106.406V20.8125C106.406 22.4219 107.102 23.0625 108.836 23.0625C109.102 23.0625 109.359 23.0312 109.625 22.9844V21.8516C109.375 21.875 109.242 21.8828 109 21.8828C108.125 21.8828 107.75 21.4609 107.75 20.4688V15.7031H109.625V14.5781H107.75V12.3984H106.406ZM116.25 23H117.594V18.0156C117.594 16.5938 118.422 15.6406 119.93 15.6406C121.203 15.6406 121.875 16.3828 121.875 17.875V23H123.219V17.5469C123.219 15.5703 122.094 14.4297 120.312 14.4297C119.023 14.4297 118.141 14.9766 117.719 15.9062H117.594V11.2344H116.25V23ZM128.016 23.1484C129.141 23.1484 130.062 22.6562 130.609 21.7578H130.734V23H132.016V17.2344C132.016 15.4844 130.867 14.4297 128.812 14.4297C127.016 14.4297 125.688 15.3203 125.508 16.6719H126.867C127.055 16.0078 127.758 15.625 128.766 15.625C130.023 15.625 130.672 16.1953 130.672 17.2344V18L128.242 18.1484C126.281 18.2656 125.172 19.1328 125.172 20.6406C125.172 22.1797 126.383 23.1484 128.016 23.1484ZM128.266 21.9688C127.289 21.9688 126.562 21.4688 126.562 20.6094C126.562 19.7656 127.125 19.3203 128.406 19.2344L130.672 19.0859V19.8594C130.672 21.0625 129.648 21.9688 128.266 21.9688ZM141.062 14.5781H139.625L137.32 21.5156H137.195L134.891 14.5781H133.453L136.57 23H137.945L141.062 14.5781ZM148.125 20.8203C147.773 21.5625 147.039 21.9609 145.953 21.9609C144.523 21.9609 143.594 20.9062 143.523 19.2422V19.1797H149.578V18.6641C149.578 16.0469 148.195 14.4297 145.922 14.4297C143.609 14.4297 142.125 16.1484 142.125 18.7969C142.125 21.4609 143.586 23.1484 145.922 23.1484C147.766 23.1484 149.078 22.2578 149.469 20.8203H148.125ZM145.906 15.6172C147.242 15.6172 148.133 16.6016 148.164 18.0938H143.523C143.625 16.6016 144.562 15.6172 145.906 15.6172ZM14.8438 39.8203C14.4922 40.5625 13.7578 40.9609 12.6719 40.9609C11.2422 40.9609 10.3125 39.9062 10.2422 38.2422V38.1797H16.2969V37.6641C16.2969 35.0469 14.9141 33.4297 12.6406 33.4297C10.3281 33.4297 8.84375 35.1484 8.84375 37.7969C8.84375 40.4609 10.3047 42.1484 12.6406 42.1484C14.4844 42.1484 15.7969 41.2578 16.1875 39.8203H14.8438ZM12.625 34.6172C13.9609 34.6172 14.8516 35.6016 14.8828 37.0938H10.2422C10.3438 35.6016 11.2812 34.6172 12.625 34.6172ZM18.4062 42H19.75V37.0156C19.75 35.5391 20.6172 34.6406 21.9609 34.6406C23.3047 34.6406 23.9453 35.3594 23.9453 36.875V42H25.2891V36.5469C25.2891 34.5469 24.2344 33.4297 22.3438 33.4297C21.0547 33.4297 20.2344 33.9766 19.8125 34.9062H19.6875V33.5781H18.4062V42ZM31.2109 42.1484C33.6094 42.1484 35.0938 40.4922 35.0938 37.7891C35.0938 35.0781 33.6094 33.4297 31.2109 33.4297C28.8125 33.4297 27.3281 35.0781 27.3281 37.7891C27.3281 40.4922 28.8125 42.1484 31.2109 42.1484ZM31.2109 40.9375C29.6172 40.9375 28.7188 39.7812 28.7188 37.7891C28.7188 35.7891 29.6172 34.6406 31.2109 34.6406C32.8047 34.6406 33.7031 35.7891 33.7031 37.7891C33.7031 39.7812 32.8047 40.9375 31.2109 40.9375ZM44.0156 33.5781H42.6719V38.5625C42.6719 40.0391 41.8594 40.9219 40.375 40.9219C39.0312 40.9219 38.4688 40.2188 38.4688 38.7031V33.5781H37.125V39.0312C37.125 41.0234 38.1094 42.1484 40 42.1484C41.2891 42.1484 42.1875 41.6172 42.6094 40.6797H42.7344V42H44.0156V33.5781ZM50.0156 45.2344C52.3125 45.2344 53.7656 44.0312 53.7656 42.1484V33.5781H52.4844V34.9141H52.3594C51.875 34.0078 50.8359 33.4297 49.6562 33.4297C47.4922 33.4297 46.125 35.1406 46.125 37.6641C46.125 40.1875 47.4766 41.875 49.6562 41.875C50.8125 41.875 51.7656 41.3516 52.2969 40.4219H52.4219V42.0781C52.4219 43.3203 51.5234 44.0625 50.0156 44.0625C48.8047 44.0625 48.0547 43.6172 47.9062 42.9297H46.4844C46.6875 44.3203 47.9844 45.2344 50.0156 45.2344ZM49.9531 40.6875C48.3906 40.6875 47.5156 39.5 47.5156 37.6641C47.5156 35.8281 48.3906 34.6406 49.9531 34.6406C51.5078 34.6406 52.4531 35.8281 52.4531 37.6641C52.4531 39.5 51.5156 40.6875 49.9531 40.6875ZM56.375 42H57.7188V37.0156C57.7188 35.5938 58.5469 34.6406 60.0547 34.6406C61.3281 34.6406 62 35.3828 62 36.875V42H63.3438V36.5469C63.3438 34.5703 62.2188 33.4297 60.4375 33.4297C59.1484 33.4297 58.2656 33.9766 57.8438 34.9062H57.7188V30.2344H56.375V42ZM77.2812 36.1562C77.0469 34.6562 75.7969 33.4297 73.75 33.4297C71.3906 33.4297 69.8906 35.1328 69.8906 37.7578C69.8906 40.4375 71.3984 42.1484 73.7578 42.1484C75.7812 42.1484 77.0391 41.0078 77.2812 39.4609H75.9219C75.6719 40.4141 74.8828 40.9375 73.75 40.9375C72.25 40.9375 71.2812 39.7031 71.2812 37.7578C71.2812 35.8516 72.2344 34.6406 73.75 34.6406C74.9609 34.6406 75.7031 35.3203 75.9219 36.1562H77.2812ZM82.7266 42.1484C85.125 42.1484 86.6094 40.4922 86.6094 37.7891C86.6094 35.0781 85.125 33.4297 82.7266 33.4297C80.3281 33.4297 78.8438 35.0781 78.8438 37.7891C78.8438 40.4922 80.3281 42.1484 82.7266 42.1484ZM82.7266 40.9375C81.1328 40.9375 80.2344 39.7812 80.2344 37.7891C80.2344 35.7891 81.1328 34.6406 82.7266 34.6406C84.3203 34.6406 85.2188 35.7891 85.2188 37.7891C85.2188 39.7812 84.3203 40.9375 82.7266 40.9375ZM88.7188 42H90.0625V37.0156C90.0625 35.5391 90.9297 34.6406 92.2734 34.6406C93.6172 34.6406 94.2578 35.3594 94.2578 36.875V42H95.6016V36.5469C95.6016 34.5469 94.5469 33.4297 92.6562 33.4297C91.3672 33.4297 90.5469 33.9766 90.125 34.9062H90V33.5781H88.7188V42ZM98.625 31.3984V33.5781H97.2656V34.7031H98.625V39.8125C98.625 41.4219 99.3203 42.0625 101.055 42.0625C101.32 42.0625 101.578 42.0312 101.844 41.9844V40.8516C101.594 40.875 101.461 40.8828 101.219 40.8828C100.344 40.8828 99.9688 40.4609 99.9688 39.4688V34.7031H101.844V33.5781H99.9688V31.3984H98.625ZM103.875 42H105.219V36.7812C105.219 35.5938 106.148 34.7344 107.43 34.7344C107.695 34.7344 108.18 34.7812 108.289 34.8125V33.4688C108.117 33.4453 107.836 33.4297 107.617 33.4297C106.5 33.4297 105.531 34.0078 105.281 34.8281H105.156V33.5781H103.875V42ZM112.312 42.1484C113.438 42.1484 114.359 41.6562 114.906 40.7578H115.031V42H116.312V36.2344C116.312 34.4844 115.164 33.4297 113.109 33.4297C111.312 33.4297 109.984 34.3203 109.805 35.6719H111.164C111.352 35.0078 112.055 34.625 113.062 34.625C114.32 34.625 114.969 35.1953 114.969 36.2344V37L112.539 37.1484C110.578 37.2656 109.469 38.1328 109.469 39.6406C109.469 41.1797 110.68 42.1484 112.312 42.1484ZM112.562 40.9688C111.586 40.9688 110.859 40.4688 110.859 39.6094C110.859 38.7656 111.422 38.3203 112.703 38.2344L114.969 38.0859V38.8594C114.969 40.0625 113.945 40.9688 112.562 40.9688ZM118.602 35.8828C118.602 37.1016 119.32 37.7812 120.898 38.1641L122.344 38.5156C123.242 38.7344 123.68 39.125 123.68 39.7031C123.68 40.4766 122.867 41.0156 121.734 41.0156C120.656 41.0156 119.984 40.5625 119.758 39.8516H118.375C118.523 41.25 119.812 42.1484 121.688 42.1484C123.602 42.1484 125.062 41.1094 125.062 39.6016C125.062 38.3906 124.297 37.7031 122.711 37.3203L121.414 37.0078C120.422 36.7656 119.953 36.4062 119.953 35.8281C119.953 35.0781 120.734 34.5703 121.734 34.5703C122.75 34.5703 123.406 35.0156 123.586 35.6875H124.914C124.734 34.3047 123.508 33.4297 121.742 33.4297C119.953 33.4297 118.602 34.4844 118.602 35.8828ZM127.656 31.3984V33.5781H126.297V34.7031H127.656V39.8125C127.656 41.4219 128.352 42.0625 130.086 42.0625C130.352 42.0625 130.609 42.0312 130.875 41.9844V40.8516C130.625 40.875 130.492 40.8828 130.25 40.8828C129.375 40.8828 129 40.4609 129 39.4688V34.7031H130.875V33.5781H129V31.3984H127.656Z" fill="#FFFEDB"/>
</svg>
