<svg width="331" height="153" viewBox="0 0 331 153" fill="none" xmlns="http://www.w3.org/2000/svg">
<rect x="94" width="237" height="153" rx="8" fill="#E9E9E9"/>
<path d="M120.4 35H123.535L118.633 20.9082H115.166L110.273 35H113.301L114.375 31.582H119.326L120.4 35ZM116.816 23.6035H116.885L118.691 29.375H115.01L116.816 23.6035Z" fill="#111111"/>
<path d="M124.736 35H127.588V28.9941C127.588 27.6367 128.398 26.6992 129.678 26.6992C130.957 26.6992 131.602 27.4805 131.602 28.8477V35H134.453V28.252C134.453 25.8008 133.145 24.3359 130.82 24.3359C129.209 24.3359 128.105 25.0977 127.549 26.3965H127.49V24.5312H124.736V35Z" fill="#111111"/>
<path d="M139.365 35.166C140.674 35.166 141.973 34.5117 142.559 33.3984H142.617V35H145.371V27.8027C145.371 25.6934 143.623 24.3066 140.938 24.3066C138.164 24.3066 136.436 25.7031 136.328 27.7344H138.936C139.072 26.9629 139.746 26.4355 140.811 26.4355C141.885 26.4355 142.568 27.002 142.568 27.9785V28.6719L139.932 28.8281C137.324 28.9844 135.859 30.0879 135.859 31.9922C135.859 33.877 137.373 35.166 139.365 35.166ZM140.303 33.1055C139.336 33.1055 138.691 32.6172 138.691 31.8359C138.691 31.0938 139.297 30.6152 140.361 30.5371L142.568 30.4004V31.1621C142.568 32.2949 141.543 33.1055 140.303 33.1055Z" fill="#111111"/>
<path d="M147.285 35H150.137V20.9082H147.285V35Z" fill="#111111"/>
<path d="M153.408 38.877C156.074 38.877 157.393 37.9102 158.281 35.2246L161.885 24.5312H158.877L156.66 32.7148H156.602L154.375 24.5312H151.25L154.893 35C154.902 35.0488 154.795 35.459 154.795 35.5078C154.6 36.3379 154.082 36.6699 153.047 36.6699C152.939 36.6699 152.422 36.6602 152.324 36.6406V38.8477C152.422 38.8672 153.301 38.877 153.408 38.877Z" fill="#111111"/>
<path d="M163.701 22.1191V24.5312H162.227V26.6797H163.701V32.1777C163.701 34.2188 164.658 35.0391 167.119 35.0391C167.695 35.0391 168.184 34.9902 168.477 34.9219V32.8223C168.301 32.8516 168.037 32.8711 167.783 32.8711C166.943 32.8711 166.553 32.4902 166.553 31.6895V26.6797H168.486V24.5312H166.553V22.1191H163.701Z" fill="#111111"/>
<path d="M171.514 23.1152C172.344 23.1152 172.998 22.4512 172.998 21.6504C172.998 20.8398 172.344 20.1855 171.514 20.1855C170.684 20.1855 170.029 20.8398 170.029 21.6504C170.029 22.4512 170.684 23.1152 171.514 23.1152ZM170.098 35H172.949V24.5312H170.098V35Z" fill="#111111"/>
<path d="M184.365 28.4277C184.238 26.0547 182.441 24.3066 179.609 24.3066C176.475 24.3066 174.473 26.3965 174.473 29.7559C174.473 33.1738 176.475 35.2246 179.629 35.2246C182.383 35.2246 184.229 33.6328 184.375 31.1621H181.719C181.543 32.3047 180.801 32.9883 179.658 32.9883C178.242 32.9883 177.363 31.8164 177.363 29.7559C177.363 27.7344 178.242 26.543 179.648 26.543C180.82 26.543 181.553 27.3242 181.719 28.4277H184.365Z" fill="#111111"/>
<path d="M185.576 27.6074C185.576 29.1797 186.602 30.1953 188.623 30.625L190.41 30.9961C191.436 31.2305 191.797 31.543 191.797 32.0996C191.797 32.7832 191.133 33.2227 190.059 33.2227C188.926 33.2227 188.271 32.7344 188.096 31.8164H185.312C185.498 33.877 187.168 35.2246 190.059 35.2246C192.754 35.2246 194.639 33.8672 194.639 31.8066C194.639 30.2734 193.74 29.4141 191.553 28.9551L189.766 28.5742C188.711 28.3496 188.32 27.9883 188.32 27.4512C188.32 26.7578 188.975 26.3086 189.961 26.3086C191.016 26.3086 191.65 26.8848 191.738 27.7344H194.365C194.307 25.6836 192.646 24.3066 189.961 24.3066C187.295 24.3066 185.576 25.6152 185.576 27.6074Z" fill="#111111"/>
<path d="M204.814 35.2246C207.979 35.2246 210 33.2031 210 29.7559C210 26.3574 207.949 24.3066 204.814 24.3066C201.68 24.3066 199.629 26.3672 199.629 29.7559C199.629 33.1934 201.65 35.2246 204.814 35.2246ZM204.814 33.0469C203.408 33.0469 202.52 31.8652 202.52 29.7656C202.52 27.6855 203.428 26.4844 204.814 26.4844C206.201 26.4844 207.1 27.6855 207.1 29.7656C207.1 31.8652 206.211 33.0469 204.814 33.0469Z" fill="#111111"/>
<path d="M220.791 24.5312H217.812L215.645 32.4805H215.586L213.408 24.5312H210.352L213.975 35H217.197L220.791 24.5312Z" fill="#111111"/>
<path d="M228.428 31.7969C228.164 32.5977 227.363 33.1152 226.318 33.1152C224.863 33.1152 223.916 32.0898 223.916 30.5957V30.4199H231.133V29.5508C231.133 26.3672 229.209 24.3066 226.162 24.3066C223.066 24.3066 221.113 26.4746 221.113 29.8145C221.113 33.1641 223.047 35.2246 226.27 35.2246C228.857 35.2246 230.732 33.8477 231.045 31.7969H228.428ZM226.191 26.416C227.461 26.416 228.33 27.334 228.389 28.6719H223.945C224.043 27.3633 224.941 26.416 226.191 26.416Z" fill="#111111"/>
<path d="M232.607 35H235.459V29.1504C235.459 27.6758 236.279 26.8164 237.686 26.8164C238.096 26.8164 238.486 26.8848 238.721 26.9824V24.4727C238.525 24.4141 238.242 24.3652 237.91 24.3652C236.68 24.3652 235.791 25.0879 235.42 26.416H235.361V24.5312H232.607V35Z" fill="#111111"/>
<path d="M249.463 24.5312H246.484L244.316 32.4805H244.258L242.08 24.5312H239.023L242.646 35H245.869L249.463 24.5312Z" fill="#111111"/>
<path d="M251.924 23.1152C252.754 23.1152 253.408 22.4512 253.408 21.6504C253.408 20.8398 252.754 20.1855 251.924 20.1855C251.094 20.1855 250.439 20.8398 250.439 21.6504C250.439 22.4512 251.094 23.1152 251.924 23.1152ZM250.508 35H253.359V24.5312H250.508V35Z" fill="#111111"/>
<path d="M262.197 31.7969C261.934 32.5977 261.133 33.1152 260.088 33.1152C258.633 33.1152 257.686 32.0898 257.686 30.5957V30.4199H264.902V29.5508C264.902 26.3672 262.979 24.3066 259.932 24.3066C256.836 24.3066 254.883 26.4746 254.883 29.8145C254.883 33.1641 256.816 35.2246 260.039 35.2246C262.627 35.2246 264.502 33.8477 264.814 31.7969H262.197ZM259.961 26.416C261.23 26.416 262.1 27.334 262.158 28.6719H257.715C257.812 27.3633 258.711 26.416 259.961 26.416Z" fill="#111111"/>
<path d="M281.006 24.5312H278.193L276.602 32.2949H276.543L274.678 24.5312H271.943L270.088 32.2949H270.029L268.447 24.5312H265.576L268.359 35H271.357L273.242 27.5977H273.301L275.195 35H278.232L281.006 24.5312Z" fill="#111111"/>
<path d="M115.773 63V52.9922H119.406V51.7266H110.734V52.9922H114.367V63H115.773Z" fill="#111111"/>
<path d="M121.484 63H122.828V58.0156C122.828 56.5938 123.656 55.6406 125.164 55.6406C126.438 55.6406 127.109 56.3828 127.109 57.875V63H128.453V57.5469C128.453 55.5703 127.328 54.4297 125.547 54.4297C124.258 54.4297 123.375 54.9766 122.953 55.9062H122.828V51.2344H121.484V63Z" fill="#111111"/>
<path d="M131.609 52.9531C132.125 52.9531 132.547 52.5312 132.547 52.0156C132.547 51.5 132.125 51.0781 131.609 51.0781C131.094 51.0781 130.672 51.5 130.672 52.0156C130.672 52.5312 131.094 52.9531 131.609 52.9531ZM130.938 63H132.281V54.5781H130.938V63Z" fill="#111111"/>
<path d="M134.648 56.8828C134.648 58.1016 135.367 58.7812 136.945 59.1641L138.391 59.5156C139.289 59.7344 139.727 60.125 139.727 60.7031C139.727 61.4766 138.914 62.0156 137.781 62.0156C136.703 62.0156 136.031 61.5625 135.805 60.8516H134.422C134.57 62.25 135.859 63.1484 137.734 63.1484C139.648 63.1484 141.109 62.1094 141.109 60.6016C141.109 59.3906 140.344 58.7031 138.758 58.3203L137.461 58.0078C136.469 57.7656 136 57.4062 136 56.8281C136 56.0781 136.781 55.5703 137.781 55.5703C138.797 55.5703 139.453 56.0156 139.633 56.6875H140.961C140.781 55.3047 139.555 54.4297 137.789 54.4297C136 54.4297 134.648 55.4844 134.648 56.8828Z" fill="#111111"/>
<path d="M148.438 52.9531C148.953 52.9531 149.375 52.5312 149.375 52.0156C149.375 51.5 148.953 51.0781 148.438 51.0781C147.922 51.0781 147.5 51.5 147.5 52.0156C147.5 52.5312 147.922 52.9531 148.438 52.9531ZM147.766 63H149.109V54.5781H147.766V63Z" fill="#111111"/>
<path d="M151.477 56.8828C151.477 58.1016 152.195 58.7812 153.773 59.1641L155.219 59.5156C156.117 59.7344 156.555 60.125 156.555 60.7031C156.555 61.4766 155.742 62.0156 154.609 62.0156C153.531 62.0156 152.859 61.5625 152.633 60.8516H151.25C151.398 62.25 152.688 63.1484 154.562 63.1484C156.477 63.1484 157.938 62.1094 157.938 60.6016C157.938 59.3906 157.172 58.7031 155.586 58.3203L154.289 58.0078C153.297 57.7656 152.828 57.4062 152.828 56.8281C152.828 56.0781 153.609 55.5703 154.609 55.5703C155.625 55.5703 156.281 56.0156 156.461 56.6875H157.789C157.609 55.3047 156.383 54.4297 154.617 54.4297C152.828 54.4297 151.477 55.4844 151.477 56.8828Z" fill="#111111"/>
<path d="M166.906 63.1484C168.031 63.1484 168.953 62.6562 169.5 61.7578H169.625V63H170.906V57.2344C170.906 55.4844 169.758 54.4297 167.703 54.4297C165.906 54.4297 164.578 55.3203 164.398 56.6719H165.758C165.945 56.0078 166.648 55.625 167.656 55.625C168.914 55.625 169.562 56.1953 169.562 57.2344V58L167.133 58.1484C165.172 58.2656 164.062 59.1328 164.062 60.6406C164.062 62.1797 165.273 63.1484 166.906 63.1484ZM167.156 61.9688C166.18 61.9688 165.453 61.4688 165.453 60.6094C165.453 59.7656 166.016 59.3203 167.297 59.2344L169.562 59.0859V59.8594C169.562 61.0625 168.539 61.9688 167.156 61.9688Z" fill="#111111"/>
<path d="M173.391 63H174.734V58.0156C174.734 56.5391 175.602 55.6406 176.945 55.6406C178.289 55.6406 178.93 56.3594 178.93 57.875V63H180.273V57.5469C180.273 55.5469 179.219 54.4297 177.328 54.4297C176.039 54.4297 175.219 54.9766 174.797 55.9062H174.672V54.5781H173.391V63Z" fill="#111111"/>
<path d="M190.711 63.1484C193.109 63.1484 194.594 61.4922 194.594 58.7891C194.594 56.0781 193.109 54.4297 190.711 54.4297C188.312 54.4297 186.828 56.0781 186.828 58.7891C186.828 61.4922 188.312 63.1484 190.711 63.1484ZM190.711 61.9375C189.117 61.9375 188.219 60.7812 188.219 58.7891C188.219 56.7891 189.117 55.6406 190.711 55.6406C192.305 55.6406 193.203 56.7891 193.203 58.7891C193.203 60.7812 192.305 61.9375 190.711 61.9375Z" fill="#111111"/>
<path d="M203.266 54.5781H201.828L199.523 61.5156H199.398L197.094 54.5781H195.656L198.773 63H200.148L203.266 54.5781Z" fill="#111111"/>
<path d="M210.328 60.8203C209.977 61.5625 209.242 61.9609 208.156 61.9609C206.727 61.9609 205.797 60.9062 205.727 59.2422V59.1797H211.781V58.6641C211.781 56.0469 210.398 54.4297 208.125 54.4297C205.812 54.4297 204.328 56.1484 204.328 58.7969C204.328 61.4609 205.789 63.1484 208.125 63.1484C209.969 63.1484 211.281 62.2578 211.672 60.8203H210.328ZM208.109 55.6172C209.445 55.6172 210.336 56.6016 210.367 58.0938H205.727C205.828 56.6016 206.766 55.6172 208.109 55.6172Z" fill="#111111"/>
<path d="M213.891 63H215.234V57.7812C215.234 56.5938 216.164 55.7344 217.445 55.7344C217.711 55.7344 218.195 55.7812 218.305 55.8125V54.4688C218.133 54.4453 217.852 54.4297 217.633 54.4297C216.516 54.4297 215.547 55.0078 215.297 55.8281H215.172V54.5781H213.891V63Z" fill="#111111"/>
<path d="M226.859 54.5781H225.422L223.117 61.5156H222.992L220.688 54.5781H219.25L222.367 63H223.742L226.859 54.5781Z" fill="#111111"/>
<path d="M229.359 52.9531C229.875 52.9531 230.297 52.5312 230.297 52.0156C230.297 51.5 229.875 51.0781 229.359 51.0781C228.844 51.0781 228.422 51.5 228.422 52.0156C228.422 52.5312 228.844 52.9531 229.359 52.9531ZM228.688 63H230.031V54.5781H228.688V63Z" fill="#111111"/>
<path d="M238.172 60.8203C237.82 61.5625 237.086 61.9609 236 61.9609C234.57 61.9609 233.641 60.9062 233.57 59.2422V59.1797H239.625V58.6641C239.625 56.0469 238.242 54.4297 235.969 54.4297C233.656 54.4297 232.172 56.1484 232.172 58.7969C232.172 61.4609 233.633 63.1484 235.969 63.1484C237.812 63.1484 239.125 62.2578 239.516 60.8203H238.172ZM235.953 55.6172C237.289 55.6172 238.18 56.6016 238.211 58.0938H233.57C233.672 56.6016 234.609 55.6172 235.953 55.6172Z" fill="#111111"/>
<path d="M252.328 54.5781H250.977L249.32 61.3125H249.195L247.312 54.5781H246.023L244.141 61.3125H244.016L242.359 54.5781H241L243.359 63H244.719L246.594 56.4844H246.719L248.602 63H249.969L252.328 54.5781Z" fill="#111111"/>
<path d="M262.102 63.1484C264.5 63.1484 265.984 61.4922 265.984 58.7891C265.984 56.0781 264.5 54.4297 262.102 54.4297C259.703 54.4297 258.219 56.0781 258.219 58.7891C258.219 61.4922 259.703 63.1484 262.102 63.1484ZM262.102 61.9375C260.508 61.9375 259.609 60.7812 259.609 58.7891C259.609 56.7891 260.508 55.6406 262.102 55.6406C263.695 55.6406 264.594 56.7891 264.594 58.7891C264.594 60.7812 263.695 61.9375 262.102 61.9375Z" fill="#111111"/>
<path d="M268.656 63H270V55.7031H271.93V54.5781H270V53.6797C270 52.7578 270.406 52.2891 271.375 52.2891C271.617 52.2891 271.844 52.2969 272.008 52.3281V51.2344C271.727 51.1797 271.43 51.1562 271.102 51.1562C269.5 51.1562 268.656 51.9609 268.656 53.6406V54.5781H267.258V55.7031H268.656V63Z" fill="#111111"/>
<path d="M279.125 66.0469C280.617 66.0469 281.289 65.4688 282.008 63.5156L285.297 54.5781H283.867L281.562 61.5078H281.438L279.125 54.5781H277.672L280.789 63.0078L280.633 63.5078C280.281 64.5234 279.859 64.8906 279.086 64.8906C278.898 64.8906 278.688 64.8828 278.523 64.8516V66C278.711 66.0312 278.945 66.0469 279.125 66.0469Z" fill="#111111"/>
<path d="M290.242 63.1484C292.641 63.1484 294.125 61.4922 294.125 58.7891C294.125 56.0781 292.641 54.4297 290.242 54.4297C287.844 54.4297 286.359 56.0781 286.359 58.7891C286.359 61.4922 287.844 63.1484 290.242 63.1484ZM290.242 61.9375C288.648 61.9375 287.75 60.7812 287.75 58.7891C287.75 56.7891 288.648 55.6406 290.242 55.6406C291.836 55.6406 292.734 56.7891 292.734 58.7891C292.734 60.7812 291.836 61.9375 290.242 61.9375Z" fill="#111111"/>
<path d="M303.047 54.5781H301.703V59.5625C301.703 61.0391 300.891 61.9219 299.406 61.9219C298.062 61.9219 297.5 61.2188 297.5 59.7031V54.5781H296.156V60.0312C296.156 62.0234 297.141 63.1484 299.031 63.1484C300.32 63.1484 301.219 62.6172 301.641 61.6797H301.766V63H303.047V54.5781Z" fill="#111111"/>
<path d="M305.578 63H306.922V57.7812C306.922 56.5938 307.852 55.7344 309.133 55.7344C309.398 55.7344 309.883 55.7812 309.992 55.8125V54.4688C309.82 54.4453 309.539 54.4297 309.32 54.4297C308.203 54.4297 307.234 55.0078 306.984 55.8281H306.859V54.5781H305.578V63Z" fill="#111111"/>
<path d="M113.609 82.1484C114.734 82.1484 115.656 81.6562 116.203 80.7578H116.328V82H117.609V76.2344C117.609 74.4844 116.461 73.4297 114.406 73.4297C112.609 73.4297 111.281 74.3203 111.102 75.6719H112.461C112.648 75.0078 113.352 74.625 114.359 74.625C115.617 74.625 116.266 75.1953 116.266 76.2344V77L113.836 77.1484C111.875 77.2656 110.766 78.1328 110.766 79.6406C110.766 81.1797 111.977 82.1484 113.609 82.1484ZM113.859 80.9688C112.883 80.9688 112.156 80.4688 112.156 79.6094C112.156 78.7656 112.719 78.3203 114 78.2344L116.266 78.0859V78.8594C116.266 80.0625 115.242 80.9688 113.859 80.9688Z" fill="#111111"/>
<path d="M123.211 82.1484C124.375 82.1484 125.375 81.5938 125.906 80.6562H126.031V82H127.312V70.2344H125.969V74.9062H125.852C125.375 73.9844 124.383 73.4297 123.211 73.4297C121.07 73.4297 119.672 75.1484 119.672 77.7891C119.672 80.4375 121.055 82.1484 123.211 82.1484ZM123.523 74.6406C125.047 74.6406 126 75.8594 126 77.7891C126 79.7344 125.055 80.9375 123.523 80.9375C121.984 80.9375 121.062 79.7578 121.062 77.7891C121.062 75.8281 121.992 74.6406 123.523 74.6406Z" fill="#111111"/>
<path d="M135.141 71.9531C135.656 71.9531 136.078 71.5312 136.078 71.0156C136.078 70.5 135.656 70.0781 135.141 70.0781C134.625 70.0781 134.203 70.5 134.203 71.0156C134.203 71.5312 134.625 71.9531 135.141 71.9531ZM134.469 82H135.812V73.5781H134.469V82Z" fill="#111111"/>
<path d="M138.375 82H139.719V76.7812C139.719 75.5938 140.57 74.6406 141.672 74.6406C142.734 74.6406 143.43 75.2812 143.43 76.2812V82H144.773V76.5859C144.773 75.5156 145.555 74.6406 146.727 74.6406C147.914 74.6406 148.5 75.25 148.5 76.4922V82H149.844V76.1797C149.844 74.4141 148.883 73.4297 147.164 73.4297C146 73.4297 145.039 74.0156 144.586 74.9062H144.461C144.07 74.0312 143.273 73.4297 142.133 73.4297C141.008 73.4297 140.164 73.9688 139.781 74.9062H139.656V73.5781H138.375V82Z" fill="#111111"/>
<path d="M156.398 73.4297C155.25 73.4297 154.242 74.0156 153.703 74.9844H153.578V73.5781H152.297V84.8125H153.641V80.7344H153.766C154.227 81.625 155.195 82.1484 156.398 82.1484C158.539 82.1484 159.938 80.4219 159.938 77.7891C159.938 75.1406 158.547 73.4297 156.398 73.4297ZM156.078 80.9375C154.562 80.9375 153.602 79.7188 153.602 77.7891C153.602 75.8516 154.562 74.6406 156.086 74.6406C157.625 74.6406 158.547 75.8203 158.547 77.7891C158.547 79.7578 157.625 80.9375 156.078 80.9375Z" fill="#111111"/>
<path d="M162.047 82H163.391V76.7812C163.391 75.5938 164.32 74.7344 165.602 74.7344C165.867 74.7344 166.352 74.7812 166.461 74.8125V73.4688C166.289 73.4453 166.008 73.4297 165.789 73.4297C164.672 73.4297 163.703 74.0078 163.453 74.8281H163.328V73.5781H162.047V82Z" fill="#111111"/>
<path d="M173.484 79.8203C173.133 80.5625 172.398 80.9609 171.312 80.9609C169.883 80.9609 168.953 79.9062 168.883 78.2422V78.1797H174.938V77.6641C174.938 75.0469 173.555 73.4297 171.281 73.4297C168.969 73.4297 167.484 75.1484 167.484 77.7969C167.484 80.4609 168.945 82.1484 171.281 82.1484C173.125 82.1484 174.438 81.2578 174.828 79.8203H173.484ZM171.266 74.6172C172.602 74.6172 173.492 75.6016 173.523 77.0938H168.883C168.984 75.6016 169.922 74.6172 171.266 74.6172Z" fill="#111111"/>
<path d="M176.852 75.8828C176.852 77.1016 177.57 77.7812 179.148 78.1641L180.594 78.5156C181.492 78.7344 181.93 79.125 181.93 79.7031C181.93 80.4766 181.117 81.0156 179.984 81.0156C178.906 81.0156 178.234 80.5625 178.008 79.8516H176.625C176.773 81.25 178.062 82.1484 179.938 82.1484C181.852 82.1484 183.312 81.1094 183.312 79.6016C183.312 78.3906 182.547 77.7031 180.961 77.3203L179.664 77.0078C178.672 76.7656 178.203 76.4062 178.203 75.8281C178.203 75.0781 178.984 74.5703 179.984 74.5703C181 74.5703 181.656 75.0156 181.836 75.6875H183.164C182.984 74.3047 181.758 73.4297 179.992 73.4297C178.203 73.4297 176.852 74.4844 176.852 75.8828Z" fill="#111111"/>
<path d="M185.07 75.8828C185.07 77.1016 185.789 77.7812 187.367 78.1641L188.812 78.5156C189.711 78.7344 190.148 79.125 190.148 79.7031C190.148 80.4766 189.336 81.0156 188.203 81.0156C187.125 81.0156 186.453 80.5625 186.227 79.8516H184.844C184.992 81.25 186.281 82.1484 188.156 82.1484C190.07 82.1484 191.531 81.1094 191.531 79.6016C191.531 78.3906 190.766 77.7031 189.18 77.3203L187.883 77.0078C186.891 76.7656 186.422 76.4062 186.422 75.8281C186.422 75.0781 187.203 74.5703 188.203 74.5703C189.219 74.5703 189.875 75.0156 190.055 75.6875H191.383C191.203 74.3047 189.977 73.4297 188.211 73.4297C186.422 73.4297 185.07 74.4844 185.07 75.8828Z" fill="#111111"/>
<path d="M194.344 71.9531C194.859 71.9531 195.281 71.5312 195.281 71.0156C195.281 70.5 194.859 70.0781 194.344 70.0781C193.828 70.0781 193.406 70.5 193.406 71.0156C193.406 71.5312 193.828 71.9531 194.344 71.9531ZM193.672 82H195.016V73.5781H193.672V82Z" fill="#111111"/>
<path d="M201.039 82.1484C203.438 82.1484 204.922 80.4922 204.922 77.7891C204.922 75.0781 203.438 73.4297 201.039 73.4297C198.641 73.4297 197.156 75.0781 197.156 77.7891C197.156 80.4922 198.641 82.1484 201.039 82.1484ZM201.039 80.9375C199.445 80.9375 198.547 79.7812 198.547 77.7891C198.547 75.7891 199.445 74.6406 201.039 74.6406C202.633 74.6406 203.531 75.7891 203.531 77.7891C203.531 79.7812 202.633 80.9375 201.039 80.9375Z" fill="#111111"/>
<path d="M207.031 82H208.375V77.0156C208.375 75.5391 209.242 74.6406 210.586 74.6406C211.93 74.6406 212.57 75.3594 212.57 76.875V82H213.914V76.5469C213.914 74.5469 212.859 73.4297 210.969 73.4297C209.68 73.4297 208.859 73.9766 208.438 74.9062H208.312V73.5781H207.031V82Z" fill="#111111"/>
<path d="M216.18 75.8828C216.18 77.1016 216.898 77.7812 218.477 78.1641L219.922 78.5156C220.82 78.7344 221.258 79.125 221.258 79.7031C221.258 80.4766 220.445 81.0156 219.312 81.0156C218.234 81.0156 217.562 80.5625 217.336 79.8516H215.953C216.102 81.25 217.391 82.1484 219.266 82.1484C221.18 82.1484 222.641 81.1094 222.641 79.6016C222.641 78.3906 221.875 77.7031 220.289 77.3203L218.992 77.0078C218 76.7656 217.531 76.4062 217.531 75.8281C217.531 75.0781 218.312 74.5703 219.312 74.5703C220.328 74.5703 220.984 75.0156 221.164 75.6875H222.492C222.312 74.3047 221.086 73.4297 219.32 73.4297C217.531 73.4297 216.18 74.4844 216.18 75.8828Z" fill="#111111"/>
<path d="M229.828 82H231.172V74.7031H233.102V73.5781H231.172V72.6797C231.172 71.7578 231.578 71.2891 232.547 71.2891C232.789 71.2891 233.016 71.2969 233.18 71.3281V70.2344C232.898 70.1797 232.602 70.1562 232.273 70.1562C230.672 70.1562 229.828 70.9609 229.828 72.6406V73.5781H228.43V74.7031H229.828V82Z" fill="#111111"/>
<path d="M238.164 82.1484C240.562 82.1484 242.047 80.4922 242.047 77.7891C242.047 75.0781 240.562 73.4297 238.164 73.4297C235.766 73.4297 234.281 75.0781 234.281 77.7891C234.281 80.4922 235.766 82.1484 238.164 82.1484ZM238.164 80.9375C236.57 80.9375 235.672 79.7812 235.672 77.7891C235.672 75.7891 236.57 74.6406 238.164 74.6406C239.758 74.6406 240.656 75.7891 240.656 77.7891C240.656 79.7812 239.758 80.9375 238.164 80.9375Z" fill="#111111"/>
<path d="M244.156 82H245.5V76.7812C245.5 75.5938 246.43 74.7344 247.711 74.7344C247.977 74.7344 248.461 74.7812 248.57 74.8125V73.4688C248.398 73.4453 248.117 73.4297 247.898 73.4297C246.781 73.4297 245.812 74.0078 245.562 74.8281H245.438V73.5781H244.156V82Z" fill="#111111"/>
<path d="M255.328 71.3984V73.5781H253.969V74.7031H255.328V79.8125C255.328 81.4219 256.023 82.0625 257.758 82.0625C258.023 82.0625 258.281 82.0312 258.547 81.9844V80.8516C258.297 80.875 258.164 80.8828 257.922 80.8828C257.047 80.8828 256.672 80.4609 256.672 79.4688V74.7031H258.547V73.5781H256.672V71.3984H255.328Z" fill="#111111"/>
<path d="M263.914 82.1484C266.312 82.1484 267.797 80.4922 267.797 77.7891C267.797 75.0781 266.312 73.4297 263.914 73.4297C261.516 73.4297 260.031 75.0781 260.031 77.7891C260.031 80.4922 261.516 82.1484 263.914 82.1484ZM263.914 80.9375C262.32 80.9375 261.422 79.7812 261.422 77.7891C261.422 75.7891 262.32 74.6406 263.914 74.6406C265.508 74.6406 266.406 75.7891 266.406 77.7891C266.406 79.7812 265.508 80.9375 263.914 80.9375Z" fill="#111111"/>
<path d="M273.023 82.1484C274.188 82.1484 275.188 81.5938 275.719 80.6562H275.844V82H277.125V70.2344H275.781V74.9062H275.664C275.188 73.9844 274.195 73.4297 273.023 73.4297C270.883 73.4297 269.484 75.1484 269.484 77.7891C269.484 80.4375 270.867 82.1484 273.023 82.1484ZM273.336 74.6406C274.859 74.6406 275.812 75.8594 275.812 77.7891C275.812 79.7344 274.867 80.9375 273.336 80.9375C271.797 80.9375 270.875 79.7578 270.875 77.7891C270.875 75.8281 271.805 74.6406 273.336 74.6406Z" fill="#111111"/>
<path d="M282.078 82.1484C283.203 82.1484 284.125 81.6562 284.672 80.7578H284.797V82H286.078V76.2344C286.078 74.4844 284.93 73.4297 282.875 73.4297C281.078 73.4297 279.75 74.3203 279.57 75.6719H280.93C281.117 75.0078 281.82 74.625 282.828 74.625C284.086 74.625 284.734 75.1953 284.734 76.2344V77L282.305 77.1484C280.344 77.2656 279.234 78.1328 279.234 79.6406C279.234 81.1797 280.445 82.1484 282.078 82.1484ZM282.328 80.9688C281.352 80.9688 280.625 80.4688 280.625 79.6094C280.625 78.7656 281.188 78.3203 282.469 78.2344L284.734 78.0859V78.8594C284.734 80.0625 283.711 80.9688 282.328 80.9688Z" fill="#111111"/>
<path d="M288.969 85.0469C290.461 85.0469 291.133 84.4688 291.852 82.5156L295.141 73.5781H293.711L291.406 80.5078H291.281L288.969 73.5781H287.516L290.633 82.0078L290.477 82.5078C290.125 83.5234 289.703 83.8906 288.93 83.8906C288.742 83.8906 288.531 83.8828 288.367 83.8516V85C288.555 85.0312 288.789 85.0469 288.969 85.0469Z" fill="#111111"/>
<path d="M296.875 82.0781C297.438 82.0781 297.891 81.6172 297.891 81.0625C297.891 80.5 297.438 80.0469 296.875 80.0469C296.32 80.0469 295.859 80.5 295.859 81.0625C295.859 81.6172 296.32 82.0781 296.875 82.0781Z" fill="#111111"/>
<path d="M118.139 128H123.395V102.635H118.121L111.564 107.188V111.898L118.033 107.504H118.139V128Z" fill="#111111"/>
<path d="M131.85 128.211C133.414 128.211 134.68 126.945 134.68 125.381C134.68 123.799 133.414 122.551 131.85 122.551C130.268 122.551 129.02 123.799 129.02 125.381C129.02 126.945 130.268 128.211 131.85 128.211Z" fill="#111111"/>
<path d="M138.354 110.352H143.275C143.275 107.908 145.191 106.203 147.723 106.203C150.008 106.203 151.572 107.75 151.572 109.789C151.572 111.547 150.852 112.76 147.635 115.854L138.652 124.361V128H157.092V123.781H145.596V123.676L150.922 118.578C155.211 114.482 156.74 112.566 156.74 109.455C156.74 105.236 153.154 102.072 147.723 102.072C142.221 102.072 138.354 105.465 138.354 110.352Z" fill="#111111"/>
<path d="M169.748 128.562C176.34 128.562 180.33 123.5 180.33 115.098C180.33 105.834 175.338 102.055 169.748 102.055C164.088 102.055 159.975 105.799 159.975 111.055C159.975 115.994 163.684 119.334 168.395 119.334C171.717 119.334 174.23 117.682 175.145 115.221H175.25C175.285 120.67 173.58 124.361 169.766 124.361C167.639 124.361 166.074 123.395 165.512 121.584H160.273C160.941 125.697 164.773 128.562 169.748 128.562ZM169.766 115.396C167.111 115.396 165.143 113.498 165.143 110.844C165.143 108.277 167.199 106.291 169.818 106.291C172.42 106.291 174.477 108.312 174.477 110.932C174.477 113.533 172.438 115.396 169.766 115.396Z" fill="#111111"/>
<path d="M188.82 116.715H188.75V102.635H183.617V128H188.75V121.777L190.086 120.336L195.482 128H201.389L193.848 117.242L201.037 109.156H195.219L188.82 116.715Z" fill="#111111"/>
<path d="M67.0767 33.9999V23.5039H68.4207V27.9039H72.8047V23.5039H74.1487V33.9999H72.8047V29.0559H68.4207V33.9999H67.0767Z" fill="#A30C4A"/>
<path d="M76.9584 33.9999V32.9119H79.9024V25.3919H77.6144V24.5439C78.2224 24.4586 78.7291 24.3572 79.1344 24.2399C79.5397 24.1226 79.9077 23.9732 80.2384 23.7919H81.2144V32.9119H83.8864V33.9999H76.9584Z" fill="#A30C4A"/>
<path d="M0.28833 72.9999V62.5039H3.45633C4.03233 62.5039 4.56033 62.5572 5.04033 62.6639C5.52033 62.7706 5.931 62.9466 6.27233 63.1919C6.61366 63.4266 6.875 63.7412 7.05633 64.1359C7.24833 64.5306 7.34433 65.0159 7.34433 65.5919C7.34433 66.1466 7.24833 66.6266 7.05633 67.0319C6.875 67.4372 6.60833 67.7732 6.25633 68.0399C5.915 68.3066 5.50433 68.5092 5.02433 68.6479C4.555 68.7759 4.03233 68.8399 3.45633 68.8399H1.61633V72.9999H0.28833ZM1.61633 67.7519H3.29633C4.22433 67.7519 4.907 67.5812 5.34433 67.2399C5.78166 66.8879 6.00033 66.3386 6.00033 65.5919C6.00033 64.8346 5.77633 64.3119 5.32833 64.0239C4.88033 63.7252 4.203 63.5759 3.29633 63.5759H1.61633V67.7519Z" fill="#A30C4A"/>
<path d="M12.1861 73.1919C11.8234 73.1919 11.4821 73.1386 11.1621 73.0319C10.8421 72.9359 10.5594 72.7972 10.3141 72.6159C10.0794 72.4239 9.89275 72.1946 9.75408 71.9279C9.61541 71.6506 9.54608 71.3359 9.54608 70.9839C9.54608 70.5466 9.64741 70.1679 9.85008 69.8479C10.0634 69.5172 10.3941 69.2346 10.8421 68.9999C11.3007 68.7652 11.8874 68.5732 12.6021 68.4239C13.3167 68.2746 14.1754 68.1572 15.1781 68.0719C15.1674 67.8052 15.1247 67.5546 15.0501 67.3199C14.9754 67.0852 14.8581 66.8826 14.6981 66.7119C14.5381 66.5306 14.3247 66.3866 14.0581 66.2799C13.8021 66.1732 13.4874 66.1199 13.1141 66.1199C12.6021 66.1199 12.1114 66.2212 11.6421 66.4239C11.1727 66.6159 10.7567 66.8239 10.3941 67.0479L9.88208 66.1519C10.0741 66.0239 10.2981 65.8959 10.5541 65.7679C10.8207 65.6292 11.0981 65.5066 11.3861 65.3999C11.6847 65.2932 11.9994 65.2079 12.3301 65.1439C12.6607 65.0692 12.9967 65.0319 13.3381 65.0319C14.4047 65.0319 15.1941 65.3252 15.7061 65.9119C16.2287 66.4879 16.4901 67.2612 16.4901 68.2319V72.9999H15.4181L15.3061 71.9439H15.2581C14.8207 72.2852 14.3354 72.5786 13.8021 72.8239C13.2794 73.0692 12.7407 73.1919 12.1861 73.1919ZM12.5381 72.1359C12.9861 72.1359 13.4234 72.0399 13.8501 71.8479C14.2874 71.6452 14.7301 71.3572 15.1781 70.9839V68.9359C14.3461 68.9999 13.6474 69.0906 13.0821 69.2079C12.5274 69.3252 12.0794 69.4692 11.7381 69.6399C11.4074 69.7999 11.1727 69.9866 11.0341 70.1999C10.8954 70.4026 10.8261 70.6319 10.8261 70.8879C10.8261 71.1119 10.8741 71.3039 10.9701 71.4639C11.0661 71.6132 11.1887 71.7412 11.3381 71.8479C11.4981 71.9439 11.6794 72.0186 11.8821 72.0719C12.0954 72.1146 12.3141 72.1359 12.5381 72.1359Z" fill="#A30C4A"/>
<path d="M20.1798 72.9999V65.2239H21.2678L21.3798 67.0639H21.4278C21.8332 66.4346 22.3292 65.9386 22.9158 65.5759C23.5132 65.2132 24.1745 65.0319 24.8998 65.0319C25.1878 65.0319 25.4545 65.0586 25.6998 65.1119C25.9452 65.1546 26.1905 65.2346 26.4358 65.3519L26.1318 66.4879C25.8545 66.3919 25.6198 66.3226 25.4278 66.2799C25.2465 66.2372 25.0012 66.2159 24.6918 66.2159C24.1052 66.2159 23.5398 66.3866 22.9958 66.7279C22.4625 67.0586 21.9612 67.6292 21.4918 68.4399V72.9999H20.1798Z" fill="#A30C4A"/>
<path d="M31.3736 73.1919C31.0109 73.1919 30.6696 73.1386 30.3496 73.0319C30.0296 72.9359 29.7469 72.7972 29.5016 72.6159C29.2669 72.4239 29.0802 72.1946 28.9416 71.9279C28.8029 71.6506 28.7336 71.3359 28.7336 70.9839C28.7336 70.5466 28.8349 70.1679 29.0376 69.8479C29.2509 69.5172 29.5816 69.2346 30.0296 68.9999C30.4882 68.7652 31.0749 68.5732 31.7896 68.4239C32.5042 68.2746 33.3629 68.1572 34.3656 68.0719C34.3549 67.8052 34.3122 67.5546 34.2376 67.3199C34.1629 67.0852 34.0456 66.8826 33.8856 66.7119C33.7256 66.5306 33.5122 66.3866 33.2456 66.2799C32.9896 66.1732 32.6749 66.1199 32.3016 66.1199C31.7896 66.1199 31.2989 66.2212 30.8296 66.4239C30.3602 66.6159 29.9442 66.8239 29.5816 67.0479L29.0696 66.1519C29.2616 66.0239 29.4856 65.8959 29.7416 65.7679C30.0082 65.6292 30.2856 65.5066 30.5736 65.3999C30.8722 65.2932 31.1869 65.2079 31.5176 65.1439C31.8482 65.0692 32.1842 65.0319 32.5256 65.0319C33.5922 65.0319 34.3816 65.3252 34.8936 65.9119C35.4162 66.4879 35.6776 67.2612 35.6776 68.2319V72.9999H34.6056L34.4936 71.9439H34.4456C34.0082 72.2852 33.5229 72.5786 32.9896 72.8239C32.4669 73.0692 31.9282 73.1919 31.3736 73.1919ZM31.7256 72.1359C32.1736 72.1359 32.6109 72.0399 33.0376 71.8479C33.4749 71.6452 33.9176 71.3572 34.3656 70.9839V68.9359C33.5336 68.9999 32.8349 69.0906 32.2696 69.2079C31.7149 69.3252 31.2669 69.4692 30.9256 69.6399C30.5949 69.7999 30.3602 69.9866 30.2216 70.1999C30.0829 70.4026 30.0136 70.6319 30.0136 70.8879C30.0136 71.1119 30.0616 71.3039 30.1576 71.4639C30.2536 71.6132 30.3762 71.7412 30.5256 71.8479C30.6856 71.9439 30.8669 72.0186 31.0696 72.0719C31.2829 72.1146 31.5016 72.1359 31.7256 72.1359Z" fill="#A30C4A"/>
<path d="M41.7673 76.5839C40.626 76.5839 39.7407 76.3972 39.1113 76.0239C38.4927 75.6506 38.1833 75.1172 38.1833 74.4239C38.1833 74.1146 38.29 73.8106 38.5033 73.5119C38.7273 73.2132 39.0473 72.9412 39.4633 72.6959V72.6319C39.25 72.5146 39.0633 72.3546 38.9033 72.1519C38.7433 71.9492 38.6633 71.6826 38.6633 71.3519C38.6633 71.1066 38.7433 70.8559 38.9033 70.5999C39.0633 70.3332 39.2927 70.0986 39.5913 69.8959V69.8319C39.3247 69.6292 39.0953 69.3626 38.9033 69.0319C38.722 68.6906 38.6313 68.2852 38.6313 67.8159C38.6313 67.3892 38.7113 67.0052 38.8713 66.6639C39.042 66.3226 39.266 66.0346 39.5433 65.7999C39.8207 65.5546 40.1407 65.3679 40.5033 65.2399C40.8767 65.1012 41.2713 65.0319 41.6873 65.0319C42.114 65.0319 42.498 65.0959 42.8393 65.2239H46.0553V66.2959H44.0393C44.2207 66.4772 44.3753 66.7066 44.5033 66.9839C44.6313 67.2612 44.6953 67.5546 44.6953 67.8639C44.6953 68.2799 44.6153 68.6532 44.4553 68.9839C44.306 69.3146 44.0927 69.5972 43.8153 69.8319C43.5487 70.0559 43.2287 70.2319 42.8553 70.3599C42.4927 70.4772 42.1033 70.5359 41.6873 70.5359C41.4847 70.5359 41.266 70.5146 41.0313 70.4719C40.8073 70.4186 40.5887 70.3439 40.3753 70.2479C39.97 70.5039 39.7673 70.8026 39.7673 71.1439C39.7673 71.4532 39.906 71.6826 40.1833 71.8319C40.4713 71.9706 40.8713 72.0399 41.3833 72.0399H43.1273C44.13 72.0399 44.8713 72.1786 45.3513 72.4559C45.842 72.7332 46.0873 73.2026 46.0873 73.8639C46.0873 74.2266 45.986 74.5732 45.7833 74.9039C45.5807 75.2346 45.2927 75.5226 44.9193 75.7679C44.546 76.0132 44.0927 76.2106 43.5593 76.3599C43.026 76.5092 42.4287 76.5839 41.7673 76.5839ZM41.6873 69.6559C42.1887 69.6559 42.61 69.4906 42.9513 69.1599C43.3033 68.8292 43.4793 68.3812 43.4793 67.8159C43.4793 67.5492 43.4313 67.3039 43.3353 67.0799C43.2393 66.8559 43.1113 66.6639 42.9513 66.5039C42.7913 66.3439 42.5993 66.2212 42.3753 66.1359C42.162 66.0399 41.9327 65.9919 41.6873 65.9919C41.442 65.9919 41.2073 66.0399 40.9833 66.1359C40.77 66.2212 40.5833 66.3439 40.4233 66.5039C40.2633 66.6639 40.1353 66.8559 40.0393 67.0799C39.9433 67.3039 39.8953 67.5492 39.8953 67.8159C39.8953 68.3812 40.0713 68.8292 40.4233 69.1599C40.7753 69.4906 41.1967 69.6559 41.6873 69.6559ZM41.8633 75.6239C42.3113 75.6239 42.7167 75.5812 43.0793 75.4959C43.442 75.4106 43.7513 75.2932 44.0073 75.1439C44.2633 75.0052 44.4553 74.8399 44.5833 74.6479C44.722 74.4666 44.7913 74.2746 44.7913 74.0719C44.7913 73.6986 44.642 73.4479 44.3433 73.3199C44.0553 73.1919 43.6127 73.1279 43.0153 73.1279H41.4953C41.2713 73.1279 41.058 73.1172 40.8553 73.0959C40.6633 73.0852 40.482 73.0532 40.3113 72.9999C39.938 73.2026 39.6767 73.4106 39.5273 73.6239C39.3887 73.8479 39.3193 74.0719 39.3193 74.2959C39.3193 74.7012 39.5327 75.0212 39.9593 75.2559C40.3967 75.5012 41.0313 75.6239 41.8633 75.6239Z" fill="#A30C4A"/>
<path d="M48.9611 72.9999V65.2239H50.0491L50.1611 67.0639H50.2091C50.6144 66.4346 51.1104 65.9386 51.6971 65.5759C52.2944 65.2132 52.9557 65.0319 53.6811 65.0319C53.9691 65.0319 54.2357 65.0586 54.4811 65.1119C54.7264 65.1546 54.9717 65.2346 55.2171 65.3519L54.9131 66.4879C54.6357 66.3919 54.4011 66.3226 54.2091 66.2799C54.0277 66.2372 53.7824 66.2159 53.4731 66.2159C52.8864 66.2159 52.3211 66.3866 51.7771 66.7279C51.2437 67.0586 50.7424 67.6292 50.2731 68.4399V72.9999H48.9611Z" fill="#A30C4A"/>
<path d="M60.1548 73.1919C59.7922 73.1919 59.4508 73.1386 59.1308 73.0319C58.8108 72.9359 58.5282 72.7972 58.2828 72.6159C58.0482 72.4239 57.8615 72.1946 57.7228 71.9279C57.5842 71.6506 57.5148 71.3359 57.5148 70.9839C57.5148 70.5466 57.6162 70.1679 57.8188 69.8479C58.0322 69.5172 58.3628 69.2346 58.8108 68.9999C59.2695 68.7652 59.8562 68.5732 60.5708 68.4239C61.2855 68.2746 62.1442 68.1572 63.1468 68.0719C63.1362 67.8052 63.0935 67.5546 63.0188 67.3199C62.9442 67.0852 62.8268 66.8826 62.6668 66.7119C62.5068 66.5306 62.2935 66.3866 62.0268 66.2799C61.7708 66.1732 61.4562 66.1199 61.0828 66.1199C60.5708 66.1199 60.0802 66.2212 59.6108 66.4239C59.1415 66.6159 58.7255 66.8239 58.3628 67.0479L57.8508 66.1519C58.0428 66.0239 58.2668 65.8959 58.5228 65.7679C58.7895 65.6292 59.0668 65.5066 59.3548 65.3999C59.6535 65.2932 59.9682 65.2079 60.2988 65.1439C60.6295 65.0692 60.9655 65.0319 61.3068 65.0319C62.3735 65.0319 63.1628 65.3252 63.6748 65.9119C64.1975 66.4879 64.4588 67.2612 64.4588 68.2319V72.9999H63.3868L63.2748 71.9439H63.2268C62.7895 72.2852 62.3042 72.5786 61.7708 72.8239C61.2482 73.0692 60.7095 73.1919 60.1548 73.1919ZM60.5068 72.1359C60.9548 72.1359 61.3922 72.0399 61.8188 71.8479C62.2562 71.6452 62.6988 71.3572 63.1468 70.9839V68.9359C62.3148 68.9999 61.6162 69.0906 61.0508 69.2079C60.4962 69.3252 60.0482 69.4692 59.7068 69.6399C59.3762 69.7999 59.1415 69.9866 59.0028 70.1999C58.8642 70.4026 58.7948 70.6319 58.7948 70.8879C58.7948 71.1119 58.8428 71.3039 58.9388 71.4639C59.0348 71.6132 59.1575 71.7412 59.3068 71.8479C59.4668 71.9439 59.6482 72.0186 59.8508 72.0719C60.0642 72.1146 60.2828 72.1359 60.5068 72.1359Z" fill="#A30C4A"/>
<path d="M67.3006 76.2799V65.2239H68.3886L68.5006 66.2159H68.5486C68.9112 65.8746 69.3272 65.5919 69.7966 65.3679C70.2766 65.1439 70.7566 65.0319 71.2366 65.0319C71.7592 65.0319 72.2179 65.1279 72.6126 65.3199C73.0179 65.5012 73.3539 65.7679 73.6206 66.1199C73.8979 66.4612 74.1059 66.8772 74.2446 67.3679C74.3832 67.8479 74.4526 68.3919 74.4526 68.9999C74.4526 69.6612 74.3566 70.2532 74.1646 70.7759C73.9726 71.2879 73.7112 71.7252 73.3806 72.0879C73.0606 72.4506 72.6872 72.7279 72.2606 72.9199C71.8339 73.1012 71.3859 73.1919 70.9166 73.1919C70.5539 73.1919 70.1592 73.1066 69.7326 72.9359C69.3166 72.7546 68.9379 72.5039 68.5966 72.1839H68.5486L68.6126 73.6559V76.2799H67.3006ZM70.6926 72.0879C71.3966 72.0879 71.9726 71.8159 72.4206 71.2719C72.8686 70.7279 73.0926 69.9706 73.0926 68.9999C73.0926 68.5732 73.0499 68.1839 72.9646 67.8319C72.8792 67.4799 72.7459 67.1812 72.5646 66.9359C72.3939 66.6799 72.1699 66.4826 71.8926 66.3439C71.6152 66.2052 71.2846 66.1359 70.9006 66.1359C70.5592 66.1359 70.1912 66.2319 69.7966 66.4239C69.4126 66.6052 69.0179 66.8986 68.6126 67.3039V71.1759C68.9859 71.5066 69.3592 71.7412 69.7326 71.8799C70.1059 72.0186 70.4259 72.0879 70.6926 72.0879Z" fill="#A30C4A"/>
<path d="M76.8943 72.9999V61.6079H78.2063V64.7119L78.1263 66.5519H78.1743C78.5797 66.1146 79.0117 65.7519 79.4703 65.4639C79.9397 65.1759 80.4783 65.0319 81.0863 65.0319C82.0143 65.0319 82.6917 65.2986 83.1183 65.8319C83.5557 66.3546 83.7743 67.1332 83.7743 68.1679V72.9999H82.4623V68.3439C82.4623 67.6079 82.3237 67.0639 82.0463 66.7119C81.769 66.3492 81.3103 66.1679 80.6703 66.1679C80.4357 66.1679 80.217 66.1999 80.0143 66.2639C79.8223 66.3172 79.6303 66.4026 79.4383 66.5199C79.2463 66.6372 79.049 66.7866 78.8463 66.9679C78.6437 67.1386 78.4303 67.3412 78.2063 67.5759V72.9999H76.8943Z" fill="#A30C4A"/>
<path d="M28.5896 122V111.504H30.2216L31.6936 115.984L32.2056 117.68H32.2696L32.7656 115.984L34.2536 111.504H35.8856V122H34.6056V116.752C34.6056 116.496 34.6109 116.203 34.6216 115.872C34.6429 115.531 34.6643 115.189 34.6856 114.848C34.7176 114.507 34.7443 114.176 34.7656 113.856C34.7869 113.536 34.8083 113.264 34.8296 113.04H34.7816L34.1896 115.088L32.6856 119.216H31.7256L30.2536 115.088L29.6456 113.04H29.6136C29.6349 113.264 29.6563 113.536 29.6776 113.856C29.7096 114.176 29.7363 114.507 29.7576 114.848C29.7789 115.189 29.7949 115.531 29.8056 115.872C29.8269 116.203 29.8376 116.496 29.8376 116.752V122H28.5896Z" fill="#A30C4A"/>
<path d="M42.3113 122.192C41.7247 122.192 41.1754 122.101 40.6634 121.92C40.162 121.739 39.7194 121.472 39.3354 121.12C38.962 120.768 38.6634 120.341 38.4394 119.84C38.226 119.328 38.1193 118.747 38.1193 118.096C38.1193 117.467 38.226 116.901 38.4394 116.4C38.6634 115.899 38.9567 115.472 39.3193 115.12C39.6927 114.768 40.114 114.501 40.5834 114.32C41.0634 114.128 41.5647 114.032 42.0873 114.032C42.642 114.032 43.138 114.123 43.5753 114.304C44.0234 114.475 44.3967 114.72 44.6954 115.04C45.0047 115.36 45.2393 115.744 45.3993 116.192C45.5593 116.64 45.6394 117.136 45.6394 117.68C45.6394 117.829 45.634 117.973 45.6234 118.112C45.6127 118.251 45.5967 118.373 45.5753 118.48H39.4473C39.5327 119.365 39.8527 120.032 40.4073 120.48C40.9727 120.917 41.6607 121.136 42.4713 121.136C42.9407 121.136 43.362 121.072 43.7353 120.944C44.1193 120.805 44.4873 120.624 44.8393 120.4L45.3193 121.264C44.9353 121.52 44.4927 121.739 43.9914 121.92C43.5007 122.101 42.9407 122.192 42.3113 122.192ZM42.1193 115.072C41.7993 115.072 41.49 115.125 41.1913 115.232C40.9033 115.339 40.642 115.493 40.4073 115.696C40.1727 115.888 39.9753 116.133 39.8153 116.432C39.6553 116.731 39.5434 117.072 39.4794 117.456H44.4394C44.386 116.656 44.1513 116.059 43.7353 115.664C43.33 115.269 42.7913 115.072 42.1193 115.072Z" fill="#A30C4A"/>
<path d="M52.9291 122.192C52.3638 122.192 51.8891 122.117 51.5051 121.968C51.1211 121.808 50.8118 121.589 50.5771 121.312C50.3424 121.024 50.1718 120.683 50.0651 120.288C49.9691 119.893 49.9211 119.456 49.9211 118.976V115.296H47.7291V114.304L49.9691 114.224L50.1451 111.728H51.2331V114.224H55.0571V115.296H51.2331V118.992C51.2331 119.344 51.2651 119.653 51.3291 119.92C51.3931 120.176 51.4998 120.395 51.6491 120.576C51.7984 120.757 52.0011 120.896 52.2571 120.992C52.5131 121.077 52.8278 121.12 53.2011 121.12C53.5744 121.12 53.9104 121.088 54.2091 121.024C54.5078 120.96 54.7958 120.875 55.0731 120.768L55.3611 121.728C55.0091 121.856 54.6358 121.963 54.2411 122.048C53.8571 122.144 53.4198 122.192 52.9291 122.192Z" fill="#A30C4A"/>
<path d="M58.5548 122V114.224H59.6428L59.7549 116.064H59.8028C60.2082 115.435 60.7042 114.939 61.2908 114.576C61.8882 114.213 62.5495 114.032 63.2748 114.032C63.5628 114.032 63.8295 114.059 64.0748 114.112C64.3202 114.155 64.5655 114.235 64.8108 114.352L64.5069 115.488C64.2295 115.392 63.9948 115.323 63.8028 115.28C63.6215 115.237 63.3762 115.216 63.0668 115.216C62.4802 115.216 61.9148 115.387 61.3708 115.728C60.8375 116.059 60.3362 116.629 59.8668 117.44V122H58.5548Z" fill="#A30C4A"/>
<path d="M70.8686 122V115.296H67.2526V114.224H72.1806V122H70.8686ZM71.3806 112.592C71.0819 112.592 70.8313 112.501 70.6286 112.32C70.4259 112.128 70.3246 111.877 70.3246 111.568C70.3246 111.259 70.4259 111.013 70.6286 110.832C70.8313 110.64 71.0819 110.544 71.3806 110.544C71.6793 110.544 71.9299 110.64 72.1326 110.832C72.3353 111.013 72.4366 111.259 72.4366 111.568C72.4366 111.877 72.3353 112.128 72.1326 112.32C71.9299 112.501 71.6793 112.592 71.3806 112.592Z" fill="#A30C4A"/>
<path d="M80.9423 122.192C80.3343 122.192 79.769 122.101 79.2463 121.92C78.7343 121.739 78.2864 121.477 77.9024 121.136C77.5184 120.784 77.2197 120.357 77.0063 119.856C76.793 119.344 76.6863 118.768 76.6863 118.128C76.6863 117.477 76.7984 116.901 77.0224 116.4C77.257 115.888 77.5717 115.456 77.9664 115.104C78.361 114.752 78.8197 114.485 79.3424 114.304C79.8757 114.123 80.4357 114.032 81.0224 114.032C81.6624 114.032 82.2117 114.144 82.6703 114.368C83.1397 114.592 83.5344 114.859 83.8544 115.168L83.1983 116.016C82.8783 115.739 82.5423 115.52 82.1903 115.36C81.849 115.2 81.4757 115.12 81.0704 115.12C80.6224 115.12 80.2117 115.195 79.8383 115.344C79.465 115.483 79.145 115.685 78.8783 115.952C78.6223 116.219 78.4197 116.539 78.2704 116.912C78.121 117.275 78.0463 117.68 78.0463 118.128C78.0463 118.576 78.1157 118.981 78.2543 119.344C78.4037 119.707 78.6064 120.021 78.8624 120.288C79.129 120.544 79.4437 120.747 79.8064 120.896C80.1797 121.035 80.5903 121.104 81.0383 121.104C81.5183 121.104 81.9557 121.013 82.3503 120.832C82.7557 120.64 83.1184 120.405 83.4384 120.128L84.0303 120.976C83.593 121.36 83.113 121.659 82.5904 121.872C82.0677 122.085 81.5183 122.192 80.9423 122.192Z" fill="#A30C4A"/>
</svg>
