<svg width="260" height="160" viewBox="0 0 260 160" fill="none" xmlns="http://www.w3.org/2000/svg">
<path d="M33.5601 45H41.9401V43.2H35.4601V30.9H33.5601V45Z" fill="#005C62"/>
<path d="M52.686 43.36C52.466 43.56 52.266 43.66 52.046 43.66C51.686 43.66 51.486 43.38 51.486 43.02V38.82C51.486 36.4 50.066 35.22 47.626 35.22C45.606 35.22 44.126 36.14 43.646 37.74L45.246 38.44C45.566 37.36 46.346 36.82 47.566 36.82C48.926 36.82 49.686 37.52 49.686 38.96V38.98C48.506 39.08 47.446 39.22 46.546 39.42C44.526 39.84 43.506 40.84 43.506 42.46C43.506 44.08 44.846 45.28 46.766 45.28C48.106 45.28 49.206 44.66 49.726 43.62C49.886 44.64 50.566 45.28 51.546 45.28C52.346 45.28 52.826 45 53.266 44.54L52.686 43.36ZM47.206 43.74C46.086 43.74 45.406 43.22 45.406 42.3C45.406 41.52 45.886 41.08 46.946 40.84C47.586 40.68 48.326 40.56 49.686 40.44V40.88C49.686 42.64 48.726 43.74 47.206 43.74Z" fill="#005C62"/>
<path d="M57.8125 45.28C59.9525 45.28 61.3925 44.02 61.3925 42.34C61.3925 40.88 60.5525 39.9 58.9725 39.6L57.4725 39.3C56.4525 39.1 56.0525 38.58 56.0525 37.96C56.0525 37.22 56.6925 36.74 57.6925 36.74C58.8125 36.74 59.4925 37.22 59.7325 38.3L61.4525 37.8C61.0925 36.12 59.7325 35.22 57.7525 35.22C55.6925 35.22 54.2525 36.36 54.2525 38.06C54.2525 39.44 55.1525 40.5 56.7525 40.8L58.3525 41.12C59.2125 41.3 59.5925 41.74 59.5925 42.46C59.5925 43.24 58.9525 43.74 57.8325 43.74C56.6525 43.74 55.8325 43.04 55.6325 41.88L53.8925 42.34C54.2525 44.22 55.6325 45.28 57.8125 45.28Z" fill="#005C62"/>
<path d="M66.8554 45.28C68.9954 45.28 70.4354 44.02 70.4354 42.34C70.4354 40.88 69.5954 39.9 68.0154 39.6L66.5154 39.3C65.4954 39.1 65.0954 38.58 65.0954 37.96C65.0954 37.22 65.7354 36.74 66.7354 36.74C67.8554 36.74 68.5354 37.22 68.7754 38.3L70.4954 37.8C70.1354 36.12 68.7754 35.22 66.7954 35.22C64.7354 35.22 63.2954 36.36 63.2954 38.06C63.2954 39.44 64.1954 40.5 65.7954 40.8L67.3954 41.12C68.2554 41.3 68.6354 41.74 68.6354 42.46C68.6354 43.24 67.9954 43.74 66.8754 43.74C65.6954 43.74 64.8754 43.04 64.6754 41.88L62.9354 42.34C63.2954 44.22 64.6754 45.28 66.8554 45.28Z" fill="#005C62"/>
<path d="M83.3553 40.88C83.3553 42.52 82.3953 43.52 80.8553 43.52C79.3353 43.52 78.5953 42.7 78.5953 41V35.5H76.7953V41.6C76.7953 43.88 78.0953 45.28 80.2753 45.28C81.7753 45.28 82.9353 44.62 83.3553 43.5V45H85.1553V35.5H83.3553V40.88Z" fill="#005C62"/>
<path d="M92.7518 35.22C91.2318 35.22 90.0918 35.9 89.6718 37.02V35.5H87.8718V45H89.6718V39.62C89.6718 38 90.6318 36.96 92.1918 36.96C93.7518 36.96 94.5318 37.82 94.5318 39.5V45H96.3318V38.9C96.3318 36.62 94.9718 35.22 92.7518 35.22Z" fill="#005C62"/>
<path d="M102.246 45.28C104.386 45.28 105.826 44.02 105.826 42.34C105.826 40.88 104.986 39.9 103.406 39.6L101.906 39.3C100.886 39.1 100.486 38.58 100.486 37.96C100.486 37.22 101.126 36.74 102.126 36.74C103.246 36.74 103.926 37.22 104.166 38.3L105.886 37.8C105.526 36.12 104.166 35.22 102.186 35.22C100.126 35.22 98.686 36.36 98.686 38.06C98.686 39.44 99.586 40.5 101.186 40.8L102.786 41.12C103.646 41.3 104.026 41.74 104.026 42.46C104.026 43.24 103.386 43.74 102.266 43.74C101.086 43.74 100.266 43.04 100.066 41.88L98.326 42.34C98.686 44.22 100.066 45.28 102.246 45.28Z" fill="#005C62"/>
<path d="M40.2001 62.92C39.7401 61.88 38.5601 61.22 37.1401 61.22C34.5401 61.22 32.8601 63.22 32.8601 65.78C32.8601 68.36 34.5401 70.36 37.1401 70.36C38.5601 70.36 39.7401 69.68 40.2001 68.66V70.3C40.2001 72.2 38.9801 73.06 37.5001 73.06C36.0401 73.06 35.1801 72.4 34.7801 71.08L32.9801 71.68C33.5401 73.68 35.2001 74.68 37.5601 74.68C40.0801 74.68 42.0001 73.16 42.0001 70.24V61.5H40.2001V62.92ZM37.5201 68.68C35.7401 68.68 34.7201 67.42 34.7201 65.78C34.7201 64.16 35.7401 62.9 37.5201 62.9C39.2801 62.9 40.3201 64.16 40.3201 65.78C40.3201 67.42 39.2801 68.68 37.5201 68.68Z" fill="#005C62"/>
<path d="M53.4073 65.74C53.4073 63.04 51.6073 61.22 48.8673 61.22C46.3073 61.22 44.2273 63.06 44.2273 66.18C44.2273 69.58 46.3673 71.28 49.0273 71.28C51.1273 71.28 52.6273 70.34 53.1473 68.74L51.5473 68.02C51.0873 69.12 50.2873 69.58 49.0273 69.58C47.4673 69.58 46.2473 68.64 46.1273 66.82H53.3273C53.3873 66.54 53.4073 66.12 53.4073 65.74ZM48.8473 62.82C50.3673 62.82 51.3673 63.68 51.5073 65.3H46.1273C46.2273 63.56 47.3873 62.82 48.8473 62.82Z" fill="#005C62"/>
<path d="M60.5253 61.22C59.0053 61.22 57.8653 61.9 57.4453 63.02V56.9H55.6453V71H57.4453V65.62C57.4453 64 58.4053 62.96 59.9653 62.96C61.5253 62.96 62.3053 63.82 62.3053 65.5V71H64.1053V64.9C64.1053 62.62 62.7453 61.22 60.5253 61.22Z" fill="#005C62"/>
<path d="M75.3995 65.74C75.3995 63.04 73.5995 61.22 70.8595 61.22C68.2995 61.22 66.2195 63.06 66.2195 66.18C66.2195 69.58 68.3595 71.28 71.0195 71.28C73.1195 71.28 74.6195 70.34 75.1395 68.74L73.5395 68.02C73.0795 69.12 72.2795 69.58 71.0195 69.58C69.4595 69.58 68.2395 68.64 68.1195 66.82H75.3195C75.3795 66.54 75.3995 66.12 75.3995 65.74ZM70.8395 62.82C72.3595 62.82 73.3595 63.68 73.4995 65.3H68.1195C68.2195 63.56 69.3795 62.82 70.8395 62.82Z" fill="#005C62"/>
<path d="M82.5175 61.22C80.9975 61.22 79.8575 61.9 79.4375 63.02V61.5H77.6375V71H79.4375V65.62C79.4375 64 80.3975 62.96 81.9575 62.96C83.5175 62.96 84.2975 63.82 84.2975 65.5V71H86.0975V64.9C86.0975 62.62 84.7375 61.22 82.5175 61.22Z" fill="#005C62"/>
<path d="M42.4601 88.84C42.6801 89.46 42.9601 90.38 43.4001 91.52C44.0601 93.34 45.1601 95.32 46.0001 96.6C45.2801 96.52 43.8001 96.4 42.6801 96.3L42.5601 97.62C44.0001 97.72 46.4401 97.94 47.4001 98.18L48.2001 97.04C47.9001 96.72 47.6001 96.38 47.3401 95.98C46.4801 94.82 45.4601 92.96 44.8401 91.24C44.3801 89.94 43.8601 88.22 43.6801 87.06L41.9601 87.26C42.1601 87.8 42.3401 88.4 42.4601 88.84ZM35.1401 90.4L35.1801 91.98C38.7201 92.28 41.9001 92.26 44.4401 91.96C45.9001 91.78 47.8001 91.46 49.2201 91.06L49.0401 89.48C47.4801 90.02 45.5001 90.38 43.9201 90.56C41.6401 90.8 38.4801 90.78 35.1401 90.4ZM38.2401 96.76L36.6801 96.4C36.1001 97.58 35.7001 98.62 35.7001 99.74C35.7001 102.46 38.1001 103.82 41.9001 103.84C44.1401 103.86 45.8201 103.64 47.0801 103.42L47.1401 101.82C45.7601 102.12 44.0201 102.32 42.0001 102.32C39.0201 102.28 37.2801 101.46 37.2801 99.54C37.2801 98.6 37.6401 97.74 38.2401 96.76Z" fill="#005C62"/>
<path d="M61.4201 87.18L59.7601 87.12C59.7601 87.38 59.7401 87.74 59.7001 88.1C59.5201 89.82 59.1201 93.06 59.1201 95.8C59.1201 98.34 59.6601 101.18 60.2401 102.96L61.7001 102.52C61.0801 100.64 60.5201 98.24 60.5201 95.64C60.5201 92.9 60.8601 89.74 61.2001 88.06C61.2601 87.78 61.3401 87.42 61.4201 87.18ZM58.2001 89.64C57.3401 89.64 55.6001 89.52 54.9001 89.4L54.9401 90.9C55.7601 90.94 57.3201 91.02 58.1801 91.02C61.1601 91.02 65.1001 90.72 67.9801 90.22L67.9601 88.74C65.2001 89.36 61.7201 89.64 58.2001 89.64ZM66.5401 92L64.9401 91.6C64.9201 91.92 64.8201 92.46 64.7401 92.76C63.8201 96 62.1801 98.16 60.4001 99.72C59.1201 100.84 57.8201 101.4 56.8201 101.4C56.0801 101.4 55.6801 101 55.6801 100.18C55.6801 98.34 57.4801 96.14 59.7401 95.14C60.7601 94.68 62.2401 94.2 63.9201 94.2C66.9001 94.2 68.5401 95.9 68.5401 97.84C68.5401 100.42 66.3001 102.28 62.7001 102.68L63.5601 104.02C68.2001 103.28 70.1001 100.78 70.1001 97.92C70.1001 95.12 67.7201 92.92 63.9401 92.92C62.6401 92.92 61.0201 93.22 59.6801 93.74C56.7201 94.88 54.1801 97.7 54.1801 100.44C54.1801 102.14 55.2201 102.94 56.5401 102.94C57.9601 102.94 59.5601 102.2 60.8401 101.22C62.9401 99.6 64.9401 96.82 66.1201 93.12C66.2401 92.8 66.4201 92.26 66.5401 92Z" fill="#005C62"/>
<path d="M80.7001 87.42V88.86H90.5201V87.42H80.7001ZM86.5401 93.38V102.66C86.5401 103 86.4201 103.08 86.0201 103.1C85.6601 103.12 84.3201 103.12 82.9001 103.08C83.1201 103.52 83.3201 104.14 83.3801 104.56C85.3401 104.56 86.4801 104.54 87.1601 104.32C87.8401 104.08 88.0601 103.62 88.0601 102.68V93.38H86.5401ZM79.8201 92.94V94.36H91.1001V92.94H79.8201ZM75.8201 94.48V104.66H77.3201V93.26L77.1401 93.18L75.8201 94.48ZM78.1401 90.48C76.7601 92.78 74.5601 95.1 72.4801 96.58C72.8001 96.86 73.3201 97.52 73.5401 97.82C75.6401 96.14 78.0001 93.56 79.5601 91.02L78.1401 90.48ZM77.3201 86.2C76.3001 87.64 74.3601 89.44 72.7001 90.56C72.9601 90.86 73.3601 91.44 73.5801 91.76C75.3601 90.48 77.4201 88.54 78.7601 86.78L77.3201 86.2Z" fill="#005C62"/>
<path d="M96.6801 88.98V90.6C98.2601 90.74 99.9801 90.82 101.98 90.82C103.82 90.82 106 90.68 107.36 90.58V88.94C105.92 89.1 103.9 89.22 101.98 89.22C99.9601 89.22 98.1201 89.14 96.6801 88.98ZM97.4801 97.04L95.8601 96.88C95.6801 97.68 95.4601 98.62 95.4601 99.66C95.4601 102.18 97.8201 103.5 101.88 103.5C104.72 103.5 107.26 103.2 108.7 102.82L108.68 101.1C107.16 101.58 104.58 101.88 101.84 101.88C98.6401 101.88 97.0801 100.84 97.0801 99.3C97.0801 98.56 97.2401 97.82 97.4801 97.04Z" fill="#005C62"/>
<path d="M46.3801 122.36C46.3801 125.94 42.9601 127.84 38.1001 128.46L39.0201 129.98C44.2001 129.18 48.0801 126.76 48.0801 122.42C48.0801 119.56 45.9801 117.98 43.1401 117.98C40.8201 117.98 38.5601 118.62 37.1601 118.94C36.5401 119.06 35.8801 119.2 35.3201 119.24L35.8201 121.08C36.3001 120.88 36.9001 120.66 37.5201 120.48C38.6801 120.14 40.6601 119.48 42.9601 119.48C45.0201 119.48 46.3801 120.66 46.3801 122.36ZM37.9801 113.34L37.7401 114.86C40.0001 115.26 44.0201 115.66 46.2401 115.82L46.4801 114.28C44.5401 114.26 40.2001 113.84 37.9801 113.34Z" fill="#005C62"/>
<path d="M196.792 43.46C197.459 43.46 197.986 43.3933 198.372 43.26C198.772 43.1267 199.059 42.9333 199.232 42.68C199.419 42.4133 199.512 42.1067 199.512 41.76C199.512 41.4933 199.439 41.1733 199.292 40.8C199.159 40.4267 198.972 40.0133 198.732 39.56C198.492 39.0933 198.212 38.6067 197.892 38.1C197.586 37.58 197.252 37.0533 196.892 36.52L198.272 35.62C198.792 36.4067 199.246 37.1533 199.632 37.86C200.019 38.5533 200.346 39.2067 200.612 39.82C200.879 40.42 201.092 40.9867 201.252 41.52C201.439 42.1067 201.646 42.54 201.872 42.82C202.112 43.1 202.359 43.28 202.612 43.36C202.866 43.4267 203.099 43.46 203.312 43.46C203.592 43.46 203.799 43.54 203.932 43.7C204.066 43.8467 204.132 44.0267 204.132 44.24C204.132 44.4533 204.039 44.6533 203.852 44.84C203.666 45.0133 203.426 45.1 203.132 45.1C202.692 45.1 202.259 45.02 201.832 44.86C201.419 44.6867 201.059 44.4133 200.752 44.04C200.446 43.6533 200.232 43.14 200.112 42.5L200.912 41.86C200.912 42.3933 200.799 42.9133 200.572 43.42C200.346 43.9133 199.932 44.32 199.332 44.64C198.746 44.96 197.899 45.12 196.792 45.12C196.312 45.12 195.846 45.08 195.392 45C194.952 44.92 194.546 44.8067 194.172 44.66C193.799 44.5 193.472 44.3133 193.192 44.1L193.992 42.72C194.259 42.8933 194.632 43.06 195.112 43.22C195.592 43.38 196.152 43.46 196.792 43.46Z" fill="#005C62"/>
<path d="M203.137 45.1L203.337 43.46C204.137 43.46 204.89 43.3867 205.597 43.24C206.303 43.08 206.95 42.8733 207.537 42.62C208.137 42.3533 208.65 42.0533 209.077 41.72C209.503 41.3733 209.83 41.02 210.057 40.66C210.297 40.2867 210.417 39.92 210.417 39.56C210.417 39.3867 210.357 39.2133 210.237 39.04C210.117 38.8533 209.91 38.7 209.617 38.58C209.337 38.46 208.957 38.4 208.477 38.4C208.183 38.4 207.857 38.44 207.497 38.52C207.137 38.6 206.79 38.7133 206.457 38.86C206.137 38.9933 205.87 39.1467 205.657 39.32C206.017 39.6133 206.35 39.9 206.657 40.18C206.977 40.46 207.303 40.7667 207.637 41.1C207.97 41.42 208.33 41.7867 208.717 42.2C209.023 42.4267 209.363 42.62 209.737 42.78C210.123 42.94 210.537 43.0733 210.977 43.18C211.43 43.2733 211.89 43.3467 212.357 43.4C212.823 43.44 213.29 43.46 213.757 43.46C214.037 43.46 214.237 43.54 214.357 43.7C214.49 43.8467 214.557 44.0267 214.557 44.24C214.557 44.4533 214.463 44.6533 214.277 44.84C214.09 45.0133 213.85 45.1 213.557 45.1C212.823 45.1 212.07 45.0333 211.297 44.9C210.537 44.7533 209.823 44.54 209.157 44.26C208.49 43.9667 207.923 43.6 207.457 43.16C207.23 42.8667 206.977 42.5733 206.697 42.28C206.417 41.9867 206.11 41.6933 205.777 41.4C205.457 41.0933 205.11 40.8067 204.737 40.54C204.657 40.4733 204.577 40.3533 204.497 40.18C204.417 40.0067 204.35 39.8267 204.297 39.64C204.243 39.4533 204.217 39.3133 204.217 39.22C204.217 39.02 204.343 38.78 204.597 38.5C204.85 38.22 205.19 37.9533 205.617 37.7C206.043 37.4333 206.53 37.2133 207.077 37.04C207.623 36.8667 208.19 36.78 208.777 36.78C209.537 36.78 210.15 36.8933 210.617 37.12C211.097 37.3467 211.443 37.64 211.657 38C211.883 38.3467 211.997 38.72 211.997 39.12C211.997 39.7067 211.85 40.2933 211.557 40.88C211.263 41.4533 210.843 41.9933 210.297 42.5C209.75 43.0067 209.11 43.46 208.377 43.86C207.643 44.2467 206.83 44.5533 205.937 44.78C205.057 44.9933 204.123 45.1 203.137 45.1Z" fill="#005C62"/>
<path d="M213.567 45.1L213.767 43.46C214.42 43.46 214.94 43.42 215.327 43.34C215.713 43.26 215.993 43.1 216.167 42.86C216.34 42.6067 216.427 42.2333 216.427 41.74C216.427 41.4067 216.373 41.0133 216.267 40.56C216.16 40.0933 216.02 39.6 215.847 39.08C215.673 38.56 215.487 38.0467 215.287 37.54L216.907 36.94C217.08 37.3667 217.24 37.8533 217.387 38.4C217.547 38.9467 217.68 39.4867 217.787 40.02C217.893 40.5533 217.947 41.02 217.947 41.42C217.947 41.9533 217.887 42.4267 217.767 42.84C217.66 43.24 217.493 43.5867 217.267 43.88C217.04 44.16 216.747 44.3933 216.387 44.58C216.04 44.7533 215.633 44.8867 215.167 44.98C214.7 45.06 214.167 45.1 213.567 45.1ZM216.127 34.86C215.847 34.86 215.607 34.7667 215.407 34.58C215.22 34.38 215.127 34.1467 215.127 33.88C215.127 33.6133 215.22 33.38 215.407 33.18C215.607 32.98 215.847 32.88 216.127 32.88C216.393 32.88 216.62 32.98 216.807 33.18C217.007 33.38 217.107 33.6133 217.107 33.88C217.107 34.1467 217.007 34.38 216.807 34.58C216.62 34.7667 216.393 34.86 216.127 34.86Z" fill="#005C62"/>
<path d="M220.778 45L220.378 30.72H221.998L222.398 45H220.778Z" fill="#005C62"/>
<path d="M188.756 71.02C188.756 70.7 188.783 70.36 188.836 70C188.903 69.6267 188.996 69.2333 189.116 68.82C189.25 68.3933 189.41 67.9467 189.596 67.48L191.036 68.04C190.903 68.4133 190.783 68.7667 190.676 69.1C190.583 69.4333 190.51 69.7467 190.456 70.04C190.416 70.3333 190.396 70.6133 190.396 70.88C190.396 71.5733 190.576 72.1467 190.936 72.6C191.296 73.0533 191.79 73.3933 192.416 73.62C193.043 73.8467 193.75 73.96 194.536 73.96C195.43 73.96 196.176 73.84 196.776 73.6C197.39 73.36 197.876 73.04 198.236 72.64C198.596 72.2533 198.85 71.82 198.996 71.34C199.156 70.86 199.236 70.3867 199.236 69.92C199.236 69.4133 199.136 68.8 198.936 68.08C198.75 67.36 198.396 66.4667 197.876 65.4L199.376 64.64C199.643 65.1467 199.883 65.68 200.096 66.24C200.323 66.7867 200.503 67.3533 200.636 67.94C200.783 68.5133 200.856 69.1 200.856 69.7C200.856 70.22 200.79 70.7533 200.656 71.3C200.536 71.8467 200.33 72.3733 200.036 72.88C199.743 73.4 199.35 73.86 198.856 74.26C198.376 74.6733 197.776 75 197.056 75.24C196.35 75.48 195.503 75.6 194.516 75.6C193.743 75.6 193.003 75.5067 192.296 75.32C191.603 75.1467 190.99 74.8733 190.456 74.5C189.936 74.1267 189.523 73.6533 189.216 73.08C188.91 72.5067 188.756 71.82 188.756 71.02ZM194.796 63.04C194.516 63.04 194.276 62.9467 194.076 62.76C193.89 62.56 193.796 62.3267 193.796 62.06C193.796 61.7933 193.89 61.56 194.076 61.36C194.276 61.16 194.516 61.06 194.796 61.06C195.063 61.06 195.29 61.16 195.476 61.36C195.676 61.56 195.776 61.7933 195.776 62.06C195.776 62.3267 195.676 62.56 195.476 62.76C195.29 62.9467 195.063 63.04 194.796 63.04Z" fill="#005C62"/>
<path d="M206.148 69.46C206.814 69.46 207.341 69.3933 207.728 69.26C208.128 69.1267 208.414 68.9333 208.588 68.68C208.774 68.4133 208.868 68.1067 208.868 67.76C208.868 67.4933 208.794 67.1733 208.648 66.8C208.514 66.4267 208.328 66.0133 208.088 65.56C207.848 65.0933 207.568 64.6067 207.248 64.1C206.941 63.58 206.608 63.0533 206.248 62.52L207.628 61.62C208.148 62.4067 208.601 63.1533 208.988 63.86C209.374 64.5533 209.701 65.2067 209.968 65.82C210.234 66.42 210.448 66.9867 210.608 67.52C210.794 68.1067 211.001 68.54 211.228 68.82C211.468 69.1 211.714 69.28 211.968 69.36C212.221 69.4267 212.454 69.46 212.668 69.46C212.948 69.46 213.154 69.54 213.288 69.7C213.421 69.8467 213.488 70.0267 213.488 70.24C213.488 70.4533 213.394 70.6533 213.208 70.84C213.021 71.0133 212.781 71.1 212.488 71.1C212.048 71.1 211.614 71.02 211.188 70.86C210.774 70.6867 210.414 70.4133 210.108 70.04C209.801 69.6533 209.588 69.14 209.468 68.5L210.268 67.86C210.268 68.3933 210.154 68.9133 209.928 69.42C209.701 69.9133 209.288 70.32 208.688 70.64C208.101 70.96 207.254 71.12 206.148 71.12C205.668 71.12 205.201 71.08 204.748 71C204.308 70.92 203.901 70.8067 203.528 70.66C203.154 70.5 202.828 70.3133 202.548 70.1L203.348 68.72C203.614 68.8933 203.988 69.06 204.468 69.22C204.948 69.38 205.508 69.46 206.148 69.46ZM206.268 59.8C205.988 59.8 205.748 59.7067 205.548 59.52C205.361 59.32 205.268 59.0867 205.268 58.82C205.268 58.5533 205.361 58.32 205.548 58.12C205.748 57.92 205.988 57.82 206.268 57.82C206.534 57.82 206.761 57.92 206.948 58.12C207.148 58.32 207.248 58.5533 207.248 58.82C207.248 59.0867 207.148 59.32 206.948 59.52C206.761 59.7067 206.534 59.8 206.268 59.8Z" fill="#005C62"/>
<path d="M218.632 75.34C217.792 75.34 217.032 75.1467 216.352 74.76C215.672 74.3733 215.132 73.7867 214.732 73C214.332 72.2267 214.132 71.2533 214.132 70.08C214.132 69 214.259 68.0067 214.512 67.1C214.766 66.1933 215.099 65.4133 215.512 64.76C215.939 64.0933 216.406 63.58 216.912 63.22C217.419 62.86 217.919 62.68 218.412 62.68C218.852 62.68 219.246 62.8067 219.592 63.06C219.939 63.3133 220.212 63.6667 220.412 64.12C220.612 64.5733 220.712 65.1133 220.712 65.74C220.712 66.3 220.626 66.86 220.452 67.42C220.279 67.98 219.952 68.4867 219.472 68.94C219.006 69.3933 218.332 69.74 217.452 69.98L218.752 68.88C219.179 68.9867 219.606 69.0867 220.032 69.18C220.472 69.26 220.919 69.3267 221.372 69.38C221.839 69.4333 222.326 69.46 222.832 69.46C223.112 69.46 223.312 69.54 223.432 69.7C223.566 69.8467 223.632 70.0267 223.632 70.24C223.632 70.4533 223.539 70.6533 223.352 70.84C223.166 71.0133 222.926 71.1 222.632 71.1C222.272 71.1 221.886 71.08 221.472 71.04C221.059 71 220.646 70.9533 220.232 70.9C219.819 70.8333 219.426 70.76 219.052 70.68L220.792 70.62C221.126 70.98 221.352 71.3667 221.472 71.78C221.606 72.2067 221.639 72.6267 221.572 73.04C221.519 73.4667 221.366 73.8533 221.112 74.2C220.872 74.5467 220.546 74.82 220.132 75.02C219.719 75.2333 219.219 75.34 218.632 75.34ZM212.492 71.1L212.692 69.46C212.972 69.46 213.252 69.46 213.532 69.46C213.812 69.46 214.079 69.4533 214.332 69.44L214.412 70.92C214.106 70.9733 213.786 71.0133 213.452 71.04C213.132 71.08 212.812 71.1 212.492 71.1ZM218.672 73.7C218.912 73.7 219.146 73.6533 219.372 73.56C219.612 73.48 219.806 73.3333 219.952 73.12C220.112 72.92 220.192 72.6467 220.192 72.3C220.192 71.9667 220.106 71.66 219.932 71.38C219.772 71.1133 219.486 70.8933 219.072 70.72C218.659 70.5467 218.072 70.46 217.312 70.46C217.152 70.46 216.972 70.4733 216.772 70.5C216.586 70.5133 216.392 70.54 216.192 70.58C215.992 70.6067 215.786 70.6467 215.572 70.7V69.34C216.079 69.2733 216.539 69.1733 216.952 69.04C217.379 68.8933 217.752 68.6933 218.072 68.44C218.392 68.1867 218.639 67.8533 218.812 67.44C218.986 67.0267 219.072 66.52 219.072 65.92C219.072 65.72 219.046 65.4933 218.992 65.24C218.952 64.9867 218.872 64.7733 218.752 64.6C218.632 64.4133 218.472 64.32 218.272 64.32C218.072 64.32 217.826 64.4533 217.532 64.72C217.252 64.9867 216.972 65.36 216.692 65.84C216.426 66.32 216.199 66.8933 216.012 67.56C215.839 68.2133 215.752 68.9333 215.752 69.72C215.752 70.5867 215.846 71.28 216.032 71.8C216.232 72.3333 216.486 72.7333 216.792 73C217.099 73.28 217.419 73.4667 217.752 73.56C218.086 73.6533 218.392 73.7 218.672 73.7Z" fill="#005C62"/>
<path d="M222.629 71.1L222.829 69.46C223.482 69.46 224.002 69.42 224.389 69.34C224.776 69.26 225.056 69.1 225.229 68.86C225.402 68.6067 225.489 68.2333 225.489 67.74C225.489 67.4067 225.436 67.0133 225.329 66.56C225.222 66.0933 225.082 65.6 224.909 65.08C224.736 64.56 224.549 64.0467 224.349 63.54L225.969 62.94C226.142 63.3667 226.302 63.8533 226.449 64.4C226.609 64.9467 226.742 65.4867 226.849 66.02C226.956 66.5533 227.009 67.02 227.009 67.42C227.009 67.9533 226.949 68.4267 226.829 68.84C226.722 69.24 226.556 69.5867 226.329 69.88C226.102 70.16 225.809 70.3933 225.449 70.58C225.102 70.7533 224.696 70.8867 224.229 70.98C223.762 71.06 223.229 71.1 222.629 71.1ZM224.769 74.82C224.489 74.82 224.249 74.72 224.049 74.52C223.862 74.3333 223.769 74.1067 223.769 73.84C223.769 73.5733 223.862 73.34 224.049 73.14C224.249 72.94 224.489 72.84 224.769 72.84C225.036 72.84 225.262 72.94 225.449 73.14C225.649 73.34 225.749 73.5733 225.749 73.84C225.749 74.1067 225.649 74.3333 225.449 74.52C225.262 74.72 225.036 74.82 224.769 74.82Z" fill="#005C62"/>
<path d="M201.103 103V94.96C201.103 94.1867 200.916 93.6133 200.543 93.24C200.183 92.8533 199.629 92.66 198.883 92.66H195.143L195.343 91.14H199.023C200.316 91.14 201.289 91.46 201.943 92.1C202.609 92.7267 202.943 93.66 202.943 94.9V101.68C202.889 101.92 202.789 102.147 202.643 102.36C202.509 102.573 202.356 102.787 202.183 103H201.103ZM194.543 103V101.48H204.423L204.203 103H194.543Z" fill="#005C62"/>
<path d="M207.631 103V91.14H209.471V103H207.631ZM205.811 92.66L206.031 91.14H208.831V92.66H205.811Z" fill="#005C62"/>
<path d="M220.887 103C220.3 102 219.7 101.033 219.087 100.1C218.473 99.1667 217.86 98.2867 217.247 97.46C216.647 96.62 216.053 95.84 215.467 95.12C215.133 94.7067 214.807 94.3067 214.487 93.92C214.167 93.52 213.867 93.1467 213.587 92.8C213.32 92.4533 213.067 92.14 212.827 91.86C212.6 91.58 212.4 91.34 212.227 91.14H214.447C214.7 91.4333 214.967 91.76 215.247 92.12C215.527 92.48 215.833 92.8733 216.167 93.3C216.5 93.7133 216.867 94.1733 217.267 94.68C217.84 95.4667 218.453 96.3133 219.107 97.22C219.76 98.1267 220.42 99.0667 221.087 100.04C221.753 101.013 222.387 102 222.987 103H220.887ZM211.787 103L212.267 99.68C212.373 98.9067 212.54 98.2 212.767 97.56C213.007 96.9067 213.353 96.34 213.807 95.86C214.26 95.3667 214.867 94.9667 215.627 94.66L216.227 95.86C215.747 96.0867 215.367 96.3933 215.087 96.78C214.807 97.1533 214.593 97.5933 214.447 98.1C214.3 98.5933 214.18 99.14 214.087 99.74L213.607 103H211.787ZM219.147 98.08L218.547 96.88C219.053 96.64 219.467 96.3333 219.787 95.96C220.107 95.5867 220.347 95.1533 220.507 94.66C220.68 94.1667 220.793 93.62 220.847 93.02L221.027 91.14H222.867L222.687 93.08C222.62 93.8533 222.453 94.56 222.187 95.2C221.92 95.84 221.533 96.4 221.027 96.88C220.533 97.36 219.907 97.76 219.147 98.08Z" fill="#005C62"/>
<path d="M203.334 129V120.1C203.334 119.767 203.281 119.493 203.174 119.28C203.081 119.053 202.934 118.893 202.734 118.8C202.534 118.707 202.288 118.66 201.994 118.66H200.634L200.834 117.14H202.454C203.334 117.14 204.008 117.38 204.474 117.86C204.941 118.327 205.174 119.013 205.174 119.92V129H203.334ZM200.034 129V127.48H204.214V129H200.034Z" fill="#005C62"/>
<path d="M209.172 117.14H216.392L216.192 118.3L212.612 129H210.712L214.212 118.66H207.332V114.02L209.172 113.8V117.14Z" fill="#005C62"/>
<path d="M224.862 132.82V121.48C224.862 120.573 224.662 119.88 224.262 119.4C223.862 118.907 223.302 118.66 222.582 118.66H217.962L218.162 117.14H222.642C223.962 117.14 224.968 117.52 225.662 118.28C226.355 119.027 226.702 120.093 226.702 121.48V132.72L224.862 132.82Z" fill="#005C62"/>
</svg>
