<svg width="240" height="136" viewBox="0 0 240 136" fill="none" xmlns="http://www.w3.org/2000/svg">
<path d="M35.5601 32.9999H43.9401V31.1999H37.4601V18.8999H35.5601V32.9999Z" fill="#005C62"/>
<path d="M54.686 31.3599C54.466 31.5599 54.266 31.6599 54.046 31.6599C53.686 31.6599 53.486 31.3799 53.486 31.0199V26.8199C53.486 24.3999 52.066 23.2199 49.626 23.2199C47.606 23.2199 46.126 24.1399 45.646 25.7399L47.246 26.4399C47.566 25.3599 48.346 24.8199 49.566 24.8199C50.926 24.8199 51.686 25.5199 51.686 26.9599V26.9799C50.506 27.0799 49.446 27.2199 48.546 27.4199C46.526 27.8399 45.506 28.8399 45.506 30.4599C45.506 32.0799 46.846 33.2799 48.766 33.2799C50.106 33.2799 51.206 32.6599 51.726 31.6199C51.886 32.6399 52.566 33.2799 53.546 33.2799C54.346 33.2799 54.826 32.9999 55.266 32.5399L54.686 31.3599ZM49.206 31.7399C48.086 31.7399 47.406 31.2199 47.406 30.2999C47.406 29.5199 47.886 29.0799 48.946 28.8399C49.586 28.6799 50.326 28.5599 51.686 28.4399V28.8799C51.686 30.6399 50.726 31.7399 49.206 31.7399Z" fill="#005C62"/>
<path d="M59.8125 33.2799C61.9525 33.2799 63.3925 32.0199 63.3925 30.3399C63.3925 28.8799 62.5525 27.8999 60.9725 27.5999L59.4725 27.2999C58.4525 27.0999 58.0525 26.5799 58.0525 25.9599C58.0525 25.2199 58.6925 24.7399 59.6925 24.7399C60.8125 24.7399 61.4925 25.2199 61.7325 26.2999L63.4525 25.7999C63.0925 24.1199 61.7325 23.2199 59.7525 23.2199C57.6925 23.2199 56.2525 24.3599 56.2525 26.0599C56.2525 27.4399 57.1525 28.4999 58.7525 28.7999L60.3525 29.1199C61.2125 29.2999 61.5925 29.7399 61.5925 30.4599C61.5925 31.2399 60.9525 31.7399 59.8325 31.7399C58.6525 31.7399 57.8325 31.0399 57.6325 29.8799L55.8925 30.3399C56.2525 32.2199 57.6325 33.2799 59.8125 33.2799Z" fill="#005C62"/>
<path d="M68.8554 33.2799C70.9954 33.2799 72.4354 32.0199 72.4354 30.3399C72.4354 28.8799 71.5954 27.8999 70.0154 27.5999L68.5154 27.2999C67.4954 27.0999 67.0954 26.5799 67.0954 25.9599C67.0954 25.2199 67.7354 24.7399 68.7354 24.7399C69.8554 24.7399 70.5354 25.2199 70.7754 26.2999L72.4954 25.7999C72.1354 24.1199 70.7754 23.2199 68.7954 23.2199C66.7354 23.2199 65.2954 24.3599 65.2954 26.0599C65.2954 27.4399 66.1954 28.4999 67.7954 28.7999L69.3954 29.1199C70.2554 29.2999 70.6354 29.7399 70.6354 30.4599C70.6354 31.2399 69.9954 31.7399 68.8754 31.7399C67.6954 31.7399 66.8754 31.0399 66.6754 29.8799L64.9354 30.3399C65.2954 32.2199 66.6754 33.2799 68.8554 33.2799Z" fill="#005C62"/>
<path d="M85.3553 28.8799C85.3553 30.5199 84.3953 31.5199 82.8553 31.5199C81.3353 31.5199 80.5953 30.6999 80.5953 28.9999V23.4999H78.7953V29.5999C78.7953 31.8799 80.0953 33.2799 82.2753 33.2799C83.7753 33.2799 84.9353 32.6199 85.3553 31.4999V32.9999H87.1553V23.4999H85.3553V28.8799Z" fill="#005C62"/>
<path d="M94.7518 23.2199C93.2318 23.2199 92.0918 23.8999 91.6718 25.0199V23.4999H89.8718V32.9999H91.6718V27.6199C91.6718 25.9999 92.6318 24.9599 94.1918 24.9599C95.7518 24.9599 96.5318 25.8199 96.5318 27.4999V32.9999H98.3318V26.8999C98.3318 24.6199 96.9718 23.2199 94.7518 23.2199Z" fill="#005C62"/>
<path d="M104.246 33.2799C106.386 33.2799 107.826 32.0199 107.826 30.3399C107.826 28.8799 106.986 27.8999 105.406 27.5999L103.906 27.2999C102.886 27.0999 102.486 26.5799 102.486 25.9599C102.486 25.2199 103.126 24.7399 104.126 24.7399C105.246 24.7399 105.926 25.2199 106.166 26.2999L107.886 25.7999C107.526 24.1199 106.166 23.2199 104.186 23.2199C102.126 23.2199 100.686 24.3599 100.686 26.0599C100.686 27.4399 101.586 28.4999 103.186 28.7999L104.786 29.1199C105.646 29.2999 106.026 29.7399 106.026 30.4599C106.026 31.2399 105.386 31.7399 104.266 31.7399C103.086 31.7399 102.266 31.0399 102.066 29.8799L100.326 30.3399C100.686 32.2199 102.066 33.2799 104.246 33.2799Z" fill="#005C62"/>
<path d="M42.2001 50.9199C41.7401 49.8799 40.5601 49.2199 39.1401 49.2199C36.5401 49.2199 34.8601 51.2199 34.8601 53.7799C34.8601 56.3599 36.5401 58.3599 39.1401 58.3599C40.5601 58.3599 41.7401 57.6799 42.2001 56.6599V58.2999C42.2001 60.1999 40.9801 61.0599 39.5001 61.0599C38.0401 61.0599 37.1801 60.3999 36.7801 59.0799L34.9801 59.6799C35.5401 61.6799 37.2001 62.6799 39.5601 62.6799C42.0801 62.6799 44.0001 61.1599 44.0001 58.2399V49.4999H42.2001V50.9199ZM39.5201 56.6799C37.7401 56.6799 36.7201 55.4199 36.7201 53.7799C36.7201 52.1599 37.7401 50.8999 39.5201 50.8999C41.2801 50.8999 42.3201 52.1599 42.3201 53.7799C42.3201 55.4199 41.2801 56.6799 39.5201 56.6799Z" fill="#005C62"/>
<path d="M55.4073 53.7399C55.4073 51.0399 53.6073 49.2199 50.8673 49.2199C48.3073 49.2199 46.2273 51.0599 46.2273 54.1799C46.2273 57.5799 48.3673 59.2799 51.0273 59.2799C53.1273 59.2799 54.6273 58.3399 55.1473 56.7399L53.5473 56.0199C53.0873 57.1199 52.2873 57.5799 51.0273 57.5799C49.4673 57.5799 48.2473 56.6399 48.1273 54.8199H55.3273C55.3873 54.5399 55.4073 54.1199 55.4073 53.7399ZM50.8473 50.8199C52.3673 50.8199 53.3673 51.6799 53.5073 53.2999H48.1273C48.2273 51.5599 49.3873 50.8199 50.8473 50.8199Z" fill="#005C62"/>
<path d="M62.5253 49.2199C61.0053 49.2199 59.8653 49.8999 59.4453 51.0199V44.8999H57.6453V58.9999H59.4453V53.6199C59.4453 51.9999 60.4053 50.9599 61.9653 50.9599C63.5253 50.9599 64.3053 51.8199 64.3053 53.4999V58.9999H66.1053V52.8999C66.1053 50.6199 64.7453 49.2199 62.5253 49.2199Z" fill="#005C62"/>
<path d="M77.3995 53.7399C77.3995 51.0399 75.5995 49.2199 72.8595 49.2199C70.2995 49.2199 68.2195 51.0599 68.2195 54.1799C68.2195 57.5799 70.3595 59.2799 73.0195 59.2799C75.1195 59.2799 76.6195 58.3399 77.1395 56.7399L75.5395 56.0199C75.0795 57.1199 74.2795 57.5799 73.0195 57.5799C71.4595 57.5799 70.2395 56.6399 70.1195 54.8199H77.3195C77.3795 54.5399 77.3995 54.1199 77.3995 53.7399ZM72.8395 50.8199C74.3595 50.8199 75.3595 51.6799 75.4995 53.2999H70.1195C70.2195 51.5599 71.3795 50.8199 72.8395 50.8199Z" fill="#005C62"/>
<path d="M84.5175 49.2199C82.9975 49.2199 81.8575 49.8999 81.4375 51.0199V49.4999H79.6375V58.9999H81.4375V53.6199C81.4375 51.9999 82.3975 50.9599 83.9575 50.9599C85.5175 50.9599 86.2975 51.8199 86.2975 53.4999V58.9999H88.0975V52.8999C88.0975 50.6199 86.7375 49.2199 84.5175 49.2199Z" fill="#005C62"/>
<path d="M173.792 31.4602C174.459 31.4602 174.986 31.3935 175.372 31.2602C175.772 31.1269 176.059 30.9335 176.232 30.6802C176.419 30.4135 176.512 30.1069 176.512 29.7602C176.512 29.4935 176.439 29.1735 176.292 28.8002C176.159 28.4269 175.972 28.0135 175.732 27.5602C175.492 27.0935 175.212 26.6069 174.892 26.1002C174.586 25.5802 174.252 25.0535 173.892 24.5202L175.272 23.6202C175.792 24.4069 176.246 25.1535 176.632 25.8602C177.019 26.5535 177.346 27.2069 177.612 27.8202C177.879 28.4202 178.092 28.9869 178.252 29.5202C178.439 30.1069 178.646 30.5402 178.872 30.8202C179.112 31.1002 179.359 31.2802 179.612 31.3602C179.866 31.4269 180.099 31.4602 180.312 31.4602C180.592 31.4602 180.799 31.5402 180.932 31.7002C181.066 31.8469 181.132 32.0269 181.132 32.2402C181.132 32.4535 181.039 32.6535 180.852 32.8402C180.666 33.0135 180.426 33.1002 180.132 33.1002C179.692 33.1002 179.259 33.0202 178.832 32.8602C178.419 32.6869 178.059 32.4135 177.752 32.0402C177.446 31.6535 177.232 31.1402 177.112 30.5002L177.912 29.8602C177.912 30.3935 177.799 30.9135 177.572 31.4202C177.346 31.9135 176.932 32.3202 176.332 32.6402C175.746 32.9602 174.899 33.1202 173.792 33.1202C173.312 33.1202 172.846 33.0802 172.392 33.0002C171.952 32.9202 171.546 32.8069 171.172 32.6602C170.799 32.5002 170.472 32.3135 170.192 32.1002L170.992 30.7202C171.259 30.8935 171.632 31.0602 172.112 31.2202C172.592 31.3802 173.152 31.4602 173.792 31.4602Z" fill="#005C62"/>
<path d="M180.137 33.1002L180.337 31.4602C181.137 31.4602 181.89 31.3869 182.597 31.2402C183.303 31.0802 183.95 30.8735 184.537 30.6202C185.137 30.3535 185.65 30.0535 186.077 29.7202C186.503 29.3735 186.83 29.0202 187.057 28.6602C187.297 28.2869 187.417 27.9202 187.417 27.5602C187.417 27.3869 187.357 27.2135 187.237 27.0402C187.117 26.8535 186.91 26.7002 186.617 26.5802C186.337 26.4602 185.957 26.4002 185.477 26.4002C185.183 26.4002 184.857 26.4402 184.497 26.5202C184.137 26.6002 183.79 26.7135 183.457 26.8602C183.137 26.9935 182.87 27.1469 182.657 27.3202C183.017 27.6135 183.35 27.9002 183.657 28.1802C183.977 28.4602 184.303 28.7669 184.637 29.1002C184.97 29.4202 185.33 29.7869 185.717 30.2002C186.023 30.4269 186.363 30.6202 186.737 30.7802C187.123 30.9402 187.537 31.0735 187.977 31.1802C188.43 31.2735 188.89 31.3469 189.357 31.4002C189.823 31.4402 190.29 31.4602 190.757 31.4602C191.037 31.4602 191.237 31.5402 191.357 31.7002C191.49 31.8469 191.557 32.0269 191.557 32.2402C191.557 32.4535 191.463 32.6535 191.277 32.8402C191.09 33.0135 190.85 33.1002 190.557 33.1002C189.823 33.1002 189.07 33.0335 188.297 32.9002C187.537 32.7535 186.823 32.5402 186.157 32.2602C185.49 31.9669 184.923 31.6002 184.457 31.1602C184.23 30.8669 183.977 30.5735 183.697 30.2802C183.417 29.9869 183.11 29.6935 182.777 29.4002C182.457 29.0935 182.11 28.8069 181.737 28.5402C181.657 28.4735 181.577 28.3535 181.497 28.1802C181.417 28.0069 181.35 27.8269 181.297 27.6402C181.243 27.4535 181.217 27.3135 181.217 27.2202C181.217 27.0202 181.343 26.7802 181.597 26.5002C181.85 26.2202 182.19 25.9535 182.617 25.7002C183.043 25.4335 183.53 25.2135 184.077 25.0402C184.623 24.8669 185.19 24.7802 185.777 24.7802C186.537 24.7802 187.15 24.8935 187.617 25.1202C188.097 25.3469 188.443 25.6402 188.657 26.0002C188.883 26.3469 188.997 26.7202 188.997 27.1202C188.997 27.7069 188.85 28.2935 188.557 28.8802C188.263 29.4535 187.843 29.9935 187.297 30.5002C186.75 31.0069 186.11 31.4602 185.377 31.8602C184.643 32.2469 183.83 32.5535 182.937 32.7802C182.057 32.9935 181.123 33.1002 180.137 33.1002Z" fill="#005C62"/>
<path d="M190.567 33.1002L190.767 31.4602C191.42 31.4602 191.94 31.4202 192.327 31.3402C192.713 31.2602 192.993 31.1002 193.167 30.8602C193.34 30.6069 193.427 30.2335 193.427 29.7402C193.427 29.4069 193.373 29.0135 193.267 28.5602C193.16 28.0935 193.02 27.6002 192.847 27.0802C192.673 26.5602 192.487 26.0469 192.287 25.5402L193.907 24.9402C194.08 25.3669 194.24 25.8535 194.387 26.4002C194.547 26.9469 194.68 27.4869 194.787 28.0202C194.893 28.5535 194.947 29.0202 194.947 29.4202C194.947 29.9535 194.887 30.4269 194.767 30.8402C194.66 31.2402 194.493 31.5869 194.267 31.8802C194.04 32.1602 193.747 32.3935 193.387 32.5802C193.04 32.7535 192.633 32.8869 192.167 32.9802C191.7 33.0602 191.167 33.1002 190.567 33.1002ZM193.127 22.8602C192.847 22.8602 192.607 22.7669 192.407 22.5802C192.22 22.3802 192.127 22.1469 192.127 21.8802C192.127 21.6135 192.22 21.3802 192.407 21.1802C192.607 20.9802 192.847 20.8802 193.127 20.8802C193.393 20.8802 193.62 20.9802 193.807 21.1802C194.007 21.3802 194.107 21.6135 194.107 21.8802C194.107 22.1469 194.007 22.3802 193.807 22.5802C193.62 22.7669 193.393 22.8602 193.127 22.8602Z" fill="#005C62"/>
<path d="M197.778 33.0002L197.378 18.7202H198.998L199.398 33.0002H197.778Z" fill="#005C62"/>
<path d="M165.756 59.0202C165.756 58.7002 165.783 58.3602 165.836 58.0002C165.903 57.6269 165.996 57.2336 166.116 56.8202C166.25 56.3936 166.41 55.9469 166.596 55.4802L168.036 56.0402C167.903 56.4135 167.783 56.7669 167.676 57.1002C167.583 57.4335 167.51 57.7469 167.456 58.0402C167.416 58.3335 167.396 58.6135 167.396 58.8802C167.396 59.5735 167.576 60.1469 167.936 60.6002C168.296 61.0535 168.79 61.3935 169.416 61.6202C170.043 61.8469 170.75 61.9602 171.536 61.9602C172.43 61.9602 173.176 61.8402 173.776 61.6002C174.39 61.3602 174.876 61.0402 175.236 60.6402C175.596 60.2536 175.85 59.8202 175.996 59.3402C176.156 58.8602 176.236 58.3869 176.236 57.9202C176.236 57.4135 176.136 56.8002 175.936 56.0802C175.75 55.3602 175.396 54.4669 174.876 53.4002L176.376 52.6402C176.643 53.1469 176.883 53.6802 177.096 54.2402C177.323 54.7869 177.503 55.3535 177.636 55.9402C177.783 56.5135 177.856 57.1002 177.856 57.7002C177.856 58.2202 177.79 58.7535 177.656 59.3002C177.536 59.8469 177.33 60.3735 177.036 60.8802C176.743 61.4002 176.35 61.8602 175.856 62.2602C175.376 62.6735 174.776 63.0002 174.056 63.2402C173.35 63.4802 172.503 63.6002 171.516 63.6002C170.743 63.6002 170.003 63.5069 169.296 63.3202C168.603 63.1469 167.99 62.8736 167.456 62.5002C166.936 62.1269 166.523 61.6535 166.216 61.0802C165.91 60.5069 165.756 59.8202 165.756 59.0202ZM171.796 51.0402C171.516 51.0402 171.276 50.9469 171.076 50.7602C170.89 50.5602 170.796 50.3269 170.796 50.0602C170.796 49.7935 170.89 49.5602 171.076 49.3602C171.276 49.1602 171.516 49.0602 171.796 49.0602C172.063 49.0602 172.29 49.1602 172.476 49.3602C172.676 49.5602 172.776 49.7935 172.776 50.0602C172.776 50.3269 172.676 50.5602 172.476 50.7602C172.29 50.9469 172.063 51.0402 171.796 51.0402Z" fill="#005C62"/>
<path d="M183.148 57.4602C183.814 57.4602 184.341 57.3935 184.728 57.2602C185.128 57.1269 185.414 56.9335 185.588 56.6802C185.774 56.4135 185.868 56.1069 185.868 55.7602C185.868 55.4935 185.794 55.1735 185.648 54.8002C185.514 54.4269 185.328 54.0135 185.088 53.5602C184.848 53.0935 184.568 52.6069 184.248 52.1002C183.941 51.5802 183.608 51.0535 183.248 50.5202L184.628 49.6202C185.148 50.4069 185.601 51.1535 185.988 51.8602C186.374 52.5535 186.701 53.2069 186.968 53.8202C187.234 54.4202 187.448 54.9869 187.608 55.5202C187.794 56.1069 188.001 56.5402 188.228 56.8202C188.468 57.1002 188.714 57.2802 188.968 57.3602C189.221 57.4269 189.454 57.4602 189.668 57.4602C189.948 57.4602 190.154 57.5402 190.288 57.7002C190.421 57.8469 190.488 58.0269 190.488 58.2402C190.488 58.4535 190.394 58.6536 190.208 58.8402C190.021 59.0136 189.781 59.1002 189.488 59.1002C189.048 59.1002 188.614 59.0202 188.188 58.8602C187.774 58.6869 187.414 58.4135 187.108 58.0402C186.801 57.6535 186.588 57.1402 186.468 56.5002L187.268 55.8602C187.268 56.3935 187.154 56.9135 186.928 57.4202C186.701 57.9135 186.288 58.3202 185.688 58.6402C185.101 58.9602 184.254 59.1202 183.148 59.1202C182.668 59.1202 182.201 59.0802 181.748 59.0002C181.308 58.9202 180.901 58.8069 180.528 58.6602C180.154 58.5002 179.828 58.3135 179.548 58.1002L180.348 56.7202C180.614 56.8935 180.988 57.0602 181.468 57.2202C181.948 57.3802 182.508 57.4602 183.148 57.4602ZM183.268 47.8002C182.988 47.8002 182.748 47.7069 182.548 47.5202C182.361 47.3202 182.268 47.0869 182.268 46.8202C182.268 46.5535 182.361 46.3202 182.548 46.1202C182.748 45.9202 182.988 45.8202 183.268 45.8202C183.534 45.8202 183.761 45.9202 183.948 46.1202C184.148 46.3202 184.248 46.5535 184.248 46.8202C184.248 47.0869 184.148 47.3202 183.948 47.5202C183.761 47.7069 183.534 47.8002 183.268 47.8002Z" fill="#005C62"/>
<path d="M195.632 63.3402C194.792 63.3402 194.032 63.1469 193.352 62.7602C192.672 62.3735 192.132 61.7869 191.732 61.0002C191.332 60.2269 191.132 59.2535 191.132 58.0802C191.132 57.0002 191.259 56.0069 191.512 55.1002C191.766 54.1935 192.099 53.4135 192.512 52.7602C192.939 52.0935 193.406 51.5802 193.912 51.2202C194.419 50.8602 194.919 50.6802 195.412 50.6802C195.852 50.6802 196.246 50.8069 196.592 51.0602C196.939 51.3135 197.212 51.6669 197.412 52.1202C197.612 52.5735 197.712 53.1135 197.712 53.7402C197.712 54.3002 197.626 54.8602 197.452 55.4202C197.279 55.9802 196.952 56.4869 196.472 56.9402C196.006 57.3935 195.332 57.7402 194.452 57.9802L195.752 56.8802C196.179 56.9869 196.606 57.0869 197.032 57.1802C197.472 57.2602 197.919 57.3269 198.372 57.3802C198.839 57.4335 199.326 57.4602 199.832 57.4602C200.112 57.4602 200.312 57.5402 200.432 57.7002C200.566 57.8469 200.632 58.0269 200.632 58.2402C200.632 58.4535 200.539 58.6536 200.352 58.8402C200.166 59.0136 199.926 59.1002 199.632 59.1002C199.272 59.1002 198.886 59.0802 198.472 59.0402C198.059 59.0002 197.646 58.9535 197.232 58.9002C196.819 58.8335 196.426 58.7602 196.052 58.6802L197.792 58.6202C198.126 58.9802 198.352 59.3669 198.472 59.7802C198.606 60.2069 198.639 60.6269 198.572 61.0402C198.519 61.4669 198.366 61.8535 198.112 62.2002C197.872 62.5469 197.546 62.8202 197.132 63.0202C196.719 63.2335 196.219 63.3402 195.632 63.3402ZM189.492 59.1002L189.692 57.4602C189.972 57.4602 190.252 57.4602 190.532 57.4602C190.812 57.4602 191.079 57.4535 191.332 57.4402L191.412 58.9202C191.106 58.9735 190.786 59.0135 190.452 59.0402C190.132 59.0802 189.812 59.1002 189.492 59.1002ZM195.672 61.7002C195.912 61.7002 196.146 61.6535 196.372 61.5602C196.612 61.4802 196.806 61.3335 196.952 61.1202C197.112 60.9202 197.192 60.6469 197.192 60.3002C197.192 59.9669 197.106 59.6602 196.932 59.3802C196.772 59.1135 196.486 58.8935 196.072 58.7202C195.659 58.5469 195.072 58.4602 194.312 58.4602C194.152 58.4602 193.972 58.4736 193.772 58.5002C193.586 58.5136 193.392 58.5402 193.192 58.5802C192.992 58.6069 192.786 58.6469 192.572 58.7002V57.3402C193.079 57.2736 193.539 57.1735 193.952 57.0402C194.379 56.8935 194.752 56.6935 195.072 56.4402C195.392 56.1869 195.639 55.8535 195.812 55.4402C195.986 55.0269 196.072 54.5202 196.072 53.9202C196.072 53.7202 196.046 53.4935 195.992 53.2402C195.952 52.9869 195.872 52.7735 195.752 52.6002C195.632 52.4135 195.472 52.3202 195.272 52.3202C195.072 52.3202 194.826 52.4535 194.532 52.7202C194.252 52.9869 193.972 53.3602 193.692 53.8402C193.426 54.3202 193.199 54.8935 193.012 55.5602C192.839 56.2135 192.752 56.9335 192.752 57.7202C192.752 58.5869 192.846 59.2802 193.032 59.8002C193.232 60.3336 193.486 60.7336 193.792 61.0002C194.099 61.2802 194.419 61.4669 194.752 61.5602C195.086 61.6535 195.392 61.7002 195.672 61.7002Z" fill="#005C62"/>
<path d="M199.629 59.1002L199.829 57.4602C200.482 57.4602 201.002 57.4202 201.389 57.3402C201.776 57.2602 202.056 57.1002 202.229 56.8602C202.402 56.6069 202.489 56.2335 202.489 55.7402C202.489 55.4069 202.436 55.0135 202.329 54.5602C202.222 54.0935 202.082 53.6002 201.909 53.0802C201.736 52.5602 201.549 52.0469 201.349 51.5402L202.969 50.9402C203.142 51.3669 203.302 51.8535 203.449 52.4002C203.609 52.9469 203.742 53.4869 203.849 54.0202C203.956 54.5535 204.009 55.0202 204.009 55.4202C204.009 55.9535 203.949 56.4269 203.829 56.8402C203.722 57.2402 203.556 57.5869 203.329 57.8802C203.102 58.1602 202.809 58.3935 202.449 58.5802C202.102 58.7535 201.696 58.8869 201.229 58.9802C200.762 59.0602 200.229 59.1002 199.629 59.1002ZM201.769 62.8202C201.489 62.8202 201.249 62.7202 201.049 62.5202C200.862 62.3336 200.769 62.1069 200.769 61.8402C200.769 61.5736 200.862 61.3402 201.049 61.1402C201.249 60.9402 201.489 60.8402 201.769 60.8402C202.036 60.8402 202.262 60.9402 202.449 61.1402C202.649 61.3402 202.749 61.5736 202.749 61.8402C202.749 62.1069 202.649 62.3336 202.449 62.5202C202.262 62.7202 202.036 62.8202 201.769 62.8202Z" fill="#005C62"/>
<path d="M44.4599 76.8402C44.6799 77.4602 44.9599 78.3802 45.3999 79.5202C46.0599 81.3402 47.1599 83.3202 47.9999 84.6002C47.2799 84.5202 45.7999 84.4002 44.6799 84.3002L44.5599 85.6202C45.9999 85.7202 48.4399 85.9402 49.3999 86.1802L50.1999 85.0402C49.8999 84.7202 49.5999 84.3802 49.3399 83.9802C48.4799 82.8202 47.4599 80.9602 46.8399 79.2402C46.3799 77.9402 45.8599 76.2202 45.6799 75.0602L43.9599 75.2602C44.1599 75.8002 44.3399 76.4002 44.4599 76.8402ZM37.1399 78.4002L37.1799 79.9802C40.7199 80.2802 43.8999 80.2602 46.4399 79.9602C47.8999 79.7802 49.7999 79.4602 51.2199 79.0602L51.0399 77.4802C49.4799 78.0202 47.4999 78.3802 45.9199 78.5602C43.6399 78.8002 40.4799 78.7802 37.1399 78.4002ZM40.2399 84.7602L38.6799 84.4002C38.0999 85.5802 37.6999 86.6202 37.6999 87.7402C37.6999 90.4602 40.0999 91.8202 43.8999 91.8402C46.1399 91.8602 47.8199 91.6402 49.0799 91.4202L49.1399 89.8202C47.7599 90.1202 46.0199 90.3202 43.9999 90.3202C41.0199 90.2802 39.2799 89.4602 39.2799 87.5402C39.2799 86.6002 39.6399 85.7402 40.2399 84.7602Z" fill="#005C62"/>
<path d="M63.4199 75.1802L61.7599 75.1202C61.7599 75.3802 61.7399 75.7402 61.6999 76.1002C61.5199 77.8202 61.1199 81.0602 61.1199 83.8002C61.1199 86.3402 61.6599 89.1802 62.2399 90.9602L63.6999 90.5202C63.0799 88.6402 62.5199 86.2402 62.5199 83.6402C62.5199 80.9002 62.8599 77.7402 63.1999 76.0602C63.2599 75.7802 63.3399 75.4202 63.4199 75.1802ZM60.1999 77.6402C59.3399 77.6402 57.5999 77.5202 56.8999 77.4002L56.9399 78.9002C57.7599 78.9402 59.3199 79.0202 60.1799 79.0202C63.1599 79.0202 67.0999 78.7202 69.9799 78.2202L69.9599 76.7402C67.1999 77.3602 63.7199 77.6402 60.1999 77.6402ZM68.5399 80.0002L66.9399 79.6002C66.9199 79.9202 66.8199 80.4602 66.7399 80.7602C65.8199 84.0002 64.1799 86.1602 62.3999 87.7202C61.1199 88.8402 59.8199 89.4002 58.8199 89.4002C58.0799 89.4002 57.6799 89.0002 57.6799 88.1802C57.6799 86.3402 59.4799 84.1402 61.7399 83.1402C62.7599 82.6802 64.2399 82.2002 65.9199 82.2002C68.8999 82.2002 70.5399 83.9002 70.5399 85.8402C70.5399 88.4202 68.2999 90.2802 64.6999 90.6802L65.5599 92.0202C70.1999 91.2802 72.0999 88.7802 72.0999 85.9202C72.0999 83.1202 69.7199 80.9202 65.9399 80.9202C64.6399 80.9202 63.0199 81.2202 61.6799 81.7402C58.7199 82.8802 56.1799 85.7002 56.1799 88.4402C56.1799 90.1402 57.2199 90.9402 58.5399 90.9402C59.9599 90.9402 61.5599 90.2002 62.8399 89.2202C64.9399 87.6002 66.9399 84.8202 68.1199 81.1202C68.2399 80.8002 68.4199 80.2602 68.5399 80.0002Z" fill="#005C62"/>
<path d="M82.6999 75.4202V76.8602H92.5199V75.4202H82.6999ZM88.5399 81.3802V90.6602C88.5399 91.0002 88.4199 91.0802 88.0199 91.1002C87.6599 91.1202 86.3199 91.1202 84.8999 91.0802C85.1199 91.5202 85.3199 92.1402 85.3799 92.5602C87.3399 92.5602 88.4799 92.5402 89.1599 92.3202C89.8399 92.0802 90.0599 91.6202 90.0599 90.6802V81.3802H88.5399ZM81.8199 80.9402V82.3602H93.0999V80.9402H81.8199ZM77.8199 82.4802V92.6602H79.3199V81.2602L79.1399 81.1802L77.8199 82.4802ZM80.1399 78.4802C78.7599 80.7802 76.5599 83.1002 74.4799 84.5802C74.7999 84.8602 75.3199 85.5202 75.5399 85.8202C77.6399 84.1402 79.9999 81.5602 81.5599 79.0202L80.1399 78.4802ZM79.3199 74.2002C78.2999 75.6402 76.3599 77.4402 74.6999 78.5602C74.9599 78.8602 75.3599 79.4402 75.5799 79.7602C77.3599 78.4802 79.4199 76.5402 80.7599 74.7802L79.3199 74.2002Z" fill="#005C62"/>
<path d="M98.6799 76.9802V78.6002C100.26 78.7402 101.98 78.8202 103.98 78.8202C105.82 78.8202 108 78.6802 109.36 78.5802V76.9402C107.92 77.1002 105.9 77.2202 103.98 77.2202C101.96 77.2202 100.12 77.1402 98.6799 76.9802ZM99.4799 85.0402L97.8599 84.8802C97.6799 85.6802 97.4599 86.6202 97.4599 87.6602C97.4599 90.1802 99.8199 91.5002 103.88 91.5002C106.72 91.5002 109.26 91.2002 110.7 90.8202L110.68 89.1002C109.16 89.5802 106.58 89.8802 103.84 89.8802C100.64 89.8802 99.0799 88.8402 99.0799 87.3002C99.0799 86.5602 99.2399 85.8202 99.4799 85.0402Z" fill="#005C62"/>
<path d="M48.3799 110.36C48.3799 113.94 44.9599 115.84 40.0999 116.46L41.0199 117.98C46.1999 117.18 50.0799 114.76 50.0799 110.42C50.0799 107.56 47.9799 105.98 45.1399 105.98C42.8199 105.98 40.5599 106.62 39.1599 106.94C38.5399 107.06 37.8799 107.2 37.3199 107.24L37.8199 109.08C38.2999 108.88 38.8999 108.66 39.5199 108.48C40.6799 108.14 42.6599 107.48 44.9599 107.48C47.0199 107.48 48.3799 108.66 48.3799 110.36ZM39.9799 101.34L39.7399 102.86C41.9999 103.26 46.0199 103.66 48.2399 103.82L48.4799 102.28C46.5399 102.26 42.1999 101.84 39.9799 101.34Z" fill="#005C62"/>
<path d="M178.103 91.0001V82.9601C178.103 82.1868 177.916 81.6135 177.543 81.2401C177.183 80.8535 176.629 80.6601 175.883 80.6601H172.143L172.343 79.1401H176.023C177.316 79.1401 178.289 79.4601 178.943 80.1001C179.609 80.7268 179.943 81.6601 179.943 82.9001V89.6801C179.889 89.9201 179.789 90.1468 179.643 90.3601C179.509 90.5735 179.356 90.7868 179.183 91.0001H178.103ZM171.543 91.0001V89.4801H181.423L181.203 91.0001H171.543Z" fill="#005C62"/>
<path d="M184.631 91.0001V79.1401H186.471V91.0001H184.631ZM182.811 80.6601L183.031 79.1401H185.831V80.6601H182.811Z" fill="#005C62"/>
<path d="M197.886 91.0001C197.3 90.0001 196.7 89.0335 196.086 88.1001C195.473 87.1668 194.86 86.2868 194.246 85.4601C193.646 84.6201 193.053 83.8401 192.466 83.1201C192.133 82.7068 191.806 82.3068 191.486 81.9201C191.166 81.5201 190.866 81.1468 190.586 80.8001C190.32 80.4535 190.066 80.1401 189.826 79.8601C189.6 79.5801 189.4 79.3401 189.226 79.1401H191.446C191.7 79.4335 191.966 79.7601 192.246 80.1201C192.526 80.4801 192.833 80.8735 193.166 81.3001C193.5 81.7135 193.866 82.1735 194.266 82.6801C194.84 83.4668 195.453 84.3135 196.106 85.2201C196.76 86.1268 197.42 87.0668 198.086 88.0401C198.753 89.0135 199.386 90.0001 199.986 91.0001H197.886ZM188.786 91.0001L189.266 87.6801C189.373 86.9068 189.54 86.2001 189.766 85.5601C190.006 84.9068 190.353 84.3401 190.806 83.8601C191.26 83.3668 191.866 82.9668 192.626 82.6601L193.226 83.8601C192.746 84.0868 192.366 84.3935 192.086 84.7801C191.806 85.1535 191.593 85.5935 191.446 86.1001C191.3 86.5935 191.18 87.1401 191.086 87.7401L190.606 91.0001H188.786ZM196.146 86.0801L195.546 84.8801C196.053 84.6401 196.466 84.3335 196.786 83.9601C197.106 83.5868 197.346 83.1535 197.506 82.6601C197.68 82.1668 197.793 81.6201 197.846 81.0201L198.026 79.1401H199.866L199.686 81.0801C199.62 81.8535 199.453 82.5601 199.186 83.2001C198.92 83.8401 198.533 84.4001 198.026 84.8801C197.533 85.3601 196.906 85.7601 196.146 86.0801Z" fill="#005C62"/>
<path d="M180.334 117V108.1C180.334 107.767 180.281 107.493 180.174 107.28C180.081 107.053 179.934 106.893 179.734 106.8C179.534 106.707 179.288 106.66 178.994 106.66H177.634L177.834 105.14H179.454C180.334 105.14 181.008 105.38 181.474 105.86C181.941 106.327 182.174 107.013 182.174 107.92V117H180.334ZM177.034 117V115.48H181.214V117H177.034Z" fill="#005C62"/>
<path d="M186.172 105.14H193.392L193.192 106.3L189.612 117H187.712L191.212 106.66H184.332V102.02L186.172 101.8V105.14Z" fill="#005C62"/>
<path d="M201.862 120.82V109.48C201.862 108.573 201.662 107.88 201.262 107.4C200.862 106.907 200.302 106.66 199.582 106.66H194.962L195.162 105.14H199.642C200.962 105.14 201.968 105.52 202.662 106.28C203.355 107.027 203.702 108.093 203.702 109.48V120.72L201.862 120.82Z" fill="#005C62"/>
</svg>
