<svg width="784" height="100" viewBox="0 0 784 100" fill="none" xmlns="http://www.w3.org/2000/svg">
<path d="M36.3516 43V32.9922H39.9062V31.7266H31.3906V32.9922H34.9453V43H36.3516Z" fill="#003440"/>
<path d="M41.25 43H42.6094V38.2656C42.6094 36.8594 43.4453 35.9375 44.7969 35.9375C46.0703 35.9375 46.7188 36.7109 46.7188 38V43H48.0781V37.75C48.0781 35.9375 47 34.7344 45.2188 34.7344C43.9844 34.7344 43.0938 35.2656 42.6406 36.1719H42.6094V31.7266H41.25V43Z" fill="#003440"/>
<path d="M50.5547 33.4297C51.0312 33.4297 51.4062 33.0469 51.4062 32.5781C51.4062 32.1016 51.0312 31.7266 50.5547 31.7266C50.0859 31.7266 49.7031 32.1016 49.7031 32.5781C49.7031 33.0469 50.0859 33.4297 50.5547 33.4297ZM49.875 43H51.2344V34.875H49.875V43Z" fill="#003440"/>
<path d="M52.9297 37.1172C52.9297 38.2891 53.6719 39 55.2031 39.3672L56.4922 39.6797C57.4219 39.9062 57.7422 40.2422 57.7422 40.8281C57.7422 41.5625 57.0625 42.0312 55.9609 42.0312C54.8594 42.0312 54.2344 41.5859 54.0703 40.6562H52.7109C52.8672 42.1797 54.0547 43.1406 55.9609 43.1406C57.7734 43.1406 59.1094 42.1406 59.1094 40.7266C59.1094 39.5625 58.5156 38.9219 56.875 38.5234L55.5859 38.2109C54.6797 37.9922 54.2656 37.6094 54.2656 37.0469C54.2656 36.3359 54.9219 35.8438 55.9141 35.8438C56.9141 35.8438 57.5391 36.3672 57.6406 37.2188H58.9375C58.8828 35.7812 57.6953 34.7344 55.9141 34.7344C54.1562 34.7344 52.9297 35.7266 52.9297 37.1172Z" fill="#003440"/>
<path d="M64.5547 33.4297C65.0312 33.4297 65.4062 33.0469 65.4062 32.5781C65.4062 32.1016 65.0312 31.7266 64.5547 31.7266C64.0859 31.7266 63.7031 32.1016 63.7031 32.5781C63.7031 33.0469 64.0859 33.4297 64.5547 33.4297ZM63.875 43H65.2344V34.875H63.875V43Z" fill="#003440"/>
<path d="M66.9297 37.1172C66.9297 38.2891 67.6719 39 69.2031 39.3672L70.4922 39.6797C71.4219 39.9062 71.7422 40.2422 71.7422 40.8281C71.7422 41.5625 71.0625 42.0312 69.9609 42.0312C68.8594 42.0312 68.2344 41.5859 68.0703 40.6562H66.7109C66.8672 42.1797 68.0547 43.1406 69.9609 43.1406C71.7734 43.1406 73.1094 42.1406 73.1094 40.7266C73.1094 39.5625 72.5156 38.9219 70.875 38.5234L69.5859 38.2109C68.6797 37.9922 68.2656 37.6094 68.2656 37.0469C68.2656 36.3359 68.9219 35.8438 69.9141 35.8438C70.9141 35.8438 71.5391 36.3672 71.6406 37.2188H72.9375C72.8828 35.7812 71.6953 34.7344 69.9141 34.7344C68.1562 34.7344 66.9297 35.7266 66.9297 37.1172Z" fill="#003440"/>
<path d="M80.1797 43.1406C81.2734 43.1406 82.3047 42.5312 82.7891 41.6016H82.8203V43H84.1094V37.3828C84.1094 35.7656 82.9062 34.7344 81 34.7344C79.0781 34.7344 77.875 35.8125 77.7812 37.2188H79.0938C79.2656 36.4219 79.9219 35.9297 80.9688 35.9297C82.0938 35.9297 82.75 36.5234 82.75 37.5156V38.1953L80.4219 38.3281C78.5469 38.4375 77.4766 39.3125 77.4766 40.7031C77.4766 42.1641 78.5625 43.1406 80.1797 43.1406ZM80.4844 41.9844C79.5078 41.9844 78.8594 41.4766 78.8594 40.7031C78.8594 39.9375 79.4844 39.4531 80.5781 39.3828L82.75 39.25V39.9141C82.75 41.0859 81.7656 41.9844 80.4844 41.9844Z" fill="#003440"/>
<path d="M89.1172 43H90.4766V37.9062C90.4766 36.7812 91.2578 35.9375 92.3359 35.9375C93.3438 35.9375 94 36.5781 94 37.5547V43H95.3594V37.8359C95.3594 36.7344 96.1172 35.9375 97.1953 35.9375C98.2656 35.9375 98.8828 36.5938 98.8828 37.7031V43H100.242V37.3906C100.242 35.7812 99.2031 34.7344 97.5938 34.7344C96.4531 34.7344 95.5 35.3125 95.0469 36.2812H95.0156C94.6641 35.2969 93.8438 34.7344 92.7344 34.7344C91.6406 34.7344 90.8125 35.3125 90.4297 36.1719H90.3984V34.875H89.1172V43Z" fill="#003440"/>
<path d="M104.352 43.1406C105.445 43.1406 106.477 42.5312 106.961 41.6016H106.992V43H108.281V37.3828C108.281 35.7656 107.078 34.7344 105.172 34.7344C103.25 34.7344 102.047 35.8125 101.953 37.2188H103.266C103.438 36.4219 104.094 35.9297 105.141 35.9297C106.266 35.9297 106.922 36.5234 106.922 37.5156V38.1953L104.594 38.3281C102.719 38.4375 101.648 39.3125 101.648 40.7031C101.648 42.1641 102.734 43.1406 104.352 43.1406ZM104.656 41.9844C103.68 41.9844 103.031 41.4766 103.031 40.7031C103.031 39.9375 103.656 39.4531 104.75 39.3828L106.922 39.25V39.9141C106.922 41.0859 105.938 41.9844 104.656 41.9844Z" fill="#003440"/>
<path d="M112.883 39.9062L114.828 43H116.336L113.633 38.8828L116.375 34.875H114.859L112.93 37.9219H112.898L110.945 34.875H109.43L112.148 38.9375L109.383 43H110.891L112.852 39.9062H112.883Z" fill="#003440"/>
<path d="M118.273 33.4297C118.75 33.4297 119.125 33.0469 119.125 32.5781C119.125 32.1016 118.75 31.7266 118.273 31.7266C117.805 31.7266 117.422 32.1016 117.422 32.5781C117.422 33.0469 117.805 33.4297 118.273 33.4297ZM117.594 43H118.953V34.875H117.594V43Z" fill="#003440"/>
<path d="M120.789 43H122.148V37.9062C122.148 36.7812 122.93 35.9375 124.008 35.9375C125.016 35.9375 125.672 36.5781 125.672 37.5547V43H127.031V37.8359C127.031 36.7344 127.789 35.9375 128.867 35.9375C129.938 35.9375 130.555 36.5938 130.555 37.7031V43H131.914V37.3906C131.914 35.7812 130.875 34.7344 129.266 34.7344C128.125 34.7344 127.172 35.3125 126.719 36.2812H126.688C126.336 35.2969 125.516 34.7344 124.406 34.7344C123.312 34.7344 122.484 35.3125 122.102 36.1719H122.07V34.875H120.789V43Z" fill="#003440"/>
<path d="M140.32 34.875H138.961V39.6484C138.961 41.0312 138.164 41.9375 136.844 41.9375C135.586 41.9375 134.969 41.2266 134.969 39.9062V34.875H133.609V40.1484C133.609 41.9922 134.648 43.1406 136.422 43.1406C137.672 43.1406 138.516 42.6172 139 41.6797H139.031V43H140.32V34.875Z" fill="#003440"/>
<path d="M142.086 43H143.445V37.9062C143.445 36.7812 144.227 35.9375 145.305 35.9375C146.312 35.9375 146.969 36.5781 146.969 37.5547V43H148.328V37.8359C148.328 36.7344 149.086 35.9375 150.164 35.9375C151.234 35.9375 151.852 36.5938 151.852 37.7031V43H153.211V37.3906C153.211 35.7812 152.172 34.7344 150.562 34.7344C149.422 34.7344 148.469 35.3125 148.016 36.2812H147.984C147.633 35.2969 146.812 34.7344 145.703 34.7344C144.609 34.7344 143.781 35.3125 143.398 36.1719H143.367V34.875H142.086V43Z" fill="#003440"/>
<path d="M158.297 43H159.656V31.7266H158.297V43Z" fill="#003440"/>
<path d="M162.242 33.4297C162.719 33.4297 163.094 33.0469 163.094 32.5781C163.094 32.1016 162.719 31.7266 162.242 31.7266C161.773 31.7266 161.391 32.1016 161.391 32.5781C161.391 33.0469 161.773 33.4297 162.242 33.4297ZM161.562 43H162.922V34.875H161.562V43Z" fill="#003440"/>
<path d="M164.758 43H166.117V38.2188C166.117 36.8438 166.953 35.9375 168.234 35.9375C169.484 35.9375 170.102 36.6562 170.102 37.9688V43H171.461V37.7266C171.461 35.8828 170.43 34.7344 168.648 34.7344C167.391 34.7344 166.523 35.2969 166.07 36.1719H166.039V34.875H164.758V43Z" fill="#003440"/>
<path d="M178.586 40.6719C178.359 41.4375 177.602 41.9609 176.57 41.9609C175.109 41.9609 174.195 40.9375 174.195 39.3828V39.3047H180.023V38.7891C180.023 36.3281 178.672 34.7344 176.477 34.7344C174.234 34.7344 172.797 36.4453 172.797 38.9688C172.797 41.5234 174.211 43.1406 176.539 43.1406C178.312 43.1406 179.688 42.0938 179.922 40.6719H178.586ZM176.453 35.9141C177.734 35.9141 178.586 36.8828 178.617 38.2422H174.203C174.289 36.8906 175.18 35.9141 176.453 35.9141Z" fill="#003440"/>
<path d="M184.75 43H186.109V31.7266H184.75V43Z" fill="#003440"/>
<path d="M193.336 40.6719C193.109 41.4375 192.352 41.9609 191.32 41.9609C189.859 41.9609 188.945 40.9375 188.945 39.3828V39.3047H194.773V38.7891C194.773 36.3281 193.422 34.7344 191.227 34.7344C188.984 34.7344 187.547 36.4453 187.547 38.9688C187.547 41.5234 188.961 43.1406 191.289 43.1406C193.062 43.1406 194.438 42.0938 194.672 40.6719H193.336ZM191.203 35.9141C192.484 35.9141 193.336 36.8828 193.367 38.2422H188.953C189.039 36.8906 189.93 35.9141 191.203 35.9141Z" fill="#003440"/>
<path d="M196.148 43H197.508V38.2188C197.508 36.8438 198.344 35.9375 199.625 35.9375C200.875 35.9375 201.492 36.6562 201.492 37.9688V43H202.852V37.7266C202.852 35.8828 201.82 34.7344 200.039 34.7344C198.781 34.7344 197.914 35.2969 197.461 36.1719H197.43V34.875H196.148V43Z" fill="#003440"/>
<path d="M207.938 46.0625C210.18 46.0625 211.609 44.7734 211.609 42.8359V34.875H210.312V36.2422H210.289C209.75 35.2969 208.797 34.7344 207.648 34.7344C205.547 34.7344 204.188 36.3594 204.188 38.9062C204.188 41.4297 205.547 43.0625 207.617 43.0625C208.758 43.0625 209.719 42.4844 210.219 41.6016H210.25V42.8828C210.25 44.0938 209.398 44.9062 207.992 44.9062C206.977 44.9062 206.172 44.4141 205.906 43.6719H204.508C204.734 45.0547 206.148 46.0625 207.938 46.0625ZM207.891 41.8672C206.492 41.8672 205.578 40.7266 205.578 38.9062C205.578 37.0859 206.492 35.9297 207.891 35.9297C209.305 35.9297 210.25 37.1172 210.25 38.9062C210.25 40.6953 209.305 41.8672 207.891 41.8672Z" fill="#003440"/>
<path d="M213.82 32.9141V34.875H212.609V35.9922H213.82V40.8906C213.82 42.4531 214.398 43.0625 215.891 43.0625C216.211 43.0625 216.586 43.0391 216.75 43V41.8594C216.656 41.875 216.344 41.8984 216.188 41.8984C215.492 41.8984 215.18 41.5625 215.18 40.8203V35.9922H216.758V34.875H215.18V32.9141H213.82Z" fill="#003440"/>
<path d="M218.281 43H219.641V38.2656C219.641 36.8594 220.477 35.9375 221.828 35.9375C223.102 35.9375 223.75 36.7109 223.75 38V43H225.109V37.75C225.109 35.9375 224.031 34.7344 222.25 34.7344C221.016 34.7344 220.125 35.2656 219.672 36.1719H219.641V31.7266H218.281V43Z" fill="#003440"/>
<path d="M230.555 43H231.914V35.9922H233.57V34.875H231.906V33.9766C231.906 33.1719 232.258 32.7812 232.992 32.7812C233.219 32.7812 233.445 32.8047 233.609 32.8281V31.7266C233.414 31.6953 233.086 31.6641 232.781 31.6641C231.281 31.6641 230.555 32.4062 230.555 33.9688V34.875H229.422V35.9922H230.555V43Z" fill="#003440"/>
<path d="M237.953 43.1406C240.195 43.1406 241.711 41.5234 241.711 38.9375C241.711 36.3438 240.195 34.7344 237.953 34.7344C235.703 34.7344 234.188 36.3438 234.188 38.9375C234.188 41.5234 235.703 43.1406 237.953 43.1406ZM237.953 41.9453C236.516 41.9453 235.57 40.8516 235.57 38.9375C235.57 37.0234 236.516 35.9297 237.953 35.9297C239.391 35.9297 240.328 37.0234 240.328 38.9375C240.328 40.8516 239.391 41.9453 237.953 41.9453Z" fill="#003440"/>
<path d="M243.086 43H244.445V37.9375C244.445 36.7891 245.133 36.0312 246.188 36.0312C246.516 36.0312 246.805 36.0703 246.914 36.1094V34.7891C246.805 34.7734 246.602 34.7344 246.367 34.7344C245.414 34.7344 244.664 35.3047 244.398 36.2031H244.367V34.875H243.086V43Z" fill="#003440"/>
<path d="M251.305 43H252.664V37.9375C252.664 36.7891 253.352 36.0312 254.406 36.0312C254.734 36.0312 255.023 36.0703 255.133 36.1094V34.7891C255.023 34.7734 254.82 34.7344 254.586 34.7344C253.633 34.7344 252.883 35.3047 252.617 36.2031H252.586V34.875H251.305V43Z" fill="#003440"/>
<path d="M261.242 40.6719C261.016 41.4375 260.258 41.9609 259.227 41.9609C257.766 41.9609 256.852 40.9375 256.852 39.3828V39.3047H262.68V38.7891C262.68 36.3281 261.328 34.7344 259.133 34.7344C256.891 34.7344 255.453 36.4453 255.453 38.9688C255.453 41.5234 256.867 43.1406 259.195 43.1406C260.969 43.1406 262.344 42.0938 262.578 40.6719H261.242ZM259.109 35.9141C260.391 35.9141 261.242 36.8828 261.273 38.2422H256.859C256.945 36.8906 257.836 35.9141 259.109 35.9141Z" fill="#003440"/>
<path d="M266.43 43.1406C267.523 43.1406 268.555 42.5312 269.039 41.6016H269.07V43H270.359V37.3828C270.359 35.7656 269.156 34.7344 267.25 34.7344C265.328 34.7344 264.125 35.8125 264.031 37.2188H265.344C265.516 36.4219 266.172 35.9297 267.219 35.9297C268.344 35.9297 269 36.5234 269 37.5156V38.1953L266.672 38.3281C264.797 38.4375 263.727 39.3125 263.727 40.7031C263.727 42.1641 264.812 43.1406 266.43 43.1406ZM266.734 41.9844C265.758 41.9844 265.109 41.4766 265.109 40.7031C265.109 39.9375 265.734 39.4531 266.828 39.3828L269 39.25V39.9141C269 41.0859 268.016 41.9844 266.734 41.9844Z" fill="#003440"/>
<path d="M275.164 43.1406C276.336 43.1406 277.266 42.5625 277.789 41.625H277.812V43H279.109V31.7266H277.75V36.1953H277.719C277.234 35.3047 276.297 34.7344 275.133 34.7344C273.086 34.7344 271.688 36.3906 271.688 38.9375C271.688 41.4844 273.094 43.1406 275.164 43.1406ZM275.422 35.9297C276.82 35.9297 277.758 37.125 277.758 38.9375C277.758 40.7578 276.82 41.9453 275.422 41.9453C273.984 41.9453 273.078 40.7812 273.078 38.9375C273.078 37.1016 273.984 35.9297 275.422 35.9297Z" fill="#003440"/>
<path d="M281.695 33.4297C282.172 33.4297 282.547 33.0469 282.547 32.5781C282.547 32.1016 282.172 31.7266 281.695 31.7266C281.227 31.7266 280.844 32.1016 280.844 32.5781C280.844 33.0469 281.227 33.4297 281.695 33.4297ZM281.016 43H282.375V34.875H281.016V43Z" fill="#003440"/>
<path d="M284.211 43H285.57V38.2188C285.57 36.8438 286.406 35.9375 287.688 35.9375C288.938 35.9375 289.555 36.6562 289.555 37.9688V43H290.914V37.7266C290.914 35.8828 289.883 34.7344 288.102 34.7344C286.844 34.7344 285.977 35.2969 285.523 36.1719H285.492V34.875H284.211V43Z" fill="#003440"/>
<path d="M296 46.0625C298.242 46.0625 299.672 44.7734 299.672 42.8359V34.875H298.375V36.2422H298.352C297.812 35.2969 296.859 34.7344 295.711 34.7344C293.609 34.7344 292.25 36.3594 292.25 38.9062C292.25 41.4297 293.609 43.0625 295.68 43.0625C296.82 43.0625 297.781 42.4844 298.281 41.6016H298.312V42.8828C298.312 44.0938 297.461 44.9062 296.055 44.9062C295.039 44.9062 294.234 44.4141 293.969 43.6719H292.57C292.797 45.0547 294.211 46.0625 296 46.0625ZM295.953 41.8672C294.555 41.8672 293.641 40.7266 293.641 38.9062C293.641 37.0859 294.555 35.9297 295.953 35.9297C297.367 35.9297 298.312 37.1172 298.312 38.9062C298.312 40.6953 297.367 41.8672 295.953 41.8672Z" fill="#003440"/>
<path d="M307.102 43.1406C308.195 43.1406 309.227 42.5312 309.711 41.6016H309.742V43H311.031V37.3828C311.031 35.7656 309.828 34.7344 307.922 34.7344C306 34.7344 304.797 35.8125 304.703 37.2188H306.016C306.188 36.4219 306.844 35.9297 307.891 35.9297C309.016 35.9297 309.672 36.5234 309.672 37.5156V38.1953L307.344 38.3281C305.469 38.4375 304.398 39.3125 304.398 40.7031C304.398 42.1641 305.484 43.1406 307.102 43.1406ZM307.406 41.9844C306.43 41.9844 305.781 41.4766 305.781 40.7031C305.781 39.9375 306.406 39.4531 307.5 39.3828L309.672 39.25V39.9141C309.672 41.0859 308.688 41.9844 307.406 41.9844Z" fill="#003440"/>
<path d="M312.758 43H314.117V38.2188C314.117 36.8438 314.953 35.9375 316.234 35.9375C317.484 35.9375 318.102 36.6562 318.102 37.9688V43H319.461V37.7266C319.461 35.8828 318.43 34.7344 316.648 34.7344C315.391 34.7344 314.523 35.2969 314.07 36.1719H314.039V34.875H312.758V43Z" fill="#003440"/>
<path d="M324.273 43.1406C325.445 43.1406 326.375 42.5625 326.898 41.625H326.922V43H328.219V31.7266H326.859V36.1953H326.828C326.344 35.3047 325.406 34.7344 324.242 34.7344C322.195 34.7344 320.797 36.3906 320.797 38.9375C320.797 41.4844 322.203 43.1406 324.273 43.1406ZM324.531 35.9297C325.93 35.9297 326.867 37.125 326.867 38.9375C326.867 40.7578 325.93 41.9453 324.531 41.9453C323.094 41.9453 322.188 40.7812 322.188 38.9375C322.188 37.1016 323.094 35.9297 324.531 35.9297Z" fill="#003440"/>
<path d="M333.195 37.1172C333.195 38.2891 333.938 39 335.469 39.3672L336.758 39.6797C337.688 39.9062 338.008 40.2422 338.008 40.8281C338.008 41.5625 337.328 42.0312 336.227 42.0312C335.125 42.0312 334.5 41.5859 334.336 40.6562H332.977C333.133 42.1797 334.32 43.1406 336.227 43.1406C338.039 43.1406 339.375 42.1406 339.375 40.7266C339.375 39.5625 338.781 38.9219 337.141 38.5234L335.852 38.2109C334.945 37.9922 334.531 37.6094 334.531 37.0469C334.531 36.3359 335.188 35.8438 336.18 35.8438C337.18 35.8438 337.805 36.3672 337.906 37.2188H339.203C339.148 35.7812 337.961 34.7344 336.18 34.7344C334.422 34.7344 333.195 35.7266 333.195 37.1172Z" fill="#003440"/>
<path d="M347.539 37.5391C347.367 36.0781 346.156 34.7344 344.125 34.7344C341.883 34.7344 340.391 36.375 340.391 38.9375C340.391 41.5547 341.891 43.1406 344.141 43.1406C345.984 43.1406 347.344 42 347.555 40.3828H346.219C345.984 41.3594 345.258 41.9453 344.148 41.9453C342.742 41.9453 341.773 40.8281 341.773 38.9375C341.773 37.0938 342.727 35.9297 344.133 35.9297C345.328 35.9297 346.016 36.6562 346.211 37.5391H347.539Z" fill="#003440"/>
<path d="M351.18 43.1406C352.273 43.1406 353.305 42.5312 353.789 41.6016H353.82V43H355.109V37.3828C355.109 35.7656 353.906 34.7344 352 34.7344C350.078 34.7344 348.875 35.8125 348.781 37.2188H350.094C350.266 36.4219 350.922 35.9297 351.969 35.9297C353.094 35.9297 353.75 36.5234 353.75 37.5156V38.1953L351.422 38.3281C349.547 38.4375 348.477 39.3125 348.477 40.7031C348.477 42.1641 349.562 43.1406 351.18 43.1406ZM351.484 41.9844C350.508 41.9844 349.859 41.4766 349.859 40.7031C349.859 39.9375 350.484 39.4531 351.578 39.3828L353.75 39.25V39.9141C353.75 41.0859 352.766 41.9844 351.484 41.9844Z" fill="#003440"/>
<path d="M356.836 43H358.195V38.2188C358.195 36.8438 359.031 35.9375 360.312 35.9375C361.562 35.9375 362.18 36.6562 362.18 37.9688V43H363.539V37.7266C363.539 35.8828 362.508 34.7344 360.727 34.7344C359.469 34.7344 358.602 35.2969 358.148 36.1719H358.117V34.875H356.836V43Z" fill="#003440"/>
<path d="M365.273 43H366.633V38.2188C366.633 36.8438 367.469 35.9375 368.75 35.9375C370 35.9375 370.617 36.6562 370.617 37.9688V43H371.977V37.7266C371.977 35.8828 370.945 34.7344 369.164 34.7344C367.906 34.7344 367.039 35.2969 366.586 36.1719H366.555V34.875H365.273V43Z" fill="#003440"/>
<path d="M374.461 33.4297C374.938 33.4297 375.312 33.0469 375.312 32.5781C375.312 32.1016 374.938 31.7266 374.461 31.7266C373.992 31.7266 373.609 32.1016 373.609 32.5781C373.609 33.0469 373.992 33.4297 374.461 33.4297ZM373.781 43H375.141V34.875H373.781V43Z" fill="#003440"/>
<path d="M376.977 43H378.336V38.2188C378.336 36.8438 379.172 35.9375 380.453 35.9375C381.703 35.9375 382.32 36.6562 382.32 37.9688V43H383.68V37.7266C383.68 35.8828 382.648 34.7344 380.867 34.7344C379.609 34.7344 378.742 35.2969 378.289 36.1719H378.258V34.875H376.977V43Z" fill="#003440"/>
<path d="M388.766 46.0625C391.008 46.0625 392.438 44.7734 392.438 42.8359V34.875H391.141V36.2422H391.117C390.578 35.2969 389.625 34.7344 388.477 34.7344C386.375 34.7344 385.016 36.3594 385.016 38.9062C385.016 41.4297 386.375 43.0625 388.445 43.0625C389.586 43.0625 390.547 42.4844 391.047 41.6016H391.078V42.8828C391.078 44.0938 390.227 44.9062 388.82 44.9062C387.805 44.9062 387 44.4141 386.734 43.6719H385.336C385.562 45.0547 386.977 46.0625 388.766 46.0625ZM388.719 41.8672C387.32 41.8672 386.406 40.7266 386.406 38.9062C386.406 37.0859 387.32 35.9297 388.719 35.9297C390.133 35.9297 391.078 37.1172 391.078 38.9062C391.078 40.6953 390.133 41.8672 388.719 41.8672Z" fill="#003440"/>
<path d="M395.359 43.0781C395.859 43.0781 396.25 42.6875 396.25 42.1875C396.25 41.6875 395.859 41.2969 395.359 41.2969C394.859 41.2969 394.469 41.6875 394.469 42.1875C394.469 42.6875 394.859 43.0781 395.359 43.0781Z" fill="#003440"/>
<path d="M402.391 43V31.7266H400.984V43H402.391Z" fill="#003440"/>
<path d="M404.805 32.9141V34.875H403.594V35.9922H404.805V40.8906C404.805 42.4531 405.383 43.0625 406.875 43.0625C407.195 43.0625 407.57 43.0391 407.734 43V41.8594C407.641 41.875 407.328 41.8984 407.172 41.8984C406.477 41.8984 406.164 41.5625 406.164 40.8203V35.9922H407.742V34.875H406.164V32.9141H404.805Z" fill="#003440"/>
<path d="M413.227 33.4297C413.703 33.4297 414.078 33.0469 414.078 32.5781C414.078 32.1016 413.703 31.7266 413.227 31.7266C412.758 31.7266 412.375 32.1016 412.375 32.5781C412.375 33.0469 412.758 33.4297 413.227 33.4297ZM412.547 43H413.906V34.875H412.547V43Z" fill="#003440"/>
<path d="M415.602 37.1172C415.602 38.2891 416.344 39 417.875 39.3672L419.164 39.6797C420.094 39.9062 420.414 40.2422 420.414 40.8281C420.414 41.5625 419.734 42.0312 418.633 42.0312C417.531 42.0312 416.906 41.5859 416.742 40.6562H415.383C415.539 42.1797 416.727 43.1406 418.633 43.1406C420.445 43.1406 421.781 42.1406 421.781 40.7266C421.781 39.5625 421.188 38.9219 419.547 38.5234L418.258 38.2109C417.352 37.9922 416.938 37.6094 416.938 37.0469C416.938 36.3359 417.594 35.8438 418.586 35.8438C419.586 35.8438 420.211 36.3672 420.312 37.2188H421.609C421.555 35.7812 420.367 34.7344 418.586 34.7344C416.828 34.7344 415.602 35.7266 415.602 37.1172Z" fill="#003440"/>
<path d="M428.852 43.1406C429.945 43.1406 430.977 42.5312 431.461 41.6016H431.492V43H432.781V37.3828C432.781 35.7656 431.578 34.7344 429.672 34.7344C427.75 34.7344 426.547 35.8125 426.453 37.2188H427.766C427.938 36.4219 428.594 35.9297 429.641 35.9297C430.766 35.9297 431.422 36.5234 431.422 37.5156V38.1953L429.094 38.3281C427.219 38.4375 426.148 39.3125 426.148 40.7031C426.148 42.1641 427.234 43.1406 428.852 43.1406ZM429.156 41.9844C428.18 41.9844 427.531 41.4766 427.531 40.7031C427.531 39.9375 428.156 39.4531 429.25 39.3828L431.422 39.25V39.9141C431.422 41.0859 430.438 41.9844 429.156 41.9844Z" fill="#003440"/>
<path d="M438.547 43.1406C440.625 43.1406 442 41.4922 442 38.9375C442 36.3906 440.617 34.7344 438.57 34.7344C437.422 34.7344 436.477 35.3047 435.969 36.2344H435.938V31.7266H434.578V43H435.875V41.625H435.906C436.43 42.5625 437.359 43.1406 438.547 43.1406ZM438.281 35.9297C439.719 35.9297 440.609 37.0938 440.609 38.9375C440.609 40.7969 439.719 41.9453 438.281 41.9453C436.906 41.9453 435.93 40.75 435.93 38.9375C435.93 37.1328 436.906 35.9297 438.281 35.9297Z" fill="#003440"/>
<path d="M446.75 43.1406C448.992 43.1406 450.508 41.5234 450.508 38.9375C450.508 36.3438 448.992 34.7344 446.75 34.7344C444.5 34.7344 442.984 36.3438 442.984 38.9375C442.984 41.5234 444.5 43.1406 446.75 43.1406ZM446.75 41.9453C445.312 41.9453 444.367 40.8516 444.367 38.9375C444.367 37.0234 445.312 35.9297 446.75 35.9297C448.188 35.9297 449.125 37.0234 449.125 38.9375C449.125 40.8516 448.188 41.9453 446.75 41.9453Z" fill="#003440"/>
<path d="M458.555 34.875H457.195V39.6484C457.195 41.0312 456.398 41.9375 455.078 41.9375C453.82 41.9375 453.203 41.2266 453.203 39.9062V34.875H451.844V40.1484C451.844 41.9922 452.883 43.1406 454.656 43.1406C455.906 43.1406 456.75 42.6172 457.234 41.6797H457.266V43H458.555V34.875Z" fill="#003440"/>
<path d="M460.758 32.9141V34.875H459.547V35.9922H460.758V40.8906C460.758 42.4531 461.336 43.0625 462.828 43.0625C463.148 43.0625 463.523 43.0391 463.688 43V41.8594C463.594 41.875 463.281 41.8984 463.125 41.8984C462.43 41.8984 462.117 41.5625 462.117 40.8203V35.9922H463.695V34.875H462.117V32.9141H460.758Z" fill="#003440"/>
<path d="M469.109 43H470.586L475.602 33.0312V31.7266H468.141V32.9766H474.211V33.0078L469.109 43Z" fill="#003440"/>
<path d="M481.086 43.1875C483.438 43.1875 485.102 41.6016 485.102 39.3359C485.102 37.1719 483.539 35.6016 481.375 35.6016C480.281 35.6016 479.344 36.0078 478.812 36.7656H478.781L479.164 32.9766H484.461V31.7266H478.008L477.43 38.1562H478.672C479.195 37.25 480.055 36.8125 481.125 36.8125C482.625 36.8125 483.695 37.8828 483.695 39.375C483.695 40.8906 482.633 41.9531 481.102 41.9531C479.75 41.9531 478.727 41.125 478.602 39.9219H477.219C477.336 41.8438 478.93 43.1875 481.086 43.1875Z" fill="#003440"/>
<path d="M493.656 39.0625V37.7969H485.656V39.0625H493.656Z" fill="#003440"/>
<path d="M498.445 43.1875C500.836 43.1875 502.539 41.8438 502.539 39.9531C502.539 38.5547 501.57 37.3984 500.109 37.0547V37.0234C501.359 36.625 502.117 35.6797 502.117 34.5078C502.117 32.7891 500.578 31.5391 498.445 31.5391C496.328 31.5391 494.766 32.7969 494.766 34.5C494.766 35.6875 495.539 36.6406 496.781 37.0234V37.0547C495.328 37.3906 494.359 38.5469 494.359 39.9531C494.359 41.8359 496.062 43.1875 498.445 43.1875ZM498.445 36.5C497.102 36.5 496.164 35.7266 496.164 34.6328C496.164 33.5312 497.102 32.75 498.445 32.75C499.789 32.75 500.727 33.5234 500.727 34.6328C500.727 35.7266 499.781 36.5 498.445 36.5ZM498.445 41.9609C496.898 41.9609 495.789 41.0781 495.789 39.8516C495.789 38.6172 496.898 37.7344 498.445 37.7344C500 37.7344 501.102 38.6094 501.102 39.8516C501.102 41.0781 500 41.9609 498.445 41.9609Z" fill="#003440"/>
<path d="M508.039 43.1875C510.391 43.1875 512.055 41.6016 512.055 39.3359C512.055 37.1719 510.492 35.6016 508.328 35.6016C507.234 35.6016 506.297 36.0078 505.766 36.7656H505.734L506.117 32.9766H511.414V31.7266H504.961L504.383 38.1562H505.625C506.148 37.25 507.008 36.8125 508.078 36.8125C509.578 36.8125 510.648 37.8828 510.648 39.375C510.648 40.8906 509.586 41.9531 508.055 41.9531C506.703 41.9531 505.68 41.125 505.555 39.9219H504.172C504.289 41.8438 505.883 43.1875 508.039 43.1875Z" fill="#003440"/>
<path d="M523.523 37.5391C523.352 36.0781 522.141 34.7344 520.109 34.7344C517.867 34.7344 516.375 36.375 516.375 38.9375C516.375 41.5547 517.875 43.1406 520.125 43.1406C521.969 43.1406 523.328 42 523.539 40.3828H522.203C521.969 41.3594 521.242 41.9453 520.133 41.9453C518.727 41.9453 517.758 40.8281 517.758 38.9375C517.758 37.0938 518.711 35.9297 520.117 35.9297C521.312 35.9297 522 36.6562 522.195 37.5391H523.523Z" fill="#003440"/>
<path d="M524.859 43H526.219V38.2656C526.219 36.8594 527.055 35.9375 528.406 35.9375C529.68 35.9375 530.328 36.7109 530.328 38V43H531.688V37.75C531.688 35.9375 530.609 34.7344 528.828 34.7344C527.594 34.7344 526.703 35.2656 526.25 36.1719H526.219V31.7266H524.859V43Z" fill="#003440"/>
<path d="M535.789 43.1406C536.883 43.1406 537.914 42.5312 538.398 41.6016H538.43V43H539.719V37.3828C539.719 35.7656 538.516 34.7344 536.609 34.7344C534.688 34.7344 533.484 35.8125 533.391 37.2188H534.703C534.875 36.4219 535.531 35.9297 536.578 35.9297C537.703 35.9297 538.359 36.5234 538.359 37.5156V38.1953L536.031 38.3281C534.156 38.4375 533.086 39.3125 533.086 40.7031C533.086 42.1641 534.172 43.1406 535.789 43.1406ZM536.094 41.9844C535.117 41.9844 534.469 41.4766 534.469 40.7031C534.469 39.9375 535.094 39.4531 536.188 39.3828L538.359 39.25V39.9141C538.359 41.0859 537.375 41.9844 536.094 41.9844Z" fill="#003440"/>
<path d="M541.445 43H542.805V37.9375C542.805 36.7891 543.492 36.0312 544.547 36.0312C544.875 36.0312 545.164 36.0703 545.273 36.1094V34.7891C545.164 34.7734 544.961 34.7344 544.727 34.7344C543.773 34.7344 543.023 35.3047 542.758 36.2031H542.727V34.875H541.445V43Z" fill="#003440"/>
<path d="M548.602 43.1406C549.695 43.1406 550.727 42.5312 551.211 41.6016H551.242V43H552.531V37.3828C552.531 35.7656 551.328 34.7344 549.422 34.7344C547.5 34.7344 546.297 35.8125 546.203 37.2188H547.516C547.688 36.4219 548.344 35.9297 549.391 35.9297C550.516 35.9297 551.172 36.5234 551.172 37.5156V38.1953L548.844 38.3281C546.969 38.4375 545.898 39.3125 545.898 40.7031C545.898 42.1641 546.984 43.1406 548.602 43.1406ZM548.906 41.9844C547.93 41.9844 547.281 41.4766 547.281 40.7031C547.281 39.9375 547.906 39.4531 549 39.3828L551.172 39.25V39.9141C551.172 41.0859 550.188 41.9844 548.906 41.9844Z" fill="#003440"/>
<path d="M561.008 37.5391C560.836 36.0781 559.625 34.7344 557.594 34.7344C555.352 34.7344 553.859 36.375 553.859 38.9375C553.859 41.5547 555.359 43.1406 557.609 43.1406C559.453 43.1406 560.812 42 561.023 40.3828H559.688C559.453 41.3594 558.727 41.9453 557.617 41.9453C556.211 41.9453 555.242 40.8281 555.242 38.9375C555.242 37.0938 556.195 35.9297 557.602 35.9297C558.797 35.9297 559.484 36.6562 559.68 37.5391H561.008Z" fill="#003440"/>
<path d="M562.711 32.9141V34.875H561.5V35.9922H562.711V40.8906C562.711 42.4531 563.289 43.0625 564.781 43.0625C565.102 43.0625 565.477 43.0391 565.641 43V41.8594C565.547 41.875 565.234 41.8984 565.078 41.8984C564.383 41.8984 564.07 41.5625 564.07 40.8203V35.9922H565.648V34.875H564.07V32.9141H562.711Z" fill="#003440"/>
<path d="M572.258 40.6719C572.031 41.4375 571.273 41.9609 570.242 41.9609C568.781 41.9609 567.867 40.9375 567.867 39.3828V39.3047H573.695V38.7891C573.695 36.3281 572.344 34.7344 570.148 34.7344C567.906 34.7344 566.469 36.4453 566.469 38.9688C566.469 41.5234 567.883 43.1406 570.211 43.1406C571.984 43.1406 573.359 42.0938 573.594 40.6719H572.258ZM570.125 35.9141C571.406 35.9141 572.258 36.8828 572.289 38.2422H567.875C567.961 36.8906 568.852 35.9141 570.125 35.9141Z" fill="#003440"/>
<path d="M575.07 43H576.43V37.9375C576.43 36.7891 577.117 36.0312 578.172 36.0312C578.5 36.0312 578.789 36.0703 578.898 36.1094V34.7891C578.789 34.7734 578.586 34.7344 578.352 34.7344C577.398 34.7344 576.648 35.3047 576.383 36.2031H576.352V34.875H575.07V43Z" fill="#003440"/>
<path d="M579.867 37.1172C579.867 38.2891 580.609 39 582.141 39.3672L583.43 39.6797C584.359 39.9062 584.68 40.2422 584.68 40.8281C584.68 41.5625 584 42.0312 582.898 42.0312C581.797 42.0312 581.172 41.5859 581.008 40.6562H579.648C579.805 42.1797 580.992 43.1406 582.898 43.1406C584.711 43.1406 586.047 42.1406 586.047 40.7266C586.047 39.5625 585.453 38.9219 583.812 38.5234L582.523 38.2109C581.617 37.9922 581.203 37.6094 581.203 37.0469C581.203 36.3359 581.859 35.8438 582.852 35.8438C583.852 35.8438 584.477 36.3672 584.578 37.2188H585.875C585.82 35.7812 584.633 34.7344 582.852 34.7344C581.094 34.7344 579.867 35.7266 579.867 37.1172Z" fill="#003440"/>
<path d="M590.812 43H592.172V31.7266H590.812V43Z" fill="#003440"/>
<path d="M597.375 43.1406C599.617 43.1406 601.133 41.5234 601.133 38.9375C601.133 36.3438 599.617 34.7344 597.375 34.7344C595.125 34.7344 593.609 36.3438 593.609 38.9375C593.609 41.5234 595.125 43.1406 597.375 43.1406ZM597.375 41.9453C595.938 41.9453 594.992 40.8516 594.992 38.9375C594.992 37.0234 595.938 35.9297 597.375 35.9297C598.812 35.9297 599.75 37.0234 599.75 38.9375C599.75 40.8516 598.812 41.9453 597.375 41.9453Z" fill="#003440"/>
<path d="M602.508 43H603.867V38.2188C603.867 36.8438 604.703 35.9375 605.984 35.9375C607.234 35.9375 607.852 36.6562 607.852 37.9688V43H609.211V37.7266C609.211 35.8828 608.18 34.7344 606.398 34.7344C605.141 34.7344 604.273 35.2969 603.82 36.1719H603.789V34.875H602.508V43Z" fill="#003440"/>
<path d="M614.297 46.0625C616.539 46.0625 617.969 44.7734 617.969 42.8359V34.875H616.672V36.2422H616.648C616.109 35.2969 615.156 34.7344 614.008 34.7344C611.906 34.7344 610.547 36.3594 610.547 38.9062C610.547 41.4297 611.906 43.0625 613.977 43.0625C615.117 43.0625 616.078 42.4844 616.578 41.6016H616.609V42.8828C616.609 44.0938 615.758 44.9062 614.352 44.9062C613.336 44.9062 612.531 44.4141 612.266 43.6719H610.867C611.094 45.0547 612.508 46.0625 614.297 46.0625ZM614.25 41.8672C612.852 41.8672 611.938 40.7266 611.938 38.9062C611.938 37.0859 612.852 35.9297 614.25 35.9297C615.664 35.9297 616.609 37.1172 616.609 38.9062C616.609 40.6953 615.664 41.8672 614.25 41.8672Z" fill="#003440"/>
<path d="M620.891 43.0781C621.391 43.0781 621.781 42.6875 621.781 42.1875C621.781 41.6875 621.391 41.2969 620.891 41.2969C620.391 41.2969 620 41.6875 620 42.1875C620 42.6875 620.391 43.0781 620.891 43.0781Z" fill="#003440"/>
<path d="M630.773 43V32.9922H634.328V31.7266H625.812V32.9922H629.367V43H630.773Z" fill="#003440"/>
<path d="M635.672 43H637.031V38.2656C637.031 36.8594 637.867 35.9375 639.219 35.9375C640.492 35.9375 641.141 36.7109 641.141 38V43H642.5V37.75C642.5 35.9375 641.422 34.7344 639.641 34.7344C638.406 34.7344 637.516 35.2656 637.062 36.1719H637.031V31.7266H635.672V43Z" fill="#003440"/>
<path d="M644.977 33.4297C645.453 33.4297 645.828 33.0469 645.828 32.5781C645.828 32.1016 645.453 31.7266 644.977 31.7266C644.508 31.7266 644.125 32.1016 644.125 32.5781C644.125 33.0469 644.508 33.4297 644.977 33.4297ZM644.297 43H645.656V34.875H644.297V43Z" fill="#003440"/>
<path d="M647.352 37.1172C647.352 38.2891 648.094 39 649.625 39.3672L650.914 39.6797C651.844 39.9062 652.164 40.2422 652.164 40.8281C652.164 41.5625 651.484 42.0312 650.383 42.0312C649.281 42.0312 648.656 41.5859 648.492 40.6562H647.133C647.289 42.1797 648.477 43.1406 650.383 43.1406C652.195 43.1406 653.531 42.1406 653.531 40.7266C653.531 39.5625 652.938 38.9219 651.297 38.5234L650.008 38.2109C649.102 37.9922 648.688 37.6094 648.688 37.0469C648.688 36.3359 649.344 35.8438 650.336 35.8438C651.336 35.8438 651.961 36.3672 652.062 37.2188H653.359C653.305 35.7812 652.117 34.7344 650.336 34.7344C648.578 34.7344 647.352 35.7266 647.352 37.1172Z" fill="#003440"/>
<path d="M668.562 34.875H667.219L665.594 41.4844H665.562L663.719 34.875H662.406L660.57 41.4844H660.539L658.914 34.875H657.562L659.836 43H661.219L663.047 36.7109H663.078L664.914 43H666.297L668.562 34.875Z" fill="#003440"/>
<path d="M671.898 43.1406C672.992 43.1406 674.023 42.5312 674.508 41.6016H674.539V43H675.828V37.3828C675.828 35.7656 674.625 34.7344 672.719 34.7344C670.797 34.7344 669.594 35.8125 669.5 37.2188H670.812C670.984 36.4219 671.641 35.9297 672.688 35.9297C673.812 35.9297 674.469 36.5234 674.469 37.5156V38.1953L672.141 38.3281C670.266 38.4375 669.195 39.3125 669.195 40.7031C669.195 42.1641 670.281 43.1406 671.898 43.1406ZM672.203 41.9844C671.227 41.9844 670.578 41.4766 670.578 40.7031C670.578 39.9375 671.203 39.4531 672.297 39.3828L674.469 39.25V39.9141C674.469 41.0859 673.484 41.9844 672.203 41.9844Z" fill="#003440"/>
<path d="M678.234 46.0391C679.703 46.0391 680.375 45.4688 681.07 43.5703L684.266 34.875H682.836L680.586 41.6406H680.562L678.312 34.875H676.859L679.859 43.0078L679.672 43.5781C679.359 44.5234 678.938 44.8906 678.18 44.8906C678.008 44.8906 677.797 44.8828 677.648 44.8516V45.9922C677.797 46.0234 678.07 46.0391 678.234 46.0391Z" fill="#003440"/>
<path d="M34.2578 67.1406C35.3516 67.1406 36.3828 66.5312 36.8672 65.6016H36.8984V67H38.1875V61.3828C38.1875 59.7656 36.9844 58.7344 35.0781 58.7344C33.1562 58.7344 31.9531 59.8125 31.8594 61.2188H33.1719C33.3438 60.4219 34 59.9297 35.0469 59.9297C36.1719 59.9297 36.8281 60.5234 36.8281 61.5156V62.1953L34.5 62.3281C32.625 62.4375 31.5547 63.3125 31.5547 64.7031C31.5547 66.1641 32.6406 67.1406 34.2578 67.1406ZM34.5625 65.9844C33.5859 65.9844 32.9375 65.4766 32.9375 64.7031C32.9375 63.9375 33.5625 63.4531 34.6562 63.3828L36.8281 63.25V63.9141C36.8281 65.0859 35.8438 65.9844 34.5625 65.9844Z" fill="#003440"/>
<path d="M43.2656 67H44.625V62.2656C44.625 60.8594 45.4609 59.9375 46.8125 59.9375C48.0859 59.9375 48.7344 60.7109 48.7344 62V67H50.0938V61.75C50.0938 59.9375 49.0156 58.7344 47.2344 58.7344C46 58.7344 45.1094 59.2656 44.6562 60.1719H44.625V55.7266H43.2656V67Z" fill="#003440"/>
<path d="M58.4922 58.875H57.1328V63.6484C57.1328 65.0312 56.3359 65.9375 55.0156 65.9375C53.7578 65.9375 53.1406 65.2266 53.1406 63.9062V58.875H51.7812V64.1484C51.7812 65.9922 52.8203 67.1406 54.5938 67.1406C55.8438 67.1406 56.6875 66.6172 57.1719 65.6797H57.2031V67H58.4922V58.875Z" fill="#003440"/>
<path d="M60.2578 67H61.6172V61.9062C61.6172 60.7812 62.3984 59.9375 63.4766 59.9375C64.4844 59.9375 65.1406 60.5781 65.1406 61.5547V67H66.5V61.8359C66.5 60.7344 67.2578 59.9375 68.3359 59.9375C69.4062 59.9375 70.0234 60.5938 70.0234 61.7031V67H71.3828V61.3906C71.3828 59.7812 70.3438 58.7344 68.7344 58.7344C67.5938 58.7344 66.6406 59.3125 66.1875 60.2812H66.1562C65.8047 59.2969 64.9844 58.7344 63.875 58.7344C62.7812 58.7344 61.9531 59.3125 61.5703 60.1719H61.5391V58.875H60.2578V67Z" fill="#003440"/>
<path d="M75.4922 67.1406C76.5859 67.1406 77.6172 66.5312 78.1016 65.6016H78.1328V67H79.4219V61.3828C79.4219 59.7656 78.2188 58.7344 76.3125 58.7344C74.3906 58.7344 73.1875 59.8125 73.0938 61.2188H74.4062C74.5781 60.4219 75.2344 59.9297 76.2812 59.9297C77.4062 59.9297 78.0625 60.5234 78.0625 61.5156V62.1953L75.7344 62.3281C73.8594 62.4375 72.7891 63.3125 72.7891 64.7031C72.7891 66.1641 73.875 67.1406 75.4922 67.1406ZM75.7969 65.9844C74.8203 65.9844 74.1719 65.4766 74.1719 64.7031C74.1719 63.9375 74.7969 63.4531 75.8906 63.3828L78.0625 63.25V63.9141C78.0625 65.0859 77.0781 65.9844 75.7969 65.9844Z" fill="#003440"/>
<path d="M81.1484 67H82.5078V62.2188C82.5078 60.8438 83.3438 59.9375 84.625 59.9375C85.875 59.9375 86.4922 60.6562 86.4922 61.9688V67H87.8516V61.7266C87.8516 59.8828 86.8203 58.7344 85.0391 58.7344C83.7812 58.7344 82.9141 59.2969 82.4609 60.1719H82.4297V58.875H81.1484V67Z" fill="#003440"/>
<path d="M90.1328 59.7031L91.2031 55.7266H89.7578L89 59.7031H90.1328Z" fill="#003440"/>
<path d="M91.7734 61.1172C91.7734 62.2891 92.5156 63 94.0469 63.3672L95.3359 63.6797C96.2656 63.9062 96.5859 64.2422 96.5859 64.8281C96.5859 65.5625 95.9062 66.0312 94.8047 66.0312C93.7031 66.0312 93.0781 65.5859 92.9141 64.6562H91.5547C91.7109 66.1797 92.8984 67.1406 94.8047 67.1406C96.6172 67.1406 97.9531 66.1406 97.9531 64.7266C97.9531 63.5625 97.3594 62.9219 95.7188 62.5234L94.4297 62.2109C93.5234 61.9922 93.1094 61.6094 93.1094 61.0469C93.1094 60.3359 93.7656 59.8438 94.7578 59.8438C95.7578 59.8438 96.3828 60.3672 96.4844 61.2188H97.7812C97.7266 59.7812 96.5391 58.7344 94.7578 58.7344C93 58.7344 91.7734 59.7266 91.7734 61.1172Z" fill="#003440"/>
<path d="M108.039 64.6719C107.812 65.4375 107.055 65.9609 106.023 65.9609C104.562 65.9609 103.648 64.9375 103.648 63.3828V63.3047H109.477V62.7891C109.477 60.3281 108.125 58.7344 105.93 58.7344C103.688 58.7344 102.25 60.4453 102.25 62.9688C102.25 65.5234 103.664 67.1406 105.992 67.1406C107.766 67.1406 109.141 66.0938 109.375 64.6719H108.039ZM105.906 59.9141C107.188 59.9141 108.039 60.8828 108.07 62.2422H103.656C103.742 60.8906 104.633 59.9141 105.906 59.9141Z" fill="#003440"/>
<path d="M111.531 70.0391C113 70.0391 113.672 69.4688 114.367 67.5703L117.562 58.875H116.133L113.883 65.6406H113.859L111.609 58.875H110.156L113.156 67.0078L112.969 67.5781C112.656 68.5234 112.234 68.8906 111.477 68.8906C111.305 68.8906 111.094 68.8828 110.945 68.8516V69.9922C111.094 70.0234 111.367 70.0391 111.531 70.0391Z" fill="#003440"/>
<path d="M123.789 64.6719C123.562 65.4375 122.805 65.9609 121.773 65.9609C120.312 65.9609 119.398 64.9375 119.398 63.3828V63.3047H125.227V62.7891C125.227 60.3281 123.875 58.7344 121.68 58.7344C119.438 58.7344 118 60.4453 118 62.9688C118 65.5234 119.414 67.1406 121.742 67.1406C123.516 67.1406 124.891 66.0938 125.125 64.6719H123.789ZM121.656 59.9141C122.938 59.9141 123.789 60.8828 123.82 62.2422H119.406C119.492 60.8906 120.383 59.9141 121.656 59.9141Z" fill="#003440"/>
<path d="M126.461 61.1172C126.461 62.2891 127.203 63 128.734 63.3672L130.023 63.6797C130.953 63.9062 131.273 64.2422 131.273 64.8281C131.273 65.5625 130.594 66.0312 129.492 66.0312C128.391 66.0312 127.766 65.5859 127.602 64.6562H126.242C126.398 66.1797 127.586 67.1406 129.492 67.1406C131.305 67.1406 132.641 66.1406 132.641 64.7266C132.641 63.5625 132.047 62.9219 130.406 62.5234L129.117 62.2109C128.211 61.9922 127.797 61.6094 127.797 61.0469C127.797 60.3359 128.453 59.8438 129.445 59.8438C130.445 59.8438 131.07 60.3672 131.172 61.2188H132.469C132.414 59.7812 131.227 58.7344 129.445 58.7344C127.688 58.7344 126.461 59.7266 126.461 61.1172Z" fill="#003440"/>
<path d="M140.414 67.1406C141.586 67.1406 142.516 66.5625 143.039 65.625H143.062V67H144.359V55.7266H143V60.1953H142.969C142.484 59.3047 141.547 58.7344 140.383 58.7344C138.336 58.7344 136.938 60.3906 136.938 62.9375C136.938 65.4844 138.344 67.1406 140.414 67.1406ZM140.672 59.9297C142.07 59.9297 143.008 61.125 143.008 62.9375C143.008 64.7578 142.07 65.9453 140.672 65.9453C139.234 65.9453 138.328 64.7812 138.328 62.9375C138.328 61.1016 139.234 59.9297 140.672 59.9297Z" fill="#003440"/>
<path d="M149.562 67.1406C151.805 67.1406 153.32 65.5234 153.32 62.9375C153.32 60.3438 151.805 58.7344 149.562 58.7344C147.312 58.7344 145.797 60.3438 145.797 62.9375C145.797 65.5234 147.312 67.1406 149.562 67.1406ZM149.562 65.9453C148.125 65.9453 147.18 64.8516 147.18 62.9375C147.18 61.0234 148.125 59.9297 149.562 59.9297C151 59.9297 151.938 61.0234 151.938 62.9375C151.938 64.8516 151 65.9453 149.562 65.9453Z" fill="#003440"/>
<path d="M154.695 67H156.055V62.2188C156.055 60.8438 156.891 59.9375 158.172 59.9375C159.422 59.9375 160.039 60.6562 160.039 61.9688V67H161.398V61.7266C161.398 59.8828 160.367 58.7344 158.586 58.7344C157.328 58.7344 156.461 59.2969 156.008 60.1719H155.977V58.875H154.695V67Z" fill="#003440"/>
<path d="M163.68 59.7031L164.75 55.7266H163.305L162.547 59.7031H163.68Z" fill="#003440"/>
<path d="M167.07 56.9141V58.875H165.859V59.9922H167.07V64.8906C167.07 66.4531 167.648 67.0625 169.141 67.0625C169.461 67.0625 169.836 67.0391 170 67V65.8594C169.906 65.875 169.594 65.8984 169.438 65.8984C168.742 65.8984 168.43 65.5625 168.43 64.8203V59.9922H170.008V58.875H168.43V56.9141H167.07Z" fill="#003440"/>
<path d="M174.812 67H176.172V62.2656C176.172 60.8594 177.008 59.9375 178.359 59.9375C179.633 59.9375 180.281 60.7109 180.281 62V67H181.641V61.75C181.641 59.9375 180.562 58.7344 178.781 58.7344C177.547 58.7344 176.656 59.2656 176.203 60.1719H176.172V55.7266H174.812V67Z" fill="#003440"/>
<path d="M185.742 67.1406C186.836 67.1406 187.867 66.5312 188.352 65.6016H188.383V67H189.672V61.3828C189.672 59.7656 188.469 58.7344 186.562 58.7344C184.641 58.7344 183.438 59.8125 183.344 61.2188H184.656C184.828 60.4219 185.484 59.9297 186.531 59.9297C187.656 59.9297 188.312 60.5234 188.312 61.5156V62.1953L185.984 62.3281C184.109 62.4375 183.039 63.3125 183.039 64.7031C183.039 66.1641 184.125 67.1406 185.742 67.1406ZM186.047 65.9844C185.07 65.9844 184.422 65.4766 184.422 64.7031C184.422 63.9375 185.047 63.4531 186.141 63.3828L188.312 63.25V63.9141C188.312 65.0859 187.328 65.9844 186.047 65.9844Z" fill="#003440"/>
<path d="M198.062 58.875H196.648L194.398 65.5547H194.367L192.125 58.875H190.695L193.688 67H195.078L198.062 58.875Z" fill="#003440"/>
<path d="M204.289 64.6719C204.062 65.4375 203.305 65.9609 202.273 65.9609C200.812 65.9609 199.898 64.9375 199.898 63.3828V63.3047H205.727V62.7891C205.727 60.3281 204.375 58.7344 202.18 58.7344C199.938 58.7344 198.5 60.4453 198.5 62.9688C198.5 65.5234 199.914 67.1406 202.242 67.1406C204.016 67.1406 205.391 66.0938 205.625 64.6719H204.289ZM202.156 59.9141C203.438 59.9141 204.289 60.8828 204.32 62.2422H199.906C199.992 60.8906 200.883 59.9141 202.156 59.9141Z" fill="#003440"/>
<path d="M212.758 67.1406C213.852 67.1406 214.883 66.5312 215.367 65.6016H215.398V67H216.688V61.3828C216.688 59.7656 215.484 58.7344 213.578 58.7344C211.656 58.7344 210.453 59.8125 210.359 61.2188H211.672C211.844 60.4219 212.5 59.9297 213.547 59.9297C214.672 59.9297 215.328 60.5234 215.328 61.5156V62.1953L213 62.3281C211.125 62.4375 210.055 63.3125 210.055 64.7031C210.055 66.1641 211.141 67.1406 212.758 67.1406ZM213.062 65.9844C212.086 65.9844 211.438 65.4766 211.438 64.7031C211.438 63.9375 212.062 63.4531 213.156 63.3828L215.328 63.25V63.9141C215.328 65.0859 214.344 65.9844 213.062 65.9844Z" fill="#003440"/>
<path d="M221.766 67H223.125V55.7266H221.766V67Z" fill="#003440"/>
<path d="M228.328 67.1406C230.57 67.1406 232.086 65.5234 232.086 62.9375C232.086 60.3438 230.57 58.7344 228.328 58.7344C226.078 58.7344 224.562 60.3438 224.562 62.9375C224.562 65.5234 226.078 67.1406 228.328 67.1406ZM228.328 65.9453C226.891 65.9453 225.945 64.8516 225.945 62.9375C225.945 61.0234 226.891 59.9297 228.328 59.9297C229.766 59.9297 230.703 61.0234 230.703 62.9375C230.703 64.8516 229.766 65.9453 228.328 65.9453Z" fill="#003440"/>
<path d="M233.461 67H234.82V62.2188C234.82 60.8438 235.656 59.9375 236.938 59.9375C238.188 59.9375 238.805 60.6562 238.805 61.9688V67H240.164V61.7266C240.164 59.8828 239.133 58.7344 237.352 58.7344C236.094 58.7344 235.227 59.2969 234.773 60.1719H234.742V58.875H233.461V67Z" fill="#003440"/>
<path d="M245.25 70.0625C247.492 70.0625 248.922 68.7734 248.922 66.8359V58.875H247.625V60.2422H247.602C247.062 59.2969 246.109 58.7344 244.961 58.7344C242.859 58.7344 241.5 60.3594 241.5 62.9062C241.5 65.4297 242.859 67.0625 244.93 67.0625C246.07 67.0625 247.031 66.4844 247.531 65.6016H247.562V66.8828C247.562 68.0938 246.711 68.9062 245.305 68.9062C244.289 68.9062 243.484 68.4141 243.219 67.6719H241.82C242.047 69.0547 243.461 70.0625 245.25 70.0625ZM245.203 65.8672C243.805 65.8672 242.891 64.7266 242.891 62.9062C242.891 61.0859 243.805 59.9297 245.203 59.9297C246.617 59.9297 247.562 61.1172 247.562 62.9062C247.562 64.6953 246.617 65.8672 245.203 65.8672Z" fill="#003440"/>
<path d="M264.312 58.875H262.969L261.344 65.4844H261.312L259.469 58.875H258.156L256.32 65.4844H256.289L254.664 58.875H253.312L255.586 67H256.969L258.797 60.7109H258.828L260.664 67H262.047L264.312 58.875Z" fill="#003440"/>
<path d="M267.648 67.1406C268.742 67.1406 269.773 66.5312 270.258 65.6016H270.289V67H271.578V61.3828C271.578 59.7656 270.375 58.7344 268.469 58.7344C266.547 58.7344 265.344 59.8125 265.25 61.2188H266.562C266.734 60.4219 267.391 59.9297 268.438 59.9297C269.562 59.9297 270.219 60.5234 270.219 61.5156V62.1953L267.891 62.3281C266.016 62.4375 264.945 63.3125 264.945 64.7031C264.945 66.1641 266.031 67.1406 267.648 67.1406ZM267.953 65.9844C266.977 65.9844 266.328 65.4766 266.328 64.7031C266.328 63.9375 266.953 63.4531 268.047 63.3828L270.219 63.25V63.9141C270.219 65.0859 269.234 65.9844 267.953 65.9844Z" fill="#003440"/>
<path d="M273.984 70.0391C275.453 70.0391 276.125 69.4688 276.82 67.5703L280.016 58.875H278.586L276.336 65.6406H276.312L274.062 58.875H272.609L275.609 67.0078L275.422 67.5781C275.109 68.5234 274.688 68.8906 273.93 68.8906C273.758 68.8906 273.547 68.8828 273.398 68.8516V69.9922C273.547 70.0234 273.82 70.0391 273.984 70.0391Z" fill="#003440"/>
<path d="M284.805 56.9141V58.875H283.594V59.9922H284.805V64.8906C284.805 66.4531 285.383 67.0625 286.875 67.0625C287.195 67.0625 287.57 67.0391 287.734 67V65.8594C287.641 65.875 287.328 65.8984 287.172 65.8984C286.477 65.8984 286.164 65.5625 286.164 64.8203V59.9922H287.742V58.875H286.164V56.9141H284.805Z" fill="#003440"/>
<path d="M292.328 67.1406C294.57 67.1406 296.086 65.5234 296.086 62.9375C296.086 60.3438 294.57 58.7344 292.328 58.7344C290.078 58.7344 288.562 60.3438 288.562 62.9375C288.562 65.5234 290.078 67.1406 292.328 67.1406ZM292.328 65.9453C290.891 65.9453 289.945 64.8516 289.945 62.9375C289.945 61.0234 290.891 59.9297 292.328 59.9297C293.766 59.9297 294.703 61.0234 294.703 62.9375C294.703 64.8516 293.766 65.9453 292.328 65.9453Z" fill="#003440"/>
<path d="M304.094 70.0625C306.336 70.0625 307.766 68.7734 307.766 66.8359V58.875H306.469V60.2422H306.445C305.906 59.2969 304.953 58.7344 303.805 58.7344C301.703 58.7344 300.344 60.3594 300.344 62.9062C300.344 65.4297 301.703 67.0625 303.773 67.0625C304.914 67.0625 305.875 66.4844 306.375 65.6016H306.406V66.8828C306.406 68.0938 305.555 68.9062 304.148 68.9062C303.133 68.9062 302.328 68.4141 302.062 67.6719H300.664C300.891 69.0547 302.305 70.0625 304.094 70.0625ZM304.047 65.8672C302.648 65.8672 301.734 64.7266 301.734 62.9062C301.734 61.0859 302.648 59.9297 304.047 59.9297C305.461 59.9297 306.406 61.1172 306.406 62.9062C306.406 64.6953 305.461 65.8672 304.047 65.8672Z" fill="#003440"/>
<path d="M312.906 67.1406C315.148 67.1406 316.664 65.5234 316.664 62.9375C316.664 60.3438 315.148 58.7344 312.906 58.7344C310.656 58.7344 309.141 60.3438 309.141 62.9375C309.141 65.5234 310.656 67.1406 312.906 67.1406ZM312.906 65.9453C311.469 65.9453 310.523 64.8516 310.523 62.9375C310.523 61.0234 311.469 59.9297 312.906 59.9297C314.344 59.9297 315.281 61.0234 315.281 62.9375C315.281 64.8516 314.344 65.9453 312.906 65.9453Z" fill="#003440"/>
<path d="M321.758 67H323.117V59.9922H324.773V58.875H323.109V57.9766C323.109 57.1719 323.461 56.7812 324.195 56.7812C324.422 56.7812 324.648 56.8047 324.812 56.8281V55.7266C324.617 55.6953 324.289 55.6641 323.984 55.6641C322.484 55.6641 321.758 56.4062 321.758 57.9688V58.875H320.625V59.9922H321.758V67Z" fill="#003440"/>
<path d="M326.18 67H327.539V61.9375C327.539 60.7891 328.227 60.0312 329.281 60.0312C329.609 60.0312 329.898 60.0703 330.008 60.1094V58.7891C329.898 58.7734 329.695 58.7344 329.461 58.7344C328.508 58.7344 327.758 59.3047 327.492 60.2031H327.461V58.875H326.18V67Z" fill="#003440"/>
<path d="M334.094 67.1406C336.336 67.1406 337.852 65.5234 337.852 62.9375C337.852 60.3438 336.336 58.7344 334.094 58.7344C331.844 58.7344 330.328 60.3438 330.328 62.9375C330.328 65.5234 331.844 67.1406 334.094 67.1406ZM334.094 65.9453C332.656 65.9453 331.711 64.8516 331.711 62.9375C331.711 61.0234 332.656 59.9297 334.094 59.9297C335.531 59.9297 336.469 61.0234 336.469 62.9375C336.469 64.8516 335.531 65.9453 334.094 65.9453Z" fill="#003440"/>
<path d="M339.227 67H340.586V61.9062C340.586 60.7812 341.367 59.9375 342.445 59.9375C343.453 59.9375 344.109 60.5781 344.109 61.5547V67H345.469V61.8359C345.469 60.7344 346.227 59.9375 347.305 59.9375C348.375 59.9375 348.992 60.5938 348.992 61.7031V67H350.352V61.3906C350.352 59.7812 349.312 58.7344 347.703 58.7344C346.562 58.7344 345.609 59.3125 345.156 60.2812H345.125C344.773 59.2969 343.953 58.7344 342.844 58.7344C341.75 58.7344 340.922 59.3125 340.539 60.1719H340.508V58.875H339.227V67Z" fill="#003440"/>
<path d="M355.805 56.9141V58.875H354.594V59.9922H355.805V64.8906C355.805 66.4531 356.383 67.0625 357.875 67.0625C358.195 67.0625 358.57 67.0391 358.734 67V65.8594C358.641 65.875 358.328 65.8984 358.172 65.8984C357.477 65.8984 357.164 65.5625 357.164 64.8203V59.9922H358.742V58.875H357.164V56.9141H355.805Z" fill="#003440"/>
<path d="M360.266 67H361.625V62.2656C361.625 60.8594 362.461 59.9375 363.812 59.9375C365.086 59.9375 365.734 60.7109 365.734 62V67H367.094V61.75C367.094 59.9375 366.016 58.7344 364.234 58.7344C363 58.7344 362.109 59.2656 361.656 60.1719H361.625V55.7266H360.266V67Z" fill="#003440"/>
<path d="M374.211 64.6719C373.984 65.4375 373.227 65.9609 372.195 65.9609C370.734 65.9609 369.82 64.9375 369.82 63.3828V63.3047H375.648V62.7891C375.648 60.3281 374.297 58.7344 372.102 58.7344C369.859 58.7344 368.422 60.4453 368.422 62.9688C368.422 65.5234 369.836 67.1406 372.164 67.1406C373.938 67.1406 375.312 66.0938 375.547 64.6719H374.211ZM372.078 59.9141C373.359 59.9141 374.211 60.8828 374.242 62.2422H369.828C369.914 60.8906 370.805 59.9141 372.078 59.9141Z" fill="#003440"/>
<path d="M380.164 61.1172C380.164 62.2891 380.906 63 382.438 63.3672L383.727 63.6797C384.656 63.9062 384.977 64.2422 384.977 64.8281C384.977 65.5625 384.297 66.0312 383.195 66.0312C382.094 66.0312 381.469 65.5859 381.305 64.6562H379.945C380.102 66.1797 381.289 67.1406 383.195 67.1406C385.008 67.1406 386.344 66.1406 386.344 64.7266C386.344 63.5625 385.75 62.9219 384.109 62.5234L382.82 62.2109C381.914 61.9922 381.5 61.6094 381.5 61.0469C381.5 60.3359 382.156 59.8438 383.148 59.8438C384.148 59.8438 384.773 60.3672 384.875 61.2188H386.172C386.117 59.7812 384.93 58.7344 383.148 58.7344C381.391 58.7344 380.164 59.7266 380.164 61.1172Z" fill="#003440"/>
<path d="M388.195 56.9141V58.875H386.984V59.9922H388.195V64.8906C388.195 66.4531 388.773 67.0625 390.266 67.0625C390.586 67.0625 390.961 67.0391 391.125 67V65.8594C391.031 65.875 390.719 65.8984 390.562 65.8984C389.867 65.8984 389.555 65.5625 389.555 64.8203V59.9922H391.133V58.875H389.555V56.9141H388.195Z" fill="#003440"/>
<path d="M394.805 67.1406C395.898 67.1406 396.93 66.5312 397.414 65.6016H397.445V67H398.734V61.3828C398.734 59.7656 397.531 58.7344 395.625 58.7344C393.703 58.7344 392.5 59.8125 392.406 61.2188H393.719C393.891 60.4219 394.547 59.9297 395.594 59.9297C396.719 59.9297 397.375 60.5234 397.375 61.5156V62.1953L395.047 62.3281C393.172 62.4375 392.102 63.3125 392.102 64.7031C392.102 66.1641 393.188 67.1406 394.805 67.1406ZM395.109 65.9844C394.133 65.9844 393.484 65.4766 393.484 64.7031C393.484 63.9375 394.109 63.4531 395.203 63.3828L397.375 63.25V63.9141C397.375 65.0859 396.391 65.9844 395.109 65.9844Z" fill="#003440"/>
<path d="M400.461 67H401.82V61.9375C401.82 60.7891 402.508 60.0312 403.562 60.0312C403.891 60.0312 404.18 60.0703 404.289 60.1094V58.7891C404.18 58.7734 403.977 58.7344 403.742 58.7344C402.789 58.7344 402.039 59.3047 401.773 60.2031H401.742V58.875H400.461V67Z" fill="#003440"/>
<path d="M405.836 56.9141V58.875H404.625V59.9922H405.836V64.8906C405.836 66.4531 406.414 67.0625 407.906 67.0625C408.227 67.0625 408.602 67.0391 408.766 67V65.8594C408.672 65.875 408.359 65.8984 408.203 65.8984C407.508 65.8984 407.195 65.5625 407.195 64.8203V59.9922H408.773V58.875H407.195V56.9141H405.836Z" fill="#003440"/>
<path d="M415.883 67.1406C416.977 67.1406 418.008 66.5312 418.492 65.6016H418.523V67H419.812V61.3828C419.812 59.7656 418.609 58.7344 416.703 58.7344C414.781 58.7344 413.578 59.8125 413.484 61.2188H414.797C414.969 60.4219 415.625 59.9297 416.672 59.9297C417.797 59.9297 418.453 60.5234 418.453 61.5156V62.1953L416.125 62.3281C414.25 62.4375 413.18 63.3125 413.18 64.7031C413.18 66.1641 414.266 67.1406 415.883 67.1406ZM416.188 65.9844C415.211 65.9844 414.562 65.4766 414.562 64.7031C414.562 63.9375 415.188 63.4531 416.281 63.3828L418.453 63.25V63.9141C418.453 65.0859 417.469 65.9844 416.188 65.9844Z" fill="#003440"/>
<path d="M421.539 67H422.898V62.2188C422.898 60.8438 423.734 59.9375 425.016 59.9375C426.266 59.9375 426.883 60.6562 426.883 61.9688V67H428.242V61.7266C428.242 59.8828 427.211 58.7344 425.43 58.7344C424.172 58.7344 423.305 59.2969 422.852 60.1719H422.82V58.875H421.539V67Z" fill="#003440"/>
<path d="M433.055 67.1406C434.227 67.1406 435.156 66.5625 435.68 65.625H435.703V67H437V55.7266H435.641V60.1953H435.609C435.125 59.3047 434.188 58.7344 433.023 58.7344C430.977 58.7344 429.578 60.3906 429.578 62.9375C429.578 65.4844 430.984 67.1406 433.055 67.1406ZM433.312 59.9297C434.711 59.9297 435.648 61.125 435.648 62.9375C435.648 64.7578 434.711 65.9453 433.312 65.9453C431.875 65.9453 430.969 64.7812 430.969 62.9375C430.969 61.1016 431.875 59.9297 433.312 59.9297Z" fill="#003440"/>
<path d="M447.508 64.6719C447.281 65.4375 446.523 65.9609 445.492 65.9609C444.031 65.9609 443.117 64.9375 443.117 63.3828V63.3047H448.945V62.7891C448.945 60.3281 447.594 58.7344 445.398 58.7344C443.156 58.7344 441.719 60.4453 441.719 62.9688C441.719 65.5234 443.133 67.1406 445.461 67.1406C447.234 67.1406 448.609 66.0938 448.844 64.6719H447.508ZM445.375 59.9141C446.656 59.9141 447.508 60.8828 447.539 62.2422H443.125C443.211 60.8906 444.102 59.9141 445.375 59.9141Z" fill="#003440"/>
<path d="M450.32 67H451.68V62.2188C451.68 60.8438 452.516 59.9375 453.797 59.9375C455.047 59.9375 455.664 60.6562 455.664 61.9688V67H457.023V61.7266C457.023 59.8828 455.992 58.7344 454.211 58.7344C452.953 58.7344 452.086 59.2969 451.633 60.1719H451.602V58.875H450.32V67Z" fill="#003440"/>
<path d="M461.836 67.1406C463.008 67.1406 463.938 66.5625 464.461 65.625H464.484V67H465.781V55.7266H464.422V60.1953H464.391C463.906 59.3047 462.969 58.7344 461.805 58.7344C459.758 58.7344 458.359 60.3906 458.359 62.9375C458.359 65.4844 459.766 67.1406 461.836 67.1406ZM462.094 59.9297C463.492 59.9297 464.43 61.125 464.43 62.9375C464.43 64.7578 463.492 65.9453 462.094 65.9453C460.656 65.9453 459.75 64.7812 459.75 62.9375C459.75 61.1016 460.656 59.9297 462.094 59.9297Z" fill="#003440"/>
<path d="M474.266 67.1406C476.508 67.1406 478.023 65.5234 478.023 62.9375C478.023 60.3438 476.508 58.7344 474.266 58.7344C472.016 58.7344 470.5 60.3438 470.5 62.9375C470.5 65.5234 472.016 67.1406 474.266 67.1406ZM474.266 65.9453C472.828 65.9453 471.883 64.8516 471.883 62.9375C471.883 61.0234 472.828 59.9297 474.266 59.9297C475.703 59.9297 476.641 61.0234 476.641 62.9375C476.641 64.8516 475.703 65.9453 474.266 65.9453Z" fill="#003440"/>
<path d="M479.836 67H481.195V59.9922H482.852V58.875H481.188V57.9766C481.188 57.1719 481.539 56.7812 482.273 56.7812C482.5 56.7812 482.727 56.8047 482.891 56.8281V55.7266C482.695 55.6953 482.367 55.6641 482.062 55.6641C480.562 55.6641 479.836 56.4062 479.836 57.9688V58.875H478.703V59.9922H479.836V67Z" fill="#003440"/>
<path d="M490.906 67.1406C493.148 67.1406 494.664 65.5234 494.664 62.9375C494.664 60.3438 493.148 58.7344 490.906 58.7344C488.656 58.7344 487.141 60.3438 487.141 62.9375C487.141 65.5234 488.656 67.1406 490.906 67.1406ZM490.906 65.9453C489.469 65.9453 488.523 64.8516 488.523 62.9375C488.523 61.0234 489.469 59.9297 490.906 59.9297C492.344 59.9297 493.281 61.0234 493.281 62.9375C493.281 64.8516 492.344 65.9453 490.906 65.9453Z" fill="#003440"/>
<path d="M496.039 67H497.398V62.2188C497.398 60.8438 498.234 59.9375 499.516 59.9375C500.766 59.9375 501.383 60.6562 501.383 61.9688V67H502.742V61.7266C502.742 59.8828 501.711 58.7344 499.93 58.7344C498.672 58.7344 497.805 59.2969 497.352 60.1719H497.32V58.875H496.039V67Z" fill="#003440"/>
<path d="M509.867 64.6719C509.641 65.4375 508.883 65.9609 507.852 65.9609C506.391 65.9609 505.477 64.9375 505.477 63.3828V63.3047H511.305V62.7891C511.305 60.3281 509.953 58.7344 507.758 58.7344C505.516 58.7344 504.078 60.4453 504.078 62.9688C504.078 65.5234 505.492 67.1406 507.82 67.1406C509.594 67.1406 510.969 66.0938 511.203 64.6719H509.867ZM507.734 59.9141C509.016 59.9141 509.867 60.8828 509.898 62.2422H505.484C505.57 60.8906 506.461 59.9141 507.734 59.9141Z" fill="#003440"/>
<path d="M516.031 67H517.391V55.7266H516.031V67Z" fill="#003440"/>
<path d="M519.977 57.4297C520.453 57.4297 520.828 57.0469 520.828 56.5781C520.828 56.1016 520.453 55.7266 519.977 55.7266C519.508 55.7266 519.125 56.1016 519.125 56.5781C519.125 57.0469 519.508 57.4297 519.977 57.4297ZM519.297 67H520.656V58.875H519.297V67Z" fill="#003440"/>
<path d="M522.492 67H523.852V62.2188C523.852 60.8438 524.688 59.9375 525.969 59.9375C527.219 59.9375 527.836 60.6562 527.836 61.9688V67H529.195V61.7266C529.195 59.8828 528.164 58.7344 526.383 58.7344C525.125 58.7344 524.258 59.2969 523.805 60.1719H523.773V58.875H522.492V67Z" fill="#003440"/>
<path d="M536.32 64.6719C536.094 65.4375 535.336 65.9609 534.305 65.9609C532.844 65.9609 531.93 64.9375 531.93 63.3828V63.3047H537.758V62.7891C537.758 60.3281 536.406 58.7344 534.211 58.7344C531.969 58.7344 530.531 60.4453 530.531 62.9688C530.531 65.5234 531.945 67.1406 534.273 67.1406C536.047 67.1406 537.422 66.0938 537.656 64.6719H536.32ZM534.188 59.9141C535.469 59.9141 536.32 60.8828 536.352 62.2422H531.938C532.023 60.8906 532.914 59.9141 534.188 59.9141Z" fill="#003440"/>
<path d="M540.281 67.0781C540.781 67.0781 541.172 66.6875 541.172 66.1875C541.172 65.6875 540.781 65.2969 540.281 65.2969C539.781 65.2969 539.391 65.6875 539.391 66.1875C539.391 66.6875 539.781 67.0781 540.281 67.0781Z" fill="#003440"/>
<path fill-rule="evenodd" clip-rule="evenodd" d="M695 76V22H697V76H695Z" fill="#EE376A"/>
<path d="M749 37C749 35.8954 748.105 35 747 35H705C703.896 35 703 35.8954 703 37V45.0674C703 45.7819 702.619 46.4422 702 46.7994L700.941 47.4108C699.608 48.1806 699.608 50.1051 700.941 50.8749L702 51.4863C702.619 51.8436 703 52.5038 703 53.2184V61C703 62.1046 703.896 63 705 63H747C748.105 63 749 62.1046 749 61V37Z" fill="#A30C4A"/>
<path d="M715.589 55.2158C714.965 55.2158 714.383 55.1018 713.843 54.8738C713.315 54.6458 712.853 54.3038 712.457 53.8478C712.061 53.3798 711.749 52.8038 711.521 52.1198C711.305 51.4238 711.197 50.6138 711.197 49.6898C711.197 48.5378 711.329 47.5598 711.593 46.7558C711.857 45.9398 712.211 45.2798 712.655 44.7758C713.099 44.2598 713.609 43.8878 714.185 43.6598C714.773 43.4198 715.379 43.2998 716.003 43.2998C716.711 43.2998 717.323 43.4198 717.839 43.6598C718.367 43.8878 718.823 44.1758 719.207 44.5238L718.379 45.4418C718.079 45.1658 717.731 44.9498 717.335 44.7938C716.939 44.6258 716.525 44.5418 716.093 44.5418C715.637 44.5418 715.199 44.6258 714.779 44.7938C714.359 44.9618 713.987 45.2378 713.663 45.6218C713.351 46.0058 713.093 46.5158 712.889 47.1518C712.697 47.7758 712.595 48.5498 712.583 49.4738C713.051 49.0178 713.567 48.6578 714.131 48.3938C714.695 48.1178 715.265 47.9798 715.841 47.9798C716.369 47.9798 716.849 48.0578 717.281 48.2138C717.725 48.3578 718.103 48.5798 718.415 48.8798C718.739 49.1678 718.985 49.5338 719.153 49.9778C719.333 50.4218 719.423 50.9378 719.423 51.5258C719.423 52.0778 719.315 52.5818 719.099 53.0378C718.895 53.4818 718.619 53.8658 718.271 54.1898C717.923 54.5138 717.515 54.7658 717.047 54.9458C716.591 55.1258 716.105 55.2158 715.589 55.2158ZM715.589 54.0458C715.925 54.0458 716.243 53.9858 716.543 53.8658C716.843 53.7458 717.101 53.5778 717.317 53.3618C717.533 53.1338 717.701 52.8698 717.821 52.5698C717.953 52.2578 718.019 51.9098 718.019 51.5258C718.019 50.7338 717.809 50.1338 717.389 49.7258C716.969 49.3058 716.363 49.0958 715.571 49.0958C715.115 49.0958 714.623 49.2158 714.095 49.4558C713.579 49.6958 713.093 50.0918 712.637 50.6438C712.745 51.7598 713.051 52.6058 713.555 53.1818C714.071 53.7578 714.749 54.0458 715.589 54.0458Z" fill="white"/>
<path d="M726.382 55.2158C725.758 55.2158 725.176 55.1018 724.636 54.8738C724.108 54.6458 723.646 54.3038 723.25 53.8478C722.854 53.3798 722.542 52.8038 722.314 52.1198C722.098 51.4238 721.99 50.6138 721.99 49.6898C721.99 48.5378 722.122 47.5598 722.386 46.7558C722.65 45.9398 723.004 45.2798 723.448 44.7758C723.892 44.2598 724.402 43.8878 724.978 43.6598C725.566 43.4198 726.172 43.2998 726.796 43.2998C727.504 43.2998 728.116 43.4198 728.632 43.6598C729.16 43.8878 729.616 44.1758 730 44.5238L729.172 45.4418C728.872 45.1658 728.524 44.9498 728.128 44.7938C727.732 44.6258 727.318 44.5418 726.886 44.5418C726.43 44.5418 725.992 44.6258 725.572 44.7938C725.152 44.9618 724.78 45.2378 724.456 45.6218C724.144 46.0058 723.886 46.5158 723.682 47.1518C723.49 47.7758 723.388 48.5498 723.376 49.4738C723.844 49.0178 724.36 48.6578 724.924 48.3938C725.488 48.1178 726.058 47.9798 726.634 47.9798C727.162 47.9798 727.642 48.0578 728.074 48.2138C728.518 48.3578 728.896 48.5798 729.208 48.8798C729.532 49.1678 729.778 49.5338 729.946 49.9778C730.126 50.4218 730.216 50.9378 730.216 51.5258C730.216 52.0778 730.108 52.5818 729.892 53.0378C729.688 53.4818 729.412 53.8658 729.064 54.1898C728.716 54.5138 728.308 54.7658 727.84 54.9458C727.384 55.1258 726.898 55.2158 726.382 55.2158ZM726.382 54.0458C726.718 54.0458 727.036 53.9858 727.336 53.8658C727.636 53.7458 727.894 53.5778 728.11 53.3618C728.326 53.1338 728.494 52.8698 728.614 52.5698C728.746 52.2578 728.812 51.9098 728.812 51.5258C728.812 50.7338 728.602 50.1338 728.182 49.7258C727.762 49.3058 727.156 49.0958 726.364 49.0958C725.908 49.0958 725.416 49.2158 724.888 49.4558C724.372 49.6958 723.886 50.0918 723.43 50.6438C723.538 51.7598 723.844 52.6058 724.348 53.1818C724.864 53.7578 725.542 54.0458 726.382 54.0458Z" fill="white"/>
<path d="M738.02 54.9998V51.8318H732.098V50.8418L737.84 43.5158H739.424V50.6438H741.206V51.8318H739.424V54.9998H738.02ZM733.736 50.6438H738.02V47.0798C738.032 46.7678 738.044 46.4318 738.056 46.0718C738.068 45.6998 738.086 45.3578 738.11 45.0458H738.02C737.84 45.3218 737.648 45.6038 737.444 45.8918C737.24 46.1678 737.042 46.4438 736.85 46.7198L733.736 50.6438Z" fill="white"/>
</svg>
