<svg width="244" height="151" viewBox="0 0 244 151" fill="none" xmlns="http://www.w3.org/2000/svg">
<rect opacity="0.3" x="45" y="71" width="153" height="19" fill="#EE376A"/>
<path d="M50.7734 71V60.9922H54.4062V59.7266H45.7344V60.9922H49.3672V71H50.7734Z" fill="#003440"/>
<path d="M56.4844 71H57.8281V66.0156C57.8281 64.5938 58.6562 63.6406 60.1641 63.6406C61.4375 63.6406 62.1094 64.3828 62.1094 65.875V71H63.4531V65.5469C63.4531 63.5703 62.3281 62.4297 60.5469 62.4297C59.2578 62.4297 58.375 62.9766 57.9531 63.9062H57.8281V59.2344H56.4844V71Z" fill="#003440"/>
<path d="M66.6094 60.9531C67.125 60.9531 67.5469 60.5312 67.5469 60.0156C67.5469 59.5 67.125 59.0781 66.6094 59.0781C66.0938 59.0781 65.6719 59.5 65.6719 60.0156C65.6719 60.5312 66.0938 60.9531 66.6094 60.9531ZM65.9375 71H67.2812V62.5781H65.9375V71Z" fill="#003440"/>
<path d="M69.8438 71H71.1875V66.0156C71.1875 64.5391 72.0547 63.6406 73.3984 63.6406C74.7422 63.6406 75.3828 64.3594 75.3828 65.875V71H76.7266V65.5469C76.7266 63.5469 75.6719 62.4297 73.7812 62.4297C72.4922 62.4297 71.6719 62.9766 71.25 63.9062H71.125V62.5781H69.8438V71Z" fill="#003440"/>
<path d="M82.6562 74.2344C84.9531 74.2344 86.4062 73.0312 86.4062 71.1484V62.5781H85.125V63.9141H85C84.5156 63.0078 83.4766 62.4297 82.2969 62.4297C80.1328 62.4297 78.7656 64.1406 78.7656 66.6641C78.7656 69.1875 80.1172 70.875 82.2969 70.875C83.4531 70.875 84.4062 70.3516 84.9375 69.4219H85.0625V71.0781C85.0625 72.3203 84.1641 73.0625 82.6562 73.0625C81.4453 73.0625 80.6953 72.6172 80.5469 71.9297H79.125C79.3281 73.3203 80.625 74.2344 82.6562 74.2344ZM82.5938 69.6875C81.0312 69.6875 80.1562 68.5 80.1562 66.6641C80.1562 64.8281 81.0312 63.6406 82.5938 63.6406C84.1484 63.6406 85.0938 64.8281 85.0938 66.6641C85.0938 68.5 84.1562 69.6875 82.5938 69.6875Z" fill="#003440"/>
<path d="M88.7422 64.8828C88.7422 66.1016 89.4609 66.7812 91.0391 67.1641L92.4844 67.5156C93.3828 67.7344 93.8203 68.125 93.8203 68.7031C93.8203 69.4766 93.0078 70.0156 91.875 70.0156C90.7969 70.0156 90.125 69.5625 89.8984 68.8516H88.5156C88.6641 70.25 89.9531 71.1484 91.8281 71.1484C93.7422 71.1484 95.2031 70.1094 95.2031 68.6016C95.2031 67.3906 94.4375 66.7031 92.8516 66.3203L91.5547 66.0078C90.5625 65.7656 90.0938 65.4062 90.0938 64.8281C90.0938 64.0781 90.875 63.5703 91.875 63.5703C92.8906 63.5703 93.5469 64.0156 93.7266 64.6875H95.0547C94.875 63.3047 93.6484 62.4297 91.8828 62.4297C90.0938 62.4297 88.7422 63.4844 88.7422 64.8828Z" fill="#003440"/>
<path d="M108.797 65.1562C108.562 63.6562 107.312 62.4297 105.266 62.4297C102.906 62.4297 101.406 64.1328 101.406 66.7578C101.406 69.4375 102.914 71.1484 105.273 71.1484C107.297 71.1484 108.555 70.0078 108.797 68.4609H107.438C107.188 69.4141 106.398 69.9375 105.266 69.9375C103.766 69.9375 102.797 68.7031 102.797 66.7578C102.797 64.8516 103.75 63.6406 105.266 63.6406C106.477 63.6406 107.219 64.3203 107.438 65.1562H108.797Z" fill="#003440"/>
<path d="M110.859 71H112.203V66.0156C112.203 64.5938 113.031 63.6406 114.539 63.6406C115.812 63.6406 116.484 64.3828 116.484 65.875V71H117.828V65.5469C117.828 63.5703 116.703 62.4297 114.922 62.4297C113.633 62.4297 112.75 62.9766 112.328 63.9062H112.203V59.2344H110.859V71Z" fill="#003440"/>
<path d="M122.625 71.1484C123.75 71.1484 124.672 70.6562 125.219 69.7578H125.344V71H126.625V65.2344C126.625 63.4844 125.477 62.4297 123.422 62.4297C121.625 62.4297 120.297 63.3203 120.117 64.6719H121.477C121.664 64.0078 122.367 63.625 123.375 63.625C124.633 63.625 125.281 64.1953 125.281 65.2344V66L122.852 66.1484C120.891 66.2656 119.781 67.1328 119.781 68.6406C119.781 70.1797 120.992 71.1484 122.625 71.1484ZM122.875 69.9688C121.898 69.9688 121.172 69.4688 121.172 68.6094C121.172 67.7656 121.734 67.3203 123.016 67.2344L125.281 67.0859V67.8594C125.281 69.0625 124.258 69.9688 122.875 69.9688Z" fill="#003440"/>
<path d="M129.109 71H130.453V66.0156C130.453 64.5391 131.32 63.6406 132.664 63.6406C134.008 63.6406 134.648 64.3594 134.648 65.875V71H135.992V65.5469C135.992 63.5469 134.938 62.4297 133.047 62.4297C131.758 62.4297 130.938 62.9766 130.516 63.9062H130.391V62.5781H129.109V71Z" fill="#003440"/>
<path d="M141.922 74.2344C144.219 74.2344 145.672 73.0312 145.672 71.1484V62.5781H144.391V63.9141H144.266C143.781 63.0078 142.742 62.4297 141.562 62.4297C139.398 62.4297 138.031 64.1406 138.031 66.6641C138.031 69.1875 139.383 70.875 141.562 70.875C142.719 70.875 143.672 70.3516 144.203 69.4219H144.328V71.0781C144.328 72.3203 143.43 73.0625 141.922 73.0625C140.711 73.0625 139.961 72.6172 139.812 71.9297H138.391C138.594 73.3203 139.891 74.2344 141.922 74.2344ZM141.859 69.6875C140.297 69.6875 139.422 68.5 139.422 66.6641C139.422 64.8281 140.297 63.6406 141.859 63.6406C143.414 63.6406 144.359 64.8281 144.359 66.6641C144.359 68.5 143.422 69.6875 141.859 69.6875Z" fill="#003440"/>
<path d="M153.781 68.8203C153.43 69.5625 152.695 69.9609 151.609 69.9609C150.18 69.9609 149.25 68.9062 149.18 67.2422V67.1797H155.234V66.6641C155.234 64.0469 153.852 62.4297 151.578 62.4297C149.266 62.4297 147.781 64.1484 147.781 66.7969C147.781 69.4609 149.242 71.1484 151.578 71.1484C153.422 71.1484 154.734 70.2578 155.125 68.8203H153.781ZM151.562 63.6172C152.898 63.6172 153.789 64.6016 153.82 66.0938H149.18C149.281 64.6016 150.219 63.6172 151.562 63.6172Z" fill="#003440"/>
<path d="M164.203 71.1484C165.328 71.1484 166.25 70.6562 166.797 69.7578H166.922V71H168.203V65.2344C168.203 63.4844 167.055 62.4297 165 62.4297C163.203 62.4297 161.875 63.3203 161.695 64.6719H163.055C163.242 64.0078 163.945 63.625 164.953 63.625C166.211 63.625 166.859 64.1953 166.859 65.2344V66L164.43 66.1484C162.469 66.2656 161.359 67.1328 161.359 68.6406C161.359 70.1797 162.57 71.1484 164.203 71.1484ZM164.453 69.9688C163.477 69.9688 162.75 69.4688 162.75 68.6094C162.75 67.7656 163.312 67.3203 164.594 67.2344L166.859 67.0859V67.8594C166.859 69.0625 165.836 69.9688 164.453 69.9688Z" fill="#003440"/>
<path d="M170.492 64.8828C170.492 66.1016 171.211 66.7812 172.789 67.1641L174.234 67.5156C175.133 67.7344 175.57 68.125 175.57 68.7031C175.57 69.4766 174.758 70.0156 173.625 70.0156C172.547 70.0156 171.875 69.5625 171.648 68.8516H170.266C170.414 70.25 171.703 71.1484 173.578 71.1484C175.492 71.1484 176.953 70.1094 176.953 68.6016C176.953 67.3906 176.188 66.7031 174.602 66.3203L173.305 66.0078C172.312 65.7656 171.844 65.4062 171.844 64.8281C171.844 64.0781 172.625 63.5703 173.625 63.5703C174.641 63.5703 175.297 64.0156 175.477 64.6875H176.805C176.625 63.3047 175.398 62.4297 173.633 62.4297C171.844 62.4297 170.492 63.4844 170.492 64.8828Z" fill="#003440"/>
<path d="M46.8281 79.3984V81.5781H45.4688V82.7031H46.8281V87.8125C46.8281 89.4219 47.5234 90.0625 49.2578 90.0625C49.5234 90.0625 49.7812 90.0312 50.0469 89.9844V88.8516C49.7969 88.875 49.6641 88.8828 49.4219 88.8828C48.5469 88.8828 48.1719 88.4609 48.1719 87.4688V82.7031H50.0469V81.5781H48.1719V79.3984H46.8281Z" fill="#003440"/>
<path d="M52.1562 90H53.5V85.0156C53.5 83.5938 54.3281 82.6406 55.8359 82.6406C57.1094 82.6406 57.7812 83.3828 57.7812 84.875V90H59.125V84.5469C59.125 82.5703 58 81.4297 56.2188 81.4297C54.9297 81.4297 54.0469 81.9766 53.625 82.9062H53.5V78.2344H52.1562V90Z" fill="#003440"/>
<path d="M67.1562 87.8203C66.8047 88.5625 66.0703 88.9609 64.9844 88.9609C63.5547 88.9609 62.625 87.9062 62.5547 86.2422V86.1797H68.6094V85.6641C68.6094 83.0469 67.2266 81.4297 64.9531 81.4297C62.6406 81.4297 61.1562 83.1484 61.1562 85.7969C61.1562 88.4609 62.6172 90.1484 64.9531 90.1484C66.7969 90.1484 68.1094 89.2578 68.5 87.8203H67.1562ZM64.9375 82.6172C66.2734 82.6172 67.1641 83.6016 67.1953 85.0938H62.5547C62.6562 83.6016 63.5938 82.6172 64.9375 82.6172Z" fill="#003440"/>
<path d="M71.2812 93.0469C72.7734 93.0469 73.4453 92.4688 74.1641 90.5156L77.4531 81.5781H76.0234L73.7188 88.5078H73.5938L71.2812 81.5781H69.8281L72.9453 90.0078L72.7891 90.5078C72.4375 91.5234 72.0156 91.8906 71.2422 91.8906C71.0547 91.8906 70.8438 91.8828 70.6797 91.8516V93C70.8672 93.0312 71.1016 93.0469 71.2812 93.0469Z" fill="#003440"/>
<path d="M86.1094 90.1484C87.2344 90.1484 88.1562 89.6562 88.7031 88.7578H88.8281V90H90.1094V84.2344C90.1094 82.4844 88.9609 81.4297 86.9062 81.4297C85.1094 81.4297 83.7812 82.3203 83.6016 83.6719H84.9609C85.1484 83.0078 85.8516 82.625 86.8594 82.625C88.1172 82.625 88.7656 83.1953 88.7656 84.2344V85L86.3359 85.1484C84.375 85.2656 83.2656 86.1328 83.2656 87.6406C83.2656 89.1797 84.4766 90.1484 86.1094 90.1484ZM86.3594 88.9688C85.3828 88.9688 84.6562 88.4688 84.6562 87.6094C84.6562 86.7656 85.2188 86.3203 86.5 86.2344L88.7656 86.0859V86.8594C88.7656 88.0625 87.7422 88.9688 86.3594 88.9688Z" fill="#003440"/>
<path d="M92.5938 90H93.9375V84.7812C93.9375 83.5938 94.8672 82.7344 96.1484 82.7344C96.4141 82.7344 96.8984 82.7812 97.0078 82.8125V81.4688C96.8359 81.4453 96.5547 81.4297 96.3359 81.4297C95.2188 81.4297 94.25 82.0078 94 82.8281H93.875V81.5781H92.5938V90Z" fill="#003440"/>
<path d="M104.031 87.8203C103.68 88.5625 102.945 88.9609 101.859 88.9609C100.43 88.9609 99.5 87.9062 99.4297 86.2422V86.1797H105.484V85.6641C105.484 83.0469 104.102 81.4297 101.828 81.4297C99.5156 81.4297 98.0312 83.1484 98.0312 85.7969C98.0312 88.4609 99.4922 90.1484 101.828 90.1484C103.672 90.1484 104.984 89.2578 105.375 87.8203H104.031ZM101.812 82.6172C103.148 82.6172 104.039 83.6016 104.07 85.0938H99.4297C99.5312 83.6016 100.469 82.6172 101.812 82.6172Z" fill="#003440"/>
<path d="M115.227 90.1484C116.391 90.1484 117.391 89.5938 117.922 88.6562H118.047V90H119.328V78.2344H117.984V82.9062H117.867C117.391 81.9844 116.398 81.4297 115.227 81.4297C113.086 81.4297 111.688 83.1484 111.688 85.7891C111.688 88.4375 113.07 90.1484 115.227 90.1484ZM115.539 82.6406C117.062 82.6406 118.016 83.8594 118.016 85.7891C118.016 87.7344 117.07 88.9375 115.539 88.9375C114 88.9375 113.078 87.7578 113.078 85.7891C113.078 83.8281 114.008 82.6406 115.539 82.6406Z" fill="#003440"/>
<path d="M122.641 79.9531C123.156 79.9531 123.578 79.5312 123.578 79.0156C123.578 78.5 123.156 78.0781 122.641 78.0781C122.125 78.0781 121.703 78.5 121.703 79.0156C121.703 79.5312 122.125 79.9531 122.641 79.9531ZM121.969 90H123.312V81.5781H121.969V90Z" fill="#003440"/>
<path d="M125.68 83.8828C125.68 85.1016 126.398 85.7812 127.977 86.1641L129.422 86.5156C130.32 86.7344 130.758 87.125 130.758 87.7031C130.758 88.4766 129.945 89.0156 128.812 89.0156C127.734 89.0156 127.062 88.5625 126.836 87.8516H125.453C125.602 89.25 126.891 90.1484 128.766 90.1484C130.68 90.1484 132.141 89.1094 132.141 87.6016C132.141 86.3906 131.375 85.7031 129.789 85.3203L128.492 85.0078C127.5 84.7656 127.031 84.4062 127.031 83.8281C127.031 83.0781 127.812 82.5703 128.812 82.5703C129.828 82.5703 130.484 83.0156 130.664 83.6875H131.992C131.812 82.3047 130.586 81.4297 128.82 81.4297C127.031 81.4297 125.68 82.4844 125.68 83.8828Z" fill="#003440"/>
<path d="M141.219 84.1562C140.984 82.6562 139.734 81.4297 137.688 81.4297C135.328 81.4297 133.828 83.1328 133.828 85.7578C133.828 88.4375 135.336 90.1484 137.695 90.1484C139.719 90.1484 140.977 89.0078 141.219 87.4609H139.859C139.609 88.4141 138.82 88.9375 137.688 88.9375C136.188 88.9375 135.219 87.7031 135.219 85.7578C135.219 83.8516 136.172 82.6406 137.688 82.6406C138.898 82.6406 139.641 83.3203 139.859 84.1562H141.219Z" fill="#003440"/>
<path d="M146.664 90.1484C149.062 90.1484 150.547 88.4922 150.547 85.7891C150.547 83.0781 149.062 81.4297 146.664 81.4297C144.266 81.4297 142.781 83.0781 142.781 85.7891C142.781 88.4922 144.266 90.1484 146.664 90.1484ZM146.664 88.9375C145.07 88.9375 144.172 87.7812 144.172 85.7891C144.172 83.7891 145.07 82.6406 146.664 82.6406C148.258 82.6406 149.156 83.7891 149.156 85.7891C149.156 87.7812 148.258 88.9375 146.664 88.9375Z" fill="#003440"/>
<path d="M159.219 81.5781H157.781L155.477 88.5156H155.352L153.047 81.5781H151.609L154.727 90H156.102L159.219 81.5781Z" fill="#003440"/>
<path d="M166.281 87.8203C165.93 88.5625 165.195 88.9609 164.109 88.9609C162.68 88.9609 161.75 87.9062 161.68 86.2422V86.1797H167.734V85.6641C167.734 83.0469 166.352 81.4297 164.078 81.4297C161.766 81.4297 160.281 83.1484 160.281 85.7969C160.281 88.4609 161.742 90.1484 164.078 90.1484C165.922 90.1484 167.234 89.2578 167.625 87.8203H166.281ZM164.062 82.6172C165.398 82.6172 166.289 83.6016 166.32 85.0938H161.68C161.781 83.6016 162.719 82.6172 164.062 82.6172Z" fill="#003440"/>
<path d="M169.844 90H171.188V84.7812C171.188 83.5938 172.117 82.7344 173.398 82.7344C173.664 82.7344 174.148 82.7812 174.258 82.8125V81.4688C174.086 81.4453 173.805 81.4297 173.586 81.4297C172.469 81.4297 171.5 82.0078 171.25 82.8281H171.125V81.5781H169.844V90Z" fill="#003440"/>
<path d="M181.281 87.8203C180.93 88.5625 180.195 88.9609 179.109 88.9609C177.68 88.9609 176.75 87.9062 176.68 86.2422V86.1797H182.734V85.6641C182.734 83.0469 181.352 81.4297 179.078 81.4297C176.766 81.4297 175.281 83.1484 175.281 85.7969C175.281 88.4609 176.742 90.1484 179.078 90.1484C180.922 90.1484 182.234 89.2578 182.625 87.8203H181.281ZM179.062 82.6172C180.398 82.6172 181.289 83.6016 181.32 85.0938H176.68C176.781 83.6016 177.719 82.6172 179.062 82.6172Z" fill="#003440"/>
<path d="M187.961 90.1484C189.125 90.1484 190.125 89.5938 190.656 88.6562H190.781V90H192.062V78.2344H190.719V82.9062H190.602C190.125 81.9844 189.133 81.4297 187.961 81.4297C185.82 81.4297 184.422 83.1484 184.422 85.7891C184.422 88.4375 185.805 90.1484 187.961 90.1484ZM188.273 82.6406C189.797 82.6406 190.75 83.8594 190.75 85.7891C190.75 87.7344 189.805 88.9375 188.273 88.9375C186.734 88.9375 185.812 87.7578 185.812 85.7891C185.812 83.8281 186.742 82.6406 188.273 82.6406Z" fill="#003440"/>
</svg>
