<svg width="244" height="153" viewBox="0 0 244 153" fill="none" xmlns="http://www.w3.org/2000/svg">
<rect opacity="0.3" x="40" y="45" width="153" height="35" fill="#EE376A"/>
<path d="M48.1439 52.4718V40.7438C48.1439 40.0931 48.0212 39.5224 47.7759 39.0318C47.5412 38.5411 47.2052 38.1571 46.7679 37.8798C46.3412 37.5918 45.8292 37.4478 45.2319 37.4478C44.5279 37.4478 43.9359 37.6398 43.4559 38.0238C42.9759 38.4078 42.6452 38.9411 42.4639 39.6238C43.8505 39.7518 44.9385 40.2691 45.7279 41.1758C46.5172 42.0718 46.9119 43.2984 46.9119 44.8558C46.6665 44.9304 46.3945 44.9998 46.0959 45.0638C45.7972 45.1278 45.4879 45.1598 45.1679 45.1598C44.3039 45.1598 43.5519 44.9678 42.9119 44.5838C42.2719 44.1998 41.7705 43.6718 41.4079 42.9998C41.0559 42.3278 40.8799 41.5651 40.8799 40.7118C40.8799 39.8478 41.0612 39.0851 41.4239 38.4238C41.7865 37.7518 42.2932 37.2238 42.9439 36.8398C43.5945 36.4558 44.3519 36.2638 45.2159 36.2638C46.1119 36.2638 46.8799 36.4611 47.5199 36.8558C48.1705 37.2398 48.6719 37.7678 49.0239 38.4398C49.3759 39.1011 49.5519 39.8584 49.5519 40.7118V52.4718H48.1439ZM45.2159 43.9758C45.3545 43.9758 45.4879 43.9704 45.6159 43.9598C45.5412 42.9998 45.2052 42.2478 44.6079 41.7038C44.0212 41.1491 43.2639 40.8344 42.3359 40.7598C42.3359 41.7091 42.5865 42.4824 43.0879 43.0798C43.5999 43.6771 44.3092 43.9758 45.2159 43.9758Z" fill="#003440"/>
<path d="M41.8816 52.4718V51.3838H43.8816V45.7838H45.2896V52.4718H41.8816Z" fill="#003440"/>
<path d="M53.1953 45.1598C52.7153 45.1598 52.2993 45.1278 51.9473 45.0638C51.6059 44.9998 51.2859 44.8931 50.9873 44.7438L51.4993 43.6878C51.9046 43.8798 52.3953 43.9758 52.9713 43.9758C53.8566 43.9758 54.5499 43.6771 55.0513 43.0798C55.5526 42.4718 55.8033 41.6664 55.8033 40.6638C55.8033 40.0344 55.6753 39.4798 55.4193 38.9998C55.1633 38.5091 54.7953 38.1251 54.3153 37.8478C53.8459 37.5704 53.2913 37.4318 52.6513 37.4318C52.0326 37.4318 51.4246 37.5864 50.8273 37.8958C50.2193 38.1944 49.6273 38.6798 49.0513 39.3518L48.2193 38.4718C48.7953 37.7998 49.4353 37.2664 50.1393 36.8718C50.8433 36.4664 51.6753 36.2638 52.6353 36.2638C53.5313 36.2638 54.3259 36.4611 55.0193 36.8558C55.7233 37.2398 56.2726 37.7624 56.6673 38.4238C57.0726 39.0851 57.2753 39.8371 57.2753 40.6798C57.2753 41.5438 57.0939 42.3171 56.7313 42.9998C56.3686 43.6718 55.8779 44.1998 55.2593 44.5838C54.6513 44.9678 53.9633 45.1598 53.1953 45.1598Z" fill="#003440"/>
<path d="M63.3565 45.1598C62.4925 45.1598 61.7298 44.9624 61.0685 44.5678C60.4178 44.1624 59.9058 43.6238 59.5325 42.9518C59.1592 42.2798 58.9725 41.5278 58.9725 40.6958C58.9725 39.8638 59.1592 39.1118 59.5325 38.4398C59.9165 37.7678 60.4392 37.2398 61.1005 36.8558C61.7618 36.4611 62.5138 36.2638 63.3565 36.2638C64.3698 36.2638 65.2072 36.5038 65.8685 36.9838C66.5298 37.4638 66.9832 38.0931 67.2285 38.8718L66.1085 39.4478C65.8738 38.7864 65.5325 38.2904 65.0845 37.9598C64.6365 37.6184 64.0498 37.4478 63.3245 37.4478C62.7912 37.4478 62.3058 37.5811 61.8685 37.8478C61.4312 38.1144 61.0792 38.4931 60.8125 38.9838C60.5565 39.4638 60.4285 40.0291 60.4285 40.6798C60.4285 41.0638 60.4765 41.4318 60.5725 41.7838C60.9992 41.4531 61.4792 41.1918 62.0125 40.9998C62.5458 40.7971 63.0792 40.6958 63.6125 40.6958C64.3698 40.6958 65.0312 40.8078 65.5965 41.0318C66.1618 41.2451 66.7485 41.5971 67.3565 42.0878C67.1538 43.0264 66.7005 43.7731 65.9965 44.3278C65.3032 44.8824 64.4232 45.1598 63.3565 45.1598ZM63.6605 41.8638C63.1698 41.8638 62.7005 41.9544 62.2525 42.1358C61.8152 42.3171 61.4152 42.5518 61.0525 42.8398C61.2872 43.1811 61.5912 43.4584 61.9645 43.6718C62.3378 43.8744 62.7858 43.9758 63.3085 43.9758C63.9485 43.9758 64.4712 43.8584 64.8765 43.6238C65.2818 43.3784 65.6018 43.0158 65.8365 42.5358C65.5805 42.3544 65.2818 42.1998 64.9405 42.0718C64.6098 41.9331 64.1832 41.8638 63.6605 41.8638Z" fill="#003440"/>
<path d="M73.4231 45.1598C72.5485 45.1598 71.7698 44.9624 71.0871 44.5678C70.4151 44.1731 69.8818 43.6291 69.4871 42.9358C69.1031 42.2424 68.9111 41.4478 68.9111 40.5518C68.9111 39.6664 69.0978 38.8451 69.4711 38.0878C69.8445 37.3198 70.3458 36.7118 70.9751 36.2638L71.7911 37.2878C71.3325 37.6611 70.9805 38.1144 70.7351 38.6478C70.4898 39.1704 70.3671 39.7944 70.3671 40.5198C70.3671 41.2238 70.4951 41.8371 70.7511 42.3598C71.0071 42.8718 71.3645 43.2718 71.8231 43.5598C72.2925 43.8371 72.8258 43.9758 73.4231 43.9758C73.8391 43.9758 74.2338 43.9064 74.6071 43.7678C74.2551 43.3731 73.9565 42.8931 73.7111 42.3278C73.4658 41.7624 73.3431 41.1224 73.3431 40.4078C73.3431 39.4904 73.5298 38.6958 73.9031 38.0238C74.2871 37.3411 74.8525 36.7598 75.5991 36.2798C76.3671 36.7811 76.9485 37.4104 77.3431 38.1678C77.7485 38.9144 77.9511 39.7091 77.9511 40.5518C77.9511 41.4584 77.7538 42.2584 77.3591 42.9518C76.9645 43.6451 76.4258 44.1891 75.7431 44.5838C75.0711 44.9678 74.2978 45.1598 73.4231 45.1598ZM74.6231 40.4078C74.6231 40.9198 74.7085 41.4104 74.8791 41.8798C75.0498 42.3491 75.3058 42.7544 75.6471 43.0958C75.9565 42.7971 76.2018 42.4291 76.3831 41.9918C76.5645 41.5544 76.6551 41.0638 76.6551 40.5198C76.6551 39.9864 76.5591 39.5064 76.3671 39.0798C76.1751 38.6424 75.9245 38.2531 75.6151 37.9118C75.2525 38.2531 74.9965 38.6158 74.8471 38.9998C74.6978 39.3838 74.6231 39.8531 74.6231 40.4078Z" fill="#003440"/>
<path d="M73.33 51.7998C72.7433 51.7998 72.2367 51.6664 71.81 51.3998C71.3727 51.1438 71.0367 50.7864 70.802 50.3278C70.5567 49.8691 70.434 49.3571 70.434 48.7918C70.434 48.2158 70.5567 47.6984 70.802 47.2398C71.0367 46.7918 71.3727 46.4344 71.81 46.1678C72.2473 45.9118 72.7647 45.7838 73.362 45.7838C73.9807 45.7838 74.5087 45.9224 74.946 46.1998C75.3833 46.4771 75.7193 46.8451 75.954 47.3038C76.1887 47.7731 76.306 48.2904 76.306 48.8558C76.306 49.3784 76.1887 49.8638 75.954 50.3118C75.7087 50.7598 75.3673 51.1171 74.93 51.3838C74.482 51.6611 73.9487 51.7998 73.33 51.7998ZM73.378 50.7118C73.858 50.7118 74.2527 50.5358 74.562 50.1838C74.8713 49.8424 75.026 49.4051 75.026 48.8718C75.026 48.2958 74.882 47.8158 74.594 47.4318C74.2953 47.0584 73.89 46.8718 73.378 46.8718C72.8553 46.8718 72.4447 47.0531 72.146 47.4158C71.8473 47.7891 71.698 48.2638 71.698 48.8398C71.698 49.3731 71.8527 49.8158 72.162 50.1678C72.4607 50.5304 72.866 50.7118 73.378 50.7118Z" fill="#003440"/>
<path d="M84.044 45.1598C83.18 45.1598 82.4173 44.9624 81.756 44.5678C81.1053 44.1624 80.5933 43.6238 80.22 42.9518C79.8467 42.2798 79.66 41.5278 79.66 40.6958C79.66 39.8638 79.8467 39.1118 80.22 38.4398C80.604 37.7678 81.1267 37.2398 81.788 36.8558C82.4493 36.4611 83.2013 36.2638 84.044 36.2638C85.0573 36.2638 85.8947 36.5038 86.556 36.9838C87.2173 37.4638 87.6707 38.0931 87.916 38.8718L86.796 39.4478C86.5613 38.7864 86.22 38.2904 85.772 37.9598C85.324 37.6184 84.7373 37.4478 84.012 37.4478C83.4787 37.4478 82.9933 37.5811 82.556 37.8478C82.1187 38.1144 81.7667 38.4931 81.5 38.9838C81.244 39.4638 81.116 40.0291 81.116 40.6798C81.116 41.0638 81.164 41.4318 81.26 41.7838C81.6867 41.4531 82.1667 41.1918 82.7 40.9998C83.2333 40.7971 83.7667 40.6958 84.3 40.6958C85.0573 40.6958 85.7187 40.8078 86.284 41.0318C86.8493 41.2451 87.436 41.5971 88.044 42.0878C87.8413 43.0264 87.388 43.7731 86.684 44.3278C85.9907 44.8824 85.1107 45.1598 84.044 45.1598ZM84.348 41.8638C83.8573 41.8638 83.388 41.9544 82.94 42.1358C82.5027 42.3171 82.1027 42.5518 81.74 42.8398C81.9747 43.1811 82.2787 43.4584 82.652 43.6718C83.0253 43.8744 83.4733 43.9758 83.996 43.9758C84.636 43.9758 85.1587 43.8584 85.564 43.6238C85.9693 43.3784 86.2893 43.0158 86.524 42.5358C86.268 42.3544 85.9693 42.1998 85.628 42.0718C85.2973 41.9331 84.8707 41.8638 84.348 41.8638Z" fill="#003440"/>
<path d="M93.9026 45.1598C93.0493 45.1598 92.2973 44.9678 91.6466 44.5838C91.0066 44.1891 90.5053 43.6558 90.1426 42.9838C89.78 42.3118 89.5986 41.5544 89.5986 40.7118C89.5986 39.8691 89.78 39.1118 90.1426 38.4398C90.5053 37.7678 91.012 37.2398 91.6626 36.8558C92.324 36.4611 93.0866 36.2638 93.9506 36.2638C94.7933 36.2638 95.5293 36.4344 96.1586 36.7758C96.7986 37.1064 97.3053 37.5544 97.6786 38.1198C98.0946 37.5118 98.6226 37.0531 99.2626 36.7438C99.9133 36.4238 100.623 36.2638 101.391 36.2638C102.297 36.2638 103.081 36.4611 103.743 36.8558C104.404 37.2504 104.916 37.7838 105.279 38.4558C105.641 39.1171 105.823 39.8691 105.823 40.7118C105.823 41.6078 105.641 42.3918 105.279 43.0638C104.927 43.7251 104.441 44.2424 103.823 44.6158C103.204 44.9784 102.489 45.1598 101.679 45.1598C101.188 45.1598 100.767 45.1278 100.415 45.0638C100.063 44.9998 99.732 44.8931 99.4226 44.7438L99.9346 43.6878C100.351 43.8798 100.857 43.9758 101.455 43.9758C102.329 43.9758 103.033 43.6878 103.567 43.1118C104.1 42.5251 104.367 41.7358 104.367 40.7438C104.367 39.7518 104.1 38.9571 103.567 38.3598C103.044 37.7518 102.329 37.4478 101.423 37.4478C100.815 37.4478 100.233 37.6291 99.6786 37.9918C99.124 38.3438 98.66 38.8504 98.2866 39.5118C98.3826 39.9171 98.4306 40.3384 98.4306 40.7758C98.4306 41.6291 98.244 42.3864 97.8706 43.0478C97.4973 43.7091 96.9693 44.2264 96.2866 44.5998C95.6146 44.9731 94.82 45.1598 93.9026 45.1598ZM93.9506 43.9758C94.9 43.9758 95.636 43.6824 96.1586 43.0958C96.692 42.5091 96.9586 41.7464 96.9586 40.8078C96.9586 39.8051 96.6973 38.9944 96.1746 38.3758C95.6626 37.7571 94.9266 37.4478 93.9666 37.4478C93.4013 37.4478 92.8946 37.5864 92.4466 37.8638C92.0093 38.1304 91.668 38.5091 91.4226 38.9998C91.1773 39.4904 91.0546 40.0718 91.0546 40.7438C91.0546 41.3944 91.1826 41.9651 91.4386 42.4558C91.6946 42.9358 92.0413 43.3091 92.4786 43.5758C92.9266 43.8424 93.4173 43.9758 93.9506 43.9758Z" fill="#003440"/>
<path d="M101.58 51.7998C100.993 51.7998 100.487 51.6664 100.06 51.3998C99.6227 51.1438 99.2867 50.7864 99.052 50.3278C98.8067 49.8691 98.684 49.3571 98.684 48.7918C98.684 48.2158 98.8067 47.6984 99.052 47.2398C99.2867 46.7918 99.6227 46.4344 100.06 46.1678C100.497 45.9118 101.015 45.7838 101.612 45.7838C102.231 45.7838 102.759 45.9224 103.196 46.1998C103.633 46.4771 103.969 46.8451 104.204 47.3038C104.439 47.7731 104.556 48.2904 104.556 48.8558C104.556 49.3784 104.439 49.8638 104.204 50.3118C103.959 50.7598 103.617 51.1171 103.18 51.3838C102.732 51.6611 102.199 51.7998 101.58 51.7998ZM101.628 50.7118C102.108 50.7118 102.503 50.5358 102.812 50.1838C103.121 49.8424 103.276 49.4051 103.276 48.8718C103.276 48.2958 103.132 47.8158 102.844 47.4318C102.545 47.0584 102.14 46.8718 101.628 46.8718C101.105 46.8718 100.695 47.0531 100.396 47.4158C100.097 47.7891 99.948 48.2638 99.948 48.8398C99.948 49.3731 100.103 49.8158 100.412 50.1678C100.711 50.5304 101.116 50.7118 101.628 50.7118ZM107.084 50.1518C106.561 50.1518 106.14 50.0024 105.82 49.7038C105.5 49.4158 105.34 48.9998 105.34 48.4558C105.34 47.9224 105.5 47.5064 105.82 47.2078C106.14 46.9091 106.561 46.7598 107.084 46.7598C107.596 46.7598 108.017 46.9091 108.348 47.2078C108.689 47.5064 108.86 47.9171 108.86 48.4398C108.86 48.9838 108.689 49.4051 108.348 49.7038C108.017 50.0024 107.596 50.1518 107.084 50.1518ZM107.1 49.3038C107.345 49.3038 107.548 49.2291 107.708 49.0798C107.868 48.9304 107.948 48.7224 107.948 48.4558C107.948 48.1891 107.868 47.9811 107.708 47.8318C107.548 47.6824 107.345 47.6078 107.1 47.6078C106.855 47.6078 106.652 47.6824 106.492 47.8318C106.332 47.9811 106.252 48.1891 106.252 48.4558C106.252 49.0211 106.535 49.3038 107.1 49.3038Z" fill="#003440"/>
<path d="M114.847 52.4718V40.7438C114.847 40.0931 114.724 39.5224 114.479 39.0318C114.244 38.5411 113.908 38.1571 113.471 37.8798C113.044 37.5918 112.532 37.4478 111.935 37.4478C111.231 37.4478 110.639 37.6398 110.159 38.0238C109.679 38.4078 109.348 38.9411 109.167 39.6238C110.554 39.7518 111.642 40.2691 112.431 41.1758C113.22 42.0718 113.615 43.2984 113.615 44.8558C113.37 44.9304 113.098 44.9998 112.799 45.0638C112.5 45.1278 112.191 45.1598 111.871 45.1598C111.007 45.1598 110.255 44.9678 109.615 44.5838C108.975 44.1998 108.474 43.6718 108.111 42.9998C107.759 42.3278 107.583 41.5651 107.583 40.7118C107.583 39.8478 107.764 39.0851 108.127 38.4238C108.49 37.7518 108.996 37.2238 109.647 36.8398C110.298 36.4558 111.055 36.2638 111.919 36.2638C112.815 36.2638 113.583 36.4611 114.223 36.8558C114.874 37.2398 115.375 37.7678 115.727 38.4398C116.079 39.1011 116.255 39.8584 116.255 40.7118V52.4718H114.847ZM111.919 43.9758C112.058 43.9758 112.191 43.9704 112.319 43.9598C112.244 42.9998 111.908 42.2478 111.311 41.7038C110.724 41.1491 109.967 40.8344 109.039 40.7598C109.039 41.7091 109.29 42.4824 109.791 43.0798C110.303 43.6771 111.012 43.9758 111.919 43.9758Z" fill="#003440"/>
<path d="M108.585 52.4718V51.3838H110.585V45.7838H111.993V52.4718H108.585Z" fill="#003440"/>
<path d="M111.932 34.9838C111.356 34.9838 110.849 34.8504 110.412 34.5838C109.975 34.3171 109.639 33.9598 109.404 33.5118C109.159 33.0531 109.036 32.5411 109.036 31.9758C109.036 31.4211 109.159 30.9198 109.404 30.4718C109.639 30.0131 109.975 29.6504 110.412 29.3838C110.849 29.1064 111.367 28.9678 111.964 28.9678C112.572 28.9678 113.1 29.1064 113.548 29.3838C113.985 29.6611 114.321 30.0344 114.556 30.5038C114.791 30.9624 114.908 31.4744 114.908 32.0398C114.908 32.5944 114.785 33.0958 114.54 33.5438C114.295 33.9811 113.953 34.3331 113.516 34.5998C113.068 34.8558 112.54 34.9838 111.932 34.9838ZM111.98 33.9118C112.46 33.9118 112.855 33.7358 113.164 33.3838C113.473 33.0318 113.628 32.5944 113.628 32.0718C113.628 31.4958 113.484 31.0158 113.196 30.6318C112.897 30.2371 112.492 30.0398 111.98 30.0398C111.457 30.0398 111.052 30.2264 110.764 30.5998C110.465 30.9731 110.316 31.4424 110.316 32.0078C110.316 32.5518 110.465 33.0051 110.764 33.3678C111.063 33.7304 111.468 33.9118 111.98 33.9118Z" fill="#003440"/>
<path d="M122.442 45.1598C121.493 45.1598 120.65 44.9198 119.914 44.4398C119.178 43.9598 118.661 43.3304 118.362 42.5518L119.482 41.9758C119.77 42.6371 120.17 43.1384 120.682 43.4798C121.194 43.8104 121.786 43.9758 122.458 43.9758C123.088 43.9758 123.632 43.8318 124.09 43.5438C124.549 43.2451 124.901 42.8504 125.146 42.3598C125.402 41.8584 125.53 41.2984 125.53 40.6798C125.53 40.0291 125.402 39.4638 125.146 38.9838C124.89 38.5038 124.533 38.1304 124.074 37.8638C123.616 37.5864 123.077 37.4478 122.458 37.4478C121.786 37.4478 121.194 37.6184 120.682 37.9598C120.17 38.2904 119.77 38.7864 119.482 39.4478L118.362 38.8718C118.661 38.0824 119.178 37.4531 119.914 36.9838C120.65 36.5038 121.488 36.2638 122.426 36.2638C123.365 36.2638 124.17 36.4558 124.842 36.8398C125.525 37.2238 126.053 37.7464 126.426 38.4078C126.8 39.0584 126.986 39.7998 126.986 40.6318C126.986 41.0584 126.938 41.4691 126.842 41.8638C127.216 42.4611 127.664 42.9624 128.186 43.3678C128.709 43.7624 129.36 43.9598 130.138 43.9598C130.778 43.9598 131.333 43.8211 131.802 43.5438C132.272 43.2664 132.629 42.8824 132.874 42.3918C133.13 41.8904 133.258 41.3198 133.258 40.6798C133.258 39.6984 132.981 38.9144 132.426 38.3278C131.872 37.7411 131.13 37.4478 130.202 37.4478C129.573 37.4478 129.04 37.5438 128.602 37.7358L128.09 36.6798C128.4 36.5304 128.741 36.4238 129.114 36.3598C129.488 36.2958 129.925 36.2638 130.426 36.2638C131.258 36.2638 131.994 36.4504 132.634 36.8238C133.285 37.1864 133.792 37.6984 134.154 38.3598C134.528 39.0211 134.714 39.8051 134.714 40.7118C134.714 41.5864 134.517 42.3598 134.122 43.0318C133.728 43.6931 133.184 44.2158 132.49 44.5998C131.797 44.9731 130.997 45.1598 130.09 45.1598C129.28 45.1598 128.544 44.9998 127.882 44.6798C127.221 44.3598 126.672 43.8851 126.234 43.2558C125.872 43.8211 125.37 44.2798 124.73 44.6318C124.09 44.9838 123.328 45.1598 122.442 45.1598Z" fill="#003440"/>
<path d="M140.922 45.1598C140.474 45.1598 140.042 45.0904 139.626 44.9518C139.21 44.8131 138.826 44.6211 138.474 44.3758V49.3038C138.474 49.9438 138.618 50.4344 138.906 50.7758C139.194 51.1278 139.647 51.3038 140.266 51.3038H149.21C149.839 51.3038 150.292 51.1278 150.57 50.7758C150.858 50.4344 151.002 49.9438 151.002 49.3038V49.0478H152.426V49.0958C152.426 51.3464 151.332 52.4718 149.146 52.4718H140.33C138.143 52.4718 137.05 51.3304 137.05 49.0478V42.5518L138.17 41.9758C138.447 42.6371 138.836 43.1384 139.338 43.4798C139.85 43.8104 140.388 43.9758 140.954 43.9758C141.53 43.9758 142.031 43.8371 142.458 43.5598C142.884 43.2718 143.215 42.8771 143.45 42.3758C143.684 41.8744 143.802 41.3091 143.802 40.6798C143.802 39.7198 143.551 38.9411 143.05 38.3438C142.559 37.7464 141.86 37.4478 140.954 37.4478C140.388 37.4478 139.85 37.6184 139.338 37.9598C138.836 38.2904 138.447 38.7864 138.17 39.4478L137.05 38.8718C137.242 38.3491 137.53 37.8958 137.914 37.5118C138.308 37.1171 138.767 36.8131 139.29 36.5998C139.812 36.3758 140.356 36.2638 140.922 36.2638C141.828 36.2638 142.602 36.4611 143.242 36.8558C143.892 37.2398 144.388 37.7678 144.73 38.4398C145.082 39.1011 145.258 39.8531 145.258 40.6958C145.258 41.1224 145.215 41.5278 145.13 41.9118C145.46 42.5944 145.866 43.1118 146.346 43.4638C146.826 43.8051 147.423 43.9758 148.138 43.9758C149.023 43.9758 149.722 43.6718 150.234 43.0638C150.746 42.4558 151.002 41.6611 151.002 40.6798C151.002 39.6878 150.74 38.9038 150.218 38.3278C149.706 37.7411 149.023 37.4478 148.17 37.4478C147.594 37.4478 147.103 37.5438 146.698 37.7358L146.186 36.6798C146.484 36.5304 146.804 36.4238 147.146 36.3598C147.498 36.2958 147.914 36.2638 148.394 36.2638C149.183 36.2638 149.882 36.4451 150.49 36.8078C151.108 37.1704 151.588 37.6878 151.93 38.3598C152.282 39.0211 152.458 39.8051 152.458 40.7118C152.458 41.5651 152.276 42.3278 151.914 42.9998C151.551 43.6718 151.044 44.1998 150.394 44.5838C149.754 44.9678 148.996 45.1598 148.122 45.1598C147.396 45.1598 146.724 45.0104 146.106 44.7118C145.487 44.4024 144.975 43.9438 144.57 43.3358C144.207 43.9011 143.716 44.3491 143.098 44.6798C142.49 44.9998 141.764 45.1598 140.922 45.1598Z" fill="#003440"/>
<path d="M147.283 34.9838C146.739 34.6851 146.296 34.2744 145.955 33.7518C145.613 33.2184 145.443 32.5998 145.443 31.8958C145.443 31.2878 145.571 30.7651 145.827 30.3278C146.083 29.8904 146.429 29.5544 146.867 29.3198C147.304 29.0851 147.8 28.9678 148.355 28.9678C148.899 28.9678 149.389 29.0798 149.827 29.3038C150.253 29.5278 150.589 29.8478 150.835 30.2638L149.923 30.9678C149.752 30.6798 149.533 30.4558 149.267 30.2958C149 30.1251 148.701 30.0398 148.371 30.0398C147.848 30.0398 147.443 30.2211 147.155 30.5838C146.867 30.9464 146.723 31.3838 146.723 31.8958C146.723 32.4504 146.856 32.9144 147.123 33.2878C147.379 33.6504 147.667 33.9384 147.987 34.1518L147.283 34.9838Z" fill="#003440"/>
<path d="M157.952 45.1598C156.885 45.1598 156.053 45.0531 155.456 44.8398C154.869 44.6264 154.458 44.3491 154.224 44.0078C154 43.6558 153.888 43.2824 153.888 42.8878C153.888 42.5144 154 42.1944 154.224 41.9278C154.448 41.6504 154.746 41.4371 155.12 41.2878C155.504 41.1278 155.925 41.0478 156.384 41.0478C156.917 41.0478 157.477 41.1651 158.064 41.3998C158.661 41.6344 159.232 41.9331 159.776 42.2958C160.32 42.6584 160.789 43.0318 161.184 43.4158C161.365 43.2024 161.456 42.9251 161.456 42.5838C161.456 42.1571 161.194 41.8051 160.672 41.5278C160.149 41.2504 159.376 40.9464 158.352 40.6158C157.562 40.3598 156.976 40.0611 156.592 39.7198C156.208 39.3784 156.016 38.9464 156.016 38.4238C156.016 38.0078 156.144 37.6398 156.4 37.3198C156.656 36.9891 157.008 36.7331 157.456 36.5518C157.904 36.3598 158.41 36.2638 158.976 36.2638C159.541 36.2638 160.016 36.3171 160.4 36.4238C160.784 36.5304 161.12 36.6744 161.408 36.8558C161.696 37.0371 161.968 37.2398 162.224 37.4638L161.36 38.3598C160.986 38.0504 160.613 37.8158 160.24 37.6558C159.877 37.4851 159.488 37.3998 159.072 37.3998C158.538 37.3998 158.117 37.4904 157.808 37.6718C157.509 37.8424 157.36 38.0718 157.36 38.3598C157.36 38.6584 157.509 38.9038 157.808 39.0958C158.117 39.2771 158.586 39.4584 159.216 39.6398C160.122 39.8958 160.842 40.1518 161.376 40.4078C161.909 40.6638 162.293 40.9571 162.528 41.2878C162.762 41.6184 162.88 42.0398 162.88 42.5518C162.88 43.2878 162.64 43.8691 162.16 44.2958L162.592 44.7118L161.456 45.2558L161.024 44.9038C160.448 45.0744 159.749 45.1598 158.928 45.1598H157.952ZM157.632 43.9918H159.088C159.386 43.9918 159.653 43.9758 159.888 43.9438C159.632 43.7304 159.301 43.4904 158.896 43.2238C158.49 42.9571 158.053 42.7278 157.584 42.5358C157.125 42.3331 156.688 42.2318 156.272 42.2318C155.93 42.2318 155.653 42.2904 155.44 42.4078C155.237 42.5251 155.136 42.7064 155.136 42.9518C155.136 43.2504 155.322 43.5011 155.696 43.7038C156.08 43.8958 156.725 43.9918 157.632 43.9918Z" fill="#003440"/>
<path d="M155.694 52.4718V51.3838H157.694V45.7838H159.102V52.4718H155.694Z" fill="#003440"/>
<path d="M168.878 45.1598C167.918 45.1598 167.096 44.9678 166.414 44.5838C165.731 44.1998 165.208 43.6718 164.846 42.9998C164.483 42.3171 164.302 41.5491 164.302 40.6958C164.302 39.8531 164.488 39.1011 164.862 38.4398C165.246 37.7678 165.779 37.2398 166.462 36.8558C167.144 36.4611 167.95 36.2638 168.878 36.2638C169.518 36.2638 170.11 36.3758 170.654 36.5998C171.198 36.8131 171.667 37.1171 172.062 37.5118C172.467 37.8958 172.76 38.3491 172.942 38.8718L171.822 39.4478C171.544 38.7864 171.144 38.2904 170.622 37.9598C170.099 37.6184 169.507 37.4478 168.846 37.4478C168.216 37.4478 167.667 37.5864 167.198 37.8638C166.739 38.1304 166.382 38.5091 166.126 38.9998C165.88 39.4798 165.758 40.0398 165.758 40.6798C165.758 41.3091 165.891 41.8744 166.158 42.3758C166.424 42.8771 166.787 43.2718 167.246 43.5598C167.715 43.8371 168.248 43.9758 168.846 43.9758C169.507 43.9758 170.099 43.8104 170.622 43.4798C171.144 43.1384 171.544 42.6371 171.822 41.9758L172.942 42.5518C172.76 43.0638 172.467 43.5171 172.062 43.9118C171.667 44.3064 171.198 44.6158 170.654 44.8398C170.11 45.0531 169.518 45.1598 168.878 45.1598Z" fill="#003440"/>
<path d="M168.8 50.1518C168.278 50.1518 167.856 50.0024 167.536 49.7038C167.216 49.4158 167.056 48.9998 167.056 48.4558C167.056 47.9224 167.216 47.5064 167.536 47.2078C167.856 46.9091 168.278 46.7598 168.8 46.7598C169.312 46.7598 169.739 46.9091 170.08 47.2078C170.411 47.5064 170.576 47.9171 170.576 48.4398C170.576 48.9838 170.411 49.4051 170.08 49.7038C169.739 50.0024 169.312 50.1518 168.8 50.1518ZM168.816 49.3038C169.062 49.3038 169.264 49.2291 169.424 49.0798C169.584 48.9304 169.664 48.7224 169.664 48.4558C169.664 48.1891 169.584 47.9811 169.424 47.8318C169.264 47.6824 169.062 47.6078 168.816 47.6078C168.571 47.6078 168.368 47.6824 168.208 47.8318C168.048 47.9811 167.968 48.1891 167.968 48.4558C167.968 49.0211 168.251 49.3038 168.816 49.3038Z" fill="#003440"/>
<path d="M167.767 34.9838C167.223 34.6851 166.78 34.2744 166.439 33.7518C166.098 33.2184 165.927 32.5998 165.927 31.8958C165.927 31.2878 166.055 30.7651 166.311 30.3278C166.567 29.8904 166.914 29.5544 167.351 29.3198C167.788 29.0851 168.284 28.9678 168.839 28.9678C169.383 28.9678 169.874 29.0798 170.311 29.3038C170.738 29.5278 171.074 29.8478 171.319 30.2638L170.407 30.9678C170.236 30.6798 170.018 30.4558 169.751 30.2958C169.484 30.1251 169.186 30.0398 168.855 30.0398C168.332 30.0398 167.927 30.2211 167.639 30.5838C167.351 30.9464 167.207 31.3838 167.207 31.8958C167.207 32.4504 167.34 32.9144 167.607 33.2878C167.863 33.6504 168.151 33.9384 168.471 34.1518L167.767 34.9838Z" fill="#003440"/>
<path d="M44.7359 87.4558C42.5492 87.4558 41.4559 86.3144 41.4559 84.0318V67.3758C41.4559 65.0931 42.5492 63.9518 44.7359 63.9518H49.8879C52.0852 63.9518 53.1839 65.0931 53.1839 67.3758V67.8398H51.7599V67.1038C51.7599 66.4744 51.6105 65.9838 51.3119 65.6318C51.0239 65.2798 50.5759 65.1038 49.9679 65.1038H44.6719C44.0532 65.1038 43.5999 65.2798 43.3119 65.6318C43.0345 65.9838 42.8959 66.4744 42.8959 67.1038V84.2878C42.8959 84.9278 43.0345 85.4238 43.3119 85.7758C43.5999 86.1278 44.0532 86.3038 44.6719 86.3038H49.9679C50.5759 86.3038 51.0239 86.1278 51.3119 85.7758C51.6105 85.4238 51.7599 84.9278 51.7599 84.2878V77.5518H53.1839V84.0318C53.1839 86.3144 52.0852 87.4558 49.8879 87.4558H44.7359Z" fill="#003440"/>
<path d="M48.8721 80.1598C48.0081 80.1598 47.2455 79.9624 46.5841 79.5678C45.9335 79.1624 45.4215 78.6238 45.0481 77.9518C44.6748 77.2798 44.4881 76.5278 44.4881 75.6958C44.4881 74.8638 44.6748 74.1118 45.0481 73.4398C45.4321 72.7678 45.9548 72.2398 46.6161 71.8558C47.2775 71.4611 48.0295 71.2638 48.8721 71.2638C49.8855 71.2638 50.7228 71.5038 51.3841 71.9838C52.0455 72.4638 52.4988 73.0931 52.7441 73.8718L51.6241 74.4478C51.3895 73.7864 51.0481 73.2904 50.6001 72.9598C50.1521 72.6184 49.5655 72.4478 48.8401 72.4478C48.3068 72.4478 47.8215 72.5811 47.3841 72.8478C46.9468 73.1144 46.5948 73.4931 46.3281 73.9838C46.0721 74.4638 45.9441 75.0291 45.9441 75.6798C45.9441 76.0638 45.9921 76.4318 46.0881 76.7838C46.5148 76.4531 46.9948 76.1918 47.5281 75.9998C48.0615 75.7971 48.5948 75.6958 49.1281 75.6958C49.8855 75.6958 50.5468 75.8078 51.1121 76.0318C51.6775 76.2451 52.2641 76.5971 52.8721 77.0878C52.6695 78.0264 52.2161 78.7731 51.5121 79.3278C50.8188 79.8824 49.9388 80.1598 48.8721 80.1598ZM49.1761 76.8638C48.6855 76.8638 48.2161 76.9544 47.7681 77.1358C47.3308 77.3171 46.9308 77.5518 46.5681 77.8398C46.8028 78.1811 47.1068 78.4584 47.4801 78.6718C47.8535 78.8744 48.3015 78.9758 48.8241 78.9758C49.4641 78.9758 49.9868 78.8584 50.3921 78.6238C50.7975 78.3784 51.1175 78.0158 51.3521 77.5358C51.0961 77.3544 50.7975 77.1998 50.4561 77.0718C50.1255 76.9331 49.6988 76.8638 49.1761 76.8638Z" fill="#003440"/>
<path d="M58.3468 80.1598C57.3121 80.1598 56.4534 79.9518 55.7708 79.5358C55.0881 79.1091 54.6081 78.5171 54.3308 77.7598L55.4508 77.1838C55.6961 77.8238 56.0748 78.2878 56.5868 78.5758C57.1094 78.8638 57.6961 79.0078 58.3468 79.0078C59.2961 79.0078 59.9841 78.8744 60.4108 78.6078C60.8374 78.3304 61.0508 77.9571 61.0508 77.4878C61.0508 77.1251 60.8908 76.8051 60.5708 76.5278C60.2614 76.2504 59.7761 76.1118 59.1148 76.1118H58.9228V74.9598H59.0028C59.4828 74.9598 59.9041 74.8424 60.2668 74.6078C60.6294 74.3731 60.8108 74.0531 60.8108 73.6478C60.8108 73.3064 60.6934 73.0504 60.4588 72.8798C60.2348 72.6984 59.9468 72.5758 59.5948 72.5118C59.2428 72.4478 58.8694 72.4158 58.4748 72.4158C58.0908 72.4158 57.7228 72.4584 57.3708 72.5438C57.0188 72.6184 56.7308 72.7358 56.5068 72.8958C56.2828 73.0558 56.1708 73.2691 56.1708 73.5358C56.1708 73.7384 56.2401 73.9091 56.3788 74.0478L55.2748 74.6558C55.1574 74.4851 55.0561 74.3091 54.9708 74.1278C54.8854 73.9464 54.8428 73.7331 54.8428 73.4878C54.8428 72.8264 55.1681 72.2931 55.8188 71.8878C56.4801 71.4718 57.3654 71.2638 58.4748 71.2638C59.2961 71.2638 59.9788 71.3598 60.5228 71.5518C61.0774 71.7331 61.4881 71.9891 61.7548 72.3198C62.1174 72.0104 62.5761 71.7598 63.1308 71.5678C63.6854 71.3651 64.3414 71.2638 65.0988 71.2638C66.0161 71.2638 66.8214 71.4558 67.5148 71.8398C68.2188 72.2238 68.7681 72.7518 69.1628 73.4238C69.5574 74.0958 69.7548 74.8584 69.7548 75.7118C69.7548 76.5544 69.5788 77.3118 69.2268 77.9838C68.8748 78.6558 68.3788 79.1891 67.7388 79.5838C67.0988 79.9678 66.3414 80.1598 65.4668 80.1598C65.1468 80.1598 64.8374 80.1278 64.5388 80.0638C64.2401 79.9998 63.9681 79.9304 63.7228 79.8558C63.7228 78.3198 64.1121 77.0984 64.8908 76.1918C65.6801 75.2744 66.7628 74.7518 68.1388 74.6238C67.9468 73.9304 67.5788 73.3971 67.0348 73.0238C66.5014 72.6504 65.8348 72.4638 65.0348 72.4638C64.4268 72.4638 63.8881 72.5598 63.4188 72.7518C62.9494 72.9331 62.5281 73.2051 62.1548 73.5678C62.1441 74.0584 62.0054 74.4478 61.7388 74.7358C61.4828 75.0131 61.0881 75.2371 60.5548 75.4078V75.4878C61.2481 75.6904 61.7388 75.9731 62.0268 76.3358C62.3148 76.6984 62.4588 77.1411 62.4588 77.6638C62.4588 78.4638 62.1068 79.0824 61.4028 79.5198C60.6988 79.9464 59.6801 80.1598 58.3468 80.1598ZM65.3228 78.9758C66.3041 78.9758 67.0401 78.6771 67.5308 78.0798C68.0321 77.4824 68.2828 76.7091 68.2828 75.7598C67.3334 75.8558 66.5708 76.1758 65.9948 76.7198C65.4188 77.2638 65.1041 78.0158 65.0508 78.9758C65.0934 78.9758 65.1361 78.9758 65.1788 78.9758C65.2321 78.9758 65.2801 78.9758 65.3228 78.9758Z" fill="#003440"/>
<path d="M76.0485 80.1598C75.1738 80.1598 74.3952 79.9624 73.7125 79.5678C73.0298 79.1731 72.4912 78.6291 72.0965 77.9358C71.7125 77.2424 71.5205 76.4478 71.5205 75.5518C71.5205 74.6664 71.7072 73.8451 72.0805 73.0878C72.4538 72.3198 72.9552 71.7118 73.5845 71.2638L74.4005 72.2878C73.9418 72.6611 73.5898 73.1144 73.3445 73.6478C73.0992 74.1704 72.9765 74.7944 72.9765 75.5198C72.9765 75.9038 73.0192 76.2664 73.1045 76.6078C73.4778 76.2664 73.9045 75.9998 74.3845 75.8078C74.8645 75.6158 75.4138 75.5198 76.0325 75.5198C76.6405 75.5198 77.1845 75.6158 77.6645 75.8078C78.1552 75.9998 78.5925 76.2718 78.9765 76.6238C79.0618 76.2824 79.1045 75.9144 79.1045 75.5198C79.1045 74.7944 78.9712 74.1704 78.7045 73.6478C78.4485 73.1144 78.0698 72.6611 77.5685 72.2878L78.3685 71.2638C78.8165 71.5518 79.2058 71.9251 79.5365 72.3838C79.8672 72.8318 80.1232 73.3278 80.3045 73.8718C80.4858 74.4158 80.5765 74.9758 80.5765 75.5518C80.5765 76.4584 80.3792 77.2584 79.9845 77.9518C79.5898 78.6451 79.0512 79.1891 78.3685 79.5838C77.6858 79.9678 76.9125 80.1598 76.0485 80.1598ZM76.0325 76.6558C75.0832 76.6558 74.2565 77.0024 73.5525 77.6958C73.8192 78.1011 74.1658 78.4158 74.5925 78.6398C75.0192 78.8638 75.5045 78.9758 76.0485 78.9758C76.5925 78.9758 77.0725 78.8638 77.4885 78.6398C77.9152 78.4158 78.2618 78.1011 78.5285 77.6958C78.2085 77.3544 77.8352 77.0984 77.4085 76.9278C76.9818 76.7464 76.5232 76.6558 76.0325 76.6558Z" fill="#003440"/>
<path d="M84.269 87.4718L78.653 85.4718V82.8638L76.221 86.5438L73.085 84.6718L73.629 83.7278L75.741 84.9758L78.653 80.6398H80.013V84.7838L82.909 85.8398V71.4238H84.269V87.4718Z" fill="#003440"/>
<path d="M94.5186 80.1598C93.484 80.1598 92.6253 79.9518 91.9426 79.5358C91.26 79.1091 90.78 78.5171 90.5026 77.7598L91.6226 77.1838C91.868 77.8238 92.2466 78.2878 92.7586 78.5758C93.2813 78.8638 93.868 79.0078 94.5186 79.0078C95.468 79.0078 96.156 78.8744 96.5826 78.6078C97.0093 78.3304 97.2226 77.9571 97.2226 77.4878C97.2226 77.1251 97.0626 76.8051 96.7426 76.5278C96.4333 76.2504 95.948 76.1118 95.2866 76.1118H95.0946V74.9598H95.1746C95.6546 74.9598 96.076 74.8424 96.4386 74.6078C96.8013 74.3731 96.9826 74.0531 96.9826 73.6478C96.9826 73.3064 96.8653 73.0504 96.6306 72.8798C96.4066 72.6984 96.1186 72.5758 95.7666 72.5118C95.4146 72.4478 95.0413 72.4158 94.6466 72.4158C94.2626 72.4158 93.8946 72.4584 93.5426 72.5438C93.1906 72.6184 92.9026 72.7358 92.6786 72.8958C92.4546 73.0558 92.3426 73.2691 92.3426 73.5358C92.3426 73.7384 92.412 73.9091 92.5506 74.0478L91.4466 74.6558C91.3293 74.4851 91.228 74.3091 91.1426 74.1278C91.0573 73.9464 91.0146 73.7331 91.0146 73.4878C91.0146 72.8264 91.34 72.2931 91.9906 71.8878C92.652 71.4718 93.5373 71.2638 94.6466 71.2638C95.468 71.2638 96.1506 71.3598 96.6946 71.5518C97.2493 71.7331 97.66 71.9891 97.9266 72.3198C98.2893 72.0104 98.748 71.7598 99.3026 71.5678C99.8573 71.3651 100.513 71.2638 101.271 71.2638C102.188 71.2638 102.993 71.4558 103.687 71.8398C104.391 72.2238 104.94 72.7518 105.335 73.4238C105.729 74.0958 105.927 74.8584 105.927 75.7118C105.927 76.5544 105.751 77.3118 105.399 77.9838C105.047 78.6558 104.551 79.1891 103.911 79.5838C103.271 79.9678 102.513 80.1598 101.639 80.1598C101.319 80.1598 101.009 80.1278 100.711 80.0638C100.412 79.9998 100.14 79.9304 99.8946 79.8558C99.8946 78.3198 100.284 77.0984 101.063 76.1918C101.852 75.2744 102.935 74.7518 104.311 74.6238C104.119 73.9304 103.751 73.3971 103.207 73.0238C102.673 72.6504 102.007 72.4638 101.207 72.4638C100.599 72.4638 100.06 72.5598 99.5906 72.7518C99.1213 72.9331 98.7 73.2051 98.3266 73.5678C98.316 74.0584 98.1773 74.4478 97.9106 74.7358C97.6546 75.0131 97.26 75.2371 96.7266 75.4078V75.4878C97.42 75.6904 97.9106 75.9731 98.1986 76.3358C98.4866 76.6984 98.6306 77.1411 98.6306 77.6638C98.6306 78.4638 98.2786 79.0824 97.5746 79.5198C96.8706 79.9464 95.852 80.1598 94.5186 80.1598ZM101.495 78.9758C102.476 78.9758 103.212 78.6771 103.703 78.0798C104.204 77.4824 104.455 76.7091 104.455 75.7598C103.505 75.8558 102.743 76.1758 102.167 76.7198C101.591 77.2638 101.276 78.0158 101.223 78.9758C101.265 78.9758 101.308 78.9758 101.351 78.9758C101.404 78.9758 101.452 78.9758 101.495 78.9758Z" fill="#003440"/>
<path d="M114.956 87.4718V75.7438C114.956 75.0931 114.834 74.5224 114.588 74.0318C114.354 73.5411 114.018 73.1571 113.58 72.8798C113.154 72.5918 112.642 72.4478 112.044 72.4478C111.34 72.4478 110.748 72.6398 110.268 73.0238C109.788 73.4078 109.458 73.9411 109.276 74.6238C110.663 74.7518 111.751 75.2691 112.54 76.1758C113.33 77.0718 113.724 78.2984 113.724 79.8558C113.479 79.9304 113.207 79.9998 112.908 80.0638C112.61 80.1278 112.3 80.1598 111.98 80.1598C111.116 80.1598 110.364 79.9678 109.724 79.5838C109.084 79.1998 108.583 78.6718 108.22 77.9998C107.868 77.3278 107.692 76.5651 107.692 75.7118C107.692 74.8478 107.874 74.0851 108.236 73.4238C108.599 72.7518 109.106 72.2238 109.756 71.8398C110.407 71.4558 111.164 71.2638 112.028 71.2638C112.924 71.2638 113.692 71.4611 114.332 71.8558C114.983 72.2398 115.484 72.7678 115.836 73.4398C116.188 74.1011 116.364 74.8584 116.364 75.7118V86.3838H118.364V87.4718H114.956ZM112.028 78.9758C112.156 78.9758 112.284 78.9704 112.412 78.9598C112.316 77.9891 111.98 77.2318 111.404 76.6878C110.828 76.1438 110.076 75.8344 109.148 75.7598C109.148 76.7091 109.399 77.4824 109.9 78.0798C110.412 78.6771 111.122 78.9758 112.028 78.9758Z" fill="#003440"/>
<path d="M120.18 80.1598C119.7 80.1598 119.284 80.1278 118.932 80.0638C118.59 79.9998 118.27 79.8931 117.972 79.7438L118.484 78.6878C118.889 78.8798 119.38 78.9758 119.956 78.9758C120.841 78.9758 121.534 78.6771 122.036 78.0798C122.537 77.4718 122.788 76.6664 122.788 75.6638C122.788 75.0344 122.66 74.4798 122.404 73.9998C122.148 73.5091 121.78 73.1251 121.3 72.8478C120.83 72.5704 120.276 72.4318 119.636 72.4318C119.017 72.4318 118.409 72.5864 117.812 72.8958C117.204 73.1944 116.612 73.6798 116.036 74.3518L115.204 73.4718C115.78 72.7998 116.42 72.2664 117.124 71.8718C117.828 71.4664 118.66 71.2638 119.62 71.2638C120.516 71.2638 121.31 71.4611 122.004 71.8558C122.708 72.2398 123.257 72.7624 123.652 73.4238C124.057 74.0851 124.26 74.8371 124.26 75.6798C124.26 76.5438 124.078 77.3171 123.716 77.9998C123.353 78.6718 122.862 79.1998 122.244 79.5838C121.636 79.9678 120.948 80.1598 120.18 80.1598Z" fill="#003440"/>
<path d="M130.533 80.1598C129.658 80.1598 128.88 79.9624 128.197 79.5678C127.514 79.1731 126.976 78.6291 126.581 77.9358C126.197 77.2424 126.005 76.4478 126.005 75.5518C126.005 74.6664 126.192 73.8451 126.565 73.0878C126.938 72.3198 127.44 71.7118 128.069 71.2638L128.885 72.2878C128.426 72.6611 128.074 73.1144 127.829 73.6478C127.584 74.1704 127.461 74.7944 127.461 75.5198C127.461 75.9038 127.504 76.2664 127.589 76.6078C127.962 76.2664 128.389 75.9998 128.869 75.8078C129.349 75.6158 129.898 75.5198 130.517 75.5198C131.125 75.5198 131.669 75.6158 132.149 75.8078C132.64 75.9998 133.077 76.2718 133.461 76.6238C133.546 76.2824 133.589 75.9144 133.589 75.5198C133.589 74.7944 133.456 74.1704 133.189 73.6478C132.933 73.1144 132.554 72.6611 132.053 72.2878L132.853 71.2638C133.301 71.5518 133.69 71.9251 134.021 72.3838C134.352 72.8318 134.608 73.3278 134.789 73.8718C134.97 74.4158 135.061 74.9758 135.061 75.5518C135.061 76.4584 134.864 77.2584 134.469 77.9518C134.074 78.6451 133.536 79.1891 132.853 79.5838C132.17 79.9678 131.397 80.1598 130.533 80.1598ZM130.517 76.6558C129.568 76.6558 128.741 77.0024 128.037 77.6958C128.304 78.1011 128.65 78.4158 129.077 78.6398C129.504 78.8638 129.989 78.9758 130.533 78.9758C131.077 78.9758 131.557 78.8638 131.973 78.6398C132.4 78.4158 132.746 78.1011 133.013 77.6958C132.693 77.3544 132.32 77.0984 131.893 76.9278C131.466 76.7464 131.008 76.6558 130.517 76.6558Z" fill="#003440"/>
<path d="M138.753 87.4718L133.297 85.5358V77.5518H134.657V84.8478L137.393 85.8398V71.4238H138.753V87.4718Z" fill="#003440"/>
<path d="M142.383 80.1598C141.903 80.1598 141.487 80.1278 141.135 80.0638C140.793 79.9998 140.473 79.8931 140.175 79.7438L140.687 78.6878C141.092 78.8798 141.583 78.9758 142.159 78.9758C143.044 78.9758 143.737 78.6771 144.239 78.0798C144.74 77.4718 144.991 76.6664 144.991 75.6638C144.991 75.0344 144.863 74.4798 144.607 73.9998C144.351 73.5091 143.983 73.1251 143.503 72.8478C143.033 72.5704 142.479 72.4318 141.839 72.4318C141.22 72.4318 140.612 72.5864 140.015 72.8958C139.407 73.1944 138.815 73.6798 138.239 74.3518L137.407 73.4718C137.983 72.7998 138.623 72.2664 139.327 71.8718C140.031 71.4664 140.863 71.2638 141.823 71.2638C142.719 71.2638 143.513 71.4611 144.207 71.8558C144.911 72.2398 145.46 72.7624 145.855 73.4238C146.26 74.0851 146.463 74.8371 146.463 75.6798C146.463 76.5438 146.281 77.3171 145.919 77.9998C145.556 78.6718 145.065 79.1998 144.447 79.5838C143.839 79.9678 143.151 80.1598 142.383 80.1598Z" fill="#003440"/>
<path d="M150.08 74.8158C149.557 74.8158 149.136 74.6718 148.816 74.3838C148.496 74.0851 148.336 73.6638 148.336 73.1198C148.336 72.5864 148.496 72.1704 148.816 71.8718C149.136 71.5731 149.557 71.4238 150.08 71.4238C150.592 71.4238 151.013 71.5731 151.344 71.8718C151.685 72.1704 151.856 72.5811 151.856 73.1038C151.856 73.6478 151.685 74.0691 151.344 74.3678C151.013 74.6664 150.592 74.8158 150.08 74.8158ZM150.096 73.9678C150.341 73.9678 150.544 73.8931 150.704 73.7438C150.864 73.5944 150.944 73.3864 150.944 73.1198C150.944 72.8531 150.864 72.6451 150.704 72.4958C150.544 72.3464 150.341 72.2718 150.096 72.2718C149.851 72.2718 149.648 72.3464 149.488 72.4958C149.328 72.6451 149.248 72.8531 149.248 73.1198C149.248 73.6851 149.531 73.9678 150.096 73.9678ZM150.08 80.1758C149.557 80.1758 149.136 80.0318 148.816 79.7438C148.496 79.4451 148.336 79.0238 148.336 78.4798C148.336 77.9464 148.496 77.5304 148.816 77.2318C149.136 76.9331 149.557 76.7838 150.08 76.7838C150.592 76.7838 151.013 76.9331 151.344 77.2318C151.685 77.5304 151.856 77.9411 151.856 78.4638C151.856 79.0078 151.685 79.4291 151.344 79.7278C151.013 80.0264 150.592 80.1758 150.08 80.1758ZM150.096 79.3278C150.341 79.3278 150.544 79.2531 150.704 79.1038C150.864 78.9544 150.944 78.7464 150.944 78.4798C150.944 78.2131 150.864 78.0051 150.704 77.8558C150.544 77.7064 150.341 77.6318 150.096 77.6318C149.851 77.6318 149.648 77.7064 149.488 77.8558C149.328 78.0051 149.248 78.2131 149.248 78.4798C149.248 78.7464 149.317 78.9544 149.456 79.1038C149.605 79.2531 149.819 79.3278 150.096 79.3278Z" fill="#003440"/>
<path d="M157.739 80.1598C156.79 80.1598 155.947 79.9198 155.211 79.4398C154.475 78.9598 153.958 78.3304 153.659 77.5518L154.779 76.9758C155.067 77.6371 155.467 78.1384 155.979 78.4798C156.491 78.8104 157.083 78.9758 157.755 78.9758C158.385 78.9758 158.929 78.8318 159.387 78.5438C159.846 78.2451 160.198 77.8504 160.443 77.3598C160.699 76.8584 160.827 76.2984 160.827 75.6798C160.827 75.0291 160.699 74.4638 160.443 73.9838C160.187 73.5038 159.83 73.1304 159.371 72.8638C158.913 72.5864 158.374 72.4478 157.755 72.4478C157.083 72.4478 156.491 72.6184 155.979 72.9598C155.467 73.2904 155.067 73.7864 154.779 74.4478L153.659 73.8718C153.958 73.0824 154.475 72.4531 155.211 71.9838C155.947 71.5038 156.785 71.2638 157.723 71.2638C158.662 71.2638 159.467 71.4558 160.139 71.8398C160.822 72.2238 161.35 72.7464 161.723 73.4078C162.097 74.0584 162.283 74.7998 162.283 75.6318C162.283 76.0584 162.235 76.4691 162.139 76.8638C162.513 77.4611 162.961 77.9624 163.483 78.3678C164.006 78.7624 164.657 78.9598 165.435 78.9598C166.075 78.9598 166.63 78.8211 167.099 78.5438C167.569 78.2664 167.926 77.8824 168.171 77.3918C168.427 76.8904 168.555 76.3198 168.555 75.6798C168.555 74.6984 168.278 73.9144 167.723 73.3278C167.169 72.7411 166.427 72.4478 165.499 72.4478C164.87 72.4478 164.337 72.5438 163.899 72.7358L163.387 71.6798C163.697 71.5304 164.038 71.4238 164.411 71.3598C164.785 71.2958 165.222 71.2638 165.723 71.2638C166.555 71.2638 167.291 71.4504 167.931 71.8238C168.582 72.1864 169.089 72.6984 169.451 73.3598C169.825 74.0211 170.011 74.8051 170.011 75.7118C170.011 76.5864 169.814 77.3598 169.419 78.0318C169.025 78.6931 168.481 79.2158 167.787 79.5998C167.094 79.9731 166.294 80.1598 165.387 80.1598C164.577 80.1598 163.841 79.9998 163.179 79.6798C162.518 79.3598 161.969 78.8851 161.531 78.2558C161.169 78.8211 160.667 79.2798 160.027 79.6318C159.387 79.9838 158.625 80.1598 157.739 80.1598Z" fill="#003440"/>
<path d="M176.219 80.1598C175.771 80.1598 175.339 80.0904 174.923 79.9518C174.507 79.8131 174.123 79.6211 173.771 79.3758V84.3038C173.771 84.9438 173.915 85.4344 174.203 85.7758C174.491 86.1278 174.944 86.3038 175.563 86.3038H184.507C185.136 86.3038 185.589 86.1278 185.867 85.7758C186.155 85.4344 186.299 84.9438 186.299 84.3038V84.0478H187.723V84.0958C187.723 86.3464 186.629 87.4718 184.443 87.4718H175.627C173.44 87.4718 172.347 86.3304 172.347 84.0478V77.5518L173.467 76.9758C173.744 77.6371 174.133 78.1384 174.635 78.4798C175.147 78.8104 175.685 78.9758 176.251 78.9758C176.827 78.9758 177.328 78.8371 177.755 78.5598C178.181 78.2718 178.512 77.8771 178.747 77.3758C178.981 76.8744 179.099 76.3091 179.099 75.6798C179.099 74.7198 178.848 73.9411 178.347 73.3438C177.856 72.7464 177.157 72.4478 176.251 72.4478C175.685 72.4478 175.147 72.6184 174.635 72.9598C174.133 73.2904 173.744 73.7864 173.467 74.4478L172.347 73.8718C172.539 73.3491 172.827 72.8958 173.211 72.5118C173.605 72.1171 174.064 71.8131 174.587 71.5998C175.109 71.3758 175.653 71.2638 176.219 71.2638C177.125 71.2638 177.899 71.4611 178.539 71.8558C179.189 72.2398 179.685 72.7678 180.027 73.4398C180.379 74.1011 180.555 74.8531 180.555 75.6958C180.555 76.1224 180.512 76.5278 180.427 76.9118C180.757 77.5944 181.163 78.1118 181.643 78.4638C182.123 78.8051 182.72 78.9758 183.435 78.9758C184.32 78.9758 185.019 78.6718 185.531 78.0638C186.043 77.4558 186.299 76.6611 186.299 75.6798C186.299 74.6878 186.037 73.9038 185.515 73.3278C185.003 72.7411 184.32 72.4478 183.467 72.4478C182.891 72.4478 182.4 72.5438 181.995 72.7358L181.483 71.6798C181.781 71.5304 182.101 71.4238 182.443 71.3598C182.795 71.2958 183.211 71.2638 183.691 71.2638C184.48 71.2638 185.179 71.4451 185.787 71.8078C186.405 72.1704 186.885 72.6878 187.227 73.3598C187.579 74.0211 187.755 74.8051 187.755 75.7118C187.755 76.5651 187.573 77.3278 187.211 77.9998C186.848 78.6718 186.341 79.1998 185.691 79.5838C185.051 79.9678 184.293 80.1598 183.419 80.1598C182.693 80.1598 182.021 80.0104 181.403 79.7118C180.784 79.4024 180.272 78.9438 179.867 78.3358C179.504 78.9011 179.013 79.3491 178.395 79.6798C177.787 79.9998 177.061 80.1598 176.219 80.1598Z" fill="#003440"/>
<path d="M182.58 69.9838C182.036 69.6851 181.593 69.2744 181.252 68.7518C180.91 68.2184 180.74 67.5998 180.74 66.8958C180.74 66.2878 180.868 65.7651 181.124 65.3278C181.38 64.8904 181.726 64.5544 182.164 64.3198C182.601 64.0851 183.097 63.9678 183.652 63.9678C184.196 63.9678 184.686 64.0798 185.124 64.3038C185.55 64.5278 185.886 64.8478 186.132 65.2638L185.22 65.9678C185.049 65.6798 184.83 65.4558 184.564 65.2958C184.297 65.1251 183.998 65.0398 183.668 65.0398C183.145 65.0398 182.74 65.2211 182.452 65.5838C182.164 65.9464 182.02 66.3838 182.02 66.8958C182.02 67.4504 182.153 67.9144 182.42 68.2878C182.676 68.6504 182.964 68.9384 183.284 69.1518L182.58 69.9838Z" fill="#003440"/>
<path d="M45.4079 115.16C44.5332 115.16 43.7545 114.962 43.0719 114.568C42.3892 114.173 41.8505 113.629 41.4559 112.936C41.0719 112.242 40.8799 111.448 40.8799 110.552C40.8799 109.666 41.0665 108.845 41.4399 108.088C41.8132 107.32 42.3145 106.712 42.9439 106.264L43.7599 107.288C43.3012 107.661 42.9492 108.114 42.7039 108.648C42.4585 109.17 42.3359 109.794 42.3359 110.52C42.3359 111.586 42.6185 112.429 43.1839 113.048C43.7492 113.666 44.4905 113.976 45.4079 113.976C46.3252 113.976 47.0612 113.666 47.6159 113.048C48.1812 112.418 48.4639 111.576 48.4639 110.52C48.4639 109.794 48.3305 109.17 48.0639 108.648C47.8079 108.114 47.4292 107.661 46.9279 107.288L47.7279 106.264C48.1759 106.552 48.5652 106.925 48.8959 107.384C49.2265 107.832 49.4825 108.328 49.6639 108.872C49.8452 109.416 49.9359 109.976 49.9359 110.552C49.9359 111.458 49.7386 112.258 49.3439 112.952C48.9492 113.645 48.4105 114.189 47.7279 114.584C47.0452 114.968 46.2719 115.16 45.4079 115.16Z" fill="#003440"/>
<path d="M53.1484 115.16C52.6684 115.16 52.2524 115.128 51.9004 115.064C51.559 115 51.239 114.893 50.9404 114.744L51.4524 113.688C51.8577 113.88 52.3484 113.976 52.9244 113.976C53.8097 113.976 54.503 113.677 55.0044 113.08C55.5057 112.472 55.7564 111.666 55.7564 110.664C55.7564 110.034 55.6284 109.48 55.3724 109C55.1164 108.509 54.7484 108.125 54.2684 107.848C53.799 107.57 53.2444 107.432 52.6044 107.432C51.9857 107.432 51.3777 107.586 50.7804 107.896C50.1724 108.194 49.5804 108.68 49.0044 109.352L48.1724 108.472C48.7484 107.8 49.3884 107.266 50.0924 106.872C50.7964 106.466 51.6284 106.264 52.5884 106.264C53.4844 106.264 54.2791 106.461 54.9724 106.856C55.6764 107.24 56.2257 107.762 56.6204 108.424C57.0257 109.085 57.2284 109.837 57.2284 110.68C57.2284 111.544 57.0471 112.317 56.6844 113C56.3217 113.672 55.831 114.2 55.2124 114.584C54.6044 114.968 53.9164 115.16 53.1484 115.16Z" fill="#003440"/>
<path d="M63.5496 115.16C62.5896 115.16 61.7683 114.968 61.0856 114.584C60.403 114.2 59.8803 113.672 59.5176 113C59.155 112.317 58.9736 111.549 58.9736 110.696C58.9736 109.853 59.1603 109.101 59.5336 108.44C59.9176 107.768 60.451 107.24 61.1336 106.856C61.8163 106.461 62.6216 106.264 63.5496 106.264C64.1896 106.264 64.7816 106.376 65.3256 106.6C65.8696 106.813 66.339 107.117 66.7336 107.512C67.139 107.896 67.4323 108.349 67.6136 108.872L66.4936 109.448C66.2163 108.786 65.8163 108.29 65.2936 107.96C64.771 107.618 64.179 107.448 63.5176 107.448C62.8883 107.448 62.339 107.586 61.8696 107.864C61.411 108.13 61.0536 108.509 60.7976 109C60.5523 109.48 60.4296 110.04 60.4296 110.68C60.4296 111.309 60.563 111.874 60.8296 112.376C61.0963 112.877 61.459 113.272 61.9176 113.56C62.387 113.837 62.9203 113.976 63.5176 113.976C64.179 113.976 64.771 113.81 65.2936 113.48C65.8163 113.138 66.2163 112.637 66.4936 111.976L67.6136 112.552C67.4323 113.064 67.139 113.517 66.7336 113.912C66.339 114.306 65.8696 114.616 65.3256 114.84C64.7816 115.053 64.1896 115.16 63.5496 115.16Z" fill="#003440"/>
<path d="M62.4389 104.984C61.8949 104.685 61.4522 104.274 61.1109 103.752C60.7695 103.218 60.5989 102.6 60.5989 101.896C60.5989 101.288 60.7269 100.765 60.9829 100.328C61.2389 99.8904 61.5855 99.5544 62.0229 99.3198C62.4602 99.0851 62.9562 98.9678 63.5109 98.9678C64.0549 98.9678 64.5456 99.0798 64.9829 99.3038C65.4096 99.5278 65.7455 99.8478 65.9909 100.264L65.0789 100.968C64.9082 100.68 64.6895 100.456 64.4229 100.296C64.1562 100.125 63.8575 100.04 63.5269 100.04C63.0042 100.04 62.5989 100.221 62.3109 100.584C62.0229 100.946 61.8789 101.384 61.8789 101.896C61.8789 102.45 62.0122 102.914 62.2789 103.288C62.5349 103.65 62.8229 103.938 63.1429 104.152L62.4389 104.984Z" fill="#003440"/>
<path d="M71.2519 109.816C70.7292 109.816 70.3079 109.672 69.9879 109.384C69.6679 109.085 69.5079 108.664 69.5079 108.12C69.5079 107.586 69.6679 107.17 69.9879 106.872C70.3079 106.573 70.7292 106.424 71.2519 106.424C71.7639 106.424 72.1852 106.573 72.5159 106.872C72.8572 107.17 73.0279 107.581 73.0279 108.104C73.0279 108.648 72.8572 109.069 72.5159 109.368C72.1852 109.666 71.7639 109.816 71.2519 109.816ZM71.2679 108.968C71.5132 108.968 71.7159 108.893 71.8759 108.744C72.0359 108.594 72.1159 108.386 72.1159 108.12C72.1159 107.853 72.0359 107.645 71.8759 107.496C71.7159 107.346 71.5132 107.272 71.2679 107.272C71.0225 107.272 70.8199 107.346 70.6599 107.496C70.4999 107.645 70.4199 107.853 70.4199 108.12C70.4199 108.685 70.7025 108.968 71.2679 108.968ZM71.2519 115.176C70.7292 115.176 70.3079 115.032 69.9879 114.744C69.6679 114.445 69.5079 114.024 69.5079 113.48C69.5079 112.946 69.6679 112.53 69.9879 112.232C70.3079 111.933 70.7292 111.784 71.2519 111.784C71.7639 111.784 72.1852 111.933 72.5159 112.232C72.8572 112.53 73.0279 112.941 73.0279 113.464C73.0279 114.008 72.8572 114.429 72.5159 114.728C72.1852 115.026 71.7639 115.176 71.2519 115.176ZM71.2679 114.328C71.5132 114.328 71.7159 114.253 71.8759 114.104C72.0359 113.954 72.1159 113.746 72.1159 113.48C72.1159 113.213 72.0359 113.005 71.8759 112.856C71.7159 112.706 71.5132 112.632 71.2679 112.632C71.0225 112.632 70.8199 112.706 70.6599 112.856C70.4999 113.005 70.4199 113.213 70.4199 113.48C70.4199 113.746 70.4892 113.954 70.6279 114.104C70.7772 114.253 70.9905 114.328 71.2679 114.328Z" fill="#003440"/>
<path d="M78.9751 115.16C78.1858 115.16 77.4818 114.978 76.8631 114.616C76.2551 114.242 75.7751 113.725 75.4231 113.064C75.0818 112.392 74.9111 111.608 74.9111 110.712C74.9111 109.88 75.0871 109.128 75.4391 108.456C75.7911 107.784 76.2871 107.25 76.9271 106.856C77.5778 106.461 78.3511 106.264 79.2471 106.264C80.0578 106.264 80.7511 106.445 81.3271 106.808C81.9138 107.16 82.3991 107.645 82.7831 108.264C83.1671 108.882 83.4605 109.581 83.6631 110.36C83.9725 111.522 84.3831 112.413 84.8951 113.032C85.4178 113.65 86.1165 113.96 86.9911 113.96C87.5031 113.96 87.9618 113.826 88.3671 113.56C88.7831 113.293 89.1085 112.914 89.3431 112.424C89.5885 111.922 89.7111 111.341 89.7111 110.68C89.7111 109.677 89.4498 108.888 88.9271 108.312C88.4151 107.736 87.7325 107.448 86.8791 107.448C86.3031 107.448 85.8125 107.544 85.4071 107.736L84.8951 106.68C85.1938 106.53 85.5138 106.424 85.8551 106.36C86.2071 106.296 86.6231 106.264 87.1031 106.264C87.8925 106.264 88.5911 106.445 89.1991 106.808C89.8071 107.17 90.2871 107.688 90.6391 108.36C90.9911 109.021 91.1671 109.805 91.1671 110.712C91.1671 111.554 90.9858 112.312 90.6231 112.984C90.2711 113.656 89.7751 114.189 89.1351 114.584C88.5058 114.968 87.7751 115.16 86.9431 115.16C85.7058 115.16 84.7405 114.808 84.0471 114.104C83.3538 113.389 82.8098 112.381 82.4151 111.08C82.0205 109.778 81.5671 108.85 81.0551 108.296C80.5431 107.741 79.9138 107.464 79.1671 107.464C78.3245 107.464 77.6471 107.768 77.1351 108.376C76.6231 108.973 76.3671 109.762 76.3671 110.744C76.3671 111.725 76.6231 112.509 77.1351 113.096C77.6578 113.682 78.3458 113.976 79.1991 113.976C79.7858 113.976 80.2765 113.88 80.6711 113.688L81.1831 114.744C80.8845 114.893 80.5591 115 80.2071 115.064C79.8658 115.128 79.4551 115.16 78.9751 115.16Z" fill="#003440"/>
<path d="M88.8483 105.288L85.6483 102.152L86.4643 101.272L89.6323 104.376L88.8483 105.288Z" fill="#003440"/>
<path d="M96.9268 115.16C95.9774 115.16 95.1348 114.92 94.3988 114.44C93.6628 113.96 93.1454 113.33 92.8468 112.552L93.9668 111.976C94.2548 112.637 94.6548 113.138 95.1668 113.48C95.6788 113.81 96.2708 113.976 96.9428 113.976C97.5721 113.976 98.1161 113.832 98.5748 113.544C99.0334 113.245 99.3854 112.85 99.6308 112.36C99.8868 111.858 100.015 111.298 100.015 110.68C100.015 110.029 99.8868 109.464 99.6308 108.984C99.3748 108.504 99.0174 108.13 98.5588 107.864C98.1001 107.586 97.5614 107.448 96.9428 107.448C96.2708 107.448 95.6788 107.618 95.1668 107.96C94.6548 108.29 94.2548 108.786 93.9668 109.448L92.8468 108.872C93.1454 108.082 93.6628 107.453 94.3988 106.984C95.1348 106.504 95.9721 106.264 96.9108 106.264C97.8494 106.264 98.6548 106.456 99.3268 106.84C100.009 107.224 100.537 107.746 100.911 108.408C101.284 109.058 101.471 109.8 101.471 110.632C101.471 111.058 101.423 111.469 101.327 111.864C101.7 112.461 102.148 112.962 102.671 113.368C103.193 113.762 103.844 113.96 104.623 113.96C105.263 113.96 105.817 113.821 106.287 113.544C106.756 113.266 107.113 112.882 107.359 112.392C107.615 111.89 107.743 111.32 107.743 110.68C107.743 109.698 107.465 108.914 106.911 108.328C106.356 107.741 105.615 107.448 104.687 107.448C104.057 107.448 103.524 107.544 103.087 107.736L102.575 106.68C102.884 106.53 103.225 106.424 103.599 106.36C103.972 106.296 104.409 106.264 104.911 106.264C105.743 106.264 106.479 106.45 107.119 106.824C107.769 107.186 108.276 107.698 108.639 108.36C109.012 109.021 109.199 109.805 109.199 110.712C109.199 111.586 109.001 112.36 108.607 113.032C108.212 113.693 107.668 114.216 106.975 114.6C106.281 114.973 105.481 115.16 104.575 115.16C103.764 115.16 103.028 115 102.367 114.68C101.705 114.36 101.156 113.885 100.719 113.256C100.356 113.821 99.8548 114.28 99.2148 114.632C98.5748 114.984 97.8121 115.16 96.9268 115.16Z" fill="#003440"/>
<path d="M104.549 121.8C103.962 121.8 103.455 121.666 103.029 121.4C102.591 121.144 102.255 120.786 102.021 120.328C101.775 119.869 101.653 119.357 101.653 118.792C101.653 118.216 101.775 117.698 102.021 117.24C102.255 116.792 102.591 116.434 103.029 116.168C103.466 115.912 103.983 115.784 104.581 115.784C105.199 115.784 105.727 115.922 106.165 116.2C106.602 116.477 106.938 116.845 107.173 117.304C107.407 117.773 107.525 118.29 107.525 118.856C107.525 119.378 107.407 119.864 107.173 120.312C106.927 120.76 106.586 121.117 106.149 121.384C105.701 121.661 105.167 121.8 104.549 121.8ZM104.597 120.712C105.077 120.712 105.471 120.536 105.781 120.184C106.09 119.842 106.245 119.405 106.245 118.872C106.245 118.296 106.101 117.816 105.813 117.432C105.514 117.058 105.109 116.872 104.597 116.872C104.074 116.872 103.663 117.053 103.365 117.416C103.066 117.789 102.917 118.264 102.917 118.84C102.917 119.373 103.071 119.816 103.381 120.168C103.679 120.53 104.085 120.712 104.597 120.712Z" fill="#003440"/>
<path d="M112.414 115.16C111.934 115.16 111.518 115.128 111.166 115.064C110.825 115 110.505 114.893 110.206 114.744L110.718 113.688C111.123 113.88 111.614 113.976 112.19 113.976C113.075 113.976 113.769 113.677 114.27 113.08C114.771 112.472 115.022 111.666 115.022 110.664C115.022 110.034 114.894 109.48 114.638 109C114.382 108.509 114.014 108.125 113.534 107.848C113.065 107.57 112.51 107.432 111.87 107.432C111.251 107.432 110.643 107.586 110.046 107.896C109.438 108.194 108.846 108.68 108.27 109.352L107.438 108.472C108.014 107.8 108.654 107.266 109.358 106.872C110.062 106.466 110.894 106.264 111.854 106.264C112.75 106.264 113.545 106.461 114.238 106.856C114.942 107.24 115.491 107.762 115.886 108.424C116.291 109.085 116.494 109.837 116.494 110.68C116.494 111.544 116.313 112.317 115.95 113C115.587 113.672 115.097 114.2 114.478 114.584C113.87 114.968 113.182 115.16 112.414 115.16Z" fill="#003440"/>
<path d="M120.111 109.816C119.589 109.816 119.167 109.672 118.847 109.384C118.527 109.085 118.367 108.664 118.367 108.12C118.367 107.586 118.527 107.17 118.847 106.872C119.167 106.573 119.589 106.424 120.111 106.424C120.623 106.424 121.045 106.573 121.375 106.872C121.717 107.17 121.887 107.581 121.887 108.104C121.887 108.648 121.717 109.069 121.375 109.368C121.045 109.666 120.623 109.816 120.111 109.816ZM120.127 108.968C120.373 108.968 120.575 108.893 120.735 108.744C120.895 108.594 120.975 108.386 120.975 108.12C120.975 107.853 120.895 107.645 120.735 107.496C120.575 107.346 120.373 107.272 120.127 107.272C119.882 107.272 119.679 107.346 119.519 107.496C119.359 107.645 119.279 107.853 119.279 108.12C119.279 108.685 119.562 108.968 120.127 108.968ZM120.111 115.176C119.589 115.176 119.167 115.032 118.847 114.744C118.527 114.445 118.367 114.024 118.367 113.48C118.367 112.946 118.527 112.53 118.847 112.232C119.167 111.933 119.589 111.784 120.111 111.784C120.623 111.784 121.045 111.933 121.375 112.232C121.717 112.53 121.887 112.941 121.887 113.464C121.887 114.008 121.717 114.429 121.375 114.728C121.045 115.026 120.623 115.176 120.111 115.176ZM120.127 114.328C120.373 114.328 120.575 114.253 120.735 114.104C120.895 113.954 120.975 113.746 120.975 113.48C120.975 113.213 120.895 113.005 120.735 112.856C120.575 112.706 120.373 112.632 120.127 112.632C119.882 112.632 119.679 112.706 119.519 112.856C119.359 113.005 119.279 113.213 119.279 113.48C119.279 113.746 119.349 113.954 119.487 114.104C119.637 114.253 119.85 114.328 120.127 114.328Z" fill="#003440"/>
<path d="M127.771 115.16C126.821 115.16 125.979 114.92 125.243 114.44C124.507 113.96 123.989 113.33 123.691 112.552L124.811 111.976C125.099 112.637 125.499 113.138 126.011 113.48C126.523 113.81 127.115 113.976 127.787 113.976C128.416 113.976 128.96 113.832 129.419 113.544C129.877 113.245 130.229 112.85 130.475 112.36C130.731 111.858 130.859 111.298 130.859 110.68C130.859 110.029 130.731 109.464 130.475 108.984C130.219 108.504 129.861 108.13 129.403 107.864C128.944 107.586 128.405 107.448 127.787 107.448C127.115 107.448 126.523 107.618 126.011 107.96C125.499 108.29 125.099 108.786 124.811 109.448L123.691 108.872C123.989 108.082 124.507 107.453 125.243 106.984C125.979 106.504 126.816 106.264 127.755 106.264C128.693 106.264 129.499 106.456 130.171 106.84C130.853 107.224 131.381 107.746 131.755 108.408C132.128 109.058 132.315 109.8 132.315 110.632C132.315 111.058 132.267 111.469 132.171 111.864C132.544 112.461 132.992 112.962 133.515 113.368C134.037 113.762 134.688 113.96 135.467 113.96C136.107 113.96 136.661 113.821 137.131 113.544C137.6 113.266 137.957 112.882 138.203 112.392C138.459 111.89 138.587 111.32 138.587 110.68C138.587 109.698 138.309 108.914 137.755 108.328C137.2 107.741 136.459 107.448 135.531 107.448C134.901 107.448 134.368 107.544 133.931 107.736L133.419 106.68C133.728 106.53 134.069 106.424 134.443 106.36C134.816 106.296 135.253 106.264 135.755 106.264C136.587 106.264 137.323 106.45 137.963 106.824C138.613 107.186 139.12 107.698 139.483 108.36C139.856 109.021 140.043 109.805 140.043 110.712C140.043 111.586 139.845 112.36 139.451 113.032C139.056 113.693 138.512 114.216 137.819 114.6C137.125 114.973 136.325 115.16 135.419 115.16C134.608 115.16 133.872 115 133.211 114.68C132.549 114.36 132 113.885 131.563 113.256C131.2 113.821 130.699 114.28 130.059 114.632C129.419 114.984 128.656 115.16 127.771 115.16Z" fill="#003440"/>
<path d="M146.25 115.16C145.802 115.16 145.37 115.09 144.954 114.952C144.538 114.813 144.154 114.621 143.802 114.376V119.304C143.802 119.944 143.946 120.434 144.234 120.776C144.522 121.128 144.975 121.304 145.594 121.304H154.538C155.167 121.304 155.62 121.128 155.898 120.776C156.186 120.434 156.33 119.944 156.33 119.304V119.048H157.754V119.096C157.754 121.346 156.66 122.472 154.474 122.472H145.658C143.471 122.472 142.378 121.33 142.378 119.048V112.552L143.498 111.976C143.775 112.637 144.164 113.138 144.666 113.48C145.178 113.81 145.716 113.976 146.282 113.976C146.858 113.976 147.359 113.837 147.786 113.56C148.212 113.272 148.543 112.877 148.778 112.376C149.012 111.874 149.13 111.309 149.13 110.68C149.13 109.72 148.879 108.941 148.378 108.344C147.887 107.746 147.188 107.448 146.282 107.448C145.716 107.448 145.178 107.618 144.666 107.96C144.164 108.29 143.775 108.786 143.498 109.448L142.378 108.872C142.57 108.349 142.858 107.896 143.242 107.512C143.636 107.117 144.095 106.813 144.618 106.6C145.14 106.376 145.684 106.264 146.25 106.264C147.156 106.264 147.93 106.461 148.57 106.856C149.22 107.24 149.716 107.768 150.058 108.44C150.41 109.101 150.586 109.853 150.586 110.696C150.586 111.122 150.543 111.528 150.458 111.912C150.788 112.594 151.194 113.112 151.674 113.464C152.154 113.805 152.751 113.976 153.466 113.976C154.351 113.976 155.05 113.672 155.562 113.064C156.074 112.456 156.33 111.661 156.33 110.68C156.33 109.688 156.068 108.904 155.546 108.328C155.034 107.741 154.351 107.448 153.498 107.448C152.922 107.448 152.431 107.544 152.026 107.736L151.514 106.68C151.812 106.53 152.132 106.424 152.474 106.36C152.826 106.296 153.242 106.264 153.722 106.264C154.511 106.264 155.21 106.445 155.818 106.808C156.436 107.17 156.916 107.688 157.258 108.36C157.61 109.021 157.786 109.805 157.786 110.712C157.786 111.565 157.604 112.328 157.242 113C156.879 113.672 156.372 114.2 155.722 114.584C155.082 114.968 154.324 115.16 153.45 115.16C152.724 115.16 152.052 115.01 151.434 114.712C150.815 114.402 150.303 113.944 149.898 113.336C149.535 113.901 149.044 114.349 148.426 114.68C147.818 115 147.092 115.16 146.25 115.16Z" fill="#003440"/>
<path d="M152.611 104.984C152.067 104.685 151.624 104.274 151.283 103.752C150.941 103.218 150.771 102.6 150.771 101.896C150.771 101.288 150.899 100.765 151.155 100.328C151.411 99.8904 151.757 99.5544 152.195 99.3198C152.632 99.0851 153.128 98.9678 153.683 98.9678C154.227 98.9678 154.717 99.0798 155.155 99.3038C155.581 99.5278 155.917 99.8478 156.163 100.264L155.251 100.968C155.08 100.68 154.861 100.456 154.595 100.296C154.328 100.125 154.029 100.04 153.699 100.04C153.176 100.04 152.771 100.221 152.483 100.584C152.195 100.946 152.051 101.384 152.051 101.896C152.051 102.45 152.184 102.914 152.451 103.288C152.707 103.65 152.995 103.938 153.315 104.152L152.611 104.984Z" fill="#003440"/>
<path d="M160.128 115V106.424H161.536V115H160.128ZM163.184 115V106.424H164.592V115H163.184Z" fill="#003440"/>
</svg>
