<svg width="260" height="160" viewBox="0 0 260 160" fill="none" xmlns="http://www.w3.org/2000/svg">
<path d="M46.6392 86.5568C54.8722 86.5568 60.8551 81.1108 60.8551 73.4659C60.8551 66.5369 55.9716 61.4489 48.8381 61.4489C43.8523 61.4489 40.2216 63.9545 38.7898 67.3807H38.6364C38.6108 59.3011 41.2699 54.1108 46.6392 54.1108C49.6818 54.1108 51.8807 55.6449 52.75 58.2784H60.3693C59.3466 52.1932 53.8239 48 46.6648 48C37.0767 48 31.2472 55.3636 31.2472 67.5852C31.2472 80.3182 37.8182 86.5568 46.6392 86.5568ZM46.5369 80.4205C42.7528 80.4205 39.7869 77.4545 39.7869 73.6449C39.7869 69.8864 42.7017 67.1506 46.6136 67.1506C50.4744 67.1506 53.3381 69.9119 53.3381 73.7983C53.3125 77.5057 50.321 80.4205 46.5369 80.4205Z" fill="#A30C4A"/>
<path d="M27.75 105.488C27.8828 107.433 29.5234 108.699 31.9844 108.699C34.5078 108.699 36.1484 107.394 36.1484 105.308C36.1484 103.714 35.2188 102.777 32.8672 102.261L31.6172 101.988C30.0781 101.652 29.4766 101.043 29.4766 100.152C29.4766 99.0035 30.5625 98.316 31.9688 98.316C33.4375 98.316 34.4141 99.0738 34.5391 100.308H35.9453C35.8828 98.3941 34.2578 97.0504 32.0078 97.0504C29.6719 97.0504 28.0312 98.3551 28.0312 100.214C28.0312 101.816 29.0078 102.839 31.2656 103.332L32.5156 103.605C34.0781 103.949 34.7031 104.574 34.7031 105.519C34.7031 106.629 33.5938 107.433 32.0625 107.433C30.4453 107.433 29.3203 106.699 29.1562 105.488H27.75Z" fill="#A30C4A"/>
<path d="M38.3359 98.941C38.8125 98.941 39.1875 98.5582 39.1875 98.0895C39.1875 97.6129 38.8125 97.2379 38.3359 97.2379C37.8672 97.2379 37.4844 97.6129 37.4844 98.0895C37.4844 98.5582 37.8672 98.941 38.3359 98.941ZM37.6562 108.511H39.0156V100.386H37.6562V108.511Z" fill="#A30C4A"/>
<path d="M40.6797 108.511H46.7422V107.394H42.25V107.371L46.7188 101.379V100.386H40.6875V101.504H45.1797V101.527L40.6797 107.543V108.511Z" fill="#A30C4A"/>
<path d="M53.4141 106.183C53.1875 106.949 52.4297 107.472 51.3984 107.472C49.9375 107.472 49.0234 106.449 49.0234 104.894V104.816H54.8516V104.3C54.8516 101.839 53.5 100.246 51.3047 100.246C49.0625 100.246 47.625 101.957 47.625 104.48C47.625 107.035 49.0391 108.652 51.3672 108.652C53.1406 108.652 54.5156 107.605 54.75 106.183H53.4141ZM51.2812 101.425C52.5625 101.425 53.4141 102.394 53.4453 103.754H49.0312C49.1172 102.402 50.0078 101.425 51.2812 101.425Z" fill="#A30C4A"/>
<path d="M56.0859 102.629C56.0859 103.8 56.8281 104.511 58.3594 104.879L59.6484 105.191C60.5781 105.418 60.8984 105.754 60.8984 106.339C60.8984 107.074 60.2188 107.543 59.1172 107.543C58.0156 107.543 57.3906 107.097 57.2266 106.168H55.8672C56.0234 107.691 57.2109 108.652 59.1172 108.652C60.9297 108.652 62.2656 107.652 62.2656 106.238C62.2656 105.074 61.6719 104.433 60.0312 104.035L58.7422 103.722C57.8359 103.504 57.4219 103.121 57.4219 102.558C57.4219 101.847 58.0781 101.355 59.0703 101.355C60.0703 101.355 60.6953 101.879 60.7969 102.73H62.0938C62.0391 101.293 60.8516 100.246 59.0703 100.246C57.3125 100.246 56.0859 101.238 56.0859 102.629Z" fill="#A30C4A"/>
<path d="M90.8047 99.566H90.8828L93.4844 108.511H94.8125L97.8828 97.2379H96.4141L94.1562 106.441H94.0938L91.5547 97.2379H90.1328L87.5938 106.441H87.5312L85.2734 97.2379H83.8047L86.875 108.511H88.2031L90.8047 99.566Z" fill="#A30C4A"/>
<path d="M103.648 106.183C103.422 106.949 102.664 107.472 101.633 107.472C100.172 107.472 99.2578 106.449 99.2578 104.894V104.816H105.086V104.3C105.086 101.839 103.734 100.246 101.539 100.246C99.2969 100.246 97.8594 101.957 97.8594 104.48C97.8594 107.035 99.2734 108.652 101.602 108.652C103.375 108.652 104.75 107.605 104.984 106.183H103.648ZM101.516 101.425C102.797 101.425 103.648 102.394 103.68 103.754H99.2656C99.3516 102.402 100.242 101.425 101.516 101.425Z" fill="#A30C4A"/>
<path d="M107.211 98.941C107.688 98.941 108.062 98.5582 108.062 98.0895C108.062 97.6129 107.688 97.2379 107.211 97.2379C106.742 97.2379 106.359 97.6129 106.359 98.0895C106.359 98.5582 106.742 98.941 107.211 98.941ZM106.531 108.511H107.891V100.386H106.531V108.511Z" fill="#A30C4A"/>
<path d="M113.078 111.574C115.32 111.574 116.75 110.285 116.75 108.347V100.386H115.453V101.754H115.43C114.891 100.808 113.938 100.246 112.789 100.246C110.688 100.246 109.328 101.871 109.328 104.418C109.328 106.941 110.688 108.574 112.758 108.574C113.898 108.574 114.859 107.996 115.359 107.113H115.391V108.394C115.391 109.605 114.539 110.418 113.133 110.418C112.117 110.418 111.312 109.925 111.047 109.183H109.648C109.875 110.566 111.289 111.574 113.078 111.574ZM113.031 107.379C111.633 107.379 110.719 106.238 110.719 104.418C110.719 102.597 111.633 101.441 113.031 101.441C114.445 101.441 115.391 102.629 115.391 104.418C115.391 106.207 114.445 107.379 113.031 107.379Z" fill="#A30C4A"/>
<path d="M118.594 108.511H119.953V103.777C119.953 102.371 120.789 101.449 122.141 101.449C123.414 101.449 124.062 102.222 124.062 103.511V108.511H125.422V103.261C125.422 101.449 124.344 100.246 122.562 100.246C121.328 100.246 120.438 100.777 119.984 101.683H119.953V97.2379H118.594V108.511Z" fill="#A30C4A"/>
<path d="M127.586 98.4254V100.386H126.375V101.504H127.586V106.402C127.586 107.964 128.164 108.574 129.656 108.574C129.977 108.574 130.352 108.55 130.516 108.511V107.371C130.422 107.386 130.109 107.41 129.953 107.41C129.258 107.41 128.945 107.074 128.945 106.332V101.504H130.523V100.386H128.945V98.4254H127.586Z" fill="#A30C4A"/>
<path d="M131.836 102.629C131.836 103.8 132.578 104.511 134.109 104.879L135.398 105.191C136.328 105.418 136.648 105.754 136.648 106.339C136.648 107.074 135.969 107.543 134.867 107.543C133.766 107.543 133.141 107.097 132.977 106.168H131.617C131.773 107.691 132.961 108.652 134.867 108.652C136.68 108.652 138.016 107.652 138.016 106.238C138.016 105.074 137.422 104.433 135.781 104.035L134.492 103.722C133.586 103.504 133.172 103.121 133.172 102.558C133.172 101.847 133.828 101.355 134.82 101.355C135.82 101.355 136.445 101.879 136.547 102.73H137.844C137.789 101.293 136.602 100.246 134.82 100.246C133.062 100.246 131.836 101.238 131.836 102.629Z" fill="#A30C4A"/>
<path d="M98.3722 60.0682H105.531C105.531 56.5142 108.318 54.0341 112 54.0341C115.324 54.0341 117.599 56.2841 117.599 59.25C117.599 61.8068 116.551 63.571 111.872 68.071L98.8068 80.446V85.7386H125.628V79.6023H108.906V79.4489L116.653 72.0341C122.892 66.0767 125.116 63.2898 125.116 58.7642C125.116 52.6278 119.901 48.0256 112 48.0256C103.997 48.0256 98.3722 52.9602 98.3722 60.0682Z" fill="#A30C4A"/>
<path d="M160.383 97.2379V108.511H164.172C167.523 108.511 169.492 106.425 169.492 102.871C169.492 99.3238 167.516 97.2379 164.172 97.2379H160.383ZM161.789 98.5035H164.078C166.641 98.5035 168.055 100.066 168.055 102.886C168.055 105.683 166.633 107.246 164.078 107.246H161.789V98.5035Z" fill="#A30C4A"/>
<path d="M176.422 106.183C176.195 106.949 175.438 107.472 174.406 107.472C172.945 107.472 172.031 106.449 172.031 104.894V104.816H177.859V104.3C177.859 101.839 176.508 100.246 174.312 100.246C172.07 100.246 170.633 101.957 170.633 104.48C170.633 107.035 172.047 108.652 174.375 108.652C176.148 108.652 177.523 107.605 177.758 106.183H176.422ZM174.289 101.425C175.57 101.425 176.422 102.394 176.453 103.754H172.039C172.125 102.402 173.016 101.425 174.289 101.425Z" fill="#A30C4A"/>
<path d="M185.984 103.05C185.812 101.589 184.602 100.246 182.57 100.246C180.328 100.246 178.836 101.886 178.836 104.449C178.836 107.066 180.336 108.652 182.586 108.652C184.43 108.652 185.789 107.511 186 105.894H184.664C184.43 106.871 183.703 107.457 182.594 107.457C181.188 107.457 180.219 106.339 180.219 104.449C180.219 102.605 181.172 101.441 182.578 101.441C183.773 101.441 184.461 102.168 184.656 103.05H185.984Z" fill="#A30C4A"/>
<path d="M190.617 108.652C192.859 108.652 194.375 107.035 194.375 104.449C194.375 101.855 192.859 100.246 190.617 100.246C188.367 100.246 186.852 101.855 186.852 104.449C186.852 107.035 188.367 108.652 190.617 108.652ZM190.617 107.457C189.18 107.457 188.234 106.363 188.234 104.449C188.234 102.535 189.18 101.441 190.617 101.441C192.055 101.441 192.992 102.535 192.992 104.449C192.992 106.363 192.055 107.457 190.617 107.457Z" fill="#A30C4A"/>
<path d="M195.75 108.511H197.109V103.449C197.109 102.3 197.797 101.543 198.852 101.543C199.18 101.543 199.469 101.582 199.578 101.621V100.3C199.469 100.285 199.266 100.246 199.031 100.246C198.078 100.246 197.328 100.816 197.062 101.714H197.031V100.386H195.75V108.511Z" fill="#A30C4A"/>
<path d="M202.906 108.652C204 108.652 205.031 108.043 205.516 107.113H205.547V108.511H206.836V102.894C206.836 101.277 205.633 100.246 203.727 100.246C201.805 100.246 200.602 101.324 200.508 102.73H201.82C201.992 101.933 202.648 101.441 203.695 101.441C204.82 101.441 205.477 102.035 205.477 103.027V103.707L203.148 103.839C201.273 103.949 200.203 104.824 200.203 106.214C200.203 107.675 201.289 108.652 202.906 108.652ZM203.211 107.496C202.234 107.496 201.586 106.988 201.586 106.214C201.586 105.449 202.211 104.964 203.305 104.894L205.477 104.761V105.425C205.477 106.597 204.492 107.496 203.211 107.496Z" fill="#A30C4A"/>
<path d="M209 98.4254V100.386H207.789V101.504H209V106.402C209 107.964 209.578 108.574 211.07 108.574C211.391 108.574 211.766 108.55 211.93 108.511V107.371C211.836 107.386 211.523 107.41 211.367 107.41C210.672 107.41 210.359 107.074 210.359 106.332V101.504H211.938V100.386H210.359V98.4254H209Z" fill="#A30C4A"/>
<path d="M214.141 98.941C214.617 98.941 214.992 98.5582 214.992 98.0895C214.992 97.6129 214.617 97.2379 214.141 97.2379C213.672 97.2379 213.289 97.6129 213.289 98.0895C213.289 98.5582 213.672 98.941 214.141 98.941ZM213.461 108.511H214.82V100.386H213.461V108.511Z" fill="#A30C4A"/>
<path d="M220.023 108.652C222.266 108.652 223.781 107.035 223.781 104.449C223.781 101.855 222.266 100.246 220.023 100.246C217.773 100.246 216.258 101.855 216.258 104.449C216.258 107.035 217.773 108.652 220.023 108.652ZM220.023 107.457C218.586 107.457 217.641 106.363 217.641 104.449C217.641 102.535 218.586 101.441 220.023 101.441C221.461 101.441 222.398 102.535 222.398 104.449C222.398 106.363 221.461 107.457 220.023 107.457Z" fill="#A30C4A"/>
<path d="M225.156 108.511H226.516V103.73C226.516 102.355 227.352 101.449 228.633 101.449C229.883 101.449 230.5 102.168 230.5 103.48V108.511H231.859V103.238C231.859 101.394 230.828 100.246 229.047 100.246C227.789 100.246 226.922 100.808 226.469 101.683H226.438V100.386H225.156V108.511Z" fill="#A30C4A"/>
<path d="M190.259 85.7386H197.903V48.8438H190.233L180.696 55.4659V62.3182L190.105 55.9261H190.259V85.7386Z" fill="#A30C4A"/>
</svg>
