<svg width="240" height="136" viewBox="0 0 240 136" fill="none" xmlns="http://www.w3.org/2000/svg">
<path d="M36.6392 80.818C44.8722 80.818 50.8551 75.372 50.8551 67.7271C50.8551 60.7982 45.9716 55.7101 38.8381 55.7101C33.8523 55.7101 30.2216 58.2158 28.7898 61.6419H28.6364C28.6108 53.5624 31.2699 48.372 36.6392 48.372C39.6818 48.372 41.8807 49.9061 42.75 52.5396H50.3693C49.3466 46.4544 43.8239 42.2612 36.6648 42.2612C27.0767 42.2612 21.2472 49.6249 21.2472 61.8465C21.2472 74.5794 27.8182 80.818 36.6392 80.818ZM36.5369 74.6817C32.7528 74.6817 29.7869 71.7158 29.7869 67.9061C29.7869 64.1476 32.7017 61.4118 36.6136 61.4118C40.4744 61.4118 43.3381 64.1732 43.3381 68.0595C43.3125 71.7669 40.321 74.6817 36.5369 74.6817Z" fill="#A30C4A"/>
<path d="M17.75 99.7491C17.8828 101.694 19.5234 102.96 21.9844 102.96C24.5078 102.96 26.1484 101.655 26.1484 99.5694C26.1484 97.9757 25.2188 97.0382 22.8672 96.5226L21.6172 96.2491C20.0781 95.9132 19.4766 95.3038 19.4766 94.4132C19.4766 93.2648 20.5625 92.5773 21.9688 92.5773C23.4375 92.5773 24.4141 93.3351 24.5391 94.5694H25.9453C25.8828 92.6554 24.2578 91.3116 22.0078 91.3116C19.6719 91.3116 18.0312 92.6163 18.0312 94.4757C18.0312 96.0773 19.0078 97.1007 21.2656 97.5929L22.5156 97.8663C24.0781 98.2101 24.7031 98.8351 24.7031 99.7804C24.7031 100.89 23.5938 101.694 22.0625 101.694C20.4453 101.694 19.3203 100.96 19.1562 99.7491H17.75Z" fill="#A30C4A"/>
<path d="M28.3359 93.2023C28.8125 93.2023 29.1875 92.8194 29.1875 92.3507C29.1875 91.8741 28.8125 91.4991 28.3359 91.4991C27.8672 91.4991 27.4844 91.8741 27.4844 92.3507C27.4844 92.8194 27.8672 93.2023 28.3359 93.2023ZM27.6562 102.773H29.0156V94.6476H27.6562V102.773Z" fill="#A30C4A"/>
<path d="M30.6797 102.773H36.7422V101.655H32.25V101.632L36.7188 95.6398V94.6476H30.6875V95.7648H35.1797V95.7882L30.6797 101.804V102.773Z" fill="#A30C4A"/>
<path d="M43.4141 100.444C43.1875 101.21 42.4297 101.734 41.3984 101.734C39.9375 101.734 39.0234 100.71 39.0234 99.1554V99.0773H44.8516V98.5616C44.8516 96.1007 43.5 94.5069 41.3047 94.5069C39.0625 94.5069 37.625 96.2179 37.625 98.7413C37.625 101.296 39.0391 102.913 41.3672 102.913C43.1406 102.913 44.5156 101.866 44.75 100.444H43.4141ZM41.2812 95.6866C42.5625 95.6866 43.4141 96.6554 43.4453 98.0148H39.0312C39.1172 96.6632 40.0078 95.6866 41.2812 95.6866Z" fill="#A30C4A"/>
<path d="M46.0859 96.8898C46.0859 98.0616 46.8281 98.7726 48.3594 99.1398L49.6484 99.4523C50.5781 99.6788 50.8984 100.015 50.8984 100.601C50.8984 101.335 50.2188 101.804 49.1172 101.804C48.0156 101.804 47.3906 101.359 47.2266 100.429H45.8672C46.0234 101.952 47.2109 102.913 49.1172 102.913C50.9297 102.913 52.2656 101.913 52.2656 100.499C52.2656 99.3351 51.6719 98.6944 50.0312 98.296L48.7422 97.9835C47.8359 97.7648 47.4219 97.3819 47.4219 96.8194C47.4219 96.1085 48.0781 95.6163 49.0703 95.6163C50.0703 95.6163 50.6953 96.1398 50.7969 96.9913H52.0938C52.0391 95.5538 50.8516 94.5069 49.0703 94.5069C47.3125 94.5069 46.0859 95.4991 46.0859 96.8898Z" fill="#A30C4A"/>
<path d="M79.8047 93.8276H79.8828L82.4844 102.773H83.8125L86.8828 91.4994H85.4141L83.1562 100.703H83.0938L80.5547 91.4994H79.1328L76.5938 100.703H76.5312L74.2734 91.4994H72.8047L75.875 102.773H77.2031L79.8047 93.8276Z" fill="#A30C4A"/>
<path d="M92.6484 100.445C92.4219 101.21 91.6641 101.734 90.6328 101.734C89.1719 101.734 88.2578 100.71 88.2578 99.1557V99.0776H94.0859V98.5619C94.0859 96.101 92.7344 94.5073 90.5391 94.5073C88.2969 94.5073 86.8594 96.2182 86.8594 98.7416C86.8594 101.296 88.2734 102.914 90.6016 102.914C92.375 102.914 93.75 101.867 93.9844 100.445H92.6484ZM90.5156 95.6869C91.7969 95.6869 92.6484 96.6557 92.6797 98.0151H88.2656C88.3516 96.6635 89.2422 95.6869 90.5156 95.6869Z" fill="#A30C4A"/>
<path d="M96.2109 93.2026C96.6875 93.2026 97.0625 92.8198 97.0625 92.351C97.0625 91.8744 96.6875 91.4994 96.2109 91.4994C95.7422 91.4994 95.3594 91.8744 95.3594 92.351C95.3594 92.8198 95.7422 93.2026 96.2109 93.2026ZM95.5312 102.773H96.8906V94.6479H95.5312V102.773Z" fill="#A30C4A"/>
<path d="M102.078 105.835C104.32 105.835 105.75 104.546 105.75 102.609V94.6479H104.453V96.0151H104.43C103.891 95.0698 102.938 94.5073 101.789 94.5073C99.6875 94.5073 98.3281 96.1323 98.3281 98.6791C98.3281 101.203 99.6875 102.835 101.758 102.835C102.898 102.835 103.859 102.257 104.359 101.374H104.391V102.656C104.391 103.867 103.539 104.679 102.133 104.679C101.117 104.679 100.312 104.187 100.047 103.445H98.6484C98.875 104.828 100.289 105.835 102.078 105.835ZM102.031 101.64C100.633 101.64 99.7188 100.499 99.7188 98.6791C99.7188 96.8588 100.633 95.7026 102.031 95.7026C103.445 95.7026 104.391 96.8901 104.391 98.6791C104.391 100.468 103.445 101.64 102.031 101.64Z" fill="#A30C4A"/>
<path d="M107.594 102.773H108.953V98.0385C108.953 96.6323 109.789 95.7104 111.141 95.7104C112.414 95.7104 113.062 96.4838 113.062 97.7729V102.773H114.422V97.5229C114.422 95.7104 113.344 94.5073 111.562 94.5073C110.328 94.5073 109.438 95.0385 108.984 95.9448H108.953V91.4994H107.594V102.773Z" fill="#A30C4A"/>
<path d="M116.586 92.6869V94.6479H115.375V95.7651H116.586V100.664C116.586 102.226 117.164 102.835 118.656 102.835C118.977 102.835 119.352 102.812 119.516 102.773V101.632C119.422 101.648 119.109 101.671 118.953 101.671C118.258 101.671 117.945 101.335 117.945 100.593V95.7651H119.523V94.6479H117.945V92.6869H116.586Z" fill="#A30C4A"/>
<path d="M120.836 96.8901C120.836 98.0619 121.578 98.7729 123.109 99.1401L124.398 99.4526C125.328 99.6791 125.648 100.015 125.648 100.601C125.648 101.335 124.969 101.804 123.867 101.804C122.766 101.804 122.141 101.359 121.977 100.429H120.617C120.773 101.953 121.961 102.914 123.867 102.914C125.68 102.914 127.016 101.914 127.016 100.499C127.016 99.3354 126.422 98.6948 124.781 98.2963L123.492 97.9838C122.586 97.7651 122.172 97.3823 122.172 96.8198C122.172 96.1088 122.828 95.6166 123.82 95.6166C124.82 95.6166 125.445 96.1401 125.547 96.9916H126.844C126.789 95.5541 125.602 94.5073 123.82 94.5073C122.062 94.5073 120.836 95.4994 120.836 96.8901Z" fill="#A30C4A"/>
<path d="M87.3722 54.3297H94.5312C94.5312 50.7757 97.3182 48.2956 101 48.2956C104.324 48.2956 106.599 50.5456 106.599 53.5115C106.599 56.0684 105.551 57.8326 100.872 62.3326L87.8068 74.7076V80.0002H114.628V73.8638H97.9062V73.7104L105.653 66.2956C111.892 60.3382 114.116 57.5513 114.116 53.0257C114.116 46.8894 108.901 42.2871 101 42.2871C92.9972 42.2871 87.3722 47.2218 87.3722 54.3297Z" fill="#A30C4A"/>
<path d="M150.383 91.4991V102.773H154.172C157.523 102.773 159.492 100.687 159.492 97.1319C159.492 93.5851 157.516 91.4991 154.172 91.4991H150.383ZM151.789 92.7648H154.078C156.641 92.7648 158.055 94.3273 158.055 97.1476C158.055 99.9444 156.633 101.507 154.078 101.507H151.789V92.7648Z" fill="#A30C4A"/>
<path d="M166.422 100.444C166.195 101.21 165.438 101.734 164.406 101.734C162.945 101.734 162.031 100.71 162.031 99.1554V99.0773H167.859V98.5616C167.859 96.1007 166.508 94.5069 164.312 94.5069C162.07 94.5069 160.633 96.2179 160.633 98.7413C160.633 101.296 162.047 102.913 164.375 102.913C166.148 102.913 167.523 101.866 167.758 100.444H166.422ZM164.289 95.6866C165.57 95.6866 166.422 96.6554 166.453 98.0148H162.039C162.125 96.6632 163.016 95.6866 164.289 95.6866Z" fill="#A30C4A"/>
<path d="M175.984 97.3116C175.812 95.8507 174.602 94.5069 172.57 94.5069C170.328 94.5069 168.836 96.1476 168.836 98.7101C168.836 101.327 170.336 102.913 172.586 102.913C174.43 102.913 175.789 101.773 176 100.155H174.664C174.43 101.132 173.703 101.718 172.594 101.718C171.188 101.718 170.219 100.601 170.219 98.7101C170.219 96.8663 171.172 95.7023 172.578 95.7023C173.773 95.7023 174.461 96.4288 174.656 97.3116H175.984Z" fill="#A30C4A"/>
<path d="M180.617 102.913C182.859 102.913 184.375 101.296 184.375 98.7101C184.375 96.1163 182.859 94.5069 180.617 94.5069C178.367 94.5069 176.852 96.1163 176.852 98.7101C176.852 101.296 178.367 102.913 180.617 102.913ZM180.617 101.718C179.18 101.718 178.234 100.624 178.234 98.7101C178.234 96.796 179.18 95.7023 180.617 95.7023C182.055 95.7023 182.992 96.796 182.992 98.7101C182.992 100.624 182.055 101.718 180.617 101.718Z" fill="#A30C4A"/>
<path d="M185.75 102.773H187.109V97.7101C187.109 96.5616 187.797 95.8038 188.852 95.8038C189.18 95.8038 189.469 95.8429 189.578 95.8819V94.5616C189.469 94.546 189.266 94.5069 189.031 94.5069C188.078 94.5069 187.328 95.0773 187.062 95.9757H187.031V94.6476H185.75V102.773Z" fill="#A30C4A"/>
<path d="M192.906 102.913C194 102.913 195.031 102.304 195.516 101.374H195.547V102.773H196.836V97.1554C196.836 95.5382 195.633 94.5069 193.727 94.5069C191.805 94.5069 190.602 95.5851 190.508 96.9913H191.82C191.992 96.1944 192.648 95.7023 193.695 95.7023C194.82 95.7023 195.477 96.296 195.477 97.2882V97.9679L193.148 98.1007C191.273 98.2101 190.203 99.0851 190.203 100.476C190.203 101.937 191.289 102.913 192.906 102.913ZM193.211 101.757C192.234 101.757 191.586 101.249 191.586 100.476C191.586 99.7101 192.211 99.2257 193.305 99.1554L195.477 99.0226V99.6866C195.477 100.859 194.492 101.757 193.211 101.757Z" fill="#A30C4A"/>
<path d="M199 92.6866V94.6476H197.789V95.7648H199V100.663C199 102.226 199.578 102.835 201.07 102.835C201.391 102.835 201.766 102.812 201.93 102.773V101.632C201.836 101.648 201.523 101.671 201.367 101.671C200.672 101.671 200.359 101.335 200.359 100.593V95.7648H201.938V94.6476H200.359V92.6866H199Z" fill="#A30C4A"/>
<path d="M204.141 93.2023C204.617 93.2023 204.992 92.8194 204.992 92.3507C204.992 91.8741 204.617 91.4991 204.141 91.4991C203.672 91.4991 203.289 91.8741 203.289 92.3507C203.289 92.8194 203.672 93.2023 204.141 93.2023ZM203.461 102.773H204.82V94.6476H203.461V102.773Z" fill="#A30C4A"/>
<path d="M210.023 102.913C212.266 102.913 213.781 101.296 213.781 98.7101C213.781 96.1163 212.266 94.5069 210.023 94.5069C207.773 94.5069 206.258 96.1163 206.258 98.7101C206.258 101.296 207.773 102.913 210.023 102.913ZM210.023 101.718C208.586 101.718 207.641 100.624 207.641 98.7101C207.641 96.796 208.586 95.7023 210.023 95.7023C211.461 95.7023 212.398 96.796 212.398 98.7101C212.398 100.624 211.461 101.718 210.023 101.718Z" fill="#A30C4A"/>
<path d="M215.156 102.773H216.516V97.9913C216.516 96.6163 217.352 95.7101 218.633 95.7101C219.883 95.7101 220.5 96.4288 220.5 97.7413V102.773H221.859V97.4991C221.859 95.6554 220.828 94.5069 219.047 94.5069C217.789 94.5069 216.922 95.0694 216.469 95.9444H216.438V94.6476H215.156V102.773Z" fill="#A30C4A"/>
<path d="M180.259 79.9999H187.903V43.105H180.233L170.696 49.7271V56.5794L180.105 50.1874H180.259V79.9999Z" fill="#A30C4A"/>
</svg>
