<svg width="784" height="162" viewBox="0 0 784 162" fill="none" xmlns="http://www.w3.org/2000/svg">
<rect opacity="0.2" x="129" y="45" width="582" height="24" fill="#EE376A"/>
<rect opacity="0.2" x="129" y="81" width="582" height="24" fill="#EE376A"/>
<path d="M95.1641 61.0002V60.1842H97.3721V54.5442H95.6561V53.9082C96.1121 53.8442 96.4921 53.7682 96.7961 53.6802C97.1001 53.5922 97.3761 53.4802 97.6241 53.3442H98.3561V60.1842H100.36V61.0002H95.1641Z" fill="#630233"/>
<path d="M104.627 61.1442C104.283 61.1442 103.971 61.1122 103.691 61.0482C103.419 60.9922 103.171 60.9162 102.947 60.8202C102.731 60.7242 102.531 60.6162 102.347 60.4962C102.171 60.3682 102.011 60.2362 101.867 60.1002L102.359 59.4522C102.487 59.5642 102.623 59.6762 102.767 59.7882C102.911 59.8922 103.067 59.9842 103.235 60.0642C103.411 60.1442 103.603 60.2082 103.811 60.2562C104.027 60.3042 104.263 60.3282 104.519 60.3282C104.791 60.3282 105.043 60.2882 105.275 60.2082C105.515 60.1202 105.723 60.0002 105.899 59.8482C106.075 59.6962 106.211 59.5122 106.307 59.2962C106.411 59.0802 106.463 58.8402 106.463 58.5762C106.463 58.0482 106.291 57.6362 105.947 57.3402C105.611 57.0442 105.155 56.8962 104.579 56.8962C104.259 56.8962 103.987 56.9362 103.763 57.0162C103.539 57.0962 103.291 57.2122 103.019 57.3642L102.491 57.0282L102.743 53.3442H107.075V54.1962H103.619L103.415 56.4642C103.639 56.3682 103.855 56.2922 104.063 56.2362C104.279 56.1802 104.535 56.1522 104.831 56.1522C105.199 56.1522 105.543 56.2002 105.863 56.2962C106.183 56.3922 106.459 56.5402 106.691 56.7402C106.931 56.9322 107.119 57.1802 107.255 57.4842C107.391 57.7802 107.459 58.1362 107.459 58.5522C107.459 58.9682 107.379 59.3362 107.219 59.6562C107.067 59.9762 106.859 60.2482 106.595 60.4722C106.331 60.6882 106.027 60.8562 105.683 60.9762C105.347 61.0882 104.995 61.1442 104.627 61.1442Z" fill="#630233"/>
<path d="M111.991 61.1442C111.135 61.1442 110.463 60.8002 109.975 60.1122C109.487 59.4162 109.243 58.4282 109.243 57.1482C109.243 55.8602 109.487 54.8802 109.975 54.2082C110.463 53.5362 111.135 53.2002 111.991 53.2002C112.847 53.2002 113.519 53.5362 114.007 54.2082C114.495 54.8802 114.739 55.8602 114.739 57.1482C114.739 58.4282 114.495 59.4162 114.007 60.1122C113.519 60.8002 112.847 61.1442 111.991 61.1442ZM111.991 60.3522C112.527 60.3522 112.963 60.0922 113.299 59.5722C113.643 59.0522 113.815 58.2442 113.815 57.1482C113.815 56.5962 113.771 56.1242 113.683 55.7322C113.595 55.3322 113.467 55.0042 113.299 54.7482C113.139 54.4842 112.947 54.2922 112.723 54.1722C112.499 54.0522 112.255 53.9922 111.991 53.9922C111.727 53.9922 111.483 54.0522 111.259 54.1722C111.035 54.2922 110.839 54.4842 110.671 54.7482C110.511 55.0042 110.387 55.3322 110.299 55.7322C110.211 56.1242 110.167 56.5962 110.167 57.1482C110.167 58.2442 110.335 59.0522 110.671 59.5722C111.015 60.0922 111.455 60.3522 111.991 60.3522ZM111.991 57.8682C111.791 57.8682 111.615 57.8002 111.463 57.6642C111.319 57.5202 111.247 57.3202 111.247 57.0642C111.247 56.8162 111.319 56.6242 111.463 56.4882C111.615 56.3442 111.791 56.2722 111.991 56.2722C112.191 56.2722 112.363 56.3442 112.507 56.4882C112.659 56.6242 112.735 56.8162 112.735 57.0642C112.735 57.3202 112.659 57.5202 112.507 57.6642C112.363 57.8002 112.191 57.8682 111.991 57.8682Z" fill="#630233"/>
<path d="M117.59 57.1482C117.102 57.1482 116.702 56.9722 116.39 56.6202C116.078 56.2682 115.922 55.7802 115.922 55.1562C115.922 54.5322 116.078 54.0522 116.39 53.7162C116.702 53.3722 117.102 53.2002 117.59 53.2002C118.078 53.2002 118.478 53.3722 118.79 53.7162C119.102 54.0522 119.258 54.5322 119.258 55.1562C119.258 55.7802 119.102 56.2682 118.79 56.6202C118.478 56.9722 118.078 57.1482 117.59 57.1482ZM117.59 56.5482C117.846 56.5482 118.066 56.4362 118.25 56.2122C118.434 55.9802 118.526 55.6282 118.526 55.1562C118.526 54.6762 118.434 54.3282 118.25 54.1122C118.066 53.8962 117.846 53.7882 117.59 53.7882C117.334 53.7882 117.114 53.8962 116.93 54.1122C116.746 54.3282 116.654 54.6762 116.654 55.1562C116.654 55.6282 116.746 55.9802 116.93 56.2122C117.114 56.4362 117.334 56.5482 117.59 56.5482ZM116.51 60.6162L115.922 60.0762L118.118 57.8202L118.514 58.1802L116.51 60.6162ZM120.254 56.3082L119.858 55.9482L121.862 53.5122L122.45 54.0522L120.254 56.3082ZM120.794 61.1442C120.306 61.1442 119.906 60.9682 119.594 60.6162C119.282 60.2642 119.126 59.7762 119.126 59.1522C119.126 58.5282 119.282 58.0482 119.594 57.7122C119.906 57.3682 120.306 57.1962 120.794 57.1962C121.282 57.1962 121.682 57.3682 121.994 57.7122C122.306 58.0482 122.462 58.5282 122.462 59.1522C122.462 59.7762 122.306 60.2642 121.994 60.6162C121.682 60.9682 121.282 61.1442 120.794 61.1442ZM120.794 60.5442C121.05 60.5442 121.27 60.4322 121.454 60.2082C121.638 59.9762 121.73 59.6242 121.73 59.1522C121.73 58.6722 121.638 58.3242 121.454 58.1082C121.27 57.8922 121.05 57.7842 120.794 57.7842C120.538 57.7842 120.318 57.8922 120.134 58.1082C119.95 58.3242 119.858 58.6722 119.858 59.1522C119.858 59.6242 119.95 59.9762 120.134 60.2082C120.318 60.4322 120.538 60.5442 120.794 60.5442Z" fill="#630233"/>
<path d="M95.1641 99.0002V98.1842H97.3721V92.5442H95.6561V91.9082C96.1121 91.8442 96.4921 91.7682 96.7961 91.6802C97.1001 91.5922 97.3761 91.4802 97.6241 91.3442H98.3561V98.1842H100.36V99.0002H95.1641Z" fill="#630233"/>
<path d="M104.627 99.1442C104.283 99.1442 103.971 99.1122 103.691 99.0482C103.419 98.9922 103.171 98.9162 102.947 98.8202C102.731 98.7242 102.531 98.6162 102.347 98.4962C102.171 98.3682 102.011 98.2362 101.867 98.1002L102.359 97.4522C102.487 97.5642 102.623 97.6762 102.767 97.7882C102.911 97.8922 103.067 97.9842 103.235 98.0642C103.411 98.1442 103.603 98.2082 103.811 98.2562C104.027 98.3042 104.263 98.3282 104.519 98.3282C104.791 98.3282 105.043 98.2882 105.275 98.2082C105.515 98.1202 105.723 98.0002 105.899 97.8482C106.075 97.6962 106.211 97.5122 106.307 97.2962C106.411 97.0802 106.463 96.8402 106.463 96.5762C106.463 96.0482 106.291 95.6362 105.947 95.3402C105.611 95.0442 105.155 94.8962 104.579 94.8962C104.259 94.8962 103.987 94.9362 103.763 95.0162C103.539 95.0962 103.291 95.2122 103.019 95.3642L102.491 95.0282L102.743 91.3442H107.075V92.1962H103.619L103.415 94.4642C103.639 94.3682 103.855 94.2922 104.063 94.2362C104.279 94.1802 104.535 94.1522 104.831 94.1522C105.199 94.1522 105.543 94.2002 105.863 94.2962C106.183 94.3922 106.459 94.5402 106.691 94.7402C106.931 94.9322 107.119 95.1802 107.255 95.4842C107.391 95.7802 107.459 96.1362 107.459 96.5522C107.459 96.9682 107.379 97.3362 107.219 97.6562C107.067 97.9762 106.859 98.2482 106.595 98.4722C106.331 98.6882 106.027 98.8562 105.683 98.9762C105.347 99.0882 104.995 99.1442 104.627 99.1442Z" fill="#630233"/>
<path d="M111.991 99.1442C111.135 99.1442 110.463 98.8002 109.975 98.1122C109.487 97.4162 109.243 96.4282 109.243 95.1482C109.243 93.8602 109.487 92.8802 109.975 92.2082C110.463 91.5362 111.135 91.2002 111.991 91.2002C112.847 91.2002 113.519 91.5362 114.007 92.2082C114.495 92.8802 114.739 93.8602 114.739 95.1482C114.739 96.4282 114.495 97.4162 114.007 98.1122C113.519 98.8002 112.847 99.1442 111.991 99.1442ZM111.991 98.3522C112.527 98.3522 112.963 98.0922 113.299 97.5722C113.643 97.0522 113.815 96.2442 113.815 95.1482C113.815 94.5962 113.771 94.1242 113.683 93.7322C113.595 93.3322 113.467 93.0042 113.299 92.7482C113.139 92.4842 112.947 92.2922 112.723 92.1722C112.499 92.0522 112.255 91.9922 111.991 91.9922C111.727 91.9922 111.483 92.0522 111.259 92.1722C111.035 92.2922 110.839 92.4842 110.671 92.7482C110.511 93.0042 110.387 93.3322 110.299 93.7322C110.211 94.1242 110.167 94.5962 110.167 95.1482C110.167 96.2442 110.335 97.0522 110.671 97.5722C111.015 98.0922 111.455 98.3522 111.991 98.3522ZM111.991 95.8682C111.791 95.8682 111.615 95.8002 111.463 95.6642C111.319 95.5202 111.247 95.3202 111.247 95.0642C111.247 94.8162 111.319 94.6242 111.463 94.4882C111.615 94.3442 111.791 94.2722 111.991 94.2722C112.191 94.2722 112.363 94.3442 112.507 94.4882C112.659 94.6242 112.735 94.8162 112.735 95.0642C112.735 95.3202 112.659 95.5202 112.507 95.6642C112.363 95.8002 112.191 95.8682 111.991 95.8682Z" fill="#630233"/>
<path d="M117.59 95.1482C117.102 95.1482 116.702 94.9722 116.39 94.6202C116.078 94.2682 115.922 93.7802 115.922 93.1562C115.922 92.5322 116.078 92.0522 116.39 91.7162C116.702 91.3722 117.102 91.2002 117.59 91.2002C118.078 91.2002 118.478 91.3722 118.79 91.7162C119.102 92.0522 119.258 92.5322 119.258 93.1562C119.258 93.7802 119.102 94.2682 118.79 94.6202C118.478 94.9722 118.078 95.1482 117.59 95.1482ZM117.59 94.5482C117.846 94.5482 118.066 94.4362 118.25 94.2122C118.434 93.9802 118.526 93.6282 118.526 93.1562C118.526 92.6762 118.434 92.3282 118.25 92.1122C118.066 91.8962 117.846 91.7882 117.59 91.7882C117.334 91.7882 117.114 91.8962 116.93 92.1122C116.746 92.3282 116.654 92.6762 116.654 93.1562C116.654 93.6282 116.746 93.9802 116.93 94.2122C117.114 94.4362 117.334 94.5482 117.59 94.5482ZM116.51 98.6162L115.922 98.0762L118.118 95.8202L118.514 96.1802L116.51 98.6162ZM120.254 94.3082L119.858 93.9482L121.862 91.5122L122.45 92.0522L120.254 94.3082ZM120.794 99.1442C120.306 99.1442 119.906 98.9682 119.594 98.6162C119.282 98.2642 119.126 97.7762 119.126 97.1522C119.126 96.5282 119.282 96.0482 119.594 95.7122C119.906 95.3682 120.306 95.1962 120.794 95.1962C121.282 95.1962 121.682 95.3682 121.994 95.7122C122.306 96.0482 122.462 96.5282 122.462 97.1522C122.462 97.7762 122.306 98.2642 121.994 98.6162C121.682 98.9682 121.282 99.1442 120.794 99.1442ZM120.794 98.5442C121.05 98.5442 121.27 98.4322 121.454 98.2082C121.638 97.9762 121.73 97.6242 121.73 97.1522C121.73 96.6722 121.638 96.3242 121.454 96.1082C121.27 95.8922 121.05 95.7842 120.794 95.7842C120.538 95.7842 120.318 95.8922 120.134 96.1082C119.95 96.3242 119.858 96.6722 119.858 97.1522C119.858 97.6242 119.95 97.9762 120.134 98.2082C120.318 98.4322 120.538 98.5442 120.794 98.5442Z" fill="#630233"/>
<path d="M52.508 79.0001C52.54 78.3201 52.604 77.7001 52.7 77.1401C52.804 76.5721 52.948 76.0361 53.132 75.5321C53.324 75.0201 53.564 74.5241 53.852 74.0441C54.14 73.5561 54.492 73.0521 54.908 72.5321H50.792V71.3681H56.432V72.2081C55.936 72.7601 55.532 73.2881 55.22 73.7921C54.908 74.2881 54.66 74.7961 54.476 75.3161C54.292 75.8361 54.16 76.3961 54.08 76.9961C54 77.5881 53.944 78.2561 53.912 79.0001H52.508Z" fill="#630233"/>
<path d="M60.6033 79.1441C59.9313 79.1441 59.3713 79.0401 58.9233 78.8321C58.4833 78.6161 58.1113 78.3681 57.8073 78.0881L58.4433 77.2001C58.6993 77.4161 58.9833 77.6081 59.2953 77.7761C59.6153 77.9361 59.9953 78.0161 60.4353 78.0161C60.9153 78.0161 61.3153 77.8881 61.6353 77.6321C61.9633 77.3761 62.1273 77.0161 62.1273 76.5521C62.1273 76.0961 61.9753 75.7441 61.6713 75.4961C61.3753 75.2481 60.9833 75.1241 60.4953 75.1241C60.2153 75.1241 59.9753 75.1601 59.7753 75.2321C59.5753 75.2961 59.3433 75.4041 59.0793 75.5561L58.4193 75.1361L58.6593 71.3681H63.1593V72.5321H59.8593L59.6913 74.3801C59.8913 74.3001 60.0833 74.2401 60.2673 74.2001C60.4513 74.1521 60.6593 74.1281 60.8913 74.1281C61.2513 74.1281 61.5913 74.1761 61.9113 74.2721C62.2313 74.3681 62.5073 74.5161 62.7393 74.7161C62.9793 74.9081 63.1673 75.1561 63.3033 75.4601C63.4473 75.7561 63.5193 76.1081 63.5193 76.5161C63.5193 76.9321 63.4393 77.3041 63.2793 77.6321C63.1193 77.9601 62.9033 78.2361 62.6313 78.4601C62.3593 78.6841 62.0473 78.8561 61.6953 78.9761C61.3513 79.0881 60.9873 79.1441 60.6033 79.1441Z" fill="#630233"/>
<path d="M66.4426 75.2081C66.1946 75.2081 65.9626 75.1641 65.7466 75.0761C65.5386 74.9801 65.3586 74.8441 65.2066 74.6681C65.0546 74.4921 64.9346 74.2801 64.8466 74.0321C64.7586 73.7841 64.7146 73.5041 64.7146 73.1921C64.7146 72.8801 64.7586 72.6041 64.8466 72.3641C64.9346 72.1161 65.0546 71.9081 65.2066 71.7401C65.3586 71.5721 65.5386 71.4441 65.7466 71.3561C65.9626 71.2681 66.1946 71.2241 66.4426 71.2241C66.6906 71.2241 66.9186 71.2681 67.1266 71.3561C67.3426 71.4441 67.5266 71.5721 67.6786 71.7401C67.8306 71.9081 67.9506 72.1161 68.0386 72.3641C68.1266 72.6041 68.1706 72.8801 68.1706 73.1921C68.1706 73.5041 68.1266 73.7841 68.0386 74.0321C67.9506 74.2801 67.8306 74.4921 67.6786 74.6681C67.5266 74.8441 67.3426 74.9801 67.1266 75.0761C66.9186 75.1641 66.6906 75.2081 66.4426 75.2081ZM66.4426 74.4401C66.6506 74.4401 66.8266 74.3441 66.9706 74.1521C67.1146 73.9601 67.1866 73.6401 67.1866 73.1921C67.1866 72.7441 67.1146 72.4321 66.9706 72.2561C66.8266 72.0801 66.6506 71.9921 66.4426 71.9921C66.2346 71.9921 66.0586 72.0801 65.9146 72.2561C65.7706 72.4321 65.6986 72.7441 65.6986 73.1921C65.6986 73.6401 65.7706 73.9601 65.9146 74.1521C66.0586 74.3441 66.2346 74.4401 66.4426 74.4401ZM65.3986 78.6401L64.6546 77.9321L66.8746 75.7601L67.3786 76.2281L65.3986 78.6401ZM69.1066 74.3921L68.6026 73.9241L70.5826 71.5121L71.3266 72.2201L69.1066 74.3921ZM69.5506 79.1441C69.3026 79.1441 69.0706 79.0961 68.8546 79.0001C68.6466 78.9121 68.4666 78.7801 68.3146 78.6041C68.1626 78.4281 68.0426 78.2161 67.9546 77.9681C67.8666 77.7201 67.8226 77.4401 67.8226 77.1281C67.8226 76.8161 67.8666 76.5401 67.9546 76.3001C68.0426 76.0521 68.1626 75.8441 68.3146 75.6761C68.4666 75.5081 68.6466 75.3801 68.8546 75.2921C69.0706 75.2041 69.3026 75.1601 69.5506 75.1601C69.7986 75.1601 70.0266 75.2041 70.2346 75.2921C70.4506 75.3801 70.6346 75.5081 70.7866 75.6761C70.9386 75.8441 71.0586 76.0521 71.1466 76.3001C71.2346 76.5401 71.2786 76.8161 71.2786 77.1281C71.2786 77.4401 71.2346 77.7201 71.1466 77.9681C71.0586 78.2161 70.9386 78.4281 70.7866 78.6041C70.6346 78.7801 70.4506 78.9121 70.2346 79.0001C70.0266 79.0961 69.7986 79.1441 69.5506 79.1441ZM69.5506 78.3761C69.7586 78.3761 69.9346 78.2801 70.0786 78.0881C70.2226 77.8961 70.2946 77.5761 70.2946 77.1281C70.2946 76.6801 70.2226 76.3681 70.0786 76.1921C69.9346 76.0161 69.7586 75.9281 69.5506 75.9281C69.3426 75.9281 69.1666 76.0161 69.0226 76.1921C68.8786 76.3681 68.8066 76.6801 68.8066 77.1281C68.8066 77.5761 68.8786 77.8961 69.0226 78.0881C69.1666 78.2801 69.3426 78.3761 69.5506 78.3761Z" fill="#630233"/>
<path d="M72.5219 74.2001V73.1921H77.8499V74.2001H72.5219ZM72.5219 76.8761V75.8681H77.8499V76.8761H72.5219Z" fill="#630233"/>
<path d="M79.8372 79.0001V77.8721H81.9612V72.8561H80.2692V71.9921C80.5092 71.9601 80.7252 71.9241 80.9172 71.8841C81.1092 71.8361 81.2852 71.7881 81.4452 71.7401C81.6132 71.6921 81.7692 71.6361 81.9132 71.5721C82.0572 71.5081 82.1972 71.4401 82.3332 71.3681H83.3412V77.8721H85.2132V79.0001H79.8372Z" fill="#630233"/>
<path d="M86.7566 79.0001V78.1961C87.3566 77.6841 87.8926 77.2161 88.3646 76.7921C88.8366 76.3601 89.2366 75.9601 89.5646 75.5921C89.9006 75.2241 90.1566 74.8801 90.3326 74.5601C90.5086 74.2401 90.5966 73.9321 90.5966 73.6361C90.5966 73.2281 90.4726 72.9081 90.2246 72.6761C89.9766 72.4361 89.6126 72.3161 89.1326 72.3161C88.7966 72.3161 88.4886 72.4001 88.2086 72.5681C87.9366 72.7361 87.6846 72.9361 87.4526 73.1681L86.6966 72.4001C87.0646 72.0241 87.4526 71.7361 87.8606 71.5361C88.2686 71.3281 88.7526 71.2241 89.3126 71.2241C89.7046 71.2241 90.0606 71.2801 90.3806 71.3921C90.7006 71.5041 90.9726 71.6641 91.1966 71.8721C91.4286 72.0721 91.6046 72.3161 91.7246 72.6041C91.8526 72.8921 91.9166 73.2121 91.9166 73.5641C91.9166 73.9001 91.8326 74.2441 91.6646 74.5961C91.5046 74.9401 91.2846 75.2921 91.0046 75.6521C90.7246 76.0041 90.3886 76.3681 89.9966 76.7441C89.6126 77.1201 89.2006 77.5081 88.7606 77.9081C88.9846 77.8921 89.2206 77.8761 89.4686 77.8601C89.7166 77.8361 89.9446 77.8241 90.1526 77.8241H92.3126V79.0001H86.7566Z" fill="#630233"/>
<path d="M94.1559 81.3281V73.1081H95.2959L95.4039 73.7801H95.4399C95.6959 73.5481 95.9879 73.3561 96.3159 73.2041C96.6519 73.0441 96.9879 72.9641 97.3239 72.9641C97.7079 72.9641 98.0479 73.0361 98.3439 73.1801C98.6479 73.3161 98.8999 73.5161 99.0999 73.7801C99.3079 74.0441 99.4639 74.3601 99.5679 74.7281C99.6799 75.0961 99.7359 75.5081 99.7359 75.9641C99.7359 76.4681 99.6639 76.9201 99.5199 77.3201C99.3759 77.7121 99.1799 78.0441 98.9319 78.3161C98.6919 78.5801 98.4119 78.7841 98.0919 78.9281C97.7799 79.0721 97.4559 79.1441 97.1199 79.1441C96.8479 79.1441 96.5679 79.0841 96.2799 78.9641C95.9999 78.8441 95.7439 78.6721 95.5119 78.4481H95.4759L95.5479 79.4801V81.3281H94.1559ZM96.8319 78.0041C97.2559 78.0041 97.6079 77.8361 97.8879 77.5001C98.1679 77.1561 98.3079 76.6481 98.3079 75.9761C98.3079 75.3841 98.1999 74.9241 97.9839 74.5961C97.7679 74.2681 97.4199 74.1041 96.9399 74.1041C96.7159 74.1041 96.4879 74.1601 96.2559 74.2721C96.0239 74.3841 95.7879 74.5641 95.5479 74.8121V77.4641C95.7639 77.6641 95.9839 77.8041 96.2079 77.8841C96.4399 77.9641 96.6479 78.0041 96.8319 78.0041Z" fill="#630233"/>
<path d="M100.979 79.0001L103.115 75.9401L101.123 73.1081H102.623L103.391 74.2241C103.487 74.3841 103.591 74.5521 103.703 74.7281C103.815 74.8961 103.927 75.0641 104.039 75.2321H104.087C104.175 75.0641 104.271 74.8921 104.375 74.7161C104.479 74.5401 104.575 74.3721 104.663 74.2121L105.359 73.1081H106.811L104.807 76.0841L106.955 79.0001H105.455L104.603 77.8361C104.491 77.6761 104.371 77.5041 104.243 77.3201C104.123 77.1361 104.003 76.9601 103.883 76.7921H103.835C103.723 76.9681 103.615 77.1441 103.511 77.3201C103.415 77.4881 103.311 77.6641 103.199 77.8481L102.431 79.0001H100.979Z" fill="#630233"/>
<path d="M131.828 33.7266H130.422V41.125C130.422 43.5312 132.102 45.2656 134.898 45.2656C137.695 45.2656 139.375 43.5312 139.375 41.125V33.7266H137.969V41.0312C137.969 42.7344 136.852 43.9688 134.898 43.9688C132.945 43.9688 131.828 42.7344 131.828 41.0312V33.7266Z" fill="#003440"/>
<path d="M142.062 45H143.406V40.0156C143.406 38.5391 144.273 37.6406 145.617 37.6406C146.961 37.6406 147.602 38.3594 147.602 39.875V45H148.945V39.5469C148.945 37.5469 147.891 36.4297 146 36.4297C144.711 36.4297 143.891 36.9766 143.469 37.9062H143.344V36.5781H142.062V45Z" fill="#003440"/>
<path d="M151.969 45H153.312V37.7031H155.242V36.5781H153.312V35.6797C153.312 34.7578 153.719 34.2891 154.688 34.2891C154.93 34.2891 155.156 34.2969 155.32 34.3281V33.2344C155.039 33.1797 154.742 33.1562 154.414 33.1562C152.812 33.1562 151.969 33.9609 151.969 35.6406V36.5781H150.57V37.7031H151.969V45Z" fill="#003440"/>
<path d="M160.305 45.1484C162.703 45.1484 164.188 43.4922 164.188 40.7891C164.188 38.0781 162.703 36.4297 160.305 36.4297C157.906 36.4297 156.422 38.0781 156.422 40.7891C156.422 43.4922 157.906 45.1484 160.305 45.1484ZM160.305 43.9375C158.711 43.9375 157.812 42.7812 157.812 40.7891C157.812 38.7891 158.711 37.6406 160.305 37.6406C161.898 37.6406 162.797 38.7891 162.797 40.7891C162.797 42.7812 161.898 43.9375 160.305 43.9375Z" fill="#003440"/>
<path d="M166.297 45H167.641V39.7812C167.641 38.5938 168.57 37.7344 169.852 37.7344C170.117 37.7344 170.602 37.7812 170.711 37.8125V36.4688C170.539 36.4453 170.258 36.4297 170.039 36.4297C168.922 36.4297 167.953 37.0078 167.703 37.8281H167.578V36.5781H166.297V45Z" fill="#003440"/>
<path d="M173.422 34.3984V36.5781H172.062V37.7031H173.422V42.8125C173.422 44.4219 174.117 45.0625 175.852 45.0625C176.117 45.0625 176.375 45.0312 176.641 44.9844V43.8516C176.391 43.875 176.258 43.8828 176.016 43.8828C175.141 43.8828 174.766 43.4609 174.766 42.4688V37.7031H176.641V36.5781H174.766V34.3984H173.422Z" fill="#003440"/>
<path d="M185.484 36.5781H184.141V41.5625C184.141 43.0391 183.328 43.9219 181.844 43.9219C180.5 43.9219 179.938 43.2188 179.938 41.7031V36.5781H178.594V42.0312C178.594 44.0234 179.578 45.1484 181.469 45.1484C182.758 45.1484 183.656 44.6172 184.078 43.6797H184.203V45H185.484V36.5781Z" fill="#003440"/>
<path d="M188.016 45H189.359V40.0156C189.359 38.5391 190.227 37.6406 191.57 37.6406C192.914 37.6406 193.555 38.3594 193.555 39.875V45H194.898V39.5469C194.898 37.5469 193.844 36.4297 191.953 36.4297C190.664 36.4297 189.844 36.9766 189.422 37.9062H189.297V36.5781H188.016V45Z" fill="#003440"/>
<path d="M199.703 45.1484C200.828 45.1484 201.75 44.6562 202.297 43.7578H202.422V45H203.703V39.2344C203.703 37.4844 202.555 36.4297 200.5 36.4297C198.703 36.4297 197.375 37.3203 197.195 38.6719H198.555C198.742 38.0078 199.445 37.625 200.453 37.625C201.711 37.625 202.359 38.1953 202.359 39.2344V40L199.93 40.1484C197.969 40.2656 196.859 41.1328 196.859 42.6406C196.859 44.1797 198.07 45.1484 199.703 45.1484ZM199.953 43.9688C198.977 43.9688 198.25 43.4688 198.25 42.6094C198.25 41.7656 198.812 41.3203 200.094 41.2344L202.359 41.0859V41.8594C202.359 43.0625 201.336 43.9688 199.953 43.9688Z" fill="#003440"/>
<path d="M206.75 34.3984V36.5781H205.391V37.7031H206.75V42.8125C206.75 44.4219 207.445 45.0625 209.18 45.0625C209.445 45.0625 209.703 45.0312 209.969 44.9844V43.8516C209.719 43.875 209.586 43.8828 209.344 43.8828C208.469 43.8828 208.094 43.4609 208.094 42.4688V37.7031H209.969V36.5781H208.094V34.3984H206.75Z" fill="#003440"/>
<path d="M217.453 42.8203C217.102 43.5625 216.367 43.9609 215.281 43.9609C213.852 43.9609 212.922 42.9062 212.852 41.2422V41.1797H218.906V40.6641C218.906 38.0469 217.523 36.4297 215.25 36.4297C212.938 36.4297 211.453 38.1484 211.453 40.7969C211.453 43.4609 212.914 45.1484 215.25 45.1484C217.094 45.1484 218.406 44.2578 218.797 42.8203H217.453ZM215.234 37.6172C216.57 37.6172 217.461 38.6016 217.492 40.0938H212.852C212.953 38.6016 213.891 37.6172 215.234 37.6172Z" fill="#003440"/>
<path d="M221.094 45H222.438V33.2344H221.094V45Z" fill="#003440"/>
<path d="M225.766 48.0469C227.258 48.0469 227.93 47.4688 228.648 45.5156L231.938 36.5781H230.508L228.203 43.5078H228.078L225.766 36.5781H224.312L227.43 45.0078L227.273 45.5078C226.922 46.5234 226.5 46.8906 225.727 46.8906C225.539 46.8906 225.328 46.8828 225.164 46.8516V48C225.352 48.0312 225.586 48.0469 225.766 48.0469Z" fill="#003440"/>
<path d="M233.414 47.8672L234.641 43.4219H233.148L232.406 47.8672H233.414Z" fill="#003440"/>
<path d="M242.391 34.3984V36.5781H241.031V37.7031H242.391V42.8125C242.391 44.4219 243.086 45.0625 244.82 45.0625C245.086 45.0625 245.344 45.0312 245.609 44.9844V43.8516C245.359 43.875 245.227 43.8828 244.984 43.8828C244.109 43.8828 243.734 43.4609 243.734 42.4688V37.7031H245.609V36.5781H243.734V34.3984H242.391Z" fill="#003440"/>
<path d="M247.719 45H249.062V40.0156C249.062 38.5938 249.891 37.6406 251.398 37.6406C252.672 37.6406 253.344 38.3828 253.344 39.875V45H254.688V39.5469C254.688 37.5703 253.562 36.4297 251.781 36.4297C250.492 36.4297 249.609 36.9766 249.188 37.9062H249.062V33.2344H247.719V45Z" fill="#003440"/>
<path d="M262.719 42.8203C262.367 43.5625 261.633 43.9609 260.547 43.9609C259.117 43.9609 258.188 42.9062 258.117 41.2422V41.1797H264.172V40.6641C264.172 38.0469 262.789 36.4297 260.516 36.4297C258.203 36.4297 256.719 38.1484 256.719 40.7969C256.719 43.4609 258.18 45.1484 260.516 45.1484C262.359 45.1484 263.672 44.2578 264.062 42.8203H262.719ZM260.5 37.6172C261.836 37.6172 262.727 38.6016 262.758 40.0938H258.117C258.219 38.6016 259.156 37.6172 260.5 37.6172Z" fill="#003440"/>
<path d="M271.359 34.3984V36.5781H270V37.7031H271.359V42.8125C271.359 44.4219 272.055 45.0625 273.789 45.0625C274.055 45.0625 274.312 45.0312 274.578 44.9844V43.8516C274.328 43.875 274.195 43.8828 273.953 43.8828C273.078 43.8828 272.703 43.4609 272.703 42.4688V37.7031H274.578V36.5781H272.703V34.3984H271.359Z" fill="#003440"/>
<path d="M287.203 36.5781H285.852L284.195 43.3125H284.07L282.188 36.5781H280.898L279.016 43.3125H278.891L277.234 36.5781H275.875L278.234 45H279.594L281.469 38.4844H281.594L283.477 45H284.844L287.203 36.5781Z" fill="#003440"/>
<path d="M292.148 45.1484C294.547 45.1484 296.031 43.4922 296.031 40.7891C296.031 38.0781 294.547 36.4297 292.148 36.4297C289.75 36.4297 288.266 38.0781 288.266 40.7891C288.266 43.4922 289.75 45.1484 292.148 45.1484ZM292.148 43.9375C290.555 43.9375 289.656 42.7812 289.656 40.7891C289.656 38.7891 290.555 37.6406 292.148 37.6406C293.742 37.6406 294.641 38.7891 294.641 40.7891C294.641 42.7812 293.742 43.9375 292.148 43.9375Z" fill="#003440"/>
<path d="M302.734 45H304.078V40.0156C304.078 38.5938 304.906 37.6406 306.414 37.6406C307.688 37.6406 308.359 38.3828 308.359 39.875V45H309.703V39.5469C309.703 37.5703 308.578 36.4297 306.797 36.4297C305.508 36.4297 304.625 36.9766 304.203 37.9062H304.078V33.2344H302.734V45Z" fill="#003440"/>
<path d="M317.734 42.8203C317.383 43.5625 316.648 43.9609 315.562 43.9609C314.133 43.9609 313.203 42.9062 313.133 41.2422V41.1797H319.188V40.6641C319.188 38.0469 317.805 36.4297 315.531 36.4297C313.219 36.4297 311.734 38.1484 311.734 40.7969C311.734 43.4609 313.195 45.1484 315.531 45.1484C317.375 45.1484 318.688 44.2578 319.078 42.8203H317.734ZM315.516 37.6172C316.852 37.6172 317.742 38.6016 317.773 40.0938H313.133C313.234 38.6016 314.172 37.6172 315.516 37.6172Z" fill="#003440"/>
<path d="M321.297 45H322.641V39.7812C322.641 38.5938 323.492 37.6406 324.594 37.6406C325.656 37.6406 326.352 38.2812 326.352 39.2812V45H327.695V39.5859C327.695 38.5156 328.477 37.6406 329.648 37.6406C330.836 37.6406 331.422 38.25 331.422 39.4922V45H332.766V39.1797C332.766 37.4141 331.805 36.4297 330.086 36.4297C328.922 36.4297 327.961 37.0156 327.508 37.9062H327.383C326.992 37.0312 326.195 36.4297 325.055 36.4297C323.93 36.4297 323.086 36.9688 322.703 37.9062H322.578V36.5781H321.297V45Z" fill="#003440"/>
<path d="M335.922 34.9531C336.438 34.9531 336.859 34.5312 336.859 34.0156C336.859 33.5 336.438 33.0781 335.922 33.0781C335.406 33.0781 334.984 33.5 334.984 34.0156C334.984 34.5312 335.406 34.9531 335.922 34.9531ZM335.25 45H336.594V36.5781H335.25V45Z" fill="#003440"/>
<path d="M338.961 38.8828C338.961 40.1016 339.68 40.7812 341.258 41.1641L342.703 41.5156C343.602 41.7344 344.039 42.125 344.039 42.7031C344.039 43.4766 343.227 44.0156 342.094 44.0156C341.016 44.0156 340.344 43.5625 340.117 42.8516H338.734C338.883 44.25 340.172 45.1484 342.047 45.1484C343.961 45.1484 345.422 44.1094 345.422 42.6016C345.422 41.3906 344.656 40.7031 343.07 40.3203L341.773 40.0078C340.781 39.7656 340.312 39.4062 340.312 38.8281C340.312 38.0781 341.094 37.5703 342.094 37.5703C343.109 37.5703 343.766 38.0156 343.945 38.6875H345.273C345.094 37.3047 343.867 36.4297 342.102 36.4297C340.312 36.4297 338.961 37.4844 338.961 38.8828Z" fill="#003440"/>
<path d="M351.633 36.4297C350.484 36.4297 349.477 37.0156 348.938 37.9844H348.812V36.5781H347.531V47.8125H348.875V43.7344H349C349.461 44.625 350.43 45.1484 351.633 45.1484C353.773 45.1484 355.172 43.4219 355.172 40.7891C355.172 38.1406 353.781 36.4297 351.633 36.4297ZM351.312 43.9375C349.797 43.9375 348.836 42.7188 348.836 40.7891C348.836 38.8516 349.797 37.6406 351.32 37.6406C352.859 37.6406 353.781 38.8203 353.781 40.7891C353.781 42.7578 352.859 43.9375 351.312 43.9375Z" fill="#003440"/>
<path d="M357.359 45H358.703V40.0156C358.703 38.5938 359.531 37.6406 361.039 37.6406C362.312 37.6406 362.984 38.3828 362.984 39.875V45H364.328V39.5469C364.328 37.5703 363.203 36.4297 361.422 36.4297C360.133 36.4297 359.25 36.9766 358.828 37.9062H358.703V33.2344H357.359V45Z" fill="#003440"/>
<path d="M372.359 42.8203C372.008 43.5625 371.273 43.9609 370.188 43.9609C368.758 43.9609 367.828 42.9062 367.758 41.2422V41.1797H373.812V40.6641C373.812 38.0469 372.43 36.4297 370.156 36.4297C367.844 36.4297 366.359 38.1484 366.359 40.7969C366.359 43.4609 367.82 45.1484 370.156 45.1484C372 45.1484 373.312 44.2578 373.703 42.8203H372.359ZM370.141 37.6172C371.477 37.6172 372.367 38.6016 372.398 40.0938H367.758C367.859 38.6016 368.797 37.6172 370.141 37.6172Z" fill="#003440"/>
<path d="M375.922 45H377.266V39.7812C377.266 38.5938 378.195 37.7344 379.477 37.7344C379.742 37.7344 380.227 37.7812 380.336 37.8125V36.4688C380.164 36.4453 379.883 36.4297 379.664 36.4297C378.547 36.4297 377.578 37.0078 377.328 37.8281H377.203V36.5781H375.922V45Z" fill="#003440"/>
<path d="M387.359 42.8203C387.008 43.5625 386.273 43.9609 385.188 43.9609C383.758 43.9609 382.828 42.9062 382.758 41.2422V41.1797H388.812V40.6641C388.812 38.0469 387.43 36.4297 385.156 36.4297C382.844 36.4297 381.359 38.1484 381.359 40.7969C381.359 43.4609 382.82 45.1484 385.156 45.1484C387 45.1484 388.312 44.2578 388.703 42.8203H387.359ZM385.141 37.6172C386.477 37.6172 387.367 38.6016 387.398 40.0938H382.758C382.859 38.6016 383.797 37.6172 385.141 37.6172Z" fill="#003440"/>
<path d="M390.727 38.8828C390.727 40.1016 391.445 40.7812 393.023 41.1641L394.469 41.5156C395.367 41.7344 395.805 42.125 395.805 42.7031C395.805 43.4766 394.992 44.0156 393.859 44.0156C392.781 44.0156 392.109 43.5625 391.883 42.8516H390.5C390.648 44.25 391.938 45.1484 393.812 45.1484C395.727 45.1484 397.188 44.1094 397.188 42.6016C397.188 41.3906 396.422 40.7031 394.836 40.3203L393.539 40.0078C392.547 39.7656 392.078 39.4062 392.078 38.8281C392.078 38.0781 392.859 37.5703 393.859 37.5703C394.875 37.5703 395.531 38.0156 395.711 38.6875H397.039C396.859 37.3047 395.633 36.4297 393.867 36.4297C392.078 36.4297 390.727 37.4844 390.727 38.8828Z" fill="#003440"/>
<path d="M407.273 45.1484C409.672 45.1484 411.156 43.4922 411.156 40.7891C411.156 38.0781 409.672 36.4297 407.273 36.4297C404.875 36.4297 403.391 38.0781 403.391 40.7891C403.391 43.4922 404.875 45.1484 407.273 45.1484ZM407.273 43.9375C405.68 43.9375 404.781 42.7812 404.781 40.7891C404.781 38.7891 405.68 37.6406 407.273 37.6406C408.867 37.6406 409.766 38.7891 409.766 40.7891C409.766 42.7812 408.867 43.9375 407.273 43.9375Z" fill="#003440"/>
<path d="M413.828 45H415.172V37.7031H417.102V36.5781H415.172V35.6797C415.172 34.7578 415.578 34.2891 416.547 34.2891C416.789 34.2891 417.016 34.2969 417.18 34.3281V33.2344C416.898 33.1797 416.602 33.1562 416.273 33.1562C414.672 33.1562 413.828 33.9609 413.828 35.6406V36.5781H412.43V37.7031H413.828V45Z" fill="#003440"/>
<path d="M427.039 45.1484C429.438 45.1484 430.922 43.4922 430.922 40.7891C430.922 38.0781 429.438 36.4297 427.039 36.4297C424.641 36.4297 423.156 38.0781 423.156 40.7891C423.156 43.4922 424.641 45.1484 427.039 45.1484ZM427.039 43.9375C425.445 43.9375 424.547 42.7812 424.547 40.7891C424.547 38.7891 425.445 37.6406 427.039 37.6406C428.633 37.6406 429.531 38.7891 429.531 40.7891C429.531 42.7812 428.633 43.9375 427.039 43.9375Z" fill="#003440"/>
<path d="M439.844 36.5781H438.5V41.5625C438.5 43.0391 437.688 43.9219 436.203 43.9219C434.859 43.9219 434.297 43.2188 434.297 41.7031V36.5781H432.953V42.0312C432.953 44.0234 433.938 45.1484 435.828 45.1484C437.117 45.1484 438.016 44.6172 438.438 43.6797H438.562V45H439.844V36.5781Z" fill="#003440"/>
<path d="M442.375 45H443.719V39.7812C443.719 38.5938 444.648 37.7344 445.93 37.7344C446.195 37.7344 446.68 37.7812 446.789 37.8125V36.4688C446.617 36.4453 446.336 36.4297 446.117 36.4297C445 36.4297 444.031 37.0078 443.781 37.8281H443.656V36.5781H442.375V45Z" fill="#003440"/>
<path d="M457.172 45.1484C459.305 45.1484 460.703 43.4219 460.703 40.7891C460.703 38.1406 459.312 36.4297 457.172 36.4297C456.016 36.4297 454.992 37 454.531 37.9062H454.406V33.2344H453.062V45H454.344V43.6562H454.469C455 44.5938 456 45.1484 457.172 45.1484ZM456.859 37.6406C458.398 37.6406 459.312 38.8203 459.312 40.7891C459.312 42.7578 458.398 43.9375 456.859 43.9375C455.328 43.9375 454.375 42.7344 454.375 40.7891C454.375 38.8438 455.328 37.6406 456.859 37.6406Z" fill="#003440"/>
<path d="M462.812 45H464.156V39.7812C464.156 38.5938 465.086 37.7344 466.367 37.7344C466.633 37.7344 467.117 37.7812 467.227 37.8125V36.4688C467.055 36.4453 466.773 36.4297 466.555 36.4297C465.438 36.4297 464.469 37.0078 464.219 37.8281H464.094V36.5781H462.812V45Z" fill="#003440"/>
<path d="M471.25 45.1484C472.375 45.1484 473.297 44.6562 473.844 43.7578H473.969V45H475.25V39.2344C475.25 37.4844 474.102 36.4297 472.047 36.4297C470.25 36.4297 468.922 37.3203 468.742 38.6719H470.102C470.289 38.0078 470.992 37.625 472 37.625C473.258 37.625 473.906 38.1953 473.906 39.2344V40L471.477 40.1484C469.516 40.2656 468.406 41.1328 468.406 42.6406C468.406 44.1797 469.617 45.1484 471.25 45.1484ZM471.5 43.9688C470.523 43.9688 469.797 43.4688 469.797 42.6094C469.797 41.7656 470.359 41.3203 471.641 41.2344L473.906 41.0859V41.8594C473.906 43.0625 472.883 43.9688 471.5 43.9688Z" fill="#003440"/>
<path d="M478.438 34.9531C478.953 34.9531 479.375 34.5312 479.375 34.0156C479.375 33.5 478.953 33.0781 478.438 33.0781C477.922 33.0781 477.5 33.5 477.5 34.0156C477.5 34.5312 477.922 34.9531 478.438 34.9531ZM477.766 45H479.109V36.5781H477.766V45Z" fill="#003440"/>
<path d="M481.672 45H483.016V40.0156C483.016 38.5391 483.883 37.6406 485.227 37.6406C486.57 37.6406 487.211 38.3594 487.211 39.875V45H488.555V39.5469C488.555 37.5469 487.5 36.4297 485.609 36.4297C484.32 36.4297 483.5 36.9766 483.078 37.9062H482.953V36.5781H481.672V45Z" fill="#003440"/>
<path d="M495.609 45H496.953V40.0156C496.953 38.5938 497.781 37.6406 499.289 37.6406C500.562 37.6406 501.234 38.3828 501.234 39.875V45H502.578V39.5469C502.578 37.5703 501.453 36.4297 499.672 36.4297C498.383 36.4297 497.5 36.9766 497.078 37.9062H496.953V33.2344H495.609V45Z" fill="#003440"/>
<path d="M507.375 45.1484C508.5 45.1484 509.422 44.6562 509.969 43.7578H510.094V45H511.375V39.2344C511.375 37.4844 510.227 36.4297 508.172 36.4297C506.375 36.4297 505.047 37.3203 504.867 38.6719H506.227C506.414 38.0078 507.117 37.625 508.125 37.625C509.383 37.625 510.031 38.1953 510.031 39.2344V40L507.602 40.1484C505.641 40.2656 504.531 41.1328 504.531 42.6406C504.531 44.1797 505.742 45.1484 507.375 45.1484ZM507.625 43.9688C506.648 43.9688 505.922 43.4688 505.922 42.6094C505.922 41.7656 506.484 41.3203 507.766 41.2344L510.031 41.0859V41.8594C510.031 43.0625 509.008 43.9688 507.625 43.9688Z" fill="#003440"/>
<path d="M520.422 36.5781H518.984L516.68 43.5156H516.555L514.25 36.5781H512.812L515.93 45H517.305L520.422 36.5781Z" fill="#003440"/>
<path d="M527.484 42.8203C527.133 43.5625 526.398 43.9609 525.312 43.9609C523.883 43.9609 522.953 42.9062 522.883 41.2422V41.1797H528.938V40.6641C528.938 38.0469 527.555 36.4297 525.281 36.4297C522.969 36.4297 521.484 38.1484 521.484 40.7969C521.484 43.4609 522.945 45.1484 525.281 45.1484C527.125 45.1484 528.438 44.2578 528.828 42.8203H527.484ZM525.266 37.6172C526.602 37.6172 527.492 38.6016 527.523 40.0938H522.883C522.984 38.6016 523.922 37.6172 525.266 37.6172Z" fill="#003440"/>
<path d="M539.75 45.1484C541.883 45.1484 543.281 43.4219 543.281 40.7891C543.281 38.1406 541.891 36.4297 539.75 36.4297C538.594 36.4297 537.57 37 537.109 37.9062H536.984V33.2344H535.641V45H536.922V43.6562H537.047C537.578 44.5938 538.578 45.1484 539.75 45.1484ZM539.438 37.6406C540.977 37.6406 541.891 38.8203 541.891 40.7891C541.891 42.7578 540.977 43.9375 539.438 43.9375C537.906 43.9375 536.953 42.7344 536.953 40.7891C536.953 38.8438 537.906 37.6406 539.438 37.6406Z" fill="#003440"/>
<path d="M550.969 42.8203C550.617 43.5625 549.883 43.9609 548.797 43.9609C547.367 43.9609 546.438 42.9062 546.367 41.2422V41.1797H552.422V40.6641C552.422 38.0469 551.039 36.4297 548.766 36.4297C546.453 36.4297 544.969 38.1484 544.969 40.7969C544.969 43.4609 546.43 45.1484 548.766 45.1484C550.609 45.1484 551.922 44.2578 552.312 42.8203H550.969ZM548.75 37.6172C550.086 37.6172 550.977 38.6016 551.008 40.0938H546.367C546.469 38.6016 547.406 37.6172 548.75 37.6172Z" fill="#003440"/>
<path d="M561.5 39.1562C561.266 37.6562 560.016 36.4297 557.969 36.4297C555.609 36.4297 554.109 38.1328 554.109 40.7578C554.109 43.4375 555.617 45.1484 557.977 45.1484C560 45.1484 561.258 44.0078 561.5 42.4609H560.141C559.891 43.4141 559.102 43.9375 557.969 43.9375C556.469 43.9375 555.5 42.7031 555.5 40.7578C555.5 38.8516 556.453 37.6406 557.969 37.6406C559.18 37.6406 559.922 38.3203 560.141 39.1562H561.5Z" fill="#003440"/>
<path d="M566.945 45.1484C569.344 45.1484 570.828 43.4922 570.828 40.7891C570.828 38.0781 569.344 36.4297 566.945 36.4297C564.547 36.4297 563.062 38.0781 563.062 40.7891C563.062 43.4922 564.547 45.1484 566.945 45.1484ZM566.945 43.9375C565.352 43.9375 564.453 42.7812 564.453 40.7891C564.453 38.7891 565.352 37.6406 566.945 37.6406C568.539 37.6406 569.438 38.7891 569.438 40.7891C569.438 42.7812 568.539 43.9375 566.945 43.9375Z" fill="#003440"/>
<path d="M572.938 45H574.281V39.7812C574.281 38.5938 575.133 37.6406 576.234 37.6406C577.297 37.6406 577.992 38.2812 577.992 39.2812V45H579.336V39.5859C579.336 38.5156 580.117 37.6406 581.289 37.6406C582.477 37.6406 583.062 38.25 583.062 39.4922V45H584.406V39.1797C584.406 37.4141 583.445 36.4297 581.727 36.4297C580.562 36.4297 579.602 37.0156 579.148 37.9062H579.023C578.633 37.0312 577.836 36.4297 576.695 36.4297C575.57 36.4297 574.727 36.9688 574.344 37.9062H574.219V36.5781H572.938V45Z" fill="#003440"/>
<path d="M592.438 42.8203C592.086 43.5625 591.352 43.9609 590.266 43.9609C588.836 43.9609 587.906 42.9062 587.836 41.2422V41.1797H593.891V40.6641C593.891 38.0469 592.508 36.4297 590.234 36.4297C587.922 36.4297 586.438 38.1484 586.438 40.7969C586.438 43.4609 587.898 45.1484 590.234 45.1484C592.078 45.1484 593.391 44.2578 593.781 42.8203H592.438ZM590.219 37.6172C591.555 37.6172 592.445 38.6016 592.477 40.0938H587.836C587.938 38.6016 588.875 37.6172 590.219 37.6172Z" fill="#003440"/>
<path d="M600.32 38.8828C600.32 40.1016 601.039 40.7812 602.617 41.1641L604.062 41.5156C604.961 41.7344 605.398 42.125 605.398 42.7031C605.398 43.4766 604.586 44.0156 603.453 44.0156C602.375 44.0156 601.703 43.5625 601.477 42.8516H600.094C600.242 44.25 601.531 45.1484 603.406 45.1484C605.32 45.1484 606.781 44.1094 606.781 42.6016C606.781 41.3906 606.016 40.7031 604.43 40.3203L603.133 40.0078C602.141 39.7656 601.672 39.4062 601.672 38.8281C601.672 38.0781 602.453 37.5703 603.453 37.5703C604.469 37.5703 605.125 38.0156 605.305 38.6875H606.633C606.453 37.3047 605.227 36.4297 603.461 36.4297C601.672 36.4297 600.32 37.4844 600.32 38.8828Z" fill="#003440"/>
<path d="M614.469 42.8203C614.117 43.5625 613.383 43.9609 612.297 43.9609C610.867 43.9609 609.938 42.9062 609.867 41.2422V41.1797H615.922V40.6641C615.922 38.0469 614.539 36.4297 612.266 36.4297C609.953 36.4297 608.469 38.1484 608.469 40.7969C608.469 43.4609 609.93 45.1484 612.266 45.1484C614.109 45.1484 615.422 44.2578 615.812 42.8203H614.469ZM612.25 37.6172C613.586 37.6172 614.477 38.6016 614.508 40.0938H609.867C609.969 38.6016 610.906 37.6172 612.25 37.6172Z" fill="#003440"/>
<path d="M622.133 36.4297C620.984 36.4297 619.977 37.0156 619.438 37.9844H619.312V36.5781H618.031V47.8125H619.375V43.7344H619.5C619.961 44.625 620.93 45.1484 622.133 45.1484C624.273 45.1484 625.672 43.4219 625.672 40.7891C625.672 38.1406 624.281 36.4297 622.133 36.4297ZM621.812 43.9375C620.297 43.9375 619.336 42.7188 619.336 40.7891C619.336 38.8516 620.297 37.6406 621.82 37.6406C623.359 37.6406 624.281 38.8203 624.281 40.7891C624.281 42.7578 623.359 43.9375 621.812 43.9375Z" fill="#003440"/>
<path d="M630.125 45.1484C631.25 45.1484 632.172 44.6562 632.719 43.7578H632.844V45H634.125V39.2344C634.125 37.4844 632.977 36.4297 630.922 36.4297C629.125 36.4297 627.797 37.3203 627.617 38.6719H628.977C629.164 38.0078 629.867 37.625 630.875 37.625C632.133 37.625 632.781 38.1953 632.781 39.2344V40L630.352 40.1484C628.391 40.2656 627.281 41.1328 627.281 42.6406C627.281 44.1797 628.492 45.1484 630.125 45.1484ZM630.375 43.9688C629.398 43.9688 628.672 43.4688 628.672 42.6094C628.672 41.7656 629.234 41.3203 630.516 41.2344L632.781 41.0859V41.8594C632.781 43.0625 631.758 43.9688 630.375 43.9688Z" fill="#003440"/>
<path d="M636.609 45H637.953V39.7812C637.953 38.5938 638.883 37.7344 640.164 37.7344C640.43 37.7344 640.914 37.7812 641.023 37.8125V36.4688C640.852 36.4453 640.57 36.4297 640.352 36.4297C639.234 36.4297 638.266 37.0078 638.016 37.8281H637.891V36.5781H636.609V45Z" fill="#003440"/>
<path d="M645.047 45.1484C646.172 45.1484 647.094 44.6562 647.641 43.7578H647.766V45H649.047V39.2344C649.047 37.4844 647.898 36.4297 645.844 36.4297C644.047 36.4297 642.719 37.3203 642.539 38.6719H643.898C644.086 38.0078 644.789 37.625 645.797 37.625C647.055 37.625 647.703 38.1953 647.703 39.2344V40L645.273 40.1484C643.312 40.2656 642.203 41.1328 642.203 42.6406C642.203 44.1797 643.414 45.1484 645.047 45.1484ZM645.297 43.9688C644.32 43.9688 643.594 43.4688 643.594 42.6094C643.594 41.7656 644.156 41.3203 645.438 41.2344L647.703 41.0859V41.8594C647.703 43.0625 646.68 43.9688 645.297 43.9688Z" fill="#003440"/>
<path d="M652.094 34.3984V36.5781H650.734V37.7031H652.094V42.8125C652.094 44.4219 652.789 45.0625 654.523 45.0625C654.789 45.0625 655.047 45.0312 655.312 44.9844V43.8516C655.062 43.875 654.93 43.8828 654.688 43.8828C653.812 43.8828 653.438 43.4609 653.438 42.4688V37.7031H655.312V36.5781H653.438V34.3984H652.094Z" fill="#003440"/>
<path d="M662.797 42.8203C662.445 43.5625 661.711 43.9609 660.625 43.9609C659.195 43.9609 658.266 42.9062 658.195 41.2422V41.1797H664.25V40.6641C664.25 38.0469 662.867 36.4297 660.594 36.4297C658.281 36.4297 656.797 38.1484 656.797 40.7969C656.797 43.4609 658.258 45.1484 660.594 45.1484C662.438 45.1484 663.75 44.2578 664.141 42.8203H662.797ZM660.578 37.6172C661.914 37.6172 662.805 38.6016 662.836 40.0938H658.195C658.297 38.6016 659.234 37.6172 660.578 37.6172Z" fill="#003440"/>
<path d="M669.477 45.1484C670.641 45.1484 671.641 44.5938 672.172 43.6562H672.297V45H673.578V33.2344H672.234V37.9062H672.117C671.641 36.9844 670.648 36.4297 669.477 36.4297C667.336 36.4297 665.938 38.1484 665.938 40.7891C665.938 43.4375 667.32 45.1484 669.477 45.1484ZM669.789 37.6406C671.312 37.6406 672.266 38.8594 672.266 40.7891C672.266 42.7344 671.32 43.9375 669.789 43.9375C668.25 43.9375 667.328 42.7578 667.328 40.7891C667.328 38.8281 668.258 37.6406 669.789 37.6406Z" fill="#003440"/>
<path d="M677.039 47.8672L678.266 43.4219H676.773L676.031 47.8672H677.039Z" fill="#003440"/>
<path d="M687.797 45.1484C688.922 45.1484 689.844 44.6562 690.391 43.7578H690.516V45H691.797V39.2344C691.797 37.4844 690.648 36.4297 688.594 36.4297C686.797 36.4297 685.469 37.3203 685.289 38.6719H686.648C686.836 38.0078 687.539 37.625 688.547 37.625C689.805 37.625 690.453 38.1953 690.453 39.2344V40L688.023 40.1484C686.062 40.2656 684.953 41.1328 684.953 42.6406C684.953 44.1797 686.164 45.1484 687.797 45.1484ZM688.047 43.9688C687.07 43.9688 686.344 43.4688 686.344 42.6094C686.344 41.7656 686.906 41.3203 688.188 41.2344L690.453 41.0859V41.8594C690.453 43.0625 689.43 43.9688 688.047 43.9688Z" fill="#003440"/>
<path d="M694.281 45H695.625V40.0156C695.625 38.5391 696.492 37.6406 697.836 37.6406C699.18 37.6406 699.82 38.3594 699.82 39.875V45H701.164V39.5469C701.164 37.5469 700.109 36.4297 698.219 36.4297C696.93 36.4297 696.109 36.9766 695.688 37.9062H695.562V36.5781H694.281V45Z" fill="#003440"/>
<path d="M706.742 45.1484C707.906 45.1484 708.906 44.5938 709.438 43.6562H709.562V45H710.844V33.2344H709.5V37.9062H709.383C708.906 36.9844 707.914 36.4297 706.742 36.4297C704.602 36.4297 703.203 38.1484 703.203 40.7891C703.203 43.4375 704.586 45.1484 706.742 45.1484ZM707.055 37.6406C708.578 37.6406 709.531 38.8594 709.531 40.7891C709.531 42.7344 708.586 43.9375 707.055 43.9375C705.516 43.9375 704.594 42.7578 704.594 40.7891C704.594 38.8281 705.523 37.6406 707.055 37.6406Z" fill="#003440"/>
<path d="M130.266 69H131.609V64.0156C131.609 62.5391 132.477 61.6406 133.82 61.6406C135.164 61.6406 135.805 62.3594 135.805 63.875V69H137.148V63.5469C137.148 61.5469 136.094 60.4297 134.203 60.4297C132.914 60.4297 132.094 60.9766 131.672 61.9062H131.547V60.5781H130.266V69Z" fill="#003440"/>
<path d="M143.07 69.1484C145.469 69.1484 146.953 67.4922 146.953 64.7891C146.953 62.0781 145.469 60.4297 143.07 60.4297C140.672 60.4297 139.188 62.0781 139.188 64.7891C139.188 67.4922 140.672 69.1484 143.07 69.1484ZM143.07 67.9375C141.477 67.9375 140.578 66.7812 140.578 64.7891C140.578 62.7891 141.477 61.6406 143.07 61.6406C144.664 61.6406 145.562 62.7891 145.562 64.7891C145.562 66.7812 144.664 67.9375 143.07 67.9375Z" fill="#003440"/>
<path d="M153.656 69H155V57.2344H153.656V69Z" fill="#003440"/>
<path d="M161.07 69.1484C163.469 69.1484 164.953 67.4922 164.953 64.7891C164.953 62.0781 163.469 60.4297 161.07 60.4297C158.672 60.4297 157.188 62.0781 157.188 64.7891C157.188 67.4922 158.672 69.1484 161.07 69.1484ZM161.07 67.9375C159.477 67.9375 158.578 66.7812 158.578 64.7891C158.578 62.7891 159.477 61.6406 161.07 61.6406C162.664 61.6406 163.562 62.7891 163.562 64.7891C163.562 66.7812 162.664 67.9375 161.07 67.9375Z" fill="#003440"/>
<path d="M167.062 69H168.406V64.0156C168.406 62.5391 169.273 61.6406 170.617 61.6406C171.961 61.6406 172.602 62.3594 172.602 63.875V69H173.945V63.5469C173.945 61.5469 172.891 60.4297 171 60.4297C169.711 60.4297 168.891 60.9766 168.469 61.9062H168.344V60.5781H167.062V69Z" fill="#003440"/>
<path d="M179.875 72.2344C182.172 72.2344 183.625 71.0312 183.625 69.1484V60.5781H182.344V61.9141H182.219C181.734 61.0078 180.695 60.4297 179.516 60.4297C177.352 60.4297 175.984 62.1406 175.984 64.6641C175.984 67.1875 177.336 68.875 179.516 68.875C180.672 68.875 181.625 68.3516 182.156 67.4219H182.281V69.0781C182.281 70.3203 181.383 71.0625 179.875 71.0625C178.664 71.0625 177.914 70.6172 177.766 69.9297H176.344C176.547 71.3203 177.844 72.2344 179.875 72.2344ZM179.812 67.6875C178.25 67.6875 177.375 66.5 177.375 64.6641C177.375 62.8281 178.25 61.6406 179.812 61.6406C181.367 61.6406 182.312 62.8281 182.312 64.6641C182.312 66.5 181.375 67.6875 179.812 67.6875Z" fill="#003440"/>
<path d="M191.734 66.8203C191.383 67.5625 190.648 67.9609 189.562 67.9609C188.133 67.9609 187.203 66.9062 187.133 65.2422V65.1797H193.188V64.6641C193.188 62.0469 191.805 60.4297 189.531 60.4297C187.219 60.4297 185.734 62.1484 185.734 64.7969C185.734 67.4609 187.195 69.1484 189.531 69.1484C191.375 69.1484 192.688 68.2578 193.078 66.8203H191.734ZM189.516 61.6172C190.852 61.6172 191.742 62.6016 191.773 64.0938H187.133C187.234 62.6016 188.172 61.6172 189.516 61.6172Z" fill="#003440"/>
<path d="M195.297 69H196.641V63.7812C196.641 62.5938 197.57 61.7344 198.852 61.7344C199.117 61.7344 199.602 61.7812 199.711 61.8125V60.4688C199.539 60.4453 199.258 60.4297 199.039 60.4297C197.922 60.4297 196.953 61.0078 196.703 61.8281H196.578V60.5781H195.297V69Z" fill="#003440"/>
<path d="M206.469 69H207.812V61.7031H209.742V60.5781H207.812V59.6797C207.812 58.7578 208.219 58.2891 209.188 58.2891C209.43 58.2891 209.656 58.2969 209.82 58.3281V57.2344C209.539 57.1797 209.242 57.1562 208.914 57.1562C207.312 57.1562 206.469 57.9609 206.469 59.6406V60.5781H205.07V61.7031H206.469V69Z" fill="#003440"/>
<path d="M218.516 60.5781H217.172V65.5625C217.172 67.0391 216.359 67.9219 214.875 67.9219C213.531 67.9219 212.969 67.2188 212.969 65.7031V60.5781H211.625V66.0312C211.625 68.0234 212.609 69.1484 214.5 69.1484C215.789 69.1484 216.688 68.6172 217.109 67.6797H217.234V69H218.516V60.5781Z" fill="#003440"/>
<path d="M221.047 69H222.391V64.0156C222.391 62.5391 223.258 61.6406 224.602 61.6406C225.945 61.6406 226.586 62.3594 226.586 63.875V69H227.93V63.5469C227.93 61.5469 226.875 60.4297 224.984 60.4297C223.695 60.4297 222.875 60.9766 222.453 61.9062H222.328V60.5781H221.047V69Z" fill="#003440"/>
<path d="M237.359 63.1562C237.125 61.6562 235.875 60.4297 233.828 60.4297C231.469 60.4297 229.969 62.1328 229.969 64.7578C229.969 67.4375 231.477 69.1484 233.836 69.1484C235.859 69.1484 237.117 68.0078 237.359 66.4609H236C235.75 67.4141 234.961 67.9375 233.828 67.9375C232.328 67.9375 231.359 66.7031 231.359 64.7578C231.359 62.8516 232.312 61.6406 233.828 61.6406C235.039 61.6406 235.781 62.3203 236 63.1562H237.359Z" fill="#003440"/>
<path d="M240.062 58.3984V60.5781H238.703V61.7031H240.062V66.8125C240.062 68.4219 240.758 69.0625 242.492 69.0625C242.758 69.0625 243.016 69.0312 243.281 68.9844V67.8516C243.031 67.875 242.898 67.8828 242.656 67.8828C241.781 67.8828 241.406 67.4609 241.406 66.4688V61.7031H243.281V60.5781H241.406V58.3984H240.062Z" fill="#003440"/>
<path d="M246.016 58.9531C246.531 58.9531 246.953 58.5312 246.953 58.0156C246.953 57.5 246.531 57.0781 246.016 57.0781C245.5 57.0781 245.078 57.5 245.078 58.0156C245.078 58.5312 245.5 58.9531 246.016 58.9531ZM245.344 69H246.688V60.5781H245.344V69Z" fill="#003440"/>
<path d="M252.711 69.1484C255.109 69.1484 256.594 67.4922 256.594 64.7891C256.594 62.0781 255.109 60.4297 252.711 60.4297C250.312 60.4297 248.828 62.0781 248.828 64.7891C248.828 67.4922 250.312 69.1484 252.711 69.1484ZM252.711 67.9375C251.117 67.9375 250.219 66.7812 250.219 64.7891C250.219 62.7891 251.117 61.6406 252.711 61.6406C254.305 61.6406 255.203 62.7891 255.203 64.7891C255.203 66.7812 254.305 67.9375 252.711 67.9375Z" fill="#003440"/>
<path d="M258.703 69H260.047V64.0156C260.047 62.5391 260.914 61.6406 262.258 61.6406C263.602 61.6406 264.242 62.3594 264.242 63.875V69H265.586V63.5469C265.586 61.5469 264.531 60.4297 262.641 60.4297C261.352 60.4297 260.531 60.9766 260.109 61.9062H259.984V60.5781H258.703V69Z" fill="#003440"/>
<path d="M274.906 69.1484C276.031 69.1484 276.953 68.6562 277.5 67.7578H277.625V69H278.906V63.2344C278.906 61.4844 277.758 60.4297 275.703 60.4297C273.906 60.4297 272.578 61.3203 272.398 62.6719H273.758C273.945 62.0078 274.648 61.625 275.656 61.625C276.914 61.625 277.562 62.1953 277.562 63.2344V64L275.133 64.1484C273.172 64.2656 272.062 65.1328 272.062 66.6406C272.062 68.1797 273.273 69.1484 274.906 69.1484ZM275.156 67.9688C274.18 67.9688 273.453 67.4688 273.453 66.6094C273.453 65.7656 274.016 65.3203 275.297 65.2344L277.562 65.0859V65.8594C277.562 67.0625 276.539 67.9688 275.156 67.9688Z" fill="#003440"/>
<path d="M281.195 62.8828C281.195 64.1016 281.914 64.7812 283.492 65.1641L284.938 65.5156C285.836 65.7344 286.273 66.125 286.273 66.7031C286.273 67.4766 285.461 68.0156 284.328 68.0156C283.25 68.0156 282.578 67.5625 282.352 66.8516H280.969C281.117 68.25 282.406 69.1484 284.281 69.1484C286.195 69.1484 287.656 68.1094 287.656 66.6016C287.656 65.3906 286.891 64.7031 285.305 64.3203L284.008 64.0078C283.016 63.7656 282.547 63.4062 282.547 62.8281C282.547 62.0781 283.328 61.5703 284.328 61.5703C285.344 61.5703 286 62.0156 286.18 62.6875H287.508C287.328 61.3047 286.102 60.4297 284.336 60.4297C282.547 60.4297 281.195 61.4844 281.195 62.8828Z" fill="#003440"/>
<path d="M296.625 69.1484C297.75 69.1484 298.672 68.6562 299.219 67.7578H299.344V69H300.625V63.2344C300.625 61.4844 299.477 60.4297 297.422 60.4297C295.625 60.4297 294.297 61.3203 294.117 62.6719H295.477C295.664 62.0078 296.367 61.625 297.375 61.625C298.633 61.625 299.281 62.1953 299.281 63.2344V64L296.852 64.1484C294.891 64.2656 293.781 65.1328 293.781 66.6406C293.781 68.1797 294.992 69.1484 296.625 69.1484ZM296.875 67.9688C295.898 67.9688 295.172 67.4688 295.172 66.6094C295.172 65.7656 295.734 65.3203 297.016 65.2344L299.281 65.0859V65.8594C299.281 67.0625 298.258 67.9688 296.875 67.9688Z" fill="#003440"/>
<path d="M307.703 69H309.047V64.0156C309.047 62.5938 309.875 61.6406 311.383 61.6406C312.656 61.6406 313.328 62.3828 313.328 63.875V69H314.672V63.5469C314.672 61.5703 313.547 60.4297 311.766 60.4297C310.477 60.4297 309.594 60.9766 309.172 61.9062H309.047V57.2344H307.703V69Z" fill="#003440"/>
<path d="M320.586 69.1484C322.984 69.1484 324.469 67.4922 324.469 64.7891C324.469 62.0781 322.984 60.4297 320.586 60.4297C318.188 60.4297 316.703 62.0781 316.703 64.7891C316.703 67.4922 318.188 69.1484 320.586 69.1484ZM320.586 67.9375C318.992 67.9375 318.094 66.7812 318.094 64.7891C318.094 62.7891 318.992 61.6406 320.586 61.6406C322.18 61.6406 323.078 62.7891 323.078 64.7891C323.078 66.7812 322.18 67.9375 320.586 67.9375Z" fill="#003440"/>
<path d="M326.656 69H328V57.2344H326.656V69Z" fill="#003440"/>
<path d="M331.312 58.9531C331.828 58.9531 332.25 58.5312 332.25 58.0156C332.25 57.5 331.828 57.0781 331.312 57.0781C330.797 57.0781 330.375 57.5 330.375 58.0156C330.375 58.5312 330.797 58.9531 331.312 58.9531ZM330.641 69H331.984V60.5781H330.641V69Z" fill="#003440"/>
<path d="M334.352 62.8828C334.352 64.1016 335.07 64.7812 336.648 65.1641L338.094 65.5156C338.992 65.7344 339.43 66.125 339.43 66.7031C339.43 67.4766 338.617 68.0156 337.484 68.0156C336.406 68.0156 335.734 67.5625 335.508 66.8516H334.125C334.273 68.25 335.562 69.1484 337.438 69.1484C339.352 69.1484 340.812 68.1094 340.812 66.6016C340.812 65.3906 340.047 64.7031 338.461 64.3203L337.164 64.0078C336.172 63.7656 335.703 63.4062 335.703 62.8281C335.703 62.0781 336.484 61.5703 337.484 61.5703C338.5 61.5703 339.156 62.0156 339.336 62.6875H340.664C340.484 61.3047 339.258 60.4297 337.492 60.4297C335.703 60.4297 334.352 61.4844 334.352 62.8828Z" fill="#003440"/>
<path d="M343.406 58.3984V60.5781H342.047V61.7031H343.406V66.8125C343.406 68.4219 344.102 69.0625 345.836 69.0625C346.102 69.0625 346.359 69.0312 346.625 68.9844V67.8516C346.375 67.875 346.242 67.8828 346 67.8828C345.125 67.8828 344.75 67.4609 344.75 66.4688V61.7031H346.625V60.5781H344.75V58.3984H343.406Z" fill="#003440"/>
<path d="M349.359 58.9531C349.875 58.9531 350.297 58.5312 350.297 58.0156C350.297 57.5 349.875 57.0781 349.359 57.0781C348.844 57.0781 348.422 57.5 348.422 58.0156C348.422 58.5312 348.844 58.9531 349.359 58.9531ZM348.688 69H350.031V60.5781H348.688V69Z" fill="#003440"/>
<path d="M359.562 63.1562C359.328 61.6562 358.078 60.4297 356.031 60.4297C353.672 60.4297 352.172 62.1328 352.172 64.7578C352.172 67.4375 353.68 69.1484 356.039 69.1484C358.062 69.1484 359.32 68.0078 359.562 66.4609H358.203C357.953 67.4141 357.164 67.9375 356.031 67.9375C354.531 67.9375 353.562 66.7031 353.562 64.7578C353.562 62.8516 354.516 61.6406 356.031 61.6406C357.242 61.6406 357.984 62.3203 358.203 63.1562H359.562Z" fill="#003440"/>
<path d="M369.531 72.2344C371.828 72.2344 373.281 71.0312 373.281 69.1484V60.5781H372V61.9141H371.875C371.391 61.0078 370.352 60.4297 369.172 60.4297C367.008 60.4297 365.641 62.1406 365.641 64.6641C365.641 67.1875 366.992 68.875 369.172 68.875C370.328 68.875 371.281 68.3516 371.812 67.4219H371.938V69.0781C371.938 70.3203 371.039 71.0625 369.531 71.0625C368.32 71.0625 367.57 70.6172 367.422 69.9297H366C366.203 71.3203 367.5 72.2344 369.531 72.2344ZM369.469 67.6875C367.906 67.6875 367.031 66.5 367.031 64.6641C367.031 62.8281 367.906 61.6406 369.469 61.6406C371.023 61.6406 371.969 62.8281 371.969 64.6641C371.969 66.5 371.031 67.6875 369.469 67.6875Z" fill="#003440"/>
<path d="M381.391 66.8203C381.039 67.5625 380.305 67.9609 379.219 67.9609C377.789 67.9609 376.859 66.9062 376.789 65.2422V65.1797H382.844V64.6641C382.844 62.0469 381.461 60.4297 379.188 60.4297C376.875 60.4297 375.391 62.1484 375.391 64.7969C375.391 67.4609 376.852 69.1484 379.188 69.1484C381.031 69.1484 382.344 68.2578 382.734 66.8203H381.391ZM379.172 61.6172C380.508 61.6172 381.398 62.6016 381.43 64.0938H376.789C376.891 62.6016 377.828 61.6172 379.172 61.6172Z" fill="#003440"/>
<path d="M384.758 62.8828C384.758 64.1016 385.477 64.7812 387.055 65.1641L388.5 65.5156C389.398 65.7344 389.836 66.125 389.836 66.7031C389.836 67.4766 389.023 68.0156 387.891 68.0156C386.812 68.0156 386.141 67.5625 385.914 66.8516H384.531C384.68 68.25 385.969 69.1484 387.844 69.1484C389.758 69.1484 391.219 68.1094 391.219 66.6016C391.219 65.3906 390.453 64.7031 388.867 64.3203L387.57 64.0078C386.578 63.7656 386.109 63.4062 386.109 62.8281C386.109 62.0781 386.891 61.5703 387.891 61.5703C388.906 61.5703 389.562 62.0156 389.742 62.6875H391.07C390.891 61.3047 389.664 60.4297 387.898 60.4297C386.109 60.4297 384.758 61.4844 384.758 62.8828Z" fill="#003440"/>
<path d="M393.812 58.3984V60.5781H392.453V61.7031H393.812V66.8125C393.812 68.4219 394.508 69.0625 396.242 69.0625C396.508 69.0625 396.766 69.0312 397.031 68.9844V67.8516C396.781 67.875 396.648 67.8828 396.406 67.8828C395.531 67.8828 395.156 67.4609 395.156 66.4688V61.7031H397.031V60.5781H395.156V58.3984H393.812Z" fill="#003440"/>
<path d="M401.406 69.1484C402.531 69.1484 403.453 68.6562 404 67.7578H404.125V69H405.406V63.2344C405.406 61.4844 404.258 60.4297 402.203 60.4297C400.406 60.4297 399.078 61.3203 398.898 62.6719H400.258C400.445 62.0078 401.148 61.625 402.156 61.625C403.414 61.625 404.062 62.1953 404.062 63.2344V64L401.633 64.1484C399.672 64.2656 398.562 65.1328 398.562 66.6406C398.562 68.1797 399.773 69.1484 401.406 69.1484ZM401.656 67.9688C400.68 67.9688 399.953 67.4688 399.953 66.6094C399.953 65.7656 400.516 65.3203 401.797 65.2344L404.062 65.0859V65.8594C404.062 67.0625 403.039 67.9688 401.656 67.9688Z" fill="#003440"/>
<path d="M407.969 69H409.312V57.2344H407.969V69Z" fill="#003440"/>
<path d="M412.484 58.3984V60.5781H411.125V61.7031H412.484V66.8125C412.484 68.4219 413.18 69.0625 414.914 69.0625C415.18 69.0625 415.438 69.0312 415.703 68.9844V67.8516C415.453 67.875 415.32 67.8828 415.078 67.8828C414.203 67.8828 413.828 67.4609 413.828 66.4688V61.7031H415.703V60.5781H413.828V58.3984H412.484Z" fill="#003440"/>
<path d="M418.844 69.0781C419.406 69.0781 419.859 68.6172 419.859 68.0625C419.859 67.5 419.406 67.0469 418.844 67.0469C418.289 67.0469 417.828 67.5 417.828 68.0625C417.828 68.6172 418.289 69.0781 418.844 69.0781Z" fill="#003440"/>
<path d="M139.898 100.641V99.2656H135.328V100.5H138.5V100.773C138.5 102.68 137.133 103.969 135.117 103.969C132.852 103.969 131.445 102.203 131.445 99.3594C131.445 96.5547 132.875 94.7578 135.109 94.7578C136.781 94.7578 137.914 95.5625 138.398 97.0859H139.828C139.422 94.8516 137.609 93.4609 135.109 93.4609C132.023 93.4609 130 95.7969 130 99.3594C130 102.969 131.992 105.266 135.109 105.266C137.992 105.266 139.898 103.422 139.898 100.641Z" fill="#003440"/>
<path d="M142.922 94.9531C143.438 94.9531 143.859 94.5312 143.859 94.0156C143.859 93.5 143.438 93.0781 142.922 93.0781C142.406 93.0781 141.984 93.5 141.984 94.0156C141.984 94.5312 142.406 94.9531 142.922 94.9531ZM142.25 105H143.594V96.5781H142.25V105Z" fill="#003440"/>
<path d="M153.031 96.5781H151.594L149.289 103.516H149.164L146.859 96.5781H145.422L148.539 105H149.914L153.031 96.5781Z" fill="#003440"/>
<path d="M160.094 102.82C159.742 103.562 159.008 103.961 157.922 103.961C156.492 103.961 155.562 102.906 155.492 101.242V101.18H161.547V100.664C161.547 98.0469 160.164 96.4297 157.891 96.4297C155.578 96.4297 154.094 98.1484 154.094 100.797C154.094 103.461 155.555 105.148 157.891 105.148C159.734 105.148 161.047 104.258 161.438 102.82H160.094ZM157.875 97.6172C159.211 97.6172 160.102 98.6016 160.133 100.094H155.492C155.594 98.6016 156.531 97.6172 157.875 97.6172Z" fill="#003440"/>
<path d="M168.875 94.9531C169.391 94.9531 169.812 94.5312 169.812 94.0156C169.812 93.5 169.391 93.0781 168.875 93.0781C168.359 93.0781 167.938 93.5 167.938 94.0156C167.938 94.5312 168.359 94.9531 168.875 94.9531ZM168.203 105H169.547V96.5781H168.203V105Z" fill="#003440"/>
<path d="M172.109 105H173.453V100.016C173.453 98.5391 174.32 97.6406 175.664 97.6406C177.008 97.6406 177.648 98.3594 177.648 99.875V105H178.992V99.5469C178.992 97.5469 177.938 96.4297 176.047 96.4297C174.758 96.4297 173.938 96.9766 173.516 97.9062H173.391V96.5781H172.109V105Z" fill="#003440"/>
<path d="M186.531 94.3984V96.5781H185.172V97.7031H186.531V102.812C186.531 104.422 187.227 105.062 188.961 105.062C189.227 105.062 189.484 105.031 189.75 104.984V103.852C189.5 103.875 189.367 103.883 189.125 103.883C188.25 103.883 187.875 103.461 187.875 102.469V97.7031H189.75V96.5781H187.875V94.3984H186.531Z" fill="#003440"/>
<path d="M195.117 105.148C197.516 105.148 199 103.492 199 100.789C199 98.0781 197.516 96.4297 195.117 96.4297C192.719 96.4297 191.234 98.0781 191.234 100.789C191.234 103.492 192.719 105.148 195.117 105.148ZM195.117 103.938C193.523 103.938 192.625 102.781 192.625 100.789C192.625 98.7891 193.523 97.6406 195.117 97.6406C196.711 97.6406 197.609 98.7891 197.609 100.789C197.609 102.781 196.711 103.938 195.117 103.938Z" fill="#003440"/>
<path d="M212.438 96.5781H211.094V101.562C211.094 103.039 210.281 103.922 208.797 103.922C207.453 103.922 206.891 103.219 206.891 101.703V96.5781H205.547V102.031C205.547 104.023 206.531 105.148 208.422 105.148C209.711 105.148 210.609 104.617 211.031 103.68H211.156V105H212.438V96.5781Z" fill="#003440"/>
<path d="M214.969 105H216.312V100.016C216.312 98.5391 217.18 97.6406 218.523 97.6406C219.867 97.6406 220.508 98.3594 220.508 99.875V105H221.852V99.5469C221.852 97.5469 220.797 96.4297 218.906 96.4297C217.617 96.4297 216.797 96.9766 216.375 97.9062H216.25V96.5781H214.969V105Z" fill="#003440"/>
<path d="M228.414 96.4297C227.266 96.4297 226.258 97.0156 225.719 97.9844H225.594V96.5781H224.312V107.812H225.656V103.734H225.781C226.242 104.625 227.211 105.148 228.414 105.148C230.555 105.148 231.953 103.422 231.953 100.789C231.953 98.1406 230.562 96.4297 228.414 96.4297ZM228.094 103.938C226.578 103.938 225.617 102.719 225.617 100.789C225.617 98.8516 226.578 97.6406 228.102 97.6406C229.641 97.6406 230.562 98.8203 230.562 100.789C230.562 102.758 229.641 103.938 228.094 103.938Z" fill="#003440"/>
<path d="M234.141 105H235.484V93.2344H234.141V105Z" fill="#003440"/>
<path d="M243.672 102.82C243.32 103.562 242.586 103.961 241.5 103.961C240.07 103.961 239.141 102.906 239.07 101.242V101.18H245.125V100.664C245.125 98.0469 243.742 96.4297 241.469 96.4297C239.156 96.4297 237.672 98.1484 237.672 100.797C237.672 103.461 239.133 105.148 241.469 105.148C243.312 105.148 244.625 104.258 245.016 102.82H243.672ZM241.453 97.6172C242.789 97.6172 243.68 98.6016 243.711 100.094H239.07C239.172 98.6016 240.109 97.6172 241.453 97.6172Z" fill="#003440"/>
<path d="M249.578 105.148C250.703 105.148 251.625 104.656 252.172 103.758H252.297V105H253.578V99.2344C253.578 97.4844 252.43 96.4297 250.375 96.4297C248.578 96.4297 247.25 97.3203 247.07 98.6719H248.43C248.617 98.0078 249.32 97.625 250.328 97.625C251.586 97.625 252.234 98.1953 252.234 99.2344V100L249.805 100.148C247.844 100.266 246.734 101.133 246.734 102.641C246.734 104.18 247.945 105.148 249.578 105.148ZM249.828 103.969C248.852 103.969 248.125 103.469 248.125 102.609C248.125 101.766 248.688 101.32 249.969 101.234L252.234 101.086V101.859C252.234 103.062 251.211 103.969 249.828 103.969Z" fill="#003440"/>
<path d="M255.867 98.8828C255.867 100.102 256.586 100.781 258.164 101.164L259.609 101.516C260.508 101.734 260.945 102.125 260.945 102.703C260.945 103.477 260.133 104.016 259 104.016C257.922 104.016 257.25 103.562 257.023 102.852H255.641C255.789 104.25 257.078 105.148 258.953 105.148C260.867 105.148 262.328 104.109 262.328 102.602C262.328 101.391 261.562 100.703 259.977 100.32L258.68 100.008C257.688 99.7656 257.219 99.4062 257.219 98.8281C257.219 98.0781 258 97.5703 259 97.5703C260.016 97.5703 260.672 98.0156 260.852 98.6875H262.18C262 97.3047 260.773 96.4297 259.008 96.4297C257.219 96.4297 255.867 97.4844 255.867 98.8828Z" fill="#003440"/>
<path d="M266.781 105.148C267.906 105.148 268.828 104.656 269.375 103.758H269.5V105H270.781V99.2344C270.781 97.4844 269.633 96.4297 267.578 96.4297C265.781 96.4297 264.453 97.3203 264.273 98.6719H265.633C265.82 98.0078 266.523 97.625 267.531 97.625C268.789 97.625 269.438 98.1953 269.438 99.2344V100L267.008 100.148C265.047 100.266 263.938 101.133 263.938 102.641C263.938 104.18 265.148 105.148 266.781 105.148ZM267.031 103.969C266.055 103.969 265.328 103.469 265.328 102.609C265.328 101.766 265.891 101.32 267.172 101.234L269.438 101.086V101.859C269.438 103.062 268.414 103.969 267.031 103.969Z" fill="#003440"/>
<path d="M273.266 105H274.609V100.016C274.609 98.5391 275.477 97.6406 276.82 97.6406C278.164 97.6406 278.805 98.3594 278.805 99.875V105H280.148V99.5469C280.148 97.5469 279.094 96.4297 277.203 96.4297C275.914 96.4297 275.094 96.9766 274.672 97.9062H274.547V96.5781H273.266V105Z" fill="#003440"/>
<path d="M283.172 94.3984V96.5781H281.812V97.7031H283.172V102.812C283.172 104.422 283.867 105.062 285.602 105.062C285.867 105.062 286.125 105.031 286.391 104.984V103.852C286.141 103.875 286.008 103.883 285.766 103.883C284.891 103.883 284.516 103.461 284.516 102.469V97.7031H286.391V96.5781H284.516V94.3984H283.172Z" fill="#003440"/>
<path d="M288.422 105H289.766V100.016C289.766 98.5391 290.633 97.6406 291.977 97.6406C293.32 97.6406 293.961 98.3594 293.961 99.875V105H295.305V99.5469C295.305 97.5469 294.25 96.4297 292.359 96.4297C291.07 96.4297 290.25 96.9766 289.828 97.9062H289.703V96.5781H288.422V105Z" fill="#003440"/>
<path d="M303.344 102.82C302.992 103.562 302.258 103.961 301.172 103.961C299.742 103.961 298.812 102.906 298.742 101.242V101.18H304.797V100.664C304.797 98.0469 303.414 96.4297 301.141 96.4297C298.828 96.4297 297.344 98.1484 297.344 100.797C297.344 103.461 298.805 105.148 301.141 105.148C302.984 105.148 304.297 104.258 304.688 102.82H303.344ZM301.125 97.6172C302.461 97.6172 303.352 98.6016 303.383 100.094H298.742C298.844 98.6016 299.781 97.6172 301.125 97.6172Z" fill="#003440"/>
<path d="M306.711 98.8828C306.711 100.102 307.43 100.781 309.008 101.164L310.453 101.516C311.352 101.734 311.789 102.125 311.789 102.703C311.789 103.477 310.977 104.016 309.844 104.016C308.766 104.016 308.094 103.562 307.867 102.852H306.484C306.633 104.25 307.922 105.148 309.797 105.148C311.711 105.148 313.172 104.109 313.172 102.602C313.172 101.391 312.406 100.703 310.82 100.32L309.523 100.008C308.531 99.7656 308.062 99.4062 308.062 98.8281C308.062 98.0781 308.844 97.5703 309.844 97.5703C310.859 97.5703 311.516 98.0156 311.695 98.6875H313.023C312.844 97.3047 311.617 96.4297 309.852 96.4297C308.062 96.4297 306.711 97.4844 306.711 98.8828Z" fill="#003440"/>
<path d="M314.93 98.8828C314.93 100.102 315.648 100.781 317.227 101.164L318.672 101.516C319.57 101.734 320.008 102.125 320.008 102.703C320.008 103.477 319.195 104.016 318.062 104.016C316.984 104.016 316.312 103.562 316.086 102.852H314.703C314.852 104.25 316.141 105.148 318.016 105.148C319.93 105.148 321.391 104.109 321.391 102.602C321.391 101.391 320.625 100.703 319.039 100.32L317.742 100.008C316.75 99.7656 316.281 99.4062 316.281 98.8281C316.281 98.0781 317.062 97.5703 318.062 97.5703C319.078 97.5703 319.734 98.0156 319.914 98.6875H321.242C321.062 97.3047 319.836 96.4297 318.07 96.4297C316.281 96.4297 314.93 97.4844 314.93 98.8828Z" fill="#003440"/>
<path d="M330.359 105.148C331.484 105.148 332.406 104.656 332.953 103.758H333.078V105H334.359V99.2344C334.359 97.4844 333.211 96.4297 331.156 96.4297C329.359 96.4297 328.031 97.3203 327.852 98.6719H329.211C329.398 98.0078 330.102 97.625 331.109 97.625C332.367 97.625 333.016 98.1953 333.016 99.2344V100L330.586 100.148C328.625 100.266 327.516 101.133 327.516 102.641C327.516 104.18 328.727 105.148 330.359 105.148ZM330.609 103.969C329.633 103.969 328.906 103.469 328.906 102.609C328.906 101.766 329.469 101.32 330.75 101.234L333.016 101.086V101.859C333.016 103.062 331.992 103.969 330.609 103.969Z" fill="#003440"/>
<path d="M336.844 105H338.188V100.016C338.188 98.5391 339.055 97.6406 340.398 97.6406C341.742 97.6406 342.383 98.3594 342.383 99.875V105H343.727V99.5469C343.727 97.5469 342.672 96.4297 340.781 96.4297C339.492 96.4297 338.672 96.9766 338.25 97.9062H338.125V96.5781H336.844V105Z" fill="#003440"/>
<path d="M349.305 105.148C350.469 105.148 351.469 104.594 352 103.656H352.125V105H353.406V93.2344H352.062V97.9062H351.945C351.469 96.9844 350.477 96.4297 349.305 96.4297C347.164 96.4297 345.766 98.1484 345.766 100.789C345.766 103.438 347.148 105.148 349.305 105.148ZM349.617 97.6406C351.141 97.6406 352.094 98.8594 352.094 100.789C352.094 102.734 351.148 103.938 349.617 103.938C348.078 103.938 347.156 102.758 347.156 100.789C347.156 98.8281 348.086 97.6406 349.617 97.6406Z" fill="#003440"/>
<path d="M364.633 96.4297C363.484 96.4297 362.477 97.0156 361.938 97.9844H361.812V96.5781H360.531V107.812H361.875V103.734H362C362.461 104.625 363.43 105.148 364.633 105.148C366.773 105.148 368.172 103.422 368.172 100.789C368.172 98.1406 366.781 96.4297 364.633 96.4297ZM364.312 103.938C362.797 103.938 361.836 102.719 361.836 100.789C361.836 98.8516 362.797 97.6406 364.32 97.6406C365.859 97.6406 366.781 98.8203 366.781 100.789C366.781 102.758 365.859 103.938 364.312 103.938Z" fill="#003440"/>
<path d="M372.625 105.148C373.75 105.148 374.672 104.656 375.219 103.758H375.344V105H376.625V99.2344C376.625 97.4844 375.477 96.4297 373.422 96.4297C371.625 96.4297 370.297 97.3203 370.117 98.6719H371.477C371.664 98.0078 372.367 97.625 373.375 97.625C374.633 97.625 375.281 98.1953 375.281 99.2344V100L372.852 100.148C370.891 100.266 369.781 101.133 369.781 102.641C369.781 104.18 370.992 105.148 372.625 105.148ZM372.875 103.969C371.898 103.969 371.172 103.469 371.172 102.609C371.172 101.766 371.734 101.32 373.016 101.234L375.281 101.086V101.859C375.281 103.062 374.258 103.969 372.875 103.969Z" fill="#003440"/>
<path d="M379.812 94.9531C380.328 94.9531 380.75 94.5312 380.75 94.0156C380.75 93.5 380.328 93.0781 379.812 93.0781C379.297 93.0781 378.875 93.5 378.875 94.0156C378.875 94.5312 379.297 94.9531 379.812 94.9531ZM379.141 105H380.484V96.5781H379.141V105Z" fill="#003440"/>
<path d="M383.047 105H384.391V100.016C384.391 98.5391 385.258 97.6406 386.602 97.6406C387.945 97.6406 388.586 98.3594 388.586 99.875V105H389.93V99.5469C389.93 97.5469 388.875 96.4297 386.984 96.4297C385.695 96.4297 384.875 96.9766 384.453 97.9062H384.328V96.5781H383.047V105Z" fill="#003440"/>
<path d="M397.625 94.9531C398.141 94.9531 398.562 94.5312 398.562 94.0156C398.562 93.5 398.141 93.0781 397.625 93.0781C397.109 93.0781 396.688 93.5 396.688 94.0156C396.688 94.5312 397.109 94.9531 397.625 94.9531ZM398.281 96.5781H396.938V105.438C396.938 106.367 396.625 106.742 395.672 106.742H395.469V107.891H395.703C397.469 107.891 398.281 107.148 398.281 105.414V96.5781Z" fill="#003440"/>
<path d="M407.656 96.5781H406.312V101.562C406.312 103.039 405.5 103.922 404.016 103.922C402.672 103.922 402.109 103.219 402.109 101.703V96.5781H400.766V102.031C400.766 104.023 401.75 105.148 403.641 105.148C404.93 105.148 405.828 104.617 406.25 103.68H406.375V105H407.656V96.5781Z" fill="#003440"/>
<path d="M409.992 98.8828C409.992 100.102 410.711 100.781 412.289 101.164L413.734 101.516C414.633 101.734 415.07 102.125 415.07 102.703C415.07 103.477 414.258 104.016 413.125 104.016C412.047 104.016 411.375 103.562 411.148 102.852H409.766C409.914 104.25 411.203 105.148 413.078 105.148C414.992 105.148 416.453 104.109 416.453 102.602C416.453 101.391 415.688 100.703 414.102 100.32L412.805 100.008C411.812 99.7656 411.344 99.4062 411.344 98.8281C411.344 98.0781 412.125 97.5703 413.125 97.5703C414.141 97.5703 414.797 98.0156 414.977 98.6875H416.305C416.125 97.3047 414.898 96.4297 413.133 96.4297C411.344 96.4297 409.992 97.4844 409.992 98.8828Z" fill="#003440"/>
<path d="M419.047 94.3984V96.5781H417.688V97.7031H419.047V102.812C419.047 104.422 419.742 105.062 421.477 105.062C421.742 105.062 422 105.031 422.266 104.984V103.852C422.016 103.875 421.883 103.883 421.641 103.883C420.766 103.883 420.391 103.461 420.391 102.469V97.7031H422.266V96.5781H420.391V94.3984H419.047Z" fill="#003440"/>
<path d="M431.156 105.148C432.281 105.148 433.203 104.656 433.75 103.758H433.875V105H435.156V99.2344C435.156 97.4844 434.008 96.4297 431.953 96.4297C430.156 96.4297 428.828 97.3203 428.648 98.6719H430.008C430.195 98.0078 430.898 97.625 431.906 97.625C433.164 97.625 433.812 98.1953 433.812 99.2344V100L431.383 100.148C429.422 100.266 428.312 101.133 428.312 102.641C428.312 104.18 429.523 105.148 431.156 105.148ZM431.406 103.969C430.43 103.969 429.703 103.469 429.703 102.609C429.703 101.766 430.266 101.32 431.547 101.234L433.812 101.086V101.859C433.812 103.062 432.789 103.969 431.406 103.969Z" fill="#003440"/>
<path d="M437.445 98.8828C437.445 100.102 438.164 100.781 439.742 101.164L441.188 101.516C442.086 101.734 442.523 102.125 442.523 102.703C442.523 103.477 441.711 104.016 440.578 104.016C439.5 104.016 438.828 103.562 438.602 102.852H437.219C437.367 104.25 438.656 105.148 440.531 105.148C442.445 105.148 443.906 104.109 443.906 102.602C443.906 101.391 443.141 100.703 441.555 100.32L440.258 100.008C439.266 99.7656 438.797 99.4062 438.797 98.8281C438.797 98.0781 439.578 97.5703 440.578 97.5703C441.594 97.5703 442.25 98.0156 442.43 98.6875H443.758C443.578 97.3047 442.352 96.4297 440.586 96.4297C438.797 96.4297 437.445 97.4844 437.445 98.8828Z" fill="#003440"/>
<path d="M451.094 94.3984V96.5781H449.734V97.7031H451.094V102.812C451.094 104.422 451.789 105.062 453.523 105.062C453.789 105.062 454.047 105.031 454.312 104.984V103.852C454.062 103.875 453.93 103.883 453.688 103.883C452.812 103.883 452.438 103.461 452.438 102.469V97.7031H454.312V96.5781H452.438V94.3984H451.094Z" fill="#003440"/>
<path d="M459.68 105.148C462.078 105.148 463.562 103.492 463.562 100.789C463.562 98.0781 462.078 96.4297 459.68 96.4297C457.281 96.4297 455.797 98.0781 455.797 100.789C455.797 103.492 457.281 105.148 459.68 105.148ZM459.68 103.938C458.086 103.938 457.188 102.781 457.188 100.789C457.188 98.7891 458.086 97.6406 459.68 97.6406C461.273 97.6406 462.172 98.7891 462.172 100.789C462.172 102.781 461.273 103.938 459.68 103.938Z" fill="#003440"/>
<path d="M474.289 96.4297C473.141 96.4297 472.133 97.0156 471.594 97.9844H471.469V96.5781H470.188V107.812H471.531V103.734H471.656C472.117 104.625 473.086 105.148 474.289 105.148C476.43 105.148 477.828 103.422 477.828 100.789C477.828 98.1406 476.438 96.4297 474.289 96.4297ZM473.969 103.938C472.453 103.938 471.492 102.719 471.492 100.789C471.492 98.8516 472.453 97.6406 473.977 97.6406C475.516 97.6406 476.438 98.8203 476.438 100.789C476.438 102.758 475.516 103.938 473.969 103.938Z" fill="#003440"/>
<path d="M480.016 105H481.359V93.2344H480.016V105Z" fill="#003440"/>
<path d="M489.547 102.82C489.195 103.562 488.461 103.961 487.375 103.961C485.945 103.961 485.016 102.906 484.945 101.242V101.18H491V100.664C491 98.0469 489.617 96.4297 487.344 96.4297C485.031 96.4297 483.547 98.1484 483.547 100.797C483.547 103.461 485.008 105.148 487.344 105.148C489.188 105.148 490.5 104.258 490.891 102.82H489.547ZM487.328 97.6172C488.664 97.6172 489.555 98.6016 489.586 100.094H484.945C485.047 98.6016 485.984 97.6172 487.328 97.6172Z" fill="#003440"/>
<path d="M495.453 105.148C496.578 105.148 497.5 104.656 498.047 103.758H498.172V105H499.453V99.2344C499.453 97.4844 498.305 96.4297 496.25 96.4297C494.453 96.4297 493.125 97.3203 492.945 98.6719H494.305C494.492 98.0078 495.195 97.625 496.203 97.625C497.461 97.625 498.109 98.1953 498.109 99.2344V100L495.68 100.148C493.719 100.266 492.609 101.133 492.609 102.641C492.609 104.18 493.82 105.148 495.453 105.148ZM495.703 103.969C494.727 103.969 494 103.469 494 102.609C494 101.766 494.562 101.32 495.844 101.234L498.109 101.086V101.859C498.109 103.062 497.086 103.969 495.703 103.969Z" fill="#003440"/>
<path d="M501.742 98.8828C501.742 100.102 502.461 100.781 504.039 101.164L505.484 101.516C506.383 101.734 506.82 102.125 506.82 102.703C506.82 103.477 506.008 104.016 504.875 104.016C503.797 104.016 503.125 103.562 502.898 102.852H501.516C501.664 104.25 502.953 105.148 504.828 105.148C506.742 105.148 508.203 104.109 508.203 102.602C508.203 101.391 507.438 100.703 505.852 100.32L504.555 100.008C503.562 99.7656 503.094 99.4062 503.094 98.8281C503.094 98.0781 503.875 97.5703 504.875 97.5703C505.891 97.5703 506.547 98.0156 506.727 98.6875H508.055C507.875 97.3047 506.648 96.4297 504.883 96.4297C503.094 96.4297 501.742 97.4844 501.742 98.8828Z" fill="#003440"/>
<path d="M517.125 96.5781H515.781V101.562C515.781 103.039 514.969 103.922 513.484 103.922C512.141 103.922 511.578 103.219 511.578 101.703V96.5781H510.234V102.031C510.234 104.023 511.219 105.148 513.109 105.148C514.398 105.148 515.297 104.617 515.719 103.68H515.844V105H517.125V96.5781Z" fill="#003440"/>
<path d="M519.656 105H521V99.7812C521 98.5938 521.93 97.7344 523.211 97.7344C523.477 97.7344 523.961 97.7812 524.07 97.8125V96.4688C523.898 96.4453 523.617 96.4297 523.398 96.4297C522.281 96.4297 521.312 97.0078 521.062 97.8281H520.938V96.5781H519.656V105Z" fill="#003440"/>
<path d="M531.094 102.82C530.742 103.562 530.008 103.961 528.922 103.961C527.492 103.961 526.562 102.906 526.492 101.242V101.18H532.547V100.664C532.547 98.0469 531.164 96.4297 528.891 96.4297C526.578 96.4297 525.094 98.1484 525.094 100.797C525.094 103.461 526.555 105.148 528.891 105.148C530.734 105.148 532.047 104.258 532.438 102.82H531.094ZM528.875 97.6172C530.211 97.6172 531.102 98.6016 531.133 100.094H526.492C526.594 98.6016 527.531 97.6172 528.875 97.6172Z" fill="#003440"/>
<path d="M535.766 105.078C536.328 105.078 536.781 104.617 536.781 104.062C536.781 103.5 536.328 103.047 535.766 103.047C535.211 103.047 534.75 103.5 534.75 104.062C534.75 104.617 535.211 105.078 535.766 105.078Z" fill="#003440"/>
<path d="M544.094 93.7266V105H547.961C551.312 105 553.281 102.914 553.281 99.3594C553.281 95.8125 551.305 93.7266 547.961 93.7266H544.094ZM545.5 94.9922H547.867C550.367 94.9922 551.844 96.6172 551.844 99.375C551.844 102.125 550.383 103.734 547.867 103.734H545.5V94.9922Z" fill="#003440"/>
<path d="M559.008 105.148C561.406 105.148 562.891 103.492 562.891 100.789C562.891 98.0781 561.406 96.4297 559.008 96.4297C556.609 96.4297 555.125 98.0781 555.125 100.789C555.125 103.492 556.609 105.148 559.008 105.148ZM559.008 103.938C557.414 103.938 556.516 102.781 556.516 100.789C556.516 98.7891 557.414 97.6406 559.008 97.6406C560.602 97.6406 561.5 98.7891 561.5 100.789C561.5 102.781 560.602 103.938 559.008 103.938Z" fill="#003440"/>
<path d="M569.516 105H570.859V100.016C570.859 98.5391 571.727 97.6406 573.07 97.6406C574.414 97.6406 575.055 98.3594 575.055 99.875V105H576.398V99.5469C576.398 97.5469 575.344 96.4297 573.453 96.4297C572.164 96.4297 571.344 96.9766 570.922 97.9062H570.797V96.5781H569.516V105Z" fill="#003440"/>
<path d="M582.32 105.148C584.719 105.148 586.203 103.492 586.203 100.789C586.203 98.0781 584.719 96.4297 582.32 96.4297C579.922 96.4297 578.438 98.0781 578.438 100.789C578.438 103.492 579.922 105.148 582.32 105.148ZM582.32 103.938C580.727 103.938 579.828 102.781 579.828 100.789C579.828 98.7891 580.727 97.6406 582.32 97.6406C583.914 97.6406 584.812 98.7891 584.812 100.789C584.812 102.781 583.914 103.938 582.32 103.938Z" fill="#003440"/>
<path d="M588.875 94.3984V96.5781H587.516V97.7031H588.875V102.812C588.875 104.422 589.57 105.062 591.305 105.062C591.57 105.062 591.828 105.031 592.094 104.984V103.852C591.844 103.875 591.711 103.883 591.469 103.883C590.594 103.883 590.219 103.461 590.219 102.469V97.7031H592.094V96.5781H590.219V94.3984H588.875Z" fill="#003440"/>
<path d="M598.641 105H599.984V99.7812C599.984 98.5938 600.914 97.7344 602.195 97.7344C602.461 97.7344 602.945 97.7812 603.055 97.8125V96.4688C602.883 96.4453 602.602 96.4297 602.383 96.4297C601.266 96.4297 600.297 97.0078 600.047 97.8281H599.922V96.5781H598.641V105Z" fill="#003440"/>
<path d="M610.078 102.82C609.727 103.562 608.992 103.961 607.906 103.961C606.477 103.961 605.547 102.906 605.477 101.242V101.18H611.531V100.664C611.531 98.0469 610.148 96.4297 607.875 96.4297C605.562 96.4297 604.078 98.1484 604.078 100.797C604.078 103.461 605.539 105.148 607.875 105.148C609.719 105.148 611.031 104.258 611.422 102.82H610.078ZM607.859 97.6172C609.195 97.6172 610.086 98.6016 610.117 100.094H605.477C605.578 98.6016 606.516 97.6172 607.859 97.6172Z" fill="#003440"/>
<path d="M613.445 98.8828C613.445 100.102 614.164 100.781 615.742 101.164L617.188 101.516C618.086 101.734 618.523 102.125 618.523 102.703C618.523 103.477 617.711 104.016 616.578 104.016C615.5 104.016 614.828 103.562 614.602 102.852H613.219C613.367 104.25 614.656 105.148 616.531 105.148C618.445 105.148 619.906 104.109 619.906 102.602C619.906 101.391 619.141 100.703 617.555 100.32L616.258 100.008C615.266 99.7656 614.797 99.4062 614.797 98.8281C614.797 98.0781 615.578 97.5703 616.578 97.5703C617.594 97.5703 618.25 98.0156 618.43 98.6875H619.758C619.578 97.3047 618.352 96.4297 616.586 96.4297C614.797 96.4297 613.445 97.4844 613.445 98.8828Z" fill="#003440"/>
<path d="M622.5 94.3984V96.5781H621.141V97.7031H622.5V102.812C622.5 104.422 623.195 105.062 624.93 105.062C625.195 105.062 625.453 105.031 625.719 104.984V103.852C625.469 103.875 625.336 103.883 625.094 103.883C624.219 103.883 623.844 103.461 623.844 102.469V97.7031H625.719V96.5781H623.844V94.3984H622.5Z" fill="#003440"/>
<path d="M627.75 105H629.094V99.7812C629.094 98.5938 630.023 97.7344 631.305 97.7344C631.57 97.7344 632.055 97.7812 632.164 97.8125V96.4688C631.992 96.4453 631.711 96.4297 631.492 96.4297C630.375 96.4297 629.406 97.0078 629.156 97.8281H629.031V96.5781H627.75V105Z" fill="#003440"/>
<path d="M634.547 94.9531C635.062 94.9531 635.484 94.5312 635.484 94.0156C635.484 93.5 635.062 93.0781 634.547 93.0781C634.031 93.0781 633.609 93.5 633.609 94.0156C633.609 94.5312 634.031 94.9531 634.547 94.9531ZM633.875 105H635.219V96.5781H633.875V105Z" fill="#003440"/>
<path d="M644.75 99.1562C644.516 97.6562 643.266 96.4297 641.219 96.4297C638.859 96.4297 637.359 98.1328 637.359 100.758C637.359 103.438 638.867 105.148 641.227 105.148C643.25 105.148 644.508 104.008 644.75 102.461H643.391C643.141 103.414 642.352 103.938 641.219 103.938C639.719 103.938 638.75 102.703 638.75 100.758C638.75 98.8516 639.703 97.6406 641.219 97.6406C642.43 97.6406 643.172 98.3203 643.391 99.1562H644.75Z" fill="#003440"/>
<path d="M647.453 94.3984V96.5781H646.094V97.7031H647.453V102.812C647.453 104.422 648.148 105.062 649.883 105.062C650.148 105.062 650.406 105.031 650.672 104.984V103.852C650.422 103.875 650.289 103.883 650.047 103.883C649.172 103.883 648.797 103.461 648.797 102.469V97.7031H650.672V96.5781H648.797V94.3984H647.453Z" fill="#003440"/>
<path d="M657.938 108.047C659.43 108.047 660.102 107.469 660.82 105.516L664.109 96.5781H662.68L660.375 103.508H660.25L657.938 96.5781H656.484L659.602 105.008L659.445 105.508C659.094 106.523 658.672 106.891 657.898 106.891C657.711 106.891 657.5 106.883 657.336 106.852V108C657.523 108.031 657.758 108.047 657.938 108.047Z" fill="#003440"/>
<path d="M669.055 105.148C671.453 105.148 672.938 103.492 672.938 100.789C672.938 98.0781 671.453 96.4297 669.055 96.4297C666.656 96.4297 665.172 98.0781 665.172 100.789C665.172 103.492 666.656 105.148 669.055 105.148ZM669.055 103.938C667.461 103.938 666.562 102.781 666.562 100.789C666.562 98.7891 667.461 97.6406 669.055 97.6406C670.648 97.6406 671.547 98.7891 671.547 100.789C671.547 102.781 670.648 103.938 669.055 103.938Z" fill="#003440"/>
<path d="M681.859 96.5781H680.516V101.562C680.516 103.039 679.703 103.922 678.219 103.922C676.875 103.922 676.312 103.219 676.312 101.703V96.5781H674.969V102.031C674.969 104.023 675.953 105.148 677.844 105.148C679.133 105.148 680.031 104.617 680.453 103.68H680.578V105H681.859V96.5781Z" fill="#003440"/>
<path d="M684.391 105H685.734V99.7812C685.734 98.5938 686.664 97.7344 687.945 97.7344C688.211 97.7344 688.695 97.7812 688.805 97.8125V96.4688C688.633 96.4453 688.352 96.4297 688.133 96.4297C687.016 96.4297 686.047 97.0078 685.797 97.8281H685.672V96.5781H684.391V105Z" fill="#003440"/>
<path d="M132.609 129.148C133.734 129.148 134.656 128.656 135.203 127.758H135.328V129H136.609V123.234C136.609 121.484 135.461 120.43 133.406 120.43C131.609 120.43 130.281 121.32 130.102 122.672H131.461C131.648 122.008 132.352 121.625 133.359 121.625C134.617 121.625 135.266 122.195 135.266 123.234V124L132.836 124.148C130.875 124.266 129.766 125.133 129.766 126.641C129.766 128.18 130.977 129.148 132.609 129.148ZM132.859 127.969C131.883 127.969 131.156 127.469 131.156 126.609C131.156 125.766 131.719 125.32 133 125.234L135.266 125.086V125.859C135.266 127.062 134.242 127.969 132.859 127.969Z" fill="#003440"/>
<path d="M149.297 120.578H147.945L146.289 127.312H146.164L144.281 120.578H142.992L141.109 127.312H140.984L139.328 120.578H137.969L140.328 129H141.688L143.562 122.484H143.688L145.57 129H146.938L149.297 120.578Z" fill="#003440"/>
<path d="M153.203 129.148C154.328 129.148 155.25 128.656 155.797 127.758H155.922V129H157.203V123.234C157.203 121.484 156.055 120.43 154 120.43C152.203 120.43 150.875 121.32 150.695 122.672H152.055C152.242 122.008 152.945 121.625 153.953 121.625C155.211 121.625 155.859 122.195 155.859 123.234V124L153.43 124.148C151.469 124.266 150.359 125.133 150.359 126.641C150.359 128.18 151.57 129.148 153.203 129.148ZM153.453 127.969C152.477 127.969 151.75 127.469 151.75 126.609C151.75 125.766 152.312 125.32 153.594 125.234L155.859 125.086V125.859C155.859 127.062 154.836 127.969 153.453 127.969Z" fill="#003440"/>
<path d="M159.688 129H161.031V123.781C161.031 122.594 161.961 121.734 163.242 121.734C163.508 121.734 163.992 121.781 164.102 121.812V120.469C163.93 120.445 163.648 120.43 163.43 120.43C162.312 120.43 161.344 121.008 161.094 121.828H160.969V120.578H159.688V129Z" fill="#003440"/>
<path d="M171.125 126.82C170.773 127.562 170.039 127.961 168.953 127.961C167.523 127.961 166.594 126.906 166.523 125.242V125.18H172.578V124.664C172.578 122.047 171.195 120.43 168.922 120.43C166.609 120.43 165.125 122.148 165.125 124.797C165.125 127.461 166.586 129.148 168.922 129.148C170.766 129.148 172.078 128.258 172.469 126.82H171.125ZM168.906 121.617C170.242 121.617 171.133 122.602 171.164 124.094H166.523C166.625 122.602 167.562 121.617 168.906 121.617Z" fill="#003440"/>
<path d="M174.688 129H176.031V124.016C176.031 122.539 176.898 121.641 178.242 121.641C179.586 121.641 180.227 122.359 180.227 123.875V129H181.57V123.547C181.57 121.547 180.516 120.43 178.625 120.43C177.336 120.43 176.516 120.977 176.094 121.906H175.969V120.578H174.688V129Z" fill="#003440"/>
<path d="M189.609 126.82C189.258 127.562 188.523 127.961 187.438 127.961C186.008 127.961 185.078 126.906 185.008 125.242V125.18H191.062V124.664C191.062 122.047 189.68 120.43 187.406 120.43C185.094 120.43 183.609 122.148 183.609 124.797C183.609 127.461 185.07 129.148 187.406 129.148C189.25 129.148 190.562 128.258 190.953 126.82H189.609ZM187.391 121.617C188.727 121.617 189.617 122.602 189.648 124.094H185.008C185.109 122.602 186.047 121.617 187.391 121.617Z" fill="#003440"/>
<path d="M192.977 122.883C192.977 124.102 193.695 124.781 195.273 125.164L196.719 125.516C197.617 125.734 198.055 126.125 198.055 126.703C198.055 127.477 197.242 128.016 196.109 128.016C195.031 128.016 194.359 127.562 194.133 126.852H192.75C192.898 128.25 194.188 129.148 196.062 129.148C197.977 129.148 199.438 128.109 199.438 126.602C199.438 125.391 198.672 124.703 197.086 124.32L195.789 124.008C194.797 123.766 194.328 123.406 194.328 122.828C194.328 122.078 195.109 121.57 196.109 121.57C197.125 121.57 197.781 122.016 197.961 122.688H199.289C199.109 121.305 197.883 120.43 196.117 120.43C194.328 120.43 192.977 121.484 192.977 122.883Z" fill="#003440"/>
<path d="M201.195 122.883C201.195 124.102 201.914 124.781 203.492 125.164L204.938 125.516C205.836 125.734 206.273 126.125 206.273 126.703C206.273 127.477 205.461 128.016 204.328 128.016C203.25 128.016 202.578 127.562 202.352 126.852H200.969C201.117 128.25 202.406 129.148 204.281 129.148C206.195 129.148 207.656 128.109 207.656 126.602C207.656 125.391 206.891 124.703 205.305 124.32L204.008 124.008C203.016 123.766 202.547 123.406 202.547 122.828C202.547 122.078 203.328 121.57 204.328 121.57C205.344 121.57 206 122.016 206.18 122.688H207.508C207.328 121.305 206.102 120.43 204.336 120.43C202.547 120.43 201.195 121.484 201.195 122.883Z" fill="#003440"/>
<path d="M210.875 129.078C211.438 129.078 211.891 128.617 211.891 128.062C211.891 127.5 211.438 127.047 210.875 127.047C210.32 127.047 209.859 127.5 209.859 128.062C209.859 128.617 210.32 129.078 210.875 129.078Z" fill="#003440"/>
<path fill-rule="evenodd" clip-rule="evenodd" d="M711 69H119V68H711V69Z" fill="#A30C4A"/>
<path fill-rule="evenodd" clip-rule="evenodd" d="M711 81H119V80H711V81Z" fill="#A30C4A"/>
</svg>
