<svg width="240" height="136" viewBox="0 0 240 136" fill="none" xmlns="http://www.w3.org/2000/svg">
<path d="M57.2677 33.0825L51.541 60H54.992L57.0252 50.3933H63.5354C69.7099 50.3933 74.4479 46.6439 74.4479 40.3575C74.4479 35.8993 71.0156 33.0825 66.7252 33.0825H57.2677ZM60.0658 36.0671H65.5687C68.8518 36.0671 70.941 37.746 70.941 40.656C70.941 44.9837 67.9564 47.4087 63.3302 47.4087H57.6595L60.0658 36.0671Z" fill="#A30C4A"/>
<path d="M81.0327 37.1491C82.1706 37.1491 83.066 36.235 83.066 35.1158C83.066 33.9779 82.1706 33.0825 81.0327 33.0825C79.9135 33.0825 78.9995 33.9779 78.9995 35.1158C78.9995 36.235 79.9135 37.1491 81.0327 37.1491ZM74.0749 60H77.3579L81.4804 40.6H78.1974L74.0749 60Z" fill="#A30C4A"/>
<path d="M50.6665 89.1318C50.7859 91.7583 52.9846 93.3799 56.3074 93.3799C59.7596 93.3799 61.9185 91.6489 61.9185 88.903C61.9185 86.774 60.655 85.5602 57.6306 84.9335L56.0786 84.6151C54.2878 84.2371 53.5715 83.6103 53.5715 82.6353C53.5715 81.4315 54.7057 80.6754 56.2975 80.6754C57.939 80.6754 59.0732 81.4912 59.1926 82.8442H61.6499C61.5902 80.2775 59.491 78.5464 56.3174 78.5464C53.2034 78.5464 50.9849 80.2576 50.9849 82.7845C50.9849 84.8837 52.3279 86.2368 55.2031 86.8237L56.7452 87.1421C58.6155 87.5301 59.3318 88.1668 59.3318 89.2015C59.3318 90.3953 58.1281 91.2509 56.397 91.2509C54.6062 91.2509 53.3129 90.455 53.1238 89.1318H50.6665Z" fill="#111111"/>
<path d="M66.4054 93.1412V87.2814H72.4244V85.1921H66.4054V80.954H72.9915V78.7852H63.8386V93.1412H66.4054Z" fill="#111111"/>
<path d="M78.9408 78.7852V93.1412H81.5076V88.3956H84.4126C87.3176 88.3956 89.3571 86.4556 89.3571 83.5904C89.3571 80.7252 87.3773 78.7852 84.522 78.7852H78.9408ZM81.5076 80.8843H83.8455C85.686 80.8843 86.7505 81.8693 86.7505 83.5904C86.7505 85.3314 85.6761 86.3263 83.8356 86.3263H81.5076V80.8843Z" fill="#111111"/>
<path d="M90.9887 93.1412H93.4659V87.0028C93.4659 85.5204 94.3116 84.6151 95.7144 84.6151C96.1322 84.6151 96.5103 84.6748 96.7192 84.7544V82.5159C96.5401 82.4761 96.2615 82.4164 95.9432 82.4164C94.6996 82.4164 93.7744 83.1526 93.4162 84.436H93.3665V82.5955H90.9887V93.1412Z" fill="#111111"/>
<path d="M102.261 93.3501C105.355 93.3501 107.364 91.2907 107.364 87.8683C107.364 84.4559 105.335 82.3766 102.261 82.3766C99.1865 82.3766 97.1569 84.4659 97.1569 87.8683C97.1569 91.2907 99.1666 93.3501 102.261 93.3501ZM102.261 91.3902C100.689 91.3902 99.674 90.1168 99.674 87.8683C99.674 85.6299 100.699 84.3465 102.261 84.3465C103.833 84.3465 104.847 85.6299 104.847 87.8683C104.847 90.1168 103.833 91.3902 102.261 91.3902Z" fill="#111111"/>
<path d="M58.0435 112H59.4538L55.4842 101.233H54.1561L50.1865 112H51.5968L52.6787 108.918H56.9616L58.0435 112ZM54.7978 102.867H54.8425L56.5661 107.777H53.0741L54.7978 102.867Z" fill="#111111"/>
<path d="M64.2515 104.106C63.1248 104.106 62.222 104.68 61.7445 105.553H61.7146V104.24H60.4835V114.589H61.7818V110.739H61.8116C62.2742 111.59 63.1696 112.134 64.2814 112.134C66.2363 112.134 67.5719 110.552 67.5719 108.12C67.5719 105.687 66.2289 104.106 64.2515 104.106ZM63.9978 110.993C62.6697 110.993 61.7743 109.851 61.7743 108.12C61.7743 106.396 62.6697 105.247 63.9978 105.247C65.3782 105.247 66.2438 106.366 66.2438 108.12C66.2438 109.881 65.3782 110.993 63.9978 110.993Z" fill="#111111"/>
<path d="M72.6532 104.106C71.5266 104.106 70.6237 104.68 70.1462 105.553H70.1163V104.24H68.8852V114.589H70.1835V110.739H70.2133C70.6759 111.59 71.5713 112.134 72.6831 112.134C74.638 112.134 75.9736 110.552 75.9736 108.12C75.9736 105.687 74.6306 104.106 72.6532 104.106ZM72.3996 110.993C71.0714 110.993 70.176 109.851 70.176 108.12C70.176 106.396 71.0714 105.247 72.3996 105.247C73.7799 105.247 74.6455 106.366 74.6455 108.12C74.6455 109.881 73.7799 110.993 72.3996 110.993Z" fill="#111111"/>
<path d="M77.354 112H78.6523V101.233H77.354V112Z" fill="#111111"/>
<path d="M85.5543 109.776C85.3379 110.508 84.6141 111.008 83.6292 111.008C82.2339 111.008 81.3609 110.03 81.3609 108.545V108.471H86.9272V107.978C86.9272 105.628 85.6363 104.106 83.5396 104.106C81.3982 104.106 80.0253 105.74 80.0253 108.15C80.0253 110.59 81.3758 112.134 83.5993 112.134C85.2931 112.134 86.6063 111.134 86.8302 109.776H85.5543ZM83.5173 105.232C84.741 105.232 85.5543 106.158 85.5841 107.456H81.3683C81.4504 106.165 82.301 105.232 83.5173 105.232Z" fill="#111111"/>
<path d="M178.889 32.8398L174.169 59.9998H170.756L161.056 38.9023L157.4 59.9998H153.874L158.593 32.8398H161.988L171.726 53.9933L175.401 32.8398H178.889Z" fill="#A30C4A"/>
<path d="M192.282 54.5343C192.394 53.7632 192.251 53.1601 191.853 52.7248C191.468 52.2896 190.958 51.96 190.324 51.7362C189.702 51.4999 189.092 51.3072 188.496 51.1579C187.749 50.9714 186.997 50.7413 186.238 50.4677C185.48 50.1941 184.783 49.8459 184.149 49.4231C183.527 48.9879 183.03 48.4531 182.657 47.8189C182.296 47.1722 182.135 46.3888 182.172 45.4685C182.222 44.4736 182.483 43.5969 182.955 42.8383C183.44 42.0797 184.062 41.4455 184.821 40.9356C185.592 40.4257 186.431 40.0464 187.339 39.7977C188.247 39.549 189.148 39.4309 190.044 39.4433C191.312 39.4682 192.463 39.7293 193.495 40.2268C194.539 40.7242 195.366 41.4393 195.976 42.372C196.585 43.3047 196.871 44.4363 196.834 45.767L193.495 45.7483C193.52 45.0395 193.377 44.4301 193.066 43.9202C192.755 43.4104 192.326 43.0186 191.779 42.745C191.231 42.459 190.61 42.3098 189.913 42.2973C189.254 42.2849 188.607 42.3906 187.973 42.6145C187.339 42.8259 186.798 43.1616 186.35 43.6218C185.903 44.0695 185.629 44.6539 185.53 45.3752C185.455 45.91 185.536 46.3514 185.772 46.6997C186.008 47.0354 186.332 47.309 186.742 47.5204C187.165 47.7194 187.606 47.8873 188.067 48.0241C188.539 48.1484 188.968 48.2604 189.354 48.3598C190.373 48.6459 191.381 49.0065 192.376 49.4418C193.37 49.877 194.179 50.4802 194.801 51.2512C195.422 52.0098 195.702 53.0109 195.64 54.2545C195.59 55.3115 195.31 56.2318 194.801 57.0152C194.303 57.7863 193.656 58.4267 192.861 58.9366C192.077 59.434 191.213 59.8009 190.268 60.0371C189.323 60.2734 188.377 60.3854 187.432 60.3729C186.127 60.348 184.908 60.0807 183.776 59.5708C182.657 59.0485 181.762 58.3023 181.09 57.3323C180.418 56.3499 180.101 55.1561 180.139 53.7508L183.515 53.7695C183.515 54.5778 183.683 55.2618 184.019 55.8214C184.367 56.3686 184.846 56.7852 185.455 57.0712C186.064 57.3572 186.761 57.5064 187.544 57.5189C188.203 57.5313 188.875 57.4443 189.559 57.2577C190.255 57.0712 190.852 56.7603 191.35 56.325C191.859 55.8773 192.17 55.2804 192.282 54.5343Z" fill="#A30C4A"/>
<path d="M155.787 85.0334H158.563L161.388 90.4356H164.313L161.179 84.6454C162.891 84.0286 163.885 82.4468 163.885 80.5466C163.885 77.8007 162.025 76.0796 158.921 76.0796H153.22V90.4356H155.787V85.0334ZM155.787 78.1589H158.633C160.254 78.1589 161.259 79.0941 161.259 80.6063C161.259 82.1583 160.314 83.0636 158.682 83.0636H155.787V78.1589Z" fill="#111111"/>
<path d="M170.312 90.6445C173.406 90.6445 175.416 88.5851 175.416 85.1628C175.416 81.7504 173.387 79.6711 170.312 79.6711C167.238 79.6711 165.209 81.7603 165.209 85.1628C165.209 88.5851 167.218 90.6445 170.312 90.6445ZM170.312 88.6846C168.74 88.6846 167.726 87.4112 167.726 85.1628C167.726 82.9243 168.75 81.6409 170.312 81.6409C171.884 81.6409 172.899 82.9243 172.899 85.1628C172.899 87.4112 171.884 88.6846 170.312 88.6846Z" fill="#111111"/>
<path d="M182.907 90.6047C185.574 90.6047 187.255 88.5354 187.255 85.1628C187.255 81.7902 185.564 79.7109 182.907 79.7109C181.415 79.7109 180.211 80.467 179.614 81.7006H179.555V76.0796H177.078V90.4356H179.505V88.6349H179.555C180.172 89.8586 181.355 90.6047 182.907 90.6047ZM182.141 81.7504C183.723 81.7504 184.718 83.0735 184.718 85.1628C184.718 87.262 183.733 88.5752 182.141 88.5752C180.609 88.5752 179.545 87.2321 179.545 85.1628C179.545 83.1133 180.609 81.7504 182.141 81.7504Z" fill="#111111"/>
<path d="M193.533 90.6445C196.627 90.6445 198.636 88.5851 198.636 85.1628C198.636 81.7504 196.607 79.6711 193.533 79.6711C190.459 79.6711 188.429 81.7603 188.429 85.1628C188.429 88.5851 190.439 90.6445 193.533 90.6445ZM193.533 88.6846C191.961 88.6846 190.946 87.4112 190.946 85.1628C190.946 82.9243 191.971 81.6409 193.533 81.6409C195.105 81.6409 196.119 82.9243 196.119 85.1628C196.119 87.4112 195.105 88.6846 193.533 88.6846Z" fill="#111111"/>
<path d="M200.915 77.4227V79.89H199.402V81.8001H200.915V87.6301C200.915 89.6795 201.81 90.4854 204.088 90.4854C204.616 90.4854 205.103 90.4456 205.372 90.3859V88.4956C205.213 88.5255 204.894 88.5453 204.665 88.5453C203.79 88.5453 203.392 88.1474 203.392 87.2819V81.8001H205.382V79.89H203.392V77.4227H200.915Z" fill="#111111"/>
<path d="M211.54 90.6445C214.634 90.6445 216.644 88.5851 216.644 85.1628C216.644 81.7504 214.614 79.6711 211.54 79.6711C208.466 79.6711 206.436 81.7603 206.436 85.1628C206.436 88.5851 208.446 90.6445 211.54 90.6445ZM211.54 88.6846C209.968 88.6846 208.953 87.4112 208.953 85.1628C208.953 82.9243 209.978 81.6409 211.54 81.6409C213.112 81.6409 214.127 82.9243 214.127 85.1628C214.127 87.4112 213.112 88.6846 211.54 88.6846Z" fill="#111111"/>
<path d="M160.001 112H161.411L157.441 101.233H156.113L152.144 112H153.554L154.636 108.918H158.919L160.001 112ZM156.755 102.867H156.8L158.523 107.777H155.031L156.755 102.867Z" fill="#111111"/>
<path d="M162.44 112H163.739V107.433C163.739 106.12 164.537 105.255 165.761 105.255C166.955 105.255 167.544 105.941 167.544 107.195V112H168.842V106.963C168.842 105.202 167.858 104.106 166.156 104.106C164.955 104.106 164.127 104.643 163.694 105.479H163.664V104.24H162.44V112Z" fill="#111111"/>
<path d="M173.439 112.134C174.558 112.134 175.446 111.582 175.946 110.687H175.968V112H177.207V101.233H175.909V105.501H175.879C175.416 104.65 174.521 104.106 173.409 104.106C171.454 104.106 170.118 105.687 170.118 108.12C170.118 110.552 171.462 112.134 173.439 112.134ZM173.685 105.247C175.021 105.247 175.916 106.389 175.916 108.12C175.916 109.858 175.021 110.993 173.685 110.993C172.312 110.993 171.447 109.881 171.447 108.12C171.447 106.366 172.312 105.247 173.685 105.247Z" fill="#111111"/>
<path d="M178.96 112H180.259V107.165C180.259 106.068 180.915 105.344 181.923 105.344C182.236 105.344 182.512 105.382 182.617 105.419V104.158C182.512 104.143 182.318 104.106 182.094 104.106C181.184 104.106 180.468 104.65 180.214 105.508H180.184V104.24H178.96V112Z" fill="#111111"/>
<path d="M186.519 112.134C188.66 112.134 190.108 110.59 190.108 108.12C190.108 105.643 188.66 104.106 186.519 104.106C184.37 104.106 182.922 105.643 182.922 108.12C182.922 110.59 184.37 112.134 186.519 112.134ZM186.519 110.993C185.146 110.993 184.243 109.948 184.243 108.12C184.243 106.292 185.146 105.247 186.519 105.247C187.892 105.247 188.787 106.292 188.787 108.12C188.787 109.948 187.892 110.993 186.519 110.993Z" fill="#111111"/>
<path d="M192.137 102.86C192.593 102.86 192.951 102.494 192.951 102.046C192.951 101.591 192.593 101.233 192.137 101.233C191.69 101.233 191.324 101.591 191.324 102.046C191.324 102.494 191.69 102.86 192.137 102.86ZM191.488 112H192.787V104.24H191.488V112Z" fill="#111111"/>
<path d="M197.48 112.134C198.599 112.134 199.487 111.582 199.987 110.687H200.009V112H201.248V101.233H199.95V105.501H199.92C199.457 104.65 198.562 104.106 197.45 104.106C195.495 104.106 194.16 105.687 194.16 108.12C194.16 110.552 195.503 112.134 197.48 112.134ZM197.726 105.247C199.062 105.247 199.957 106.389 199.957 108.12C199.957 109.858 199.062 110.993 197.726 110.993C196.353 110.993 195.488 109.881 195.488 108.12C195.488 106.366 196.353 105.247 197.726 105.247Z" fill="#111111"/>
<path fill-rule="evenodd" clip-rule="evenodd" d="M50 42H24V38H50V42ZM48 49L17 49V45L48 45V49ZM28 56L46 56V52L28 52V56Z" fill="#EE376A"/>
<path fill-rule="evenodd" clip-rule="evenodd" d="M154 42H126V38H154V42ZM151 49L119 49V45L151 45V49ZM130 56L148 56V52L130 52V56Z" fill="#EE376A"/>
</svg>
