<svg width="260" height="160" viewBox="0 0 260 160" fill="none" xmlns="http://www.w3.org/2000/svg">
<path d="M70.2677 45.0825L64.541 72H67.992L70.0252 62.3933H76.5354C82.7099 62.3933 87.4479 58.6438 87.4479 52.3575C87.4479 47.8992 84.0156 45.0825 79.7252 45.0825H70.2677ZM73.0658 48.0671H78.5687C81.8518 48.0671 83.941 49.746 83.941 52.656C83.941 56.9837 80.9564 59.4087 76.3302 59.4087H70.6595L73.0658 48.0671Z" fill="#A30C4A"/>
<path d="M94.0327 49.149C95.1706 49.149 96.066 48.235 96.066 47.1158C96.066 45.9779 95.1706 45.0825 94.0327 45.0825C92.9135 45.0825 91.9995 45.9779 91.9995 47.1158C91.9995 48.235 92.9135 49.149 94.0327 49.149ZM87.0749 72H90.3579L94.4804 52.6H91.1974L87.0749 72Z" fill="#A30C4A"/>
<path d="M63.6665 101.132C63.7859 103.758 65.9846 105.38 69.3074 105.38C72.7596 105.38 74.9185 103.649 74.9185 100.903C74.9185 98.7742 73.655 97.5604 70.6306 96.9337L69.0786 96.6153C67.2878 96.2372 66.5715 95.6105 66.5715 94.6355C66.5715 93.4317 67.7057 92.6756 69.2975 92.6756C70.939 92.6756 72.0732 93.4914 72.1926 94.8444H74.6499C74.5902 92.2776 72.491 90.5466 69.3174 90.5466C66.2034 90.5466 63.9849 92.2578 63.9849 94.7847C63.9849 96.8839 65.3279 98.2369 68.2031 98.8239L69.7452 99.1423C71.6155 99.5303 72.3318 100.167 72.3318 101.202C72.3318 102.396 71.1281 103.251 69.397 103.251C67.6062 103.251 66.3129 102.455 66.1238 101.132H63.6665Z" fill="#111111"/>
<path d="M79.4054 105.141V99.2816H85.4244V97.1923H79.4054V92.9542H85.9915V90.7853H76.8386V105.141H79.4054Z" fill="#111111"/>
<path d="M91.9408 90.7853V105.141H94.5076V100.396H97.4126C100.318 100.396 102.357 98.4558 102.357 95.5906C102.357 92.7253 100.377 90.7853 97.522 90.7853H91.9408ZM94.5076 92.8845H96.8455C98.686 92.8845 99.7505 93.8694 99.7505 95.5906C99.7505 97.3316 98.6761 98.3265 96.8356 98.3265H94.5076V92.8845Z" fill="#111111"/>
<path d="M103.989 105.141H106.466V99.003C106.466 97.5206 107.312 96.6153 108.714 96.6153C109.132 96.6153 109.51 96.675 109.719 96.7546V94.5161C109.54 94.4763 109.262 94.4166 108.943 94.4166C107.7 94.4166 106.774 95.1528 106.416 96.4362H106.366V94.5957H103.989V105.141Z" fill="#111111"/>
<path d="M115.261 105.35C118.355 105.35 120.364 103.291 120.364 99.8685C120.364 96.4561 118.335 94.3768 115.261 94.3768C112.186 94.3768 110.157 96.4661 110.157 99.8685C110.157 103.291 112.167 105.35 115.261 105.35ZM115.261 103.39C113.689 103.39 112.674 102.117 112.674 99.8685C112.674 97.6301 113.699 96.3467 115.261 96.3467C116.833 96.3467 117.847 97.6301 117.847 99.8685C117.847 102.117 116.833 103.39 115.261 103.39Z" fill="#111111"/>
<path d="M71.0435 124H72.4538L68.4842 113.233H67.1561L63.1865 124H64.5968L65.6787 120.918H69.9616L71.0435 124ZM67.7978 114.867H67.8425L69.5662 119.777H66.0742L67.7978 114.867ZM77.2516 116.106C76.1249 116.106 75.222 116.68 74.7445 117.553H74.7146V116.24H73.4835V126.589H74.7818V122.739H74.8116C75.2742 123.59 76.1696 124.134 77.2814 124.134C79.2363 124.134 80.5719 122.552 80.5719 120.12C80.5719 117.688 79.2289 116.106 77.2516 116.106ZM76.9979 122.993C75.6697 122.993 74.7743 121.851 74.7743 120.12C74.7743 118.396 75.6697 117.247 76.9979 117.247C78.3783 117.247 79.2438 118.367 79.2438 120.12C79.2438 121.881 78.3783 122.993 76.9979 122.993ZM85.6533 116.106C84.5266 116.106 83.6237 116.68 83.1462 117.553H83.1163V116.24H81.8852V126.589H83.1835V122.739H83.2133C83.6759 123.59 84.5713 124.134 85.6831 124.134C87.638 124.134 88.9736 122.552 88.9736 120.12C88.9736 117.688 87.6306 116.106 85.6533 116.106ZM85.3996 122.993C84.0714 122.993 83.176 121.851 83.176 120.12C83.176 118.396 84.0714 117.247 85.3996 117.247C86.78 117.247 87.6455 118.367 87.6455 120.12C87.6455 121.881 86.78 122.993 85.3996 122.993ZM90.354 124H91.6523V113.233H90.354V124ZM98.5543 121.776C98.3379 122.508 97.6141 123.008 96.6292 123.008C95.2339 123.008 94.3609 122.03 94.3609 120.545V120.471H99.9272V119.978C99.9272 117.628 98.6364 116.106 96.5397 116.106C94.3982 116.106 93.0253 117.74 93.0253 120.15C93.0253 122.59 94.3758 124.134 96.5993 124.134C98.2931 124.134 99.6064 123.134 99.8302 121.776H98.5543ZM96.5173 117.232C97.741 117.232 98.5543 118.158 98.5841 119.456H94.3683C94.4504 118.165 95.301 117.232 96.5173 117.232Z" fill="#111111"/>
<path d="M191.889 44.84L187.169 72H183.756L174.056 50.9025L170.4 72H166.874L171.593 44.84H174.988L184.726 65.9935L188.401 44.84H191.889Z" fill="#A30C4A"/>
<path d="M205.282 66.5344C205.394 65.7634 205.251 65.1603 204.853 64.725C204.468 64.2897 203.958 63.9602 203.324 63.7363C202.702 63.5001 202.092 63.3073 201.496 63.1581C200.749 62.9715 199.997 62.7415 199.238 62.4679C198.48 62.1943 197.783 61.8461 197.149 61.4233C196.527 60.988 196.03 60.4533 195.657 59.819C195.296 59.1724 195.135 58.3889 195.172 57.4687C195.222 56.4738 195.483 55.5971 195.955 54.8385C196.44 54.0799 197.062 53.4456 197.821 52.9358C198.592 52.4259 199.431 52.0466 200.339 51.7979C201.247 51.5492 202.148 51.431 203.044 51.4435C204.312 51.4683 205.463 51.7295 206.495 52.2269C207.539 52.7244 208.366 53.4394 208.976 54.3721C209.585 55.3048 209.871 56.4365 209.834 57.7671L206.495 57.7485C206.52 57.0396 206.377 56.4303 206.066 55.9204C205.755 55.4105 205.326 55.0188 204.779 54.7452C204.231 54.4592 203.61 54.3099 202.913 54.2975C202.254 54.2851 201.607 54.3908 200.973 54.6146C200.339 54.826 199.798 55.1618 199.35 55.6219C198.903 56.0696 198.629 56.6541 198.53 57.3754C198.455 57.9101 198.536 58.3516 198.772 58.6998C199.008 59.0356 199.332 59.3092 199.742 59.5206C200.165 59.7196 200.606 59.8874 201.067 60.0242C201.539 60.1486 201.968 60.2605 202.354 60.36C203.373 60.646 204.381 61.0067 205.376 61.4419C206.37 61.8772 207.179 62.4803 207.801 63.2513C208.422 64.0099 208.702 65.011 208.64 66.2546C208.59 67.3117 208.31 68.2319 207.801 69.0154C207.303 69.7864 206.656 70.4269 205.861 70.9367C205.077 71.4342 204.213 71.801 203.268 72.0373C202.323 72.2736 201.377 72.3855 200.432 72.3731C199.127 72.3482 197.908 72.0808 196.776 71.571C195.657 71.0487 194.762 70.3025 194.09 69.3325C193.418 68.3501 193.101 67.1562 193.139 65.751L196.515 65.7696C196.515 66.5779 196.683 67.2619 197.019 67.8215C197.367 68.3687 197.846 68.7853 198.455 69.0713C199.064 69.3574 199.761 69.5066 200.544 69.519C201.203 69.5315 201.875 69.4444 202.559 69.2579C203.255 69.0713 203.852 68.7604 204.35 68.3252C204.859 67.8775 205.17 67.2806 205.282 66.5344Z" fill="#A30C4A"/>
<path d="M168.787 97.0334H171.563L174.388 102.436H177.313L174.179 96.6454C175.891 96.0286 176.885 94.4467 176.885 92.5465C176.885 89.8007 175.025 88.0795 171.921 88.0795H166.22V102.436H168.787V97.0334ZM168.787 90.1588H171.633C173.254 90.1588 174.259 91.094 174.259 92.6062C174.259 94.1582 173.314 95.0635 171.682 95.0635H168.787V90.1588Z" fill="#111111"/>
<path d="M183.312 102.644C186.406 102.644 188.416 100.585 188.416 97.1627C188.416 93.7503 186.387 91.671 183.312 91.671C180.238 91.671 178.209 93.7603 178.209 97.1627C178.209 100.585 180.218 102.644 183.312 102.644ZM183.312 100.685C181.74 100.685 180.726 99.4111 180.726 97.1627C180.726 94.9243 181.75 93.6409 183.312 93.6409C184.884 93.6409 185.899 94.9243 185.899 97.1627C185.899 99.4111 184.884 100.685 183.312 100.685Z" fill="#111111"/>
<path d="M195.907 102.605C198.574 102.605 200.255 100.535 200.255 97.1627C200.255 93.7901 198.564 91.7108 195.907 91.7108C194.415 91.7108 193.211 92.4669 192.614 93.7006H192.555V88.0795H190.078V102.436H192.505V100.635H192.555C193.172 101.859 194.355 102.605 195.907 102.605ZM195.141 93.7503C196.723 93.7503 197.718 95.0735 197.718 97.1627C197.718 99.2619 196.733 100.575 195.141 100.575C193.609 100.575 192.545 99.2321 192.545 97.1627C192.545 95.1133 193.609 93.7503 195.141 93.7503Z" fill="#111111"/>
<path d="M206.533 102.644C209.627 102.644 211.636 100.585 211.636 97.1627C211.636 93.7503 209.607 91.671 206.533 91.671C203.459 91.671 201.429 93.7603 201.429 97.1627C201.429 100.585 203.439 102.644 206.533 102.644ZM206.533 100.685C204.961 100.685 203.946 99.4111 203.946 97.1627C203.946 94.9243 204.971 93.6409 206.533 93.6409C208.105 93.6409 209.119 94.9243 209.119 97.1627C209.119 99.4111 208.105 100.685 206.533 100.685Z" fill="#111111"/>
<path d="M213.915 89.4226V91.8899H212.402V93.8H213.915V99.63C213.915 101.679 214.81 102.485 217.088 102.485C217.616 102.485 218.103 102.445 218.372 102.386V100.496C218.213 100.525 217.894 100.545 217.665 100.545C216.79 100.545 216.392 100.147 216.392 99.2818V93.8H218.382V91.8899H216.392V89.4226H213.915Z" fill="#111111"/>
<path d="M224.54 102.644C227.634 102.644 229.644 100.585 229.644 97.1627C229.644 93.7503 227.614 91.671 224.54 91.671C221.466 91.671 219.436 93.7603 219.436 97.1627C219.436 100.585 221.446 102.644 224.54 102.644ZM224.54 100.685C222.968 100.685 221.953 99.4111 221.953 97.1627C221.953 94.9243 222.978 93.6409 224.54 93.6409C226.112 93.6409 227.127 94.9243 227.127 97.1627C227.127 99.4111 226.112 100.685 224.54 100.685Z" fill="#111111"/>
<path d="M173.001 124H174.411L170.441 113.233H169.113L165.144 124H166.554L167.636 120.918H171.919L173.001 124ZM169.755 114.867H169.8L171.523 119.777H168.031L169.755 114.867Z" fill="#111111"/>
<path d="M175.44 124H176.739V119.434C176.739 118.12 177.537 117.255 178.761 117.255C179.955 117.255 180.544 117.941 180.544 119.195V124H181.842V118.963C181.842 117.203 180.858 116.106 179.156 116.106C177.955 116.106 177.127 116.643 176.694 117.479H176.664V116.24H175.44V124Z" fill="#111111"/>
<path d="M186.439 124.134C187.558 124.134 188.446 123.582 188.946 122.687H188.968V124H190.207V113.233H188.909V117.501H188.879C188.416 116.65 187.521 116.106 186.409 116.106C184.454 116.106 183.118 117.688 183.118 120.12C183.118 122.552 184.462 124.134 186.439 124.134ZM186.685 117.247C188.021 117.247 188.916 118.389 188.916 120.12C188.916 121.859 188.021 122.993 186.685 122.993C185.312 122.993 184.447 121.881 184.447 120.12C184.447 118.367 185.312 117.247 186.685 117.247Z" fill="#111111"/>
<path d="M191.96 124H193.259V119.165C193.259 118.068 193.915 117.344 194.923 117.344C195.236 117.344 195.512 117.382 195.617 117.419V116.158C195.512 116.143 195.318 116.106 195.094 116.106C194.184 116.106 193.468 116.65 193.214 117.508H193.184V116.24H191.96V124Z" fill="#111111"/>
<path d="M199.519 124.134C201.66 124.134 203.108 122.59 203.108 120.12C203.108 117.643 201.66 116.106 199.519 116.106C197.37 116.106 195.922 117.643 195.922 120.12C195.922 122.59 197.37 124.134 199.519 124.134ZM199.519 122.993C198.146 122.993 197.243 121.948 197.243 120.12C197.243 118.292 198.146 117.247 199.519 117.247C200.892 117.247 201.787 118.292 201.787 120.12C201.787 121.948 200.892 122.993 199.519 122.993Z" fill="#111111"/>
<path d="M205.137 114.86C205.593 114.86 205.951 114.494 205.951 114.046C205.951 113.591 205.593 113.233 205.137 113.233C204.69 113.233 204.324 113.591 204.324 114.046C204.324 114.494 204.69 114.86 205.137 114.86ZM204.488 124H205.787V116.24H204.488V124Z" fill="#111111"/>
<path d="M210.48 124.134C211.599 124.134 212.487 123.582 212.987 122.687H213.009V124H214.248V113.233H212.95V117.501H212.92C212.457 116.65 211.562 116.106 210.45 116.106C208.495 116.106 207.16 117.688 207.16 120.12C207.16 122.552 208.503 124.134 210.48 124.134ZM210.726 117.247C212.062 117.247 212.957 118.389 212.957 120.12C212.957 121.859 212.062 122.993 210.726 122.993C209.353 122.993 208.488 121.881 208.488 120.12C208.488 118.367 209.353 117.247 210.726 117.247Z" fill="#111111"/>
<path d="M63 54H37V50H63V54Z" fill="#EE376A"/>
<path d="M61 61L30 61V57L61 57V61Z" fill="#EE376A"/>
<path d="M41 68L59 68V64L41 64V68Z" fill="#EE376A"/>
<path d="M167 54H139V50H167V54Z" fill="#EE376A"/>
<path d="M164 61L132 61V57L164 57V61Z" fill="#EE376A"/>
<path d="M143 68L161 68V64L143 64V68Z" fill="#EE376A"/>
</svg>
