<svg xmlns="http://www.w3.org/2000/svg" width="24" height="24"><path d="M14.36 9.75h-.87v4.5h.87c.63 0 1.15-.52 1.15-1.15v-2.2c0-.63-.52-1.15-1.15-1.15m0-1c1.18 0 2.14.96 2.14 2.15v2.2c0 1.19-.96 2.15-2.14 2.15H12.5v-6.5zm-4.98 6.5a1.9 1.9 0 0 1-1.88-1.88h1a.88.88 0 1 0 .88-.87H9.1v-1h.28a.88.88 0 1 0-.88-.88h-1a1.88 1.88 0 0 1 3.75 0c0 .55-.24 1.04-.61 1.38a1.87 1.87 0 0 1-1.27 3.25M6.94 18.2a.87.87 0 1 1-1.1 1.35 9.75 9.75 0 0 1 5.74-17.28l-.78-.78A.88.88 0 0 1 12.04.26l2.84 2.84-2.84 2.84A.87.87 0 0 1 10.8 4.7l.67-.67A8 8 0 0 0 6.94 18.2m5.48 3.53.78.78a.88.88 0 0 1-1.24 1.23L9.12 20.9l2.84-2.84a.87.87 0 1 1 1.24 1.24l-.67.67A8 8 0 0 0 17.06 5.8a.88.88 0 0 1 1.1-1.35 9.75 9.75 0 0 1-5.75 17.28"/></svg>