<svg height="24" width="24" xmlns="http://www.w3.org/2000/svg"><path d="M14.363 9.75h-.869v4.5h.869c.631 0 1.143-.516 1.143-1.15v-2.2c0-.634-.512-1.15-1.143-1.15zm0-1c1.178 0 2.137.964 2.137 2.15v2.2c0 1.186-.959 2.15-2.137 2.15H12.5v-6.5zm-3.113 4.625c0-.545-.238-1.032-.61-1.375.372-.343.61-.83.61-1.375 0-1.034-.841-1.875-1.875-1.875S7.5 9.59 7.5 10.625h1a.876.876 0 0 1 1.75 0 .877.877 0 0 1-.875.875h-.276v1h.276c.482 0 .875.393.875.875s-.393.875-.875.875a.876.876 0 0 1-.875-.875h-1c0 1.034.841 1.875 1.875 1.875s1.875-.841 1.875-1.875zM4 12c0-4.234 3.308-7.7 7.474-7.973L10.8 4.7a.874.874 0 1 0 1.238 1.237l2.84-2.841-2.84-2.841A.876.876 0 0 0 10.8 1.494l.777.777C6.398 2.495 2.25 6.767 2.25 12a9.719 9.719 0 0 0 3.583 7.552.874.874 0 0 0 1.231-.124.875.875 0 0 0-.124-1.231A7.973 7.973 0 0 1 4 12zm8.422 9.729l.778.777a.875.875 0 0 1-1.238 1.238l-2.84-2.841 2.84-2.841a.874.874 0 1 1 1.238 1.237l-.674.674C16.692 19.7 20 16.233 20 12a7.97 7.97 0 0 0-2.941-6.197.876.876 0 0 1 1.108-1.355A9.719 9.719 0 0 1 21.75 12c0 5.233-4.148 9.505-9.328 9.729z" fill="#8e8e8e"/></svg>