<svg xmlns="http://www.w3.org/2000/svg" width="24" height="24"><path d="M14.36 10.25h-.87v4.5h.87c.63 0 1.15-.52 1.15-1.15v-2.2c0-.63-.52-1.15-1.15-1.15zm0-1c1.18 0 2.14.96 2.14 2.15v2.2c0 1.19-.96 2.15-2.14 2.15H12.5v-6.5zm-4.98 6.5a1.88 1.88 0 01-1.88-1.88h1a.88.88 0 10.88-.87H9.1v-1h.28a.88.88 0 10-.88-.88h-1a1.88 1.88 0 013.75 0c0 .55-.24 1.04-.61 1.38a1.87 1.87 0 01-1.27 3.25zM6.94 18.7a.87.87 0 11-1.1 1.35 9.75 9.75 0 015.74-17.28L10.8 2A.88.88 0 0112.04.76l2.84 2.84-2.84 2.84A.87.87 0 0110.8 5.2l.67-.67A8 8 0 006.94 18.7zm5.48 3.53l.78.78a.88.88 0 01-1.24 1.23L9.12 21.4l2.84-2.84a.87.87 0 111.24 1.24l-.67.67A8 8 0 0017.06 6.3a.88.88 0 011.1-1.35 9.75 9.75 0 01-5.75 17.28z"/></svg>
