<svg height="24" width="24" xmlns="http://www.w3.org/2000/svg"><path d="M21.5 9.25a2.752 2.752 0 0 0-2.75-2.75H15.5v11h3.25a2.752 2.752 0 0 0 2.75-2.75zm2.5 0v5.5A5.256 5.256 0 0 1 18.75 20H13V4h5.75A5.256 5.256 0 0 1 24 9.25zM7.765 12a4.598 4.598 0 0 1 1.485 3.375C9.25 17.925 7.175 20 4.625 20S0 17.925 0 15.375h2.5c0 1.172.953 2.125 2.125 2.125s2.125-.953 2.125-2.125-.953-2.125-2.125-2.125H4v-2.5h.625c1.172 0 2.125-.953 2.125-2.125S5.797 6.5 4.625 6.5 2.5 7.453 2.5 8.625H0C0 6.075 2.075 4 4.625 4S9.25 6.075 9.25 8.625c0 1.335-.577 2.53-1.485 3.375z" fill="#8e8e8e"/></svg>