<svg xmlns="http://www.w3.org/2000/svg" width="24" height="24" fill="none"><path fill="#111" fill-rule="evenodd" d="M21.5 9.75A2.752 2.752 0 0 0 18.75 7H15.5v11h3.25a2.752 2.752 0 0 0 2.75-2.75v-5.5Zm2.5 0v5.5a5.256 5.256 0 0 1-5.25 5.25H13v-16h5.75A5.256 5.256 0 0 1 24 9.75ZM7.765 12.5a4.598 4.598 0 0 1 1.485 3.375A4.63 4.63 0 0 1 4.625 20.5 4.63 4.63 0 0 1 0 15.875h2.5C2.5 17.047 3.453 18 4.625 18a2.127 2.127 0 0 0 2.125-2.125 2.127 2.127 0 0 0-2.125-2.125H4v-2.5h.625A2.127 2.127 0 0 0 6.75 9.125 2.127 2.127 0 0 0 4.625 7 2.127 2.127 0 0 0 2.5 9.125H0A4.63 4.63 0 0 1 4.625 4.5 4.63 4.63 0 0 1 9.25 9.125c0 1.335-.577 2.53-1.485 3.375Z" clip-rule="evenodd"/></svg>
