<svg xmlns="http://www.w3.org/2000/svg" width="24" height="24"><path d="M12.003 1a2.5 2.5 0 1 0 0 5 2.5 2.5 0 0 0 0-5zm3.59 9.314c2.243-.238 4.364-.709 6.016-1.443a1.5 1.5 0 0 0-1.218-2.742C18.413 7.01 15.276 7.5 12 7.5c-3.277 0-6.413-.492-8.39-1.37a1.5 1.5 0 0 0-1.22 2.74c1.653.735 3.773 1.206 6.016 1.444l-.294 4.114c-.018.253-.06.505-.126.75l-1.598 5.964a1.5 1.5 0 0 0 2.898.777S10.618 16.94 10.872 16c.254-.94 2.008-.95 2.26 0 .251.95 1.585 5.919 1.585 5.919a1.5 1.5 0 1 0 2.898-.777l-1.602-5.982a3.999 3.999 0 0 1-.127-.75z"/></svg>
