<svg height="24" width="24" xmlns="http://www.w3.org/2000/svg"><path d="M21 12h-6.5V5.5H20c.551 0 1 .449 1 1V12zm0 8c0 .551-.449 1-1 1H6.5c-.551 0-1-.449-1-1v-5.5H21V20zM4.75 7.5A.75.75 0 0 1 4 6.75V5.5H2.75a.75.75 0 0 1 0-1.5H4V2.75a.75.75 0 0 1 1.5 0V4h1.25a.75.75 0 0 1 0 1.5H5.5v1.25a.75.75 0 0 1-.75.75zm4.674-2H12V12H5.5V9.424A4.727 4.727 0 0 0 9.424 5.5zM20 2.5H8.909C8.105 1.018 6.555 0 4.75 0A4.75 4.75 0 0 0 0 4.75c0 1.805 1.018 3.355 2.5 4.159V20a4 4 0 0 0 4 4H20a4 4 0 0 0 4-4V6.5a4 4 0 0 0-4-4z"/></svg>
