<svg xmlns="http://www.w3.org/2000/svg" width="24" height="24"><path d="M7 4.5c0-.552.392-1 .875-1h5.25c.483 0 .875.448.875 1s-.392 1-.875 1h-5.25C7.392 5.5 7 5.052 7 4.5zm6.125 2c.483 0 .875.448.875 1s-.392 1-.875 1h-5.25C7.392 8.5 7 8.052 7 7.5s.392-1 .875-1zM17 4.5a1 1 0 1 1-2 0 1 1 0 0 1 2 0zm-2 3a1 1 0 1 1 2 0 1 1 0 0 1-2 0zM4 3a3 3 0 0 1 3-3h10a3 3 0 0 1 3 3v6a3 3 0 0 1-3 3h-4v3h7a3 3 0 0 1 3 3v2.268A2 2 0 0 1 22 24a2 2 0 0 1-1-3.732V18a1 1 0 0 0-1-1h-7v3.268A2 2 0 0 1 12 24a2 2 0 0 1-1-3.732V17H4a1 1 0 0 0-1 1v2.268A2 2 0 0 1 2 24a2 2 0 0 1-1-3.732V18a3 3 0 0 1 3-3h7v-3H7a3 3 0 0 1-3-3zm2 0v6a1 1 0 0 0 1 1h10a1 1 0 0 0 1-1V3a1 1 0 0 0-1-1H7a1 1 0 0 0-1 1z"/></svg>