<svg xmlns="http://www.w3.org/2000/svg" width="24" height="24" fill="none"><path fill="#111" d="M19.28 21.36c0 .01 0 .01 0 0l-.06.16h-.02A4.309 4.309 0 0 1 15.31 24 4.27 4.27 0 0 1 12 22.42 4.27 4.27 0 0 1 8.69 24c-1.72 0-3.2-1.02-3.89-2.48h-.02l-.06-.15v-.01l-3.35-8.7h.01c-.24-.68-.38-1.4-.38-2.16A6.5 6.5 0 0 1 7.5 4c1.29 0 2.49.38 3.5 1.03V3.97C11 2.88 10.12 2 9.03 2h-1V0h1C11.22 0 13 1.78 13 3.97v1.06A6.445 6.445 0 0 1 16.5 4a6.5 6.5 0 0 1 6.5 6.5c0 .76-.14 1.48-.38 2.16h.01l-3.35 8.7Z"/></svg>