
<svg width="24px" height="24px" xmlns="http://www.w3.org/2000/svg"><path d="M17,2 L17,22 C17,23.1045695 17.8954305,24 19,24 C20.1045695,24 21,23.1045695 21,22 L21,2 C21,0.8954305 20.1045695,6.9388939e-17 19,0 C17.8954305,-6.9388939e-17 17,0.8954305 17,2 M9.28951577,12.0180965 L0.628429681,3.44504698 C0.0966750869,2.94533552 -0.119283899,2.19953048 0.0643438726,1.49700097 C0.247971644,0.794471465 0.802284443,0.245790736 1.51221131,0.0638445268 C2.22213817,-0.118101683 2.97594157,0.0953236914 3.48114905,0.62131253 L15,12.0180965 L3.48114905,23.4148804 C3.10338417,23.7903481 2.58972118,24.0009865 2.05428482,23.9999965 C1.23813483,23.9998241 0.50242556,23.5132768 0.190122058,22.767168 C-0.122181445,22.0210592 0.050402508,21.1622717 0.627420583,20.591146 L9.28951577,12.0180965 Z" fill="#8E8E8E"/></svg>