<svg height="24" width="24" xmlns="http://www.w3.org/2000/svg"><path d="M12 15.5c-1.93 0-3.5-1.57-3.5-3.5s1.57-3.5 3.5-3.5 3.5 1.57 3.5 3.5-1.57 3.5-3.5 3.5M12 0C5.383 0 0 5.383 0 12s5.383 12 12 12c2.166 0 4.29-.584 6.141-1.688a1.25 1.25 0 0 0-1.282-2.147A9.486 9.486 0 0 1 12 21.5c-5.238 0-9.5-4.262-9.5-9.5S6.762 2.5 12 2.5s9.5 4.262 9.5 9.5v1.899c0 .837-.801 1.544-1.75 1.544S18 14.736 18 13.899V7.25C18 6.56 17.44 6 16.75 6a1.24 1.24 0 0 0-1.23 1.149A5.958 5.958 0 0 0 12 6a6 6 0 1 0 4.272 10.21 4.307 4.307 0 0 0 3.478 1.733c2.343 0 4.25-1.814 4.25-4.044V12c0-6.617-5.383-12-12-12" fill="#8e8e8e"/></svg>