<svg xmlns="http://www.w3.org/2000/svg" width="24" height="24"><path d="M10.5 3.4c0-.88.67-2.4 1.5-2.4s1.5 1.52 1.5 2.4S12.83 5 12 5s-1.5-.72-1.5-1.6M1 9.5A3.5 3.5 0 0 1 4.5 6h15A3.5 3.5 0 0 1 23 9.5V12c0 1.13-.37 2.16-1 3v3a4 4 0 0 1-4 4H6a4 4 0 0 1-4-4v-3c-.63-.84-1-1.87-1-3zM4.5 9a.5.5 0 0 0-.5.5V12a2 2 0 0 0 3.72 1.03 1.5 1.5 0 0 1 2.56 0 2 2 0 0 0 3.44 0 1.5 1.5 0 0 1 2.56 0A2 2 0 0 0 20 12V9.5a.5.5 0 0 0-.5-.5zM19 3.4c0 .88-.67 1.6-1.5 1.6S16 4.28 16 3.4 16.67 1 17.5 1 19 2.52 19 3.4m-14 0C5 2.52 5.67 1 6.5 1S8 2.52 8 3.4 7.33 5 6.5 5 5 4.28 5 3.4"/></svg>