<svg xmlns="http://www.w3.org/2000/svg" width="24" height="24"><path d="M13.5 3.5a1.5 1.5 0 1 0 3 0 1.5 1.5 0 0 0-3 0m-10 4a1.5 1.5 0 1 0 0 3 1.5 1.5 0 0 0 0-3m0 6a1.5 1.5 0 1 0 0 3 1.5 1.5 0 0 0 0-3m7-10a1.5 1.5 0 1 0-3 0 1.5 1.5 0 0 0 3 0m10 7a1.5 1.5 0 1 0 0-3 1.5 1.5 0 0 0 0 3m0 3a1.5 1.5 0 1 0 0 3 1.5 1.5 0 0 0 0-3m-7 7a1.5 1.5 0 1 0 3 0 1.5 1.5 0 0 0-3 0m-3 0a1.5 1.5 0 1 0-3 0 1.5 1.5 0 0 0 3 0M9 7a2 2 0 1 0 0 4 2 2 0 0 0 0-4m6 4a2 2 0 1 0 0-4 2 2 0 0 0 0 4m-6 2a2 2 0 1 0 0 4 2 2 0 0 0 0-4m6 4a2 2 0 1 0 0-4 2 2 0 0 0 0 4M4 3a1 1 0 1 0 0 2 1 1 0 0 0 0-2m16 2a1 1 0 1 0 0-2 1 1 0 0 0 0 2M4 19a1 1 0 1 0 0 2 1 1 0 0 0 0-2m16 2a1 1 0 1 0 0-2 1 1 0 0 0 0 2"/></svg>