<svg xmlns="http://www.w3.org/2000/svg" width="24" height="24" fill="none"><path fill="#111" fill-rule="evenodd" d="m15.116 11.39-4.64 4.612-1.589-1.592a1.257 1.257 0 0 0-1.768-.007 1.238 1.238 0 0 0-.007 1.757l3.356 3.365 6.416-6.379a1.237 1.237 0 0 0 0-1.757 1.254 1.254 0 0 0-1.768 0ZM20 21.5H4a.507.507 0 0 1-.5-.5V9h17v12c0 .271-.229.5-.5.5ZM20 4h-2.75V2.25a1.25 1.25 0 0 0-2.5 0V4h-5.5V2.25a1.25 1.25 0 0 0-2.5 0V4H4C2.35 4 1 5.35 1 7v14c0 1.65 1.35 3 3 3h16c1.65 0 3-1.35 3-3V7c0-1.65-1.35-3-3-3Z" clip-rule="evenodd"/></svg>