<svg xmlns="http://www.w3.org/2000/svg" width="24" height="24"><path d="M15.84 3.95H16c4.41 0 8 3.61 8 8.05a8.03 8.03 0 0 1-8 8.05c-.69 0-1.25-.56-1.25-1.26s.56-1.26 1.25-1.26a5.52 5.52 0 0 0 0-11.06h-.16l1.04 1.05c.5.5.5 1.29 0 1.78-.48.5-1.28.5-1.76 0l-4.07-4.1 4.07-4.08c.48-.5 1.28-.5 1.76 0 .5.49.5 1.29 0 1.78zM7.12 16.48a1.26 1.26 0 0 1 0-1.78c.48-.5 1.27-.5 1.76 0l4.07 4.1-4.07 4.08c-.49.5-1.28.5-1.76 0a1.26 1.26 0 0 1 0-1.78l1.04-1.05H8c-4.41 0-8-3.61-8-8.05a8.03 8.03 0 0 1 8-8.05c.69 0 1.25.56 1.25 1.26S8.69 6.47 8 6.47a5.52 5.52 0 0 0 0 11.06h.16z"/></svg>