<svg height="24" width="24" xmlns="http://www.w3.org/2000/svg"><path d="M7.116 14.7a1.245 1.245 0 0 1 1.768 0l4.065 4.091-4.065 4.09a1.245 1.245 0 0 1-1.768 0 1.264 1.264 0 0 1 0-1.778l1.048-1.054H8c-4.411 0-8-3.611-8-8.049 0-4.438 3.589-8.049 8-8.049.69 0 1.25.563 1.25 1.258 0 .694-.56 1.258-1.25 1.258-3.032 0-5.5 2.482-5.5 5.533s2.468 5.533 5.5 5.533h.164L7.116 16.48a1.264 1.264 0 0 1 0-1.779zM16 3.951c4.41 0 8 3.611 8 8.049 0 4.438-3.59 8.049-8 8.049-.69 0-1.25-.564-1.25-1.258 0-.694.56-1.258 1.25-1.258 3.032 0 5.5-2.482 5.5-5.533S19.032 6.467 16 6.467h-.164l1.048 1.054a1.264 1.264 0 0 1 0 1.779 1.245 1.245 0 0 1-1.768 0L11.05 5.209l4.065-4.09c.488-.492 1.28-.492 1.768 0s.488 1.286 0 1.778l-1.048 1.054z" fill="#8e8e8e"/></svg>