<svg xmlns="http://www.w3.org/2000/svg" width="24" height="24"><path d="M9.62 1a3.3 3.3 0 0 1 3.24-.89l8.59 2.3A3.33 3.33 0 0 1 23.8 6.5l-1.4 5.25a8 8 0 0 0-2.91-.74l1.41-5.29a.33.33 0 0 0-.23-.4l-8.59-2.3a.33.33 0 0 0-.4.23L7.64 18.28c-.05.18.06.36.23.4l3.14.85A8 8 0 0 0 12.07 23H4a3 3 0 0 1-3-3V4a3 3 0 0 1 3-3zM19 19a1 1 0 1 1 0-2h2.11a3 3 0 0 0-2.18-1A2.96 2.96 0 0 0 16 19c0 1.67 1.33 3 2.93 3 .8 0 1.52-.33 2.05-.86l1.43 1.4A5 5 0 0 1 18.93 24 4.96 4.96 0 0 1 14 19c0-2.74 2.19-5 4.93-5 1.16 0 2.23.4 3.07 1.09V14a1 1 0 1 1 2 0v5z"/></svg>