<svg xmlns="http://www.w3.org/2000/svg" width="24" height="24"><path d="M12.5 3q-.45 0-.9.04l-.26-3Q11.91 0 12.5 0a11.5 11.5 0 0 1 11.38 13.28l-2.97-.4q.09-.68.09-1.38C21 6.8 17.2 3 12.5 3m-2.68.34q-.88.24-1.69.61L6.87 1.23Q7.92.74 9.06.44zm-3.23 1.5a9 9 0 0 0-1.34 1.17L3.07 3.94A12 12 0 0 1 4.85 2.4zM4.19 7.4a8 8 0 0 0-.76 1.56l-2.83-1a11 11 0 0 1 1.03-2.14zm-1.14 3.24a10 10 0 0 0 .05 2.24l-2.98.4a13 13 0 0 1-.05-2.98zm-1.42 7.15a13 13 0 0 1-1.3-3.33l2.93-.68q.32 1.36.99 2.55zm22.03-3.33q-.41 1.78-1.29 3.33l-2.62-1.46q.67-1.18.99-2.55zM4.72 21.44a12 12 0 0 1-2.46-2.63l2.47-1.7a9 9 0 0 0 1.86 1.98zm17.02-2.63q-1.05 1.5-2.46 2.63l-1.87-2.35a9 9 0 0 0 1.86-1.99zM9 23.61a12 12 0 0 1-3.3-1.47l1.62-2.52a9 9 0 0 0 2.46 1.09zm9.3-1.47A12 12 0 0 1 15 23.6l-.78-2.9a9 9 0 0 0 2.46-1.1zM12 24q-.92 0-1.81-.14l.47-2.96a9 9 0 0 0 2.68 0l.47 2.96Q12.92 24 12 24"/></svg>