<svg height="24" width="24" xmlns="http://www.w3.org/2000/svg"><path d="M11.99 17.38a.75.75 0 0 1-1.48-.26l1.5-8.53a.75.75 0 0 1 1.48.25zm-2.1-7.04c.21.35.11.82-.23 1.04L7.14 13l2.52 1.62a.75.75 0 1 1-.82 1.26l-3.5-2.25a.75.75 0 0 1 0-1.26l3.5-2.25a.75.75 0 0 1 1.04.22zM16.85 13l-2.52-1.62a.75.75 0 0 1 .82-1.26l3.5 2.25a.75.75 0 0 1 0 1.26l-3.5 2.25a.75.75 0 0 1-.82-1.26zM1 4a3 3 0 0 1 3-3h16a3 3 0 0 1 3 3v16a3 3 0 0 1-3 3H4a3 3 0 0 1-3-3zm3.5 0a.5.5 0 1 0 0-1 .5.5 0 0 0 0 1zM20 6H4v14h16zM6.5 3a.5.5 0 1 0 0 1 .5.5 0 0 0 0-1zm2 1a.5.5 0 1 0 0-1 .5.5 0 0 0 0 1z"/></svg>