<svg xmlns="http://www.w3.org/2000/svg" width="24" height="24"><path d="M20 10.252V6H4v14h6.252a7.974 7.974 0 0 0 1.503 3H4a3 3 0 0 1-3-3V3.5a3 3 0 0 1 3-3h16a3 3 0 0 1 3 3v8.255a7.974 7.974 0 0 0-3-1.503zM5 3.5a.5.5 0 1 0-1 0 .5.5 0 0 0 1 0zm1 0a.5.5 0 1 0 1 0 .5.5 0 0 0-1 0zm3 0a.5.5 0 1 0-1 0 .5.5 0 0 0 1 0zm3.975 8.275a8.04 8.04 0 0 0-1.921 2.254l.956-5.439a.75.75 0 0 1 1.48.25zM9.89 10.34c.21.35.11.82-.23 1.04L7.14 13l2.52 1.62a.752.752 0 1 1-.82 1.26l-3.5-2.25a.75.75 0 0 1 0-1.26l3.5-2.25a.75.75 0 0 1 1.04.22zM24 18a6 6 0 1 1-12 0 6 6 0 0 1 12 0zm-7.056 3.311 4.354-4.354a.75.75 0 1 0-1.061-1.061l-3.293 3.293-1.414-1.414a.749.749 0 1 0-1.06 1.061z"/></svg>