<svg xmlns="http://www.w3.org/2000/svg" width="24" height="24"><path d="M14.79 10h-.1zm-.79.62v.26zm6-.37V6H4v14h6.25q.44 1.68 1.5 3H4a3 3 0 0 1-3-3V4a3 3 0 0 1 3-3h16a3 3 0 0 1 3 3v7.75a8 8 0 0 0-3-1.5M5 3.5a.5.5 0 1 0-1 0 .5.5 0 0 0 1 0m1 0a.5.5 0 1 0 1 0 .5.5 0 0 0-1 0m3 0a.5.5 0 1 0-1 0 .5.5 0 0 0 1 0m3.97 8.28a8 8 0 0 0-1.92 2.25l.96-5.44a.75.75 0 0 1 1.48.25zM7.14 13l2.52 1.62a.75.75 0 1 1-.82 1.26l-3.5-2.25a.75.75 0 0 1 0-1.26l3.5-2.25a.75.75 0 0 1 1.04.22h.01c.21.35.11.82-.23 1.04zM12 18a6 6 0 1 1 12 0 6 6 0 0 1-12 0m4.94 3.31 4.36-4.35a.75.75 0 1 0-1.06-1.06l-3.3 3.29-1.41-1.42a.75.75 0 1 0-1.06 1.07z"/></svg>