<svg xmlns="http://www.w3.org/2000/svg" width="24" height="24"><path d="M13.704 20.592C19.39 20.592 24 15.982 24 10.296 24 4.61 19.39 0 13.704 0 8.018 0 3.408 4.61 3.408 10.296c0 2.12.641 4.09 1.74 5.729l-4.53 4.53a2 2 0 1 0 2.827 2.829l4.531-4.531a10.248 10.248 0 0 0 5.728 1.739zM6.28 11.653h3.211c.454 0 .852-.302.974-.74l.48-1.713 1.575 6.3c.242.968 1.59 1.04 1.933.102l1.921-5.26.16.572c.123.437.521.739.975.739h3.62a7.548 7.548 0 0 1-14.849 0zm11.193-4.805c-.265-.947-1.588-.998-1.925-.074l-1.869 5.116-1.698-6.793c-.252-1.007-1.676-1.027-1.956-.027L8.742 9.653H6.185a7.547 7.547 0 0 1 15.038 0H18.26z"/></svg>