<svg height="24" width="24" xmlns="http://www.w3.org/2000/svg"><path d="M7 10a1 1 0 0 0 1 1h6.849a6.49 6.49 0 0 1-1.616-2H8a1 1 0 0 0-1 1zm12 8a1 1 0 0 0 2 0v-5.817a6.499 6.499 0 0 1-2 .317zM12.584 7c-.051-.328-.084-.661-.084-1s.033-.672.084-1H7C4.794 5 3 6.794 3 9v9a1 1 0 0 0 2 0V9c0-1.103.897-2 2-2zm7.672-1.044l.884-.884a.877.877 0 0 0 0-1.238.877.877 0 0 0-1.238 0l-.884.884-.795-.795a.875.875 0 0 0-1.238 1.237l.796.796-.884.884a.874.874 0 1 0 1.237 1.237l.884-.884.884.884A.875.875 0 0 0 21.14 6.84zm2.28 3.58C21.559 10.512 20.28 11 19 11s-2.559-.488-3.536-1.464A5.002 5.002 0 0 1 19 1a5.002 5.002 0 0 1 3.536 8.536zM11 15H8a1 1 0 0 0 0 2h3a1 1 0 0 0 0-2zm6-2a1 1 0 0 1-1 1H8a1 1 0 0 1 0-2h8a1 1 0 0 1 1 1z" fill="#8e8e8e"/></svg>