<svg height="24" width="24" xmlns="http://www.w3.org/2000/svg"><path d="M7 10a1 1 0 0 0 1 1h6.849a6.49 6.49 0 0 1-1.616-2H8a1 1 0 0 0-1 1zm12 8a1 1 0 0 0 2 0v-5.817a6.499 6.499 0 0 1-2 .317zM12.584 7c-.051-.328-.084-.661-.084-1s.033-.672.084-1H7C4.794 5 3 6.794 3 9v9a1 1 0 0 0 2 0V9c0-1.103.897-2 2-2zM22 6a.875.875 0 0 0-.875-.875h-1.25v-1.25a.875.875 0 0 0-1.75 0v1.25H17a.875.875 0 0 0 0 1.75h1.125v1.25a.875.875 0 0 0 1.75 0v-1.25h1.25A.875.875 0 0 0 22 6zm.536 3.536C21.559 10.512 20.28 11 19 11s-2.559-.488-3.536-1.464A5.002 5.002 0 0 1 19 1a5.002 5.002 0 0 1 3.536 8.536zM11 15H8a1 1 0 0 0 0 2h3a1 1 0 0 0 0-2zm6-2a1 1 0 0 1-1 1H8a1 1 0 0 1 0-2h8a1 1 0 0 1 1 1z" fill="#8e8e8e"/></svg>