<svg width="24" height="24" viewBox="0 0 24 24" xmlns="http://www.w3.org/2000/svg"><path fill="#B5B5B5" d="M12.00,10.50 C12.90,10.50 13.50,11.10 13.50,12.00 C13.50,12.90 12.90,13.50 12.00,13.50 C11.10,13.50 10.50,12.90 10.50,12.00 C10.50,11.10 11.10,10.50 12.00,10.50 L12.00,10.50 Z M7.50,10.50 C8.40,10.50 9.00,11.10 9.00,12.00 C9.00,12.90 8.40,13.50 7.50,13.50 C6.60,13.50 6.00,12.90 6.00,12.00 C6.00,11.10 6.60,10.50 7.50,10.50 L7.50,10.50 Z M16.50,10.50 C17.40,10.50 18.00,11.10 18.00,12.00 C18.00,12.90 17.40,13.50 16.50,13.50 C15.60,13.50 15.00,12.90 15.00,12.00 C15.00,11.10 15.60,10.50 16.50,10.50 L16.50,10.50 Z M12.00,0.00 C5.40,0.00 0.00,5.40 0.00,12.00 C0.00,18.60 5.40,24.00 12.00,24.00 C18.60,24.00 24.00,18.60 24.00,12.00 C24.00,5.40 18.60,0.00 12.00,0.00 L12.00,0.00 Z M12.00,22.20 C6.45,22.20 1.80,17.70 1.80,12.00 C1.80,6.30 6.30,1.80 12.00,1.80 C17.70,1.80 22.20,6.30 22.20,12.00 C22.20,17.70 17.55,22.20 12.00,22.20 L12.00,22.20 Z"/></svg>
