<svg width="24" height="24" xmlns="http://www.w3.org/2000/svg"><path d="M8.902 3.242c0-.299.03-.478.534-.478h6.787c1.186 0 1.838 1.016 2.312 2.929l.386 1.525h1.156c.207-4.335.385-6.218.385-6.218s-2.905.329-4.624.329H7.153L2.5 1.179v1.256l1.57.299c1.097.209 1.364.448 1.453 1.465 0 0 .089 2.989.089 7.921s-.089 7.891-.089 7.891c0 .897-.356 1.226-1.453 1.435l-1.57.299V23l4.653-.149h7.766c1.749 0 5.81.149 5.81.149.089-1.076.682-5.948.771-6.486h-1.097l-1.156 2.66c-.919 2.092-2.253 2.242-3.735 2.242h-4.417c-1.482 0-2.193-.598-2.193-1.883v-6.815s3.29 0 4.357.089c.83.06 1.334.299 1.601 1.465l.356 1.554h1.274l-.089-3.916.178-3.945h-1.275l-.414 1.734c-.267 1.135-.445 1.345-1.601 1.464-1.512.15-4.387.12-4.387.12V3.242z" fill="#8E8E8E"/></svg>