<svg width="24" height="24" viewBox="0 0 24 24" xmlns="http://www.w3.org/2000/svg"><path fill="#B4B4B5" d="M16.50,11.00 C15.67,11.00 15.00,10.33 15.00,9.50 C15.00,8.67 15.67,8.00 16.50,8.00 C17.33,8.00 18.00,8.67 18.00,9.50 C18.00,10.33 17.33,11.00 16.50,11.00 M16.95,16.95 C15.63,18.27 13.87,19.00 12.00,19.00 C10.13,19.00 8.37,18.27 7.05,16.95 C6.66,16.56 6.66,15.93 7.05,15.54 C7.44,15.15 8.07,15.15 8.47,15.54 C9.41,16.48 10.66,17.00 12.00,17.00 C13.34,17.00 14.59,16.48 15.54,15.54 C15.93,15.14 16.56,15.15 16.95,15.54 C17.34,15.93 17.34,16.56 16.95,16.95 M6.00,9.50 C6.00,8.67 6.67,8.00 7.50,8.00 C8.33,8.00 9.00,8.67 9.00,9.50 C9.00,10.33 8.33,11.00 7.50,11.00 C6.67,11.00 6.00,10.33 6.00,9.50 M12.00,0.00 C5.37,0.00 0.00,5.37 0.00,12.00 C0.00,18.63 5.37,24.00 12.00,24.00 C18.63,24.00 24.00,18.63 24.00,12.00 C24.00,5.37 18.63,0.00 12.00,0.00"/></svg>
