<svg height="24" width="24" xmlns="http://www.w3.org/2000/svg"><path d="M17.088 17.841a1.2 1.2 0 0 1-1.593.58 4.517 4.517 0 0 0-.744-.217c-.738-.168-1.653-.27-2.75-.271-1.098 0-2.012.103-2.752.27-.411.094-.657.18-.741.217a1.199 1.199 0 1 1-1.014-2.174c.237-.11.643-.251 1.223-.383.915-.207 2.008-.33 3.284-.33 1.276.001 2.369.123 3.281.33.582.132.988.273 1.226.384.601.279.86.992.58 1.594zm-.624-6.959a1.675 1.675 0 1 1 0-3.35 1.675 1.675 0 0 1 0 3.35zM6.093 9.207a1.675 1.675 0 1 1 3.35 0 1.675 1.675 0 0 1-3.35 0zM24 11.989C23.995 5.367 18.624 0 12.002 0 5.373 0 0 5.373 0 12c0 6.628 5.373 12 12.002 12C18.623 24 23.995 18.633 24 12.01v-.02z"/></svg>
