<svg height="24" width="24" xmlns="http://www.w3.org/2000/svg"><path d="M15 5.875V1l6 6h-4.875C15.505 7 15 6.495 15 5.875zm-1.573 9.652c-.305.172-.645.748-.645 1.26 0 .424-.351.77-.782.77a.777.777 0 0 1-.782-.77c0-1.035.6-2.126 1.429-2.595.26-.148.541-.519.541-.983A1.18 1.18 0 0 0 12 12.04a1.18 1.18 0 0 0-1.187 1.169c0 .426-.35.771-.781.771a.778.778 0 0 1-.782-.771c0-1.494 1.233-2.709 2.75-2.709s2.75 1.215 2.75 2.709c0 .952-.52 1.862-1.323 2.318zM12 20a.82.82 0 0 1-.825-.814.82.82 0 0 1 .825-.814.82.82 0 0 1 .825.814A.82.82 0 0 1 12 20zm4.125-11.25a2.879 2.879 0 0 1-2.875-2.875V1H5.5A2.5 2.5 0 0 0 3 3.5v17A2.5 2.5 0 0 0 5.5 23h13a2.5 2.5 0 0 0 2.5-2.5V8.75h-4.875z"/></svg>
