<svg height="24" width="24" xmlns="http://www.w3.org/2000/svg"><path d="M9 19.5a1.75 1.75 0 1 1 .001-3.501A1.75 1.75 0 0 1 9 19.5M22.25 16h-8.321c-.724-2.034-2.646-3.5-4.929-3.5S4.795 13.966 4.071 16H1.75a1.75 1.75 0 0 0 0 3.5h2.321C4.795 21.534 6.717 23 9 23s4.205-1.466 4.929-3.5h8.321a1.75 1.75 0 0 0 0-3.5M15 4.5a1.75 1.75 0 1 1-.001 3.501A1.75 1.75 0 0 1 15 4.5M1.75 8h8.321c.724 2.034 2.646 3.5 4.929 3.5s4.205-1.466 4.929-3.5h2.321a1.75 1.75 0 0 0 0-3.5h-2.321C19.205 2.466 17.283 1 15 1s-4.205 1.466-4.929 3.5H1.75a1.75 1.75 0 0 0 0 3.5"/></svg>
