<svg height="24" width="24" xmlns="http://www.w3.org/2000/svg"><path d="M19 1h-3v2h3c1.103 0 2 .897 2 2v3h2V5c0-2.206-1.794-4-4-4zm2 18c0 1.103-.897 2-2 2h-3v2h3c2.206 0 4-1.794 4-4v-3h-2zM3 19v-3H1v3c0 2.206 1.794 4 4 4h3v-2H5c-1.103 0-2-.897-2-2zM3 5c0-1.103.897-2 2-2h3V1H5C2.794 1 1 2.794 1 5v3h2zm6 6.5C9 10.122 10.122 9 11.5 9s2.5 1.122 2.5 2.5-1.122 2.5-2.5 2.5S9 12.878 9 11.5zm7.5 6.5a1.502 1.502 0 0 0 1.061-2.561l-2.012-2.011A4.444 4.444 0 0 0 16 11.5C16 9.019 13.981 7 11.5 7S7 9.019 7 11.5 9.019 16 11.5 16c.693 0 1.341-.17 1.928-.451l2.011 2.012c.293.293.677.439 1.061.439z"/></svg>
