<svg xmlns="http://www.w3.org/2000/svg" width="24" height="24"><path d="M19.5 3h-15A4.5 4.5 0 0 0 0 7.5v9C0 18.98 2.03 21 4.5 21h15a4.5 4.5 0 0 0 4.5-4.5v-9C24 5.03 21.98 3 19.5 3m-7.4 5.08h1.58v7.8h-1.59zm9.02 0v1.34h-4v1.88h3.39v1.35h-3.4v3.23h-1.57v-7.8zM3.38 13.63A5 5 0 0 1 3.12 12q0-.98.33-1.8t.95-1.39q.48-.43 1.1-.66t1.4-.23q.74 0 1.32.19t1 .54q.41.34.67.83t.35 1.05H8.7a1.7 1.7 0 0 0-.56-.94 1.8 1.8 0 0 0-1.2-.36q-.54 0-.96.21-.4.21-.68.59t-.42.88a4 4 0 0 0 .02 2.2q.15.5.44.87.27.36.68.57.4.2.9.2a2.2 2.2 0 0 0 1.47-.55q.25-.25.4-.57.14-.3.14-.64v-.04H7.05v-1.22h3.28v4.14H9.14l-.05-1.05h-.03q-.4.68-.94.95a3 3 0 0 1-1.25.26q-.88 0-1.56-.3a3.4 3.4 0 0 1-1.93-2.11"/></svg>