<svg xmlns="http://www.w3.org/2000/svg" width="24" height="24"><path d="M3.02 7H2.5C1.67 7 1 7.67 1 8.5v6c0 .65.42 1.2 1 1.41v5.59c0 .83.67 1.5 1.5 1.5h17c.83 0 1.5-.67 1.5-1.5v-5.59c.58-.2 1-.76 1-1.41v-6c0-.83-.67-1.5-1.5-1.5h-.52q.25-.6.37-1.25a4.76 4.76 0 0 0-4.71-5.7A4.76 4.76 0 0 0 12 3.55 4.76 4.76 0 0 0 7.36.05a4.76 4.76 0 0 0-4.71 5.7q.12.65.37 1.25M7.6 7c-1.1 0-1.8-.83-2-1.84a1.8 1.8 0 1 1 3.55-.62L9.52 7zm7.25-2.46a1.8 1.8 0 1 1 3.56.62c-.2 1-.9 1.84-2 1.84h-1.93zM20 10v3h-6.5v-3zm-9.5 0v3H4v-3zm3 6H19v4h-5.5zm-3 0v4H5v-4z"/></svg>