<svg height="24" width="24" xmlns="http://www.w3.org/2000/svg"><path d="M6.8 9.8H3.1C3.5 7 5.4 4.6 8 3.6c-.7 1.7-1.1 3.9-1.2 6.2m-3.7 2.1h3.7c.1 2.3.5 4.6 1.2 6.2-2.6-1-4.5-3.3-4.9-6.2m7.8-8.8c.5 0 1.8 2.4 2 6.7H8.8c.2-4.3 1.6-6.7 2.1-6.7M9.5 16.3c-.3-1.1-.6-2.6-.7-4.4h2.7c.9-1 2.1-1.7 3.5-2.1-.1-2.3-.5-4.5-1.3-6.2 2.6 1 4.4 3.3 4.9 6.1.7.1 1.5.4 2.1.8-.2-5.3-4.5-9.5-9.8-9.5C5.4 1 1 5.4 1 10.9c0 5.3 4.2 9.6 9.5 9.8-.6-1.1-1-2.3-1-3.7v-.7m10.8-.5L16.2 20l-2.5-2.5c-.3-.3-.3-.8 0-1.1.3-.3.8-.3 1 0l1.5 1.5 3.1-3.2c.2-.3.7-.3 1 0 .3.3.3.8 0 1.1M17 11c-3.3 0-6 2.7-6 6s2.7 6 6 6 6-2.7 6-6-2.7-6-6-6"/></svg>
