<svg height="24" width="24" xmlns="http://www.w3.org/2000/svg"><path d="M21.298 16.957l-4.354 4.354-2.474-2.475a.75.75 0 0 1 1.06-1.061l1.414 1.414 3.293-3.293a.75.75 0 1 1 1.061 1.061M18 12a6 6 0 1 0 0 12 6 6 0 0 0 0-12M7.027 10.75H2.592a9.515 9.515 0 0 1 5.923-7.579c-.871 2.01-1.373 4.751-1.488 7.579m-4.435 2.5h4.435c.115 2.828.617 5.569 1.488 7.579a9.515 9.515 0 0 1-5.923-7.579M12.004 2.5h.001c.673.061 2.245 3.006 2.467 8.25H9.529c.23-5.325 1.877-8.209 2.475-8.25M10 18c0-.241.015-.477.036-.713a23.479 23.479 0 0 1-.507-4.037h2.049a7.996 7.996 0 0 1 5.356-3.171c-.161-2.586-.646-5.057-1.446-6.907a9.517 9.517 0 0 1 5.92 7.578h-.048a8.009 8.009 0 0 1 2.605 1.938c.013-.229.035-.456.035-.688C24 5.386 18.622.005 12.009 0H12C5.383 0 0 5.383 0 12s5.383 12 12 12H12.009c.229-.001.453-.022.679-.035A7.975 7.975 0 0 1 10 18" fill="#8e8e8e"/></svg>