<svg width="24" height="24" xmlns="http://www.w3.org/2000/svg"><path d="M15.488 20.828c.869-2.01 1.371-4.75 1.484-7.578h4.436a9.517 9.517 0 0 1-5.92 7.578zM2.592 13.25h4.435c.114 2.828.616 5.569 1.488 7.579a9.517 9.517 0 0 1-5.923-7.579zM8.515 3.171c-.872 2.01-1.374 4.751-1.488 7.579H2.592a9.514 9.514 0 0 1 5.923-7.579zm1.014 7.579c.23-5.324 1.876-8.209 2.475-8.25h.001c.672.061 2.245 3.006 2.466 8.25H9.529zm2.477 10.749l-.002.001c-.599-.041-2.245-2.926-2.475-8.25h4.942c-.221 5.243-1.794 8.188-2.465 8.249zm9.402-10.749h-4.436c-.113-2.828-.615-5.568-1.484-7.578a9.514 9.514 0 0 1 5.92 7.578zM24 12C24 5.386 18.622.005 12.009 0H12C5.383 0 0 5.383 0 12s5.383 12 12 12h.005l.004-.001C18.622 23.995 24 18.614 24 12z" fill="#8E8E8E"/></svg>