<svg height="24" width="24" xmlns="http://www.w3.org/2000/svg"><path d="M15.49 20.83c.87-2.01 1.37-4.75 1.48-7.58h4.44a9.53 9.53 0 0 1-5.92 7.58zm-12.9-7.58h4.44c.11 2.83.61 5.57 1.49 7.58-3.15-1.25-5.47-4.12-5.93-7.58zM8.52 3.17c-.88 2.01-1.38 4.75-1.49 7.58H2.59c.46-3.46 2.78-6.33 5.93-7.58zm1.01 7.58C9.76 5.43 11.4 2.54 12 2.5h.01c.67.06 2.24 3.01 2.46 8.25H9.53zm2.48 10.75H12c-.6-.04-2.24-2.93-2.47-8.25h4.94c-.22 5.24-1.79 8.19-2.46 8.25zm9.4-10.75h-4.44c-.11-2.83-.61-5.57-1.48-7.58a9.53 9.53 0 0 1 5.92 7.58zM24 12C24 5.39 18.62.01 12.01 0H12C5.38 0 0 5.38 0 12s5.38 12 12 12h.01C18.62 24 24 18.61 24 12z"/></svg>
