<svg height="24" width="24" xmlns="http://www.w3.org/2000/svg"><path d="M17.776 22.39c-4.001 1.588-8.53-.031-10.557-3.62a12.383 12.383 0 0 1-.531-.86c-1.556-2.747-3.66-4.128-4.1-4.329-.439-.203-1.993-.968-1.488-1.889.281-.512 1.063-.891 1.778-.966 1.122-.245 3.019.308 4.894 1.496L4.054 3.419a1.716 1.716 0 0 1 .555-2.04l.012-.01c.055-.042.113-.08.175-.116.014-.006.025-.014.039-.022.066-.036.135-.071.207-.099l.003-.001.002-.002a1.93 1.93 0 0 1 .22-.069c.014-.003.028-.006.042-.011.071-.014.14-.028.209-.036l.016-.002c.783-.083 1.559.336 1.872 1.077l2.186 5.173a1.754 1.754 0 0 1 1.117-1.485c.924-.366 1.98.063 2.36.958a.183.183 0 0 0 .008.025 1.762 1.762 0 0 1 1.114-1.447c.926-.366 1.982.061 2.36.959.016.034.027.07.04.108a1.757 1.757 0 0 1 1.104-1.373c.924-.366 1.924-.036 2.304.861l.002.005s1.114 2.167 2.365 5.779c.047.14.091.28.129.421 1.532 4.089-.528 8.656-4.719 10.318"/></svg>