<svg xmlns="http://www.w3.org/2000/svg" width="24" height="24"><path d="M23.133 12.357H17.05l-1.195-1.877a1.012 1.012 0 0 0-1.722.022L12.15 13.81 9.929 8.63c-.345-.807-1.483-.821-1.85-.024l-1.72 3.75H.866a6.194 6.194 0 0 1 .956-7.547c2.439-2.413 6.395-2.413 8.834 0L12 6.154l1.344-1.344c2.439-2.413 6.395-2.413 8.834 0a6.194 6.194 0 0 1 .955 7.547zM13.047 22.575a1.502 1.502 0 0 1-2.094 0l-8.345-8.218h4.384c.396 0 .755-.23.92-.59l1.057-2.302 2.103 4.907c.325.76 1.373.83 1.798.122l2.155-3.592.628.987c.186.291.508.468.854.468h4.884z"/></svg>