<svg height="24" width="24" xmlns="http://www.w3.org/2000/svg"><path d="M12 6.75c-.69 0-1.25.56-1.25 1.25v4.518l3.116 3.116c.244.244.564.366.884.366s.64-.122.884-.366a1.25 1.25 0 0 0 0-1.768l-2.384-2.384V8c0-.69-.56-1.25-1.25-1.25M23 12c0 6.065-4.935 11-11 11a10.945 10.945 0 0 1-10.862-9.256 1.5 1.5 0 0 1 2.963-.473A7.957 7.957 0 0 0 12 20c4.411 0 8-3.589 8-8s-3.589-8-8-8c-2.218 0-4.296.941-5.784 2.5H7a1.5 1.5 0 1 1 0 3H1V4a1.5 1.5 0 1 1 3 0v.465A11.037 11.037 0 0 1 12 1c6.065 0 11 4.935 11 11" fill="#8e8e8e"/></svg>