<svg xmlns="http://www.w3.org/2000/svg" width="24" height="24" fill="none"><path fill="#111" fill-rule="evenodd" d="M17.872 4.808a1.32 1.32 0 1 0 0 2.64 1.32 1.32 0 0 0 0-2.64ZM12 15.666a3.666 3.666 0 1 1 0-7.333 3.667 3.667 0 0 1 0 7.333Zm0-9.315a5.649 5.649 0 1 0 0 11.297 5.649 5.649 0 0 0 0-11.297Zm0-5.35c-2.987 0-3.362.011-4.535.065-1.171.053-1.971.24-2.67.511a5.399 5.399 0 0 0-1.95 1.27 5.4 5.4 0 0 0-1.267 1.947c-.272.7-.458 1.5-.512 2.671C1.013 8.638 1 9.012 1 12c0 2.987.013 3.362.066 4.535.054 1.171.24 1.971.512 2.67a5.396 5.396 0 0 0 1.268 1.95 5.396 5.396 0 0 0 1.949 1.267c.699.272 1.499.458 2.67.512C8.638 22.987 9.013 23 12 23c2.988 0 3.362-.013 4.535-.066 1.17-.054 1.97-.24 2.67-.512a5.4 5.4 0 0 0 1.949-1.268 5.399 5.399 0 0 0 1.269-1.949c.272-.699.458-1.499.51-2.67.055-1.173.067-1.548.067-4.535 0-2.988-.012-3.362-.066-4.535-.053-1.17-.24-1.97-.511-2.67a5.404 5.404 0 0 0-1.27-1.949 5.404 5.404 0 0 0-1.947-1.269c-.7-.272-1.5-.458-2.671-.51C15.362 1.011 14.988 1 12 1Zm0 1.981c2.937 0 3.285.011 4.445.064 1.073.05 1.655.228 2.043.38.513.198.88.437 1.264.822.385.384.624.751.823 1.264.15.388.33.97.379 2.043.053 1.16.064 1.508.064 4.445 0 2.937-.011 3.285-.064 4.445-.05 1.072-.228 1.655-.38 2.042-.198.514-.437.88-.822 1.265a3.406 3.406 0 0 1-1.264.823c-.388.151-.97.33-2.043.38-1.16.052-1.507.063-4.445.063-2.937 0-3.285-.01-4.445-.064-1.072-.049-1.655-.228-2.042-.379a3.41 3.41 0 0 1-1.265-.823 3.41 3.41 0 0 1-.823-1.265c-.151-.387-.33-.97-.38-2.042-.052-1.16-.063-1.508-.063-4.445 0-2.937.01-3.285.064-4.445.049-1.073.228-1.655.379-2.043.2-.513.438-.88.823-1.264a3.398 3.398 0 0 1 1.265-.823c.387-.15.97-.33 2.042-.379 1.16-.053 1.508-.064 4.445-.064Z" clip-rule="evenodd"/></svg>