<svg width="24px" height="24px" xmlns="http://www.w3.org/2000/svg"><path d="M24.0001201,10.2505129 L24.0001201,13.7505129 L22.0001201,13.7505129 L22.0001201,17.0005129 L18.0001201,17.0005129 L18.0001201,13.7505129 L11.7391201,13.7505129 C10.8722753,16.5933281 8.05488666,18.3731465 5.11533081,17.9349345 C2.17577496,17.4967226 -5.36546719e-14,14.9725523 -5.32907052e-14,12.0005129 C-5.29267385e-14,9.02847347 2.17577496,6.50430318 5.11533081,6.06609123 C8.05488666,5.62787928 10.8722753,7.40769768 11.7391201,10.2505129 L24.0001201,10.2505129 Z M6.00012014,14.5005129 C7.37812014,14.5005129 8.50012014,13.3785129 8.50012014,12.0005129 C8.50012014,10.6225129 7.37812014,9.50051289 6.00012014,9.50051289 C4.62212014,9.50051289 3.50012014,10.6225129 3.50012014,12.0005129 C3.5017732,13.3805395 4.62009357,14.4988598 6.00012014,14.5005129 Z" fill="#8E8E8E"/></svg>