<svg height="24" width="24" xmlns="http://www.w3.org/2000/svg"><path d="M21.001 7.241l-4.053 4.052-1.06-1.06.672-.672a1.5 1.5 0 1 0-2.121-2.121l-.671.672-1.061-1.06L16.759 3zm-9.708 9.708l-4.052 4.052-4.242-4.241 4.053-4.053 1.059 1.06-.671.672a1.5 1.5 0 0 0 2.121 2.121l.671-.672zM14.639.879l-4.053 4.052a3 3 0 0 0 0 4.242l1.061 1.06-1.415 1.414-1.06-1.061a3 3 0 0 0-4.241 0L.879 14.638a2.998 2.998 0 0 0 0 4.242l4.241 4.242a3 3 0 0 0 4.241 0l4.053-4.052a3 3 0 0 0 0-4.242l-1.06-1.061 1.414-1.413 1.06 1.06a3 3 0 0 0 4.241 0l4.052-4.052a2.998 2.998 0 0 0 0-4.242L18.88.879a2.997 2.997 0 0 0-4.241 0z" fill="#8e8e8e"/></svg>