<svg height="24" width="24" xmlns="http://www.w3.org/2000/svg"><path d="M21 7.24l-4.05 4.05-1.06-1.06.67-.67a1.5 1.5 0 1 0-2.12-2.12l-.67.67-1.06-1.06L16.76 3zm-9.7 9.7L7.23 21 3 16.76l4.05-4.05 1.06 1.06-.67.67a1.5 1.5 0 0 0 2.12 2.12l.67-.67zM14.63.89l-4.05 4.05a3 3 0 0 0 0 4.24l1.06 1.06-1.42 1.42-1.06-1.06a3 3 0 0 0-4.24 0L.88 14.64a3 3 0 0 0 0 4.24l4.24 4.24a3 3 0 0 0 4.24 0l4.05-4.05a3 3 0 0 0 0-4.24l-1.06-1.06 1.42-1.42 1.06 1.06a3 3 0 0 0 4.24 0l4.05-4.05a3 3 0 0 0 0-4.24L18.88.88a3 3 0 0 0-4.24 0z"/></svg>
