<svg xmlns="http://www.w3.org/2000/svg" width="24" height="24"><path d="M2.8 2.77V7h1.48V.66H2.85Q2.82 1.87 1.4 1.88v1.5c.72 0 1.22-.2 1.4-.61M.54 14.41c0 .19.02.45.06.59h4.78v-1.39H2.34q.1-.25.56-.5l1.12-.58c.86-.43 1.42-1.04 1.42-2.01 0-1.24-.86-2-2.38-2-1.46 0-2.46.72-2.52 2l1.51.37c.06-.69.43-1.07 1.02-1.07.5 0 .83.3.83.76q-.01.55-.65.85l-1.15.56A2.5 2.5 0 0 0 .53 14.4m4.86 6.54c0-1.12-.64-1.85-1.8-1.92L5.11 18v-1.34H.74V18h2.52l-1.9 1.17.55 1.04c.27-.18.57-.32.95-.32.6 0 1.01.38 1.01.95 0 .6-.4 1-1.04 1q-.84 0-1.08-.87l-1.3.64c.27 1 1.15 1.52 2.46 1.52 1.45 0 2.48-.9 2.48-2.18M7 6h17V3H7zm0 7.5h17v-3H7zM7 21h17v-3H7z"/></svg>