<svg width="24" height="24" viewBox="0 0 24 24" fill="none" xmlns="http://www.w3.org/2000/svg">
<path d="M8.77215 14.0313C8.32661 13.5857 7.60424 13.5857 7.15869 14.0313C6.71315 14.4768 6.71315 15.1992 7.15869 15.6447C9.68344 18.1695 13.7769 18.1695 16.3016 15.6447C16.7472 15.1992 16.7472 14.4768 16.3016 14.0313C15.8561 13.5857 15.1337 13.5857 14.6882 14.0313C13.0545 15.6649 10.4058 15.6649 8.77215 14.0313Z" fill="#111111"/>
<path fill-rule="evenodd" clip-rule="evenodd" d="M17.4695 2.3344C17.024 1.88886 16.3016 1.88886 15.8561 2.3344L11.8495 6.34102L7.84285 2.33441C7.3973 1.88887 6.67493 1.88887 6.22939 2.33441C5.78385 2.77996 5.78385 3.50233 6.22939 3.94787L8.75303 6.47151H6.94384C4.21343 6.47151 2 8.68495 2 11.4154V17.0564C2 19.7868 4.21343 22.0002 6.94384 22.0002H16.0709C18.8013 22.0002 21.0148 19.7868 21.0148 17.0564V11.4154C21.0148 8.68495 18.8013 6.47151 16.0709 6.47151H14.9459L17.4695 3.94786C17.9151 3.50231 17.9151 2.77995 17.4695 2.3344ZM4.28177 11.4154C4.28177 9.94513 5.47362 8.75328 6.94384 8.75328H16.0709C17.5411 8.75328 18.733 9.94513 18.733 11.4154V17.0564C18.733 18.5266 17.5411 19.7185 16.0709 19.7185H6.94384C5.47362 19.7185 4.28177 18.5266 4.28177 17.0564V11.4154Z" fill="#111111"/>
</svg>
