<svg xmlns="http://www.w3.org/2000/svg" width="24" height="24"><path d="M8.77 14.03a1.14 1.14 0 0 0-1.61 1.61 6.47 6.47 0 0 0 9.14 0 1.14 1.14 0 1 0-1.61-1.6 4.2 4.2 0 0 1-5.92 0m8.7-11.7a1.14 1.14 0 0 0-1.61 0l-4.01 4.01-4-4a1.14 1.14 0 0 0-1.62 1.6l2.52 2.53h-1.8A4.94 4.94 0 0 0 2 11.42v5.64A4.94 4.94 0 0 0 6.94 22h9.13a4.94 4.94 0 0 0 4.94-4.94v-5.64a4.94 4.94 0 0 0-4.94-4.95h-1.12l2.52-2.52c.45-.45.45-1.17 0-1.62M4.28 11.42c0-1.48 1.2-2.67 2.66-2.67h9.13c1.47 0 2.66 1.2 2.66 2.67v5.64a2.66 2.66 0 0 1-2.66 2.66H6.94a2.66 2.66 0 0 1-2.66-2.66z"/></svg>