<svg height="24" width="24" xmlns="http://www.w3.org/2000/svg"><path d="M12 14a2 2 0 0 0 2-2V3a2 2 0 0 0-4 0v9a2 2 0 0 0 2 2m11-2c0 2.938-1.144 5.701-3.222 7.778A10.925 10.925 0 0 1 12 23a10.925 10.925 0 0 1-7.778-3.222A10.925 10.925 0 0 1 1 12c0-2.938 1.144-5.701 3.222-7.778A2 2 0 0 1 7.05 7.051 6.952 6.952 0 0 0 5 12c0 1.87.728 3.627 2.05 4.949A6.953 6.953 0 0 0 12 19c1.87 0 3.627-.728 4.949-2.05A6.953 6.953 0 0 0 19 12c0-1.87-.728-3.627-2.05-4.949a2 2 0 1 1 2.828-2.829A10.925 10.925 0 0 1 23 12"/></svg>
