<svg height="24" width="24" xmlns="http://www.w3.org/2000/svg"><path d="M12 14a2 2 0 0 0 2-2V3a2 2 0 0 0-4 0v9a2 2 0 0 0 2 2m11-2c0 2.938-1.144 5.701-3.222 7.778C17.701 21.856 14.938 23 12 23s-5.701-1.144-7.778-3.222C2.144 17.701 1 14.938 1 12s1.144-5.701 3.222-7.778A2 2 0 0 1 7.05 7.051C5.728 8.373 5 10.13 5 12s.728 3.627 2.05 4.949C8.373 18.272 10.13 19 12 19s3.627-.728 4.949-2.05C18.272 15.627 19 13.87 19 12s-.728-3.627-2.05-4.949a2 2 0 1 1 2.828-2.829A10.925 10.925 0 0 1 23 12" fill="#8e8e8e"/></svg>