<svg xmlns="http://www.w3.org/2000/svg" width="24" height="24" fill="none"><path fill="#111" fill-rule="evenodd" d="M16.707 9.082 15.29 7.668a1.001 1.001 0 0 0-1.416 0L3.833 17.55a1.989 1.989 0 0 0-.512 1.926L1 21.793l2.125.707 1.612-1.61a2 2 0 0 0 1.929-.511l10.041-9.883a.999.999 0 0 0 0-1.414Zm5.277 4.879-1.5.023-.023-1.5a1 1 0 0 0-1-.984h-.016a1 1 0 0 0-.984 1.016l.023 1.5-1.5.023a1 1 0 0 0 .016 2h.016l1.5-.023.023 1.5c.009.546.455.984 1 .984h.016a1 1 0 0 0 .984-1.016l-.023-1.5 1.5-.023A1 1 0 0 0 23 14.945c-.01-.551-.468-1.009-1.016-.984ZM7 6.04h.016l1.5-.023.023 1.499c.009.546.455.984 1 .984h.016a1 1 0 0 0 .984-1.015l-.023-1.5 1.5-.023A1 1 0 0 0 13 4.947c-.009-.552-.475-1.015-1.016-.984l-1.5.023-.023-1.499c-.009-.552-.465-1.028-1.016-.984a1 1 0 0 0-.984 1.015l.023 1.5-1.5.023A1 1 0 0 0 7 6.04Zm9-.985a1 1 0 0 1 .984-1.016l1.5-.023-.023-1.5a1 1 0 0 1 .984-1.016h.016a1 1 0 0 1 1 .984l.023 1.5 1.5-.023c.548-.031 1.006.433 1.016.984a1 1 0 0 1-.984 1.016l-1.5.023.023 1.5a1 1 0 0 1-.984 1.016h-.016c-.545 0-.991-.438-1-.984l-.023-1.5-1.5.023H17a1 1 0 0 1-1-.984Z" clip-rule="evenodd"/></svg>