<svg xmlns="http://www.w3.org/2000/svg"  width="24" height="24" ><path d="M16.7 9.08l-1.4-1.41a1 1 0 00-1.42 0L3.83 17.55a1.99 1.99 0 00-.5 1.93L1 21.79l2.13.71 1.6-1.61a2 2 0 001.94-.51L16.7 10.5a1 1 0 000-1.42zm5.28 4.88l-1.5.02-.02-1.5a1 1 0 00-1-.98h-.01a1 1 0 00-.99 1.02l.02 1.5-1.5.02a1 1 0 00.02 2h.02l1.5-.02.02 1.5a1 1 0 001 .98h.02a1 1 0 00.98-1.02l-.02-1.5 1.5-.02a1 1 0 00.98-1.01 1 1 0 00-1.02-.99zM7 6.04h.02l1.5-.02.02 1.5a1 1 0 001 .98h.02a1 1 0 00.98-1.01l-.02-1.5 1.5-.03A1 1 0 0013 4.95a1 1 0 00-1.02-.99l-1.5.03-.02-1.5c0-.55-.46-1.03-1.02-.99a1 1 0 00-.98 1.02l.02 1.5-1.5.02a1 1 0 00.02 2zm10 0h.02l1.5-.02.02 1.5a1 1 0 001 .98h.01a1 1 0 00.99-1.02l-.02-1.5 1.5-.02A1 1 0 0023 4.95a.99.99 0 00-1.02-.99l-1.5.02-.02-1.5a1 1 0 00-1-.98h-.02a1 1 0 00-.98 1.02l.02 1.5-1.5.02a1 1 0 00.02 2z"/></svg>
