<svg width="24" height="24" xmlns="http://www.w3.org/2000/svg"><path d="M7.583 9.59c-.473 0-.849.22-1.127.659-.278.438-.419 1.019-.419 1.742 0 .734.141 1.314.419 1.74.278.428.643.639 1.094.639.465 0 .834-.208 1.107-.622.272-.415.409-.992.409-1.728 0-.768-.132-1.364-.396-1.791-.265-.427-.628-.639-1.087-.639zM23 8.289s-6.647 4.37-6.412 4.228c0 0-.237.142-.432 0l-1.388-.942v5.847h7.047c.627 0 1.185-.362 1.185-1.223v-7.91zM7.621 8.152c.855 0 1.546.344 2.073 1.036.528.693.792 1.607.792 2.74.001 1.164-.273 2.102-.82 2.815-.547.712-1.261 1.069-2.142 1.069-.857 0-1.555-.345-2.096-1.035-.539-.691-.812-1.59-.812-2.699 0-1.171.276-2.118.825-2.841.549-.723 1.276-1.085 2.18-1.085zm7.147-2.488v4.302l1.52.948c.04.012.126.013.166 0l6.544-4.363c0-.517-.486-.887-.76-.887h-7.47zM13.95 1L1 3.478v16.837L13.95 23V1z" fill="#8E8E8E"/></svg>