<svg height="24" width="24" xmlns="http://www.w3.org/2000/svg"><path d="M14.3 18.17a1.25 1.25 0 0 1 1.77 0c.49.49.49 1.28 0 1.76L12 24l-4.07-4.07c-.48-.48-.48-1.27 0-1.76a1.25 1.25 0 0 1 1.77 0l1.05 1.04v-3.96a1.25 1.25 0 0 1 2.5 0v3.96l1.05-1.04zm-9.51-4.92l1.04 1.05c.49.49.49 1.28 0 1.77-.48.48-1.28.48-1.76 0L0 12l4.07-4.07c.48-.48 1.28-.48 1.76 0 .49.49.49 1.28 0 1.77l-1.04 1.05h3.96a1.25 1.25 0 0 1 0 2.5H4.79zm15.14-5.32L24 12l-4.07 4.07c-.48.48-1.27.48-1.76 0a1.25 1.25 0 0 1 0-1.77l1.04-1.05h-3.96a1.25 1.25 0 0 1 0-2.5h3.96L18.17 9.7a1.25 1.25 0 0 1 0-1.77c.49-.48 1.28-.48 1.76 0zM9.7 5.83c-.49.49-1.28.49-1.77 0-.48-.49-.48-1.28 0-1.76L12 0l4.07 4.07c.49.48.49 1.27 0 1.76s-1.28.49-1.77 0l-1.05-1.04v3.96a1.25 1.25 0 0 1-2.5 0V4.79L9.7 5.83z"/></svg>
