<svg width="24" height="24" viewBox="0 0 24 24" xmlns="http://www.w3.org/2000/svg"><path fill="#B5B5B5" d="M16.50,11.50 C14.02,11.50 12.00,9.48 12.00,7.00 C12.00,4.51 14.02,2.50 16.50,2.50 C18.98,2.50 21.00,4.51 21.00,7.00 C21.00,9.48 18.98,11.50 16.50,11.50 Z M9.25,12.50 L6.50,12.50 L6.50,15.25 C6.50,15.94 5.94,16.50 5.25,16.50 C4.56,16.50 4.00,15.94 4.00,15.25 L4.00,12.50 L1.25,12.50 C0.56,12.50 0.00,11.94 0.00,11.25 C0.00,10.56 0.56,10.00 1.25,10.00 L4.00,10.00 L4.00,7.25 C4.00,6.56 4.56,6.00 5.25,6.00 C5.94,6.00 6.50,6.56 6.50,7.25 L6.50,10.00 L9.25,10.00 C9.94,10.00 10.50,10.56 10.50,11.25 C10.50,11.94 9.94,12.50 9.25,12.50 Z M16.50,12.50 C20.64,12.50 24.00,15.86 24.00,20.00 L24.00,21.50 L9.00,21.50 L9.00,20.00 C9.00,15.86 12.36,12.50 16.50,12.50 Z"/></svg>
