<svg height="24" width="24" xmlns="http://www.w3.org/2000/svg"><path d="M14 11a9.946 9.946 0 0 0-3.274.56C12.707 13.017 14 15.357 14 18a7.976 7.976 0 0 1-2.726 6H24v-3c0-5.523-4.477-10-10-10zm-6.939 7l1.469-1.47a.749.749 0 1 0-1.06-1.06L6 16.939 4.53 15.47a.749.749 0 1 0-1.06 1.06L4.939 18 3.47 19.47a.749.749 0 1 0 1.06 1.06L6 19.061l1.47 1.469c.146.147.338.22.53.22s.384-.073.53-.22a.749.749 0 0 0 0-1.06zM12 18a6 6 0 1 1-12 0 6 6 0 0 1 12 0zM9 5a5 5 0 1 1 10.001.001A5 5 0 0 1 9 5z" fill="#8e8e8e"/></svg>