<svg height="24" width="24" xmlns="http://www.w3.org/2000/svg"><path d="M9.13 6.37c.49.48.49 1.27 0 1.76l-2.61 2.62 2.61 2.62c.49.48.49 1.27 0 1.76-.48.49-1.27.49-1.76 0l-2.62-2.61-2.62 2.61c-.48.49-1.28.49-1.76 0-.49-.49-.49-1.28 0-1.76l2.61-2.62L.37 8.13c-.49-.49-.49-1.28 0-1.76.48-.49 1.28-.49 1.76 0l2.62 2.61 2.62-2.61c.49-.49 1.28-.49 1.76 0zM20.5 8.69c1.49.87 2.5 2.46 2.5 4.31h-4v7.96L18 23l-1-2.04V13h-4c0-1.85 1.01-3.44 2.5-4.31V2.93c-.86-.22-1.5-1-1.5-1.93h8c0 .93-.64 1.71-1.5 1.93v5.76z"/></svg>
