<svg height="24" width="24" xmlns="http://www.w3.org/2000/svg"><path d="M3.5 6a2.5 2.5 0 1 1 0-5 2.5 2.5 0 0 1 0 5zM12 5a7 7 0 1 1 0 14 7 7 0 0 1 0-14zm8.5 1a2.5 2.5 0 1 1 0-5 2.5 2.5 0 0 1 0 5zm0 12a2.5 2.5 0 1 1 0 5 2.5 2.5 0 0 1 0-5zm-17 0a2.5 2.5 0 1 1 0 5 2.5 2.5 0 0 1 0-5zm-1-6A1.25 1.25 0 1 1 0 12a1.25 1.25 0 0 1 2.5 0zM12 2.5A1.25 1.25 0 1 1 12 0a1.25 1.25 0 0 1 0 2.5zm10.75 8.25a1.25 1.25 0 1 1 0 2.5 1.25 1.25 0 0 1 0-2.5zM12 21.5a1.25 1.25 0 1 1 0 2.5 1.25 1.25 0 0 1 0-2.5z" fill="#8e8e8e"/></svg>