<svg height="24" width="24" xmlns="http://www.w3.org/2000/svg"><path d="M19.5 3h-15A4.513 4.513 0 0 0 0 7.5v9C0 18.975 2.025 21 4.5 21h15c2.475 0 4.5-2.025 4.5-4.5v-9C24 5.025 21.975 3 19.5 3zm-7.407 12.88V8.081h1.583v7.797zm3.444-7.798h5.583v1.342h-4.003V11.3h3.393v1.351h-3.393v3.23h-1.58zm-11.4 6.826a3.754 3.754 0 0 1-.753-1.281 4.794 4.794 0 0 1-.264-1.619c0-.653.111-1.253.329-1.799a3.694 3.694 0 0 1 .949-1.385c.32-.291.687-.513 1.101-.665a4.061 4.061 0 0 1 1.406-.229c.488 0 .925.063 1.314.19.388.128.723.308.997.54.276.233.5.509.672.828.169.321.29.669.353 1.047H8.694a1.677 1.677 0 0 0-.567-.931c-.291-.243-.689-.366-1.19-.366-.37 0-.692.07-.964.213a2.014 2.014 0 0 0-.688.588 2.646 2.646 0 0 0-.413.885 4.148 4.148 0 0 0-.136 1.084c0 .399.051.769.153 1.107.1.338.247.629.436.872a1.956 1.956 0 0 0 1.59.78c.306 0 .582-.051.83-.153.247-.102.458-.235.633-.403.174-.167.308-.356.403-.568.095-.211.143-.424.143-.643v-.043H7.047v-1.221h3.283v4.143H9.141l-.055-1.047h-.022c-.269.451-.586.764-.947.943a2.8 2.8 0 0 1-1.244.267c-.589 0-1.111-.099-1.565-.3a3.442 3.442 0 0 1-1.171-.834z" fill="#8e8e8e"/></svg>