<svg height="24" width="24" xmlns="http://www.w3.org/2000/svg"><path d="M23.996 12s.15-5.97-1.44-7.47C20.968 3.015 13.426 3 13.426 3h-2.85s-7.542.015-9.132 1.53C-.147 6.03.003 12 .003 12s-.15 5.97 1.44 7.47c1.59 1.515 9.132 1.53 9.132 1.53h2.85s7.542-.015 9.132-1.53c1.59-1.5 1.44-7.47 1.44-7.47M7.59 14.865c-.15.3-.36.54-.614.735-.255.18-.555.33-.9.42s-.72.15-1.11.15c-.48 0-.9-.075-1.274-.195a2.602 2.602 0 0 1-.93-.555 2.342 2.342 0 0 1-.555-.855 3.408 3.408 0 0 1-.21-1.125h1.44c.015.225.045.435.105.615.06.195.15.345.27.495.105.135.254.24.45.3.18.075.404.12.66.12.42 0 .734-.105.974-.33.24-.21.345-.51.345-.9 0-.36-.105-.645-.345-.855-.225-.21-.57-.3-1.035-.3h-.465v-1.14h.435c.36 0 .645-.09.87-.255.24-.18.345-.42.345-.75 0-.3-.09-.54-.285-.72-.195-.18-.45-.27-.78-.27-.435 0-.75.135-.96.375-.224.255-.33.57-.344.975h-1.44c.015-.375.09-.72.21-1.02s.3-.57.525-.78c.24-.225.51-.39.855-.51.33-.12.72-.18 1.154-.18.39 0 .75.045 1.065.15.315.09.585.225.825.405.225.165.39.39.51.63.12.255.18.54.18.855 0 .42-.12.765-.36 1.02-.24.24-.54.435-.915.555v.03c.48.12.855.33 1.124.63.27.315.405.735.405 1.26 0 .39-.075.735-.225 1.02m6.898-.27c-.15.315-.345.6-.6.84a3.112 3.112 0 0 1-.884.54c-.345.12-.72.195-1.11.195-.54 0-1.005-.105-1.395-.315s-.704-.48-.96-.825c-.254-.345-.45-.75-.569-1.215s-.195-.96-.195-1.47c-.015-.66.06-1.26.195-1.8.15-.525.39-.99.72-1.365.24-.285.54-.495.884-.645.345-.15.78-.225 1.29-.225.375 0 .705.045 1.005.15.3.105.57.24.78.405.224.18.404.375.54.615s.224.495.27.78h-1.44c-.06-.24-.18-.435-.345-.585-.18-.15-.435-.225-.765-.225-.54 0-.945.195-1.215.585-.27.375-.404.915-.404 1.575h.015c.21-.24.434-.42.704-.57.27-.135.63-.21 1.065-.21.36 0 .69.06 1.005.195.315.135.6.315.84.555.224.225.42.51.57.84.134.33.21.705.21 1.11 0 .39-.076.735-.21 1.065m7.287-.735c-.135.495-.345.9-.615 1.245s-.6.6-.99.795c-.39.18-.824.27-1.32.27-.479 0-.914-.09-1.304-.27-.39-.195-.72-.45-.99-.795s-.48-.75-.63-1.245c-.15-.48-.224-1.02-.224-1.62s.075-1.155.225-1.635c.15-.495.36-.9.645-1.245.27-.345.6-.6.99-.78.39-.195.824-.285 1.304-.285.48 0 .915.09 1.304.285.39.18.72.435.99.78s.48.75.615 1.245c.15.48.225 1.035.225 1.635s-.075 1.14-.225 1.62m-1.71-3.555c.12.24.225.51.285.84s.075.69.075 1.095-.015.765-.075 1.095-.165.615-.285.84c-.134.24-.3.42-.494.54s-.435.18-.705.18c-.285 0-.525-.06-.72-.18a1.43 1.43 0 0 1-.495-.54c-.135-.24-.225-.525-.3-.855a6.05 6.05 0 0 1-.09-1.08c0-.405.03-.765.09-1.095.075-.33.165-.6.3-.84a1.43 1.43 0 0 1 .495-.54c.195-.12.435-.195.72-.195.27 0 .51.075.705.195.195.135.36.315.494.54M12.87 12.48c.12.135.21.285.285.48.075.18.12.375.12.585s-.045.405-.12.57c-.075.18-.165.33-.3.465a1.39 1.39 0 0 1-1.02.405c-.42 0-.765-.135-1.035-.405s-.404-.615-.404-1.05.12-.795.374-1.08c.255-.27.615-.405 1.08-.405.21 0 .39.03.57.105.165.075.315.195.45.33" fill="#8e8e8e"/></svg>