<svg height="24" width="24" xmlns="http://www.w3.org/2000/svg"><path d="M14.335 21.201c0 1.573-1.184 2.799-2.77 2.799-1.588 0-2.77-1.226-2.77-2.799s1.182-2.799 2.77-2.799c1.586 0 2.77 1.226 2.77 2.799m-2.521-10.884c1.402-1.226 3.3-2.044 3.3-3.868 0-1.447-1.246-2.359-2.958-2.359-2.118 0-3.518 1.478-3.55 3.428H3.75C3.876 3.303 6.956 0 12.344 0c4.857 0 7.906 2.517 7.906 6.323 0 2.359-1.089 3.806-2.304 4.781-1.681 1.321-2.832 1.887-3.487 2.611-.497.566-.621 1.038-.652 1.95h-4.36c0-2.642.656-3.901 2.367-5.348" fill="#8e8e8e"/></svg>