<svg width="24" height="24" viewBox="0 0 24 24" xmlns="http://www.w3.org/2000/svg"><path fill="#B5B5B5" d="M14.34,21.20 C14.34,22.77 13.15,24.00 11.56,24.00 C9.98,24.00 8.79,22.77 8.79,21.20 C8.79,19.63 9.98,18.40 11.56,18.40 C13.15,18.40 14.34,19.63 14.34,21.20 M11.81,10.32 C13.22,9.09 15.11,8.27 15.11,6.45 C15.11,5.00 13.87,4.09 12.16,4.09 C10.04,4.09 8.64,5.57 8.61,7.52 L3.75,7.52 C3.88,3.30 6.96,0.00 12.34,0.00 C17.20,0.00 20.25,2.52 20.25,6.32 C20.25,8.68 19.16,10.13 17.95,11.10 C16.27,12.43 15.11,12.99 14.46,13.71 C13.96,14.28 13.84,14.75 13.81,15.66 L9.45,15.66 C9.45,13.02 10.10,11.76 11.81,10.32"/></svg>
