<svg xmlns="http://www.w3.org/2000/svg" width="24" height="24"><path d="M22 4.25a1.25 1.25 0 0 0-2.5 0v1.62C17.47 3.47 14.5 2 11.3 2 7.6 2 4.2 3.89 2.2 7.05c-.38.6-.2 1.38.38 1.77.58.38 1.36.21 1.73-.38a8.3 8.3 0 0 1 6.99-3.88c2.43 0 4.7 1.12 6.26 2.94h-1.31a1.25 1.25 0 0 0 0 2.5H22zM19 12a1 1 0 0 0-1 1v7a1 1 0 0 0 1 1h4a1 1 0 0 0 1-1v-7a1 1 0 0 0-1-1zm-8 0a1 1 0 0 0-1 1v7a1 1 0 0 0 1 1h4a1 1 0 0 0 1-1v-7a1 1 0 0 0-1-1zm-4-1H1a1 1 0 0 0-1 1v9a1 1 0 0 0 1 1h6a1 1 0 0 0 1-1v-9a1 1 0 0 0-1-1"/></svg>