<svg height="24" width="24" xmlns="http://www.w3.org/2000/svg"><path d="M22 4.25a1.25 1.25 0 0 0-2.5 0v1.618C17.473 3.465 14.493 2 11.299 2 7.606 2 4.205 3.887 2.201 7.048a1.292 1.292 0 0 0 .375 1.769 1.243 1.243 0 0 0 1.739-.381c1.539-2.427 4.15-3.876 6.984-3.876 2.436 0 4.706 1.115 6.261 2.94h-1.31a1.25 1.25 0 0 0 0 2.5H22V4.25zM19 12a1 1 0 0 0-1 1v7a1 1 0 0 0 1 1h4a1 1 0 0 0 1-1v-7a1 1 0 0 0-1-1h-4zm-8 0a1 1 0 0 0-1 1v7a1 1 0 0 0 1 1h4a1 1 0 0 0 1-1v-7a1 1 0 0 0-1-1h-4zm-4-1H1a1 1 0 0 0-1 1v9a1 1 0 0 0 1 1h6a1 1 0 0 0 1-1v-9a1 1 0 0 0-1-1z"/></svg>
