<svg height="24" width="24" xmlns="http://www.w3.org/2000/svg"><path d="M9.75 20.5h-2c-.965 0-1.75-.785-1.75-1.75v-1l.437.437a1.248 1.248 0 0 0 1.768 0 1.25 1.25 0 0 0 0-1.768L4.786 13l-3.42 3.419a1.25 1.25 0 0 0 1.768 1.768l.366-.366v.929A4.255 4.255 0 0 0 7.75 23h2a1.25 1.25 0 0 0 0-2.5zm4.5-17h2c.965 0 1.75.785 1.75 1.75v1l-.438-.437a1.25 1.25 0 1 0-1.767 1.768L19.214 11l3.42-3.419a1.25 1.25 0 0 0-1.768-1.768l-.366.366V5.25A4.255 4.255 0 0 0 16.25 1h-2a1.25 1.25 0 0 0 0 2.5zm1.25 17h5v-5h-5v5zM23 15v6a2 2 0 0 1-2 2h-6a2 2 0 0 1-2-2v-6a2 2 0 0 1 2-2h6a2 2 0 0 1 2 2zM11 3v6a2 2 0 0 1-2 2H3a2 2 0 0 1-2-2V3a2 2 0 0 1 2-2h6a2 2 0 0 1 2 2z"/></svg>
