<svg width="24" height="24" viewBox="0 0 24 24" xmlns="http://www.w3.org/2000/svg"><path fill="#B5B5B5" d="M7.91,18.89 C9.11,19.60 10.51,20.01 12.00,20.01 C16.42,20.01 20.01,16.42 20.01,12.00 C20.01,10.51 19.60,9.11 18.89,7.91 L7.91,18.89 Z M5.09,16.06 L16.06,5.09 C14.87,4.39 13.48,3.99 12.00,3.99 C7.58,3.99 3.99,7.58 3.99,12.00 C3.99,13.48 4.39,14.87 5.09,16.06 Z M12.00,24.00 C5.37,24.00 0.00,18.63 0.00,12.00 C0.00,5.37 5.37,0.00 12.00,0.00 C18.63,0.00 24.00,5.37 24.00,12.00 C24.00,18.63 18.63,24.00 12.00,24.00 Z"/></svg>
