<svg height="24" width="24" xmlns="http://www.w3.org/2000/svg"><path d="M11.003 9.96c1.105 0 2 .899 2 2.006v9.028a2.004 2.004 0 0 1-2 2.006H2.001C.896 23 0 22.102 0 20.994v-9.028C0 10.86.896 9.96 2 9.96h9.003zm12.63 1.872c.489.49.489 1.283 0 1.773l-3.885 3.896-3.878-3.897a1.256 1.256 0 0 1 .002-1.773 1.248 1.248 0 0 1 1.768.002l.865.87V7.27a3.76 3.76 0 0 0-3.75-3.762H7.251c-.69 0-1.25-.562-1.25-1.254 0-.693.56-1.254 1.25-1.254h7.502c3.447 0 6.252 2.812 6.252 6.27v5.424l.86-.862c.489-.49 1.28-.49 1.768 0z"/></svg>
