<svg xmlns="http://www.w3.org/2000/svg" width="24" height="24"><path d="M8.9 3.24c0-.3.03-.48.54-.48h6.78c1.19 0 1.84 1.02 2.32 2.93l.38 1.53h1.16c.2-4.34.38-6.22.38-6.22s-2.9.33-4.62.33H7.15L2.5 1.18v1.26l1.57.3c1.1.2 1.36.44 1.45 1.46 0 0 .1 2.99.1 7.92s-.1 7.9-.1 7.9c0 .89-.35 1.22-1.45 1.43l-1.57.3V23l4.65-.15h7.77c1.75 0 5.8.15 5.8.15.1-1.08.7-5.95.78-6.49h-1.1l-1.15 2.66c-.92 2.1-2.26 2.25-3.74 2.25H11.1c-1.49 0-2.2-.6-2.2-1.89v-6.81s3.3 0 4.36.09c.83.06 1.33.3 1.6 1.46l.36 1.56h1.27l-.09-3.92.18-3.94H15.3l-.4 1.73c-.27 1.13-.44 1.34-1.6 1.46-1.51.15-4.39.12-4.39.12z"/></svg>