<svg xmlns="http://www.w3.org/2000/svg" width="24" height="24"><path d="M13.99 10.4a4.9 4.9 0 0 0-5.75-2.72 6 6 0 1 1 8.16 3.82h-2.04q-.13-.57-.37-1.1M9.47 9a3.4 3.4 0 0 1 3.15 2.03q.17.35.26.73A2.5 2.5 0 0 0 11.5 14v2.43a19 19 0 0 1-4.1 3.02h-.02l-.18.12-.6.37a.2.2 0 0 1-.2 0l-.6-.37-.19-.11-.01-.01c-1.67-1.02-3.25-1.98-4.4-3.36a4.9 4.9 0 0 1-.82-5.06 3.4 3.4 0 0 1 3.15-2.02c1.29 0 2.17.78 2.77 1.9.09.16.31.16.4 0 .6-1.12 1.48-1.9 2.77-1.9M13 14a1 1 0 0 1 1-1h9a1 1 0 0 1 1 1v9a1 1 0 0 1-1 1h-9a1 1 0 0 1-1-1z"/></svg>