<svg xmlns="http://www.w3.org/2000/svg" width="24" height="24"><path d="M14 0a6 6 0 0 0-5.76 7.68 4 4 0 0 1 1.23-.18 4.9 4.9 0 0 1 4.51 2.9q.26.53.38 1.1h2.04A6 6 0 0 0 14 0m-3.06 9.31a3.5 3.5 0 0 0-2.1-.24c-.95.21-1.64.9-2.15 1.84a.22.22 0 0 1-.39 0c-.6-1.12-1.48-1.9-2.77-1.9a3.3 3.3 0 0 0-3.15 2.02 4.9 4.9 0 0 0 .82 5.06c1.15 1.38 2.73 2.34 4.4 3.36h.01l.19.12.6.37a.2.2 0 0 0 .2 0l.6-.37.18-.11.02-.01a19 19 0 0 0 4.1-3.02V14a2.5 2.5 0 0 1 1.38-2.24q-.1-.38-.26-.73a3.4 3.4 0 0 0-1.68-1.72M14 13a1 1 0 0 0-1 1v9a1 1 0 0 0 1 1h9a1 1 0 0 0 1-1v-9a1 1 0 0 0-1-1z"/></svg>