<svg height="24" width="24" xmlns="http://www.w3.org/2000/svg"><path d="M12.03 19.29h-.06c-3.48-.03-4.92-2.31-4.98-2.41a.896.896 0 0 1 .27-1.22.82.82 0 0 1 1.17.26c.06.08 1.06 1.58 3.57 1.59 2.51-.01 3.52-1.6 3.56-1.67.25-.41.78-.54 1.18-.28.39.26.52.8.28 1.21-.06.1-1.5 2.49-4.99 2.52zM18 9.43c0 .95-.77 1.71-1.71 1.71-.95 0-1.72-.76-1.72-1.71s.77-1.72 1.72-1.72c.94 0 1.71.77 1.71 1.72zm-12 0c0-.95.77-1.72 1.71-1.72.95 0 1.72.77 1.72 1.72s-.77 1.71-1.72 1.71c-.94 0-1.71-.76-1.71-1.71zM12 0C5.4 0 0 5.4 0 12s5.4 12 12 12 12-5.4 12-12S18.6 0 12 0zm0 22.2C6.45 22.2 1.8 17.7 1.8 12 1.8 6.3 6.3 1.8 12 1.8c5.7 0 10.2 4.5 10.2 10.2 0 5.7-4.65 10.2-10.2 10.2z"/></svg>
