<svg height="24" width="24" xmlns="http://www.w3.org/2000/svg"><path d="M20.48 3.51A11.92 11.92 0 0 1 24 12c0 3.2-1.25 6.22-3.51 8.48-.25.25-.57.37-.89.37-.32 0-.64-.12-.88-.37-.49-.48-.49-1.27 0-1.76A9.465 9.465 0 0 0 21.5 12c0-2.54-.99-4.93-2.79-6.72-.48-.49-.48-1.28 0-1.77a1.25 1.25 0 0 1 1.77 0zM5 7.94v.02L12 1v22l-7-6.09v.03H2c-1.1 0-2-.9-2-2v-5a2 2 0 0 1 2-2h3zm11.95-.89A6.96 6.96 0 0 1 19 12c0 1.87-.73 3.63-2.05 4.95-.24.24-.56.36-.88.36-.32 0-.64-.12-.89-.36a1.25 1.25 0 0 1 0-1.77c.85-.85 1.32-1.98 1.32-3.18 0-1.2-.47-2.33-1.32-3.18a1.25 1.25 0 0 1 0-1.77 1.25 1.25 0 0 1 1.77 0z"/></svg>
