<svg height="24" width="24" xmlns="http://www.w3.org/2000/svg"><path d="M20.482 3.511A11.917 11.917 0 0 1 24 12c0 3.205-1.248 6.22-3.515 8.485-.244.244-.564.366-.884.366s-.64-.122-.884-.366a1.25 1.25 0 0 1 0-1.767A9.441 9.441 0 0 0 21.5 12c0-2.539-.99-4.925-2.786-6.719a1.251 1.251 0 0 1 1.768-1.769zM5 7.937v.023L12 1v22l-7-6.091v.028H2a2 2 0 0 1-2-2v-5a2 2 0 0 1 2-2zm11.948-.89A6.957 6.957 0 0 1 19 12a6.954 6.954 0 0 1-2.05 4.949 1.248 1.248 0 0 1-1.768 0 1.25 1.25 0 0 1 0-1.768A4.47 4.47 0 0 0 16.5 12a4.469 4.469 0 0 0-1.32-3.183 1.251 1.251 0 0 1 1.768-1.769z" fill="#8e8e8e"/></svg>