<svg xmlns="http://www.w3.org/2000/svg" width="24" height="24"><path d="M21.66 14.59A10.02 10.02 0 0 0 12 2a10 10 0 0 0-2.59 19.66L8.9 23.6a12 12 0 1 1 14.7-8.48zm-8.25-.47a2.5 2.5 0 1 1-3.53-3.53c1.3-1.3 4.52-2.61 6.13-3.2.39-.15.75.21.6.6-.59 1.6-1.9 4.83-3.2 6.13m.17 8.2h3.82v1.51h-5.65a3 3 0 0 1-.06-.65c0-1.35.68-2.33 1.85-2.92l1.44-.74c.47-.24.8-.6.8-1.12 0-.64-.45-1.07-1.15-1.07-.8 0-1.27.52-1.33 1.39l-1.63-.41c.09-1.49 1.23-2.39 2.95-2.39 1.8 0 2.82.9 2.82 2.4 0 1.03-.62 1.87-1.68 2.44l-1.34.73c-.5.27-.75.53-.84.83m8.54 1.51L21 22.09l-1.16 1.74h-1.77l1.98-2.75-1.76-2.47h1.77l.94 1.48.97-1.49h1.76l-1.8 2.52 1.96 2.71z"/></svg>