<svg xmlns="http://www.w3.org/2000/svg" width="24" height="24"><path d="M22.359 11.518c1.26-1.29.57-3.53-1.18-3.79l-4.91-.74a.22.22 0 0 1-.16-.12l-2.19-4.63a2.1 2.1 0 0 0-3.83 0l-2.2 4.63c-.02.06-.08.11-.15.12l-4.91.74c-1.75.26-2.45 2.5-1.18 3.79l3.56 3.61s.06.11.05.17l-.84 5.1c-.3 1.81 1.53 3.2 3.1 2.34l4.39-2.4c.06-.04.13-.04.19 0l4.39 2.4c1.57.86 3.39-.53 3.1-2.34l-.85-5.1c-.01-.06 0-.13.06-.17zm-5.7 1.5c-.72.73-1.04 1.76-.88 2.77l.57 3.46-2.81-1.54c-.96-.53-2.11-.53-3.07 0l-2.82 1.54.57-3.46c.17-1.01-.16-2.04-.87-2.77l-2.53-2.56 3.37-.51c1.05-.16 1.96-.83 2.41-1.79l1.4-2.95 1.4 2.95c.46.96 1.36 1.63 2.42 1.79l3.36.51z"/></svg>