<svg height="24" width="24" xmlns="http://www.w3.org/2000/svg"><path d="M13.5 3.5a1.5 1.5 0 01-3 0v-2a1.5 1.5 0 013 0zm-9.98 0a1.5 1.5 0 012.12.01l1.41 1.42a1.5 1.5 0 01-2.12 2.12L3.52 5.63a1.5 1.5 0 010-2.12zm-.02 7a1.5 1.5 0 010 3h-2a1.5 1.5 0 010-3zm3.55 6.45a1.5 1.5 0 010 2.12L5.63 20.5a1.5 1.5 0 11-2.12-2.12l1.42-1.42a1.5 1.5 0 012.12 0zM12 19c.83 0 1.5.67 1.5 1.5v2a1.5 1.5 0 01-3 0v-2c0-.83.67-1.5 1.5-1.5zm8.5-15.48a1.5 1.5 0 01-.01 2.12l-1.42 1.41a1.5 1.5 0 11-2.12-2.12l1.42-1.41a1.5 1.5 0 012.12 0zm2 6.98a1.5 1.5 0 010 3h-2a1.5 1.5 0 010-3zm-5.55 6.45a1.5 1.5 0 012.12 0l1.42 1.4a1.5 1.5 0 11-2.12 2.13l-1.42-1.4a1.5 1.5 0 010-2.13zM17 12a5 5 0 11-10 0 5 5 0 0110 0z"/></svg>