<svg xmlns="http://www.w3.org/2000/svg" width="24" height="24"><path d="M13.5 3.5a1.5 1.5 0 0 1-3 0v-2a1.5 1.5 0 0 1 3 0zm-9.98 0a1.5 1.5 0 0 1 2.12.01l1.41 1.42a1.5 1.5 0 0 1-2.12 2.12L3.52 5.63a1.5 1.5 0 0 1 0-2.12m-.02 7a1.5 1.5 0 0 1 0 3h-2a1.5 1.5 0 0 1 0-3zm3.55 6.45a1.5 1.5 0 0 1 0 2.12L5.63 20.5a1.5 1.5 0 1 1-2.12-2.12l1.42-1.42a1.5 1.5 0 0 1 2.12 0M12 19c.83 0 1.5.67 1.5 1.5v2a1.5 1.5 0 0 1-3 0v-2c0-.83.67-1.5 1.5-1.5m8.5-15.48a1.5 1.5 0 0 1-.01 2.12l-1.42 1.41a1.5 1.5 0 1 1-2.12-2.12l1.42-1.41a1.5 1.5 0 0 1 2.12 0m2 6.98a1.5 1.5 0 0 1 0 3h-2a1.5 1.5 0 0 1 0-3zm-5.55 6.45a1.5 1.5 0 0 1 2.12 0l1.42 1.4a1.5 1.5 0 1 1-2.12 2.13l-1.42-1.4a1.5 1.5 0 0 1 0-2.13M17 12a5 5 0 1 1-10 0 5 5 0 0 1 10 0"/></svg>