<svg xmlns="http://www.w3.org/2000/svg" width="24" height="24"><path d="M10.64 1.8 1.8 10.64a2.73 2.73 0 0 0 0 3.85l7.7 7.71a2.73 2.73 0 0 0 3.86 0l.6-.6.1-.59-.8-.8c-1.6-1.63-.83-4.6 1.62-4.97l1.04-.15.48-1.01a2.87 2.87 0 0 1 5.17-.08l.63-.64c.51-.5.8-1.2.8-1.92V3.73A2.73 2.73 0 0 0 20.27 1h-7.7c-.73 0-1.42.29-1.93.8M18 8a2 2 0 1 1 0-4 2 2 0 0 1 0 4m1.8 6.93a.87.87 0 0 0-1.6 0l-.9 1.9a.2.2 0 0 1-.12.09l-2 .3c-.73.11-1.02 1.04-.5 1.58l1.46 1.47q.06.07.04.15l-.34 2.08c-.12.76.64 1.33 1.3.97l1.78-.97a.2.2 0 0 1 .16 0l1.79.97c.65.36 1.41-.21 1.29-.97l-.34-2.08q-.02-.09.04-.15l1.45-1.47c.53-.54.24-1.47-.49-1.58l-2-.3a.2.2 0 0 1-.13-.1z"/></svg>