<svg xmlns="http://www.w3.org/2000/svg" width="24" height="24"><path d="M24 12a12 12 0 1 1-24 0 12 12 0 0 1 24 0M12.43 8.86q-1.75.73-7 3.01-.85.34-.9.67c-.04.36.42.5 1.04.7l.27.08c.6.2 1.43.44 1.86.45q.58 0 1.3-.48 4.9-3.32 5.06-3.35.13-.05.25.02c.07.07.07.18.06.22-.05.19-1.84 1.86-2.77 2.72l-.54.5-.28.28c-.57.55-1 .96.02 1.64.5.32.89.59 1.28.85.42.3.85.58 1.4.95q.21.13.4.28c.5.35.95.67 1.5.62.32-.03.65-.33.82-1.23.4-2.13 1.18-6.73 1.36-8.63.02-.17 0-.38-.02-.47a.5.5 0 0 0-.17-.33 1 1 0 0 0-.46-.14c-.45.01-1.15.25-4.48 1.64"/></svg>