<svg height="24" width="24" xmlns="http://www.w3.org/2000/svg"><path d="M16.774 13.704L18.5 9.689l1.726 4.015h-3.453zm7.13 2.948L19.509 6.426A1.102 1.102 0 0 0 18.5 5.75c-.436 0-.831.265-1.008.676l-4.398 10.226a1.152 1.152 0 0 0 .56 1.5c.146.066.297.098.447.098.423 0 .826-.253 1.008-.676l.687-1.597h5.407l.687 1.597c.247.573.897.833 1.454.578.556-.255.807-.926.56-1.5zm-20.13-2.948L5.5 9.689l1.726 4.015H3.774zm2.734-7.278A1.102 1.102 0 0 0 5.5 5.75c-.436 0-.831.265-1.008.676L.095 16.652a1.152 1.152 0 0 0 .56 1.5c.146.066.297.098.447.098.423 0 .826-.253 1.008-.676l.687-1.597h5.407l.687 1.597c.247.573.897.833 1.454.578.556-.255.807-.926.56-1.5L6.508 6.426z"/></svg>
