<svg height="24" width="24" xmlns="http://www.w3.org/2000/svg"><path d="M19.793 16.028h-2.759a.831.831 0 0 1-.827-.833c0-.46.371-.834.827-.834h2.759v1.667zm-.828-7.778h-3.31c-.609 0-1.103.498-1.103 1.111 0 .614.494 1.111 1.103 1.111h3.31c.457 0 .828.374.828.834v.833h-2.759c-1.673 0-3.034 1.371-3.034 3.056s1.361 3.055 3.034 3.055h3.862c.61 0 1.104-.497 1.104-1.111v-5.833c0-1.685-1.362-3.056-3.035-3.056zM5.774 13.705L7.5 9.69l1.726 4.015H5.774zm7.131 2.948L8.507 6.426A1.1 1.1 0 0 0 7.5 5.75a1.1 1.1 0 0 0-1.007.676L2.095 16.653c-.247.574.004 1.245.561 1.499.145.067.296.098.446.098.422 0 .825-.252 1.008-.676l.686-1.597h5.408l.686 1.597c.247.574.897.833 1.454.578.557-.254.808-.925.561-1.499z"/></svg>
