<svg height="24" width="24" xmlns="http://www.w3.org/2000/svg"><path d="M2.916 16.545l1.334-3.051 1.334 3.051H2.916zm2.112-5.532a.85.85 0 0 0-.778-.513.852.852 0 0 0-.78.513L.074 18.786a.869.869 0 0 0 .434 1.139.846.846 0 0 0 1.123-.439l.53-1.214H6.34l.53 1.214a.852.852 0 0 0 .78.514.844.844 0 0 0 .344-.075.869.869 0 0 0 .434-1.139l-3.4-7.773zm9.446 3.168l2.276-5.138 2.276 5.138h-4.552zm9.4 3.774l-5.796-13.09a1.453 1.453 0 0 0-2.656 0l-5.797 13.09a1.455 1.455 0 0 0 .739 1.919 1.451 1.451 0 0 0 1.917-.74l.905-2.044h7.128l.905 2.044a1.453 1.453 0 1 0 2.656-1.179z"/></svg>
