<svg height="24" width="24" xmlns="http://www.w3.org/2000/svg"><path d="M20 15l4 4-4 4v-2.5H4V23l-4-4 4-4v2.5h16V15zM5.5 4.782l1.727 3.854H3.774L5.5 4.782zM.656 12.906a1.104 1.104 0 0 0 1.454-.555l.686-1.533h5.408l.686 1.533c.247.551.897.8 1.454.555.557-.244.808-.889.561-1.44L6.508 1.649A1.103 1.103 0 0 0 5.5 1a1.1 1.1 0 0 0-1.007.649L.095 11.466a1.087 1.087 0 0 0 .561 1.44zm15.526-4.815h4.273a1.365 1.365 0 0 1 0 2.727h-4.273V8.091zm0-4.909h3.727c.752 0 1.364.612 1.364 1.363 0 .752-.612 1.364-1.364 1.364h-3.727V3.182zM15.091 13h5.364A3.55 3.55 0 0 0 24 9.455a3.54 3.54 0 0 0-1.295-2.738c.468-.6.75-1.353.75-2.172A3.55 3.55 0 0 0 19.909 1h-4.818A1.09 1.09 0 0 0 14 2.091v9.818A1.09 1.09 0 0 0 15.091 13z"/></svg>
