<svg height="24" width="24" xmlns="http://www.w3.org/2000/svg"><path d="M7.548 21.5c9.056 0 14.01-7.31 14.01-13.65 0-.208 0-.414-.015-.62A9.88 9.88 0 0 0 24 4.747c-.899.388-1.852.642-2.828.754a4.838 4.838 0 0 0 2.165-2.653c-.967.559-2.024.953-3.127 1.164-1.526-1.58-3.952-1.968-5.916-.944-1.964 1.025-2.98 3.205-2.475 5.32C7.859 8.194 4.17 6.372 1.67 3.375.363 5.567 1.031 8.372 3.195 9.78a4.986 4.986 0 0 1-2.235-.6v.06c0 2.284 1.653 4.25 3.95 4.703a5.042 5.042 0 0 1-2.223.082c.645 1.954 2.494 3.293 4.6 3.332A10.048 10.048 0 0 1 0 19.345a14.21 14.21 0 0 0 7.548 2.151"/></svg>
