<svg xmlns="http://www.w3.org/2000/svg" width="24" height="24"><path d="M21 16h-3V9.62q-.01-.62-.44-1.06l-4.12-4.12A1.5 1.5 0 0 0 12.38 4H10V2h7v3a1 1 0 0 0 1 1h3zm-5 4h-4.21q.2-.72.21-1.5a5.5 5.5 0 0 0-7-5.29V6h7v3a1 1 0 0 0 1 1h3zm-6.97-1.16c-.3.3-.77.3-1.06 0l-.72-.72V21a.75.75 0 0 1-1.5 0v-2.88l-.72.72a.75.75 0 1 1-1.06-1.06l2.53-2.53 2.53 2.53c.3.3.3.77 0 1.06M17.38 0H10a2 2 0 0 0-2 2v2H5a2 2 0 0 0-2 2v8.26A5.5 5.5 0 1 0 10.74 22H16a2 2 0 0 0 2-2v-2h3a2 2 0 0 0 2-2V5.62q-.01-.62-.44-1.06L18.44.44A1.5 1.5 0 0 0 17.38 0"/></svg>