<svg xmlns="http://www.w3.org/2000/svg"  width="24" height="24" ><path d="M13.47 13.75a1.75 1.75 0 100-3.5 1.75 1.75 0 000 3.5zm0 1.75a3.5 3.5 0 110-7 3.5 3.5 0 010 7zm-5.63 0a.87.87 0 01-.87-.87V9.37a.87.87 0 011.75 0v5.26c0 .48-.4.87-.87.87zm12.6 4.96a11.93 11.93 0 01-8.47 3.5c-3.07 0-6.13-1.16-8.47-3.5A12.02 12.02 0 01.4 8.91a1.22 1.22 0 012.36.63A9.54 9.54 0 1018.7 5.26 9.54 9.54 0 007.23 3.75h.75a1.25 1.25 0 010 2.5h-5v-5a1.25 1.25 0 012.5 0v.7a12 12 0 0114.96 1.58 11.98 11.98 0 010 16.93z"/></svg>
