<svg xmlns="http://www.w3.org/2000/svg" width="24" height="24"><path d="M15.22 12a1.75 1.75 0 10-3.5 0 1.75 1.75 0 003.5 0zm1.75 0a3.5 3.5 0 11-7 0 3.5 3.5 0 017 0zM7.85 8.5c.48 0 .87.39.87.87v5.26c0 .48-.4.87-.87.87h-.01a.87.87 0 01-.87-.87V9.37c0-.48.39-.87.87-.87zm12.58 11.96a11.93 11.93 0 01-8.46 3.5A11.98 11.98 0 013.5 3.54a11.99 11.99 0 0114.96-1.58v-.7a1.25 1.25 0 012.5 0v5h-5a1.25 1.25 0 010-2.5h.74a9.54 9.54 0 00-11.47 1.5A9.54 9.54 0 0018.7 18.74a9.57 9.57 0 002.47-9.2 1.22 1.22 0 112.36-.63 12 12 0 01-3.1 11.55z"/></svg>
