<svg xmlns="http://www.w3.org/2000/svg" width="24" height="24" fill="none"><path fill="#111" fill-rule="evenodd" d="M13.469 13.75c.965 0 1.75-.785 1.75-1.75s-.785-1.75-1.75-1.75-1.75.785-1.75 1.75.785 1.75 1.75 1.75Zm0 1.75a3.5 3.5 0 1 1 0-7 3.5 3.5 0 0 1 0 7Zm-5.62 0c.48 0 .87-.39.87-.87V9.37a.87.87 0 0 0-.87-.87h-.01a.87.87 0 0 0-.87.87v5.26c0 .48.39.87.87.87h.01Zm12.585 4.965a11.933 11.933 0 0 1-8.465 3.501 11.933 11.933 0 0 1-8.465-3.501A12.015 12.015 0 0 1 .402 8.908a1.22 1.22 0 1 1 2.36.629 9.57 9.57 0 0 0 2.469 9.201c3.716 3.715 9.76 3.715 13.476 0 3.715-3.716 3.715-9.76 0-13.476-3.108-3.107-7.843-3.604-11.485-1.512h.747a1.25 1.25 0 0 1 0 2.5h-5v-5a1.25 1.25 0 0 1 2.5 0v.701c4.636-3 10.906-2.474 14.965 1.584 4.668 4.668 4.668 12.262 0 16.93Z" clip-rule="evenodd"/></svg>