<svg height="24" width="24" xmlns="http://www.w3.org/2000/svg"><path d="M15.989 10.5a2.25 2.25 0 1 0 0-4.5 2.25 2.25 0 0 0 0 4.5zm-7.24 4.75H5a.75.75 0 0 0 0 1.5h1.19l-2.72 2.72a.749.749 0 1 0 1.062 1.06l2.719-2.719V19a.75.75 0 0 0 1.5 0zM12 18A6 6 0 1 1 0 18a6 6 0 0 1 12 0zM23 5v14a4 4 0 0 1-4 4h-6.764a7.971 7.971 0 0 0-.552-10.623 9.944 9.944 0 0 1 2.324.977 9.942 9.942 0 0 0 5.01 1.349c.333 0 .66-.021.983-.053V5c0-.551-.448-1-1-1H5c-.551 0-1 .449-1 1v5.263a7.981 7.981 0 0 0-3 1.502V5a4 4 0 0 1 4-4h14a4 4 0 0 1 4 4z" fill="#8e8e8e"/></svg>