<svg xmlns="http://www.w3.org/2000/svg" width="24" height="24" fill="none"><path fill="#111" fill-rule="evenodd" d="M18.745 16.809c-.284.817-1.422 1.486-2.317 1.678-.621.127-1.422.233-4.139-.892C8.812 16.14 6.58 12.583 6.4 12.35 6.232 12.116 5 10.471 5 8.761c0-1.709.863-2.537 1.211-2.898.285-.298.759-.425 1.211-.425.148 0 .274.011.4.011.348.01.517.031.748.584.285.69.98 2.399 1.065 2.58.084.18.168.414.052.647-.116.234-.211.34-.38.542-.168.201-.336.361-.515.573-.158.191-.337.393-.138.743.201.34.896 1.486 1.918 2.399 1.317 1.19 2.391 1.562 2.77 1.721.284.116.621.095.832-.138.263-.287.59-.765.926-1.232.232-.34.538-.382.843-.255.317.117 2.012.956 2.36 1.126.347.17.579.255.663.403.063.17.063.86-.221 1.667ZM12 0C5.373 0 0 5.373 0 12c0 2.432.728 4.69 1.971 6.58L0 24l5.5-1.885-.086-.089A11.937 11.937 0 0 0 12 24c6.627 0 12-5.372 12-12 0-6.627-5.373-12-12-12Z" clip-rule="evenodd"/></svg>