<svg xmlns="http://www.w3.org/2000/svg" width="24" height="24" fill="none"><path fill="#111" fill-rule="evenodd" d="M10.713 8.275c0 .113.02.22.047.326h-.005l.971 3.33c.081.272.467.273.548 0l.971-3.33h-.005c.027-.105.047-.213.047-.326a1.287 1.287 0 0 0-2.574 0ZM12 12.993a1.001 1.001 0 1 0 .001 2.003 1.001 1.001 0 0 0 0-2.003Zm0 5.563L2.424 8.585c5.467-4.78 13.685-4.78 19.152 0L12 18.555ZM23.707 7.84C17.252 1.387 6.748 1.387.293 7.84a1 1 0 0 0-.014 1.4l11 11.453A.998.998 0 0 0 12 21c.273 0 .533-.11.722-.307l11-11.453a1 1 0 0 0-.015-1.4Z" clip-rule="evenodd"/></svg>