<?xml version="1.0" encoding="UTF-8"?>
<svg width="20px" height="20px" viewBox="0 0 20 20" version="1.1" xmlns="http://www.w3.org/2000/svg" xmlns:xlink="http://www.w3.org/1999/xlink">
    <!-- Generator: Sketch 55.2 (78181) - https://sketchapp.com -->
    <title>Status/Warning</title>
    <desc>Created with Sketch.</desc>
    <g id="Status/Warning" stroke="none" stroke-width="1" fill="none" fill-rule="evenodd">
        <path d="M11.4948186,2.68167097 L16.8189087,8.67127232 C17.4924839,9.42904437 17.4924839,10.5709556 16.8189087,11.3287277 L11.4948186,17.318329 C10.7609826,18.1438946 9.49683786,18.218256 8.67127232,17.48442 C8.61270261,17.432358 8.55724333,17.3768987 8.50518136,17.318329 L3.18109127,11.3287277 C2.50751612,10.5709556 2.50751612,9.42904437 3.18109127,8.67127232 L8.50518136,2.68167097 C9.2390174,1.85610543 10.5031621,1.78174397 11.3287277,2.51558001 C11.3872974,2.56764198 11.4427567,2.62310125 11.4948186,2.68167097 Z" id="Path" fill="#E2780D"></path>
        <path d="M9,7 L9,11 C9,11.5522847 9.44771525,12 10,12 C10.5522847,12 11,11.5522847 11,11 L11,7 C11,6.44771525 10.5522847,6 10,6 C9.44771525,6 9,6.44771525 9,7 Z" id="Line-5" fill="#FFFFFF" fill-rule="nonzero"></path>
        <circle id="Oval" fill="#FFFFFF" cx="10" cy="14" r="1"></circle>
    </g>
</svg>
