<svg xmlns="http://www.w3.org/2000/svg" width="24" height="24"><path d="M1 1.5C1 .67 1.67 0 2.5 0h19a1.5 1.5 0 0 1 0 3h-1.96Q20 4.02 20 5.45c0 2.47-2.73 4.29-5 5.37v1.45c2.27 1.18 5 3.15 5 5.82q0 1.75-.57 2.91h2.07a1.5 1.5 0 0 1 0 3h-19a1.5 1.5 0 0 1 0-3h2.07A7 7 0 0 1 4 18.1c0-2.68 2.73-4.65 5-5.83v-1.45c-2.27-1.08-5-2.9-5-5.37Q4 4.02 4.46 3H2.5A1.5 1.5 0 0 1 1 1.5m16 16.6c0-.22-.08-.57-.53-1.1a8 8 0 0 0-2.01-1.6A18 18 0 0 0 12 14.2l-.11.04c-.66.27-1.51.66-2.34 1.16A8 8 0 0 0 7.53 17c-.45.53-.53.88-.53 1.1 0 1.55.45 1.95.76 2.16.6.4 1.84.74 4.24.74s3.64-.35 4.24-.74c.31-.21.76-.6.76-2.17"/></svg>