<svg xmlns="http://www.w3.org/2000/svg" width="24" height="24"><path d="M1 1.5C1 .67 1.67 0 2.5 0h19a1.5 1.5 0 010 3h-1.96c.3.68.46 1.49.46 2.45 0 2.47-2.73 4.29-5 5.37v1.45c2.27 1.18 5 3.15 5 5.82 0 1.17-.2 2.13-.57 2.91h2.07a1.5 1.5 0 010 3h-19a1.5 1.5 0 010-3h2.07A6.67 6.67 0 014 18.1c0-2.68 2.73-4.65 5-5.83v-1.45c-2.27-1.08-5-2.9-5-5.37 0-.96.16-1.77.46-2.45H2.5A1.5 1.5 0 011 1.5zm16 16.6c0-.22-.08-.57-.53-1.1a8.3 8.3 0 00-2.01-1.6A17.68 17.68 0 0012 14.2l-.11.04c-.66.27-1.51.66-2.34 1.16A8.3 8.3 0 007.53 17c-.45.53-.53.88-.53 1.1 0 1.55.45 1.95.76 2.16.6.4 1.84.74 4.24.74 2.4 0 3.64-.35 4.24-.74.31-.21.76-.6.76-2.17z"/></svg>
