<svg width="24" height="24" xmlns="http://www.w3.org/2000/svg" viewBox="0 0 24 24"><path d="M10.495 5.888c.5-.901 1.699-1.202 2.598-.5.3.2.5.4.6.6l5.995 9.91c.6.9.3 2.201-.6 2.802-.3.2-.599.3-.999.3H5.9C4.899 19 4 18.1 4 16.998c0-.4.1-.8.4-1.201zm-1.299 5.305c-.4.4-.4 1 0 1.4l1.399 1.402-1.399 1.402c-.4.4-.4 1 0 1.4.4.401 1 .401 1.399 0l1.399-1.4 1.399 1.4c.4.401 1 .401 1.399 0 .4-.4.4-1 0-1.4l-1.4-1.402 1.4-1.401c.4-.4.4-1.001 0-1.401-.5-.3-1.1-.3-1.4.1l-1.398 1.3-1.399-1.4c-.4-.4-1-.4-1.399 0z" fill="#8e8e8e"/></svg>
