<svg width="24" height="24" xmlns="http://www.w3.org/2000/svg"><path d="M20.641 17.34l.009 1.54.726.062.786.058.232-1.51-.83-.037-.923-.113zm.248-1.011l1.438.11L24 10.13c-.279-.008-2.82-.243-3.149-.306l.038 6.505zm.729-7.987h-1.732c-.224.047-.42.09-.554.117-.588.154-5.96 4.205-6.315 5.2-.077.343.009 3.672.086 4.172.355.077 2.91.008 3.379.086l-.057 1.028c-.457-.033-3.705-.026-5.56-.026-.941 0-3.967.102-4.897.074l.175-.98c.51-.035 2.621.092 3.084-.385.23-.24.158-3.403.081-3.938-.196-.573-4.905-6.31-6.136-7.249H0V5h10.696v.1l.037.003-.037.24v1.098H7.472c1.436 2.044 3.497 4.512 4.377 5.696l4.308-3.795h-2.561l-.361-1.439h9.381l-.071.101.034.003-.67.944a.055.055 0 0 0-.022.005l-.269.386z" fill="#8E8E8E"/></svg>