<svg xmlns="http://www.w3.org/2000/svg" width="24" height="24"><path d="M24 12s.15-5.97-1.44-7.47C20.96 3.02 13.42 3 13.42 3h-2.84s-7.55.02-9.14 1.53C-.15 6.03 0 12 0 12s-.15 5.97 1.44 7.47c1.6 1.52 9.14 1.53 9.14 1.53h2.84s7.55-.01 9.14-1.53C24.15 17.97 24 12 24 12M7.6 14.87q-.24.45-.62.73-.39.28-.9.42a4.4 4.4 0 0 1-2.39-.05 2.3 2.3 0 0 1-1.48-1.41A3 3 0 0 1 2 13.44h1.44q.01.34.1.61.09.29.27.5.16.2.45.3.27.11.66.12.63 0 .98-.33.35-.31.34-.9.01-.54-.34-.86-.34-.3-1.04-.3H4.4v-1.14h.43q.54 0 .87-.25.36-.26.35-.75 0-.45-.29-.72a1 1 0 0 0-.78-.27q-.65 0-.96.37-.33.38-.34.98H2.24q.02-.57.2-1.02a2.2 2.2 0 0 1 1.39-1.29 3 3 0 0 1 1.15-.18q.6 0 1.07.15.46.13.82.4t.51.63q.18.38.18.86 0 .63-.36 1.02-.36.36-.91.55v.03q.72.18 1.12.63.4.48.4 1.26 0 .6-.22 1.02m6.89-.27q-.23.47-.6.84-.4.33-.89.54-.52.19-1.1.19-.81 0-1.4-.31t-.96-.83a4 4 0 0 1-.57-1.21 7 7 0 0 1 0-3.27q.23-.8.72-1.37.36-.42.89-.64.52-.23 1.28-.23a3 3 0 0 1 1.79.56 2 2 0 0 1 .8 1.39h-1.43a1 1 0 0 0-.35-.58 1.2 1.2 0 0 0-.76-.23q-.8 0-1.21.59-.4.57-.4 1.57.32-.35.71-.57a2.4 2.4 0 0 1 1.07-.21q.52 0 1 .2a2.6 2.6 0 0 1 1.4 1.39 3 3 0 0 1 0 2.17m7.29-.74q-.21.74-.62 1.25-.4.5-.99.79a3 3 0 0 1-1.32.27q-.72 0-1.3-.27-.59-.29-1-.8a4 4 0 0 1-.62-1.24 5 5 0 0 1-.23-1.62q0-.9.23-1.63.22-.74.64-1.25.4-.51 1-.78.57-.29 1.3-.28a2.9 2.9 0 0 1 2.3 1.06q.4.51.6 1.25.23.72.23 1.63t-.22 1.62m-2.2-4.1q-.3-.18-.71-.19-.44.01-.72.2-.32.2-.5.54-.19.34-.3.83a6 6 0 0 0 0 2.18q.11.5.3.86.18.33.5.54.3.17.72.17.4 0 .7-.18t.5-.54q.19-.33.28-.83.08-.5.08-1.1t-.08-1.1q-.1-.49-.28-.84-.2-.33-.5-.54m-7.16 2.39q-.26-.1-.57-.1-.69 0-1.08.4-.37.43-.37 1.08t.4 1.05 1.04.4a1.4 1.4 0 0 0 1.31-.87q.12-.25.12-.57 0-.3-.12-.58a2 2 0 0 0-.28-.48 2 2 0 0 0-.45-.33"/></svg>