<svg xmlns="http://www.w3.org/2000/svg" width="24" height="24"><path d="M11.33.16a1.5 1.5 0 0 1 1.34 0l2 1A1.5 1.5 0 0 1 13.5 3.9v.59a1.5 1.5 0 0 1-3 0V3.9a1.5 1.5 0 0 1-1.17-2.75zM7.29 4.23c.42.7.2 1.63-.52 2.06l-.55.33 1.01.57a1.5 1.5 0 1 1-1.46 2.62L5 9.38v.12a1.5 1.5 0 0 1-3 0v-3c0-.53.28-1.02.73-1.29l2.5-1.5a1.5 1.5 0 0 1 2.06.52m9.42 0a1.5 1.5 0 0 1 2.06-.52l2.5 1.5c.45.27.73.76.73 1.29v3a1.5 1.5 0 0 1-3 0v-.12l-.77.43a1.5 1.5 0 0 1-1.46-2.62l1.01-.57-.55-.33a1.5 1.5 0 0 1-.52-2.06M3.5 13c.83 0 1.5.67 1.5 1.5v.12l.77-.43a1.5 1.5 0 0 1 1.46 2.62l-1.01.57.55.33a1.5 1.5 0 1 1-1.54 2.58l-2.5-1.5A1.5 1.5 0 0 1 2 17.5v-3c0-.83.67-1.5 1.5-1.5m17 0c.83 0 1.5.67 1.5 1.5v3a1.5 1.5 0 0 1-.73 1.29l-2.5 1.5a1.5 1.5 0 1 1-1.54-2.58l.55-.33-1.01-.57a1.5 1.5 0 0 1 1.46-2.62l.77.43v-.12c0-.83.67-1.5 1.5-1.5m-5.16 7.83a1.5 1.5 0 0 1-.67 2.01l-2 1a1.5 1.5 0 0 1-1.34 0l-2-1a1.5 1.5 0 0 1 1.17-2.75v-.59a1.5 1.5 0 0 1 3 0v.59c.7-.25 1.5.05 1.84.74M12 9.7l.67-.45a1.5 1.5 0 1 1 1.66 2.5l-.83.55v1.2a1.5 1.5 0 0 1-3 0v-1.2l-.83-.55a1.5 1.5 0 0 1 1.66-2.5z"/></svg>