<svg xmlns="http://www.w3.org/2000/svg" width="24" height="24"><path d="M7 4.5c0-.55.4-1 .88-1h5.25c.48 0 .87.45.87 1s-.4 1-.87 1H7.87c-.48 0-.87-.45-.87-1m6.13 2c.48 0 .87.45.87 1s-.4 1-.87 1H7.87c-.48 0-.87-.45-.87-1s.4-1 .88-1zm3.87-2a1 1 0 1 1-2 0 1 1 0 0 1 2 0m-2 3a1 1 0 1 1 2 0 1 1 0 0 1-2 0M4 3a3 3 0 0 1 3-3h10a3 3 0 0 1 3 3v6a3 3 0 0 1-3 3h-4v3h7a3 3 0 0 1 3 3v2.27a2 2 0 1 1-2 0V18a1 1 0 0 0-1-1h-7v3.27a2 2 0 1 1-2 0V17H4a1 1 0 0 0-1 1v2.27a2 2 0 1 1-2 0V18a3 3 0 0 1 3-3h7v-3H7a3 3 0 0 1-3-3zm2 0v6a1 1 0 0 0 1 1h10a1 1 0 0 0 1-1V3a1 1 0 0 0-1-1H7a1 1 0 0 0-1 1"/></svg>