<svg xmlns="http://www.w3.org/2000/svg" width="24" height="24"><path d="M11 2h8a4 4 0 0 1 4 4v8a4 4 0 0 1-4 4h-8a4 4 0 0 1-1.12-.16l4.23-2.9-.88-1.25a3.7 3.7 0 0 0-5.1-.9L7 13.55V6a4 4 0 0 1 4-4m3.85 5h-.7l-.1.43a3.5 3.5 0 0 1-2.62 2.62l-.43.1v.7l.43.1a3.5 3.5 0 0 1 2.62 2.62l.1.43h.7l.1-.43a3.5 3.5 0 0 1 2.62-2.62l.43-.1v-.7l-.43-.1a3.5 3.5 0 0 1-2.62-2.62zM7 18l5.01 3.44a2.2 2.2 0 0 1-3.03.53L5 19.31l-.68.47A2.5 2.5 0 0 1 2.5 24a2.5 2.5 0 0 1-1.25-4.67l2-1.33-2-1.33a2.5 2.5 0 1 1 3.07-.45l.68.47 3.98-2.66a2.2 2.2 0 0 1 3.02.53zm-4.5 4.5a1 1 0 1 0 0-2 1 1 0 0 0 0 2m0-9a1 1 0 1 0 0 2 1 1 0 0 0 0-2"/></svg>