<svg xmlns="http://www.w3.org/2000/svg" width="24" height="24"><path d="M12 1a1.35 1.35 0 1 1-1.35 1.35c0-.76.58-1.35 1.35-1.35m7.51 3.12c.76 0 1.35.58 1.35 1.36 0 .72-.62 1.35-1.35 1.35s-1.35-.61-1.35-1.35.6-1.36 1.35-1.36m-15.03.02a1.35 1.35 0 1 1-1.35 1.35c0-.76.57-1.35 1.35-1.35m18.17 7.5c.72 0 1.35.62 1.35 1.35 0 .76-.58 1.35-1.35 1.35-.75 0-1.36-.6-1.36-1.35 0-.73.62-1.35 1.36-1.35m-21.3 0c.76 0 1.35.58 1.35 1.35 0 .73-.62 1.35-1.35 1.35S0 13.74 0 12.99c0-.74.6-1.35 1.35-1.35m3.13 7.51a1.35 1.35 0 0 1 0 2.7c-.75 0-1.35-.58-1.35-1.35 0-.72.62-1.35 1.35-1.35m15.02.01c.73 0 1.36.62 1.36 1.35 0 .76-.59 1.35-1.36 1.35a1.35 1.35 0 1 1 0-2.7m-6.96-6.87a1 1 0 0 1 0 1.42L9.7 16.54a1 1 0 0 1-1.42-1.42l2.83-2.83a1 1 0 0 1 1.42 0M4 13a8 8 0 1 1 16 0 8 8 0 0 1-16 0m8-6a6 6 0 1 0 0 12 6 6 0 0 0 0-12"/></svg>