<svg xmlns="http://www.w3.org/2000/svg" width="24" height="24"><path d="M8.5 0a5.5 5.5 0 0 0-5.4 4.48A4 4 0 0 0 5 12h6v2H7a5 5 0 0 0-4.93 4.15 3 3 0 1 0 2.04.06A3 3 0 0 1 7 16h4v2.17a3 3 0 1 0 2 0V16h4a3 3 0 0 1 2.9 2.21 3 3 0 1 0 2.03-.06A5 5 0 0 0 17 14h-4v-2h6a4 4 0 0 0 .41-7.98 5.5 5.5 0 0 0-7.16-2.54A5.5 5.5 0 0 0 8.5 0M5.01 5.24a3.5 3.5 0 0 1 6.25-1.9l.56.73.77-.5q.84-.55 1.91-.57a3.5 3.5 0 0 1 3.3 2.33l.24.67H19a2 2 0 1 1 0 4H5a2 2 0 0 1-.66-3.89l.62-.22zM11 21a1 1 0 1 1 2 0 1 1 0 0 1-2 0m11 0a1 1 0 1 1-2 0 1 1 0 0 1 2 0M2 21a1 1 0 1 1 2 0 1 1 0 0 1-2 0"/></svg>