<svg xmlns="http://www.w3.org/2000/svg" width="24" height="24"><path d="M5.16 11.9c0-1.42 1.07-2.43 2.2-2.43.72 0 1.38.38 1.8 1.02a1.23 1.23 0 0 0 2.07-1.34A4.6 4.6 0 0 0 7.37 7a4.8 4.8 0 0 0-4.67 4.9 4.8 4.8 0 0 0 4.67 4.9c1.5 0 2.83-.74 3.67-1.87a1.23 1.23 0 1 0-1.98-1.47 2.1 2.1 0 0 1-1.7.88c-1.13 0-2.2-1.01-2.2-2.44m9.85 0c0-1.42 1.07-2.43 2.2-2.43.72 0 1.38.38 1.8 1.02a1.23 1.23 0 1 0 2.07-1.34A4.6 4.6 0 0 0 17.22 7a4.8 4.8 0 0 0-4.67 4.9 4.8 4.8 0 0 0 4.67 4.9c1.5 0 2.83-.74 3.67-1.87a1.23 1.23 0 0 0-1.98-1.47c-.42.56-1.03.88-1.7.88-1.13 0-2.2-1.01-2.2-2.44M24 12s.15-7.97-1.44-9.47C20.96 1.02 13.42 1 13.42 1h-2.84s-7.55.02-9.14 1.53C-.15 4.03 0 12 0 12s-.15 7.97 1.44 9.47c1.6 1.52 9.14 1.53 9.14 1.53h2.84s7.55-.01 9.14-1.53C24.15 19.97 24 12 24 12M3.13 4.39c2.42-1.15 15.22-1.16 17.74 0C22 8.02 22 16 20.87 19.6c-2.5 1.16-15.36 1.18-17.74 0C2 16 2 8 3.13 4.4"/></svg>