<svg xmlns="http://www.w3.org/2000/svg" width="24" height="24"><path d="M19.5 9.75c0-.69-.56-1.25-1.25-1.25H15.5V5.75a1.25 1.25 0 0 0-2.5 0V8.5h-2.75a1.25 1.25 0 0 0 0 2.5H13v2.75a1.25 1.25 0 0 0 2.5 0V11h2.75c.69 0 1.25-.56 1.25-1.25m3.5-6.5v13c0 1.24-1 2.25-2.25 2.25h-13c-1.24 0-2.25-1-2.25-2.25v-13C5.5 2.01 6.5 1 7.75 1h13C21.99 1 23 2 23 3.25m-6 18.5c0 .69-.56 1.25-1.25 1.25h-8.5A6.26 6.26 0 0 1 1 16.75v-8.5a1.25 1.25 0 0 1 2.5 0v8.5a3.75 3.75 0 0 0 3.75 3.75h8.5c.69 0 1.25.56 1.25 1.25"/></svg>