<svg xmlns="http://www.w3.org/2000/svg" width="24" height="24"><path d="M.65 9.9q.35-.77.78-1.5l.36-.65q.46-.88.86-1.77l.3-.67q-.32.31-.76.45c-.43.13-.9.03-1.29-.17q-.3-.15-.47-.42a1 1 0 0 1-.3-.57 1 1 0 0 1-.02-.65q0-.33.2-.62a7 7 0 0 1 1.6-2.06Q2.34.9 2.83.6 3.76.06 4.86 0q.74-.02 1.38.32.3.16.54.4.15.16.27.33l.14.2q.34.63.34 1.36-.01.6-.22 1.18-.28.74-.64 1.44l-.24.5-.5 1.08L4.9 8.96q-.29.6-.61 1.14a18 18 0 0 0-.75 1.44q.49-.41.92-.9a100 100 0 0 0 4.81-5.6l.35-.46q.67-.95 1.45-1.82.42-.47.92-.86a6 6 0 0 1 1.53-.94q.27-.13.54-.21a4 4 0 0 1 .98-.13 4 4 0 0 1 .75.14l.04.01q.23.08.44.2a2 2 0 0 1 .44.31l.09.08.3.37.08.13a3 3 0 0 1 .3 2.05l-.02.13q-.05.3-.14.6-.27.9-.67 1.75c-.4.9-.93 1.75-1.47 2.57a77 77 0 0 1-2.63 3.77q-1.26 1.74-2.46 3.52a38 38 0 0 0-2.11 3.54 8 8 0 0 0 .63-.5 41 41 0 0 0 2.63-2.43q1.3-1.27 2.56-2.58l.18-.18q1.19-1.26 2.45-2.43a9 9 0 0 1 1.66-1.3 5 5 0 0 1 2.26-.65q.5-.02.99.1a3.3 3.3 0 0 1 2.07 1.49 4 4 0 0 1 .48 1.25q.14.71.08 1.44c-.06.49-.13.97-.3 1.43a11 11 0 0 1-1.59 2.91q-.56.75-1.2 1.43-1.2 1.19-2.6 2.15-1.25.87-2.6 1.57-.6.32-1.29.17c-.43-.1-.77-.4-1-.76q-.18-.29-.2-.61-.07-.33.03-.66.08-.32.3-.56.18-.27.47-.43 1.6-.85 3.07-1.9a14 14 0 0 0 2.19-2.13q.69-.93 1.17-1.97.15-.37.22-.76v-.57l-.07-.27-.02-.02h-.24l-.33.09a4 4 0 0 0-1.12.82q-1.32 1.22-2.55 2.53l-.28.3q-1.36 1.4-2.77 2.76-1.36 1.37-2.88 2.57l-.06.05q-.71.57-1.48 1.05a6 6 0 0 1-2.34.8q-.3.02-.62-.04l-.1-.02q-.33-.06-.63-.23h-.01a2.2 2.2 0 0 1-1.07-1.17l-.03-.07q-.06-.12-.1-.27a3 3 0 0 1 0-1.32q.02-.18.08-.36.16-.48.38-.94l.03-.08a29 29 0 0 1 1.24-2.43q.94-1.63 2-3.17.97-1.4 1.98-2.8l.19-.26q1.1-1.51 2.15-3.07a22 22 0 0 0 1.76-3 10 10 0 0 0-1.02 1.18q-.82 1.1-1.68 2.19a68 68 0 0 1-3.67 4.22l-.32.35q-.47.55-1 1.05-.52.47-1.12.83a6 6 0 0 1-1.26.5H3.6a3.3 3.3 0 0 1-2.8-.73l-.1-.1-.07-.1Q.5 14 .4 13.85q-.17-.29-.27-.6-.15-.43-.13-.9.03-.5.13-.96.17-.77.52-1.47"/></svg>