<svg xmlns="http://www.w3.org/2000/svg" width="24" height="24"><path d="M3 12a9 9 0 0 1 9.75-8.97 1.5 1.5 0 0 0 .24-2.99Q12.5 0 12 0a12 12 0 1 0 11.96 11 1.5 1.5 0 1 0-3 .25q.04.38.04.75a9 9 0 1 1-18 0M18.8 1.16a5.3 5.3 0 0 1-3.64 3.63c-.21.06-.21.36 0 .42a5.3 5.3 0 0 1 3.63 3.63c.06.21.36.21.42 0a5.3 5.3 0 0 1 3.63-3.63c.21-.06.21-.36 0-.42a5.3 5.3 0 0 1-3.63-3.63c-.06-.21-.36-.21-.42 0M12 18.5a4.8 4.8 0 0 0 4.65-3.04c.28-.73.42-1.1.12-1.53s-.79-.43-1.77-.43H9c-.98 0-1.48 0-1.77.43-.3.44-.16.8.12 1.53A4.8 4.8 0 0 0 12 18.5M9 11a1.5 1.5 0 1 0 0-3 1.5 1.5 0 0 0 0 3m6-3a1.5 1.5 0 1 0 0 3 1.5 1.5 0 0 0 0-3"/></svg>