<svg height="24" width="24" xmlns="http://www.w3.org/2000/svg"><path d="M19.5 3h-15A4.51 4.51 0 000 7.5v9A4.5 4.5 0 004.5 21h15a4.5 4.5 0 004.5-4.5v-9A4.5 4.5 0 0019.5 3zm-7.4 5.08h1.58v7.8h-1.59zm9.02 0v1.34h-4v1.88h3.39v1.35h-3.4v3.23h-1.57v-7.8zM3.38 13.63A4.8 4.8 0 013.12 12c0-.65.11-1.25.33-1.8A3.5 3.5 0 016.9 7.92c.5 0 .93.06 1.32.19s.72.3 1 .54c.27.23.5.5.67.83.17.32.29.67.35 1.05H8.7a1.68 1.68 0 00-.56-.94 1.8 1.8 0 00-1.2-.36c-.36 0-.68.07-.96.21-.27.14-.5.34-.68.59-.19.25-.33.55-.42.88a4.15 4.15 0 00.02 2.2c.1.33.25.62.44.87a1.96 1.96 0 001.59.78 2.16 2.16 0 001.46-.56c.17-.17.3-.36.4-.57.1-.2.14-.42.14-.64v-.04H7.05v-1.22h3.28v4.14H9.14l-.05-1.05h-.03c-.26.45-.58.77-.94.95a2.8 2.8 0 01-1.25.26c-.59 0-1.1-.1-1.56-.3a3.44 3.44 0 01-1.93-2.11z"/></svg>