<svg xmlns="http://www.w3.org/2000/svg" width="24" height="24"><path d="M2.7 5.98A5 5 0 0 0 3.02 7H2.5C1.67 7 1 7.67 1 8.5v6c0 .65.42 1.2 1 1.41v5.59c0 .83.67 1.5 1.5 1.5h17c.83 0 1.5-.67 1.5-1.5v-5.59c.58-.2 1-.76 1-1.41v-6c0-.83-.67-1.5-1.5-1.5h-.52a5 5 0 0 0 .32-1.02l.05-.23A4.8 4.8 0 0 0 12 3.55a4.8 4.8 0 0 0-9.35 2.2zM7.6 7a2 2 0 0 1-1.96-1.6l-.05-.24a1.8 1.8 0 1 1 3.56-.62L9.52 7zm7.25-2.46a1.8 1.8 0 1 1 3.56.62l-.05.23A2 2 0 0 1 16.4 7h-1.92zM20 10v3h-6.5v-3zm-9.5 0v3H4v-3zm3 6H19v4h-5.5zm-3 0v4H5v-4z"/></svg>