<svg xmlns="http://www.w3.org/2000/svg" width="24" height="24"><path d="M9 6C7.9 6 7 7.12 7 8.5S7.9 11 9 11s2-1.12 2-2.5S10.1 6 9 6m6 5c1.1 0 2-1.12 2-2.5S16.1 6 15 6s-2 1.12-2 2.5.9 2.5 2 2.5m2 10 .24.16a5 5 0 0 0 2.77.84h.68a2 2 0 0 0 1.98-2.28l-.55-3.88a12 12 0 0 1-.12-1.7V10a10 10 0 1 0-20 0v4.15a12 12 0 0 1-.12 1.7l-.55 3.87A2 2 0 0 0 3.3 22h.68a5 5 0 0 0 2.77-.84L7 21l1 1.2a5 5 0 0 0 3.84 1.8h.32A5 5 0 0 0 16 22.2zM5.1 18.66a2 2 0 0 1-.63.28l.38-2.67A15 15 0 0 0 5 14.15V10a7 7 0 1 1 14 0v4.15a15 15 0 0 0 .15 2.12l.38 2.67a2 2 0 0 1-.63-.28l-2.48-1.65-2.73 3.27a2 2 0 0 1-1.53.72h-.32a2 2 0 0 1-1.53-.72l-2.73-3.27z"/></svg>