<svg xmlns="http://www.w3.org/2000/svg" width="24" height="24"><path d="M15.57 1.27a2.75 2.75 0 0 0-5 .87 2.8 2.8 0 0 0-3.65 2.51l-.3 5.95-.83-.88a3.6 3.6 0 0 0-5.3.06 1.86 1.86 0 0 0-.05 2.42l2.2 2.7q.21.25.36.55l2.07 4.04A8.3 8.3 0 0 0 12.46 24h2.1a9 9 0 0 0 9-9.47l-.47-8.88a2.8 2.8 0 0 0-3.66-2.51 2.75 2.75 0 0 0-3.86-1.87M14 2.75V13h2V3.75a.75.75 0 1 1 1.5 0V13h2V5.8a.8.8 0 0 1 1.6-.05l.46 8.88a7 7 0 0 1-7 7.37h-2.1a6.3 6.3 0 0 1-5.6-3.42l-2.08-4.04a5 5 0 0 0-.6-.9l-2.11-2.6c.63-.62 1.65-.6 2.26.05l4.05 4.3.53-10.64a.8.8 0 0 1 1.6.04V13h2V2.75a.75.75 0 1 1 1.5 0"/></svg>