<svg xmlns="http://www.w3.org/2000/svg" width="24" height="24"><path d="M5.94 6c.92 0 1.83.37 2.49 1.02l1.48 1.44L12 10.5l2.09-2.04 1.48-1.44A3.6 3.6 0 0 1 18.06 6c.49 0 1.2.11 1.85.63a2.8 2.8 0 0 1 .23 4.23l-.07.07-.07.08c-.06.07-5.59 6.22-8 8.75-2.41-2.54-7.94-8.69-8-8.75l-.06-.08-.08-.07A2.8 2.8 0 0 1 3 8.71 2.9 2.9 0 0 1 5.94 6m12.12-3a6.6 6.6 0 0 0-4.58 1.87L12 6.31l-1.48-1.44A6.6 6.6 0 0 0 5.94 3c-1.33 0-2.65.42-3.73 1.29a5.8 5.8 0 0 0-.44 8.72s6.29 7.01 8.48 9.26c.47.49 1.11.73 1.75.73s1.28-.24 1.75-.73c2.19-2.25 8.48-9.26 8.48-9.26a5.8 5.8 0 0 0-.44-8.72A6 6 0 0 0 18.06 3"/></svg>