<svg xmlns="http://www.w3.org/2000/svg" width="24" height="24"><path d="M1.72.31a.45.45 0 0 1 .85 0l.33 1.02q.03.06.1.1l.98.34c.4.14.4.73 0 .87L3 3a.2.2 0 0 0-.1.1l-.33 1a.45.45 0 0 1-.85 0l-.34-1a.2.2 0 0 0-.1-.1L.3 2.64c-.4-.14-.4-.73 0-.87l.99-.35a.2.2 0 0 0 .1-.1zm4.55 2.02a.76.76 0 0 1 1.44 0l.88 2.63 2.56.9c.69.24.69 1.24 0 1.49l-2.56.9-.88 2.63a.76.76 0 0 1-1.44 0l-.88-2.64-2.56-.9c-.69-.24-.69-1.24 0-1.48l2.56-.9zm3.84 1.16-.2-.6q1.54-.34 3.22-.34c5.95 0 10.35 3.55 10.35 8.8a8.6 8.6 0 0 1-3.34 6.55q.1.5.1 1.03c0 1.8-.9 3.53-2.4 4.66q-.45.38-.95.37c-.7 0-1.14-.46-1.14-1.05 0-.43.28-.81.7-1.16a3.6 3.6 0 0 0 1.46-2.42 10 10 0 0 1-4.2.98q-.88 0-1.6-.24-.58.05-1.16.05c-5.34 0-9.62-2.81-9.62-7.93q.01-1.79.65-3.31.16.09.36.15l1.67.6.1.3q-.43 1.08-.44 2.33c0 3.4 2.84 5.25 6.46 5.53l-.03-.4c0-2.16 2.26-3.66 4.8-3.66 1.77 0 3.3.76 4.26 2a6.2 6.2 0 0 0 2-4.39c0-3.9-3.44-6.48-8-6.48h-.24q-.42-.52-1.14-.78zm3.55 14.54c1.27 0 2.52-.34 3.63-.93a3.1 3.1 0 0 0-2.45-1.07c-1.4 0-2.41.54-2.41 1.3 0 .48.48.7 1.23.7"/></svg>