<svg xmlns="http://www.w3.org/2000/svg" width="24" height="24"><path d="m16.7 9.08-1.4-1.41a1 1 0 0 0-1.42 0L3.83 17.55a2 2 0 0 0-.5 1.93L1 21.79l2.13.71 1.6-1.61a2 2 0 0 0 1.94-.51L16.7 10.5a1 1 0 0 0 0-1.42m5.28 4.88-1.5.02-.02-1.5a1 1 0 0 0-1-.98h-.01a1 1 0 0 0-.99 1.02l.02 1.5-1.5.02a1 1 0 0 0 .02 2h.02l1.5-.02.02 1.5a1 1 0 0 0 1 .98h.02a1 1 0 0 0 .98-1.02l-.02-1.5 1.5-.02a1 1 0 0 0 .98-1.01 1 1 0 0 0-1.02-.99M7 6.04h.02l1.5-.02.02 1.5a1 1 0 0 0 1 .98h.02a1 1 0 0 0 .98-1.01l-.02-1.5 1.5-.03A1 1 0 0 0 13 4.95a1 1 0 0 0-1.02-.99l-1.5.03-.02-1.5c0-.55-.46-1.03-1.02-.99a1 1 0 0 0-.98 1.02l.02 1.5-1.5.02a1 1 0 0 0 .02 2m10 0h.02l1.5-.02.02 1.5a1 1 0 0 0 1 .98h.01a1 1 0 0 0 .99-1.02l-.02-1.5 1.5-.02A1 1 0 0 0 23 4.95a1 1 0 0 0-1.02-.99l-1.5.02-.02-1.5a1 1 0 0 0-1-.98h-.02a1 1 0 0 0-.98 1.02l.02 1.5-1.5.02a1 1 0 0 0 .02 2"/></svg>