<svg xmlns="http://www.w3.org/2000/svg" width="24" height="24"><path d="M11.94 0H12a12 12 0 0 1 11.02 7.24l.05.11.04.1a1 1 0 1 1-1.89.68l-.03-.1A10 10 0 0 0 12.04 2h-.1a1 1 0 0 1 0-2M8.76 1.44a1 1 0 0 1-.54 1.3l-.1.04A1 1 0 1 1 7.36.93l.1-.04a1 1 0 0 1 1.31.55m-3.8 2.04a1 1 0 0 1 0 1.42l-.07.06a1 1 0 1 1-1.43-1.4l.09-.09a1 1 0 0 1 1.41.01M2.24 6.82a1 1 0 0 1 .54 1.3l-.04.1a1 1 0 0 1-1.85-.76l.04-.1a1 1 0 0 1 1.31-.54M1 10.95a1 1 0 0 1 1 1v.1a1 1 0 0 1-2 0v-.11a1 1 0 0 1 1-1m22 0a1 1 0 0 1 1 1v.11a1 1 0 1 1-2-.01v-.1a1 1 0 0 1 1-1m-.44 4.29c.52.2.76.79.55 1.3l-.03.06-.01.05a1 1 0 1 1-1.85-.78l.02-.04.02-.05a1 1 0 0 1 1.3-.54m-21.12 0a1 1 0 0 1 1.3.54l.04.1a1 1 0 0 1-1.85.77l-.04-.1a1 1 0 0 1 .55-1.31m19.08 3.79a1 1 0 0 1 0 1.41l-.08.09a1 1 0 0 1-1.4-1.43l.02-.02.04-.04a1 1 0 0 1 1.42-.01m-17.04 0a1 1 0 0 1 1.42 0l.06.07a1 1 0 1 1-1.4 1.43l-.09-.09a1 1 0 0 1 .01-1.41m3.34 2.73a1 1 0 0 1 1.3-.54l.1.04a1 1 0 0 1-.76 1.85l-.1-.04a1 1 0 0 1-.54-1.31m10.36 0a1 1 0 0 1-.53 1.3l-.1.05a1 1 0 1 1-.77-1.85l.1-.04a1 1 0 0 1 1.3.54M10.95 23a1 1 0 0 1 1-1h.1a1 1 0 0 1 0 2h-.11a1 1 0 0 1-1-1M8.06 8.25H9.6V16H8.01v-5.36c-.28.48-.9.69-1.73.69V9.72c1.14 0 1.77-.48 1.78-1.47m6.27 7.9c-2.01 0-3.22-1.5-3.22-4.03 0-2.52 1.21-4.03 3.22-4.03 2.03 0 3.23 1.5 3.23 4.03s-1.2 4.03-3.23 4.03m0-1.48c.98 0 1.58-.95 1.58-2.55s-.6-2.54-1.58-2.54-1.56.94-1.56 2.54.58 2.55 1.56 2.55"/></svg>