<svg xmlns="http://www.w3.org/2000/svg" width="24" height="24"><path d="M11.95 2H12a10 10 0 0 1 0 20h-.05a1 1 0 0 0 0 2H12a12 12 0 0 0 0-24h-.06a1 1 0 1 0 .01 2m-3.19-.56a1 1 0 0 0-1.3-.55l-.1.04a1 1 0 1 0 .77 1.85l.09-.04a1 1 0 0 0 .54-1.3M4.97 3.48a1 1 0 0 0-1.41 0l-.09.08a1 1 0 0 0 1.43 1.4l.06-.06a1 1 0 0 0 .01-1.42M2.24 6.82a1 1 0 0 0-1.3.53l-.05.1a1 1 0 1 0 1.85.77l.02-.06.01-.03a1 1 0 0 0-.53-1.31M1 10.95a1 1 0 0 0-1 1v.11a1 1 0 1 0 2-.01v-.1a1 1 0 0 0-1-1m.44 4.29a1 1 0 0 0-.55 1.3l.04.1a1 1 0 1 0 1.81-.86 1 1 0 0 0-1.3-.54m2.04 3.79a1 1 0 0 0 0 1.41l.08.09a1 1 0 1 0 1.4-1.43l-.06-.06a1 1 0 0 0-1.42-.01m3.34 2.73a1 1 0 0 0 .53 1.3l.1.05a1 1 0 1 0 .68-1.89 1 1 0 0 0-1.31.54m1.96-10.63 2.02-1.49v-1.4H5.55v1.49h3.1l-2.3 1.6.56 1.13c.37-.23.74-.33 1.2-.33.8 0 1.34.52 1.34 1.27 0 .82-.55 1.32-1.4 1.32q-1.1 0-1.4-1.07l-1.48.66c.29 1.17 1.37 1.84 2.98 1.84 1.7 0 2.95-1.1 2.95-2.61 0-1.48-.86-2.36-2.32-2.41m3.28.99c0 2.53 1.2 4.03 3.22 4.03s3.22-1.5 3.22-4.03c0-2.52-1.2-4.03-3.22-4.03-2.01 0-3.22 1.5-3.22 4.03m4.8 0c0 1.6-.6 2.55-1.58 2.55s-1.56-.95-1.56-2.55.58-2.54 1.56-2.54 1.57.94 1.57 2.54"/></svg>