<svg xmlns="http://www.w3.org/2000/svg" width="24" height="24"><path d="M8.43 16.15c-1.94 0-3.15-1.5-3.15-3.97 0-2.64 1.4-4.09 3.37-4.09 1.24 0 2.29.52 2.71 1.29l-1.3.98c-.32-.49-.8-.8-1.42-.8q-1.6.01-1.72 2.31c.3-.6.95-.96 1.84-.96 1.46 0 2.58.99 2.58 2.55 0 1.52-1.14 2.7-2.91 2.7m-.07-3.88c-.76 0-1.33.5-1.33 1.27 0 .76.57 1.25 1.33 1.25s1.33-.5 1.33-1.25c0-.77-.57-1.27-1.33-1.27M15.5 8.1c2.02 0 3.22 1.5 3.22 4.03s-1.2 4.03-3.22 4.03c-2.01 0-3.22-1.5-3.22-4.03 0-2.52 1.2-4.03 3.22-4.03m0 1.49c-.98 0-1.56.94-1.56 2.54s.58 2.55 1.56 2.55 1.57-.95 1.57-2.55-.6-2.54-1.57-2.54M24 12a12 12 0 1 1-24 0 12 12 0 0 1 24 0M12 2a10 10 0 1 0 0 20 10 10 0 0 0 0-20"/></svg>