<svg xmlns="http://www.w3.org/2000/svg" width="24" height="24"><path d="M22.36 11.52c1.26-1.3.57-3.53-1.18-3.8L16.27 7a.2.2 0 0 1-.16-.12l-2.2-4.63a2.1 2.1 0 0 0-3.82 0l-2.2 4.63a.2.2 0 0 1-.15.12l-4.91.74c-1.75.26-2.45 2.5-1.18 3.79l3.56 3.6s.06.12.05.18l-.84 5.1c-.3 1.8 1.53 3.2 3.1 2.34l4.39-2.4a.2.2 0 0 1 .19 0l4.39 2.4c1.57.86 3.39-.53 3.1-2.34l-.85-5.1q-.02-.1.06-.17zm-5.7 1.5a3.2 3.2 0 0 0-.88 2.77l.57 3.46-2.81-1.54a3.2 3.2 0 0 0-3.07 0l-2.82 1.54.57-3.46a3.2 3.2 0 0 0-.87-2.77l-2.53-2.56 3.37-.51a3.2 3.2 0 0 0 2.4-1.8L12 5.22l1.4 2.95a3.2 3.2 0 0 0 2.43 1.79l3.36.5z"/></svg>