<svg xmlns="http://www.w3.org/2000/svg" width="24" height="24"><path d="M12.52 8.69c0 .16.14.28.3.27a1.35 1.35 0 0 1 1.42 1.46.29.29 0 1 0 .57.05A1.93 1.93 0 0 0 12.8 8.4a.3.3 0 0 0-.27.3m-.11-1.84a.29.29 0 0 0-.02.57c.93.03 1.81.4 2.47 1.07a3.3 3.3 0 0 1 .85 2.42.29.29 0 0 0 .57.03 4 4 0 0 0-1-2.84V8.1a4.2 4.2 0 0 0-2.87-1.24m-.83-1.2c0 .16.13.29.29.28a5.3 5.3 0 0 1 3.8 1.5 5.5 5.5 0 0 1 1.55 4.1.29.29 0 1 0 .58.02 6 6 0 0 0-1.71-4.52h-.01a5.8 5.8 0 0 0-4.22-1.68.3.3 0 0 0-.28.3m1.62 8.6a1 1 0 0 1-.33.05 5.6 5.6 0 0 1-3.74-3.76.8.8 0 0 1 .23-.62l.54-.42a.94.94 0 0 0 .16-1.18l-.1-.18c-.17-.27-.4-.65-.58-.88l-.79-.98a.8.8 0 0 0-1.06-.17q-.57.45-.97 1.05-.35.38-.44.9v.13q0 .2.07.38a13 13 0 0 0 1.13 2.46 15 15 0 0 0 2.2 3h.03q.44.45.93.82.98.78 2.06 1.38 1.17.69 2.47 1.14.19.06.37.05h.13q.52-.08.9-.43.53-.47.88-1.08a.8.8 0 0 0-.17-1.06 12 12 0 0 0-2.03-1.48.9.9 0 0 0-1.18.16l-.42.53a1 1 0 0 1-.29.19M20.36 3.5c-.56-.53-2.85-2.18-7.93-2.2 0 0-5.99-.37-8.93 2.31-1.63 1.63-2.2 4.01-2.26 6.96s-.14 8.47 5.19 9.97v2.3s0 .92.57 1.1c.61.2 1.02-.26 1.54-.85l.34-.38c.39-.42.92-1.03 1.32-1.5q3.42.32 6.76-.49l.28-.08c1.18-.3 4.69-1.19 5.3-6.22.73-5.7-.31-9.3-2.18-10.92m.62 10.51c-.52 4.15-3.3 4.8-4.31 5.04l-.26.06c-1.9.47-3.87.64-5.82.5 0 0-2.31 2.75-3.04 3.51a.4.4 0 0 1-.33.14q-.17-.06-.15-.4v-3.8c-4.37-1.21-4.26-5.66-4.2-8.18v-.24c.06-2.46.52-4.48 1.9-5.84 2.46-2.23 7.55-1.9 7.55-1.9 4.3 0 6.36 1.31 6.84 1.74 1.6 1.36 2.4 4.6 1.82 9.37"/></svg>