<svg width="312" height="180" viewBox="0 0 312 180" fill="none" xmlns="http://www.w3.org/2000/svg">
<rect width="312" height="180" fill="none"/>
<path fill-rule="evenodd" clip-rule="evenodd" d="M166.667 87.3333H158.667V94.4453L166.133 104.4C167.016 105.579 166.779 107.251 165.6 108.133C165.12 108.493 164.557 108.667 164.003 108.667C163.192 108.667 162.389 108.299 161.867 107.6L156 99.7787L150.133 107.6C149.251 108.779 147.581 109.019 146.4 108.133C145.221 107.251 144.984 105.579 145.867 104.4L153.333 94.4453V87.3333H145.333C143.861 87.3333 142.667 86.1387 142.667 84.6667C142.667 83.1947 143.861 82 145.333 82H166.667C168.139 82 169.333 83.1947 169.333 84.6667C169.333 86.1387 168.139 87.3333 166.667 87.3333ZM156 68.6667C158.944 68.6667 161.333 71.056 161.333 74C161.333 76.9467 158.944 79.3333 156 79.3333C153.056 79.3333 150.667 76.9467 150.667 74C150.667 71.056 153.056 68.6667 156 68.6667ZM156 58C138.328 58 124 72.328 124 90C124 107.675 138.328 122 156 122C173.672 122 188 107.675 188 90C188 72.328 173.672 58 156 58Z" fill="#009990"/>
</svg>
