<svg width="312" height="180" viewBox="0 0 312 180" fill="none" xmlns="http://www.w3.org/2000/svg">
<rect width="312" height="180" fill="#E6FAF5"/>
<g opacity="0.5">
<circle cx="108" cy="90" r="34.5" fill="#E0FFF7" stroke="#009990" stroke-width="3"/>
<path fill-rule="evenodd" clip-rule="evenodd" d="M94.4463 86.8926C97.4542 86.8926 99.8926 84.4542 99.8926 81.4463C99.8926 78.4384 97.4542 76 94.4463 76C91.4384 76 89 78.4384 89 81.4463C89 84.4542 91.4384 86.8926 94.4463 86.8926ZM120.597 86.8926C123.605 86.8926 126.043 84.4542 126.043 81.4463C126.043 78.4384 123.605 76 120.597 76C117.589 76 115.15 78.4384 115.15 81.4463C115.15 84.4542 117.589 86.8926 120.597 86.8926Z" fill="#009990"/>
</g>
<rect x="45" y="53" width="81" height="78" fill="url(#paint0_linear_819_1756)"/>
<circle cx="140" cy="90" r="34.5" fill="#E0FFF7" stroke="#009990" stroke-width="3"/>
<circle cx="140" cy="90" r="36" fill="url(#paint1_linear_819_1756)"/>
<path fill-rule="evenodd" clip-rule="evenodd" d="M139.264 105H128C126.343 105 125 106.343 125 108C125 109.657 126.343 111 128 111H142.756C141.409 109.127 140.237 107.119 139.264 105ZM131.893 81.4463C131.893 84.4542 129.454 86.8926 126.446 86.8926C123.438 86.8926 121 84.4542 121 81.4463C121 78.4384 123.438 76 126.446 76C129.454 76 131.893 78.4384 131.893 81.4463Z" fill="#009990"/>
<circle cx="172" cy="90" r="36" fill="url(#paint2_linear_819_1756)"/>
<path fill-rule="evenodd" clip-rule="evenodd" d="M163.893 81.4463C163.893 84.4542 161.454 86.8926 158.446 86.8926C155.438 86.8926 153 84.4542 153 81.4463C153 78.4384 155.438 76 158.446 76C161.454 76 163.893 78.4384 163.893 81.4463ZM190.043 81.4463C190.043 84.4542 187.605 86.8926 184.597 86.8926C181.589 86.8926 179.15 84.4542 179.15 81.4463C179.15 78.4384 181.589 76 184.597 76C187.605 76 190.043 78.4384 190.043 81.4463ZM185.783 110.654C182.184 114.258 177.391 116.243 172.29 116.243C167.197 116.243 162.404 114.258 158.8 110.66C157.733 109.593 157.733 107.868 158.8 106.804C159.863 105.736 161.589 105.738 162.655 106.802C165.229 109.373 168.65 110.79 172.29 110.79C175.933 110.79 179.357 109.373 181.928 106.799C182.994 105.733 184.72 105.736 185.783 106.796C186.849 107.862 186.849 109.588 185.783 110.654Z" fill="#005C62"/>
<circle cx="204" cy="90" r="36" fill="#005C62"/>
<circle cx="204" cy="90" r="36" fill="black" fill-opacity="0.2"/>
<path fill-rule="evenodd" clip-rule="evenodd" d="M195.893 81.4463C195.893 84.4542 193.454 86.8926 190.446 86.8926C187.438 86.8926 185 84.4542 185 81.4463C185 78.4384 187.438 76 190.446 76C193.454 76 195.893 78.4384 195.893 81.4463ZM222.043 81.4463C222.043 84.4542 219.605 86.8926 216.597 86.8926C213.589 86.8926 211.15 84.4542 211.15 81.4463C211.15 78.4384 213.589 76 216.597 76C219.605 76 222.043 78.4384 222.043 81.4463ZM203.403 115.768C212.528 115.768 219.925 109.089 219.925 100.85C219.925 96.6274 216.594 97.1796 211.646 98C209.22 98.4022 206.405 98.869 203.403 98.869C200.493 98.869 197.759 98.5015 195.384 98.1824C190.312 97.5007 186.881 97.0395 186.881 100.85C186.881 109.089 194.278 115.768 203.403 115.768Z" fill="#E6FAF5"/>
<defs>
<linearGradient id="paint0_linear_819_1756" x1="62" y1="85" x2="113.501" y2="85.1944" gradientUnits="userSpaceOnUse">
<stop stop-color="#E6FAF5"/>
<stop offset="1" stop-color="#E6FAF5" stop-opacity="0.5"/>
</linearGradient>
<linearGradient id="paint1_linear_819_1756" x1="97.5" y1="84.5" x2="137.444" y2="82.0769" gradientUnits="userSpaceOnUse">
<stop stop-color="#E6FAF5"/>
<stop offset="1" stop-color="#E6FAF5" stop-opacity="0.5"/>
</linearGradient>
<linearGradient id="paint2_linear_819_1756" x1="166" y1="90" x2="114.5" y2="90" gradientUnits="userSpaceOnUse">
<stop stop-color="#009990"/>
<stop offset="1" stop-color="#009990" stop-opacity="0.3"/>
</linearGradient>
</defs>
</svg>
