<svg width="312" height="180" viewBox="0 0 312 180" fill="none" xmlns="http://www.w3.org/2000/svg">
<rect width="312" height="180" fill="#E6FAF5"/>
<rect x="108.357" y="60.4997" width="58.3571" height="58.3571" stroke="#A1E5E1" stroke-width="2.71429"/>
<path fill-rule="evenodd" clip-rule="evenodd" d="M147.5 93.1667C147.5 89.8179 145.763 86.8808 143.146 85.1883V74.7572C144.748 74.2506 145.917 72.7702 145.917 71H130.083C130.083 72.7702 131.252 74.2506 132.854 74.7572V85.1883C130.237 86.8808 128.5 89.8179 128.5 93.1667H136.417V105.13C136.417 106.638 137.023 108.001 138 109C138.977 108.001 139.583 106.638 139.583 105.13V93.1667H147.5Z" fill="#009990"/>
<rect x="46" y="59.1426" width="61.0714" height="61.0714" fill="#A1E5E1"/>
<rect width="25" height="25" transform="translate(65 77)" fill="#A1E5E1"/>
<path fill-rule="evenodd" clip-rule="evenodd" d="M65 89.5C65 94.8365 68.3448 99.3927 73.0521 101.185C72.9375 100.209 72.8156 98.6 73.0781 97.4708C73.3042 96.5 74.5375 91.2854 74.5375 91.2854C74.5375 91.2854 74.1656 90.5406 74.1656 89.4375C74.1656 87.7083 75.1677 86.4167 76.4167 86.4167C77.4792 86.4167 77.9917 87.2135 77.9917 88.1687C77.9917 89.2365 77.3115 90.8323 76.9604 92.3125C76.6677 93.551 77.5823 94.5615 78.8031 94.5615C81.0146 94.5615 82.7156 92.2292 82.7156 88.8625C82.7156 85.8823 80.574 83.8 77.5167 83.8C73.9771 83.8 71.899 86.4552 71.899 89.2C71.899 90.2698 72.3104 91.4156 72.825 92.0396C72.926 92.1635 72.9417 92.2708 72.9115 92.3969C72.8167 92.7906 72.6062 93.6354 72.5656 93.8083C72.5104 94.0354 72.3854 94.0844 72.149 93.974C70.5948 93.251 69.624 90.9792 69.624 89.1542C69.624 85.2281 72.475 81.624 77.8448 81.624C82.1615 81.624 85.5167 84.7 85.5167 88.8104C85.5167 93.099 82.8135 96.551 79.0594 96.551C77.7979 96.551 76.6135 95.8948 76.2073 95.1208C76.2073 95.1208 75.5833 97.4979 75.4323 98.0792C75.1385 99.2083 74.324 100.638 73.8187 101.449C74.9833 101.807 76.2188 102 77.5 102C84.4031 102 90 96.4031 90 89.5C90 82.5969 84.4031 77 77.5 77C70.5969 77 65 82.5969 65 89.5Z" fill="#005C62"/>
<path fill-rule="evenodd" clip-rule="evenodd" d="M65 89.5C65 94.8365 68.3448 99.3927 73.0521 101.185C72.9375 100.209 72.8156 98.6 73.0781 97.4708C73.3042 96.5 74.5375 91.2854 74.5375 91.2854C74.5375 91.2854 74.1656 90.5406 74.1656 89.4375C74.1656 87.7083 75.1677 86.4167 76.4167 86.4167C77.4792 86.4167 77.9917 87.2135 77.9917 88.1687C77.9917 89.2365 77.3115 90.8323 76.9604 92.3125C76.6677 93.551 77.5823 94.5615 78.8031 94.5615C81.0146 94.5615 82.7156 92.2292 82.7156 88.8625C82.7156 85.8823 80.574 83.8 77.5167 83.8C73.9771 83.8 71.899 86.4552 71.899 89.2C71.899 90.2698 72.3104 91.4156 72.825 92.0396C72.926 92.1635 72.9417 92.2708 72.9115 92.3969C72.8167 92.7906 72.6062 93.6354 72.5656 93.8083C72.5104 94.0354 72.3854 94.0844 72.149 93.974C70.5948 93.251 69.624 90.9792 69.624 89.1542C69.624 85.2281 72.475 81.624 77.8448 81.624C82.1615 81.624 85.5167 84.7 85.5167 88.8104C85.5167 93.099 82.8135 96.551 79.0594 96.551C77.7979 96.551 76.6135 95.8948 76.2073 95.1208C76.2073 95.1208 75.5833 97.4979 75.4323 98.0792C75.1385 99.2083 74.324 100.638 73.8187 101.449C74.9833 101.807 76.2188 102 77.5 102C84.4031 102 90 96.4031 90 89.5C90 82.5969 84.4031 77 77.5 77C70.5969 77 65 82.5969 65 89.5Z" fill="black" fill-opacity="0.2"/>
<rect x="188.429" y="51" width="23.0714" height="23.0714" fill="#009990"/>
<rect x="215.572" y="51" width="23.0714" height="23.0714" fill="#009990"/>
<rect x="242.714" y="51" width="23.0714" height="23.0714" fill="#009990"/>
<rect x="188.429" y="78.1426" width="23.0714" height="23.0714" fill="#009990"/>
<rect x="215.572" y="78.1426" width="23.0714" height="23.0714" fill="#009990"/>
<rect x="245.429" y="80.8569" width="17.6429" height="17.6429" fill="#009990" stroke="#A1E5E1" stroke-width="5.42857"/>
<rect x="188.429" y="105.286" width="23.0714" height="23.0714" fill="#009990"/>
<rect x="215.572" y="105.286" width="23.0714" height="23.0714" fill="#009990"/>
<rect x="242.714" y="105.286" width="23.0714" height="23.0714" fill="#009990"/>
</svg>
