<svg width="312" height="180" viewBox="0 0 312 180" fill="none" xmlns="http://www.w3.org/2000/svg">
<rect width="312" height="180" fill="#E6FAF5"/>
<path d="M181.144 46H137.644C133.226 46 129.644 49.5817 129.644 54V126C129.644 130.418 133.226 134 137.644 134H201.644C206.062 134 209.644 130.418 209.644 126V77.5H186.644C183.606 77.5 181.144 75.0376 181.144 72V46Z" fill="#009990"/>
<path d="M208.878 74.5L184.144 46.4074V72C184.144 73.3807 185.263 74.5 186.644 74.5H208.878Z" fill="#009990"/>
<path fill-rule="evenodd" clip-rule="evenodd" d="M135.644 76C135.644 73.7909 137.435 72 139.644 72H167.644C169.853 72 171.644 73.7909 171.644 76C171.644 78.2091 169.853 80 167.644 80H139.644C137.435 80 135.644 78.2091 135.644 76ZM135.644 92C135.644 89.7909 137.435 88 139.644 88H188.644C190.853 88 192.644 89.7909 192.644 92C192.644 94.2091 190.853 96 188.644 96H139.644C137.435 96 135.644 94.2091 135.644 92ZM135.644 108C135.644 105.791 137.435 104 139.644 104H163.644C165.853 104 167.644 105.791 167.644 108C167.644 110.209 165.853 112 163.644 112H139.644C137.435 112 135.644 110.209 135.644 108Z" fill="#A1E5E1"/>
<path d="M102.357 69.8611C102.355 65.5183 105.875 61.9983 110.218 62C114.561 61.9983 118.081 65.5183 118.079 69.8611V77.7222L102.357 77.7222L102.357 69.8611Z" fill="#005C62"/>
<path d="M102.357 69.8611C102.355 65.5183 105.875 61.9983 110.218 62C114.561 61.9983 118.081 65.5183 118.079 69.8611V77.7222L102.357 77.7222L102.357 69.8611Z" fill="black" fill-opacity="0.2"/>
<path d="M102.356 121.004L102.356 83.7685L118.079 83.7685L118.079 121.004L110.218 134L102.356 121.004Z" fill="#005C62"/>
<path d="M102.356 121.004L102.356 83.7685L118.079 83.7685L118.079 121.004L110.218 134L102.356 121.004Z" fill="black" fill-opacity="0.2"/>
</svg>
