<svg width="312" height="180" viewBox="0 0 312 180" fill="none" xmlns="http://www.w3.org/2000/svg">
<rect width="312" height="180" fill="none"/>
<path fill-rule="evenodd" clip-rule="evenodd" d="M113.052 40.1113C109.32 40.1113 106.295 43.1362 106.295 46.8676V138.078H125.599V46.8676C125.599 43.1362 122.574 40.1113 118.843 40.1113H113.052ZM82.1654 67.9812C82.1654 64.2498 85.1903 61.2249 88.9217 61.2249H94.7129C98.4443 61.2249 101.469 64.2498 101.469 67.9812V138.078H82.1654V67.9812ZM58.0356 84.0276C58.0356 80.2961 61.0606 77.2712 64.792 77.2712H70.5832C74.3146 77.2712 77.3395 80.2961 77.3395 84.0276V138.078H58.0356V84.0276Z" fill="#009990"/>
<path d="M148.402 89.5008C148.402 61.071 170.871 37.8893 199.02 36.7451V50.7248C178.586 51.8563 162.365 68.7843 162.365 89.5008C162.365 110.949 179.753 128.337 201.202 128.337C211.127 128.337 220.183 124.614 227.048 118.488L237.649 127.703C228.173 136.747 215.336 142.301 201.202 142.301C172.041 142.301 148.402 118.661 148.402 89.5008Z" fill="#A1E5E1"/>
<path d="M176.329 99.537L193.763 82.0825L209.056 99.537L225.45 82.0825" stroke="#009990" stroke-width="4" stroke-linecap="round"/>
<path d="M240.036 89.0647C239.807 68.254 223.209 51.372 202.511 50.6864V36.7171C230.922 37.4084 253.769 60.5418 254 89.0647H240.036Z" fill="#009990"/>
<path d="M240.098 125.207C248.089 116.507 253.198 105.119 253.915 92.5552H239.92C239.215 101.61 235.405 109.793 229.554 116.041L240.098 125.207Z" fill="#005C62"/>
<path d="M240.098 125.207C248.089 116.507 253.198 105.119 253.915 92.5552H239.92C239.215 101.61 235.405 109.793 229.554 116.041L240.098 125.207Z" fill="black" fill-opacity="0.2"/>
<circle cx="174.583" cy="101.283" r="4.36363" fill="#009990"/>
<circle cx="226.947" cy="81.2098" r="4.36363" fill="#009990"/>
</svg>
