<svg xmlns="http://www.w3.org/2000/svg" width="312" height="180" fill="none"><path fill="#CCF6EE" fill-opacity=".5" fill-rule="evenodd" d="M103.933 48.697a41.957 41.957 0 0 1 8.134 0 1.5 1.5 0 0 1-.29 2.986 38.978 38.978 0 0 0-7.554 0 1.5 1.5 0 1 1-.29-2.986Zm14.247 2.58a1.5 1.5 0 0 1 1.87-1 41.21 41.21 0 0 1 7.517 3.117 1.5 1.5 0 1 1-1.416 2.645 38.25 38.25 0 0 0-6.971-2.89 1.5 1.5 0 0 1-1-1.871Zm-20.36 0a1.5 1.5 0 0 1-1 1.871 38.254 38.254 0 0 0-6.971 2.89 1.5 1.5 0 0 1-1.416-2.644 41.247 41.247 0 0 1 7.517-3.117 1.5 1.5 0 0 1 1.87 1Zm34.397 6.85a1.5 1.5 0 0 1 2.111-.208 41.782 41.782 0 0 1 5.753 5.753 1.501 1.501 0 0 1-2.318 1.904 38.775 38.775 0 0 0-5.339-5.339 1.5 1.5 0 0 1-.207-2.11Zm-48.434 0a1.5 1.5 0 0 1-.207 2.11 38.734 38.734 0 0 0-5.339 5.34 1.5 1.5 0 1 1-2.318-1.905 41.749 41.749 0 0 1 5.753-5.753 1.5 1.5 0 0 1 2.11.207Zm58.793 11.691a1.5 1.5 0 0 1 2.03.615 41.22 41.22 0 0 1 3.117 7.517 1.5 1.5 0 0 1-2.871.87 38.338 38.338 0 0 0-2.89-6.971 1.5 1.5 0 0 1 .614-2.03Zm-69.152 0a1.5 1.5 0 0 1 .614 2.031 38.254 38.254 0 0 0-2.89 6.97 1.5 1.5 0 1 1-2.871-.87 41.247 41.247 0 0 1 3.117-7.516 1.5 1.5 0 0 1 2.03-.615Zm-5.089 14.767a1.5 1.5 0 0 1 1.348 1.638 38.982 38.982 0 0 0 0 7.554 1.5 1.5 0 0 1-2.986.29 41.976 41.976 0 0 1 0-8.134 1.5 1.5 0 0 1 1.638-1.348Zm79.33 0a1.5 1.5 0 0 1 1.638 1.348 42.072 42.072 0 0 1 0 8.134 1.5 1.5 0 1 1-2.986-.29 38.95 38.95 0 0 0 0-7.554 1.5 1.5 0 0 1 1.348-1.638Zm-.943 15.595a1.5 1.5 0 0 1 1.001 1.87 41.182 41.182 0 0 1-3.117 7.517 1.499 1.499 0 1 1-2.644-1.416 38.333 38.333 0 0 0 2.89-6.971 1.5 1.5 0 0 1 1.87-1Zm-77.444 0a1.5 1.5 0 0 1 1.87 1 38.25 38.25 0 0 0 2.89 6.971 1.5 1.5 0 1 1-2.644 1.416 41.21 41.21 0 0 1-3.117-7.517 1.5 1.5 0 0 1 1-1.87Zm6.848 14.037a1.5 1.5 0 0 1 2.111.207 38.775 38.775 0 0 0 5.34 5.339 1.5 1.5 0 1 1-1.905 2.318 41.782 41.782 0 0 1-5.753-5.753 1.5 1.5 0 0 1 .207-2.111Zm63.748 0a1.5 1.5 0 0 1 .207 2.111 41.816 41.816 0 0 1-5.753 5.753 1.5 1.5 0 0 1-1.904-2.318 38.816 38.816 0 0 0 5.339-5.339 1.5 1.5 0 0 1 2.111-.207Zm-52.055 10.359a1.5 1.5 0 0 1 2.03-.614 38.338 38.338 0 0 0 6.97 2.89 1.5 1.5 0 1 1-.87 2.871 41.22 41.22 0 0 1-7.516-3.117 1.5 1.5 0 0 1-.615-2.03Zm40.362 0c.392.73.117 1.639-.614 2.03a41.182 41.182 0 0 1-7.517 3.117 1.5 1.5 0 0 1-.87-2.871 38.333 38.333 0 0 0 6.971-2.89 1.499 1.499 0 0 1 2.03.614Zm-25.596 5.089a1.5 1.5 0 0 1 1.638-1.348 38.945 38.945 0 0 0 7.554 0 1.5 1.5 0 0 1 .29 2.986 42.052 42.052 0 0 1-8.134 0 1.5 1.5 0 0 1-1.348-1.638Zm97.348-80.968a41.957 41.957 0 0 1 8.134 0 1.5 1.5 0 0 1-.29 2.986 38.978 38.978 0 0 0-7.554 0 1.5 1.5 0 1 1-.29-2.986Zm14.247 2.58a1.5 1.5 0 0 1 1.87-1 41.21 41.21 0 0 1 7.517 3.117 1.5 1.5 0 1 1-1.416 2.645 38.25 38.25 0 0 0-6.971-2.89 1.5 1.5 0 0 1-1-1.871Zm-20.36 0a1.5 1.5 0 0 1-1 1.871 38.25 38.25 0 0 0-6.971 2.89 1.5 1.5 0 1 1-1.416-2.644 41.21 41.21 0 0 1 7.517-3.117 1.5 1.5 0 0 1 1.87 1Zm34.397 6.85a1.5 1.5 0 0 1 2.111-.208 41.782 41.782 0 0 1 5.753 5.753 1.501 1.501 0 0 1-2.318 1.904 38.775 38.775 0 0 0-5.339-5.339 1.5 1.5 0 0 1-.207-2.11Zm-48.434 0a1.5 1.5 0 0 1-.207 2.11 38.775 38.775 0 0 0-5.339 5.34 1.5 1.5 0 1 1-2.318-1.905 41.782 41.782 0 0 1 5.753-5.753 1.5 1.5 0 0 1 2.111.207Zm58.793 11.691a1.5 1.5 0 0 1 2.03.615 41.22 41.22 0 0 1 3.117 7.517 1.5 1.5 0 0 1-2.871.87 38.338 38.338 0 0 0-2.89-6.971 1.5 1.5 0 0 1 .614-2.03Zm-69.152 0a1.5 1.5 0 0 1 .614 2.031 38.338 38.338 0 0 0-2.89 6.97 1.5 1.5 0 1 1-2.871-.87 41.22 41.22 0 0 1 3.117-7.516 1.5 1.5 0 0 1 2.03-.615Zm-5.089 14.767a1.5 1.5 0 0 1 1.348 1.638 38.95 38.95 0 0 0 0 7.554 1.5 1.5 0 0 1-2.986.29 42.072 42.072 0 0 1 0-8.134 1.5 1.5 0 0 1 1.638-1.348Zm79.33 0a1.5 1.5 0 0 1 1.638 1.348 42.072 42.072 0 0 1 0 8.134 1.5 1.5 0 1 1-2.986-.29 38.95 38.95 0 0 0 0-7.554 1.5 1.5 0 0 1 1.348-1.638Zm-.943 15.595a1.5 1.5 0 0 1 1.001 1.87 41.182 41.182 0 0 1-3.117 7.517 1.499 1.499 0 1 1-2.644-1.416 38.333 38.333 0 0 0 2.89-6.971 1.5 1.5 0 0 1 1.87-1Zm-77.444 0a1.5 1.5 0 0 1 1.87 1 38.333 38.333 0 0 0 2.89 6.971 1.499 1.499 0 1 1-2.644 1.416 41.182 41.182 0 0 1-3.117-7.517 1.5 1.5 0 0 1 1.001-1.87Zm6.848 14.037a1.5 1.5 0 0 1 2.111.207 38.816 38.816 0 0 0 5.339 5.339 1.5 1.5 0 1 1-1.904 2.318 41.816 41.816 0 0 1-5.753-5.753 1.5 1.5 0 0 1 .207-2.111Zm63.748 0a1.5 1.5 0 0 1 .207 2.111 41.816 41.816 0 0 1-5.753 5.753 1.5 1.5 0 0 1-1.904-2.318 38.816 38.816 0 0 0 5.339-5.339 1.5 1.5 0 0 1 2.111-.207Zm-52.055 10.359a1.499 1.499 0 0 1 2.03-.614 38.333 38.333 0 0 0 6.971 2.89 1.5 1.5 0 0 1-.87 2.871 41.182 41.182 0 0 1-7.517-3.117 1.498 1.498 0 0 1-.614-2.03Zm40.362 0c.392.73.117 1.639-.614 2.03a41.182 41.182 0 0 1-7.517 3.117 1.5 1.5 0 0 1-.87-2.871 38.333 38.333 0 0 0 6.971-2.89 1.499 1.499 0 0 1 2.03.614Zm-25.596 5.089a1.5 1.5 0 0 1 1.638-1.348 38.945 38.945 0 0 0 7.554 0 1.5 1.5 0 0 1 .29 2.986 42.052 42.052 0 0 1-8.134 0 1.5 1.5 0 0 1-1.348-1.638Z" clip-rule="evenodd"/><path fill="#F6FDF5" fill-rule="evenodd" d="M113 100h5v-5h-5v5Zm-10 0h5v-5h-5v5Zm5-5h5v-5h-5v5Zm-10 0h5v-5h-5v5Zm15-5h5v-5h-5v5Zm-10 0h5v-5h-5v5Zm5-5h5v-5h-5v5Zm-10 0h5v-5h-5v5Zm-2.917-9.167c-.688 0-1.25.56-1.25 1.25v25.834c0 .69.562 1.25 1.25 1.25h25.834c.688 0 1.25-.56 1.25-1.25V77.083c0-.69-.562-1.25-1.25-1.25H95.083Zm25.834 32.5H95.083a5.423 5.423 0 0 1-5.416-5.416V77.083a5.423 5.423 0 0 1 5.416-5.416h25.834a5.423 5.423 0 0 1 5.416 5.416v25.834a5.423 5.423 0 0 1-5.416 5.416Z" clip-rule="evenodd"/><path fill="#F6FDF5" d="m204 85.258-3.661 8.241h7.323L204 85.258Z"/><path fill="#F6FDF5" fill-rule="evenodd" d="M217.333 71.667h-26.666a5 5 0 0 0-5 5v26.666a5 5 0 0 0 5 5h26.666a5 5 0 0 0 5-5V76.667a5 5 0 0 0-5-5Zm-11.196 6.887a2.338 2.338 0 0 0-4.273 0l-9.329 21a2.328 2.328 0 0 0 1.19 3.077 2.336 2.336 0 0 0 3.084-1.185l1.456-3.278h11.47l1.457 3.278a2.34 2.34 0 0 0 3.085 1.185 2.327 2.327 0 0 0 1.188-3.077l-9.328-21Z" clip-rule="evenodd"/></svg>