<svg width="312" height="180" viewBox="0 0 312 180" fill="none" xmlns="http://www.w3.org/2000/svg">
<rect width="312" height="180" fill="#E6FAF5"/>
<rect x="56.8204" y="40.8204" width="153.359" height="26.3592" rx="8.20388" fill="white"/>
<rect x="63.6069" y="50.7061" width="111.258" height="6.58824" rx="3.29412" fill="#A1E5E1"/>
<rect x="56.8204" y="40.8204" width="153.359" height="26.3592" rx="8.20388" stroke="#005C62" stroke-width="1.64078"/>
<rect x="56.8204" y="40.8204" width="153.359" height="26.3592" rx="8.20388" stroke="black" stroke-opacity="0.2" stroke-width="1.64078"/>
<rect x="56.8203" y="28" width="55.7864" height="6.56311" rx="3.28155" fill="#009990"/>
<rect x="56.8204" y="92.8204" width="153.359" height="26.3592" rx="8.20388" fill="white"/>
<rect x="63.6069" y="102.706" width="111.258" height="6.58824" rx="3.29412" fill="#A1E5E1"/>
<rect x="56.8204" y="92.8204" width="153.359" height="26.3592" rx="8.20388" stroke="#005C62" stroke-width="1.64078"/>
<rect x="56.8204" y="92.8204" width="153.359" height="26.3592" rx="8.20388" stroke="black" stroke-opacity="0.2" stroke-width="1.64078"/>
<rect x="57" y="80" width="87" height="7" rx="3.5" fill="#009990"/>
<rect x="219.82" y="41.1261" width="35.2767" height="26.2524" rx="8.20388" fill="white"/>
<rect x="219.82" y="41.1261" width="35.2767" height="26.2524" rx="8.20388" stroke="#005C62" stroke-width="1.64078"/>
<rect x="219.82" y="41.1261" width="35.2767" height="26.2524" rx="8.20388" stroke="black" stroke-opacity="0.2" stroke-width="1.64078"/>
<rect x="219.82" y="28" width="18.8689" height="6.56311" rx="3.28155" fill="#009990"/>
<path d="M56 139.561C56 135.934 58.9402 132.994 62.5672 132.994H69.1343C72.7613 132.994 75.7015 135.934 75.7015 139.561V146.129C75.7015 149.756 72.7613 152.696 69.1343 152.696H62.5672C58.9402 152.696 56 149.756 56 146.129V139.561Z" fill="#005C62"/>
<path d="M56 139.561C56 135.934 58.9402 132.994 62.5672 132.994H69.1343C72.7613 132.994 75.7015 135.934 75.7015 139.561V146.129C75.7015 149.756 72.7613 152.696 69.1343 152.696H62.5672C58.9402 152.696 56 149.756 56 146.129V139.561Z" fill="black" fill-opacity="0.2"/>
<path fill-rule="evenodd" clip-rule="evenodd" d="M64.6194 146.949L61.2258 143.562C60.8252 143.163 60.8252 142.514 61.2258 142.114C61.6264 141.714 62.2766 141.714 62.6772 142.114L64.6194 144.052L69.0243 139.656C69.4249 139.256 70.0751 139.256 70.4757 139.656C70.8763 140.056 70.8763 140.704 70.4757 141.104L64.6194 146.949Z" fill="white"/>
<rect x="83.9106" y="139.561" width="39.4031" height="6.56718" rx="3.28359" fill="#009990"/>
</svg>
