<svg xmlns="http://www.w3.org/2000/svg" width="312" height="180" fill="none"><path fill="#F6FDF5" fill-rule="evenodd" d="M97 88a3 3 0 1 1 0-6 3 3 0 0 1 0 6Zm.898 11.9A13.894 13.894 0 0 1 88 104a13.92 13.92 0 0 1-9.896-4.096 1.998 1.998 0 0 1 0-2.828 1.998 1.998 0 0 1 2.828-.002A9.937 9.937 0 0 0 88 100a9.928 9.928 0 0 0 7.07-2.928 2 2 0 1 1 2.828 2.828ZM76 85a3 3 0 1 1 6 0 3 3 0 0 1-6 0Zm12-19c-13.254 0-24 10.746-24 24s10.746 24 24 24 24-10.746 24-24-10.746-24-24-24Zm80 28c0-4.23-2.194-7.94-5.5-10.078V70.746c2.024-.64 3.5-2.51 3.5-4.746h-20c0 2.236 1.476 4.106 3.5 4.746v13.176C146.194 86.06 144 89.77 144 94h10v15.112a6.97 6.97 0 0 0 2 4.888 6.97 6.97 0 0 0 2-4.888V94h10Zm32-4c0 10.246 6.422 18.994 15.46 22.436-.22-1.874-.454-4.964.05-7.132.434-1.864 2.802-11.876 2.802-11.876s-.714-1.43-.714-3.548c0-3.32 1.924-5.8 4.322-5.8 2.04 0 3.024 1.53 3.024 3.364 0 2.05-1.306 5.114-1.98 7.956-.562 2.378 1.194 4.318 3.538 4.318 4.246 0 7.512-4.478 7.512-10.942 0-5.722-4.112-9.72-9.982-9.72-6.796 0-10.786 5.098-10.786 10.368 0 2.054.79 4.254 1.778 5.452.194.238.224.444.166.686-.182.756-.586 2.378-.664 2.71-.106.436-.346.53-.8.318-2.984-1.388-4.848-5.75-4.848-9.254 0-7.538 5.474-14.458 15.784-14.458 8.288 0 14.73 5.906 14.73 13.798 0 8.234-5.19 14.862-12.398 14.862-2.422 0-4.696-1.26-5.476-2.746 0 0-1.198 4.564-1.488 5.68-.564 2.168-2.128 4.912-3.098 6.47A23.99 23.99 0 0 0 224 114c13.254 0 24-10.746 24-24s-10.746-24-24-24-24 10.746-24 24Z" clip-rule="evenodd"/></svg>