<svg width="312" height="180" viewBox="0 0 312 180" fill="none" xmlns="http://www.w3.org/2000/svg">
<rect width="312" height="180" fill="#E6FAF5"/>
<path d="M135 30.75H179.5C181.295 30.75 182.75 32.2051 182.75 34V36.5C182.75 39.1234 180.623 41.25 178 41.25H136.5C133.877 41.25 131.75 39.1234 131.75 36.5V34C131.75 32.2051 133.205 30.75 135 30.75Z" fill="#A1E5E1"/>
<path d="M135 30.75H179.5C181.295 30.75 182.75 32.2051 182.75 34V36.5C182.75 39.1234 180.623 41.25 178 41.25H136.5C133.877 41.25 131.75 39.1234 131.75 36.5V34C131.75 32.2051 133.205 30.75 135 30.75Z" stroke="#005C62" stroke-width="1.5"/>
<path d="M135 30.75H179.5C181.295 30.75 182.75 32.2051 182.75 34V36.5C182.75 39.1234 180.623 41.25 178 41.25H136.5C133.877 41.25 131.75 39.1234 131.75 36.5V34C131.75 32.2051 133.205 30.75 135 30.75Z" stroke="black" stroke-opacity="0.2" stroke-width="1.5"/>
<path d="M158 41V56" stroke="#005C62" stroke-width="1.5" stroke-linejoin="round"/>
<path d="M158 41V56" stroke="black" stroke-opacity="0.2" stroke-width="1.5" stroke-linejoin="round"/>
<path d="M202.25 102C202.25 127.819 181.319 148.75 155.5 148.75C129.681 148.75 108.75 127.819 108.75 102C108.75 76.1807 129.681 55.25 155.5 55.25C181.319 55.25 202.25 76.1807 202.25 102Z" fill="#111111"/>
<path d="M202.25 102C202.25 127.819 181.319 148.75 155.5 148.75C129.681 148.75 108.75 127.819 108.75 102C108.75 76.1807 129.681 55.25 155.5 55.25C181.319 55.25 202.25 76.1807 202.25 102Z" stroke="#005C62" stroke-width="1.5"/>
<path d="M202.25 102C202.25 127.819 181.319 148.75 155.5 148.75C129.681 148.75 108.75 127.819 108.75 102C108.75 76.1807 129.681 55.25 155.5 55.25C181.319 55.25 202.25 76.1807 202.25 102Z" stroke="black" stroke-opacity="0.2" stroke-width="1.5"/>
<path d="M204.25 102.5C204.25 128.319 183.319 149.25 157.5 149.25C131.681 149.25 110.75 128.319 110.75 102.5C110.75 76.6807 131.681 55.75 157.5 55.75C183.319 55.75 204.25 76.6807 204.25 102.5Z" fill="#A1E5E1"/>
<path d="M204.25 102.5C204.25 128.319 183.319 149.25 157.5 149.25C131.681 149.25 110.75 128.319 110.75 102.5C110.75 76.6807 131.681 55.75 157.5 55.75C183.319 55.75 204.25 76.6807 204.25 102.5Z" stroke="#005C62" stroke-width="1.5"/>
<path d="M204.25 102.5C204.25 128.319 183.319 149.25 157.5 149.25C131.681 149.25 110.75 128.319 110.75 102.5C110.75 76.6807 131.681 55.75 157.5 55.75C183.319 55.75 204.25 76.6807 204.25 102.5Z" stroke="black" stroke-opacity="0.2" stroke-width="1.5"/>
<path fill-rule="evenodd" clip-rule="evenodd" d="M113.25 41C113.25 40.5858 112.914 40.25 112.5 40.25C112.086 40.25 111.75 40.5858 111.75 41V52C111.75 52.4142 112.086 52.75 112.5 52.75C112.914 52.75 113.25 52.4142 113.25 52V41ZM158.25 150.008L158.12 137.748C155.757 137.731 153.435 137.636 151.168 137.475C148.494 137.285 145.895 137.003 143.394 136.649C144.277 140.362 145.341 144.074 146.612 147.755L145.194 148.245C143.84 144.322 142.717 140.366 141.798 136.412C136.586 135.6 131.843 134.489 127.803 133.279C128.757 135.761 129.867 138.223 131.146 140.65L129.819 141.35C128.321 138.508 127.053 135.622 125.989 132.714C123.095 131.778 120.624 130.804 118.678 129.878L119.322 128.523C120.962 129.303 122.996 130.123 125.36 130.926C124.01 126.916 123.037 122.873 122.378 118.858C117.951 117.801 114.473 116.676 112.201 115.688L112.799 114.312C114.883 115.218 118.067 116.26 122.131 117.255C121.447 112.503 121.192 107.801 121.261 103.25H110.5V101.75H121.295C121.357 99.7454 121.48 97.7726 121.655 95.8403C121.913 92.9981 122.284 90.2413 122.739 87.5975C118.384 88.6373 114.986 89.7371 112.799 90.6878L112.201 89.3122C114.583 88.2765 118.291 87.0896 123.029 85.9882C123.865 81.543 124.93 77.4455 126.079 73.8337C123.407 74.7123 121.126 75.6188 119.322 76.4768L118.678 75.1222C120.773 74.1254 123.475 73.0723 126.659 72.0718C127.873 68.5057 129.151 65.4842 130.331 63.1603L131.669 63.8397C130.634 65.877 129.516 68.4791 128.434 71.5346C132.422 70.3718 137.058 69.3113 142.132 68.5363C143.159 63.98 144.268 60.1507 145.293 57.25L146.707 57.75C145.741 60.4842 144.698 64.0609 143.722 68.3048C146.122 67.973 148.611 67.7069 151.168 67.5251C153.196 67.3808 155.268 67.2894 157.374 67.2602L157.25 55.5079L158.75 55.4921L158.874 67.25C162.733 67.2513 166.694 67.4656 170.695 67.9493C169.743 63.8609 168.732 60.4075 167.793 57.75L169.207 57.25C170.204 60.0695 171.279 63.7661 172.282 68.1551C176.828 68.7851 181.413 69.7709 185.945 71.1945C184.901 68.2858 183.828 65.801 182.831 63.8397L184.169 63.1603C185.317 65.4213 186.558 68.3425 187.742 71.7832C190.64 72.7722 193.511 73.946 196.33 75.3264L195.67 76.6736C193.262 75.4941 190.813 74.4681 188.34 73.5816C189.522 77.2608 190.619 81.4538 191.475 86.0119C195.22 86.8809 198.982 87.9221 202.734 89.1572L202.266 90.582C198.767 89.4306 195.259 88.4494 191.765 87.6205C192.218 90.2573 192.587 93.0063 192.845 95.8403C193.02 97.7726 193.143 99.7454 193.205 101.75H204V103.25H193.239C193.308 107.794 193.054 112.489 192.372 117.234C195.666 116.436 198.97 115.503 202.266 114.418L202.734 115.843C199.199 117.006 195.655 117.998 192.126 118.835C191.454 122.934 190.455 127.062 189.062 131.155C191.29 130.331 193.496 129.391 195.67 128.326L196.33 129.674C193.728 130.948 191.083 132.046 188.412 132.985C187.368 135.801 186.132 138.596 184.681 141.35L183.354 140.65C184.577 138.329 185.645 135.977 186.571 133.606C181.945 135.102 177.259 136.137 172.612 136.799C171.709 140.624 170.616 144.449 169.306 148.245L167.888 147.755C169.117 144.193 170.154 140.603 171.019 137.011C167.166 137.491 163.347 137.719 159.62 137.747L159.75 149.992L158.25 150.008ZM171.384 135.452C167.406 135.972 163.458 136.219 159.605 136.247L159.462 122.738C164.059 122.683 168.83 122.431 173.709 121.929C173.174 126.399 172.413 130.924 171.384 135.452ZM187.247 131.801C182.531 133.409 177.736 134.521 172.971 135.23C173.975 130.719 174.717 126.213 175.24 121.764C180.257 121.196 185.382 120.361 190.543 119.201C189.821 123.401 188.747 127.624 187.247 131.801ZM151.275 135.979C153.504 136.137 155.785 136.231 158.104 136.247L157.962 122.749C154.144 122.76 150.454 122.637 146.929 122.411C144.821 122.276 142.771 122.104 140.787 121.901C141.309 126.259 142.044 130.668 143.033 135.082C145.672 135.469 148.43 135.776 151.275 135.979ZM139.257 121.738C139.765 126.067 140.48 130.448 141.442 134.837C136.05 133.968 131.196 132.779 127.149 131.51C125.706 127.436 124.666 123.319 123.961 119.224C128.32 120.199 133.49 121.094 139.257 121.738ZM186.56 72.9688C181.953 71.4466 177.275 70.393 172.629 69.7194C173.498 73.7331 174.296 78.2693 174.921 83.2007C179.825 83.7451 184.833 84.5443 189.879 85.6517C188.967 80.9535 187.799 76.668 186.56 72.9688ZM171.048 69.5044C166.937 68.9828 162.861 68.7519 158.89 68.75L159.033 82.2572C163.661 82.3007 168.469 82.543 173.388 83.0385C172.748 78.0689 171.931 73.5124 171.048 69.5044ZM157.39 68.7601C155.317 68.789 153.275 68.879 151.275 69.0213C148.551 69.215 145.909 69.5052 143.372 69.8689C142.518 73.7954 141.73 78.2359 141.108 83.0662C142.992 82.8778 144.935 82.7169 146.929 82.5891C150.322 82.3715 153.868 82.2492 157.533 82.25L157.39 68.7601ZM141.787 70.1078C136.561 70.9338 131.83 72.0618 127.837 73.2776C126.638 76.8999 125.512 81.0699 124.625 85.6291C128.924 84.6933 133.972 83.8412 139.576 83.2268C140.181 78.4438 140.95 74.0321 141.787 70.1078ZM173.884 120.403C168.939 120.922 164.103 121.182 159.446 121.238L159.255 103.25H174.748C174.778 108.783 174.522 114.54 173.884 120.403ZM190.801 117.604C185.614 118.794 180.46 119.651 175.411 120.234C176.029 114.43 176.277 108.731 176.248 103.25H191.739C191.811 107.918 191.537 112.739 190.801 117.604ZM147.025 120.914C150.516 121.138 154.169 121.26 157.946 121.249L157.755 103.25H139.752C139.722 108.775 139.978 114.523 140.613 120.376C142.678 120.59 144.819 120.773 147.025 120.914ZM138.252 103.25C138.223 108.723 138.471 114.414 139.087 120.209C133.237 119.543 128.033 118.621 123.702 117.628C122.964 112.755 122.689 107.926 122.761 103.25H138.252ZM190.178 87.2544C185.097 86.1144 180.051 85.2917 175.108 84.7311C175.729 90.0272 176.145 95.7502 176.233 101.75H191.704C191.643 99.7931 191.522 97.8656 191.351 95.9759C191.077 92.9584 190.674 90.0399 190.178 87.2544ZM173.578 84.5656C168.599 84.0527 163.733 83.8023 159.049 83.7574L159.239 101.75H174.732C174.643 95.6827 174.215 89.9014 173.578 84.5656ZM157.549 83.75C153.913 83.7489 150.394 83.87 147.025 84.086C144.928 84.2205 142.889 84.3917 140.919 84.5929C140.284 89.9212 139.857 95.6931 139.768 101.75H157.739L157.549 83.75ZM139.389 84.7566C133.696 85.3935 128.606 86.2752 124.326 87.231C123.828 90.0235 123.424 92.95 123.149 95.9759C122.978 97.8656 122.857 99.7931 122.796 101.75H138.267C138.355 95.7598 138.77 90.0455 139.389 84.7566Z" fill="#005C62"/>
<path fill-rule="evenodd" clip-rule="evenodd" d="M113.25 41C113.25 40.5858 112.914 40.25 112.5 40.25C112.086 40.25 111.75 40.5858 111.75 41V52C111.75 52.4142 112.086 52.75 112.5 52.75C112.914 52.75 113.25 52.4142 113.25 52V41ZM158.25 150.008L158.12 137.748C155.757 137.731 153.435 137.636 151.168 137.475C148.494 137.285 145.895 137.003 143.394 136.649C144.277 140.362 145.341 144.074 146.612 147.755L145.194 148.245C143.84 144.322 142.717 140.366 141.798 136.412C136.586 135.6 131.843 134.489 127.803 133.279C128.757 135.761 129.867 138.223 131.146 140.65L129.819 141.35C128.321 138.508 127.053 135.622 125.989 132.714C123.095 131.778 120.624 130.804 118.678 129.878L119.322 128.523C120.962 129.303 122.996 130.123 125.36 130.926C124.01 126.916 123.037 122.873 122.378 118.858C117.951 117.801 114.473 116.676 112.201 115.688L112.799 114.312C114.883 115.218 118.067 116.26 122.131 117.255C121.447 112.503 121.192 107.801 121.261 103.25H110.5V101.75H121.295C121.357 99.7454 121.48 97.7726 121.655 95.8403C121.913 92.9981 122.284 90.2413 122.739 87.5975C118.384 88.6373 114.986 89.7371 112.799 90.6878L112.201 89.3122C114.583 88.2765 118.291 87.0896 123.029 85.9882C123.865 81.543 124.93 77.4455 126.079 73.8337C123.407 74.7123 121.126 75.6188 119.322 76.4768L118.678 75.1222C120.773 74.1254 123.475 73.0723 126.659 72.0718C127.873 68.5057 129.151 65.4842 130.331 63.1603L131.669 63.8397C130.634 65.877 129.516 68.4791 128.434 71.5346C132.422 70.3718 137.058 69.3113 142.132 68.5363C143.159 63.98 144.268 60.1507 145.293 57.25L146.707 57.75C145.741 60.4842 144.698 64.0609 143.722 68.3048C146.122 67.973 148.611 67.7069 151.168 67.5251C153.196 67.3808 155.268 67.2894 157.374 67.2602L157.25 55.5079L158.75 55.4921L158.874 67.25C162.733 67.2513 166.694 67.4656 170.695 67.9493C169.743 63.8609 168.732 60.4075 167.793 57.75L169.207 57.25C170.204 60.0695 171.279 63.7661 172.282 68.1551C176.828 68.7851 181.413 69.7709 185.945 71.1945C184.901 68.2858 183.828 65.801 182.831 63.8397L184.169 63.1603C185.317 65.4213 186.558 68.3425 187.742 71.7832C190.64 72.7722 193.511 73.946 196.33 75.3264L195.67 76.6736C193.262 75.4941 190.813 74.4681 188.34 73.5816C189.522 77.2608 190.619 81.4538 191.475 86.0119C195.22 86.8809 198.982 87.9221 202.734 89.1572L202.266 90.582C198.767 89.4306 195.259 88.4494 191.765 87.6205C192.218 90.2573 192.587 93.0063 192.845 95.8403C193.02 97.7726 193.143 99.7454 193.205 101.75H204V103.25H193.239C193.308 107.794 193.054 112.489 192.372 117.234C195.666 116.436 198.97 115.503 202.266 114.418L202.734 115.843C199.199 117.006 195.655 117.998 192.126 118.835C191.454 122.934 190.455 127.062 189.062 131.155C191.29 130.331 193.496 129.391 195.67 128.326L196.33 129.674C193.728 130.948 191.083 132.046 188.412 132.985C187.368 135.801 186.132 138.596 184.681 141.35L183.354 140.65C184.577 138.329 185.645 135.977 186.571 133.606C181.945 135.102 177.259 136.137 172.612 136.799C171.709 140.624 170.616 144.449 169.306 148.245L167.888 147.755C169.117 144.193 170.154 140.603 171.019 137.011C167.166 137.491 163.347 137.719 159.62 137.747L159.75 149.992L158.25 150.008ZM171.384 135.452C167.406 135.972 163.458 136.219 159.605 136.247L159.462 122.738C164.059 122.683 168.83 122.431 173.709 121.929C173.174 126.399 172.413 130.924 171.384 135.452ZM187.247 131.801C182.531 133.409 177.736 134.521 172.971 135.23C173.975 130.719 174.717 126.213 175.24 121.764C180.257 121.196 185.382 120.361 190.543 119.201C189.821 123.401 188.747 127.624 187.247 131.801ZM151.275 135.979C153.504 136.137 155.785 136.231 158.104 136.247L157.962 122.749C154.144 122.76 150.454 122.637 146.929 122.411C144.821 122.276 142.771 122.104 140.787 121.901C141.309 126.259 142.044 130.668 143.033 135.082C145.672 135.469 148.43 135.776 151.275 135.979ZM139.257 121.738C139.765 126.067 140.48 130.448 141.442 134.837C136.05 133.968 131.196 132.779 127.149 131.51C125.706 127.436 124.666 123.319 123.961 119.224C128.32 120.199 133.49 121.094 139.257 121.738ZM186.56 72.9688C181.953 71.4466 177.275 70.393 172.629 69.7194C173.498 73.7331 174.296 78.2693 174.921 83.2007C179.825 83.7451 184.833 84.5443 189.879 85.6517C188.967 80.9535 187.799 76.668 186.56 72.9688ZM171.048 69.5044C166.937 68.9828 162.861 68.7519 158.89 68.75L159.033 82.2572C163.661 82.3007 168.469 82.543 173.388 83.0385C172.748 78.0689 171.931 73.5124 171.048 69.5044ZM157.39 68.7601C155.317 68.789 153.275 68.879 151.275 69.0213C148.551 69.215 145.909 69.5052 143.372 69.8689C142.518 73.7954 141.73 78.2359 141.108 83.0662C142.992 82.8778 144.935 82.7169 146.929 82.5891C150.322 82.3715 153.868 82.2492 157.533 82.25L157.39 68.7601ZM141.787 70.1078C136.561 70.9338 131.83 72.0618 127.837 73.2776C126.638 76.8999 125.512 81.0699 124.625 85.6291C128.924 84.6933 133.972 83.8412 139.576 83.2268C140.181 78.4438 140.95 74.0321 141.787 70.1078ZM173.884 120.403C168.939 120.922 164.103 121.182 159.446 121.238L159.255 103.25H174.748C174.778 108.783 174.522 114.54 173.884 120.403ZM190.801 117.604C185.614 118.794 180.46 119.651 175.411 120.234C176.029 114.43 176.277 108.731 176.248 103.25H191.739C191.811 107.918 191.537 112.739 190.801 117.604ZM147.025 120.914C150.516 121.138 154.169 121.26 157.946 121.249L157.755 103.25H139.752C139.722 108.775 139.978 114.523 140.613 120.376C142.678 120.59 144.819 120.773 147.025 120.914ZM138.252 103.25C138.223 108.723 138.471 114.414 139.087 120.209C133.237 119.543 128.033 118.621 123.702 117.628C122.964 112.755 122.689 107.926 122.761 103.25H138.252ZM190.178 87.2544C185.097 86.1144 180.051 85.2917 175.108 84.7311C175.729 90.0272 176.145 95.7502 176.233 101.75H191.704C191.643 99.7931 191.522 97.8656 191.351 95.9759C191.077 92.9584 190.674 90.0399 190.178 87.2544ZM173.578 84.5656C168.599 84.0527 163.733 83.8023 159.049 83.7574L159.239 101.75H174.732C174.643 95.6827 174.215 89.9014 173.578 84.5656ZM157.549 83.75C153.913 83.7489 150.394 83.87 147.025 84.086C144.928 84.2205 142.889 84.3917 140.919 84.5929C140.284 89.9212 139.857 95.6931 139.768 101.75H157.739L157.549 83.75ZM139.389 84.7566C133.696 85.3935 128.606 86.2752 124.326 87.231C123.828 90.0235 123.424 92.95 123.149 95.9759C122.978 97.8656 122.857 99.7931 122.796 101.75H138.267C138.355 95.7598 138.77 90.0455 139.389 84.7566Z" fill="black" fill-opacity="0.2"/>
<path fill-rule="evenodd" clip-rule="evenodd" d="M207.236 43.9631C207.215 43.5493 206.863 43.2305 206.449 43.2509C206.036 43.2713 205.717 43.6233 205.738 44.037L205.962 48.5463L200.963 48.7929C200.549 48.8133 200.23 49.1652 200.251 49.5789C200.271 49.9926 200.624 50.3114 201.037 50.291L206.036 50.0444L206.284 55.0234C206.304 55.4371 206.656 55.7559 207.07 55.7355C207.484 55.7151 207.802 55.3632 207.782 54.9495L207.534 49.9705L212.024 49.7491C212.438 49.7287 212.756 49.3768 212.736 48.9631C212.715 48.5493 212.363 48.2305 211.949 48.2509L207.46 48.4724L207.236 43.9631ZM105.126 65.8343C105.494 66.0239 105.638 66.4757 105.447 66.8434L103.249 71.0811L107.625 73.3343C107.993 73.5239 108.137 73.9757 107.946 74.3434C107.755 74.711 107.302 74.8554 106.934 74.6657L102.558 72.4125L100.382 76.6076C100.191 76.9753 99.7379 77.1196 99.3697 76.93C99.0014 76.7404 98.8575 76.2886 99.0483 75.9209L101.225 71.7258L97.1542 69.6298C96.786 69.4401 96.6421 68.9884 96.8328 68.6207C97.0236 68.253 97.4767 68.1087 97.845 68.2983L101.915 70.3943L104.114 66.1566C104.305 65.789 104.758 65.6446 105.126 65.8343ZM214.345 84.3343C214.713 84.5239 214.857 84.9757 214.667 85.3434L212.568 89.3891L216.345 91.3343C216.713 91.5239 216.857 91.9757 216.667 92.3434C216.476 92.711 216.023 92.8554 215.654 92.6657L211.877 90.7206L209.601 95.1076C209.41 95.4753 208.957 95.6196 208.589 95.43C208.221 95.2404 208.077 94.7886 208.268 94.4209L210.543 90.0338L205.875 87.6298C205.507 87.4401 205.363 86.9884 205.554 86.6207C205.744 86.253 206.197 86.1087 206.566 86.2983L211.234 88.7023L213.333 84.6566C213.524 84.289 213.977 84.1446 214.345 84.3343ZM118.75 46C118.75 46.4142 118.414 46.75 118 46.75L107 46.75C106.586 46.75 106.25 46.4142 106.25 46C106.25 45.5858 106.586 45.25 107 45.25L118 45.25C118.414 45.25 118.75 45.5858 118.75 46Z" fill="#005C62"/>
<path fill-rule="evenodd" clip-rule="evenodd" d="M207.236 43.9631C207.215 43.5493 206.863 43.2305 206.449 43.2509C206.036 43.2713 205.717 43.6233 205.738 44.037L205.962 48.5463L200.963 48.7929C200.549 48.8133 200.23 49.1652 200.251 49.5789C200.271 49.9926 200.624 50.3114 201.037 50.291L206.036 50.0444L206.284 55.0234C206.304 55.4371 206.656 55.7559 207.07 55.7355C207.484 55.7151 207.802 55.3632 207.782 54.9495L207.534 49.9705L212.024 49.7491C212.438 49.7287 212.756 49.3768 212.736 48.9631C212.715 48.5493 212.363 48.2305 211.949 48.2509L207.46 48.4724L207.236 43.9631ZM105.126 65.8343C105.494 66.0239 105.638 66.4757 105.447 66.8434L103.249 71.0811L107.625 73.3343C107.993 73.5239 108.137 73.9757 107.946 74.3434C107.755 74.711 107.302 74.8554 106.934 74.6657L102.558 72.4125L100.382 76.6076C100.191 76.9753 99.7379 77.1196 99.3697 76.93C99.0014 76.7404 98.8575 76.2886 99.0483 75.9209L101.225 71.7258L97.1542 69.6298C96.786 69.4401 96.6421 68.9884 96.8328 68.6207C97.0236 68.253 97.4767 68.1087 97.845 68.2983L101.915 70.3943L104.114 66.1566C104.305 65.789 104.758 65.6446 105.126 65.8343ZM214.345 84.3343C214.713 84.5239 214.857 84.9757 214.667 85.3434L212.568 89.3891L216.345 91.3343C216.713 91.5239 216.857 91.9757 216.667 92.3434C216.476 92.711 216.023 92.8554 215.654 92.6657L211.877 90.7206L209.601 95.1076C209.41 95.4753 208.957 95.6196 208.589 95.43C208.221 95.2404 208.077 94.7886 208.268 94.4209L210.543 90.0338L205.875 87.6298C205.507 87.4401 205.363 86.9884 205.554 86.6207C205.744 86.253 206.197 86.1087 206.566 86.2983L211.234 88.7023L213.333 84.6566C213.524 84.289 213.977 84.1446 214.345 84.3343ZM118.75 46C118.75 46.4142 118.414 46.75 118 46.75L107 46.75C106.586 46.75 106.25 46.4142 106.25 46C106.25 45.5858 106.586 45.25 107 45.25L118 45.25C118.414 45.25 118.75 45.5858 118.75 46Z" fill="black" fill-opacity="0.2"/>
<mask id="path-7-inside-1_1204_2129" fill="white">
<path fill-rule="evenodd" clip-rule="evenodd" d="M184.75 51C185.993 51 187 49.9926 187 48.75C187 47.5074 185.993 46.5 184.75 46.5C183.507 46.5 182.5 47.5074 182.5 48.75C182.5 49.9926 183.507 51 184.75 51ZM99.25 100.5C100.493 100.5 101.5 99.4926 101.5 98.25C101.5 97.0074 100.493 96 99.25 96C98.0074 96 97 97.0074 97 98.25C97 99.4926 98.0074 100.5 99.25 100.5ZM207 70.25C207 71.4926 205.993 72.5 204.75 72.5C203.507 72.5 202.5 71.4926 202.5 70.25C202.5 69.0074 203.507 68 204.75 68C205.993 68 207 69.0074 207 70.25ZM127.25 55.5C128.493 55.5 129.5 54.4926 129.5 53.25C129.5 52.0074 128.493 51 127.25 51C126.007 51 125 52.0074 125 53.25C125 54.4926 126.007 55.5 127.25 55.5Z"/>
</mask>
<path fill-rule="evenodd" clip-rule="evenodd" d="M184.75 51C185.993 51 187 49.9926 187 48.75C187 47.5074 185.993 46.5 184.75 46.5C183.507 46.5 182.5 47.5074 182.5 48.75C182.5 49.9926 183.507 51 184.75 51ZM99.25 100.5C100.493 100.5 101.5 99.4926 101.5 98.25C101.5 97.0074 100.493 96 99.25 96C98.0074 96 97 97.0074 97 98.25C97 99.4926 98.0074 100.5 99.25 100.5ZM207 70.25C207 71.4926 205.993 72.5 204.75 72.5C203.507 72.5 202.5 71.4926 202.5 70.25C202.5 69.0074 203.507 68 204.75 68C205.993 68 207 69.0074 207 70.25ZM127.25 55.5C128.493 55.5 129.5 54.4926 129.5 53.25C129.5 52.0074 128.493 51 127.25 51C126.007 51 125 52.0074 125 53.25C125 54.4926 126.007 55.5 127.25 55.5Z" fill="#A1E5E1"/>
<path d="M185.5 48.75C185.5 49.1642 185.164 49.5 184.75 49.5V52.5C186.821 52.5 188.5 50.8211 188.5 48.75H185.5ZM184.75 48C185.164 48 185.5 48.3358 185.5 48.75H188.5C188.5 46.6789 186.821 45 184.75 45V48ZM184 48.75C184 48.3358 184.336 48 184.75 48V45C182.679 45 181 46.6789 181 48.75H184ZM184.75 49.5C184.336 49.5 184 49.1642 184 48.75H181C181 50.8211 182.679 52.5 184.75 52.5V49.5ZM100 98.25C100 98.6642 99.6642 99 99.25 99V102C101.321 102 103 100.321 103 98.25H100ZM99.25 97.5C99.6642 97.5 100 97.8358 100 98.25H103C103 96.1789 101.321 94.5 99.25 94.5V97.5ZM98.5 98.25C98.5 97.8358 98.8358 97.5 99.25 97.5V94.5C97.1789 94.5 95.5 96.1789 95.5 98.25H98.5ZM99.25 99C98.8358 99 98.5 98.6642 98.5 98.25H95.5C95.5 100.321 97.1789 102 99.25 102V99ZM204.75 74C206.821 74 208.5 72.3211 208.5 70.25H205.5C205.5 70.6642 205.164 71 204.75 71V74ZM201 70.25C201 72.3211 202.679 74 204.75 74V71C204.336 71 204 70.6642 204 70.25H201ZM204.75 66.5C202.679 66.5 201 68.1789 201 70.25H204C204 69.8358 204.336 69.5 204.75 69.5V66.5ZM208.5 70.25C208.5 68.1789 206.821 66.5 204.75 66.5V69.5C205.164 69.5 205.5 69.8358 205.5 70.25H208.5ZM128 53.25C128 53.6642 127.664 54 127.25 54V57C129.321 57 131 55.3211 131 53.25H128ZM127.25 52.5C127.664 52.5 128 52.8358 128 53.25H131C131 51.1789 129.321 49.5 127.25 49.5V52.5ZM126.5 53.25C126.5 52.8358 126.836 52.5 127.25 52.5V49.5C125.179 49.5 123.5 51.1789 123.5 53.25H126.5ZM127.25 54C126.836 54 126.5 53.6642 126.5 53.25H123.5C123.5 55.3211 125.179 57 127.25 57V54Z" fill="#005C62" mask="url(#path-7-inside-1_1204_2129)"/>
<path d="M185.5 48.75C185.5 49.1642 185.164 49.5 184.75 49.5V52.5C186.821 52.5 188.5 50.8211 188.5 48.75H185.5ZM184.75 48C185.164 48 185.5 48.3358 185.5 48.75H188.5C188.5 46.6789 186.821 45 184.75 45V48ZM184 48.75C184 48.3358 184.336 48 184.75 48V45C182.679 45 181 46.6789 181 48.75H184ZM184.75 49.5C184.336 49.5 184 49.1642 184 48.75H181C181 50.8211 182.679 52.5 184.75 52.5V49.5ZM100 98.25C100 98.6642 99.6642 99 99.25 99V102C101.321 102 103 100.321 103 98.25H100ZM99.25 97.5C99.6642 97.5 100 97.8358 100 98.25H103C103 96.1789 101.321 94.5 99.25 94.5V97.5ZM98.5 98.25C98.5 97.8358 98.8358 97.5 99.25 97.5V94.5C97.1789 94.5 95.5 96.1789 95.5 98.25H98.5ZM99.25 99C98.8358 99 98.5 98.6642 98.5 98.25H95.5C95.5 100.321 97.1789 102 99.25 102V99ZM204.75 74C206.821 74 208.5 72.3211 208.5 70.25H205.5C205.5 70.6642 205.164 71 204.75 71V74ZM201 70.25C201 72.3211 202.679 74 204.75 74V71C204.336 71 204 70.6642 204 70.25H201ZM204.75 66.5C202.679 66.5 201 68.1789 201 70.25H204C204 69.8358 204.336 69.5 204.75 69.5V66.5ZM208.5 70.25C208.5 68.1789 206.821 66.5 204.75 66.5V69.5C205.164 69.5 205.5 69.8358 205.5 70.25H208.5ZM128 53.25C128 53.6642 127.664 54 127.25 54V57C129.321 57 131 55.3211 131 53.25H128ZM127.25 52.5C127.664 52.5 128 52.8358 128 53.25H131C131 51.1789 129.321 49.5 127.25 49.5V52.5ZM126.5 53.25C126.5 52.8358 126.836 52.5 127.25 52.5V49.5C125.179 49.5 123.5 51.1789 123.5 53.25H126.5ZM127.25 54C126.836 54 126.5 53.6642 126.5 53.25H123.5C123.5 55.3211 125.179 57 127.25 57V54Z" fill="black" fill-opacity="0.2" mask="url(#path-7-inside-1_1204_2129)"/>
</svg>
