<svg width="312" height="180" viewBox="0 0 312 180" fill="none" xmlns="http://www.w3.org/2000/svg">
<rect width="312" height="180" fill="#E6FAF5"/>
<rect x="39" y="55.915" width="61" height="29.4677" rx="14.7338" fill="#A1E5E1"/>
<path d="M67.0169 68.1124C67.639 68.1767 68.2504 68.2089 68.9046 68.2089C70.2131 68.2089 71.5537 68.1017 72.6692 67.8657V69.1956C71.543 69.3672 70.1916 69.453 68.9046 69.4638C68.2718 69.4638 67.6605 69.4423 67.0277 69.3994L67.0169 68.1124ZM71.1033 66.3105C71.0711 66.5143 71.0497 66.7717 71.0389 66.9969C71.0175 67.3509 70.996 68.0909 70.996 68.8631C70.996 70.8366 71.1676 72.2309 71.1676 73.2498C71.1676 74.3759 70.6099 75.1911 69.0655 75.1911C67.5747 75.1911 66.6523 74.5797 66.6523 73.4536C66.6523 72.3596 67.5747 71.6088 69.044 71.6088C71.0604 71.6088 72.3581 72.617 73.1947 73.3892L72.4654 74.5154C71.232 73.3678 70.1487 72.6492 68.9368 72.6492C68.3254 72.6492 67.9071 72.8958 67.9071 73.3034C67.9071 73.7431 68.3362 73.9362 68.9153 73.9362C69.5696 73.9362 69.7948 73.593 69.7948 72.9602C69.7948 72.2202 69.6554 70.4183 69.6554 68.8739C69.6554 68.0588 69.6446 67.3402 69.6339 67.0184C69.6339 66.8468 69.6017 66.5143 69.5696 66.3105H71.1033ZM65.8693 66.4178C65.7835 66.6323 65.6548 67.19 65.6119 67.3831C65.4511 68.1017 65.0971 70.4612 65.0971 71.5337C65.0971 71.7375 65.1079 72.0164 65.14 72.2309C65.2902 71.8555 65.4725 71.4908 65.6227 71.1262L66.2876 71.6517C65.9873 72.5419 65.6334 73.6252 65.5154 74.2151C65.4832 74.3652 65.4511 74.6012 65.4618 74.7084C65.4618 74.8264 65.4618 75.0087 65.4725 75.1589L64.2606 75.2447C64.046 74.5046 63.8315 73.2712 63.8315 71.8233C63.8315 70.2038 64.1533 68.1767 64.282 67.3509C64.3249 67.0506 64.3678 66.6323 64.3785 66.2998L65.8693 66.4178Z" fill="#005C62"/>
<path d="M56.6671 65.6348L58.0078 65.8707C57.5895 67.7798 56.8602 69.5709 55.9807 70.7078C55.7125 70.504 55.1012 70.1608 54.758 70.0107C55.6804 69.0132 56.3346 67.3401 56.6671 65.6348ZM58.6513 68.6486H59.3162V69.8283C59.3162 70.9974 59.9598 73.3355 62.6089 74.4938C62.3622 74.8049 61.9761 75.3411 61.7723 75.6629C59.8525 74.7834 58.8443 72.8851 58.6405 71.9198C58.3831 72.8851 57.2892 74.7191 55.1119 75.6629C54.9618 75.3626 54.5542 74.8156 54.329 74.5796C57.2355 73.4213 57.9541 71.051 57.9541 69.8283V68.6486H58.6513ZM52.3984 73.0459C52.9991 72.4668 53.9643 71.48 54.8545 70.504L55.5838 71.6087C54.8438 72.4775 53.9643 73.4213 53.2243 74.1506L52.3984 73.0459ZM52.7095 67.2007L53.6211 66.2568C54.2646 66.6751 55.1334 67.3186 55.5517 67.7798L54.5757 68.8416C54.2003 68.3697 53.3637 67.6726 52.7095 67.2007ZM57.1283 67.4473H61.5256V68.7236H56.4955L57.1283 67.4473ZM61.0966 67.4473H61.2897L61.5364 67.3723L62.4909 67.93C62.1799 69.0132 61.6651 70.1287 61.2468 70.8902C60.9787 70.7507 60.4638 70.4826 60.1528 70.3646C60.496 69.7104 60.9358 68.5735 61.0966 67.7262V67.4473Z" fill="#005C62"/>
<path fill-rule="evenodd" clip-rule="evenodd" d="M80.787 66.8478C80.4961 67.1421 80.4961 67.6197 80.787 67.914L83.4888 70.6489L80.787 73.3832C80.4961 73.6782 80.4961 74.1554 80.787 74.45C81.078 74.7446 81.5502 74.7446 81.8408 74.45L85.5963 70.6489L81.8408 66.8478C81.695 66.7007 81.5043 66.627 81.3139 66.627C81.1232 66.627 80.9325 66.7007 80.787 66.8478Z" fill="#005C62"/>
<path fill-rule="evenodd" clip-rule="evenodd" d="M80.787 66.8478C80.4961 67.1421 80.4961 67.6197 80.787 67.914L83.4888 70.6489L80.787 73.3832C80.4961 73.6782 80.4961 74.1554 80.787 74.45C81.078 74.7446 81.5502 74.7446 81.8408 74.45L85.5963 70.6489L81.8408 66.8478C81.695 66.7007 81.5043 66.627 81.3139 66.627C81.1232 66.627 80.9325 66.7007 80.787 66.8478Z" fill="black" fill-opacity="0.2"/>
<rect x="39" y="95.6094" width="61" height="27.4835" rx="13.7418" fill="#A1E5E1"/>
<path d="M71.5464 106.852V105.833H75.075V106.852H73.9381V112.912H72.6833V106.852H71.5464Z" fill="#005C62"/>
<path d="M71.5464 106.852V105.833H75.075V106.852H73.9381V112.912H72.6833V106.852H71.5464Z" fill="black" fill-opacity="0.2"/>
<path d="M72.1255 105.833V106.852H70.9887V112.912H69.7124V108.772C69.6051 108.75 69.4943 108.74 69.3799 108.74C69.0295 108.74 68.7685 108.836 68.5969 109.029C68.4253 109.215 68.3395 109.515 68.3395 109.93V110.649H67.0739V109.909C67.0739 109.208 66.8273 108.858 66.3339 108.858C66.0765 108.858 65.8691 108.961 65.7118 109.169C65.5545 109.369 65.4759 109.676 65.4759 110.091C65.4759 110.634 65.6189 111.067 65.9049 111.389C66.198 111.703 66.6378 111.861 67.2241 111.861C67.3957 111.861 67.528 111.853 67.6209 111.839V112.869C67.435 112.89 67.2527 112.901 67.0739 112.901C66.2088 112.901 65.5188 112.64 65.004 112.118C64.4891 111.596 64.2317 110.913 64.2317 110.069C64.2317 109.39 64.4069 108.843 64.7573 108.429C65.1076 108.014 65.5903 107.806 66.2052 107.806C66.6199 107.806 66.956 107.896 67.2134 108.075C67.4779 108.253 67.6424 108.489 67.7067 108.782C67.8926 108.089 68.4253 107.742 69.3048 107.742C69.4335 107.742 69.5694 107.76 69.7124 107.796V106.852H63.4917V105.833H72.1255Z" fill="#005C62"/>
<path d="M72.1255 105.833V106.852H70.9887V112.912H69.7124V108.772C69.6051 108.75 69.4943 108.74 69.3799 108.74C69.0295 108.74 68.7685 108.836 68.5969 109.029C68.4253 109.215 68.3395 109.515 68.3395 109.93V110.649H67.0739V109.909C67.0739 109.208 66.8273 108.858 66.3339 108.858C66.0765 108.858 65.8691 108.961 65.7118 109.169C65.5545 109.369 65.4759 109.676 65.4759 110.091C65.4759 110.634 65.6189 111.067 65.9049 111.389C66.198 111.703 66.6378 111.861 67.2241 111.861C67.3957 111.861 67.528 111.853 67.6209 111.839V112.869C67.435 112.89 67.2527 112.901 67.0739 112.901C66.2088 112.901 65.5188 112.64 65.004 112.118C64.4891 111.596 64.2317 110.913 64.2317 110.069C64.2317 109.39 64.4069 108.843 64.7573 108.429C65.1076 108.014 65.5903 107.806 66.2052 107.806C66.6199 107.806 66.956 107.896 67.2134 108.075C67.4779 108.253 67.6424 108.489 67.7067 108.782C67.8926 108.089 68.4253 107.742 69.3048 107.742C69.4335 107.742 69.5694 107.76 69.7124 107.796V106.852H63.4917V105.833H72.1255Z" fill="black" fill-opacity="0.2"/>
<path d="M57.2598 105.833H64.0703V106.852H62.9334V112.912H61.6893V106.852H60.2414V109.222C60.2414 109.716 60.1055 110.087 59.8338 110.338C59.5693 110.588 59.2118 110.713 58.7613 110.713C58.4467 110.713 58.15 110.663 57.8711 110.563V109.544C58.0499 109.637 58.2429 109.683 58.4503 109.683C58.8078 109.683 58.9865 109.494 58.9865 109.115V106.852H57.2598V105.833Z" fill="#005C62"/>
<path d="M57.2598 105.833H64.0703V106.852H62.9334V112.912H61.6893V106.852H60.2414V109.222C60.2414 109.716 60.1055 110.087 59.8338 110.338C59.5693 110.588 59.2118 110.713 58.7613 110.713C58.4467 110.713 58.15 110.663 57.8711 110.563V109.544C58.0499 109.637 58.2429 109.683 58.4503 109.683C58.8078 109.683 58.9865 109.494 58.9865 109.115V106.852H57.2598V105.833Z" fill="black" fill-opacity="0.2"/>
<path d="M57.8439 105.833V106.852H56.707V112.912H55.4415V110.305H54.1651V110.445C54.1651 111.003 53.9721 111.457 53.586 111.807C53.207 112.15 52.6529 112.322 51.9236 112.322C51.4159 112.322 50.9476 112.24 50.5186 112.075V110.906C50.9833 111.142 51.4338 111.26 51.8699 111.26C52.1774 111.26 52.4348 111.181 52.6422 111.024C52.8495 110.867 52.9532 110.616 52.9532 110.273C52.9532 109.715 52.5707 109.437 51.8056 109.437H51.398V108.364H51.7305C52.3883 108.364 52.7172 108.11 52.7172 107.603C52.7172 107.116 52.4348 106.873 51.8699 106.873C51.4981 106.873 51.1335 106.959 50.776 107.131V105.994C51.1263 105.858 51.516 105.79 51.945 105.79C52.5957 105.79 53.0962 105.94 53.4466 106.241C53.8041 106.534 53.9828 106.938 53.9828 107.452C53.9828 107.824 53.8863 108.135 53.6932 108.386C53.5073 108.636 53.2463 108.807 52.9103 108.9C53.2177 108.943 53.4895 109.068 53.7254 109.276H55.4415V106.852H54.562V105.833H57.8439Z" fill="#005C62"/>
<path d="M57.8439 105.833V106.852H56.707V112.912H55.4415V110.305H54.1651V110.445C54.1651 111.003 53.9721 111.457 53.586 111.807C53.207 112.15 52.6529 112.322 51.9236 112.322C51.4159 112.322 50.9476 112.24 50.5186 112.075V110.906C50.9833 111.142 51.4338 111.26 51.8699 111.26C52.1774 111.26 52.4348 111.181 52.6422 111.024C52.8495 110.867 52.9532 110.616 52.9532 110.273C52.9532 109.715 52.5707 109.437 51.8056 109.437H51.398V108.364H51.7305C52.3883 108.364 52.7172 108.11 52.7172 107.603C52.7172 107.116 52.4348 106.873 51.8699 106.873C51.4981 106.873 51.1335 106.959 50.776 107.131V105.994C51.1263 105.858 51.516 105.79 51.945 105.79C52.5957 105.79 53.0962 105.94 53.4466 106.241C53.8041 106.534 53.9828 106.938 53.9828 107.452C53.9828 107.824 53.8863 108.135 53.6932 108.386C53.5073 108.636 53.2463 108.807 52.9103 108.9C53.2177 108.943 53.4895 109.068 53.7254 109.276H55.4415V106.852H54.562V105.833H57.8439Z" fill="black" fill-opacity="0.2"/>
<path fill-rule="evenodd" clip-rule="evenodd" d="M82.6669 105.55C82.376 105.844 82.376 106.322 82.6669 106.616L85.3687 109.351L82.6669 112.085C82.376 112.38 82.376 112.858 82.6669 113.152C82.9578 113.447 83.4301 113.447 83.7207 113.152L87.4762 109.351L83.7207 105.55C83.5749 105.403 83.3842 105.329 83.1938 105.329C83.0031 105.329 82.8124 105.403 82.6669 105.55Z" fill="#005C62"/>
<path fill-rule="evenodd" clip-rule="evenodd" d="M167.627 119.427C170.523 112.727 172.197 103.593 172.573 94.1667H187.36C185.833 105.693 178.103 115.27 167.627 119.427ZM124.64 94.1667H139.423C139.803 103.593 141.477 112.73 144.383 119.43C133.903 115.277 126.167 105.697 124.64 94.1667ZM144.383 60.57C141.477 67.27 139.803 76.4067 139.423 85.8333H124.64C126.167 74.3 133.903 64.72 144.383 60.57ZM147.763 85.8333C148.53 68.0867 154.017 58.47 156.013 58.3333H156.017C158.257 58.5367 163.5 68.3533 164.237 85.8333H147.763ZM156.02 121.663L156.013 121.667C154.017 121.53 148.53 111.913 147.763 94.1667H164.237C163.5 111.643 158.257 121.46 156.02 121.663ZM187.36 85.8333H172.573C172.197 76.4067 170.523 67.2733 167.627 60.5733C178.103 64.7267 185.833 74.3033 187.36 85.8333ZM196 90C196 67.9533 178.073 50.0167 156.03 50H156C133.943 50 116 67.9433 116 90C116 112.057 133.943 130 156 130H156.017L156.03 129.997C178.073 129.983 196 112.047 196 90Z" fill="#009990"/>
<rect x="212" y="54.5205" width="59.6869" height="32.2558" rx="16.0879" fill="#A1E5E1"/>
<path fill-rule="evenodd" clip-rule="evenodd" d="M228.013 74.67C227.822 74.67 227.632 74.5963 227.486 74.4491L223.73 70.648L227.486 66.8469C227.777 66.5523 228.249 66.5523 228.54 66.8469C228.831 67.1415 228.831 67.6188 228.54 67.9134L225.838 70.648L228.54 73.3826C228.831 73.6773 228.831 74.1545 228.54 74.4491C228.394 74.5963 228.204 74.67 228.013 74.67Z" fill="#005C62"/>
<path fill-rule="evenodd" clip-rule="evenodd" d="M228.013 74.67C227.822 74.67 227.632 74.5963 227.486 74.4491L223.73 70.648L227.486 66.8469C227.777 66.5523 228.249 66.5523 228.54 66.8469C228.831 67.1415 228.831 67.6188 228.54 67.9134L225.838 70.648L228.54 73.3826C228.831 73.6773 228.831 74.1545 228.54 74.4491C228.394 74.5963 228.204 74.67 228.013 74.67Z" fill="black" fill-opacity="0.2"/>
<path fill-rule="evenodd" clip-rule="evenodd" d="M244.573 72.6431C244.563 72.6429 244.552 72.6427 244.54 72.6427C244.347 72.6427 244.14 72.6284 243.918 72.5998C243.697 72.5641 243.461 72.5176 243.211 72.4604C242.96 72.3961 242.696 72.3174 242.417 72.2245C242.145 72.1244 241.856 72.0099 241.548 71.8812L241.194 73.3935C241.43 73.4793 241.63 73.558 241.795 73.6295C241.966 73.701 242.102 73.7689 242.202 73.8332C242.31 73.8976 242.385 73.9584 242.428 74.0156C242.478 74.0728 242.503 74.1336 242.503 74.1979C242.503 74.3409 242.445 74.466 242.331 74.5733C242.217 74.6877 242.049 74.7806 241.827 74.8521C241.612 74.9236 241.348 74.9773 241.033 75.013C240.726 75.0488 240.375 75.0667 239.982 75.0667C239.603 75.0667 239.267 75.0309 238.974 74.9594C238.688 74.8879 238.445 74.7842 238.245 74.6484C238.045 74.5197 237.891 74.3588 237.784 74.1657C237.683 73.9798 237.633 73.7689 237.633 73.5329C237.633 73.3828 237.648 73.2326 237.676 73.0825C237.705 72.9252 237.748 72.7571 237.805 72.5784C237.862 72.3925 237.93 72.1887 238.009 71.967L236.69 71.5059C236.532 71.8562 236.414 72.1744 236.336 72.4604C236.257 72.7393 236.203 72.9895 236.175 73.2112C236.146 73.4328 236.132 73.6259 236.132 73.7903C236.132 74.4267 236.278 74.9487 236.572 75.3562C236.872 75.7709 237.297 76.0748 237.848 76.2679C238.406 76.4681 239.071 76.5682 239.843 76.5682C240.558 76.5682 241.173 76.5038 241.688 76.3751C242.209 76.2536 242.639 76.0891 242.975 75.8818C243.311 75.6744 243.557 75.4492 243.715 75.2061C243.879 74.963 243.961 74.7234 243.961 74.4875V74.3266C243.961 74.2766 243.954 74.2158 243.94 74.1443H244.101H244.262H244.431L244.431 74.1448C245.032 74.1448 245.511 74.0804 245.868 73.9517C246.233 73.823 246.501 73.6407 246.673 73.4047C246.851 73.1688 246.962 72.8863 247.005 72.5574C247.055 72.2214 247.073 71.846 247.059 71.4313L246.844 66.2402H245.332L245.525 71.324C245.539 71.6887 245.532 71.9675 245.504 72.1606C245.475 72.3465 245.389 72.4752 245.246 72.5467C245.108 72.6087 244.884 72.6409 244.573 72.6431ZM249.471 73.941C249.835 74.0768 250.35 74.1448 251.015 74.1448C251.026 74.1448 251.037 74.1446 251.048 74.1444C251.292 74.1436 251.54 74.1257 251.791 74.0908C252.056 74.0622 252.31 73.9979 252.553 73.8978C252.796 73.7977 253.014 73.6475 253.207 73.4473C253.26 73.3929 253.31 73.3337 253.357 73.2699C253.371 73.2976 253.385 73.3246 253.4 73.3508C253.522 73.5438 253.675 73.7011 253.861 73.8227C254.054 73.9371 254.28 74.0193 254.537 74.0694C254.802 74.1194 255.095 74.1445 255.416 74.1445L255.418 74.1445C255.696 74.1441 255.907 74.0726 256.049 73.9299C256.199 73.7798 256.274 73.5939 256.274 73.3722C256.274 73.1649 256.217 72.9933 256.103 72.8574C255.988 72.7144 255.795 72.6429 255.524 72.6429C255.259 72.6429 255.034 72.625 254.848 72.5893C254.669 72.5535 254.523 72.5035 254.408 72.4391C254.301 72.3676 254.222 72.2818 254.172 72.1817C254.122 72.0816 254.097 71.9672 254.097 71.8385C254.097 71.7098 254.104 71.574 254.119 71.431C254.14 71.2808 254.162 71.1342 254.183 70.9912C254.212 70.8482 254.233 70.7231 254.247 70.6158L252.842 70.3799C252.771 70.8804 252.689 71.2808 252.596 71.5811C252.51 71.8814 252.403 72.1102 252.274 72.2675C252.145 72.4177 251.988 72.5178 251.802 72.5678C251.616 72.6179 251.394 72.6429 251.137 72.6429L251.137 72.6433L251.122 72.6432C250.808 72.6432 250.568 72.6146 250.404 72.5574C250.247 72.5002 250.139 72.3894 250.082 72.2249C250.025 72.0605 249.989 71.8138 249.975 71.4849L249.75 66.2402H248.248L248.473 72.2035C248.495 72.6468 248.577 73.015 248.72 73.3082C248.863 73.5942 249.113 73.8051 249.471 73.941ZM259.235 66.2402L259.46 74.0911H260.962L260.736 66.2402H259.235ZM254.473 69.4146C254.265 69.4146 254.086 69.3431 253.936 69.2001C253.793 69.0499 253.722 68.8748 253.722 68.6746C253.722 68.4672 253.793 68.2885 253.936 68.1383C254.086 67.9881 254.265 67.9131 254.473 67.9131C254.673 67.9131 254.844 67.9881 254.987 68.1383C255.13 68.2885 255.202 68.4672 255.202 68.6746C255.202 68.8748 255.13 69.0499 254.987 69.2001C254.844 69.3431 254.673 69.4146 254.473 69.4146ZM252.617 69.4039C252.41 69.4039 252.231 69.3324 252.081 69.1894C251.938 69.0392 251.866 68.864 251.866 68.6638C251.866 68.4565 251.938 68.2777 252.081 68.1276C252.231 67.9774 252.41 67.9023 252.617 67.9023C252.817 67.9023 252.989 67.9774 253.132 68.1276C253.275 68.2777 253.346 68.4565 253.346 68.6638C253.346 68.864 253.275 69.0392 253.132 69.1894C252.989 69.3324 252.817 69.4039 252.617 69.4039ZM240.358 78.8312C240.508 78.9814 240.687 79.0565 240.894 79.0565C241.094 79.0565 241.266 78.9814 241.409 78.8312C241.552 78.6882 241.623 78.5166 241.623 78.3164C241.623 78.1091 241.552 77.9303 241.409 77.7801C241.266 77.63 241.094 77.5549 240.894 77.5549C240.687 77.5549 240.508 77.63 240.358 77.7801C240.215 77.9303 240.143 78.1091 240.143 78.3164C240.143 78.5166 240.215 78.6882 240.358 78.8312ZM238.502 78.8312C238.652 78.9814 238.831 79.0565 239.038 79.0565C239.239 79.0565 239.41 78.9814 239.553 78.8312C239.696 78.6882 239.768 78.5166 239.768 78.3164C239.768 78.1091 239.696 77.9303 239.553 77.7801C239.41 77.63 239.239 77.5549 239.038 77.5549C238.831 77.5549 238.652 77.63 238.502 77.7801C238.359 77.9303 238.288 78.1091 238.288 78.3164C238.288 78.5166 238.359 78.6882 238.502 78.8312Z" fill="#005C62"/>
<rect x="212" y="95.6094" width="61" height="27.4835" rx="13.7418" fill="#A1E5E1"/>
<path fill-rule="evenodd" clip-rule="evenodd" d="M230.964 113.373C230.774 113.373 230.583 113.299 230.437 113.152L226.682 109.351L230.437 105.55C230.728 105.255 231.2 105.255 231.491 105.55C231.782 105.845 231.782 106.322 231.491 106.617L228.789 109.351L231.491 112.086C231.782 112.38 231.782 112.858 231.491 113.152C231.345 113.299 231.155 113.373 230.964 113.373Z" fill="#005C62"/>
<path d="M259.324 108.835V112.601H257.905V108.825C257.905 108.291 257.791 107.915 257.564 107.699C257.337 107.479 256.943 107.369 256.381 107.369H253.726V106.102H256.47C257.158 106.102 257.709 106.194 258.125 106.379C258.544 106.564 258.847 106.857 259.036 107.259C259.228 107.657 259.324 108.182 259.324 108.835ZM255.244 108.652V112.601H253.83V108.652H255.244Z" fill="#005C62"/>
<path d="M259.324 108.835V112.601H257.905V108.825C257.905 108.291 257.791 107.915 257.564 107.699C257.337 107.479 256.943 107.369 256.381 107.369H253.726V106.102H256.47C257.158 106.102 257.709 106.194 258.125 106.379C258.544 106.564 258.847 106.857 259.036 107.259C259.228 107.657 259.324 108.182 259.324 108.835ZM255.244 108.652V112.601H253.83V108.652H255.244Z" fill="black" fill-opacity="0.2"/>
<path d="M252.547 111.333V112.601H246.488V111.333H250.437V109.019C250.437 108.408 250.322 107.98 250.091 107.735C249.864 107.491 249.475 107.369 248.923 107.369H246.734V106.102H248.944C249.964 106.102 250.702 106.315 251.16 106.74C251.62 107.166 251.851 107.865 251.851 108.835V111.333H252.547Z" fill="#005C62"/>
<path d="M252.547 111.333V112.601H246.488V111.333H250.437V109.019C250.437 108.408 250.322 107.98 250.091 107.735C249.864 107.491 249.475 107.369 248.923 107.369H246.734V106.102H248.944C249.964 106.102 250.702 106.315 251.16 106.74C251.62 107.166 251.851 107.865 251.851 108.835V111.333H252.547Z" fill="black" fill-opacity="0.2"/>
<path d="M240.874 110.705L240.549 112.601H239.083L239.523 110.433C239.649 109.832 239.764 109.404 239.869 109.149C239.973 108.891 240.102 108.687 240.256 108.537C240.413 108.383 240.63 108.247 240.905 108.128L239.392 106.102H241.11L243.231 109.039C243.451 108.84 243.618 108.607 243.733 108.338C243.849 108.069 243.931 107.706 243.98 107.248L244.09 106.102H245.535L245.409 107.343C245.371 107.695 245.301 108.008 245.2 108.28C245.13 108.465 245.044 108.64 244.943 108.804C244.842 108.964 244.709 109.136 244.545 109.317C244.385 109.495 244.172 109.703 243.906 109.94L245.86 112.601H244.152L241.539 108.977C241.354 109.085 241.221 109.242 241.141 109.448C241.103 109.553 241.061 109.71 241.015 109.919C240.97 110.129 240.923 110.391 240.874 110.705Z" fill="#005C62"/>
<path d="M240.874 110.705L240.549 112.601H239.083L239.523 110.433C239.649 109.832 239.764 109.404 239.869 109.149C239.973 108.891 240.102 108.687 240.256 108.537C240.413 108.383 240.63 108.247 240.905 108.128L239.392 106.102H241.11L243.231 109.039C243.451 108.84 243.618 108.607 243.733 108.338C243.849 108.069 243.931 107.706 243.98 107.248L244.09 106.102H245.535L245.409 107.343C245.371 107.695 245.301 108.008 245.2 108.28C245.13 108.465 245.044 108.64 244.943 108.804C244.842 108.964 244.709 109.136 244.545 109.317C244.385 109.495 244.172 109.703 243.906 109.94L245.86 112.601H244.152L241.539 108.977C241.354 109.085 241.221 109.242 241.141 109.448C241.103 109.553 241.061 109.71 241.015 109.919C240.97 110.129 240.923 110.391 240.874 110.705Z" fill="black" fill-opacity="0.2"/>
</svg>
