<svg width="312" height="180" viewBox="0 0 312 180" fill="none" xmlns="http://www.w3.org/2000/svg">
<rect width="312" height="180" fill="#E6FAF5"/>
<rect x="52" y="40" width="81" height="101" rx="16" fill="#A1E5E1"/>
<rect x="140" y="40" width="120" height="73" rx="16" fill="#A1E5E1"/>
<g clip-path="url(#clip0_1712_810)">
<rect x="49" y="36" width="215" height="109" stroke="white" stroke-opacity="0.2" stroke-width="8"/>
<rect x="52.5" y="39.5" width="208" height="102" stroke="#26C0B4"/>
<rect x="45.5" y="32.5" width="222" height="116" stroke="#26C0B4"/>
<path d="M49.0078 92.736H48.9844L48.1992 94.19H47L48.3125 92.1028L47.0078 90H48.293L49.0469 91.4149H49.0703L49.8125 90H51.0547L49.7461 92.0715L51.043 94.19H49.8047L49.0078 92.736Z" fill="#005C62"/>
<path d="M49.0078 92.736H48.9844L48.1992 94.19H47L48.3125 92.1028L47.0078 90H48.293L49.0469 91.4149H49.0703L49.8125 90H51.0547L49.7461 92.0715L51.043 94.19H49.8047L49.0078 92.736Z" fill="black" fill-opacity="0.2"/>
<path d="M156.48 145.547H156.457L155.672 147H154.473L155.785 144.914L154.48 142.812H155.766L156.52 144.227H156.543L157.285 142.812H158.527L157.219 144.883L158.516 147H157.277L156.48 145.547Z" fill="#005C62"/>
<path d="M156.48 145.547H156.457L155.672 147H154.473L155.785 144.914L154.48 142.812H155.766L156.52 144.227H156.543L157.285 142.812H158.527L157.219 144.883L158.516 147H157.277L156.48 145.547Z" fill="black" fill-opacity="0.2"/>
<path d="M155.98 37.0469H155.957L155.172 38.5H153.973L155.285 36.4141L153.98 34.3125H155.266L156.02 35.7266H156.043L156.785 34.3125H158.027L156.719 36.3828L158.016 38.5H156.777L155.98 37.0469Z" fill="#005C62"/>
<path d="M155.98 37.0469H155.957L155.172 38.5H153.973L155.285 36.4141L153.98 34.3125H155.266L156.02 35.7266H156.043L156.785 34.3125H158.027L156.719 36.3828L158.016 38.5H156.777L155.98 37.0469Z" fill="black" fill-opacity="0.2"/>
<path d="M263.98 92.2712H263.957L263.172 93.7252H261.973L263.285 91.638L261.98 89.5352H263.266L264.02 90.9501H264.043L264.785 89.5352H266.027L264.719 91.6067L266.016 93.7252H264.777L263.98 92.2712Z" fill="#005C62"/>
<path d="M263.98 92.2712H263.957L263.172 93.7252H261.973L263.285 91.638L261.98 89.5352H263.266L264.02 90.9501H264.043L264.785 89.5352H266.027L264.719 91.6067L266.016 93.7252H264.777L263.98 92.2712Z" fill="black" fill-opacity="0.2"/>
<mask id="path-10-inside-1_1712_810" fill="white">
<path d="M133 40H141V141H133V40Z"/>
</mask>
<path d="M133 40H141V141H133V40Z" fill="white" fill-opacity="0.3"/>
<path d="M140 40V141H142V40H140ZM134 141V40H132V141H134Z" fill="#26C0B4" mask="url(#path-10-inside-1_1712_810)"/>
<path d="M136.98 92.5469H136.957L136.172 94H134.973L136.285 91.9141L134.98 89.8125H136.266L137.02 91.2266H137.043L137.785 89.8125H139.027L137.719 91.8828L139.016 94H137.777L136.98 92.5469Z" fill="#005C62"/>
<path d="M136.98 92.5469H136.957L136.172 94H134.973L136.285 91.9141L134.98 89.8125H136.266L137.02 91.2266H137.043L137.785 89.8125H139.027L137.719 91.8828L139.016 94H137.777L136.98 92.5469Z" fill="black" fill-opacity="0.2"/>
<mask id="path-13-inside-2_1712_810" fill="white">
<path d="M141 113H260V121H141V113Z"/>
</mask>
<path d="M141 113H260V121H141V113Z" fill="white" fill-opacity="0.3"/>
<path d="M141 114H260V112H141V114ZM260 120H141V122H260V120Z" fill="#26C0B4" mask="url(#path-13-inside-2_1712_810)"/>
<path d="M200.98 117.547H200.957L200.172 119H198.973L200.285 116.914L198.98 114.812H200.266L201.02 116.227H201.043L201.785 114.812H203.027L201.719 116.883L203.016 119H201.777L200.98 117.547Z" fill="#005C62"/>
<path d="M200.98 117.547H200.957L200.172 119H198.973L200.285 116.914L198.98 114.812H200.266L201.02 116.227H201.043L201.785 114.812H203.027L201.719 116.883L203.016 119H201.777L200.98 117.547Z" fill="black" fill-opacity="0.2"/>
<rect x="141" y="121" width="119" height="20" rx="10" fill="#005C62"/>
<rect x="141" y="121" width="119" height="20" rx="10" fill="#A1E5E1"/>
</g>
<defs>
<clipPath id="clip0_1712_810">
<rect width="223" height="117" fill="white" transform="translate(45 32)"/>
</clipPath>
</defs>
</svg>
