<svg xmlns="http://www.w3.org/2000/svg" width="312" height="180" fill="none"><path fill="#fff" d="M46 57c0-5.523 4.477-10 10-10h200c5.523 0 10 4.477 10 10v12c0 5.523-4.477 10-10 10H56c-5.523 0-10-4.477-10-10V57Zm-1 69c0-5.523 4.477-10 10-10h200c5.523 0 10 4.477 10 10v12c0 5.523-4.477 10-10 10H55c-5.523 0-10-4.477-10-10v-12Z"/><path fill="#009990" fill-rule="evenodd" d="M45 58c0-6.075 4.925-11 11-11h200c6.075 0 11 4.925 11 11v12c0 6.075-4.925 11-11 11H56c-6.075 0-11-4.925-11-11V58Zm11-9a9 9 0 0 0-9 9v12a9 9 0 0 0 9 9h200a9 9 0 0 0 9-9V58a9 9 0 0 0-9-9H56Zm-11 77c0-6.075 4.925-11 11-11h200c6.075 0 11 4.925 11 11v12c0 6.075-4.925 11-11 11H56c-6.075 0-11-4.925-11-11v-12Zm11-9a9 9 0 0 0-9 9v12a9 9 0 0 0 9 9h200a9 9 0 0 0 9-9v-12a9 9 0 0 0-9-9H56Z" clip-rule="evenodd"/><path fill="#005C62" fill-rule="evenodd" d="m254.76 60.88-4.76 4.7-4.759-4.701a1.325 1.325 0 0 0-1.857 0 1.288 1.288 0 0 0 0 1.834L250 69.25l6.615-6.536a1.286 1.286 0 0 0 0-1.834 1.316 1.316 0 0 0-.928-.38c-.336 0-.671.127-.927.38Zm0 68-4.76 4.702-4.759-4.702a1.326 1.326 0 0 0-1.857 0 1.287 1.287 0 0 0 0 1.834L250 137.25l6.615-6.536a1.284 1.284 0 0 0 0-1.834 1.317 1.317 0 0 0-.928-.38c-.336 0-.671.127-.927.38Z" clip-rule="evenodd"/><rect width="120" height="8" x="62" y="59" fill="#009990" fill-opacity=".5" rx="4"/><rect width="120" height="8" x="61" y="128" fill="#009990" fill-opacity=".5" rx="4"/><rect width="100" height="8" x="47" y="31" fill="#009990" fill-opacity=".5" rx="4"/><rect width="100" height="8" x="46" y="100" fill="#009990" fill-opacity=".5" rx="4"/></svg>