<svg width="312" height="180" viewBox="0 0 312 180" fill="none" xmlns="http://www.w3.org/2000/svg">
<g clip-path="url(#clip0_12_1228)">
<rect width="312" height="180" fill="#E6FAF5"/>
<rect x="18" y="30" width="216" height="120" rx="16" fill="white"/>
<rect x="34" y="46" width="130" height="12" rx="6" fill="#009990" fill-opacity="0.5"/>
<rect x="34" y="66" width="174" height="8" rx="4" fill="#009990" fill-opacity="0.5"/>
<rect x="34" y="82" width="121" height="8" rx="4" fill="#009990" fill-opacity="0.5"/>
<path fill-rule="evenodd" clip-rule="evenodd" d="M194 98C186.268 98 180 104.268 180 112C180 119.732 186.268 126 194 126C201.732 126 208 119.732 208 112C208 104.268 201.732 98 194 98ZM187.427 113.603L192.25 118.417L200.573 110.109C201.142 109.541 201.142 108.62 200.573 108.051C200.004 107.483 199.08 107.483 198.51 108.051L192.25 114.3L189.49 111.544C188.92 110.976 187.996 110.976 187.427 111.544C186.858 112.113 186.858 113.035 187.427 113.603Z" fill="#009990"/>
<path d="M253.349 120.176L253.349 120.176L241.359 98.8827L241.359 98.8821C239.442 95.4837 234.558 95.4837 232.641 98.8821L232.641 98.8827L220.651 120.176L220.651 120.176C218.773 123.516 221.177 127.667 225.004 127.667H248.996C252.823 127.667 255.227 123.516 253.349 120.176ZM241.707 121.367L241.707 121.367L241.701 121.373C241.508 121.566 241.245 121.667 240.994 121.667C240.744 121.667 240.481 121.566 240.288 121.373L237.7 118.786L236.993 118.079L236.286 118.786L233.699 121.373L234.406 122.08L233.699 121.373C233.506 121.566 233.243 121.667 232.992 121.667C232.742 121.667 232.478 121.566 232.286 121.373C231.886 120.973 231.895 120.345 232.28 119.967L232.28 119.967L232.286 119.961L234.873 117.374L235.58 116.667L234.873 115.959L232.286 113.373C231.886 112.973 231.895 112.345 232.28 111.967L232.28 111.967L232.286 111.961C232.685 111.561 233.315 111.57 233.693 111.954L233.693 111.954L233.699 111.961L236.286 114.547L236.993 115.254L237.7 114.547L240.288 111.961C240.687 111.561 241.317 111.57 241.695 111.954L241.695 111.954L241.701 111.961C242.101 112.36 242.092 112.989 241.707 113.367L241.707 113.367L241.701 113.373L239.114 115.959L238.406 116.667L239.114 117.374L241.701 119.961C242.101 120.36 242.092 120.989 241.707 121.367Z" fill="#004A4E" stroke="#E6FAF5" stroke-width="2"/>
<path fill-rule="evenodd" clip-rule="evenodd" d="M280 108.5C279.033 108.5 278.25 107.717 278.25 106.75C278.25 105.783 279.033 105 280 105C280.967 105 281.75 105.783 281.75 106.75C281.75 107.717 280.967 108.5 280 108.5ZM281.75 117.25C281.75 118.217 280.967 119 280 119C279.033 119 278.25 118.217 278.25 117.25V111.417C278.25 110.449 279.033 109.667 280 109.667C280.967 109.667 281.75 110.449 281.75 111.417V117.25ZM280 98C272.268 98 266 104.268 266 112C266 119.731 272.268 126 280 126C287.731 126 294 119.731 294 112C294 104.268 287.731 98 280 98Z" fill="#009990"/>
</g>
<defs>
<clipPath id="clip0_12_1228">
<rect width="312" height="180" fill="white"/>
</clipPath>
</defs>
</svg>
