<svg width="312" height="180" viewBox="0 0 312 180" fill="none" xmlns="http://www.w3.org/2000/svg">
<rect width="312" height="180" fill="#E6FAF5"/>
<rect x="68" y="37" width="91" height="48" rx="24" fill="#005C62"/>
<rect x="68" y="37" width="91" height="48" rx="24" fill="black" fill-opacity="0.2"/>
<path fill-rule="evenodd" clip-rule="evenodd" d="M91.8884 67.0001C91.6043 67.0001 91.3198 66.8901 91.1024 66.6706L85.5 61.0001L91.1024 55.3296C91.5362 54.8901 92.2406 54.8901 92.6743 55.3296C93.1086 55.7691 93.1086 56.4811 92.6743 56.9206L88.6443 61.0001L92.6743 65.0796C93.1086 65.5191 93.1086 66.2311 92.6743 66.6706C92.4575 66.8901 92.1729 67.0001 91.8884 67.0001Z" fill="white"/>
<path d="M104.76 66.052C104.76 65.8067 104.781 65.5187 104.824 65.188C104.866 64.8573 104.946 64.484 105.064 64.068C105.181 63.6413 105.357 63.1667 105.592 62.644L107.56 63.332C107.442 63.6627 107.341 63.9667 107.256 64.244C107.17 64.5107 107.106 64.7613 107.064 64.996C107.021 65.22 107 65.444 107 65.668C107 66.02 107.074 66.3347 107.224 66.612C107.384 66.9 107.613 67.14 107.912 67.332C108.21 67.5347 108.573 67.6893 109 67.796C109.437 67.9027 109.938 67.956 110.504 67.956C111.09 67.956 111.613 67.9293 112.072 67.876C112.541 67.8227 112.936 67.7427 113.256 67.636C113.586 67.5293 113.837 67.3907 114.008 67.22C114.178 67.06 114.264 66.8733 114.264 66.66C114.264 66.564 114.226 66.4733 114.152 66.388C114.088 66.3027 113.976 66.212 113.816 66.116C113.666 66.02 113.464 65.9187 113.208 65.812C112.962 65.7053 112.664 65.588 112.312 65.46L112.84 63.204C113.298 63.396 113.73 63.5667 114.136 63.716C114.552 63.8547 114.946 63.972 115.32 64.068C115.693 64.1533 116.045 64.2227 116.376 64.276C116.706 64.3187 117.016 64.34 117.304 64.34C117.709 64.34 117.997 64.4467 118.168 64.66C118.338 64.8627 118.424 65.1187 118.424 65.428C118.424 65.7587 118.312 66.036 118.088 66.26C117.864 66.4733 117.549 66.58 117.144 66.58C117.058 66.58 116.973 66.58 116.888 66.58C116.813 66.58 116.733 66.58 116.648 66.58C116.573 66.58 116.493 66.58 116.408 66.58C116.429 66.6867 116.44 66.7773 116.44 66.852C116.44 66.9373 116.44 67.0173 116.44 67.092C116.44 67.444 116.317 67.8013 116.072 68.164C115.837 68.5267 115.469 68.8627 114.968 69.172C114.466 69.4813 113.826 69.7267 113.048 69.908C112.28 70.1 111.362 70.196 110.296 70.196C109.144 70.196 108.152 70.0467 107.32 69.748C106.498 69.46 105.864 69.0067 105.416 68.388C104.978 67.78 104.76 67.0013 104.76 66.052ZM111.864 73.908C111.554 73.908 111.288 73.796 111.064 73.572C110.85 73.3587 110.744 73.1027 110.744 72.804C110.744 72.4947 110.85 72.228 111.064 72.004C111.288 71.78 111.554 71.668 111.864 71.668C112.162 71.668 112.418 71.78 112.632 72.004C112.845 72.228 112.952 72.4947 112.952 72.804C112.952 73.1027 112.845 73.3587 112.632 73.572C112.418 73.796 112.162 73.908 111.864 73.908ZM109.096 73.908C108.786 73.908 108.52 73.796 108.296 73.572C108.082 73.3587 107.976 73.1027 107.976 72.804C107.976 72.4947 108.082 72.228 108.296 72.004C108.52 71.78 108.786 71.668 109.096 71.668C109.394 71.668 109.65 71.78 109.864 72.004C110.077 72.228 110.184 72.4947 110.184 72.804C110.184 73.1027 110.077 73.3587 109.864 73.572C109.65 73.796 109.394 73.908 109.096 73.908ZM117.141 66.58L117.301 64.34C117.791 64.34 118.143 64.292 118.357 64.196C118.57 64.0893 118.698 63.8973 118.741 63.62C118.783 63.332 118.794 62.916 118.773 62.372L118.485 54.788H120.741L121.061 62.532C121.082 63.1507 121.055 63.7107 120.981 64.212C120.917 64.7027 120.751 65.124 120.485 65.476C120.229 65.828 119.829 66.1 119.285 66.292C118.751 66.484 118.037 66.58 117.141 66.58ZM126.963 66.58C125.971 66.58 125.203 66.4787 124.659 66.276C124.125 66.0733 123.752 65.7587 123.539 65.332C123.325 64.8947 123.203 64.3453 123.171 63.684L122.835 54.788H125.075L125.411 62.612C125.432 63.1027 125.485 63.4707 125.571 63.716C125.656 63.9613 125.816 64.1267 126.051 64.212C126.296 64.2973 126.653 64.34 127.123 64.34C127.528 64.34 127.816 64.4467 127.987 64.66C128.168 64.8627 128.259 65.1187 128.259 65.428C128.259 65.7587 128.147 66.036 127.923 66.26C127.699 66.4733 127.379 66.58 126.963 66.58ZM126.984 66.58L127.144 64.34C127.528 64.34 127.859 64.3027 128.136 64.228C128.414 64.1533 128.648 64.004 128.84 63.78C129.032 63.5453 129.192 63.204 129.32 62.756C129.459 62.308 129.582 61.7107 129.688 60.964L131.784 61.316C131.763 61.476 131.731 61.6627 131.688 61.876C131.656 62.0893 131.624 62.308 131.592 62.532C131.571 62.7453 131.56 62.948 131.56 63.14C131.56 63.332 131.598 63.5027 131.672 63.652C131.747 63.8013 131.864 63.9293 132.024 64.036C132.195 64.132 132.414 64.2067 132.68 64.26C132.958 64.3133 133.294 64.34 133.688 64.34C134.094 64.34 134.382 64.4467 134.552 64.66C134.723 64.8627 134.808 65.1187 134.808 65.428C134.808 65.7587 134.696 66.036 134.472 66.26C134.259 66.4733 133.944 66.58 133.528 66.58C133.048 66.58 132.611 66.5427 132.216 66.468C131.832 66.3933 131.496 66.2707 131.208 66.1C130.931 65.9187 130.702 65.684 130.52 65.396C130.35 65.0973 130.243 64.7347 130.2 64.308H130.968C130.776 64.82 130.531 65.2307 130.232 65.54C129.944 65.8387 129.619 66.0627 129.256 66.212C128.894 66.3613 128.515 66.4573 128.12 66.5C127.736 66.5533 127.358 66.58 126.984 66.58ZM132.12 59.524C131.811 59.524 131.544 59.4173 131.32 59.204C131.107 58.98 131 58.7187 131 58.42C131 58.1107 131.107 57.844 131.32 57.62C131.544 57.396 131.811 57.284 132.12 57.284C132.419 57.284 132.675 57.396 132.888 57.62C133.102 57.844 133.208 58.1107 133.208 58.42C133.208 58.7187 133.102 58.98 132.888 59.204C132.675 59.4173 132.419 59.524 132.12 59.524ZM129.352 59.508C129.043 59.508 128.776 59.4013 128.552 59.188C128.339 58.964 128.232 58.7027 128.232 58.404C128.232 58.0947 128.339 57.828 128.552 57.604C128.776 57.38 129.043 57.268 129.352 57.268C129.651 57.268 129.907 57.38 130.12 57.604C130.334 57.828 130.44 58.0947 130.44 58.404C130.44 58.7027 130.334 58.964 130.12 59.188C129.907 59.4013 129.651 59.508 129.352 59.508ZM133.531 66.58L133.691 64.34C134.182 64.34 134.534 64.292 134.747 64.196C134.961 64.0893 135.089 63.8973 135.131 63.62C135.174 63.332 135.185 62.916 135.163 62.372L134.875 54.788H137.131L137.451 62.532C137.473 63.1507 137.446 63.7107 137.371 64.212C137.307 64.7027 137.142 65.124 136.875 65.476C136.619 65.828 136.219 66.1 135.675 66.292C135.142 66.484 134.427 66.58 133.531 66.58ZM139.561 66.5L139.225 54.788H141.465L141.801 66.5H139.561Z" fill="white"/>
<rect x="167" y="37" width="75" height="48" rx="24" fill="#A1E5E1"/>
<path d="M188.479 66.052C188.479 65.8067 188.5 65.5187 188.543 65.188C188.585 64.8573 188.665 64.484 188.783 64.068C188.9 63.6413 189.076 63.1667 189.311 62.644L191.279 63.332C191.161 63.6627 191.06 63.9667 190.975 64.244C190.889 64.5107 190.825 64.7613 190.783 64.996C190.74 65.22 190.719 65.444 190.719 65.668C190.719 66.02 190.793 66.3347 190.943 66.612C191.103 66.9 191.332 67.14 191.631 67.332C191.929 67.5347 192.292 67.6893 192.719 67.796C193.156 67.9027 193.657 67.956 194.223 67.956C194.809 67.956 195.332 67.9293 195.791 67.876C196.26 67.8227 196.655 67.7427 196.975 67.636C197.305 67.5293 197.556 67.3907 197.727 67.22C197.897 67.06 197.983 66.8733 197.983 66.66C197.983 66.564 197.945 66.4733 197.871 66.388C197.807 66.3027 197.695 66.212 197.535 66.116C197.385 66.02 197.183 65.9187 196.927 65.812C196.681 65.7053 196.383 65.588 196.031 65.46L196.559 63.204C197.017 63.396 197.449 63.5667 197.855 63.716C198.271 63.8547 198.665 63.972 199.039 64.068C199.412 64.1533 199.764 64.2227 200.095 64.276C200.425 64.3187 200.735 64.34 201.023 64.34C201.428 64.34 201.716 64.4467 201.887 64.66C202.057 64.8627 202.143 65.1187 202.143 65.428C202.143 65.7587 202.031 66.036 201.807 66.26C201.583 66.4733 201.268 66.58 200.863 66.58C200.777 66.58 200.692 66.58 200.607 66.58C200.532 66.58 200.452 66.58 200.367 66.58C200.292 66.58 200.212 66.58 200.127 66.58C200.148 66.6867 200.159 66.7773 200.159 66.852C200.159 66.9373 200.159 67.0173 200.159 67.092C200.159 67.444 200.036 67.8013 199.791 68.164C199.556 68.5267 199.188 68.8627 198.687 69.172C198.185 69.4813 197.545 69.7267 196.767 69.908C195.999 70.1 195.081 70.196 194.015 70.196C192.863 70.196 191.871 70.0467 191.039 69.748C190.217 69.46 189.583 69.0067 189.135 68.388C188.697 67.78 188.479 67.0013 188.479 66.052ZM195.583 73.908C195.273 73.908 195.007 73.796 194.783 73.572C194.569 73.3587 194.463 73.1027 194.463 72.804C194.463 72.4947 194.569 72.228 194.783 72.004C195.007 71.78 195.273 71.668 195.583 71.668C195.881 71.668 196.137 71.78 196.351 72.004C196.564 72.228 196.671 72.4947 196.671 72.804C196.671 73.1027 196.564 73.3587 196.351 73.572C196.137 73.796 195.881 73.908 195.583 73.908ZM192.815 73.908C192.505 73.908 192.239 73.796 192.015 73.572C191.801 73.3587 191.695 73.1027 191.695 72.804C191.695 72.4947 191.801 72.228 192.015 72.004C192.239 71.78 192.505 71.668 192.815 71.668C193.113 71.668 193.369 71.78 193.583 72.004C193.796 72.228 193.903 72.4947 193.903 72.804C193.903 73.1027 193.796 73.3587 193.583 73.572C193.369 73.796 193.113 73.908 192.815 73.908ZM200.795 66.58L200.955 64.34C201.702 64.34 202.374 64.292 202.971 64.196C203.569 64.0893 204.091 63.9507 204.539 63.78C204.998 63.6093 205.377 63.412 205.675 63.188C205.985 62.964 206.214 62.7293 206.363 62.484C206.523 62.228 206.603 61.9773 206.603 61.732C206.603 61.5933 206.566 61.4653 206.491 61.348C206.427 61.22 206.315 61.1187 206.155 61.044C205.995 60.9587 205.777 60.916 205.499 60.916C205.361 60.916 205.195 60.932 205.003 60.964C204.811 60.996 204.619 61.044 204.427 61.108C204.235 61.1613 204.054 61.236 203.883 61.332C204.107 61.5027 204.353 61.7213 204.619 61.988C204.886 62.244 205.153 62.516 205.419 62.804C205.686 63.0813 205.915 63.3533 206.107 63.62C206.331 63.716 206.577 63.812 206.843 63.908C207.121 63.9933 207.419 64.068 207.739 64.132C208.059 64.196 208.395 64.2493 208.747 64.292C209.099 64.324 209.462 64.34 209.835 64.34C210.241 64.34 210.529 64.4467 210.699 64.66C210.881 64.8627 210.971 65.1187 210.971 65.428C210.971 65.7587 210.859 66.036 210.635 66.26C210.411 66.4733 210.091 66.58 209.675 66.58C208.822 66.58 208.065 66.516 207.403 66.388C206.742 66.2493 206.15 66.052 205.627 65.796C205.115 65.5293 204.635 65.2093 204.187 64.836C204.059 64.612 203.878 64.372 203.643 64.116C203.419 63.8493 203.179 63.5933 202.923 63.348C202.678 63.1027 202.454 62.9 202.251 62.74C202.198 62.6973 202.134 62.5853 202.059 62.404C201.995 62.212 201.937 62.0147 201.883 61.812C201.83 61.5987 201.803 61.4493 201.803 61.364C201.803 61.1187 201.915 60.8573 202.139 60.58C202.374 60.3027 202.683 60.0467 203.067 59.812C203.462 59.5667 203.894 59.3693 204.363 59.22C204.843 59.06 205.329 58.98 205.819 58.98C206.481 58.98 207.03 59.0813 207.467 59.284C207.915 59.476 208.251 59.748 208.475 60.1C208.699 60.4413 208.811 60.8413 208.811 61.3C208.811 61.812 208.699 62.324 208.475 62.836C208.251 63.3373 207.921 63.812 207.483 64.26C207.057 64.708 206.518 65.108 205.867 65.46C205.227 65.8013 204.481 66.0733 203.627 66.276C202.785 66.4787 201.841 66.58 200.795 66.58ZM205.643 57.492C205.313 57.492 205.03 57.38 204.795 57.156C204.571 56.932 204.459 56.6547 204.459 56.324C204.459 55.9933 204.571 55.7107 204.795 55.476C205.03 55.2413 205.313 55.124 205.643 55.124C205.963 55.124 206.235 55.2413 206.459 55.476C206.694 55.7107 206.811 55.9933 206.811 56.324C206.811 56.6547 206.694 56.932 206.459 57.156C206.235 57.38 205.963 57.492 205.643 57.492ZM209.688 66.58L209.848 64.34C210.349 64.34 210.701 64.292 210.904 64.196C211.117 64.0893 211.245 63.8973 211.288 63.62C211.33 63.332 211.341 62.916 211.32 62.372L211.064 54.788H213.336L213.608 62.356C213.629 62.8893 213.693 63.3 213.799 63.588C213.906 63.876 214.082 64.0733 214.328 64.18C214.584 64.2867 214.925 64.34 215.352 64.34C215.757 64.34 216.045 64.4467 216.216 64.66C216.386 64.8627 216.472 65.1187 216.472 65.428C216.472 65.7587 216.36 66.036 216.136 66.26C215.912 66.4733 215.597 66.58 215.192 66.58C214.722 66.58 214.285 66.5267 213.88 66.42C213.474 66.3133 213.138 66.1107 212.872 65.812C212.605 65.5133 212.429 65.0813 212.344 64.516L213.048 64.532C212.866 65.0867 212.632 65.5133 212.344 65.812C212.056 66.1 211.693 66.3027 211.256 66.42C210.829 66.5267 210.306 66.58 209.688 66.58ZM215.188 66.58L215.348 64.34C215.988 64.34 216.478 64.308 216.82 64.244C217.161 64.18 217.396 64.0627 217.524 63.892C217.662 63.7107 217.732 63.4547 217.732 63.124C217.732 62.8253 217.689 62.468 217.604 62.052C217.529 61.636 217.428 61.204 217.299 60.756C217.182 60.308 217.054 59.8973 216.916 59.524L219.124 58.916C219.262 59.2787 219.396 59.7 219.524 60.18C219.652 60.66 219.758 61.156 219.844 61.668C219.929 62.1693 219.972 62.6547 219.972 63.124C219.972 63.8493 219.854 64.4413 219.62 64.9C219.385 65.348 219.054 65.6947 218.628 65.94C218.212 66.1853 217.71 66.356 217.124 66.452C216.537 66.5373 215.891 66.58 215.188 66.58ZM219.14 70.292C218.83 70.292 218.564 70.18 218.34 69.956C218.126 69.7427 218.02 69.4867 218.02 69.188C218.02 68.8787 218.126 68.612 218.34 68.388C218.564 68.164 218.83 68.052 219.14 68.052C219.438 68.052 219.694 68.164 219.908 68.388C220.121 68.612 220.228 68.8787 220.228 69.188C220.228 69.4867 220.121 69.7427 219.908 69.956C219.694 70.18 219.438 70.292 219.14 70.292ZM216.372 70.292C216.062 70.292 215.796 70.18 215.572 69.956C215.358 69.7427 215.252 69.4867 215.252 69.188C215.252 68.8787 215.358 68.612 215.572 68.388C215.796 68.164 216.062 68.052 216.372 68.052C216.67 68.052 216.926 68.164 217.14 68.388C217.353 68.612 217.46 68.8787 217.46 69.188C217.46 69.4867 217.353 69.7427 217.14 69.956C216.926 70.18 216.67 70.292 216.372 70.292Z" fill="#111111"/>
<rect x="68" y="95" width="91" height="48" rx="24" fill="#005C62"/>
<rect x="68" y="95" width="91" height="48" rx="24" fill="black" fill-opacity="0.2"/>
<path fill-rule="evenodd" clip-rule="evenodd" d="M95.3884 125C95.1043 125 94.8198 124.89 94.6024 124.671L89 119L94.6024 113.33C95.0362 112.89 95.7406 112.89 96.1743 113.33C96.6086 113.769 96.6086 114.481 96.1743 114.921L92.1443 119L96.1743 123.08C96.6086 123.519 96.6086 124.231 96.1743 124.671C95.9575 124.89 95.6729 125 95.3884 125Z" fill="white"/>
<path d="M110.695 121.672L110.211 124.5H108.023L108.68 121.266C108.867 120.37 109.039 119.732 109.195 119.352C109.352 118.966 109.544 118.661 109.773 118.438C110.008 118.208 110.331 118.005 110.742 117.828L108.484 114.805H111.047L114.211 119.188C114.539 118.891 114.789 118.542 114.961 118.141C115.133 117.74 115.255 117.198 115.328 116.516L115.492 114.805H117.648L117.461 116.656C117.404 117.182 117.299 117.648 117.148 118.055C117.044 118.331 116.917 118.591 116.766 118.836C116.615 119.076 116.417 119.331 116.172 119.602C115.932 119.867 115.615 120.177 115.219 120.531L118.133 124.5H115.586L111.688 119.094C111.411 119.255 111.214 119.49 111.094 119.797C111.036 119.953 110.974 120.188 110.906 120.5C110.839 120.812 110.768 121.203 110.695 121.672ZM128.109 122.609V124.5H119.07V122.609H124.961V119.156C124.961 118.245 124.789 117.607 124.445 117.242C124.107 116.878 123.526 116.695 122.703 116.695H119.438V114.805H122.734C124.255 114.805 125.357 115.122 126.039 115.758C126.727 116.393 127.07 117.435 127.07 118.883V122.609H128.109ZM138.219 118.883V124.5H136.102V118.867C136.102 118.07 135.932 117.51 135.594 117.188C135.255 116.859 134.667 116.695 133.828 116.695H129.867V114.805H133.961C134.987 114.805 135.81 114.943 136.43 115.219C137.055 115.495 137.508 115.932 137.789 116.531C138.076 117.125 138.219 117.909 138.219 118.883ZM132.133 118.609V124.5H130.023V118.609H132.133Z" fill="white"/>
<rect x="167" y="95" width="75" height="48" rx="24" fill="#A1E5E1"/>
<path d="M184.68 122.695C185.951 122.279 186.977 121.753 187.758 121.117C188.299 120.685 188.714 120.214 189 119.703C189.286 119.188 189.43 118.648 189.43 118.086C189.43 117.159 188.849 116.695 187.688 116.695H183.719V111.492H185.875V114.805H188.039C190.383 114.805 191.555 115.828 191.555 117.875C191.555 118.854 191.323 119.771 190.859 120.625C190.401 121.474 189.745 122.232 188.891 122.898C187.766 123.773 186.362 124.461 184.68 124.961V122.695ZM200.133 119.141C200.133 118.266 199.966 117.641 199.633 117.266C199.299 116.885 198.716 116.695 197.883 116.695H195.797V124.5H193.688V114.805H197.883C199.424 114.805 200.536 115.125 201.219 115.766C201.906 116.401 202.25 117.44 202.25 118.883V124.5H200.133V119.141ZM207.383 122.953C207.174 123.49 206.854 123.883 206.422 124.133C205.99 124.378 205.362 124.5 204.539 124.5H204.008V122.609H204.141C204.5 122.609 204.786 122.542 205 122.406C205.208 122.271 205.357 122.065 205.445 121.789C205.534 121.508 205.578 121.083 205.578 120.516V116.695H204.094V114.805H209.531C211.031 114.805 212.107 115.122 212.758 115.758C213.414 116.388 213.742 117.435 213.742 118.898V124.5H211.625V118.93C211.625 118.096 211.456 117.516 211.117 117.188C210.779 116.859 210.208 116.695 209.406 116.695H207.688V120.789C207.688 121.69 207.586 122.411 207.383 122.953ZM224.555 118.883V124.5H222.438V118.867C222.438 118.07 222.268 117.51 221.93 117.188C221.591 116.859 221.003 116.695 220.164 116.695H216.203V114.805H220.297C221.323 114.805 222.146 114.943 222.766 115.219C223.391 115.495 223.844 115.932 224.125 116.531C224.411 117.125 224.555 117.909 224.555 118.883ZM218.469 118.609V124.5H216.359V118.609H218.469Z" fill="#111111"/>
</svg>
