<svg width="312" height="180" viewBox="0 0 312 180" fill="none" xmlns="http://www.w3.org/2000/svg">
<rect width="312" height="180" fill="none"/>
<path opacity="0.6" d="M127.126 86.0427V99.4965H149.325C148.374 108.257 141.925 114.202 130.403 114.202C116.555 114.202 108.415 104.398 108.415 88.8586C108.415 73.0059 117.718 64.6625 130.72 64.6625C139.917 64.6625 146.154 68.7299 149.325 76.1348L163.385 69.2514C158.522 57.6748 146.471 51 130.297 51C108.838 51 92.9814 66.644 92.9814 88.8586C92.9814 111.907 107.57 127.447 127.549 127.447C138.86 127.447 147.422 123.588 151.122 115.141V125.987H163.808V86.0427H127.126Z" fill="#009990"/>
<g opacity="0.8">
<path d="M208.777 84.4844C202.052 84.4844 196.447 87.0321 193.899 92.0255V85.9111H180.142V151.641H193.899V127.999C196.447 132.992 202.052 135.845 208.777 135.845C222.229 135.845 231.197 125.553 231.197 110.165C231.197 94.777 222.229 84.4844 208.777 84.4844ZM205.211 122.699C198.281 122.699 193.491 117.604 193.491 110.165C193.491 102.726 198.281 97.6304 205.211 97.6304C212.242 97.6304 216.93 102.726 216.93 110.165C216.93 117.604 212.242 122.699 205.211 122.699Z" fill="#005C62"/>
<path d="M208.777 84.4844C202.052 84.4844 196.447 87.0321 193.899 92.0255V85.9111H180.142V151.641H193.899V127.999C196.447 132.992 202.052 135.845 208.777 135.845C222.229 135.845 231.197 125.553 231.197 110.165C231.197 94.777 222.229 84.4844 208.777 84.4844ZM205.211 122.699C198.281 122.699 193.491 117.604 193.491 110.165C193.491 102.726 198.281 97.6304 205.211 97.6304C212.242 97.6304 216.93 102.726 216.93 110.165C216.93 117.604 212.242 122.699 205.211 122.699Z" fill="black" fill-opacity="0.2"/>
</g>
<line x1="59" y1="127" x2="254" y2="127" stroke="#009990" stroke-width="2" stroke-linecap="round" stroke-dasharray="7.23 7.23"/>
<line x1="59" y1="56" x2="254" y2="56" stroke="#009990" stroke-width="2" stroke-linecap="round" stroke-dasharray="7.23 7.23"/>
<path fill-rule="evenodd" clip-rule="evenodd" d="M58 93C58 92.4477 58.4477 92 59 92L62.75 92C63.3023 92 63.75 92.4477 63.75 93C63.75 93.5523 63.3023 94 62.75 94L59 94C58.4477 94 58 93.5523 58 93ZM69.25 93C69.25 92.4477 69.6977 92 70.25 92L77.75 92C78.3023 92 78.75 92.4477 78.75 93C78.75 93.5523 78.3023 94 77.75 94L70.25 94C69.6977 94 69.25 93.5523 69.25 93ZM84.25 93C84.25 92.4477 84.6977 92 85.25 92L92.75 92C93.3023 92 93.75 92.4477 93.75 93C93.75 93.5523 93.3023 94 92.75 94L85.25 94C84.6977 94 84.25 93.5523 84.25 93ZM99.25 93C99.25 92.4477 99.6977 92 100.25 92L107.75 92C108.302 92 108.75 92.4477 108.75 93C108.75 93.5523 108.302 94 107.75 94L100.25 94C99.6977 94 99.25 93.5523 99.25 93ZM114.25 93C114.25 92.4477 114.698 92 115.25 92L122.75 92C123.302 92 123.75 92.4477 123.75 93C123.75 93.5523 123.302 94 122.75 94L115.25 94C114.698 94 114.25 93.5523 114.25 93ZM129.25 93C129.25 92.4477 129.698 92 130.25 92L137.75 92C138.302 92 138.75 92.4477 138.75 93C138.75 93.5523 138.302 94 137.75 94L130.25 94C129.698 94 129.25 93.5523 129.25 93ZM144.25 93C144.25 92.4477 144.698 92 145.25 92L152.75 92C153.302 92 153.75 92.4477 153.75 93C153.75 93.5523 153.302 94 152.75 94L145.25 94C144.698 94 144.25 93.5523 144.25 93ZM174.25 93C174.25 92.4477 174.698 92 175.25 92L182.75 92C183.302 92 183.75 92.4477 183.75 93C183.75 93.5523 183.302 94 182.75 94L175.25 94C174.698 94 174.25 93.5523 174.25 93ZM189.25 93C189.25 92.4477 189.698 92 190.25 92L197.75 92C198.302 92 198.75 92.4477 198.75 93C198.75 93.5523 198.302 94 197.75 94L190.25 94C189.698 94 189.25 93.5523 189.25 93ZM204.25 93C204.25 92.4477 204.698 92 205.25 92L212.75 92C213.302 92 213.75 92.4477 213.75 93C213.75 93.5523 213.302 94 212.75 94L205.25 94C204.698 94 204.25 93.5523 204.25 93ZM219.25 93C219.25 92.4477 219.698 92 220.25 92L227.75 92C228.302 92 228.75 92.4477 228.75 93C228.75 93.5523 228.302 94 227.75 94L220.25 94C219.698 94 219.25 93.5523 219.25 93ZM234.25 93C234.25 92.4477 234.698 92 235.25 92L242.75 92C243.302 92 243.75 92.4477 243.75 93C243.75 93.5523 243.302 94 242.75 94L235.25 94C234.698 94 234.25 93.5523 234.25 93ZM249.25 93C249.25 92.4477 249.698 92 250.25 92L254 92C254.552 92 255 92.4477 255 93C255 93.5523 254.552 94 254 94L250.25 94C249.698 94 249.25 93.5523 249.25 93Z" fill="#009990"/>
<circle cx="163" cy="87" r="8" stroke="#003440" stroke-width="2"/>
</svg>
