<svg width="325" height="180" viewBox="0 0 325 180" fill="none" xmlns="http://www.w3.org/2000/svg">
<rect width="325" height="180" fill="#005C62"/>
<path fill-rule="evenodd" clip-rule="evenodd" d="M170 88H164V93.334L169.6 100.8C170.262 101.684 170.084 102.938 169.2 103.6C168.84 103.87 168.418 104 168.002 104C167.394 104 166.792 103.724 166.4 103.2L162 97.334L157.6 103.2C156.938 104.084 155.686 104.264 154.8 103.6C153.916 102.938 153.738 101.684 154.4 100.8L160 93.334V88H154C152.896 88 152 87.104 152 86C152 84.896 152.896 84 154 84H170C171.104 84 172 84.896 172 86C172 87.104 171.104 88 170 88ZM162 74C164.208 74 166 75.792 166 78C166 80.21 164.208 82 162 82C159.792 82 158 80.21 158 78C158 75.792 159.792 74 162 74ZM162 66C148.746 66 138 76.746 138 90C138 103.256 148.746 114 162 114C175.254 114 186 103.256 186 90C186 76.746 175.254 66 162 66Z" fill="#F6FDF5"/>
<path d="M0 0V-2H-2V0H0ZM325 0H327V-2H325V0ZM325 180V182H327V180H325ZM0 180H-2V182H0V180ZM0 2H325V-2H0V2ZM323 0V180H327V0H323ZM325 178H0V182H325V178ZM2 180V0H-2V180H2Z" fill="#767676"/>
</svg>
