<svg width="325" height="180" viewBox="0 0 325 180" fill="none" xmlns="http://www.w3.org/2000/svg">
<g clip-path="url(#clip0_102_2193)">
<rect width="325" height="180" fill="#005C62"/>
<circle cx="42.5" cy="45.5" r="60.5" fill="#CCF6EE"/>
<circle cx="289.5" cy="165.5" r="53.5" fill="#CCF6EE"/>
<path d="M12 191.5C12 224.913 39.3106 252 73 252V131C39.3106 131 12 158.087 12 191.5Z" fill="#003440"/>
<path d="M246 7.5C246 51.4066 281.817 87 326 87V-72C281.817 -72 246 -36.4066 246 7.5Z" fill="#003440"/>
<path d="M221 96.5C221 41.5477 176.676 -2.99999 122 -2.99999L122 196C176.676 196 221 151.452 221 96.5Z" fill="#009990"/>
</g>
<path d="M0 0V-2H-2V0H0ZM325 0H327V-2H325V0ZM325 180V182H327V180H325ZM0 180H-2V182H0V180ZM0 2H325V-2H0V2ZM323 0V180H327V0H323ZM325 178H0V182H325V178ZM2 180V0H-2V180H2Z" fill="#767676"/>
<defs>
<clipPath id="clip0_102_2193">
<path d="M0 0H325V180H0V0Z" fill="white"/>
</clipPath>
</defs>
</svg>
