<svg width="325" height="180" viewBox="0 0 325 180" fill="none" xmlns="http://www.w3.org/2000/svg">
<rect width="325" height="180" fill="#005C62"/>
<path fill-rule="evenodd" clip-rule="evenodd" d="M103 88C101.344 88 100 86.658 100 85C100 83.342 101.344 82 103 82C104.656 82 106 83.342 106 85C106 86.658 104.656 88 103 88ZM103.898 99.9C101.258 102.544 97.742 104 94 104C90.264 104 86.748 102.544 84.104 99.904C83.322 99.122 83.322 97.856 84.104 97.076C84.884 96.292 86.15 96.294 86.932 97.074C88.82 98.96 91.33 100 94 100C96.672 100 99.184 98.96 101.07 97.072C101.852 96.29 103.118 96.292 103.898 97.07C104.68 97.852 104.68 99.118 103.898 99.9ZM82 85C82 83.342 83.344 82 85 82C86.656 82 88 83.342 88 85C88 86.658 86.656 88 85 88C83.344 88 82 86.658 82 85ZM94 66C80.746 66 70 76.746 70 90C70 103.254 80.746 114 94 114C107.254 114 118 103.254 118 90C118 76.746 107.254 66 94 66Z" fill="#F6FDF5"/>
<path fill-rule="evenodd" clip-rule="evenodd" d="M174 94C174 89.77 171.806 86.06 168.5 83.922V70.746C170.524 70.106 172 68.236 172 66H152C152 68.236 153.476 70.106 155.5 70.746V83.922C152.194 86.06 150 89.77 150 94H160V109.112C160 111.016 160.766 112.738 162 114C163.234 112.738 164 111.016 164 109.112V94H174Z" fill="#F6FDF5"/>
<path fill-rule="evenodd" clip-rule="evenodd" d="M206 90C206 100.246 212.422 108.994 221.46 112.436C221.24 110.562 221.006 107.472 221.51 105.304C221.944 103.44 224.312 93.428 224.312 93.428C224.312 93.428 223.598 91.998 223.598 89.88C223.598 86.56 225.522 84.08 227.92 84.08C229.96 84.08 230.944 85.61 230.944 87.444C230.944 89.494 229.638 92.558 228.964 95.4C228.402 97.778 230.158 99.718 232.502 99.718C236.748 99.718 240.014 95.24 240.014 88.776C240.014 83.054 235.902 79.056 230.032 79.056C223.236 79.056 219.246 84.154 219.246 89.424C219.246 91.478 220.036 93.678 221.024 94.876C221.218 95.114 221.248 95.32 221.19 95.562C221.008 96.318 220.604 97.94 220.526 98.272C220.42 98.708 220.18 98.802 219.726 98.59C216.742 97.202 214.878 92.84 214.878 89.336C214.878 81.798 220.352 74.878 230.662 74.878C238.95 74.878 245.392 80.784 245.392 88.676C245.392 96.91 240.202 103.538 232.994 103.538C230.572 103.538 228.298 102.278 227.518 100.792C227.518 100.792 226.32 105.356 226.03 106.472C225.466 108.64 223.902 111.384 222.932 112.942C225.168 113.63 227.54 114 230 114C243.254 114 254 103.254 254 90C254 76.746 243.254 66 230 66C216.746 66 206 76.746 206 90Z" fill="#F6FDF5"/>
</svg>
