<svg width="325" height="180" viewBox="0 0 325 180" fill="none" xmlns="http://www.w3.org/2000/svg">
<rect width="325" height="180" fill="#005C62"/>
<path d="M52 58C52 52.4772 56.4772 48 62 48H262C267.523 48 272 52.4772 272 58V70C272 75.5228 267.523 80 262 80H62C56.4772 80 52 75.5228 52 70V58Z" fill="white"/>
<path d="M51 127C51 121.477 55.4772 117 61 117H261C266.523 117 271 121.477 271 127V139C271 144.523 266.523 149 261 149H61C55.4772 149 51 144.523 51 139V127Z" fill="white"/>
<path fill-rule="evenodd" clip-rule="evenodd" d="M51 59C51 52.9249 55.9249 48 62 48H262C268.075 48 273 52.9249 273 59V71C273 77.0751 268.075 82 262 82H62C55.9249 82 51 77.0751 51 71V59ZM62 50C57.0294 50 53 54.0294 53 59V71C53 75.9706 57.0294 80 62 80H262C266.971 80 271 75.9706 271 71V59C271 54.0294 266.971 50 262 50H62Z" fill="#009990"/>
<path fill-rule="evenodd" clip-rule="evenodd" d="M51 127C51 120.925 55.9249 116 62 116H262C268.075 116 273 120.925 273 127V139C273 145.075 268.075 150 262 150H62C55.9249 150 51 145.075 51 139V127ZM62 118C57.0294 118 53 122.029 53 127V139C53 143.971 57.0294 148 62 148H262C266.971 148 271 143.971 271 139V127C271 122.029 266.971 118 262 118H62Z" fill="#009990"/>
<path fill-rule="evenodd" clip-rule="evenodd" d="M260.76 61.8797L256 66.5814L251.241 61.8797C250.727 61.3734 249.897 61.3734 249.384 61.8797C248.871 62.3855 248.871 63.208 249.384 63.7143L256 70.25L262.615 63.7143C262.871 63.4606 263 63.1281 263 62.7967C263 62.4648 262.871 62.1329 262.615 61.8797C262.359 61.6266 262.023 61.5 261.687 61.5C261.351 61.5 261.016 61.6266 260.76 61.8797Z" fill="#005C62"/>
<path fill-rule="evenodd" clip-rule="evenodd" d="M260.76 129.88L256 134.581L251.241 129.88C250.727 129.373 249.897 129.373 249.384 129.88C248.871 130.385 248.871 131.208 249.384 131.714L256 138.25L262.615 131.714C262.871 131.461 263 131.128 263 130.797C263 130.465 262.871 130.133 262.615 129.88C262.359 129.627 262.023 129.5 261.687 129.5C261.351 129.5 261.016 129.627 260.76 129.88Z" fill="#005C62"/>
<rect x="68" y="60" width="120" height="8" rx="4" fill="#009990" fill-opacity="0.5"/>
<rect x="67" y="129" width="120" height="8" rx="4" fill="#009990" fill-opacity="0.5"/>
<rect x="53" y="32" width="100" height="8" rx="4" fill="#009990" fill-opacity="0.5"/>
<rect x="52" y="101" width="100" height="8" rx="4" fill="#009990" fill-opacity="0.5"/>
<path d="M0 0V-2H-2V0H0ZM325 0H327V-2H325V0ZM325 180V182H327V180H325ZM0 180H-2V182H0V180ZM0 2H325V-2H0V2ZM323 0V180H327V0H323ZM325 178H0V182H325V178ZM2 180V0H-2V180H2Z" fill="#767676"/>
</svg>
