<svg width="325" height="180" viewBox="0 0 325 180" fill="none" xmlns="http://www.w3.org/2000/svg">
<g clip-path="url(#clip0_102_1915)">
<rect width="325" height="180" fill="#005C62"/>
<path fill-rule="evenodd" clip-rule="evenodd" d="M49 30C49 29.4477 49.4477 29 50 29H53.986C54.5383 29 54.986 29.4477 54.986 30C54.986 30.5523 54.5383 31 53.986 31H51V34.1C51 34.6523 50.5523 35.1 50 35.1C49.4477 35.1 49 34.6523 49 34.1V30ZM60.9582 30C60.9582 29.4477 61.4059 29 61.9582 29H69.9304C70.4827 29 70.9304 29.4477 70.9304 30C70.9304 30.5523 70.4827 31 69.9304 31H61.9582C61.4059 31 60.9582 30.5523 60.9582 30ZM76.9027 30C76.9027 29.4477 77.3504 29 77.9027 29H85.8749C86.4272 29 86.8749 29.4477 86.8749 30C86.8749 30.5523 86.4272 31 85.8749 31H77.9027C77.3504 31 76.9027 30.5523 76.9027 30ZM92.8471 30C92.8471 29.4477 93.2949 29 93.8471 29H101.819C102.372 29 102.819 29.4477 102.819 30C102.819 30.5523 102.372 31 101.819 31H93.8471C93.2949 31 92.8471 30.5523 92.8471 30ZM108.792 30C108.792 29.4477 109.239 29 109.792 29H117.764C118.316 29 118.764 29.4477 118.764 30C118.764 30.5523 118.316 31 117.764 31H109.792C109.239 31 108.792 30.5523 108.792 30ZM124.736 30C124.736 29.4477 125.184 29 125.736 29H133.708C134.261 29 134.708 29.4477 134.708 30C134.708 30.5523 134.261 31 133.708 31H125.736C125.184 31 124.736 30.5523 124.736 30ZM140.681 30C140.681 29.4477 141.128 29 141.681 29H149.653C150.205 29 150.653 29.4477 150.653 30C150.653 30.5523 150.205 31 149.653 31H141.681C141.128 31 140.681 30.5523 140.681 30ZM156.625 30C156.625 29.4477 157.073 29 157.625 29H165.597C166.149 29 166.597 29.4477 166.597 30C166.597 30.5523 166.149 31 165.597 31H157.625C157.073 31 156.625 30.5523 156.625 30ZM172.569 30C172.569 29.4477 173.017 29 173.569 29H181.542C182.094 29 182.542 29.4477 182.542 30C182.542 30.5523 182.094 31 181.542 31H173.569C173.017 31 172.569 30.5523 172.569 30ZM188.514 30C188.514 29.4477 188.962 29 189.514 29H197.486C198.038 29 198.486 29.4477 198.486 30C198.486 30.5523 198.038 31 197.486 31H189.514C188.962 31 188.514 30.5523 188.514 30ZM204.458 30C204.458 29.4477 204.906 29 205.458 29H213.431C213.983 29 214.431 29.4477 214.431 30C214.431 30.5523 213.983 31 213.431 31H205.458C204.906 31 204.458 30.5523 204.458 30ZM220.403 30C220.403 29.4477 220.85 29 221.403 29H229.375C229.927 29 230.375 29.4477 230.375 30C230.375 30.5523 229.927 31 229.375 31H221.403C220.85 31 220.403 30.5523 220.403 30ZM236.347 30C236.347 29.4477 236.795 29 237.347 29H245.319C245.872 29 246.319 29.4477 246.319 30C246.319 30.5523 245.872 31 245.319 31H237.347C236.795 31 236.347 30.5523 236.347 30ZM252.292 30C252.292 29.4477 252.739 29 253.292 29H261.264C261.816 29 262.264 29.4477 262.264 30C262.264 30.5523 261.816 31 261.264 31H253.292C252.739 31 252.292 30.5523 252.292 30ZM268.236 30C268.236 29.4477 268.684 29 269.236 29H277.208C277.761 29 278.208 29.4477 278.208 30C278.208 30.5523 277.761 31 277.208 31H269.236C268.684 31 268.236 30.5523 268.236 30ZM284.181 30C284.181 29.4477 284.628 29 285.181 29H293.153C293.705 29 294.153 29.4477 294.153 30C294.153 30.5523 293.705 31 293.153 31H285.181C284.628 31 284.181 30.5523 284.181 30ZM300.125 30C300.125 29.4477 300.573 29 301.125 29H309.097C309.65 29 310.097 29.4477 310.097 30C310.097 30.5523 309.65 31 309.097 31H301.125C300.573 31 300.125 30.5523 300.125 30ZM316.069 30C316.069 29.4477 316.517 29 317.069 29H325.042C325.594 29 326.042 29.4477 326.042 30C326.042 30.5523 325.594 31 325.042 31H317.069C316.517 31 316.069 30.5523 316.069 30ZM332.014 30C332.014 29.4477 332.462 29 333.014 29H337C337.552 29 338 29.4477 338 30V34.1C338 34.6523 337.552 35.1 337 35.1C336.448 35.1 336 34.6523 336 34.1V31H333.014C332.462 31 332.014 30.5523 332.014 30ZM50 41.3C50.5523 41.3 51 41.7477 51 42.3V50.5C51 51.0523 50.5523 51.5 50 51.5C49.4477 51.5 49 51.0523 49 50.5V42.3C49 41.7477 49.4477 41.3 50 41.3ZM337 41.3C337.552 41.3 338 41.7477 338 42.3V50.5C338 51.0523 337.552 51.5 337 51.5C336.448 51.5 336 51.0523 336 50.5V42.3C336 41.7477 336.448 41.3 337 41.3ZM50 57.7C50.5523 57.7 51 58.1477 51 58.7V66.9C51 67.4523 50.5523 67.9 50 67.9C49.4477 67.9 49 67.4523 49 66.9V58.7C49 58.1477 49.4477 57.7 50 57.7ZM337 57.7C337.552 57.7 338 58.1477 338 58.7V66.9C338 67.4523 337.552 67.9 337 67.9C336.448 67.9 336 67.4523 336 66.9V58.7C336 58.1477 336.448 57.7 337 57.7ZM50 74.1C50.5523 74.1 51 74.5477 51 75.1V83.3C51 83.8523 50.5523 84.3 50 84.3C49.4477 84.3 49 83.8523 49 83.3V75.1C49 74.5477 49.4477 74.1 50 74.1ZM337 74.1C337.552 74.1 338 74.5477 338 75.1V83.3C338 83.8523 337.552 84.3 337 84.3C336.448 84.3 336 83.8523 336 83.3V75.1C336 74.5477 336.448 74.1 337 74.1ZM50 90.5C50.5523 90.5 51 90.9477 51 91.5V99.7C51 100.252 50.5523 100.7 50 100.7C49.4477 100.7 49 100.252 49 99.7V91.5C49 90.9477 49.4477 90.5 50 90.5ZM337 90.5C337.552 90.5 338 90.9477 338 91.5V99.7C338 100.252 337.552 100.7 337 100.7C336.448 100.7 336 100.252 336 99.7V91.5C336 90.9477 336.448 90.5 337 90.5ZM50 106.9C50.5523 106.9 51 107.348 51 107.9V116.1C51 116.652 50.5523 117.1 50 117.1C49.4477 117.1 49 116.652 49 116.1V107.9C49 107.348 49.4477 106.9 50 106.9ZM337 106.9C337.552 106.9 338 107.348 338 107.9V116.1C338 116.652 337.552 117.1 337 117.1C336.448 117.1 336 116.652 336 116.1V107.9C336 107.348 336.448 106.9 337 106.9ZM50 123.3C50.5523 123.3 51 123.748 51 124.3V132.5C51 133.052 50.5523 133.5 50 133.5C49.4477 133.5 49 133.052 49 132.5V124.3C49 123.748 49.4477 123.3 50 123.3ZM337 123.3C337.552 123.3 338 123.748 338 124.3V132.5C338 133.052 337.552 133.5 337 133.5C336.448 133.5 336 133.052 336 132.5V124.3C336 123.748 336.448 123.3 337 123.3ZM50 139.7C50.5523 139.7 51 140.148 51 140.7V148.9C51 149.452 50.5523 149.9 50 149.9C49.4477 149.9 49 149.452 49 148.9V140.7C49 140.148 49.4477 139.7 50 139.7ZM337 139.7C337.552 139.7 338 140.148 338 140.7V148.9C338 149.452 337.552 149.9 337 149.9C336.448 149.9 336 149.452 336 148.9V140.7C336 140.148 336.448 139.7 337 139.7ZM50 156.1C50.5523 156.1 51 156.548 51 157.1V165.3C51 165.852 50.5523 166.3 50 166.3C49.4477 166.3 49 165.852 49 165.3V157.1C49 156.548 49.4477 156.1 50 156.1ZM337 156.1C337.552 156.1 338 156.548 338 157.1V165.3C338 165.852 337.552 166.3 337 166.3C336.448 166.3 336 165.852 336 165.3V157.1C336 156.548 336.448 156.1 337 156.1ZM50 172.5C50.5523 172.5 51 172.948 51 173.5V181.7C51 182.252 50.5523 182.7 50 182.7C49.4477 182.7 49 182.252 49 181.7V173.5C49 172.948 49.4477 172.5 50 172.5ZM337 172.5C337.552 172.5 338 172.948 338 173.5V181.7C338 182.252 337.552 182.7 337 182.7C336.448 182.7 336 182.252 336 181.7V173.5C336 172.948 336.448 172.5 337 172.5ZM50 188.9C50.5523 188.9 51 189.348 51 189.9V193H53.9861C54.5384 193 54.9861 193.448 54.9861 194C54.9861 194.552 54.5384 195 53.9861 195H50C49.4477 195 49 194.552 49 194V189.9C49 189.348 49.4477 188.9 50 188.9ZM337 188.9C337.552 188.9 338 189.348 338 189.9V194C338 194.552 337.552 195 337 195H333.014C332.462 195 332.014 194.552 332.014 194C332.014 193.448 332.462 193 333.014 193H336V189.9C336 189.348 336.448 188.9 337 188.9ZM60.9583 194C60.9583 193.448 61.406 193 61.9583 193H69.9306C70.4828 193 70.9306 193.448 70.9306 194C70.9306 194.552 70.4828 195 69.9306 195H61.9583C61.406 195 60.9583 194.552 60.9583 194ZM76.9028 194C76.9028 193.448 77.3505 193 77.9028 193H85.875C86.4273 193 86.875 193.448 86.875 194C86.875 194.552 86.4273 195 85.875 195H77.9028C77.3505 195 76.9028 194.552 76.9028 194ZM92.8472 194C92.8472 193.448 93.2949 193 93.8472 193H101.819C102.372 193 102.819 193.448 102.819 194C102.819 194.552 102.372 195 101.819 195H93.8472C93.2949 195 92.8472 194.552 92.8472 194ZM108.792 194C108.792 193.448 109.239 193 109.792 193H117.764C118.316 193 118.764 193.448 118.764 194C118.764 194.552 118.316 195 117.764 195H109.792C109.239 195 108.792 194.552 108.792 194ZM124.736 194C124.736 193.448 125.184 193 125.736 193H133.708C134.261 193 134.708 193.448 134.708 194C134.708 194.552 134.261 195 133.708 195H125.736C125.184 195 124.736 194.552 124.736 194ZM140.681 194C140.681 193.448 141.128 193 141.681 193H149.653C150.205 193 150.653 193.448 150.653 194C150.653 194.552 150.205 195 149.653 195H141.681C141.128 195 140.681 194.552 140.681 194ZM156.625 194C156.625 193.448 157.073 193 157.625 193H165.597C166.15 193 166.597 193.448 166.597 194C166.597 194.552 166.15 195 165.597 195H157.625C157.073 195 156.625 194.552 156.625 194ZM172.569 194C172.569 193.448 173.017 193 173.569 193H181.542C182.094 193 182.542 193.448 182.542 194C182.542 194.552 182.094 195 181.542 195H173.569C173.017 195 172.569 194.552 172.569 194ZM188.514 194C188.514 193.448 188.962 193 189.514 193H197.486C198.038 193 198.486 193.448 198.486 194C198.486 194.552 198.038 195 197.486 195H189.514C188.962 195 188.514 194.552 188.514 194ZM204.458 194C204.458 193.448 204.906 193 205.458 193H213.431C213.983 193 214.431 193.448 214.431 194C214.431 194.552 213.983 195 213.431 195H205.458C204.906 195 204.458 194.552 204.458 194ZM220.403 194C220.403 193.448 220.851 193 221.403 193H229.375C229.927 193 230.375 193.448 230.375 194C230.375 194.552 229.927 195 229.375 195H221.403C220.851 195 220.403 194.552 220.403 194ZM236.347 194C236.347 193.448 236.795 193 237.347 193H245.319C245.872 193 246.319 193.448 246.319 194C246.319 194.552 245.872 195 245.319 195H237.347C236.795 195 236.347 194.552 236.347 194ZM252.292 194C252.292 193.448 252.739 193 253.292 193H261.264C261.816 193 262.264 193.448 262.264 194C262.264 194.552 261.816 195 261.264 195H253.292C252.739 195 252.292 194.552 252.292 194ZM268.236 194C268.236 193.448 268.684 193 269.236 193H277.208C277.761 193 278.208 193.448 278.208 194C278.208 194.552 277.761 195 277.208 195H269.236C268.684 195 268.236 194.552 268.236 194ZM284.181 194C284.181 193.448 284.628 193 285.181 193H293.153C293.705 193 294.153 193.448 294.153 194C294.153 194.552 293.705 195 293.153 195H285.181C284.628 195 284.181 194.552 284.181 194ZM300.125 194C300.125 193.448 300.573 193 301.125 193H309.097C309.65 193 310.097 193.448 310.097 194C310.097 194.552 309.65 195 309.097 195H301.125C300.573 195 300.125 194.552 300.125 194ZM316.07 194C316.07 193.448 316.517 193 317.07 193H325.042C325.594 193 326.042 193.448 326.042 194C326.042 194.552 325.594 195 325.042 195H317.07C316.517 195 316.07 194.552 316.07 194Z" fill="#F6FDF5"/>
<path fill-rule="evenodd" clip-rule="evenodd" d="M77 58C77 57.4477 77.4477 57 78 57H82.0469C82.5992 57 83.0469 57.4477 83.0469 58C83.0469 58.5523 82.5992 59 82.0469 59H79V61.7778C79 62.3301 78.5523 62.7778 78 62.7778C77.4477 62.7778 77 62.3301 77 61.7778V58ZM89.1406 58C89.1406 57.4477 89.5883 57 90.1406 57H98.2344C98.7867 57 99.2344 57.4477 99.2344 58C99.2344 58.5523 98.7867 59 98.2344 59H90.1406C89.5883 59 89.1406 58.5523 89.1406 58ZM105.328 58C105.328 57.4477 105.776 57 106.328 57H114.422C114.974 57 115.422 57.4477 115.422 58C115.422 58.5523 114.974 59 114.422 59H106.328C105.776 59 105.328 58.5523 105.328 58ZM121.516 58C121.516 57.4477 121.963 57 122.516 57H130.609C131.162 57 131.609 57.4477 131.609 58C131.609 58.5523 131.162 59 130.609 59H122.516C121.963 59 121.516 58.5523 121.516 58ZM137.703 58C137.703 57.4477 138.151 57 138.703 57H146.797C147.349 57 147.797 57.4477 147.797 58C147.797 58.5523 147.349 59 146.797 59H138.703C138.151 59 137.703 58.5523 137.703 58ZM153.891 58C153.891 57.4477 154.338 57 154.891 57H162.984C163.537 57 163.984 57.4477 163.984 58C163.984 58.5523 163.537 59 162.984 59H154.891C154.338 59 153.891 58.5523 153.891 58ZM170.078 58C170.078 57.4477 170.526 57 171.078 57H179.172C179.724 57 180.172 57.4477 180.172 58C180.172 58.5523 179.724 59 179.172 59H171.078C170.526 59 170.078 58.5523 170.078 58ZM186.266 58C186.266 57.4477 186.713 57 187.266 57H195.359C195.912 57 196.359 57.4477 196.359 58C196.359 58.5523 195.912 59 195.359 59H187.266C186.713 59 186.266 58.5523 186.266 58ZM202.453 58C202.453 57.4477 202.901 57 203.453 57H211.547C212.099 57 212.547 57.4477 212.547 58C212.547 58.5523 212.099 59 211.547 59H203.453C202.901 59 202.453 58.5523 202.453 58ZM218.641 58C218.641 57.4477 219.088 57 219.641 57H227.734C228.287 57 228.734 57.4477 228.734 58C228.734 58.5523 228.287 59 227.734 59H219.641C219.088 59 218.641 58.5523 218.641 58ZM234.828 58C234.828 57.4477 235.276 57 235.828 57H243.922C244.474 57 244.922 57.4477 244.922 58C244.922 58.5523 244.474 59 243.922 59H235.828C235.276 59 234.828 58.5523 234.828 58ZM251.016 58C251.016 57.4477 251.463 57 252.016 57H260.109C260.662 57 261.109 57.4477 261.109 58C261.109 58.5523 260.662 59 260.109 59H252.016C251.463 59 251.016 58.5523 251.016 58ZM267.203 58C267.203 57.4477 267.651 57 268.203 57H276.297C276.849 57 277.297 57.4477 277.297 58C277.297 58.5523 276.849 59 276.297 59H268.203C267.651 59 267.203 58.5523 267.203 58ZM283.391 58C283.391 57.4477 283.838 57 284.391 57H292.484C293.037 57 293.484 57.4477 293.484 58C293.484 58.5523 293.037 59 292.484 59H284.391C283.838 59 283.391 58.5523 283.391 58ZM299.578 58C299.578 57.4477 300.026 57 300.578 57H308.672C309.224 57 309.672 57.4477 309.672 58C309.672 58.5523 309.224 59 308.672 59H300.578C300.026 59 299.578 58.5523 299.578 58ZM315.766 58C315.766 57.4477 316.213 57 316.766 57H324.859C325.412 57 325.859 57.4477 325.859 58C325.859 58.5523 325.412 59 324.859 59H316.766C316.213 59 315.766 58.5523 315.766 58ZM331.953 58C331.953 57.4477 332.401 57 332.953 57H337C337.552 57 338 57.4477 338 58V61.7778C338 62.33 337.552 62.7778 337 62.7778C336.448 62.7778 336 62.33 336 61.7778V59H332.953C332.401 59 331.953 58.5523 331.953 58ZM337 68.3333C337.552 68.3333 338 68.781 338 69.3333V76.8889C338 77.4412 337.552 77.8889 337 77.8889C336.448 77.8889 336 77.4412 336 76.8889V69.3333C336 68.781 336.448 68.3333 337 68.3333ZM78 68.3333C78.5523 68.3333 79 68.781 79 69.3333V76.8889C79 77.4412 78.5523 77.8889 78 77.8889C77.4477 77.8889 77 77.4412 77 76.8889V69.3333C77 68.781 77.4477 68.3333 78 68.3333ZM337 83.4444C337.552 83.4444 338 83.8921 338 84.4444V92C338 92.5523 337.552 93 337 93C336.448 93 336 92.5523 336 92V84.4444C336 83.8921 336.448 83.4444 337 83.4444ZM78 83.4444C78.5523 83.4444 79 83.8922 79 84.4444V92C79 92.5523 78.5523 93 78 93C77.4477 93 77 92.5523 77 92V84.4444C77 83.8922 77.4477 83.4444 78 83.4444ZM337 98.5555C337.552 98.5555 338 99.0033 338 99.5555V107.111C338 107.663 337.552 108.111 337 108.111C336.448 108.111 336 107.663 336 107.111V99.5555C336 99.0033 336.448 98.5555 337 98.5555ZM78 98.5556C78.5523 98.5556 79 99.0033 79 99.5556V107.111C79 107.663 78.5523 108.111 78 108.111C77.4477 108.111 77 107.663 77 107.111V99.5556C77 99.0033 77.4477 98.5556 78 98.5556ZM337 113.667C337.552 113.667 338 114.114 338 114.667V122.222C338 122.774 337.552 123.222 337 123.222C336.448 123.222 336 122.774 336 122.222V114.667C336 114.114 336.448 113.667 337 113.667ZM78 113.667C78.5523 113.667 79 114.114 79 114.667V122.222C79 122.775 78.5523 123.222 78 123.222C77.4477 123.222 77 122.775 77 122.222V114.667C77 114.114 77.4477 113.667 78 113.667ZM337 128.778C337.552 128.778 338 129.225 338 129.778V137.333C338 137.886 337.552 138.333 337 138.333C336.448 138.333 336 137.886 336 137.333V129.778C336 129.225 336.448 128.778 337 128.778ZM78 128.778C78.5523 128.778 79 129.226 79 129.778V137.333C79 137.886 78.5523 138.333 78 138.333C77.4477 138.333 77 137.886 77 137.333V129.778C77 129.226 77.4477 128.778 78 128.778ZM337 143.889C337.552 143.889 338 144.337 338 144.889V152.444C338 152.997 337.552 153.444 337 153.444C336.448 153.444 336 152.997 336 152.444V144.889C336 144.337 336.448 143.889 337 143.889ZM78 143.889C78.5523 143.889 79 144.337 79 144.889V152.444C79 152.997 78.5523 153.444 78 153.444C77.4477 153.444 77 152.997 77 152.444V144.889C77 144.337 77.4477 143.889 78 143.889ZM337 159C337.552 159 338 159.448 338 160V167.556C338 168.108 337.552 168.556 337 168.556C336.448 168.556 336 168.108 336 167.556V160C336 159.448 336.448 159 337 159ZM78 159C78.5523 159 79 159.448 79 160V167.556C79 168.108 78.5523 168.556 78 168.556C77.4477 168.556 77 168.108 77 167.556V160C77 159.448 77.4477 159 78 159ZM337 174.111C337.552 174.111 338 174.559 338 175.111V182.667C338 183.219 337.552 183.667 337 183.667C336.448 183.667 336 183.219 336 182.667V175.111C336 174.559 336.448 174.111 337 174.111ZM78 174.111C78.5523 174.111 79 174.559 79 175.111V182.667C79 183.219 78.5523 183.667 78 183.667C77.4477 183.667 77 183.219 77 182.667V175.111C77 174.559 77.4477 174.111 78 174.111ZM337 189.222C337.552 189.222 338 189.67 338 190.222V194C338 194.552 337.552 195 337 195H332.953C332.401 195 331.953 194.552 331.953 194C331.953 193.448 332.401 193 332.953 193H336V190.222C336 189.67 336.448 189.222 337 189.222ZM78 189.222C78.5523 189.222 79 189.67 79 190.222V193H82.0469C82.5992 193 83.0469 193.448 83.0469 194C83.0469 194.552 82.5992 195 82.0469 195H78C77.4477 195 77 194.552 77 194V190.222C77 189.67 77.4477 189.222 78 189.222ZM89.1406 194C89.1406 193.448 89.5883 193 90.1406 193H98.2344C98.7867 193 99.2344 193.448 99.2344 194C99.2344 194.552 98.7867 195 98.2344 195H90.1406C89.5883 195 89.1406 194.552 89.1406 194ZM105.328 194C105.328 193.448 105.776 193 106.328 193H114.422C114.974 193 115.422 193.448 115.422 194C115.422 194.552 114.974 195 114.422 195H106.328C105.776 195 105.328 194.552 105.328 194ZM121.516 194C121.516 193.448 121.963 193 122.516 193H130.609C131.162 193 131.609 193.448 131.609 194C131.609 194.552 131.162 195 130.609 195H122.516C121.963 195 121.516 194.552 121.516 194ZM137.703 194C137.703 193.448 138.151 193 138.703 193H146.797C147.349 193 147.797 193.448 147.797 194C147.797 194.552 147.349 195 146.797 195H138.703C138.151 195 137.703 194.552 137.703 194ZM153.891 194C153.891 193.448 154.338 193 154.891 193H162.984C163.537 193 163.984 193.448 163.984 194C163.984 194.552 163.537 195 162.984 195H154.891C154.338 195 153.891 194.552 153.891 194ZM170.078 194C170.078 193.448 170.526 193 171.078 193H179.172C179.724 193 180.172 193.448 180.172 194C180.172 194.552 179.724 195 179.172 195H171.078C170.526 195 170.078 194.552 170.078 194ZM186.266 194C186.266 193.448 186.713 193 187.266 193H195.359C195.912 193 196.359 193.448 196.359 194C196.359 194.552 195.912 195 195.359 195H187.266C186.713 195 186.266 194.552 186.266 194ZM202.453 194C202.453 193.448 202.901 193 203.453 193H211.547C212.099 193 212.547 193.448 212.547 194C212.547 194.552 212.099 195 211.547 195H203.453C202.901 195 202.453 194.552 202.453 194ZM218.641 194C218.641 193.448 219.088 193 219.641 193H227.734C228.287 193 228.734 193.448 228.734 194C228.734 194.552 228.287 195 227.734 195H219.641C219.088 195 218.641 194.552 218.641 194ZM234.828 194C234.828 193.448 235.276 193 235.828 193H243.922C244.474 193 244.922 193.448 244.922 194C244.922 194.552 244.474 195 243.922 195H235.828C235.276 195 234.828 194.552 234.828 194ZM251.016 194C251.016 193.448 251.463 193 252.016 193H260.109C260.662 193 261.109 193.448 261.109 194C261.109 194.552 260.662 195 260.109 195H252.016C251.463 195 251.016 194.552 251.016 194ZM267.203 194C267.203 193.448 267.651 193 268.203 193H276.297C276.849 193 277.297 193.448 277.297 194C277.297 194.552 276.849 195 276.297 195H268.203C267.651 195 267.203 194.552 267.203 194ZM283.391 194C283.391 193.448 283.838 193 284.391 193H292.484C293.037 193 293.484 193.448 293.484 194C293.484 194.552 293.037 195 292.484 195H284.391C283.838 195 283.391 194.552 283.391 194ZM299.578 194C299.578 193.448 300.026 193 300.578 193H308.672C309.224 193 309.672 193.448 309.672 194C309.672 194.552 309.224 195 308.672 195H300.578C300.026 195 299.578 194.552 299.578 194ZM315.766 194C315.766 193.448 316.213 193 316.766 193H324.859C325.412 193 325.859 193.448 325.859 194C325.859 194.552 325.412 195 324.859 195H316.766C316.213 195 315.766 194.552 315.766 194Z" fill="#F6FDF5"/>
<path fill-rule="evenodd" clip-rule="evenodd" d="M173 86C173 85.4477 173.448 85 174 85H178.075C178.627 85 179.075 85.4477 179.075 86C179.075 86.5523 178.627 87 178.075 87H175V89.8571C175 90.4094 174.552 90.8571 174 90.8571C173.448 90.8571 173 90.4094 173 89.8571V86ZM185.225 86C185.225 85.4477 185.673 85 186.225 85H194.375C194.927 85 195.375 85.4477 195.375 86C195.375 86.5523 194.927 87 194.375 87H186.225C185.673 87 185.225 86.5523 185.225 86ZM201.525 86C201.525 85.4477 201.973 85 202.525 85H210.675C211.227 85 211.675 85.4477 211.675 86C211.675 86.5523 211.227 87 210.675 87H202.525C201.973 87 201.525 86.5523 201.525 86ZM217.825 86C217.825 85.4477 218.273 85 218.825 85H226.975C227.527 85 227.975 85.4477 227.975 86C227.975 86.5523 227.527 87 226.975 87H218.825C218.273 87 217.825 86.5523 217.825 86ZM234.125 86C234.125 85.4477 234.573 85 235.125 85H243.275C243.827 85 244.275 85.4477 244.275 86C244.275 86.5523 243.827 87 243.275 87H235.125C234.573 87 234.125 86.5523 234.125 86ZM250.425 86C250.425 85.4477 250.873 85 251.425 85H259.575C260.127 85 260.575 85.4477 260.575 86C260.575 86.5523 260.127 87 259.575 87H251.425C250.873 87 250.425 86.5523 250.425 86ZM266.725 86C266.725 85.4477 267.173 85 267.725 85H275.875C276.427 85 276.875 85.4477 276.875 86C276.875 86.5523 276.427 87 275.875 87H267.725C267.173 87 266.725 86.5523 266.725 86ZM283.025 86C283.025 85.4477 283.473 85 284.025 85H292.175C292.727 85 293.175 85.4477 293.175 86C293.175 86.5523 292.727 87 292.175 87H284.025C283.473 87 283.025 86.5523 283.025 86ZM299.325 86C299.325 85.4477 299.773 85 300.325 85H308.475C309.027 85 309.475 85.4477 309.475 86C309.475 86.5523 309.027 87 308.475 87H300.325C299.773 87 299.325 86.5523 299.325 86ZM315.625 86C315.625 85.4477 316.073 85 316.625 85H324.775C325.327 85 325.775 85.4477 325.775 86C325.775 86.5523 325.327 87 324.775 87H316.625C316.073 87 315.625 86.5523 315.625 86ZM331.925 86C331.925 85.4477 332.373 85 332.925 85H337C337.552 85 338 85.4477 338 86V89.8571C338 90.4094 337.552 90.8571 337 90.8571C336.448 90.8571 336 90.4094 336 89.8571V87H332.925C332.373 87 331.925 86.5523 331.925 86ZM337 96.5714C337.552 96.5714 338 97.0191 338 97.5714V105.286C338 105.838 337.552 106.286 337 106.286C336.448 106.286 336 105.838 336 105.286V97.5714C336 97.0191 336.448 96.5714 337 96.5714ZM174 96.5714C174.552 96.5714 175 97.0191 175 97.5714V105.286C175 105.838 174.552 106.286 174 106.286C173.448 106.286 173 105.838 173 105.286V97.5714C173 97.0191 173.448 96.5714 174 96.5714ZM337 112C337.552 112 338 112.448 338 113V120.714C338 121.267 337.552 121.714 337 121.714C336.448 121.714 336 121.267 336 120.714V113C336 112.448 336.448 112 337 112ZM174 112C174.552 112 175 112.448 175 113V120.714C175 121.267 174.552 121.714 174 121.714C173.448 121.714 173 121.267 173 120.714V113C173 112.448 173.448 112 174 112ZM337 127.429C337.552 127.429 338 127.876 338 128.429V136.143C338 136.695 337.552 137.143 337 137.143C336.448 137.143 336 136.695 336 136.143V128.429C336 127.876 336.448 127.429 337 127.429ZM174 127.429C174.552 127.429 175 127.876 175 128.429V136.143C175 136.695 174.552 137.143 174 137.143C173.448 137.143 173 136.695 173 136.143V128.429C173 127.876 173.448 127.429 174 127.429ZM337 142.857C337.552 142.857 338 143.305 338 143.857V151.571C338 152.124 337.552 152.571 337 152.571C336.448 152.571 336 152.124 336 151.571V143.857C336 143.305 336.448 142.857 337 142.857ZM174 142.857C174.552 142.857 175 143.305 175 143.857V151.571C175 152.124 174.552 152.571 174 152.571C173.448 152.571 173 152.124 173 151.571V143.857C173 143.305 173.448 142.857 174 142.857ZM337 158.286C337.552 158.286 338 158.733 338 159.286V167C338 167.552 337.552 168 337 168C336.448 168 336 167.552 336 167V159.286C336 158.733 336.448 158.286 337 158.286ZM174 158.286C174.552 158.286 175 158.733 175 159.286V167C175 167.552 174.552 168 174 168C173.448 168 173 167.552 173 167V159.286C173 158.733 173.448 158.286 174 158.286ZM337 173.714C337.552 173.714 338 174.162 338 174.714V182.429C338 182.981 337.552 183.429 337 183.429C336.448 183.429 336 182.981 336 182.429V174.714C336 174.162 336.448 173.714 337 173.714ZM174 173.714C174.552 173.714 175 174.162 175 174.714V182.429C175 182.981 174.552 183.429 174 183.429C173.448 183.429 173 182.981 173 182.429V174.714C173 174.162 173.448 173.714 174 173.714ZM337 189.143C337.552 189.143 338 189.591 338 190.143V194C338 194.552 337.552 195 337 195H332.925C332.373 195 331.925 194.552 331.925 194C331.925 193.448 332.373 193 332.925 193H336V190.143C336 189.591 336.448 189.143 337 189.143ZM174 189.143C174.552 189.143 175 189.591 175 190.143V193H178.075C178.627 193 179.075 193.448 179.075 194C179.075 194.552 178.627 195 178.075 195H174C173.448 195 173 194.552 173 194V190.143C173 189.591 173.448 189.143 174 189.143ZM185.225 194C185.225 193.448 185.673 193 186.225 193H194.375C194.927 193 195.375 193.448 195.375 194C195.375 194.552 194.927 195 194.375 195H186.225C185.673 195 185.225 194.552 185.225 194ZM201.525 194C201.525 193.448 201.973 193 202.525 193H210.675C211.227 193 211.675 193.448 211.675 194C211.675 194.552 211.227 195 210.675 195H202.525C201.973 195 201.525 194.552 201.525 194ZM217.825 194C217.825 193.448 218.273 193 218.825 193H226.975C227.527 193 227.975 193.448 227.975 194C227.975 194.552 227.527 195 226.975 195H218.825C218.273 195 217.825 194.552 217.825 194ZM234.125 194C234.125 193.448 234.573 193 235.125 193H243.275C243.827 193 244.275 193.448 244.275 194C244.275 194.552 243.827 195 243.275 195H235.125C234.573 195 234.125 194.552 234.125 194ZM250.425 194C250.425 193.448 250.873 193 251.425 193H259.575C260.127 193 260.575 193.448 260.575 194C260.575 194.552 260.127 195 259.575 195H251.425C250.873 195 250.425 194.552 250.425 194ZM266.725 194C266.725 193.448 267.173 193 267.725 193H275.875C276.427 193 276.875 193.448 276.875 194C276.875 194.552 276.427 195 275.875 195H267.725C267.173 195 266.725 194.552 266.725 194ZM283.025 194C283.025 193.448 283.473 193 284.025 193H292.175C292.727 193 293.175 193.448 293.175 194C293.175 194.552 292.727 195 292.175 195H284.025C283.473 195 283.025 194.552 283.025 194ZM299.325 194C299.325 193.448 299.773 193 300.325 193H308.475C309.027 193 309.475 193.448 309.475 194C309.475 194.552 309.027 195 308.475 195H300.325C299.773 195 299.325 194.552 299.325 194ZM315.625 194C315.625 193.448 316.073 193 316.625 193H324.775C325.327 193 325.775 193.448 325.775 194C325.775 194.552 325.327 195 324.775 195H316.625C316.073 195 315.625 194.552 315.625 194Z" fill="#F6FDF5"/>
</g>
<path d="M0 0V-2H-2V0H0ZM325 0H327V-2H325V0ZM325 180V182H327V180H325ZM0 180H-2V182H0V180ZM0 2H325V-2H0V2ZM323 0V180H327V0H323ZM325 178H0V182H325V178ZM2 180V0H-2V180H2Z" fill="#767676"/>
<defs>
<clipPath id="clip0_102_1915">
<path d="M0 0H325V180H0V0Z" fill="white"/>
</clipPath>
</defs>
</svg>
