<svg width="325" height="180" viewBox="0 0 325 180" fill="none" xmlns="http://www.w3.org/2000/svg">
<rect width="325" height="180" fill="#005C62"/>
<path d="M161.978 101.738C161.903 102.166 161.661 102.547 161.305 102.797C160.949 103.046 160.508 103.144 160.08 103.069C159.652 102.994 159.271 102.752 159.021 102.396C158.772 102.04 158.674 101.599 158.749 101.171L162.022 82.56C162.094 82.1318 162.334 81.7499 162.688 81.4982C163.041 81.2466 163.481 81.1459 163.909 81.2182C164.337 81.2905 164.719 81.53 164.971 81.8839C165.223 82.2379 165.323 82.6773 165.251 83.1055L161.978 101.738ZM157.396 86.3782C157.855 87.1418 157.636 88.1673 156.895 88.6473L151.396 92.1818L156.895 95.7164C157.259 95.9536 157.514 96.326 157.604 96.7515C157.695 97.177 157.612 97.6209 157.375 97.9855C157.137 98.35 156.765 98.6054 156.339 98.6954C155.914 98.7854 155.47 98.7027 155.105 98.4655L147.469 93.5564C147.239 93.408 147.051 93.2045 146.92 92.9644C146.789 92.7243 146.721 92.4552 146.721 92.1818C146.721 91.9084 146.789 91.6394 146.92 91.3993C147.051 91.1591 147.239 90.9556 147.469 90.8073L155.105 85.8982C155.286 85.7802 155.488 85.6991 155.7 85.6594C155.911 85.6196 156.129 85.6222 156.34 85.6668C156.551 85.7114 156.751 85.7972 156.928 85.9193C157.106 86.0413 157.257 86.1973 157.375 86.3782H157.396ZM172.582 92.1818L167.084 88.6473C166.719 88.41 166.464 88.0377 166.374 87.6121C166.284 87.1866 166.366 86.7427 166.604 86.3782C166.841 86.0136 167.213 85.7583 167.639 85.6682C168.064 85.5782 168.508 85.6609 168.873 85.8982L176.509 90.8073C176.739 90.9556 176.928 91.1591 177.058 91.3993C177.189 91.6394 177.258 91.9084 177.258 92.1818C177.258 92.4552 177.189 92.7243 177.058 92.9644C176.928 93.2045 176.739 93.408 176.509 93.5564L168.873 98.4655C168.508 98.7027 168.064 98.7854 167.639 98.6954C167.213 98.6054 166.841 98.35 166.604 97.9855C166.366 97.6209 166.284 97.177 166.374 96.7515C166.464 96.326 166.719 95.9536 167.084 95.7164L172.582 92.1818ZM138 72.5455C138 70.8095 138.69 69.1446 139.917 67.9171C141.145 66.6896 142.809 66 144.545 66H179.455C181.191 66 182.855 66.6896 184.083 67.9171C185.31 69.1446 186 70.8095 186 72.5455V107.455C186 109.191 185.31 110.855 184.083 112.083C182.855 113.31 181.191 114 179.455 114H144.545C142.809 114 141.145 113.31 139.917 112.083C138.69 110.855 138 109.191 138 107.455V72.5455ZM145.636 72.5455C145.926 72.5455 146.203 72.4305 146.408 72.2259C146.612 72.0213 146.727 71.7439 146.727 71.4545C146.727 71.1652 146.612 70.8877 146.408 70.6832C146.203 70.4786 145.926 70.3636 145.636 70.3636C145.347 70.3636 145.07 70.4786 144.865 70.6832C144.66 70.8877 144.545 71.1652 144.545 71.4545C144.545 71.7439 144.66 72.0213 144.865 72.2259C145.07 72.4305 145.347 72.5455 145.636 72.5455ZM179.455 76.9091H144.545V107.455H179.455V76.9091ZM150 70.3636C149.711 70.3636 149.433 70.4786 149.229 70.6832C149.024 70.8877 148.909 71.1652 148.909 71.4545C148.909 71.7439 149.024 72.0213 149.229 72.2259C149.433 72.4305 149.711 72.5455 150 72.5455C150.289 72.5455 150.567 72.4305 150.771 72.2259C150.976 72.0213 151.091 71.7439 151.091 71.4545C151.091 71.1652 150.976 70.8877 150.771 70.6832C150.567 70.4786 150.289 70.3636 150 70.3636ZM154.364 72.5455C154.653 72.5455 154.93 72.4305 155.135 72.2259C155.34 72.0213 155.455 71.7439 155.455 71.4545C155.455 71.1652 155.34 70.8877 155.135 70.6832C154.93 70.4786 154.653 70.3636 154.364 70.3636C154.074 70.3636 153.797 70.4786 153.592 70.6832C153.388 70.8877 153.273 71.1652 153.273 71.4545C153.273 71.7439 153.388 72.0213 153.592 72.2259C153.797 72.4305 154.074 72.5455 154.364 72.5455Z" fill="#F6FDF5"/>
<path d="M0 0V-2H-2V0H0ZM325 0H327V-2H325V0ZM325 180V182H327V180H325ZM0 180H-2V182H0V180ZM0 2H325V-2H0V2ZM323 0V180H327V0H323ZM325 178H0V182H325V178ZM2 180V0H-2V180H2Z" fill="#767676"/>
</svg>
