<svg xmlns="http://www.w3.org/2000/svg" width="24" height="24"><path d="M22.56 2.53C24.15 4.03 24 12 24 12s.15 7.97-1.44 9.47c-1.6 1.52-9.14 1.53-9.14 1.53h-2.84s-7.55-.01-9.14-1.53C-.15 19.97 0 12 0 12s-.15-7.97 1.44-9.47C3.04 1.01 10.58 1 10.58 1h2.84s7.55.01 9.14 1.53m-13.4 7.96a1.23 1.23 0 0 0 2.07-1.34A4.6 4.6 0 0 0 7.37 7a4.8 4.8 0 0 0-4.67 4.9 4.8 4.8 0 0 0 4.67 4.9c1.5 0 2.83-.74 3.67-1.87a1.23 1.23 0 1 0-1.98-1.47 2.1 2.1 0 0 1-1.7.88c-1.13 0-2.2-1.01-2.2-2.44 0-1.42 1.07-2.43 2.2-2.43.72 0 1.38.38 1.8 1.02m9.85 0a1.23 1.23 0 1 0 2.07-1.34A4.6 4.6 0 0 0 17.22 7a4.8 4.8 0 0 0-4.67 4.9 4.8 4.8 0 0 0 4.67 4.9c1.5 0 2.83-.74 3.67-1.87a1.23 1.23 0 0 0-1.98-1.47c-.42.56-1.03.88-1.7.88-1.13 0-2.2-1.01-2.2-2.44 0-1.42 1.07-2.43 2.2-2.43.72 0 1.38.38 1.8 1.02"/></svg>