<svg xmlns="http://www.w3.org/2000/svg" width="24" height="24"><path d="M11.99 17.87a.82.82 0 1 1-1.62-.28l1.64-9.31a.82.82 0 0 1 1.62.27zm-2.3-7.68c.24.38.13.9-.24 1.13L6.7 13.1l2.75 1.77a.82.82 0 1 1-.9 1.37l-3.82-2.45a.82.82 0 0 1 0-1.38l3.82-2.45a.8.8 0 0 1 1.14.24zm7.6 2.9-2.75-1.77a.82.82 0 0 1 .9-1.37l3.81 2.45a.82.82 0 0 1 0 1.38l-3.81 2.45a.82.82 0 1 1-.9-1.37zM0 3.27A3.27 3.27 0 0 1 3.27 0h17.46A3.27 3.27 0 0 1 24 3.27v17.46A3.27 3.27 0 0 1 20.73 24H3.27A3.27 3.27 0 0 1 0 20.73zm3.82 0a.55.55 0 1 0 0-1.09.55.55 0 0 0 0 1.1m16.9 2.18H3.28v15.28h17.46zM6 2.18a.55.55 0 1 0 0 1.1.55.55 0 0 0 0-1.1m2.18 1.1a.55.55 0 1 0 0-1.1.55.55 0 0 0 0 1.1"/></svg>