<svg xmlns="http://www.w3.org/2000/svg" width="24" height="24"><path d="M5.05.44a3.5 3.5 0 0 1-2.62 2.61l-.43.1v.7l.43.1a3.5 3.5 0 0 1 2.62 2.62l.1.43h.7l.1-.43a3.5 3.5 0 0 1 2.62-2.62l.43-.1v-.7l-.43-.1A3.5 3.5 0 0 1 5.95.44L5.85 0h-.7zM21.5 14a1.5 1.5 0 1 0 0 3 1.5 1.5 0 0 0 0-3m-2.2 4h-.6l-.09.37a3 3 0 0 1-2.24 2.24l-.37.09v.6l.37.09a3 3 0 0 1 2.24 2.24l.09.37h.6l.09-.37a3 3 0 0 1 2.24-2.24l.37-.09v-.6l-.37-.09a3 3 0 0 1-2.24-2.24zm-7.48 3.6 9.97-9.98a3 3 0 0 0 0-4.24L16.62 2.2a3 3 0 0 0-4.24 0L2 12.59a3.4 3.4 0 0 0 0 4.82L6.59 22a3.4 3.4 0 0 0 4.82 0l.3-.3.08-.08zm-1.43-1.4-.39.39a1.4 1.4 0 0 1-2 0L3.41 16a1.4 1.4 0 0 1 0-2l.3-.3.08-.08a1 1 0 0 1 1.42 0l5.17 5.17a1 1 0 0 1 .01 1.4m1.4-2.82L6.62 12.2a3 3 0 0 0-.83-.59l8-8a1 1 0 0 1 1.42 0l5.17 5.17a1 1 0 0 1 0 1.42l-8 8a3 3 0 0 0-.59-.83"/></svg>