<svg xmlns="http://www.w3.org/2000/svg" width="24" height="24"><path d="M16.13 7H21l-6-6v4.88C15 6.5 15.5 7 16.13 7m-2.7 8.53c-.3.17-.65.74-.65 1.26 0 .42-.35.77-.78.77a.8.8 0 0 1-.78-.77c0-1.04.6-2.13 1.43-2.6a1.17 1.17 0 0 0-.65-2.15c-.65 0-1.19.52-1.19 1.17 0 .42-.35.77-.78.77a.8.8 0 0 1-.78-.77c0-1.5 1.23-2.71 2.75-2.71a2.73 2.73 0 0 1 2.75 2.7 2.7 2.7 0 0 1-1.32 2.33M12 20a.8.8 0 0 1-.82-.81.82.82 0 0 1 1.65 0c0 .45-.38.81-.83.81m4.13-11.25a2.9 2.9 0 0 1-2.88-2.87V1H5.5A2.5 2.5 0 0 0 3 3.5v17A2.5 2.5 0 0 0 5.5 23h13a2.5 2.5 0 0 0 2.5-2.5V8.75z"/></svg>