<svg xmlns="http://www.w3.org/2000/svg" width="24" height="24"><path d="m21.3 16.96-4.36 4.35-2.47-2.47a.75.75 0 0 1 1.06-1.07l1.41 1.42 3.3-3.3a.75.75 0 1 1 1.06 1.07M18 12a6 6 0 1 0 0 12 6 6 0 0 0 0-12M7.03 10.75H2.59a9.5 9.5 0 0 1 5.93-7.58 22 22 0 0 0-1.5 7.58m-4.44 2.5h4.44c.11 2.83.61 5.57 1.49 7.58a9.5 9.5 0 0 1-5.93-7.58M12 2.5c.68.06 2.25 3 2.47 8.25H9.53C9.76 5.43 11.4 2.55 12 2.5M10 18l.04-.71a24 24 0 0 1-.51-4.04h2.05a8 8 0 0 1 5.35-3.17 22 22 0 0 0-1.44-6.9 9.5 9.5 0 0 1 5.92 7.57h-.05a8 8 0 0 1 2.6 1.94q.04-.35.04-.69a12.01 12.01 0 1 0-12 12q.35 0 .69-.04A8 8 0 0 1 10 18"/></svg>