<svg xmlns="http://www.w3.org/2000/svg" width="24" height="24"><path d="M15.49 20.83a22 22 0 0 0 1.48-7.58h4.44a9.5 9.5 0 0 1-5.92 7.58m-12.9-7.58h4.44c.11 2.83.61 5.57 1.49 7.58a9.5 9.5 0 0 1-5.93-7.58M8.52 3.17a22 22 0 0 0-1.5 7.58H2.6a9.5 9.5 0 0 1 5.93-7.58m1 7.58c.24-5.32 1.89-8.2 2.48-8.25.68.06 2.25 3 2.47 8.25zm2.49 10.75c-.6-.04-2.25-2.93-2.48-8.25h4.94c-.22 5.24-1.8 8.19-2.46 8.25m9.4-10.75h-4.44a22 22 0 0 0-1.48-7.58 9.5 9.5 0 0 1 5.92 7.58M24 12a12.01 12.01 0 1 0-12 12c6.62 0 12-5.39 12-12"/></svg>