<svg xmlns="http://www.w3.org/2000/svg" width="24" height="24"><path d="M17.87 4.8a1.32 1.32 0 1 0 0 2.65 1.32 1.32 0 0 0 0-2.64M12 15.68a3.67 3.67 0 1 1 0-7.33 3.67 3.67 0 0 1 0 7.33m0-9.32a5.65 5.65 0 1 0 0 11.3 5.65 5.65 0 0 0 0-11.3M12 1c-2.99 0-3.36.01-4.53.07a8 8 0 0 0-2.67.5 5.4 5.4 0 0 0-1.95 1.28 5.4 5.4 0 0 0-1.27 1.94 8 8 0 0 0-.51 2.68A79 79 0 0 0 1 12c0 2.99.01 3.36.07 4.54.05 1.17.24 1.97.5 2.67a5.4 5.4 0 0 0 1.28 1.94 5.4 5.4 0 0 0 1.95 1.27c.7.27 1.5.46 2.67.51C8.64 23 9 23 12 23s3.36-.01 4.54-.07a8 8 0 0 0 2.67-.5 5.4 5.4 0 0 0 1.94-1.28 5.4 5.4 0 0 0 1.27-1.94c.27-.7.46-1.5.51-2.67.06-1.18.07-1.55.07-4.54s-.01-3.36-.07-4.53a8 8 0 0 0-.5-2.68 5.4 5.4 0 0 0-1.28-1.94 5.4 5.4 0 0 0-1.94-1.27c-.7-.27-1.5-.46-2.68-.51A78 78 0 0 0 12 1m0 1.98c2.94 0 3.29.01 4.45.07 1.07.05 1.65.22 2.04.38.51.2.88.43 1.26.82.39.38.63.75.82 1.26.16.39.33.97.38 2.05.06 1.16.07 1.5.07 4.44s-.01 3.29-.07 4.45a6 6 0 0 1-.37 2.04c-.2.51-.44.88-.83 1.26a3.4 3.4 0 0 1-1.26.83c-.39.15-.97.33-2.04.37-1.16.06-1.51.07-4.45.07s-3.28-.01-4.44-.07a6 6 0 0 1-2.05-.37c-.51-.2-.88-.44-1.26-.83a3.4 3.4 0 0 1-.82-1.26 6 6 0 0 1-.38-2.04c-.06-1.16-.07-1.51-.07-4.45s.01-3.28.07-4.44a6 6 0 0 1 .38-2.05c.2-.51.43-.88.82-1.26a3.4 3.4 0 0 1 1.26-.82 6 6 0 0 1 2.05-.38c1.16-.06 1.5-.07 4.44-.07"/></svg>