<svg xmlns="http://www.w3.org/2000/svg" width="24" height="24"><path d="M11 21.75c0 .69-.56 1.25-1.25 1.25h-2a4.26 4.26 0 0 1-4.25-4.25v-.93l-.37.37a1.25 1.25 0 0 1-1.76-1.77L4.79 13l3.41 3.42a1.25 1.25 0 0 1-1.76 1.77L6 17.75v1c0 .97.78 1.75 1.75 1.75h2c.69 0 1.25.56 1.25 1.25m2-19.5c0-.69.56-1.25 1.25-1.25h2c2.34 0 4.25 1.9 4.25 4.25v.93l.37-.37a1.25 1.25 0 0 1 1.76 1.77L19.21 11 15.8 7.58a1.25 1.25 0 0 1 1.77-1.77l.44.44v-1c0-.96-.79-1.75-1.75-1.75h-2c-.69 0-1.25-.56-1.25-1.25m2.5 18.25h5v-5h-5zM23 15v6a2 2 0 0 1-2 2h-6a2 2 0 0 1-2-2v-6c0-1.1.9-2 2-2h6a2 2 0 0 1 2 2M11 3v6a2 2 0 0 1-2 2H3a2 2 0 0 1-2-2V3c0-1.1.9-2 2-2h6a2 2 0 0 1 2 2"/></svg>