<svg xmlns="http://www.w3.org/2000/svg" width="24" height="24"><path d="M19 23a4 4 0 0 0 4-4V5a4 4 0 0 0-4-4H5a4 4 0 0 0-4 4v14a4 4 0 0 0 4 4zM4 19V5a1 1 0 0 1 1-1h14a1 1 0 0 1 1 1v9h-1.12c-1.23 0-2.37.46-3.23 1.22l-.28-1.65a.8.8 0 0 1 .22-.68l1.98-1.93a.76.76 0 0 0-.42-1.3l-2.74-.4a.8.8 0 0 1-.58-.42l-1.22-2.48a.76.76 0 0 0-1.37 0L10 8.84a.8.8 0 0 1-.57.42l-2.74.4a.76.76 0 0 0-.42 1.3l1.98 1.93q.27.29.22.68L8 16.3a.76.76 0 0 0 1.1.8l2.46-1.28a.8.8 0 0 1 .7 0l2.13 1.11q-.4.9-.4 1.95V20H5a1 1 0 0 1-1-1"/></svg>