<svg xmlns="http://www.w3.org/2000/svg" width="24" height="24"><path d="M20 17.5H4V15l-4 4 4 4v-2.5h16V23l4-4-4-4zM5.5 4.78l1.73 3.86H3.77zM.66 12.91q.22.09.44.09c.42 0 .83-.24 1.01-.65l.69-1.53h5.4l.69 1.53c.25.55.9.8 1.45.56.56-.25.81-.9.56-1.44L6.5 1.65a1.1 1.1 0 0 0-2 0L.1 11.47c-.25.55 0 1.2.56 1.44m15.52-4.82h4.27a1.36 1.36 0 0 1 0 2.73h-4.27zm0-4.9h3.73a1.37 1.37 0 0 1 0 2.72h-3.73zM15.1 13h5.36a3.55 3.55 0 0 0 2.25-6.28A3.55 3.55 0 0 0 19.9 1h-4.8c-.61 0-1.1.49-1.1 1.1v9.8c0 .61.49 1.1 1.1 1.1"/></svg>