<svg xmlns="http://www.w3.org/2000/svg" width="24" height="24"><path d="M19.8 16.03h-2.77a.83.83 0 0 1-.82-.84c0-.46.37-.83.82-.83h2.76zm-.84-7.78h-3.3c-.61 0-1.1.5-1.1 1.11s.49 1.11 1.1 1.11h3.3c.46 0 .83.38.83.84v.83h-2.76A3.05 3.05 0 0 0 14 15.2a3.05 3.05 0 0 0 3.03 3.05h3.87c.6 0 1.1-.5 1.1-1.11V11.3a3.05 3.05 0 0 0-3.03-3.06M5.78 13.71 7.5 9.69l1.73 4.02zm7.14 2.94L8.5 6.43a1.1 1.1 0 0 0-1.01-.68c-.44 0-.83.26-1 .68L2.1 16.65c-.25.58 0 1.25.56 1.5q.22.1.44.1c.42 0 .83-.25 1.01-.68l.69-1.6h5.4l.69 1.6c.25.58.9.84 1.45.58.56-.25.81-.92.57-1.5"/></svg>