<svg xmlns="http://www.w3.org/2000/svg" width="24" height="24"><path d="m16.77 13.7 1.73-4 1.73 4.01zm7.13 2.95L19.5 6.43a1.1 1.1 0 0 0-1-.68c-.44 0-.83.27-1 .68l-4.4 10.22c-.25.58 0 1.25.56 1.5q.22.1.44.1c.42 0 .83-.25 1.01-.68l.69-1.6h5.4l.7 1.6c.24.58.89.84 1.44.58.56-.25.81-.92.56-1.5M3.77 13.7l1.73-4 1.73 4.01zm2.74-7.27a1.1 1.1 0 0 0-1-.68c-.45 0-.84.27-1.02.68L.1 16.65c-.24.58.01 1.25.57 1.5q.22.1.44.1c.42 0 .83-.25 1.01-.68l.69-1.6h5.4l.7 1.6c.24.58.89.84 1.44.58.56-.25.81-.92.56-1.5z"/></svg>