<svg xmlns="http://www.w3.org/2000/svg" width="24" height="24"><path d="M15.22 12a1.75 1.75 0 1 0-3.5 0 1.75 1.75 0 0 0 3.5 0m1.75 0a3.5 3.5 0 1 1-7 0 3.5 3.5 0 0 1 7 0M7.85 8.5c.48 0 .87.39.87.87v5.26c0 .48-.4.87-.87.87h-.01a.87.87 0 0 1-.87-.87V9.37c0-.48.39-.87.87-.87zm12.58 11.97a12 12 0 0 1-8.46 3.5A11.98 11.98 0 0 1 3.5 3.54a12 12 0 0 1 14.96-1.59v-.7a1.25 1.25 0 0 1 2.5 0v5h-5a1.25 1.25 0 0 1 0-2.5h.74A9.54 9.54 0 0 0 5.23 5.26 9.54 9.54 0 0 0 18.7 18.74a9.6 9.6 0 0 0 2.47-9.2 1.22 1.22 0 1 1 2.36-.63 12 12 0 0 1-3.1 11.55"/></svg>