<svg xmlns="http://www.w3.org/2000/svg" width="24" height="24"><path d="M21.85 15.03C22.92 14.5 24 13.96 24 13.2c0-.75-1.06-1.28-2.11-1.8-.9-.44-1.78-.88-2.02-1.46s.07-1.54.39-2.5c.37-1.1.73-2.22.23-2.73-.52-.5-1.65-.14-2.78.23-.95.31-1.9.62-2.45.4-.55-.24-.98-1.1-1.43-2C13.3 2.29 12.76 1.2 12 1.2c-.75 0-1.28 1.06-1.8 2.11-.44.9-.88 1.78-1.46 2.02s-1.54-.07-2.5-.4c-1.11-.36-2.22-.72-2.73-.22-.5.51-.14 1.65.23 2.78.31.95.62 1.9.4 2.45-.24.55-1.1.98-2 1.43C1.09 11.9 0 12.44 0 13.2c0 .75 1.06 1.28 2.11 1.8.9.44 1.78.88 2.02 1.46q.06.15.08.34H1a1 1 0 0 0 0 2h22a1 1 0 1 0 0-2h-3.2q0-.2.07-.34c.23-.55 1.1-.99 1.98-1.43M7.2 16.8a6 6 0 1 1 9.6 0zm-3.2 6h16a1 1 0 1 0 0-2H4a1 1 0 1 0 0 2"/></svg>