<svg width="24" height="24" xmlns="http://www.w3.org/2000/svg">
<path d="M12.8672 12.9015C12.9835 12.7854 13.0757 12.6476 13.1386 12.4958C13.2016 12.3441 13.234 12.1815 13.2341 12.0172C13.2342 11.8529 13.202 11.6903 13.1392 11.5385C13.0764 11.3867 12.9843 11.2487 12.8682 11.1325C12.7522 11.0163 12.6143 10.9241 12.4626 10.8611C12.3109 10.7982 12.1482 10.7657 11.984 10.7656C11.8197 10.7655 11.657 10.7978 11.5052 10.8606C11.3534 10.9234 11.2155 11.0154 11.0992 11.1315C10.9832 11.2477 10.8911 11.3857 10.8283 11.5375C10.7655 11.6893 10.7333 11.8519 10.7334 12.0162C10.7336 12.348 10.8655 12.666 11.1002 12.9005C11.335 13.135 11.6532 13.2666 11.985 13.2664C12.3167 13.2662 12.6348 13.1342 12.8692 12.8995L12.8672 12.9015ZM15.1372 14.0335C14.9302 14.5505 14.5172 14.9575 13.9982 15.1575L5.61925 18.3815L8.84225 10.0045C9.04225 9.4845 9.44925 9.0715 9.96625 8.8655L18.5833 5.4185L15.1362 14.0355L15.1372 14.0335ZM20.4853 3.5145C15.7993 -1.1715 8.20125 -1.1715 3.51525 3.5145C-1.17175 8.2015 -1.17175 15.7995 3.51525 20.4855C8.20125 25.1715 15.7993 25.1715 20.4853 20.4855C25.1712 15.7995 25.1712 8.2015 20.4853 3.5155V3.5145Z"/>
</svg>
