<svg height="24" width="24" xmlns="http://www.w3.org/2000/svg"><path d="M16.13 7H21l-6-6v4.88C15 6.5 15.5 7 16.13 7zm-2.7 8.53c-.3.17-.65.74-.65 1.26 0 .42-.35.77-.78.77a.78.78 0 01-.78-.77c0-1.04.6-2.13 1.43-2.6a1.17 1.17 0 00-.65-2.15c-.66 0-1.19.52-1.19 1.17 0 .42-.35.77-.78.77a.78.78 0 01-.78-.77c0-1.5 1.23-2.71 2.75-2.71a2.73 2.73 0 012.75 2.7 2.7 2.7 0 01-1.32 2.33zM12 20a.82.82 0 01-.82-.81c0-.45.37-.82.82-.82.46 0 .82.37.82.82 0 .44-.37.81-.82.81zm4.13-11.25a2.88 2.88 0 01-2.88-2.88V1H5.5A2.5 2.5 0 003 3.5v17A2.5 2.5 0 005.5 23h13a2.5 2.5 0 002.5-2.5V8.75z"/></svg>