<svg height="24" width="24" xmlns="http://www.w3.org/2000/svg"><path d="M21.3 16.96l-4.36 4.35-2.47-2.47a.75.75 0 011.06-1.07l1.41 1.42 3.3-3.3a.75.75 0 111.06 1.07zM18 12a6 6 0 100 12 6 6 0 000-12zM7.03 10.75H2.59a9.52 9.52 0 015.93-7.58 22.19 22.19 0 00-1.5 7.58zm-4.44 2.5h4.44a22.1 22.1 0 001.48 7.58 9.52 9.52 0 01-5.92-7.58zM12 2.5c.68.06 2.25 3 2.47 8.25H9.53C9.76 5.42 11.4 2.55 12 2.5zM10 18a8 8 0 01.04-.71 23.48 23.48 0 01-.51-4.04h2.05a8 8 0 015.35-3.17 21.45 21.45 0 00-1.44-6.9 9.52 9.52 0 015.92 7.57h-.05a8 8 0 012.6 1.94A12.01 12.01 0 0012 0a12.01 12.01 0 000 24c.24 0 .46-.02.69-.04A7.97 7.97 0 0110 18z"/></svg>