<svg height="24" width="24" xmlns="http://www.w3.org/2000/svg"><path d="M15.49 20.83a22.19 22.19 0 001.48-7.58h4.44a9.52 9.52 0 01-5.92 7.58zm-12.9-7.58h4.44a22.1 22.1 0 001.48 7.58 9.52 9.52 0 01-5.92-7.58zM8.52 3.17a22.14 22.14 0 00-1.5 7.58H2.6a9.51 9.51 0 015.93-7.58zm1 7.58c.24-5.32 1.89-8.2 2.48-8.25.68.06 2.25 3 2.47 8.25zm2.49 10.75c-.6-.04-2.25-2.93-2.48-8.25h4.94c-.22 5.24-1.8 8.19-2.46 8.25zm9.4-10.75h-4.44a22.19 22.19 0 00-1.48-7.58 9.51 9.51 0 015.92 7.58zM24 12a12.01 12.01 0 10-12 12c6.62 0 12-5.39 12-12z"/></svg>