<svg height="24" width="24" xmlns="http://www.w3.org/2000/svg"><path d="M5.94 4.5c1.03 0 2.06.42 2.8 1.15L12 8.82l3.26-3.17a4.04 4.04 0 012.8-1.15 3.39 3.39 0 013.4 3.19c.05.96-.31 1.86-1.01 2.54l-.12.12c-.06.07-6.14 6.83-8.34 9.11-2.2-2.28-8.27-9.04-8.34-9.11l-.04-.06-.06-.06a3.28 3.28 0 01-1.01-2.54 3.38 3.38 0 013.4-3.19zM18.06 2a6.6 6.6 0 00-4.58 1.87L12 5.31l-1.48-1.44A6.6 6.6 0 005.94 2c-1.33 0-2.65.42-3.73 1.29a5.8 5.8 0 00-.44 8.72s6.29 7.01 8.48 9.26c.47.49 1.11.73 1.75.73.64 0 1.28-.24 1.75-.73 2.19-2.25 8.48-9.26 8.48-9.26a5.8 5.8 0 00-.44-8.72A5.91 5.91 0 0018.06 2z"/></svg>