<svg height="24" width="24" xmlns="http://www.w3.org/2000/svg"><path d="M17.78 22.39a8.54 8.54 0 01-10.56-3.62c-.18-.27-.36-.55-.53-.86a11.46 11.46 0 00-4.1-4.33c-.44-.2-2-.97-1.49-1.89.28-.51 1.06-.89 1.78-.96 1.12-.25 3.02.3 4.9 1.5L4.04 3.41a1.72 1.72 0 01.56-2.04l.01-.01.18-.12.03-.02.21-.1.23-.07.04-.01.2-.04h.02c.79-.08 1.56.34 1.88 1.08l2.18 5.17c.05-.64.47-1.23 1.12-1.48a1.83 1.83 0 012.37.98c.06-.62.47-1.2 1.11-1.45.93-.36 1.98.06 2.36.96l.04.1c.09-.59.49-1.12 1.1-1.36.93-.37 1.93-.04 2.3.86H20a48.83 48.83 0 002.5 6.2 8.07 8.07 0 01-4.72 10.32z"/></svg>