<svg xmlns="http://www.w3.org/2000/svg" width="24" height="24">
<path d="M10.1818 18.909C10.1818 18.8482 10.1807 18.7875 10.1786 18.7272H10.1818V4.54553C10.1818 3.94304 10.6702 3.45463 11.2727 3.45463H19.6364C20.2389 3.45463 20.7273 3.94304 20.7273 4.54553V12.3347C20.1625 12.1185 19.5496 12 18.9091 12C16.0989 12 13.8182 14.2807 13.8182 17.0909C13.8182 19.901 16.0989 22.1817 18.9091 22.1817C21.4724 22.1817 23.5951 20.2842 23.9484 17.8181H24V4.36371C24 1.95377 22.0463 0.00012207 19.6364 0.00012207H11.2727C8.86276 0.00012207 6.90909 1.95377 6.90909 4.36371V14.1528C6.34435 13.9366 5.73138 13.8182 5.09091 13.8182C2.28073 13.8182 0 16.0989 0 18.909C0 21.7192 2.28073 23.9999 5.09091 23.9999C7.90109 23.9999 10.1818 21.7192 10.1818 18.909Z" fill="#111111"/>
</svg>
