<svg height="24" width="24" xmlns="http://www.w3.org/2000/svg"><path d="M7.58 9.59c-.47 0-.85.22-1.12.66a3.21 3.21 0 00-.42 1.74c0 .73.14 1.31.42 1.74.27.43.64.64 1.09.64.47 0 .83-.2 1.1-.62.28-.42.42-1 .42-1.73a3.4 3.4 0 00-.4-1.8 1.22 1.22 0 00-1.09-.63zM23 8.29s-6.65 4.37-6.41 4.23c0 0-.24.14-.43 0l-1.4-.95v5.85h7.06c.62 0 1.18-.36 1.18-1.22zM7.62 8.15c.86 0 1.55.35 2.07 1.04.53.7.8 1.6.8 2.74a4.5 4.5 0 01-.82 2.81 2.58 2.58 0 01-2.15 1.07c-.85 0-1.55-.34-2.1-1.03a4.26 4.26 0 01-.8-2.7c0-1.17.27-2.12.82-2.84a2.6 2.6 0 012.18-1.09zm7.15-2.49v4.3l1.52.95c.04.02.12.02.16 0L23 6.55c0-.52-.49-.89-.76-.89zM13.95 1L1 3.48v16.84L13.95 23z"/></svg>