<svg width="24" height="24" xmlns="http://www.w3.org/2000/svg">
<path d="M12.0001 24C15.7702 22.1249 18.9111 19.1901 21.0374 15.5557C23.1636 11.9213 24.1829 7.74534 23.9701 3.54002C20.408 1.22383 16.249 -0.00614152 12.0001 2.30593e-05C7.75117 -0.00614152 3.5922 1.22383 0.0300895 3.54002C-0.182715 7.74534 0.836541 11.9213 2.96283 15.5557C5.08911 19.1901 8.22996 22.1249 12.0001 24V24ZM6.37009 10.1C6.60419 9.86797 6.92047 9.73777 7.25009 9.73777C7.57971 9.73777 7.89599 9.86797 8.13009 10.1L10.5001 12.46L15.8701 7.11002C16.1098 6.91151 16.415 6.80957 16.7259 6.82416C17.0368 6.83875 17.3311 6.96881 17.5512 7.1889C17.7713 7.409 17.9014 7.70328 17.916 8.0142C17.9305 8.32511 17.8286 8.63029 17.6301 8.87002L10.5001 16L6.37009 11.87C6.13804 11.6359 6.00784 11.3196 6.00784 10.99C6.00784 10.6604 6.13804 10.3441 6.37009 10.11V10.1Z"/>
</svg>
