<svg xmlns="http://www.w3.org/2000/svg" width="24" height="24"><path d="M11.94 0H12a12 12 0 0 1 12 11.94v.12a1 1 0 1 1-2-.01v-.1a10 10 0 0 0-2.92-7.02l-.03-.02a10 10 0 0 0-7-2.91h-.1a1 1 0 0 1 0-2M8.76 1.44a1 1 0 0 1-.54 1.3l-.1.04A1 1 0 1 1 7.36.93l.1-.04a1 1 0 0 1 1.31.55m-3.8 2.04a1 1 0 0 1 0 1.42l-.07.06a1 1 0 1 1-1.43-1.4l.09-.09a1 1 0 0 1 1.41.01M2.24 6.82a1 1 0 0 1 .54 1.3l-.04.1a1 1 0 0 1-1.85-.76l.04-.1a1 1 0 0 1 1.31-.54M1 10.95a1 1 0 0 1 1 1v.1a1 1 0 0 1-2 0v-.11a1 1 0 0 1 1-1m21.56 4.29c.52.2.76.79.55 1.3l-.03.06-.01.05a1 1 0 1 1-1.85-.78l.02-.04.02-.05a1 1 0 0 1 1.3-.54m-21.12 0a1 1 0 0 1 1.3.54l.04.1a1 1 0 0 1-1.85.77l-.04-.1a1 1 0 0 1 .55-1.31m19.08 3.79a1 1 0 0 1 0 1.41l-.08.09a1 1 0 0 1-1.4-1.43l.02-.02.04-.04a1 1 0 0 1 1.42-.01m-17.04 0a1 1 0 0 1 1.42 0l.06.07a1 1 0 1 1-1.4 1.43l-.09-.09a1 1 0 0 1 .01-1.41m3.34 2.73a1 1 0 0 1 1.3-.54l.1.04a1 1 0 0 1-.76 1.85l-.1-.04a1 1 0 0 1-.54-1.31m10.36 0a1 1 0 0 1-.53 1.3l-.1.05a1 1 0 1 1-.77-1.85l.1-.04a1 1 0 0 1 1.3.54M10.95 23a1 1 0 0 1 1-1h.1a1 1 0 0 1 0 2h-.11a1 1 0 0 1-1-1m-.78-7H8.58v-5.36c-.27.48-.89.69-1.72.69V9.72c1.13 0 1.77-.48 1.78-1.47h1.53zm4.03.15c-1.4 0-2.5-.68-2.8-1.73l1.44-.65q.3.94 1.32.95c.82 0 1.32-.48 1.32-1.27 0-.8-.45-1.27-1.23-1.27-.6 0-1.03.29-1.23.67l-1.3-.51.72-4.1h4.25v1.49h-3.05l-.33 1.64c.3-.3.8-.45 1.38-.45 1.43 0 2.45.95 2.45 2.52 0 1.65-1.21 2.71-2.94 2.71"/></svg>