<svg xmlns="http://www.w3.org/2000/svg" width="24" height="24"><path d="M12 24a12 12 0 1 0 0-24 12 12 0 0 0 0 24m.5-20.11 7.73 4.46q.23.52.4 1.08l-8.13-4.7zm0 2.85v-.85l8.41 4.86q.06.44.08.89zm8.47 6.04-.1.78-8.37-4.82v-.85zm-8.47-2.04v-.85l8.12 4.7-.24.7zm7.46 5.46q-.16.32-.37.63l-7.09-4.1v-.84zm-7.46-1.46v-.85l6.5 3.76q-.22.3-.48.56zm5.25 4.18q-.3.25-.63.48l-4.62-2.66v-.85zm-5.25-.18v-.85l3.64 2.1q-.4.2-.82.38zm1.53 2.03a9 9 0 0 1-1.53.22v-1.1zM19.2 6.61l-6.14-3.55a9 9 0 0 1 6.14 3.55M3 12a9 9 0 0 1 8.5-8.99V21A9 9 0 0 1 3 12"/></svg>