<svg xmlns="http://www.w3.org/2000/svg" width="24" height="24"><path d="M21.66 14.59A10.02 10.02 0 0 0 12 2a10 10 0 0 0-5 18.66L6 22.4a12 12 0 1 1 17.6-7.28zm-8.25-.47a2.5 2.5 0 1 1-3.53-3.53c1.3-1.3 4.52-2.61 6.13-3.2.39-.15.75.21.6.6-.59 1.6-1.9 4.83-3.2 6.13M10.16 22c.54 0 .92.41.92.95a.9.9 0 0 1-.92.94.9.9 0 0 1-.95-.94c0-.54.4-.95.95-.95m4.51 1.98c-1.4 0-2.5-.68-2.8-1.73l1.44-.65q.3.94 1.32.95c.82 0 1.32-.48 1.32-1.27 0-.8-.45-1.27-1.23-1.27-.6 0-1.03.29-1.24.67l-1.3-.51.73-4.1h4.25v1.49H14.1l-.33 1.64c.3-.3.8-.45 1.38-.45 1.43 0 2.45.96 2.45 2.52 0 1.65-1.21 2.71-2.94 2.71m7.45-.15L21 22.09l-1.16 1.74h-1.77l1.98-2.75-1.76-2.47h1.77l.94 1.48.97-1.49h1.76l-1.8 2.52 1.96 2.71z"/></svg>