<svg xmlns="http://www.w3.org/2000/svg" width="24" height="24"><path d="M21.66 14.59A10.02 10.02 0 0 0 12 2a10 10 0 0 0-2.59 19.66L8.9 23.6a12 12 0 1 1 14.7-8.48zm-8.25-.47a2.5 2.5 0 1 1-3.53-3.53c1.3-1.3 4.52-2.61 6.13-3.2.39-.15.75.21.6.6-.59 1.6-1.9 4.83-3.2 6.13m4.29 7.25c0 1.51-1.25 2.61-2.95 2.61-1.62 0-2.7-.67-2.98-1.84l1.48-.66q.3 1.07 1.4 1.07c.85 0 1.4-.5 1.4-1.32 0-.76-.55-1.27-1.34-1.27-.47 0-.83.1-1.2.33l-.56-1.14 2.3-1.59h-3.1v-1.48h5.25v1.4l-2.02 1.48c1.46.05 2.32.93 2.32 2.4m4.42 2.46L21 22.09l-1.16 1.74h-1.77l1.98-2.75-1.76-2.47h1.77l.94 1.48.97-1.49h1.76l-1.8 2.52 1.96 2.71z"/></svg>