<svg xmlns="http://www.w3.org/2000/svg" width="24" height="24"><path d="M2 3.26C2 2.56 2.58 2 3.3 2h17.4c.72 0 1.3.57 1.3 1.26v4.36c0 .7-.58 1.26-1.3 1.26h-.5c-.71 0-1.3-.56-1.3-1.26v-1.4a1.5 1.5 0 0 0-1.52-1.49h-2.23c-.85 0-1.54.67-1.54 1.5v11.56c0 .82.68 1.48 1.52 1.48.71 0 1.29.56 1.29 1.25v.22c0 .7-.58 1.26-1.3 1.26H8.88c-.72 0-1.3-.57-1.3-1.26v-.22c0-.7.58-1.25 1.29-1.25a1.5 1.5 0 0 0 1.52-1.48V6.23c0-.83-.7-1.5-1.54-1.5H6.61c-.85 0-1.53.67-1.53 1.5v1.39c0 .7-.58 1.26-1.3 1.26H3.3c-.72 0-1.3-.56-1.3-1.26z"/></svg>