<svg width="293" height="151" viewBox="0 0 293 151" fill="none" xmlns="http://www.w3.org/2000/svg">
<rect x="0.5" y="0.5" width="292" height="150" rx="7.5" fill="white"/>
<path d="M21.9609 22.5391C18.6719 22.5391 16.6094 24.7812 16.6094 28.3672C16.6094 31.9531 18.6719 34.1875 21.9609 34.1875C25.2422 34.1875 27.3047 31.9531 27.3047 28.3672C27.3047 24.7812 25.2422 22.5391 21.9609 22.5391ZM21.9609 24.2578C23.9688 24.2578 25.25 25.8516 25.25 28.3672C25.25 30.875 23.9688 32.4688 21.9609 32.4688C19.9453 32.4688 18.6719 30.875 18.6719 28.3672C18.6719 25.8516 19.9453 24.2578 21.9609 24.2578Z" fill="#111111"/>
<path d="M28.7188 34H30.6641V29.2031C30.6641 28.0156 31.375 27.2109 32.4922 27.2109C33.6016 27.2109 34.1484 27.8672 34.1484 29.0391V34H36.0938V28.6484C36.0938 26.7344 35.0547 25.5625 33.2266 25.5625C31.9531 25.5625 31.0703 26.1562 30.625 27.1406H30.5859V25.7188H28.7188V34Z" fill="#111111"/>
<path d="M43.1406 31.5234C42.9297 32.2109 42.2422 32.6641 41.3359 32.6641C40.0625 32.6641 39.25 31.7734 39.25 30.4453V30.3281H45.0391V29.6953C45.0391 27.1797 43.5703 25.5469 41.2188 25.5469C38.8281 25.5469 37.3125 27.2734 37.3125 29.8906C37.3125 32.5312 38.8125 34.1641 41.2969 34.1641C43.2578 34.1641 44.7109 33.0859 44.9609 31.5234H43.1406ZM41.2266 27.0547C42.3438 27.0547 43.0938 27.875 43.1328 29.0469H39.2656C39.3438 27.8906 40.1328 27.0547 41.2266 27.0547Z" fill="#111111"/>
<path d="M53.1641 34.1641C55.5938 34.1641 57.1719 32.5469 57.1719 29.8594C57.1719 27.1797 55.5781 25.5469 53.1641 25.5469C50.75 25.5469 49.1562 27.1875 49.1562 29.8594C49.1562 32.5469 50.7344 34.1641 53.1641 34.1641ZM53.1641 32.625C51.9297 32.625 51.1328 31.625 51.1328 29.8594C51.1328 28.1016 51.9375 27.0938 53.1641 27.0938C54.3984 27.0938 55.1953 28.1016 55.1953 29.8594C55.1953 31.625 54.3984 32.625 53.1641 32.625Z" fill="#111111"/>
<path d="M58.9609 34H60.9062V27.2188H62.5312V25.7422H60.875V25.0625C60.875 24.3906 61.2109 24.0391 61.9531 24.0391C62.1797 24.0391 62.4062 24.0625 62.5703 24.0859V22.7266C62.3281 22.6797 61.9062 22.6406 61.5234 22.6406C59.7266 22.6406 58.9609 23.3984 58.9609 25.0078V25.7422H57.8281V27.2188H58.9609V34Z" fill="#111111"/>
<path d="M67.9453 37.0781C69.8359 37.0781 70.75 36.3828 71.4531 34.3281L74.4531 25.7188H72.4062L70.4531 32.3438H70.4141L68.4688 25.7188H66.3438L69.2891 34.0078C69.2969 34.0312 69.1719 34.4453 69.1719 34.4688C68.9609 35.2344 68.5469 35.5391 67.7422 35.5391C67.625 35.5391 67.2812 35.5312 67.1797 35.5078V37.0469C67.2812 37.0703 67.8281 37.0781 67.9453 37.0781Z" fill="#111111"/>
<path d="M78.8047 34.1641C81.2344 34.1641 82.8125 32.5469 82.8125 29.8594C82.8125 27.1797 81.2188 25.5469 78.8047 25.5469C76.3906 25.5469 74.7969 27.1875 74.7969 29.8594C74.7969 32.5469 76.375 34.1641 78.8047 34.1641ZM78.8047 32.625C77.5703 32.625 76.7734 31.625 76.7734 29.8594C76.7734 28.1016 77.5781 27.0938 78.8047 27.0938C80.0391 27.0938 80.8359 28.1016 80.8359 29.8594C80.8359 31.625 80.0391 32.625 78.8047 32.625Z" fill="#111111"/>
<path d="M91.4062 25.7188H89.4609V30.5078C89.4609 31.7109 88.7656 32.5078 87.6406 32.5078C86.5469 32.5078 85.9688 31.8672 85.9688 30.6797V25.7188H84.0234V31.0703C84.0234 32.9844 85.1641 34.1484 86.9609 34.1484C88.2188 34.1484 89.0547 33.5703 89.4922 32.5625H89.5312V34H91.4062V25.7188Z" fill="#111111"/>
<path d="M93 34H94.9453V29.1797C94.9453 28.0156 95.6094 27.3047 96.7109 27.3047C97.0391 27.3047 97.3359 27.3516 97.5 27.4141V25.6562C97.3594 25.625 97.1406 25.5781 96.8906 25.5781C95.9141 25.5781 95.1875 26.1562 94.9062 27.1641H94.8672V25.7188H93V34Z" fill="#111111"/>
<path d="M109 28.6719C108.867 26.9297 107.516 25.5469 105.328 25.5469C102.922 25.5469 101.359 27.2109 101.359 29.8594C101.359 32.5469 102.922 34.1641 105.344 34.1641C107.422 34.1641 108.852 32.9453 109.008 31.0938H107.172C106.992 32.0312 106.352 32.5938 105.367 32.5938C104.133 32.5938 103.336 31.5938 103.336 29.8594C103.336 28.1562 104.125 27.125 105.352 27.125C106.391 27.125 107.008 27.7891 107.164 28.6719H109Z" fill="#111111"/>
<path d="M112.609 34.1328C113.672 34.1328 114.711 33.5781 115.188 32.6797H115.227V34H117.102V28.2969C117.102 26.6328 115.766 25.5469 113.711 25.5469C111.602 25.5469 110.281 26.6562 110.195 28.2031H112C112.125 27.5156 112.711 27.0703 113.633 27.0703C114.594 27.0703 115.18 27.5703 115.18 28.4375V29.0312L112.992 29.1562C110.977 29.2812 109.844 30.1641 109.844 31.6328C109.844 33.125 111.008 34.1328 112.609 34.1328ZM113.195 32.6641C112.352 32.6641 111.789 32.2344 111.789 31.5547C111.789 30.8984 112.328 30.4766 113.266 30.4141L115.18 30.2969V30.9297C115.18 31.9297 114.297 32.6641 113.195 32.6641Z" fill="#111111"/>
<path d="M118.672 34H120.617V28.9297C120.617 27.9297 121.273 27.2031 122.211 27.2031C123.117 27.2031 123.68 27.7734 123.68 28.6953V34H125.57V28.8828C125.57 27.8906 126.211 27.2031 127.148 27.2031C128.102 27.2031 128.633 27.7812 128.633 28.7969V34H130.578V28.3203C130.578 26.6641 129.508 25.5625 127.875 25.5625C126.68 25.5625 125.695 26.2031 125.297 27.2266H125.25C124.945 26.1641 124.109 25.5625 122.938 25.5625C121.812 25.5625 120.938 26.1953 120.578 27.1562H120.539V25.7188H118.672V34Z" fill="#111111"/>
<path d="M136.688 25.5781C135.484 25.5781 134.547 26.1875 134.078 27.1484H134.039V25.7188H132.141V36.7266H134.086V32.625H134.125C134.578 33.5547 135.516 34.1328 136.719 34.1328C138.797 34.1328 140.125 32.5 140.125 29.8594C140.125 27.2109 138.789 25.5781 136.688 25.5781ZM136.094 32.5391C134.883 32.5391 134.078 31.4844 134.07 29.8594C134.078 28.25 134.883 27.1797 136.094 27.1797C137.352 27.1797 138.133 28.2266 138.133 29.8594C138.133 31.5 137.352 32.5391 136.094 32.5391Z" fill="#111111"/>
<path d="M143.812 34.1328C144.875 34.1328 145.914 33.5781 146.391 32.6797H146.43V34H148.305V28.2969C148.305 26.6328 146.969 25.5469 144.914 25.5469C142.805 25.5469 141.484 26.6562 141.398 28.2031H143.203C143.328 27.5156 143.914 27.0703 144.836 27.0703C145.797 27.0703 146.383 27.5703 146.383 28.4375V29.0312L144.195 29.1562C142.18 29.2812 141.047 30.1641 141.047 31.6328C141.047 33.125 142.211 34.1328 143.812 34.1328ZM144.398 32.6641C143.555 32.6641 142.992 32.2344 142.992 31.5547C142.992 30.8984 143.531 30.4766 144.469 30.4141L146.383 30.2969V30.9297C146.383 31.9297 145.5 32.6641 144.398 32.6641Z" fill="#111111"/>
<path d="M150.891 24.4688C151.484 24.4688 151.953 23.9922 151.953 23.4141C151.953 22.8281 151.484 22.3594 150.891 22.3594C150.297 22.3594 149.82 22.8281 149.82 23.4141C149.82 23.9922 150.297 24.4688 150.891 24.4688ZM149.922 34H151.867V25.7188H149.922V34Z" fill="#111111"/>
<path d="M157.148 37.125C159.562 37.125 161.148 35.8438 161.148 33.8672V25.7188H159.242V27.1406H159.211C158.734 26.1875 157.781 25.5781 156.602 25.5781C154.484 25.5781 153.156 27.2109 153.156 29.8281C153.156 32.4062 154.516 34.0078 156.562 34.0078C157.75 34.0078 158.727 33.4141 159.156 32.5234H159.203V33.9219C159.203 34.9766 158.477 35.6875 157.211 35.6875C156.289 35.6875 155.578 35.2578 155.367 34.625H153.438C153.633 36.0781 155.102 37.125 157.148 37.125ZM157.156 32.4609C155.93 32.4609 155.148 31.4766 155.148 29.8359C155.148 28.2109 155.93 27.1797 157.156 27.1797C158.398 27.1797 159.203 28.2266 159.203 29.8359C159.203 31.4531 158.398 32.4609 157.156 32.4609Z" fill="#111111"/>
<path d="M162.734 34H164.68V29.2031C164.68 28.0156 165.391 27.2109 166.508 27.2109C167.617 27.2109 168.164 27.8672 168.164 29.0391V34H170.109V28.6484C170.109 26.7344 169.07 25.5625 167.242 25.5625C165.969 25.5625 165.086 26.1562 164.641 27.1406H164.602V25.7188H162.734V34Z" fill="#111111"/>
<path d="M171.523 28.0938C171.523 29.3203 172.32 30.1016 173.906 30.4531L175.281 30.7578C176.148 30.9531 176.445 31.2344 176.445 31.7344C176.445 32.3516 175.859 32.7422 174.914 32.7422C173.93 32.7422 173.375 32.3359 173.227 31.5312H171.312C171.469 33.1328 172.75 34.1641 174.914 34.1641C176.945 34.1641 178.383 33.1094 178.383 31.5469C178.383 30.3438 177.719 29.6797 176 29.2969L174.625 28.9922C173.758 28.7969 173.414 28.4688 173.414 27.9922C173.414 27.3828 173.984 26.9766 174.844 26.9766C175.742 26.9766 176.297 27.4531 176.375 28.2031H178.188C178.141 26.6328 176.859 25.5469 174.844 25.5469C172.844 25.5469 171.523 26.5781 171.523 28.0938Z" fill="#111111"/>
<path d="M182.883 34H184.828V29.2422C184.828 28.0234 185.539 27.2109 186.711 27.2109C187.836 27.2109 188.414 27.9062 188.414 29.0625V34H190.359V28.6641C190.359 26.7656 189.289 25.5625 187.461 25.5625C186.203 25.5625 185.289 26.1328 184.844 27.1406H184.805V22.7266H182.883V34Z" fill="#111111"/>
<path d="M194.359 34.1328C195.422 34.1328 196.461 33.5781 196.938 32.6797H196.977V34H198.852V28.2969C198.852 26.6328 197.516 25.5469 195.461 25.5469C193.352 25.5469 192.031 26.6562 191.945 28.2031H193.75C193.875 27.5156 194.461 27.0703 195.383 27.0703C196.344 27.0703 196.93 27.5703 196.93 28.4375V29.0312L194.742 29.1562C192.727 29.2812 191.594 30.1641 191.594 31.6328C191.594 33.125 192.758 34.1328 194.359 34.1328ZM194.945 32.6641C194.102 32.6641 193.539 32.2344 193.539 31.5547C193.539 30.8984 194.078 30.4766 195.016 30.4141L196.93 30.2969V30.9297C196.93 31.9297 196.047 32.6641 194.945 32.6641Z" fill="#111111"/>
<path d="M200.273 28.0938C200.273 29.3203 201.07 30.1016 202.656 30.4531L204.031 30.7578C204.898 30.9531 205.195 31.2344 205.195 31.7344C205.195 32.3516 204.609 32.7422 203.664 32.7422C202.68 32.7422 202.125 32.3359 201.977 31.5312H200.062C200.219 33.1328 201.5 34.1641 203.664 34.1641C205.695 34.1641 207.133 33.1094 207.133 31.5469C207.133 30.3438 206.469 29.6797 204.75 29.2969L203.375 28.9922C202.508 28.7969 202.164 28.4688 202.164 27.9922C202.164 27.3828 202.734 26.9766 203.594 26.9766C204.492 26.9766 205.047 27.4531 205.125 28.2031H206.938C206.891 26.6328 205.609 25.5469 203.594 25.5469C201.594 25.5469 200.273 26.5781 200.273 28.0938Z" fill="#111111"/>
<path d="M214.016 34.1328C215.078 34.1328 216.117 33.5781 216.594 32.6797H216.633V34H218.508V28.2969C218.508 26.6328 217.172 25.5469 215.117 25.5469C213.008 25.5469 211.688 26.6562 211.602 28.2031H213.406C213.531 27.5156 214.117 27.0703 215.039 27.0703C216 27.0703 216.586 27.5703 216.586 28.4375V29.0312L214.398 29.1562C212.383 29.2812 211.25 30.1641 211.25 31.6328C211.25 33.125 212.414 34.1328 214.016 34.1328ZM214.602 32.6641C213.758 32.6641 213.195 32.2344 213.195 31.5547C213.195 30.8984 213.734 30.4766 214.672 30.4141L216.586 30.2969V30.9297C216.586 31.9297 215.703 32.6641 214.602 32.6641Z" fill="#111111"/>
<path d="M220.078 34H222.023V29.2031C222.023 28.0156 222.734 27.2109 223.852 27.2109C224.961 27.2109 225.508 27.8672 225.508 29.0391V34H227.453V28.6484C227.453 26.7344 226.414 25.5625 224.586 25.5625C223.312 25.5625 222.43 26.1562 221.984 27.1406H221.945V25.7188H220.078V34Z" fill="#111111"/>
<path d="M233.234 24.4688C233.828 24.4688 234.297 23.9922 234.297 23.4141C234.297 22.8281 233.828 22.3594 233.234 22.3594C232.641 22.3594 232.164 22.8281 232.164 23.4141C232.164 23.9922 232.641 24.4688 233.234 24.4688ZM232.266 34H234.211V25.7188H232.266V34Z" fill="#111111"/>
<path d="M235.695 28.0938C235.695 29.3203 236.492 30.1016 238.078 30.4531L239.453 30.7578C240.32 30.9531 240.617 31.2344 240.617 31.7344C240.617 32.3516 240.031 32.7422 239.086 32.7422C238.102 32.7422 237.547 32.3359 237.398 31.5312H235.484C235.641 33.1328 236.922 34.1641 239.086 34.1641C241.117 34.1641 242.555 33.1094 242.555 31.5469C242.555 30.3438 241.891 29.6797 240.172 29.2969L238.797 28.9922C237.93 28.7969 237.586 28.4688 237.586 27.9922C237.586 27.3828 238.156 26.9766 239.016 26.9766C239.914 26.9766 240.469 27.4531 240.547 28.2031H242.359C242.312 26.6328 241.031 25.5469 239.016 25.5469C237.016 25.5469 235.695 26.5781 235.695 28.0938Z" fill="#111111"/>
<path d="M243.648 28.0938C243.648 29.3203 244.445 30.1016 246.031 30.4531L247.406 30.7578C248.273 30.9531 248.57 31.2344 248.57 31.7344C248.57 32.3516 247.984 32.7422 247.039 32.7422C246.055 32.7422 245.5 32.3359 245.352 31.5312H243.438C243.594 33.1328 244.875 34.1641 247.039 34.1641C249.07 34.1641 250.508 33.1094 250.508 31.5469C250.508 30.3438 249.844 29.6797 248.125 29.2969L246.75 28.9922C245.883 28.7969 245.539 28.4688 245.539 27.9922C245.539 27.3828 246.109 26.9766 246.969 26.9766C247.867 26.9766 248.422 27.4531 248.5 28.2031H250.312C250.266 26.6328 248.984 25.5469 246.969 25.5469C244.969 25.5469 243.648 26.5781 243.648 28.0938Z" fill="#111111"/>
<path d="M259.094 25.7188H257.148V30.5078C257.148 31.7109 256.453 32.5078 255.328 32.5078C254.234 32.5078 253.656 31.8672 253.656 30.6797V25.7188H251.711V31.0703C251.711 32.9844 252.852 34.1484 254.648 34.1484C255.906 34.1484 256.742 33.5703 257.18 32.5625H257.219V34H259.094V25.7188Z" fill="#111111"/>
<path d="M266.172 31.5234C265.961 32.2109 265.273 32.6641 264.367 32.6641C263.094 32.6641 262.281 31.7734 262.281 30.4453V30.3281H268.07V29.6953C268.07 27.1797 266.602 25.5469 264.25 25.5469C261.859 25.5469 260.344 27.2734 260.344 29.8906C260.344 32.5312 261.844 34.1641 264.328 34.1641C266.289 34.1641 267.742 33.0859 267.992 31.5234H266.172ZM264.258 27.0547C265.375 27.0547 266.125 27.875 266.164 29.0469H262.297C262.375 27.8906 263.164 27.0547 264.258 27.0547Z" fill="#111111"/>
<path d="M20.3301 59.8555V52.3496H23.0547V51.4004H16.5508V52.3496H19.2754V59.8555H20.3301Z" fill="#111111"/>
<path d="M24.6133 59.8555H25.6211V56.1172C25.6211 55.0508 26.2422 54.3359 27.373 54.3359C28.3281 54.3359 28.832 54.8926 28.832 56.0117V59.8555H29.8398V55.7656C29.8398 54.2832 28.9961 53.4277 27.6602 53.4277C26.6934 53.4277 26.0312 53.8379 25.7148 54.5352H25.6211V51.0312H24.6133V59.8555Z" fill="#111111"/>
<path d="M35.8633 58.2207C35.5996 58.7773 35.0488 59.0762 34.2344 59.0762C33.1621 59.0762 32.4648 58.2852 32.4121 57.0371V56.9902H36.9531V56.6035C36.9531 54.6406 35.916 53.4277 34.2109 53.4277C32.4766 53.4277 31.3633 54.7168 31.3633 56.7031C31.3633 58.7012 32.459 59.9668 34.2109 59.9668C35.5938 59.9668 36.5781 59.2988 36.8711 58.2207H35.8633ZM34.1992 54.3184C35.2012 54.3184 35.8691 55.0566 35.8926 56.1758H32.4121C32.4883 55.0566 33.1914 54.3184 34.1992 54.3184Z" fill="#111111"/>
<path d="M47.1484 55.4727C46.9727 54.3477 46.0352 53.4277 44.5 53.4277C42.7305 53.4277 41.6055 54.7051 41.6055 56.6738C41.6055 58.6836 42.7363 59.9668 44.5059 59.9668C46.0234 59.9668 46.9668 59.1113 47.1484 57.9512H46.1289C45.9414 58.666 45.3496 59.0586 44.5 59.0586C43.375 59.0586 42.6484 58.1328 42.6484 56.6738C42.6484 55.2441 43.3633 54.3359 44.5 54.3359C45.4082 54.3359 45.9648 54.8457 46.1289 55.4727H47.1484Z" fill="#111111"/>
<path d="M50.3945 59.9668C51.2383 59.9668 51.9297 59.5977 52.3398 58.9238H52.4336V59.8555H53.3945V55.5312C53.3945 54.2188 52.5332 53.4277 50.9922 53.4277C49.6445 53.4277 48.6484 54.0957 48.5137 55.1094H49.5332C49.6738 54.6113 50.2012 54.3242 50.957 54.3242C51.9004 54.3242 52.3867 54.752 52.3867 55.5312V56.1055L50.5645 56.2168C49.0938 56.3047 48.2617 56.9551 48.2617 58.0859C48.2617 59.2402 49.1699 59.9668 50.3945 59.9668ZM50.582 59.082C49.8496 59.082 49.3047 58.707 49.3047 58.0625C49.3047 57.4297 49.7266 57.0957 50.6875 57.0312L52.3867 56.9199V57.5C52.3867 58.4023 51.6191 59.082 50.582 59.082Z" fill="#111111"/>
<path d="M55.2578 59.8555H56.2656V55.9414C56.2656 55.0508 56.9043 54.3359 57.7305 54.3359C58.5273 54.3359 59.0488 54.8164 59.0488 55.5664V59.8555H60.0566V55.7949C60.0566 54.9922 60.6426 54.3359 61.5215 54.3359C62.4121 54.3359 62.8516 54.793 62.8516 55.7246V59.8555H63.8594V55.4902C63.8594 54.166 63.1387 53.4277 61.8496 53.4277C60.9766 53.4277 60.2559 53.8672 59.916 54.5352H59.8223C59.5293 53.8789 58.9316 53.4277 58.0762 53.4277C57.2324 53.4277 56.5996 53.832 56.3125 54.5352H56.2188V53.5391H55.2578V59.8555Z" fill="#111111"/>
<path d="M68.7754 53.4277C67.9141 53.4277 67.1582 53.8672 66.7539 54.5938H66.6602V53.5391H65.6992V61.9648H66.707V58.9062H66.8008C67.1465 59.5742 67.873 59.9668 68.7754 59.9668C70.3809 59.9668 71.4297 58.6719 71.4297 56.6973C71.4297 54.7109 70.3867 53.4277 68.7754 53.4277ZM68.5352 59.0586C67.3984 59.0586 66.6777 58.1445 66.6777 56.6973C66.6777 55.2441 67.3984 54.3359 68.541 54.3359C69.6953 54.3359 70.3867 55.2207 70.3867 56.6973C70.3867 58.1738 69.6953 59.0586 68.5352 59.0586Z" fill="#111111"/>
<path d="M74.7695 59.9668C75.6133 59.9668 76.3047 59.5977 76.7148 58.9238H76.8086V59.8555H77.7695V55.5312C77.7695 54.2188 76.9082 53.4277 75.3672 53.4277C74.0195 53.4277 73.0234 54.0957 72.8887 55.1094H73.9082C74.0488 54.6113 74.5762 54.3242 75.332 54.3242C76.2754 54.3242 76.7617 54.752 76.7617 55.5312V56.1055L74.9395 56.2168C73.4688 56.3047 72.6367 56.9551 72.6367 58.0859C72.6367 59.2402 73.5449 59.9668 74.7695 59.9668ZM74.957 59.082C74.2246 59.082 73.6797 58.707 73.6797 58.0625C73.6797 57.4297 74.1016 57.0957 75.0625 57.0312L76.7617 56.9199V57.5C76.7617 58.4023 75.9941 59.082 74.957 59.082Z" fill="#111111"/>
<path d="M80.1602 52.3203C80.5469 52.3203 80.8633 52.0039 80.8633 51.6172C80.8633 51.2305 80.5469 50.9141 80.1602 50.9141C79.7734 50.9141 79.457 51.2305 79.457 51.6172C79.457 52.0039 79.7734 52.3203 80.1602 52.3203ZM79.6562 59.8555H80.6641V53.5391H79.6562V59.8555Z" fill="#111111"/>
<path d="M85.1875 62.2812C86.9102 62.2812 88 61.3789 88 59.9668V53.5391H87.0391V54.541H86.9453C86.582 53.8613 85.8027 53.4277 84.918 53.4277C83.2949 53.4277 82.2695 54.7109 82.2695 56.6035C82.2695 58.4961 83.2832 59.7617 84.918 59.7617C85.7852 59.7617 86.5 59.3691 86.8984 58.6719H86.9922V59.9141C86.9922 60.8457 86.3184 61.4023 85.1875 61.4023C84.2793 61.4023 83.7168 61.0684 83.6055 60.5527H82.5391C82.6914 61.5957 83.6641 62.2812 85.1875 62.2812ZM85.1406 58.8711C83.9688 58.8711 83.3125 57.9805 83.3125 56.6035C83.3125 55.2266 83.9688 54.3359 85.1406 54.3359C86.3066 54.3359 87.0156 55.2266 87.0156 56.6035C87.0156 57.9805 86.3125 58.8711 85.1406 58.8711Z" fill="#111111"/>
<path d="M89.8984 59.8555H90.9062V56.1172C90.9062 55.0098 91.5566 54.3359 92.5645 54.3359C93.5723 54.3359 94.0527 54.875 94.0527 56.0117V59.8555H95.0605V55.7656C95.0605 54.2656 94.2695 53.4277 92.8516 53.4277C91.8848 53.4277 91.2695 53.8379 90.9531 54.5352H90.8594V53.5391H89.8984V59.8555Z" fill="#111111"/>
<path d="M105.918 59.8555H107.025L103.908 51.4004H102.865L99.748 59.8555H100.855L101.705 57.4355H105.068L105.918 59.8555ZM103.34 52.7656H103.434L104.758 56.5391H102.016L103.34 52.7656Z" fill="#111111"/>
<path d="M111.232 59.8555L114.35 51.4004H113.242L110.758 58.4902H110.664L108.18 51.4004H107.072L110.189 59.8555H111.232Z" fill="#111111"/>
<path d="M116.887 56.5098H118.967L120.777 59.8555H122.014L120.057 56.3457C121.117 56.0117 121.756 55.0977 121.756 53.9199C121.756 52.3965 120.689 51.4004 119.061 51.4004H115.832V59.8555H116.887V56.5098ZM116.887 52.3379H118.92C120.01 52.3379 120.666 52.9414 120.666 53.9551C120.666 54.9922 120.051 55.5723 118.967 55.5723H116.887V52.3379Z" fill="#111111"/>
<path d="M127.346 56.9316V55.9766H123.502V56.9316H127.346Z" fill="#111111"/>
<path d="M129.145 53.7852H130.164C130.164 52.7832 130.838 52.1211 131.852 52.1211C132.848 52.1211 133.451 52.7891 133.451 53.6855C133.451 54.4297 133.135 54.8691 132.057 56.0352L129.197 59.1289V59.8555H134.67V58.9062H130.662V58.8125L132.584 56.8262C134.107 55.25 134.529 54.5469 134.529 53.5742C134.529 52.2031 133.398 51.2012 131.922 51.2012C130.305 51.2012 129.145 52.2793 129.145 53.7852Z" fill="#111111"/>
<path d="M136.398 53.7852H137.418C137.418 52.7832 138.092 52.1211 139.105 52.1211C140.102 52.1211 140.705 52.7891 140.705 53.6855C140.705 54.4297 140.389 54.8691 139.311 56.0352L136.451 59.1289V59.8555H141.924V58.9062H137.916V58.8125L139.838 56.8262C141.361 55.25 141.783 54.5469 141.783 53.5742C141.783 52.2031 140.652 51.2012 139.176 51.2012C137.559 51.2012 136.398 52.2793 136.398 53.7852Z" fill="#111111"/>
<path d="M145.48 55.959H146.529C147.719 55.959 148.451 56.5684 148.451 57.5469C148.451 58.4961 147.66 59.1348 146.547 59.1348C145.457 59.1348 144.695 58.5664 144.602 57.6758H143.582C143.658 59.1113 144.842 60.0547 146.559 60.0547C148.24 60.0547 149.535 58.9941 149.535 57.5762C149.535 56.3984 148.809 55.6543 147.713 55.4785V55.3848C148.58 55.1328 149.213 54.459 149.219 53.4395C149.225 52.2559 148.264 51.2012 146.594 51.2012C144.883 51.2012 143.834 52.2148 143.729 53.5918H144.754C144.842 52.6426 145.504 52.1211 146.523 52.1211C147.543 52.1211 148.146 52.7656 148.146 53.5566C148.146 54.4355 147.455 55.0566 146.482 55.0566H145.48V55.959Z" fill="#111111"/>
<path d="M151.293 59.8555H152.301V56.1172C152.301 55.0508 152.922 54.3359 154.053 54.3359C155.008 54.3359 155.512 54.8926 155.512 56.0117V59.8555H156.52V55.7656C156.52 54.2832 155.676 53.4277 154.34 53.4277C153.373 53.4277 152.711 53.8379 152.395 54.5352H152.301V51.0312H151.293V59.8555Z" fill="#111111"/>
<path d="M161.805 59.8555H162.812V56.1172C162.812 55.0508 163.434 54.3359 164.564 54.3359C165.52 54.3359 166.023 54.8926 166.023 56.0117V59.8555H167.031V55.7656C167.031 54.2832 166.188 53.4277 164.852 53.4277C163.885 53.4277 163.223 53.8379 162.906 54.5352H162.812V51.0312H161.805V59.8555Z" fill="#111111"/>
<path d="M170.629 59.9668C171.473 59.9668 172.164 59.5977 172.574 58.9238H172.668V59.8555H173.629V55.5312C173.629 54.2188 172.768 53.4277 171.227 53.4277C169.879 53.4277 168.883 54.0957 168.748 55.1094H169.768C169.908 54.6113 170.436 54.3242 171.191 54.3242C172.135 54.3242 172.621 54.752 172.621 55.5312V56.1055L170.799 56.2168C169.328 56.3047 168.496 56.9551 168.496 58.0859C168.496 59.2402 169.404 59.9668 170.629 59.9668ZM170.816 59.082C170.084 59.082 169.539 58.707 169.539 58.0625C169.539 57.4297 169.961 57.0957 170.922 57.0312L172.621 56.9199V57.5C172.621 58.4023 171.854 59.082 170.816 59.082Z" fill="#111111"/>
<path d="M175.346 55.2676C175.346 56.1816 175.885 56.6914 177.068 56.9785L178.152 57.2422C178.826 57.4062 179.154 57.6992 179.154 58.1328C179.154 58.7129 178.545 59.1172 177.695 59.1172C176.887 59.1172 176.383 58.7773 176.213 58.2441H175.176C175.287 59.293 176.254 59.9668 177.66 59.9668C179.096 59.9668 180.191 59.1875 180.191 58.0566C180.191 57.1484 179.617 56.6328 178.428 56.3457L177.455 56.1113C176.711 55.9297 176.359 55.6602 176.359 55.2266C176.359 54.6641 176.945 54.2832 177.695 54.2832C178.457 54.2832 178.949 54.6172 179.084 55.1211H180.08C179.945 54.084 179.025 53.4277 177.701 53.4277C176.359 53.4277 175.346 54.2188 175.346 55.2676Z" fill="#111111"/>
<path d="M186.918 59.9668C187.762 59.9668 188.453 59.5977 188.863 58.9238H188.957V59.8555H189.918V55.5312C189.918 54.2188 189.057 53.4277 187.516 53.4277C186.168 53.4277 185.172 54.0957 185.037 55.1094H186.057C186.197 54.6113 186.725 54.3242 187.48 54.3242C188.424 54.3242 188.91 54.752 188.91 55.5312V56.1055L187.088 56.2168C185.617 56.3047 184.785 56.9551 184.785 58.0859C184.785 59.2402 185.693 59.9668 186.918 59.9668ZM187.105 59.082C186.373 59.082 185.828 58.707 185.828 58.0625C185.828 57.4297 186.25 57.0957 187.211 57.0312L188.91 56.9199V57.5C188.91 58.4023 188.143 59.082 187.105 59.082Z" fill="#111111"/>
<path d="M191.781 59.8555H192.789V56.1172C192.789 55.0098 193.439 54.3359 194.447 54.3359C195.455 54.3359 195.936 54.875 195.936 56.0117V59.8555H196.943V55.7656C196.943 54.2656 196.152 53.4277 194.734 53.4277C193.768 53.4277 193.152 53.8379 192.836 54.5352H192.742V53.5391H191.781V59.8555Z" fill="#111111"/>
<path d="M202.703 52.3203C203.09 52.3203 203.406 52.0039 203.406 51.6172C203.406 51.2305 203.09 50.9141 202.703 50.9141C202.316 50.9141 202 51.2305 202 51.6172C202 52.0039 202.316 52.3203 202.703 52.3203ZM202.199 59.8555H203.207V53.5391H202.199V59.8555Z" fill="#111111"/>
<path d="M204.982 55.2676C204.982 56.1816 205.521 56.6914 206.705 56.9785L207.789 57.2422C208.463 57.4062 208.791 57.6992 208.791 58.1328C208.791 58.7129 208.182 59.1172 207.332 59.1172C206.523 59.1172 206.02 58.7773 205.85 58.2441H204.812C204.924 59.293 205.891 59.9668 207.297 59.9668C208.732 59.9668 209.828 59.1875 209.828 58.0566C209.828 57.1484 209.254 56.6328 208.064 56.3457L207.092 56.1113C206.348 55.9297 205.996 55.6602 205.996 55.2266C205.996 54.6641 206.582 54.2832 207.332 54.2832C208.094 54.2832 208.586 54.6172 208.721 55.1211H209.717C209.582 54.084 208.662 53.4277 207.338 53.4277C205.996 53.4277 204.982 54.2188 204.982 55.2676Z" fill="#111111"/>
<path d="M211.146 55.2676C211.146 56.1816 211.686 56.6914 212.869 56.9785L213.953 57.2422C214.627 57.4062 214.955 57.6992 214.955 58.1328C214.955 58.7129 214.346 59.1172 213.496 59.1172C212.688 59.1172 212.184 58.7773 212.014 58.2441H210.977C211.088 59.293 212.055 59.9668 213.461 59.9668C214.896 59.9668 215.992 59.1875 215.992 58.0566C215.992 57.1484 215.418 56.6328 214.229 56.3457L213.256 56.1113C212.512 55.9297 212.16 55.6602 212.16 55.2266C212.16 54.6641 212.746 54.2832 213.496 54.2832C214.258 54.2832 214.75 54.6172 214.885 55.1211H215.881C215.746 54.084 214.826 53.4277 213.502 53.4277C212.16 53.4277 211.146 54.2188 211.146 55.2676Z" fill="#111111"/>
<path d="M222.684 53.5391H221.676V57.2773C221.676 58.3848 221.066 59.0469 219.953 59.0469C218.945 59.0469 218.523 58.5195 218.523 57.3828V53.5391H217.516V57.6289C217.516 59.123 218.254 59.9668 219.672 59.9668C220.639 59.9668 221.312 59.5684 221.629 58.8652H221.723V59.8555H222.684V53.5391Z" fill="#111111"/>
<path d="M228.766 58.2207C228.502 58.7773 227.951 59.0762 227.137 59.0762C226.064 59.0762 225.367 58.2852 225.314 57.0371V56.9902H229.855V56.6035C229.855 54.6406 228.818 53.4277 227.113 53.4277C225.379 53.4277 224.266 54.7168 224.266 56.7031C224.266 58.7012 225.361 59.9668 227.113 59.9668C228.496 59.9668 229.48 59.2988 229.773 58.2207H228.766ZM227.102 54.3184C228.104 54.3184 228.771 55.0566 228.795 56.1758H225.314C225.391 55.0566 226.094 54.3184 227.102 54.3184Z" fill="#111111"/>
<path d="M236.582 59.9668C237.426 59.9668 238.117 59.5977 238.527 58.9238H238.621V59.8555H239.582V55.5312C239.582 54.2188 238.721 53.4277 237.18 53.4277C235.832 53.4277 234.836 54.0957 234.701 55.1094H235.721C235.861 54.6113 236.389 54.3242 237.145 54.3242C238.088 54.3242 238.574 54.752 238.574 55.5312V56.1055L236.752 56.2168C235.281 56.3047 234.449 56.9551 234.449 58.0859C234.449 59.2402 235.357 59.9668 236.582 59.9668ZM236.77 59.082C236.037 59.082 235.492 58.707 235.492 58.0625C235.492 57.4297 235.914 57.0957 236.875 57.0312L238.574 56.9199V57.5C238.574 58.4023 237.807 59.082 236.77 59.082Z" fill="#111111"/>
<path d="M241.445 59.8555H242.453V56.1172C242.453 55.0098 243.104 54.3359 244.111 54.3359C245.119 54.3359 245.6 54.875 245.6 56.0117V59.8555H246.607V55.7656C246.607 54.2656 245.816 53.4277 244.398 53.4277C243.432 53.4277 242.816 53.8379 242.5 54.5352H242.406V53.5391H241.445V59.8555Z" fill="#111111"/>
<path d="M250.791 59.9668C251.664 59.9668 252.414 59.5508 252.812 58.8477H252.906V59.8555H253.867V51.0312H252.859V54.5352H252.771C252.414 53.8438 251.67 53.4277 250.791 53.4277C249.186 53.4277 248.137 54.7168 248.137 56.6973C248.137 58.6836 249.174 59.9668 250.791 59.9668ZM251.025 54.3359C252.168 54.3359 252.883 55.25 252.883 56.6973C252.883 58.1562 252.174 59.0586 251.025 59.0586C249.871 59.0586 249.18 58.1738 249.18 56.6973C249.18 55.2266 249.877 54.3359 251.025 54.3359Z" fill="#111111"/>
<path d="M22.1758 69.4727C22 68.3477 21.0625 67.4277 19.5273 67.4277C17.7578 67.4277 16.6328 68.7051 16.6328 70.6738C16.6328 72.6836 17.7637 73.9668 19.5332 73.9668C21.0508 73.9668 21.9941 73.1113 22.1758 71.9512H21.1562C20.9688 72.666 20.377 73.0586 19.5273 73.0586C18.4023 73.0586 17.6758 72.1328 17.6758 70.6738C17.6758 69.2441 18.3906 68.3359 19.5273 68.3359C20.4355 68.3359 20.9922 68.8457 21.1562 69.4727H22.1758Z" fill="#111111"/>
<path d="M25.4219 73.9668C26.2656 73.9668 26.957 73.5977 27.3672 72.9238H27.4609V73.8555H28.4219V69.5312C28.4219 68.2188 27.5605 67.4277 26.0195 67.4277C24.6719 67.4277 23.6758 68.0957 23.541 69.1094H24.5605C24.7012 68.6113 25.2285 68.3242 25.9844 68.3242C26.9277 68.3242 27.4141 68.752 27.4141 69.5312V70.1055L25.5918 70.2168C24.1211 70.3047 23.2891 70.9551 23.2891 72.0859C23.2891 73.2402 24.1973 73.9668 25.4219 73.9668ZM25.6094 73.082C24.877 73.082 24.332 72.707 24.332 72.0625C24.332 71.4297 24.7539 71.0957 25.7148 71.0312L27.4141 70.9199V71.5C27.4141 72.4023 26.6465 73.082 25.6094 73.082Z" fill="#111111"/>
<path d="M30.2852 73.8555H31.293V70.1172C31.293 69.0098 31.9434 68.3359 32.9512 68.3359C33.959 68.3359 34.4395 68.875 34.4395 70.0117V73.8555H35.4473V69.7656C35.4473 68.2656 34.6562 67.4277 33.2383 67.4277C32.2715 67.4277 31.6562 67.8379 31.3398 68.5352H31.2461V67.5391H30.2852V73.8555Z" fill="#111111"/>
<path d="M37.293 73.8555H38.3008V70.1172C38.3008 69.0098 38.9512 68.3359 39.959 68.3359C40.9668 68.3359 41.4473 68.875 41.4473 70.0117V73.8555H42.4551V69.7656C42.4551 68.2656 41.6641 67.4277 40.2461 67.4277C39.2793 67.4277 38.6641 67.8379 38.3477 68.5352H38.2539V67.5391H37.293V73.8555Z" fill="#111111"/>
<path d="M46.8965 73.9668C48.6953 73.9668 49.8086 72.7246 49.8086 70.6973C49.8086 68.6641 48.6953 67.4277 46.8965 67.4277C45.0977 67.4277 43.9844 68.6641 43.9844 70.6973C43.9844 72.7246 45.0977 73.9668 46.8965 73.9668ZM46.8965 73.0586C45.7012 73.0586 45.0273 72.1914 45.0273 70.6973C45.0273 69.1973 45.7012 68.3359 46.8965 68.3359C48.0918 68.3359 48.7656 69.1973 48.7656 70.6973C48.7656 72.1914 48.0918 73.0586 46.8965 73.0586Z" fill="#111111"/>
<path d="M51.8125 65.9043V67.5391H50.793V68.3828H51.8125V72.2148C51.8125 73.4219 52.334 73.9023 53.6348 73.9023C53.834 73.9023 54.0273 73.8789 54.2266 73.8438V72.9941C54.0391 73.0117 53.9395 73.0176 53.7578 73.0176C53.1016 73.0176 52.8203 72.7012 52.8203 71.957V68.3828H54.2266V67.5391H52.8203V65.9043H51.8125Z" fill="#111111"/>
<path d="M59.1367 73.8555H60.1445V69.9414C60.1445 69.0508 60.8418 68.4062 61.8027 68.4062C62.002 68.4062 62.3652 68.4414 62.4473 68.4648V67.457C62.3184 67.4395 62.1074 67.4277 61.9434 67.4277C61.1055 67.4277 60.3789 67.8613 60.1914 68.4766H60.0977V67.5391H59.1367V73.8555Z" fill="#111111"/>
<path d="M68.8164 67.5391H67.8086V71.2773C67.8086 72.3848 67.1992 73.0469 66.0859 73.0469C65.0781 73.0469 64.6562 72.5195 64.6562 71.3828V67.5391H63.6484V71.6289C63.6484 73.123 64.3867 73.9668 65.8047 73.9668C66.7715 73.9668 67.4453 73.5684 67.7617 72.8652H67.8555V73.8555H68.8164V67.5391Z" fill="#111111"/>
<path d="M70.7148 73.8555H71.7227V70.1172C71.7227 69.0098 72.373 68.3359 73.3809 68.3359C74.3887 68.3359 74.8691 68.875 74.8691 70.0117V73.8555H75.877V69.7656C75.877 68.2656 75.0859 67.4277 73.668 67.4277C72.7012 67.4277 72.0859 67.8379 71.7695 68.5352H71.6758V67.5391H70.7148V73.8555Z" fill="#111111"/>
<path d="M78.5547 73.9141C78.9766 73.9141 79.3164 73.5684 79.3164 73.1523C79.3164 72.7305 78.9766 72.3906 78.5547 72.3906C78.1387 72.3906 77.793 72.7305 77.793 73.1523C77.793 73.5684 78.1387 73.9141 78.5547 73.9141Z" fill="#111111"/>
<path d="M88.2051 74.0547C90.0039 74.0547 91.3398 73.0527 91.6211 71.5H90.5488C90.2793 72.4785 89.3828 73.082 88.2051 73.082C86.5762 73.082 85.5566 71.752 85.5566 69.6309C85.5566 67.5098 86.5762 66.1738 88.1992 66.1738C89.3652 66.1738 90.2676 66.8594 90.5488 67.9492H91.6211C91.3691 66.3203 89.9805 65.2012 88.1992 65.2012C85.9023 65.2012 84.4727 66.9004 84.4727 69.6309C84.4727 72.3555 85.9082 74.0547 88.2051 74.0547Z" fill="#111111"/>
<path d="M93.3203 73.8555H94.3281V70.1172C94.3281 69.0508 94.9492 68.3359 96.0801 68.3359C97.0352 68.3359 97.5391 68.8926 97.5391 70.0117V73.8555H98.5469V69.7656C98.5469 68.2832 97.7031 67.4277 96.3672 67.4277C95.4004 67.4277 94.7383 67.8379 94.4219 68.5352H94.3281V65.0312H93.3203V73.8555Z" fill="#111111"/>
<path d="M104.57 72.2207C104.307 72.7773 103.756 73.0762 102.941 73.0762C101.869 73.0762 101.172 72.2852 101.119 71.0371V70.9902H105.66V70.6035C105.66 68.6406 104.623 67.4277 102.918 67.4277C101.184 67.4277 100.07 68.7168 100.07 70.7031C100.07 72.7012 101.166 73.9668 102.918 73.9668C104.301 73.9668 105.285 73.2988 105.578 72.2207H104.57ZM102.906 68.3184C103.908 68.3184 104.576 69.0566 104.6 70.1758H101.119C101.195 69.0566 101.898 68.3184 102.906 68.3184Z" fill="#111111"/>
<path d="M112.469 69.4727C112.293 68.3477 111.355 67.4277 109.82 67.4277C108.051 67.4277 106.926 68.7051 106.926 70.6738C106.926 72.6836 108.057 73.9668 109.826 73.9668C111.344 73.9668 112.287 73.1113 112.469 71.9512H111.449C111.262 72.666 110.67 73.0586 109.82 73.0586C108.695 73.0586 107.969 72.1328 107.969 70.6738C107.969 69.2441 108.684 68.3359 109.82 68.3359C110.729 68.3359 111.285 68.8457 111.449 69.4727H112.469Z" fill="#111111"/>
<path d="M115.117 70.2988H115.023V65.0312H114.016V73.8555H115.023V71.459L115.627 70.8965L117.994 73.8555H119.277L116.377 70.2461L119.096 67.5391H117.859L115.117 70.2988Z" fill="#111111"/>
<path d="M124.281 65.9043V67.5391H123.262V68.3828H124.281V72.2148C124.281 73.4219 124.803 73.9023 126.104 73.9023C126.303 73.9023 126.496 73.8789 126.695 73.8438V72.9941C126.508 73.0117 126.408 73.0176 126.227 73.0176C125.57 73.0176 125.289 72.7012 125.289 71.957V68.3828H126.695V67.5391H125.289V65.9043H124.281Z" fill="#111111"/>
<path d="M128.277 73.8555H129.285V70.1172C129.285 69.0508 129.906 68.3359 131.037 68.3359C131.992 68.3359 132.496 68.8926 132.496 70.0117V73.8555H133.504V69.7656C133.504 68.2832 132.66 67.4277 131.324 67.4277C130.357 67.4277 129.695 67.8379 129.379 68.5352H129.285V65.0312H128.277V73.8555Z" fill="#111111"/>
<path d="M139.527 72.2207C139.264 72.7773 138.713 73.0762 137.898 73.0762C136.826 73.0762 136.129 72.2852 136.076 71.0371V70.9902H140.617V70.6035C140.617 68.6406 139.58 67.4277 137.875 67.4277C136.141 67.4277 135.027 68.7168 135.027 70.7031C135.027 72.7012 136.123 73.9668 137.875 73.9668C139.258 73.9668 140.242 73.2988 140.535 72.2207H139.527ZM137.863 68.3184C138.865 68.3184 139.533 69.0566 139.557 70.1758H136.076C136.152 69.0566 136.855 68.3184 137.863 68.3184Z" fill="#111111"/>
<path d="M150.812 69.4727C150.637 68.3477 149.699 67.4277 148.164 67.4277C146.395 67.4277 145.27 68.7051 145.27 70.6738C145.27 72.6836 146.4 73.9668 148.17 73.9668C149.688 73.9668 150.631 73.1113 150.812 71.9512H149.793C149.605 72.666 149.014 73.0586 148.164 73.0586C147.039 73.0586 146.312 72.1328 146.312 70.6738C146.312 69.2441 147.027 68.3359 148.164 68.3359C149.072 68.3359 149.629 68.8457 149.793 69.4727H150.812Z" fill="#111111"/>
<path d="M154.059 73.9668C154.902 73.9668 155.594 73.5977 156.004 72.9238H156.098V73.8555H157.059V69.5312C157.059 68.2188 156.197 67.4277 154.656 67.4277C153.309 67.4277 152.312 68.0957 152.178 69.1094H153.197C153.338 68.6113 153.865 68.3242 154.621 68.3242C155.564 68.3242 156.051 68.752 156.051 69.5312V70.1055L154.229 70.2168C152.758 70.3047 151.926 70.9551 151.926 72.0859C151.926 73.2402 152.834 73.9668 154.059 73.9668ZM154.246 73.082C153.514 73.082 152.969 72.707 152.969 72.0625C152.969 71.4297 153.391 71.0957 154.352 71.0312L156.051 70.9199V71.5C156.051 72.4023 155.283 73.082 154.246 73.082Z" fill="#111111"/>
<path d="M158.922 73.8555H159.93V69.9414C159.93 69.0508 160.568 68.3359 161.395 68.3359C162.191 68.3359 162.713 68.8164 162.713 69.5664V73.8555H163.721V69.7949C163.721 68.9922 164.307 68.3359 165.186 68.3359C166.076 68.3359 166.516 68.793 166.516 69.7246V73.8555H167.523V69.4902C167.523 68.166 166.803 67.4277 165.514 67.4277C164.641 67.4277 163.92 67.8672 163.58 68.5352H163.486C163.193 67.8789 162.596 67.4277 161.74 67.4277C160.896 67.4277 160.264 67.832 159.977 68.5352H159.883V67.5391H158.922V73.8555Z" fill="#111111"/>
<path d="M172.439 67.4277C171.578 67.4277 170.822 67.8672 170.418 68.5938H170.324V67.5391H169.363V75.9648H170.371V72.9062H170.465C170.811 73.5742 171.537 73.9668 172.439 73.9668C174.045 73.9668 175.094 72.6719 175.094 70.6973C175.094 68.7109 174.051 67.4277 172.439 67.4277ZM172.199 73.0586C171.062 73.0586 170.342 72.1445 170.342 70.6973C170.342 69.2441 171.062 68.3359 172.205 68.3359C173.359 68.3359 174.051 69.2207 174.051 70.6973C174.051 72.1738 173.359 73.0586 172.199 73.0586Z" fill="#111111"/>
<path d="M178.434 73.9668C179.277 73.9668 179.969 73.5977 180.379 72.9238H180.473V73.8555H181.434V69.5312C181.434 68.2188 180.572 67.4277 179.031 67.4277C177.684 67.4277 176.688 68.0957 176.553 69.1094H177.572C177.713 68.6113 178.24 68.3242 178.996 68.3242C179.939 68.3242 180.426 68.752 180.426 69.5312V70.1055L178.604 70.2168C177.133 70.3047 176.301 70.9551 176.301 72.0859C176.301 73.2402 177.209 73.9668 178.434 73.9668ZM178.621 73.082C177.889 73.082 177.344 72.707 177.344 72.0625C177.344 71.4297 177.766 71.0957 178.727 71.0312L180.426 70.9199V71.5C180.426 72.4023 179.658 73.082 178.621 73.082Z" fill="#111111"/>
<path d="M183.824 66.3203C184.211 66.3203 184.527 66.0039 184.527 65.6172C184.527 65.2305 184.211 64.9141 183.824 64.9141C183.438 64.9141 183.121 65.2305 183.121 65.6172C183.121 66.0039 183.438 66.3203 183.824 66.3203ZM183.32 73.8555H184.328V67.5391H183.32V73.8555Z" fill="#111111"/>
<path d="M188.852 76.2812C190.574 76.2812 191.664 75.3789 191.664 73.9668V67.5391H190.703V68.541H190.609C190.246 67.8613 189.467 67.4277 188.582 67.4277C186.959 67.4277 185.934 68.7109 185.934 70.6035C185.934 72.4961 186.947 73.7617 188.582 73.7617C189.449 73.7617 190.164 73.3691 190.562 72.6719H190.656V73.9141C190.656 74.8457 189.982 75.4023 188.852 75.4023C187.943 75.4023 187.381 75.0684 187.27 74.5527H186.203C186.355 75.5957 187.328 76.2812 188.852 76.2812ZM188.805 72.8711C187.633 72.8711 186.977 71.9805 186.977 70.6035C186.977 69.2266 187.633 68.3359 188.805 68.3359C189.971 68.3359 190.68 69.2266 190.68 70.6035C190.68 71.9805 189.977 72.8711 188.805 72.8711Z" fill="#111111"/>
<path d="M193.562 73.8555H194.57V70.1172C194.57 69.0098 195.221 68.3359 196.229 68.3359C197.236 68.3359 197.717 68.875 197.717 70.0117V73.8555H198.725V69.7656C198.725 68.2656 197.934 67.4277 196.516 67.4277C195.549 67.4277 194.934 67.8379 194.617 68.5352H194.523V67.5391H193.562V73.8555Z" fill="#111111"/>
<path d="M204.484 66.3203C204.871 66.3203 205.188 66.0039 205.188 65.6172C205.188 65.2305 204.871 64.9141 204.484 64.9141C204.098 64.9141 203.781 65.2305 203.781 65.6172C203.781 66.0039 204.098 66.3203 204.484 66.3203ZM203.98 73.8555H204.988V67.5391H203.98V73.8555Z" fill="#111111"/>
<path d="M206.91 73.8555H207.918V70.1172C207.918 69.0098 208.568 68.3359 209.576 68.3359C210.584 68.3359 211.064 68.875 211.064 70.0117V73.8555H212.072V69.7656C212.072 68.2656 211.281 67.4277 209.863 67.4277C208.896 67.4277 208.281 67.8379 207.965 68.5352H207.871V67.5391H206.91V73.8555Z" fill="#111111"/>
<path d="M222.93 73.8555H224.037L220.92 65.4004H219.877L216.76 73.8555H217.867L218.717 71.4355H222.08L222.93 73.8555ZM220.352 66.7656H220.445L221.77 70.5391H219.027L220.352 66.7656Z" fill="#111111"/>
<path d="M227.377 73.9668C228.25 73.9668 229 73.5508 229.398 72.8477H229.492V73.8555H230.453V65.0312H229.445V68.5352H229.357C229 67.8438 228.256 67.4277 227.377 67.4277C225.771 67.4277 224.723 68.7168 224.723 70.6973C224.723 72.6836 225.76 73.9668 227.377 73.9668ZM227.611 68.3359C228.754 68.3359 229.469 69.25 229.469 70.6973C229.469 72.1562 228.76 73.0586 227.611 73.0586C226.457 73.0586 225.766 72.1738 225.766 70.6973C225.766 69.2266 226.463 68.3359 227.611 68.3359Z" fill="#111111"/>
<path d="M232.264 69.2676C232.264 70.1816 232.803 70.6914 233.986 70.9785L235.07 71.2422C235.744 71.4062 236.072 71.6992 236.072 72.1328C236.072 72.7129 235.463 73.1172 234.613 73.1172C233.805 73.1172 233.301 72.7773 233.131 72.2441H232.094C232.205 73.293 233.172 73.9668 234.578 73.9668C236.014 73.9668 237.109 73.1875 237.109 72.0566C237.109 71.1484 236.535 70.6328 235.346 70.3457L234.373 70.1113C233.629 69.9297 233.277 69.6602 233.277 69.2266C233.277 68.6641 233.863 68.2832 234.613 68.2832C235.375 68.2832 235.867 68.6172 236.002 69.1211H236.998C236.863 68.084 235.943 67.4277 234.619 67.4277C233.277 67.4277 232.264 68.2188 232.264 69.2676Z" fill="#111111"/>
<path d="M20.6289 79.2012C18.2383 79.2012 16.75 80.9062 16.75 83.625C16.75 86.332 18.2031 88.0547 20.6289 88.0547C23.043 88.0547 24.5078 86.3262 24.5078 83.625C24.5078 80.9121 23.0312 79.2012 20.6289 79.2012ZM20.6289 80.1738C22.3574 80.1738 23.4238 81.5098 23.4238 83.625C23.4238 85.7227 22.3633 87.082 20.6289 87.082C18.8711 87.082 17.834 85.7227 17.834 83.625C17.834 81.5098 18.9062 80.1738 20.6289 80.1738Z" fill="#111111"/>
<path d="M31.3633 81.5391H30.2852L28.5566 86.7422H28.4629L26.7344 81.5391H25.6562L27.9941 87.8555H29.0254L31.3633 81.5391Z" fill="#111111"/>
<path d="M36.6602 86.2207C36.3965 86.7773 35.8457 87.0762 35.0312 87.0762C33.959 87.0762 33.2617 86.2852 33.209 85.0371V84.9902H37.75V84.6035C37.75 82.6406 36.7129 81.4277 35.0078 81.4277C33.2734 81.4277 32.1602 82.7168 32.1602 84.7031C32.1602 86.7012 33.2559 87.9668 35.0078 87.9668C36.3906 87.9668 37.375 87.2988 37.668 86.2207H36.6602ZM34.9961 82.3184C35.998 82.3184 36.666 83.0566 36.6895 84.1758H33.209C33.2852 83.0566 33.9883 82.3184 34.9961 82.3184Z" fill="#111111"/>
<path d="M39.332 87.8555H40.3398V83.9414C40.3398 83.0508 41.0371 82.4062 41.998 82.4062C42.1973 82.4062 42.5605 82.4414 42.6426 82.4648V81.457C42.5137 81.4395 42.3027 81.4277 42.1387 81.4277C41.3008 81.4277 40.5742 81.8613 40.3867 82.4766H40.293V81.5391H39.332V87.8555Z" fill="#111111"/>
<path d="M49.0586 81.5391H47.9805L46.252 86.7422H46.1582L44.4297 81.5391H43.3516L45.6895 87.8555H46.7207L49.0586 81.5391Z" fill="#111111"/>
<path d="M50.9336 80.3203C51.3203 80.3203 51.6367 80.0039 51.6367 79.6172C51.6367 79.2305 51.3203 78.9141 50.9336 78.9141C50.5469 78.9141 50.2305 79.2305 50.2305 79.6172C50.2305 80.0039 50.5469 80.3203 50.9336 80.3203ZM50.4297 87.8555H51.4375V81.5391H50.4297V87.8555Z" fill="#111111"/>
<path d="M57.543 86.2207C57.2793 86.7773 56.7285 87.0762 55.9141 87.0762C54.8418 87.0762 54.1445 86.2852 54.0918 85.0371V84.9902H58.6328V84.6035C58.6328 82.6406 57.5957 81.4277 55.8906 81.4277C54.1562 81.4277 53.043 82.7168 53.043 84.7031C53.043 86.7012 54.1387 87.9668 55.8906 87.9668C57.2734 87.9668 58.2578 87.2988 58.5508 86.2207H57.543ZM55.8789 82.3184C56.8809 82.3184 57.5488 83.0566 57.5723 84.1758H54.0918C54.168 83.0566 54.8711 82.3184 55.8789 82.3184Z" fill="#111111"/>
<path d="M68.1602 81.5391H67.1465L65.9043 86.5898H65.8105L64.3984 81.5391H63.4316L62.0195 86.5898H61.9258L60.6836 81.5391H59.6641L61.4336 87.8555H62.4531L63.8594 82.9688H63.9531L65.3652 87.8555H66.3906L68.1602 81.5391Z" fill="#111111"/>
<path d="M73.3164 79.9043V81.5391H72.2969V82.3828H73.3164V86.2148C73.3164 87.4219 73.8379 87.9023 75.1387 87.9023C75.3379 87.9023 75.5312 87.8789 75.7305 87.8438V86.9941C75.543 87.0117 75.4434 87.0176 75.2617 87.0176C74.6055 87.0176 74.3242 86.7012 74.3242 85.957V82.3828H75.7305V81.5391H74.3242V79.9043H73.3164Z" fill="#111111"/>
<path d="M79.7559 87.9668C81.5547 87.9668 82.668 86.7246 82.668 84.6973C82.668 82.6641 81.5547 81.4277 79.7559 81.4277C77.957 81.4277 76.8438 82.6641 76.8438 84.6973C76.8438 86.7246 77.957 87.9668 79.7559 87.9668ZM79.7559 87.0586C78.5605 87.0586 77.8867 86.1914 77.8867 84.6973C77.8867 83.1973 78.5605 82.3359 79.7559 82.3359C80.9512 82.3359 81.625 83.1973 81.625 84.6973C81.625 86.1914 80.9512 87.0586 79.7559 87.0586Z" fill="#111111"/>
<path d="M88.0586 87.8555H89.0664V82.3828H90.5137V81.5391H89.0664V80.8652C89.0664 80.1738 89.3711 79.8223 90.0977 79.8223C90.2793 79.8223 90.4492 79.8281 90.5723 79.8516V79.0312C90.3613 78.9902 90.1387 78.9727 89.8926 78.9727C88.6914 78.9727 88.0586 79.5762 88.0586 80.8359V81.5391H87.0098V82.3828H88.0586V87.8555Z" fill="#111111"/>
<path d="M92.5117 80.3203C92.8984 80.3203 93.2148 80.0039 93.2148 79.6172C93.2148 79.2305 92.8984 78.9141 92.5117 78.9141C92.125 78.9141 91.8086 79.2305 91.8086 79.6172C91.8086 80.0039 92.125 80.3203 92.5117 80.3203ZM92.0078 87.8555H93.0156V81.5391H92.0078V87.8555Z" fill="#111111"/>
<path d="M94.9375 87.8555H95.9453V84.1172C95.9453 83.0098 96.5957 82.3359 97.6035 82.3359C98.6113 82.3359 99.0918 82.875 99.0918 84.0117V87.8555H100.1V83.7656C100.1 82.2656 99.3086 81.4277 97.8906 81.4277C96.9238 81.4277 96.3086 81.8379 95.9922 82.5352H95.8984V81.5391H94.9375V87.8555Z" fill="#111111"/>
<path d="M104.283 87.9668C105.156 87.9668 105.906 87.5508 106.305 86.8477H106.398V87.8555H107.359V79.0312H106.352V82.5352H106.264C105.906 81.8438 105.162 81.4277 104.283 81.4277C102.678 81.4277 101.629 82.7168 101.629 84.6973C101.629 86.6836 102.666 87.9668 104.283 87.9668ZM104.518 82.3359C105.66 82.3359 106.375 83.25 106.375 84.6973C106.375 86.1562 105.666 87.0586 104.518 87.0586C103.363 87.0586 102.672 86.1738 102.672 84.6973C102.672 83.2266 103.369 82.3359 104.518 82.3359Z" fill="#111111"/>
<path d="M115.299 87.9668C117.098 87.9668 118.211 86.7246 118.211 84.6973C118.211 82.6641 117.098 81.4277 115.299 81.4277C113.5 81.4277 112.387 82.6641 112.387 84.6973C112.387 86.7246 113.5 87.9668 115.299 87.9668ZM115.299 87.0586C114.104 87.0586 113.43 86.1914 113.43 84.6973C113.43 83.1973 114.104 82.3359 115.299 82.3359C116.494 82.3359 117.168 83.1973 117.168 84.6973C117.168 86.1914 116.494 87.0586 115.299 87.0586Z" fill="#111111"/>
<path d="M124.902 81.5391H123.895V85.2773C123.895 86.3848 123.285 87.0469 122.172 87.0469C121.164 87.0469 120.742 86.5195 120.742 85.3828V81.5391H119.734V85.6289C119.734 87.123 120.473 87.9668 121.891 87.9668C122.857 87.9668 123.531 87.5684 123.848 86.8652H123.941V87.8555H124.902V81.5391Z" fill="#111111"/>
<path d="M127.223 79.9043V81.5391H126.203V82.3828H127.223V86.2148C127.223 87.4219 127.744 87.9023 129.045 87.9023C129.244 87.9023 129.438 87.8789 129.637 87.8438V86.9941C129.449 87.0117 129.35 87.0176 129.168 87.0176C128.512 87.0176 128.23 86.7012 128.23 85.957V82.3828H129.637V81.5391H128.23V79.9043H127.223Z" fill="#111111"/>
<path d="M142.492 81.5391H141.479L140.236 86.5898H140.143L138.73 81.5391H137.764L136.352 86.5898H136.258L135.016 81.5391H133.996L135.766 87.8555H136.785L138.191 82.9688H138.285L139.697 87.8555H140.723L142.492 81.5391Z" fill="#111111"/>
<path d="M143.898 87.8555H144.906V84.1172C144.906 83.0508 145.527 82.3359 146.658 82.3359C147.613 82.3359 148.117 82.8926 148.117 84.0117V87.8555H149.125V83.7656C149.125 82.2832 148.281 81.4277 146.945 81.4277C145.979 81.4277 145.316 81.8379 145 82.5352H144.906V79.0312H143.898V87.8555Z" fill="#111111"/>
<path d="M152.723 87.9668C153.566 87.9668 154.258 87.5977 154.668 86.9238H154.762V87.8555H155.723V83.5312C155.723 82.2188 154.861 81.4277 153.32 81.4277C151.973 81.4277 150.977 82.0957 150.842 83.1094H151.861C152.002 82.6113 152.529 82.3242 153.285 82.3242C154.229 82.3242 154.715 82.752 154.715 83.5312V84.1055L152.893 84.2168C151.422 84.3047 150.59 84.9551 150.59 86.0859C150.59 87.2402 151.498 87.9668 152.723 87.9668ZM152.91 87.082C152.178 87.082 151.633 86.707 151.633 86.0625C151.633 85.4297 152.055 85.0957 153.016 85.0312L154.715 84.9199V85.5C154.715 86.4023 153.947 87.082 152.91 87.082Z" fill="#111111"/>
<path d="M158.008 79.9043V81.5391H156.988V82.3828H158.008V86.2148C158.008 87.4219 158.529 87.9023 159.83 87.9023C160.029 87.9023 160.223 87.8789 160.422 87.8438V86.9941C160.234 87.0117 160.135 87.0176 159.953 87.0176C159.297 87.0176 159.016 86.7012 159.016 85.957V82.3828H160.422V81.5391H159.016V79.9043H158.008Z" fill="#111111"/>
<path d="M165.754 79.9043V81.5391H164.734V82.3828H165.754V86.2148C165.754 87.4219 166.275 87.9023 167.576 87.9023C167.775 87.9023 167.969 87.8789 168.168 87.8438V86.9941C167.98 87.0117 167.881 87.0176 167.699 87.0176C167.043 87.0176 166.762 86.7012 166.762 85.957V82.3828H168.168V81.5391H166.762V79.9043H165.754Z" fill="#111111"/>
<path d="M169.75 87.8555H170.758V84.1172C170.758 83.0508 171.379 82.3359 172.51 82.3359C173.465 82.3359 173.969 82.8926 173.969 84.0117V87.8555H174.977V83.7656C174.977 82.2832 174.133 81.4277 172.797 81.4277C171.83 81.4277 171.168 81.8379 170.852 82.5352H170.758V79.0312H169.75V87.8555Z" fill="#111111"/>
<path d="M181 86.2207C180.736 86.7773 180.186 87.0762 179.371 87.0762C178.299 87.0762 177.602 86.2852 177.549 85.0371V84.9902H182.09V84.6035C182.09 82.6406 181.053 81.4277 179.348 81.4277C177.613 81.4277 176.5 82.7168 176.5 84.7031C176.5 86.7012 177.596 87.9668 179.348 87.9668C180.73 87.9668 181.715 87.2988 182.008 86.2207H181ZM179.336 82.3184C180.338 82.3184 181.006 83.0566 181.029 84.1758H177.549C177.625 83.0566 178.328 82.3184 179.336 82.3184Z" fill="#111111"/>
<path d="M187.586 80.3203C187.973 80.3203 188.289 80.0039 188.289 79.6172C188.289 79.2305 187.973 78.9141 187.586 78.9141C187.199 78.9141 186.883 79.2305 186.883 79.6172C186.883 80.0039 187.199 80.3203 187.586 80.3203ZM187.082 87.8555H188.09V81.5391H187.082V87.8555Z" fill="#111111"/>
<path d="M189.865 83.2676C189.865 84.1816 190.404 84.6914 191.588 84.9785L192.672 85.2422C193.346 85.4062 193.674 85.6992 193.674 86.1328C193.674 86.7129 193.064 87.1172 192.215 87.1172C191.406 87.1172 190.902 86.7773 190.732 86.2441H189.695C189.807 87.293 190.773 87.9668 192.18 87.9668C193.615 87.9668 194.711 87.1875 194.711 86.0566C194.711 85.1484 194.137 84.6328 192.947 84.3457L191.975 84.1113C191.23 83.9297 190.879 83.6602 190.879 83.2266C190.879 82.6641 191.465 82.2832 192.215 82.2832C192.977 82.2832 193.469 82.6172 193.604 83.1211H194.6C194.465 82.084 193.545 81.4277 192.221 81.4277C190.879 81.4277 189.865 82.2188 189.865 83.2676Z" fill="#111111"/>
<path d="M196.029 83.2676C196.029 84.1816 196.568 84.6914 197.752 84.9785L198.836 85.2422C199.51 85.4062 199.838 85.6992 199.838 86.1328C199.838 86.7129 199.229 87.1172 198.379 87.1172C197.57 87.1172 197.066 86.7773 196.896 86.2441H195.859C195.971 87.293 196.938 87.9668 198.344 87.9668C199.779 87.9668 200.875 87.1875 200.875 86.0566C200.875 85.1484 200.301 84.6328 199.111 84.3457L198.139 84.1113C197.395 83.9297 197.043 83.6602 197.043 83.2266C197.043 82.6641 197.629 82.2832 198.379 82.2832C199.141 82.2832 199.633 82.6172 199.768 83.1211H200.764C200.629 82.084 199.709 81.4277 198.385 81.4277C197.043 81.4277 196.029 82.2188 196.029 83.2676Z" fill="#111111"/>
<path d="M207.566 81.5391H206.559V85.2773C206.559 86.3848 205.949 87.0469 204.836 87.0469C203.828 87.0469 203.406 86.5195 203.406 85.3828V81.5391H202.398V85.6289C202.398 87.123 203.137 87.9668 204.555 87.9668C205.521 87.9668 206.195 87.5684 206.512 86.8652H206.605V87.8555H207.566V81.5391Z" fill="#111111"/>
<path d="M213.648 86.2207C213.385 86.7773 212.834 87.0762 212.02 87.0762C210.947 87.0762 210.25 86.2852 210.197 85.0371V84.9902H214.738V84.6035C214.738 82.6406 213.701 81.4277 211.996 81.4277C210.262 81.4277 209.148 82.7168 209.148 84.7031C209.148 86.7012 210.244 87.9668 211.996 87.9668C213.379 87.9668 214.363 87.2988 214.656 86.2207H213.648ZM211.984 82.3184C212.986 82.3184 213.654 83.0566 213.678 84.1758H210.197C210.273 83.0566 210.977 82.3184 211.984 82.3184Z" fill="#111111"/>
<path d="M220.234 80.3203C220.621 80.3203 220.938 80.0039 220.938 79.6172C220.938 79.2305 220.621 78.9141 220.234 78.9141C219.848 78.9141 219.531 79.2305 219.531 79.6172C219.531 80.0039 219.848 80.3203 220.234 80.3203ZM219.73 87.8555H220.738V81.5391H219.73V87.8555Z" fill="#111111"/>
<path d="M222.514 83.2676C222.514 84.1816 223.053 84.6914 224.236 84.9785L225.32 85.2422C225.994 85.4062 226.322 85.6992 226.322 86.1328C226.322 86.7129 225.713 87.1172 224.863 87.1172C224.055 87.1172 223.551 86.7773 223.381 86.2441H222.344C222.455 87.293 223.422 87.9668 224.828 87.9668C226.264 87.9668 227.359 87.1875 227.359 86.0566C227.359 85.1484 226.785 84.6328 225.596 84.3457L224.623 84.1113C223.879 83.9297 223.527 83.6602 223.527 83.2266C223.527 82.6641 224.113 82.2832 224.863 82.2832C225.625 82.2832 226.117 82.6172 226.252 83.1211H227.248C227.113 82.084 226.193 81.4277 224.869 81.4277C223.527 81.4277 222.514 82.2188 222.514 83.2676Z" fill="#111111"/>
<path d="M229.773 87.9141C230.195 87.9141 230.535 87.5684 230.535 87.1523C230.535 86.7305 230.195 86.3906 229.773 86.3906C229.357 86.3906 229.012 86.7305 229.012 87.1523C229.012 87.5684 229.357 87.9141 229.773 87.9141Z" fill="#111111"/>
<g clip-path="url(#clip0_145_6094)">
<path d="M59.0679 126.371V121.032H59.1592L62.9619 126.371H64.1597V118.62H62.8276V123.959H62.7363L58.9336 118.62H57.7305V126.371H59.0679Z" fill="#111111"/>
<path d="M68.4727 126.489C70.229 126.489 71.2979 125.34 71.2979 123.433C71.2979 121.537 70.2236 120.387 68.4727 120.387C66.7271 120.387 65.6475 121.542 65.6475 123.433C65.6475 125.34 66.7109 126.489 68.4727 126.489ZM68.4727 125.399C67.5435 125.399 67.0117 124.679 67.0117 123.438C67.0117 122.198 67.5435 121.478 68.4727 121.478C69.3965 121.478 69.9282 122.198 69.9282 123.438C69.9282 124.679 69.4019 125.399 68.4727 125.399Z" fill="#111111"/>
<path d="M73.0649 119.061V120.538H72.1357V121.574H73.0649V124.813C73.0649 125.947 73.6021 126.398 74.9502 126.398C75.208 126.398 75.4551 126.376 75.6484 126.339V125.318C75.4873 125.334 75.3853 125.345 75.1973 125.345C74.6387 125.345 74.3916 125.082 74.3916 124.496V121.574H75.6484V120.538H74.3916V119.061H73.0649Z" fill="#111111"/>
<path d="M79.9131 126.371H81.2451V122.949C81.2451 122.069 81.7446 121.515 82.5396 121.515C83.3506 121.515 83.7266 121.972 83.7266 122.885V126.371H85.0586V122.573C85.0586 121.177 84.3442 120.387 83.0337 120.387C82.1582 120.387 81.5674 120.785 81.2881 121.44H81.1968V120.5H79.9131V126.371Z" fill="#111111"/>
<path d="M89.1729 126.489C90.9292 126.489 91.998 125.34 91.998 123.433C91.998 121.537 90.9238 120.387 89.1729 120.387C87.4272 120.387 86.3477 121.542 86.3477 123.433C86.3477 125.34 87.4111 126.489 89.1729 126.489ZM89.1729 125.399C88.2437 125.399 87.7119 124.679 87.7119 123.438C87.7119 122.198 88.2437 121.478 89.1729 121.478C90.0967 121.478 90.6284 122.198 90.6284 123.438C90.6284 124.679 90.1021 125.399 89.1729 125.399Z" fill="#111111"/>
<path d="M100.973 120.5H99.6465L98.6743 124.91H98.583L97.4443 120.5H96.1714L95.0435 124.91H94.9521L93.9746 120.5H92.6318L94.2217 126.371H95.6074L96.7461 122.117H96.8374L97.9814 126.371H99.3833L100.973 120.5Z" fill="#111111"/>
<rect x="49.3203" y="111.024" width="60.063" height="23.0612" rx="11.5306" stroke="#767676" stroke-width="0.542593"/>
<rect x="117.655" y="110.374" width="127.363" height="24.3612" rx="12.1806" fill="#767676"/>
<path d="M129.897 126.868C131.686 126.868 132.996 125.81 133.179 124.241H131.815C131.627 125.111 130.88 125.665 129.897 125.665C128.576 125.665 127.754 124.563 127.754 122.796C127.754 121.035 128.576 119.934 129.892 119.934C130.869 119.934 131.616 120.541 131.809 121.475H133.174C133.012 119.869 131.654 118.73 129.892 118.73C127.695 118.73 126.336 120.283 126.336 122.802C126.336 125.31 127.7 126.868 129.897 126.868Z" fill="white"/>
<path d="M134.634 126.674H135.966V123.264C135.966 122.404 136.455 121.83 137.331 121.83C138.104 121.83 138.512 122.292 138.512 123.199V126.674H139.844V122.888C139.844 121.491 139.082 120.696 137.825 120.696C136.949 120.696 136.321 121.094 136.042 121.754H135.945V118.532H134.634V126.674Z" fill="white"/>
<path d="M145.253 125.068C145.06 125.509 144.603 125.756 143.943 125.756C143.067 125.756 142.503 125.133 142.471 124.139V124.069H146.574V123.645C146.574 121.803 145.57 120.691 143.894 120.691C142.192 120.691 141.133 121.878 141.133 123.763C141.133 125.643 142.175 126.792 143.905 126.792C145.291 126.792 146.274 126.126 146.515 125.068H145.253ZM143.889 121.728C144.689 121.728 145.216 122.292 145.242 123.183H142.476C142.535 122.302 143.094 121.728 143.889 121.728Z" fill="white"/>
<path d="M152.987 122.764C152.848 121.55 151.935 120.691 150.425 120.691C148.658 120.691 147.622 121.824 147.622 123.726C147.622 125.648 148.664 126.792 150.431 126.792C151.919 126.792 152.842 125.965 152.987 124.751H151.72C151.58 125.369 151.118 125.697 150.425 125.697C149.518 125.697 148.97 124.972 148.97 123.726C148.97 122.501 149.512 121.781 150.425 121.781C151.156 121.781 151.596 122.195 151.72 122.764H152.987Z" fill="white"/>
<path d="M155.737 123.21H155.646V118.532H154.314V126.674H155.646V124.612L156.119 124.139L158.004 126.674H159.615L157.112 123.323L159.454 120.804H157.907L155.737 123.21Z" fill="white"/>
<path d="M168.714 126.674H170.202L167.446 118.924H165.889L163.139 126.674H164.541L165.207 124.671H168.059L168.714 126.674ZM166.592 120.379H166.684L167.737 123.602H165.529L166.592 120.379Z" fill="white"/>
<path d="M173.199 126.771C174.015 126.771 174.692 126.39 175.025 125.745H175.116V126.674H176.405V118.532H175.073V121.738H174.982C174.671 121.094 174.005 120.707 173.199 120.707C171.716 120.707 170.782 121.878 170.782 123.736C170.782 125.6 171.711 126.771 173.199 126.771ZM173.612 121.819C174.526 121.819 175.09 122.555 175.09 123.742C175.09 124.934 174.531 125.665 173.612 125.665C172.699 125.665 172.146 124.945 172.146 123.742C172.146 122.544 172.705 121.819 173.612 121.819Z" fill="white"/>
<path d="M177.952 122.479C177.952 123.36 178.484 123.876 179.612 124.134L180.654 124.375C181.213 124.504 181.465 124.719 181.465 125.052C181.465 125.498 180.998 125.804 180.326 125.804C179.66 125.804 179.247 125.536 179.118 125.101H177.802C177.904 126.159 178.828 126.792 180.294 126.792C181.76 126.792 182.797 126.046 182.797 124.923C182.797 124.059 182.276 123.581 181.154 123.323L180.117 123.092C179.526 122.952 179.247 122.743 179.247 122.41C179.247 121.975 179.703 121.679 180.31 121.679C180.933 121.679 181.325 121.948 181.422 122.361H182.674C182.577 121.303 181.701 120.691 180.305 120.691C178.919 120.691 177.952 121.427 177.952 122.479Z" fill="white"/>
<path d="M190.558 118.73C188.308 118.73 186.89 120.293 186.89 122.796C186.89 125.294 188.286 126.868 190.558 126.868C192.82 126.868 194.221 125.294 194.221 122.796C194.221 120.293 192.814 118.73 190.558 118.73ZM190.558 119.928C191.933 119.928 192.809 121.04 192.809 122.796C192.809 124.542 191.939 125.67 190.558 125.67C189.162 125.67 188.308 124.542 188.308 122.796C188.308 121.04 189.183 119.928 190.558 119.928Z" fill="white"/>
<path d="M200.796 120.804H199.388L198.04 125.369H197.949L196.59 120.804H195.161L197.251 126.674H198.717L200.796 120.804Z" fill="white"/>
<path d="M205.517 125.068C205.323 125.509 204.867 125.756 204.206 125.756C203.331 125.756 202.767 125.133 202.735 124.139V124.069H206.838V123.645C206.838 121.803 205.834 120.691 204.158 120.691C202.455 120.691 201.397 121.878 201.397 123.763C201.397 125.643 202.439 126.792 204.169 126.792C205.554 126.792 206.537 126.126 206.779 125.068H205.517ZM204.153 121.728C204.953 121.728 205.479 122.292 205.506 123.183H202.74C202.799 122.302 203.358 121.728 204.153 121.728Z" fill="white"/>
<path d="M208.175 126.674H209.508V123.264C209.508 122.437 210.109 121.899 210.974 121.899C211.199 121.899 211.554 121.937 211.656 121.975V120.761C211.532 120.729 211.296 120.707 211.103 120.707C210.345 120.707 209.712 121.137 209.55 121.717H209.459V120.804H208.175V126.674Z" fill="white"/>
<path d="M217.929 120.804H216.522L215.174 125.369H215.083L213.724 120.804H212.295L214.384 126.674H215.851L217.929 120.804Z" fill="white"/>
<path d="M219.734 119.821C220.174 119.821 220.534 119.472 220.534 119.031C220.534 118.596 220.174 118.242 219.734 118.242C219.299 118.242 218.939 118.596 218.939 119.031C218.939 119.472 219.299 119.821 219.734 119.821ZM219.073 126.674H220.4V120.804H219.073V126.674Z" fill="white"/>
<path d="M225.884 125.068C225.691 125.509 225.234 125.756 224.573 125.756C223.698 125.756 223.134 125.133 223.102 124.139V124.069H227.205V123.645C227.205 121.803 226.201 120.691 224.525 120.691C222.822 120.691 221.764 121.878 221.764 123.763C221.764 125.643 222.806 126.792 224.536 126.792C225.922 126.792 226.904 126.126 227.146 125.068H225.884ZM224.52 121.728C225.32 121.728 225.846 122.292 225.873 123.183H223.107C223.166 122.302 223.725 121.728 224.52 121.728Z" fill="white"/>
<path d="M236.336 120.804H235.009L234.037 125.213H233.946L232.807 120.804H231.534L230.406 125.213H230.315L229.338 120.804H227.995L229.585 126.674H230.97L232.109 122.42H232.2L233.344 126.674H234.746L236.336 120.804Z" fill="white"/>
</g>
<rect x="0.5" y="0.5" width="292" height="150" rx="7.5" stroke="#767676"/>
<defs>
<clipPath id="clip0_145_6094">
<rect width="195.969" height="24.3612" fill="white" transform="translate(49.049 110.374)"/>
</clipPath>
</defs>
</svg>
