<svg viewBox="0 0 293 133" fill="none" xmlns="http://www.w3.org/2000/svg">
<rect x="0.5" y="0.5" width="292" height="132" rx="7.5" fill="white"/>
<path d="M16.9922 22.7266V34H21.1094C24.4844 34 26.4688 31.9062 26.4688 28.3359C26.4688 24.7656 24.4766 22.7266 21.1094 22.7266H16.9922ZM19.0078 24.4297H20.8984C23.1484 24.4297 24.4141 25.8203 24.4141 28.3438C24.4141 30.9141 23.1641 32.2969 20.8984 32.2969H19.0078V24.4297Z" fill="#111111"/>
<path d="M33.3594 31.5234C33.1484 32.2109 32.4609 32.6641 31.5547 32.6641C30.2812 32.6641 29.4688 31.7734 29.4688 30.4453V30.3281H35.2578V29.6953C35.2578 27.1797 33.7891 25.5469 31.4375 25.5469C29.0469 25.5469 27.5312 27.2734 27.5312 29.8906C27.5312 32.5312 29.0312 34.1641 31.5156 34.1641C33.4766 34.1641 34.9297 33.0859 35.1797 31.5234H33.3594ZM31.4453 27.0547C32.5625 27.0547 33.3125 27.875 33.3516 29.0469H29.4844C29.5625 27.8906 30.3516 27.0547 31.4453 27.0547Z" fill="#111111"/>
<path d="M36.5703 34H38.5156V22.7266H36.5703V34Z" fill="#111111"/>
<path d="M45.6562 31.5234C45.4453 32.2109 44.7578 32.6641 43.8516 32.6641C42.5781 32.6641 41.7656 31.7734 41.7656 30.4453V30.3281H47.5547V29.6953C47.5547 27.1797 46.0859 25.5469 43.7344 25.5469C41.3438 25.5469 39.8281 27.2734 39.8281 29.8906C39.8281 32.5312 41.3281 34.1641 43.8125 34.1641C45.7734 34.1641 47.2266 33.0859 47.4766 31.5234H45.6562ZM43.7422 27.0547C44.8594 27.0547 45.6094 27.875 45.6484 29.0469H41.7812C41.8594 27.8906 42.6484 27.0547 43.7422 27.0547Z" fill="#111111"/>
<path d="M49.3516 23.7812V25.7188H48.1641V27.2188H49.3516V31.7969C49.3516 33.4062 50.0547 34.0391 51.8438 34.0391C52.2578 34.0391 52.6406 34.0078 52.8516 33.9609V32.4766C52.7266 32.5 52.4766 32.5156 52.2969 32.5156C51.6094 32.5156 51.2969 32.2031 51.2969 31.5234V27.2188H52.8594V25.7188H51.2969V23.7812H49.3516Z" fill="#111111"/>
<path d="M59.5156 31.5234C59.3047 32.2109 58.6172 32.6641 57.7109 32.6641C56.4375 32.6641 55.625 31.7734 55.625 30.4453V30.3281H61.4141V29.6953C61.4141 27.1797 59.9453 25.5469 57.5938 25.5469C55.2031 25.5469 53.6875 27.2734 53.6875 29.8906C53.6875 32.5312 55.1875 34.1641 57.6719 34.1641C59.6328 34.1641 61.0859 33.0859 61.3359 31.5234H59.5156ZM57.6016 27.0547C58.7188 27.0547 59.4688 27.875 59.5078 29.0469H55.6406C55.7188 27.8906 56.5078 27.0547 57.6016 27.0547Z" fill="#111111"/>
<path d="M66.4141 23.7812V25.7188H65.2266V27.2188H66.4141V31.7969C66.4141 33.4062 67.1172 34.0391 68.9062 34.0391C69.3203 34.0391 69.7031 34.0078 69.9141 33.9609V32.4766C69.7891 32.5 69.5391 32.5156 69.3594 32.5156C68.6719 32.5156 68.3594 32.2031 68.3594 31.5234V27.2188H69.9219V25.7188H68.3594V23.7812H66.4141Z" fill="#111111"/>
<path d="M71.3047 34H73.25V29.2422C73.25 28.0234 73.9609 27.2109 75.1328 27.2109C76.2578 27.2109 76.8359 27.9062 76.8359 29.0625V34H78.7812V28.6641C78.7812 26.7656 77.7109 25.5625 75.8828 25.5625C74.625 25.5625 73.7109 26.1328 73.2656 27.1406H73.2266V22.7266H71.3047V34Z" fill="#111111"/>
<path d="M81.3594 24.4688C81.9531 24.4688 82.4219 23.9922 82.4219 23.4141C82.4219 22.8281 81.9531 22.3594 81.3594 22.3594C80.7656 22.3594 80.2891 22.8281 80.2891 23.4141C80.2891 23.9922 80.7656 24.4688 81.3594 24.4688ZM80.3906 34H82.3359V25.7188H80.3906V34Z" fill="#111111"/>
<path d="M83.8203 28.0938C83.8203 29.3203 84.6172 30.1016 86.2031 30.4531L87.5781 30.7578C88.4453 30.9531 88.7422 31.2344 88.7422 31.7344C88.7422 32.3516 88.1562 32.7422 87.2109 32.7422C86.2266 32.7422 85.6719 32.3359 85.5234 31.5312H83.6094C83.7656 33.1328 85.0469 34.1641 87.2109 34.1641C89.2422 34.1641 90.6797 33.1094 90.6797 31.5469C90.6797 30.3438 90.0156 29.6797 88.2969 29.2969L86.9219 28.9922C86.0547 28.7969 85.7109 28.4688 85.7109 27.9922C85.7109 27.3828 86.2812 26.9766 87.1406 26.9766C88.0391 26.9766 88.5938 27.4531 88.6719 28.2031H90.4844C90.4375 26.6328 89.1562 25.5469 87.1406 25.5469C85.1406 25.5469 83.8203 26.5781 83.8203 28.0938Z" fill="#111111"/>
<path d="M99.7578 34.1328C101.852 34.1328 103.172 32.5078 103.172 29.8594C103.172 27.2109 101.844 25.5781 99.7578 25.5781C98.5859 25.5781 97.6406 26.1719 97.1719 27.1406H97.125V22.7266H95.1797V34H97.0859V32.5859H97.125C97.6094 33.5469 98.5391 34.1328 99.7578 34.1328ZM99.1562 27.1797C100.398 27.1797 101.18 28.2188 101.18 29.8594C101.18 31.5078 100.406 32.5391 99.1562 32.5391C97.9531 32.5391 97.1172 31.4844 97.1172 29.8594C97.1172 28.25 97.9531 27.1797 99.1562 27.1797Z" fill="#111111"/>
<path d="M108.102 34.1641C110.531 34.1641 112.109 32.5469 112.109 29.8594C112.109 27.1797 110.516 25.5469 108.102 25.5469C105.688 25.5469 104.094 27.1875 104.094 29.8594C104.094 32.5469 105.672 34.1641 108.102 34.1641ZM108.102 32.625C106.867 32.625 106.07 31.625 106.07 29.8594C106.07 28.1016 106.875 27.0938 108.102 27.0938C109.336 27.0938 110.133 28.1016 110.133 29.8594C110.133 31.625 109.336 32.625 108.102 32.625Z" fill="#111111"/>
<path d="M115.797 34.1328C116.859 34.1328 117.898 33.5781 118.375 32.6797H118.414V34H120.289V28.2969C120.289 26.6328 118.953 25.5469 116.898 25.5469C114.789 25.5469 113.469 26.6562 113.383 28.2031H115.188C115.312 27.5156 115.898 27.0703 116.82 27.0703C117.781 27.0703 118.367 27.5703 118.367 28.4375V29.0312L116.18 29.1562C114.164 29.2812 113.031 30.1641 113.031 31.6328C113.031 33.125 114.195 34.1328 115.797 34.1328ZM116.383 32.6641C115.539 32.6641 114.977 32.2344 114.977 31.5547C114.977 30.8984 115.516 30.4766 116.453 30.4141L118.367 30.2969V30.9297C118.367 31.9297 117.484 32.6641 116.383 32.6641Z" fill="#111111"/>
<path d="M121.859 34H123.805V29.1797C123.805 28.0156 124.469 27.3047 125.57 27.3047C125.898 27.3047 126.195 27.3516 126.359 27.4141V25.6562C126.219 25.625 126 25.5781 125.75 25.5781C124.773 25.5781 124.047 26.1562 123.766 27.1641H123.727V25.7188H121.859V34Z" fill="#111111"/>
<path d="M130.141 34.1328C131.352 34.1328 132.305 33.5156 132.758 32.5859H132.789V34H134.695V22.7266H132.75V27.1094H132.703C132.266 26.1953 131.328 25.5781 130.141 25.5781C128.055 25.5781 126.703 27.2344 126.703 29.8516C126.703 32.4844 128.055 34.1328 130.141 34.1328ZM130.727 27.1797C131.953 27.1797 132.758 28.2344 132.758 29.8594C132.758 31.5 131.953 32.5391 130.727 32.5391C129.469 32.5391 128.695 31.5078 128.695 29.8594C128.695 28.2188 129.477 27.1797 130.727 27.1797Z" fill="#111111"/>
<path d="M135.953 25.8125H137.789C137.852 24.8438 138.5 24.2266 139.508 24.2266C140.492 24.2266 141.148 24.8281 141.148 25.6562C141.148 26.4297 140.82 26.8516 139.852 27.4375C138.773 28.0703 138.32 28.7734 138.391 29.9297L138.398 30.4844H140.211V30.0312C140.211 29.25 140.5 28.8438 141.523 28.25C142.586 27.6172 143.18 26.7812 143.18 25.5859C143.18 23.8672 141.75 22.6328 139.609 22.6328C137.289 22.6328 136.016 23.9766 135.953 25.8125ZM139.328 34.1562C139.961 34.1562 140.461 33.6641 140.461 33.0469C140.461 32.4297 139.961 31.9453 139.328 31.9453C138.695 31.9453 138.188 32.4297 138.188 33.0469C138.188 33.6641 138.695 34.1562 139.328 34.1562Z" fill="#111111"/>
<path d="M20.4648 59.8555V56.2168L23.4648 51.4004H22.2637L19.9844 55.1562H19.8906L17.6113 51.4004H16.4102L19.4102 56.2168V59.8555H20.4648Z" fill="#111111"/>
<path d="M26.4238 59.9668C28.2227 59.9668 29.3359 58.7246 29.3359 56.6973C29.3359 54.6641 28.2227 53.4277 26.4238 53.4277C24.625 53.4277 23.5117 54.6641 23.5117 56.6973C23.5117 58.7246 24.625 59.9668 26.4238 59.9668ZM26.4238 59.0586C25.2285 59.0586 24.5547 58.1914 24.5547 56.6973C24.5547 55.1973 25.2285 54.3359 26.4238 54.3359C27.6191 54.3359 28.293 55.1973 28.293 56.6973C28.293 58.1914 27.6191 59.0586 26.4238 59.0586Z" fill="#111111"/>
<path d="M36.0273 53.5391H35.0195V57.2773C35.0195 58.3848 34.4102 59.0469 33.2969 59.0469C32.2891 59.0469 31.8672 58.5195 31.8672 57.3828V53.5391H30.8594V57.6289C30.8594 59.123 31.5977 59.9668 33.0156 59.9668C33.9824 59.9668 34.6562 59.5684 34.9727 58.8652H35.0664V59.8555H36.0273V53.5391Z" fill="#111111"/>
<path d="M37.9258 59.8555H38.9336V55.9414C38.9336 55.0508 39.6309 54.4062 40.5918 54.4062C40.791 54.4062 41.1543 54.4414 41.2363 54.4648V53.457C41.1074 53.4395 40.8965 53.4277 40.7324 53.4277C39.8945 53.4277 39.168 53.8613 38.9805 54.4766H38.8867V53.5391H37.9258V59.8555Z" fill="#111111"/>
<path d="M49.0234 59.9668C50.623 59.9668 51.6719 58.6719 51.6719 56.6973C51.6719 54.7109 50.6289 53.4277 49.0234 53.4277C48.1562 53.4277 47.3887 53.8555 47.043 54.5352H46.9492V51.0312H45.9414V59.8555H46.9023V58.8477H46.9961C47.3945 59.5508 48.1445 59.9668 49.0234 59.9668ZM48.7891 54.3359C49.9434 54.3359 50.6289 55.2207 50.6289 56.6973C50.6289 58.1738 49.9434 59.0586 48.7891 59.0586C47.6406 59.0586 46.9258 58.1562 46.9258 56.6973C46.9258 55.2383 47.6406 54.3359 48.7891 54.3359Z" fill="#111111"/>
<path d="M55.8496 59.9668C57.6484 59.9668 58.7617 58.7246 58.7617 56.6973C58.7617 54.6641 57.6484 53.4277 55.8496 53.4277C54.0508 53.4277 52.9375 54.6641 52.9375 56.6973C52.9375 58.7246 54.0508 59.9668 55.8496 59.9668ZM55.8496 59.0586C54.6543 59.0586 53.9805 58.1914 53.9805 56.6973C53.9805 55.1973 54.6543 54.3359 55.8496 54.3359C57.0449 54.3359 57.7188 55.1973 57.7188 56.6973C57.7188 58.1914 57.0449 59.0586 55.8496 59.0586Z" fill="#111111"/>
<path d="M62.1016 59.9668C62.9453 59.9668 63.6367 59.5977 64.0469 58.9238H64.1406V59.8555H65.1016V55.5312C65.1016 54.2188 64.2402 53.4277 62.6992 53.4277C61.3516 53.4277 60.3555 54.0957 60.2207 55.1094H61.2402C61.3809 54.6113 61.9082 54.3242 62.6641 54.3242C63.6074 54.3242 64.0938 54.752 64.0938 55.5312V56.1055L62.2715 56.2168C60.8008 56.3047 59.9688 56.9551 59.9688 58.0859C59.9688 59.2402 60.877 59.9668 62.1016 59.9668ZM62.2891 59.082C61.5566 59.082 61.0117 58.707 61.0117 58.0625C61.0117 57.4297 61.4336 57.0957 62.3945 57.0312L64.0938 56.9199V57.5C64.0938 58.4023 63.3262 59.082 62.2891 59.082Z" fill="#111111"/>
<path d="M66.9648 59.8555H67.9727V55.9414C67.9727 55.0508 68.6699 54.4062 69.6309 54.4062C69.8301 54.4062 70.1934 54.4414 70.2754 54.4648V53.457C70.1465 53.4395 69.9355 53.4277 69.7715 53.4277C68.9336 53.4277 68.207 53.8613 68.0195 54.4766H67.9258V53.5391H66.9648V59.8555Z" fill="#111111"/>
<path d="M73.6973 59.9668C74.5703 59.9668 75.3203 59.5508 75.7188 58.8477H75.8125V59.8555H76.7734V51.0312H75.7656V54.5352H75.6777C75.3203 53.8438 74.5762 53.4277 73.6973 53.4277C72.0918 53.4277 71.043 54.7168 71.043 56.6973C71.043 58.6836 72.0801 59.9668 73.6973 59.9668ZM73.9316 54.3359C75.0742 54.3359 75.7891 55.25 75.7891 56.6973C75.7891 58.1562 75.0801 59.0586 73.9316 59.0586C72.7773 59.0586 72.0859 58.1738 72.0859 56.6973C72.0859 55.2266 72.7832 54.3359 73.9316 54.3359Z" fill="#111111"/>
<path d="M90.0625 53.5391H89.0488L87.8066 58.5898H87.7129L86.3008 53.5391H85.334L83.9219 58.5898H83.8281L82.5859 53.5391H81.5664L83.3359 59.8555H84.3555L85.7617 54.9688H85.8555L87.2676 59.8555H88.293L90.0625 53.5391Z" fill="#111111"/>
<path d="M91.9375 52.3203C92.3242 52.3203 92.6406 52.0039 92.6406 51.6172C92.6406 51.2305 92.3242 50.9141 91.9375 50.9141C91.5508 50.9141 91.2344 51.2305 91.2344 51.6172C91.2344 52.0039 91.5508 52.3203 91.9375 52.3203ZM91.4336 59.8555H92.4414V53.5391H91.4336V59.8555Z" fill="#111111"/>
<path d="M94.4219 59.8555H95.4297V51.0312H94.4219V59.8555Z" fill="#111111"/>
<path d="M97.4453 59.8555H98.4531V51.0312H97.4453V59.8555Z" fill="#111111"/>
<path d="M106.938 59.9668C108.537 59.9668 109.586 58.6719 109.586 56.6973C109.586 54.7109 108.543 53.4277 106.938 53.4277C106.07 53.4277 105.303 53.8555 104.957 54.5352H104.863V51.0312H103.855V59.8555H104.816V58.8477H104.91C105.309 59.5508 106.059 59.9668 106.938 59.9668ZM106.703 54.3359C107.857 54.3359 108.543 55.2207 108.543 56.6973C108.543 58.1738 107.857 59.0586 106.703 59.0586C105.555 59.0586 104.84 58.1562 104.84 56.6973C104.84 55.2383 105.555 54.3359 106.703 54.3359Z" fill="#111111"/>
<path d="M115.352 58.2207C115.088 58.7773 114.537 59.0762 113.723 59.0762C112.65 59.0762 111.953 58.2852 111.9 57.0371V56.9902H116.441V56.6035C116.441 54.6406 115.404 53.4277 113.699 53.4277C111.965 53.4277 110.852 54.7168 110.852 56.7031C110.852 58.7012 111.947 59.9668 113.699 59.9668C115.082 59.9668 116.066 59.2988 116.359 58.2207H115.352ZM113.688 54.3184C114.689 54.3184 115.357 55.0566 115.381 56.1758H111.9C111.977 55.0566 112.68 54.3184 113.688 54.3184Z" fill="#111111"/>
<path d="M123.748 59.9668C124.621 59.9668 125.371 59.5508 125.77 58.8477H125.863V59.8555H126.824V51.0312H125.816V54.5352H125.729C125.371 53.8438 124.627 53.4277 123.748 53.4277C122.143 53.4277 121.094 54.7168 121.094 56.6973C121.094 58.6836 122.131 59.9668 123.748 59.9668ZM123.982 54.3359C125.125 54.3359 125.84 55.25 125.84 56.6973C125.84 58.1562 125.131 59.0586 123.982 59.0586C122.828 59.0586 122.137 58.1738 122.137 56.6973C122.137 55.2266 122.834 54.3359 123.982 54.3359Z" fill="#111111"/>
<path d="M132.965 58.2207C132.701 58.7773 132.15 59.0762 131.336 59.0762C130.264 59.0762 129.566 58.2852 129.514 57.0371V56.9902H134.055V56.6035C134.055 54.6406 133.018 53.4277 131.312 53.4277C129.578 53.4277 128.465 54.7168 128.465 56.7031C128.465 58.7012 129.561 59.9668 131.312 59.9668C132.695 59.9668 133.68 59.2988 133.973 58.2207H132.965ZM131.301 54.3184C132.303 54.3184 132.971 55.0566 132.994 56.1758H129.514C129.59 55.0566 130.293 54.3184 131.301 54.3184Z" fill="#111111"/>
<path d="M135.695 59.8555H136.703V51.0312H135.695V59.8555Z" fill="#111111"/>
<path d="M142.844 58.2207C142.58 58.7773 142.029 59.0762 141.215 59.0762C140.143 59.0762 139.445 58.2852 139.393 57.0371V56.9902H143.934V56.6035C143.934 54.6406 142.896 53.4277 141.191 53.4277C139.457 53.4277 138.344 54.7168 138.344 56.7031C138.344 58.7012 139.439 59.9668 141.191 59.9668C142.574 59.9668 143.559 59.2988 143.852 58.2207H142.844ZM141.18 54.3184C142.182 54.3184 142.85 55.0566 142.873 56.1758H139.393C139.469 55.0566 140.172 54.3184 141.18 54.3184Z" fill="#111111"/>
<path d="M145.938 51.9043V53.5391H144.918V54.3828H145.938V58.2148C145.938 59.4219 146.459 59.9023 147.76 59.9023C147.959 59.9023 148.152 59.8789 148.352 59.8438V58.9941C148.164 59.0117 148.064 59.0176 147.883 59.0176C147.227 59.0176 146.945 58.7012 146.945 57.957V54.3828H148.352V53.5391H146.945V51.9043H145.938Z" fill="#111111"/>
<path d="M153.965 58.2207C153.701 58.7773 153.15 59.0762 152.336 59.0762C151.264 59.0762 150.566 58.2852 150.514 57.0371V56.9902H155.055V56.6035C155.055 54.6406 154.018 53.4277 152.312 53.4277C150.578 53.4277 149.465 54.7168 149.465 56.7031C149.465 58.7012 150.561 59.9668 152.312 59.9668C153.695 59.9668 154.68 59.2988 154.973 58.2207H153.965ZM152.301 54.3184C153.303 54.3184 153.971 55.0566 153.994 56.1758H150.514C150.59 55.0566 151.293 54.3184 152.301 54.3184Z" fill="#111111"/>
<path d="M158.975 59.9668C159.848 59.9668 160.598 59.5508 160.996 58.8477H161.09V59.8555H162.051V51.0312H161.043V54.5352H160.955C160.598 53.8438 159.854 53.4277 158.975 53.4277C157.369 53.4277 156.32 54.7168 156.32 56.6973C156.32 58.6836 157.357 59.9668 158.975 59.9668ZM159.209 54.3359C160.352 54.3359 161.066 55.25 161.066 56.6973C161.066 58.1562 160.357 59.0586 159.209 59.0586C158.055 59.0586 157.363 58.1738 157.363 56.6973C157.363 55.2266 158.061 54.3359 159.209 54.3359Z" fill="#111111"/>
<path d="M169.152 59.9668C169.996 59.9668 170.688 59.5977 171.098 58.9238H171.191V59.8555H172.152V55.5312C172.152 54.2188 171.291 53.4277 169.75 53.4277C168.402 53.4277 167.406 54.0957 167.271 55.1094H168.291C168.432 54.6113 168.959 54.3242 169.715 54.3242C170.658 54.3242 171.145 54.752 171.145 55.5312V56.1055L169.322 56.2168C167.852 56.3047 167.02 56.9551 167.02 58.0859C167.02 59.2402 167.928 59.9668 169.152 59.9668ZM169.34 59.082C168.607 59.082 168.062 58.707 168.062 58.0625C168.062 57.4297 168.484 57.0957 169.445 57.0312L171.145 56.9199V57.5C171.145 58.4023 170.377 59.082 169.34 59.082Z" fill="#111111"/>
<path d="M174.016 59.8555H175.023V56.1172C175.023 55.0098 175.674 54.3359 176.682 54.3359C177.689 54.3359 178.17 54.875 178.17 56.0117V59.8555H179.178V55.7656C179.178 54.2656 178.387 53.4277 176.969 53.4277C176.002 53.4277 175.387 53.8379 175.07 54.5352H174.977V53.5391H174.016V59.8555Z" fill="#111111"/>
<path d="M183.361 59.9668C184.234 59.9668 184.984 59.5508 185.383 58.8477H185.477V59.8555H186.438V51.0312H185.43V54.5352H185.342C184.984 53.8438 184.24 53.4277 183.361 53.4277C181.756 53.4277 180.707 54.7168 180.707 56.6973C180.707 58.6836 181.744 59.9668 183.361 59.9668ZM183.596 54.3359C184.738 54.3359 185.453 55.25 185.453 56.6973C185.453 58.1562 184.744 59.0586 183.596 59.0586C182.441 59.0586 181.75 58.1738 181.75 56.6973C181.75 55.2266 182.447 54.3359 183.596 54.3359Z" fill="#111111"/>
<path d="M193.539 59.9668C194.383 59.9668 195.074 59.5977 195.484 58.9238H195.578V59.8555H196.539V55.5312C196.539 54.2188 195.678 53.4277 194.137 53.4277C192.789 53.4277 191.793 54.0957 191.658 55.1094H192.678C192.818 54.6113 193.346 54.3242 194.102 54.3242C195.045 54.3242 195.531 54.752 195.531 55.5312V56.1055L193.709 56.2168C192.238 56.3047 191.406 56.9551 191.406 58.0859C191.406 59.2402 192.314 59.9668 193.539 59.9668ZM193.727 59.082C192.994 59.082 192.449 58.707 192.449 58.0625C192.449 57.4297 192.871 57.0957 193.832 57.0312L195.531 56.9199V57.5C195.531 58.4023 194.764 59.082 193.727 59.082Z" fill="#111111"/>
<path d="M198.461 59.8555H199.469V51.0312H198.461V59.8555Z" fill="#111111"/>
<path d="M201.484 59.8555H202.492V51.0312H201.484V59.8555Z" fill="#111111"/>
<path d="M212.945 53.5391H211.938V57.2773C211.938 58.3848 211.328 59.0469 210.215 59.0469C209.207 59.0469 208.785 58.5195 208.785 57.3828V53.5391H207.777V57.6289C207.777 59.123 208.516 59.9668 209.934 59.9668C210.9 59.9668 211.574 59.5684 211.891 58.8652H211.984V59.8555H212.945V53.5391Z" fill="#111111"/>
<path d="M214.697 55.2676C214.697 56.1816 215.236 56.6914 216.42 56.9785L217.504 57.2422C218.178 57.4062 218.506 57.6992 218.506 58.1328C218.506 58.7129 217.896 59.1172 217.047 59.1172C216.238 59.1172 215.734 58.7773 215.564 58.2441H214.527C214.639 59.293 215.605 59.9668 217.012 59.9668C218.447 59.9668 219.543 59.1875 219.543 58.0566C219.543 57.1484 218.969 56.6328 217.779 56.3457L216.807 56.1113C216.062 55.9297 215.711 55.6602 215.711 55.2266C215.711 54.6641 216.297 54.2832 217.047 54.2832C217.809 54.2832 218.301 54.6172 218.436 55.1211H219.432C219.297 54.084 218.377 53.4277 217.053 53.4277C215.711 53.4277 214.697 54.2188 214.697 55.2676Z" fill="#111111"/>
<path d="M225.309 58.2207C225.045 58.7773 224.494 59.0762 223.68 59.0762C222.607 59.0762 221.91 58.2852 221.857 57.0371V56.9902H226.398V56.6035C226.398 54.6406 225.361 53.4277 223.656 53.4277C221.922 53.4277 220.809 54.7168 220.809 56.7031C220.809 58.7012 221.904 59.9668 223.656 59.9668C225.039 59.9668 226.023 59.2988 226.316 58.2207H225.309ZM223.645 54.3184C224.646 54.3184 225.314 55.0566 225.338 56.1758H221.857C221.934 55.0566 222.637 54.3184 223.645 54.3184Z" fill="#111111"/>
<path d="M227.98 59.8555H228.988V55.9414C228.988 55.0508 229.686 54.4062 230.646 54.4062C230.846 54.4062 231.209 54.4414 231.291 54.4648V53.457C231.162 53.4395 230.951 53.4277 230.787 53.4277C229.949 53.4277 229.223 53.8613 229.035 54.4766H228.941V53.5391H227.98V59.8555Z" fill="#111111"/>
<path d="M232.287 55.2676C232.287 56.1816 232.826 56.6914 234.01 56.9785L235.094 57.2422C235.768 57.4062 236.096 57.6992 236.096 58.1328C236.096 58.7129 235.486 59.1172 234.637 59.1172C233.828 59.1172 233.324 58.7773 233.154 58.2441H232.117C232.229 59.293 233.195 59.9668 234.602 59.9668C236.037 59.9668 237.133 59.1875 237.133 58.0566C237.133 57.1484 236.559 56.6328 235.369 56.3457L234.396 56.1113C233.652 55.9297 233.301 55.6602 233.301 55.2266C233.301 54.6641 233.887 54.2832 234.637 54.2832C235.398 54.2832 235.891 54.6172 236.025 55.1211H237.021C236.887 54.084 235.967 53.4277 234.643 53.4277C233.301 53.4277 232.287 54.2188 232.287 55.2676Z" fill="#111111"/>
<path d="M250.047 53.5391H249.033L247.791 58.5898H247.697L246.285 53.5391H245.318L243.906 58.5898H243.812L242.57 53.5391H241.551L243.32 59.8555H244.34L245.746 54.9688H245.84L247.252 59.8555H248.277L250.047 53.5391Z" fill="#111111"/>
<path d="M251.922 52.3203C252.309 52.3203 252.625 52.0039 252.625 51.6172C252.625 51.2305 252.309 50.9141 251.922 50.9141C251.535 50.9141 251.219 51.2305 251.219 51.6172C251.219 52.0039 251.535 52.3203 251.922 52.3203ZM251.418 59.8555H252.426V53.5391H251.418V59.8555Z" fill="#111111"/>
<path d="M254.406 59.8555H255.414V51.0312H254.406V59.8555Z" fill="#111111"/>
<path d="M257.43 59.8555H258.438V51.0312H257.43V59.8555Z" fill="#111111"/>
<path d="M17.0078 73.8555H18.0156V65.0312H17.0078V73.8555Z" fill="#111111"/>
<path d="M22.5684 73.9668C24.3672 73.9668 25.4805 72.7246 25.4805 70.6973C25.4805 68.6641 24.3672 67.4277 22.5684 67.4277C20.7695 67.4277 19.6562 68.6641 19.6562 70.6973C19.6562 72.7246 20.7695 73.9668 22.5684 73.9668ZM22.5684 73.0586C21.373 73.0586 20.6992 72.1914 20.6992 70.6973C20.6992 69.1973 21.373 68.3359 22.5684 68.3359C23.7637 68.3359 24.4375 69.1973 24.4375 70.6973C24.4375 72.1914 23.7637 73.0586 22.5684 73.0586Z" fill="#111111"/>
<path d="M26.916 69.2676C26.916 70.1816 27.4551 70.6914 28.6387 70.9785L29.7227 71.2422C30.3965 71.4062 30.7246 71.6992 30.7246 72.1328C30.7246 72.7129 30.1152 73.1172 29.2656 73.1172C28.457 73.1172 27.9531 72.7773 27.7832 72.2441H26.7461C26.8574 73.293 27.8242 73.9668 29.2305 73.9668C30.666 73.9668 31.7617 73.1875 31.7617 72.0566C31.7617 71.1484 31.1875 70.6328 29.998 70.3457L29.0254 70.1113C28.2812 69.9297 27.9297 69.6602 27.9297 69.2266C27.9297 68.6641 28.5156 68.2832 29.2656 68.2832C30.0273 68.2832 30.5195 68.6172 30.6543 69.1211H31.6504C31.5156 68.084 30.5957 67.4277 29.2715 67.4277C27.9297 67.4277 26.916 68.2188 26.916 69.2676Z" fill="#111111"/>
<path d="M37.5273 72.2207C37.2637 72.7773 36.7129 73.0762 35.8984 73.0762C34.8262 73.0762 34.1289 72.2852 34.0762 71.0371V70.9902H38.6172V70.6035C38.6172 68.6406 37.5801 67.4277 35.875 67.4277C34.1406 67.4277 33.0273 68.7168 33.0273 70.7031C33.0273 72.7012 34.123 73.9668 35.875 73.9668C37.2578 73.9668 38.2422 73.2988 38.5352 72.2207H37.5273ZM35.8633 68.3184C36.8652 68.3184 37.5332 69.0566 37.5566 70.1758H34.0762C34.1523 69.0566 34.8555 68.3184 35.8633 68.3184Z" fill="#111111"/>
<path d="M45.3438 73.9668C46.1875 73.9668 46.8789 73.5977 47.2891 72.9238H47.3828V73.8555H48.3438V69.5312C48.3438 68.2188 47.4824 67.4277 45.9414 67.4277C44.5938 67.4277 43.5977 68.0957 43.4629 69.1094H44.4824C44.623 68.6113 45.1504 68.3242 45.9062 68.3242C46.8496 68.3242 47.3359 68.752 47.3359 69.5312V70.1055L45.5137 70.2168C44.043 70.3047 43.2109 70.9551 43.2109 72.0859C43.2109 73.2402 44.1191 73.9668 45.3438 73.9668ZM45.5312 73.082C44.7988 73.082 44.2539 72.707 44.2539 72.0625C44.2539 71.4297 44.6758 71.0957 45.6367 71.0312L47.3359 70.9199V71.5C47.3359 72.4023 46.5684 73.082 45.5312 73.082Z" fill="#111111"/>
<path d="M55.4336 69.4727C55.2578 68.3477 54.3203 67.4277 52.7852 67.4277C51.0156 67.4277 49.8906 68.7051 49.8906 70.6738C49.8906 72.6836 51.0215 73.9668 52.791 73.9668C54.3086 73.9668 55.252 73.1113 55.4336 71.9512H54.4141C54.2266 72.666 53.6348 73.0586 52.7852 73.0586C51.6602 73.0586 50.9336 72.1328 50.9336 70.6738C50.9336 69.2441 51.6484 68.3359 52.7852 68.3359C53.6934 68.3359 54.25 68.8457 54.4141 69.4727H55.4336Z" fill="#111111"/>
<path d="M62.1484 69.4727C61.9727 68.3477 61.0352 67.4277 59.5 67.4277C57.7305 67.4277 56.6055 68.7051 56.6055 70.6738C56.6055 72.6836 57.7363 73.9668 59.5059 73.9668C61.0234 73.9668 61.9668 73.1113 62.1484 71.9512H61.1289C60.9414 72.666 60.3496 73.0586 59.5 73.0586C58.375 73.0586 57.6484 72.1328 57.6484 70.6738C57.6484 69.2441 58.3633 68.3359 59.5 68.3359C60.4082 68.3359 60.9648 68.8457 61.1289 69.4727H62.1484Z" fill="#111111"/>
<path d="M67.8203 72.2207C67.5566 72.7773 67.0059 73.0762 66.1914 73.0762C65.1191 73.0762 64.4219 72.2852 64.3691 71.0371V70.9902H68.9102V70.6035C68.9102 68.6406 67.873 67.4277 66.168 67.4277C64.4336 67.4277 63.3203 68.7168 63.3203 70.7031C63.3203 72.7012 64.416 73.9668 66.168 73.9668C67.5508 73.9668 68.5352 73.2988 68.8281 72.2207H67.8203ZM66.1562 68.3184C67.1582 68.3184 67.8262 69.0566 67.8496 70.1758H64.3691C64.4453 69.0566 65.1484 68.3184 66.1562 68.3184Z" fill="#111111"/>
<path d="M70.3457 69.2676C70.3457 70.1816 70.8848 70.6914 72.0684 70.9785L73.1523 71.2422C73.8262 71.4062 74.1543 71.6992 74.1543 72.1328C74.1543 72.7129 73.5449 73.1172 72.6953 73.1172C71.8867 73.1172 71.3828 72.7773 71.2129 72.2441H70.1758C70.2871 73.293 71.2539 73.9668 72.6602 73.9668C74.0957 73.9668 75.1914 73.1875 75.1914 72.0566C75.1914 71.1484 74.6172 70.6328 73.4277 70.3457L72.4551 70.1113C71.7109 69.9297 71.3594 69.6602 71.3594 69.2266C71.3594 68.6641 71.9453 68.2832 72.6953 68.2832C73.457 68.2832 73.9492 68.6172 74.084 69.1211H75.0801C74.9453 68.084 74.0254 67.4277 72.7012 67.4277C71.3594 67.4277 70.3457 68.2188 70.3457 69.2676Z" fill="#111111"/>
<path d="M76.5098 69.2676C76.5098 70.1816 77.0488 70.6914 78.2324 70.9785L79.3164 71.2422C79.9902 71.4062 80.3184 71.6992 80.3184 72.1328C80.3184 72.7129 79.709 73.1172 78.8594 73.1172C78.0508 73.1172 77.5469 72.7773 77.377 72.2441H76.3398C76.4512 73.293 77.418 73.9668 78.8242 73.9668C80.2598 73.9668 81.3555 73.1875 81.3555 72.0566C81.3555 71.1484 80.7812 70.6328 79.5918 70.3457L78.6191 70.1113C77.875 69.9297 77.5234 69.6602 77.5234 69.2266C77.5234 68.6641 78.1094 68.2832 78.8594 68.2832C79.6211 68.2832 80.1133 68.6172 80.248 69.1211H81.2441C81.1094 68.084 80.1895 67.4277 78.8652 67.4277C77.5234 67.4277 76.5098 68.2188 76.5098 69.2676Z" fill="#111111"/>
<path d="M86.7461 65.9043V67.5391H85.7266V68.3828H86.7461V72.2148C86.7461 73.4219 87.2676 73.9023 88.5684 73.9023C88.7676 73.9023 88.9609 73.8789 89.1602 73.8438V72.9941C88.9727 73.0117 88.873 73.0176 88.6914 73.0176C88.0352 73.0176 87.7539 72.7012 87.7539 71.957V68.3828H89.1602V67.5391H87.7539V65.9043H86.7461Z" fill="#111111"/>
<path d="M93.1855 73.9668C94.9844 73.9668 96.0977 72.7246 96.0977 70.6973C96.0977 68.6641 94.9844 67.4277 93.1855 67.4277C91.3867 67.4277 90.2734 68.6641 90.2734 70.6973C90.2734 72.7246 91.3867 73.9668 93.1855 73.9668ZM93.1855 73.0586C91.9902 73.0586 91.3164 72.1914 91.3164 70.6973C91.3164 69.1973 91.9902 68.3359 93.1855 68.3359C94.3809 68.3359 95.0547 69.1973 95.0547 70.6973C95.0547 72.1914 94.3809 73.0586 93.1855 73.0586Z" fill="#111111"/>
<path d="M101.594 66.3203C101.98 66.3203 102.297 66.0039 102.297 65.6172C102.297 65.2305 101.98 64.9141 101.594 64.9141C101.207 64.9141 100.891 65.2305 100.891 65.6172C100.891 66.0039 101.207 66.3203 101.594 66.3203ZM101.09 73.8555H102.098V67.5391H101.09V73.8555Z" fill="#111111"/>
<path d="M104.441 65.9043V67.5391H103.422V68.3828H104.441V72.2148C104.441 73.4219 104.963 73.9023 106.264 73.9023C106.463 73.9023 106.656 73.8789 106.855 73.8438V72.9941C106.668 73.0117 106.568 73.0176 106.387 73.0176C105.73 73.0176 105.449 72.7012 105.449 71.957V68.3828H106.855V67.5391H105.449V65.9043H104.441Z" fill="#111111"/>
<path d="M109.211 73.9141C109.633 73.9141 109.973 73.5684 109.973 73.1523C109.973 72.7305 109.633 72.3906 109.211 72.3906C108.795 72.3906 108.449 72.7305 108.449 73.1523C108.449 73.5684 108.795 73.9141 109.211 73.9141Z" fill="#111111"/>
<path d="M118.709 73.8555V66.3496H121.434V65.4004H114.93V66.3496H117.654V73.8555H118.709Z" fill="#111111"/>
<path d="M122.992 73.8555H124V70.1172C124 69.0508 124.621 68.3359 125.752 68.3359C126.707 68.3359 127.211 68.8926 127.211 70.0117V73.8555H128.219V69.7656C128.219 68.2832 127.375 67.4277 126.039 67.4277C125.072 67.4277 124.41 67.8379 124.094 68.5352H124V65.0312H122.992V73.8555Z" fill="#111111"/>
<path d="M130.586 66.3203C130.973 66.3203 131.289 66.0039 131.289 65.6172C131.289 65.2305 130.973 64.9141 130.586 64.9141C130.199 64.9141 129.883 65.2305 129.883 65.6172C129.883 66.0039 130.199 66.3203 130.586 66.3203ZM130.082 73.8555H131.09V67.5391H130.082V73.8555Z" fill="#111111"/>
<path d="M132.865 69.2676C132.865 70.1816 133.404 70.6914 134.588 70.9785L135.672 71.2422C136.346 71.4062 136.674 71.6992 136.674 72.1328C136.674 72.7129 136.064 73.1172 135.215 73.1172C134.406 73.1172 133.902 72.7773 133.732 72.2441H132.695C132.807 73.293 133.773 73.9668 135.18 73.9668C136.615 73.9668 137.711 73.1875 137.711 72.0566C137.711 71.1484 137.137 70.6328 135.947 70.3457L134.975 70.1113C134.23 69.9297 133.879 69.6602 133.879 69.2266C133.879 68.6641 134.465 68.2832 135.215 68.2832C135.977 68.2832 136.469 68.6172 136.604 69.1211H137.6C137.465 68.084 136.545 67.4277 135.221 67.4277C133.879 67.4277 132.865 68.2188 132.865 69.2676Z" fill="#111111"/>
<path d="M147.906 69.4727C147.73 68.3477 146.793 67.4277 145.258 67.4277C143.488 67.4277 142.363 68.7051 142.363 70.6738C142.363 72.6836 143.494 73.9668 145.264 73.9668C146.781 73.9668 147.725 73.1113 147.906 71.9512H146.887C146.699 72.666 146.107 73.0586 145.258 73.0586C144.133 73.0586 143.406 72.1328 143.406 70.6738C143.406 69.2441 144.121 68.3359 145.258 68.3359C146.166 68.3359 146.723 68.8457 146.887 69.4727H147.906Z" fill="#111111"/>
<path d="M151.152 73.9668C151.996 73.9668 152.688 73.5977 153.098 72.9238H153.191V73.8555H154.152V69.5312C154.152 68.2188 153.291 67.4277 151.75 67.4277C150.402 67.4277 149.406 68.0957 149.271 69.1094H150.291C150.432 68.6113 150.959 68.3242 151.715 68.3242C152.658 68.3242 153.145 68.752 153.145 69.5312V70.1055L151.322 70.2168C149.852 70.3047 149.02 70.9551 149.02 72.0859C149.02 73.2402 149.928 73.9668 151.152 73.9668ZM151.34 73.082C150.607 73.082 150.062 72.707 150.062 72.0625C150.062 71.4297 150.484 71.0957 151.445 71.0312L153.145 70.9199V71.5C153.145 72.4023 152.377 73.082 151.34 73.082Z" fill="#111111"/>
<path d="M156.016 73.8555H157.023V70.1172C157.023 69.0098 157.674 68.3359 158.682 68.3359C159.689 68.3359 160.17 68.875 160.17 70.0117V73.8555H161.178V69.7656C161.178 68.2656 160.387 67.4277 158.969 67.4277C158.002 67.4277 157.387 67.8379 157.07 68.5352H156.977V67.5391H156.016V73.8555Z" fill="#111111"/>
<path d="M163.023 73.8555H164.031V70.1172C164.031 69.0098 164.682 68.3359 165.689 68.3359C166.697 68.3359 167.178 68.875 167.178 70.0117V73.8555H168.186V69.7656C168.186 68.2656 167.395 67.4277 165.977 67.4277C165.01 67.4277 164.395 67.8379 164.078 68.5352H163.984V67.5391H163.023V73.8555Z" fill="#111111"/>
<path d="M172.627 73.9668C174.426 73.9668 175.539 72.7246 175.539 70.6973C175.539 68.6641 174.426 67.4277 172.627 67.4277C170.828 67.4277 169.715 68.6641 169.715 70.6973C169.715 72.7246 170.828 73.9668 172.627 73.9668ZM172.627 73.0586C171.432 73.0586 170.758 72.1914 170.758 70.6973C170.758 69.1973 171.432 68.3359 172.627 68.3359C173.822 68.3359 174.496 69.1973 174.496 70.6973C174.496 72.1914 173.822 73.0586 172.627 73.0586Z" fill="#111111"/>
<path d="M177.543 65.9043V67.5391H176.523V68.3828H177.543V72.2148C177.543 73.4219 178.064 73.9023 179.365 73.9023C179.564 73.9023 179.758 73.8789 179.957 73.8438V72.9941C179.77 73.0117 179.67 73.0176 179.488 73.0176C178.832 73.0176 178.551 72.7012 178.551 71.957V68.3828H179.957V67.5391H178.551V65.9043H177.543Z" fill="#111111"/>
<path d="M188.008 73.9668C189.607 73.9668 190.656 72.6719 190.656 70.6973C190.656 68.7109 189.613 67.4277 188.008 67.4277C187.141 67.4277 186.373 67.8555 186.027 68.5352H185.934V65.0312H184.926V73.8555H185.887V72.8477H185.98C186.379 73.5508 187.129 73.9668 188.008 73.9668ZM187.773 68.3359C188.928 68.3359 189.613 69.2207 189.613 70.6973C189.613 72.1738 188.928 73.0586 187.773 73.0586C186.625 73.0586 185.91 72.1562 185.91 70.6973C185.91 69.2383 186.625 68.3359 187.773 68.3359Z" fill="#111111"/>
<path d="M196.422 72.2207C196.158 72.7773 195.607 73.0762 194.793 73.0762C193.721 73.0762 193.023 72.2852 192.971 71.0371V70.9902H197.512V70.6035C197.512 68.6406 196.475 67.4277 194.77 67.4277C193.035 67.4277 191.922 68.7168 191.922 70.7031C191.922 72.7012 193.018 73.9668 194.77 73.9668C196.152 73.9668 197.137 73.2988 197.43 72.2207H196.422ZM194.758 68.3184C195.76 68.3184 196.428 69.0566 196.451 70.1758H192.971C193.047 69.0566 193.75 68.3184 194.758 68.3184Z" fill="#111111"/>
<path d="M207.59 67.5391H206.582V71.2773C206.582 72.3848 205.973 73.0469 204.859 73.0469C203.852 73.0469 203.43 72.5195 203.43 71.3828V67.5391H202.422V71.6289C202.422 73.123 203.16 73.9668 204.578 73.9668C205.545 73.9668 206.219 73.5684 206.535 72.8652H206.629V73.8555H207.59V67.5391Z" fill="#111111"/>
<path d="M209.488 73.8555H210.496V70.1172C210.496 69.0098 211.146 68.3359 212.154 68.3359C213.162 68.3359 213.643 68.875 213.643 70.0117V73.8555H214.65V69.7656C214.65 68.2656 213.859 67.4277 212.441 67.4277C211.475 67.4277 210.859 67.8379 210.543 68.5352H210.449V67.5391H209.488V73.8555Z" fill="#111111"/>
<path d="M218.834 73.9668C219.707 73.9668 220.457 73.5508 220.855 72.8477H220.949V73.8555H221.91V65.0312H220.902V68.5352H220.814C220.457 67.8438 219.713 67.4277 218.834 67.4277C217.229 67.4277 216.18 68.7168 216.18 70.6973C216.18 72.6836 217.217 73.9668 218.834 73.9668ZM219.068 68.3359C220.211 68.3359 220.926 69.25 220.926 70.6973C220.926 72.1562 220.217 73.0586 219.068 73.0586C217.914 73.0586 217.223 72.1738 217.223 70.6973C217.223 69.2266 217.92 68.3359 219.068 68.3359Z" fill="#111111"/>
<path d="M226.463 73.9668C228.262 73.9668 229.375 72.7246 229.375 70.6973C229.375 68.6641 228.262 67.4277 226.463 67.4277C224.664 67.4277 223.551 68.6641 223.551 70.6973C223.551 72.7246 224.664 73.9668 226.463 73.9668ZM226.463 73.0586C225.268 73.0586 224.594 72.1914 224.594 70.6973C224.594 69.1973 225.268 68.3359 226.463 68.3359C227.658 68.3359 228.332 69.1973 228.332 70.6973C228.332 72.1914 227.658 73.0586 226.463 73.0586Z" fill="#111111"/>
<path d="M230.957 73.8555H231.965V70.1172C231.965 69.0098 232.615 68.3359 233.623 68.3359C234.631 68.3359 235.111 68.875 235.111 70.0117V73.8555H236.119V69.7656C236.119 68.2656 235.328 67.4277 233.91 67.4277C232.943 67.4277 232.328 67.8379 232.012 68.5352H231.918V67.5391H230.957V73.8555Z" fill="#111111"/>
<path d="M242.148 72.2207C241.885 72.7773 241.334 73.0762 240.52 73.0762C239.447 73.0762 238.75 72.2852 238.697 71.0371V70.9902H243.238V70.6035C243.238 68.6406 242.201 67.4277 240.496 67.4277C238.762 67.4277 237.648 68.7168 237.648 70.7031C237.648 72.7012 238.744 73.9668 240.496 73.9668C241.879 73.9668 242.863 73.2988 243.156 72.2207H242.148ZM240.484 68.3184C241.486 68.3184 242.154 69.0566 242.178 70.1758H238.697C238.773 69.0566 239.477 68.3184 240.484 68.3184Z" fill="#111111"/>
<path d="M245.652 73.9141C246.074 73.9141 246.414 73.5684 246.414 73.1523C246.414 72.7305 246.074 72.3906 245.652 72.3906C245.236 72.3906 244.891 72.7305 244.891 73.1523C244.891 73.5684 245.236 73.9141 245.652 73.9141Z" fill="#111111"/>
<g clip-path="url(#clip0_145_6009)">
<path d="M103.404 108.868C105.192 108.868 106.503 107.81 106.685 106.241H105.321C105.133 107.111 104.387 107.665 103.404 107.665C102.082 107.665 101.261 106.563 101.261 104.796C101.261 103.035 102.082 101.934 103.398 101.934C104.376 101.934 105.122 102.541 105.316 103.475H106.68C106.519 101.869 105.16 100.73 103.398 100.73C101.201 100.73 99.8426 102.283 99.8426 104.802C99.8426 107.31 101.207 108.868 103.404 108.868Z" fill="#111111"/>
<path d="M109.704 108.771C110.472 108.771 111.117 108.438 111.444 107.869H111.535V108.674H112.819V104.662C112.819 103.421 111.971 102.691 110.461 102.691C109.065 102.691 108.093 103.346 107.985 104.372H109.242C109.366 103.969 109.784 103.749 110.397 103.749C111.117 103.749 111.503 104.077 111.503 104.662V105.167L109.989 105.258C108.56 105.339 107.76 105.957 107.76 107.009C107.76 108.083 108.571 108.771 109.704 108.771ZM110.096 107.745C109.505 107.745 109.081 107.45 109.081 106.945C109.081 106.456 109.43 106.182 110.177 106.134L111.503 106.042V106.521C111.503 107.219 110.902 107.745 110.096 107.745Z" fill="#111111"/>
<path d="M114.425 108.674H115.757V105.253C115.757 104.372 116.257 103.819 117.052 103.819C117.863 103.819 118.239 104.275 118.239 105.188V108.674H119.571V104.877C119.571 103.48 118.856 102.691 117.546 102.691C116.67 102.691 116.079 103.088 115.8 103.744H115.709V102.804H114.425V108.674Z" fill="#111111"/>
<path d="M126.225 104.764C126.086 103.55 125.173 102.691 123.663 102.691C121.896 102.691 120.86 103.824 120.86 105.726C120.86 107.648 121.902 108.792 123.669 108.792C125.157 108.792 126.08 107.965 126.225 106.751H124.958C124.818 107.369 124.356 107.697 123.663 107.697C122.756 107.697 122.208 106.972 122.208 105.726C122.208 104.501 122.75 103.781 123.663 103.781C124.394 103.781 124.834 104.195 124.958 104.764H126.225Z" fill="#111111"/>
<path d="M131.328 107.068C131.135 107.509 130.678 107.756 130.017 107.756C129.142 107.756 128.578 107.133 128.546 106.139V106.069H132.649V105.645C132.649 103.803 131.645 102.691 129.969 102.691C128.266 102.691 127.208 103.878 127.208 105.763C127.208 107.643 128.25 108.792 129.98 108.792C131.366 108.792 132.348 108.126 132.59 107.068H131.328ZM129.964 103.728C130.764 103.728 131.29 104.292 131.317 105.183H128.551C128.61 104.302 129.169 103.728 129.964 103.728Z" fill="#111111"/>
<path d="M134.04 108.674H135.372V100.532H134.04V108.674Z" fill="#111111"/>
<rect x="91.4324" y="92.9354" width="52.3502" height="23.5285" rx="11.7643" stroke="#767676" stroke-width="0.542593"/>
<rect x="152.054" y="92.7017" width="50.8517" height="23.9959" rx="11.998" fill="#767676"/>
<path d="M160.735 100.961V108.712H163.641C165.961 108.712 167.288 107.289 167.288 104.802C167.288 102.369 165.945 100.961 163.641 100.961H160.735ZM162.121 102.127H163.458C164.978 102.127 165.875 103.115 165.875 104.823C165.875 106.569 165 107.546 163.458 107.546H162.121V102.127Z" fill="white"/>
<path d="M172.568 107.106C172.374 107.546 171.918 107.793 171.257 107.793C170.382 107.793 169.818 107.17 169.786 106.177V106.107H173.889V105.683C173.889 103.84 172.885 102.729 171.209 102.729C169.506 102.729 168.448 103.916 168.448 105.801C168.448 107.681 169.49 108.83 171.22 108.83C172.605 108.83 173.588 108.164 173.83 107.106H172.568ZM171.204 103.765C172.004 103.765 172.53 104.329 172.557 105.221H169.791C169.85 104.34 170.409 103.765 171.204 103.765Z" fill="white"/>
<path d="M175.28 108.712H176.612V100.569H175.28V108.712Z" fill="white"/>
<path d="M182.128 107.106C181.935 107.546 181.478 107.793 180.818 107.793C179.942 107.793 179.378 107.17 179.346 106.177V106.107H183.45V105.683C183.45 103.84 182.445 102.729 180.77 102.729C179.067 102.729 178.009 103.916 178.009 105.801C178.009 107.681 179.051 108.83 180.78 108.83C182.166 108.83 183.149 108.164 183.391 107.106H182.128ZM180.764 103.765C181.564 103.765 182.091 104.329 182.118 105.221H179.352C179.411 104.34 179.969 103.765 180.764 103.765Z" fill="white"/>
<path d="M185.211 101.402V102.879H184.282V103.916H185.211V107.154C185.211 108.288 185.749 108.739 187.097 108.739C187.354 108.739 187.602 108.717 187.795 108.68V107.659C187.634 107.675 187.532 107.686 187.344 107.686C186.785 107.686 186.538 107.423 186.538 106.837V103.916H187.795V102.879H186.538V101.402H185.211Z" fill="white"/>
<path d="M192.903 107.106C192.709 107.546 192.253 107.793 191.592 107.793C190.717 107.793 190.153 107.17 190.121 106.177V106.107H194.224V105.683C194.224 103.84 193.22 102.729 191.544 102.729C189.841 102.729 188.783 103.916 188.783 105.801C188.783 107.681 189.825 108.83 191.555 108.83C192.94 108.83 193.923 108.164 194.165 107.106H192.903ZM191.539 103.765C192.339 103.765 192.865 104.329 192.892 105.221H190.126C190.185 104.34 190.744 103.765 191.539 103.765Z" fill="white"/>
</g>
<rect x="0.5" y="0.5" width="292" height="132" rx="7.5" stroke="#767676"/>
<defs>
<clipPath id="clip0_145_6009">
<rect width="111.744" height="24.0711" fill="white" transform="translate(91.1611 92.6641)"/>
</clipPath>
</defs>
</svg>
