<svg width="293" height="151" viewBox="0 0 293 151" fill="none" xmlns="http://www.w3.org/2000/svg">
<rect x="0.5" y="0.5" width="292" height="150" rx="7.5" fill="white"/>
<path d="M24.2891 32.2969H19.0078V29.0781H24V27.4766H19.0078V24.4297H24.2891V22.7266H16.9922V34H24.2891V32.2969Z" fill="#111111"/>
<path d="M29.0781 31.0312L30.7969 34H32.9219L30.2891 29.8125L32.9531 25.7188H30.8203L29.1719 28.625H29.1328L27.4609 25.7188H25.2734L27.9219 29.8672L25.25 34H27.3203L29.0391 31.0312H29.0781Z" fill="#111111"/>
<path d="M38.5 25.5781C37.2969 25.5781 36.3594 26.1875 35.8906 27.1484H35.8516V25.7188H33.9531V36.7266H35.8984V32.625H35.9375C36.3906 33.5547 37.3281 34.1328 38.5312 34.1328C40.6094 34.1328 41.9375 32.5 41.9375 29.8594C41.9375 27.2109 40.6016 25.5781 38.5 25.5781ZM37.9062 32.5391C36.6953 32.5391 35.8906 31.4844 35.8828 29.8594C35.8906 28.25 36.6953 27.1797 37.9062 27.1797C39.1641 27.1797 39.9453 28.2266 39.9453 29.8594C39.9453 31.5 39.1641 32.5391 37.9062 32.5391Z" fill="#111111"/>
<path d="M43.1875 34H45.1328V29.1797C45.1328 28.0156 45.7969 27.3047 46.8984 27.3047C47.2266 27.3047 47.5234 27.3516 47.6875 27.4141V25.6562C47.5469 25.625 47.3281 25.5781 47.0781 25.5781C46.1016 25.5781 45.375 26.1562 45.0938 27.1641H45.0547V25.7188H43.1875V34Z" fill="#111111"/>
<path d="M49.7031 24.4688C50.2969 24.4688 50.7656 23.9922 50.7656 23.4141C50.7656 22.8281 50.2969 22.3594 49.7031 22.3594C49.1094 22.3594 48.6328 22.8281 48.6328 23.4141C48.6328 23.9922 49.1094 24.4688 49.7031 24.4688ZM48.7344 34H50.6797V25.7188H48.7344V34Z" fill="#111111"/>
<path d="M57.7969 31.5234C57.5859 32.2109 56.8984 32.6641 55.9922 32.6641C54.7188 32.6641 53.9062 31.7734 53.9062 30.4453V30.3281H59.6953V29.6953C59.6953 27.1797 58.2266 25.5469 55.875 25.5469C53.4844 25.5469 51.9688 27.2734 51.9688 29.8906C51.9688 32.5312 53.4688 34.1641 55.9531 34.1641C57.9141 34.1641 59.3672 33.0859 59.6172 31.5234H57.7969ZM55.8828 27.0547C57 27.0547 57.75 27.875 57.7891 29.0469H53.9219C54 27.8906 54.7891 27.0547 55.8828 27.0547Z" fill="#111111"/>
<path d="M60.9531 34H62.8984V29.2031C62.8984 28.0156 63.6094 27.2109 64.7266 27.2109C65.8359 27.2109 66.3828 27.8672 66.3828 29.0391V34H68.3281V28.6484C68.3281 26.7344 67.2891 25.5625 65.4609 25.5625C64.1875 25.5625 63.3047 26.1562 62.8594 27.1406H62.8203V25.7188H60.9531V34Z" fill="#111111"/>
<path d="M77.1875 28.6719C77.0547 26.9297 75.7031 25.5469 73.5156 25.5469C71.1094 25.5469 69.5469 27.2109 69.5469 29.8594C69.5469 32.5469 71.1094 34.1641 73.5312 34.1641C75.6094 34.1641 77.0391 32.9453 77.1953 31.0938H75.3594C75.1797 32.0312 74.5391 32.5938 73.5547 32.5938C72.3203 32.5938 71.5234 31.5938 71.5234 29.8594C71.5234 28.1562 72.3125 27.125 73.5391 27.125C74.5781 27.125 75.1953 27.7891 75.3516 28.6719H77.1875Z" fill="#111111"/>
<path d="M83.8438 31.5234C83.6328 32.2109 82.9453 32.6641 82.0391 32.6641C80.7656 32.6641 79.9531 31.7734 79.9531 30.4453V30.3281H85.7422V29.6953C85.7422 27.1797 84.2734 25.5469 81.9219 25.5469C79.5312 25.5469 78.0156 27.2734 78.0156 29.8906C78.0156 32.5312 79.5156 34.1641 82 34.1641C83.9609 34.1641 85.4141 33.0859 85.6641 31.5234H83.8438ZM81.9297 27.0547C83.0469 27.0547 83.7969 27.875 83.8359 29.0469H79.9688C80.0469 27.8906 80.8359 27.0547 81.9297 27.0547Z" fill="#111111"/>
<path d="M90.7422 23.7812V25.7188H89.5547V27.2188H90.7422V31.7969C90.7422 33.4062 91.4453 34.0391 93.2344 34.0391C93.6484 34.0391 94.0312 34.0078 94.2422 33.9609V32.4766C94.1172 32.5 93.8672 32.5156 93.6875 32.5156C93 32.5156 92.6875 32.2031 92.6875 31.5234V27.2188H94.25V25.7188H92.6875V23.7812H90.7422Z" fill="#111111"/>
<path d="M95.6328 34H97.5781V29.2422C97.5781 28.0234 98.2891 27.2109 99.4609 27.2109C100.586 27.2109 101.164 27.9062 101.164 29.0625V34H103.109V28.6641C103.109 26.7656 102.039 25.5625 100.211 25.5625C98.9531 25.5625 98.0391 26.1328 97.5938 27.1406H97.5547V22.7266H95.6328V34Z" fill="#111111"/>
<path d="M110.156 31.5234C109.945 32.2109 109.258 32.6641 108.352 32.6641C107.078 32.6641 106.266 31.7734 106.266 30.4453V30.3281H112.055V29.6953C112.055 27.1797 110.586 25.5469 108.234 25.5469C105.844 25.5469 104.328 27.2734 104.328 29.8906C104.328 32.5312 105.828 34.1641 108.312 34.1641C110.273 34.1641 111.727 33.0859 111.977 31.5234H110.156ZM108.242 27.0547C109.359 27.0547 110.109 27.875 110.148 29.0469H106.281C106.359 27.8906 107.148 27.0547 108.242 27.0547Z" fill="#111111"/>
<path d="M116.516 34H118.461V29.2031C118.461 28.0156 119.172 27.2109 120.289 27.2109C121.398 27.2109 121.945 27.8672 121.945 29.0391V34H123.891V28.6484C123.891 26.7344 122.852 25.5625 121.023 25.5625C119.75 25.5625 118.867 26.1562 118.422 27.1406H118.383V25.7188H116.516V34Z" fill="#111111"/>
<path d="M130.938 31.5234C130.727 32.2109 130.039 32.6641 129.133 32.6641C127.859 32.6641 127.047 31.7734 127.047 30.4453V30.3281H132.836V29.6953C132.836 27.1797 131.367 25.5469 129.016 25.5469C126.625 25.5469 125.109 27.2734 125.109 29.8906C125.109 32.5312 126.609 34.1641 129.094 34.1641C131.055 34.1641 132.508 33.0859 132.758 31.5234H130.938ZM129.023 27.0547C130.141 27.0547 130.891 27.875 130.93 29.0469H127.062C127.141 27.8906 127.93 27.0547 129.023 27.0547Z" fill="#111111"/>
<path d="M145.297 25.7188H143.375L141.977 32.0781H141.93L140.312 25.7188H138.445L136.828 32.0781H136.789L135.391 25.7188H133.438L135.68 34H137.711L139.336 27.9453H139.375L141.008 34H143.055L145.297 25.7188Z" fill="#111111"/>
<path d="M154.43 34V24.4297H157.797V22.7266H149.047V24.4297H152.422V34H154.43Z" fill="#111111"/>
<path d="M157.656 34H159.602V29.1797C159.602 28.0156 160.266 27.3047 161.367 27.3047C161.695 27.3047 161.992 27.3516 162.156 27.4141V25.6562C162.016 25.625 161.797 25.5781 161.547 25.5781C160.57 25.5781 159.844 26.1562 159.562 27.1641H159.523V25.7188H157.656V34Z" fill="#111111"/>
<path d="M168.328 31.5234C168.117 32.2109 167.43 32.6641 166.523 32.6641C165.25 32.6641 164.438 31.7734 164.438 30.4453V30.3281H170.227V29.6953C170.227 27.1797 168.758 25.5469 166.406 25.5469C164.016 25.5469 162.5 27.2734 162.5 29.8906C162.5 32.5312 164 34.1641 166.484 34.1641C168.445 34.1641 169.898 33.0859 170.148 31.5234H168.328ZM166.414 27.0547C167.531 27.0547 168.281 27.875 168.32 29.0469H164.453C164.531 27.8906 165.32 27.0547 166.414 27.0547Z" fill="#111111"/>
<path d="M171.484 34H173.43V29.2031C173.43 28.0156 174.141 27.2109 175.258 27.2109C176.367 27.2109 176.914 27.8672 176.914 29.0391V34H178.859V28.6484C178.859 26.7344 177.82 25.5625 175.992 25.5625C174.719 25.5625 173.836 26.1562 173.391 27.1406H173.352V25.7188H171.484V34Z" fill="#111111"/>
<path d="M183.516 34.1328C184.727 34.1328 185.68 33.5156 186.133 32.5859H186.164V34H188.07V22.7266H186.125V27.1094H186.078C185.641 26.1953 184.703 25.5781 183.516 25.5781C181.43 25.5781 180.078 27.2344 180.078 29.8516C180.078 32.4844 181.43 34.1328 183.516 34.1328ZM184.102 27.1797C185.328 27.1797 186.133 28.2344 186.133 29.8594C186.133 31.5 185.328 32.5391 184.102 32.5391C182.844 32.5391 182.07 31.5078 182.07 29.8594C182.07 28.2188 182.852 27.1797 184.102 27.1797Z" fill="#111111"/>
<path d="M189.555 28.0938C189.555 29.3203 190.352 30.1016 191.938 30.4531L193.312 30.7578C194.18 30.9531 194.477 31.2344 194.477 31.7344C194.477 32.3516 193.891 32.7422 192.945 32.7422C191.961 32.7422 191.406 32.3359 191.258 31.5312H189.344C189.5 33.1328 190.781 34.1641 192.945 34.1641C194.977 34.1641 196.414 33.1094 196.414 31.5469C196.414 30.3438 195.75 29.6797 194.031 29.2969L192.656 28.9922C191.789 28.7969 191.445 28.4688 191.445 27.9922C191.445 27.3828 192.016 26.9766 192.875 26.9766C193.773 26.9766 194.328 27.4531 194.406 28.2031H196.219C196.172 26.6328 194.891 25.5469 192.875 25.5469C190.875 25.5469 189.555 26.5781 189.555 28.0938Z" fill="#111111"/>
<path d="M198.242 22.7266L198.398 30.2812H200.094L200.25 22.7266H198.242ZM199.242 34.1562C199.883 34.1562 200.383 33.6641 200.383 33.0469C200.383 32.4297 199.883 31.9453 199.242 31.9453C198.609 31.9453 198.109 32.4297 198.109 33.0469C198.109 33.6641 198.609 34.1562 199.242 34.1562Z" fill="#111111"/>
<path d="M20.3301 59.8555V52.3496H23.0547V51.4004H16.5508V52.3496H19.2754V59.8555H20.3301Z" fill="#111111"/>
<path d="M23.6758 59.8555H24.6836V55.9414C24.6836 55.0508 25.3809 54.4062 26.3418 54.4062C26.541 54.4062 26.9043 54.4414 26.9863 54.4648V53.457C26.8574 53.4395 26.6465 53.4277 26.4824 53.4277C25.6445 53.4277 24.918 53.8613 24.7305 54.4766H24.6367V53.5391H23.6758V59.8555Z" fill="#111111"/>
<path d="M32.2539 58.2207C31.9902 58.7773 31.4395 59.0762 30.625 59.0762C29.5527 59.0762 28.8555 58.2852 28.8027 57.0371V56.9902H33.3438V56.6035C33.3438 54.6406 32.3066 53.4277 30.6016 53.4277C28.8672 53.4277 27.7539 54.7168 27.7539 56.7031C27.7539 58.7012 28.8496 59.9668 30.6016 59.9668C31.9844 59.9668 32.9688 59.2988 33.2617 58.2207H32.2539ZM30.5898 54.3184C31.5918 54.3184 32.2598 55.0566 32.2832 56.1758H28.8027C28.8789 55.0566 29.582 54.3184 30.5898 54.3184Z" fill="#111111"/>
<path d="M34.9258 59.8555H35.9336V56.1172C35.9336 55.0098 36.584 54.3359 37.5918 54.3359C38.5996 54.3359 39.0801 54.875 39.0801 56.0117V59.8555H40.0879V55.7656C40.0879 54.2656 39.2969 53.4277 37.8789 53.4277C36.9121 53.4277 36.2969 53.8379 35.9805 54.5352H35.8867V53.5391H34.9258V59.8555Z" fill="#111111"/>
<path d="M44.2715 59.9668C45.1445 59.9668 45.8945 59.5508 46.293 58.8477H46.3867V59.8555H47.3477V51.0312H46.3398V54.5352H46.252C45.8945 53.8438 45.1504 53.4277 44.2715 53.4277C42.666 53.4277 41.6172 54.7168 41.6172 56.6973C41.6172 58.6836 42.6543 59.9668 44.2715 59.9668ZM44.5059 54.3359C45.6484 54.3359 46.3633 55.25 46.3633 56.6973C46.3633 58.1562 45.6543 59.0586 44.5059 59.0586C43.3516 59.0586 42.6602 58.1738 42.6602 56.6973C42.6602 55.2266 43.3574 54.3359 44.5059 54.3359Z" fill="#111111"/>
<path d="M49.1582 55.2676C49.1582 56.1816 49.6973 56.6914 50.8809 56.9785L51.9648 57.2422C52.6387 57.4062 52.9668 57.6992 52.9668 58.1328C52.9668 58.7129 52.3574 59.1172 51.5078 59.1172C50.6992 59.1172 50.1953 58.7773 50.0254 58.2441H48.9883C49.0996 59.293 50.0664 59.9668 51.4727 59.9668C52.9082 59.9668 54.0039 59.1875 54.0039 58.0566C54.0039 57.1484 53.4297 56.6328 52.2402 56.3457L51.2676 56.1113C50.5234 55.9297 50.1719 55.6602 50.1719 55.2266C50.1719 54.6641 50.7578 54.2832 51.5078 54.2832C52.2695 54.2832 52.7617 54.6172 52.8965 55.1211H53.8926C53.7578 54.084 52.8379 53.4277 51.5137 53.4277C50.1719 53.4277 49.1582 54.2188 49.1582 55.2676Z" fill="#111111"/>
<path d="M59.0312 59.8555H60.0391V56.1172C60.0391 55.0508 60.6602 54.3359 61.791 54.3359C62.7461 54.3359 63.25 54.8926 63.25 56.0117V59.8555H64.2578V55.7656C64.2578 54.2832 63.4141 53.4277 62.0781 53.4277C61.1113 53.4277 60.4492 53.8379 60.1328 54.5352H60.0391V51.0312H59.0312V59.8555Z" fill="#111111"/>
<path d="M67.8555 59.9668C68.6992 59.9668 69.3906 59.5977 69.8008 58.9238H69.8945V59.8555H70.8555V55.5312C70.8555 54.2188 69.9941 53.4277 68.4531 53.4277C67.1055 53.4277 66.1094 54.0957 65.9746 55.1094H66.9941C67.1348 54.6113 67.6621 54.3242 68.418 54.3242C69.3613 54.3242 69.8477 54.752 69.8477 55.5312V56.1055L68.0254 56.2168C66.5547 56.3047 65.7227 56.9551 65.7227 58.0859C65.7227 59.2402 66.6309 59.9668 67.8555 59.9668ZM68.043 59.082C67.3105 59.082 66.7656 58.707 66.7656 58.0625C66.7656 57.4297 67.1875 57.0957 68.1484 57.0312L69.8477 56.9199V57.5C69.8477 58.4023 69.0801 59.082 68.043 59.082Z" fill="#111111"/>
<path d="M72.5723 55.2676C72.5723 56.1816 73.1113 56.6914 74.2949 56.9785L75.3789 57.2422C76.0527 57.4062 76.3809 57.6992 76.3809 58.1328C76.3809 58.7129 75.7715 59.1172 74.9219 59.1172C74.1133 59.1172 73.6094 58.7773 73.4395 58.2441H72.4023C72.5137 59.293 73.4805 59.9668 74.8867 59.9668C76.3223 59.9668 77.418 59.1875 77.418 58.0566C77.418 57.1484 76.8438 56.6328 75.6543 56.3457L74.6816 56.1113C73.9375 55.9297 73.5859 55.6602 73.5859 55.2266C73.5859 54.6641 74.1719 54.2832 74.9219 54.2832C75.6836 54.2832 76.1758 54.6172 76.3105 55.1211H77.3066C77.1719 54.084 76.252 53.4277 74.9277 53.4277C73.5859 53.4277 72.5723 54.2188 72.5723 55.2676Z" fill="#111111"/>
<path d="M84.9883 62.2812C86.7109 62.2812 87.8008 61.3789 87.8008 59.9668V53.5391H86.8398V54.541H86.7461C86.3828 53.8613 85.6035 53.4277 84.7188 53.4277C83.0957 53.4277 82.0703 54.7109 82.0703 56.6035C82.0703 58.4961 83.084 59.7617 84.7188 59.7617C85.5859 59.7617 86.3008 59.3691 86.6992 58.6719H86.793V59.9141C86.793 60.8457 86.1191 61.4023 84.9883 61.4023C84.0801 61.4023 83.5176 61.0684 83.4062 60.5527H82.3398C82.4922 61.5957 83.4648 62.2812 84.9883 62.2812ZM84.9414 58.8711C83.7695 58.8711 83.1133 57.9805 83.1133 56.6035C83.1133 55.2266 83.7695 54.3359 84.9414 54.3359C86.1074 54.3359 86.8164 55.2266 86.8164 56.6035C86.8164 57.9805 86.1133 58.8711 84.9414 58.8711Z" fill="#111111"/>
<path d="M92.2949 59.9668C94.0938 59.9668 95.207 58.7246 95.207 56.6973C95.207 54.6641 94.0938 53.4277 92.2949 53.4277C90.4961 53.4277 89.3828 54.6641 89.3828 56.6973C89.3828 58.7246 90.4961 59.9668 92.2949 59.9668ZM92.2949 59.0586C91.0996 59.0586 90.4258 58.1914 90.4258 56.6973C90.4258 55.1973 91.0996 54.3359 92.2949 54.3359C93.4902 54.3359 94.1641 55.1973 94.1641 56.6973C94.1641 58.1914 93.4902 59.0586 92.2949 59.0586Z" fill="#111111"/>
<path d="M97.2109 51.9043V53.5391H96.1914V54.3828H97.2109V58.2148C97.2109 59.4219 97.7324 59.9023 99.0332 59.9023C99.2324 59.9023 99.4258 59.8789 99.625 59.8438V58.9941C99.4375 59.0117 99.3379 59.0176 99.1562 59.0176C98.5 59.0176 98.2188 58.7012 98.2188 57.957V54.3828H99.625V53.5391H98.2188V51.9043H97.2109Z" fill="#111111"/>
<path d="M101.57 51.9043V53.5391H100.551V54.3828H101.57V58.2148C101.57 59.4219 102.092 59.9023 103.393 59.9023C103.592 59.9023 103.785 59.8789 103.984 59.8438V58.9941C103.797 59.0117 103.697 59.0176 103.516 59.0176C102.859 59.0176 102.578 58.7012 102.578 57.957V54.3828H103.984V53.5391H102.578V51.9043H101.57Z" fill="#111111"/>
<path d="M109.598 58.2207C109.334 58.7773 108.783 59.0762 107.969 59.0762C106.896 59.0762 106.199 58.2852 106.146 57.0371V56.9902H110.688V56.6035C110.688 54.6406 109.65 53.4277 107.945 53.4277C106.211 53.4277 105.098 54.7168 105.098 56.7031C105.098 58.7012 106.193 59.9668 107.945 59.9668C109.328 59.9668 110.312 59.2988 110.605 58.2207H109.598ZM107.934 54.3184C108.936 54.3184 109.604 55.0566 109.627 56.1758H106.146C106.223 55.0566 106.926 54.3184 107.934 54.3184Z" fill="#111111"/>
<path d="M112.27 59.8555H113.277V56.1172C113.277 55.0098 113.928 54.3359 114.936 54.3359C115.943 54.3359 116.424 54.875 116.424 56.0117V59.8555H117.432V55.7656C117.432 54.2656 116.641 53.4277 115.223 53.4277C114.256 53.4277 113.641 53.8379 113.324 54.5352H113.23V53.5391H112.27V59.8555Z" fill="#111111"/>
<path d="M124.422 59.9668C125.266 59.9668 125.957 59.5977 126.367 58.9238H126.461V59.8555H127.422V55.5312C127.422 54.2188 126.561 53.4277 125.02 53.4277C123.672 53.4277 122.676 54.0957 122.541 55.1094H123.561C123.701 54.6113 124.229 54.3242 124.984 54.3242C125.928 54.3242 126.414 54.752 126.414 55.5312V56.1055L124.592 56.2168C123.121 56.3047 122.289 56.9551 122.289 58.0859C122.289 59.2402 123.197 59.9668 124.422 59.9668ZM124.609 59.082C123.877 59.082 123.332 58.707 123.332 58.0625C123.332 57.4297 123.754 57.0957 124.715 57.0312L126.414 56.9199V57.5C126.414 58.4023 125.646 59.082 124.609 59.082Z" fill="#111111"/>
<path d="M132.672 59.8555H133.68V55.9414C133.68 55.0508 134.318 54.3359 135.145 54.3359C135.941 54.3359 136.463 54.8164 136.463 55.5664V59.8555H137.471V55.7949C137.471 54.9922 138.057 54.3359 138.936 54.3359C139.826 54.3359 140.266 54.793 140.266 55.7246V59.8555H141.273V55.4902C141.273 54.166 140.553 53.4277 139.264 53.4277C138.391 53.4277 137.67 53.8672 137.33 54.5352H137.236C136.943 53.8789 136.346 53.4277 135.49 53.4277C134.646 53.4277 134.014 53.832 133.727 54.5352H133.633V53.5391H132.672V59.8555Z" fill="#111111"/>
<path d="M144.871 59.9668C145.715 59.9668 146.406 59.5977 146.816 58.9238H146.91V59.8555H147.871V55.5312C147.871 54.2188 147.01 53.4277 145.469 53.4277C144.121 53.4277 143.125 54.0957 142.99 55.1094H144.01C144.15 54.6113 144.678 54.3242 145.434 54.3242C146.377 54.3242 146.863 54.752 146.863 55.5312V56.1055L145.041 56.2168C143.57 56.3047 142.738 56.9551 142.738 58.0859C142.738 59.2402 143.646 59.9668 144.871 59.9668ZM145.059 59.082C144.326 59.082 143.781 58.707 143.781 58.0625C143.781 57.4297 144.203 57.0957 145.164 57.0312L146.863 56.9199V57.5C146.863 58.4023 146.096 59.082 145.059 59.082Z" fill="#111111"/>
<path d="M150.273 52.3203C150.66 52.3203 150.977 52.0039 150.977 51.6172C150.977 51.2305 150.66 50.9141 150.273 50.9141C149.887 50.9141 149.57 51.2305 149.57 51.6172C149.57 52.0039 149.887 52.3203 150.273 52.3203ZM150.766 53.5391H149.758V60.1836C149.758 60.8809 149.523 61.1621 148.809 61.1621H148.656V62.0234H148.832C150.156 62.0234 150.766 61.4668 150.766 60.166V53.5391Z" fill="#111111"/>
<path d="M155.283 59.9668C157.082 59.9668 158.195 58.7246 158.195 56.6973C158.195 54.6641 157.082 53.4277 155.283 53.4277C153.484 53.4277 152.371 54.6641 152.371 56.6973C152.371 58.7246 153.484 59.9668 155.283 59.9668ZM155.283 59.0586C154.088 59.0586 153.414 58.1914 153.414 56.6973C153.414 55.1973 154.088 54.3359 155.283 54.3359C156.479 54.3359 157.152 55.1973 157.152 56.6973C157.152 58.1914 156.479 59.0586 155.283 59.0586Z" fill="#111111"/>
<path d="M159.777 59.8555H160.785V55.9414C160.785 55.0508 161.482 54.4062 162.443 54.4062C162.643 54.4062 163.006 54.4414 163.088 54.4648V53.457C162.959 53.4395 162.748 53.4277 162.584 53.4277C161.746 53.4277 161.02 53.8613 160.832 54.4766H160.738V53.5391H159.777V59.8555Z" fill="#111111"/>
<path d="M168.156 59.8555H169.164V54.3828H170.611V53.5391H169.164V52.8652C169.164 52.1738 169.469 51.8223 170.195 51.8223C170.377 51.8223 170.547 51.8281 170.67 51.8516V51.0312C170.459 50.9902 170.236 50.9727 169.99 50.9727C168.789 50.9727 168.156 51.5762 168.156 52.8359V53.5391H167.107V54.3828H168.156V59.8555Z" fill="#111111"/>
<path d="M173.664 59.9668C174.508 59.9668 175.199 59.5977 175.609 58.9238H175.703V59.8555H176.664V55.5312C176.664 54.2188 175.803 53.4277 174.262 53.4277C172.914 53.4277 171.918 54.0957 171.783 55.1094H172.803C172.943 54.6113 173.471 54.3242 174.227 54.3242C175.17 54.3242 175.656 54.752 175.656 55.5312V56.1055L173.834 56.2168C172.363 56.3047 171.531 56.9551 171.531 58.0859C171.531 59.2402 172.439 59.9668 173.664 59.9668ZM173.852 59.082C173.119 59.082 172.574 58.707 172.574 58.0625C172.574 57.4297 172.996 57.0957 173.957 57.0312L175.656 56.9199V57.5C175.656 58.4023 174.889 59.082 173.852 59.082Z" fill="#111111"/>
<path d="M183.754 55.4727C183.578 54.3477 182.641 53.4277 181.105 53.4277C179.336 53.4277 178.211 54.7051 178.211 56.6738C178.211 58.6836 179.342 59.9668 181.111 59.9668C182.629 59.9668 183.572 59.1113 183.754 57.9512H182.734C182.547 58.666 181.955 59.0586 181.105 59.0586C179.98 59.0586 179.254 58.1328 179.254 56.6738C179.254 55.2441 179.969 54.3359 181.105 54.3359C182.014 54.3359 182.57 54.8457 182.734 55.4727H183.754Z" fill="#111111"/>
<path d="M189.426 58.2207C189.162 58.7773 188.611 59.0762 187.797 59.0762C186.725 59.0762 186.027 58.2852 185.975 57.0371V56.9902H190.516V56.6035C190.516 54.6406 189.479 53.4277 187.773 53.4277C186.039 53.4277 184.926 54.7168 184.926 56.7031C184.926 58.7012 186.021 59.9668 187.773 59.9668C189.156 59.9668 190.141 59.2988 190.434 58.2207H189.426ZM187.762 54.3184C188.764 54.3184 189.432 55.0566 189.455 56.1758H185.975C186.051 55.0566 186.754 54.3184 187.762 54.3184Z" fill="#111111"/>
<path d="M192.156 59.8555H193.164V51.0312H192.156V59.8555Z" fill="#111111"/>
<path d="M195.648 52.3203C196.035 52.3203 196.352 52.0039 196.352 51.6172C196.352 51.2305 196.035 50.9141 195.648 50.9141C195.262 50.9141 194.945 51.2305 194.945 51.6172C194.945 52.0039 195.262 52.3203 195.648 52.3203ZM195.145 59.8555H196.152V53.5391H195.145V59.8555Z" fill="#111111"/>
<path d="M198.496 59.8555H199.504V54.3828H200.951V53.5391H199.504V52.8652C199.504 52.1738 199.809 51.8223 200.535 51.8223C200.717 51.8223 200.887 51.8281 201.01 51.8516V51.0312C200.799 50.9902 200.576 50.9727 200.33 50.9727C199.129 50.9727 198.496 51.5762 198.496 52.8359V53.5391H197.447V54.3828H198.496V59.8555Z" fill="#111111"/>
<path d="M202.844 51.9043V53.5391H201.824V54.3828H202.844V58.2148C202.844 59.4219 203.365 59.9023 204.666 59.9023C204.865 59.9023 205.059 59.8789 205.258 59.8438V58.9941C205.07 59.0117 204.971 59.0176 204.789 59.0176C204.133 59.0176 203.852 58.7012 203.852 57.957V54.3828H205.258V53.5391H203.852V51.9043H202.844Z" fill="#111111"/>
<path d="M207.613 59.9141C208.035 59.9141 208.375 59.5684 208.375 59.1523C208.375 58.7305 208.035 58.3906 207.613 58.3906C207.197 58.3906 206.852 58.7305 206.852 59.1523C206.852 59.5684 207.197 59.9141 207.613 59.9141Z" fill="#111111"/>
<path d="M217.158 59.8555C218.957 59.8555 220.023 58.9707 220.023 57.4824C220.023 56.3633 219.291 55.5723 218.137 55.4258V55.332C218.951 55.1855 219.596 54.3887 219.596 53.5098C219.596 52.2148 218.646 51.4004 217.094 51.4004H213.859V59.8555H217.158ZM214.914 52.332H216.871C217.92 52.332 218.529 52.8301 218.529 53.6914C218.529 54.5879 217.879 55.0449 216.602 55.0449H214.914V52.332ZM214.914 58.9238V55.9531H216.9C218.248 55.9531 218.939 56.4512 218.939 57.4297C218.939 58.4082 218.271 58.9238 217 58.9238H214.914Z" fill="#111111"/>
<path d="M225.801 58.2207C225.537 58.7773 224.986 59.0762 224.172 59.0762C223.1 59.0762 222.402 58.2852 222.35 57.0371V56.9902H226.891V56.6035C226.891 54.6406 225.854 53.4277 224.148 53.4277C222.414 53.4277 221.301 54.7168 221.301 56.7031C221.301 58.7012 222.396 59.9668 224.148 59.9668C225.531 59.9668 226.516 59.2988 226.809 58.2207H225.801ZM224.137 54.3184C225.139 54.3184 225.807 55.0566 225.83 56.1758H222.35C222.426 55.0566 223.129 54.3184 224.137 54.3184Z" fill="#111111"/>
<path d="M234.455 59.9668C236.254 59.9668 237.367 58.7246 237.367 56.6973C237.367 54.6641 236.254 53.4277 234.455 53.4277C232.656 53.4277 231.543 54.6641 231.543 56.6973C231.543 58.7246 232.656 59.9668 234.455 59.9668ZM234.455 59.0586C233.26 59.0586 232.586 58.1914 232.586 56.6973C232.586 55.1973 233.26 54.3359 234.455 54.3359C235.65 54.3359 236.324 55.1973 236.324 56.6973C236.324 58.1914 235.65 59.0586 234.455 59.0586Z" fill="#111111"/>
<path d="M238.949 59.8555H239.957V56.1172C239.957 55.0098 240.607 54.3359 241.615 54.3359C242.623 54.3359 243.104 54.875 243.104 56.0117V59.8555H244.111V55.7656C244.111 54.2656 243.32 53.4277 241.902 53.4277C240.936 53.4277 240.32 53.8379 240.004 54.5352H239.91V53.5391H238.949V59.8555Z" fill="#111111"/>
<path d="M250.141 58.2207C249.877 58.7773 249.326 59.0762 248.512 59.0762C247.439 59.0762 246.742 58.2852 246.689 57.0371V56.9902H251.23V56.6035C251.23 54.6406 250.193 53.4277 248.488 53.4277C246.754 53.4277 245.641 54.7168 245.641 56.7031C245.641 58.7012 246.736 59.9668 248.488 59.9668C249.871 59.9668 250.855 59.2988 251.148 58.2207H250.141ZM248.477 54.3184C249.479 54.3184 250.146 55.0566 250.17 56.1758H246.689C246.766 55.0566 247.469 54.3184 248.477 54.3184Z" fill="#111111"/>
<path d="M258.795 59.9668C260.594 59.9668 261.707 58.7246 261.707 56.6973C261.707 54.6641 260.594 53.4277 258.795 53.4277C256.996 53.4277 255.883 54.6641 255.883 56.6973C255.883 58.7246 256.996 59.9668 258.795 59.9668ZM258.795 59.0586C257.6 59.0586 256.926 58.1914 256.926 56.6973C256.926 55.1973 257.6 54.3359 258.795 54.3359C259.99 54.3359 260.664 55.1973 260.664 56.6973C260.664 58.1914 259.99 59.0586 258.795 59.0586Z" fill="#111111"/>
<path d="M263.711 59.8555H264.719V54.3828H266.166V53.5391H264.719V52.8652C264.719 52.1738 265.023 51.8223 265.75 51.8223C265.932 51.8223 266.102 51.8281 266.225 51.8516V51.0312C266.014 50.9902 265.791 50.9727 265.545 50.9727C264.344 50.9727 263.711 51.5762 263.711 52.8359V53.5391H262.662V54.3828H263.711V59.8555Z" fill="#111111"/>
<path d="M17.3711 65.9043V67.5391H16.3516V68.3828H17.3711V72.2148C17.3711 73.4219 17.8926 73.9023 19.1934 73.9023C19.3926 73.9023 19.5859 73.8789 19.7852 73.8438V72.9941C19.5977 73.0117 19.498 73.0176 19.3164 73.0176C18.6602 73.0176 18.3789 72.7012 18.3789 71.957V68.3828H19.7852V67.5391H18.3789V65.9043H17.3711Z" fill="#111111"/>
<path d="M21.3672 73.8555H22.375V70.1172C22.375 69.0508 22.9961 68.3359 24.127 68.3359C25.082 68.3359 25.5859 68.8926 25.5859 70.0117V73.8555H26.5938V69.7656C26.5938 68.2832 25.75 67.4277 24.4141 67.4277C23.4473 67.4277 22.7852 67.8379 22.4688 68.5352H22.375V65.0312H21.3672V73.8555Z" fill="#111111"/>
<path d="M32.6172 72.2207C32.3535 72.7773 31.8027 73.0762 30.9883 73.0762C29.916 73.0762 29.2188 72.2852 29.166 71.0371V70.9902H33.707V70.6035C33.707 68.6406 32.6699 67.4277 30.9648 67.4277C29.2305 67.4277 28.1172 68.7168 28.1172 70.7031C28.1172 72.7012 29.2129 73.9668 30.9648 73.9668C32.3477 73.9668 33.332 73.2988 33.625 72.2207H32.6172ZM30.9531 68.3184C31.9551 68.3184 32.623 69.0566 32.6465 70.1758H29.166C29.2422 69.0566 29.9453 68.3184 30.9531 68.3184Z" fill="#111111"/>
<path d="M39.0977 73.8555H40.1055V68.3828H41.5527V67.5391H40.1055V66.8652C40.1055 66.1738 40.4102 65.8223 41.1367 65.8223C41.3184 65.8223 41.4883 65.8281 41.6113 65.8516V65.0312C41.4004 64.9902 41.1777 64.9727 40.9316 64.9727C39.7305 64.9727 39.0977 65.5762 39.0977 66.8359V67.5391H38.0488V68.3828H39.0977V73.8555Z" fill="#111111"/>
<path d="M43.5508 66.3203C43.9375 66.3203 44.2539 66.0039 44.2539 65.6172C44.2539 65.2305 43.9375 64.9141 43.5508 64.9141C43.1641 64.9141 42.8477 65.2305 42.8477 65.6172C42.8477 66.0039 43.1641 66.3203 43.5508 66.3203ZM43.0469 73.8555H44.0547V67.5391H43.0469V73.8555Z" fill="#111111"/>
<path d="M45.8301 69.2676C45.8301 70.1816 46.3691 70.6914 47.5527 70.9785L48.6367 71.2422C49.3105 71.4062 49.6387 71.6992 49.6387 72.1328C49.6387 72.7129 49.0293 73.1172 48.1797 73.1172C47.3711 73.1172 46.8672 72.7773 46.6973 72.2441H45.6602C45.7715 73.293 46.7383 73.9668 48.1445 73.9668C49.5801 73.9668 50.6758 73.1875 50.6758 72.0566C50.6758 71.1484 50.1016 70.6328 48.9121 70.3457L47.9395 70.1113C47.1953 69.9297 46.8438 69.6602 46.8438 69.2266C46.8438 68.6641 47.4297 68.2832 48.1797 68.2832C48.9414 68.2832 49.4336 68.6172 49.5684 69.1211H50.5645C50.4297 68.084 49.5098 67.4277 48.1855 67.4277C46.8438 67.4277 45.8301 68.2188 45.8301 69.2676Z" fill="#111111"/>
<path d="M52.6211 65.9043V67.5391H51.6016V68.3828H52.6211V72.2148C52.6211 73.4219 53.1426 73.9023 54.4434 73.9023C54.6426 73.9023 54.8359 73.8789 55.0352 73.8438V72.9941C54.8477 73.0117 54.748 73.0176 54.5664 73.0176C53.9102 73.0176 53.6289 72.7012 53.6289 71.957V68.3828H55.0352V67.5391H53.6289V65.9043H52.6211Z" fill="#111111"/>
<path d="M60.3672 65.9043V67.5391H59.3477V68.3828H60.3672V72.2148C60.3672 73.4219 60.8887 73.9023 62.1895 73.9023C62.3887 73.9023 62.582 73.8789 62.7812 73.8438V72.9941C62.5938 73.0117 62.4941 73.0176 62.3125 73.0176C61.6562 73.0176 61.375 72.7012 61.375 71.957V68.3828H62.7812V67.5391H61.375V65.9043H60.3672Z" fill="#111111"/>
<path d="M66.8066 73.9668C68.6055 73.9668 69.7188 72.7246 69.7188 70.6973C69.7188 68.6641 68.6055 67.4277 66.8066 67.4277C65.0078 67.4277 63.8945 68.6641 63.8945 70.6973C63.8945 72.7246 65.0078 73.9668 66.8066 73.9668ZM66.8066 73.0586C65.6113 73.0586 64.9375 72.1914 64.9375 70.6973C64.9375 69.1973 65.6113 68.3359 66.8066 68.3359C68.002 68.3359 68.6758 69.1973 68.6758 70.6973C68.6758 72.1914 68.002 73.0586 66.8066 73.0586Z" fill="#111111"/>
<path d="M75.1094 65.9043V67.5391H74.0898V68.3828H75.1094V72.2148C75.1094 73.4219 75.6309 73.9023 76.9316 73.9023C77.1309 73.9023 77.3242 73.8789 77.5234 73.8438V72.9941C77.3359 73.0117 77.2363 73.0176 77.0547 73.0176C76.3984 73.0176 76.1172 72.7012 76.1172 71.957V68.3828H77.5234V67.5391H76.1172V65.9043H75.1094Z" fill="#111111"/>
<path d="M79.0469 73.8555H80.0547V69.9414C80.0547 69.0508 80.752 68.4062 81.7129 68.4062C81.9121 68.4062 82.2754 68.4414 82.3574 68.4648V67.457C82.2285 67.4395 82.0176 67.4277 81.8535 67.4277C81.0156 67.4277 80.2891 67.8613 80.1016 68.4766H80.0078V67.5391H79.0469V73.8555Z" fill="#111111"/>
<path d="M84.1562 76.1406C85.2754 76.1406 85.7793 75.707 86.3184 74.2422L88.7852 67.5391H87.7129L85.9844 72.7363H85.8906L84.1562 67.5391H83.0664L85.4043 73.8613L85.2871 74.2363C85.0234 74.998 84.707 75.2734 84.127 75.2734C83.9863 75.2734 83.8281 75.2676 83.7051 75.2441V76.1055C83.8457 76.1289 84.0215 76.1406 84.1562 76.1406Z" fill="#111111"/>
<path d="M94.0469 66.3203C94.4336 66.3203 94.75 66.0039 94.75 65.6172C94.75 65.2305 94.4336 64.9141 94.0469 64.9141C93.6602 64.9141 93.3438 65.2305 93.3438 65.6172C93.3438 66.0039 93.6602 66.3203 94.0469 66.3203ZM93.543 73.8555H94.5508V67.5391H93.543V73.8555Z" fill="#111111"/>
<path d="M96.8945 65.9043V67.5391H95.875V68.3828H96.8945V72.2148C96.8945 73.4219 97.416 73.9023 98.7168 73.9023C98.916 73.9023 99.1094 73.8789 99.3086 73.8438V72.9941C99.1211 73.0117 99.0215 73.0176 98.8398 73.0176C98.1836 73.0176 97.9023 72.7012 97.9023 71.957V68.3828H99.3086V67.5391H97.9023V65.9043H96.8945Z" fill="#111111"/>
<path d="M106.814 73.9668C108.613 73.9668 109.727 72.7246 109.727 70.6973C109.727 68.6641 108.613 67.4277 106.814 67.4277C105.016 67.4277 103.902 68.6641 103.902 70.6973C103.902 72.7246 105.016 73.9668 106.814 73.9668ZM106.814 73.0586C105.619 73.0586 104.945 72.1914 104.945 70.6973C104.945 69.1973 105.619 68.3359 106.814 68.3359C108.01 68.3359 108.684 69.1973 108.684 70.6973C108.684 72.1914 108.01 73.0586 106.814 73.0586Z" fill="#111111"/>
<path d="M116.418 67.5391H115.41V71.2773C115.41 72.3848 114.801 73.0469 113.688 73.0469C112.68 73.0469 112.258 72.5195 112.258 71.3828V67.5391H111.25V71.6289C111.25 73.123 111.988 73.9668 113.406 73.9668C114.373 73.9668 115.047 73.5684 115.363 72.8652H115.457V73.8555H116.418V67.5391Z" fill="#111111"/>
<path d="M118.738 65.9043V67.5391H117.719V68.3828H118.738V72.2148C118.738 73.4219 119.26 73.9023 120.561 73.9023C120.76 73.9023 120.953 73.8789 121.152 73.8438V72.9941C120.965 73.0117 120.865 73.0176 120.684 73.0176C120.027 73.0176 119.746 72.7012 119.746 71.957V68.3828H121.152V67.5391H119.746V65.9043H118.738Z" fill="#111111"/>
<path d="M127.82 73.9668C128.664 73.9668 129.355 73.5977 129.766 72.9238H129.859V73.8555H130.82V69.5312C130.82 68.2188 129.959 67.4277 128.418 67.4277C127.07 67.4277 126.074 68.0957 125.939 69.1094H126.959C127.1 68.6113 127.627 68.3242 128.383 68.3242C129.326 68.3242 129.812 68.752 129.812 69.5312V70.1055L127.99 70.2168C126.52 70.3047 125.688 70.9551 125.688 72.0859C125.688 73.2402 126.596 73.9668 127.82 73.9668ZM128.008 73.082C127.275 73.082 126.73 72.707 126.73 72.0625C126.73 71.4297 127.152 71.0957 128.113 71.0312L129.812 70.9199V71.5C129.812 72.4023 129.045 73.082 128.008 73.082Z" fill="#111111"/>
<path d="M132.684 73.8555H133.691V70.1172C133.691 69.0098 134.342 68.3359 135.35 68.3359C136.357 68.3359 136.838 68.875 136.838 70.0117V73.8555H137.846V69.7656C137.846 68.2656 137.055 67.4277 135.637 67.4277C134.67 67.4277 134.055 67.8379 133.738 68.5352H133.645V67.5391H132.684V73.8555Z" fill="#111111"/>
<path d="M142.029 73.9668C142.902 73.9668 143.652 73.5508 144.051 72.8477H144.145V73.8555H145.105V65.0312H144.098V68.5352H144.01C143.652 67.8438 142.908 67.4277 142.029 67.4277C140.424 67.4277 139.375 68.7168 139.375 70.6973C139.375 72.6836 140.412 73.9668 142.029 73.9668ZM142.264 68.3359C143.406 68.3359 144.121 69.25 144.121 70.6973C144.121 72.1562 143.412 73.0586 142.264 73.0586C141.109 73.0586 140.418 72.1738 140.418 70.6973C140.418 69.2266 141.115 68.3359 142.264 68.3359Z" fill="#111111"/>
<path d="M150.303 69.2676C150.303 70.1816 150.842 70.6914 152.025 70.9785L153.109 71.2422C153.783 71.4062 154.111 71.6992 154.111 72.1328C154.111 72.7129 153.502 73.1172 152.652 73.1172C151.844 73.1172 151.34 72.7773 151.17 72.2441H150.133C150.244 73.293 151.211 73.9668 152.617 73.9668C154.053 73.9668 155.148 73.1875 155.148 72.0566C155.148 71.1484 154.574 70.6328 153.385 70.3457L152.412 70.1113C151.668 69.9297 151.316 69.6602 151.316 69.2266C151.316 68.6641 151.902 68.2832 152.652 68.2832C153.414 68.2832 153.906 68.6172 154.041 69.1211H155.037C154.902 68.084 153.982 67.4277 152.658 67.4277C151.316 67.4277 150.303 68.2188 150.303 69.2676Z" fill="#111111"/>
<path d="M160.914 72.2207C160.65 72.7773 160.1 73.0762 159.285 73.0762C158.213 73.0762 157.516 72.2852 157.463 71.0371V70.9902H162.004V70.6035C162.004 68.6406 160.967 67.4277 159.262 67.4277C157.527 67.4277 156.414 68.7168 156.414 70.7031C156.414 72.7012 157.51 73.9668 159.262 73.9668C160.645 73.9668 161.629 73.2988 161.922 72.2207H160.914ZM159.25 68.3184C160.252 68.3184 160.92 69.0566 160.943 70.1758H157.463C157.539 69.0566 158.242 68.3184 159.25 68.3184Z" fill="#111111"/>
<path d="M167.77 72.2207C167.506 72.7773 166.955 73.0762 166.141 73.0762C165.068 73.0762 164.371 72.2852 164.318 71.0371V70.9902H168.859V70.6035C168.859 68.6406 167.822 67.4277 166.117 67.4277C164.383 67.4277 163.27 68.7168 163.27 70.7031C163.27 72.7012 164.365 73.9668 166.117 73.9668C167.5 73.9668 168.484 73.2988 168.777 72.2207H167.77ZM166.105 68.3184C167.107 68.3184 167.775 69.0566 167.799 70.1758H164.318C164.395 69.0566 165.098 68.3184 166.105 68.3184Z" fill="#111111"/>
<path d="M173.887 73.8555H174.895V70.1172C174.895 69.0508 175.516 68.3359 176.646 68.3359C177.602 68.3359 178.105 68.8926 178.105 70.0117V73.8555H179.113V69.7656C179.113 68.2832 178.27 67.4277 176.934 67.4277C175.967 67.4277 175.305 67.8379 174.988 68.5352H174.895V65.0312H173.887V73.8555Z" fill="#111111"/>
<path d="M183.549 73.9668C185.348 73.9668 186.461 72.7246 186.461 70.6973C186.461 68.6641 185.348 67.4277 183.549 67.4277C181.75 67.4277 180.637 68.6641 180.637 70.6973C180.637 72.7246 181.75 73.9668 183.549 73.9668ZM183.549 73.0586C182.354 73.0586 181.68 72.1914 181.68 70.6973C181.68 69.1973 182.354 68.3359 183.549 68.3359C184.744 68.3359 185.418 69.1973 185.418 70.6973C185.418 72.1914 184.744 73.0586 183.549 73.0586Z" fill="#111111"/>
<path d="M195.754 67.5391H194.74L193.498 72.5898H193.404L191.992 67.5391H191.025L189.613 72.5898H189.52L188.277 67.5391H187.258L189.027 73.8555H190.047L191.453 68.9688H191.547L192.959 73.8555H193.984L195.754 67.5391Z" fill="#111111"/>
<path d="M200.488 73.8555H201.496V69.9414C201.496 69.0508 202.135 68.3359 202.961 68.3359C203.758 68.3359 204.279 68.8164 204.279 69.5664V73.8555H205.287V69.7949C205.287 68.9922 205.873 68.3359 206.752 68.3359C207.643 68.3359 208.082 68.793 208.082 69.7246V73.8555H209.09V69.4902C209.09 68.166 208.369 67.4277 207.08 67.4277C206.207 67.4277 205.486 67.8672 205.146 68.5352H205.053C204.76 67.8789 204.162 67.4277 203.307 67.4277C202.463 67.4277 201.83 67.832 201.543 68.5352H201.449V67.5391H200.488V73.8555Z" fill="#111111"/>
<path d="M216.039 67.5391H215.031V71.2773C215.031 72.3848 214.422 73.0469 213.309 73.0469C212.301 73.0469 211.879 72.5195 211.879 71.3828V67.5391H210.871V71.6289C210.871 73.123 211.609 73.9668 213.027 73.9668C213.994 73.9668 214.668 73.5684 214.984 72.8652H215.078V73.8555H216.039V67.5391Z" fill="#111111"/>
<path d="M223.164 69.4727C222.988 68.3477 222.051 67.4277 220.516 67.4277C218.746 67.4277 217.621 68.7051 217.621 70.6738C217.621 72.6836 218.752 73.9668 220.521 73.9668C222.039 73.9668 222.982 73.1113 223.164 71.9512H222.145C221.957 72.666 221.365 73.0586 220.516 73.0586C219.391 73.0586 218.664 72.1328 218.664 70.6738C218.664 69.2441 219.379 68.3359 220.516 68.3359C221.424 68.3359 221.98 68.8457 222.145 69.4727H223.164Z" fill="#111111"/>
<path d="M224.711 73.8555H225.719V70.1172C225.719 69.0508 226.34 68.3359 227.471 68.3359C228.426 68.3359 228.93 68.8926 228.93 70.0117V73.8555H229.938V69.7656C229.938 68.2832 229.094 67.4277 227.758 67.4277C226.791 67.4277 226.129 67.8379 225.812 68.5352H225.719V65.0312H224.711V73.8555Z" fill="#111111"/>
<path d="M238.305 73.9668C239.904 73.9668 240.953 72.6719 240.953 70.6973C240.953 68.7109 239.91 67.4277 238.305 67.4277C237.438 67.4277 236.67 67.8555 236.324 68.5352H236.23V65.0312H235.223V73.8555H236.184V72.8477H236.277C236.676 73.5508 237.426 73.9668 238.305 73.9668ZM238.07 68.3359C239.225 68.3359 239.91 69.2207 239.91 70.6973C239.91 72.1738 239.225 73.0586 238.07 73.0586C236.922 73.0586 236.207 72.1562 236.207 70.6973C236.207 69.2383 236.922 68.3359 238.07 68.3359Z" fill="#111111"/>
<path d="M246.719 72.2207C246.455 72.7773 245.904 73.0762 245.09 73.0762C244.018 73.0762 243.32 72.2852 243.268 71.0371V70.9902H247.809V70.6035C247.809 68.6406 246.771 67.4277 245.066 67.4277C243.332 67.4277 242.219 68.7168 242.219 70.7031C242.219 72.7012 243.314 73.9668 245.066 73.9668C246.449 73.9668 247.434 73.2988 247.727 72.2207H246.719ZM245.055 68.3184C246.057 68.3184 246.725 69.0566 246.748 70.1758H243.268C243.344 69.0566 244.047 68.3184 245.055 68.3184Z" fill="#111111"/>
<path d="M249.812 65.9043V67.5391H248.793V68.3828H249.812V72.2148C249.812 73.4219 250.334 73.9023 251.635 73.9023C251.834 73.9023 252.027 73.8789 252.227 73.8438V72.9941C252.039 73.0117 251.939 73.0176 251.758 73.0176C251.102 73.0176 250.82 72.7012 250.82 71.957V68.3828H252.227V67.5391H250.82V65.9043H249.812Z" fill="#111111"/>
<path d="M254.172 65.9043V67.5391H253.152V68.3828H254.172V72.2148C254.172 73.4219 254.693 73.9023 255.994 73.9023C256.193 73.9023 256.387 73.8789 256.586 73.8438V72.9941C256.398 73.0117 256.299 73.0176 256.117 73.0176C255.461 73.0176 255.18 72.7012 255.18 71.957V68.3828H256.586V67.5391H255.18V65.9043H254.172Z" fill="#111111"/>
<path d="M262.199 72.2207C261.936 72.7773 261.385 73.0762 260.57 73.0762C259.498 73.0762 258.801 72.2852 258.748 71.0371V70.9902H263.289V70.6035C263.289 68.6406 262.252 67.4277 260.547 67.4277C258.812 67.4277 257.699 68.7168 257.699 70.7031C257.699 72.7012 258.795 73.9668 260.547 73.9668C261.93 73.9668 262.914 73.2988 263.207 72.2207H262.199ZM260.535 68.3184C261.537 68.3184 262.205 69.0566 262.229 70.1758H258.748C258.824 69.0566 259.527 68.3184 260.535 68.3184Z" fill="#111111"/>
<path d="M264.871 73.8555H265.879V69.9414C265.879 69.0508 266.576 68.4062 267.537 68.4062C267.736 68.4062 268.1 68.4414 268.182 68.4648V67.457C268.053 67.4395 267.842 67.4277 267.678 67.4277C266.84 67.4277 266.113 67.8613 265.926 68.4766H265.832V67.5391H264.871V73.8555Z" fill="#111111"/>
<path d="M18.707 87.9668C19.5508 87.9668 20.2422 87.5977 20.6523 86.9238H20.7461V87.8555H21.707V83.5312C21.707 82.2188 20.8457 81.4277 19.3047 81.4277C17.957 81.4277 16.9609 82.0957 16.8262 83.1094H17.8457C17.9863 82.6113 18.5137 82.3242 19.2695 82.3242C20.2129 82.3242 20.6992 82.752 20.6992 83.5312V84.1055L18.877 84.2168C17.4062 84.3047 16.5742 84.9551 16.5742 86.0859C16.5742 87.2402 17.4824 87.9668 18.707 87.9668ZM18.8945 87.082C18.1621 87.082 17.6172 86.707 17.6172 86.0625C17.6172 85.4297 18.0391 85.0957 19 85.0312L20.6992 84.9199V85.5C20.6992 86.4023 19.9316 87.082 18.8945 87.082Z" fill="#111111"/>
<path d="M25.9082 87.9668C26.7812 87.9668 27.5312 87.5508 27.9297 86.8477H28.0234V87.8555H28.9844V79.0312H27.9766V82.5352H27.8887C27.5312 81.8438 26.7871 81.4277 25.9082 81.4277C24.3027 81.4277 23.2539 82.7168 23.2539 84.6973C23.2539 86.6836 24.291 87.9668 25.9082 87.9668ZM26.1426 82.3359C27.2852 82.3359 28 83.25 28 84.6973C28 86.1562 27.291 87.0586 26.1426 87.0586C24.9883 87.0586 24.2969 86.1738 24.2969 84.6973C24.2969 83.2266 24.9941 82.3359 26.1426 82.3359Z" fill="#111111"/>
<path d="M34.8555 80.3203C35.2422 80.3203 35.5586 80.0039 35.5586 79.6172C35.5586 79.2305 35.2422 78.9141 34.8555 78.9141C34.4688 78.9141 34.1523 79.2305 34.1523 79.6172C34.1523 80.0039 34.4688 80.3203 34.8555 80.3203ZM34.3516 87.8555H35.3594V81.5391H34.3516V87.8555Z" fill="#111111"/>
<path d="M37.2812 87.8555H38.2891V84.1172C38.2891 83.0098 38.9395 82.3359 39.9473 82.3359C40.9551 82.3359 41.4355 82.875 41.4355 84.0117V87.8555H42.4434V83.7656C42.4434 82.2656 41.6523 81.4277 40.2344 81.4277C39.2676 81.4277 38.6523 81.8379 38.3359 82.5352H38.2422V81.5391H37.2812V87.8555Z" fill="#111111"/>
<path d="M44.1426 83.2676C44.1426 84.1816 44.6816 84.6914 45.8652 84.9785L46.9492 85.2422C47.623 85.4062 47.9512 85.6992 47.9512 86.1328C47.9512 86.7129 47.3418 87.1172 46.4922 87.1172C45.6836 87.1172 45.1797 86.7773 45.0098 86.2441H43.9727C44.084 87.293 45.0508 87.9668 46.457 87.9668C47.8926 87.9668 48.9883 87.1875 48.9883 86.0566C48.9883 85.1484 48.4141 84.6328 47.2246 84.3457L46.252 84.1113C45.5078 83.9297 45.1562 83.6602 45.1562 83.2266C45.1562 82.6641 45.7422 82.2832 46.4922 82.2832C47.2539 82.2832 47.7461 82.6172 47.8809 83.1211H48.877C48.7422 82.084 47.8223 81.4277 46.498 81.4277C45.1562 81.4277 44.1426 82.2188 44.1426 83.2676Z" fill="#111111"/>
<path d="M51.0977 80.3203C51.4844 80.3203 51.8008 80.0039 51.8008 79.6172C51.8008 79.2305 51.4844 78.9141 51.0977 78.9141C50.7109 78.9141 50.3945 79.2305 50.3945 79.6172C50.3945 80.0039 50.7109 80.3203 51.0977 80.3203ZM50.5938 87.8555H51.6016V81.5391H50.5938V87.8555Z" fill="#111111"/>
<path d="M56.125 90.2812C57.8477 90.2812 58.9375 89.3789 58.9375 87.9668V81.5391H57.9766V82.541H57.8828C57.5195 81.8613 56.7402 81.4277 55.8555 81.4277C54.2324 81.4277 53.207 82.7109 53.207 84.6035C53.207 86.4961 54.2207 87.7617 55.8555 87.7617C56.7227 87.7617 57.4375 87.3691 57.8359 86.6719H57.9297V87.9141C57.9297 88.8457 57.2559 89.4023 56.125 89.4023C55.2168 89.4023 54.6543 89.0684 54.543 88.5527H53.4766C53.6289 89.5957 54.6016 90.2812 56.125 90.2812ZM56.0781 86.8711C54.9062 86.8711 54.25 85.9805 54.25 84.6035C54.25 83.2266 54.9062 82.3359 56.0781 82.3359C57.2441 82.3359 57.9531 83.2266 57.9531 84.6035C57.9531 85.9805 57.25 86.8711 56.0781 86.8711Z" fill="#111111"/>
<path d="M60.8945 87.8555H61.9023V84.1172C61.9023 83.0508 62.5234 82.3359 63.6543 82.3359C64.6094 82.3359 65.1133 82.8926 65.1133 84.0117V87.8555H66.1211V83.7656C66.1211 82.2832 65.2773 81.4277 63.9414 81.4277C62.9746 81.4277 62.3125 81.8379 61.9961 82.5352H61.9023V79.0312H60.8945V87.8555Z" fill="#111111"/>
<path d="M68.3828 79.9043V81.5391H67.3633V82.3828H68.3828V86.2148C68.3828 87.4219 68.9043 87.9023 70.2051 87.9023C70.4043 87.9023 70.5977 87.8789 70.7969 87.8438V86.9941C70.6094 87.0117 70.5098 87.0176 70.3281 87.0176C69.6719 87.0176 69.3906 86.7012 69.3906 85.957V82.3828H70.7969V81.5391H69.3906V79.9043H68.3828Z" fill="#111111"/>
<path d="M72.0566 83.2676C72.0566 84.1816 72.5957 84.6914 73.7793 84.9785L74.8633 85.2422C75.5371 85.4062 75.8652 85.6992 75.8652 86.1328C75.8652 86.7129 75.2559 87.1172 74.4062 87.1172C73.5977 87.1172 73.0938 86.7773 72.9238 86.2441H71.8867C71.998 87.293 72.9648 87.9668 74.3711 87.9668C75.8066 87.9668 76.9023 87.1875 76.9023 86.0566C76.9023 85.1484 76.3281 84.6328 75.1387 84.3457L74.166 84.1113C73.4219 83.9297 73.0703 83.6602 73.0703 83.2266C73.0703 82.6641 73.6562 82.2832 74.4062 82.2832C75.168 82.2832 75.6602 82.6172 75.7949 83.1211H76.791C76.6562 82.084 75.7363 81.4277 74.4121 81.4277C73.0703 81.4277 72.0566 82.2188 72.0566 83.2676Z" fill="#111111"/>
<path d="M87.0977 83.4727C86.9219 82.3477 85.9844 81.4277 84.4492 81.4277C82.6797 81.4277 81.5547 82.7051 81.5547 84.6738C81.5547 86.6836 82.6855 87.9668 84.4551 87.9668C85.9727 87.9668 86.916 87.1113 87.0977 85.9512H86.0781C85.8906 86.666 85.2988 87.0586 84.4492 87.0586C83.3242 87.0586 82.5977 86.1328 82.5977 84.6738C82.5977 83.2441 83.3125 82.3359 84.4492 82.3359C85.3574 82.3359 85.9141 82.8457 86.0781 83.4727H87.0977Z" fill="#111111"/>
<path d="M90.3438 87.9668C91.1875 87.9668 91.8789 87.5977 92.2891 86.9238H92.3828V87.8555H93.3438V83.5312C93.3438 82.2188 92.4824 81.4277 90.9414 81.4277C89.5938 81.4277 88.5977 82.0957 88.4629 83.1094H89.4824C89.623 82.6113 90.1504 82.3242 90.9062 82.3242C91.8496 82.3242 92.3359 82.752 92.3359 83.5312V84.1055L90.5137 84.2168C89.043 84.3047 88.2109 84.9551 88.2109 86.0859C88.2109 87.2402 89.1191 87.9668 90.3438 87.9668ZM90.5312 87.082C89.7988 87.082 89.2539 86.707 89.2539 86.0625C89.2539 85.4297 89.6758 85.0957 90.6367 85.0312L92.3359 84.9199V85.5C92.3359 86.4023 91.5684 87.082 90.5312 87.082Z" fill="#111111"/>
<path d="M95.207 87.8555H96.2148V84.1172C96.2148 83.0098 96.8652 82.3359 97.873 82.3359C98.8809 82.3359 99.3613 82.875 99.3613 84.0117V87.8555H100.369V83.7656C100.369 82.2656 99.5781 81.4277 98.1602 81.4277C97.1934 81.4277 96.5781 81.8379 96.2617 82.5352H96.168V81.5391H95.207V87.8555Z" fill="#111111"/>
<path d="M108.742 87.9668C110.342 87.9668 111.391 86.6719 111.391 84.6973C111.391 82.7109 110.348 81.4277 108.742 81.4277C107.875 81.4277 107.107 81.8555 106.762 82.5352H106.668V79.0312H105.66V87.8555H106.621V86.8477H106.715C107.113 87.5508 107.863 87.9668 108.742 87.9668ZM108.508 82.3359C109.662 82.3359 110.348 83.2207 110.348 84.6973C110.348 86.1738 109.662 87.0586 108.508 87.0586C107.359 87.0586 106.645 86.1562 106.645 84.6973C106.645 83.2383 107.359 82.3359 108.508 82.3359Z" fill="#111111"/>
<path d="M117.156 86.2207C116.893 86.7773 116.342 87.0762 115.527 87.0762C114.455 87.0762 113.758 86.2852 113.705 85.0371V84.9902H118.246V84.6035C118.246 82.6406 117.209 81.4277 115.504 81.4277C113.77 81.4277 112.656 82.7168 112.656 84.7031C112.656 86.7012 113.752 87.9668 115.504 87.9668C116.887 87.9668 117.871 87.2988 118.164 86.2207H117.156ZM115.492 82.3184C116.494 82.3184 117.162 83.0566 117.186 84.1758H113.705C113.781 83.0566 114.484 82.3184 115.492 82.3184Z" fill="#111111"/>
<path d="M120.66 87.9141C121.082 87.9141 121.422 87.5684 121.422 87.1523C121.422 86.7305 121.082 86.3906 120.66 86.3906C120.244 86.3906 119.898 86.7305 119.898 87.1523C119.898 87.5684 120.244 87.9141 120.66 87.9141Z" fill="#111111"/>
<g clip-path="url(#clip0_217_5910)">
<path d="M55.4236 124.741V116.99H53.8016L51.4705 122.743H51.3738L49.0428 116.99H47.4207V124.741H48.7098V119.246H48.785L50.928 124.499H51.9163L54.0594 119.246H54.1346V124.741H55.4236Z" fill="#111111"/>
<path d="M58.8128 124.837C59.5809 124.837 60.2254 124.504 60.553 123.935H60.6443V124.741H61.928V120.729C61.928 119.488 61.0794 118.757 59.5701 118.757C58.1736 118.757 57.2015 119.413 57.0941 120.438H58.3509C58.4744 120.036 58.8934 119.815 59.5057 119.815C60.2254 119.815 60.6121 120.143 60.6121 120.729V121.233L59.0975 121.325C57.6688 121.405 56.8685 122.023 56.8685 123.076C56.8685 124.15 57.6795 124.837 58.8128 124.837ZM59.2049 123.812C58.6141 123.812 58.1898 123.516 58.1898 123.011C58.1898 122.522 58.5389 122.249 59.2855 122.2L60.6121 122.109V122.587C60.6121 123.285 60.0106 123.812 59.2049 123.812Z" fill="#111111"/>
<path d="M63.9959 126.868C65.3118 126.868 65.9402 126.39 66.4398 124.945L68.5613 118.87H67.1541L65.7845 123.479H65.6932L64.3182 118.87H62.8572L64.9573 124.762L64.8875 125.036C64.7156 125.589 64.3987 125.804 63.8348 125.804C63.7435 125.804 63.5447 125.799 63.4695 125.788V126.846C63.5555 126.862 63.9153 126.868 63.9959 126.868Z" fill="#111111"/>
<path d="M72.9764 124.837C74.4588 124.837 75.388 123.672 75.388 121.808C75.388 119.934 74.4642 118.773 72.9764 118.773C72.1707 118.773 71.494 119.166 71.1878 119.805H71.0965V116.598H69.7645V124.741H71.0482V123.812H71.1395C71.4725 124.456 72.1546 124.837 72.9764 124.837ZM72.5574 119.885C73.4651 119.885 74.0184 120.61 74.0184 121.808C74.0184 123.006 73.4705 123.731 72.5574 123.731C71.6443 123.731 71.075 122.995 71.075 121.808C71.075 120.621 71.6497 119.885 72.5574 119.885Z" fill="#111111"/>
<path d="M80.555 123.135C80.3616 123.575 79.9051 123.822 79.2444 123.822C78.369 123.822 77.805 123.199 77.7728 122.206V122.136H81.8763V121.711C81.8763 119.869 80.8719 118.757 79.1961 118.757C77.4935 118.757 76.4354 119.944 76.4354 121.83C76.4354 123.709 77.4774 124.859 79.2068 124.859C80.5926 124.859 81.5755 124.193 81.8172 123.135H80.555ZM79.1907 119.794C79.991 119.794 80.5174 120.358 80.5443 121.25H77.7781C77.8372 120.369 78.3958 119.794 79.1907 119.794Z" fill="#111111"/>
<path d="M86.2 124.741H87.532V116.598H86.2V124.741Z" fill="#111111"/>
<path d="M90.8353 124.837C91.6033 124.837 92.2479 124.504 92.5755 123.935H92.6668V124.741H93.9505V120.729C93.9505 119.488 93.1019 118.757 91.5926 118.757C90.1961 118.757 89.2239 119.413 89.1165 120.438H90.3734C90.4969 120.036 90.9158 119.815 91.5281 119.815C92.2479 119.815 92.6346 120.143 92.6346 120.729V121.233L91.1199 121.325C89.6912 121.405 88.8909 122.023 88.8909 123.076C88.8909 124.15 89.702 124.837 90.8353 124.837ZM91.2274 123.812C90.6365 123.812 90.2122 123.516 90.2122 123.011C90.2122 122.522 90.5613 122.249 91.3079 122.2L92.6346 122.109V122.587C92.6346 123.285 92.033 123.812 91.2274 123.812Z" fill="#111111"/>
<path d="M95.9808 117.431V118.908H95.0516V119.944H95.9808V123.183C95.9808 124.316 96.5179 124.768 97.866 124.768C98.1238 124.768 98.3709 124.746 98.5643 124.708V123.688C98.4031 123.704 98.3011 123.715 98.1131 123.715C97.5545 123.715 97.3074 123.452 97.3074 122.866V119.944H98.5643V118.908H97.3074V117.431H95.9808Z" fill="#111111"/>
<path d="M103.672 123.135C103.479 123.575 103.022 123.822 102.362 123.822C101.486 123.822 100.922 123.199 100.89 122.206V122.136H104.993V121.711C104.993 119.869 103.989 118.757 102.313 118.757C100.611 118.757 99.5526 119.944 99.5526 121.83C99.5526 123.709 100.595 124.859 102.324 124.859C103.71 124.859 104.693 124.193 104.934 123.135H103.672ZM102.308 119.794C103.108 119.794 103.635 120.358 103.661 121.25H100.895C100.954 120.369 101.513 119.794 102.308 119.794Z" fill="#111111"/>
<path d="M106.331 124.741H107.663V121.33C107.663 120.503 108.264 119.966 109.129 119.966C109.355 119.966 109.709 120.003 109.811 120.041V118.827C109.688 118.795 109.451 118.773 109.258 118.773C108.501 118.773 107.867 119.203 107.706 119.783H107.615V118.87H106.331V124.741Z" fill="#111111"/>
<rect x="39.0105" y="109.002" width="79.211" height="25.4621" rx="12.7311" stroke="#767676" stroke-width="0.542593"/>
<rect x="126.493" y="109.697" width="128.835" height="24.0711" rx="12.0356" fill="#767676"/>
<path d="M142.205 122.614V121.647H138.988V122.705H140.852L140.846 122.866C140.825 123.962 140.019 124.698 138.837 124.698C137.457 124.698 136.592 123.602 136.592 121.819C136.592 120.062 137.441 118.967 138.794 118.967C139.788 118.967 140.481 119.461 140.76 120.358H142.141C141.894 118.779 140.583 117.764 138.794 117.764C136.587 117.764 135.174 119.348 135.174 121.83C135.174 124.338 136.571 125.901 138.816 125.901C140.884 125.901 142.205 124.617 142.205 122.614Z" fill="white"/>
<path d="M146.212 125.826C147.968 125.826 149.037 124.676 149.037 122.77C149.037 120.874 147.963 119.724 146.212 119.724C144.466 119.724 143.387 120.879 143.387 122.77C143.387 124.676 144.45 125.826 146.212 125.826ZM146.212 124.735C145.283 124.735 144.751 124.016 144.751 122.775C144.751 121.534 145.283 120.814 146.212 120.814C147.136 120.814 147.667 121.534 147.667 122.775C147.667 124.016 147.141 124.735 146.212 124.735Z" fill="white"/>
<path d="M153.737 118.397V119.875H152.808V120.911H153.737V124.15C153.737 125.283 154.274 125.734 155.622 125.734C155.88 125.734 156.127 125.713 156.32 125.675V124.655C156.159 124.671 156.057 124.682 155.869 124.682C155.311 124.682 155.063 124.418 155.063 123.833V120.911H156.32V119.875H155.063V118.397H153.737Z" fill="white"/>
<path d="M160.134 125.826C161.89 125.826 162.959 124.676 162.959 122.77C162.959 120.874 161.885 119.724 160.134 119.724C158.388 119.724 157.309 120.879 157.309 122.77C157.309 124.676 158.372 125.826 160.134 125.826ZM160.134 124.735C159.205 124.735 158.673 124.016 158.673 122.775C158.673 121.534 159.205 120.814 160.134 120.814C161.058 120.814 161.589 121.534 161.589 122.775C161.589 124.016 161.063 124.735 160.134 124.735Z" fill="white"/>
<path d="M167.659 118.397V119.875H166.729V120.911H167.659V124.15C167.659 125.283 168.196 125.734 169.544 125.734C169.802 125.734 170.049 125.713 170.242 125.675V124.655C170.081 124.671 169.979 124.682 169.791 124.682C169.232 124.682 168.985 124.418 168.985 123.833V120.911H170.242V119.875H168.985V118.397H167.659Z" fill="white"/>
<path d="M171.628 125.708H172.96V122.297C172.96 121.438 173.449 120.863 174.324 120.863C175.098 120.863 175.506 121.325 175.506 122.232V125.708H176.838V121.921C176.838 120.524 176.075 119.729 174.818 119.729C173.943 119.729 173.314 120.127 173.035 120.788H172.938V117.565H171.628V125.708Z" fill="white"/>
<path d="M182.247 124.102C182.053 124.542 181.597 124.789 180.936 124.789C180.061 124.789 179.497 124.166 179.464 123.172V123.103H183.568V122.678C183.568 120.836 182.563 119.724 180.888 119.724C179.185 119.724 178.127 120.911 178.127 122.796C178.127 124.676 179.169 125.826 180.898 125.826C182.284 125.826 183.267 125.16 183.509 124.102H182.247ZM180.882 120.761C181.683 120.761 182.209 121.325 182.236 122.216H179.47C179.529 121.335 180.087 120.761 180.882 120.761Z" fill="white"/>
<path d="M187.838 125.708H189.17V122.286C189.17 121.405 189.669 120.852 190.464 120.852C191.275 120.852 191.651 121.309 191.651 122.222V125.708H192.983V121.91C192.983 120.514 192.269 119.724 190.958 119.724C190.083 119.724 189.492 120.122 189.213 120.777H189.122V119.837H187.838V125.708Z" fill="white"/>
<path d="M198.392 124.102C198.199 124.542 197.742 124.789 197.082 124.789C196.206 124.789 195.642 124.166 195.61 123.172V123.103H199.713V122.678C199.713 120.836 198.709 119.724 197.033 119.724C195.331 119.724 194.272 120.911 194.272 122.796C194.272 124.676 195.314 125.826 197.044 125.826C198.43 125.826 199.413 125.16 199.654 124.102H198.392ZM197.028 120.761C197.828 120.761 198.354 121.325 198.381 122.216H195.615C195.674 121.335 196.233 120.761 197.028 120.761Z" fill="white"/>
<path d="M208.844 119.837H207.518L206.545 124.247H206.454L205.315 119.837H204.042L202.915 124.247H202.823L201.846 119.837H200.503L202.093 125.708H203.478L204.617 121.454H204.708L205.853 125.708H207.254L208.844 119.837Z" fill="white"/>
<path d="M213.367 118.397V119.875H212.437V120.911H213.367V124.15C213.367 125.283 213.904 125.734 215.252 125.734C215.51 125.734 215.757 125.713 215.95 125.675V124.655C215.789 124.671 215.687 124.682 215.499 124.682C214.94 124.682 214.693 124.418 214.693 123.833V120.911H215.95V119.875H214.693V118.397H213.367Z" fill="white"/>
<path d="M217.282 125.708H218.614V122.297C218.614 121.47 219.216 120.933 220.081 120.933C220.306 120.933 220.661 120.97 220.763 121.008V119.794C220.639 119.762 220.403 119.74 220.209 119.74C219.452 119.74 218.818 120.17 218.657 120.75H218.566V119.837H217.282V125.708Z" fill="white"/>
<path d="M225.538 124.102C225.344 124.542 224.888 124.789 224.227 124.789C223.352 124.789 222.788 124.166 222.755 123.172V123.103H226.859V122.678C226.859 120.836 225.854 119.724 224.179 119.724C222.476 119.724 221.418 120.911 221.418 122.796C221.418 124.676 222.46 125.826 224.189 125.826C225.575 125.826 226.558 125.16 226.8 124.102H225.538ZM224.173 120.761C224.974 120.761 225.5 121.325 225.527 122.216H222.761C222.82 121.335 223.378 120.761 224.173 120.761Z" fill="white"/>
<path d="M228.196 125.708H229.528V122.286C229.528 121.405 230.028 120.852 230.823 120.852C231.634 120.852 232.01 121.309 232.01 122.222V125.708H233.342V121.91C233.342 120.514 232.627 119.724 231.317 119.724C230.441 119.724 229.851 120.122 229.571 120.777H229.48V119.837H228.196V125.708Z" fill="white"/>
<path d="M237.048 125.804C237.864 125.804 238.541 125.423 238.874 124.778H238.965V125.708H240.254V117.565H238.922V120.771H238.831C238.52 120.127 237.853 119.74 237.048 119.74C235.565 119.74 234.631 120.911 234.631 122.77C234.631 124.633 235.56 125.804 237.048 125.804ZM237.461 120.852C238.374 120.852 238.938 121.588 238.938 122.775C238.938 123.967 238.38 124.698 237.461 124.698C236.548 124.698 235.995 123.978 235.995 122.775C235.995 121.577 236.554 120.852 237.461 120.852Z" fill="white"/>
<path d="M241.801 121.513C241.801 122.394 242.333 122.909 243.461 123.167L244.503 123.409C245.061 123.538 245.314 123.752 245.314 124.085C245.314 124.531 244.847 124.837 244.175 124.837C243.509 124.837 243.096 124.569 242.967 124.134H241.651C241.753 125.192 242.677 125.826 244.143 125.826C245.609 125.826 246.646 125.079 246.646 123.957C246.646 123.092 246.125 122.614 245.002 122.356L243.966 122.125C243.375 121.985 243.096 121.776 243.096 121.443C243.096 121.008 243.552 120.712 244.159 120.712C244.782 120.712 245.174 120.981 245.271 121.395H246.522C246.426 120.336 245.55 119.724 244.154 119.724C242.768 119.724 241.801 120.46 241.801 121.513Z" fill="white"/>
</g>
<rect x="0.5" y="0.5" width="292" height="150" rx="7.5" stroke="#767676"/>
<defs>
<clipPath id="clip0_217_5910">
<rect width="216.588" height="26.0047" fill="white" transform="translate(38.7392 108.73)"/>
</clipPath>
</defs>
</svg>
