<svg viewBox="0 0 293 152" fill="none" xmlns="http://www.w3.org/2000/svg">
<rect x="0.5" y="0.981201" width="292" height="150" rx="7.5" fill="white"/>
<path d="M22.1719 34.4812V30.0359L26.125 23.2078H23.9297L21.2031 28.114H21.1562L18.4219 23.2078H16.2109L20.1641 30.0359V34.4812H22.1719Z" fill="#111111"/>
<path d="M29.1641 34.6453C31.5938 34.6453 33.1719 33.0281 33.1719 30.3406C33.1719 27.6609 31.5781 26.0281 29.1641 26.0281C26.75 26.0281 25.1562 27.6687 25.1562 30.3406C25.1562 33.0281 26.7344 34.6453 29.1641 34.6453ZM29.1641 33.1062C27.9297 33.1062 27.1328 32.1062 27.1328 30.3406C27.1328 28.5828 27.9375 27.575 29.1641 27.575C30.3984 27.575 31.1953 28.5828 31.1953 30.3406C31.1953 32.1062 30.3984 33.1062 29.1641 33.1062Z" fill="#111111"/>
<path d="M41.7656 26.2H39.8203V30.989C39.8203 32.1921 39.125 32.989 38 32.989C36.9062 32.989 36.3281 32.3484 36.3281 31.1609V26.2H34.3828V31.5515C34.3828 33.4656 35.5234 34.6296 37.3203 34.6296C38.5781 34.6296 39.4141 34.0515 39.8516 33.0437H39.8906V34.4812H41.7656V26.2Z" fill="#111111"/>
<path d="M46.6172 34.4812H48.5625V29.7234C48.5625 28.5046 49.2734 27.6921 50.4453 27.6921C51.5703 27.6921 52.1484 28.3875 52.1484 29.5437V34.4812H54.0938V29.1453C54.0938 27.2468 53.0234 26.0437 51.1953 26.0437C49.9375 26.0437 49.0234 26.614 48.5781 27.6218H48.5391V23.2078H46.6172V34.4812Z" fill="#111111"/>
<path d="M58.0938 34.614C59.1562 34.614 60.1953 34.0593 60.6719 33.1609H60.7109V34.4812H62.5859V28.7781C62.5859 27.114 61.25 26.0281 59.1953 26.0281C57.0859 26.0281 55.7656 27.1375 55.6797 28.6843H57.4844C57.6094 27.9968 58.1953 27.5515 59.1172 27.5515C60.0781 27.5515 60.6641 28.0515 60.6641 28.9187V29.5125L58.4766 29.6375C56.4609 29.7625 55.3281 30.6453 55.3281 32.114C55.3281 33.6062 56.4922 34.614 58.0938 34.614ZM58.6797 33.1453C57.8359 33.1453 57.2734 32.7156 57.2734 32.0359C57.2734 31.3796 57.8125 30.9578 58.75 30.8953L60.6641 30.7781V31.4109C60.6641 32.4109 59.7812 33.1453 58.6797 33.1453Z" fill="#111111"/>
<path d="M71.4141 26.2H69.3828L67.4609 32.6765H67.4219L65.5 26.2H63.4219L66.3594 34.4812H68.5L71.4141 26.2Z" fill="#111111"/>
<path d="M77.5625 32.0046C77.3516 32.6921 76.6641 33.1453 75.7578 33.1453C74.4844 33.1453 73.6719 32.2546 73.6719 30.9265V30.8093H79.4609V30.1765C79.4609 27.6609 77.9922 26.0281 75.6406 26.0281C73.25 26.0281 71.7344 27.7546 71.7344 30.3718C71.7344 33.0125 73.2344 34.6453 75.7188 34.6453C77.6797 34.6453 79.1328 33.5671 79.3828 32.0046H77.5625ZM75.6484 27.5359C76.7656 27.5359 77.5156 28.3562 77.5547 29.5281H73.6875C73.7656 28.3718 74.5547 27.5359 75.6484 27.5359Z" fill="#111111"/>
<path d="M86.8047 34.4812H88.7812V23.2078H86.7891L83.8438 25.2781V27.1296L86.7578 25.1296H86.8047V34.4812Z" fill="#111111"/>
<path d="M94 29.4265H95.3359C96.7812 29.4265 97.6562 30.0984 97.6484 31.3015C97.6484 32.3328 96.7656 33.0593 95.4766 33.0593C94.1406 33.0593 93.2422 32.3875 93.1641 31.364H91.2344C91.3359 33.3562 93.0078 34.7078 95.4766 34.7078C97.9453 34.7078 99.6953 33.3484 99.6953 31.3484C99.6953 29.7781 98.5938 28.7781 96.9297 28.6218V28.5828C98.2891 28.3015 99.2969 27.364 99.2969 25.9421C99.2969 24.2 97.7969 22.9812 95.4609 22.9812C93.1953 22.9812 91.6094 24.2625 91.4766 26.2781H93.3516C93.4219 25.2156 94.2734 24.5828 95.4609 24.5828C96.7031 24.5828 97.3594 25.2234 97.3594 26.2156C97.3594 27.2156 96.5312 27.9265 95.2891 27.9265H94V29.4265Z" fill="#111111"/>
<path d="M104.453 34.4812H106.398V29.6843C106.398 28.4968 107.109 27.6921 108.227 27.6921C109.336 27.6921 109.883 28.3484 109.883 29.5203V34.4812H111.828V29.1296C111.828 27.2156 110.789 26.0437 108.961 26.0437C107.688 26.0437 106.805 26.6375 106.359 27.6218H106.32V26.2H104.453V34.4812Z" fill="#111111"/>
<path d="M118.875 32.0046C118.664 32.6921 117.977 33.1453 117.07 33.1453C115.797 33.1453 114.984 32.2546 114.984 30.9265V30.8093H120.773V30.1765C120.773 27.6609 119.305 26.0281 116.953 26.0281C114.562 26.0281 113.047 27.7546 113.047 30.3718C113.047 33.0125 114.547 34.6453 117.031 34.6453C118.992 34.6453 120.445 33.5671 120.695 32.0046H118.875ZM116.961 27.5359C118.078 27.5359 118.828 28.3562 118.867 29.5281H115C115.078 28.3718 115.867 27.5359 116.961 27.5359Z" fill="#111111"/>
<path d="M133.234 26.2H131.312L129.914 32.5593H129.867L128.25 26.2H126.383L124.766 32.5593H124.727L123.328 26.2H121.375L123.617 34.4812H125.648L127.273 28.4265H127.312L128.945 34.4812H130.992L133.234 26.2Z" fill="#111111"/>
<path d="M137.406 34.4812H139.352V29.6609C139.352 28.4968 140.016 27.7859 141.117 27.7859C141.445 27.7859 141.742 27.8328 141.906 27.8953V26.1375C141.766 26.1062 141.547 26.0593 141.297 26.0593C140.32 26.0593 139.594 26.6375 139.312 27.6453H139.273V26.2H137.406V34.4812Z" fill="#111111"/>
<path d="M148.078 32.0046C147.867 32.6921 147.18 33.1453 146.273 33.1453C145 33.1453 144.188 32.2546 144.188 30.9265V30.8093H149.977V30.1765C149.977 27.6609 148.508 26.0281 146.156 26.0281C143.766 26.0281 142.25 27.7546 142.25 30.3718C142.25 33.0125 143.75 34.6453 146.234 34.6453C148.195 34.6453 149.648 33.5671 149.898 32.0046H148.078ZM146.164 27.5359C147.281 27.5359 148.031 28.3562 148.07 29.5281H144.203C144.281 28.3718 145.07 27.5359 146.164 27.5359Z" fill="#111111"/>
<path d="M158.531 29.1531C158.398 27.4109 157.047 26.0281 154.859 26.0281C152.453 26.0281 150.891 27.6921 150.891 30.3406C150.891 33.0281 152.453 34.6453 154.875 34.6453C156.953 34.6453 158.383 33.4265 158.539 31.575H156.703C156.523 32.5125 155.883 33.075 154.898 33.075C153.664 33.075 152.867 32.075 152.867 30.3406C152.867 28.6375 153.656 27.6062 154.883 27.6062C155.922 27.6062 156.539 28.2703 156.695 29.1531H158.531Z" fill="#111111"/>
<path d="M163.367 34.6453C165.797 34.6453 167.375 33.0281 167.375 30.3406C167.375 27.6609 165.781 26.0281 163.367 26.0281C160.953 26.0281 159.359 27.6687 159.359 30.3406C159.359 33.0281 160.938 34.6453 163.367 34.6453ZM163.367 33.1062C162.133 33.1062 161.336 32.1062 161.336 30.3406C161.336 28.5828 162.141 27.575 163.367 27.575C164.602 27.575 165.398 28.5828 165.398 30.3406C165.398 32.1062 164.602 33.1062 163.367 33.1062Z" fill="#111111"/>
<path d="M168.625 34.4812H170.57V29.4109C170.57 28.4109 171.227 27.6843 172.164 27.6843C173.07 27.6843 173.633 28.2546 173.633 29.1765V34.4812H175.523V29.364C175.523 28.3718 176.164 27.6843 177.102 27.6843C178.055 27.6843 178.586 28.2625 178.586 29.2781V34.4812H180.531V28.8015C180.531 27.1453 179.461 26.0437 177.828 26.0437C176.633 26.0437 175.648 26.6843 175.25 27.7078H175.203C174.898 26.6453 174.062 26.0437 172.891 26.0437C171.766 26.0437 170.891 26.6765 170.531 27.6375H170.492V26.2H168.625V34.4812Z" fill="#111111"/>
<path d="M182.094 34.4812H184.039V29.4109C184.039 28.4109 184.695 27.6843 185.633 27.6843C186.539 27.6843 187.102 28.2546 187.102 29.1765V34.4812H188.992V29.364C188.992 28.3718 189.633 27.6843 190.57 27.6843C191.523 27.6843 192.055 28.2625 192.055 29.2781V34.4812H194V28.8015C194 27.1453 192.93 26.0437 191.297 26.0437C190.102 26.0437 189.117 26.6843 188.719 27.7078H188.672C188.367 26.6453 187.531 26.0437 186.359 26.0437C185.234 26.0437 184.359 26.6765 184 27.6375H183.961V26.2H182.094V34.4812Z" fill="#111111"/>
<path d="M201.047 32.0046C200.836 32.6921 200.148 33.1453 199.242 33.1453C197.969 33.1453 197.156 32.2546 197.156 30.9265V30.8093H202.945V30.1765C202.945 27.6609 201.477 26.0281 199.125 26.0281C196.734 26.0281 195.219 27.7546 195.219 30.3718C195.219 33.0125 196.719 34.6453 199.203 34.6453C201.164 34.6453 202.617 33.5671 202.867 32.0046H201.047ZM199.133 27.5359C200.25 27.5359 201 28.3562 201.039 29.5281H197.172C197.25 28.3718 198.039 27.5359 199.133 27.5359Z" fill="#111111"/>
<path d="M204.203 34.4812H206.148V29.6843C206.148 28.4968 206.859 27.6921 207.977 27.6921C209.086 27.6921 209.633 28.3484 209.633 29.5203V34.4812H211.578V29.1296C211.578 27.2156 210.539 26.0437 208.711 26.0437C207.438 26.0437 206.555 26.6375 206.109 27.6218H206.07V26.2H204.203V34.4812Z" fill="#111111"/>
<path d="M216.234 34.614C217.445 34.614 218.398 33.9968 218.852 33.0671H218.883V34.4812H220.789V23.2078H218.844V27.5906H218.797C218.359 26.6765 217.422 26.0593 216.234 26.0593C214.148 26.0593 212.797 27.7156 212.797 30.3328C212.797 32.9656 214.148 34.614 216.234 34.614ZM216.82 27.6609C218.047 27.6609 218.852 28.7156 218.852 30.3406C218.852 31.9812 218.047 33.0203 216.82 33.0203C215.562 33.0203 214.789 31.989 214.789 30.3406C214.789 28.7 215.57 27.6609 216.82 27.6609Z" fill="#111111"/>
<path d="M224.859 34.614C225.922 34.614 226.961 34.0593 227.438 33.1609H227.477V34.4812H229.352V28.7781C229.352 27.114 228.016 26.0281 225.961 26.0281C223.852 26.0281 222.531 27.1375 222.445 28.6843H224.25C224.375 27.9968 224.961 27.5515 225.883 27.5515C226.844 27.5515 227.43 28.0515 227.43 28.9187V29.5125L225.242 29.6375C223.227 29.7625 222.094 30.6453 222.094 32.114C222.094 33.6062 223.258 34.614 224.859 34.614ZM225.445 33.1453C224.602 33.1453 224.039 32.7156 224.039 32.0359C224.039 31.3796 224.578 30.9578 225.516 30.8953L227.43 30.7781V31.4109C227.43 32.4109 226.547 33.1453 225.445 33.1453Z" fill="#111111"/>
<path d="M231.461 24.2625V26.2H230.273V27.7H231.461V32.2781C231.461 33.8875 232.164 34.5203 233.953 34.5203C234.367 34.5203 234.75 34.489 234.961 34.4421V32.9578C234.836 32.9812 234.586 32.9968 234.406 32.9968C233.719 32.9968 233.406 32.6843 233.406 32.0046V27.7H234.969V26.2H233.406V24.2625H231.461Z" fill="#111111"/>
<path d="M237.312 24.95C237.906 24.95 238.375 24.4734 238.375 23.8953C238.375 23.3093 237.906 22.8406 237.312 22.8406C236.719 22.8406 236.242 23.3093 236.242 23.8953C236.242 24.4734 236.719 24.95 237.312 24.95ZM236.344 34.4812H238.289V26.2H236.344V34.4812Z" fill="#111111"/>
<path d="M243.586 34.6453C246.016 34.6453 247.594 33.0281 247.594 30.3406C247.594 27.6609 246 26.0281 243.586 26.0281C241.172 26.0281 239.578 27.6687 239.578 30.3406C239.578 33.0281 241.156 34.6453 243.586 34.6453ZM243.586 33.1062C242.352 33.1062 241.555 32.1062 241.555 30.3406C241.555 28.5828 242.359 27.575 243.586 27.575C244.82 27.575 245.617 28.5828 245.617 30.3406C245.617 32.1062 244.82 33.1062 243.586 33.1062Z" fill="#111111"/>
<path d="M248.844 34.4812H250.789V29.6843C250.789 28.4968 251.5 27.6921 252.617 27.6921C253.727 27.6921 254.273 28.3484 254.273 29.5203V34.4812H256.219V29.1296C256.219 27.2156 255.18 26.0437 253.352 26.0437C252.078 26.0437 251.195 26.6375 250.75 27.6218H250.711V26.2H248.844V34.4812Z" fill="#111111"/>
<path d="M257.633 28.575C257.633 29.8015 258.43 30.5828 260.016 30.9343L261.391 31.239C262.258 31.4343 262.555 31.7156 262.555 32.2156C262.555 32.8328 261.969 33.2234 261.023 33.2234C260.039 33.2234 259.484 32.8171 259.336 32.0125H257.422C257.578 33.614 258.859 34.6453 261.023 34.6453C263.055 34.6453 264.492 33.5906 264.492 32.0281C264.492 30.825 263.828 30.1609 262.109 29.7781L260.734 29.4734C259.867 29.2781 259.523 28.95 259.523 28.4734C259.523 27.864 260.094 27.4578 260.953 27.4578C261.852 27.4578 262.406 27.9343 262.484 28.6843H264.297C264.25 27.114 262.969 26.0281 260.953 26.0281C258.953 26.0281 257.633 27.0593 257.633 28.575Z" fill="#111111"/>
<path d="M18.1328 56.991H20.2129L22.0234 60.3367H23.2598L21.3027 56.8269C22.3633 56.4929 23.002 55.5789 23.002 54.4011C23.002 52.8777 21.9355 51.8816 20.3066 51.8816H17.0781V60.3367H18.1328V56.991ZM18.1328 52.8191H20.166C21.2559 52.8191 21.9121 53.4226 21.9121 54.4363C21.9121 55.4734 21.2969 56.0535 20.2129 56.0535H18.1328V52.8191Z" fill="#111111"/>
<path d="M28.7969 58.7019C28.5332 59.2585 27.9824 59.5574 27.168 59.5574C26.0957 59.5574 25.3984 58.7664 25.3457 57.5183V57.4714H29.8867V57.0847C29.8867 55.1218 28.8496 53.9089 27.1445 53.9089C25.4102 53.9089 24.2969 55.198 24.2969 57.1843C24.2969 59.1824 25.3926 60.448 27.1445 60.448C28.5273 60.448 29.5117 59.78 29.8047 58.7019H28.7969ZM27.1328 54.7996C28.1348 54.7996 28.8027 55.5378 28.8262 56.657H25.3457C25.4219 55.5378 26.125 54.7996 27.1328 54.7996Z" fill="#111111"/>
<path d="M36.6953 55.9539C36.5195 54.8289 35.582 53.9089 34.0469 53.9089C32.2773 53.9089 31.1523 55.1863 31.1523 57.155C31.1523 59.1648 32.2832 60.448 34.0527 60.448C35.5703 60.448 36.5137 59.5925 36.6953 58.4324H35.6758C35.4883 59.1472 34.8965 59.5398 34.0469 59.5398C32.9219 59.5398 32.1953 58.614 32.1953 57.155C32.1953 55.7253 32.9102 54.8171 34.0469 54.8171C34.9551 54.8171 35.5117 55.3269 35.6758 55.9539H36.6953Z" fill="#111111"/>
<path d="M40.7793 60.448C42.5781 60.448 43.6914 59.2058 43.6914 57.1785C43.6914 55.1453 42.5781 53.9089 40.7793 53.9089C38.9805 53.9089 37.8672 55.1453 37.8672 57.1785C37.8672 59.2058 38.9805 60.448 40.7793 60.448ZM40.7793 59.5398C39.584 59.5398 38.9102 58.6726 38.9102 57.1785C38.9102 55.6785 39.584 54.8171 40.7793 54.8171C41.9746 54.8171 42.6484 55.6785 42.6484 57.1785C42.6484 58.6726 41.9746 59.5398 40.7793 59.5398Z" fill="#111111"/>
<path d="M45.2734 60.3367H46.2812V56.4226C46.2812 55.532 46.9199 54.8171 47.7461 54.8171C48.543 54.8171 49.0645 55.2976 49.0645 56.0476V60.3367H50.0723V56.2761C50.0723 55.4734 50.6582 54.8171 51.5371 54.8171C52.4277 54.8171 52.8672 55.2742 52.8672 56.2058V60.3367H53.875V55.9714C53.875 54.6472 53.1543 53.9089 51.8652 53.9089C50.9922 53.9089 50.2715 54.3484 49.9316 55.0164H49.8379C49.5449 54.3601 48.9473 53.9089 48.0918 53.9089C47.248 53.9089 46.6152 54.3132 46.3281 55.0164H46.2344V54.0203H45.2734V60.3367Z" fill="#111111"/>
<path d="M55.7148 60.3367H56.7227V56.4226C56.7227 55.532 57.3613 54.8171 58.1875 54.8171C58.9844 54.8171 59.5059 55.2976 59.5059 56.0476V60.3367H60.5137V56.2761C60.5137 55.4734 61.0996 54.8171 61.9785 54.8171C62.8691 54.8171 63.3086 55.2742 63.3086 56.2058V60.3367H64.3164V55.9714C64.3164 54.6472 63.5957 53.9089 62.3066 53.9089C61.4336 53.9089 60.7129 54.3484 60.373 55.0164H60.2793C59.9863 54.3601 59.3887 53.9089 58.5332 53.9089C57.6895 53.9089 57.0566 54.3132 56.7695 55.0164H56.6758V54.0203H55.7148V60.3367Z" fill="#111111"/>
<path d="M70.3398 58.7019C70.0762 59.2585 69.5254 59.5574 68.7109 59.5574C67.6387 59.5574 66.9414 58.7664 66.8887 57.5183V57.4714H71.4297V57.0847C71.4297 55.1218 70.3926 53.9089 68.6875 53.9089C66.9531 53.9089 65.8398 55.198 65.8398 57.1843C65.8398 59.1824 66.9355 60.448 68.6875 60.448C70.0703 60.448 71.0547 59.78 71.3477 58.7019H70.3398ZM68.6758 54.7996C69.6777 54.7996 70.3457 55.5378 70.3691 56.657H66.8887C66.9648 55.5378 67.668 54.7996 68.6758 54.7996Z" fill="#111111"/>
<path d="M73.0117 60.3367H74.0195V56.5984C74.0195 55.491 74.6699 54.8171 75.6777 54.8171C76.6855 54.8171 77.166 55.3562 77.166 56.4929V60.3367H78.1738V56.2468C78.1738 54.7468 77.3828 53.9089 75.9648 53.9089C74.998 53.9089 74.3828 54.3191 74.0664 55.0164H73.9727V54.0203H73.0117V60.3367Z" fill="#111111"/>
<path d="M82.3574 60.448C83.2305 60.448 83.9805 60.032 84.3789 59.3289H84.4727V60.3367H85.4336V51.5125H84.4258V55.0164H84.3379C83.9805 54.325 83.2363 53.9089 82.3574 53.9089C80.752 53.9089 79.7031 55.198 79.7031 57.1785C79.7031 59.1648 80.7402 60.448 82.3574 60.448ZM82.5918 54.8171C83.7344 54.8171 84.4492 55.7312 84.4492 57.1785C84.4492 58.6375 83.7402 59.5398 82.5918 59.5398C81.4375 59.5398 80.7461 58.655 80.7461 57.1785C80.7461 55.7078 81.4434 54.8171 82.5918 54.8171Z" fill="#111111"/>
<path d="M89.1484 60.448C89.9922 60.448 90.6836 60.0789 91.0938 59.405H91.1875V60.3367H92.1484V56.0125C92.1484 54.7 91.2871 53.9089 89.7461 53.9089C88.3984 53.9089 87.4023 54.5769 87.2676 55.5906H88.2871C88.4277 55.0925 88.9551 54.8054 89.7109 54.8054C90.6543 54.8054 91.1406 55.2332 91.1406 56.0125V56.5867L89.3184 56.698C87.8477 56.7859 87.0156 57.4363 87.0156 58.5671C87.0156 59.7214 87.9238 60.448 89.1484 60.448ZM89.3359 59.5632C88.6035 59.5632 88.0586 59.1882 88.0586 58.5437C88.0586 57.9109 88.4805 57.5769 89.4414 57.5125L91.1406 57.4011V57.9812C91.1406 58.8835 90.373 59.5632 89.3359 59.5632Z" fill="#111111"/>
<path d="M94.4336 52.3855V54.0203H93.4141V54.864H94.4336V58.696C94.4336 59.9031 94.9551 60.3835 96.2559 60.3835C96.4551 60.3835 96.6484 60.3601 96.8477 60.325V59.4753C96.6602 59.4929 96.5605 59.4988 96.3789 59.4988C95.7227 59.4988 95.4414 59.1824 95.4414 58.4382V54.864H96.8477V54.0203H95.4414V52.3855H94.4336Z" fill="#111111"/>
<path d="M98.8984 52.8015C99.2852 52.8015 99.6016 52.4851 99.6016 52.0984C99.6016 51.7117 99.2852 51.3953 98.8984 51.3953C98.5117 51.3953 98.1953 51.7117 98.1953 52.0984C98.1953 52.4851 98.5117 52.8015 98.8984 52.8015ZM98.3945 60.3367H99.4023V54.0203H98.3945V60.3367Z" fill="#111111"/>
<path d="M103.92 60.448C105.719 60.448 106.832 59.2058 106.832 57.1785C106.832 55.1453 105.719 53.9089 103.92 53.9089C102.121 53.9089 101.008 55.1453 101.008 57.1785C101.008 59.2058 102.121 60.448 103.92 60.448ZM103.92 59.5398C102.725 59.5398 102.051 58.6726 102.051 57.1785C102.051 55.6785 102.725 54.8171 103.92 54.8171C105.115 54.8171 105.789 55.6785 105.789 57.1785C105.789 58.6726 105.115 59.5398 103.92 59.5398Z" fill="#111111"/>
<path d="M108.414 60.3367H109.422V56.5984C109.422 55.491 110.072 54.8171 111.08 54.8171C112.088 54.8171 112.568 55.3562 112.568 56.4929V60.3367H113.576V56.2468C113.576 54.7468 112.785 53.9089 111.367 53.9089C110.4 53.9089 109.785 54.3191 109.469 55.0164H109.375V54.0203H108.414V60.3367Z" fill="#111111"/>
<path d="M115.275 55.7488C115.275 56.6628 115.814 57.1726 116.998 57.4597L118.082 57.7234C118.756 57.8875 119.084 58.1804 119.084 58.614C119.084 59.1941 118.475 59.5984 117.625 59.5984C116.816 59.5984 116.312 59.2585 116.143 58.7253H115.105C115.217 59.7742 116.184 60.448 117.59 60.448C119.025 60.448 120.121 59.6687 120.121 58.5378C120.121 57.6296 119.547 57.114 118.357 56.8269L117.385 56.5925C116.641 56.4109 116.289 56.1414 116.289 55.7078C116.289 55.1453 116.875 54.7644 117.625 54.7644C118.387 54.7644 118.879 55.0984 119.014 55.6023H120.01C119.875 54.5652 118.955 53.9089 117.631 53.9089C116.289 53.9089 115.275 54.7 115.275 55.7488Z" fill="#111111"/>
<path d="M133.035 54.0203H132.021L130.779 59.071H130.686L129.273 54.0203H128.307L126.895 59.071H126.801L125.559 54.0203H124.539L126.309 60.3367H127.328L128.734 55.45H128.828L130.24 60.3367H131.266L133.035 54.0203Z" fill="#111111"/>
<path d="M134.91 52.8015C135.297 52.8015 135.613 52.4851 135.613 52.0984C135.613 51.7117 135.297 51.3953 134.91 51.3953C134.523 51.3953 134.207 51.7117 134.207 52.0984C134.207 52.4851 134.523 52.8015 134.91 52.8015ZM134.406 60.3367H135.414V54.0203H134.406V60.3367Z" fill="#111111"/>
<path d="M137.395 60.3367H138.402V51.5125H137.395V60.3367Z" fill="#111111"/>
<path d="M140.418 60.3367H141.426V51.5125H140.418V60.3367Z" fill="#111111"/>
<path d="M147.297 52.8015C147.684 52.8015 148 52.4851 148 52.0984C148 51.7117 147.684 51.3953 147.297 51.3953C146.91 51.3953 146.594 51.7117 146.594 52.0984C146.594 52.4851 146.91 52.8015 147.297 52.8015ZM146.793 60.3367H147.801V54.0203H146.793V60.3367Z" fill="#111111"/>
<path d="M149.723 60.3367H150.73V56.4226C150.73 55.532 151.369 54.8171 152.195 54.8171C152.992 54.8171 153.514 55.2976 153.514 56.0476V60.3367H154.521V56.2761C154.521 55.4734 155.107 54.8171 155.986 54.8171C156.877 54.8171 157.316 55.2742 157.316 56.2058V60.3367H158.324V55.9714C158.324 54.6472 157.604 53.9089 156.314 53.9089C155.441 53.9089 154.721 54.3484 154.381 55.0164H154.287C153.994 54.3601 153.396 53.9089 152.541 53.9089C151.697 53.9089 151.064 54.3132 150.777 55.0164H150.684V54.0203H149.723V60.3367Z" fill="#111111"/>
<path d="M163.24 53.9089C162.379 53.9089 161.623 54.3484 161.219 55.075H161.125V54.0203H160.164V62.446H161.172V59.3875H161.266C161.611 60.0554 162.338 60.448 163.24 60.448C164.846 60.448 165.895 59.1531 165.895 57.1785C165.895 55.1921 164.852 53.9089 163.24 53.9089ZM163 59.5398C161.863 59.5398 161.143 58.6257 161.143 57.1785C161.143 55.7253 161.863 54.8171 163.006 54.8171C164.16 54.8171 164.852 55.7019 164.852 57.1785C164.852 58.655 164.16 59.5398 163 59.5398Z" fill="#111111"/>
<path d="M167.477 60.3367H168.484V56.4226C168.484 55.532 169.182 54.8875 170.143 54.8875C170.342 54.8875 170.705 54.9226 170.787 54.946V53.9382C170.658 53.9207 170.447 53.9089 170.283 53.9089C169.445 53.9089 168.719 54.3425 168.531 54.9578H168.438V54.0203H167.477V60.3367Z" fill="#111111"/>
<path d="M174.467 60.448C176.266 60.448 177.379 59.2058 177.379 57.1785C177.379 55.1453 176.266 53.9089 174.467 53.9089C172.668 53.9089 171.555 55.1453 171.555 57.1785C171.555 59.2058 172.668 60.448 174.467 60.448ZM174.467 59.5398C173.271 59.5398 172.598 58.6726 172.598 57.1785C172.598 55.6785 173.271 54.8171 174.467 54.8171C175.662 54.8171 176.336 55.6785 176.336 57.1785C176.336 58.6726 175.662 59.5398 174.467 59.5398Z" fill="#111111"/>
<path d="M183.883 54.0203H182.805L181.076 59.2234H180.982L179.254 54.0203H178.176L180.514 60.3367H181.545L183.883 54.0203Z" fill="#111111"/>
<path d="M189.18 58.7019C188.916 59.2585 188.365 59.5574 187.551 59.5574C186.479 59.5574 185.781 58.7664 185.729 57.5183V57.4714H190.27V57.0847C190.27 55.1218 189.232 53.9089 187.527 53.9089C185.793 53.9089 184.68 55.198 184.68 57.1843C184.68 59.1824 185.775 60.448 187.527 60.448C188.91 60.448 189.895 59.78 190.188 58.7019H189.18ZM187.516 54.7996C188.518 54.7996 189.186 55.5378 189.209 56.657H185.729C185.805 55.5378 186.508 54.7996 187.516 54.7996Z" fill="#111111"/>
<path d="M195.777 62.6218C196.896 62.6218 197.4 62.1882 197.939 60.7234L200.406 54.0203H199.334L197.605 59.2175H197.512L195.777 54.0203H194.688L197.025 60.3425L196.908 60.7175C196.645 61.4792 196.328 61.7546 195.748 61.7546C195.607 61.7546 195.449 61.7488 195.326 61.7253V62.5867C195.467 62.6101 195.643 62.6218 195.777 62.6218Z" fill="#111111"/>
<path d="M204.115 60.448C205.914 60.448 207.027 59.2058 207.027 57.1785C207.027 55.1453 205.914 53.9089 204.115 53.9089C202.316 53.9089 201.203 55.1453 201.203 57.1785C201.203 59.2058 202.316 60.448 204.115 60.448ZM204.115 59.5398C202.92 59.5398 202.246 58.6726 202.246 57.1785C202.246 55.6785 202.92 54.8171 204.115 54.8171C205.311 54.8171 205.984 55.6785 205.984 57.1785C205.984 58.6726 205.311 59.5398 204.115 59.5398Z" fill="#111111"/>
<path d="M213.719 54.0203H212.711V57.7585C212.711 58.866 212.102 59.5281 210.988 59.5281C209.98 59.5281 209.559 59.0007 209.559 57.864V54.0203H208.551V58.1101C208.551 59.6042 209.289 60.448 210.707 60.448C211.674 60.448 212.348 60.0496 212.664 59.3464H212.758V60.3367H213.719V54.0203Z" fill="#111111"/>
<path d="M215.617 60.3367H216.625V56.4226C216.625 55.532 217.322 54.8875 218.283 54.8875C218.482 54.8875 218.846 54.9226 218.928 54.946V53.9382C218.799 53.9207 218.588 53.9089 218.424 53.9089C217.586 53.9089 216.859 54.3425 216.672 54.9578H216.578V54.0203H215.617V60.3367Z" fill="#111111"/>
<path d="M225.332 60.448C226.176 60.448 226.867 60.0789 227.277 59.405H227.371V60.3367H228.332V56.0125C228.332 54.7 227.471 53.9089 225.93 53.9089C224.582 53.9089 223.586 54.5769 223.451 55.5906H224.471C224.611 55.0925 225.139 54.8054 225.895 54.8054C226.838 54.8054 227.324 55.2332 227.324 56.0125V56.5867L225.502 56.698C224.031 56.7859 223.199 57.4363 223.199 58.5671C223.199 59.7214 224.107 60.448 225.332 60.448ZM225.52 59.5632C224.787 59.5632 224.242 59.1882 224.242 58.5437C224.242 57.9109 224.664 57.5769 225.625 57.5125L227.324 57.4011V57.9812C227.324 58.8835 226.557 59.5632 225.52 59.5632Z" fill="#111111"/>
<path d="M232.533 60.448C233.406 60.448 234.156 60.032 234.555 59.3289H234.648V60.3367H235.609V51.5125H234.602V55.0164H234.514C234.156 54.325 233.412 53.9089 232.533 53.9089C230.928 53.9089 229.879 55.198 229.879 57.1785C229.879 59.1648 230.916 60.448 232.533 60.448ZM232.768 54.8171C233.91 54.8171 234.625 55.7312 234.625 57.1785C234.625 58.6375 233.916 59.5398 232.768 59.5398C231.613 59.5398 230.922 58.655 230.922 57.1785C230.922 55.7078 231.619 54.8171 232.768 54.8171Z" fill="#111111"/>
<path d="M20.0254 67.9089C19.1641 67.9089 18.4082 68.3484 18.0039 69.075H17.9102V68.0203H16.9492V76.446H17.957V73.3875H18.0508C18.3965 74.0554 19.123 74.448 20.0254 74.448C21.6309 74.448 22.6797 73.1531 22.6797 71.1785C22.6797 69.1921 21.6367 67.9089 20.0254 67.9089ZM19.7852 73.5398C18.6484 73.5398 17.9277 72.6257 17.9277 71.1785C17.9277 69.7253 18.6484 68.8171 19.791 68.8171C20.9453 68.8171 21.6367 69.7019 21.6367 71.1785C21.6367 72.655 20.9453 73.5398 19.7852 73.5398Z" fill="#111111"/>
<path d="M28.4453 72.7019C28.1816 73.2585 27.6309 73.5574 26.8164 73.5574C25.7441 73.5574 25.0469 72.7664 24.9941 71.5183V71.4714H29.5352V71.0847C29.5352 69.1218 28.498 67.9089 26.793 67.9089C25.0586 67.9089 23.9453 69.198 23.9453 71.1843C23.9453 73.1824 25.041 74.448 26.793 74.448C28.1758 74.448 29.1602 73.78 29.4531 72.7019H28.4453ZM26.7812 68.7996C27.7832 68.7996 28.4512 69.5378 28.4746 70.657H24.9941C25.0703 69.5378 25.7734 68.7996 26.7812 68.7996Z" fill="#111111"/>
<path d="M31.1172 74.3367H32.125V70.4226C32.125 69.532 32.8223 68.8875 33.7832 68.8875C33.9824 68.8875 34.3457 68.9226 34.4277 68.946V67.9382C34.2988 67.9207 34.0879 67.9089 33.9238 67.9089C33.0859 67.9089 32.3594 68.3425 32.1719 68.9578H32.0781V68.0203H31.1172V74.3367Z" fill="#111111"/>
<path d="M36.4609 74.3367H37.4688V68.864H38.916V68.0203H37.4688V67.3464C37.4688 66.655 37.7734 66.3035 38.5 66.3035C38.6816 66.3035 38.8516 66.3093 38.9746 66.3328V65.5125C38.7637 65.4714 38.541 65.4539 38.2949 65.4539C37.0938 65.4539 36.4609 66.0574 36.4609 67.3171V68.0203H35.4121V68.864H36.4609V74.3367Z" fill="#111111"/>
<path d="M42.7129 74.448C44.5117 74.448 45.625 73.2058 45.625 71.1785C45.625 69.1453 44.5117 67.9089 42.7129 67.9089C40.9141 67.9089 39.8008 69.1453 39.8008 71.1785C39.8008 73.2058 40.9141 74.448 42.7129 74.448ZM42.7129 73.5398C41.5176 73.5398 40.8438 72.6726 40.8438 71.1785C40.8438 69.6785 41.5176 68.8171 42.7129 68.8171C43.9082 68.8171 44.582 69.6785 44.582 71.1785C44.582 72.6726 43.9082 73.5398 42.7129 73.5398Z" fill="#111111"/>
<path d="M47.207 74.3367H48.2148V70.4226C48.2148 69.532 48.9121 68.8875 49.873 68.8875C50.0723 68.8875 50.4355 68.9226 50.5176 68.946V67.9382C50.3887 67.9207 50.1777 67.9089 50.0137 67.9089C49.1758 67.9089 48.4492 68.3425 48.2617 68.9578H48.168V68.0203H47.207V74.3367Z" fill="#111111"/>
<path d="M51.8945 74.3367H52.9023V70.4226C52.9023 69.532 53.541 68.8171 54.3672 68.8171C55.1641 68.8171 55.6855 69.2976 55.6855 70.0476V74.3367H56.6934V70.2761C56.6934 69.4734 57.2793 68.8171 58.1582 68.8171C59.0488 68.8171 59.4883 69.2742 59.4883 70.2058V74.3367H60.4961V69.9714C60.4961 68.6472 59.7754 67.9089 58.4863 67.9089C57.6133 67.9089 56.8926 68.3484 56.5527 69.0164H56.459C56.166 68.3601 55.5684 67.9089 54.7129 67.9089C53.8691 67.9089 53.2363 68.3132 52.9492 69.0164H52.8555V68.0203H51.8945V74.3367Z" fill="#111111"/>
<path d="M64.0938 74.448C64.9375 74.448 65.6289 74.0789 66.0391 73.405H66.1328V74.3367H67.0938V70.0125C67.0938 68.7 66.2324 67.9089 64.6914 67.9089C63.3438 67.9089 62.3477 68.5769 62.2129 69.5906H63.2324C63.373 69.0925 63.9004 68.8054 64.6562 68.8054C65.5996 68.8054 66.0859 69.2332 66.0859 70.0125V70.5867L64.2637 70.698C62.793 70.7859 61.9609 71.4363 61.9609 72.5671C61.9609 73.7214 62.8691 74.448 64.0938 74.448ZM64.2812 73.5632C63.5488 73.5632 63.0039 73.1882 63.0039 72.5437C63.0039 71.9109 63.4258 71.5769 64.3867 71.5125L66.0859 71.4011V71.9812C66.0859 72.8835 65.3184 73.5632 64.2812 73.5632Z" fill="#111111"/>
<path d="M68.957 74.3367H69.9648V70.5984C69.9648 69.491 70.6152 68.8171 71.623 68.8171C72.6309 68.8171 73.1113 69.3562 73.1113 70.4929V74.3367H74.1191V70.2468C74.1191 68.7468 73.3281 67.9089 71.9102 67.9089C70.9434 67.9089 70.3281 68.3191 70.0117 69.0164H69.918V68.0203H68.957V74.3367Z" fill="#111111"/>
<path d="M81.1914 69.9539C81.0156 68.8289 80.0781 67.9089 78.543 67.9089C76.7734 67.9089 75.6484 69.1863 75.6484 71.155C75.6484 73.1648 76.7793 74.448 78.5488 74.448C80.0664 74.448 81.0098 73.5925 81.1914 72.4324H80.1719C79.9844 73.1472 79.3926 73.5398 78.543 73.5398C77.418 73.5398 76.6914 72.614 76.6914 71.155C76.6914 69.7253 77.4062 68.8171 78.543 68.8171C79.4512 68.8171 80.0078 69.3269 80.1719 69.9539H81.1914Z" fill="#111111"/>
<path d="M86.8633 72.7019C86.5996 73.2585 86.0488 73.5574 85.2344 73.5574C84.1621 73.5574 83.4648 72.7664 83.4121 71.5183V71.4714H87.9531V71.0847C87.9531 69.1218 86.916 67.9089 85.2109 67.9089C83.4766 67.9089 82.3633 69.198 82.3633 71.1843C82.3633 73.1824 83.459 74.448 85.2109 74.448C86.5938 74.448 87.5781 73.78 87.8711 72.7019H86.8633ZM85.1992 68.7996C86.2012 68.7996 86.8691 69.5378 86.8926 70.657H83.4121C83.4883 69.5378 84.1914 68.7996 85.1992 68.7996Z" fill="#111111"/>
<path d="M94.6797 74.448C95.5234 74.448 96.2148 74.0789 96.625 73.405H96.7188V74.3367H97.6797V70.0125C97.6797 68.7 96.8184 67.9089 95.2773 67.9089C93.9297 67.9089 92.9336 68.5769 92.7988 69.5906H93.8184C93.959 69.0925 94.4863 68.8054 95.2422 68.8054C96.1855 68.8054 96.6719 69.2332 96.6719 70.0125V70.5867L94.8496 70.698C93.3789 70.7859 92.5469 71.4363 92.5469 72.5671C92.5469 73.7214 93.4551 74.448 94.6797 74.448ZM94.8672 73.5632C94.1348 73.5632 93.5898 73.1882 93.5898 72.5437C93.5898 71.9109 94.0117 71.5769 94.9727 71.5125L96.6719 71.4011V71.9812C96.6719 72.8835 95.9043 73.5632 94.8672 73.5632Z" fill="#111111"/>
<path d="M99.543 74.3367H100.551V70.5984C100.551 69.491 101.201 68.8171 102.209 68.8171C103.217 68.8171 103.697 69.3562 103.697 70.4929V74.3367H104.705V70.2468C104.705 68.7468 103.914 67.9089 102.496 67.9089C101.529 67.9089 100.914 68.3191 100.598 69.0164H100.504V68.0203H99.543V74.3367Z" fill="#111111"/>
<path d="M108.889 74.448C109.762 74.448 110.512 74.032 110.91 73.3289H111.004V74.3367H111.965V65.5125H110.957V69.0164H110.869C110.512 68.325 109.768 67.9089 108.889 67.9089C107.283 67.9089 106.234 69.198 106.234 71.1785C106.234 73.1648 107.271 74.448 108.889 74.448ZM109.123 68.8171C110.266 68.8171 110.98 69.7312 110.98 71.1785C110.98 72.6375 110.271 73.5398 109.123 73.5398C107.969 73.5398 107.277 72.655 107.277 71.1785C107.277 69.7078 107.975 68.8171 109.123 68.8171Z" fill="#111111"/>
<path d="M119.066 74.448C119.91 74.448 120.602 74.0789 121.012 73.405H121.105V74.3367H122.066V70.0125C122.066 68.7 121.205 67.9089 119.664 67.9089C118.316 67.9089 117.32 68.5769 117.186 69.5906H118.205C118.346 69.0925 118.873 68.8054 119.629 68.8054C120.572 68.8054 121.059 69.2332 121.059 70.0125V70.5867L119.236 70.698C117.766 70.7859 116.934 71.4363 116.934 72.5671C116.934 73.7214 117.842 74.448 119.066 74.448ZM119.254 73.5632C118.521 73.5632 117.977 73.1882 117.977 72.5437C117.977 71.9109 118.398 71.5769 119.359 71.5125L121.059 71.4011V71.9812C121.059 72.8835 120.291 73.5632 119.254 73.5632Z" fill="#111111"/>
<path d="M123.93 74.3367H124.938V70.4226C124.938 69.532 125.635 68.8875 126.596 68.8875C126.795 68.8875 127.158 68.9226 127.24 68.946V67.9382C127.111 67.9207 126.9 67.9089 126.736 67.9089C125.898 67.9089 125.172 68.3425 124.984 68.9578H124.891V68.0203H123.93V74.3367Z" fill="#111111"/>
<path d="M132.508 72.7019C132.244 73.2585 131.693 73.5574 130.879 73.5574C129.807 73.5574 129.109 72.7664 129.057 71.5183V71.4714H133.598V71.0847C133.598 69.1218 132.561 67.9089 130.855 67.9089C129.121 67.9089 128.008 69.198 128.008 71.1843C128.008 73.1824 129.104 74.448 130.855 74.448C132.238 74.448 133.223 73.78 133.516 72.7019H132.508ZM130.844 68.7996C131.846 68.7996 132.514 69.5378 132.537 70.657H129.057C129.133 69.5378 129.836 68.7996 130.844 68.7996Z" fill="#111111"/>
<path d="M138.988 66.3855V68.0203H137.969V68.864H138.988V72.696C138.988 73.9031 139.51 74.3835 140.811 74.3835C141.01 74.3835 141.203 74.3601 141.402 74.325V73.4753C141.215 73.4929 141.115 73.4988 140.934 73.4988C140.277 73.4988 139.996 73.1824 139.996 72.4382V68.864H141.402V68.0203H139.996V66.3855H138.988Z" fill="#111111"/>
<path d="M144.684 74.448C145.527 74.448 146.219 74.0789 146.629 73.405H146.723V74.3367H147.684V70.0125C147.684 68.7 146.822 67.9089 145.281 67.9089C143.934 67.9089 142.938 68.5769 142.803 69.5906H143.822C143.963 69.0925 144.49 68.8054 145.246 68.8054C146.189 68.8054 146.676 69.2332 146.676 70.0125V70.5867L144.854 70.698C143.383 70.7859 142.551 71.4363 142.551 72.5671C142.551 73.7214 143.459 74.448 144.684 74.448ZM144.871 73.5632C144.139 73.5632 143.594 73.1882 143.594 72.5437C143.594 71.9109 144.016 71.5769 144.977 71.5125L146.676 71.4011V71.9812C146.676 72.8835 145.908 73.5632 144.871 73.5632Z" fill="#111111"/>
<path d="M150.074 66.8015C150.461 66.8015 150.777 66.4851 150.777 66.0984C150.777 65.7117 150.461 65.3953 150.074 65.3953C149.688 65.3953 149.371 65.7117 149.371 66.0984C149.371 66.4851 149.688 66.8015 150.074 66.8015ZM149.57 74.3367H150.578V68.0203H149.57V74.3367Z" fill="#111111"/>
<path d="M152.559 74.3367H153.566V65.5125H152.559V74.3367Z" fill="#111111"/>
<path d="M158.119 74.448C159.918 74.448 161.031 73.2058 161.031 71.1785C161.031 69.1453 159.918 67.9089 158.119 67.9089C156.32 67.9089 155.207 69.1453 155.207 71.1785C155.207 73.2058 156.32 74.448 158.119 74.448ZM158.119 73.5398C156.924 73.5398 156.25 72.6726 156.25 71.1785C156.25 69.6785 156.924 68.8171 158.119 68.8171C159.314 68.8171 159.988 69.6785 159.988 71.1785C159.988 72.6726 159.314 73.5398 158.119 73.5398Z" fill="#111111"/>
<path d="M162.613 74.3367H163.621V70.4226C163.621 69.532 164.318 68.8875 165.279 68.8875C165.479 68.8875 165.842 68.9226 165.924 68.946V67.9382C165.795 67.9207 165.584 67.9089 165.42 67.9089C164.582 67.9089 163.855 68.3425 163.668 68.9578H163.574V68.0203H162.613V74.3367Z" fill="#111111"/>
<path d="M171.191 72.7019C170.928 73.2585 170.377 73.5574 169.562 73.5574C168.49 73.5574 167.793 72.7664 167.74 71.5183V71.4714H172.281V71.0847C172.281 69.1218 171.244 67.9089 169.539 67.9089C167.805 67.9089 166.691 69.198 166.691 71.1843C166.691 73.1824 167.787 74.448 169.539 74.448C170.922 74.448 171.906 73.78 172.199 72.7019H171.191ZM169.527 68.7996C170.529 68.7996 171.197 69.5378 171.221 70.657H167.74C167.816 69.5378 168.52 68.7996 169.527 68.7996Z" fill="#111111"/>
<path d="M176.201 74.448C177.074 74.448 177.824 74.032 178.223 73.3289H178.316V74.3367H179.277V65.5125H178.27V69.0164H178.182C177.824 68.325 177.08 67.9089 176.201 67.9089C174.596 67.9089 173.547 69.198 173.547 71.1785C173.547 73.1648 174.584 74.448 176.201 74.448ZM176.436 68.8171C177.578 68.8171 178.293 69.7312 178.293 71.1785C178.293 72.6375 177.584 73.5398 176.436 73.5398C175.281 73.5398 174.59 72.655 174.59 71.1785C174.59 69.7078 175.287 68.8171 176.436 68.8171Z" fill="#111111"/>
<path d="M185.043 66.3855V68.0203H184.023V68.864H185.043V72.696C185.043 73.9031 185.564 74.3835 186.865 74.3835C187.064 74.3835 187.258 74.3601 187.457 74.325V73.4753C187.27 73.4929 187.17 73.4988 186.988 73.4988C186.332 73.4988 186.051 73.1824 186.051 72.4382V68.864H187.457V68.0203H186.051V66.3855H185.043Z" fill="#111111"/>
<path d="M191.482 74.448C193.281 74.448 194.395 73.2058 194.395 71.1785C194.395 69.1453 193.281 67.9089 191.482 67.9089C189.684 67.9089 188.57 69.1453 188.57 71.1785C188.57 73.2058 189.684 74.448 191.482 74.448ZM191.482 73.5398C190.287 73.5398 189.613 72.6726 189.613 71.1785C189.613 69.6785 190.287 68.8171 191.482 68.8171C192.678 68.8171 193.352 69.6785 193.352 71.1785C193.352 72.6726 192.678 73.5398 191.482 73.5398Z" fill="#111111"/>
<path d="M199.217 69.7488C199.217 70.6628 199.756 71.1726 200.939 71.4597L202.023 71.7234C202.697 71.8875 203.025 72.1804 203.025 72.614C203.025 73.1941 202.416 73.5984 201.566 73.5984C200.758 73.5984 200.254 73.2585 200.084 72.7253H199.047C199.158 73.7742 200.125 74.448 201.531 74.448C202.967 74.448 204.062 73.6687 204.062 72.5378C204.062 71.6296 203.488 71.114 202.299 70.8269L201.326 70.5925C200.582 70.4109 200.23 70.1414 200.23 69.7078C200.23 69.1453 200.816 68.7644 201.566 68.7644C202.328 68.7644 202.82 69.0984 202.955 69.6023H203.951C203.816 68.5652 202.896 67.9089 201.572 67.9089C200.23 67.9089 199.217 68.7 199.217 69.7488Z" fill="#111111"/>
<path d="M210.754 68.0203H209.746V71.7585C209.746 72.866 209.137 73.5281 208.023 73.5281C207.016 73.5281 206.594 73.0007 206.594 71.864V68.0203H205.586V72.1101C205.586 73.6042 206.324 74.448 207.742 74.448C208.709 74.448 209.383 74.0496 209.699 73.3464H209.793V74.3367H210.754V68.0203Z" fill="#111111"/>
<path d="M213.18 66.8015C213.566 66.8015 213.883 66.4851 213.883 66.0984C213.883 65.7117 213.566 65.3953 213.18 65.3953C212.793 65.3953 212.477 65.7117 212.477 66.0984C212.477 66.4851 212.793 66.8015 213.18 66.8015ZM212.676 74.3367H213.684V68.0203H212.676V74.3367Z" fill="#111111"/>
<path d="M216.027 66.3855V68.0203H215.008V68.864H216.027V72.696C216.027 73.9031 216.549 74.3835 217.85 74.3835C218.049 74.3835 218.242 74.3601 218.441 74.325V73.4753C218.254 73.4929 218.154 73.4988 217.973 73.4988C217.316 73.4988 217.035 73.1824 217.035 72.4382V68.864H218.441V68.0203H217.035V66.3855H216.027Z" fill="#111111"/>
<path d="M223.891 76.6218C225.01 76.6218 225.514 76.1882 226.053 74.7234L228.52 68.0203H227.447L225.719 73.2175H225.625L223.891 68.0203H222.801L225.139 74.3425L225.021 74.7175C224.758 75.4792 224.441 75.7546 223.861 75.7546C223.721 75.7546 223.562 75.7488 223.439 75.7253V76.5867C223.58 76.6101 223.756 76.6218 223.891 76.6218Z" fill="#111111"/>
<path d="M232.229 74.448C234.027 74.448 235.141 73.2058 235.141 71.1785C235.141 69.1453 234.027 67.9089 232.229 67.9089C230.43 67.9089 229.316 69.1453 229.316 71.1785C229.316 73.2058 230.43 74.448 232.229 74.448ZM232.229 73.5398C231.033 73.5398 230.359 72.6726 230.359 71.1785C230.359 69.6785 231.033 68.8171 232.229 68.8171C233.424 68.8171 234.098 69.6785 234.098 71.1785C234.098 72.6726 233.424 73.5398 232.229 73.5398Z" fill="#111111"/>
<path d="M241.832 68.0203H240.824V71.7585C240.824 72.866 240.215 73.5281 239.102 73.5281C238.094 73.5281 237.672 73.0007 237.672 71.864V68.0203H236.664V72.1101C236.664 73.6042 237.402 74.448 238.82 74.448C239.787 74.448 240.461 74.0496 240.777 73.3464H240.871V74.3367H241.832V68.0203Z" fill="#111111"/>
<path d="M243.73 74.3367H244.738V70.4226C244.738 69.532 245.436 68.8875 246.396 68.8875C246.596 68.8875 246.959 68.9226 247.041 68.946V67.9382C246.912 67.9207 246.701 67.9089 246.537 67.9089C245.699 67.9089 244.973 68.3425 244.785 68.9578H244.691V68.0203H243.73V74.3367Z" fill="#111111"/>
<path d="M20.0898 88.448C21.6895 88.448 22.7383 87.1531 22.7383 85.1785C22.7383 83.1921 21.6953 81.9089 20.0898 81.9089C19.2227 81.9089 18.4551 82.3367 18.1094 83.0164H18.0156V79.5125H17.0078V88.3367H17.9688V87.3289H18.0625C18.4609 88.032 19.2109 88.448 20.0898 88.448ZM19.8555 82.8171C21.0098 82.8171 21.6953 83.7019 21.6953 85.1785C21.6953 86.655 21.0098 87.5398 19.8555 87.5398C18.707 87.5398 17.9922 86.6375 17.9922 85.1785C17.9922 83.7195 18.707 82.8171 19.8555 82.8171Z" fill="#111111"/>
<path d="M29.4297 82.0203H28.4219V85.7585C28.4219 86.866 27.8125 87.5281 26.6992 87.5281C25.6914 87.5281 25.2695 87.0007 25.2695 85.864V82.0203H24.2617V86.1101C24.2617 87.6042 25 88.448 26.418 88.448C27.3848 88.448 28.0586 88.0496 28.375 87.3464H28.4688V88.3367H29.4297V82.0203Z" fill="#111111"/>
<path d="M31.1816 83.7488C31.1816 84.6628 31.7207 85.1726 32.9043 85.4597L33.9883 85.7234C34.6621 85.8875 34.9902 86.1804 34.9902 86.614C34.9902 87.1941 34.3809 87.5984 33.5312 87.5984C32.7227 87.5984 32.2188 87.2585 32.0488 86.7253H31.0117C31.123 87.7742 32.0898 88.448 33.4961 88.448C34.9316 88.448 36.0273 87.6687 36.0273 86.5378C36.0273 85.6296 35.4531 85.114 34.2637 84.8269L33.291 84.5925C32.5469 84.4109 32.1953 84.1414 32.1953 83.7078C32.1953 83.1453 32.7812 82.7644 33.5312 82.7644C34.293 82.7644 34.7852 83.0984 34.9199 83.6023H35.916C35.7812 82.5652 34.8613 81.9089 33.5371 81.9089C32.1953 81.9089 31.1816 82.7 31.1816 83.7488Z" fill="#111111"/>
<path d="M38.1367 80.8015C38.5234 80.8015 38.8398 80.4851 38.8398 80.0984C38.8398 79.7117 38.5234 79.3953 38.1367 79.3953C37.75 79.3953 37.4336 79.7117 37.4336 80.0984C37.4336 80.4851 37.75 80.8015 38.1367 80.8015ZM37.6328 88.3367H38.6406V82.0203H37.6328V88.3367Z" fill="#111111"/>
<path d="M40.5625 88.3367H41.5703V84.5984C41.5703 83.491 42.2207 82.8171 43.2285 82.8171C44.2363 82.8171 44.7168 83.3562 44.7168 84.4929V88.3367H45.7246V84.2468C45.7246 82.7468 44.9336 81.9089 43.5156 81.9089C42.5488 81.9089 41.9336 82.3191 41.6172 83.0164H41.5234V82.0203H40.5625V88.3367Z" fill="#111111"/>
<path d="M51.7539 86.7019C51.4902 87.2585 50.9395 87.5574 50.125 87.5574C49.0527 87.5574 48.3555 86.7664 48.3027 85.5183V85.4714H52.8438V85.0847C52.8438 83.1218 51.8066 81.9089 50.1016 81.9089C48.3672 81.9089 47.2539 83.198 47.2539 85.1843C47.2539 87.1824 48.3496 88.448 50.1016 88.448C51.4844 88.448 52.4688 87.78 52.7617 86.7019H51.7539ZM50.0898 82.7996C51.0918 82.7996 51.7598 83.5378 51.7832 84.657H48.3027C48.3789 83.5378 49.082 82.7996 50.0898 82.7996Z" fill="#111111"/>
<path d="M54.2793 83.7488C54.2793 84.6628 54.8184 85.1726 56.002 85.4597L57.0859 85.7234C57.7598 85.8875 58.0879 86.1804 58.0879 86.614C58.0879 87.1941 57.4785 87.5984 56.6289 87.5984C55.8203 87.5984 55.3164 87.2585 55.1465 86.7253H54.1094C54.2207 87.7742 55.1875 88.448 56.5938 88.448C58.0293 88.448 59.125 87.6687 59.125 86.5378C59.125 85.6296 58.5508 85.114 57.3613 84.8269L56.3887 84.5925C55.6445 84.4109 55.293 84.1414 55.293 83.7078C55.293 83.1453 55.8789 82.7644 56.6289 82.7644C57.3906 82.7644 57.8828 83.0984 58.0176 83.6023H59.0137C58.8789 82.5652 57.959 81.9089 56.6348 81.9089C55.293 81.9089 54.2793 82.7 54.2793 83.7488Z" fill="#111111"/>
<path d="M60.4434 83.7488C60.4434 84.6628 60.9824 85.1726 62.166 85.4597L63.25 85.7234C63.9238 85.8875 64.252 86.1804 64.252 86.614C64.252 87.1941 63.6426 87.5984 62.793 87.5984C61.9844 87.5984 61.4805 87.2585 61.3105 86.7253H60.2734C60.3848 87.7742 61.3516 88.448 62.7578 88.448C64.1934 88.448 65.2891 87.6687 65.2891 86.5378C65.2891 85.6296 64.7148 85.114 63.5254 84.8269L62.5527 84.5925C61.8086 84.4109 61.457 84.1414 61.457 83.7078C61.457 83.1453 62.043 82.7644 62.793 82.7644C63.5547 82.7644 64.0469 83.0984 64.1816 83.6023H65.1777C65.043 82.5652 64.123 81.9089 62.7988 81.9089C61.457 81.9089 60.4434 82.7 60.4434 83.7488Z" fill="#111111"/>
<path d="M70.2578 88.3367H71.2656V84.5984C71.2656 83.491 71.916 82.8171 72.9238 82.8171C73.9316 82.8171 74.4121 83.3562 74.4121 84.4929V88.3367H75.4199V84.2468C75.4199 82.7468 74.6289 81.9089 73.2109 81.9089C72.2441 81.9089 71.6289 82.3191 71.3125 83.0164H71.2188V82.0203H70.2578V88.3367Z" fill="#111111"/>
<path d="M81.4492 86.7019C81.1855 87.2585 80.6348 87.5574 79.8203 87.5574C78.748 87.5574 78.0508 86.7664 77.998 85.5183V85.4714H82.5391V85.0847C82.5391 83.1218 81.502 81.9089 79.7969 81.9089C78.0625 81.9089 76.9492 83.198 76.9492 85.1843C76.9492 87.1824 78.0449 88.448 79.7969 88.448C81.1797 88.448 82.1641 87.78 82.457 86.7019H81.4492ZM79.7852 82.7996C80.7871 82.7996 81.4551 83.5378 81.4785 84.657H77.998C78.0742 83.5378 78.7773 82.7996 79.7852 82.7996Z" fill="#111111"/>
<path d="M88.3047 86.7019C88.041 87.2585 87.4902 87.5574 86.6758 87.5574C85.6035 87.5574 84.9062 86.7664 84.8535 85.5183V85.4714H89.3945V85.0847C89.3945 83.1218 88.3574 81.9089 86.6523 81.9089C84.918 81.9089 83.8047 83.198 83.8047 85.1843C83.8047 87.1824 84.9004 88.448 86.6523 88.448C88.0352 88.448 89.0195 87.78 89.3125 86.7019H88.3047ZM86.6406 82.7996C87.6426 82.7996 88.3105 83.5378 88.334 84.657H84.8535C84.9297 83.5378 85.6328 82.7996 86.6406 82.7996Z" fill="#111111"/>
<path d="M93.3145 88.448C94.1875 88.448 94.9375 88.032 95.3359 87.3289H95.4297V88.3367H96.3906V79.5125H95.3828V83.0164H95.2949C94.9375 82.325 94.1934 81.9089 93.3145 81.9089C91.709 81.9089 90.6602 83.198 90.6602 85.1785C90.6602 87.1648 91.6973 88.448 93.3145 88.448ZM93.5488 82.8171C94.6914 82.8171 95.4062 83.7312 95.4062 85.1785C95.4062 86.6375 94.6973 87.5398 93.5488 87.5398C92.3945 87.5398 91.7031 86.655 91.7031 85.1785C91.7031 83.7078 92.4004 82.8171 93.5488 82.8171Z" fill="#111111"/>
<path d="M98.2012 83.7488C98.2012 84.6628 98.7402 85.1726 99.9238 85.4597L101.008 85.7234C101.682 85.8875 102.01 86.1804 102.01 86.614C102.01 87.1941 101.4 87.5984 100.551 87.5984C99.7422 87.5984 99.2383 87.2585 99.0684 86.7253H98.0312C98.1426 87.7742 99.1094 88.448 100.516 88.448C101.951 88.448 103.047 87.6687 103.047 86.5378C103.047 85.6296 102.473 85.114 101.283 84.8269L100.311 84.5925C99.5664 84.4109 99.2148 84.1414 99.2148 83.7078C99.2148 83.1453 99.8008 82.7644 100.551 82.7644C101.312 82.7644 101.805 83.0984 101.939 83.6023H102.936C102.801 82.5652 101.881 81.9089 100.557 81.9089C99.2148 81.9089 98.2012 82.7 98.2012 83.7488Z" fill="#111111"/>
<g clip-path="url(#clip0_145_6108)">
<path d="M101.279 119.48V127.231H104.185C106.505 127.231 107.832 125.807 107.832 123.321C107.832 120.887 106.489 119.48 104.185 119.48H101.279ZM102.665 120.646H104.002C105.522 120.646 106.419 121.634 106.419 123.342C106.419 125.088 105.544 126.065 104.002 126.065H102.665V120.646Z" fill="#111111"/>
<path d="M109.959 120.377C110.399 120.377 110.759 120.028 110.759 119.588C110.759 119.153 110.399 118.798 109.959 118.798C109.524 118.798 109.164 119.153 109.164 119.588C109.164 120.028 109.524 120.377 109.959 120.377ZM109.298 127.231H110.625V121.36H109.298V127.231Z" fill="#111111"/>
<path d="M112.145 123.036C112.145 123.917 112.677 124.432 113.805 124.69L114.847 124.932C115.405 125.061 115.658 125.276 115.658 125.609C115.658 126.054 115.19 126.361 114.519 126.361C113.853 126.361 113.439 126.092 113.311 125.657H111.995C112.097 126.715 113.021 127.349 114.487 127.349C115.953 127.349 116.99 126.602 116.99 125.48C116.99 124.615 116.469 124.137 115.346 123.879L114.31 123.648C113.719 123.509 113.439 123.299 113.439 122.966C113.439 122.531 113.896 122.236 114.503 122.236C115.126 122.236 115.518 122.504 115.615 122.918H116.866C116.77 121.86 115.894 121.247 114.498 121.247C113.112 121.247 112.145 121.983 112.145 123.036Z" fill="#111111"/>
<path d="M118.338 127.231H119.67V123.659C119.67 122.928 120.159 122.375 120.819 122.375C121.475 122.375 121.883 122.773 121.883 123.423V127.231H123.177V123.562C123.177 122.891 123.634 122.375 124.327 122.375C125.041 122.375 125.401 122.757 125.401 123.519V127.231H126.728V123.192C126.728 121.972 126.019 121.247 124.842 121.247C124.026 121.247 123.349 121.666 123.059 122.305H122.968C122.721 121.656 122.157 121.247 121.346 121.247C120.567 121.247 119.965 121.645 119.713 122.305H119.622V121.36H118.338V127.231Z" fill="#111111"/>
<path d="M128.983 120.377C129.424 120.377 129.784 120.028 129.784 119.588C129.784 119.153 129.424 118.798 128.983 118.798C128.548 118.798 128.188 119.153 128.188 119.588C128.188 120.028 128.548 120.377 128.983 120.377ZM128.323 127.231H129.649V121.36H128.323V127.231Z" fill="#111111"/>
<path d="M131.169 123.036C131.169 123.917 131.701 124.432 132.829 124.69L133.871 124.932C134.43 125.061 134.682 125.276 134.682 125.609C134.682 126.054 134.215 126.361 133.543 126.361C132.877 126.361 132.464 126.092 132.335 125.657H131.019C131.121 126.715 132.045 127.349 133.511 127.349C134.978 127.349 136.014 126.602 136.014 125.48C136.014 124.615 135.493 124.137 134.371 123.879L133.334 123.648C132.743 123.509 132.464 123.299 132.464 122.966C132.464 122.531 132.92 122.236 133.527 122.236C134.15 122.236 134.542 122.504 134.639 122.918H135.891C135.794 121.86 134.918 121.247 133.522 121.247C132.136 121.247 131.169 121.983 131.169 123.036Z" fill="#111111"/>
<path d="M137.121 123.036C137.121 123.917 137.652 124.432 138.78 124.69L139.822 124.932C140.381 125.061 140.633 125.276 140.633 125.609C140.633 126.054 140.166 126.361 139.495 126.361C138.829 126.361 138.415 126.092 138.286 125.657H136.97C137.072 126.715 137.996 127.349 139.462 127.349C140.929 127.349 141.965 126.602 141.965 125.48C141.965 124.615 141.444 124.137 140.322 123.879L139.285 123.648C138.694 123.509 138.415 123.299 138.415 122.966C138.415 122.531 138.872 122.236 139.479 122.236C140.102 122.236 140.494 122.504 140.59 122.918H141.842C141.745 121.86 140.87 121.247 139.473 121.247C138.087 121.247 137.121 121.983 137.121 123.036Z" fill="#111111"/>
<rect x="92.8691" y="111.202" width="57.5064" height="23.7434" rx="11.8717" stroke="#767676" stroke-width="0.542593"/>
<rect x="158.647" y="110.93" width="42.8219" height="24.286" rx="12.143" fill="#767676"/>
<path d="M171.631 127.231L174.311 119.48H172.834L170.9 125.646H170.809L168.859 119.48H167.328L170.035 127.231H171.631Z" fill="white"/>
<path d="M176.185 120.377C176.626 120.377 176.986 120.028 176.986 119.588C176.986 119.153 176.626 118.798 176.185 118.798C175.75 118.798 175.39 119.153 175.39 119.588C175.39 120.028 175.75 120.377 176.185 120.377ZM175.525 127.231H176.851V121.36H175.525V127.231Z" fill="white"/>
<path d="M182.335 125.625C182.142 126.065 181.685 126.312 181.025 126.312C180.149 126.312 179.585 125.689 179.553 124.696V124.626H183.656V124.201C183.656 122.359 182.652 121.247 180.976 121.247C179.274 121.247 178.216 122.434 178.216 124.32C178.216 126.199 179.258 127.349 180.987 127.349C182.373 127.349 183.356 126.683 183.597 125.625H182.335ZM180.971 122.284C181.771 122.284 182.298 122.848 182.324 123.74H179.558C179.617 122.859 180.176 122.284 180.971 122.284Z" fill="white"/>
<path d="M192.787 121.36H191.461L190.488 125.77H190.397L189.258 121.36H187.986L186.858 125.77H186.766L185.789 121.36H184.446L186.036 127.231H187.422L188.56 122.977H188.652L189.796 127.231H191.197L192.787 121.36Z" fill="white"/>
</g>
<rect x="0.5" y="0.981201" width="292" height="150" rx="7.5" stroke="#767676"/>
<defs>
<clipPath id="clip0_145_6108">
<rect width="108.871" height="24.286" fill="white" transform="translate(92.5978 110.93)"/>
</clipPath>
</defs>
</svg>
