<svg viewBox="0 0 293 130" fill="none" xmlns="http://www.w3.org/2000/svg">
<rect x="0.5" y="0.981201" width="292" height="128" rx="7.5" fill="white"/>
<path d="M16.9922 23.2078V34.4812H19.0078V30.7546H21.2891C23.5703 30.7546 25.1719 29.2312 25.1719 26.9812C25.1719 24.7312 23.6172 23.2078 21.375 23.2078H16.9922ZM19.0078 24.8562H20.8438C22.2891 24.8562 23.125 25.6296 23.125 26.9812C23.125 28.3484 22.2812 29.1296 20.8359 29.1296H19.0078V24.8562Z" fill="#111111"/>
<path d="M27.4688 24.95C28.0625 24.95 28.5312 24.4734 28.5312 23.8953C28.5312 23.3093 28.0625 22.8406 27.4688 22.8406C26.875 22.8406 26.3984 23.3093 26.3984 23.8953C26.3984 24.4734 26.875 24.95 27.4688 24.95ZM26.5 34.4812H28.4453V26.2H26.5V34.4812Z" fill="#111111"/>
<path d="M30.0781 34.4812H32.0234V29.6843C32.0234 28.4968 32.7344 27.6921 33.8516 27.6921C34.9609 27.6921 35.5078 28.3484 35.5078 29.5203V34.4812H37.4531V29.1296C37.4531 27.2156 36.4141 26.0437 34.5859 26.0437C33.3125 26.0437 32.4297 26.6375 31.9844 27.6218H31.9453V26.2H30.0781V34.4812Z" fill="#111111"/>
<path d="M42.0703 28.575C42.0703 29.8015 42.8672 30.5828 44.4531 30.9343L45.8281 31.239C46.6953 31.4343 46.9922 31.7156 46.9922 32.2156C46.9922 32.8328 46.4062 33.2234 45.4609 33.2234C44.4766 33.2234 43.9219 32.8171 43.7734 32.0125H41.8594C42.0156 33.614 43.2969 34.6453 45.4609 34.6453C47.4922 34.6453 48.9297 33.5906 48.9297 32.0281C48.9297 30.825 48.2656 30.1609 46.5469 29.7781L45.1719 29.4734C44.3047 29.2781 43.9609 28.95 43.9609 28.4734C43.9609 27.864 44.5312 27.4578 45.3906 27.4578C46.2891 27.4578 46.8438 27.9343 46.9219 28.6843H48.7344C48.6875 27.114 47.4062 26.0281 45.3906 26.0281C43.3906 26.0281 42.0703 27.0593 42.0703 28.575Z" fill="#111111"/>
<path d="M52.6094 34.614C53.6719 34.614 54.7109 34.0593 55.1875 33.1609H55.2266V34.4812H57.1016V28.7781C57.1016 27.114 55.7656 26.0281 53.7109 26.0281C51.6016 26.0281 50.2812 27.1375 50.1953 28.6843H52C52.125 27.9968 52.7109 27.5515 53.6328 27.5515C54.5938 27.5515 55.1797 28.0515 55.1797 28.9187V29.5125L52.9922 29.6375C50.9766 29.7625 49.8438 30.6453 49.8438 32.114C49.8438 33.6062 51.0078 34.614 52.6094 34.614ZM53.1953 33.1453C52.3516 33.1453 51.7891 32.7156 51.7891 32.0359C51.7891 31.3796 52.3281 30.9578 53.2656 30.8953L55.1797 30.7781V31.4109C55.1797 32.4109 54.2969 33.1453 53.1953 33.1453Z" fill="#111111"/>
<path d="M65.9297 26.2H63.8984L61.9766 32.6765H61.9375L60.0156 26.2H57.9375L60.875 34.4812H63.0156L65.9297 26.2Z" fill="#111111"/>
<path d="M72.0781 32.0046C71.8672 32.6921 71.1797 33.1453 70.2734 33.1453C69 33.1453 68.1875 32.2546 68.1875 30.9265V30.8093H73.9766V30.1765C73.9766 27.6609 72.5078 26.0281 70.1562 26.0281C67.7656 26.0281 66.25 27.7546 66.25 30.3718C66.25 33.0125 67.75 34.6453 70.2344 34.6453C72.1953 34.6453 73.6484 33.5671 73.8984 32.0046H72.0781ZM70.1641 27.5359C71.2812 27.5359 72.0312 28.3562 72.0703 29.5281H68.2031C68.2812 28.3718 69.0703 27.5359 70.1641 27.5359Z" fill="#111111"/>
<path d="M78.3281 34.614C79.5391 34.614 80.4922 33.9968 80.9453 33.0671H80.9766V34.4812H82.8828V23.2078H80.9375V27.5906H80.8906C80.4531 26.6765 79.5156 26.0593 78.3281 26.0593C76.2422 26.0593 74.8906 27.7156 74.8906 30.3328C74.8906 32.9656 76.2422 34.614 78.3281 34.614ZM78.9141 27.6609C80.1406 27.6609 80.9453 28.7156 80.9453 30.3406C80.9453 31.9812 80.1406 33.0203 78.9141 33.0203C77.6562 33.0203 76.8828 31.989 76.8828 30.3406C76.8828 28.7 77.6641 27.6609 78.9141 27.6609Z" fill="#111111"/>
<path d="M85.1016 23.2078L85.2578 30.7625H86.9531L87.1094 23.2078H85.1016ZM86.1016 34.6375C86.7422 34.6375 87.2422 34.1453 87.2422 33.5281C87.2422 32.9109 86.7422 32.4265 86.1016 32.4265C85.4688 32.4265 84.9688 32.9109 84.9688 33.5281C84.9688 34.1453 85.4688 34.6375 86.1016 34.6375Z" fill="#111111"/>
<path d="M17.0781 51.8816V60.3367H18.1328V57.3191H20.2598C21.8477 57.3191 22.9785 56.2 22.9785 54.6179C22.9785 53.0066 21.8711 51.8816 20.2715 51.8816H17.0781ZM18.1328 52.8191H19.9961C21.2207 52.8191 21.8945 53.4578 21.8945 54.6179C21.8945 55.7371 21.1973 56.3816 19.9961 56.3816H18.1328V52.8191Z" fill="#111111"/>
<path d="M25.1055 52.8015C25.4922 52.8015 25.8086 52.4851 25.8086 52.0984C25.8086 51.7117 25.4922 51.3953 25.1055 51.3953C24.7188 51.3953 24.4023 51.7117 24.4023 52.0984C24.4023 52.4851 24.7188 52.8015 25.1055 52.8015ZM24.6016 60.3367H25.6094V54.0203H24.6016V60.3367Z" fill="#111111"/>
<path d="M27.5312 60.3367H28.5391V56.5984C28.5391 55.491 29.1895 54.8171 30.1973 54.8171C31.2051 54.8171 31.6855 55.3562 31.6855 56.4929V60.3367H32.6934V56.2468C32.6934 54.7468 31.9023 53.9089 30.4844 53.9089C29.5176 53.9089 28.9023 54.3191 28.5859 55.0164H28.4922V54.0203H27.5312V60.3367Z" fill="#111111"/>
<path d="M45.8711 54.0203H44.8574L43.6152 59.071H43.5215L42.1094 54.0203H41.1426L39.7305 59.071H39.6367L38.3945 54.0203H37.375L39.1445 60.3367H40.1641L41.5703 55.45H41.6641L43.0762 60.3367H44.1016L45.8711 54.0203Z" fill="#111111"/>
<path d="M48.8008 60.448C49.6445 60.448 50.3359 60.0789 50.7461 59.405H50.8398V60.3367H51.8008V56.0125C51.8008 54.7 50.9395 53.9089 49.3984 53.9089C48.0508 53.9089 47.0547 54.5769 46.9199 55.5906H47.9395C48.0801 55.0925 48.6074 54.8054 49.3633 54.8054C50.3066 54.8054 50.793 55.2332 50.793 56.0125V56.5867L48.9707 56.698C47.5 56.7859 46.668 57.4363 46.668 58.5671C46.668 59.7214 47.5762 60.448 48.8008 60.448ZM48.9883 59.5632C48.2559 59.5632 47.7109 59.1882 47.7109 58.5437C47.7109 57.9109 48.1328 57.5769 49.0938 57.5125L50.793 57.4011V57.9812C50.793 58.8835 50.0254 59.5632 48.9883 59.5632Z" fill="#111111"/>
<path d="M53.5176 55.7488C53.5176 56.6628 54.0566 57.1726 55.2402 57.4597L56.3242 57.7234C56.998 57.8875 57.3262 58.1804 57.3262 58.614C57.3262 59.1941 56.7168 59.5984 55.8672 59.5984C55.0586 59.5984 54.5547 59.2585 54.3848 58.7253H53.3477C53.459 59.7742 54.4258 60.448 55.832 60.448C57.2676 60.448 58.3633 59.6687 58.3633 58.5378C58.3633 57.6296 57.7891 57.114 56.5996 56.8269L55.627 56.5925C54.8828 56.4109 54.5312 56.1414 54.5312 55.7078C54.5312 55.1453 55.1172 54.7644 55.8672 54.7644C56.6289 54.7644 57.1211 55.0984 57.2559 55.6023H58.252C58.1172 54.5652 57.1973 53.9089 55.873 53.9089C54.5312 53.9089 53.5176 54.7 53.5176 55.7488Z" fill="#111111"/>
<path d="M63.1855 55.7488C63.1855 56.6628 63.7246 57.1726 64.9082 57.4597L65.9922 57.7234C66.666 57.8875 66.9941 58.1804 66.9941 58.614C66.9941 59.1941 66.3848 59.5984 65.5352 59.5984C64.7266 59.5984 64.2227 59.2585 64.0527 58.7253H63.0156C63.127 59.7742 64.0938 60.448 65.5 60.448C66.9355 60.448 68.0312 59.6687 68.0312 58.5378C68.0312 57.6296 67.457 57.114 66.2676 56.8269L65.2949 56.5925C64.5508 56.4109 64.1992 56.1414 64.1992 55.7078C64.1992 55.1453 64.7852 54.7644 65.5352 54.7644C66.2969 54.7644 66.7891 55.0984 66.9238 55.6023H67.9199C67.7852 54.5652 66.8652 53.9089 65.541 53.9089C64.1992 53.9089 63.1855 54.7 63.1855 55.7488Z" fill="#111111"/>
<path d="M71.3711 60.448C72.2148 60.448 72.9062 60.0789 73.3164 59.405H73.4102V60.3367H74.3711V56.0125C74.3711 54.7 73.5098 53.9089 71.9688 53.9089C70.6211 53.9089 69.625 54.5769 69.4902 55.5906H70.5098C70.6504 55.0925 71.1777 54.8054 71.9336 54.8054C72.877 54.8054 73.3633 55.2332 73.3633 56.0125V56.5867L71.541 56.698C70.0703 56.7859 69.2383 57.4363 69.2383 58.5671C69.2383 59.7214 70.1465 60.448 71.3711 60.448ZM71.5586 59.5632C70.8262 59.5632 70.2812 59.1882 70.2812 58.5437C70.2812 57.9109 70.7031 57.5769 71.6641 57.5125L73.3633 57.4011V57.9812C73.3633 58.8835 72.5957 59.5632 71.5586 59.5632Z" fill="#111111"/>
<path d="M81.1562 54.0203H80.0781L78.3496 59.2234H78.2559L76.5273 54.0203H75.4492L77.7871 60.3367H78.8184L81.1562 54.0203Z" fill="#111111"/>
<path d="M86.4531 58.7019C86.1895 59.2585 85.6387 59.5574 84.8242 59.5574C83.752 59.5574 83.0547 58.7664 83.002 57.5183V57.4714H87.543V57.0847C87.543 55.1218 86.5059 53.9089 84.8008 53.9089C83.0664 53.9089 81.9531 55.198 81.9531 57.1843C81.9531 59.1824 83.0488 60.448 84.8008 60.448C86.1836 60.448 87.168 59.78 87.4609 58.7019H86.4531ZM84.7891 54.7996C85.791 54.7996 86.459 55.5378 86.4824 56.657H83.002C83.0781 55.5378 83.7812 54.7996 84.7891 54.7996Z" fill="#111111"/>
<path d="M91.4629 60.448C92.3359 60.448 93.0859 60.032 93.4844 59.3289H93.5781V60.3367H94.5391V51.5125H93.5312V55.0164H93.4434C93.0859 54.325 92.3418 53.9089 91.4629 53.9089C89.8574 53.9089 88.8086 55.198 88.8086 57.1785C88.8086 59.1648 89.8457 60.448 91.4629 60.448ZM91.6973 54.8171C92.8398 54.8171 93.5547 55.7312 93.5547 57.1785C93.5547 58.6375 92.8457 59.5398 91.6973 59.5398C90.543 59.5398 89.8516 58.655 89.8516 57.1785C89.8516 55.7078 90.5488 54.8171 91.6973 54.8171Z" fill="#111111"/>
<path d="M100.305 52.3855V54.0203H99.2852V54.864H100.305V58.696C100.305 59.9031 100.826 60.3835 102.127 60.3835C102.326 60.3835 102.52 60.3601 102.719 60.325V59.4753C102.531 59.4929 102.432 59.4988 102.25 59.4988C101.594 59.4988 101.312 59.1824 101.312 58.4382V54.864H102.719V54.0203H101.312V52.3855H100.305Z" fill="#111111"/>
<path d="M106.744 60.448C108.543 60.448 109.656 59.2058 109.656 57.1785C109.656 55.1453 108.543 53.9089 106.744 53.9089C104.945 53.9089 103.832 55.1453 103.832 57.1785C103.832 59.2058 104.945 60.448 106.744 60.448ZM106.744 59.5398C105.549 59.5398 104.875 58.6726 104.875 57.1785C104.875 55.6785 105.549 54.8171 106.744 54.8171C107.939 54.8171 108.613 55.6785 108.613 57.1785C108.613 58.6726 107.939 59.5398 106.744 59.5398Z" fill="#111111"/>
<path d="M115.047 52.3855V54.0203H114.027V54.864H115.047V58.696C115.047 59.9031 115.568 60.3835 116.869 60.3835C117.068 60.3835 117.262 60.3601 117.461 60.325V59.4753C117.273 59.4929 117.174 59.4988 116.992 59.4988C116.336 59.4988 116.055 59.1824 116.055 58.4382V54.864H117.461V54.0203H116.055V52.3855H115.047Z" fill="#111111"/>
<path d="M119.043 60.3367H120.051V56.5984C120.051 55.532 120.672 54.8171 121.803 54.8171C122.758 54.8171 123.262 55.3738 123.262 56.4929V60.3367H124.27V56.2468C124.27 54.7644 123.426 53.9089 122.09 53.9089C121.123 53.9089 120.461 54.3191 120.145 55.0164H120.051V51.5125H119.043V60.3367Z" fill="#111111"/>
<path d="M130.293 58.7019C130.029 59.2585 129.479 59.5574 128.664 59.5574C127.592 59.5574 126.895 58.7664 126.842 57.5183V57.4714H131.383V57.0847C131.383 55.1218 130.346 53.9089 128.641 53.9089C126.906 53.9089 125.793 55.198 125.793 57.1843C125.793 59.1824 126.889 60.448 128.641 60.448C130.023 60.448 131.008 59.78 131.301 58.7019H130.293ZM128.629 54.7996C129.631 54.7996 130.299 55.5378 130.322 56.657H126.842C126.918 55.5378 127.621 54.7996 128.629 54.7996Z" fill="#111111"/>
<path d="M139.492 60.448C141.092 60.448 142.141 59.1531 142.141 57.1785C142.141 55.1921 141.098 53.9089 139.492 53.9089C138.625 53.9089 137.857 54.3367 137.512 55.0164H137.418V51.5125H136.41V60.3367H137.371V59.3289H137.465C137.863 60.032 138.613 60.448 139.492 60.448ZM139.258 54.8171C140.412 54.8171 141.098 55.7019 141.098 57.1785C141.098 58.655 140.412 59.5398 139.258 59.5398C138.109 59.5398 137.395 58.6375 137.395 57.1785C137.395 55.7195 138.109 54.8171 139.258 54.8171Z" fill="#111111"/>
<path d="M146.318 60.448C148.117 60.448 149.23 59.2058 149.23 57.1785C149.23 55.1453 148.117 53.9089 146.318 53.9089C144.52 53.9089 143.406 55.1453 143.406 57.1785C143.406 59.2058 144.52 60.448 146.318 60.448ZM146.318 59.5398C145.123 59.5398 144.449 58.6726 144.449 57.1785C144.449 55.6785 145.123 54.8171 146.318 54.8171C147.514 54.8171 148.188 55.6785 148.188 57.1785C148.188 58.6726 147.514 59.5398 146.318 59.5398Z" fill="#111111"/>
<path d="M152.57 60.448C153.414 60.448 154.105 60.0789 154.516 59.405H154.609V60.3367H155.57V56.0125C155.57 54.7 154.709 53.9089 153.168 53.9089C151.82 53.9089 150.824 54.5769 150.689 55.5906H151.709C151.85 55.0925 152.377 54.8054 153.133 54.8054C154.076 54.8054 154.562 55.2332 154.562 56.0125V56.5867L152.74 56.698C151.27 56.7859 150.438 57.4363 150.438 58.5671C150.438 59.7214 151.346 60.448 152.57 60.448ZM152.758 59.5632C152.025 59.5632 151.48 59.1882 151.48 58.5437C151.48 57.9109 151.902 57.5769 152.863 57.5125L154.562 57.4011V57.9812C154.562 58.8835 153.795 59.5632 152.758 59.5632Z" fill="#111111"/>
<path d="M157.434 60.3367H158.441V56.4226C158.441 55.532 159.139 54.8875 160.1 54.8875C160.299 54.8875 160.662 54.9226 160.744 54.946V53.9382C160.615 53.9207 160.404 53.9089 160.24 53.9089C159.402 53.9089 158.676 54.3425 158.488 54.9578H158.395V54.0203H157.434V60.3367Z" fill="#111111"/>
<path d="M164.166 60.448C165.039 60.448 165.789 60.032 166.188 59.3289H166.281V60.3367H167.242V51.5125H166.234V55.0164H166.146C165.789 54.325 165.045 53.9089 164.166 53.9089C162.561 53.9089 161.512 55.198 161.512 57.1785C161.512 59.1648 162.549 60.448 164.166 60.448ZM164.4 54.8171C165.543 54.8171 166.258 55.7312 166.258 57.1785C166.258 58.6375 165.549 59.5398 164.4 59.5398C163.246 59.5398 162.555 58.655 162.555 57.1785C162.555 55.7078 163.252 54.8171 164.4 54.8171Z" fill="#111111"/>
<path d="M181.047 60.3367V51.8816H179.822L176.928 58.9363H176.834L173.939 51.8816H172.715V60.3367H173.699V53.8796H173.77L176.436 60.3367H177.326L179.992 53.8796H180.062V60.3367H181.047Z" fill="#111111"/>
<path d="M184.832 60.448C185.676 60.448 186.367 60.0789 186.777 59.405H186.871V60.3367H187.832V56.0125C187.832 54.7 186.971 53.9089 185.43 53.9089C184.082 53.9089 183.086 54.5769 182.951 55.5906H183.971C184.111 55.0925 184.639 54.8054 185.395 54.8054C186.338 54.8054 186.824 55.2332 186.824 56.0125V56.5867L185.002 56.698C183.531 56.7859 182.699 57.4363 182.699 58.5671C182.699 59.7214 183.607 60.448 184.832 60.448ZM185.02 59.5632C184.287 59.5632 183.742 59.1882 183.742 58.5437C183.742 57.9109 184.164 57.5769 185.125 57.5125L186.824 57.4011V57.9812C186.824 58.8835 186.057 59.5632 185.02 59.5632Z" fill="#111111"/>
<path d="M192.297 62.7625C194.02 62.7625 195.109 61.8601 195.109 60.448V54.0203H194.148V55.0222H194.055C193.691 54.3425 192.912 53.9089 192.027 53.9089C190.404 53.9089 189.379 55.1921 189.379 57.0847C189.379 58.9773 190.393 60.2429 192.027 60.2429C192.895 60.2429 193.609 59.8503 194.008 59.1531H194.102V60.3953C194.102 61.3269 193.428 61.8835 192.297 61.8835C191.389 61.8835 190.826 61.5496 190.715 61.0339H189.648C189.801 62.0769 190.773 62.7625 192.297 62.7625ZM192.25 59.3523C191.078 59.3523 190.422 58.4617 190.422 57.0847C190.422 55.7078 191.078 54.8171 192.25 54.8171C193.416 54.8171 194.125 55.7078 194.125 57.0847C194.125 58.4617 193.422 59.3523 192.25 59.3523Z" fill="#111111"/>
<path d="M197.535 52.8015C197.922 52.8015 198.238 52.4851 198.238 52.0984C198.238 51.7117 197.922 51.3953 197.535 51.3953C197.148 51.3953 196.832 51.7117 196.832 52.0984C196.832 52.4851 197.148 52.8015 197.535 52.8015ZM197.031 60.3367H198.039V54.0203H197.031V60.3367Z" fill="#111111"/>
<path d="M205.188 55.9539C205.012 54.8289 204.074 53.9089 202.539 53.9089C200.77 53.9089 199.645 55.1863 199.645 57.155C199.645 59.1648 200.775 60.448 202.545 60.448C204.062 60.448 205.006 59.5925 205.188 58.4324H204.168C203.98 59.1472 203.389 59.5398 202.539 59.5398C201.414 59.5398 200.688 58.614 200.688 57.155C200.688 55.7253 201.402 54.8171 202.539 54.8171C203.447 54.8171 204.004 55.3269 204.168 55.9539H205.188Z" fill="#111111"/>
<path d="M213.596 60.5359C215.395 60.5359 216.73 59.5339 217.012 57.9812H215.939C215.67 58.9597 214.773 59.5632 213.596 59.5632C211.967 59.5632 210.947 58.2332 210.947 56.1121C210.947 53.991 211.967 52.655 213.59 52.655C214.756 52.655 215.658 53.3406 215.939 54.4304H217.012C216.76 52.8015 215.371 51.6824 213.59 51.6824C211.293 51.6824 209.863 53.3816 209.863 56.1121C209.863 58.8367 211.299 60.5359 213.596 60.5359Z" fill="#111111"/>
<path d="M220.41 60.448C221.254 60.448 221.945 60.0789 222.355 59.405H222.449V60.3367H223.41V56.0125C223.41 54.7 222.549 53.9089 221.008 53.9089C219.66 53.9089 218.664 54.5769 218.529 55.5906H219.549C219.689 55.0925 220.217 54.8054 220.973 54.8054C221.916 54.8054 222.402 55.2332 222.402 56.0125V56.5867L220.58 56.698C219.109 56.7859 218.277 57.4363 218.277 58.5671C218.277 59.7214 219.186 60.448 220.41 60.448ZM220.598 59.5632C219.865 59.5632 219.32 59.1882 219.32 58.5437C219.32 57.9109 219.742 57.5769 220.703 57.5125L222.402 57.4011V57.9812C222.402 58.8835 221.635 59.5632 220.598 59.5632Z" fill="#111111"/>
<path d="M225.273 60.3367H226.281V56.4226C226.281 55.532 226.979 54.8875 227.939 54.8875C228.139 54.8875 228.502 54.9226 228.584 54.946V53.9382C228.455 53.9207 228.244 53.9089 228.08 53.9089C227.242 53.9089 226.516 54.3425 226.328 54.9578H226.234V54.0203H225.273V60.3367Z" fill="#111111"/>
<path d="M233.037 53.9089C232.176 53.9089 231.42 54.3484 231.016 55.075H230.922V54.0203H229.961V62.446H230.969V59.3875H231.062C231.408 60.0554 232.135 60.448 233.037 60.448C234.643 60.448 235.691 59.1531 235.691 57.1785C235.691 55.1921 234.648 53.9089 233.037 53.9089ZM232.797 59.5398C231.66 59.5398 230.939 58.6257 230.939 57.1785C230.939 55.7253 231.66 54.8171 232.803 54.8171C233.957 54.8171 234.648 55.7019 234.648 57.1785C234.648 58.655 233.957 59.5398 232.797 59.5398Z" fill="#111111"/>
<path d="M241.457 58.7019C241.193 59.2585 240.643 59.5574 239.828 59.5574C238.756 59.5574 238.059 58.7664 238.006 57.5183V57.4714H242.547V57.0847C242.547 55.1218 241.51 53.9089 239.805 53.9089C238.07 53.9089 236.957 55.198 236.957 57.1843C236.957 59.1824 238.053 60.448 239.805 60.448C241.188 60.448 242.172 59.78 242.465 58.7019H241.457ZM239.793 54.7996C240.795 54.7996 241.463 55.5378 241.486 56.657H238.006C238.082 55.5378 238.785 54.7996 239.793 54.7996Z" fill="#111111"/>
<path d="M244.551 52.3855V54.0203H243.531V54.864H244.551V58.696C244.551 59.9031 245.072 60.3835 246.373 60.3835C246.572 60.3835 246.766 60.3601 246.965 60.325V59.4753C246.777 59.4929 246.678 59.4988 246.496 59.4988C245.84 59.4988 245.559 59.1824 245.559 58.4382V54.864H246.965V54.0203H245.559V52.3855H244.551Z" fill="#111111"/>
<path d="M248.225 55.7488C248.225 56.6628 248.764 57.1726 249.947 57.4597L251.031 57.7234C251.705 57.8875 252.033 58.1804 252.033 58.614C252.033 59.1941 251.424 59.5984 250.574 59.5984C249.766 59.5984 249.262 59.2585 249.092 58.7253H248.055C248.166 59.7742 249.133 60.448 250.539 60.448C251.975 60.448 253.07 59.6687 253.07 58.5378C253.07 57.6296 252.496 57.114 251.307 56.8269L250.334 56.5925C249.59 56.4109 249.238 56.1414 249.238 55.7078C249.238 55.1453 249.824 54.7644 250.574 54.7644C251.336 54.7644 251.828 55.0984 251.963 55.6023H252.959C252.824 54.5652 251.904 53.9089 250.58 53.9089C249.238 53.9089 248.225 54.7 248.225 55.7488Z" fill="#111111"/>
<path d="M171.637 62.5046H253.703V63.2078H171.637V62.5046Z" fill="#111111"/>
<g clip-path="url(#clip0_145_6082)">
<path d="M109.057 105.204C110.845 105.204 112.156 104.146 112.338 102.577H110.974C110.786 103.448 110.04 104.001 109.057 104.001C107.735 104.001 106.914 102.9 106.914 101.133C106.914 99.3708 107.735 98.2698 109.051 98.2698C110.029 98.2698 110.775 98.8767 110.969 99.8113H112.333C112.172 98.2053 110.813 97.0667 109.051 97.0667C106.854 97.0667 105.496 98.6189 105.496 101.138C105.496 103.646 106.86 105.204 109.057 105.204Z" fill="#111111"/>
<path d="M113.794 105.01H115.126V96.8679H113.794V105.01Z" fill="#111111"/>
<path d="M119.348 105.129C121.104 105.129 122.173 103.979 122.173 102.073C122.173 100.177 121.099 99.0271 119.348 99.0271C117.602 99.0271 116.522 100.182 116.522 102.073C116.522 103.979 117.586 105.129 119.348 105.129ZM119.348 104.038C118.418 104.038 117.887 103.319 117.887 102.078C117.887 100.837 118.418 100.117 119.348 100.117C120.271 100.117 120.803 100.837 120.803 102.078C120.803 103.319 120.277 104.038 119.348 104.038Z" fill="#111111"/>
<path d="M123.381 100.816C123.381 101.697 123.913 102.212 125.041 102.47L126.083 102.712C126.642 102.841 126.894 103.055 126.894 103.388C126.894 103.834 126.427 104.14 125.755 104.14C125.089 104.14 124.676 103.872 124.547 103.437H123.231C123.333 104.495 124.257 105.129 125.723 105.129C127.189 105.129 128.226 104.382 128.226 103.26C128.226 102.395 127.705 101.917 126.583 101.659L125.546 101.428C124.955 101.288 124.676 101.079 124.676 100.746C124.676 100.311 125.132 100.015 125.739 100.015C126.362 100.015 126.754 100.284 126.851 100.698H128.103C128.006 99.6394 127.13 99.0271 125.734 99.0271C124.348 99.0271 123.381 99.7629 123.381 100.816Z" fill="#111111"/>
<path d="M133.404 103.405C133.21 103.845 132.754 104.092 132.093 104.092C131.218 104.092 130.654 103.469 130.622 102.475V102.406H134.725V101.981C134.725 100.139 133.721 99.0271 132.045 99.0271C130.342 99.0271 129.284 100.214 129.284 102.099C129.284 103.979 130.326 105.129 132.056 105.129C133.441 105.129 134.424 104.463 134.666 103.405H133.404ZM132.04 100.064C132.84 100.064 133.366 100.628 133.393 101.519H130.627C130.686 100.638 131.245 100.064 132.04 100.064Z" fill="#111111"/>
<rect x="97.0854" y="89.2715" width="46.0499" height="23.5285" rx="11.7643" stroke="#767676" stroke-width="0.542593"/>
<rect x="151.407" y="88.8552" width="45.8459" height="24.3612" rx="12.1806" fill="#767676"/>
<path d="M167.119 102.062V101.095H163.902V102.153H165.765L165.76 102.314C165.739 103.41 164.933 104.146 163.751 104.146C162.371 104.146 161.506 103.05 161.506 101.267C161.506 99.5105 162.355 98.4148 163.708 98.4148C164.702 98.4148 165.395 98.9089 165.674 99.8059H167.054C166.807 98.2268 165.497 97.2117 163.708 97.2117C161.501 97.2117 160.088 98.7961 160.088 101.278C160.088 103.786 161.485 105.349 163.73 105.349C165.798 105.349 167.119 104.065 167.119 102.062Z" fill="white"/>
<path d="M171.126 105.274C172.882 105.274 173.951 104.124 173.951 102.218C173.951 100.322 172.877 99.1721 171.126 99.1721C169.38 99.1721 168.301 100.327 168.301 102.218C168.301 104.124 169.364 105.274 171.126 105.274ZM171.126 104.183C170.197 104.183 169.665 103.464 169.665 102.223C169.665 100.982 170.197 100.262 171.126 100.262C172.05 100.262 172.581 100.982 172.581 102.223C172.581 103.464 172.055 104.183 171.126 104.183Z" fill="white"/>
<path d="M175.718 97.8455V99.3225H174.789V100.359H175.718V103.598C175.718 104.731 176.255 105.182 177.603 105.182C177.861 105.182 178.108 105.161 178.302 105.123V104.103C178.14 104.119 178.038 104.13 177.85 104.13C177.292 104.13 177.045 103.866 177.045 103.281V100.359H178.302V99.3225H177.045V97.8455H175.718Z" fill="white"/>
<path d="M183.243 98.302C183.683 98.302 184.043 97.9529 184.043 97.5125C184.043 97.0774 183.683 96.7229 183.243 96.7229C182.808 96.7229 182.448 97.0774 182.448 97.5125C182.448 97.9529 182.808 98.302 183.243 98.302ZM182.582 105.156H183.909V99.2849H182.582V105.156Z" fill="white"/>
<path d="M185.988 97.8455V99.3225H185.058V100.359H185.988V103.598C185.988 104.731 186.525 105.182 187.873 105.182C188.131 105.182 188.378 105.161 188.571 105.123V104.103C188.41 104.119 188.308 104.13 188.12 104.13C187.561 104.13 187.314 103.866 187.314 103.281V100.359H188.571V99.3225H187.314V97.8455H185.988Z" fill="white"/>
</g>
<rect x="0.5" y="0.981201" width="292" height="128" rx="7.5" stroke="#767676"/>
<defs>
<clipPath id="clip0_145_6082">
<rect width="100.438" height="24.3612" fill="white" transform="translate(96.8141 88.8552)"/>
</clipPath>
</defs>
</svg>
