<svg width="293" height="159" viewBox="0 0 293 159" fill="none" xmlns="http://www.w3.org/2000/svg">
<rect x="0.5" y="0.5" width="292" height="158" rx="7.5" fill="white"/>
<path d="M21.7578 34V24.4297H25.125V22.7266H16.375V24.4297H19.75V34H21.7578Z" fill="#111111"/>
<path d="M26.3672 34H28.3125V29.2422C28.3125 28.0234 29.0234 27.2109 30.1953 27.2109C31.3203 27.2109 31.8984 27.9062 31.8984 29.0625V34H33.8438V28.6641C33.8438 26.7656 32.7734 25.5625 30.9453 25.5625C29.6875 25.5625 28.7734 26.1328 28.3281 27.1406H28.2891V22.7266H26.3672V34Z" fill="#111111"/>
<path d="M36.4219 24.4688C37.0156 24.4688 37.4844 23.9922 37.4844 23.4141C37.4844 22.8281 37.0156 22.3594 36.4219 22.3594C35.8281 22.3594 35.3516 22.8281 35.3516 23.4141C35.3516 23.9922 35.8281 24.4688 36.4219 24.4688ZM35.4531 34H37.3984V25.7188H35.4531V34Z" fill="#111111"/>
<path d="M38.8828 28.0938C38.8828 29.3203 39.6797 30.1016 41.2656 30.4531L42.6406 30.7578C43.5078 30.9531 43.8047 31.2344 43.8047 31.7344C43.8047 32.3516 43.2188 32.7422 42.2734 32.7422C41.2891 32.7422 40.7344 32.3359 40.5859 31.5312H38.6719C38.8281 33.1328 40.1094 34.1641 42.2734 34.1641C44.3047 34.1641 45.7422 33.1094 45.7422 31.5469C45.7422 30.3438 45.0781 29.6797 43.3594 29.2969L41.9844 28.9922C41.1172 28.7969 40.7734 28.4688 40.7734 27.9922C40.7734 27.3828 41.3438 26.9766 42.2031 26.9766C43.1016 26.9766 43.6562 27.4531 43.7344 28.2031H45.5469C45.5 26.6328 44.2188 25.5469 42.2031 25.5469C40.2031 25.5469 38.8828 26.5781 38.8828 28.0938Z" fill="#111111"/>
<path d="M50.0391 28.0938C50.0391 29.3203 50.8359 30.1016 52.4219 30.4531L53.7969 30.7578C54.6641 30.9531 54.9609 31.2344 54.9609 31.7344C54.9609 32.3516 54.375 32.7422 53.4297 32.7422C52.4453 32.7422 51.8906 32.3359 51.7422 31.5312H49.8281C49.9844 33.1328 51.2656 34.1641 53.4297 34.1641C55.4609 34.1641 56.8984 33.1094 56.8984 31.5469C56.8984 30.3438 56.2344 29.6797 54.5156 29.2969L53.1406 28.9922C52.2734 28.7969 51.9297 28.4688 51.9297 27.9922C51.9297 27.3828 52.5 26.9766 53.3594 26.9766C54.2578 26.9766 54.8125 27.4531 54.8906 28.2031H56.7031C56.6562 26.6328 55.375 25.5469 53.3594 25.5469C51.3594 25.5469 50.0391 26.5781 50.0391 28.0938Z" fill="#111111"/>
<path d="M59.1562 24.4688C59.75 24.4688 60.2188 23.9922 60.2188 23.4141C60.2188 22.8281 59.75 22.3594 59.1562 22.3594C58.5625 22.3594 58.0859 22.8281 58.0859 23.4141C58.0859 23.9922 58.5625 24.4688 59.1562 24.4688ZM58.1875 34H60.1328V25.7188H58.1875V34Z" fill="#111111"/>
<path d="M62.3047 23.7812V25.7188H61.1172V27.2188H62.3047V31.7969C62.3047 33.4062 63.0078 34.0391 64.7969 34.0391C65.2109 34.0391 65.5938 34.0078 65.8047 33.9609V32.4766C65.6797 32.5 65.4297 32.5156 65.25 32.5156C64.5625 32.5156 64.25 32.2031 64.25 31.5234V27.2188H65.8125V25.7188H64.25V23.7812H62.3047Z" fill="#111111"/>
<path d="M72.4688 31.5234C72.2578 32.2109 71.5703 32.6641 70.6641 32.6641C69.3906 32.6641 68.5781 31.7734 68.5781 30.4453V30.3281H74.3672V29.6953C74.3672 27.1797 72.8984 25.5469 70.5469 25.5469C68.1562 25.5469 66.6406 27.2734 66.6406 29.8906C66.6406 32.5312 68.1406 34.1641 70.625 34.1641C72.5859 34.1641 74.0391 33.0859 74.2891 31.5234H72.4688ZM70.5547 27.0547C71.6719 27.0547 72.4219 27.875 72.4609 29.0469H68.5938C68.6719 27.8906 69.4609 27.0547 70.5547 27.0547Z" fill="#111111"/>
<path d="M78.8281 34H80.7734V28.9297C80.7734 27.9297 81.4297 27.2031 82.3672 27.2031C83.2734 27.2031 83.8359 27.7734 83.8359 28.6953V34H85.7266V28.8828C85.7266 27.8906 86.3672 27.2031 87.3047 27.2031C88.2578 27.2031 88.7891 27.7812 88.7891 28.7969V34H90.7344V28.3203C90.7344 26.6641 89.6641 25.5625 88.0312 25.5625C86.8359 25.5625 85.8516 26.2031 85.4531 27.2266H85.4062C85.1016 26.1641 84.2656 25.5625 83.0938 25.5625C81.9688 25.5625 81.0938 26.1953 80.7344 27.1562H80.6953V25.7188H78.8281V34Z" fill="#111111"/>
<path d="M94.7344 34.1328C95.7969 34.1328 96.8359 33.5781 97.3125 32.6797H97.3516V34H99.2266V28.2969C99.2266 26.6328 97.8906 25.5469 95.8359 25.5469C93.7266 25.5469 92.4062 26.6562 92.3203 28.2031H94.125C94.25 27.5156 94.8359 27.0703 95.7578 27.0703C96.7188 27.0703 97.3047 27.5703 97.3047 28.4375V29.0312L95.1172 29.1562C93.1016 29.2812 91.9688 30.1641 91.9688 31.6328C91.9688 33.125 93.1328 34.1328 94.7344 34.1328ZM95.3203 32.6641C94.4766 32.6641 93.9141 32.2344 93.9141 31.5547C93.9141 30.8984 94.4531 30.4766 95.3906 30.4141L97.3047 30.2969V30.9297C97.3047 31.9297 96.4219 32.6641 95.3203 32.6641Z" fill="#111111"/>
<path d="M101.695 37.0781C103.586 37.0781 104.5 36.3828 105.203 34.3281L108.203 25.7188H106.156L104.203 32.3438H104.164L102.219 25.7188H100.094L103.039 34.0078C103.047 34.0312 102.922 34.4453 102.922 34.4688C102.711 35.2344 102.297 35.5391 101.492 35.5391C101.375 35.5391 101.031 35.5312 100.93 35.5078V37.0469C101.031 37.0703 101.578 37.0781 101.695 37.0781Z" fill="#111111"/>
<path d="M112.383 34H114.328V22.7266H112.383V34Z" fill="#111111"/>
<path d="M121.469 31.5234C121.258 32.2109 120.57 32.6641 119.664 32.6641C118.391 32.6641 117.578 31.7734 117.578 30.4453V30.3281H123.367V29.6953C123.367 27.1797 121.898 25.5469 119.547 25.5469C117.156 25.5469 115.641 27.2734 115.641 29.8906C115.641 32.5312 117.141 34.1641 119.625 34.1641C121.586 34.1641 123.039 33.0859 123.289 31.5234H121.469ZM119.555 27.0547C120.672 27.0547 121.422 27.875 121.461 29.0469H117.594C117.672 27.8906 118.461 27.0547 119.555 27.0547Z" fill="#111111"/>
<path d="M127.062 34.1328C128.125 34.1328 129.164 33.5781 129.641 32.6797H129.68V34H131.555V28.2969C131.555 26.6328 130.219 25.5469 128.164 25.5469C126.055 25.5469 124.734 26.6562 124.648 28.2031H126.453C126.578 27.5156 127.164 27.0703 128.086 27.0703C129.047 27.0703 129.633 27.5703 129.633 28.4375V29.0312L127.445 29.1562C125.43 29.2812 124.297 30.1641 124.297 31.6328C124.297 33.125 125.461 34.1328 127.062 34.1328ZM127.648 32.6641C126.805 32.6641 126.242 32.2344 126.242 31.5547C126.242 30.8984 126.781 30.4766 127.719 30.4141L129.633 30.2969V30.9297C129.633 31.9297 128.75 32.6641 127.648 32.6641Z" fill="#111111"/>
<path d="M136.219 34.1328C137.43 34.1328 138.383 33.5156 138.836 32.5859H138.867V34H140.773V22.7266H138.828V27.1094H138.781C138.344 26.1953 137.406 25.5781 136.219 25.5781C134.133 25.5781 132.781 27.2344 132.781 29.8516C132.781 32.4844 134.133 34.1328 136.219 34.1328ZM136.805 27.1797C138.031 27.1797 138.836 28.2344 138.836 29.8594C138.836 31.5 138.031 32.5391 136.805 32.5391C135.547 32.5391 134.773 31.5078 134.773 29.8594C134.773 28.2188 135.555 27.1797 136.805 27.1797Z" fill="#111111"/>
<path d="M146.148 23.7812V25.7188H144.961V27.2188H146.148V31.7969C146.148 33.4062 146.852 34.0391 148.641 34.0391C149.055 34.0391 149.438 34.0078 149.648 33.9609V32.4766C149.523 32.5 149.273 32.5156 149.094 32.5156C148.406 32.5156 148.094 32.2031 148.094 31.5234V27.2188H149.656V25.7188H148.094V23.7812H146.148Z" fill="#111111"/>
<path d="M154.492 34.1641C156.922 34.1641 158.5 32.5469 158.5 29.8594C158.5 27.1797 156.906 25.5469 154.492 25.5469C152.078 25.5469 150.484 27.1875 150.484 29.8594C150.484 32.5469 152.062 34.1641 154.492 34.1641ZM154.492 32.625C153.258 32.625 152.461 31.625 152.461 29.8594C152.461 28.1016 153.266 27.0938 154.492 27.0938C155.727 27.0938 156.523 28.1016 156.523 29.8594C156.523 31.625 155.727 32.625 154.492 32.625Z" fill="#111111"/>
<path d="M162.805 28.0938C162.805 29.3203 163.602 30.1016 165.188 30.4531L166.562 30.7578C167.43 30.9531 167.727 31.2344 167.727 31.7344C167.727 32.3516 167.141 32.7422 166.195 32.7422C165.211 32.7422 164.656 32.3359 164.508 31.5312H162.594C162.75 33.1328 164.031 34.1641 166.195 34.1641C168.227 34.1641 169.664 33.1094 169.664 31.5469C169.664 30.3438 169 29.6797 167.281 29.2969L165.906 28.9922C165.039 28.7969 164.695 28.4688 164.695 27.9922C164.695 27.3828 165.266 26.9766 166.125 26.9766C167.023 26.9766 167.578 27.4531 167.656 28.2031H169.469C169.422 26.6328 168.141 25.5469 166.125 25.5469C164.125 25.5469 162.805 26.5781 162.805 28.0938Z" fill="#111111"/>
<path d="M175.453 25.5781C174.25 25.5781 173.312 26.1875 172.844 27.1484H172.805V25.7188H170.906V36.7266H172.852V32.625H172.891C173.344 33.5547 174.281 34.1328 175.484 34.1328C177.562 34.1328 178.891 32.5 178.891 29.8594C178.891 27.2109 177.555 25.5781 175.453 25.5781ZM174.859 32.5391C173.648 32.5391 172.844 31.4844 172.836 29.8594C172.844 28.25 173.648 27.1797 174.859 27.1797C176.117 27.1797 176.898 28.2266 176.898 29.8594C176.898 31.5 176.117 32.5391 174.859 32.5391Z" fill="#111111"/>
<path d="M182.578 34.1328C183.641 34.1328 184.68 33.5781 185.156 32.6797H185.195V34H187.07V28.2969C187.07 26.6328 185.734 25.5469 183.68 25.5469C181.57 25.5469 180.25 26.6562 180.164 28.2031H181.969C182.094 27.5156 182.68 27.0703 183.602 27.0703C184.562 27.0703 185.148 27.5703 185.148 28.4375V29.0312L182.961 29.1562C180.945 29.2812 179.812 30.1641 179.812 31.6328C179.812 33.125 180.977 34.1328 182.578 34.1328ZM183.164 32.6641C182.32 32.6641 181.758 32.2344 181.758 31.5547C181.758 30.8984 182.297 30.4766 183.234 30.4141L185.148 30.2969V30.9297C185.148 31.9297 184.266 32.6641 183.164 32.6641Z" fill="#111111"/>
<path d="M188.641 34H190.586V28.9297C190.586 27.9297 191.242 27.2031 192.18 27.2031C193.086 27.2031 193.648 27.7734 193.648 28.6953V34H195.539V28.8828C195.539 27.8906 196.18 27.2031 197.117 27.2031C198.07 27.2031 198.602 27.7812 198.602 28.7969V34H200.547V28.3203C200.547 26.6641 199.477 25.5625 197.844 25.5625C196.648 25.5625 195.664 26.2031 195.266 27.2266H195.219C194.914 26.1641 194.078 25.5625 192.906 25.5625C191.781 25.5625 190.906 26.1953 190.547 27.1562H190.508V25.7188H188.641V34Z" fill="#111111"/>
<path d="M21.7715 53.1816H21.8418L23.7871 59.8555H24.7832L27.0859 51.4004H25.9844L24.3027 58.2734H24.2324L22.3398 51.4004H21.2734L19.3809 58.2734H19.3105L17.6289 51.4004H16.5273L18.8301 59.8555H19.8262L21.7715 53.1816Z" fill="#111111"/>
<path d="M32.1602 58.2207C31.8965 58.7773 31.3457 59.0762 30.5312 59.0762C29.459 59.0762 28.7617 58.2852 28.709 57.0371V56.9902H33.25V56.6035C33.25 54.6406 32.2129 53.4277 30.5078 53.4277C28.7734 53.4277 27.6602 54.7168 27.6602 56.7031C27.6602 58.7012 28.7559 59.9668 30.5078 59.9668C31.8906 59.9668 32.875 59.2988 33.168 58.2207H32.1602ZM30.4961 54.3184C31.498 54.3184 32.166 55.0566 32.1895 56.1758H28.709C28.7852 55.0566 29.4883 54.3184 30.4961 54.3184Z" fill="#111111"/>
<path d="M39.9766 59.9668C40.8203 59.9668 41.5117 59.5977 41.9219 58.9238H42.0156V59.8555H42.9766V55.5312C42.9766 54.2188 42.1152 53.4277 40.5742 53.4277C39.2266 53.4277 38.2305 54.0957 38.0957 55.1094H39.1152C39.2559 54.6113 39.7832 54.3242 40.5391 54.3242C41.4824 54.3242 41.9688 54.752 41.9688 55.5312V56.1055L40.1465 56.2168C38.6758 56.3047 37.8438 56.9551 37.8438 58.0859C37.8438 59.2402 38.752 59.9668 39.9766 59.9668ZM40.1641 59.082C39.4316 59.082 38.8867 58.707 38.8867 58.0625C38.8867 57.4297 39.3086 57.0957 40.2695 57.0312L41.9688 56.9199V57.5C41.9688 58.4023 41.2012 59.082 40.1641 59.082Z" fill="#111111"/>
<path d="M44.8398 59.8555H45.8477V55.9414C45.8477 55.0508 46.5449 54.4062 47.5059 54.4062C47.7051 54.4062 48.0684 54.4414 48.1504 54.4648V53.457C48.0215 53.4395 47.8105 53.4277 47.6465 53.4277C46.8086 53.4277 46.082 53.8613 45.8945 54.4766H45.8008V53.5391H44.8398V59.8555Z" fill="#111111"/>
<path d="M53.418 58.2207C53.1543 58.7773 52.6035 59.0762 51.7891 59.0762C50.7168 59.0762 50.0195 58.2852 49.9668 57.0371V56.9902H54.5078V56.6035C54.5078 54.6406 53.4707 53.4277 51.7656 53.4277C50.0312 53.4277 48.918 54.7168 48.918 56.7031C48.918 58.7012 50.0137 59.9668 51.7656 59.9668C53.1484 59.9668 54.1328 59.2988 54.4258 58.2207H53.418ZM51.7539 54.3184C52.7559 54.3184 53.4238 55.0566 53.4473 56.1758H49.9668C50.043 55.0566 50.7461 54.3184 51.7539 54.3184Z" fill="#111111"/>
<path d="M56.0898 59.8555H57.0977V56.1172C57.0977 55.0098 57.748 54.3359 58.7559 54.3359C59.7637 54.3359 60.2441 54.875 60.2441 56.0117V59.8555H61.252V55.7656C61.252 54.2656 60.4609 53.4277 59.043 53.4277C58.0762 53.4277 57.4609 53.8379 57.1445 54.5352H57.0508V53.5391H56.0898V59.8555Z" fill="#111111"/>
<path d="M63.7246 54.5586L64.7852 51.4004H63.6426L62.9922 54.5586H63.7246Z" fill="#111111"/>
<path d="M67 51.9043V53.5391H65.9805V54.3828H67V58.2148C67 59.4219 67.5215 59.9023 68.8223 59.9023C69.0215 59.9023 69.2148 59.8789 69.4141 59.8438V58.9941C69.2266 59.0117 69.127 59.0176 68.9453 59.0176C68.2891 59.0176 68.0078 58.7012 68.0078 57.957V54.3828H69.4141V53.5391H68.0078V51.9043H67Z" fill="#111111"/>
<path d="M74.1777 55.2676C74.1777 56.1816 74.7168 56.6914 75.9004 56.9785L76.9844 57.2422C77.6582 57.4062 77.9863 57.6992 77.9863 58.1328C77.9863 58.7129 77.377 59.1172 76.5273 59.1172C75.7188 59.1172 75.2148 58.7773 75.0449 58.2441H74.0078C74.1191 59.293 75.0859 59.9668 76.4922 59.9668C77.9277 59.9668 79.0234 59.1875 79.0234 58.0566C79.0234 57.1484 78.4492 56.6328 77.2598 56.3457L76.2871 56.1113C75.543 55.9297 75.1914 55.6602 75.1914 55.2266C75.1914 54.6641 75.7773 54.2832 76.5273 54.2832C77.2891 54.2832 77.7812 54.6172 77.916 55.1211H78.9121C78.7773 54.084 77.8574 53.4277 76.5332 53.4277C75.1914 53.4277 74.1777 54.2188 74.1777 55.2676Z" fill="#111111"/>
<path d="M85.7148 53.5391H84.707V57.2773C84.707 58.3848 84.0977 59.0469 82.9844 59.0469C81.9766 59.0469 81.5547 58.5195 81.5547 57.3828V53.5391H80.5469V57.6289C80.5469 59.123 81.2852 59.9668 82.7031 59.9668C83.6699 59.9668 84.3438 59.5684 84.6602 58.8652H84.7539V59.8555H85.7148V53.5391Z" fill="#111111"/>
<path d="M87.6133 59.8555H88.6211V55.9414C88.6211 55.0508 89.3184 54.4062 90.2793 54.4062C90.4785 54.4062 90.8418 54.4414 90.9238 54.4648V53.457C90.7949 53.4395 90.584 53.4277 90.4199 53.4277C89.582 53.4277 88.8555 53.8613 88.668 54.4766H88.5742V53.5391H87.6133V59.8555Z" fill="#111111"/>
<path d="M96.1914 58.2207C95.9277 58.7773 95.377 59.0762 94.5625 59.0762C93.4902 59.0762 92.793 58.2852 92.7402 57.0371V56.9902H97.2812V56.6035C97.2812 54.6406 96.2441 53.4277 94.5391 53.4277C92.8047 53.4277 91.6914 54.7168 91.6914 56.7031C91.6914 58.7012 92.7871 59.9668 94.5391 59.9668C95.9219 59.9668 96.9062 59.2988 97.1992 58.2207H96.1914ZM94.5273 54.3184C95.5293 54.3184 96.1973 55.0566 96.2207 56.1758H92.7402C92.8164 55.0566 93.5195 54.3184 94.5273 54.3184Z" fill="#111111"/>
<path d="M104.846 59.9668C106.645 59.9668 107.758 58.7246 107.758 56.6973C107.758 54.6641 106.645 53.4277 104.846 53.4277C103.047 53.4277 101.934 54.6641 101.934 56.6973C101.934 58.7246 103.047 59.9668 104.846 59.9668ZM104.846 59.0586C103.65 59.0586 102.977 58.1914 102.977 56.6973C102.977 55.1973 103.65 54.3359 104.846 54.3359C106.041 54.3359 106.715 55.1973 106.715 56.6973C106.715 58.1914 106.041 59.0586 104.846 59.0586Z" fill="#111111"/>
<path d="M109.762 59.8555H110.77V54.3828H112.217V53.5391H110.77V52.8652C110.77 52.1738 111.074 51.8223 111.801 51.8223C111.982 51.8223 112.152 51.8281 112.275 51.8516V51.0312C112.064 50.9902 111.842 50.9727 111.596 50.9727C110.395 50.9727 109.762 51.5762 109.762 52.8359V53.5391H108.713V54.3828H109.762V59.8555Z" fill="#111111"/>
<path d="M117.496 51.9043V53.5391H116.477V54.3828H117.496V58.2148C117.496 59.4219 118.018 59.9023 119.318 59.9023C119.518 59.9023 119.711 59.8789 119.91 59.8438V58.9941C119.723 59.0117 119.623 59.0176 119.441 59.0176C118.785 59.0176 118.504 58.7012 118.504 57.957V54.3828H119.91V53.5391H118.504V51.9043H117.496Z" fill="#111111"/>
<path d="M121.492 59.8555H122.5V56.1172C122.5 55.0508 123.121 54.3359 124.252 54.3359C125.207 54.3359 125.711 54.8926 125.711 56.0117V59.8555H126.719V55.7656C126.719 54.2832 125.875 53.4277 124.539 53.4277C123.572 53.4277 122.91 53.8379 122.594 54.5352H122.5V51.0312H121.492V59.8555Z" fill="#111111"/>
<path d="M132.742 58.2207C132.479 58.7773 131.928 59.0762 131.113 59.0762C130.041 59.0762 129.344 58.2852 129.291 57.0371V56.9902H133.832V56.6035C133.832 54.6406 132.795 53.4277 131.09 53.4277C129.355 53.4277 128.242 54.7168 128.242 56.7031C128.242 58.7012 129.338 59.9668 131.09 59.9668C132.473 59.9668 133.457 59.2988 133.75 58.2207H132.742ZM131.078 54.3184C132.08 54.3184 132.748 55.0566 132.771 56.1758H129.291C129.367 55.0566 130.07 54.3184 131.078 54.3184Z" fill="#111111"/>
<path d="M144.027 55.4727C143.852 54.3477 142.914 53.4277 141.379 53.4277C139.609 53.4277 138.484 54.7051 138.484 56.6738C138.484 58.6836 139.615 59.9668 141.385 59.9668C142.902 59.9668 143.846 59.1113 144.027 57.9512H143.008C142.82 58.666 142.229 59.0586 141.379 59.0586C140.254 59.0586 139.527 58.1328 139.527 56.6738C139.527 55.2441 140.242 54.3359 141.379 54.3359C142.287 54.3359 142.844 54.8457 143.008 55.4727H144.027Z" fill="#111111"/>
<path d="M148.111 59.9668C149.91 59.9668 151.023 58.7246 151.023 56.6973C151.023 54.6641 149.91 53.4277 148.111 53.4277C146.312 53.4277 145.199 54.6641 145.199 56.6973C145.199 58.7246 146.312 59.9668 148.111 59.9668ZM148.111 59.0586C146.916 59.0586 146.242 58.1914 146.242 56.6973C146.242 55.1973 146.916 54.3359 148.111 54.3359C149.307 54.3359 149.98 55.1973 149.98 56.6973C149.98 58.1914 149.307 59.0586 148.111 59.0586Z" fill="#111111"/>
<path d="M152.605 59.8555H153.613V56.1172C153.613 55.0098 154.264 54.3359 155.271 54.3359C156.279 54.3359 156.76 54.875 156.76 56.0117V59.8555H157.768V55.7656C157.768 54.2656 156.977 53.4277 155.559 53.4277C154.592 53.4277 153.977 53.8379 153.66 54.5352H153.566V53.5391H152.605V59.8555Z" fill="#111111"/>
<path d="M160.035 51.9043V53.5391H159.016V54.3828H160.035V58.2148C160.035 59.4219 160.557 59.9023 161.857 59.9023C162.057 59.9023 162.25 59.8789 162.449 59.8438V58.9941C162.262 59.0117 162.162 59.0176 161.98 59.0176C161.324 59.0176 161.043 58.7012 161.043 57.957V54.3828H162.449V53.5391H161.043V51.9043H160.035Z" fill="#111111"/>
<path d="M168.062 58.2207C167.799 58.7773 167.248 59.0762 166.434 59.0762C165.361 59.0762 164.664 58.2852 164.611 57.0371V56.9902H169.152V56.6035C169.152 54.6406 168.115 53.4277 166.41 53.4277C164.676 53.4277 163.562 54.7168 163.562 56.7031C163.562 58.7012 164.658 59.9668 166.41 59.9668C167.793 59.9668 168.777 59.2988 169.07 58.2207H168.062ZM166.398 54.3184C167.4 54.3184 168.068 55.0566 168.092 56.1758H164.611C164.688 55.0566 165.391 54.3184 166.398 54.3184Z" fill="#111111"/>
<path d="M170.734 59.8555H171.742V56.1172C171.742 55.0098 172.393 54.3359 173.4 54.3359C174.408 54.3359 174.889 54.875 174.889 56.0117V59.8555H175.896V55.7656C175.896 54.2656 175.105 53.4277 173.688 53.4277C172.721 53.4277 172.105 53.8379 171.789 54.5352H171.695V53.5391H170.734V59.8555Z" fill="#111111"/>
<path d="M178.164 51.9043V53.5391H177.145V54.3828H178.164V58.2148C178.164 59.4219 178.686 59.9023 179.986 59.9023C180.186 59.9023 180.379 59.8789 180.578 59.8438V58.9941C180.391 59.0117 180.291 59.0176 180.109 59.0176C179.453 59.0176 179.172 58.7012 179.172 57.957V54.3828H180.578V53.5391H179.172V51.9043H178.164Z" fill="#111111"/>
<path d="M181.838 55.2676C181.838 56.1816 182.377 56.6914 183.561 56.9785L184.645 57.2422C185.318 57.4062 185.646 57.6992 185.646 58.1328C185.646 58.7129 185.037 59.1172 184.188 59.1172C183.379 59.1172 182.875 58.7773 182.705 58.2441H181.668C181.779 59.293 182.746 59.9668 184.152 59.9668C185.588 59.9668 186.684 59.1875 186.684 58.0566C186.684 57.1484 186.109 56.6328 184.92 56.3457L183.947 56.1113C183.203 55.9297 182.852 55.6602 182.852 55.2266C182.852 54.6641 183.438 54.2832 184.188 54.2832C184.949 54.2832 185.441 54.6172 185.576 55.1211H186.572C186.438 54.084 185.518 53.4277 184.193 53.4277C182.852 53.4277 181.838 54.2188 181.838 55.2676Z" fill="#111111"/>
<path d="M194.248 59.9668C196.047 59.9668 197.16 58.7246 197.16 56.6973C197.16 54.6641 196.047 53.4277 194.248 53.4277C192.449 53.4277 191.336 54.6641 191.336 56.6973C191.336 58.7246 192.449 59.9668 194.248 59.9668ZM194.248 59.0586C193.053 59.0586 192.379 58.1914 192.379 56.6973C192.379 55.1973 193.053 54.3359 194.248 54.3359C195.443 54.3359 196.117 55.1973 196.117 56.6973C196.117 58.1914 195.443 59.0586 194.248 59.0586Z" fill="#111111"/>
<path d="M199.164 59.8555H200.172V54.3828H201.619V53.5391H200.172V52.8652C200.172 52.1738 200.477 51.8223 201.203 51.8223C201.385 51.8223 201.555 51.8281 201.678 51.8516V51.0312C201.467 50.9902 201.244 50.9727 200.998 50.9727C199.797 50.9727 199.164 51.5762 199.164 52.8359V53.5391H198.115V54.3828H199.164V59.8555Z" fill="#111111"/>
<path d="M206.898 51.9043V53.5391H205.879V54.3828H206.898V58.2148C206.898 59.4219 207.42 59.9023 208.721 59.9023C208.92 59.9023 209.113 59.8789 209.312 59.8438V58.9941C209.125 59.0117 209.025 59.0176 208.844 59.0176C208.188 59.0176 207.906 58.7012 207.906 57.957V54.3828H209.312V53.5391H207.906V51.9043H206.898Z" fill="#111111"/>
<path d="M210.895 59.8555H211.902V56.1172C211.902 55.0508 212.523 54.3359 213.654 54.3359C214.609 54.3359 215.113 54.8926 215.113 56.0117V59.8555H216.121V55.7656C216.121 54.2832 215.277 53.4277 213.941 53.4277C212.975 53.4277 212.312 53.8379 211.996 54.5352H211.902V51.0312H210.895V59.8555Z" fill="#111111"/>
<path d="M218.488 52.3203C218.875 52.3203 219.191 52.0039 219.191 51.6172C219.191 51.2305 218.875 50.9141 218.488 50.9141C218.102 50.9141 217.785 51.2305 217.785 51.6172C217.785 52.0039 218.102 52.3203 218.488 52.3203ZM217.984 59.8555H218.992V53.5391H217.984V59.8555Z" fill="#111111"/>
<path d="M220.768 55.2676C220.768 56.1816 221.307 56.6914 222.49 56.9785L223.574 57.2422C224.248 57.4062 224.576 57.6992 224.576 58.1328C224.576 58.7129 223.967 59.1172 223.117 59.1172C222.309 59.1172 221.805 58.7773 221.635 58.2441H220.598C220.709 59.293 221.676 59.9668 223.082 59.9668C224.518 59.9668 225.613 59.1875 225.613 58.0566C225.613 57.1484 225.039 56.6328 223.85 56.3457L222.877 56.1113C222.133 55.9297 221.781 55.6602 221.781 55.2266C221.781 54.6641 222.367 54.2832 223.117 54.2832C223.879 54.2832 224.371 54.6172 224.506 55.1211H225.502C225.367 54.084 224.447 53.4277 223.123 53.4277C221.781 53.4277 220.768 54.2188 220.768 55.2676Z" fill="#111111"/>
<path d="M230.436 55.2676C230.436 56.1816 230.975 56.6914 232.158 56.9785L233.242 57.2422C233.916 57.4062 234.244 57.6992 234.244 58.1328C234.244 58.7129 233.635 59.1172 232.785 59.1172C231.977 59.1172 231.473 58.7773 231.303 58.2441H230.266C230.377 59.293 231.344 59.9668 232.75 59.9668C234.186 59.9668 235.281 59.1875 235.281 58.0566C235.281 57.1484 234.707 56.6328 233.518 56.3457L232.545 56.1113C231.801 55.9297 231.449 55.6602 231.449 55.2266C231.449 54.6641 232.035 54.2832 232.785 54.2832C233.547 54.2832 234.039 54.6172 234.174 55.1211H235.17C235.035 54.084 234.115 53.4277 232.791 53.4277C231.449 53.4277 230.436 54.2188 230.436 55.2676Z" fill="#111111"/>
<path d="M237.391 52.3203C237.777 52.3203 238.094 52.0039 238.094 51.6172C238.094 51.2305 237.777 50.9141 237.391 50.9141C237.004 50.9141 236.688 51.2305 236.688 51.6172C236.688 52.0039 237.004 52.3203 237.391 52.3203ZM236.887 59.8555H237.895V53.5391H236.887V59.8555Z" fill="#111111"/>
<path d="M240.238 51.9043V53.5391H239.219V54.3828H240.238V58.2148C240.238 59.4219 240.76 59.9023 242.061 59.9023C242.26 59.9023 242.453 59.8789 242.652 59.8438V58.9941C242.465 59.0117 242.365 59.0176 242.184 59.0176C241.527 59.0176 241.246 58.7012 241.246 57.957V54.3828H242.652V53.5391H241.246V51.9043H240.238Z" fill="#111111"/>
<path d="M248.266 58.2207C248.002 58.7773 247.451 59.0762 246.637 59.0762C245.564 59.0762 244.867 58.2852 244.814 57.0371V56.9902H249.355V56.6035C249.355 54.6406 248.318 53.4277 246.613 53.4277C244.879 53.4277 243.766 54.7168 243.766 56.7031C243.766 58.7012 244.861 59.9668 246.613 59.9668C247.996 59.9668 248.98 59.2988 249.273 58.2207H248.266ZM246.602 54.3184C247.604 54.3184 248.271 55.0566 248.295 56.1758H244.814C244.891 55.0566 245.594 54.3184 246.602 54.3184Z" fill="#111111"/>
<path d="M256.082 59.9668C256.926 59.9668 257.617 59.5977 258.027 58.9238H258.121V59.8555H259.082V55.5312C259.082 54.2188 258.221 53.4277 256.68 53.4277C255.332 53.4277 254.336 54.0957 254.201 55.1094H255.221C255.361 54.6113 255.889 54.3242 256.645 54.3242C257.588 54.3242 258.074 54.752 258.074 55.5312V56.1055L256.252 56.2168C254.781 56.3047 253.949 56.9551 253.949 58.0859C253.949 59.2402 254.857 59.9668 256.082 59.9668ZM256.27 59.082C255.537 59.082 254.992 58.707 254.992 58.0625C254.992 57.4297 255.414 57.0957 256.375 57.0312L258.074 56.9199V57.5C258.074 58.4023 257.307 59.082 256.27 59.082Z" fill="#111111"/>
<path d="M260.945 59.8555H261.953V56.1172C261.953 55.0098 262.604 54.3359 263.611 54.3359C264.619 54.3359 265.1 54.875 265.1 56.0117V59.8555H266.107V55.7656C266.107 54.2656 265.316 53.4277 263.898 53.4277C262.932 53.4277 262.316 53.8379 262 54.5352H261.906V53.5391H260.945V59.8555Z" fill="#111111"/>
<path d="M270.291 59.9668C271.164 59.9668 271.914 59.5508 272.312 58.8477H272.406V59.8555H273.367V51.0312H272.359V54.5352H272.271C271.914 53.8438 271.17 53.4277 270.291 53.4277C268.686 53.4277 267.637 54.7168 267.637 56.6973C267.637 58.6836 268.674 59.9668 270.291 59.9668ZM270.525 54.3359C271.668 54.3359 272.383 55.25 272.383 56.6973C272.383 58.1562 271.674 59.0586 270.525 59.0586C269.371 59.0586 268.68 58.1738 268.68 56.6973C268.68 55.2266 269.377 54.3359 270.525 54.3359Z" fill="#111111"/>
<path d="M22.1758 69.4727C22 68.3477 21.0625 67.4277 19.5273 67.4277C17.7578 67.4277 16.6328 68.7051 16.6328 70.6738C16.6328 72.6836 17.7637 73.9668 19.5332 73.9668C21.0508 73.9668 21.9941 73.1113 22.1758 71.9512H21.1562C20.9688 72.666 20.377 73.0586 19.5273 73.0586C18.4023 73.0586 17.6758 72.1328 17.6758 70.6738C17.6758 69.2441 18.3906 68.3359 19.5273 68.3359C20.4355 68.3359 20.9922 68.8457 21.1562 69.4727H22.1758Z" fill="#111111"/>
<path d="M25.4219 73.9668C26.2656 73.9668 26.957 73.5977 27.3672 72.9238H27.4609V73.8555H28.4219V69.5312C28.4219 68.2188 27.5605 67.4277 26.0195 67.4277C24.6719 67.4277 23.6758 68.0957 23.541 69.1094H24.5605C24.7012 68.6113 25.2285 68.3242 25.9844 68.3242C26.9277 68.3242 27.4141 68.752 27.4141 69.5312V70.1055L25.5918 70.2168C24.1211 70.3047 23.2891 70.9551 23.2891 72.0859C23.2891 73.2402 24.1973 73.9668 25.4219 73.9668ZM25.6094 73.082C24.877 73.082 24.332 72.707 24.332 72.0625C24.332 71.4297 24.7539 71.0957 25.7148 71.0312L27.4141 70.9199V71.5C27.4141 72.4023 26.6465 73.082 25.6094 73.082Z" fill="#111111"/>
<path d="M30.2852 73.8555H31.293V70.1172C31.293 69.0098 31.9434 68.3359 32.9512 68.3359C33.959 68.3359 34.4395 68.875 34.4395 70.0117V73.8555H35.4473V69.7656C35.4473 68.2656 34.6562 67.4277 33.2383 67.4277C32.2715 67.4277 31.6562 67.8379 31.3398 68.5352H31.2461V67.5391H30.2852V73.8555Z" fill="#111111"/>
<path d="M37.9199 68.5586L38.9805 65.4004H37.8379L37.1875 68.5586H37.9199Z" fill="#111111"/>
<path d="M41.1953 65.9043V67.5391H40.1758V68.3828H41.1953V72.2148C41.1953 73.4219 41.7168 73.9023 43.0176 73.9023C43.2168 73.9023 43.4102 73.8789 43.6094 73.8438V72.9941C43.4219 73.0117 43.3223 73.0176 43.1406 73.0176C42.4844 73.0176 42.2031 72.7012 42.2031 71.957V68.3828H43.6094V67.5391H42.2031V65.9043H41.1953Z" fill="#111111"/>
<path d="M53.6758 67.5391H52.5977L50.8691 72.7422H50.7754L49.0469 67.5391H47.9688L50.3066 73.8555H51.3379L53.6758 67.5391Z" fill="#111111"/>
<path d="M58.9727 72.2207C58.709 72.7773 58.1582 73.0762 57.3438 73.0762C56.2715 73.0762 55.5742 72.2852 55.5215 71.0371V70.9902H60.0625V70.6035C60.0625 68.6406 59.0254 67.4277 57.3203 67.4277C55.5859 67.4277 54.4727 68.7168 54.4727 70.7031C54.4727 72.7012 55.5684 73.9668 57.3203 73.9668C58.7031 73.9668 59.6875 73.2988 59.9805 72.2207H58.9727ZM57.3086 68.3184C58.3105 68.3184 58.9785 69.0566 59.002 70.1758H55.5215C55.5977 69.0566 56.3008 68.3184 57.3086 68.3184Z" fill="#111111"/>
<path d="M61.6445 73.8555H62.6523V69.9414C62.6523 69.0508 63.3496 68.4062 64.3105 68.4062C64.5098 68.4062 64.873 68.4414 64.9551 68.4648V67.457C64.8262 67.4395 64.6152 67.4277 64.4512 67.4277C63.6133 67.4277 62.8867 67.8613 62.6992 68.4766H62.6055V67.5391H61.6445V73.8555Z" fill="#111111"/>
<path d="M66.7422 66.3203C67.1289 66.3203 67.4453 66.0039 67.4453 65.6172C67.4453 65.2305 67.1289 64.9141 66.7422 64.9141C66.3555 64.9141 66.0391 65.2305 66.0391 65.6172C66.0391 66.0039 66.3555 66.3203 66.7422 66.3203ZM66.2383 73.8555H67.2461V67.5391H66.2383V73.8555Z" fill="#111111"/>
<path d="M69.5898 73.8555H70.5977V68.3828H72.0449V67.5391H70.5977V66.8652C70.5977 66.1738 70.9023 65.8223 71.6289 65.8223C71.8105 65.8223 71.9805 65.8281 72.1035 65.8516V65.0312C71.8926 64.9902 71.6699 64.9727 71.4238 64.9727C70.2227 64.9727 69.5898 65.5762 69.5898 66.8359V67.5391H68.541V68.3828H69.5898V73.8555Z" fill="#111111"/>
<path d="M74.0547 76.1406C75.1738 76.1406 75.6777 75.707 76.2168 74.2422L78.6836 67.5391H77.6113L75.8828 72.7363H75.7891L74.0547 67.5391H72.9648L75.3027 73.8613L75.1855 74.2363C74.9219 74.998 74.6055 75.2734 74.0254 75.2734C73.8848 75.2734 73.7266 75.2676 73.6035 75.2441V76.1055C73.7441 76.1289 73.9199 76.1406 74.0547 76.1406Z" fill="#111111"/>
<path d="M83.8398 65.9043V67.5391H82.8203V68.3828H83.8398V72.2148C83.8398 73.4219 84.3613 73.9023 85.6621 73.9023C85.8613 73.9023 86.0547 73.8789 86.2539 73.8438V72.9941C86.0664 73.0117 85.9668 73.0176 85.7852 73.0176C85.1289 73.0176 84.8477 72.7012 84.8477 71.957V68.3828H86.2539V67.5391H84.8477V65.9043H83.8398Z" fill="#111111"/>
<path d="M87.8359 73.8555H88.8438V70.1172C88.8438 69.0508 89.4648 68.3359 90.5957 68.3359C91.5508 68.3359 92.0547 68.8926 92.0547 70.0117V73.8555H93.0625V69.7656C93.0625 68.2832 92.2188 67.4277 90.8828 67.4277C89.916 67.4277 89.2539 67.8379 88.9375 68.5352H88.8438V65.0312H87.8359V73.8555Z" fill="#111111"/>
<path d="M96.6602 73.9668C97.5039 73.9668 98.1953 73.5977 98.6055 72.9238H98.6992V73.8555H99.6602V69.5312C99.6602 68.2188 98.7988 67.4277 97.2578 67.4277C95.9102 67.4277 94.9141 68.0957 94.7793 69.1094H95.7988C95.9395 68.6113 96.4668 68.3242 97.2227 68.3242C98.166 68.3242 98.6523 68.752 98.6523 69.5312V70.1055L96.8301 70.2168C95.3594 70.3047 94.5273 70.9551 94.5273 72.0859C94.5273 73.2402 95.4355 73.9668 96.6602 73.9668ZM96.8477 73.082C96.1152 73.082 95.5703 72.707 95.5703 72.0625C95.5703 71.4297 95.9922 71.0957 96.9531 71.0312L98.6523 70.9199V71.5C98.6523 72.4023 97.8848 73.082 96.8477 73.082Z" fill="#111111"/>
<path d="M101.945 65.9043V67.5391H100.926V68.3828H101.945V72.2148C101.945 73.4219 102.467 73.9023 103.768 73.9023C103.967 73.9023 104.16 73.8789 104.359 73.8438V72.9941C104.172 73.0117 104.072 73.0176 103.891 73.0176C103.234 73.0176 102.953 72.7012 102.953 71.957V68.3828H104.359V67.5391H102.953V65.9043H101.945Z" fill="#111111"/>
<path d="M109.809 76.1406C110.928 76.1406 111.432 75.707 111.971 74.2422L114.438 67.5391H113.365L111.637 72.7363H111.543L109.809 67.5391H108.719L111.057 73.8613L110.939 74.2363C110.676 74.998 110.359 75.2734 109.779 75.2734C109.639 75.2734 109.48 75.2676 109.357 75.2441V76.1055C109.498 76.1289 109.674 76.1406 109.809 76.1406Z" fill="#111111"/>
<path d="M118.146 73.9668C119.945 73.9668 121.059 72.7246 121.059 70.6973C121.059 68.6641 119.945 67.4277 118.146 67.4277C116.348 67.4277 115.234 68.6641 115.234 70.6973C115.234 72.7246 116.348 73.9668 118.146 73.9668ZM118.146 73.0586C116.951 73.0586 116.277 72.1914 116.277 70.6973C116.277 69.1973 116.951 68.3359 118.146 68.3359C119.342 68.3359 120.016 69.1973 120.016 70.6973C120.016 72.1914 119.342 73.0586 118.146 73.0586Z" fill="#111111"/>
<path d="M127.75 67.5391H126.742V71.2773C126.742 72.3848 126.133 73.0469 125.02 73.0469C124.012 73.0469 123.59 72.5195 123.59 71.3828V67.5391H122.582V71.6289C122.582 73.123 123.32 73.9668 124.738 73.9668C125.705 73.9668 126.379 73.5684 126.695 72.8652H126.789V73.8555H127.75V67.5391Z" fill="#111111"/>
<path d="M140.98 67.5391H139.967L138.725 72.5898H138.631L137.219 67.5391H136.252L134.84 72.5898H134.746L133.504 67.5391H132.484L134.254 73.8555H135.273L136.68 68.9688H136.773L138.186 73.8555H139.211L140.98 67.5391Z" fill="#111111"/>
<path d="M142.855 66.3203C143.242 66.3203 143.559 66.0039 143.559 65.6172C143.559 65.2305 143.242 64.9141 142.855 64.9141C142.469 64.9141 142.152 65.2305 142.152 65.6172C142.152 66.0039 142.469 66.3203 142.855 66.3203ZM142.352 73.8555H143.359V67.5391H142.352V73.8555Z" fill="#111111"/>
<path d="M145.34 73.8555H146.348V65.0312H145.34V73.8555Z" fill="#111111"/>
<path d="M148.363 73.8555H149.371V65.0312H148.363V73.8555Z" fill="#111111"/>
<path d="M155.137 73.8555H156.145V68.3828H157.592V67.5391H156.145V66.8652C156.145 66.1738 156.449 65.8223 157.176 65.8223C157.357 65.8223 157.527 65.8281 157.65 65.8516V65.0312C157.439 64.9902 157.217 64.9727 156.971 64.9727C155.77 64.9727 155.137 65.5762 155.137 66.8359V67.5391H154.088V68.3828H155.137V73.8555Z" fill="#111111"/>
<path d="M159.59 66.3203C159.977 66.3203 160.293 66.0039 160.293 65.6172C160.293 65.2305 159.977 64.9141 159.59 64.9141C159.203 64.9141 158.887 65.2305 158.887 65.6172C158.887 66.0039 159.203 66.3203 159.59 66.3203ZM159.086 73.8555H160.094V67.5391H159.086V73.8555Z" fill="#111111"/>
<path d="M162.016 73.8555H163.023V70.1172C163.023 69.0098 163.674 68.3359 164.682 68.3359C165.689 68.3359 166.17 68.875 166.17 70.0117V73.8555H167.178V69.7656C167.178 68.2656 166.387 67.4277 164.969 67.4277C164.002 67.4277 163.387 67.8379 163.07 68.5352H162.977V67.5391H162.016V73.8555Z" fill="#111111"/>
<path d="M171.361 73.9668C172.234 73.9668 172.984 73.5508 173.383 72.8477H173.477V73.8555H174.438V65.0312H173.43V68.5352H173.342C172.984 67.8438 172.24 67.4277 171.361 67.4277C169.756 67.4277 168.707 68.7168 168.707 70.6973C168.707 72.6836 169.744 73.9668 171.361 73.9668ZM171.596 68.3359C172.738 68.3359 173.453 69.25 173.453 70.6973C173.453 72.1562 172.744 73.0586 171.596 73.0586C170.441 73.0586 169.75 72.1738 169.75 70.6973C169.75 69.2266 170.447 68.3359 171.596 68.3359Z" fill="#111111"/>
<path d="M187.727 67.5391H186.713L185.471 72.5898H185.377L183.965 67.5391H182.998L181.586 72.5898H181.492L180.25 67.5391H179.23L181 73.8555H182.02L183.426 68.9688H183.52L184.932 73.8555H185.957L187.727 67.5391Z" fill="#111111"/>
<path d="M189.133 73.8555H190.141V70.1172C190.141 69.0508 190.762 68.3359 191.893 68.3359C192.848 68.3359 193.352 68.8926 193.352 70.0117V73.8555H194.359V69.7656C194.359 68.2832 193.516 67.4277 192.18 67.4277C191.213 67.4277 190.551 67.8379 190.234 68.5352H190.141V65.0312H189.133V73.8555Z" fill="#111111"/>
<path d="M197.957 73.9668C198.801 73.9668 199.492 73.5977 199.902 72.9238H199.996V73.8555H200.957V69.5312C200.957 68.2188 200.096 67.4277 198.555 67.4277C197.207 67.4277 196.211 68.0957 196.076 69.1094H197.096C197.236 68.6113 197.764 68.3242 198.52 68.3242C199.463 68.3242 199.949 68.752 199.949 69.5312V70.1055L198.127 70.2168C196.656 70.3047 195.824 70.9551 195.824 72.0859C195.824 73.2402 196.732 73.9668 197.957 73.9668ZM198.145 73.082C197.412 73.082 196.867 72.707 196.867 72.0625C196.867 71.4297 197.289 71.0957 198.25 71.0312L199.949 70.9199V71.5C199.949 72.4023 199.182 73.082 198.145 73.082Z" fill="#111111"/>
<path d="M203.242 65.9043V67.5391H202.223V68.3828H203.242V72.2148C203.242 73.4219 203.764 73.9023 205.064 73.9023C205.264 73.9023 205.457 73.8789 205.656 73.8438V72.9941C205.469 73.0117 205.369 73.0176 205.188 73.0176C204.531 73.0176 204.25 72.7012 204.25 71.957V68.3828H205.656V67.5391H204.25V65.9043H203.242Z" fill="#111111"/>
<path d="M211.105 76.1406C212.225 76.1406 212.729 75.707 213.268 74.2422L215.734 67.5391H214.662L212.934 72.7363H212.84L211.105 67.5391H210.016L212.354 73.8613L212.236 74.2363C211.973 74.998 211.656 75.2734 211.076 75.2734C210.936 75.2734 210.777 75.2676 210.654 75.2441V76.1055C210.795 76.1289 210.971 76.1406 211.105 76.1406Z" fill="#111111"/>
<path d="M219.443 73.9668C221.242 73.9668 222.355 72.7246 222.355 70.6973C222.355 68.6641 221.242 67.4277 219.443 67.4277C217.645 67.4277 216.531 68.6641 216.531 70.6973C216.531 72.7246 217.645 73.9668 219.443 73.9668ZM219.443 73.0586C218.248 73.0586 217.574 72.1914 217.574 70.6973C217.574 69.1973 218.248 68.3359 219.443 68.3359C220.639 68.3359 221.312 69.1973 221.312 70.6973C221.312 72.1914 220.639 73.0586 219.443 73.0586Z" fill="#111111"/>
<path d="M229.047 67.5391H228.039V71.2773C228.039 72.3848 227.43 73.0469 226.316 73.0469C225.309 73.0469 224.887 72.5195 224.887 71.3828V67.5391H223.879V71.6289C223.879 73.123 224.617 73.9668 226.035 73.9668C227.002 73.9668 227.676 73.5684 227.992 72.8652H228.086V73.8555H229.047V67.5391Z" fill="#111111"/>
<path d="M236.09 73.9668C236.934 73.9668 237.625 73.5977 238.035 72.9238H238.129V73.8555H239.09V69.5312C239.09 68.2188 238.229 67.4277 236.688 67.4277C235.34 67.4277 234.344 68.0957 234.209 69.1094H235.229C235.369 68.6113 235.896 68.3242 236.652 68.3242C237.596 68.3242 238.082 68.752 238.082 69.5312V70.1055L236.26 70.2168C234.789 70.3047 233.957 70.9551 233.957 72.0859C233.957 73.2402 234.865 73.9668 236.09 73.9668ZM236.277 73.082C235.545 73.082 235 72.707 235 72.0625C235 71.4297 235.422 71.0957 236.383 71.0312L238.082 70.9199V71.5C238.082 72.4023 237.314 73.082 236.277 73.082Z" fill="#111111"/>
<path d="M240.953 73.8555H241.961V69.9414C241.961 69.0508 242.658 68.4062 243.619 68.4062C243.818 68.4062 244.182 68.4414 244.264 68.4648V67.457C244.135 67.4395 243.924 67.4277 243.76 67.4277C242.922 67.4277 242.195 67.8613 242.008 68.4766H241.914V67.5391H240.953V73.8555Z" fill="#111111"/>
<path d="M249.531 72.2207C249.268 72.7773 248.717 73.0762 247.902 73.0762C246.83 73.0762 246.133 72.2852 246.08 71.0371V70.9902H250.621V70.6035C250.621 68.6406 249.584 67.4277 247.879 67.4277C246.145 67.4277 245.031 68.7168 245.031 70.7031C245.031 72.7012 246.127 73.9668 247.879 73.9668C249.262 73.9668 250.246 73.2988 250.539 72.2207H249.531ZM247.867 68.3184C248.869 68.3184 249.537 69.0566 249.561 70.1758H246.08C246.156 69.0566 246.859 68.3184 247.867 68.3184Z" fill="#111111"/>
<path d="M17.0078 87.8555H18.0156V79.0312H17.0078V87.8555Z" fill="#111111"/>
<path d="M22.5684 87.9668C24.3672 87.9668 25.4805 86.7246 25.4805 84.6973C25.4805 82.6641 24.3672 81.4277 22.5684 81.4277C20.7695 81.4277 19.6562 82.6641 19.6562 84.6973C19.6562 86.7246 20.7695 87.9668 22.5684 87.9668ZM22.5684 87.0586C21.373 87.0586 20.6992 86.1914 20.6992 84.6973C20.6992 83.1973 21.373 82.3359 22.5684 82.3359C23.7637 82.3359 24.4375 83.1973 24.4375 84.6973C24.4375 86.1914 23.7637 87.0586 22.5684 87.0586Z" fill="#111111"/>
<path d="M29.6582 87.9668C31.457 87.9668 32.5703 86.7246 32.5703 84.6973C32.5703 82.6641 31.457 81.4277 29.6582 81.4277C27.8594 81.4277 26.7461 82.6641 26.7461 84.6973C26.7461 86.7246 27.8594 87.9668 29.6582 87.9668ZM29.6582 87.0586C28.4629 87.0586 27.7891 86.1914 27.7891 84.6973C27.7891 83.1973 28.4629 82.3359 29.6582 82.3359C30.8535 82.3359 31.5273 83.1973 31.5273 84.6973C31.5273 86.1914 30.8535 87.0586 29.6582 87.0586Z" fill="#111111"/>
<path d="M35.3125 84.2988H35.2188V79.0312H34.2109V87.8555H35.2188V85.459L35.8223 84.8965L38.1895 87.8555H39.4727L36.5723 84.2461L39.291 81.5391H38.0547L35.3125 84.2988Z" fill="#111111"/>
<path d="M41.1953 80.3203C41.582 80.3203 41.8984 80.0039 41.8984 79.6172C41.8984 79.2305 41.582 78.9141 41.1953 78.9141C40.8086 78.9141 40.4922 79.2305 40.4922 79.6172C40.4922 80.0039 40.8086 80.3203 41.1953 80.3203ZM40.6914 87.8555H41.6992V81.5391H40.6914V87.8555Z" fill="#111111"/>
<path d="M43.6211 87.8555H44.6289V84.1172C44.6289 83.0098 45.2793 82.3359 46.2871 82.3359C47.2949 82.3359 47.7754 82.875 47.7754 84.0117V87.8555H48.7832V83.7656C48.7832 82.2656 47.9922 81.4277 46.5742 81.4277C45.6074 81.4277 44.9922 81.8379 44.6758 82.5352H44.582V81.5391H43.6211V87.8555Z" fill="#111111"/>
<path d="M53.2305 90.2812C54.9531 90.2812 56.043 89.3789 56.043 87.9668V81.5391H55.082V82.541H54.9883C54.625 81.8613 53.8457 81.4277 52.9609 81.4277C51.3379 81.4277 50.3125 82.7109 50.3125 84.6035C50.3125 86.4961 51.3262 87.7617 52.9609 87.7617C53.8281 87.7617 54.543 87.3691 54.9414 86.6719H55.0352V87.9141C55.0352 88.8457 54.3613 89.4023 53.2305 89.4023C52.3223 89.4023 51.7598 89.0684 51.6484 88.5527H50.582C50.7344 89.5957 51.707 90.2812 53.2305 90.2812ZM53.1836 86.8711C52.0117 86.8711 51.3555 85.9805 51.3555 84.6035C51.3555 83.2266 52.0117 82.3359 53.1836 82.3359C54.3496 82.3359 55.0586 83.2266 55.0586 84.6035C55.0586 85.9805 54.3555 86.8711 53.1836 86.8711Z" fill="#111111"/>
<path d="M61.75 87.8555H62.7578V82.3828H64.2051V81.5391H62.7578V80.8652C62.7578 80.1738 63.0625 79.8223 63.7891 79.8223C63.9707 79.8223 64.1406 79.8281 64.2637 79.8516V79.0312C64.0527 78.9902 63.8301 78.9727 63.584 78.9727C62.3828 78.9727 61.75 79.5762 61.75 80.8359V81.5391H60.7012V82.3828H61.75V87.8555Z" fill="#111111"/>
<path d="M68.002 87.9668C69.8008 87.9668 70.9141 86.7246 70.9141 84.6973C70.9141 82.6641 69.8008 81.4277 68.002 81.4277C66.2031 81.4277 65.0898 82.6641 65.0898 84.6973C65.0898 86.7246 66.2031 87.9668 68.002 87.9668ZM68.002 87.0586C66.8066 87.0586 66.1328 86.1914 66.1328 84.6973C66.1328 83.1973 66.8066 82.3359 68.002 82.3359C69.1973 82.3359 69.8711 83.1973 69.8711 84.6973C69.8711 86.1914 69.1973 87.0586 68.002 87.0586Z" fill="#111111"/>
<path d="M72.4961 87.8555H73.5039V83.9414C73.5039 83.0508 74.2012 82.4062 75.1621 82.4062C75.3613 82.4062 75.7246 82.4414 75.8066 82.4648V81.457C75.6777 81.4395 75.4668 81.4277 75.3027 81.4277C74.4648 81.4277 73.7383 81.8613 73.5508 82.4766H73.457V81.5391H72.4961V87.8555Z" fill="#111111"/>
<path d="M77.1367 87.9141C77.5586 87.9141 77.8984 87.5684 77.8984 87.1523C77.8984 86.7305 77.5586 86.3906 77.1367 86.3906C76.7207 86.3906 76.375 86.7305 76.375 87.1523C76.375 87.5684 76.7207 87.9141 77.1367 87.9141Z" fill="#111111"/>
<path d="M88.8789 87.8555H89.9863L86.8691 79.4004H85.8262L82.709 87.8555H83.8164L84.666 85.4355H88.0293L88.8789 87.8555ZM86.3008 80.7656H86.3945L87.7188 84.5391H84.9766L86.3008 80.7656Z" fill="#111111"/>
<path d="M91.3398 87.8555H92.3477V83.9414C92.3477 83.0508 93.0449 82.4062 94.0059 82.4062C94.2051 82.4062 94.5684 82.4414 94.6504 82.4648V81.457C94.5215 81.4395 94.3105 81.4277 94.1465 81.4277C93.3086 81.4277 92.582 81.8613 92.3945 82.4766H92.3008V81.5391H91.3398V87.8555Z" fill="#111111"/>
<path d="M99.918 86.2207C99.6543 86.7773 99.1035 87.0762 98.2891 87.0762C97.2168 87.0762 96.5195 86.2852 96.4668 85.0371V84.9902H101.008V84.6035C101.008 82.6406 99.9707 81.4277 98.2656 81.4277C96.5312 81.4277 95.418 82.7168 95.418 84.7031C95.418 86.7012 96.5137 87.9668 98.2656 87.9668C99.6484 87.9668 100.633 87.2988 100.926 86.2207H99.918ZM98.2539 82.3184C99.2559 82.3184 99.9238 83.0566 99.9473 84.1758H96.4668C96.543 83.0566 97.2461 82.3184 98.2539 82.3184Z" fill="#111111"/>
<path d="M106.516 90.1406C107.635 90.1406 108.139 89.707 108.678 88.2422L111.145 81.5391H110.072L108.344 86.7363H108.25L106.516 81.5391H105.426L107.764 87.8613L107.646 88.2363C107.383 88.998 107.066 89.2734 106.486 89.2734C106.346 89.2734 106.188 89.2676 106.064 89.2441V90.1055C106.205 90.1289 106.381 90.1406 106.516 90.1406Z" fill="#111111"/>
<path d="M114.854 87.9668C116.652 87.9668 117.766 86.7246 117.766 84.6973C117.766 82.6641 116.652 81.4277 114.854 81.4277C113.055 81.4277 111.941 82.6641 111.941 84.6973C111.941 86.7246 113.055 87.9668 114.854 87.9668ZM114.854 87.0586C113.658 87.0586 112.984 86.1914 112.984 84.6973C112.984 83.1973 113.658 82.3359 114.854 82.3359C116.049 82.3359 116.723 83.1973 116.723 84.6973C116.723 86.1914 116.049 87.0586 114.854 87.0586Z" fill="#111111"/>
<path d="M124.457 81.5391H123.449V85.2773C123.449 86.3848 122.84 87.0469 121.727 87.0469C120.719 87.0469 120.297 86.5195 120.297 85.3828V81.5391H119.289V85.6289C119.289 87.123 120.027 87.9668 121.445 87.9668C122.412 87.9668 123.086 87.5684 123.402 86.8652H123.496V87.8555H124.457V81.5391Z" fill="#111111"/>
<path d="M129.596 83.2676C129.596 84.1816 130.135 84.6914 131.318 84.9785L132.402 85.2422C133.076 85.4062 133.404 85.6992 133.404 86.1328C133.404 86.7129 132.795 87.1172 131.945 87.1172C131.137 87.1172 130.633 86.7773 130.463 86.2441H129.426C129.537 87.293 130.504 87.9668 131.91 87.9668C133.346 87.9668 134.441 87.1875 134.441 86.0566C134.441 85.1484 133.867 84.6328 132.678 84.3457L131.705 84.1113C130.961 83.9297 130.609 83.6602 130.609 83.2266C130.609 82.6641 131.195 82.2832 131.945 82.2832C132.707 82.2832 133.199 82.6172 133.334 83.1211H134.33C134.195 82.084 133.275 81.4277 131.951 81.4277C130.609 81.4277 129.596 82.2188 129.596 83.2676Z" fill="#111111"/>
<path d="M141.133 81.5391H140.125V85.2773C140.125 86.3848 139.516 87.0469 138.402 87.0469C137.395 87.0469 136.973 86.5195 136.973 85.3828V81.5391H135.965V85.6289C135.965 87.123 136.703 87.9668 138.121 87.9668C139.088 87.9668 139.762 87.5684 140.078 86.8652H140.172V87.8555H141.133V81.5391Z" fill="#111111"/>
<path d="M143.031 87.8555H144.039V83.9414C144.039 83.0508 144.736 82.4062 145.697 82.4062C145.896 82.4062 146.26 82.4414 146.342 82.4648V81.457C146.213 81.4395 146.002 81.4277 145.838 81.4277C145 81.4277 144.273 81.8613 144.086 82.4766H143.992V81.5391H143.031V87.8555Z" fill="#111111"/>
<path d="M151.609 86.2207C151.346 86.7773 150.795 87.0762 149.98 87.0762C148.908 87.0762 148.211 86.2852 148.158 85.0371V84.9902H152.699V84.6035C152.699 82.6406 151.662 81.4277 149.957 81.4277C148.223 81.4277 147.109 82.7168 147.109 84.7031C147.109 86.7012 148.205 87.9668 149.957 87.9668C151.34 87.9668 152.324 87.2988 152.617 86.2207H151.609ZM149.945 82.3184C150.947 82.3184 151.615 83.0566 151.639 84.1758H148.158C148.234 83.0566 148.938 82.3184 149.945 82.3184Z" fill="#111111"/>
<path d="M158.207 90.1406C159.326 90.1406 159.83 89.707 160.369 88.2422L162.836 81.5391H161.764L160.035 86.7363H159.941L158.207 81.5391H157.117L159.455 87.8613L159.338 88.2363C159.074 88.998 158.758 89.2734 158.178 89.2734C158.037 89.2734 157.879 89.2676 157.756 89.2441V90.1055C157.896 90.1289 158.072 90.1406 158.207 90.1406Z" fill="#111111"/>
<path d="M166.545 87.9668C168.344 87.9668 169.457 86.7246 169.457 84.6973C169.457 82.6641 168.344 81.4277 166.545 81.4277C164.746 81.4277 163.633 82.6641 163.633 84.6973C163.633 86.7246 164.746 87.9668 166.545 87.9668ZM166.545 87.0586C165.35 87.0586 164.676 86.1914 164.676 84.6973C164.676 83.1973 165.35 82.3359 166.545 82.3359C167.74 82.3359 168.414 83.1973 168.414 84.6973C168.414 86.1914 167.74 87.0586 166.545 87.0586Z" fill="#111111"/>
<path d="M176.148 81.5391H175.141V85.2773C175.141 86.3848 174.531 87.0469 173.418 87.0469C172.41 87.0469 171.988 86.5195 171.988 85.3828V81.5391H170.98V85.6289C170.98 87.123 171.719 87.9668 173.137 87.9668C174.104 87.9668 174.777 87.5684 175.094 86.8652H175.188V87.8555H176.148V81.5391Z" fill="#111111"/>
<path d="M189.379 81.5391H188.365L187.123 86.5898H187.029L185.617 81.5391H184.65L183.238 86.5898H183.145L181.902 81.5391H180.883L182.652 87.8555H183.672L185.078 82.9688H185.172L186.584 87.8555H187.609L189.379 81.5391Z" fill="#111111"/>
<path d="M192.309 87.9668C193.152 87.9668 193.844 87.5977 194.254 86.9238H194.348V87.8555H195.309V83.5312C195.309 82.2188 194.447 81.4277 192.906 81.4277C191.559 81.4277 190.562 82.0957 190.428 83.1094H191.447C191.588 82.6113 192.115 82.3242 192.871 82.3242C193.814 82.3242 194.301 82.752 194.301 83.5312V84.1055L192.479 84.2168C191.008 84.3047 190.176 84.9551 190.176 86.0859C190.176 87.2402 191.084 87.9668 192.309 87.9668ZM192.496 87.082C191.764 87.082 191.219 86.707 191.219 86.0625C191.219 85.4297 191.641 85.0957 192.602 85.0312L194.301 84.9199V85.5C194.301 86.4023 193.533 87.082 192.496 87.082Z" fill="#111111"/>
<path d="M197.172 87.8555H198.18V84.1172C198.18 83.0098 198.83 82.3359 199.838 82.3359C200.846 82.3359 201.326 82.875 201.326 84.0117V87.8555H202.334V83.7656C202.334 82.2656 201.543 81.4277 200.125 81.4277C199.158 81.4277 198.543 81.8379 198.227 82.5352H198.133V81.5391H197.172V87.8555Z" fill="#111111"/>
<path d="M204.602 79.9043V81.5391H203.582V82.3828H204.602V86.2148C204.602 87.4219 205.123 87.9023 206.424 87.9023C206.623 87.9023 206.816 87.8789 207.016 87.8438V86.9941C206.828 87.0117 206.729 87.0176 206.547 87.0176C205.891 87.0176 205.609 86.7012 205.609 85.957V82.3828H207.016V81.5391H205.609V79.9043H204.602Z" fill="#111111"/>
<path d="M212.348 79.9043V81.5391H211.328V82.3828H212.348V86.2148C212.348 87.4219 212.869 87.9023 214.17 87.9023C214.369 87.9023 214.562 87.8789 214.762 87.8438V86.9941C214.574 87.0117 214.475 87.0176 214.293 87.0176C213.637 87.0176 213.355 86.7012 213.355 85.957V82.3828H214.762V81.5391H213.355V79.9043H212.348Z" fill="#111111"/>
<path d="M218.787 87.9668C220.586 87.9668 221.699 86.7246 221.699 84.6973C221.699 82.6641 220.586 81.4277 218.787 81.4277C216.988 81.4277 215.875 82.6641 215.875 84.6973C215.875 86.7246 216.988 87.9668 218.787 87.9668ZM218.787 87.0586C217.592 87.0586 216.918 86.1914 216.918 84.6973C216.918 83.1973 217.592 82.3359 218.787 82.3359C219.982 82.3359 220.656 83.1973 220.656 84.6973C220.656 86.1914 219.982 87.0586 218.787 87.0586Z" fill="#111111"/>
<path d="M22.1758 97.4727C22 96.3477 21.0625 95.4277 19.5273 95.4277C17.7578 95.4277 16.6328 96.7051 16.6328 98.6738C16.6328 100.684 17.7637 101.967 19.5332 101.967C21.0508 101.967 21.9941 101.111 22.1758 99.9512H21.1562C20.9688 100.666 20.377 101.059 19.5273 101.059C18.4023 101.059 17.6758 100.133 17.6758 98.6738C17.6758 97.2441 18.3906 96.3359 19.5273 96.3359C20.4355 96.3359 20.9922 96.8457 21.1562 97.4727H22.1758Z" fill="#111111"/>
<path d="M26.2598 101.967C28.0586 101.967 29.1719 100.725 29.1719 98.6973C29.1719 96.6641 28.0586 95.4277 26.2598 95.4277C24.4609 95.4277 23.3477 96.6641 23.3477 98.6973C23.3477 100.725 24.4609 101.967 26.2598 101.967ZM26.2598 101.059C25.0645 101.059 24.3906 100.191 24.3906 98.6973C24.3906 97.1973 25.0645 96.3359 26.2598 96.3359C27.4551 96.3359 28.1289 97.1973 28.1289 98.6973C28.1289 100.191 27.4551 101.059 26.2598 101.059Z" fill="#111111"/>
<path d="M30.7539 101.855H31.7617V98.1172C31.7617 97.0098 32.4121 96.3359 33.4199 96.3359C34.4277 96.3359 34.9082 96.875 34.9082 98.0117V101.855H35.916V97.7656C35.916 96.2656 35.125 95.4277 33.707 95.4277C32.7402 95.4277 32.125 95.8379 31.8086 96.5352H31.7148V95.5391H30.7539V101.855Z" fill="#111111"/>
<path d="M38.1836 93.9043V95.5391H37.1641V96.3828H38.1836V100.215C38.1836 101.422 38.7051 101.902 40.0059 101.902C40.2051 101.902 40.3984 101.879 40.5977 101.844V100.994C40.4102 101.012 40.3105 101.018 40.1289 101.018C39.4727 101.018 39.1914 100.701 39.1914 99.957V96.3828H40.5977V95.5391H39.1914V93.9043H38.1836Z" fill="#111111"/>
<path d="M42.6484 94.3203C43.0352 94.3203 43.3516 94.0039 43.3516 93.6172C43.3516 93.2305 43.0352 92.9141 42.6484 92.9141C42.2617 92.9141 41.9453 93.2305 41.9453 93.6172C41.9453 94.0039 42.2617 94.3203 42.6484 94.3203ZM42.1445 101.855H43.1523V95.5391H42.1445V101.855Z" fill="#111111"/>
<path d="M45.0742 101.855H46.082V98.1172C46.082 97.0098 46.7324 96.3359 47.7402 96.3359C48.748 96.3359 49.2285 96.875 49.2285 98.0117V101.855H50.2363V97.7656C50.2363 96.2656 49.4453 95.4277 48.0273 95.4277C47.0605 95.4277 46.4453 95.8379 46.1289 96.5352H46.0352V95.5391H45.0742V101.855Z" fill="#111111"/>
<path d="M57.1914 95.5391H56.1836V99.2773C56.1836 100.385 55.5742 101.047 54.4609 101.047C53.4531 101.047 53.0312 100.52 53.0312 99.3828V95.5391H52.0234V99.6289C52.0234 101.123 52.7617 101.967 54.1797 101.967C55.1465 101.967 55.8203 101.568 56.1367 100.865H56.2305V101.855H57.1914V95.5391Z" fill="#111111"/>
<path d="M63.2734 100.221C63.0098 100.777 62.459 101.076 61.6445 101.076C60.5723 101.076 59.875 100.285 59.8223 99.0371V98.9902H64.3633V98.6035C64.3633 96.6406 63.3262 95.4277 61.6211 95.4277C59.8867 95.4277 58.7734 96.7168 58.7734 98.7031C58.7734 100.701 59.8691 101.967 61.6211 101.967C63.0039 101.967 63.9883 101.299 64.2812 100.221H63.2734ZM61.6094 96.3184C62.6113 96.3184 63.2793 97.0566 63.3027 98.1758H59.8223C59.8984 97.0566 60.6016 96.3184 61.6094 96.3184Z" fill="#111111"/>
<path d="M65.4648 95.6094H66.4668C66.5312 94.7715 67.0938 94.25 67.9785 94.25C68.8516 94.25 69.4141 94.7832 69.4141 95.5098C69.4141 96.1367 69.1504 96.5059 68.4707 96.9219C67.668 97.4023 67.293 97.9297 67.2988 98.7031V99.2422H68.3242V98.8613C68.3242 98.2461 68.5352 97.918 69.2793 97.4785C70.0293 97.0273 70.5039 96.377 70.5039 95.457C70.5039 94.25 69.4961 93.3359 68.0195 93.3359C66.373 93.3359 65.5293 94.3438 65.4648 95.6094ZM67.8906 101.961C68.3652 101.961 68.6992 101.621 68.6992 101.146C68.6992 100.666 68.3652 100.326 67.8906 100.326C67.416 100.326 67.0762 100.666 67.0762 101.146C67.0762 101.621 67.416 101.961 67.8906 101.961Z" fill="#111111"/>
<g clip-path="url(#clip0_145_6031)">
<path d="M65.8785 133.796C67.6671 133.796 68.9776 132.738 69.1602 131.17H67.796C67.608 132.04 66.8614 132.593 65.8785 132.593C64.5572 132.593 63.7354 131.492 63.7354 129.725C63.7354 127.963 64.5572 126.862 65.8731 126.862C66.8506 126.862 67.5972 127.469 67.7906 128.404H69.1548C68.9937 126.798 67.6348 125.659 65.8731 125.659C63.6763 125.659 62.3174 127.211 62.3174 129.73C62.3174 132.239 63.6817 133.796 65.8785 133.796Z" fill="#111111"/>
<path d="M72.1788 133.699C72.9468 133.699 73.5914 133.366 73.919 132.797H74.0103V133.603H75.294V129.591C75.294 128.35 74.4454 127.619 72.9361 127.619C71.5396 127.619 70.5674 128.275 70.46 129.301H71.7169C71.8404 128.898 72.2593 128.677 72.8716 128.677C73.5914 128.677 73.9781 129.005 73.9781 129.591V130.095L72.4634 130.187C71.0347 130.267 70.2344 130.885 70.2344 131.938C70.2344 133.012 71.0455 133.699 72.1788 133.699ZM72.5709 132.674C71.98 132.674 71.5557 132.378 71.5557 131.873C71.5557 131.385 71.9048 131.111 72.6514 131.062L73.9781 130.971V131.449C73.9781 132.147 73.3765 132.674 72.5709 132.674Z" fill="#111111"/>
<path d="M76.9 133.603H78.232V130.181C78.232 129.301 78.7315 128.747 79.5264 128.747C80.3375 128.747 80.7134 129.204 80.7134 130.117V133.603H82.0455V129.805C82.0455 128.409 81.3311 127.619 80.0206 127.619C79.1451 127.619 78.5543 128.017 78.275 128.672H78.1837V127.732H76.9V133.603Z" fill="#111111"/>
<path d="M88.7003 129.693C88.5606 128.479 87.6475 127.619 86.1382 127.619C84.3712 127.619 83.3345 128.753 83.3345 130.654C83.3345 132.577 84.3765 133.721 86.1436 133.721C87.6314 133.721 88.5552 132.894 88.7003 131.68H87.4327C87.293 132.298 86.8311 132.625 86.1382 132.625C85.2305 132.625 84.6827 131.9 84.6827 130.654C84.6827 129.429 85.2252 128.71 86.1382 128.71C86.8687 128.71 87.3091 129.123 87.4327 129.693H88.7003Z" fill="#111111"/>
<path d="M93.8028 131.997C93.6094 132.437 93.1529 132.684 92.4922 132.684C91.6168 132.684 91.0528 132.061 91.0206 131.068V130.998H95.1241V130.573C95.1241 128.731 94.1197 127.619 92.4439 127.619C90.7413 127.619 89.6832 128.806 89.6832 130.692C89.6832 132.572 90.7252 133.721 92.4547 133.721C93.8404 133.721 94.8233 133.055 95.065 131.997H93.8028ZM92.4385 128.656C93.2388 128.656 93.7652 129.22 93.7921 130.112H91.0259C91.085 129.231 91.6436 128.656 92.4385 128.656Z" fill="#111111"/>
<path d="M96.5152 133.603H97.8472V125.46H96.5152V133.603Z" fill="#111111"/>
<rect x="53.9073" y="117.864" width="52.3502" height="23.5285" rx="11.7643" stroke="#767676" stroke-width="0.542593"/>
<rect x="114.529" y="116.521" width="125.902" height="26.2142" rx="13.1071" fill="#767676"/>
<path d="M127.314 132.821V129.765L130.031 125.071H128.511L126.669 128.396H126.578L124.73 125.071H123.21L125.928 129.765V132.821H127.314Z" fill="white"/>
<path d="M134.06 131.215C133.866 131.656 133.41 131.903 132.749 131.903C131.874 131.903 131.31 131.28 131.278 130.286V130.216H135.381V129.792C135.381 127.95 134.377 126.838 132.701 126.838C130.998 126.838 129.94 128.025 129.94 129.91C129.94 131.79 130.982 132.939 132.712 132.939C134.097 132.939 135.08 132.273 135.322 131.215H134.06ZM132.696 127.875C133.496 127.875 134.022 128.438 134.049 129.33H131.283C131.342 128.449 131.901 127.875 132.696 127.875Z" fill="white"/>
<path d="M136.584 128.626C136.584 129.507 137.116 130.023 138.244 130.281L139.286 130.522C139.844 130.651 140.097 130.866 140.097 131.199C140.097 131.645 139.63 131.951 138.958 131.951C138.292 131.951 137.879 131.683 137.75 131.248H136.434C136.536 132.306 137.46 132.939 138.926 132.939C140.392 132.939 141.429 132.193 141.429 131.07C141.429 130.206 140.908 129.728 139.785 129.47L138.749 129.239C138.158 129.099 137.879 128.89 137.879 128.557C137.879 128.122 138.335 127.826 138.942 127.826C139.565 127.826 139.957 128.095 140.054 128.508H141.305C141.209 127.45 140.333 126.838 138.937 126.838C137.551 126.838 136.584 127.574 136.584 128.626Z" fill="white"/>
<path d="M143.636 134.868L144.566 131.64H143.218L142.718 134.868H143.636Z" fill="white"/>
<path d="M154.406 128.911C154.266 127.697 153.353 126.838 151.843 126.838C150.076 126.838 149.04 127.971 149.04 129.873C149.04 131.795 150.082 132.939 151.849 132.939C153.337 132.939 154.26 132.112 154.406 130.898H153.138C152.998 131.516 152.536 131.844 151.843 131.844C150.936 131.844 150.388 131.119 150.388 129.873C150.388 128.648 150.93 127.928 151.843 127.928C152.574 127.928 153.014 128.342 153.138 128.911H154.406Z" fill="white"/>
<path d="M158.214 132.939C159.97 132.939 161.039 131.79 161.039 129.883C161.039 127.987 159.965 126.838 158.214 126.838C156.468 126.838 155.388 127.993 155.388 129.883C155.388 131.79 156.452 132.939 158.214 132.939ZM158.214 131.849C157.284 131.849 156.753 131.129 156.753 129.889C156.753 128.648 157.284 127.928 158.214 127.928C159.137 127.928 159.669 128.648 159.669 129.889C159.669 131.129 159.143 131.849 158.214 131.849Z" fill="white"/>
<path d="M162.382 132.821H163.714V129.4C163.714 128.519 164.213 127.966 165.008 127.966C165.819 127.966 166.195 128.422 166.195 129.335V132.821H167.527V129.024C167.527 127.627 166.813 126.838 165.502 126.838C164.627 126.838 164.036 127.235 163.757 127.891H163.665V126.951H162.382V132.821Z" fill="white"/>
<path d="M169.531 125.511V126.988H168.601V128.025H169.531V131.264C169.531 132.397 170.068 132.848 171.416 132.848C171.674 132.848 171.921 132.827 172.114 132.789V131.769C171.953 131.785 171.851 131.795 171.663 131.795C171.104 131.795 170.857 131.532 170.857 130.947V128.025H172.114V126.988H170.857V125.511H169.531Z" fill="white"/>
<path d="M174.123 125.968C174.563 125.968 174.923 125.619 174.923 125.178C174.923 124.743 174.563 124.389 174.123 124.389C173.688 124.389 173.328 124.743 173.328 125.178C173.328 125.619 173.688 125.968 174.123 125.968ZM173.462 132.821H174.789V126.951H173.462V132.821Z" fill="white"/>
<path d="M176.443 132.821H177.775V129.4C177.775 128.519 178.275 127.966 179.07 127.966C179.881 127.966 180.257 128.422 180.257 129.335V132.821H181.589V129.024C181.589 127.627 180.874 126.838 179.564 126.838C178.688 126.838 178.097 127.235 177.818 127.891H177.727V126.951H176.443V132.821Z" fill="white"/>
<path d="M188.281 126.951H186.949V130.372C186.949 131.258 186.476 131.795 185.612 131.795C184.817 131.795 184.446 131.355 184.446 130.442V126.951H183.114V130.764C183.114 132.139 183.866 132.939 185.15 132.939C186.047 132.939 186.621 132.558 186.906 131.887H186.997V132.821H188.281V126.951Z" fill="white"/>
<path d="M193.743 131.215C193.55 131.656 193.093 131.903 192.433 131.903C191.557 131.903 190.993 131.28 190.961 130.286V130.216H195.065V129.792C195.065 127.95 194.06 126.838 192.385 126.838C190.682 126.838 189.624 128.025 189.624 129.91C189.624 131.79 190.666 132.939 192.395 132.939C193.781 132.939 194.764 132.273 195.006 131.215H193.743ZM192.379 127.875C193.179 127.875 193.706 128.438 193.733 129.33H190.967C191.026 128.449 191.584 127.875 192.379 127.875Z" fill="white"/>
<path d="M199.759 125.511V126.988H198.83V128.025H199.759V131.264C199.759 132.397 200.296 132.848 201.644 132.848C201.902 132.848 202.149 132.827 202.343 132.789V131.769C202.181 131.785 202.079 131.795 201.891 131.795C201.333 131.795 201.086 131.532 201.086 130.947V128.025H202.343V126.988H201.086V125.511H199.759Z" fill="white"/>
<path d="M206.156 132.939C207.912 132.939 208.981 131.79 208.981 129.883C208.981 127.987 207.907 126.838 206.156 126.838C204.41 126.838 203.331 127.993 203.331 129.883C203.331 131.79 204.394 132.939 206.156 132.939ZM206.156 131.849C205.227 131.849 204.695 131.129 204.695 129.889C204.695 128.648 205.227 127.928 206.156 127.928C207.08 127.928 207.612 128.648 207.612 129.889C207.612 131.129 207.085 131.849 206.156 131.849Z" fill="white"/>
<path d="M213.122 128.626C213.122 129.507 213.654 130.023 214.782 130.281L215.824 130.522C216.383 130.651 216.635 130.866 216.635 131.199C216.635 131.645 216.168 131.951 215.496 131.951C214.83 131.951 214.417 131.683 214.288 131.248H212.972C213.074 132.306 213.998 132.939 215.464 132.939C216.93 132.939 217.967 132.193 217.967 131.07C217.967 130.206 217.446 129.728 216.323 129.47L215.287 129.239C214.696 129.099 214.417 128.89 214.417 128.557C214.417 128.122 214.873 127.826 215.48 127.826C216.103 127.826 216.495 128.095 216.592 128.508H217.843C217.747 127.45 216.871 126.838 215.475 126.838C214.089 126.838 213.122 127.574 213.122 128.626Z" fill="white"/>
<path d="M219.992 125.968C220.432 125.968 220.792 125.619 220.792 125.178C220.792 124.743 220.432 124.389 219.992 124.389C219.557 124.389 219.197 124.743 219.197 125.178C219.197 125.619 219.557 125.968 219.992 125.968ZM219.331 132.821H220.658V126.951H219.331V132.821Z" fill="white"/>
<path d="M222.737 125.511V126.988H221.807V128.025H222.737V131.264C222.737 132.397 223.274 132.848 224.622 132.848C224.88 132.848 225.127 132.827 225.32 132.789V131.769C225.159 131.785 225.057 131.795 224.869 131.795C224.31 131.795 224.063 131.532 224.063 130.947V128.025H225.32V126.988H224.063V125.511H222.737Z" fill="white"/>
<path d="M230.428 131.215C230.235 131.656 229.778 131.903 229.117 131.903C228.242 131.903 227.678 131.28 227.646 130.286V130.216H231.749V129.792C231.749 127.95 230.745 126.838 229.069 126.838C227.366 126.838 226.308 128.025 226.308 129.91C226.308 131.79 227.35 132.939 229.08 132.939C230.466 132.939 231.448 132.273 231.69 131.215H230.428ZM229.064 127.875C229.864 127.875 230.39 128.438 230.417 129.33H227.651C227.71 128.449 228.269 127.875 229.064 127.875Z" fill="white"/>
</g>
<rect x="0.5" y="0.5" width="292" height="158" rx="7.5" stroke="#767676"/>
<defs>
<clipPath id="clip0_145_6031">
<rect width="186.795" height="26.2142" fill="white" transform="translate(53.636 116.521)"/>
</clipPath>
</defs>
</svg>
