<svg viewBox="0 0 293 147" fill="none" xmlns="http://www.w3.org/2000/svg">
<rect x="0.5" y="0.5" width="292" height="146" rx="7.5" fill="white"/>
<path d="M23.5625 25.8438H23.6406L25.9453 34H27.8438L30.8672 22.7266H28.7734L26.8203 31.2656H26.7578L24.4922 22.7266H22.7109L20.4453 31.2656H20.3828L18.4297 22.7266H16.3359L19.3594 34H21.2578L23.5625 25.8438Z" fill="#111111"/>
<path d="M36.5781 31.5234C36.3672 32.2109 35.6797 32.6641 34.7734 32.6641C33.5 32.6641 32.6875 31.7734 32.6875 30.4453V30.3281H38.4766V29.6953C38.4766 27.1797 37.0078 25.5469 34.6562 25.5469C32.2656 25.5469 30.75 27.2734 30.75 29.8906C30.75 32.5312 32.25 34.1641 34.7344 34.1641C36.6953 34.1641 38.1484 33.0859 38.3984 31.5234H36.5781ZM34.6641 27.0547C35.7812 27.0547 36.5312 27.875 36.5703 29.0469H32.7031C32.7812 27.8906 33.5703 27.0547 34.6641 27.0547Z" fill="#111111"/>
<path d="M44.3672 34.1328C46.4609 34.1328 47.7812 32.5078 47.7812 29.8594C47.7812 27.2109 46.4531 25.5781 44.3672 25.5781C43.1953 25.5781 42.25 26.1719 41.7812 27.1406H41.7344V22.7266H39.7891V34H41.6953V32.5859H41.7344C42.2188 33.5469 43.1484 34.1328 44.3672 34.1328ZM43.7656 27.1797C45.0078 27.1797 45.7891 28.2188 45.7891 29.8594C45.7891 31.5078 45.0156 32.5391 43.7656 32.5391C42.5625 32.5391 41.7266 31.4844 41.7266 29.8594C41.7266 28.25 42.5625 27.1797 43.7656 27.1797Z" fill="#111111"/>
<path d="M48.8984 28.0938C48.8984 29.3203 49.6953 30.1016 51.2812 30.4531L52.6562 30.7578C53.5234 30.9531 53.8203 31.2344 53.8203 31.7344C53.8203 32.3516 53.2344 32.7422 52.2891 32.7422C51.3047 32.7422 50.75 32.3359 50.6016 31.5312H48.6875C48.8438 33.1328 50.125 34.1641 52.2891 34.1641C54.3203 34.1641 55.7578 33.1094 55.7578 31.5469C55.7578 30.3438 55.0938 29.6797 53.375 29.2969L52 28.9922C51.1328 28.7969 50.7891 28.4688 50.7891 27.9922C50.7891 27.3828 51.3594 26.9766 52.2188 26.9766C53.1172 26.9766 53.6719 27.4531 53.75 28.2031H55.5625C55.5156 26.6328 54.2344 25.5469 52.2188 25.5469C50.2188 25.5469 48.8984 26.5781 48.8984 28.0938Z" fill="#111111"/>
<path d="M58.0156 24.4688C58.6094 24.4688 59.0781 23.9922 59.0781 23.4141C59.0781 22.8281 58.6094 22.3594 58.0156 22.3594C57.4219 22.3594 56.9453 22.8281 56.9453 23.4141C56.9453 23.9922 57.4219 24.4688 58.0156 24.4688ZM57.0469 34H58.9922V25.7188H57.0469V34Z" fill="#111111"/>
<path d="M61.1641 23.7812V25.7188H59.9766V27.2188H61.1641V31.7969C61.1641 33.4062 61.8672 34.0391 63.6562 34.0391C64.0703 34.0391 64.4531 34.0078 64.6641 33.9609V32.4766C64.5391 32.5 64.2891 32.5156 64.1094 32.5156C63.4219 32.5156 63.1094 32.2031 63.1094 31.5234V27.2188H64.6719V25.7188H63.1094V23.7812H61.1641Z" fill="#111111"/>
<path d="M71.3281 31.5234C71.1172 32.2109 70.4297 32.6641 69.5234 32.6641C68.25 32.6641 67.4375 31.7734 67.4375 30.4453V30.3281H73.2266V29.6953C73.2266 27.1797 71.7578 25.5469 69.4062 25.5469C67.0156 25.5469 65.5 27.2734 65.5 29.8906C65.5 32.5312 67 34.1641 69.4844 34.1641C71.4453 34.1641 72.8984 33.0859 73.1484 31.5234H71.3281ZM69.4141 27.0547C70.5312 27.0547 71.2812 27.875 71.3203 29.0469H67.4531C67.5312 27.8906 68.3203 27.0547 69.4141 27.0547Z" fill="#111111"/>
<path d="M82.3203 34.1328C84.4141 34.1328 85.7344 32.5078 85.7344 29.8594C85.7344 27.2109 84.4062 25.5781 82.3203 25.5781C81.1484 25.5781 80.2031 26.1719 79.7344 27.1406H79.6875V22.7266H77.7422V34H79.6484V32.5859H79.6875C80.1719 33.5469 81.1016 34.1328 82.3203 34.1328ZM81.7188 27.1797C82.9609 27.1797 83.7422 28.2188 83.7422 29.8594C83.7422 31.5078 82.9688 32.5391 81.7188 32.5391C80.5156 32.5391 79.6797 31.4844 79.6797 29.8594C79.6797 28.25 80.5156 27.1797 81.7188 27.1797Z" fill="#111111"/>
<path d="M87.0547 34H89V22.7266H87.0547V34Z" fill="#111111"/>
<path d="M94.3203 34.1641C96.75 34.1641 98.3281 32.5469 98.3281 29.8594C98.3281 27.1797 96.7344 25.5469 94.3203 25.5469C91.9062 25.5469 90.3125 27.1875 90.3125 29.8594C90.3125 32.5469 91.8906 34.1641 94.3203 34.1641ZM94.3203 32.625C93.0859 32.625 92.2891 31.625 92.2891 29.8594C92.2891 28.1016 93.0938 27.0938 94.3203 27.0938C95.5547 27.0938 96.3516 28.1016 96.3516 29.8594C96.3516 31.625 95.5547 32.625 94.3203 32.625Z" fill="#111111"/>
<path d="M106.875 28.6719C106.742 26.9297 105.391 25.5469 103.203 25.5469C100.797 25.5469 99.2344 27.2109 99.2344 29.8594C99.2344 32.5469 100.797 34.1641 103.219 34.1641C105.297 34.1641 106.727 32.9453 106.883 31.0938H105.047C104.867 32.0312 104.227 32.5938 103.242 32.5938C102.008 32.5938 101.211 31.5938 101.211 29.8594C101.211 28.1562 102 27.125 103.227 27.125C104.266 27.125 104.883 27.7891 105.039 28.6719H106.875Z" fill="#111111"/>
<path d="M110.07 29.1719H110.047V22.7266H108.102V34H110.047V31.125L110.703 30.4609L113.32 34H115.57L112.117 29.2812L115.43 25.7188H113.188L110.07 29.1719Z" fill="#111111"/>
<path d="M121.438 31.5234C121.227 32.2109 120.539 32.6641 119.633 32.6641C118.359 32.6641 117.547 31.7734 117.547 30.4453V30.3281H123.336V29.6953C123.336 27.1797 121.867 25.5469 119.516 25.5469C117.125 25.5469 115.609 27.2734 115.609 29.8906C115.609 32.5312 117.109 34.1641 119.594 34.1641C121.555 34.1641 123.008 33.0859 123.258 31.5234H121.438ZM119.523 27.0547C120.641 27.0547 121.391 27.875 121.43 29.0469H117.562C117.641 27.8906 118.43 27.0547 119.523 27.0547Z" fill="#111111"/>
<path d="M127.688 34.1328C128.898 34.1328 129.852 33.5156 130.305 32.5859H130.336V34H132.242V22.7266H130.297V27.1094H130.25C129.812 26.1953 128.875 25.5781 127.688 25.5781C125.602 25.5781 124.25 27.2344 124.25 29.8516C124.25 32.4844 125.602 34.1328 127.688 34.1328ZM128.273 27.1797C129.5 27.1797 130.305 28.2344 130.305 29.8594C130.305 31.5 129.5 32.5391 128.273 32.5391C127.016 32.5391 126.242 31.5078 126.242 29.8594C126.242 28.2188 127.023 27.1797 128.273 27.1797Z" fill="#111111"/>
<path d="M21.7715 53.1816H21.8418L23.7871 59.8555H24.7832L27.0859 51.4004H25.9844L24.3027 58.2734H24.2324L22.3398 51.4004H21.2734L19.3809 58.2734H19.3105L17.6289 51.4004H16.5273L18.8301 59.8555H19.8262L21.7715 53.1816Z" fill="#111111"/>
<path d="M32.1602 58.2207C31.8965 58.7773 31.3457 59.0762 30.5312 59.0762C29.459 59.0762 28.7617 58.2852 28.709 57.0371V56.9902H33.25V56.6035C33.25 54.6406 32.2129 53.4277 30.5078 53.4277C28.7734 53.4277 27.6602 54.7168 27.6602 56.7031C27.6602 58.7012 28.7559 59.9668 30.5078 59.9668C31.8906 59.9668 32.875 59.2988 33.168 58.2207H32.1602ZM30.4961 54.3184C31.498 54.3184 32.166 55.0566 32.1895 56.1758H28.709C28.7852 55.0566 29.4883 54.3184 30.4961 54.3184Z" fill="#111111"/>
<path d="M41.3594 59.9668C42.959 59.9668 44.0078 58.6719 44.0078 56.6973C44.0078 54.7109 42.9648 53.4277 41.3594 53.4277C40.4922 53.4277 39.7246 53.8555 39.3789 54.5352H39.2852V51.0312H38.2773V59.8555H39.2383V58.8477H39.332C39.7305 59.5508 40.4805 59.9668 41.3594 59.9668ZM41.125 54.3359C42.2793 54.3359 42.9648 55.2207 42.9648 56.6973C42.9648 58.1738 42.2793 59.0586 41.125 59.0586C39.9766 59.0586 39.2617 58.1562 39.2617 56.6973C39.2617 55.2383 39.9766 54.3359 41.125 54.3359Z" fill="#111111"/>
<path d="M45.6484 59.8555H46.6562V51.0312H45.6484V59.8555Z" fill="#111111"/>
<path d="M51.209 59.9668C53.0078 59.9668 54.1211 58.7246 54.1211 56.6973C54.1211 54.6641 53.0078 53.4277 51.209 53.4277C49.4102 53.4277 48.2969 54.6641 48.2969 56.6973C48.2969 58.7246 49.4102 59.9668 51.209 59.9668ZM51.209 59.0586C50.0137 59.0586 49.3398 58.1914 49.3398 56.6973C49.3398 55.1973 50.0137 54.3359 51.209 54.3359C52.4043 54.3359 53.0781 55.1973 53.0781 56.6973C53.0781 58.1914 52.4043 59.0586 51.209 59.0586Z" fill="#111111"/>
<path d="M60.9297 55.4727C60.7539 54.3477 59.8164 53.4277 58.2812 53.4277C56.5117 53.4277 55.3867 54.7051 55.3867 56.6738C55.3867 58.6836 56.5176 59.9668 58.2871 59.9668C59.8047 59.9668 60.748 59.1113 60.9297 57.9512H59.9102C59.7227 58.666 59.1309 59.0586 58.2812 59.0586C57.1562 59.0586 56.4297 58.1328 56.4297 56.6738C56.4297 55.2441 57.1445 54.3359 58.2812 54.3359C59.1895 54.3359 59.7461 54.8457 59.9102 55.4727H60.9297Z" fill="#111111"/>
<path d="M63.5781 56.2988H63.4844V51.0312H62.4766V59.8555H63.4844V57.459L64.0879 56.8965L66.4551 59.8555H67.7383L64.8379 56.2461L67.5566 53.5391H66.3203L63.5781 56.2988Z" fill="#111111"/>
<path d="M72.8242 58.2207C72.5605 58.7773 72.0098 59.0762 71.1953 59.0762C70.123 59.0762 69.4258 58.2852 69.373 57.0371V56.9902H73.9141V56.6035C73.9141 54.6406 72.877 53.4277 71.1719 53.4277C69.4375 53.4277 68.3242 54.7168 68.3242 56.7031C68.3242 58.7012 69.4199 59.9668 71.1719 59.9668C72.5547 59.9668 73.5391 59.2988 73.832 58.2207H72.8242ZM71.1602 54.3184C72.1621 54.3184 72.8301 55.0566 72.8535 56.1758H69.373C69.4492 55.0566 70.1523 54.3184 71.1602 54.3184Z" fill="#111111"/>
<path d="M77.834 59.9668C78.707 59.9668 79.457 59.5508 79.8555 58.8477H79.9492V59.8555H80.9102V51.0312H79.9023V54.5352H79.8145C79.457 53.8438 78.7129 53.4277 77.834 53.4277C76.2285 53.4277 75.1797 54.7168 75.1797 56.6973C75.1797 58.6836 76.2168 59.9668 77.834 59.9668ZM78.0684 54.3359C79.2109 54.3359 79.9258 55.25 79.9258 56.6973C79.9258 58.1562 79.2168 59.0586 78.0684 59.0586C76.9141 59.0586 76.2227 58.1738 76.2227 56.6973C76.2227 55.2266 76.9199 54.3359 78.0684 54.3359Z" fill="#111111"/>
<path d="M86.6758 51.9043V53.5391H85.6562V54.3828H86.6758V58.2148C86.6758 59.4219 87.1973 59.9023 88.498 59.9023C88.6973 59.9023 88.8906 59.8789 89.0898 59.8438V58.9941C88.9023 59.0117 88.8027 59.0176 88.6211 59.0176C87.9648 59.0176 87.6836 58.7012 87.6836 57.957V54.3828H89.0898V53.5391H87.6836V51.9043H86.6758Z" fill="#111111"/>
<path d="M90.6719 59.8555H91.6797V56.1172C91.6797 55.0508 92.3008 54.3359 93.4316 54.3359C94.3867 54.3359 94.8906 54.8926 94.8906 56.0117V59.8555H95.8984V55.7656C95.8984 54.2832 95.0547 53.4277 93.7188 53.4277C92.752 53.4277 92.0898 53.8379 91.7734 54.5352H91.6797V51.0312H90.6719V59.8555Z" fill="#111111"/>
<path d="M101.922 58.2207C101.658 58.7773 101.107 59.0762 100.293 59.0762C99.2207 59.0762 98.5234 58.2852 98.4707 57.0371V56.9902H103.012V56.6035C103.012 54.6406 101.975 53.4277 100.27 53.4277C98.5352 53.4277 97.4219 54.7168 97.4219 56.7031C97.4219 58.7012 98.5176 59.9668 100.27 59.9668C101.652 59.9668 102.637 59.2988 102.93 58.2207H101.922ZM100.258 54.3184C101.26 54.3184 101.928 55.0566 101.951 56.1758H98.4707C98.5469 55.0566 99.25 54.3184 100.258 54.3184Z" fill="#111111"/>
<path d="M115.926 53.5391H114.912L113.67 58.5898H113.576L112.164 53.5391H111.197L109.785 58.5898H109.691L108.449 53.5391H107.43L109.199 59.8555H110.219L111.625 54.9688H111.719L113.131 59.8555H114.156L115.926 53.5391Z" fill="#111111"/>
<path d="M121.223 58.2207C120.959 58.7773 120.408 59.0762 119.594 59.0762C118.521 59.0762 117.824 58.2852 117.771 57.0371V56.9902H122.312V56.6035C122.312 54.6406 121.275 53.4277 119.57 53.4277C117.836 53.4277 116.723 54.7168 116.723 56.7031C116.723 58.7012 117.818 59.9668 119.57 59.9668C120.953 59.9668 121.938 59.2988 122.23 58.2207H121.223ZM119.559 54.3184C120.561 54.3184 121.229 55.0566 121.252 56.1758H117.771C117.848 55.0566 118.551 54.3184 119.559 54.3184Z" fill="#111111"/>
<path d="M127.035 59.9668C128.635 59.9668 129.684 58.6719 129.684 56.6973C129.684 54.7109 128.641 53.4277 127.035 53.4277C126.168 53.4277 125.4 53.8555 125.055 54.5352H124.961V51.0312H123.953V59.8555H124.914V58.8477H125.008C125.406 59.5508 126.156 59.9668 127.035 59.9668ZM126.801 54.3359C127.955 54.3359 128.641 55.2207 128.641 56.6973C128.641 58.1738 127.955 59.0586 126.801 59.0586C125.652 59.0586 124.938 58.1562 124.938 56.6973C124.938 55.2383 125.652 54.3359 126.801 54.3359Z" fill="#111111"/>
<path d="M131.119 55.2676C131.119 56.1816 131.658 56.6914 132.842 56.9785L133.926 57.2422C134.6 57.4062 134.928 57.6992 134.928 58.1328C134.928 58.7129 134.318 59.1172 133.469 59.1172C132.66 59.1172 132.156 58.7773 131.986 58.2441H130.949C131.061 59.293 132.027 59.9668 133.434 59.9668C134.869 59.9668 135.965 59.1875 135.965 58.0566C135.965 57.1484 135.391 56.6328 134.201 56.3457L133.229 56.1113C132.484 55.9297 132.133 55.6602 132.133 55.2266C132.133 54.6641 132.719 54.2832 133.469 54.2832C134.23 54.2832 134.723 54.6172 134.857 55.1211H135.854C135.719 54.084 134.799 53.4277 133.475 53.4277C132.133 53.4277 131.119 54.2188 131.119 55.2676Z" fill="#111111"/>
<path d="M138.074 52.3203C138.461 52.3203 138.777 52.0039 138.777 51.6172C138.777 51.2305 138.461 50.9141 138.074 50.9141C137.688 50.9141 137.371 51.2305 137.371 51.6172C137.371 52.0039 137.688 52.3203 138.074 52.3203ZM137.57 59.8555H138.578V53.5391H137.57V59.8555Z" fill="#111111"/>
<path d="M140.922 51.9043V53.5391H139.902V54.3828H140.922V58.2148C140.922 59.4219 141.443 59.9023 142.744 59.9023C142.943 59.9023 143.137 59.8789 143.336 59.8438V58.9941C143.148 59.0117 143.049 59.0176 142.867 59.0176C142.211 59.0176 141.93 58.7012 141.93 57.957V54.3828H143.336V53.5391H141.93V51.9043H140.922Z" fill="#111111"/>
<path d="M148.949 58.2207C148.686 58.7773 148.135 59.0762 147.32 59.0762C146.248 59.0762 145.551 58.2852 145.498 57.0371V56.9902H150.039V56.6035C150.039 54.6406 149.002 53.4277 147.297 53.4277C145.562 53.4277 144.449 54.7168 144.449 56.7031C144.449 58.7012 145.545 59.9668 147.297 59.9668C148.68 59.9668 149.664 59.2988 149.957 58.2207H148.949ZM147.285 54.3184C148.287 54.3184 148.955 55.0566 148.979 56.1758H145.498C145.574 55.0566 146.277 54.3184 147.285 54.3184Z" fill="#111111"/>
<path d="M155.547 62.1406C156.666 62.1406 157.17 61.707 157.709 60.2422L160.176 53.5391H159.104L157.375 58.7363H157.281L155.547 53.5391H154.457L156.795 59.8613L156.678 60.2363C156.414 60.998 156.098 61.2734 155.518 61.2734C155.377 61.2734 155.219 61.2676 155.096 61.2441V62.1055C155.236 62.1289 155.412 62.1406 155.547 62.1406Z" fill="#111111"/>
<path d="M163.885 59.9668C165.684 59.9668 166.797 58.7246 166.797 56.6973C166.797 54.6641 165.684 53.4277 163.885 53.4277C162.086 53.4277 160.973 54.6641 160.973 56.6973C160.973 58.7246 162.086 59.9668 163.885 59.9668ZM163.885 59.0586C162.689 59.0586 162.016 58.1914 162.016 56.6973C162.016 55.1973 162.689 54.3359 163.885 54.3359C165.08 54.3359 165.754 55.1973 165.754 56.6973C165.754 58.1914 165.08 59.0586 163.885 59.0586Z" fill="#111111"/>
<path d="M173.488 53.5391H172.48V57.2773C172.48 58.3848 171.871 59.0469 170.758 59.0469C169.75 59.0469 169.328 58.5195 169.328 57.3828V53.5391H168.32V57.6289C168.32 59.123 169.059 59.9668 170.477 59.9668C171.443 59.9668 172.117 59.5684 172.434 58.8652H172.527V59.8555H173.488V53.5391Z" fill="#111111"/>
<path d="M180.531 59.9668C181.375 59.9668 182.066 59.5977 182.477 58.9238H182.57V59.8555H183.531V55.5312C183.531 54.2188 182.67 53.4277 181.129 53.4277C179.781 53.4277 178.785 54.0957 178.65 55.1094H179.67C179.811 54.6113 180.338 54.3242 181.094 54.3242C182.037 54.3242 182.523 54.752 182.523 55.5312V56.1055L180.701 56.2168C179.23 56.3047 178.398 56.9551 178.398 58.0859C178.398 59.2402 179.307 59.9668 180.531 59.9668ZM180.719 59.082C179.986 59.082 179.441 58.707 179.441 58.0625C179.441 57.4297 179.863 57.0957 180.824 57.0312L182.523 56.9199V57.5C182.523 58.4023 181.756 59.082 180.719 59.082Z" fill="#111111"/>
<path d="M185.395 59.8555H186.402V55.9414C186.402 55.0508 187.1 54.4062 188.061 54.4062C188.26 54.4062 188.623 54.4414 188.705 54.4648V53.457C188.576 53.4395 188.365 53.4277 188.201 53.4277C187.363 53.4277 186.637 53.8613 186.449 54.4766H186.355V53.5391H185.395V59.8555Z" fill="#111111"/>
<path d="M193.973 58.2207C193.709 58.7773 193.158 59.0762 192.344 59.0762C191.271 59.0762 190.574 58.2852 190.521 57.0371V56.9902H195.062V56.6035C195.062 54.6406 194.025 53.4277 192.32 53.4277C190.586 53.4277 189.473 54.7168 189.473 56.7031C189.473 58.7012 190.568 59.9668 192.32 59.9668C193.703 59.9668 194.688 59.2988 194.98 58.2207H193.973ZM192.309 54.3184C193.311 54.3184 193.979 55.0566 194.002 56.1758H190.521C190.598 55.0566 191.301 54.3184 192.309 54.3184Z" fill="#111111"/>
<path d="M200.453 51.9043V53.5391H199.434V54.3828H200.453V58.2148C200.453 59.4219 200.975 59.9023 202.275 59.9023C202.475 59.9023 202.668 59.8789 202.867 59.8438V58.9941C202.68 59.0117 202.58 59.0176 202.398 59.0176C201.742 59.0176 201.461 58.7012 201.461 57.957V54.3828H202.867V53.5391H201.461V51.9043H200.453Z" fill="#111111"/>
<path d="M204.391 59.8555H205.398V55.9414C205.398 55.0508 206.096 54.4062 207.057 54.4062C207.256 54.4062 207.619 54.4414 207.701 54.4648V53.457C207.572 53.4395 207.361 53.4277 207.197 53.4277C206.359 53.4277 205.633 53.8613 205.445 54.4766H205.352V53.5391H204.391V59.8555Z" fill="#111111"/>
<path d="M209.5 62.1406C210.619 62.1406 211.123 61.707 211.662 60.2422L214.129 53.5391H213.057L211.328 58.7363H211.234L209.5 53.5391H208.41L210.748 59.8613L210.631 60.2363C210.367 60.998 210.051 61.2734 209.471 61.2734C209.33 61.2734 209.172 61.2676 209.049 61.2441V62.1055C209.189 62.1289 209.365 62.1406 209.5 62.1406Z" fill="#111111"/>
<path d="M216.004 52.3203C216.391 52.3203 216.707 52.0039 216.707 51.6172C216.707 51.2305 216.391 50.9141 216.004 50.9141C215.617 50.9141 215.301 51.2305 215.301 51.6172C215.301 52.0039 215.617 52.3203 216.004 52.3203ZM215.5 59.8555H216.508V53.5391H215.5V59.8555Z" fill="#111111"/>
<path d="M218.43 59.8555H219.438V56.1172C219.438 55.0098 220.088 54.3359 221.096 54.3359C222.104 54.3359 222.584 54.875 222.584 56.0117V59.8555H223.592V55.7656C223.592 54.2656 222.801 53.4277 221.383 53.4277C220.416 53.4277 219.801 53.8379 219.484 54.5352H219.391V53.5391H218.43V59.8555Z" fill="#111111"/>
<path d="M228.039 62.2812C229.762 62.2812 230.852 61.3789 230.852 59.9668V53.5391H229.891V54.541H229.797C229.434 53.8613 228.654 53.4277 227.77 53.4277C226.146 53.4277 225.121 54.7109 225.121 56.6035C225.121 58.4961 226.135 59.7617 227.77 59.7617C228.637 59.7617 229.352 59.3691 229.75 58.6719H229.844V59.9141C229.844 60.8457 229.17 61.4023 228.039 61.4023C227.131 61.4023 226.568 61.0684 226.457 60.5527H225.391C225.543 61.5957 226.516 62.2812 228.039 62.2812ZM227.992 58.8711C226.82 58.8711 226.164 57.9805 226.164 56.6035C226.164 55.2266 226.82 54.3359 227.992 54.3359C229.158 54.3359 229.867 55.2266 229.867 56.6035C229.867 57.9805 229.164 58.8711 227.992 58.8711Z" fill="#111111"/>
<path d="M236.559 51.9043V53.5391H235.539V54.3828H236.559V58.2148C236.559 59.4219 237.08 59.9023 238.381 59.9023C238.58 59.9023 238.773 59.8789 238.973 59.8438V58.9941C238.785 59.0117 238.686 59.0176 238.504 59.0176C237.848 59.0176 237.566 58.7012 237.566 57.957V54.3828H238.973V53.5391H237.566V51.9043H236.559Z" fill="#111111"/>
<path d="M242.998 59.9668C244.797 59.9668 245.91 58.7246 245.91 56.6973C245.91 54.6641 244.797 53.4277 242.998 53.4277C241.199 53.4277 240.086 54.6641 240.086 56.6973C240.086 58.7246 241.199 59.9668 242.998 59.9668ZM242.998 59.0586C241.803 59.0586 241.129 58.1914 241.129 56.6973C241.129 55.1973 241.803 54.3359 242.998 54.3359C244.193 54.3359 244.867 55.1973 244.867 56.6973C244.867 58.1914 244.193 59.0586 242.998 59.0586Z" fill="#111111"/>
<path d="M16.9492 73.8555H17.957V69.9414C17.957 69.0508 18.6543 68.4062 19.6152 68.4062C19.8145 68.4062 20.1777 68.4414 20.2598 68.4648V67.457C20.1309 67.4395 19.9199 67.4277 19.7559 67.4277C18.918 67.4277 18.1914 67.8613 18.0039 68.4766H17.9102V67.5391H16.9492V73.8555Z" fill="#111111"/>
<path d="M25.5273 72.2207C25.2637 72.7773 24.7129 73.0762 23.8984 73.0762C22.8262 73.0762 22.1289 72.2852 22.0762 71.0371V70.9902H26.6172V70.6035C26.6172 68.6406 25.5801 67.4277 23.875 67.4277C22.1406 67.4277 21.0273 68.7168 21.0273 70.7031C21.0273 72.7012 22.123 73.9668 23.875 73.9668C25.2578 73.9668 26.2422 73.2988 26.5352 72.2207H25.5273ZM23.8633 68.3184C24.8652 68.3184 25.5332 69.0566 25.5566 70.1758H22.0762C22.1523 69.0566 22.8555 68.3184 23.8633 68.3184Z" fill="#111111"/>
<path d="M29.957 73.9668C30.8008 73.9668 31.4922 73.5977 31.9023 72.9238H31.9961V73.8555H32.957V69.5312C32.957 68.2188 32.0957 67.4277 30.5547 67.4277C29.207 67.4277 28.2109 68.0957 28.0762 69.1094H29.0957C29.2363 68.6113 29.7637 68.3242 30.5195 68.3242C31.4629 68.3242 31.9492 68.752 31.9492 69.5312V70.1055L30.127 70.2168C28.6562 70.3047 27.8242 70.9551 27.8242 72.0859C27.8242 73.2402 28.7324 73.9668 29.957 73.9668ZM30.1445 73.082C29.4121 73.082 28.8672 72.707 28.8672 72.0625C28.8672 71.4297 29.2891 71.0957 30.25 71.0312L31.9492 70.9199V71.5C31.9492 72.4023 31.1816 73.082 30.1445 73.082Z" fill="#111111"/>
<path d="M40.0469 69.4727C39.8711 68.3477 38.9336 67.4277 37.3984 67.4277C35.6289 67.4277 34.5039 68.7051 34.5039 70.6738C34.5039 72.6836 35.6348 73.9668 37.4043 73.9668C38.9219 73.9668 39.8652 73.1113 40.0469 71.9512H39.0273C38.8398 72.666 38.248 73.0586 37.3984 73.0586C36.2734 73.0586 35.5469 72.1328 35.5469 70.6738C35.5469 69.2441 36.2617 68.3359 37.3984 68.3359C38.3066 68.3359 38.8633 68.8457 39.0273 69.4727H40.0469Z" fill="#111111"/>
<path d="M41.5938 73.8555H42.6016V70.1172C42.6016 69.0508 43.2227 68.3359 44.3535 68.3359C45.3086 68.3359 45.8125 68.8926 45.8125 70.0117V73.8555H46.8203V69.7656C46.8203 68.2832 45.9766 67.4277 44.6406 67.4277C43.6738 67.4277 43.0117 67.8379 42.6953 68.5352H42.6016V65.0312H41.5938V73.8555Z" fill="#111111"/>
<path d="M55.1875 73.9668C56.7871 73.9668 57.8359 72.6719 57.8359 70.6973C57.8359 68.7109 56.793 67.4277 55.1875 67.4277C54.3203 67.4277 53.5527 67.8555 53.207 68.5352H53.1133V65.0312H52.1055V73.8555H53.0664V72.8477H53.1602C53.5586 73.5508 54.3086 73.9668 55.1875 73.9668ZM54.9531 68.3359C56.1074 68.3359 56.793 69.2207 56.793 70.6973C56.793 72.1738 56.1074 73.0586 54.9531 73.0586C53.8047 73.0586 53.0898 72.1562 53.0898 70.6973C53.0898 69.2383 53.8047 68.3359 54.9531 68.3359Z" fill="#111111"/>
<path d="M63.6016 72.2207C63.3379 72.7773 62.7871 73.0762 61.9727 73.0762C60.9004 73.0762 60.2031 72.2852 60.1504 71.0371V70.9902H64.6914V70.6035C64.6914 68.6406 63.6543 67.4277 61.9492 67.4277C60.2148 67.4277 59.1016 68.7168 59.1016 70.7031C59.1016 72.7012 60.1973 73.9668 61.9492 73.9668C63.332 73.9668 64.3164 73.2988 64.6094 72.2207H63.6016ZM61.9375 68.3184C62.9395 68.3184 63.6074 69.0566 63.6309 70.1758H60.1504C60.2266 69.0566 60.9297 68.3184 61.9375 68.3184Z" fill="#111111"/>
<path d="M71.5 69.4727C71.3242 68.3477 70.3867 67.4277 68.8516 67.4277C67.082 67.4277 65.957 68.7051 65.957 70.6738C65.957 72.6836 67.0879 73.9668 68.8574 73.9668C70.375 73.9668 71.3184 73.1113 71.5 71.9512H70.4805C70.293 72.666 69.7012 73.0586 68.8516 73.0586C67.7266 73.0586 67 72.1328 67 70.6738C67 69.2441 67.7148 68.3359 68.8516 68.3359C69.7598 68.3359 70.3164 68.8457 70.4805 69.4727H71.5Z" fill="#111111"/>
<path d="M74.7461 73.9668C75.5898 73.9668 76.2812 73.5977 76.6914 72.9238H76.7852V73.8555H77.7461V69.5312C77.7461 68.2188 76.8848 67.4277 75.3438 67.4277C73.9961 67.4277 73 68.0957 72.8652 69.1094H73.8848C74.0254 68.6113 74.5527 68.3242 75.3086 68.3242C76.252 68.3242 76.7383 68.752 76.7383 69.5312V70.1055L74.916 70.2168C73.4453 70.3047 72.6133 70.9551 72.6133 72.0859C72.6133 73.2402 73.5215 73.9668 74.7461 73.9668ZM74.9336 73.082C74.2012 73.082 73.6562 72.707 73.6562 72.0625C73.6562 71.4297 74.0781 71.0957 75.0391 71.0312L76.7383 70.9199V71.5C76.7383 72.4023 75.9707 73.082 74.9336 73.082Z" fill="#111111"/>
<path d="M84.7188 67.5391H83.7109V71.2773C83.7109 72.3848 83.1016 73.0469 81.9883 73.0469C80.9805 73.0469 80.5586 72.5195 80.5586 71.3828V67.5391H79.5508V71.6289C79.5508 73.123 80.2891 73.9668 81.707 73.9668C82.6738 73.9668 83.3477 73.5684 83.6641 72.8652H83.7578V73.8555H84.7188V67.5391Z" fill="#111111"/>
<path d="M86.4707 69.2676C86.4707 70.1816 87.0098 70.6914 88.1934 70.9785L89.2773 71.2422C89.9512 71.4062 90.2793 71.6992 90.2793 72.1328C90.2793 72.7129 89.6699 73.1172 88.8203 73.1172C88.0117 73.1172 87.5078 72.7773 87.3379 72.2441H86.3008C86.4121 73.293 87.3789 73.9668 88.7852 73.9668C90.2207 73.9668 91.3164 73.1875 91.3164 72.0566C91.3164 71.1484 90.7422 70.6328 89.5527 70.3457L88.5801 70.1113C87.8359 69.9297 87.4844 69.6602 87.4844 69.2266C87.4844 68.6641 88.0703 68.2832 88.8203 68.2832C89.582 68.2832 90.0742 68.6172 90.209 69.1211H91.2051C91.0703 68.084 90.1504 67.4277 88.8262 67.4277C87.4844 67.4277 86.4707 68.2188 86.4707 69.2676Z" fill="#111111"/>
<path d="M97.082 72.2207C96.8184 72.7773 96.2676 73.0762 95.4531 73.0762C94.3809 73.0762 93.6836 72.2852 93.6309 71.0371V70.9902H98.1719V70.6035C98.1719 68.6406 97.1348 67.4277 95.4297 67.4277C93.6953 67.4277 92.582 68.7168 92.582 70.7031C92.582 72.7012 93.6777 73.9668 95.4297 73.9668C96.8125 73.9668 97.7969 73.2988 98.0898 72.2207H97.082ZM95.418 68.3184C96.4199 68.3184 97.0879 69.0566 97.1113 70.1758H93.6309C93.707 69.0566 94.4102 68.3184 95.418 68.3184Z" fill="#111111"/>
<path d="M103.668 66.3203C104.055 66.3203 104.371 66.0039 104.371 65.6172C104.371 65.2305 104.055 64.9141 103.668 64.9141C103.281 64.9141 102.965 65.2305 102.965 65.6172C102.965 66.0039 103.281 66.3203 103.668 66.3203ZM103.164 73.8555H104.172V67.5391H103.164V73.8555Z" fill="#111111"/>
<path d="M106.516 65.9043V67.5391H105.496V68.3828H106.516V72.2148C106.516 73.4219 107.037 73.9023 108.338 73.9023C108.537 73.9023 108.73 73.8789 108.93 73.8438V72.9941C108.742 73.0117 108.643 73.0176 108.461 73.0176C107.805 73.0176 107.523 72.7012 107.523 71.957V68.3828H108.93V67.5391H107.523V65.9043H106.516Z" fill="#111111"/>
<path d="M119.066 69.4727C118.891 68.3477 117.953 67.4277 116.418 67.4277C114.648 67.4277 113.523 68.7051 113.523 70.6738C113.523 72.6836 114.654 73.9668 116.424 73.9668C117.941 73.9668 118.885 73.1113 119.066 71.9512H118.047C117.859 72.666 117.268 73.0586 116.418 73.0586C115.293 73.0586 114.566 72.1328 114.566 70.6738C114.566 69.2441 115.281 68.3359 116.418 68.3359C117.326 68.3359 117.883 68.8457 118.047 69.4727H119.066Z" fill="#111111"/>
<path d="M123.15 73.9668C124.949 73.9668 126.062 72.7246 126.062 70.6973C126.062 68.6641 124.949 67.4277 123.15 67.4277C121.352 67.4277 120.238 68.6641 120.238 70.6973C120.238 72.7246 121.352 73.9668 123.15 73.9668ZM123.15 73.0586C121.955 73.0586 121.281 72.1914 121.281 70.6973C121.281 69.1973 121.955 68.3359 123.15 68.3359C124.346 68.3359 125.02 69.1973 125.02 70.6973C125.02 72.1914 124.346 73.0586 123.15 73.0586Z" fill="#111111"/>
<path d="M127.645 73.8555H128.652V70.1172C128.652 69.0098 129.303 68.3359 130.311 68.3359C131.318 68.3359 131.799 68.875 131.799 70.0117V73.8555H132.807V69.7656C132.807 68.2656 132.016 67.4277 130.598 67.4277C129.631 67.4277 129.016 67.8379 128.699 68.5352H128.605V67.5391H127.645V73.8555Z" fill="#111111"/>
<path d="M135.074 65.9043V67.5391H134.055V68.3828H135.074V72.2148C135.074 73.4219 135.596 73.9023 136.896 73.9023C137.096 73.9023 137.289 73.8789 137.488 73.8438V72.9941C137.301 73.0117 137.201 73.0176 137.02 73.0176C136.363 73.0176 136.082 72.7012 136.082 71.957V68.3828H137.488V67.5391H136.082V65.9043H135.074Z" fill="#111111"/>
<path d="M140.77 73.9668C141.613 73.9668 142.305 73.5977 142.715 72.9238H142.809V73.8555H143.77V69.5312C143.77 68.2188 142.908 67.4277 141.367 67.4277C140.02 67.4277 139.023 68.0957 138.889 69.1094H139.908C140.049 68.6113 140.576 68.3242 141.332 68.3242C142.275 68.3242 142.762 68.752 142.762 69.5312V70.1055L140.939 70.2168C139.469 70.3047 138.637 70.9551 138.637 72.0859C138.637 73.2402 139.545 73.9668 140.77 73.9668ZM140.957 73.082C140.225 73.082 139.68 72.707 139.68 72.0625C139.68 71.4297 140.102 71.0957 141.062 71.0312L142.762 70.9199V71.5C142.762 72.4023 141.994 73.082 140.957 73.082Z" fill="#111111"/>
<path d="M146.16 66.3203C146.547 66.3203 146.863 66.0039 146.863 65.6172C146.863 65.2305 146.547 64.9141 146.16 64.9141C145.773 64.9141 145.457 65.2305 145.457 65.6172C145.457 66.0039 145.773 66.3203 146.16 66.3203ZM145.656 73.8555H146.664V67.5391H145.656V73.8555Z" fill="#111111"/>
<path d="M148.586 73.8555H149.594V70.1172C149.594 69.0098 150.244 68.3359 151.252 68.3359C152.26 68.3359 152.74 68.875 152.74 70.0117V73.8555H153.748V69.7656C153.748 68.2656 152.957 67.4277 151.539 67.4277C150.572 67.4277 149.957 67.8379 149.641 68.5352H149.547V67.5391H148.586V73.8555Z" fill="#111111"/>
<path d="M155.447 69.2676C155.447 70.1816 155.986 70.6914 157.17 70.9785L158.254 71.2422C158.928 71.4062 159.256 71.6992 159.256 72.1328C159.256 72.7129 158.646 73.1172 157.797 73.1172C156.988 73.1172 156.484 72.7773 156.314 72.2441H155.277C155.389 73.293 156.355 73.9668 157.762 73.9668C159.197 73.9668 160.293 73.1875 160.293 72.0566C160.293 71.1484 159.719 70.6328 158.529 70.3457L157.557 70.1113C156.812 69.9297 156.461 69.6602 156.461 69.2266C156.461 68.6641 157.047 68.2832 157.797 68.2832C158.559 68.2832 159.051 68.6172 159.186 69.1211H160.182C160.047 68.084 159.127 67.4277 157.803 67.4277C156.461 67.4277 155.447 68.2188 155.447 69.2676Z" fill="#111111"/>
<path d="M165.32 73.8555H166.328V70.1172C166.328 69.0508 166.949 68.3359 168.08 68.3359C169.035 68.3359 169.539 68.8926 169.539 70.0117V73.8555H170.547V69.7656C170.547 68.2832 169.703 67.4277 168.367 67.4277C167.4 67.4277 166.738 67.8379 166.422 68.5352H166.328V65.0312H165.32V73.8555Z" fill="#111111"/>
<path d="M174.145 73.9668C174.988 73.9668 175.68 73.5977 176.09 72.9238H176.184V73.8555H177.145V69.5312C177.145 68.2188 176.283 67.4277 174.742 67.4277C173.395 67.4277 172.398 68.0957 172.264 69.1094H173.283C173.424 68.6113 173.951 68.3242 174.707 68.3242C175.65 68.3242 176.137 68.752 176.137 69.5312V70.1055L174.314 70.2168C172.844 70.3047 172.012 70.9551 172.012 72.0859C172.012 73.2402 172.92 73.9668 174.145 73.9668ZM174.332 73.082C173.6 73.082 173.055 72.707 173.055 72.0625C173.055 71.4297 173.477 71.0957 174.438 71.0312L176.137 70.9199V71.5C176.137 72.4023 175.369 73.082 174.332 73.082Z" fill="#111111"/>
<path d="M179.008 73.8555H180.016V69.9414C180.016 69.0508 180.713 68.4062 181.674 68.4062C181.873 68.4062 182.236 68.4414 182.318 68.4648V67.457C182.189 67.4395 181.979 67.4277 181.814 67.4277C180.977 67.4277 180.25 67.8613 180.062 68.4766H179.969V67.5391H179.008V73.8555Z" fill="#111111"/>
<path d="M183.695 73.8555H184.703V69.9414C184.703 69.0508 185.342 68.3359 186.168 68.3359C186.965 68.3359 187.486 68.8164 187.486 69.5664V73.8555H188.494V69.7949C188.494 68.9922 189.08 68.3359 189.959 68.3359C190.85 68.3359 191.289 68.793 191.289 69.7246V73.8555H192.297V69.4902C192.297 68.166 191.576 67.4277 190.287 67.4277C189.414 67.4277 188.693 67.8672 188.354 68.5352H188.26C187.967 67.8789 187.369 67.4277 186.514 67.4277C185.67 67.4277 185.037 67.832 184.75 68.5352H184.656V67.5391H183.695V73.8555Z" fill="#111111"/>
<path d="M194.559 73.8555H195.566V68.3828H197.014V67.5391H195.566V66.8652C195.566 66.1738 195.871 65.8223 196.598 65.8223C196.779 65.8223 196.949 65.8281 197.072 65.8516V65.0312C196.861 64.9902 196.639 64.9727 196.393 64.9727C195.191 64.9727 194.559 65.5762 194.559 66.8359V67.5391H193.51V68.3828H194.559V73.8555Z" fill="#111111"/>
<path d="M203.594 67.5391H202.586V71.2773C202.586 72.3848 201.977 73.0469 200.863 73.0469C199.855 73.0469 199.434 72.5195 199.434 71.3828V67.5391H198.426V71.6289C198.426 73.123 199.164 73.9668 200.582 73.9668C201.549 73.9668 202.223 73.5684 202.539 72.8652H202.633V73.8555H203.594V67.5391Z" fill="#111111"/>
<path d="M205.551 73.8555H206.559V65.0312H205.551V73.8555Z" fill="#111111"/>
<path d="M211.902 73.8555H212.91V69.9414C212.91 69.0508 213.549 68.3359 214.375 68.3359C215.172 68.3359 215.693 68.8164 215.693 69.5664V73.8555H216.701V69.7949C216.701 68.9922 217.287 68.3359 218.166 68.3359C219.057 68.3359 219.496 68.793 219.496 69.7246V73.8555H220.504V69.4902C220.504 68.166 219.783 67.4277 218.494 67.4277C217.621 67.4277 216.9 67.8672 216.561 68.5352H216.467C216.174 67.8789 215.576 67.4277 214.721 67.4277C213.877 67.4277 213.244 67.832 212.957 68.5352H212.863V67.5391H211.902V73.8555Z" fill="#111111"/>
<path d="M224.102 73.9668C224.945 73.9668 225.637 73.5977 226.047 72.9238H226.141V73.8555H227.102V69.5312C227.102 68.2188 226.24 67.4277 224.699 67.4277C223.352 67.4277 222.355 68.0957 222.221 69.1094H223.24C223.381 68.6113 223.908 68.3242 224.664 68.3242C225.607 68.3242 226.094 68.752 226.094 69.5312V70.1055L224.271 70.2168C222.801 70.3047 221.969 70.9551 221.969 72.0859C221.969 73.2402 222.877 73.9668 224.102 73.9668ZM224.289 73.082C223.557 73.082 223.012 72.707 223.012 72.0625C223.012 71.4297 223.434 71.0957 224.395 71.0312L226.094 70.9199V71.5C226.094 72.4023 225.326 73.082 224.289 73.082Z" fill="#111111"/>
<path d="M229.387 65.9043V67.5391H228.367V68.3828H229.387V72.2148C229.387 73.4219 229.908 73.9023 231.209 73.9023C231.408 73.9023 231.602 73.8789 231.801 73.8438V72.9941C231.613 73.0117 231.514 73.0176 231.332 73.0176C230.676 73.0176 230.395 72.7012 230.395 71.957V68.3828H231.801V67.5391H230.395V65.9043H229.387Z" fill="#111111"/>
<path d="M237.414 72.2207C237.15 72.7773 236.6 73.0762 235.785 73.0762C234.713 73.0762 234.016 72.2852 233.963 71.0371V70.9902H238.504V70.6035C238.504 68.6406 237.467 67.4277 235.762 67.4277C234.027 67.4277 232.914 68.7168 232.914 70.7031C232.914 72.7012 234.01 73.9668 235.762 73.9668C237.145 73.9668 238.129 73.2988 238.422 72.2207H237.414ZM235.75 68.3184C236.752 68.3184 237.42 69.0566 237.443 70.1758H233.963C234.039 69.0566 234.742 68.3184 235.75 68.3184Z" fill="#111111"/>
<path d="M240.086 73.8555H241.094V69.9414C241.094 69.0508 241.791 68.4062 242.752 68.4062C242.951 68.4062 243.314 68.4414 243.396 68.4648V67.457C243.268 67.4395 243.057 67.4277 242.893 67.4277C242.055 67.4277 241.328 67.8613 241.141 68.4766H241.047V67.5391H240.086V73.8555Z" fill="#111111"/>
<path d="M245.184 66.3203C245.57 66.3203 245.887 66.0039 245.887 65.6172C245.887 65.2305 245.57 64.9141 245.184 64.9141C244.797 64.9141 244.48 65.2305 244.48 65.6172C244.48 66.0039 244.797 66.3203 245.184 66.3203ZM244.68 73.8555H245.688V67.5391H244.68V73.8555Z" fill="#111111"/>
<path d="M249.367 73.9668C250.211 73.9668 250.902 73.5977 251.312 72.9238H251.406V73.8555H252.367V69.5312C252.367 68.2188 251.506 67.4277 249.965 67.4277C248.617 67.4277 247.621 68.0957 247.486 69.1094H248.506C248.646 68.6113 249.174 68.3242 249.93 68.3242C250.873 68.3242 251.359 68.752 251.359 69.5312V70.1055L249.537 70.2168C248.066 70.3047 247.234 70.9551 247.234 72.0859C247.234 73.2402 248.143 73.9668 249.367 73.9668ZM249.555 73.082C248.822 73.082 248.277 72.707 248.277 72.0625C248.277 71.4297 248.699 71.0957 249.66 71.0312L251.359 70.9199V71.5C251.359 72.4023 250.592 73.082 249.555 73.082Z" fill="#111111"/>
<path d="M254.289 73.8555H255.297V65.0312H254.289V73.8555Z" fill="#111111"/>
<path d="M258.086 73.9141C258.508 73.9141 258.848 73.5684 258.848 73.1523C258.848 72.7305 258.508 72.3906 258.086 72.3906C257.67 72.3906 257.324 72.7305 257.324 73.1523C257.324 73.5684 257.67 73.9141 258.086 73.9141Z" fill="#111111"/>
<path d="M18.1328 84.5098H20.2129L22.0234 87.8555H23.2598L21.3027 84.3457C22.3633 84.0117 23.002 83.0977 23.002 81.9199C23.002 80.3965 21.9355 79.4004 20.3066 79.4004H17.0781V87.8555H18.1328V84.5098ZM18.1328 80.3379H20.166C21.2559 80.3379 21.9121 80.9414 21.9121 81.9551C21.9121 82.9922 21.2969 83.5723 20.2129 83.5723H18.1328V80.3379Z" fill="#111111"/>
<path d="M28.7969 86.2207C28.5332 86.7773 27.9824 87.0762 27.168 87.0762C26.0957 87.0762 25.3984 86.2852 25.3457 85.0371V84.9902H29.8867V84.6035C29.8867 82.6406 28.8496 81.4277 27.1445 81.4277C25.4102 81.4277 24.2969 82.7168 24.2969 84.7031C24.2969 86.7012 25.3926 87.9668 27.1445 87.9668C28.5273 87.9668 29.5117 87.2988 29.8047 86.2207H28.7969ZM27.1328 82.3184C28.1348 82.3184 28.8027 83.0566 28.8262 84.1758H25.3457C25.4219 83.0566 26.125 82.3184 27.1328 82.3184Z" fill="#111111"/>
<path d="M36.5078 81.5391H35.4297L33.7012 86.7422H33.6074L31.8789 81.5391H30.8008L33.1387 87.8555H34.1699L36.5078 81.5391Z" fill="#111111"/>
<path d="M38.3828 80.3203C38.7695 80.3203 39.0859 80.0039 39.0859 79.6172C39.0859 79.2305 38.7695 78.9141 38.3828 78.9141C37.9961 78.9141 37.6797 79.2305 37.6797 79.6172C37.6797 80.0039 37.9961 80.3203 38.3828 80.3203ZM37.8789 87.8555H38.8867V81.5391H37.8789V87.8555Z" fill="#111111"/>
<path d="M44.9922 86.2207C44.7285 86.7773 44.1777 87.0762 43.3633 87.0762C42.291 87.0762 41.5938 86.2852 41.541 85.0371V84.9902H46.082V84.6035C46.082 82.6406 45.0449 81.4277 43.3398 81.4277C41.6055 81.4277 40.4922 82.7168 40.4922 84.7031C40.4922 86.7012 41.5879 87.9668 43.3398 87.9668C44.7227 87.9668 45.707 87.2988 46 86.2207H44.9922ZM43.3281 82.3184C44.3301 82.3184 44.998 83.0566 45.0215 84.1758H41.541C41.6172 83.0566 42.3203 82.3184 43.3281 82.3184Z" fill="#111111"/>
<path d="M55.6094 81.5391H54.5957L53.3535 86.5898H53.2598L51.8477 81.5391H50.8809L49.4688 86.5898H49.375L48.1328 81.5391H47.1133L48.8828 87.8555H49.9023L51.3086 82.9688H51.4023L52.8145 87.8555H53.8398L55.6094 81.5391Z" fill="#111111"/>
<path d="M62.9395 87.9668C64.7383 87.9668 65.8516 86.7246 65.8516 84.6973C65.8516 82.6641 64.7383 81.4277 62.9395 81.4277C61.1406 81.4277 60.0273 82.6641 60.0273 84.6973C60.0273 86.7246 61.1406 87.9668 62.9395 87.9668ZM62.9395 87.0586C61.7441 87.0586 61.0703 86.1914 61.0703 84.6973C61.0703 83.1973 61.7441 82.3359 62.9395 82.3359C64.1348 82.3359 64.8086 83.1973 64.8086 84.6973C64.8086 86.1914 64.1348 87.0586 62.9395 87.0586Z" fill="#111111"/>
<path d="M72.543 81.5391H71.5352V85.2773C71.5352 86.3848 70.9258 87.0469 69.8125 87.0469C68.8047 87.0469 68.3828 86.5195 68.3828 85.3828V81.5391H67.375V85.6289C67.375 87.123 68.1133 87.9668 69.5312 87.9668C70.498 87.9668 71.1719 87.5684 71.4883 86.8652H71.582V87.8555H72.543V81.5391Z" fill="#111111"/>
<path d="M74.4414 87.8555H75.4492V83.9414C75.4492 83.0508 76.1465 82.4062 77.1074 82.4062C77.3066 82.4062 77.6699 82.4414 77.752 82.4648V81.457C77.623 81.4395 77.4121 81.4277 77.248 81.4277C76.4102 81.4277 75.6836 81.8613 75.4961 82.4766H75.4023V81.5391H74.4414V87.8555Z" fill="#111111"/>
<path d="M87.625 83.4727C87.4492 82.3477 86.5117 81.4277 84.9766 81.4277C83.207 81.4277 82.082 82.7051 82.082 84.6738C82.082 86.6836 83.2129 87.9668 84.9824 87.9668C86.5 87.9668 87.4434 87.1113 87.625 85.9512H86.6055C86.418 86.666 85.8262 87.0586 84.9766 87.0586C83.8516 87.0586 83.125 86.1328 83.125 84.6738C83.125 83.2441 83.8398 82.3359 84.9766 82.3359C85.8848 82.3359 86.4414 82.8457 86.6055 83.4727H87.625Z" fill="#111111"/>
<path d="M91.709 87.9668C93.5078 87.9668 94.6211 86.7246 94.6211 84.6973C94.6211 82.6641 93.5078 81.4277 91.709 81.4277C89.9102 81.4277 88.7969 82.6641 88.7969 84.6973C88.7969 86.7246 89.9102 87.9668 91.709 87.9668ZM91.709 87.0586C90.5137 87.0586 89.8398 86.1914 89.8398 84.6973C89.8398 83.1973 90.5137 82.3359 91.709 82.3359C92.9043 82.3359 93.5781 83.1973 93.5781 84.6973C93.5781 86.1914 92.9043 87.0586 91.709 87.0586Z" fill="#111111"/>
<path d="M96.2031 87.8555H97.2109V84.1172C97.2109 83.0098 97.8613 82.3359 98.8691 82.3359C99.877 82.3359 100.357 82.875 100.357 84.0117V87.8555H101.365V83.7656C101.365 82.2656 100.574 81.4277 99.1562 81.4277C98.1895 81.4277 97.5742 81.8379 97.2578 82.5352H97.1641V81.5391H96.2031V87.8555Z" fill="#111111"/>
<path d="M103.633 79.9043V81.5391H102.613V82.3828H103.633V86.2148C103.633 87.4219 104.154 87.9023 105.455 87.9023C105.654 87.9023 105.848 87.8789 106.047 87.8438V86.9941C105.859 87.0117 105.76 87.0176 105.578 87.0176C104.922 87.0176 104.641 86.7012 104.641 85.957V82.3828H106.047V81.5391H104.641V79.9043H103.633Z" fill="#111111"/>
<path d="M111.66 86.2207C111.396 86.7773 110.846 87.0762 110.031 87.0762C108.959 87.0762 108.262 86.2852 108.209 85.0371V84.9902H112.75V84.6035C112.75 82.6406 111.713 81.4277 110.008 81.4277C108.273 81.4277 107.16 82.7168 107.16 84.7031C107.16 86.7012 108.256 87.9668 110.008 87.9668C111.391 87.9668 112.375 87.2988 112.668 86.2207H111.66ZM109.996 82.3184C110.998 82.3184 111.666 83.0566 111.689 84.1758H108.209C108.285 83.0566 108.988 82.3184 109.996 82.3184Z" fill="#111111"/>
<path d="M114.332 87.8555H115.34V84.1172C115.34 83.0098 115.99 82.3359 116.998 82.3359C118.006 82.3359 118.486 82.875 118.486 84.0117V87.8555H119.494V83.7656C119.494 82.2656 118.703 81.4277 117.285 81.4277C116.318 81.4277 115.703 81.8379 115.387 82.5352H115.293V81.5391H114.332V87.8555Z" fill="#111111"/>
<path d="M121.762 79.9043V81.5391H120.742V82.3828H121.762V86.2148C121.762 87.4219 122.283 87.9023 123.584 87.9023C123.783 87.9023 123.977 87.8789 124.176 87.8438V86.9941C123.988 87.0117 123.889 87.0176 123.707 87.0176C123.051 87.0176 122.77 86.7012 122.77 85.957V82.3828H124.176V81.5391H122.77V79.9043H121.762Z" fill="#111111"/>
<path d="M132.162 81.4277C131.301 81.4277 130.545 81.8672 130.141 82.5938H130.047V81.5391H129.086V89.9648H130.094V86.9062H130.188C130.533 87.5742 131.26 87.9668 132.162 87.9668C133.768 87.9668 134.816 86.6719 134.816 84.6973C134.816 82.7109 133.773 81.4277 132.162 81.4277ZM131.922 87.0586C130.785 87.0586 130.064 86.1445 130.064 84.6973C130.064 83.2441 130.785 82.3359 131.928 82.3359C133.082 82.3359 133.773 83.2207 133.773 84.6973C133.773 86.1738 133.082 87.0586 131.922 87.0586Z" fill="#111111"/>
<path d="M138.994 87.9668C140.793 87.9668 141.906 86.7246 141.906 84.6973C141.906 82.6641 140.793 81.4277 138.994 81.4277C137.195 81.4277 136.082 82.6641 136.082 84.6973C136.082 86.7246 137.195 87.9668 138.994 87.9668ZM138.994 87.0586C137.799 87.0586 137.125 86.1914 137.125 84.6973C137.125 83.1973 137.799 82.3359 138.994 82.3359C140.189 82.3359 140.863 83.1973 140.863 84.6973C140.863 86.1914 140.189 87.0586 138.994 87.0586Z" fill="#111111"/>
<path d="M143.547 87.8555H144.555V79.0312H143.547V87.8555Z" fill="#111111"/>
<path d="M147.039 80.3203C147.426 80.3203 147.742 80.0039 147.742 79.6172C147.742 79.2305 147.426 78.9141 147.039 78.9141C146.652 78.9141 146.336 79.2305 146.336 79.6172C146.336 80.0039 146.652 80.3203 147.039 80.3203ZM146.535 87.8555H147.543V81.5391H146.535V87.8555Z" fill="#111111"/>
<path d="M154.691 83.4727C154.516 82.3477 153.578 81.4277 152.043 81.4277C150.273 81.4277 149.148 82.7051 149.148 84.6738C149.148 86.6836 150.279 87.9668 152.049 87.9668C153.566 87.9668 154.51 87.1113 154.691 85.9512H153.672C153.484 86.666 152.893 87.0586 152.043 87.0586C150.918 87.0586 150.191 86.1328 150.191 84.6738C150.191 83.2441 150.906 82.3359 152.043 82.3359C152.951 82.3359 153.508 82.8457 153.672 83.4727H154.691Z" fill="#111111"/>
<path d="M156.719 90.1406C157.838 90.1406 158.342 89.707 158.881 88.2422L161.348 81.5391H160.275L158.547 86.7363H158.453L156.719 81.5391H155.629L157.967 87.8613L157.85 88.2363C157.586 88.998 157.27 89.2734 156.689 89.2734C156.549 89.2734 156.391 89.2676 156.268 89.2441V90.1055C156.408 90.1289 156.584 90.1406 156.719 90.1406Z" fill="#111111"/>
<path d="M162.648 87.9141C163.07 87.9141 163.41 87.5684 163.41 87.1523C163.41 86.7305 163.07 86.3906 162.648 86.3906C162.232 86.3906 161.887 86.7305 161.887 87.1523C161.887 87.5684 162.232 87.9141 162.648 87.9141Z" fill="#111111"/>
<g clip-path="url(#clip0_145_6059)">
<rect x="124.11" y="106.374" width="45.8459" height="24.3612" rx="12.1806" fill="#767676"/>
<path d="M139.823 119.581V118.614H136.605V119.672H138.469L138.464 119.833C138.442 120.929 137.637 121.665 136.455 121.665C135.075 121.665 134.21 120.569 134.21 118.786C134.21 117.029 135.058 115.934 136.412 115.934C137.406 115.934 138.099 116.428 138.378 117.325H139.758C139.511 115.746 138.201 114.73 136.412 114.73C134.204 114.73 132.792 116.315 132.792 118.796C132.792 121.305 134.188 122.868 136.433 122.868C138.501 122.868 139.823 121.584 139.823 119.581Z" fill="white"/>
<path d="M143.829 122.792C145.586 122.792 146.655 121.643 146.655 119.736C146.655 117.84 145.58 116.691 143.829 116.691C142.084 116.691 141.004 117.846 141.004 119.736C141.004 121.643 142.068 122.792 143.829 122.792ZM143.829 121.702C142.9 121.702 142.369 120.982 142.369 119.742C142.369 118.501 142.9 117.781 143.829 117.781C144.753 117.781 145.285 118.501 145.285 119.742C145.285 120.982 144.759 121.702 143.829 121.702Z" fill="white"/>
<path d="M148.422 115.364V116.841H147.493V117.878H148.422V121.117C148.422 122.25 148.959 122.701 150.307 122.701C150.565 122.701 150.812 122.68 151.005 122.642V121.622C150.844 121.638 150.742 121.648 150.554 121.648C149.995 121.648 149.748 121.385 149.748 120.8V117.878H151.005V116.841H149.748V115.364H148.422Z" fill="white"/>
<path d="M155.947 115.821C156.387 115.821 156.747 115.472 156.747 115.031C156.747 114.596 156.387 114.242 155.947 114.242C155.512 114.242 155.152 114.596 155.152 115.031C155.152 115.472 155.512 115.821 155.947 115.821ZM155.286 122.674H156.613V116.804H155.286V122.674Z" fill="white"/>
<path d="M158.691 115.364V116.841H157.762V117.878H158.691V121.117C158.691 122.25 159.228 122.701 160.577 122.701C160.834 122.701 161.081 122.68 161.275 122.642V121.622C161.114 121.638 161.012 121.648 160.824 121.648C160.265 121.648 160.018 121.385 160.018 120.8V117.878H161.275V116.841H160.018V115.364H158.691Z" fill="white"/>
</g>
<rect x="0.5" y="0.5" width="292" height="146" rx="7.5" stroke="#767676"/>
<defs>
<clipPath id="clip0_145_6059">
<rect width="45.8459" height="24.3612" fill="white" transform="translate(124.11 106.374)"/>
</clipPath>
</defs>
</svg>
