<svg width="24" height="24" viewBox="0 0 24 24" fill="none" xmlns="http://www.w3.org/2000/svg">
<path fill-rule="evenodd" clip-rule="evenodd" d="M20 21C22.2091 21 24 19.2091 24 17V7C24 4.79086 22.2091 3 20 3H4C1.79086 3 0 4.79086 0 7V18C0 19.6569 1.34315 21 3 21H20ZM20 5H4C2.89543 5 2 5.89543 2 7V9H15C16.6569 9 18 10.3431 18 12V19H20C21.1046 19 22 18.1046 22 17V7C22 5.89543 21.1046 5 20 5ZM10 11H2V17C2 18.1046 2.89543 19 4 19H10V11ZM12 19H16V12C16 11.4477 15.5523 11 15 11H12V19Z" fill="black"/>
</svg>
