<svg width="24" height="24" viewBox="0 0 24 24" fill="none" xmlns="http://www.w3.org/2000/svg">
<path d="M1 2.5C1 1.67157 1.67157 1 2.5 1H4.5C5.32843 1 6 1.67157 6 2.5V4.5C6 5.32843 5.32843 6 4.5 6H2.5C1.67157 6 1 5.32843 1 4.5V2.5Z" fill="black"/>
<path d="M1 11C1 10.1716 1.67157 9.5 2.5 9.5H4.5C5.32843 9.5 6 10.1716 6 11V13C6 13.8284 5.32843 14.5 4.5 14.5H2.5C1.67157 14.5 1 13.8284 1 13V11Z" fill="black"/>
<path d="M2.5 18C1.67157 18 1 18.6716 1 19.5V21.5C1 22.3284 1.67157 23 2.5 23H4.5C5.32843 23 6 22.3284 6 21.5V19.5C6 18.6716 5.32843 18 4.5 18H2.5Z" fill="black"/>
<path d="M9.5 2.5C9.5 1.67157 10.1716 1 11 1H13C13.8284 1 14.5 1.67157 14.5 2.5V4.5C14.5 5.32843 13.8284 6 13 6H11C10.1716 6 9.5 5.32843 9.5 4.5V2.5Z" fill="black"/>
<path d="M11 9.5C10.1716 9.5 9.5 10.1716 9.5 11V13C9.5 13.8284 10.1716 14.5 11 14.5H13C13.8284 14.5 14.5 13.8284 14.5 13V11C14.5 10.1716 13.8284 9.5 13 9.5H11Z" fill="black"/>
<path d="M9.5 19.5C9.5 18.6716 10.1716 18 11 18H13C13.8284 18 14.5 18.6716 14.5 19.5V21.5C14.5 22.3284 13.8284 23 13 23H11C10.1716 23 9.5 22.3284 9.5 21.5V19.5Z" fill="black"/>
<path d="M19.5 1C18.6716 1 18 1.67157 18 2.5V4.5C18 5.32843 18.6716 6 19.5 6H21.5C22.3284 6 23 5.32843 23 4.5V2.5C23 1.67157 22.3284 1 21.5 1H19.5Z" fill="black"/>
<path d="M18 11C18 10.1716 18.6716 9.5 19.5 9.5H21.5C22.3284 9.5 23 10.1716 23 11V13C23 13.8284 22.3284 14.5 21.5 14.5H19.5C18.6716 14.5 18 13.8284 18 13V11Z" fill="black"/>
<path d="M19.5 18C18.6716 18 18 18.6716 18 19.5V21.5C18 22.3284 18.6716 23 19.5 23H21.5C22.3284 23 23 22.3284 23 21.5V19.5C23 18.6716 22.3284 18 21.5 18H19.5Z" fill="black"/>
</svg>
