<svg xmlns="http://www.w3.org/2000/svg" width="24" height="24"><path d="M4 3a4 4 0 0 0-4 4v10a4 4 0 0 0 4 4h16a4 4 0 0 0 4-4V7a4 4 0 0 0-4-4zm4.07 4.37c1.75 0 3.13.76 3.67 2.21l-1.6.82c-.34-.94-1.06-1.38-2.08-1.38-1.59 0-2.6 1.08-2.6 2.74s1.03 2.76 2.61 2.76c.94 0 1.72-.38 2.09-1.38l1.58.8c-.54 1.46-1.92 2.23-3.66 2.23a4.2 4.2 0 0 1-4.38-4.4c0-2.65 1.8-4.4 4.37-4.4m8.67 0c1.75 0 3.13.76 3.67 2.21l-1.6.82q-.53-1.4-2.08-1.38c-1.58 0-2.6 1.08-2.6 2.74s1.03 2.76 2.61 2.76c.94 0 1.72-.38 2.1-1.38l1.57.8c-.54 1.46-1.92 2.23-3.66 2.23a4.2 4.2 0 0 1-4.38-4.4c0-2.65 1.8-4.4 4.37-4.4"/></svg>