<svg width="24" height="24" viewBox="0 0 24 24" fill="none" xmlns="http://www.w3.org/2000/svg">
<path d="M1 12C1 6.96489 4.38299 2.71992 9 1.41407V0H15V1.41406C16.5015 1.83874 17.8725 2.57427 19.0391 3.54673L20.2929 2.29289L21.7071 3.70711L20.4533 4.96094C22.0434 6.86844 23 9.3225 23 12C23 13.5626 22.6736 15.0516 22.0843 16.4004L20.2516 15.5996C20.7326 14.4986 21 13.2818 21 12C21 7.02944 16.9706 3 12 3C7.02944 3 3 7.02944 3 12C3 16.9706 7.02944 21 12 21V23C5.92487 23 1 18.0751 1 12Z" fill="black"/>
<path d="M13 5H11V11.5858L8.29289 14.2929L9.70711 15.7071L13 12.4142V5Z" fill="black"/>
<path d="M15.6892 16.8025H14.3687C14.3592 17.6575 13.8082 18.0755 12.8297 18.0755V19.4625C13.5517 19.4625 14.0837 19.282 14.3212 18.8735V23.5H15.6892V16.8025Z" fill="black"/>
<path fill-rule="evenodd" clip-rule="evenodd" d="M16.9985 20.1465C16.9985 22.3315 18.0435 23.633 19.782 23.633C21.53 23.633 22.5655 22.3315 22.5655 20.1465C22.5655 17.971 21.53 16.6695 19.782 16.6695C18.0435 16.6695 16.9985 17.971 16.9985 20.1465ZM21.1405 20.1465C21.1405 21.5335 20.6275 22.3505 19.782 22.3505C18.9365 22.3505 18.433 21.5335 18.433 20.1465C18.433 18.769 18.9365 17.952 19.782 17.952C20.6275 17.952 21.1405 18.769 21.1405 20.1465Z" fill="black"/>
</svg>
