<svg width="24" height="24" viewBox="0 0 24 24" fill="none" xmlns="http://www.w3.org/2000/svg">
<path d="M15.0004 12C15.0004 13.6569 13.6573 15 12.0004 15C10.3436 15 9.00041 13.6569 9.00041 12C9.00041 10.3431 10.3436 9 12.0004 9C13.6573 9 15.0004 10.3431 15.0004 12Z" fill="black"/>
<path fill-rule="evenodd" clip-rule="evenodd" d="M23.8069 12.3986C23.9353 12.1464 23.9353 11.8536 23.8069 11.6014C23.5851 11.1659 23.1729 10.4105 22.5701 9.52248C20.7617 6.85834 17.2384 3 12.0004 3C6.65234 3 3.09189 7.02213 1.31905 9.68874C0.776731 10.5045 0.401694 11.1933 0.193935 11.6014C0.0655632 11.8536 0.0655633 12.1464 0.193935 12.3986C0.415667 12.8341 0.827935 13.5895 1.43074 14.4775C3.23914 17.1417 6.76237 21 12.0004 21C17.3485 21 20.9089 16.9779 22.6818 14.3113M21.0208 10.8028C20.4682 9.97078 19.7225 8.99144 18.7887 8.07431C18.4666 7.75799 18.1272 7.45374 17.7703 7.16788C16.2103 5.92157 14.2819 5 12.0004 5C9.719 5 7.79074 5.92148 6.23075 7.16769C5.87379 7.45361 5.5343 7.75792 5.21216 8.07431C4.27839 8.99139 3.53271 9.97067 2.98015 10.8027C2.4921 11.5422 2.49209 12.4577 2.9801 13.1973C3.53267 14.0293 4.27837 15.0086 5.21216 15.9257C5.53434 16.2421 5.87387 16.5465 6.23088 16.8324C7.79085 18.0786 9.71906 19 12.0004 19C14.2818 19 16.2101 18.0785 17.77 16.8323C18.127 16.5464 18.4665 16.2421 18.7887 15.9257C19.7224 15.0087 20.468 14.0295 21.0206 13.1975C21.5087 12.4579 21.5088 11.5424 21.0208 10.8028Z" fill="black"/>
</svg>
