<svg width="24" height="24" viewBox="0 0 24 24" fill="none" xmlns="http://www.w3.org/2000/svg">
<path fill-rule="evenodd" clip-rule="evenodd" d="M12 13C14.2091 13 16 11.2091 16 9C16 6.79086 14.2091 5 12 5C9.79086 5 8 6.79086 8 9C8 11.2091 9.79086 13 12 13ZM12 11C13.1046 11 14 10.1046 14 9C14 7.89543 13.1046 7 12 7C10.8954 7 10 7.89543 10 9C10 10.1046 10.8954 11 12 11Z" fill="black"/>
<path fill-rule="evenodd" clip-rule="evenodd" d="M3 4C3 1.79086 4.79086 0 7 0H17C19.2091 0 21 1.79086 21 4V20C21 22.2091 19.2091 24 17 24H7C4.79086 24 3 22.2091 3 20V4ZM7 2C5.89543 2 5 2.89543 5 4V18.124C6.36473 15.6646 8.98797 14 12 14C15.012 14 17.6353 15.6646 19 18.124V4C19 2.89543 18.1046 2 17 2H7ZM17.9943 21.7357C17.856 18.5446 15.2252 16 12 16C8.77484 16 6.14402 18.5446 6.00572 21.7357C6.29859 21.9039 6.63807 22 7 22H17C17.3619 22 17.7014 21.9039 17.9943 21.7357Z" fill="black"/>
</svg>
