<svg width="24" height="24" viewBox="0 0 24 24" fill="none" xmlns="http://www.w3.org/2000/svg">
<path fill-rule="evenodd" clip-rule="evenodd" d="M17.3289 18.7429C15.605 20.1536 13.4014 21 11.0001 21C5.47727 21 1.00012 16.5228 1.00012 11C1.00012 5.47715 5.47727 1 11.0001 1C16.523 1 21.0001 5.47715 21.0001 11C21.0001 13.4013 20.1538 15.6049 18.7431 17.3287L23.2119 21.7975L21.7977 23.2117L17.3289 18.7429ZM19.0001 11C19.0001 15.4183 15.4184 19 11.0001 19C6.58184 19 3.00012 15.4183 3.00012 11C3.00012 6.58172 6.58184 3 11.0001 3C15.4184 3 19.0001 6.58172 19.0001 11Z" fill="black"/>
</svg>
