<svg width="24" height="24" viewBox="0 0 24 24" fill="none" xmlns="http://www.w3.org/2000/svg">
<path d="M16.2071 14.2071L14.7929 12.7929L11 16.5858L9.20711 14.7929L7.79289 16.2071L11 19.4142L16.2071 14.2071Z" fill="black"/>
<path fill-rule="evenodd" clip-rule="evenodd" d="M7 4V1H5L5 4C2.79086 4 1 5.79086 1 8V19C1 21.2091 2.79086 23 5 23H19C21.2091 23 23 21.2091 23 19V8C23 5.79086 21.2091 4 19 4V1H17V4H7ZM21 9H3V8C3 6.89543 3.89543 6 5 6H19C20.1046 6 21 6.89543 21 8V9ZM21 12V19C21 20.1046 20.1046 21 19 21H5C3.89543 21 3 20.1046 3 19V12C3 11.4477 3.44772 11 4 11H20C20.5523 11 21 11.4477 21 12Z" fill="black"/>
</svg>
