<svg width="24" height="24" viewBox="0 0 24 24" fill="none" xmlns="http://www.w3.org/2000/svg">
<path fill-rule="evenodd" clip-rule="evenodd" d="M4 20C4 21.1046 4.89543 22 6 22H14V24H6C3.79086 24 2 22.2091 2 20V7.24264C2 6.18177 2.42143 5.16436 3.17157 4.41421L7.08579 0.5C7.40593 0.179855 7.84014 0 8.29289 0C9.2357 0 10 0.764297 10 1.70711V4C10 6.20914 8.20914 8 6 8H5C4.44772 8 4 8.44772 4 9V20ZM6 6H4.43288C4.48029 5.94022 4.5313 5.88291 4.58579 5.82843L8 2.41421V4C8 5.10457 7.10457 6 6 6Z" fill="black"/>
<path d="M22 12H20V4C20 2.89543 19.1046 2 18 2H12V0H18C20.2091 0 22 1.79086 22 4V12Z" fill="black"/>
<path d="M19 14.0858L23.7071 18.7929L22.2929 20.2071L20 17.9143V24H18V17.9142L15.7071 20.2071L14.2928 18.7929L19 14.0858Z" fill="black"/>
</svg>
