<svg width="24" height="24" viewBox="0 0 24 24" fill="none" xmlns="http://www.w3.org/2000/svg">
<path fill-rule="evenodd" clip-rule="evenodd" d="M12 16.5422L19 21.5422V4.03113C19 3.00748 18.2557 2.2418 17.3521 2.18185C15.8712 2.0836 14.0172 2 12 2C9.98279 2 8.12884 2.0836 6.64794 2.18185C5.74432 2.2418 5 3.00748 5 4.03113V21.5422L12 16.5422ZM6.51554 0.186237C4.50268 0.319776 3 2.01383 3 4.03113V22.4854C3 23.3219 3.67812 24 4.51462 24C4.8303 24 5.13809 23.9014 5.39497 23.7179L12 19L18.605 23.7179C18.8619 23.9014 19.1697 24 19.4854 24C20.3219 24 21 23.3219 21 22.4854V4.03113C21 2.01384 19.4973 0.319776 17.4845 0.186237C15.9699 0.0857553 14.0707 0 12 0C9.92931 0 8.03013 0.0857553 6.51554 0.186237Z" fill="black"/>
</svg>
