<svg width="24" height="24" viewBox="0 0 24 24" fill="none" xmlns="http://www.w3.org/2000/svg">
<path fill-rule="evenodd" clip-rule="evenodd" d="M17.5 5.5C17.5 8.53757 15.0376 11 12 11C8.96243 11 6.5 8.53757 6.5 5.5C6.5 2.46243 8.96243 0 12 0C15.0376 0 17.5 2.46243 17.5 5.5ZM15.5 5.5C15.5 7.433 13.933 9 12 9C10.067 9 8.5 7.433 8.5 5.5C8.5 3.567 10.067 2 12 2C13.933 2 15.5 3.567 15.5 5.5Z" fill="black"/>
<path fill-rule="evenodd" clip-rule="evenodd" d="M12 12C6.47715 12 2 16.4772 2 22C2 22.5523 2.44772 23 3 23H21C21.5523 23 22 22.5523 22 22C22 16.4772 17.5228 12 12 12ZM12 14C16.0796 14 19.446 17.0537 19.9381 21H4.06189C4.55399 17.0537 7.92038 14 12 14Z" fill="black"/>
</svg>
