<svg width="24" height="24" viewBox="0 0 24 24" fill="none" xmlns="http://www.w3.org/2000/svg">
<path d="M8 13H16V11H8V13Z" fill="black"/>
<path fill-rule="evenodd" clip-rule="evenodd" d="M10.4395 0.418094C11.4051 -0.139365 12.5947 -0.139365 13.5602 0.418094L21.2499 4.85775C22.2154 5.41521 22.8102 6.44543 22.8102 7.56035V16.4397C22.8102 17.5546 22.2154 18.5848 21.2499 19.1423L13.5602 23.5819C12.5947 24.1394 11.4051 24.1394 10.4395 23.5819L2.7498 19.1423C1.78425 18.5848 1.18945 17.5546 1.18945 16.4397V7.56035C1.18945 6.44543 1.78425 5.41521 2.7498 4.85775L10.4395 0.418094ZM12.52 2.21983L20.2097 6.65948C20.5315 6.8453 20.7298 7.18871 20.7298 7.56035V16.4397C20.7298 16.8113 20.5315 17.1547 20.2097 17.3405L12.52 21.7802C12.1981 21.966 11.8016 21.966 11.4797 21.7802L3.79003 17.3405C3.46818 17.1547 3.26992 16.8113 3.26992 16.4397V7.56035C3.26992 7.18871 3.46818 6.8453 3.79003 6.65948L11.4797 2.21983C11.8016 2.03401 12.1981 2.03401 12.52 2.21983Z" fill="black"/>
</svg>
