<svg width="24" height="24" viewBox="0 0 24 24" fill="none" xmlns="http://www.w3.org/2000/svg">
<path d="M12 14C13.1046 14 14 13.1046 14 12C14 10.8954 13.1046 10 12 10C10.8954 10 10 10.8954 10 12C10 13.1046 10.8954 14 12 14Z" fill="black"/>
<path fill-rule="evenodd" clip-rule="evenodd" d="M15.5715 5.70136C16.3378 5.50977 17.1485 5.73431 17.7071 6.29289C18.2657 6.85147 18.4902 7.66217 18.2986 8.42853L16.7612 14.5784C16.4925 15.6532 15.6532 16.4925 14.5784 16.7612L8.42853 18.2986C7.66217 18.4902 6.85147 18.2657 6.29289 17.7071C5.73431 17.1485 5.50977 16.3378 5.70136 15.5715L7.23881 9.42164C7.50753 8.34678 8.34678 7.50753 9.42163 7.23881L15.5715 5.70136ZM16.2929 7.70711C16.2311 7.64529 16.1414 7.62044 16.0565 7.64164L9.90671 9.1791C9.54842 9.26867 9.26867 9.54842 9.1791 9.90671L7.64164 16.0565C7.62044 16.1414 7.64529 16.2311 7.70711 16.2929C7.76892 16.3547 7.85864 16.3796 7.94346 16.3584L14.0933 14.8209C14.4516 14.7313 14.7313 14.4516 14.8209 14.0933L16.3584 7.94346C16.3796 7.85864 16.3547 7.76893 16.2929 7.70711Z" fill="black"/>
<path fill-rule="evenodd" clip-rule="evenodd" d="M12 24C18.6274 24 24 18.6274 24 12C24 5.37258 18.6274 0 12 0C5.37258 0 0 5.37258 0 12C0 18.6274 5.37258 24 12 24ZM12 22C17.5228 22 22 17.5228 22 12C22 6.47715 17.5228 2 12 2C6.47715 2 2 6.47715 2 12C2 17.5228 6.47715 22 12 22Z" fill="black"/>
</svg>
