<svg width="24" height="24" viewBox="0 0 24 24" fill="none" xmlns="http://www.w3.org/2000/svg">
<path d="M16 16C16 18.2091 14.2091 20 12 20C9.79086 20 8 18.2091 8 16C8 14.1362 9.27477 12.5701 11 12.126V7H13V12.126C14.7252 12.5701 16 14.1362 16 16Z" fill="black"/>
<path fill-rule="evenodd" clip-rule="evenodd" d="M7 5C7 2.23858 9.23858 0 12 0C14.7614 0 17 2.23858 17 5V9.75463C18.8289 11.2207 20 13.4736 20 16C20 20.4183 16.4183 24 12 24C7.58172 24 4 20.4183 4 16C4 13.4736 5.17107 11.2207 7 9.75463V5ZM9 10.7147L8.25094 11.3151C6.87516 12.418 6 14.1061 6 16C6 19.3137 8.68629 22 12 22C15.3137 22 18 19.3137 18 16C18 14.1061 17.1248 12.418 15.7491 11.3151L15 10.7147V5C15 3.34315 13.6569 2 12 2C10.3431 2 9 3.34315 9 5V10.7147Z" fill="black"/>
</svg>
