<svg width="24" height="24" viewBox="0 0 24 24" fill="none" xmlns="http://www.w3.org/2000/svg">
<path fill-rule="evenodd" clip-rule="evenodd" d="M8.00025 4C8.00025 1.79086 9.79111 0 12.0003 0C14.2094 0 16.0003 1.79086 16.0003 4V6H20.0691C21.1184 6 21.9893 6.81089 22.064 7.85751L22.6916 16.6438C22.8984 19.5381 20.6061 22 17.7043 22H6.29616C3.39445 22 1.10212 19.5381 1.30886 16.6438L1.93645 7.8575C2.01121 6.81089 2.88209 6 3.93137 6H8.00025V4ZM8.00025 8V12H10.0003V8H14.0003V12H16.0003V8H20.0691L20.6967 16.7863C20.8208 18.5229 19.4454 20 17.7043 20H6.29616C4.55513 20 3.17974 18.5229 3.30378 16.7863L3.93137 8L8.00025 8ZM14.0003 6H10.0003V4C10.0003 2.89543 10.8957 2 12.0003 2C13.1048 2 14.0003 2.89543 14.0003 4V6Z" fill="black"/>
</svg>
