<svg width="24" height="24" viewBox="0 0 24 24" fill="none" xmlns="http://www.w3.org/2000/svg">
<path d="M18 20V4C18 3.44772 17.5523 3 17 3C16.4477 3 16 3.44772 16 4V20C16 20.5523 16.4477 21 17 21C17.5523 21 18 20.5523 18 20Z" fill="black"/>
<path d="M8 6V18C8 18.5523 7.55228 19 7 19C6.44772 19 6 18.5523 6 18V6C6 5.44772 6.44772 5 7 5C7.55228 5 8 5.44772 8 6Z" fill="black"/>
<path d="M13 9C13 8.44772 12.5523 8 12 8C11.4477 8 11 8.44772 11 9V15C11 15.5523 11.4477 16 12 16C12.5523 16 13 15.5523 13 15V9Z" fill="black"/>
<path d="M22 6C22.5523 6 23 6.44772 23 7V17C23 17.5523 22.5523 18 22 18C21.4477 18 21 17.5523 21 17V7C21 6.44772 21.4477 6 22 6Z" fill="black"/>
<path d="M3 10V14C3 14.5523 2.55228 15 2 15C1.44772 15 1 14.5523 1 14V10C1 9.44772 1.44772 9 2 9C2.55228 9 3 9.44772 3 10Z" fill="black"/>
</svg>
