<svg width="24" height="24" viewBox="0 0 24 24" fill="none" xmlns="http://www.w3.org/2000/svg">
<path fill-rule="evenodd" clip-rule="evenodd" d="M20.5377 14.2396C20.7349 15.8166 22.0754 17 23.6647 17H24V19H16V20H15.9767C15.7787 21.6893 14.3424 23 12.6 23H11.4C9.65756 23 8.22125 21.6893 8.02328 20H8V19H0V17H0.335338C1.92459 17 3.26514 15.8166 3.46227 14.2396L4.26351 7.82963C4.75122 3.92794 8.06795 1 12 1C15.9321 1 19.2488 3.92794 19.7365 7.82963L20.5377 14.2396ZM10 19.6C10 20.3732 10.6268 21 11.4 21H12.6C13.3732 21 14 20.3732 14 19.6C14 19.2686 13.7314 19 13.4 19H10.6C10.2686 19 10 19.2686 10 19.6Z" fill="black"/>
</svg>
