<svg width="24" height="24" viewBox="0 0 24 24" fill="none" xmlns="http://www.w3.org/2000/svg">
<g clip-path="url(#clip0_4128_10685)">
<path d="M8.5 12C9.32843 12 10 11.3284 10 10.5C10 9.67157 9.32843 9 8.5 9C7.67157 9 7 9.67157 7 10.5C7 11.3284 7.67157 12 8.5 12Z" fill="black"/>
<path d="M17 10.5C17 11.3284 16.3284 12 15.5 12C14.6716 12 14 11.3284 14 10.5C14 9.67157 14.6716 9 15.5 9C16.3284 9 17 9.67157 17 10.5Z" fill="black"/>
<path d="M12 14.5C10.3486 14.5 8.71815 14.3363 7.20387 14.021L6.79613 15.979C8.45224 16.3239 10.2198 16.5 12 16.5C13.7802 16.5 15.5478 16.3239 17.2039 15.979L16.7961 14.021C15.2819 14.3363 13.6514 14.5 12 14.5Z" fill="black"/>
<path fill-rule="evenodd" clip-rule="evenodd" d="M24 12C24 18.6274 18.6274 24 12 24C5.37258 24 0 18.6274 0 12C0 5.37258 5.37258 0 12 0C18.6274 0 24 5.37258 24 12ZM22 12C22 17.5228 17.5228 22 12 22C6.47715 22 2 17.5228 2 12C2 6.47715 6.47715 2 12 2C17.5228 2 22 6.47715 22 12Z" fill="black"/>
</g>
<defs>
<clipPath id="clip0_4128_10685">
<rect width="24" height="24" fill="white"/>
</clipPath>
</defs>
</svg>
