<svg width="24" height="24" viewBox="0 0 24 24" fill="none" xmlns="http://www.w3.org/2000/svg">
<path fill-rule="evenodd" clip-rule="evenodd" d="M11.0879 21.9589C11.0396 21.8882 10.9879 21.8131 10.9326 21.733L10.9165 21.7097C10.7247 21.4318 10.4888 21.09 10.2816 20.742C9.74267 19.8369 9.27163 18.5517 9.5919 17.3152C9.7761 16.6041 10.248 15.8751 11.0983 15.4835C11.8821 15.1224 12.688 15.188 13.3161 15.3558C17.0591 16.3556 19.2089 15.7585 20.3558 14.9753C21.5315 14.1724 22 12.9486 22 12C22 6.47715 17.5228 2 12 2C6.47715 2 2 6.47715 2 12C2 17.2152 5.99356 21.4982 11.0879 21.9589ZM11.5994 22.8191L11.5988 22.817L11.5994 22.8191ZM12 24C14.4802 23.3523 13.5396 21.9893 12.5787 20.597C12.3761 20.3034 12.1725 20.0085 12 19.7187C11.1433 18.2799 11.3314 16.8958 12.8 17.2881C21.0231 19.4846 24 15.0913 24 12C24 5.37258 18.6274 0 12 0C5.37258 0 0 5.37258 0 12C0 18.6274 5.37399 24 12 24Z" fill="black"/>
<path d="M10.5 5.5C10.5 4.67157 11.1716 4 12 4C12.8284 4 13.5 4.67157 13.5 5.5C13.5 6.32843 12.8284 7 12 7C11.1716 7 10.5 6.32843 10.5 5.5Z" fill="black"/>
<path d="M17.6566 8.46496C18.2424 7.87917 18.2424 6.92942 17.6566 6.34364C17.0708 5.75785 16.1211 5.75785 15.5353 6.34364C14.9495 6.92942 14.9495 7.87917 15.5353 8.46496C16.1211 9.05074 17.0708 9.05074 17.6566 8.46496Z" fill="black"/>
<path d="M5.5 13.5C6.32843 13.5 7 12.8284 7 12C7 11.1716 6.32843 10.5 5.5 10.5C4.67157 10.5 4 11.1716 4 12C4 12.8284 4.67157 13.5 5.5 13.5Z" fill="black"/>
<path d="M6.34341 6.34364C5.75762 6.92942 5.75762 7.87917 6.34341 8.46496C6.9292 9.05074 7.87894 9.05074 8.46473 8.46496C9.05052 7.87917 9.05052 6.92942 8.46473 6.34364C7.87894 5.75785 6.9292 5.75785 6.34341 6.34364Z" fill="black"/>
</svg>
