<svg width="24" height="24" viewBox="0 0 24 24" fill="none" xmlns="http://www.w3.org/2000/svg">
<path fill-rule="evenodd" clip-rule="evenodd" d="M5.64037 7H4C1.79086 7 0 8.79086 0 11V13C0 15.2091 1.79086 17 4 17H5.64037C5.78899 17.2647 5.96226 17.5168 6.15889 17.7527L9.63209 21.9206C10.2021 22.6045 11.0464 23 11.9368 23H13C14.1046 23 15 22.1046 15 21V3C15 1.89543 14.1046 1 13 1H11.9368C11.0464 1 10.2021 1.39547 9.63209 2.07945L6.15889 6.24728C5.96226 6.48323 5.78899 6.73533 5.64037 7ZM11.1685 3.35982C11.3585 3.13182 11.64 3 11.9368 3H13V21H11.9368C11.64 21 11.3585 20.8682 11.1685 20.6402L7.69534 16.4724C7.24605 15.9332 7 15.2536 7 14.5518V9.4482C7 8.74639 7.24605 8.06679 7.69534 7.52765L11.1685 3.35982ZM4 9C4.55228 9 5 9.44771 5 10V14C5 14.5523 4.55228 15 4 15C2.89543 15 2 14.1046 2 13V11C2 9.89543 2.89543 9 4 9Z" fill="black"/>
<path d="M16.2929 9.70711L18.5858 12L16.2929 14.2929L17.7071 15.7071L20 13.4142L22.2929 15.7071L23.7071 14.2929L21.4142 12L23.7071 9.70711L22.2929 8.29289L20 10.5858L17.7071 8.29289L16.2929 9.70711Z" fill="black"/>
</svg>
