<svg width="24" height="24" viewBox="0 0 24 24" fill="none" xmlns="http://www.w3.org/2000/svg">
<path d="M18.7071 8.20711L17.2929 6.79289L12.5 11.5858L10.7071 9.79289L9.29289 11.2071L12.5 14.4142L18.7071 8.20711Z" fill="black"/>
<path fill-rule="evenodd" clip-rule="evenodd" d="M9 1C6.79086 1 5 2.79086 5 5C2.79086 5 1 6.79086 1 9V19C1 21.2091 2.79086 23 5 23H15C17.2091 23 19 21.2091 19 19C21.2091 19 23 17.2091 23 15V5C23 2.79086 21.2091 1 19 1H9ZM19 3H9C7.89543 3 7 3.89543 7 5V15C7 16.1046 7.89543 17 9 17H19C20.1046 17 21 16.1046 21 15V5C21 3.89543 20.1046 3 19 3ZM3 9C3 7.89543 3.89543 7 5 7V15C5 17.2091 6.79086 19 9 19H17C17 20.1046 16.1046 21 15 21H5C3.89543 21 3 20.1046 3 19V9Z" fill="black"/>
</svg>
