<svg width="24" height="24" viewBox="0 0 24 24" fill="none" xmlns="http://www.w3.org/2000/svg">
<path fill-rule="evenodd" clip-rule="evenodd" d="M4 3C1.79086 3 0 4.79086 0 7V17C0 19.2091 1.79086 21 4 21H13C15.2091 21 17 19.2091 17 17V15.7232L19.5116 17.1584C21.5116 18.3012 24 16.8571 24 14.5536V9.44636C24 7.14289 21.5116 5.69879 19.5116 6.84163L17 8.27682V7C17 4.79086 15.2091 3 13 3H4ZM17 11.1606V12.8394C17 13.1982 17.1923 13.5296 17.5039 13.7076L20.5039 15.4219C21.1705 15.8028 22 15.3215 22 14.5536V9.44636C22 8.67854 21.1705 8.19717 20.5039 8.57812L17.5039 10.2924C17.1923 10.4704 17 10.8018 17 11.1606ZM15 7C15 5.89543 14.1046 5 13 5H4C2.89543 5 2 5.89543 2 7V17C2 18.1046 2.89543 19 4 19H13C14.1046 19 15 18.1046 15 17V7Z" fill="black"/>
</svg>
