<svg width="24" height="24" viewBox="0 0 24 24" fill="none" xmlns="http://www.w3.org/2000/svg">
<path d="M13.5 2.5C13.5 3.32843 12.8284 4 12 4C11.1716 4 10.5 3.32843 10.5 2.5C10.5 1.67157 11.1716 1 12 1C12.8284 1 13.5 1.67157 13.5 2.5Z" fill="black"/>
<path d="M11.2929 12.2929L8.29289 15.2929L9.70711 16.7071L12.7071 13.7071L11.2929 12.2929Z" fill="black"/>
<path fill-rule="evenodd" clip-rule="evenodd" d="M12 21C16.4183 21 20 17.4183 20 13C20 8.58172 16.4183 5 12 5C7.58172 5 4 8.58172 4 13C4 17.4183 7.58172 21 12 21ZM12 19C15.3137 19 18 16.3137 18 13C18 9.68629 15.3137 7 12 7C8.68629 7 6 9.68629 6 13C6 16.3137 8.68629 19 12 19Z" fill="black"/>
<path d="M5.63608 6.63683C6.22187 6.05105 6.22187 5.1013 5.63608 4.51551C5.0503 3.92973 4.10055 3.92973 3.51476 4.51551C2.92898 5.1013 2.92898 6.05105 3.51476 6.63683C4.10055 7.22262 5.0503 7.22262 5.63608 6.63683Z" fill="black"/>
<path d="M22.5 14.5C21.6716 14.5 21 13.8284 21 13C21 12.1716 21.6716 11.5 22.5 11.5C23.3284 11.5 24 12.1716 24 13C24 13.8284 23.3284 14.5 22.5 14.5Z" fill="black"/>
<path d="M18.3641 6.63511C18.9499 7.22089 19.8997 7.22089 20.4855 6.63511C21.0713 6.04932 21.0713 5.09957 20.4855 4.51379C19.8997 3.928 18.9499 3.928 18.3641 4.51379C17.7784 5.09957 17.7784 6.04932 18.3641 6.63511Z" fill="black"/>
<path d="M20.4857 19.3632C21.0715 19.949 21.0715 20.8987 20.4857 21.4845C19.8999 22.0703 18.9502 22.0703 18.3644 21.4845C17.7786 20.8987 17.7786 19.949 18.3644 19.3632C18.9502 18.7774 19.8999 18.7774 20.4857 19.3632Z" fill="black"/>
<path d="M0 13C0 13.8284 0.671573 14.5 1.5 14.5C2.32843 14.5 3 13.8284 3 13C3 12.1716 2.32843 11.5 1.5 11.5C0.671573 11.5 0 12.1716 0 13Z" fill="black"/>
<path d="M5.63586 21.4847C5.05007 22.0705 4.10032 22.0705 3.51454 21.4847C2.92875 20.8989 2.92875 19.9492 3.51454 19.3634C4.10032 18.7776 5.05007 18.7776 5.63586 19.3634C6.22164 19.9492 6.22164 20.8989 5.63586 21.4847Z" fill="black"/>
</svg>
