<svg width="24" height="24" viewBox="0 0 24 24" fill="none" xmlns="http://www.w3.org/2000/svg">
<path fill-rule="evenodd" clip-rule="evenodd" d="M3 3C1.89543 3 1 3.89543 1 5V9C1 10.1046 1.89543 11 3 11H5C6.10457 11 7 10.1046 7 9V5C7 3.89543 6.10457 3 5 3H3ZM5 5H3L3 9H5V5Z" fill="black"/>
<path fill-rule="evenodd" clip-rule="evenodd" d="M11 3C9.89543 3 9 3.89543 9 5V9C9 10.1046 9.89543 11 11 11H13C14.1046 11 15 10.1046 15 9V5C15 3.89543 14.1046 3 13 3H11ZM13 5H11V9H13V5Z" fill="black"/>
<path fill-rule="evenodd" clip-rule="evenodd" d="M17 5C17 3.89543 17.8954 3 19 3H21C22.1046 3 23 3.89543 23 5V9C23 10.1046 22.1046 11 21 11H19C17.8954 11 17 10.1046 17 9V5ZM19 5H21V9H19V5Z" fill="black"/>
<path d="M22 16L6 16V14L22 14V16Z" fill="black"/>
<path d="M6 20L22 20V18L6 18V20Z" fill="black"/>
<path d="M4 15C4 15.5523 3.55228 16 3 16C2.44772 16 2 15.5523 2 15C2 14.4477 2.44772 14 3 14C3.55228 14 4 14.4477 4 15Z" fill="black"/>
<path d="M3 20C3.55228 20 4 19.5523 4 19C4 18.4477 3.55228 18 3 18C2.44772 18 2 18.4477 2 19C2 19.5523 2.44772 20 3 20Z" fill="black"/>
</svg>
