<svg width="24" height="24" viewBox="0 0 24 24" fill="none" xmlns="http://www.w3.org/2000/svg">
<path d="M16 10C14.8954 10 14 9.10457 14 8C14 6.89543 14.8954 6 16 6C17.1046 6 18 6.89543 18 8C18 9.10457 17.1046 10 16 10Z" fill="black"/>
<path fill-rule="evenodd" clip-rule="evenodd" d="M5 1C2.79086 1 1 2.79086 1 5V19C1 21.2091 2.79086 23 5 23H19C21.2091 23 23 21.2091 23 19V5C23 2.79086 21.2091 1 19 1H5ZM19 3H5C3.89543 3 3 3.89543 3 5V11.6273C4.25851 10.5801 5.84935 10 7.5 10C9.36594 10 11.1555 10.7412 12.4749 12.0607L12.7071 12.2929C13.8001 13.3859 15.2826 14 16.8284 14H21V5C21 3.89543 20.1046 3 19 3ZM3 19V14.4142L3.93934 13.4749C4.88369 12.5305 6.16449 12 7.5 12C8.83551 12 10.1163 12.5305 11.0607 13.4749L11.2929 13.7071C12.761 15.1752 14.7522 16 16.8284 16H21V19C21 20.1046 20.1046 21 19 21H5C3.89543 21 3 20.1046 3 19Z" fill="black"/>
</svg>
