<svg width="24" height="24" viewBox="0 0 24 24" fill="none" xmlns="http://www.w3.org/2000/svg">
<path fill-rule="evenodd" clip-rule="evenodd" d="M22.7071 2.70718L20.4142 5.00008L23.7071 8.29297L22.2929 9.70718L19 6.41429L16.4142 9.00008L19.7071 12.293L18.2929 13.7072L15 10.4143L11.8907 13.5235C12.5892 14.5044 13 15.7042 13 17.0001C13 20.3138 10.3137 23.0001 7 23.0001C3.68629 23.0001 1 20.3138 1 17.0001C1 13.6864 3.68629 11.0001 7 11.0001C8.29583 11.0001 9.49572 11.4109 10.4765 12.1093L21.2929 1.29297L22.7071 2.70718ZM11 17.0001C11 19.2092 9.20914 21.0001 7 21.0001C4.79086 21.0001 3 19.2092 3 17.0001C3 14.7909 4.79086 13.0001 7 13.0001C9.20914 13.0001 11 14.7909 11 17.0001Z" fill="black"/>
</svg>
