<svg width="24" height="24" viewBox="0 0 24 24" fill="none" xmlns="http://www.w3.org/2000/svg">
<path d="M7.25449 13.206H9.56449C9.46549 14.13 8.79449 14.757 7.59549 14.757C6.15449 14.757 5.30749 13.723 5.30749 12.084C5.30749 10.412 6.27549 9.532 7.62849 9.532C8.58549 9.532 9.23449 9.961 9.56449 10.742L11.0275 10.016C10.5215 8.795 9.26749 8.091 7.58449 8.091C5.35149 8.091 3.70149 9.741 3.70149 12.084C3.70149 14.515 5.21949 16.154 7.29849 16.154C8.46449 16.154 9.36649 15.747 9.75149 14.856V16H11.0715V11.787H7.25449V13.206Z" fill="black"/>
<path d="M12.5286 16H14.0686V8.245H12.5286V16Z" fill="black"/>
<path d="M20.5171 9.697V8.245H15.6331V16H17.1731V13.052H19.7581V11.633H17.1731V9.697H20.5171Z" fill="black"/>
<path fill-rule="evenodd" clip-rule="evenodd" d="M0 7C0 4.79086 1.79086 3 4 3H20C22.2091 3 24 4.79086 24 7V17C24 19.2091 22.2091 21 20 21H4C1.79086 21 0 19.2091 0 17V7ZM4 5H20C21.1046 5 22 5.89543 22 7V17C22 18.1046 21.1046 19 20 19H4C2.89543 19 2 18.1046 2 17V7C2 5.89543 2.89543 5 4 5Z" fill="black"/>
</svg>
