<svg width="24" height="24" viewBox="0 0 24 24" fill="none" xmlns="http://www.w3.org/2000/svg">
<path fill-rule="evenodd" clip-rule="evenodd" d="M20.4853 3.51472C20.2472 3.2766 20.0015 3.05058 19.7491 2.83666C15.0344 -1.15947 7.96289 -0.933452 3.51472 3.51472C-0.933452 7.96289 -1.15947 15.0344 2.83666 19.7491C3.05058 20.0015 3.2766 20.2472 3.51472 20.4853C3.75284 20.7234 3.99848 20.9494 4.25087 21.1633C8.96563 25.1595 16.0371 24.9335 20.4853 20.4853C24.9335 16.0371 25.1595 8.96563 21.1633 4.25087C20.9494 3.99848 20.7234 3.75284 20.4853 3.51472ZM18.329 4.25674C14.401 1.03827 8.59553 1.26234 4.92893 4.92893C1.26234 8.59553 1.03827 14.401 4.25674 18.329L18.329 4.25674ZM5.67095 19.7433L19.7433 5.67095C22.9617 9.59896 22.7377 15.4045 19.0711 19.0711C15.4045 22.7377 9.59896 22.9617 5.67095 19.7433Z" fill="black"/>
</svg>
