<svg width="24" height="24" viewBox="0 0 24 24" fill="none" xmlns="http://www.w3.org/2000/svg">
<path fill-rule="evenodd" clip-rule="evenodd" d="M5 5C5 2.79086 6.79086 1 9 1H19C21.2091 1 23 2.79086 23 5V15C23 17.2091 21.2091 19 19 19H9C6.79086 19 5 17.2091 5 15V5ZM9 3H19C20.1046 3 21 3.89543 21 5V15C21 16.1046 20.1046 17 19 17H9C7.89543 17 7 16.1046 7 15V5C7 3.89543 7.89543 3 9 3Z" fill="black"/>
<path d="M3 16V7H1V16C1 19.866 4.13401 23 8 23H17V21H8C5.23858 21 3 18.7614 3 16Z" fill="black"/>
</svg>
