<svg width="24" height="24" viewBox="0 0 24 24" fill="none" xmlns="http://www.w3.org/2000/svg">
<path d="M8.50002 9C9.32845 9 10 8.32843 10 7.5C10 6.67157 9.32845 6 8.50002 6C7.67159 6 7.00002 6.67157 7.00002 7.5C7.00002 8.32843 7.67159 9 8.50002 9Z" fill="black"/>
<path d="M14 12.5C14 13.8807 13.1046 15 12 15C10.8955 15 10 13.8807 10 12.5C10 11.1193 10.8955 10 12 10C13.1046 10 14 11.1193 14 12.5Z" fill="black"/>
<path d="M15.5 9C16.3284 9 17 8.32843 17 7.5C17 6.67157 16.3284 6 15.5 6C14.6716 6 14 6.67157 14 7.5C14 8.32843 14.6716 9 15.5 9Z" fill="black"/>
<path fill-rule="evenodd" clip-rule="evenodd" d="M17.2404 21.1603L17 21L15.9993 22.2009C15.0493 23.3409 13.642 24 12.1581 24H11.8419C10.358 24 8.95076 23.3409 8.00079 22.2009L7.00002 21L6.75964 21.1603C5.93831 21.7078 4.97327 22 3.98614 22H3.30604C2.08894 22 1.15402 20.922 1.32614 19.7172L1.87941 15.8442C1.95972 15.2821 2.00002 14.715 2.00002 14.1472V10C2.00002 4.47715 6.47717 0 12 0C17.5229 0 22 4.47715 22 10V14.1472C22 14.715 22.0403 15.2821 22.1206 15.8442L22.6739 19.7172C22.846 20.922 21.9111 22 20.694 22H20.0139C19.0268 22 18.0617 21.7078 17.2404 21.1603ZM7.38595 18.339L5.65024 19.4962C5.15744 19.8247 4.57842 20 3.98614 20H3.30604L3.85931 16.1271C3.953 15.4713 4.00002 14.8097 4.00002 14.1472V10C4.00002 5.58172 7.58174 2 12 2C16.4183 2 20 5.58172 20 10V14.1472C20 14.8097 20.047 15.4713 20.1407 16.1271L20.694 20H20.0139C19.4216 20 18.8426 19.8247 18.3498 19.4962L16.6141 18.339L14.4628 20.9206C13.8928 21.6045 13.0485 22 12.1581 22H11.8419C10.9516 22 10.1072 21.6045 9.53723 20.9206L7.38595 18.339Z" fill="black"/>
</svg>
