<svg xmlns="http://www.w3.org/2000/svg" width="24" height="24"><path d="M4.6 22.73A107 107 0 0 0 11 23h2.22c2.43-.04 4.6-.16 6.18-.27A3.9 3.9 0 0 0 23 18.8v-8.46a4 4 0 0 0-1.34-3L14.4.93a3.63 3.63 0 0 0-4.82 0L2.34 7.36A4 4 0 0 0 1 10.35v8.46a3.9 3.9 0 0 0 3.6 3.92M13.08 2.4l7.25 6.44a2 2 0 0 1 .67 1.5v8.46a1.9 1.9 0 0 1-1.74 1.92q-1.39.11-3.26.19V16a4 4 0 0 0-8 0v4.92q-1.87-.08-3.26-.19A1.9 1.9 0 0 1 3 18.81v-8.46a2 2 0 0 1 .67-1.5l7.25-6.44a1.63 1.63 0 0 1 2.16 0M13.12 21h-2.24a1 1 0 0 1-.88-1v-4a2 2 0 1 1 4 0v4a1 1 0 0 1-.88 1"/></svg>