<svg width="24" height="24" viewBox="0 0 24 24" fill="none" xmlns="http://www.w3.org/2000/svg">
<path d="M8.29258 11.7071L10.5855 14L8.29258 16.2929L9.7068 17.7071L11.9997 15.4142L14.2926 17.7071L15.7068 16.2929L13.4139 14L15.7068 11.7071L14.2926 10.2929L11.9997 12.5858L9.7068 10.2929L8.29258 11.7071Z" fill="black"/>
<path fill-rule="evenodd" clip-rule="evenodd" d="M9.40162 2.5C10.5563 0.499999 13.4431 0.500001 14.5978 2.5L23.258 17.5C24.4127 19.5 22.9693 22 20.6599 22H3.33943C1.03003 22 -0.41334 19.5 0.741361 17.5L9.40162 2.5ZM12.8657 3.5L21.526 18.5C21.9109 19.1667 21.4297 20 20.6599 20H3.33943C2.56964 20 2.08851 19.1667 2.47341 18.5L11.1337 3.5C11.5186 2.83334 12.4808 2.83333 12.8657 3.5Z" fill="black"/>
</svg>
