<svg xmlns="http://www.w3.org/2000/svg" width="24" height="24"><path d="M1 17.76v2.11a6 6 0 0 0 2.7-1.66C4.6 17.3 5.37 17 6 17s1.4.32 2.3 1.2C9.4 19.33 10.63 20 12 20s2.6-.68 3.7-1.8c.9-.88 1.66-1.2 2.3-1.2s1.4.32 2.3 1.2a6 6 0 0 0 2.7 1.67v-2.11q-.6-.28-1.3-.97C20.6 15.7 19.37 15 18 15s-2.6.68-3.7 1.8c-.9.88-1.66 1.2-2.3 1.2s-1.4-.32-2.3-1.2C8.6 15.67 7.37 15 6 15s-2.6.68-3.7 1.8q-.7.68-1.3.96m0-6v2.11a6 6 0 0 0 2.7-1.66C4.6 11.3 5.37 11 6 11s1.4.32 2.3 1.2C9.4 13.33 10.63 14 12 14s2.6-.68 3.7-1.8c.9-.88 1.66-1.2 2.3-1.2s1.4.32 2.3 1.2a6 6 0 0 0 2.7 1.67v-2.11q-.6-.28-1.3-.97C20.6 9.7 19.37 9 18 9s-2.6.68-3.7 1.8c-.9.88-1.66 1.2-2.3 1.2s-1.4-.32-2.3-1.2C8.6 9.67 7.37 9 6 9s-2.6.68-3.7 1.8q-.7.68-1.3.96m0-6v2.11a6 6 0 0 0 2.7-1.66C4.6 5.3 5.37 5 6 5s1.4.32 2.3 1.2C9.4 7.33 10.63 8 12 8s2.6-.68 3.7-1.8C16.6 5.33 17.37 5 18 5s1.4.32 2.3 1.2A6 6 0 0 0 23 7.88V5.76q-.6-.28-1.3-.97C20.6 3.7 19.37 3 18 3s-2.6.68-3.7 1.8C13.4 5.67 12.63 6 12 6s-1.4-.32-2.3-1.2C8.6 3.67 7.37 3 6 3s-2.6.68-3.7 1.8q-.7.68-1.3.96"/></svg>