<svg width="24" height="24" viewBox="0 0 24 24" fill="none" xmlns="http://www.w3.org/2000/svg">
<path d="M15 13V15H9V13H15Z" fill="black"/>
<path fill-rule="evenodd" clip-rule="evenodd" d="M9 5C9 3.34315 10.3431 2 12 2C13.1282 2 14.1124 2.62233 14.6256 3.5472L16.3744 2.57679C15.5229 1.04224 13.8838 0 12 0C9.23858 0 7 2.23858 7 5V6H6C3.79086 6 2 7.79086 2 10V18C2 20.2091 3.79086 22 6 22H18C20.2091 22 22 20.2091 22 18V10C22 7.79086 20.2091 6 18 6H9V5ZM6 8C4.89543 8 4 8.89543 4 10V18C4 19.1046 4.89543 20 6 20H18C19.1046 20 20 19.1046 20 18V10C20 8.89543 19.1046 8 18 8H6Z" fill="black"/>
</svg>
