<svg width="24" height="24" viewBox="0 0 24 24" fill="none" xmlns="http://www.w3.org/2000/svg">
<path d="M14 8C14 9.10457 14.8954 10 16 10C17.1046 10 18 9.10457 18 8C18 6.89543 17.1046 6 16 6C14.8954 6 14 6.89543 14 8Z" fill="black"/>
<path fill-rule="evenodd" clip-rule="evenodd" d="M5 1C2.79086 1 1 2.79086 1 5V19C1 21.2091 2.79086 23 5 23H10V21H5C3.89543 21 3 20.1046 3 19V14.4142L3.93934 13.4749C4.88369 12.5305 6.16449 12 7.5 12C8.83551 12 10.1163 12.5305 11.0607 13.4749L11.2929 13.7071C11.5988 14.0131 11.9275 14.2911 12.275 14.5395C12.0975 14.992 12 15.4846 12 16V23H12.7574C13.8182 23 14.8356 22.5786 15.5858 21.8284L21.8284 15.5858C22.5786 14.8356 23 13.8182 23 12.7574V5C23 2.79086 21.2091 1 19 1H5ZM13.4481 12.9196C14.1406 12.3453 15.03 12 16 12H20C20.5523 12 21 11.5523 21 11V5C21 3.89543 20.1046 3 19 3H5C3.89543 3 3 3.89543 3 5V11.6273C4.25851 10.5801 5.84935 10 7.5 10C9.36594 10 11.1555 10.7412 12.4749 12.0607L12.7071 12.2929C12.9378 12.5236 13.1858 12.7329 13.4481 12.9196ZM20.5671 14H16C14.8954 14 14 14.8954 14 16V20.5671C14.0598 20.5197 14.1171 20.4687 14.1716 20.4142L20.4142 14.1716C20.4687 14.1171 20.5197 14.0598 20.5671 14Z" fill="black"/>
</svg>
