<svg width="24" height="24" viewBox="0 0 24 24" fill="none" xmlns="http://www.w3.org/2000/svg">
<path fill-rule="evenodd" clip-rule="evenodd" d="M15.5663 1.26708C15.0774 0.504983 14.2226 0 13.25 0C11.9424 0 10.8479 0.912647 10.5688 2.13571C10.2972 2.04761 10.0073 2 9.70624 2C8.21754 2 6.99035 3.16737 6.91601 4.65421L6.61862 10.602L5.78849 9.71873C4.34678 8.18469 1.90061 8.21455 0.496782 9.78333C-0.114696 10.4667 -0.138157 11.4933 0.441465 12.2038L2.63737 14.8957C2.77788 15.068 2.89991 15.2545 3.00143 15.4523L5.07371 19.4892C6.49532 22.2586 9.34668 24 12.4596 24H14.5678C19.7242 24 23.8264 19.6762 23.5554 14.527L23.0881 5.64907C23.01 4.16403 21.7831 3 20.296 3C19.9942 3 19.7035 3.04782 19.4312 3.13629C19.1524 1.91294 18.0578 1 16.75 1C16.3262 1 15.9248 1.09586 15.5663 1.26708ZM13.25 2C12.8358 2 12.5 2.33579 12.5 2.75V13H10.5V4.79372C10.5 4.35536 10.1446 4 9.70624 4C9.28329 4 8.93463 4.33166 8.91351 4.75409L8.38132 15.398L4.3311 11.0884C3.71924 10.4374 2.69896 10.4222 2.06766 11.0333L4.18713 13.6315C4.41623 13.9124 4.61518 14.2165 4.7807 14.539L6.85298 18.5759C7.93212 20.6781 10.0966 22 12.4596 22H14.5678C18.5784 22 21.769 18.6371 21.5582 14.6321L21.0909 5.75418C21.0687 5.3314 20.7194 5 20.296 5C19.8564 5 19.5 5.35639 19.5 5.79602V13H17.5V3.75C17.5 3.33579 17.1642 3 16.75 3C16.3358 3 16 3.33579 16 3.75V13H14V2.75C14 2.33579 13.6642 2 13.25 2Z" fill="black"/>
</svg>
