<svg width="24" height="24" viewBox="0 0 24 24" fill="none" xmlns="http://www.w3.org/2000/svg">
<path d="M1 5C1 2.79086 2.79086 1 5 1H9V3H5C3.89543 3 3 3.89543 3 5V9H1V5Z" fill="black"/>
<path d="M23 5C23 2.79086 21.2091 1 19 1H15V3H19C20.1046 3 21 3.89543 21 5V9H23V5Z" fill="black"/>
<path d="M5 23C2.79086 23 1 21.2091 1 19V15H3V19C3 20.1046 3.89543 21 5 21H9V23H5Z" fill="black"/>
<path d="M23 19C23 21.2091 21.2091 23 19 23H15V21H19C20.1046 21 21 20.1046 21 19V15H23V19Z" fill="black"/>
<path fill-rule="evenodd" clip-rule="evenodd" d="M17 12C17 14.7614 14.7614 17 12 17C9.23858 17 7 14.7614 7 12C7 9.23858 9.23858 7 12 7C14.7614 7 17 9.23858 17 12ZM15 12C15 13.6569 13.6569 15 12 15C10.3431 15 9 13.6569 9 12C9 10.3431 10.3431 9 12 9C13.6569 9 15 10.3431 15 12Z" fill="black"/>
</svg>
