<svg width="24" height="24" viewBox="0 0 24 24" fill="none" xmlns="http://www.w3.org/2000/svg">
<path d="M5.15007 0.000778173H5.85005L5.95128 0.435183C6.25379 1.73332 7.2674 2.74694 8.56554 3.04944L8.99995 3.15067V3.85065L8.56554 3.95188C7.2674 4.25439 6.25379 5.268 5.95128 6.56614L5.85005 7.00055H5.15007L5.04884 6.56614C4.74634 5.268 3.73272 4.25439 2.43458 3.95188L2.00018 3.85065V3.15067L2.43458 3.04944C3.73272 2.74694 4.74634 1.73332 5.04884 0.435182L5.15007 0.000778173Z" fill="black"/>
<path d="M22.9992 15.4995C22.9992 16.3279 22.3276 16.9994 21.4992 16.9994C20.6708 16.9994 19.9993 16.3279 19.9993 15.4995C19.9993 14.6711 20.6708 13.9995 21.4992 13.9995C22.3276 13.9995 22.9992 14.6711 22.9992 15.4995Z" fill="black"/>
<path d="M19.2996 18.0002H18.6996L18.6129 18.3725C18.3536 19.4852 17.4848 20.354 16.3721 20.6133L15.9997 20.7001V21.3001L16.3721 21.3868C17.4848 21.6461 18.3536 22.5149 18.6129 23.6276L18.6996 24H19.2996L19.3864 23.6276C19.6457 22.5149 20.5145 21.6461 21.6272 21.3868L21.9995 21.3001V20.7001L21.6272 20.6133C20.5145 20.354 19.6457 19.4852 19.3864 18.3725L19.2996 18.0002Z" fill="black"/>
<path fill-rule="evenodd" clip-rule="evenodd" d="M11.8186 21.5955L21.7924 11.6217C22.964 10.4502 22.964 8.55075 21.7924 7.37921L16.621 2.20781C15.4495 1.03628 13.55 1.03628 12.3785 2.20781L2.00018 12.5861C1.35991 13.2264 1.00021 14.0948 1.00021 15.0003C1.00021 15.9058 1.35991 16.7741 2.00018 17.4144L6.58581 22.0001C7.22608 22.6403 8.09447 23 8.99995 23C9.90542 23 10.7738 22.6403 11.4141 22.0001L11.7072 21.7069L11.7932 21.6213C11.8017 21.6127 11.8102 21.6041 11.8186 21.5955ZM10.3935 20.1923L9.99991 20.5859C9.73471 20.8511 9.37501 21.0001 8.99995 21.0001C8.62489 21.0001 8.26519 20.8511 7.99998 20.5859L3.41434 16.0002C3.14914 15.735 3.00014 15.3753 3.00014 15.0003C3.00014 14.6252 3.14914 14.2655 3.41434 14.0003L3.70768 13.707L3.79348 13.6219C4.18399 13.2313 4.81721 13.2313 5.20774 13.6219L10.3788 18.7932C10.7643 19.1787 10.7692 19.8007 10.3935 20.1923ZM12.3792 18.2066L20.3782 10.2075C20.7688 9.81704 20.7688 9.18389 20.3782 8.79338L15.2068 3.62198C14.8163 3.23147 14.1832 3.23147 13.7927 3.62198L5.79361 11.6211C6.09315 11.7641 6.37387 11.9596 6.62195 12.2077L11.793 17.3791C12.0408 17.6269 12.2362 17.9073 12.3792 18.2066Z" fill="black"/>
</svg>
