<svg width="24" height="24" viewBox="0 0 24 24" fill="none" xmlns="http://www.w3.org/2000/svg">
<path fill-rule="evenodd" clip-rule="evenodd" d="M12 18C14.7614 18 17 15.7614 17 13C17 10.2386 14.7614 8 12 8C9.23858 8 7 10.2386 7 13C7 15.7614 9.23858 18 12 18ZM12 16C13.6569 16 15 14.6569 15 13C15 11.3431 13.6569 10 12 10C10.3431 10 9 11.3431 9 13C9 14.6569 10.3431 16 12 16Z" fill="black"/>
<path d="M19 10C19.5523 10 20 9.55229 20 9C20 8.44771 19.5523 8 19 8C18.4477 8 18 8.44771 18 9C18 9.55229 18.4477 10 19 10Z" fill="black"/>
<path fill-rule="evenodd" clip-rule="evenodd" d="M16.9472 1.65836C16.439 0.642007 15.4002 0 14.2639 0H9.73607C8.59975 0 7.56096 0.642007 7.05279 1.65836L5.88197 4H4C1.79086 4 0 5.79086 0 8V18C0 20.2091 1.79086 22 4 22H20C22.2091 22 24 20.2091 24 18V8C24 5.79086 22.2091 4 20 4H18.118L16.9472 1.65836ZM14.2639 2C14.6427 2 14.989 2.214 15.1584 2.55279L16.882 6H20C21.1046 6 22 6.89543 22 8V18C22 19.1046 21.1046 20 20 20H4C2.89543 20 2 19.1046 2 18V8C2 6.89543 2.89543 6 4 6H7.11803L8.84164 2.55279C9.01103 2.214 9.3573 2 9.73607 2H14.2639Z" fill="black"/>
</svg>
