<svg width="24" height="24" viewBox="0 0 24 24" fill="none" xmlns="http://www.w3.org/2000/svg">
<path fill-rule="evenodd" clip-rule="evenodd" d="M4.6023 22.7289C6.18705 22.8423 8.35355 22.9608 10.78 22.9921C10.8527 22.9973 10.926 23 11 23H13C13.074 23 13.1473 22.9973 13.22 22.9921C15.6465 22.9608 17.813 22.8423 19.3977 22.7289C21.4652 22.581 23 20.8484 23 18.8149V10.3472C23 9.20465 22.5114 8.11663 21.6575 7.35756L14.4118 0.916955C13.7473 0.326277 12.8891 0 12 0C11.1109 0 10.2527 0.326277 9.58823 0.916955L2.34254 7.35756C1.48859 8.11663 1 9.20465 1 10.3472V18.8149C1 20.8484 2.53481 22.581 4.6023 22.7289ZM12 2C11.6007 2 11.2154 2.14652 10.917 2.41177L3.67127 8.85238C3.2443 9.23191 3 9.77592 3 10.3472V18.8149C3 19.8387 3.76297 20.6638 4.74498 20.734C5.65615 20.7992 6.76242 20.866 8 20.9164V16C8 13.7909 9.79086 12 12 12C14.2091 12 16 13.7909 16 16V20.9164C17.2376 20.866 18.3438 20.7992 19.255 20.734C20.237 20.6638 21 19.8387 21 18.8149V10.3472C21 9.77592 20.7557 9.23191 20.3287 8.85238L13.083 2.41177C12.7846 2.14652 12.3993 2 12 2ZM14 20V16C14 14.8954 13.1046 14 12 14C10.8954 14 10 14.8954 10 16V20C10 20.5126 10.3856 20.9351 10.8826 20.9932C11.2496 20.9976 11.6224 21 12 21C12.3776 21 12.7504 20.9976 13.1174 20.9932C13.6144 20.9351 14 20.5126 14 20Z" fill="black"/>
</svg>
