<svg width="24" height="24" viewBox="0 0 24 24" fill="none" xmlns="http://www.w3.org/2000/svg">
<path fill-rule="evenodd" clip-rule="evenodd" d="M12 11C15.0376 11 17.5 8.53757 17.5 5.5C17.5 2.46243 15.0376 0 12 0C8.96243 0 6.5 2.46243 6.5 5.5C6.5 8.53757 8.96243 11 12 11ZM12 9C13.933 9 15.5 7.433 15.5 5.5C15.5 3.567 13.933 2 12 2C10.067 2 8.5 3.567 8.5 5.5C8.5 7.433 10.067 9 12 9Z" fill="black"/>
<path d="M2 22C2 16.4772 6.47715 12 12 12C13.3775 12 14.6924 12.2791 15.8892 12.7848L15.1108 14.6271C14.1559 14.2236 13.1053 14 12 14C7.92038 14 4.55399 17.0537 4.06189 21H12V23H3C2.44772 23 2 22.5523 2 22Z" fill="black"/>
<path d="M20 24H18V20H14V18H18V14H20V18H24V20H20V24Z" fill="black"/>
</svg>
