<svg xmlns="http://www.w3.org/2000/svg" width="24" height="24"><path d="M22 20a4 4 0 0 1-4 4H6a4 4 0 0 1-4-4V7.24a4 4 0 0 1 1.17-2.83L7.1.5A1.7 1.7 0 0 1 10 1.7V4a4 4 0 0 1-4 4H5a1 1 0 0 0-1 1v11c0 1.1.9 2 2 2h12a2 2 0 0 0 2-2V4a2 2 0 0 0-2-2h-6V0h6a4 4 0 0 1 4 4zM8 4V2.41L4.59 5.83 4.43 6H6a2 2 0 0 0 2-2m3.33 11.83c0-1.04.4-1.65 1.28-2.26l.22-.16c.64-.43.87-.73.87-1.18 0-.59-.48-.95-1.24-.95-.88 0-1.41.5-1.5 1.5l-1.82-.36c.14-1.74 1.4-2.77 3.38-2.77 1.96 0 3.13.85 3.13 2.34 0 .87-.33 1.64-1.38 2.36l-.22.15c-.78.52-.96.8-.96 1.47v.1h-1.76zm.94 1.01c.64 0 1.1.48 1.1 1.12s-.46 1.1-1.1 1.1-1.1-.46-1.1-1.1.46-1.12 1.1-1.12"/></svg>