<svg width="24" height="24" viewBox="0 0 24 24" fill="none" xmlns="http://www.w3.org/2000/svg">
<path d="M5 1C2.79086 1 1 2.79086 1 5V9H3V5C3 3.89543 3.89543 3 5 3H9V1H5Z" fill="black"/>
<path d="M15 3H19C20.1046 3 21 3.89543 21 5V9H23V5C23 2.79086 21.2091 1 19 1H15V3Z" fill="black"/>
<path d="M23 15H21V19C21 20.1046 20.1046 21 19 21H15V23H19C21.2091 23 23 21.2091 23 19V15Z" fill="black"/>
<path fill-rule="evenodd" clip-rule="evenodd" d="M12.0099 21.4418C11.5844 22.0418 10.9135 22.3636 10.2263 22.3636C9.79539 22.3636 9.35904 22.2382 8.98269 21.9709L5 19.3145L4.31691 19.7828C4.74035 20.2306 5 20.835 5 21.5C5 22.8807 3.88071 24 2.5 24C1.11929 24 0 22.8807 0 21.5C0 20.573 0.504556 19.7638 1.25403 19.3321L3.25561 18L1.25411 16.6679C0.504593 16.2362 0 15.427 0 14.5C0 13.1193 1.11929 12 2.5 12C3.88071 12 5 13.1193 5 14.5C5 15.165 4.74036 15.7694 4.31691 16.2172L5 16.6854L8.97724 14.0291C9.35904 13.7673 9.78994 13.6364 10.2208 13.6364C10.9081 13.6364 11.579 13.9582 12.0044 14.5582L7 18L12.0099 21.4418ZM2.5 22.5C3.05228 22.5 3.5 22.0523 3.5 21.5C3.5 20.9477 3.05228 20.5 2.5 20.5C1.94772 20.5 1.5 20.9477 1.5 21.5C1.5 22.0523 1.94772 22.5 2.5 22.5ZM3.5 14.5C3.5 15.0523 3.05228 15.5 2.5 15.5C1.94772 15.5 1.5 15.0523 1.5 14.5C1.5 13.9477 1.94772 13.5 2.5 13.5C3.05228 13.5 3.5 13.9477 3.5 14.5Z" fill="black"/>
</svg>
