<svg xmlns="http://www.w3.org/2000/svg" width="24" height="24"><path d="M4.98 15.26 4.01 18H1.43L6.07 6.01h2.74L13.45 18h-2.58l-.97-2.74zm2.45-6.85-1.68 4.73h3.38zm14.83 7.63.63 1.36c-.4.51-.95.84-1.79.84A1.9 1.9 0 0 1 19.3 17c-.4.8-1.24 1.24-2.3 1.24-1.66 0-2.83-1.02-2.83-2.4 0-1.34.76-2.1 2.33-2.53.75-.2 1.73-.36 2.67-.46v-.09c0-.73-.5-1.2-1.35-1.2q-1.27 0-1.56 1.08l-1.97-.81c.44-1.33 1.78-2.14 3.64-2.14 2.24 0 3.53 1 3.53 2.95v3.1q0 .46.4.47.2.02.4-.17m-4.6.41c.9 0 1.5-.64 1.5-1.48v-.6a10 10 0 0 0-1.71.3c-.6.17-.88.44-.88.9 0 .5.37.88 1.08.88"/></svg>