<svg width="24" height="24" viewBox="0 0 24 24" fill="none" xmlns="http://www.w3.org/2000/svg">
<path fill-rule="evenodd" clip-rule="evenodd" d="M12 24C5.37258 24 0 18.6274 0 12C0 5.37258 5.37258 0 12 0C18.6274 0 24 5.37258 24 12C24 18.6274 18.6274 24 12 24ZM11 13V21.9506C6.27558 21.4816 2.51844 17.7244 2.04938 13H11ZM13 13V21.9506C17.7244 21.4816 21.4816 17.7244 21.9506 13H13ZM21.9506 11H13V2.04938C17.7244 2.51844 21.4816 6.27558 21.9506 11ZM11 11H2.04938C2.51844 6.27558 6.27558 2.51844 11 2.04938V11Z" fill="black"/>
</svg>
