<svg width="24" height="24" viewBox="0 0 24 24" fill="none" xmlns="http://www.w3.org/2000/svg">
<path fill-rule="evenodd" clip-rule="evenodd" d="M12.7507 0.325111C14.2668 1.98851 21 9.67551 21 15C21 20.5228 16.9706 24 12 24C7.02944 24 3 20.5228 3 15C3 9.67551 9.73317 1.98851 11.2493 0.325113C11.4428 0.112762 11.7127 0 12 0C12.2873 0 12.5572 0.112762 12.7507 0.325111ZM12 2.49121C12.9495 3.58477 14.4218 5.37223 15.7824 7.40288C16.679 8.74114 17.5005 10.146 18.0922 11.497C18.6932 12.8692 19 14.0582 19 15C19 19.3375 15.9485 22 12 22C8.05148 22 5 19.3375 5 15C5 14.0582 5.30679 12.8692 5.90775 11.497C6.49945 10.146 7.32101 8.74114 8.21764 7.40288C9.57817 5.37223 11.0505 3.58477 12 2.49121Z" fill="black"/>
</svg>
