<svg width="24" height="24" viewBox="0 0 24 24" fill="none" xmlns="http://www.w3.org/2000/svg">
<path fill-rule="evenodd" clip-rule="evenodd" d="M0.436714 7.27754C0.183084 5.37532 1.31614 3.56101 3.13671 2.95416L11.051 0.31606C11.6668 0.110793 12.3326 0.110793 12.9484 0.316059L20.8627 2.95416C22.6832 3.56101 23.8163 5.37532 23.5627 7.27754L22.8191 12.8543C22.3051 16.7093 19.9548 20.0761 16.5133 21.8874L12.9421 23.767C12.6515 23.9199 12.3281 23.9998 11.9997 23.9998C11.6713 23.9998 11.3478 23.9199 11.0572 23.767L7.48607 21.8874C4.04457 20.0761 1.69428 16.7093 1.18029 12.8543L0.436714 7.27754ZM21.5802 7.01322L20.8366 12.59C20.4083 15.8025 18.4497 18.6081 15.5818 20.1176L12.9997 21.4766V2.44135L20.2302 4.85152C21.1405 5.15495 21.707 6.0621 21.5802 7.01322ZM10.9997 2.44135V21.4766L8.41756 20.1176C5.54965 18.6081 3.59107 15.8025 3.16274 12.59L2.41917 7.01321C2.29235 6.0621 2.85888 5.15495 3.76917 4.85152L10.9997 2.44135Z" fill="black"/>
</svg>
