<svg width="24" height="24" viewBox="0 0 24 24" fill="none" xmlns="http://www.w3.org/2000/svg">
<path fill-rule="evenodd" clip-rule="evenodd" d="M16.6213 2.20711C15.4497 1.03554 13.5503 1.03554 12.3787 2.20711L2 12.5858C1.35971 13.2261 1 14.0945 1 15C1 15.9055 1.35971 16.7739 2 17.4142L6.58579 22C7.22608 22.6403 8.09449 23 9 23L22 23V21L12.4142 21L21.7929 11.6213C22.9645 10.4498 22.9645 8.55026 21.7929 7.37868L16.6213 2.20711ZM12.3792 18.2066L20.3787 10.2071C20.7692 9.81659 20.7692 9.18342 20.3787 8.7929L15.2071 3.62132C14.8166 3.2308 14.1834 3.2308 13.7929 3.62132L5.79345 11.6208C6.09292 11.7638 6.37357 11.9593 6.6216 12.2074L11.7928 17.3789C12.0407 17.6268 12.2362 17.9073 12.3792 18.2066ZM3.7074 13.7068L3.41421 14C3.149 14.2652 3 14.6249 3 15C3 15.3751 3.149 15.7348 3.41421 16L8 20.5858C8.26522 20.851 8.62493 21 9 21C9.37507 21 9.73478 20.851 10 20.5858L10.3786 20.2071C10.7691 19.8166 10.769 19.1835 10.3786 18.793L5.20735 13.6215C4.8168 13.231 4.18356 13.231 3.79304 13.6216L3.7074 13.7068Z" fill="black"/>
</svg>
