<svg width="24" height="24" viewBox="0 0 24 24" fill="none" xmlns="http://www.w3.org/2000/svg">
<path fill-rule="evenodd" clip-rule="evenodd" d="M12 11C15.0376 11 17.5 8.53757 17.5 5.5C17.5 2.46243 15.0376 0 12 0C8.96243 0 6.5 2.46243 6.5 5.5C6.5 8.53757 8.96243 11 12 11ZM12 9C13.933 9 15.5 7.433 15.5 5.5C15.5 3.567 13.933 2 12 2C10.067 2 8.5 3.567 8.5 5.5C8.5 7.433 10.067 9 12 9Z" fill="black"/>
<path d="M2 22C2 16.4772 6.47715 12 12 12C12.3748 12 12.7451 12.0207 13.1099 12.061L12.8901 14.0489C12.5982 14.0166 12.3012 14 12 14C7.92038 14 4.55399 17.0537 4.06189 21H12V23H3C2.44772 23 2 22.5523 2 22Z" fill="black"/>
<path fill-rule="evenodd" clip-rule="evenodd" d="M18 22C18.7418 22 19.4365 21.7981 20.032 21.4462L22.2929 23.7071L23.7071 22.2929L21.4462 20.032C21.7981 19.4365 22 18.7418 22 18C22 15.7909 20.2091 14 18 14C15.7909 14 14 15.7909 14 18C14 20.2091 15.7909 22 18 22ZM18 20C19.1046 20 20 19.1046 20 18C20 16.8954 19.1046 16 18 16C16.8954 16 16 16.8954 16 18C16 19.1046 16.8954 20 18 20Z" fill="black"/>
</svg>
