<svg width="24" height="24" viewBox="0 0 24 24" fill="none" xmlns="http://www.w3.org/2000/svg">
<path fill-rule="evenodd" clip-rule="evenodd" d="M4 3C1.79086 3 0 4.79086 0 7V17C0 19.2091 1.79086 21 4 21H20C22.2091 21 24 19.2091 24 17V7C24 4.79086 22.2091 3 20 3H4ZM3.70294 11.764C3.70294 14.416 5.52694 16.168 8.08294 16.168C9.82294 16.168 11.2029 15.4 11.7429 13.948L10.1589 13.144C9.78694 14.14 9.00694 14.524 8.07094 14.524C6.48694 14.524 5.45494 13.432 5.45494 11.764C5.45494 10.096 6.47494 9.016 8.05894 9.016C9.07894 9.016 9.79894 9.46 10.1469 10.396L11.7429 9.58C11.2029 8.128 9.82294 7.372 8.07094 7.372C5.49094 7.372 3.70294 9.124 3.70294 11.764ZM12.3748 11.764C12.3748 14.416 14.1988 16.168 16.7548 16.168C18.4948 16.168 19.8748 15.4 20.4148 13.948L18.8308 13.144C18.4588 14.14 17.6788 14.524 16.7428 14.524C15.1588 14.524 14.1268 13.432 14.1268 11.764C14.1268 10.096 15.1468 9.016 16.7308 9.016C17.7508 9.016 18.4708 9.46 18.8188 10.396L20.4148 9.58C19.8748 8.128 18.4948 7.372 16.7428 7.372C14.1628 7.372 12.3748 9.124 12.3748 11.764Z" fill="black"/>
</svg>
