<svg width="24" height="24" viewBox="0 0 24 24" fill="none" xmlns="http://www.w3.org/2000/svg">
<path d="M21.6617 14.5888C21.8823 13.7631 22 12.8953 22 12C22 6.47715 17.5228 2 12 2C6.47715 2 2 6.47715 2 12C2 16.6276 5.14324 20.521 9.41117 21.6617L8.8934 23.594C3.77189 22.2251 0 17.5531 0 12C0 5.37258 5.37258 0 12 0C18.6274 0 24 5.37258 24 12C24 13.0744 23.8588 14.1157 23.594 15.1066L21.6617 14.5888Z" fill="black"/>
<path d="M13.4142 14.1213C12.4379 15.0977 10.855 15.0977 9.87868 14.1213C8.90237 13.145 8.90237 11.5621 9.87868 10.5858C11.1815 9.28301 14.4045 7.98021 16.0099 7.385C16.3962 7.24177 16.7583 7.60379 16.615 7.99012C16.0198 9.59548 14.717 12.8185 13.4142 14.1213Z" fill="black"/>
<path d="M14.4181 21.487L15.7601 20.761C16.8161 20.189 17.4431 19.353 17.4431 18.319C17.4431 16.812 16.4201 15.921 14.6161 15.921C12.9001 15.921 11.7561 16.823 11.6681 18.308L13.2961 18.715C13.3621 17.846 13.8241 17.329 14.6271 17.329C15.3311 17.329 15.7821 17.758 15.7821 18.396C15.7821 18.924 15.4521 19.276 14.9791 19.518L13.5381 20.255C12.3721 20.849 11.6901 21.828 11.6901 23.181C11.6901 23.368 11.7011 23.643 11.7451 23.83H17.3991V22.323H13.5821C13.6701 22.015 13.9121 21.762 14.4181 21.487Z" fill="black"/>
<path d="M23.8811 23.83L21.9231 21.124L23.7161 18.605H21.9561L20.9881 20.09L20.0531 18.605H18.2821L20.0421 21.08L18.0621 23.83H19.8331L20.9881 22.092L22.1211 23.83H23.8811Z" fill="black"/>
</svg>
