<svg width="24" height="24" viewBox="0 0 24 24" fill="none" xmlns="http://www.w3.org/2000/svg">
<path d="M13 10H16.0793C16.8884 10 17.3625 10.9107 16.8986 11.5735L11.1755 19.7493C11.0655 19.9064 10.8858 20 10.6939 20C10.3307 20 10.0544 19.6738 10.1141 19.3155L11 14H7.84269C7.04925 14 6.57183 13.1203 7.00424 12.455L12.3185 4.27924C12.4317 4.10508 12.6253 4 12.833 4C13.1921 4 13.4744 4.30686 13.4446 4.66465L13 10Z" fill="black"/>
<path fill-rule="evenodd" clip-rule="evenodd" d="M24 12C24 18.6274 18.6274 24 12 24C5.37258 24 0 18.6274 0 12C0 5.37258 5.37258 0 12 0C18.6274 0 24 5.37258 24 12ZM22 12C22 17.5228 17.5228 22 12 22C6.47715 22 2 17.5228 2 12C2 6.47715 6.47715 2 12 2C17.5228 2 22 6.47715 22 12Z" fill="black"/>
</svg>
