<svg width="24" height="24" viewBox="0 0 24 24" fill="none" xmlns="http://www.w3.org/2000/svg">
<path d="M14.0395 8.45718L13.1845 13.0171C13.0777 13.587 12.5801 14 12.0003 14C11.4204 14 10.9228 13.587 10.816 13.0171L9.96097 8.45718C9.72156 7.18031 10.7011 6 12.0003 6C13.2994 6 14.2789 7.18031 14.0395 8.45718Z" fill="black"/>
<path d="M13.5003 16.5C13.5003 17.3284 12.8287 18 12.0003 18C11.1718 18 10.5003 17.3284 10.5003 16.5C10.5003 15.6716 11.1718 15 12.0003 15C12.8287 15 13.5003 15.6716 13.5003 16.5Z" fill="black"/>
<path fill-rule="evenodd" clip-rule="evenodd" d="M12 23.5C13.7956 23.5 15.4951 23.0885 17.0093 22.3546L20.6863 23.0035C22.0536 23.2448 23.2448 22.0536 23.0035 20.6863L22.3546 17.0093C23.0885 15.4951 23.5 13.7956 23.5 12C23.5 5.64873 18.3513 0.5 12 0.5C5.64873 0.5 0.5 5.64873 0.5 12C0.5 18.3513 5.64873 23.5 12 23.5ZM20.5548 16.137L20.2725 16.7195L21.0339 21.0339L16.7195 20.2725L16.137 20.5548C14.8888 21.1598 13.487 21.5 12 21.5C6.75329 21.5 2.5 17.2467 2.5 12C2.5 6.75329 6.75329 2.5 12 2.5C17.2467 2.5 21.5 6.75329 21.5 12C21.5 13.487 21.1598 14.8888 20.5548 16.137Z" fill="black"/>
</svg>
