<svg xmlns="http://www.w3.org/2000/svg" width="24" height="24"><path d="M7.54 23.15q-.2-2.05.26-3.93L9 14.04a7 7 0 0 1-.35-2.07c0-1.68.81-2.88 2.09-2.88.88 0 1.53.62 1.53 1.8q0 .57-.23 1.28l-.52 1.72q-.15.5-.15.92c0 1.2.91 1.87 2.08 1.87 2.09 0 3.57-2.16 3.57-4.96 0-3.12-2.04-5.12-5.05-5.12-3.36 0-5.49 2.19-5.49 5.24 0 1.22.38 2.36 1.11 3.14-.24.41-.5.48-.88.48-1.2 0-2.34-1.69-2.34-4 0-4 3.2-7.17 7.68-7.17 4.7 0 7.66 3.29 7.66 7.33s-2.88 7.15-5.98 7.15a3.8 3.8 0 0 1-3.06-1.48l-.62 2.5a11 11 0 0 1-1.62 3.67 12 12 0 1 0-.89-.31"/></svg>