<svg width="24" height="24" viewBox="0 0 24 24" fill="none" xmlns="http://www.w3.org/2000/svg">
<path d="M14.0395 8.45718L13.1845 13.0171C13.0777 13.587 12.5801 14 12.0003 14C11.4204 14 10.9228 13.587 10.816 13.0171L9.96097 8.45718C9.72156 7.18031 10.7011 6 12.0003 6C13.2994 6 14.2789 7.18031 14.0395 8.45718Z" fill="black"/>
<path d="M13.5003 16.5C13.5003 17.3284 12.8287 18 12.0003 18C11.1718 18 10.5003 17.3284 10.5003 16.5C10.5003 15.6716 11.1718 15 12.0003 15C12.8287 15 13.5003 15.6716 13.5003 16.5Z" fill="black"/>
<path fill-rule="evenodd" clip-rule="evenodd" d="M9.25021 1.139C10.7689 -0.379669 13.2311 -0.379666 14.7498 1.139L22.861 9.25021C24.3797 10.7689 24.3797 13.2311 22.861 14.7498L14.7498 22.861C13.2311 24.3797 10.7689 24.3797 9.2502 22.861L1.139 14.7498C-0.379669 13.2311 -0.379666 10.7689 1.139 9.2502L9.25021 1.139ZM13.3356 2.55322L21.4468 10.6644C22.1844 11.402 22.1844 12.598 21.4468 13.3356L13.3356 21.4468C12.598 22.1844 11.402 22.1844 10.6644 21.4468L2.55321 13.3356C1.8156 12.598 1.81559 11.402 2.55322 10.6644L10.6644 2.55321C11.402 1.8156 12.598 1.81559 13.3356 2.55322Z" fill="black"/>
</svg>
