<svg width="24" height="24" viewBox="0 0 24 24" fill="none" xmlns="http://www.w3.org/2000/svg">
<path d="M20.5148 11.2356L18.2986 14.0563L16.8742 12.6319L18.9422 10H14.2423L12.1812 7.93889L13.0598 3.2532L10.6751 6.43278L9.24651 5.00421L12.5237 0.634615C12.8233 0.235117 13.2936 0 13.7929 0C14.7863 0 15.5354 0.90254 15.3523 1.87892L14.2046 8H18.9422C20.6111 8 21.5459 9.92339 20.5148 11.2356Z" fill="black"/>
<path d="M10.6383 20.5686L11.7758 16.0187L9.75702 14H4.99966L7.03853 11.2815L5.60996 9.85294L3.39966 12.8C2.41081 14.1185 3.35157 16 4.99966 16H9.71888L8.20533 22.0542C7.95824 23.0426 8.70578 24 9.72457 24C10.2051 24 10.659 23.7794 10.9559 23.4015L14.5651 18.8081L13.1407 17.3837L10.6383 20.5686Z" fill="black"/>
<path d="M0.292908 1.70711L22.2929 23.7071L23.7071 22.2929L1.70712 0.292893L0.292908 1.70711Z" fill="black"/>
</svg>
