<svg xmlns="http://www.w3.org/2000/svg" width="24" height="24"><path d="M5.64 7H4a4 4 0 0 0-4 4v2a4 4 0 0 0 4 4h1.64a5 5 0 0 0 .52.75l3.47 4.17a3 3 0 0 0 2.3 1.08H13a2 2 0 0 0 2-2V3a2 2 0 0 0-2-2h-1.06a3 3 0 0 0-2.3 1.08L6.15 6.25a5 5 0 0 0-.52.75m5.53-3.64a1 1 0 0 1 .77-.36H13v18h-1.06a1 1 0 0 1-.77-.36L7.7 16.47a3 3 0 0 1-.7-1.92v-5.1a3 3 0 0 1 .7-1.92zM4 9a1 1 0 0 1 1 1v4a1 1 0 0 1-1 1 2 2 0 0 1-2-2v-2c0-1.1.9-2 2-2m12.3.7 2.29 2.3-2.3 2.3 1.42 1.4L20 13.42l2.3 2.3 1.4-1.42-2.28-2.3 2.3-2.3-1.42-1.4-2.3 2.28-2.3-2.3z"/></svg>