<svg width="24" height="24" viewBox="0 0 24 24" fill="none" xmlns="http://www.w3.org/2000/svg">
<path d="M21.6617 14.5888C21.8823 13.7631 22 12.8953 22 12C22 6.47715 17.5228 2 12 2C6.47715 2 2 6.47715 2 12C2 15.7011 4.01062 18.9325 6.99917 20.6617L5.999 22.394C2.41274 20.319 0 16.4413 0 12C0 5.37258 5.37258 0 12 0C18.6274 0 24 5.37258 24 12C24 13.0744 23.8588 14.1157 23.594 15.1066L21.6617 14.5888Z" fill="black"/>
<path d="M13.4142 14.1213C12.4379 15.0977 10.855 15.0977 9.87868 14.1213C8.90237 13.145 8.90237 11.5621 9.87868 10.5858C11.1815 9.28301 14.4045 7.98021 16.0099 7.385C16.3962 7.24177 16.7583 7.60379 16.615 7.99012C16.0198 9.59548 14.717 12.8185 13.4142 14.1213Z" fill="black"/>
<path d="M9.1567 22.95C9.1567 23.489 9.5637 23.885 10.1027 23.885C10.6417 23.885 11.0267 23.489 11.0267 22.95C11.0267 22.411 10.6417 22.004 10.1027 22.004C9.5637 22.004 9.1567 22.411 9.1567 22.95Z" fill="black"/>
<path d="M15.3768 18.957L17.4008 17.472V16.075H12.1428V17.56H15.2558L12.9458 19.155L13.5068 20.288C13.8808 20.057 14.2438 19.958 14.7058 19.958C15.4978 19.958 16.0478 20.475 16.0478 21.234C16.0478 22.048 15.4978 22.554 14.6508 22.554C13.9138 22.554 13.4408 22.191 13.2538 21.476L11.7688 22.136C12.0548 23.313 13.1328 23.984 14.7498 23.984C16.4548 23.984 17.6978 22.884 17.6978 21.366C17.6978 19.892 16.8398 19.012 15.3768 18.957Z" fill="black"/>
<path d="M23.8811 23.83L21.9231 21.124L23.7161 18.605H21.9561L20.9881 20.09L20.0531 18.605H18.2821L20.0421 21.08L18.0621 23.83H19.8331L20.9881 22.092L22.1211 23.83H23.8811Z" fill="black"/>
</svg>
