<svg width="24" height="24" viewBox="0 0 24 24" fill="none" xmlns="http://www.w3.org/2000/svg">
<path fill-rule="evenodd" clip-rule="evenodd" d="M3 4C3 1.79086 4.79086 0 7 0H17C19.2091 0 21 1.79086 21 4V16C21 18.2091 19.2091 20 17 20H7C4.79086 20 3 18.2091 3 16V4ZM7 2H17C18.1046 2 19 2.89543 19 4V16C19 17.1046 18.1046 18 17 18H7C5.89543 18 5 17.1046 5 16V4C5 2.89543 5.89543 2 7 2Z" fill="black"/>
<path d="M4 24H13V22H4V24Z" fill="black"/>
<path d="M20 23C20 23.5523 19.5523 24 19 24C18.4477 24 18 23.5523 18 23C18 22.4477 18.4477 22 19 22C19.5523 22 20 22.4477 20 23Z" fill="black"/>
<path d="M16 24C16.5523 24 17 23.5523 17 23C17 22.4477 16.5523 22 16 22C15.4477 22 15 22.4477 15 23C15 23.5523 15.4477 24 16 24Z" fill="black"/>
</svg>
