<svg width="24" height="24" viewBox="0 0 24 24" fill="none" xmlns="http://www.w3.org/2000/svg">
<path d="M5.85021 0H5.15021L5.04897 0.434418C4.74646 1.7326 3.73281 2.74625 2.43462 3.04877L2.00021 3.15V3.85L2.43462 3.95123C3.73281 4.25375 4.74646 5.2674 5.04897 6.56558L5.15021 7H5.85021L5.95144 6.56558C6.25395 5.2674 7.2676 4.25375 8.56579 3.95123L9.00021 3.85V3.15L8.56579 3.04877C7.2676 2.74625 6.25395 1.7326 5.95144 0.434419L5.85021 0Z" fill="black"/>
<path d="M19.3 18H18.7L18.6132 18.3724C18.3539 19.4851 17.4851 20.3539 16.3724 20.6132L16 20.7V21.3L16.3724 21.3868C17.4851 21.6461 18.3539 22.5149 18.6132 23.6276L18.7 24H19.3L19.3868 23.6276C19.6461 22.5149 20.5149 21.6461 21.6276 21.3868L22 21.3V20.7L21.6276 20.6132C20.5149 20.3539 19.6461 19.4851 19.3868 18.3724L19.3 18Z" fill="black"/>
<path d="M23 15.5C23 16.3284 22.3284 17 21.5 17C20.6716 17 20 16.3284 20 15.5C20 14.6716 20.6716 14 21.5 14C22.3284 14 23 14.6716 23 15.5Z" fill="black"/>
<path fill-rule="evenodd" clip-rule="evenodd" d="M22.5855 3.17112C24.107 4.6926 24.1466 7.13485 22.7042 8.70421L22.7071 8.70711L22.1213 9.29289C22.1084 9.30585 22.0953 9.31867 22.0822 9.33134L9.94257 21.471C9.63657 21.7769 9.23959 21.9754 8.8112 22.0366L3.46111 22.8009C2.14118 22.9895 1.00981 21.8581 1.19837 20.5382L1.96267 15.1881C2.02387 14.7597 2.22236 14.3627 2.52835 14.0567L15.1713 1.41376C15.1863 1.39879 15.2014 1.38396 15.2165 1.36928L15.2929 1.29289L15.2951 1.2951C16.8645 -0.14728 19.3067 -0.107727 20.8282 1.41376L22.5855 3.17112ZM16.1091 4.69468L19.3053 7.8909C19.6891 8.26183 20.2966 8.2651 20.6844 7.90072L21.1713 7.41376C21.9524 6.63271 21.9524 5.36638 21.1713 4.58533L19.414 2.82797C18.6435 2.05752 17.4008 2.04707 16.6176 2.79663L16.1213 3.29289C15.7349 3.6793 15.7308 4.30326 16.1091 4.69468ZM14.7071 6.12132L14.6858 6.09978L13.9998 5.41376L3.94257 15.471L3.17827 20.821L8.52835 20.0567L18.5855 9.99955L17.9002 9.3142L17.8787 9.29289L14.7071 6.12132Z" fill="black"/>
</svg>
