<svg width="24" height="24" viewBox="0 0 24 24" fill="none" xmlns="http://www.w3.org/2000/svg">
<path fill-rule="evenodd" clip-rule="evenodd" d="M1 5C1 2.79086 2.79086 1 5 1H19C21.2091 1 23 2.79086 23 5V19C23 21.2091 21.2091 23 19 23H5C2.79086 23 1 21.2091 1 19V5ZM5 3C3.89543 3 3 3.89543 3 5V6H21V5C21 3.89543 20.1046 3 19 3H5ZM3 16V13H8V16H3ZM3 18V19C3 20.1046 3.89543 21 5 21H8V18H3ZM10 18V21H19C20.1046 21 21 20.1046 21 19V18H10ZM21 16V13H10V16H21ZM8 11H3V8H8V11ZM21 8V11H10V8H21Z" fill="black"/>
</svg>
