<svg width="24" height="24" viewBox="0 0 24 24" fill="none" xmlns="http://www.w3.org/2000/svg">
<path fill-rule="evenodd" clip-rule="evenodd" d="M19.6446 0.620598L19.5 0H18.5L18.3554 0.620598C18.3302 0.728842 18.3015 0.835701 18.2694 0.941054C18.1771 1.24493 18.0569 1.53629 17.9119 1.8122C17.441 2.70797 16.708 3.44103 15.8122 3.91189C15.5363 4.05692 15.2449 4.17708 14.9411 4.26945C14.8357 4.30147 14.7288 4.33016 14.6206 4.35538L14 4.5V5.5L14.6206 5.64462C14.7288 5.66984 14.8357 5.69853 14.9411 5.73055C15.2449 5.82292 15.5363 5.94308 15.8122 6.08811C16.708 6.55897 17.441 7.29203 17.9119 8.1878C18.0569 8.46371 18.1771 8.75507 18.2694 9.05895C18.3015 9.1643 18.3302 9.27116 18.3554 9.3794L18.5 10H19.5L19.6446 9.3794C19.6698 9.27116 19.6985 9.1643 19.7306 9.05895C19.8229 8.75507 19.9431 8.46371 20.0881 8.1878C20.559 7.29203 21.292 6.55897 22.1878 6.08811C22.4637 5.94308 22.7551 5.82292 23.0589 5.73055C23.1643 5.69853 23.2712 5.66984 23.3794 5.64462L24 5.5V4.5L23.3794 4.35538C23.2712 4.33016 23.1643 4.30147 23.0589 4.26945C22.7551 4.17708 22.4637 4.05692 22.1878 3.91189C21.292 3.44103 20.559 2.70797 20.0881 1.8122C19.9431 1.53629 19.8229 1.24493 19.7306 0.941053C19.6985 0.835701 19.6698 0.728842 19.6446 0.620598ZM17.7981 5C18.2459 4.64965 18.6497 4.24592 19 3.79806C19.3503 4.24592 19.7541 4.64965 20.2019 5C19.7541 5.35035 19.3503 5.75408 19 6.20194C18.6497 5.75408 18.2459 5.35035 17.7981 5Z" fill="black"/>
<path fill-rule="evenodd" clip-rule="evenodd" d="M17.2734 12.221L20 13V15L17.2734 15.779C14.6158 16.5383 12.5383 18.6158 11.779 21.2734L11 24H9L8.22098 21.2734C7.46165 18.6158 5.38422 16.5383 2.72656 15.779L0 15V13L2.72656 12.221C5.38422 11.4617 7.46165 9.38422 8.22098 6.72656L9 4H11L11.779 6.72656C12.5383 9.38422 14.6158 11.4617 17.2734 12.221ZM16.2623 14C13.3147 14.9983 10.9983 17.3147 10 20.2623C9.00172 17.3147 6.68535 14.9983 3.73767 14C6.68535 13.0017 9.00172 10.6854 10 7.73767C10.9983 10.6853 13.3147 13.0017 16.2623 14Z" fill="black"/>
</svg>
