<svg xmlns="http://www.w3.org/2000/svg" width="24" height="24"><path d="M5.5 5a.5.5 0 0 0-.5.5v1c0 .28.22.5.5.5h1a.5.5 0 0 0 .5-.5v-1a.5.5 0 0 0-.5-.5zM4 1a3 3 0 0 0-3 3v4a3 3 0 0 0 3 3h4a3 3 0 0 0 3-3V4a3 3 0 0 0-3-3zm5 3v4a1 1 0 0 1-1 1H4a1 1 0 0 1-1-1V4a1 1 0 0 1 1-1h4a1 1 0 0 1 1 1M5 18.5c0 .28.22.5.5.5h1a.5.5 0 0 0 .5-.5v-1a.5.5 0 0 0-.5-.5h-1a.5.5 0 0 0-.5.5zM4 13a3 3 0 0 0-3 3v4a3 3 0 0 0 3 3h4a3 3 0 0 0 3-3v-4a3 3 0 0 0-3-3zm5 3v4a1 1 0 0 1-1 1H4a1 1 0 0 1-1-1v-4a1 1 0 0 1 1-1h4a1 1 0 0 1 1 1m8-9.5c0 .28.22.5.5.5h1a.5.5 0 0 0 .5-.5v-1a.5.5 0 0 0-.5-.5h-1a.5.5 0 0 0-.5.5zM13 8a3 3 0 0 0 3 3h4a3 3 0 0 0 3-3V4a3 3 0 0 0-3-3h-4a3 3 0 0 0-3 3zm3-5h4a1 1 0 0 1 1 1v4a1 1 0 0 1-1 1h-4a1 1 0 0 1-1-1V4a1 1 0 0 1 1-1m2 14h-3v2h5v-4h3v-2h-5zm-5 2v4h5v-2h-3v-2zm10 2h-3v2h3zm-2-2h2v-2h-2zm-5-6h-3v2h3z"/></svg>