<svg xmlns="http://www.w3.org/2000/svg" width="24" height="24"><path d="M21 1.5a1.5 1.5 0 1 1 3 0 1.5 1.5 0 0 1-3 0m-3.4.5h.8l.12.5a4 4 0 0 0 2.99 2.98l.5.12v.8l-.5.12a4 4 0 0 0-3 2.98l-.1.5h-.8l-.12-.5a4 4 0 0 0-3-2.98L14 6.4v-.8l.5-.12a4 4 0 0 0 2.99-2.98zm-5.2 2.08A12.3 12.3 0 0 0 5.53 5.2c-1.85.95-3.06 2.36-3.42 4-.44 2.02.5 4.22 2.58 5.95A5.6 5.6 0 0 1 9.5 12a5 5 0 0 1 3.52 1.5c.9.96 1.34 2.34.82 3.83q-.13.36-.3.66c1.78-.05 3.41-.45 4.76-1.11 1.94-.95 3.21-2.4 3.58-4.07q.29-1.33-.17-2.66l1.9-.64q.62 1.81.23 3.73c-.54 2.43-2.33 4.3-4.66 5.44a14.5 14.5 0 0 1-8.14 1.19c-.97.22-2 .12-2.93-.13A9 9 0 0 1 6.2 19q.09.27.21.52a4 4 0 0 0 1.5 1.62l-1 1.74a6 6 0 0 1-2.29-2.48 5.6 5.6 0 0 1-.55-3.1l-.15-.2C1.13 15-.54 11.94.16 8.76.68 6.4 2.38 4.57 4.6 3.42a14.3 14.3 0 0 1 8-1.33zM6.34 16.35l-.1.3.19.13c.6.43 1.4.82 2.2 1.03.83.22 1.58.24 2.14.06.52-.16.95-.5 1.2-1.2a1.7 1.7 0 0 0-.4-1.8A3 3 0 0 0 9.5 14c-1.22 0-2.64.96-3.16 2.35"/></svg>