<svg xmlns="http://www.w3.org/2000/svg" width="24" height="24"><path d="M13.85 5h-.7l-.1.43a3.5 3.5 0 0 1-2.62 2.62l-.43.1v.7l.43.1a3.5 3.5 0 0 1 2.62 2.62l.1.43h.7l.1-.43a3.5 3.5 0 0 1 2.62-2.62l.43-.1v-.7l-.43-.1a3.5 3.5 0 0 1-2.62-2.62zM9 11.5a1.5 1.5 0 1 0 0 3 1.5 1.5 0 0 0 0-3M19.14 17a10 10 0 1 0-14.28 0H4v1q0 .75-.33 1.56v.02a5 5 0 0 1-1.57 2.05Q1.55 22 1 22v2h22v-2q-.55 0-1.1-.37l-.38-.29a5 5 0 0 1-1.19-1.76v-.02A4 4 0 0 1 20 18v-1zM8.12 17a8 8 0 1 1 7.76 0zM17 19c.52 0 1.14.47 1.47 1.32q.36.9.96 1.68H4.57c.4-.51.72-1.1.96-1.68C5.86 19.47 6.48 19 7 19z"/></svg>