<svg xmlns="http://www.w3.org/2000/svg" width="24" height="24"><path d="M24 12a12 12 0 1 0-24 0 12 12 0 0 0 24 0m-9.55 7.6C13.47 21.54 12.5 22 12 22s-1.47-.45-2.45-2.4A17 17 0 0 1 8.02 13h7.96a17 17 0 0 1-1.53 6.6m1.53-8.6H8.02c.12-2.65.7-4.95 1.53-6.6C10.53 2.46 11.5 2 12 2s1.47.45 2.45 2.4a17 17 0 0 1 1.53 6.6m5.97 2a10 10 0 0 1-6.12 8.24c1.2-2 2.01-4.93 2.15-8.24zm0-2h-3.97c-.14-3.31-.95-6.24-2.15-8.24A10 10 0 0 1 21.95 11m-19.9 0a10 10 0 0 1 6.12-8.24c-1.2 2-2.01 4.93-2.15 8.24zm3.97 2c.14 3.31.95 6.24 2.15 8.24A10 10 0 0 1 2.05 13z"/></svg>