<svg xmlns="http://www.w3.org/2000/svg" width="24" height="24"><path d="M18 4a10 10 0 0 0-16 8H0a12 12 0 0 1 19-9.75V0h2v6h-6V4zM6 20a10 10 0 0 0 16-8h2a12 12 0 0 1-19 9.75V24H3v-6h6v2zm5.33-6.46c0 1.51-1.25 2.61-2.95 2.61-1.62 0-2.7-.67-2.98-1.84l1.48-.66q.29 1.07 1.4 1.07c.85 0 1.4-.5 1.4-1.32 0-.76-.55-1.27-1.34-1.27-.47 0-.83.1-1.2.33l-.56-1.14 2.3-1.59h-3.1V8.24h5.25v1.4l-2.02 1.49c1.46.05 2.32.93 2.32 2.4m4.14-5.3c2.3 0 3.86 1.58 3.86 3.91 0 2.3-1.56 3.85-3.86 3.85h-2.91V8.24zm-.1 6.3c1.43 0 2.36-.94 2.36-2.39 0-1.48-.93-2.45-2.36-2.45H14.1v4.85z"/></svg>