<svg xmlns="http://www.w3.org/2000/svg" width="24" height="24"><path d="M12 7a5 5 0 1 0 0 10 5 5 0 0 0 0-10m3 5a3 3 0 1 1-6 0 3 3 0 0 1 6 0m1.13-10.29A2 2 0 0 0 14.7.31a12 12 0 0 0-5.4 0c-.73.17-1.26.74-1.43 1.4l-.58 2.14-2.14-.57a2 2 0 0 0-1.93.54 12 12 0 0 0-2.7 4.67c-.22.72.01 1.46.5 1.95L2.59 12l-1.57 1.56a2 2 0 0 0-.5 1.95 12 12 0 0 0 2.7 4.68c.51.54 1.27.72 1.93.54l2.14-.58.58 2.14c.17.67.7 1.24 1.43 1.4a12 12 0 0 0 5.4 0 2 2 0 0 0 1.43-1.4l.58-2.14 2.13.58c.67.18 1.43 0 1.94-.55a12 12 0 0 0 2.7-4.67 2 2 0 0 0-.5-1.94L21.4 12l1.57-1.56c.49-.5.71-1.23.5-1.95a12 12 0 0 0-2.7-4.67 2 2 0 0 0-1.93-.54l-2.14.57zm-6.34.54a10 10 0 0 1 4.42 0l.56 2.12a2 2 0 0 0 2.45 1.41l2.13-.57a10 10 0 0 1 2.2 3.83L20 10.59a2 2 0 0 0 0 2.83l1.55 1.55a10 10 0 0 1-2.2 3.82l-2.13-.57a2 2 0 0 0-2.44 1.42l-.57 2.12a10 10 0 0 1-4.42 0l-.57-2.12a2 2 0 0 0-2.45-1.42l-2.12.57a10 10 0 0 1-2.2-3.82L4 13.42a2 2 0 0 0 0-2.83L2.45 9.03a10 10 0 0 1 2.2-3.82l2.13.57a2 2 0 0 0 2.44-1.41z"/></svg>