<svg xmlns="http://www.w3.org/2000/svg" width="24" height="24"><path d="M5.95.43a3.5 3.5 0 0 0 2.62 2.62l.43.1v.7l-.43.1a3.5 3.5 0 0 0-2.62 2.62l-.1.43h-.7l-.1-.43a3.5 3.5 0 0 0-2.62-2.62L2 3.85v-.7l.43-.1A3.5 3.5 0 0 0 5.05.43l.1-.43h.7zM19.4 18.37a3 3 0 0 0 2.24 2.24l.37.09v.6l-.37.09a3 3 0 0 0-2.24 2.24l-.09.37h-.6l-.09-.37a3 3 0 0 0-2.24-2.24L16 21.3v-.6l.37-.09a3 3 0 0 0 2.24-2.24l.09-.37h.6zM23 15.5a1.5 1.5 0 1 1-3 0 1.5 1.5 0 0 1 3 0m-.41-12.33a4 4 0 0 1 .11 5.53l-.58.6-.04.03L9.94 21.47a2 2 0 0 1-1.13.57l-5.35.76a2 2 0 0 1-2.26-2.26l.76-5.35a2 2 0 0 1 .57-1.13L15.17 1.4l.05-.04.07-.08a4 4 0 0 1 5.54.12zM16.1 4.7l3.2 3.2a1 1 0 0 0 1.37.01l.5-.49a2 2 0 0 0 0-2.82L19.4 2.83a2 2 0 0 0-2.8-.03l-.49.5a1 1 0 0 0-.01 1.4m-1.4 1.43-.02-.02-.69-.69L3.94 15.47l-.76 5.35 5.35-.76L18.59 10l-.69-.69-.02-.02z"/></svg>