<svg xmlns="http://www.w3.org/2000/svg" width="24" height="24"><path d="M7.23 3.13A4.6 4.6 0 0 1 11.58 0H12c2.22 0 4.2 1.42 4.9 3.53l.05.15-1.9.64-.05-.16A3.2 3.2 0 0 0 12 2h-.42a2.58 2.58 0 0 0-.96 4.97l5.1 2.04a4.27 4.27 0 0 1 .78 7.52l-.35.24A4.57 4.57 0 0 1 12.42 24H12a5.2 5.2 0 0 1-4.9-3.53l-.05-.15 1.9-.64.05.16A3.2 3.2 0 0 0 12 22h.42a2.58 2.58 0 0 0 .96-4.97l-5.1-2.04a4.27 4.27 0 0 1-.78-7.52l.35-.24a4.6 4.6 0 0 1-.62-4.1m.62 7.2a2.14 2.14 0 0 0 1.18 2.77l4.34 1.76a2.14 2.14 0 1 0 1.6-3.96l-4.34-1.76a2.14 2.14 0 0 0-2.78 1.18"/></svg>