<svg xmlns="http://www.w3.org/2000/svg" width="24" height="24"><path d="M15 12a3 3 0 1 1-6 0 3 3 0 0 1 6 0M14.7.3c.73.18 1.25.74 1.43 1.41l.58 2.14 2.14-.57a2 2 0 0 1 1.93.54 12 12 0 0 1 2.7 4.67c.21.72-.01 1.46-.5 1.95L21.4 12l1.57 1.57c.49.49.72 1.23.5 1.94a12 12 0 0 1-2.7 4.67c-.51.55-1.27.73-1.94.55l-2.13-.58-.58 2.14a1.9 1.9 0 0 1-1.43 1.4 12 12 0 0 1-5.4 0 2 2 0 0 1-1.43-1.4l-.58-2.14-2.14.58c-.66.18-1.42 0-1.93-.54a12 12 0 0 1-2.7-4.68c-.22-.72.01-1.46.5-1.95L2.6 12l-1.57-1.56a2 2 0 0 1-.5-1.95 12 12 0 0 1 2.7-4.67 2 2 0 0 1 1.93-.54l2.14.57.58-2.14c.17-.66.7-1.23 1.43-1.4a12 12 0 0 1 5.4 0M12 7a5 5 0 1 0 0 10 5 5 0 0 0 0-10"/></svg>