<svg xmlns="http://www.w3.org/2000/svg" width="24" height="24"><path d="m5.13 2-.09.14a6.2 6.2 0 0 0 2.72 9.13l1.7.73-1.7.73a6.2 6.2 0 0 0-2.72 9.13l.1.14H3v2h18v-2h-2.13l.09-.14a6.2 6.2 0 0 0-2.72-9.13l-1.7-.73 1.7-.73a6.2 6.2 0 0 0 2.72-9.13l-.1-.14H21V0H3v2zm2.64 7A4.2 4.2 0 0 1 6.7 3.25l.24-.36A2 2 0 0 1 8.61 2h6.78a2 2 0 0 1 1.67.9l.24.35A4.2 4.2 0 0 1 16.23 9zm.84 13a2 2 0 0 1-1.67-.9l-.24-.35a4.2 4.2 0 0 1 1.84-6.18L11 13.52V20h2v-6.48l2.46 1.05a4.2 4.2 0 0 1 1.84 6.18l-.24.36a2 2 0 0 1-1.67.89z"/></svg>