<svg xmlns="http://www.w3.org/2000/svg" width="24" height="24"><path d="m3.07 13 .97-2.74h4.91L9.92 13h2.58L7.86 1.01H5.13L.48 13zM4.8 8.14 6.5 3.4l1.7 4.73zm15.36-1.48V6.6c1.44-.22 2.2-1.24 2.2-2.74 0-1.82-1.47-2.86-3.61-2.86h-4.78v12h4.68C21.4 13 23 11.64 23 9.53c0-1.7-1.14-2.75-2.84-2.87m-1.9-3.54c1.03 0 1.63.48 1.63 1.33s-.65 1.38-1.65 1.38h-1.89v-2.7zm.37 7.77h-2.28V7.83h2.36c1.16 0 1.82.53 1.82 1.46 0 1.04-.71 1.6-1.9 1.6m.96 9.11-1.3 1.3 1.42 1.4 3.7-3.7-3.7-3.7-1.42 1.4 1.3 1.3H4.4l1.3-1.3-1.42-1.4L.6 19l3.7 3.7 1.42-1.4L4.4 20z"/></svg>