<svg xmlns="http://www.w3.org/2000/svg" width="24" height="24"><path d="M11.69 24c-3.57-.02-6.32-1.2-8.16-3.5Q1.05 17.4 1 12v-.02q.05-5.39 2.52-8.48Q6.3.05 11.68 0h.01q4.13.03 6.81 2.1A10 10 0 0 1 22 7.56l-2.03.57c-1.1-3.96-3.9-5.98-8.29-6.01q-4.37.04-6.52 2.72-2 2.5-2.05 7.16.05 4.65 2.05 7.16 2.16 2.69 6.53 2.72c2.61-.02 4.34-.63 5.78-2.04a4.3 4.3 0 0 0 1.09-4.8q-.48-1.07-1.63-1.75a6.6 6.6 0 0 1-1.28 3.27 4.9 4.9 0 0 1-3.72 1.79 5.5 5.5 0 0 1-3.25-.8 3.74 3.74 0 0 1-.42-6.05 6 6 0 0 1 3.57-1.29q1.61-.09 3.01.14a3.5 3.5 0 0 0-.75-1.75q-.76-.88-2.35-.9h-.03c-.84 0-1.98.24-2.71 1.33L7.25 7.85a5.2 5.2 0 0 1 4.46-2.26h.04c3.2.02 5.09 1.98 5.28 5.39l.32.14a6.2 6.2 0 0 1 3.14 3.07 6.4 6.4 0 0 1-1.54 7.16c-1.85 1.81-4.08 2.63-7.26 2.65m1-11.69-.74.02c-1.83.1-2.97.95-2.91 2.14.07 1.26 1.45 1.84 2.78 1.77 1.22-.06 2.8-.54 3.08-3.71q-1.02-.22-2.21-.22"/></svg>