<svg xmlns="http://www.w3.org/2000/svg" width="24" height="24"><path d="M9.82 1H5a4 4 0 0 0-4 4v14a4 4 0 0 0 4 4h7.84l.51.14q-.77-1.06-1.13-2.37l-4.14-1.11a2 2 0 0 1-1.41-2.45l3.62-13.53a2 2 0 0 1 2.45-1.41l7.73 2.07a2 2 0 0 1 1.41 2.45L20.48 12h2.08l1.26-4.7a4 4 0 0 0-2.83-4.9L13.26.35A4 4 0 0 0 9.82 1M8.41 3l-.05.17-3.62 13.52A4 4 0 0 0 6.3 21H5a2 2 0 0 1-2-2V5c0-1.1.9-2 2-2zM24 14h-2v1.09A5 5 0 0 0 18.93 14 4.96 4.96 0 0 0 14 19c0 2.74 2.19 5 4.93 5 1.36 0 2.59-.56 3.48-1.46l-1.42-1.4c-.54.53-1.26.86-2.06.86A2.96 2.96 0 0 1 16 19c0-1.67 1.33-3 2.93-3 .86 0 1.64.38 2.18 1H19v2h5z"/></svg>