<svg xmlns="http://www.w3.org/2000/svg" width="24" height="24"><path d="M9 22.5c0 .83.67 1.5 1.5 1.5h1.34c1.7 0 3.3-1.1 3.71-2.85.23-.96.45-2.14.45-3.15q0-.48-.06-1h2.56a3.5 3.5 0 0 0 3.36-4.48 3.5 3.5 0 0 0 0-4.04 3.5 3.5 0 0 0-.9-3.46A3.5 3.5 0 0 0 17.5 2h-5.16a11 11 0 0 0-2.9.39l-2.91.8a9 9 0 0 1-2.37.31H4a2 2 0 0 0-2 2v5.75a2 2 0 0 0 1.45 1.92l2.1.6a1 1 0 0 1 .54.38L9 18.32zm2-.5v-3.68a2 2 0 0 0-.36-1.15L7.73 13a3 3 0 0 0-1.64-1.17L4 11.24V5.5h.16a11 11 0 0 0 2.9-.39l2.91-.8A9 9 0 0 1 12.34 4h5.16c.83 0 1.5.67 1.5 1.5V6l.4.3a1.5 1.5 0 0 1 .43 1.9l-.37.68.56.52a1.5 1.5 0 0 1 0 2.2l-.56.52.37.68q.16.3.17.7c0 .83-.67 1.5-1.5 1.5h-4.93l.22 1.19c.13.65.21 1.29.21 1.81 0 .77-.18 1.77-.4 2.69-.17.76-.88 1.31-1.76 1.31z"/></svg>