<svg xmlns="http://www.w3.org/2000/svg" width="24" height="24"><path d="M18.7 13.3a1.1 1.1 0 0 1 0-1.6l3.5-3.5a4.54 4.54 0 0 0-6.4-6.4l-3.5 3.5a1.1 1.1 0 0 1-1.6 0l-1-1-1.4 1.4 2.08 2.1a1 1 0 0 1 0 1.4l-5.94 5.95a2 2 0 0 0-.44.67l-.1.23a3.5 3.5 0 1 0 4.05 4.05l.23-.1a2 2 0 0 0 .67-.44l5.94-5.94a1 1 0 0 1 1.42 0l1.08 1.09 1 1 1.42-1.42zm2.1-6.5-3.5 3.5q-.43.42-.65.93l-3.88-3.88q.52-.22.94-.64l3.5-3.5a2.54 2.54 0 0 1 3.58 3.58m-7.42 5.4-5.94 5.95-1.47.58.03.71v.06A1.5 1.5 0 1 1 4.56 18l.7.03.6-1.47 5.93-5.94a3 3 0 0 0 .59-.83l1.83 1.83a3 3 0 0 0-.83.59"/></svg>