<svg xmlns="http://www.w3.org/2000/svg" width="24" height="24"><path d="M2 12a10 10 0 1 1 20 0 3.7 3.7 0 0 1-1.64 2.98c-1.15.78-3.3 1.38-7.04.38a3.3 3.3 0 0 0-2.22.12 2.7 2.7 0 0 0-1.5 1.84 4.7 4.7 0 0 0 .68 3.42q.32.55.64.97l.01.02.16.23A10 10 0 0 1 2 12m10 12c2.48-.65 1.54-2.01.58-3.4l-.58-.88c-.86-1.44-.67-2.82.8-2.43C21.02 19.49 24 15.09 24 12a12 12 0 1 0-12 12m0-17a1.5 1.5 0 1 0 0-3 1.5 1.5 0 0 0 0 3m5.66 1.46a1.5 1.5 0 1 0-2.12-2.12 1.5 1.5 0 0 0 2.12 2.12M5.5 13.5a1.5 1.5 0 1 0 0-3 1.5 1.5 0 0 0 0 3m.84-7.16a1.5 1.5 0 1 0 2.12 2.12 1.5 1.5 0 0 0-2.12-2.12"/></svg>