<svg xmlns="http://www.w3.org/2000/svg" width="24" height="24"><path d="M12 16a1.5 1.5 0 1 0 0 3 1.5 1.5 0 0 0 0-3m1.05-2.52c.18-.3.5-.54 1.05-.91h.01l.42-.3c1.43-.97 2.15-2.26 2.15-3.65a3.3 3.3 0 0 0-1.23-2.67 5.3 5.3 0 0 0-3.3-.95c-1.4 0-2.59.41-3.44 1.15a4 4 0 0 0-1.4 3.03v.18l2.23.39.02-.23q.07-1.2.72-1.8.63-.62 1.83-.63 1.09.01 1.66.48.57.45.58 1.26 0 .64-.27 1.04-.28.41-.97.86l-.48.33a5 5 0 0 0-1.52 1.45c-.34.56-.49 1.2-.49 2v.56h2.19v-.35c0-.6.06-.96.24-1.24M12 24a12 12 0 1 0 0-24 12 12 0 0 0 0 24M2 12a10 10 0 1 1 20 0 10 10 0 0 1-20 0"/></svg>