<svg xmlns="http://www.w3.org/2000/svg" width="24" height="24"><path d="m11.63 18.43.37-.93zl.37.15.37-.15-.37-.93.37.93.03-.01.26-.12a16 16 0 0 0 2.92-1.65c1.53-1.1 3.42-2.9 3.42-5.32v-.22a4.11 4.11 0 0 0-7-2.93 4.11 4.11 0 0 0-7 2.93v.22c0 2.42 1.89 4.23 3.42 5.32a17 17 0 0 0 3.18 1.77zM7 11.1a2.11 2.11 0 0 1 3.68-1.41L12 11.16l1.32-1.46A2.11 2.11 0 0 1 17 11.11v.22c0 1.36-1.11 2.64-2.58 3.69A15 15 0 0 1 12 16.4 15 15 0 0 1 9.58 15C8.11 13.98 7 12.7 7 11.34zm5 12.39c1.8 0 3.5-.41 5-1.15l3.69.65A2 2 0 0 0 23 20.7l-.65-3.7A11.5 11.5 0 1 0 12 23.5m8.55-7.36-.28.58.76 4.31-4.31-.76-.58.28q-1.89.93-4.14.95a9.5 9.5 0 1 1 8.55-5.36"/></svg>