<svg xmlns="http://www.w3.org/2000/svg" width="24" height="24"><path d="M9 0v1.41A11 11 0 0 0 4.45 4H7 1v3q.01.94.51 1.68A11 11 0 0 0 1.18 14h2.04a9 9 0 0 1 .03-4.1 3 3 0 0 0 2.41-.4l3.39 1.95a3 3 0 0 0 0 1.1L6.54 14H1v3a3 3 0 0 0 3.42 2.97q.6.56 1.25 1.03h.67a.5.5 0 0 0 .46-.3l.44-1.06a9 9 0 0 1-.96-.7c.45-.52.72-1.2.72-1.94v-.96l3.05-1.76q.2.16.41.3l-2.87 6.8a1 1 0 0 1-.92.62H5v2h1.67a3 3 0 0 0 2.77-1.84L12 16.08l2.56 6.08A3 3 0 0 0 17.33 24H19v-2h-1.67a1 1 0 0 1-.92-.61l-2.87-6.81q.22-.14.4-.3L17 16.04V17a3 3 0 0 0 .72 1.95q-.46.37-.96.7l.44 1.04a.5.5 0 0 0 .46.31h.67q.66-.47 1.25-1.03L20 20a3 3 0 0 0 3-3v-3h-5.54l-2.51-1.45a3 3 0 0 0 0-1.1l3.39-1.95a3 3 0 0 0 2.41.4 9 9 0 0 1 .03 4.1h2.04a11 11 0 0 0-.33-5.32q.5-.74.51-1.68V4h-6 2.55A11 11 0 0 0 15 1.41V0zm4 3a1 1 0 1 1-2 0V2h2zM7 7V4.52A9 9 0 0 1 9.04 3.5 3 3 0 0 0 11 5.83v3.34a3 3 0 0 0-.95.55L6.87 7.88A3 3 0 0 0 7 7m10 0q0 .45.13.88l-3.18 1.84a3 3 0 0 0-.95-.55V5.83a3 3 0 0 0 1.96-2.33q1.1.38 2.04 1.02zm-4 5a1 1 0 1 1-2 0 1 1 0 0 1 2 0m6-5V6h2v1a1 1 0 1 1-2 0m2 10a1 1 0 1 1-2 0v-1h2zM3 17v-1h2v1a1 1 0 1 1-2 0M5 7a1 1 0 0 1-2 0V6h2zm7.97 13.95a9 9 0 0 1-1.94 0l-.54 1.3-.31.6a11 11 0 0 0 3.64 0q-.18-.3-.3-.6z"/></svg>