<svg xmlns="http://www.w3.org/2000/svg" width="24" height="24"><path d="M8.5 6C7.67 6 7 7.12 7 8.5S7.67 11 8.5 11 10 9.88 10 8.5 9.33 6 8.5 6m7 5c.83 0 1.5-1.12 1.5-2.5S16.33 6 15.5 6 14 7.12 14 8.5s.67 2.5 1.5 2.5M17 21l.24.16a5 5 0 0 0 2.77.84h.68a2 2 0 0 0 1.98-2.28l-.55-3.88a12 12 0 0 1-.12-1.7V10a10 10 0 1 0-20 0v4.15a12 12 0 0 1-.12 1.7l-.55 3.87A2 2 0 0 0 3.3 22h.68a5 5 0 0 0 2.77-.84L7 21l1 1.2a5 5 0 0 0 3.84 1.8h.32A5 5 0 0 0 16 22.2zM5.65 19.5a3 3 0 0 1-1.66.5H3.3l.55-3.87A14 14 0 0 0 4 14.15V10a8 8 0 1 1 16 0v4.15a14 14 0 0 0 .14 1.98L20.7 20h-.68a3 3 0 0 1-1.66-.5l-1.74-1.16-2.15 2.58a3 3 0 0 1-2.3 1.08h-.32a3 3 0 0 1-2.3-1.08L7.4 18.34z"/></svg>