<svg xmlns="http://www.w3.org/2000/svg" width="24" height="24"><path d="M8.5 13.76c0 1.38-1.13 2.38-2.68 2.38-1.47 0-2.45-.61-2.7-1.68l1.34-.6q.26.98 1.27.98c.77 0 1.27-.46 1.27-1.2 0-.69-.5-1.16-1.22-1.16-.42 0-.75.09-1.09.3l-.5-1.03 2.1-1.45H3.44V8.95h4.78v1.27L6.4 11.57c1.33.05 2.11.85 2.11 2.19m3.23 2.38c-1.76 0-2.86-1.37-2.86-3.61 0-2.4 1.27-3.72 3.06-3.72 1.13 0 2.08.47 2.47 1.17l-1.19.89a1.5 1.5 0 0 0-1.29-.73q-1.46.01-1.56 2.11c.28-.55.86-.88 1.67-.88 1.33 0 2.35.9 2.35 2.32 0 1.38-1.04 2.45-2.65 2.45m-.06-3.53c-.69 0-1.2.45-1.2 1.15 0 .69.51 1.14 1.2 1.14.7 0 1.21-.45 1.21-1.14 0-.7-.52-1.15-1.2-1.15m5.99-3.8c1.84 0 2.93 1.37 2.93 3.66s-1.1 3.67-2.93 3.67-2.93-1.37-2.93-3.67 1.1-3.66 2.93-3.66m0 1.35c-.9 0-1.42.86-1.42 2.31s.53 2.32 1.42 2.32 1.43-.86 1.43-2.32c0-1.45-.54-2.31-1.43-2.31M0 7a4 4 0 0 1 4-4h16a4 4 0 0 1 4 4v10a4 4 0 0 1-4 4H4a4 4 0 0 1-4-4zm2 0v10c0 1.1.9 2 2 2h16a2 2 0 0 0 2-2V7a2 2 0 0 0-2-2H4a2 2 0 0 0-2 2"/></svg>