<svg xmlns="http://www.w3.org/2000/svg" width="24" height="24"><path d="M1 2.5C1 1.67 1.67 1 2.5 1h2C5.33 1 6 1.67 6 2.5v2C6 5.33 5.33 6 4.5 6h-2A1.5 1.5 0 0 1 1 4.5zM1 11c0-.83.67-1.5 1.5-1.5h2c.83 0 1.5.67 1.5 1.5v2c0 .83-.67 1.5-1.5 1.5h-2A1.5 1.5 0 0 1 1 13zm3.5 7c.83 0 1.5.67 1.5 1.5v2c0 .83-.67 1.5-1.5 1.5h-2A1.5 1.5 0 0 1 1 21.5v-2c0-.83.67-1.5 1.5-1.5zm5-15.5c0-.83.67-1.5 1.5-1.5h2c.83 0 1.5.67 1.5 1.5v2c0 .83-.67 1.5-1.5 1.5h-2a1.5 1.5 0 0 1-1.5-1.5zm3.5 7c.83 0 1.5.67 1.5 1.5v2c0 .83-.67 1.5-1.5 1.5h-2A1.5 1.5 0 0 1 9.5 13v-2c0-.83.67-1.5 1.5-1.5zm-3.5 10c0-.83.67-1.5 1.5-1.5h2c.83 0 1.5.67 1.5 1.5v2c0 .83-.67 1.5-1.5 1.5h-2a1.5 1.5 0 0 1-1.5-1.5zM21.5 1c.83 0 1.5.67 1.5 1.5v2c0 .83-.67 1.5-1.5 1.5h-2A1.5 1.5 0 0 1 18 4.5v-2c0-.83.67-1.5 1.5-1.5zM18 11c0-.83.67-1.5 1.5-1.5h2c.83 0 1.5.67 1.5 1.5v2c0 .83-.67 1.5-1.5 1.5h-2A1.5 1.5 0 0 1 18 13zm3.5 7c.83 0 1.5.67 1.5 1.5v2c0 .83-.67 1.5-1.5 1.5h-2a1.5 1.5 0 0 1-1.5-1.5v-2c0-.83.67-1.5 1.5-1.5z"/></svg>