<svg xmlns="http://www.w3.org/2000/svg" width="24" height="24"><path d="M5.4 3.18a.9.9 0 0 0-.36 1.2l5.19 10-5.8.14c-.94.03-1.76.67-2 1.58l-.06.23q0 .03.03.05l3.77.74q.71.15 1.36.48l3.65 1.88a6.3 6.3 0 0 0 6.04-.14l1.62-.94h.02v-.01l.86-.5a4.2 4.2 0 0 0 1.77-5.29l-1.45-3.44-.3-.54a1.45 1.45 0 0 0-1.82-.61l-.67.27-.47-.54a1.6 1.6 0 0 0-2.46.04l-.51.63-.73-.37a1.6 1.6 0 0 0-1.9.3l-.9.93-3.67-5.8a.9.9 0 0 0-1.22-.3M3.26 5.3A2.9 2.9 0 0 1 8.3 2.4l2.43 3.83a3.6 3.6 0 0 1 2.58-.25 3.6 3.6 0 0 1 4.49-.02c1.41-.28 2.9.35 3.66 1.66l.37.64 1.5 3.57a6.2 6.2 0 0 1-2.61 7.8l-.86.49-.02.01-1.62.94a8.3 8.3 0 0 1-7.95.19l-3.65-1.88a3 3 0 0 0-.84-.3l-3.77-.74a2.04 2.04 0 0 1-1.57-2.53l.06-.23a4.1 4.1 0 0 1 3.88-3.06l2.6-.06z"/></svg>