<svg xmlns="http://www.w3.org/2000/svg" width="24" height="24"><path d="M6.47 2a6.5 6.5 0 0 1 4.97 2.33L12 5l.56-.67A6.47 6.47 0 0 1 24 8.47V9c0 6.18-8.97 11.59-11.07 12.76Q12.5 22 12 22t-.93-.24C8.97 20.6 0 15.18 0 9v-.53C0 4.9 2.9 2 6.47 2M9.9 5.6A4.47 4.47 0 0 0 2 8.48V9q0 .98.42 2h2.96l1.7-3.41a1.5 1.5 0 0 1 2.76.15l2.27 6.16 2.05-4.39a1.5 1.5 0 0 1 2.7-.03l.76 1.52h3.96Q22 9.98 22 9v-.53a4.47 4.47 0 0 0-7.9-2.86L12 8.12zM3.55 13q1.03 1.41 2.54 2.78A34 34 0 0 0 12 19.99c1.03-.58 3.6-2.12 5.9-4.21q1.52-1.36 2.55-2.78H17.3a1.5 1.5 0 0 1-1.34-.83l-.44-.87-2.12 4.54a1.5 1.5 0 0 1-2.76-.12l-2.29-6.2-1.33 2.65c-.25.5-.77.83-1.34.83z"/></svg>