<svg xmlns="http://www.w3.org/2000/svg" width="24" height="24"><path d="M14.95.26a3.2 3.2 0 0 0-4.08 2.08L9.24 7.56 6.57 6.53a2.7 2.7 0 0 0-3.2.87c-.46.62-1.02 1.5-1.48 2.55-.53 1.2-.84 3.11-.73 5.18a13 13 0 0 0 2 6.42l.3.45H22v-2c-.9 0-1.55-.4-2.06-1.12a7 7 0 0 1-1.06-3.02q-.13-.98-.1-1.91v-.65a3.3 3.3 0 0 0-2.03-2.85l-2.26-.87 2.34-4.9A3.2 3.2 0 0 0 14.95.26M4.43 12.02l11.15 4.18.05.02 1.37.51A8.5 8.5 0 0 0 18.28 20h-7.96c-.4-.3-.93-.8-1.38-1.44A4.5 4.5 0 0 1 8 16H6a6.4 6.4 0 0 0 1.51 4H4.55c-.9-1.54-1.3-3.32-1.4-4.98-.07-1.31.06-2.5.28-3.37l.94.35zm10.6-8.2-3.27 6.85 4.27 1.64c.4.16.72.6.76 1.18v.17l-.01.22q-.01.24-.2.39-.16.11-.29.06l-11.2-4.2a1 1 0 0 1-.5-.5.6.6 0 0 1 .06-.57l.32-.47c.17-.22.5-.34.88-.19l4.66 1.8 2.27-7.26a1.2 1.2 0 1 1 2.24.88M21.3 5h-.6l-.09.37a3 3 0 0 1-2.24 2.24L18 7.7v.6l.37.09a3 3 0 0 1 2.24 2.24l.09.37h.6l.09-.37a3 3 0 0 1 2.24-2.24L24 8.3v-.6l-.37-.09a3 3 0 0 1-2.24-2.24z"/></svg>