<svg xmlns="http://www.w3.org/2000/svg" width="24" height="24"><path d="M12 0a1.5 1.5 0 1 0 0 3 1.5 1.5 0 0 0 0-3M4 7a3 3 0 1 0 0-6 3 3 0 0 0 0 6M3 4a1 1 0 1 1 2 0 1 1 0 0 1-2 0m9 15a7 7 0 1 0 0-14 7 7 0 0 0 0 14m-5-7a5 5 0 1 1 10 0 5 5 0 0 1-10 0m-3 5a3 3 0 1 0 0 6 3 3 0 0 0 0-6m1 3a1 1 0 1 1-2 0 1 1 0 0 1 2 0m7 1a1.5 1.5 0 1 0 0 3 1.5 1.5 0 0 0 0-3M0 12a1.5 1.5 0 1 0 3 0 1.5 1.5 0 0 0-3 0m21 0a1.5 1.5 0 1 0 3 0 1.5 1.5 0 0 0-3 0m-1-5a3 3 0 1 0 0-6 3 3 0 0 0 0 6m-1-3a1 1 0 1 1 2 0 1 1 0 0 1-2 0m1 13a3 3 0 1 0 0 6 3 3 0 0 0 0-6m1 3a1 1 0 1 1-2 0 1 1 0 0 1 2 0"/></svg>