<svg xmlns="http://www.w3.org/2000/svg" width="24" height="24"><path d="M10.75.06a12 12 0 0 1 2.5 0l-.41 3.98a8 8 0 0 0-1.68 0zM4.95 2.3q1.01-.74 2.17-1.25L8.75 4.7q-.78.34-1.45.84zm11.93-1.25q1.16.51 2.18 1.25L16.7 5.53q-.67-.5-1.45-.84zM1.04 7.12q.51-1.16 1.25-2.18L5.53 7.3q-.5.67-.84 1.45zM21.7 4.94q.74 1.01 1.25 2.18L19.3 8.75a8 8 0 0 0-.84-1.45zm-17.67 7.9-3.98.41a12 12 0 0 1 0-2.5l3.98.41a8 8 0 0 0 0 1.68m19.9-2.1a12 12 0 0 1 0 2.51l-3.98-.41a8 8 0 0 0 0-1.68zM2.29 19.07q-.74-1.02-1.25-2.18l3.65-1.63q.34.78.84 1.45zm20.67-2.18q-.51 1.16-1.25 2.18l-3.24-2.36a8 8 0 0 0 .84-1.45zM7.12 22.96q-1.16-.51-2.18-1.25l2.36-3.24a8 8 0 0 0 1.45.84zm11.94-1.25q-1.02.74-2.18 1.25l-1.63-3.65a8 8 0 0 0 1.45-.84zm-6.22-1.75.41 3.98a12 12 0 0 1-2.5 0l.41-3.98a8 8 0 0 0 1.68 0M18 12a6 6 0 1 1-12 0 6 6 0 0 1 12 0m-6-4a4 4 0 1 0 0 8 4 4 0 0 0 0-8"/></svg>