<svg xmlns="http://www.w3.org/2000/svg" width="24" height="24"><path d="m9.46 9.66.7 1.96h-1.4zM0 10.76C0 5.53 5.37 1.3 12 1.3s12 4.23 12 9.46-5.37 9.46-12 9.46q-1.1 0-2.13-.15c-.7.5-4.7 3.3-5.07 3.35 0 0-.16.06-.29-.01-.13-.08-.1-.28-.1-.28.03-.27 1.03-3.72 1.21-4.35C2.25 17.1 0 14.14 0 10.76m4.67 2.64c0 .37.31.66.7.66s.69-.3.69-.66V9.3h1.08a.68.68 0 0 0 0-1.36H3.59a.68.68 0 0 0 0 1.36h1.08zm6.19.35q.12.3.58.3.23 0 .44-.1c.19-.08.37-.32.16-.98l-1.66-4.35a1 1 0 0 0-.92-.69c-.45.01-.8.36-.92.69l-1.66 4.36c-.2.65-.02.9.17.98q.21.1.44.1.45-.01.57-.31l.35-.9h2.1zm1.63-.42c0 .35.3.63.66.63h2.22c.37 0 .67-.28.67-.63s-.3-.64-.66-.64H13.9V8.63a.7.7 0 0 0-.7-.7.7.7 0 0 0-.71.7zm3.82.03a.7.7 0 0 0 1.38 0v-1.5l.24-.25 1.63 2.15a.7.7 0 0 0 .97.14.7.7 0 0 0 .13-.97l-1.7-2.26 1.58-1.58q.16-.17.15-.42a.7.7 0 0 0-.2-.44.7.7 0 0 0-.48-.2.5.5 0 0 0-.39.15l-1.93 1.93V8.63a.7.7 0 0 0-1.38 0z"/></svg>