<svg xmlns="http://www.w3.org/2000/svg" width="24" height="24"><path d="M11.99 1.73c3.22 0 5.9 2.68 5.9 5.91q0 1.13.07 2.1a.74.74 0 0 0 .9.66l1.02-.23.12-.02c.26 0 .5.18.55.44a.74.74 0 0 1-.48.86l-1.53.62a.8.8 0 0 0-.48.98c1.23 4.54 4.66 4.07 4.66 4.66 0 .74-2.59.85-2.82 1.08-.24.23-.01 1.37-.53 1.59q-.15.05-.41.05c-.4 0-.95-.07-1.54-.07-.5 0-1.04.05-1.5.27-1.24.57-2.44 1.64-3.92 1.64s-2.68-1.07-3.91-1.64a4 4 0 0 0-1.51-.27c-.59 0-1.14.07-1.54.07q-.25 0-.4-.05c-.53-.22-.3-1.36-.54-1.59-.23-.23-2.82-.34-2.82-1.08 0-.6 3.43-.12 4.66-4.66a.8.8 0 0 0-.48-.98l-1.53-.62a.74.74 0 0 1-.48-.86.56.56 0 0 1 .67-.42l1.01.23q.1.03.17.02c.38 0 .7-.29.74-.69q.06-.96.06-2.09A5.95 5.95 0 0 1 12 1.73m0-1.28a7 7 0 0 0-5.06 2.12 7.3 7.3 0 0 0-2.1 5.07q0 .7-.04 1.37l-.37-.09a1.85 1.85 0 0 0-2.22 1.39c-.22.99.32 1.98 1.27 2.33l1.12.46c-.74 2.28-2.12 2.72-3.04 3.02q-.37.1-.66.24a1.5 1.5 0 0 0-.89 1.35c0 .52.25 1 .7 1.34q.33.25.84.43c.47.16 1.01.26 1.46.34q.03.25.1.52a1.8 1.8 0 0 0 1.04 1.22c.33.14.67.15.9.15l.72-.03q.4-.04.82-.04.63 0 .97.15.46.23.99.55c.97.57 2.07 1.21 3.46 1.21s2.49-.64 3.46-1.21q.52-.31 1-.55.32-.15.96-.15.42 0 .82.04l.72.03c.23 0 .57-.01.9-.15a1.8 1.8 0 0 0 1.04-1.22q.07-.27.1-.52c.45-.08 1-.18 1.46-.34q.52-.18.85-.43.68-.54.69-1.34c0-.27-.09-.95-.89-1.35q-.3-.14-.66-.24c-.92-.3-2.3-.74-3.04-3.02l1.12-.46a2 2 0 0 0 1.27-2.33 1.83 1.83 0 0 0-2.22-1.39l-.37.09q-.03-.66-.03-1.37a7 7 0 0 0-2.12-5.07A7.3 7.3 0 0 0 11.99.45"/></svg>