<svg xmlns="http://www.w3.org/2000/svg" width="24" height="24"><path d="M19.83 2.41a4 4 0 0 0-5.66 0l-2.26 2.26a4 4 0 0 0-.48 5.07l1.47-1.47a2 2 0 0 1 .43-2.18l2.26-2.26a2 2 0 0 1 2.82 0l1.76 1.76a2 2 0 0 1 0 2.82l-2.26 2.26a2 2 0 0 1-2.18.43l-1.47 1.47a4 4 0 0 0 5.07-.48l2.26-2.26a4 4 0 0 0 0-5.66zM2.4 14.17a4 4 0 0 0 0 5.66l1.76 1.76a4 4 0 0 0 5.66 0l2.26-2.26a4 4 0 0 0 .48-5.07l-1.47 1.47a2 2 0 0 1-.43 2.18L8.4 20.17a2 2 0 0 1-2.82 0l-1.76-1.76a2 2 0 0 1 0-2.82l2.26-2.26a2 2 0 0 1 2.18-.43l1.47-1.47a4 4 0 0 0-5.07.48zm6.3 2.54 8-8-1.42-1.42-8 8z"/></svg>