<svg xmlns="http://www.w3.org/2000/svg" width="24" height="24"><path d="m.3 1.7 22 22 1.4-1.4-22-22zM16 4v2a6 6 0 0 1 4.36 10.12l1.42 1.41A8 8 0 0 0 16 4m0 4v2a2 2 0 0 1 1.53 3.29l1.42 1.41A4 4 0 0 0 16 8m-3-7h-1.06a3 3 0 0 0-2.3 1.08l-1.51 1.8L9.55 5.3l1.62-1.94a1 1 0 0 1 .77-.36H13v5.76l2 2V3a2 2 0 0 0-2-2M7 11.24 2.9 7.15A4 4 0 0 0 0 11v2a4 4 0 0 0 4 4h1.64a5 5 0 0 0 .52.75l3.47 4.17a3 3 0 0 0 2.3 1.08H13a2 2 0 0 0 2-2v-1.76l-2-2V21h-1.06a1 1 0 0 1-.77-.36L7.7 16.47a3 3 0 0 1-.7-1.92zM5 14a1 1 0 0 1-1 1 2 2 0 0 1-2-2v-2c0-1.1.9-2 2-2a1 1 0 0 1 1 1z"/></svg>