<svg xmlns="http://www.w3.org/2000/svg" width="24" height="24"><path d="M9 10a3 3 0 1 1 6 0 3 3 0 0 1-6 0m3-1a1 1 0 1 0 0 2 1 1 0 0 0 0-2M9.63 1.08A3 3 0 0 1 11.93 0h.13a3 3 0 0 1 2.3 1.08l1.74 2.08a12.5 12.5 0 0 1 2.77 6.18l2.04 1.17a3 3 0 0 1 1.51 2.8l-.32 5.11q0 .15-.03.27a2 2 0 0 1-3 1.32l-1.55-.93-.92-.55-.1.14-.4.53a2 2 0 0 1-1.6.8h-5a2 2 0 0 1-1.6-.8l-.4-.53-.1-.14L4.92 20q-.23.15-.5.22a2 2 0 0 1-2.52-1.8l-.32-5.12a3 3 0 0 1 1.5-2.8l2.05-1.17A12.5 12.5 0 0 1 7.9 3.16zM9.1 17.47l.4.53h5l.4-.53a11 11 0 0 0 1.36-2.45q.5-1.38.64-2.86.02-.21.08-.43a10.5 10.5 0 0 0-2.41-7.29l-1.74-2.08a1 1 0 0 0-.77-.36h-.12a1 1 0 0 0-.77.36L9.43 4.44a10.5 10.5 0 0 0-2.41 7.3q.05.2.08.42a11 11 0 0 0 .71 3.06q.5 1.2 1.3 2.25m10.94-5.14-.11-.08-.5-.28q-.12-.07-.3.02l-.17.17a13 13 0 0 1-.89 3.73c-.17.64.07 1.22.48 1.47l1.55.94.32-5.12a1 1 0 0 0-.38-.85m-16.39.4a1 1 0 0 0-.07.45l.32 5.12 1.55-.94c.41-.24.65-.83.48-1.47a13 13 0 0 1-.9-3.73l-.16-.17q-.18-.1-.3-.02l-.5.28a1 1 0 0 0-.42.48M15 23H9v-2h6z"/></svg>