<svg xmlns="http://www.w3.org/2000/svg" width="24" height="24"><path d="M19.73.94a5 5 0 0 0 3.65 3.42l.62.14v1l-.62.14a5 5 0 0 0-3.74 3.74l-.14.62h-1l-.14-.62a5 5 0 0 0-3.42-3.65l-.32-.09L14 5.5v-1l.62-.14A5 5 0 0 0 18.36.62L18.5 0h1l.14.62zM19 6.2q.52-.67 1.2-1.2A7 7 0 0 1 19 3.8q-.52.68-1.2 1.2.68.52 1.2 1.2m-1.73 6.02L20 13v2l-2.73.78a8 8 0 0 0-5.5 5.5L11 24H9l-.78-2.73a8 8 0 0 0-5.5-5.5L0 15v-2l2.73-.78a8 8 0 0 0 5.5-5.5L9 4h2l.78 2.73a8 8 0 0 0 5.5 5.5M10 7.74A10 10 0 0 1 3.74 14 10 10 0 0 1 10 20.26 10 10 0 0 1 16.26 14 10 10 0 0 1 10 7.74"/></svg>