<svg xmlns="http://www.w3.org/2000/svg" width="24" height="24"><path d="M11.96 0a.97.97 0 1 0 0 1.95 10.04 10.04 0 0 1 5.2 18.68.97.97 0 0 0 1 1.66A11.99 11.99 0 0 0 11.95 0M5.62 4.17a.97.97 0 0 0-1.23-1.51q-.75.6-1.38 1.31a.97.97 0 0 0 1.44 1.3q.54-.6 1.17-1.1M.95 7.13Q.23 8.72 0 10.5a.97.97 0 1 0 1.93.25 10 10 0 0 1 .79-2.83.97.97 0 0 0-1.78-.8m1.09 6.77a.97.97 0 1 0-1.91.38l.02.1.02.1.1.44v.01a12 12 0 0 0 3.07 5.45.97.97 0 0 0 1.39-1.36 10 10 0 0 1-2.65-4.93l-.02-.1zm4.41 8.77a12 12 0 0 0 7.59 1.15.97.97 0 1 0-.33-1.92 10.3 10.3 0 0 1-6.37-.96.97.97 0 0 0-.89 1.73m6.52-15.53a.97.97 0 0 0-1.94 0v3.89h-3.9a.97.97 0 0 0 0 1.94h3.9v3.9a.97.97 0 0 0 1.94 0v-3.9h3.9a.97.97 0 0 0 0-1.94h-3.9z"/></svg>