<svg xmlns="http://www.w3.org/2000/svg" width="24" height="24"><path d="M18.75 16.8c-.29.83-1.43 1.5-2.32 1.69-.62.12-1.42.23-4.14-.9-3.48-1.45-5.71-5-5.89-5.24-.17-.23-1.4-1.88-1.4-3.59 0-1.7.86-2.54 1.21-2.9.29-.3.76-.42 1.21-.42h.4c.35.02.52.04.75.6.29.68.98 2.4 1.07 2.57.08.18.16.42.05.65s-.21.34-.38.54-.34.36-.52.58c-.16.19-.33.39-.14.74.2.34.9 1.48 1.92 2.4 1.32 1.19 2.4 1.56 2.77 1.72.29.11.62.1.83-.14.27-.29.6-.76.93-1.23.23-.34.54-.38.84-.26.32.12 2.02.96 2.36 1.13.35.17.58.25.67.4.06.17.06.86-.22 1.67M12 0A12 12 0 0 0 1.97 18.58L0 24l5.5-1.88-.09-.1A12 12 0 1 0 12 0"/></svg>