<svg xmlns="http://www.w3.org/2000/svg" width="24" height="24"><path d="M9.37 19.36A18 18 0 0 1 8.02 13h7.96q-.06 1.35-.26 2.58l1.97.32q.23-1.39.29-2.9h4.98l1 .09Q24 12.55 24 12a12 12 0 1 0-9.82 11.8l-.36-1.96q-.89.15-1.82.16c-.75 0-1.75-.71-2.63-2.64m5.26-14.72A18 18 0 0 1 15.98 11H8.02c.1-2.52.62-4.74 1.35-6.36C10.25 2.7 11.25 2 12 2s1.75.71 2.63 2.64M7.55 3.8A20 20 0 0 0 6.02 11H2.05a10 10 0 0 1 6.03-8.2q-.3.48-.53 1m0 16.38q.24.53.53 1.01A10 10 0 0 1 2.05 13h3.97c.1 2.76.66 5.27 1.53 7.2m14.4-9.2h-3.97a20 20 0 0 0-1.53-7.2q-.24-.51-.53-1a10 10 0 0 1 6.03 8.2m1.76 5.2-1.42-1.4-4.79 4.79-1.8-1.8-1.4 1.42 3.2 3.2z"/></svg>