<svg xmlns="http://www.w3.org/2000/svg" width="24" height="24"><path d="M17.9 3.38v-1.5q1.41-.01 1.45-1.22h1.42V7h-1.46V2.77c-.2.41-.7.61-1.41.61m1.2 8.6 1.15-.55q.64-.3.65-.85c0-.46-.33-.75-.83-.75q-.91.01-1.02 1.06l-1.5-.36c.04-1.29 1.05-2 2.51-2 1.52 0 2.38.75 2.38 1.99 0 .97-.56 1.58-1.42 2.01l-1.12.59q-.47.23-.56.5h3.03V15H17.6c-.04-.14-.06-.4-.06-.6 0-1.16.57-1.94 1.57-2.42m.8 11.15c-1.3 0-2.18-.53-2.46-1.52l1.3-.63q.25.86 1.1.86c.63 0 1.03-.4 1.03-1 0-.57-.4-.94-1-.94q-.58.02-.96.31l-.55-1.03 1.9-1.17h-2.52v-1.35h4.38v1.33l-1.54 1.04c1.17.07 1.81.8 1.81 1.92 0 1.29-1.03 2.18-2.48 2.18M1 3h14v2H1zm14 10H1v-2h14zm0 8H1v-2h14z"/></svg>