<svg xmlns="http://www.w3.org/2000/svg" width="24" height="24"><path d="M22 4.5c0-.86-.45-1.57-1.03-2.1a7 7 0 0 0-2.24-1.3A19 19 0 0 0 12 0C9.42 0 7.04.4 5.27 1.1c-.88.34-1.66.77-2.24 1.3A3 3 0 0 0 2 4.5V20c0 .85.52 1.5 1.09 1.95.58.46 1.36.83 2.23 1.12 1.76.59 4.12.93 6.68.93s4.92-.34 6.68-.93c.87-.3 1.65-.66 2.23-1.12.57-.45 1.09-1.1 1.09-1.95zM6 2.96C7.48 2.38 9.6 2 12 2s4.51.38 6 .96q1.12.44 1.62.91c.33.3.38.52.38.63s-.05.32-.38.63q-.5.46-1.62.91c-1.48.58-3.6.96-6 .96s-4.52-.38-6-.96a5 5 0 0 1-1.62-.91C4.05 4.83 4 4.6 4 4.5s.05-.32.38-.63q.5-.46 1.62-.91M20 10v.02l-.04.06q-.05.1-.29.3-.5.4-1.62.8c-1.5.5-3.64.82-6.05.82s-4.55-.33-6.05-.83a6 6 0 0 1-1.62-.79 1 1 0 0 1-.3-.3L4 10.02V7.3a9 9 0 0 0 1.27.6C7.04 8.6 9.42 9 12 9s4.96-.4 6.73-1.1q.68-.25 1.27-.6zm0 5v.02l-.04.06q-.05.1-.29.3-.5.4-1.62.8c-1.5.5-3.64.82-6.05.82s-4.55-.33-6.05-.83a6 6 0 0 1-1.62-.79 1 1 0 0 1-.3-.3L4 15.02v-2.49q.6.3 1.32.54c1.76.59 4.12.93 6.68.93s4.92-.34 6.68-.93q.71-.24 1.32-.54zm0 5v.02l-.04.06q-.05.1-.29.3-.5.4-1.62.8c-1.5.5-3.64.82-6.05.82s-4.55-.33-6.05-.83a6 6 0 0 1-1.62-.79 1 1 0 0 1-.3-.3L4 20.02v-2.49q.6.3 1.32.54c1.76.59 4.12.93 6.68.93s4.92-.34 6.68-.93q.71-.24 1.32-.54z"/></svg>