<svg xmlns="http://www.w3.org/2000/svg" width="24" height="24"><path d="M7.25 11.79h3.82V16H9.75v-1.14c-.38.89-1.29 1.3-2.45 1.3-2.08 0-3.6-1.65-3.6-4.08 0-2.34 1.65-3.99 3.88-3.99 1.69 0 2.94.7 3.45 1.93l-1.47.72q-.5-1.18-1.93-1.2c-1.35 0-2.32.87-2.32 2.54 0 1.64.84 2.68 2.29 2.68 1.2 0 1.87-.63 1.96-1.55h-2.3zm5.28-3.54h1.54V16h-1.54zm4.64 1.45v1.93h2.59v1.42h-2.59V16h-1.54V8.25h4.89V9.7zM0 7a4 4 0 0 1 4-4h16a4 4 0 0 1 4 4v10a4 4 0 0 1-4 4H4a4 4 0 0 1-4-4zm2 0v10c0 1.1.9 2 2 2h16a2 2 0 0 0 2-2V7a2 2 0 0 0-2-2H4a2 2 0 0 0-2 2"/></svg>