<svg xmlns="http://www.w3.org/2000/svg" width="24" height="24"><path d="M7 7.5a1.5 1.5 0 1 1 3 0 1.5 1.5 0 0 1-3 0m7 5c0 1.38-.9 2.5-2 2.5s-2-1.12-2-2.5.9-2.5 2-2.5 2 1.12 2 2.5m0-5a1.5 1.5 0 1 1 3 0 1.5 1.5 0 0 1-3 0m3.24 13.66L17 21l-1 1.2a5 5 0 0 1-3.84 1.8h-.32A5 5 0 0 1 8 22.2L7 21l-.24.16a5 5 0 0 1-2.77.84H3.3a2 2 0 0 1-1.98-2.28l.55-3.88a12 12 0 0 0 .12-1.7V10a10 10 0 1 1 20 0v4.15a12 12 0 0 0 .12 1.7l.55 3.87A2 2 0 0 1 20.7 22h-.68a5 5 0 0 1-2.77-.84m-7.7-.24a3 3 0 0 0 2.3 1.08h.32a3 3 0 0 0 2.3-1.08l2.15-2.58 1.74 1.16a3 3 0 0 0 1.66.5h.68l-.55-3.87a14 14 0 0 1-.14-1.98V10a8 8 0 1 0-16 0v4.15a14 14 0 0 1-.14 1.98L3.3 20h.68a3 3 0 0 0 1.66-.5l1.74-1.16z"/></svg>