<svg xmlns="http://www.w3.org/2000/svg" width="24" height="24"><path d="m4.09 6.59-.04.03-.03.03C2.54 8.27 1 10.73 1 13.5 1 19.3 6.02 24 12 24s11-4.7 11-10.5c0-.99-.19-2.17-.46-3.23-.27-1-.68-2.19-1.29-3a2.35 2.35 0 0 0-3.5-.4A11.1 11.1 0 0 0 8.41.06C6.45-.14 5.17 1.5 5.15 3.04Q5.14 5.53 4.1 6.59m11.46 14.7A6 6 0 0 0 16 19c0-2.76-1.8-5-4-5s-4 2.24-4 5a6 6 0 0 0 .45 2.3A8.6 8.6 0 0 1 3 13.5C3 11.45 4.17 9.45 5.5 8c1.25-1.25 1.64-3.1 1.66-4.93 0-.58.47-1.07 1.05-1 4.83.5 7.66 3.95 8.18 7.38.18 1.2.07 2.4-.33 3.47a7 7 0 0 0 2.38-3.16 10 10 0 0 0 .36-.98c.13-.45.56-.71.84-.33q.22.29.4.71a8 8 0 0 1 .39 1.02c.34 1.1.57 2.39.57 3.32a8.6 8.6 0 0 1-5.45 7.8M14 19c0 2.1-1.29 3-2 3s-2-.9-2-3 1.29-3 2-3 2 .9 2 3"/></svg>